<?xml version="1.0" encoding="UTF-8" standalone="no"?>
<!DOCTYPE svg PUBLIC "-//W3C//DTD SVG 1.1//EN"
 "http://www.w3.org/Graphics/SVG/1.1/DTD/svg11.dtd">
<!-- Generated by graphviz version 2.26.3 (20100126.1600)
 -->
<!-- Title: G Pages: 1 -->
<svg width="1220pt" height="3050pt"
 viewBox="0.00 0.00 1220.00 3050.00" xmlns="http://www.w3.org/2000/svg" xmlns:xlink="http://www.w3.org/1999/xlink">
<g id="graph1" class="graph" transform="scale(1 1) rotate(0) translate(4 3046)">
<title>G</title>
<polygon fill="white" stroke="white" points="-4,5 -4,-3046 1217,-3046 1217,5 -4,5"/>
<g id="graph2" class="cluster"><title>cluster_Global</title>
<polyline fill="none" stroke="gray" points="177,-422 1192,-422 "/>
<path fill="none" stroke="gray" d="M1192,-422C1198,-422 1204,-428 1204,-434"/>
<polyline fill="none" stroke="gray" points="1204,-434 1204,-3022 "/>
<path fill="none" stroke="gray" d="M1204,-3022C1204,-3028 1198,-3034 1192,-3034"/>
<polyline fill="none" stroke="gray" points="1192,-3034 177,-3034 "/>
<path fill="none" stroke="gray" d="M177,-3034C171,-3034 165,-3028 165,-3022"/>
<polyline fill="none" stroke="gray" points="165,-3022 165,-434 "/>
<path fill="none" stroke="gray" d="M165,-434C165,-428 171,-422 177,-422"/>
<text text-anchor="middle" x="684.5" y="-3020.1" font-family="Times Roman,serif" font-size="11.00" fill="gray">Global</text>
</g>
<!-- \\AppController -->
<g id="node2" class="node"><title>\\AppController</title>
<polygon fill="none" stroke="black" points="555,-1601 451,-1601 451,-1565 555,-1565 555,-1601"/>
<text text-anchor="middle" x="503" y="-1580.1" font-family="Courier,monospace" font-size="11.00">AppController</text>
</g>
<!-- \\Controller -->
<g id="node65" class="node"><title>\\Controller</title>
<ellipse fill="none" stroke="black" cx="242" cy="-319" rx="63.1385" ry="18.3848"/>
<text text-anchor="middle" x="242" y="-315.4" font-family="Times Roman,serif" font-size="14.00" fill="gray">\Controller</text>
</g>
<!-- \\AppController&#45;&gt;\\Controller -->
<g id="edge3" class="edge"><title>\\AppController&#45;&gt;\\Controller</title>
<path fill="none" stroke="black" d="M450.792,-1584.99C430.751,-1582.87 409.478,-1576.55 396,-1561 222.184,-1360.48 460.842,-596.368 324,-369 316.106,-355.884 303.327,-345.744 290.182,-338.133"/>
<polygon fill="none" stroke="black" points="291.548,-334.895 281.079,-333.263 288.245,-341.067 291.548,-334.895"/>
</g>
<!-- \\AppModel -->
<g id="node3" class="node"><title>\\AppModel</title>
<polygon fill="none" stroke="black" points="538,-2977 468,-2977 468,-2941 538,-2941 538,-2977"/>
<text text-anchor="middle" x="503" y="-2956.1" font-family="Courier,monospace" font-size="11.00">AppModel</text>
</g>
<!-- \\NetCommonsAppModel -->
<g id="node50" class="node"><title>\\NetCommonsAppModel</title>
<polygon fill="none" stroke="black" points="311,-2977 173,-2977 173,-2941 311,-2941 311,-2977"/>
<text text-anchor="middle" x="242" y="-2956.1" font-family="Courier,monospace" font-size="11.00">NetCommonsAppModel</text>
</g>
<!-- \\AppModel&#45;&gt;\\NetCommonsAppModel -->
<g id="edge5" class="edge"><title>\\AppModel&#45;&gt;\\NetCommonsAppModel</title>
<path fill="none" stroke="black" d="M467.256,-2959C429.848,-2959 369.903,-2959 321.254,-2959"/>
<polygon fill="none" stroke="black" points="321.056,-2955.5 311.056,-2959 321.056,-2962.5 321.056,-2955.5"/>
</g>
<!-- \\DatabaseConfiguration -->
<g id="node4" class="node"><title>\\DatabaseConfiguration</title>
<polygon fill="none" stroke="black" points="879,-3004 721,-3004 721,-2968 879,-2968 879,-3004"/>
<text text-anchor="middle" x="800" y="-2983.1" font-family="Courier,monospace" font-size="11.00">DatabaseConfiguration</text>
</g>
<!-- \\DatabaseConfiguration&#45;&gt;\\AppModel -->
<g id="edge7" class="edge"><title>\\DatabaseConfiguration&#45;&gt;\\AppModel</title>
<path fill="none" stroke="black" d="M720.8,-2978.8C665.959,-2973.81 594.863,-2967.35 549.084,-2963.19"/>
<polygon fill="none" stroke="black" points="549.143,-2959.68 538.867,-2962.26 548.509,-2966.65 549.143,-2959.68"/>
</g>
<!-- \\AppHelper -->
<g id="node5" class="node"><title>\\AppHelper</title>
<polygon fill="none" stroke="black" points="838,-1951 762,-1951 762,-1915 838,-1915 838,-1951"/>
<text text-anchor="middle" x="800" y="-1930.1" font-family="Courier,monospace" font-size="11.00">AppHelper</text>
</g>
<!-- \\Helper -->
<g id="node69" class="node"><title>\\Helper</title>
<ellipse fill="none" stroke="black" cx="503" cy="-396" rx="43.8406" ry="18.3848"/>
<text text-anchor="middle" x="503" y="-392.4" font-family="Times Roman,serif" font-size="14.00" fill="gray">Helper</text>
</g>
<!-- \\AppHelper&#45;&gt;\\Helper -->
<g id="edge9" class="edge"><title>\\AppHelper&#45;&gt;\\Helper</title>
<path fill="none" stroke="black" d="M793.125,-1914.77C772.171,-1858.31 708.901,-1680.91 682,-1528 660.586,-1406.28 691.159,-511.211 610,-418 596.85,-402.897 576.343,-396.51 556.786,-394.219"/>
<polygon fill="none" stroke="black" points="556.948,-390.72 546.69,-393.369 556.361,-397.695 556.948,-390.72"/>
</g>
<!-- \\NetCommonsDeleteTest -->
<g id="node6" class="node"><title>\\NetCommonsDeleteTest</title>
<polygon fill="none" stroke="black" points="1169,-2788 1017,-2788 1017,-2752 1169,-2752 1169,-2788"/>
<text text-anchor="middle" x="1093" y="-2767.1" font-family="Courier,monospace" font-size="11.00">NetCommonsDeleteTest</text>
</g>
<!-- \\NetCommonsModelTestCase -->
<g id="node15" class="node"><title>\\NetCommonsModelTestCase</title>
<polygon fill="none" stroke="black" points="886,-2842 714,-2842 714,-2806 886,-2806 886,-2842"/>
<text text-anchor="middle" x="800" y="-2821.1" font-family="Courier,monospace" font-size="11.00">NetCommonsModelTestCase</text>
</g>
<!-- \\NetCommonsDeleteTest&#45;&gt;\\NetCommonsModelTestCase -->
<g id="edge11" class="edge"><title>\\NetCommonsDeleteTest&#45;&gt;\\NetCommonsModelTestCase</title>
<path fill="none" stroke="black" d="M1016.78,-2784.05C979.893,-2790.85 935.211,-2799.08 896.02,-2806.3"/>
<polygon fill="none" stroke="black" points="895.383,-2802.86 886.183,-2808.12 896.652,-2809.75 895.383,-2802.86"/>
</g>
<!-- \\NetCommonsConsoleTestCase -->
<g id="node7" class="node"><title>\\NetCommonsConsoleTestCase</title>
<polygon fill="none" stroke="black" points="892,-2788 708,-2788 708,-2752 892,-2752 892,-2788"/>
<text text-anchor="middle" x="800" y="-2767.1" font-family="Courier,monospace" font-size="11.00">NetCommonsConsoleTestCase</text>
</g>
<!-- \\NetCommonsCakeTestCase -->
<g id="node13" class="node"><title>\\NetCommonsCakeTestCase</title>
<polygon fill="none" stroke="black" points="585,-2815 421,-2815 421,-2779 585,-2779 585,-2815"/>
<text text-anchor="middle" x="503" y="-2794.1" font-family="Courier,monospace" font-size="11.00">NetCommonsCakeTestCase</text>
</g>
<!-- \\NetCommonsConsoleTestCase&#45;&gt;\\NetCommonsCakeTestCase -->
<g id="edge13" class="edge"><title>\\NetCommonsConsoleTestCase&#45;&gt;\\NetCommonsCakeTestCase</title>
<path fill="none" stroke="black" d="M707.249,-2778.43C671.93,-2781.64 631.688,-2785.3 596.316,-2788.52"/>
<polygon fill="none" stroke="black" points="595.635,-2785.06 585.993,-2789.46 596.269,-2792.04 595.635,-2785.06"/>
</g>
<!-- \\NetCommonsGetTest -->
<g id="node8" class="node"><title>\\NetCommonsGetTest</title>
<polygon fill="none" stroke="black" points="1158,-2950 1028,-2950 1028,-2914 1158,-2914 1158,-2950"/>
<text text-anchor="middle" x="1093" y="-2929.1" font-family="Courier,monospace" font-size="11.00">NetCommonsGetTest</text>
</g>
<!-- \\NetCommonsGetTest&#45;&gt;\\NetCommonsModelTestCase -->
<g id="edge15" class="edge"><title>\\NetCommonsGetTest&#45;&gt;\\NetCommonsModelTestCase</title>
<path fill="none" stroke="black" d="M1027.35,-2918.86C1014.63,-2915.2 1001.65,-2910.63 990,-2905 953.981,-2887.6 954.288,-2867.83 918,-2851 910.962,-2847.74 903.501,-2844.85 895.884,-2842.31"/>
<polygon fill="none" stroke="black" points="896.762,-2838.91 886.173,-2839.26 894.666,-2845.59 896.762,-2838.91"/>
</g>
<!-- \\NetCommonsHelperTestCase -->
<g id="node9" class="node"><title>\\NetCommonsHelperTestCase</title>
<polygon fill="none" stroke="black" points="889,-2896 711,-2896 711,-2860 889,-2860 889,-2896"/>
<text text-anchor="middle" x="800" y="-2875.1" font-family="Courier,monospace" font-size="11.00">NetCommonsHelperTestCase</text>
</g>
<!-- \\NetCommonsHelperTestCase&#45;&gt;\\NetCommonsCakeTestCase -->
<g id="edge17" class="edge"><title>\\NetCommonsHelperTestCase&#45;&gt;\\NetCommonsCakeTestCase</title>
<path fill="none" stroke="black" d="M717.936,-2859.98C705.852,-2857.11 693.579,-2854.07 682,-2851 644.303,-2841.01 602.565,-2828.51 568.882,-2818.05"/>
<polygon fill="none" stroke="black" points="569.742,-2814.65 559.154,-2815.01 567.658,-2821.33 569.742,-2814.65"/>
</g>
<!-- \\NetCommonsControllerBaseTestCase -->
<g id="node10" class="node"><title>\\NetCommonsControllerBaseTestCase</title>
<polygon fill="none" stroke="black" points="916,-1519 684,-1519 684,-1483 916,-1483 916,-1519"/>
<text text-anchor="middle" x="800" y="-1498.1" font-family="Courier,monospace" font-size="11.00">NetCommonsControllerBaseTestCase</text>
</g>
<!-- \\ControllerTestCase -->
<g id="node75" class="node"><title>\\ControllerTestCase</title>
<ellipse fill="none" stroke="black" cx="503" cy="-342" rx="106.773" ry="18.3848"/>
<text text-anchor="middle" x="503" y="-338.4" font-family="Times Roman,serif" font-size="14.00" fill="gray">\ControllerTestCase</text>
</g>
<!-- \\NetCommonsControllerBaseTestCase&#45;&gt;\\ControllerTestCase -->
<g id="edge19" class="edge"><title>\\NetCommonsControllerBaseTestCase&#45;&gt;\\ControllerTestCase</title>
<path fill="none" stroke="black" d="M729.103,-1482.97C710.924,-1474.93 693.326,-1463.41 682,-1447 545.613,-1249.41 763.778,-553.378 610,-369 606.395,-364.678 602.209,-360.992 597.622,-357.854"/>
<polygon fill="none" stroke="black" points="599.368,-354.82 588.972,-352.777 595.824,-360.857 599.368,-354.82"/>
</g>
<!-- \\NetCommonsValidateTest -->
<g id="node11" class="node"><title>\\NetCommonsValidateTest</title>
<polygon fill="none" stroke="black" points="1175,-2896 1011,-2896 1011,-2860 1175,-2860 1175,-2896"/>
<text text-anchor="middle" x="1093" y="-2875.1" font-family="Courier,monospace" font-size="11.00">NetCommonsValidateTest</text>
</g>
<!-- \\NetCommonsValidateTest&#45;&gt;\\NetCommonsModelTestCase -->
<g id="edge21" class="edge"><title>\\NetCommonsValidateTest&#45;&gt;\\NetCommonsModelTestCase</title>
<path fill="none" stroke="black" d="M1010.21,-2862.74C974.791,-2856.21 933.196,-2848.55 896.397,-2841.77"/>
<polygon fill="none" stroke="black" points="896.623,-2838.25 886.154,-2839.88 895.354,-2845.13 896.623,-2838.25"/>
</g>
<!-- \\NetCommonsTestSuite -->
<g id="node12" class="node"><title>\\NetCommonsTestSuite</title>
<polygon fill="none" stroke="black" points="1165,-1384 1021,-1384 1021,-1348 1165,-1348 1165,-1384"/>
<text text-anchor="middle" x="1093" y="-1363.1" font-family="Courier,monospace" font-size="11.00">NetCommonsTestSuite</text>
</g>
<!-- \\CakeTestSuite -->
<g id="node78" class="node"><title>\\CakeTestSuite</title>
<ellipse fill="none" stroke="black" cx="800" cy="-396" rx="84.1457" ry="18.3848"/>
<text text-anchor="middle" x="800" y="-392.4" font-family="Times Roman,serif" font-size="14.00" fill="gray">\CakeTestSuite</text>
</g>
<!-- \\NetCommonsTestSuite&#45;&gt;\\CakeTestSuite -->
<g id="edge23" class="edge"><title>\\NetCommonsTestSuite&#45;&gt;\\CakeTestSuite</title>
<path fill="none" stroke="black" d="M1020.46,-1359.12C1008.78,-1354.88 997.943,-1348.5 990,-1339 858.342,-1181.49 1055.25,-570.67 918,-418 911.208,-410.445 902.724,-404.97 893.438,-401.056"/>
<polygon fill="none" stroke="black" points="894.513,-397.723 883.919,-397.643 892.151,-404.312 894.513,-397.723"/>
</g>
<!-- \\CakeTestCase -->
<g id="node80" class="node"><title>\\CakeTestCase</title>
<ellipse fill="none" stroke="black" cx="242" cy="-396" rx="82.0244" ry="18.3848"/>
<text text-anchor="middle" x="242" y="-392.4" font-family="Times Roman,serif" font-size="14.00" fill="gray">\CakeTestCase</text>
</g>
<!-- \\NetCommonsCakeTestCase&#45;&gt;\\CakeTestCase -->
<g id="edge25" class="edge"><title>\\NetCommonsCakeTestCase&#45;&gt;\\CakeTestCase</title>
<path fill="none" stroke="black" d="M501.164,-2778.89C490.128,-2669.57 431.869,-2086.62 396,-1610 386.043,-1477.69 407.896,-520.796 324,-418 322.288,-415.902 320.398,-413.991 318.367,-412.253"/>
<polygon fill="none" stroke="black" points="320.105,-409.199 309.897,-406.363 316.109,-414.946 320.105,-409.199"/>
</g>
<!-- \\NetCommonsSaveTest -->
<g id="node14" class="node"><title>\\NetCommonsSaveTest</title>
<polygon fill="none" stroke="black" points="1162,-2842 1024,-2842 1024,-2806 1162,-2806 1162,-2842"/>
<text text-anchor="middle" x="1093" y="-2821.1" font-family="Courier,monospace" font-size="11.00">NetCommonsSaveTest</text>
</g>
<!-- \\NetCommonsSaveTest&#45;&gt;\\NetCommonsModelTestCase -->
<g id="edge27" class="edge"><title>\\NetCommonsSaveTest&#45;&gt;\\NetCommonsModelTestCase</title>
<path fill="none" stroke="black" d="M1023.93,-2824C985.875,-2824 938.032,-2824 896.349,-2824"/>
<polygon fill="none" stroke="black" points="896.173,-2820.5 886.172,-2824 896.172,-2827.5 896.173,-2820.5"/>
</g>
<!-- \\NetCommonsModelTestCase&#45;&gt;\\NetCommonsCakeTestCase -->
<g id="edge29" class="edge"><title>\\NetCommonsModelTestCase&#45;&gt;\\NetCommonsCakeTestCase</title>
<path fill="none" stroke="black" d="M713.696,-2816.15C676.671,-2812.79 633.35,-2808.85 595.65,-2805.42"/>
<polygon fill="none" stroke="black" points="595.962,-2801.94 585.686,-2804.52 595.328,-2808.91 595.962,-2801.94"/>
</g>
<!-- \\NetCommonsControllerTestCase -->
<g id="node16" class="node"><title>\\NetCommonsControllerTestCase</title>
<polygon fill="none" stroke="black" points="1196,-1546 990,-1546 990,-1510 1196,-1510 1196,-1546"/>
<text text-anchor="middle" x="1093" y="-1525.1" font-family="Courier,monospace" font-size="11.00">NetCommonsControllerTestCase</text>
</g>
<!-- \\NetCommonsControllerTestCase&#45;&gt;\\NetCommonsControllerBaseTestCase -->
<g id="edge31" class="edge"><title>\\NetCommonsControllerTestCase&#45;&gt;\\NetCommonsControllerBaseTestCase</title>
<path fill="none" stroke="black" d="M989.699,-1518.48C969.289,-1516.6 947.65,-1514.61 926.571,-1512.66"/>
<polygon fill="none" stroke="black" points="926.885,-1509.18 916.606,-1511.75 926.243,-1516.15 926.885,-1509.18"/>
</g>
<!-- \\NetCommonsAppController -->
<g id="node17" class="node"><title>\\NetCommonsAppController</title>
<polygon fill="none" stroke="black" points="886,-1438 714,-1438 714,-1402 886,-1402 886,-1438"/>
<text text-anchor="middle" x="800" y="-1417.1" font-family="Courier,monospace" font-size="11.00">NetCommonsAppController</text>
</g>
<!-- \\NetCommonsAppController&#45;&gt;\\Controller -->
<g id="edge33" class="edge"><title>\\NetCommonsAppController&#45;&gt;\\Controller</title>
<path fill="none" stroke="black" d="M713.9,-1417.79C701.745,-1413.83 690.512,-1407.58 682,-1398 521.795,-1217.69 786.119,-479.799 610,-315 522.422,-233.051 365.407,-273.437 287.88,-300.809"/>
<polygon fill="none" stroke="black" points="286.598,-297.551 278.381,-304.24 288.975,-304.135 286.598,-297.551"/>
</g>
<!-- \\AssetComponent -->
<g id="node18" class="node"><title>\\AssetComponent</title>
<polygon fill="none" stroke="black" points="1148,-1330 1038,-1330 1038,-1294 1148,-1294 1148,-1330"/>
<text text-anchor="middle" x="1093" y="-1309.1" font-family="Courier,monospace" font-size="11.00">AssetComponent</text>
</g>
<!-- \\Component -->
<g id="node86" class="node"><title>\\Component</title>
<ellipse fill="none" stroke="black" cx="800" cy="-342" rx="70.9184" ry="18.3848"/>
<text text-anchor="middle" x="800" y="-338.4" font-family="Times Roman,serif" font-size="14.00" fill="gray">\Component</text>
</g>
<!-- \\AssetComponent&#45;&gt;\\Component -->
<g id="edge35" class="edge"><title>\\AssetComponent&#45;&gt;\\Component</title>
<path fill="none" stroke="black" d="M1037.28,-1309.78C1019.62,-1306.19 1001.68,-1298.97 990,-1285 859.019,-1128.36 1051.43,-523.559 918,-369 908.404,-357.884 895.256,-350.825 881.208,-346.436"/>
<polygon fill="none" stroke="black" points="881.937,-343.008 871.373,-343.807 880.13,-349.771 881.937,-343.008"/>
</g>
<!-- \\AccessCtrlComponent -->
<g id="node19" class="node"><title>\\AccessCtrlComponent</title>
<polygon fill="none" stroke="black" points="1165,-1276 1021,-1276 1021,-1240 1165,-1240 1165,-1276"/>
<text text-anchor="middle" x="1093" y="-1255.1" font-family="Courier,monospace" font-size="11.00">AccessCtrlComponent</text>
</g>
<!-- \\AccessCtrlComponent&#45;&gt;\\Component -->
<g id="edge37" class="edge"><title>\\AccessCtrlComponent&#45;&gt;\\Component</title>
<path fill="none" stroke="black" d="M1020.24,-1250.99C1008.66,-1246.75 997.909,-1240.41 990,-1231 866.331,-1083.84 1043.97,-514.197 918,-369 908.377,-357.908 895.216,-350.859 881.165,-346.473"/>
<polygon fill="none" stroke="black" points="881.893,-343.045 871.328,-343.845 880.086,-349.808 881.893,-343.045"/>
</g>
<!-- \\NetCommonsTimeComponent -->
<g id="node20" class="node"><title>\\NetCommonsTimeComponent</title>
<polygon fill="none" stroke="black" points="1179,-1222 1007,-1222 1007,-1186 1179,-1186 1179,-1222"/>
<text text-anchor="middle" x="1093" y="-1201.1" font-family="Courier,monospace" font-size="11.00">NetCommonsTimeComponent</text>
</g>
<!-- \\NetCommonsTimeComponent&#45;&gt;\\Component -->
<g id="edge39" class="edge"><title>\\NetCommonsTimeComponent&#45;&gt;\\Component</title>
<path fill="none" stroke="black" d="M1006.95,-1190.83C1000.57,-1187.19 994.773,-1182.65 990,-1177 873.641,-1039.32 1036.51,-504.839 918,-369 908.346,-357.935 895.171,-350.898 881.117,-346.516"/>
<polygon fill="none" stroke="black" points="881.843,-343.087 871.278,-343.889 880.037,-349.85 881.843,-343.087"/>
</g>
<!-- \\PermissionComponent -->
<g id="node21" class="node"><title>\\PermissionComponent</title>
<polygon fill="none" stroke="black" points="1165,-1168 1021,-1168 1021,-1132 1165,-1132 1165,-1168"/>
<text text-anchor="middle" x="1093" y="-1147.1" font-family="Courier,monospace" font-size="11.00">PermissionComponent</text>
</g>
<!-- \\PermissionComponent&#45;&gt;\\Component -->
<g id="edge41" class="edge"><title>\\PermissionComponent&#45;&gt;\\Component</title>
<path fill="none" stroke="black" d="M1020.33,-1142.91C1008.74,-1138.69 997.965,-1132.36 990,-1123 880.948,-994.787 1029.05,-495.484 918,-369 908.311,-357.965 895.121,-350.943 881.061,-346.564"/>
<polygon fill="none" stroke="black" points="881.786,-343.135 871.222,-343.939 879.981,-349.899 881.786,-343.135"/>
</g>
<!-- \\NetCommonsComponent -->
<g id="node22" class="node"><title>\\NetCommonsComponent</title>
<polygon fill="none" stroke="black" points="1165,-1114 1021,-1114 1021,-1078 1165,-1078 1165,-1114"/>
<text text-anchor="middle" x="1093" y="-1093.1" font-family="Courier,monospace" font-size="11.00">NetCommonsComponent</text>
</g>
<!-- \\NetCommonsComponent&#45;&gt;\\Component -->
<g id="edge43" class="edge"><title>\\NetCommonsComponent&#45;&gt;\\Component</title>
<path fill="none" stroke="black" d="M1020.39,-1088.86C1008.79,-1084.64 997.999,-1078.34 990,-1069 786.502,-831.507 1125.2,-603.266 918,-369 908.271,-358.001 895.062,-350.994 880.998,-346.62"/>
<polygon fill="none" stroke="black" points="881.72,-343.191 871.156,-343.996 879.917,-349.955 881.72,-343.191"/>
</g>
<!-- \\SiteCloseController -->
<g id="node23" class="node"><title>\\SiteCloseController</title>
<polygon fill="none" stroke="black" points="1165,-1492 1021,-1492 1021,-1456 1165,-1456 1165,-1492"/>
<text text-anchor="middle" x="1093" y="-1471.1" font-family="Courier,monospace" font-size="11.00">SiteCloseController</text>
</g>
<!-- \\SiteCloseController&#45;&gt;\\NetCommonsAppController -->
<g id="edge45" class="edge"><title>\\SiteCloseController&#45;&gt;\\NetCommonsAppController</title>
<path fill="none" stroke="black" d="M1020.2,-1460.58C982.697,-1453.67 936.487,-1445.15 896.097,-1437.71"/>
<polygon fill="none" stroke="black" points="896.702,-1434.26 886.233,-1435.89 895.433,-1441.15 896.702,-1434.26"/>
</g>
<!-- \\NetCommonsController -->
<g id="node24" class="node"><title>\\NetCommonsController</title>
<polygon fill="none" stroke="black" points="1169,-1438 1017,-1438 1017,-1402 1169,-1402 1169,-1438"/>
<text text-anchor="middle" x="1093" y="-1417.1" font-family="Courier,monospace" font-size="11.00">NetCommonsController</text>
</g>
<!-- \\NetCommonsController&#45;&gt;\\NetCommonsAppController -->
<g id="edge47" class="edge"><title>\\NetCommonsController&#45;&gt;\\NetCommonsAppController</title>
<path fill="none" stroke="black" d="M1016.78,-1420C980.049,-1420 935.59,-1420 896.519,-1420"/>
<polygon fill="none" stroke="black" points="896.183,-1416.5 886.183,-1420 896.183,-1423.5 896.183,-1416.5"/>
</g>
<!-- \\NetCommonsUrl -->
<g id="node25" class="node"><title>\\NetCommonsUrl</title>
<polygon fill="none" stroke="black" points="1145,-2302 1041,-2302 1041,-2266 1145,-2266 1145,-2302"/>
<text text-anchor="middle" x="1093" y="-2281.1" font-family="Courier,monospace" font-size="11.00">NetCommonsUrl</text>
</g>
<!-- \\NetCommonsTime -->
<g id="node26" class="node"><title>\\NetCommonsTime</title>
<polygon fill="none" stroke="black" points="1148,-2248 1038,-2248 1038,-2212 1148,-2212 1148,-2248"/>
<text text-anchor="middle" x="1093" y="-2227.1" font-family="Courier,monospace" font-size="11.00">NetCommonsTime</text>
</g>
<!-- \\CurrentBase -->
<g id="node27" class="node"><title>\\CurrentBase</title>
<polygon fill="none" stroke="black" points="845,-2680 755,-2680 755,-2644 845,-2644 845,-2680"/>
<text text-anchor="middle" x="800" y="-2659.1" font-family="Courier,monospace" font-size="11.00">CurrentBase</text>
</g>
<!-- \\Current -->
<g id="node28" class="node"><title>\\Current</title>
<polygon fill="none" stroke="black" points="1125,-2680 1061,-2680 1061,-2644 1125,-2644 1125,-2680"/>
<text text-anchor="middle" x="1093" y="-2659.1" font-family="Courier,monospace" font-size="11.00">Current</text>
</g>
<!-- \\Current&#45;&gt;\\CurrentBase -->
<g id="edge49" class="edge"><title>\\Current&#45;&gt;\\CurrentBase</title>
<path fill="none" stroke="black" d="M1060.81,-2662C1011.48,-2662 916.554,-2662 855.846,-2662"/>
<polygon fill="none" stroke="black" points="855.669,-2658.5 845.669,-2662 855.669,-2665.5 855.669,-2658.5"/>
</g>
<!-- \\CurrentSystem -->
<g id="node29" class="node"><title>\\CurrentSystem</title>
<polygon fill="none" stroke="black" points="1145,-2140 1041,-2140 1041,-2104 1145,-2104 1145,-2140"/>
<text text-anchor="middle" x="1093" y="-2119.1" font-family="Courier,monospace" font-size="11.00">CurrentSystem</text>
</g>
<!-- \\CurrentPage -->
<g id="node30" class="node"><title>\\CurrentPage</title>
<polygon fill="none" stroke="black" points="1138,-2086 1048,-2086 1048,-2050 1138,-2050 1138,-2086"/>
<text text-anchor="middle" x="1093" y="-2065.1" font-family="Courier,monospace" font-size="11.00">CurrentPage</text>
</g>
<!-- \\CurrentFrame -->
<g id="node31" class="node"><title>\\CurrentFrame</title>
<polygon fill="none" stroke="black" points="1142,-2032 1044,-2032 1044,-1996 1142,-1996 1142,-2032"/>
<text text-anchor="middle" x="1093" y="-2011.1" font-family="Courier,monospace" font-size="11.00">CurrentFrame</text>
</g>
<!-- \\TokenHelper -->
<g id="node32" class="node"><title>\\TokenHelper</title>
<polygon fill="none" stroke="black" points="1138,-1006 1048,-1006 1048,-970 1138,-970 1138,-1006"/>
<text text-anchor="middle" x="1093" y="-985.1" font-family="Courier,monospace" font-size="11.00">TokenHelper</text>
</g>
<!-- \\FormHelper -->
<g id="node95" class="node"><title>\\FormHelper</title>
<ellipse fill="none" stroke="black" cx="800" cy="-288" rx="70.9184" ry="18.3848"/>
<text text-anchor="middle" x="800" y="-284.4" font-family="Times Roman,serif" font-size="14.00" fill="gray">\FormHelper</text>
</g>
<!-- \\TokenHelper&#45;&gt;\\FormHelper -->
<g id="edge51" class="edge"><title>\\TokenHelper&#45;&gt;\\FormHelper</title>
<path fill="none" stroke="black" d="M1047.39,-987.237C1026.87,-984.41 1004.14,-977.364 990,-961 801.099,-742.429 1110.31,-530.576 918,-315 908.225,-304.042 894.994,-297.054 880.924,-292.686"/>
<polygon fill="none" stroke="black" points="881.644,-289.256 871.08,-290.064 879.842,-296.02 881.644,-289.256"/>
</g>
<!-- \\SingletonViewBlockHtmlHelper -->
<g id="node33" class="node"><title>\\SingletonViewBlockHtmlHelper</title>
<polygon fill="none" stroke="black" points="1196,-844 990,-844 990,-808 1196,-808 1196,-844"/>
<text text-anchor="middle" x="1093" y="-823.1" font-family="Courier,monospace" font-size="11.00">SingletonViewBlockHtmlHelper</text>
</g>
<!-- \\HtmlHelper -->
<g id="node97" class="node"><title>\\HtmlHelper</title>
<ellipse fill="none" stroke="black" cx="800" cy="-234" rx="67.1751" ry="18.3848"/>
<text text-anchor="middle" x="800" y="-230.4" font-family="Times Roman,serif" font-size="14.00" fill="gray">HtmlHelper</text>
</g>
<!-- \\SingletonViewBlockHtmlHelper&#45;&gt;\\HtmlHelper -->
<g id="edge53" class="edge"><title>\\SingletonViewBlockHtmlHelper&#45;&gt;\\HtmlHelper</title>
<path fill="none" stroke="black" d="M999.785,-807.859C996.23,-805.263 992.938,-802.325 990,-799 830.252,-618.227 1080.57,-439.24 918,-261 907.152,-249.106 892.23,-241.912 876.645,-237.671"/>
<polygon fill="none" stroke="black" points="877.419,-234.258 866.885,-235.397 875.83,-241.075 877.419,-234.258"/>
</g>
<!-- \\FormInputHelper -->
<g id="node34" class="node"><title>\\FormInputHelper</title>
<polygon fill="none" stroke="black" points="1152,-2572 1034,-2572 1034,-2536 1152,-2536 1152,-2572"/>
<text text-anchor="middle" x="1093" y="-2551.1" font-family="Courier,monospace" font-size="11.00">FormInputHelper</text>
</g>
<!-- \\FormInputHelper&#45;&gt;\\AppHelper -->
<g id="edge55" class="edge"><title>\\FormInputHelper&#45;&gt;\\AppHelper</title>
<path fill="none" stroke="black" d="M1033.93,-2548.97C1018.03,-2545.03 1001.94,-2538.32 990,-2527 903.879,-2445.34 825.926,-2067.95 805.305,-1961.2"/>
<polygon fill="none" stroke="black" points="808.705,-1960.35 803.386,-1951.18 801.83,-1961.66 808.705,-1960.35"/>
</g>
<!-- \\WizardHelper -->
<g id="node35" class="node"><title>\\WizardHelper</title>
<polygon fill="none" stroke="black" points="1142,-2518 1044,-2518 1044,-2482 1142,-2482 1142,-2518"/>
<text text-anchor="middle" x="1093" y="-2497.1" font-family="Courier,monospace" font-size="11.00">WizardHelper</text>
</g>
<!-- \\WizardHelper&#45;&gt;\\AppHelper -->
<g id="edge57" class="edge"><title>\\WizardHelper&#45;&gt;\\AppHelper</title>
<path fill="none" stroke="black" d="M1043.99,-2496.88C1025.12,-2493.38 1004.62,-2486.46 990,-2473 834.226,-2329.5 806.135,-2050.7 801.095,-1961.31"/>
<polygon fill="none" stroke="black" points="804.581,-1960.94 800.577,-1951.13 797.59,-1961.3 804.581,-1960.94"/>
</g>
<!-- \\DisplayNumberHelper -->
<g id="node36" class="node"><title>\\DisplayNumberHelper</title>
<polygon fill="none" stroke="black" points="1165,-2464 1021,-2464 1021,-2428 1165,-2428 1165,-2464"/>
<text text-anchor="middle" x="1093" y="-2443.1" font-family="Courier,monospace" font-size="11.00">DisplayNumberHelper</text>
</g>
<!-- \\DisplayNumberHelper&#45;&gt;\\AppHelper -->
<g id="edge59" class="edge"><title>\\DisplayNumberHelper&#45;&gt;\\AppHelper</title>
<path fill="none" stroke="black" d="M1020.48,-2436.3C1009.36,-2432.31 998.7,-2426.74 990,-2419 847.368,-2292.06 810.808,-2044.73 802.341,-1961.27"/>
<polygon fill="none" stroke="black" points="805.82,-1960.89 801.383,-1951.27 798.852,-1961.56 805.82,-1960.89"/>
</g>
<!-- \\MessageFlashHelper -->
<g id="node37" class="node"><title>\\MessageFlashHelper</title>
<polygon fill="none" stroke="black" points="1162,-2410 1024,-2410 1024,-2374 1162,-2374 1162,-2410"/>
<text text-anchor="middle" x="1093" y="-2389.1" font-family="Courier,monospace" font-size="11.00">MessageFlashHelper</text>
</g>
<!-- \\MessageFlashHelper&#45;&gt;\\AppHelper -->
<g id="edge61" class="edge"><title>\\MessageFlashHelper&#45;&gt;\\AppHelper</title>
<path fill="none" stroke="black" d="M1023.95,-2383.08C1011.66,-2379.06 999.703,-2373.28 990,-2365 860.231,-2254.27 815.867,-2037.9 803.825,-1960.97"/>
<polygon fill="none" stroke="black" points="807.284,-1960.43 802.335,-1951.07 800.362,-1961.48 807.284,-1960.43"/>
</g>
<!-- \\DateHelper -->
<g id="node38" class="node"><title>\\DateHelper</title>
<polygon fill="none" stroke="black" points="1135,-2356 1051,-2356 1051,-2320 1135,-2320 1135,-2356"/>
<text text-anchor="middle" x="1093" y="-2335.1" font-family="Courier,monospace" font-size="11.00">DateHelper</text>
</g>
<!-- \\DateHelper&#45;&gt;\\AppHelper -->
<g id="edge63" class="edge"><title>\\DateHelper&#45;&gt;\\AppHelper</title>
<path fill="none" stroke="black" d="M1050.77,-2334.97C1030.55,-2331.65 1007.1,-2324.84 990,-2311 873.272,-2216.47 821.79,-2031.75 805.802,-1961.26"/>
<polygon fill="none" stroke="black" points="809.185,-1960.35 803.616,-1951.33 802.349,-1961.85 809.185,-1960.35"/>
</g>
<!-- \\SnsButtonHelper -->
<g id="node39" class="node"><title>\\SnsButtonHelper</title>
<polygon fill="none" stroke="black" points="1152,-2194 1034,-2194 1034,-2158 1152,-2158 1152,-2194"/>
<text text-anchor="middle" x="1093" y="-2173.1" font-family="Courier,monospace" font-size="11.00">SnsButtonHelper</text>
</g>
<!-- \\SnsButtonHelper&#45;&gt;\\AppHelper -->
<g id="edge65" class="edge"><title>\\SnsButtonHelper&#45;&gt;\\AppHelper</title>
<path fill="none" stroke="black" d="M1033.89,-2166.86C1018.85,-2162.86 1003.22,-2157.15 990,-2149 909.876,-2099.56 844.727,-2005.81 815.946,-1959.81"/>
<polygon fill="none" stroke="black" points="818.75,-1957.69 810.523,-1951.02 812.792,-1961.36 818.75,-1957.69"/>
</g>
<!-- \\BackToHelper -->
<g id="node40" class="node"><title>\\BackToHelper</title>
<polygon fill="none" stroke="black" points="1142,-1978 1044,-1978 1044,-1942 1142,-1942 1142,-1978"/>
<text text-anchor="middle" x="1093" y="-1957.1" font-family="Courier,monospace" font-size="11.00">BackToHelper</text>
</g>
<!-- \\BackToHelper&#45;&gt;\\AppHelper -->
<g id="edge67" class="edge"><title>\\BackToHelper&#45;&gt;\\AppHelper</title>
<path fill="none" stroke="black" d="M1043.96,-1955.48C989.78,-1950.49 903.056,-1942.5 848.925,-1937.51"/>
<polygon fill="none" stroke="black" points="849.161,-1934.02 838.882,-1936.58 848.519,-1940.99 849.161,-1934.02"/>
</g>
<!-- \\NetCommonsHtmlHelper -->
<g id="node41" class="node"><title>\\NetCommonsHtmlHelper</title>
<polygon fill="none" stroke="black" points="1169,-1924 1017,-1924 1017,-1888 1169,-1888 1169,-1924"/>
<text text-anchor="middle" x="1093" y="-1903.1" font-family="Courier,monospace" font-size="11.00">NetCommonsHtmlHelper</text>
</g>
<!-- \\NetCommonsHtmlHelper&#45;&gt;\\AppHelper -->
<g id="edge69" class="edge"><title>\\NetCommonsHtmlHelper&#45;&gt;\\AppHelper</title>
<path fill="none" stroke="black" d="M1016.78,-1913.02C963.659,-1917.92 894.376,-1924.3 848.603,-1928.52"/>
<polygon fill="none" stroke="black" points="848.274,-1925.04 838.638,-1929.44 848.917,-1932.01 848.274,-1925.04"/>
</g>
<!-- \\ButtonHelper -->
<g id="node42" class="node"><title>\\ButtonHelper</title>
<polygon fill="none" stroke="black" points="1142,-952 1044,-952 1044,-916 1142,-916 1142,-952"/>
<text text-anchor="middle" x="1093" y="-931.1" font-family="Courier,monospace" font-size="11.00">ButtonHelper</text>
</g>
<!-- \\ButtonHelper&#45;&gt;\\FormHelper -->
<g id="edge71" class="edge"><title>\\ButtonHelper&#45;&gt;\\FormHelper</title>
<path fill="none" stroke="black" d="M1043.76,-932.618C1024.27,-929.457 1003.37,-922.318 990,-907 815.683,-707.337 1095.43,-511.899 918,-315 908.227,-304.155 895.069,-297.207 881.082,-292.841"/>
<polygon fill="none" stroke="black" points="881.864,-289.426 871.298,-290.214 880.049,-296.187 881.864,-289.426"/>
</g>
<!-- \\ComposerHelper -->
<g id="node43" class="node"><title>\\ComposerHelper</title>
<polygon fill="none" stroke="black" points="1148,-1870 1038,-1870 1038,-1834 1148,-1834 1148,-1870"/>
<text text-anchor="middle" x="1093" y="-1849.1" font-family="Courier,monospace" font-size="11.00">ComposerHelper</text>
</g>
<!-- \\ComposerHelper&#45;&gt;\\AppHelper -->
<g id="edge73" class="edge"><title>\\ComposerHelper&#45;&gt;\\AppHelper</title>
<path fill="none" stroke="black" d="M1037.35,-1866.36C1021.99,-1870.39 1005.34,-1874.81 990,-1879 941.716,-1892.19 886.728,-1907.89 848.375,-1918.96"/>
<polygon fill="none" stroke="black" points="847.145,-1915.67 838.508,-1921.8 849.087,-1922.39 847.145,-1915.67"/>
</g>
<!-- \\LinkButtonHelper -->
<g id="node44" class="node"><title>\\LinkButtonHelper</title>
<polygon fill="none" stroke="black" points="1155,-898 1031,-898 1031,-862 1155,-862 1155,-898"/>
<text text-anchor="middle" x="1093" y="-877.1" font-family="Courier,monospace" font-size="11.00">LinkButtonHelper</text>
</g>
<!-- \\LinkButtonHelper&#45;&gt;\\FormHelper -->
<g id="edge75" class="edge"><title>\\LinkButtonHelper&#45;&gt;\\FormHelper</title>
<path fill="none" stroke="black" d="M1030.45,-875.714C1015.26,-871.707 1000.41,-864.775 990,-853 830.252,-672.227 1080.57,-493.24 918,-315 908.162,-304.213 894.974,-297.293 880.979,-292.934"/>
<polygon fill="none" stroke="black" points="881.757,-289.519 871.192,-290.31 879.944,-296.281 881.757,-289.519"/>
</g>
<!-- \\TableListHelper -->
<g id="node45" class="node"><title>\\TableListHelper</title>
<polygon fill="none" stroke="black" points="1152,-1816 1034,-1816 1034,-1780 1152,-1780 1152,-1816"/>
<text text-anchor="middle" x="1093" y="-1795.1" font-family="Courier,monospace" font-size="11.00">TableListHelper</text>
</g>
<!-- \\TableListHelper&#45;&gt;\\AppHelper -->
<g id="edge77" class="edge"><title>\\TableListHelper&#45;&gt;\\AppHelper</title>
<path fill="none" stroke="black" d="M1033.85,-1810.69C1019.27,-1814.58 1003.87,-1819.35 990,-1825 933.066,-1848.18 872.097,-1885.27 835.004,-1909.39"/>
<polygon fill="none" stroke="black" points="833.002,-1906.52 826.557,-1914.93 836.839,-1912.37 833.002,-1906.52"/>
</g>
<!-- \\NetCommonsTimeHelper -->
<g id="node46" class="node"><title>\\NetCommonsTimeHelper</title>
<polygon fill="none" stroke="black" points="1169,-1762 1017,-1762 1017,-1726 1169,-1726 1169,-1762"/>
<text text-anchor="middle" x="1093" y="-1741.1" font-family="Courier,monospace" font-size="11.00">NetCommonsTimeHelper</text>
</g>
<!-- \\NetCommonsTimeHelper&#45;&gt;\\AppHelper -->
<g id="edge79" class="edge"><title>\\NetCommonsTimeHelper&#45;&gt;\\AppHelper</title>
<path fill="none" stroke="black" d="M1016.98,-1759.73C1007.65,-1762.87 998.439,-1766.59 990,-1771 921.41,-1806.81 856.097,-1871.44 822.838,-1907.3"/>
<polygon fill="none" stroke="black" points="820.033,-1905.17 815.854,-1914.91 825.192,-1909.91 820.033,-1905.17"/>
</g>
<!-- \\NetCommonsFormHelper -->
<g id="node47" class="node"><title>\\NetCommonsFormHelper</title>
<polygon fill="none" stroke="black" points="1169,-1708 1017,-1708 1017,-1672 1169,-1672 1169,-1708"/>
<text text-anchor="middle" x="1093" y="-1687.1" font-family="Courier,monospace" font-size="11.00">NetCommonsFormHelper</text>
</g>
<!-- \\NetCommonsFormHelper&#45;&gt;\\AppHelper -->
<g id="edge81" class="edge"><title>\\NetCommonsFormHelper&#45;&gt;\\AppHelper</title>
<path fill="none" stroke="black" d="M1016.88,-1704.4C1007.46,-1707.76 998.259,-1711.9 990,-1717 909.876,-1766.44 844.727,-1860.19 815.946,-1906.19"/>
<polygon fill="none" stroke="black" points="812.792,-1904.64 810.523,-1914.98 818.75,-1908.31 812.792,-1904.64"/>
</g>
<!-- \\TitleIconHelper -->
<g id="node48" class="node"><title>\\TitleIconHelper</title>
<polygon fill="none" stroke="black" points="1152,-1654 1034,-1654 1034,-1618 1152,-1618 1152,-1654"/>
<text text-anchor="middle" x="1093" y="-1633.1" font-family="Courier,monospace" font-size="11.00">TitleIconHelper</text>
</g>
<!-- \\TitleIconHelper&#45;&gt;\\AppHelper -->
<g id="edge83" class="edge"><title>\\TitleIconHelper&#45;&gt;\\AppHelper</title>
<path fill="none" stroke="black" d="M1033.8,-1644.05C1018.6,-1648.05 1002.91,-1654.04 990,-1663 898.034,-1726.86 835.79,-1850.47 811.457,-1905.46"/>
<polygon fill="none" stroke="black" points="808.13,-1904.34 807.356,-1914.9 814.551,-1907.13 808.13,-1904.34"/>
</g>
<!-- \\DatetimePickerHelper -->
<g id="node49" class="node"><title>\\DatetimePickerHelper</title>
<polygon fill="none" stroke="black" points="1169,-1600 1017,-1600 1017,-1564 1169,-1564 1169,-1600"/>
<text text-anchor="middle" x="1093" y="-1579.1" font-family="Courier,monospace" font-size="11.00">DatetimePickerHelper</text>
</g>
<!-- \\DatetimePickerHelper&#45;&gt;\\AppHelper -->
<g id="edge85" class="edge"><title>\\DatetimePickerHelper&#45;&gt;\\AppHelper</title>
<path fill="none" stroke="black" d="M1016.94,-1594.54C1007.31,-1598.2 998.03,-1602.92 990,-1609 885.624,-1688.08 828.084,-1842.47 808.129,-1905.35"/>
<polygon fill="none" stroke="black" points="804.764,-1904.39 805.144,-1914.97 811.45,-1906.46 804.764,-1904.39"/>
</g>
<!-- \\Model -->
<g id="node115" class="node"><title>\\Model</title>
<ellipse fill="none" stroke="black" cx="44" cy="-2959" rx="43.8406" ry="18.3848"/>
<text text-anchor="middle" x="44" y="-2955.4" font-family="Times Roman,serif" font-size="14.00" fill="gray">\Model</text>
</g>
<!-- \\NetCommonsAppModel&#45;&gt;\\Model -->
<g id="edge87" class="edge"><title>\\NetCommonsAppModel&#45;&gt;\\Model</title>
<path fill="none" stroke="black" d="M172.749,-2959C148.379,-2959 121.357,-2959 98.3871,-2959"/>
<polygon fill="none" stroke="black" points="98.1425,-2955.5 88.1425,-2959 98.1424,-2962.5 98.1425,-2955.5"/>
</g>
<!-- \\OriginalKeyBehavior -->
<g id="node51" class="node"><title>\\OriginalKeyBehavior</title>
<polygon fill="none" stroke="black" points="1165,-790 1021,-790 1021,-754 1165,-754 1165,-790"/>
<text text-anchor="middle" x="1093" y="-769.1" font-family="Courier,monospace" font-size="11.00">OriginalKeyBehavior</text>
</g>
<!-- \\ModelBehavior -->
<g id="node117" class="node"><title>\\ModelBehavior</title>
<ellipse fill="none" stroke="black" cx="800" cy="-180" rx="86.9741" ry="18.3848"/>
<text text-anchor="middle" x="800" y="-176.4" font-family="Times Roman,serif" font-size="14.00" fill="gray">\ModelBehavior</text>
</g>
<!-- \\OriginalKeyBehavior&#45;&gt;\\ModelBehavior -->
<g id="edge89" class="edge"><title>\\OriginalKeyBehavior&#45;&gt;\\ModelBehavior</title>
<path fill="none" stroke="black" d="M1020.36,-764.567C1008.84,-760.366 998.079,-754.143 990,-745 830.252,-564.227 1080.57,-385.24 918,-207 910.917,-199.234 902.097,-193.472 892.49,-189.227"/>
<polygon fill="none" stroke="black" points="893.659,-185.927 883.069,-185.607 891.148,-192.461 893.659,-185.927"/>
</g>
<!-- \\TrackableBehavior -->
<g id="node52" class="node"><title>\\TrackableBehavior</title>
<polygon fill="none" stroke="black" points="1158,-736 1028,-736 1028,-700 1158,-700 1158,-736"/>
<text text-anchor="middle" x="1093" y="-715.1" font-family="Courier,monospace" font-size="11.00">TrackableBehavior</text>
</g>
<!-- \\TrackableBehavior&#45;&gt;\\ModelBehavior -->
<g id="edge91" class="edge"><title>\\TrackableBehavior&#45;&gt;\\ModelBehavior</title>
<path fill="none" stroke="black" d="M1027.36,-712.719C1013.29,-708.606 999.75,-701.872 990,-691 844.8,-529.094 1065.73,-366.605 918,-207 910.86,-199.286 902.006,-193.556 892.38,-189.328"/>
<polygon fill="none" stroke="black" points="893.536,-186.023 882.945,-185.72 891.035,-192.561 893.536,-186.023"/>
</g>
<!-- \\YAExceptionRenderer -->
<g id="node53" class="node"><title>\\YAExceptionRenderer</title>
<polygon fill="none" stroke="black" points="1165,-628 1021,-628 1021,-592 1165,-592 1165,-628"/>
<text text-anchor="middle" x="1093" y="-607.1" font-family="Courier,monospace" font-size="11.00">YAExceptionRenderer</text>
</g>
<!-- \\ExceptionRenderer -->
<g id="node120" class="node"><title>\\ExceptionRenderer</title>
<ellipse fill="none" stroke="black" cx="800" cy="-126" rx="118.087" ry="18.3848"/>
<text text-anchor="middle" x="800" y="-122.4" font-family="Times Roman,serif" font-size="14.00" fill="gray">TEHxceptionRenderer</text>
</g>
<!-- \\YAExceptionRenderer&#45;&gt;\\ExceptionRenderer -->
<g id="edge93" class="edge"><title>\\YAExceptionRenderer&#45;&gt;\\ExceptionRenderer</title>
<path fill="none" stroke="black" d="M1020.34,-602.25C1008.9,-598.073 998.166,-591.94 990,-583 859.318,-439.927 1050.91,-294.002 918,-153 913.844,-148.591 909.128,-144.833 904.031,-141.635"/>
<polygon fill="none" stroke="black" points="905.577,-138.492 895.123,-136.766 902.219,-144.634 905.577,-138.492"/>
</g>
<!-- \\NetCommonsMigration -->
<g id="node54" class="node"><title>\\NetCommonsMigration</title>
<polygon fill="none" stroke="black" points="1165,-574 1021,-574 1021,-538 1165,-538 1165,-574"/>
<text text-anchor="middle" x="1093" y="-553.1" font-family="Courier,monospace" font-size="11.00">NetCommonsMigration</text>
</g>
<!-- \\CakeMigration -->
<g id="node122" class="node"><title>\\CakeMigration</title>
<ellipse fill="none" stroke="black" cx="800" cy="-72" rx="84.8528" ry="18.3848"/>
<text text-anchor="middle" x="800" y="-68.4" font-family="Times Roman,serif" font-size="14.00" fill="gray">\CakeMigration</text>
</g>
<!-- \\NetCommonsMigration&#45;&gt;\\CakeMigration -->
<g id="edge95" class="edge"><title>\\NetCommonsMigration&#45;&gt;\\CakeMigration</title>
<path fill="none" stroke="black" d="M1020.34,-548.25C1008.9,-544.073 998.166,-537.94 990,-529 859.318,-385.927 1050.91,-240.002 918,-99 910.44,-90.9799 901.025,-85.1126 890.833,-80.8528"/>
<polygon fill="none" stroke="black" points="891.879,-77.5089 881.284,-77.377 889.484,-84.0866 891.879,-77.5089"/>
</g>
<!-- \\ContentCommentsAppController -->
<g id="node55" class="node"><title>\\ContentCommentsAppController</title>
<polygon fill="none" stroke="black" points="903,-2734 697,-2734 697,-2698 903,-2698 903,-2734"/>
<text text-anchor="middle" x="800" y="-2713.1" font-family="Courier,monospace" font-size="11.00">ContentCommentsAppController</text>
</g>
<!-- \\ContentCommentsAppController&#45;&gt;\\AppController -->
<g id="edge97" class="edge"><title>\\ContentCommentsAppController&#45;&gt;\\AppController</title>
<path fill="none" stroke="black" d="M696.83,-2700.94C691.398,-2697.62 686.384,-2693.68 682,-2689 529.509,-2526.34 506.586,-1768.08 503.46,-1611.38"/>
<polygon fill="none" stroke="black" points="506.955,-1611.09 503.268,-1601.15 499.956,-1611.22 506.955,-1611.09"/>
</g>
<!-- \\ContentCommentsComponent -->
<g id="node56" class="node"><title>\\ContentCommentsComponent</title>
<polygon fill="none" stroke="black" points="1182,-1060 1004,-1060 1004,-1024 1182,-1024 1182,-1060"/>
<text text-anchor="middle" x="1093" y="-1039.1" font-family="Courier,monospace" font-size="11.00">ContentCommentsComponent</text>
</g>
<!-- \\ContentCommentsComponent&#45;&gt;\\Component -->
<g id="edge99" class="edge"><title>\\ContentCommentsComponent&#45;&gt;\\Component</title>
<path fill="none" stroke="black" d="M1003.31,-1026.44C998.379,-1023.25 993.868,-1019.48 990,-1015 801.099,-796.429 1110.31,-584.576 918,-369 908.225,-358.042 894.994,-351.054 880.924,-346.686"/>
<polygon fill="none" stroke="black" points="881.644,-343.256 871.08,-344.064 879.842,-350.02 881.644,-343.256"/>
</g>
<!-- \\ContentCommentsController -->
<g id="node57" class="node"><title>\\ContentCommentsController</title>
<polygon fill="none" stroke="black" points="1185,-2734 1001,-2734 1001,-2698 1185,-2698 1185,-2734"/>
<text text-anchor="middle" x="1093" y="-2713.1" font-family="Courier,monospace" font-size="11.00">ContentCommentsController</text>
</g>
<!-- \\ContentCommentsController&#45;&gt;\\ContentCommentsAppController -->
<g id="edge101" class="edge"><title>\\ContentCommentsController&#45;&gt;\\ContentCommentsAppController</title>
<path fill="none" stroke="black" d="M1000.29,-2716C972.623,-2716 941.98,-2716 913.155,-2716"/>
<polygon fill="none" stroke="black" points="913.043,-2712.5 903.043,-2716 913.043,-2719.5 913.043,-2712.5"/>
</g>
<!-- \\ContentCommentHelper -->
<g id="node58" class="node"><title>\\ContentCommentHelper</title>
<polygon fill="none" stroke="black" points="1169,-2626 1017,-2626 1017,-2590 1169,-2590 1169,-2626"/>
<text text-anchor="middle" x="1093" y="-2605.1" font-family="Courier,monospace" font-size="11.00">ContentCommentHelper</text>
</g>
<!-- \\ContentCommentHelper&#45;&gt;\\AppHelper -->
<g id="edge103" class="edge"><title>\\ContentCommentHelper&#45;&gt;\\AppHelper</title>
<path fill="none" stroke="black" d="M1016.75,-2597.73C1006.86,-2593.75 997.558,-2588.34 990,-2581 897.138,-2490.78 823.079,-2073.86 804.505,-1961.15"/>
<polygon fill="none" stroke="black" points="807.948,-1960.52 802.881,-1951.22 801.039,-1961.65 807.948,-1960.52"/>
</g>
<!-- \\ContentCommentsAppModel -->
<g id="node59" class="node"><title>\\ContentCommentsAppModel</title>
<polygon fill="none" stroke="black" points="886,-2950 714,-2950 714,-2914 886,-2914 886,-2950"/>
<text text-anchor="middle" x="800" y="-2929.1" font-family="Courier,monospace" font-size="11.00">ContentCommentsAppModel</text>
</g>
<!-- \\ContentCommentsAppModel&#45;&gt;\\AppModel -->
<g id="edge105" class="edge"><title>\\ContentCommentsAppModel&#45;&gt;\\AppModel</title>
<path fill="none" stroke="black" d="M713.696,-2939.85C659.787,-2944.75 592.529,-2950.86 548.711,-2954.84"/>
<polygon fill="none" stroke="black" points="548.285,-2951.37 538.643,-2955.76 548.919,-2958.34 548.285,-2951.37"/>
</g>
<!-- \\ContentCommentBehavior -->
<g id="node60" class="node"><title>\\ContentCommentBehavior</title>
<polygon fill="none" stroke="black" points="1175,-682 1011,-682 1011,-646 1175,-646 1175,-682"/>
<text text-anchor="middle" x="1093" y="-661.1" font-family="Courier,monospace" font-size="11.00">ContentCommentBehavior</text>
</g>
<!-- \\ContentCommentBehavior&#45;&gt;\\ModelBehavior -->
<g id="edge107" class="edge"><title>\\ContentCommentBehavior&#45;&gt;\\ModelBehavior</title>
<path fill="none" stroke="black" d="M1010.36,-651.977C1002.73,-648.173 995.735,-643.279 990,-637 859.318,-493.927 1050.91,-348.002 918,-207 910.736,-199.293 901.758,-193.575 892.025,-189.36"/>
<polygon fill="none" stroke="black" points="893.083,-186.019 882.491,-185.764 890.613,-192.568 893.083,-186.019"/>
</g>
<!-- \\ContentComment -->
<g id="node61" class="node"><title>\\ContentComment</title>
<polygon fill="none" stroke="black" points="1148,-3004 1038,-3004 1038,-2968 1148,-2968 1148,-3004"/>
<text text-anchor="middle" x="1093" y="-2983.1" font-family="Courier,monospace" font-size="11.00">ContentComment</text>
</g>
<!-- \\ContentComment&#45;&gt;\\ContentCommentsAppModel -->
<g id="edge109" class="edge"><title>\\ContentComment&#45;&gt;\\ContentCommentsAppModel</title>
<path fill="none" stroke="black" d="M1037.2,-2975.72C997.361,-2968.37 942.771,-2958.31 896.003,-2949.69"/>
<polygon fill="none" stroke="black" points="896.619,-2946.25 886.151,-2947.88 895.35,-2953.13 896.619,-2946.25"/>
</g>
<!-- \\ContentCommentSchema -->
<g id="node62" class="node"><title>\\ContentCommentSchema</title>
<polygon fill="none" stroke="black" points="1169,-466 1017,-466 1017,-430 1169,-430 1169,-466"/>
<text text-anchor="middle" x="1093" y="-445.1" font-family="Courier,monospace" font-size="11.00">ContentCommentSchema</text>
</g>
<!-- \\CakeSchema -->
<g id="node131" class="node"><title>\\CakeSchema</title>
<ellipse fill="none" stroke="black" cx="800" cy="-18" rx="77.0746" ry="18.3848"/>
<text text-anchor="middle" x="800" y="-14.4" font-family="Times Roman,serif" font-size="14.00" fill="gray">\CakeSchema</text>
</g>
<!-- \\ContentCommentSchema&#45;&gt;\\CakeSchema -->
<g id="edge111" class="edge"><title>\\ContentCommentSchema&#45;&gt;\\CakeSchema</title>
<path fill="none" stroke="black" d="M1090.86,-429.713C1082.37,-365.789 1045.04,-150.503 918,-45 907.886,-36.6012 895.67,-30.6949 882.982,-26.5644"/>
<polygon fill="none" stroke="black" points="883.793,-23.1556 873.214,-23.74 881.848,-29.8801 883.793,-23.1556"/>
</g>
<!-- \\ContentComments -->
<g id="node63" class="node"><title>\\ContentComments</title>
<polygon fill="none" stroke="black" points="1152,-520 1034,-520 1034,-484 1152,-484 1152,-520"/>
<text text-anchor="middle" x="1093" y="-499.1" font-family="Courier,monospace" font-size="11.00">ContentComments</text>
</g>
<!-- \\ContentComments&#45;&gt;\\CakeMigration -->
<g id="edge113" class="edge"><title>\\ContentComments&#45;&gt;\\CakeMigration</title>
<path fill="none" stroke="black" d="M1033.84,-498.059C1017.65,-494.175 1001.43,-487.22 990,-475 873.795,-350.716 1036.14,-221.443 918,-99 910.347,-91.0685 900.877,-85.2535 890.656,-81.0209"/>
<polygon fill="none" stroke="black" points="891.684,-77.6706 881.089,-77.5632 889.304,-84.2538 891.684,-77.6706"/>
</g>
</g>
</svg>
