<?xml version="1.0" encoding="UTF-8" standalone="no"?>
<!DOCTYPE svg PUBLIC "-//W3C//DTD SVG 1.1//EN"
 "http://www.w3.org/Graphics/SVG/1.1/DTD/svg11.dtd">
<!-- Generated by graphviz version 2.26.3 (20100126.1600)
 -->
<!-- Title: G Pages: 1 -->
<svg width="1220pt" height="2888pt"
 viewBox="0.00 0.00 1220.00 2888.00" xmlns="http://www.w3.org/2000/svg" xmlns:xlink="http://www.w3.org/1999/xlink">
<g id="graph1" class="graph" transform="scale(1 1) rotate(0) translate(4 2884)">
<title>G</title>
<polygon fill="white" stroke="white" points="-4,5 -4,-2884 1217,-2884 1217,5 -4,5"/>
<g id="graph2" class="cluster"><title>cluster_Global</title>
<polyline fill="none" stroke="gray" points="177,-422 1192,-422 "/>
<path fill="none" stroke="gray" d="M1192,-422C1198,-422 1204,-428 1204,-434"/>
<polyline fill="none" stroke="gray" points="1204,-434 1204,-2860 "/>
<path fill="none" stroke="gray" d="M1204,-2860C1204,-2866 1198,-2872 1192,-2872"/>
<polyline fill="none" stroke="gray" points="1192,-2872 177,-2872 "/>
<path fill="none" stroke="gray" d="M177,-2872C171,-2872 165,-2866 165,-2860"/>
<polyline fill="none" stroke="gray" points="165,-2860 165,-434 "/>
<path fill="none" stroke="gray" d="M165,-434C165,-428 171,-422 177,-422"/>
<text text-anchor="middle" x="684.5" y="-2858.1" font-family="Times Roman,serif" font-size="11.00" fill="gray">Global</text>
</g>
<!-- \\AppController -->
<g id="node2" class="node"><title>\\AppController</title>
<polygon fill="none" stroke="black" points="555,-1520 451,-1520 451,-1484 555,-1484 555,-1520"/>
<text text-anchor="middle" x="503" y="-1499.1" font-family="Courier,monospace" font-size="11.00">AppController</text>
</g>
<!-- \\Controller -->
<g id="node62" class="node"><title>\\Controller</title>
<ellipse fill="none" stroke="black" cx="242" cy="-319" rx="63.1385" ry="18.3848"/>
<text text-anchor="middle" x="242" y="-315.4" font-family="Times Roman,serif" font-size="14.00" fill="gray">\Controller</text>
</g>
<!-- \\AppController&#45;&gt;\\Controller -->
<g id="edge3" class="edge"><title>\\AppController&#45;&gt;\\Controller</title>
<path fill="none" stroke="black" d="M450.826,-1503.96C430.791,-1501.84 409.512,-1495.52 396,-1480 233.541,-1293.41 452.043,-580.696 324,-369 316.077,-355.901 303.29,-345.766 290.147,-338.155"/>
<polygon fill="none" stroke="black" points="291.514,-334.917 281.046,-333.283 288.21,-341.088 291.514,-334.917"/>
</g>
<!-- \\AppModel -->
<g id="node3" class="node"><title>\\AppModel</title>
<polygon fill="none" stroke="black" points="538,-2815 468,-2815 468,-2779 538,-2779 538,-2815"/>
<text text-anchor="middle" x="503" y="-2794.1" font-family="Courier,monospace" font-size="11.00">AppModel</text>
</g>
<!-- \\NetCommonsAppModel -->
<g id="node47" class="node"><title>\\NetCommonsAppModel</title>
<polygon fill="none" stroke="black" points="311,-2815 173,-2815 173,-2779 311,-2779 311,-2815"/>
<text text-anchor="middle" x="242" y="-2794.1" font-family="Courier,monospace" font-size="11.00">NetCommonsAppModel</text>
</g>
<!-- \\AppModel&#45;&gt;\\NetCommonsAppModel -->
<g id="edge5" class="edge"><title>\\AppModel&#45;&gt;\\NetCommonsAppModel</title>
<path fill="none" stroke="black" d="M467.256,-2797C429.848,-2797 369.903,-2797 321.254,-2797"/>
<polygon fill="none" stroke="black" points="321.056,-2793.5 311.056,-2797 321.056,-2800.5 321.056,-2793.5"/>
</g>
<!-- \\DatabaseConfiguration -->
<g id="node4" class="node"><title>\\DatabaseConfiguration</title>
<polygon fill="none" stroke="black" points="879,-2842 721,-2842 721,-2806 879,-2806 879,-2842"/>
<text text-anchor="middle" x="800" y="-2821.1" font-family="Courier,monospace" font-size="11.00">DatabaseConfiguration</text>
</g>
<!-- \\DatabaseConfiguration&#45;&gt;\\AppModel -->
<g id="edge7" class="edge"><title>\\DatabaseConfiguration&#45;&gt;\\AppModel</title>
<path fill="none" stroke="black" d="M720.8,-2816.8C665.959,-2811.81 594.863,-2805.35 549.084,-2801.19"/>
<polygon fill="none" stroke="black" points="549.143,-2797.68 538.867,-2800.26 548.509,-2804.65 549.143,-2797.68"/>
</g>
<!-- \\AppHelper -->
<g id="node5" class="node"><title>\\AppHelper</title>
<polygon fill="none" stroke="black" points="838,-1816 762,-1816 762,-1780 838,-1780 838,-1816"/>
<text text-anchor="middle" x="800" y="-1795.1" font-family="Courier,monospace" font-size="11.00">AppHelper</text>
</g>
<!-- \\Helper -->
<g id="node66" class="node"><title>\\Helper</title>
<ellipse fill="none" stroke="black" cx="503" cy="-396" rx="43.8406" ry="18.3848"/>
<text text-anchor="middle" x="503" y="-392.4" font-family="Times Roman,serif" font-size="14.00" fill="gray">Helper</text>
</g>
<!-- \\AppHelper&#45;&gt;\\Helper -->
<g id="edge9" class="edge"><title>\\AppHelper&#45;&gt;\\Helper</title>
<path fill="none" stroke="black" d="M792.031,-1779.81C770.013,-1728.61 708.247,-1578.45 682,-1447 659.558,-1334.61 685.482,-504.247 610,-418 596.811,-402.93 576.298,-396.55 556.747,-394.253"/>
<polygon fill="none" stroke="black" points="556.913,-390.755 546.654,-393.401 556.324,-397.73 556.913,-390.755"/>
</g>
<!-- \\NetCommonsDeleteTest -->
<g id="node6" class="node"><title>\\NetCommonsDeleteTest</title>
<polygon fill="none" stroke="black" points="1169,-2788 1017,-2788 1017,-2752 1169,-2752 1169,-2788"/>
<text text-anchor="middle" x="1093" y="-2767.1" font-family="Courier,monospace" font-size="11.00">NetCommonsDeleteTest</text>
</g>
<!-- \\NetCommonsModelTestCase -->
<g id="node15" class="node"><title>\\NetCommonsModelTestCase</title>
<polygon fill="none" stroke="black" points="886,-2680 714,-2680 714,-2644 886,-2644 886,-2680"/>
<text text-anchor="middle" x="800" y="-2659.1" font-family="Courier,monospace" font-size="11.00">NetCommonsModelTestCase</text>
</g>
<!-- \\NetCommonsDeleteTest&#45;&gt;\\NetCommonsModelTestCase -->
<g id="edge11" class="edge"><title>\\NetCommonsDeleteTest&#45;&gt;\\NetCommonsModelTestCase</title>
<path fill="none" stroke="black" d="M1016.97,-2753.68C1007.68,-2750.64 998.49,-2747.1 990,-2743 953.981,-2725.6 954.288,-2705.83 918,-2689 910.962,-2685.74 903.501,-2682.85 895.884,-2680.31"/>
<polygon fill="none" stroke="black" points="896.762,-2676.91 886.173,-2677.26 894.666,-2683.59 896.762,-2676.91"/>
</g>
<!-- \\NetCommonsConsoleTestCase -->
<g id="node7" class="node"><title>\\NetCommonsConsoleTestCase</title>
<polygon fill="none" stroke="black" points="892,-2626 708,-2626 708,-2590 892,-2590 892,-2626"/>
<text text-anchor="middle" x="800" y="-2605.1" font-family="Courier,monospace" font-size="11.00">NetCommonsConsoleTestCase</text>
</g>
<!-- \\NetCommonsCakeTestCase -->
<g id="node13" class="node"><title>\\NetCommonsCakeTestCase</title>
<polygon fill="none" stroke="black" points="585,-2653 421,-2653 421,-2617 585,-2617 585,-2653"/>
<text text-anchor="middle" x="503" y="-2632.1" font-family="Courier,monospace" font-size="11.00">NetCommonsCakeTestCase</text>
</g>
<!-- \\NetCommonsConsoleTestCase&#45;&gt;\\NetCommonsCakeTestCase -->
<g id="edge13" class="edge"><title>\\NetCommonsConsoleTestCase&#45;&gt;\\NetCommonsCakeTestCase</title>
<path fill="none" stroke="black" d="M707.249,-2616.43C671.93,-2619.64 631.688,-2623.3 596.316,-2626.52"/>
<polygon fill="none" stroke="black" points="595.635,-2623.06 585.993,-2627.46 596.269,-2630.04 595.635,-2623.06"/>
</g>
<!-- \\NetCommonsGetTest -->
<g id="node8" class="node"><title>\\NetCommonsGetTest</title>
<polygon fill="none" stroke="black" points="1158,-2734 1028,-2734 1028,-2698 1158,-2698 1158,-2734"/>
<text text-anchor="middle" x="1093" y="-2713.1" font-family="Courier,monospace" font-size="11.00">NetCommonsGetTest</text>
</g>
<!-- \\NetCommonsGetTest&#45;&gt;\\NetCommonsModelTestCase -->
<g id="edge15" class="edge"><title>\\NetCommonsGetTest&#45;&gt;\\NetCommonsModelTestCase</title>
<path fill="none" stroke="black" d="M1027.25,-2703.88C988.582,-2696.76 939.008,-2687.62 896.034,-2679.7"/>
<polygon fill="none" stroke="black" points="896.588,-2676.24 886.12,-2677.87 895.32,-2683.13 896.588,-2676.24"/>
</g>
<!-- \\NetCommonsHelperTestCase -->
<g id="node9" class="node"><title>\\NetCommonsHelperTestCase</title>
<polygon fill="none" stroke="black" points="889,-2734 711,-2734 711,-2698 889,-2698 889,-2734"/>
<text text-anchor="middle" x="800" y="-2713.1" font-family="Courier,monospace" font-size="11.00">NetCommonsHelperTestCase</text>
</g>
<!-- \\NetCommonsHelperTestCase&#45;&gt;\\NetCommonsCakeTestCase -->
<g id="edge17" class="edge"><title>\\NetCommonsHelperTestCase&#45;&gt;\\NetCommonsCakeTestCase</title>
<path fill="none" stroke="black" d="M717.936,-2697.98C705.852,-2695.11 693.579,-2692.07 682,-2689 644.303,-2679.01 602.565,-2666.51 568.882,-2656.05"/>
<polygon fill="none" stroke="black" points="569.742,-2652.65 559.154,-2653.01 567.658,-2659.33 569.742,-2652.65"/>
</g>
<!-- \\NetCommonsControllerBaseTestCase -->
<g id="node10" class="node"><title>\\NetCommonsControllerBaseTestCase</title>
<polygon fill="none" stroke="black" points="916,-1438 684,-1438 684,-1402 916,-1402 916,-1438"/>
<text text-anchor="middle" x="800" y="-1417.1" font-family="Courier,monospace" font-size="11.00">NetCommonsControllerBaseTestCase</text>
</g>
<!-- \\ControllerTestCase -->
<g id="node72" class="node"><title>\\ControllerTestCase</title>
<ellipse fill="none" stroke="black" cx="503" cy="-342" rx="106.773" ry="18.3848"/>
<text text-anchor="middle" x="503" y="-338.4" font-family="Times Roman,serif" font-size="14.00" fill="gray">\ControllerTestCase</text>
</g>
<!-- \\NetCommonsControllerBaseTestCase&#45;&gt;\\ControllerTestCase -->
<g id="edge19" class="edge"><title>\\NetCommonsControllerBaseTestCase&#45;&gt;\\ControllerTestCase</title>
<path fill="none" stroke="black" d="M794.747,-1401.66C776.627,-1337.8 715.989,-1119.07 682,-935 658.977,-810.316 694.087,-463.897 610,-369 606.228,-364.743 601.892,-361.11 597.173,-358.014"/>
<polygon fill="none" stroke="black" points="598.733,-354.876 588.306,-353.002 595.289,-360.97 598.733,-354.876"/>
</g>
<!-- \\NetCommonsValidateTest -->
<g id="node11" class="node"><title>\\NetCommonsValidateTest</title>
<polygon fill="none" stroke="black" points="1175,-2680 1011,-2680 1011,-2644 1175,-2644 1175,-2680"/>
<text text-anchor="middle" x="1093" y="-2659.1" font-family="Courier,monospace" font-size="11.00">NetCommonsValidateTest</text>
</g>
<!-- \\NetCommonsValidateTest&#45;&gt;\\NetCommonsModelTestCase -->
<g id="edge21" class="edge"><title>\\NetCommonsValidateTest&#45;&gt;\\NetCommonsModelTestCase</title>
<path fill="none" stroke="black" d="M1010.21,-2662C974.791,-2662 933.196,-2662 896.397,-2662"/>
<polygon fill="none" stroke="black" points="896.154,-2658.5 886.154,-2662 896.154,-2665.5 896.154,-2658.5"/>
</g>
<!-- \\NetCommonsTestSuite -->
<g id="node12" class="node"><title>\\NetCommonsTestSuite</title>
<polygon fill="none" stroke="black" points="1165,-1330 1021,-1330 1021,-1294 1165,-1294 1165,-1330"/>
<text text-anchor="middle" x="1093" y="-1309.1" font-family="Courier,monospace" font-size="11.00">NetCommonsTestSuite</text>
</g>
<!-- \\CakeTestSuite -->
<g id="node75" class="node"><title>\\CakeTestSuite</title>
<ellipse fill="none" stroke="black" cx="800" cy="-396" rx="84.1457" ry="18.3848"/>
<text text-anchor="middle" x="800" y="-392.4" font-family="Times Roman,serif" font-size="14.00" fill="gray">\CakeTestSuite</text>
</g>
<!-- \\NetCommonsTestSuite&#45;&gt;\\CakeTestSuite -->
<g id="edge23" class="edge"><title>\\NetCommonsTestSuite&#45;&gt;\\CakeTestSuite</title>
<path fill="none" stroke="black" d="M1020.5,-1305.09C1008.82,-1300.85 997.966,-1294.48 990,-1285 865.654,-1136.96 1047.6,-561.462 918,-418 911.19,-410.461 902.695,-404.996 893.403,-401.088"/>
<polygon fill="none" stroke="black" points="894.473,-397.754 883.878,-397.68 892.114,-404.344 894.473,-397.754"/>
</g>
<!-- \\CakeTestCase -->
<g id="node77" class="node"><title>\\CakeTestCase</title>
<ellipse fill="none" stroke="black" cx="242" cy="-396" rx="82.0244" ry="18.3848"/>
<text text-anchor="middle" x="242" y="-392.4" font-family="Times Roman,serif" font-size="14.00" fill="gray">\CakeTestCase</text>
</g>
<!-- \\NetCommonsCakeTestCase&#45;&gt;\\CakeTestCase -->
<g id="edge25" class="edge"><title>\\NetCommonsCakeTestCase&#45;&gt;\\CakeTestCase</title>
<path fill="none" stroke="black" d="M501.018,-2616.78C489.624,-2511.58 431.714,-1971.25 396,-1529 386.043,-1405.7 402.426,-513.665 324,-418 322.283,-415.905 320.39,-413.998 318.355,-412.262"/>
<polygon fill="none" stroke="black" points="320.087,-409.204 309.875,-406.381 316.098,-414.956 320.087,-409.204"/>
</g>
<!-- \\NetCommonsSaveTest -->
<g id="node14" class="node"><title>\\NetCommonsSaveTest</title>
<polygon fill="none" stroke="black" points="1162,-2626 1024,-2626 1024,-2590 1162,-2590 1162,-2626"/>
<text text-anchor="middle" x="1093" y="-2605.1" font-family="Courier,monospace" font-size="11.00">NetCommonsSaveTest</text>
</g>
<!-- \\NetCommonsSaveTest&#45;&gt;\\NetCommonsModelTestCase -->
<g id="edge27" class="edge"><title>\\NetCommonsSaveTest&#45;&gt;\\NetCommonsModelTestCase</title>
<path fill="none" stroke="black" d="M1023.93,-2620.73C985.795,-2627.76 937.829,-2636.6 896.084,-2644.29"/>
<polygon fill="none" stroke="black" points="895.372,-2640.86 886.172,-2646.12 896.641,-2647.75 895.372,-2640.86"/>
</g>
<!-- \\NetCommonsModelTestCase&#45;&gt;\\NetCommonsCakeTestCase -->
<g id="edge29" class="edge"><title>\\NetCommonsModelTestCase&#45;&gt;\\NetCommonsCakeTestCase</title>
<path fill="none" stroke="black" d="M713.696,-2654.15C676.671,-2650.79 633.35,-2646.85 595.65,-2643.42"/>
<polygon fill="none" stroke="black" points="595.962,-2639.94 585.686,-2642.52 595.328,-2646.91 595.962,-2639.94"/>
</g>
<!-- \\NetCommonsControllerTestCase -->
<g id="node16" class="node"><title>\\NetCommonsControllerTestCase</title>
<polygon fill="none" stroke="black" points="1196,-1438 990,-1438 990,-1402 1196,-1402 1196,-1438"/>
<text text-anchor="middle" x="1093" y="-1417.1" font-family="Courier,monospace" font-size="11.00">NetCommonsControllerTestCase</text>
</g>
<!-- \\NetCommonsControllerTestCase&#45;&gt;\\NetCommonsControllerBaseTestCase -->
<g id="edge31" class="edge"><title>\\NetCommonsControllerTestCase&#45;&gt;\\NetCommonsControllerBaseTestCase</title>
<path fill="none" stroke="black" d="M989.699,-1420C969.381,-1420 947.845,-1420 926.858,-1420"/>
<polygon fill="none" stroke="black" points="926.606,-1416.5 916.606,-1420 926.606,-1423.5 926.606,-1416.5"/>
</g>
<!-- \\NetCommonsAppController -->
<g id="node17" class="node"><title>\\NetCommonsAppController</title>
<polygon fill="none" stroke="black" points="886,-926 714,-926 714,-890 886,-890 886,-926"/>
<text text-anchor="middle" x="800" y="-905.1" font-family="Courier,monospace" font-size="11.00">NetCommonsAppController</text>
</g>
<!-- \\NetCommonsAppController&#45;&gt;\\Controller -->
<g id="edge33" class="edge"><title>\\NetCommonsAppController&#45;&gt;\\Controller</title>
<path fill="none" stroke="black" d="M713.788,-905.155C701.8,-901.24 690.649,-895.174 682,-886 506.535,-699.884 801.849,-484.177 610,-315 520.5,-236.077 365.728,-274.438 288.555,-300.961"/>
<polygon fill="none" stroke="black" points="287.363,-297.67 279.09,-304.289 289.685,-304.274 287.363,-297.67"/>
</g>
<!-- \\AssetComponent -->
<g id="node18" class="node"><title>\\AssetComponent</title>
<polygon fill="none" stroke="black" points="1148,-1114 1038,-1114 1038,-1078 1148,-1078 1148,-1114"/>
<text text-anchor="middle" x="1093" y="-1093.1" font-family="Courier,monospace" font-size="11.00">AssetComponent</text>
</g>
<!-- \\Component -->
<g id="node83" class="node"><title>\\Component</title>
<ellipse fill="none" stroke="black" cx="800" cy="-342" rx="70.9184" ry="18.3848"/>
<text text-anchor="middle" x="800" y="-338.4" font-family="Times Roman,serif" font-size="14.00" fill="gray">\Component</text>
</g>
<!-- \\AssetComponent&#45;&gt;\\Component -->
<g id="edge35" class="edge"><title>\\AssetComponent&#45;&gt;\\Component</title>
<path fill="none" stroke="black" d="M1037.47,-1093.62C1019.83,-1090.01 1001.85,-1082.83 990,-1069 786.502,-831.507 1125.2,-603.266 918,-369 908.271,-358.001 895.062,-350.994 880.998,-346.62"/>
<polygon fill="none" stroke="black" points="881.72,-343.191 871.156,-343.996 879.917,-349.955 881.72,-343.191"/>
</g>
<!-- \\NetCommonsTimeComponent -->
<g id="node19" class="node"><title>\\NetCommonsTimeComponent</title>
<polygon fill="none" stroke="black" points="1179,-1060 1007,-1060 1007,-1024 1179,-1024 1179,-1060"/>
<text text-anchor="middle" x="1093" y="-1039.1" font-family="Courier,monospace" font-size="11.00">NetCommonsTimeComponent</text>
</g>
<!-- \\NetCommonsTimeComponent&#45;&gt;\\Component -->
<g id="edge37" class="edge"><title>\\NetCommonsTimeComponent&#45;&gt;\\Component</title>
<path fill="none" stroke="black" d="M1006.61,-1028.45C1000.38,-1024.87 994.714,-1020.45 990,-1015 801.099,-796.429 1110.31,-584.576 918,-369 908.225,-358.042 894.994,-351.054 880.924,-346.686"/>
<polygon fill="none" stroke="black" points="881.644,-343.256 871.08,-344.064 879.842,-350.02 881.644,-343.256"/>
</g>
<!-- \\PermissionComponent -->
<g id="node20" class="node"><title>\\PermissionComponent</title>
<polygon fill="none" stroke="black" points="1165,-1276 1021,-1276 1021,-1240 1165,-1240 1165,-1276"/>
<text text-anchor="middle" x="1093" y="-1255.1" font-family="Courier,monospace" font-size="11.00">PermissionComponent</text>
</g>
<!-- \\PermissionComponent&#45;&gt;\\Component -->
<g id="edge39" class="edge"><title>\\PermissionComponent&#45;&gt;\\Component</title>
<path fill="none" stroke="black" d="M1020.24,-1250.99C1008.66,-1246.75 997.909,-1240.41 990,-1231 866.331,-1083.84 1043.97,-514.197 918,-369 908.377,-357.908 895.216,-350.859 881.165,-346.473"/>
<polygon fill="none" stroke="black" points="881.893,-343.045 871.328,-343.845 880.086,-349.808 881.893,-343.045"/>
</g>
<!-- \\NetCommonsComponent -->
<g id="node21" class="node"><title>\\NetCommonsComponent</title>
<polygon fill="none" stroke="black" points="1165,-1222 1021,-1222 1021,-1186 1165,-1186 1165,-1222"/>
<text text-anchor="middle" x="1093" y="-1201.1" font-family="Courier,monospace" font-size="11.00">NetCommonsComponent</text>
</g>
<!-- \\NetCommonsComponent&#45;&gt;\\Component -->
<g id="edge41" class="edge"><title>\\NetCommonsComponent&#45;&gt;\\Component</title>
<path fill="none" stroke="black" d="M1020.28,-1196.95C1008.7,-1192.72 997.935,-1186.39 990,-1177 873.641,-1039.32 1036.51,-504.839 918,-369 908.346,-357.935 895.171,-350.898 881.117,-346.516"/>
<polygon fill="none" stroke="black" points="881.843,-343.087 871.278,-343.889 880.037,-349.85 881.843,-343.087"/>
</g>
<!-- \\NetCommonsController -->
<g id="node22" class="node"><title>\\NetCommonsController</title>
<polygon fill="none" stroke="black" points="1169,-1384 1017,-1384 1017,-1348 1169,-1348 1169,-1384"/>
<text text-anchor="middle" x="1093" y="-1363.1" font-family="Courier,monospace" font-size="11.00">NetCommonsController</text>
</g>
<!-- \\NetCommonsController&#45;&gt;\\NetCommonsAppController -->
<g id="edge43" class="edge"><title>\\NetCommonsController&#45;&gt;\\NetCommonsAppController</title>
<path fill="none" stroke="black" d="M1016.79,-1354.51C1007.07,-1350.7 997.807,-1345.66 990,-1339 860.701,-1228.76 816.126,-1013.54 803.921,-936.38"/>
<polygon fill="none" stroke="black" points="807.311,-935.387 802.349,-926.025 800.39,-936.437 807.311,-935.387"/>
</g>
<!-- \\NetCommonsUrl -->
<g id="node23" class="node"><title>\\NetCommonsUrl</title>
<polygon fill="none" stroke="black" points="1145,-2248 1041,-2248 1041,-2212 1145,-2212 1145,-2248"/>
<text text-anchor="middle" x="1093" y="-2227.1" font-family="Courier,monospace" font-size="11.00">NetCommonsUrl</text>
</g>
<!-- \\NetCommonsTime -->
<g id="node24" class="node"><title>\\NetCommonsTime</title>
<polygon fill="none" stroke="black" points="1148,-2194 1038,-2194 1038,-2158 1148,-2158 1148,-2194"/>
<text text-anchor="middle" x="1093" y="-2173.1" font-family="Courier,monospace" font-size="11.00">NetCommonsTime</text>
</g>
<!-- \\CurrentBase -->
<g id="node25" class="node"><title>\\CurrentBase</title>
<polygon fill="none" stroke="black" points="845,-2518 755,-2518 755,-2482 845,-2482 845,-2518"/>
<text text-anchor="middle" x="800" y="-2497.1" font-family="Courier,monospace" font-size="11.00">CurrentBase</text>
</g>
<!-- \\Current -->
<g id="node26" class="node"><title>\\Current</title>
<polygon fill="none" stroke="black" points="1125,-2518 1061,-2518 1061,-2482 1125,-2482 1125,-2518"/>
<text text-anchor="middle" x="1093" y="-2497.1" font-family="Courier,monospace" font-size="11.00">Current</text>
</g>
<!-- \\Current&#45;&gt;\\CurrentBase -->
<g id="edge45" class="edge"><title>\\Current&#45;&gt;\\CurrentBase</title>
<path fill="none" stroke="black" d="M1060.81,-2500C1011.48,-2500 916.554,-2500 855.846,-2500"/>
<polygon fill="none" stroke="black" points="855.669,-2496.5 845.669,-2500 855.669,-2503.5 855.669,-2496.5"/>
</g>
<!-- \\CurrentSystem -->
<g id="node27" class="node"><title>\\CurrentSystem</title>
<polygon fill="none" stroke="black" points="1145,-2086 1041,-2086 1041,-2050 1145,-2050 1145,-2086"/>
<text text-anchor="middle" x="1093" y="-2065.1" font-family="Courier,monospace" font-size="11.00">CurrentSystem</text>
</g>
<!-- \\CurrentPage -->
<g id="node28" class="node"><title>\\CurrentPage</title>
<polygon fill="none" stroke="black" points="1138,-2032 1048,-2032 1048,-1996 1138,-1996 1138,-2032"/>
<text text-anchor="middle" x="1093" y="-2011.1" font-family="Courier,monospace" font-size="11.00">CurrentPage</text>
</g>
<!-- \\CurrentFrame -->
<g id="node29" class="node"><title>\\CurrentFrame</title>
<polygon fill="none" stroke="black" points="1142,-1978 1044,-1978 1044,-1942 1142,-1942 1142,-1978"/>
<text text-anchor="middle" x="1093" y="-1957.1" font-family="Courier,monospace" font-size="11.00">CurrentFrame</text>
</g>
<!-- \\TokenHelper -->
<g id="node30" class="node"><title>\\TokenHelper</title>
<polygon fill="none" stroke="black" points="1138,-1006 1048,-1006 1048,-970 1138,-970 1138,-1006"/>
<text text-anchor="middle" x="1093" y="-985.1" font-family="Courier,monospace" font-size="11.00">TokenHelper</text>
</g>
<!-- \\FormHelper -->
<g id="node90" class="node"><title>\\FormHelper</title>
<ellipse fill="none" stroke="black" cx="800" cy="-288" rx="70.9184" ry="18.3848"/>
<text text-anchor="middle" x="800" y="-284.4" font-family="Times Roman,serif" font-size="14.00" fill="gray">\FormHelper</text>
</g>
<!-- \\TokenHelper&#45;&gt;\\FormHelper -->
<g id="edge47" class="edge"><title>\\TokenHelper&#45;&gt;\\FormHelper</title>
<path fill="none" stroke="black" d="M1047.39,-987.237C1026.87,-984.41 1004.14,-977.364 990,-961 801.099,-742.429 1110.31,-530.576 918,-315 908.225,-304.042 894.994,-297.054 880.924,-292.686"/>
<polygon fill="none" stroke="black" points="881.644,-289.256 871.08,-290.064 879.842,-296.02 881.644,-289.256"/>
</g>
<!-- \\SingletonViewBlockHtmlHelper -->
<g id="node31" class="node"><title>\\SingletonViewBlockHtmlHelper</title>
<polygon fill="none" stroke="black" points="1196,-844 990,-844 990,-808 1196,-808 1196,-844"/>
<text text-anchor="middle" x="1093" y="-823.1" font-family="Courier,monospace" font-size="11.00">SingletonViewBlockHtmlHelper</text>
</g>
<!-- \\HtmlHelper -->
<g id="node92" class="node"><title>\\HtmlHelper</title>
<ellipse fill="none" stroke="black" cx="800" cy="-234" rx="67.1751" ry="18.3848"/>
<text text-anchor="middle" x="800" y="-230.4" font-family="Times Roman,serif" font-size="14.00" fill="gray">HtmlHelper</text>
</g>
<!-- \\SingletonViewBlockHtmlHelper&#45;&gt;\\HtmlHelper -->
<g id="edge49" class="edge"><title>\\SingletonViewBlockHtmlHelper&#45;&gt;\\HtmlHelper</title>
<path fill="none" stroke="black" d="M999.785,-807.859C996.23,-805.263 992.938,-802.325 990,-799 830.252,-618.227 1080.57,-439.24 918,-261 907.152,-249.106 892.23,-241.912 876.645,-237.671"/>
<polygon fill="none" stroke="black" points="877.419,-234.258 866.885,-235.397 875.83,-241.075 877.419,-234.258"/>
</g>
<!-- \\FormInputHelper -->
<g id="node32" class="node"><title>\\FormInputHelper</title>
<polygon fill="none" stroke="black" points="1152,-2410 1034,-2410 1034,-2374 1152,-2374 1152,-2410"/>
<text text-anchor="middle" x="1093" y="-2389.1" font-family="Courier,monospace" font-size="11.00">FormInputHelper</text>
</g>
<!-- \\FormInputHelper&#45;&gt;\\AppHelper -->
<g id="edge51" class="edge"><title>\\FormInputHelper&#45;&gt;\\AppHelper</title>
<path fill="none" stroke="black" d="M1033.76,-2386.8C1017.95,-2382.85 1001.95,-2376.17 990,-2365 907.245,-2287.61 827.482,-1929.99 805.771,-1826.27"/>
<polygon fill="none" stroke="black" points="809.147,-1825.31 803.686,-1816.23 802.293,-1826.74 809.147,-1825.31"/>
</g>
<!-- \\WizardHelper -->
<g id="node33" class="node"><title>\\WizardHelper</title>
<polygon fill="none" stroke="black" points="1142,-2356 1044,-2356 1044,-2320 1142,-2320 1142,-2356"/>
<text text-anchor="middle" x="1093" y="-2335.1" font-family="Courier,monospace" font-size="11.00">WizardHelper</text>
</g>
<!-- \\WizardHelper&#45;&gt;\\AppHelper -->
<g id="edge53" class="edge"><title>\\WizardHelper&#45;&gt;\\AppHelper</title>
<path fill="none" stroke="black" d="M1043.84,-2334.71C1025.06,-2331.18 1004.66,-2324.28 990,-2311 840.846,-2175.84 808.432,-1912.87 801.693,-1826.35"/>
<polygon fill="none" stroke="black" points="805.174,-1825.96 800.962,-1816.24 798.192,-1826.47 805.174,-1825.96"/>
</g>
<!-- \\DisplayNumberHelper -->
<g id="node34" class="node"><title>\\DisplayNumberHelper</title>
<polygon fill="none" stroke="black" points="1165,-2302 1021,-2302 1021,-2266 1165,-2266 1165,-2302"/>
<text text-anchor="middle" x="1093" y="-2281.1" font-family="Courier,monospace" font-size="11.00">DisplayNumberHelper</text>
</g>
<!-- \\DisplayNumberHelper&#45;&gt;\\AppHelper -->
<g id="edge55" class="edge"><title>\\DisplayNumberHelper&#45;&gt;\\AppHelper</title>
<path fill="none" stroke="black" d="M1020.34,-2274.06C1009.3,-2270.09 998.706,-2264.6 990,-2257 854.066,-2138.41 813.424,-1907.2 803.102,-1826.56"/>
<polygon fill="none" stroke="black" points="806.525,-1825.71 801.84,-1816.21 799.576,-1826.56 806.525,-1825.71"/>
</g>
<!-- \\MessageFlashHelper -->
<g id="node35" class="node"><title>\\MessageFlashHelper</title>
<polygon fill="none" stroke="black" points="1162,-2140 1024,-2140 1024,-2104 1162,-2104 1162,-2140"/>
<text text-anchor="middle" x="1093" y="-2119.1" font-family="Courier,monospace" font-size="11.00">MessageFlashHelper</text>
</g>
<!-- \\MessageFlashHelper&#45;&gt;\\AppHelper -->
<g id="edge57" class="edge"><title>\\MessageFlashHelper&#45;&gt;\\AppHelper</title>
<path fill="none" stroke="black" d="M1023.85,-2111.5C1011.84,-2107.61 1000.02,-2102.29 990,-2095 939.522,-2058.27 848.866,-1891.53 814.1,-1825.27"/>
<polygon fill="none" stroke="black" points="817.121,-1823.49 809.388,-1816.25 810.916,-1826.73 817.121,-1823.49"/>
</g>
<!-- \\DateHelper -->
<g id="node36" class="node"><title>\\DateHelper</title>
<polygon fill="none" stroke="black" points="1135,-1924 1051,-1924 1051,-1888 1135,-1888 1135,-1924"/>
<text text-anchor="middle" x="1093" y="-1903.1" font-family="Courier,monospace" font-size="11.00">DateHelper</text>
</g>
<!-- \\DateHelper&#45;&gt;\\AppHelper -->
<g id="edge59" class="edge"><title>\\DateHelper&#45;&gt;\\AppHelper</title>
<path fill="none" stroke="black" d="M1050.99,-1896.47C1032.15,-1891.82 1009.76,-1885.76 990,-1879 940.27,-1861.98 885.199,-1837.9 847.206,-1820.42"/>
<polygon fill="none" stroke="black" points="848.474,-1817.15 837.929,-1816.12 845.534,-1823.5 848.474,-1817.15"/>
</g>
<!-- \\SnsButtonHelper -->
<g id="node37" class="node"><title>\\SnsButtonHelper</title>
<polygon fill="none" stroke="black" points="1152,-1870 1034,-1870 1034,-1834 1152,-1834 1152,-1870"/>
<text text-anchor="middle" x="1093" y="-1849.1" font-family="Courier,monospace" font-size="11.00">SnsButtonHelper</text>
</g>
<!-- \\SnsButtonHelper&#45;&gt;\\AppHelper -->
<g id="edge61" class="edge"><title>\\SnsButtonHelper&#45;&gt;\\AppHelper</title>
<path fill="none" stroke="black" d="M1033.71,-1841.07C979.266,-1831.04 899.563,-1816.35 848.738,-1806.98"/>
<polygon fill="none" stroke="black" points="849.131,-1803.5 838.663,-1805.13 847.863,-1810.38 849.131,-1803.5"/>
</g>
<!-- \\BackToHelper -->
<g id="node38" class="node"><title>\\BackToHelper</title>
<polygon fill="none" stroke="black" points="1142,-1816 1044,-1816 1044,-1780 1142,-1780 1142,-1816"/>
<text text-anchor="middle" x="1093" y="-1795.1" font-family="Courier,monospace" font-size="11.00">BackToHelper</text>
</g>
<!-- \\BackToHelper&#45;&gt;\\AppHelper -->
<g id="edge63" class="edge"><title>\\BackToHelper&#45;&gt;\\AppHelper</title>
<path fill="none" stroke="black" d="M1043.96,-1798C989.78,-1798 903.056,-1798 848.925,-1798"/>
<polygon fill="none" stroke="black" points="848.882,-1794.5 838.882,-1798 848.882,-1801.5 848.882,-1794.5"/>
</g>
<!-- \\NetCommonsHtmlHelper -->
<g id="node39" class="node"><title>\\NetCommonsHtmlHelper</title>
<polygon fill="none" stroke="black" points="1169,-1762 1017,-1762 1017,-1726 1169,-1726 1169,-1762"/>
<text text-anchor="middle" x="1093" y="-1741.1" font-family="Courier,monospace" font-size="11.00">NetCommonsHtmlHelper</text>
</g>
<!-- \\NetCommonsHtmlHelper&#45;&gt;\\AppHelper -->
<g id="edge65" class="edge"><title>\\NetCommonsHtmlHelper&#45;&gt;\\AppHelper</title>
<path fill="none" stroke="black" d="M1016.78,-1758.05C963.659,-1767.84 894.376,-1780.61 848.603,-1789.04"/>
<polygon fill="none" stroke="black" points="847.838,-1785.62 838.638,-1790.88 849.107,-1792.51 847.838,-1785.62"/>
</g>
<!-- \\ButtonHelper -->
<g id="node40" class="node"><title>\\ButtonHelper</title>
<polygon fill="none" stroke="black" points="1142,-952 1044,-952 1044,-916 1142,-916 1142,-952"/>
<text text-anchor="middle" x="1093" y="-931.1" font-family="Courier,monospace" font-size="11.00">ButtonHelper</text>
</g>
<!-- \\ButtonHelper&#45;&gt;\\FormHelper -->
<g id="edge67" class="edge"><title>\\ButtonHelper&#45;&gt;\\FormHelper</title>
<path fill="none" stroke="black" d="M1043.76,-932.618C1024.27,-929.457 1003.37,-922.318 990,-907 815.683,-707.337 1095.43,-511.899 918,-315 908.227,-304.155 895.069,-297.207 881.082,-292.841"/>
<polygon fill="none" stroke="black" points="881.864,-289.426 871.298,-290.214 880.049,-296.187 881.864,-289.426"/>
</g>
<!-- \\ComposerHelper -->
<g id="node41" class="node"><title>\\ComposerHelper</title>
<polygon fill="none" stroke="black" points="1148,-1708 1038,-1708 1038,-1672 1148,-1672 1148,-1708"/>
<text text-anchor="middle" x="1093" y="-1687.1" font-family="Courier,monospace" font-size="11.00">ComposerHelper</text>
</g>
<!-- \\ComposerHelper&#45;&gt;\\AppHelper -->
<g id="edge69" class="edge"><title>\\ComposerHelper&#45;&gt;\\AppHelper</title>
<path fill="none" stroke="black" d="M1037.5,-1702.96C1021.99,-1707.01 1005.22,-1711.79 990,-1717 940.27,-1734.02 885.199,-1758.1 847.206,-1775.58"/>
<polygon fill="none" stroke="black" points="845.534,-1772.5 837.929,-1779.88 848.474,-1778.85 845.534,-1772.5"/>
</g>
<!-- \\LinkButtonHelper -->
<g id="node42" class="node"><title>\\LinkButtonHelper</title>
<polygon fill="none" stroke="black" points="1155,-898 1031,-898 1031,-862 1155,-862 1155,-898"/>
<text text-anchor="middle" x="1093" y="-877.1" font-family="Courier,monospace" font-size="11.00">LinkButtonHelper</text>
</g>
<!-- \\LinkButtonHelper&#45;&gt;\\FormHelper -->
<g id="edge71" class="edge"><title>\\LinkButtonHelper&#45;&gt;\\FormHelper</title>
<path fill="none" stroke="black" d="M1030.45,-875.714C1015.26,-871.707 1000.41,-864.775 990,-853 830.252,-672.227 1080.57,-493.24 918,-315 908.162,-304.213 894.974,-297.293 880.979,-292.934"/>
<polygon fill="none" stroke="black" points="881.757,-289.519 871.192,-290.31 879.944,-296.281 881.757,-289.519"/>
</g>
<!-- \\NetCommonsTimeHelper -->
<g id="node43" class="node"><title>\\NetCommonsTimeHelper</title>
<polygon fill="none" stroke="black" points="1169,-1654 1017,-1654 1017,-1618 1169,-1618 1169,-1654"/>
<text text-anchor="middle" x="1093" y="-1633.1" font-family="Courier,monospace" font-size="11.00">NetCommonsTimeHelper</text>
</g>
<!-- \\NetCommonsTimeHelper&#45;&gt;\\AppHelper -->
<g id="edge73" class="edge"><title>\\NetCommonsTimeHelper&#45;&gt;\\AppHelper</title>
<path fill="none" stroke="black" d="M1016.79,-1652.62C1007.59,-1655.61 998.458,-1659.05 990,-1663 927.211,-1692.33 863.394,-1742.84 828.029,-1773.06"/>
<polygon fill="none" stroke="black" points="825.369,-1770.74 820.087,-1779.92 829.944,-1776.03 825.369,-1770.74"/>
</g>
<!-- \\NetCommonsFormHelper -->
<g id="node44" class="node"><title>\\NetCommonsFormHelper</title>
<polygon fill="none" stroke="black" points="1169,-1600 1017,-1600 1017,-1564 1169,-1564 1169,-1600"/>
<text text-anchor="middle" x="1093" y="-1579.1" font-family="Courier,monospace" font-size="11.00">NetCommonsFormHelper</text>
</g>
<!-- \\NetCommonsFormHelper&#45;&gt;\\AppHelper -->
<g id="edge75" class="edge"><title>\\NetCommonsFormHelper&#45;&gt;\\AppHelper</title>
<path fill="none" stroke="black" d="M1016.92,-1597.02C1007.55,-1600.28 998.344,-1604.23 990,-1609 915.721,-1651.49 850.104,-1730.48 819.041,-1771.59"/>
<polygon fill="none" stroke="black" points="816.119,-1769.65 812.946,-1779.76 821.73,-1773.84 816.119,-1769.65"/>
</g>
<!-- \\TitleIconHelper -->
<g id="node45" class="node"><title>\\TitleIconHelper</title>
<polygon fill="none" stroke="black" points="1152,-1546 1034,-1546 1034,-1510 1152,-1510 1152,-1546"/>
<text text-anchor="middle" x="1093" y="-1525.1" font-family="Courier,monospace" font-size="11.00">TitleIconHelper</text>
</g>
<!-- \\TitleIconHelper&#45;&gt;\\AppHelper -->
<g id="edge77" class="edge"><title>\\TitleIconHelper&#45;&gt;\\AppHelper</title>
<path fill="none" stroke="black" d="M1033.83,-1536.56C1018.71,-1540.56 1003.05,-1546.42 990,-1555 904.042,-1611.54 840.094,-1720.07 813.531,-1770.72"/>
<polygon fill="none" stroke="black" points="810.341,-1769.27 808.865,-1779.76 816.562,-1772.48 810.341,-1769.27"/>
</g>
<!-- \\DatetimePickerHelper -->
<g id="node46" class="node"><title>\\DatetimePickerHelper</title>
<polygon fill="none" stroke="black" points="1169,-1492 1017,-1492 1017,-1456 1169,-1456 1169,-1492"/>
<text text-anchor="middle" x="1093" y="-1471.1" font-family="Courier,monospace" font-size="11.00">DatetimePickerHelper</text>
</g>
<!-- \\DatetimePickerHelper&#45;&gt;\\AppHelper -->
<g id="edge79" class="edge"><title>\\DatetimePickerHelper&#45;&gt;\\AppHelper</title>
<path fill="none" stroke="black" d="M1016.89,-1486.93C1007.32,-1490.53 998.072,-1495.13 990,-1501 939.522,-1537.73 848.866,-1704.47 814.1,-1770.73"/>
<polygon fill="none" stroke="black" points="810.916,-1769.27 809.388,-1779.75 817.121,-1772.51 810.916,-1769.27"/>
</g>
<!-- \\Model -->
<g id="node109" class="node"><title>\\Model</title>
<ellipse fill="none" stroke="black" cx="44" cy="-2797" rx="43.8406" ry="18.3848"/>
<text text-anchor="middle" x="44" y="-2793.4" font-family="Times Roman,serif" font-size="14.00" fill="gray">\Model</text>
</g>
<!-- \\NetCommonsAppModel&#45;&gt;\\Model -->
<g id="edge81" class="edge"><title>\\NetCommonsAppModel&#45;&gt;\\Model</title>
<path fill="none" stroke="black" d="M172.749,-2797C148.379,-2797 121.357,-2797 98.3871,-2797"/>
<polygon fill="none" stroke="black" points="98.1425,-2793.5 88.1425,-2797 98.1424,-2800.5 98.1425,-2793.5"/>
</g>
<!-- \\OriginalKeyBehavior -->
<g id="node48" class="node"><title>\\OriginalKeyBehavior</title>
<polygon fill="none" stroke="black" points="1165,-790 1021,-790 1021,-754 1165,-754 1165,-790"/>
<text text-anchor="middle" x="1093" y="-769.1" font-family="Courier,monospace" font-size="11.00">OriginalKeyBehavior</text>
</g>
<!-- \\ModelBehavior -->
<g id="node111" class="node"><title>\\ModelBehavior</title>
<ellipse fill="none" stroke="black" cx="800" cy="-180" rx="86.9741" ry="18.3848"/>
<text text-anchor="middle" x="800" y="-176.4" font-family="Times Roman,serif" font-size="14.00" fill="gray">\ModelBehavior</text>
</g>
<!-- \\OriginalKeyBehavior&#45;&gt;\\ModelBehavior -->
<g id="edge83" class="edge"><title>\\OriginalKeyBehavior&#45;&gt;\\ModelBehavior</title>
<path fill="none" stroke="black" d="M1020.36,-764.567C1008.84,-760.366 998.079,-754.143 990,-745 830.252,-564.227 1080.57,-385.24 918,-207 910.917,-199.234 902.097,-193.472 892.49,-189.227"/>
<polygon fill="none" stroke="black" points="893.659,-185.927 883.069,-185.607 891.148,-192.461 893.659,-185.927"/>
</g>
<!-- \\TrackableBehavior -->
<g id="node49" class="node"><title>\\TrackableBehavior</title>
<polygon fill="none" stroke="black" points="1158,-736 1028,-736 1028,-700 1158,-700 1158,-736"/>
<text text-anchor="middle" x="1093" y="-715.1" font-family="Courier,monospace" font-size="11.00">TrackableBehavior</text>
</g>
<!-- \\TrackableBehavior&#45;&gt;\\ModelBehavior -->
<g id="edge85" class="edge"><title>\\TrackableBehavior&#45;&gt;\\ModelBehavior</title>
<path fill="none" stroke="black" d="M1027.36,-712.719C1013.29,-708.606 999.75,-701.872 990,-691 844.8,-529.094 1065.73,-366.605 918,-207 910.86,-199.286 902.006,-193.556 892.38,-189.328"/>
<polygon fill="none" stroke="black" points="893.536,-186.023 882.945,-185.72 891.035,-192.561 893.536,-186.023"/>
</g>
<!-- \\YAExceptionRenderer -->
<g id="node50" class="node"><title>\\YAExceptionRenderer</title>
<polygon fill="none" stroke="black" points="1165,-628 1021,-628 1021,-592 1165,-592 1165,-628"/>
<text text-anchor="middle" x="1093" y="-607.1" font-family="Courier,monospace" font-size="11.00">YAExceptionRenderer</text>
</g>
<!-- \\ExceptionRenderer -->
<g id="node114" class="node"><title>\\ExceptionRenderer</title>
<ellipse fill="none" stroke="black" cx="800" cy="-126" rx="118.087" ry="18.3848"/>
<text text-anchor="middle" x="800" y="-122.4" font-family="Times Roman,serif" font-size="14.00" fill="gray">TEHxceptionRenderer</text>
</g>
<!-- \\YAExceptionRenderer&#45;&gt;\\ExceptionRenderer -->
<g id="edge87" class="edge"><title>\\YAExceptionRenderer&#45;&gt;\\ExceptionRenderer</title>
<path fill="none" stroke="black" d="M1020.34,-602.25C1008.9,-598.073 998.166,-591.94 990,-583 859.318,-439.927 1050.91,-294.002 918,-153 913.844,-148.591 909.128,-144.833 904.031,-141.635"/>
<polygon fill="none" stroke="black" points="905.577,-138.492 895.123,-136.766 902.219,-144.634 905.577,-138.492"/>
</g>
<!-- \\NetCommonsMigration -->
<g id="node51" class="node"><title>\\NetCommonsMigration</title>
<polygon fill="none" stroke="black" points="1165,-520 1021,-520 1021,-484 1165,-484 1165,-520"/>
<text text-anchor="middle" x="1093" y="-499.1" font-family="Courier,monospace" font-size="11.00">NetCommonsMigration</text>
</g>
<!-- \\CakeMigration -->
<g id="node116" class="node"><title>\\CakeMigration</title>
<ellipse fill="none" stroke="black" cx="800" cy="-72" rx="84.8528" ry="18.3848"/>
<text text-anchor="middle" x="800" y="-68.4" font-family="Times Roman,serif" font-size="14.00" fill="gray">\CakeMigration</text>
</g>
<!-- \\NetCommonsMigration&#45;&gt;\\CakeMigration -->
<g id="edge89" class="edge"><title>\\NetCommonsMigration&#45;&gt;\\CakeMigration</title>
<path fill="none" stroke="black" d="M1020.25,-493.995C1008.89,-489.838 998.206,-483.777 990,-475 873.795,-350.716 1036.14,-221.443 918,-99 910.347,-91.0685 900.877,-85.2535 890.656,-81.0209"/>
<polygon fill="none" stroke="black" points="891.684,-77.6706 881.089,-77.5632 889.304,-84.2538 891.684,-77.6706"/>
</g>
<!-- \\ContentCommentsAppController -->
<g id="node52" class="node"><title>\\ContentCommentsAppController</title>
<polygon fill="none" stroke="black" points="903,-2572 697,-2572 697,-2536 903,-2536 903,-2572"/>
<text text-anchor="middle" x="800" y="-2551.1" font-family="Courier,monospace" font-size="11.00">ContentCommentsAppController</text>
</g>
<!-- \\ContentCommentsAppController&#45;&gt;\\AppController -->
<g id="edge91" class="edge"><title>\\ContentCommentsAppController&#45;&gt;\\AppController</title>
<path fill="none" stroke="black" d="M696.898,-2538.88C691.449,-2535.57 686.413,-2531.65 682,-2527 540.042,-2377.45 508.922,-1679.53 503.848,-1530.18"/>
<polygon fill="none" stroke="black" points="507.341,-1529.89 503.515,-1520.01 500.345,-1530.12 507.341,-1529.89"/>
</g>
<!-- \\ContentCommentsComponent -->
<g id="node53" class="node"><title>\\ContentCommentsComponent</title>
<polygon fill="none" stroke="black" points="1182,-1168 1004,-1168 1004,-1132 1182,-1132 1182,-1168"/>
<text text-anchor="middle" x="1093" y="-1147.1" font-family="Courier,monospace" font-size="11.00">ContentCommentsComponent</text>
</g>
<!-- \\ContentCommentsComponent&#45;&gt;\\Component -->
<g id="edge93" class="edge"><title>\\ContentCommentsComponent&#45;&gt;\\Component</title>
<path fill="none" stroke="black" d="M1003.23,-1134.51C998.317,-1131.31 993.833,-1127.51 990,-1123 880.948,-994.787 1029.05,-495.484 918,-369 908.311,-357.965 895.121,-350.943 881.061,-346.564"/>
<polygon fill="none" stroke="black" points="881.786,-343.135 871.222,-343.939 879.981,-349.899 881.786,-343.135"/>
</g>
<!-- \\ContentCommentsController -->
<g id="node54" class="node"><title>\\ContentCommentsController</title>
<polygon fill="none" stroke="black" points="1185,-2572 1001,-2572 1001,-2536 1185,-2536 1185,-2572"/>
<text text-anchor="middle" x="1093" y="-2551.1" font-family="Courier,monospace" font-size="11.00">ContentCommentsController</text>
</g>
<!-- \\ContentCommentsController&#45;&gt;\\ContentCommentsAppController -->
<g id="edge95" class="edge"><title>\\ContentCommentsController&#45;&gt;\\ContentCommentsAppController</title>
<path fill="none" stroke="black" d="M1000.29,-2554C972.623,-2554 941.98,-2554 913.155,-2554"/>
<polygon fill="none" stroke="black" points="913.043,-2550.5 903.043,-2554 913.043,-2557.5 913.043,-2550.5"/>
</g>
<!-- \\ContentCommentHelper -->
<g id="node55" class="node"><title>\\ContentCommentHelper</title>
<polygon fill="none" stroke="black" points="1169,-2464 1017,-2464 1017,-2428 1169,-2428 1169,-2464"/>
<text text-anchor="middle" x="1093" y="-2443.1" font-family="Courier,monospace" font-size="11.00">ContentCommentHelper</text>
</g>
<!-- \\ContentCommentHelper&#45;&gt;\\AppHelper -->
<g id="edge97" class="edge"><title>\\ContentCommentHelper&#45;&gt;\\AppHelper</title>
<path fill="none" stroke="black" d="M1016.82,-2435.65C1006.92,-2431.69 997.6,-2426.3 990,-2419 900.476,-2333.03 824.404,-1935.61 804.863,-1826.04"/>
<polygon fill="none" stroke="black" points="808.289,-1825.31 803.101,-1816.07 801.396,-1826.53 808.289,-1825.31"/>
</g>
<!-- \\ContentCommentsAppModel -->
<g id="node56" class="node"><title>\\ContentCommentsAppModel</title>
<polygon fill="none" stroke="black" points="886,-2788 714,-2788 714,-2752 886,-2752 886,-2788"/>
<text text-anchor="middle" x="800" y="-2767.1" font-family="Courier,monospace" font-size="11.00">ContentCommentsAppModel</text>
</g>
<!-- \\ContentCommentsAppModel&#45;&gt;\\AppModel -->
<g id="edge99" class="edge"><title>\\ContentCommentsAppModel&#45;&gt;\\AppModel</title>
<path fill="none" stroke="black" d="M713.696,-2777.85C659.787,-2782.75 592.529,-2788.86 548.711,-2792.84"/>
<polygon fill="none" stroke="black" points="548.285,-2789.37 538.643,-2793.76 548.919,-2796.34 548.285,-2789.37"/>
</g>
<!-- \\ContentCommentBehavior -->
<g id="node57" class="node"><title>\\ContentCommentBehavior</title>
<polygon fill="none" stroke="black" points="1175,-682 1011,-682 1011,-646 1175,-646 1175,-682"/>
<text text-anchor="middle" x="1093" y="-661.1" font-family="Courier,monospace" font-size="11.00">ContentCommentBehavior</text>
</g>
<!-- \\ContentCommentBehavior&#45;&gt;\\ModelBehavior -->
<g id="edge101" class="edge"><title>\\ContentCommentBehavior&#45;&gt;\\ModelBehavior</title>
<path fill="none" stroke="black" d="M1010.36,-651.977C1002.73,-648.173 995.735,-643.279 990,-637 859.318,-493.927 1050.91,-348.002 918,-207 910.736,-199.293 901.758,-193.575 892.025,-189.36"/>
<polygon fill="none" stroke="black" points="893.083,-186.019 882.491,-185.764 890.613,-192.568 893.083,-186.019"/>
</g>
<!-- \\ContentComment -->
<g id="node58" class="node"><title>\\ContentComment</title>
<polygon fill="none" stroke="black" points="1148,-2842 1038,-2842 1038,-2806 1148,-2806 1148,-2842"/>
<text text-anchor="middle" x="1093" y="-2821.1" font-family="Courier,monospace" font-size="11.00">ContentComment</text>
</g>
<!-- \\ContentComment&#45;&gt;\\ContentCommentsAppModel -->
<g id="edge103" class="edge"><title>\\ContentComment&#45;&gt;\\ContentCommentsAppModel</title>
<path fill="none" stroke="black" d="M1037.2,-2813.72C997.361,-2806.37 942.771,-2796.31 896.003,-2787.69"/>
<polygon fill="none" stroke="black" points="896.619,-2784.25 886.151,-2785.88 895.35,-2791.13 896.619,-2784.25"/>
</g>
<!-- \\ContentCommentSchema -->
<g id="node59" class="node"><title>\\ContentCommentSchema</title>
<polygon fill="none" stroke="black" points="1169,-466 1017,-466 1017,-430 1169,-430 1169,-466"/>
<text text-anchor="middle" x="1093" y="-445.1" font-family="Courier,monospace" font-size="11.00">ContentCommentSchema</text>
</g>
<!-- \\CakeSchema -->
<g id="node125" class="node"><title>\\CakeSchema</title>
<ellipse fill="none" stroke="black" cx="800" cy="-18" rx="77.0746" ry="18.3848"/>
<text text-anchor="middle" x="800" y="-14.4" font-family="Times Roman,serif" font-size="14.00" fill="gray">\CakeSchema</text>
</g>
<!-- \\ContentCommentSchema&#45;&gt;\\CakeSchema -->
<g id="edge105" class="edge"><title>\\ContentCommentSchema&#45;&gt;\\CakeSchema</title>
<path fill="none" stroke="black" d="M1090.86,-429.713C1082.37,-365.789 1045.04,-150.503 918,-45 907.886,-36.6012 895.67,-30.6949 882.982,-26.5644"/>
<polygon fill="none" stroke="black" points="883.793,-23.1556 873.214,-23.74 881.848,-29.8801 883.793,-23.1556"/>
</g>
<!-- \\ContentComments -->
<g id="node60" class="node"><title>\\ContentComments</title>
<polygon fill="none" stroke="black" points="1152,-574 1034,-574 1034,-538 1152,-538 1152,-574"/>
<text text-anchor="middle" x="1093" y="-553.1" font-family="Courier,monospace" font-size="11.00">ContentComments</text>
</g>
<!-- \\ContentComments&#45;&gt;\\CakeMigration -->
<g id="edge107" class="edge"><title>\\ContentComments&#45;&gt;\\CakeMigration</title>
<path fill="none" stroke="black" d="M1033.93,-552.289C1017.64,-548.423 1001.35,-541.421 990,-529 859.318,-385.927 1050.91,-240.002 918,-99 910.44,-90.9799 901.025,-85.1126 890.833,-80.8528"/>
<polygon fill="none" stroke="black" points="891.879,-77.5089 881.284,-77.377 889.484,-84.0866 891.879,-77.5089"/>
</g>
</g>
</svg>
