<?xml version="1.0" encoding="UTF-8" standalone="no"?>
<!DOCTYPE svg PUBLIC "-//W3C//DTD SVG 1.1//EN"
 "http://www.w3.org/Graphics/SVG/1.1/DTD/svg11.dtd">
<!-- Generated by graphviz version 2.26.3 (20100126.1600)
 -->
<!-- Title: G Pages: 1 -->
<svg width="1260pt" height="2888pt"
 viewBox="0.00 0.00 1260.00 2888.00" xmlns="http://www.w3.org/2000/svg" xmlns:xlink="http://www.w3.org/1999/xlink">
<g id="graph1" class="graph" transform="scale(1 1) rotate(0) translate(4 2884)">
<title>G</title>
<polygon fill="white" stroke="white" points="-4,5 -4,-2884 1257,-2884 1257,5 -4,5"/>
<g id="graph2" class="cluster"><title>cluster_Global</title>
<polyline fill="none" stroke="gray" points="234,-368 1232,-368 "/>
<path fill="none" stroke="gray" d="M1232,-368C1238,-368 1244,-374 1244,-380"/>
<polyline fill="none" stroke="gray" points="1244,-380 1244,-2860 "/>
<path fill="none" stroke="gray" d="M1244,-2860C1244,-2866 1238,-2872 1232,-2872"/>
<polyline fill="none" stroke="gray" points="1232,-2872 234,-2872 "/>
<path fill="none" stroke="gray" d="M234,-2872C228,-2872 222,-2866 222,-2860"/>
<polyline fill="none" stroke="gray" points="222,-2860 222,-380 "/>
<path fill="none" stroke="gray" d="M222,-380C222,-374 228,-368 234,-368"/>
<text text-anchor="middle" x="733" y="-2858.1" font-family="Times Roman,serif" font-size="11.00" fill="gray">Global</text>
</g>
<!-- \\AppController -->
<g id="node2" class="node"><title>\\AppController</title>
<polygon fill="none" stroke="black" points="334,-1587 230,-1587 230,-1551 334,-1551 334,-1587"/>
<text text-anchor="middle" x="282" y="-1566.1" font-family="Courier,monospace" font-size="11.00">AppController</text>
</g>
<!-- \\Controller -->
<g id="node62" class="node"><title>\\Controller</title>
<ellipse fill="none" stroke="black" cx="64" cy="-905" rx="63.1385" ry="18.3848"/>
<text text-anchor="middle" x="64" y="-901.4" font-family="Times Roman,serif" font-size="14.00" fill="gray">\Controller</text>
</g>
<!-- \\AppController&#45;&gt;\\Controller -->
<g id="edge3" class="edge"><title>\\AppController&#45;&gt;\\Controller</title>
<path fill="none" stroke="black" d="M229.671,-1563.98C218.612,-1560.65 207.91,-1555.34 200,-1547 113.617,-1455.88 75.1672,-1045.76 66.146,-933.491"/>
<polygon fill="none" stroke="black" points="69.6169,-932.983 65.342,-923.289 62.6386,-933.533 69.6169,-932.983"/>
</g>
<!-- \\AppModel -->
<g id="node3" class="node"><title>\\AppModel</title>
<polygon fill="none" stroke="black" points="875,-2518 805,-2518 805,-2482 875,-2482 875,-2518"/>
<text text-anchor="middle" x="840" y="-2497.1" font-family="Courier,monospace" font-size="11.00">AppModel</text>
</g>
<!-- \\NetCommonsAppModel -->
<g id="node50" class="node"><title>\\NetCommonsAppModel</title>
<polygon fill="none" stroke="black" points="612,-1466 474,-1466 474,-1430 612,-1430 612,-1466"/>
<text text-anchor="middle" x="543" y="-1445.1" font-family="Courier,monospace" font-size="11.00">NetCommonsAppModel</text>
</g>
<!-- \\AppModel&#45;&gt;\\NetCommonsAppModel -->
<g id="edge5" class="edge"><title>\\AppModel&#45;&gt;\\NetCommonsAppModel</title>
<path fill="none" stroke="black" d="M804.243,-2501.63C777.808,-2500.79 742.907,-2495.02 722,-2473 580.042,-2323.45 548.922,-1625.53 543.848,-1476.18"/>
<polygon fill="none" stroke="black" points="547.341,-1475.89 543.515,-1466.01 540.345,-1476.12 547.341,-1475.89"/>
</g>
<!-- \\DatabaseConfiguration -->
<g id="node4" class="node"><title>\\DatabaseConfiguration</title>
<polygon fill="none" stroke="black" points="1212,-2518 1054,-2518 1054,-2482 1212,-2482 1212,-2518"/>
<text text-anchor="middle" x="1133" y="-2497.1" font-family="Courier,monospace" font-size="11.00">DatabaseConfiguration</text>
</g>
<!-- \\DatabaseConfiguration&#45;&gt;\\AppModel -->
<g id="edge7" class="edge"><title>\\DatabaseConfiguration&#45;&gt;\\AppModel</title>
<path fill="none" stroke="black" d="M1053.71,-2500C999.937,-2500 930.74,-2500 885.886,-2500"/>
<polygon fill="none" stroke="black" points="885.866,-2496.5 875.866,-2500 885.866,-2503.5 885.866,-2496.5"/>
</g>
<!-- \\AppHelper -->
<g id="node5" class="node"><title>\\AppHelper</title>
<polygon fill="none" stroke="black" points="878,-1735 802,-1735 802,-1699 878,-1699 878,-1735"/>
<text text-anchor="middle" x="840" y="-1714.1" font-family="Courier,monospace" font-size="11.00">AppHelper</text>
</g>
<!-- \\Helper -->
<g id="node66" class="node"><title>\\Helper</title>
<ellipse fill="none" stroke="black" cx="543" cy="-342" rx="43.8406" ry="18.3848"/>
<text text-anchor="middle" x="543" y="-338.4" font-family="Times Roman,serif" font-size="14.00" fill="gray">Helper</text>
</g>
<!-- \\AppHelper&#45;&gt;\\Helper -->
<g id="edge9" class="edge"><title>\\AppHelper&#45;&gt;\\Helper</title>
<path fill="none" stroke="black" d="M833.199,-1698.76C812.46,-1642.26 749.744,-1464.76 722,-1312 703.124,-1208.06 719.807,-443.285 650,-364 636.767,-348.97 616.245,-342.596 596.7,-340.294"/>
<polygon fill="none" stroke="black" points="596.872,-336.796 586.612,-339.437 596.28,-343.771 596.872,-336.796"/>
</g>
<!-- \\NetCommonsDeleteTest -->
<g id="node6" class="node"><title>\\NetCommonsDeleteTest</title>
<polygon fill="none" stroke="black" points="1209,-2734 1057,-2734 1057,-2698 1209,-2698 1209,-2734"/>
<text text-anchor="middle" x="1133" y="-2713.1" font-family="Courier,monospace" font-size="11.00">NetCommonsDeleteTest</text>
</g>
<!-- \\NetCommonsModelTestCase -->
<g id="node15" class="node"><title>\\NetCommonsModelTestCase</title>
<polygon fill="none" stroke="black" points="926,-2680 754,-2680 754,-2644 926,-2644 926,-2680"/>
<text text-anchor="middle" x="840" y="-2659.1" font-family="Courier,monospace" font-size="11.00">NetCommonsModelTestCase</text>
</g>
<!-- \\NetCommonsDeleteTest&#45;&gt;\\NetCommonsModelTestCase -->
<g id="edge11" class="edge"><title>\\NetCommonsDeleteTest&#45;&gt;\\NetCommonsModelTestCase</title>
<path fill="none" stroke="black" d="M1056.78,-2701.95C1019.89,-2695.15 975.211,-2686.92 936.02,-2679.7"/>
<polygon fill="none" stroke="black" points="936.652,-2676.25 926.183,-2677.88 935.383,-2683.14 936.652,-2676.25"/>
</g>
<!-- \\NetCommonsConsoleTestCase -->
<g id="node7" class="node"><title>\\NetCommonsConsoleTestCase</title>
<polygon fill="none" stroke="black" points="932,-2626 748,-2626 748,-2590 932,-2590 932,-2626"/>
<text text-anchor="middle" x="840" y="-2605.1" font-family="Courier,monospace" font-size="11.00">NetCommonsConsoleTestCase</text>
</g>
<!-- \\NetCommonsCakeTestCase -->
<g id="node13" class="node"><title>\\NetCommonsCakeTestCase</title>
<polygon fill="none" stroke="black" points="625,-2653 461,-2653 461,-2617 625,-2617 625,-2653"/>
<text text-anchor="middle" x="543" y="-2632.1" font-family="Courier,monospace" font-size="11.00">NetCommonsCakeTestCase</text>
</g>
<!-- \\NetCommonsConsoleTestCase&#45;&gt;\\NetCommonsCakeTestCase -->
<g id="edge13" class="edge"><title>\\NetCommonsConsoleTestCase&#45;&gt;\\NetCommonsCakeTestCase</title>
<path fill="none" stroke="black" d="M747.249,-2616.43C711.93,-2619.64 671.688,-2623.3 636.316,-2626.52"/>
<polygon fill="none" stroke="black" points="635.635,-2623.06 625.993,-2627.46 636.269,-2630.04 635.635,-2623.06"/>
</g>
<!-- \\NetCommonsGetTest -->
<g id="node8" class="node"><title>\\NetCommonsGetTest</title>
<polygon fill="none" stroke="black" points="1198,-2680 1068,-2680 1068,-2644 1198,-2644 1198,-2680"/>
<text text-anchor="middle" x="1133" y="-2659.1" font-family="Courier,monospace" font-size="11.00">NetCommonsGetTest</text>
</g>
<!-- \\NetCommonsGetTest&#45;&gt;\\NetCommonsModelTestCase -->
<g id="edge15" class="edge"><title>\\NetCommonsGetTest&#45;&gt;\\NetCommonsModelTestCase</title>
<path fill="none" stroke="black" d="M1067.25,-2662C1028.66,-2662 979.217,-2662 936.305,-2662"/>
<polygon fill="none" stroke="black" points="936.12,-2658.5 926.12,-2662 936.12,-2665.5 936.12,-2658.5"/>
</g>
<!-- \\NetCommonsHelperTestCase -->
<g id="node9" class="node"><title>\\NetCommonsHelperTestCase</title>
<polygon fill="none" stroke="black" points="929,-2734 751,-2734 751,-2698 929,-2698 929,-2734"/>
<text text-anchor="middle" x="840" y="-2713.1" font-family="Courier,monospace" font-size="11.00">NetCommonsHelperTestCase</text>
</g>
<!-- \\NetCommonsHelperTestCase&#45;&gt;\\NetCommonsCakeTestCase -->
<g id="edge17" class="edge"><title>\\NetCommonsHelperTestCase&#45;&gt;\\NetCommonsCakeTestCase</title>
<path fill="none" stroke="black" d="M757.936,-2697.98C745.852,-2695.11 733.579,-2692.07 722,-2689 684.303,-2679.01 642.565,-2666.51 608.882,-2656.05"/>
<polygon fill="none" stroke="black" points="609.742,-2652.65 599.154,-2653.01 607.658,-2659.33 609.742,-2652.65"/>
</g>
<!-- \\NetCommonsControllerBaseTestCase -->
<g id="node10" class="node"><title>\\NetCommonsControllerBaseTestCase</title>
<polygon fill="none" stroke="black" points="956,-1303 724,-1303 724,-1267 956,-1267 956,-1303"/>
<text text-anchor="middle" x="840" y="-1282.1" font-family="Courier,monospace" font-size="11.00">NetCommonsControllerBaseTestCase</text>
</g>
<!-- \\ControllerTestCase -->
<g id="node72" class="node"><title>\\ControllerTestCase</title>
<ellipse fill="none" stroke="black" cx="543" cy="-288" rx="106.773" ry="18.3848"/>
<text text-anchor="middle" x="543" y="-284.4" font-family="Times Roman,serif" font-size="14.00" fill="gray">\ControllerTestCase</text>
</g>
<!-- \\NetCommonsControllerBaseTestCase&#45;&gt;\\ControllerTestCase -->
<g id="edge19" class="edge"><title>\\NetCommonsControllerBaseTestCase&#45;&gt;\\ControllerTestCase</title>
<path fill="none" stroke="black" d="M769.227,-1266.89C751.05,-1258.84 733.423,-1247.34 722,-1231 605.025,-1063.64 781.699,-471.032 650,-315 646.37,-310.699 642.164,-307.03 637.563,-303.904"/>
<polygon fill="none" stroke="black" points="639.292,-300.861 628.891,-298.845 635.765,-306.907 639.292,-300.861"/>
</g>
<!-- \\NetCommonsValidateTest -->
<g id="node11" class="node"><title>\\NetCommonsValidateTest</title>
<polygon fill="none" stroke="black" points="1215,-2626 1051,-2626 1051,-2590 1215,-2590 1215,-2626"/>
<text text-anchor="middle" x="1133" y="-2605.1" font-family="Courier,monospace" font-size="11.00">NetCommonsValidateTest</text>
</g>
<!-- \\NetCommonsValidateTest&#45;&gt;\\NetCommonsModelTestCase -->
<g id="edge21" class="edge"><title>\\NetCommonsValidateTest&#45;&gt;\\NetCommonsModelTestCase</title>
<path fill="none" stroke="black" d="M1050.21,-2623.26C1014.79,-2629.79 973.196,-2637.45 936.397,-2644.23"/>
<polygon fill="none" stroke="black" points="935.354,-2640.87 926.154,-2646.12 936.623,-2647.75 935.354,-2640.87"/>
</g>
<!-- \\NetCommonsTestSuite -->
<g id="node12" class="node"><title>\\NetCommonsTestSuite</title>
<polygon fill="none" stroke="black" points="1205,-1168 1061,-1168 1061,-1132 1205,-1132 1205,-1168"/>
<text text-anchor="middle" x="1133" y="-1147.1" font-family="Courier,monospace" font-size="11.00">NetCommonsTestSuite</text>
</g>
<!-- \\CakeTestSuite -->
<g id="node75" class="node"><title>\\CakeTestSuite</title>
<ellipse fill="none" stroke="black" cx="840" cy="-342" rx="84.1457" ry="18.3848"/>
<text text-anchor="middle" x="840" y="-338.4" font-family="Times Roman,serif" font-size="14.00" fill="gray">\CakeTestSuite</text>
</g>
<!-- \\NetCommonsTestSuite&#45;&gt;\\CakeTestSuite -->
<g id="edge23" class="edge"><title>\\NetCommonsTestSuite&#45;&gt;\\CakeTestSuite</title>
<path fill="none" stroke="black" d="M1060.33,-1142.92C1048.74,-1138.69 1037.96,-1132.37 1030,-1123 920.272,-993.91 1072.31,-489.054 958,-364 951.146,-356.501 942.623,-351.061 933.316,-347.167"/>
<polygon fill="none" stroke="black" points="934.374,-343.828 923.78,-343.769 932.025,-350.422 934.374,-343.828"/>
</g>
<!-- \\CakeTestCase -->
<g id="node77" class="node"><title>\\CakeTestCase</title>
<ellipse fill="none" stroke="black" cx="282" cy="-342" rx="82.0244" ry="18.3848"/>
<text text-anchor="middle" x="282" y="-338.4" font-family="Times Roman,serif" font-size="14.00" fill="gray">\CakeTestCase</text>
</g>
<!-- \\NetCommonsCakeTestCase&#45;&gt;\\CakeTestCase -->
<g id="edge25" class="edge"><title>\\NetCommonsCakeTestCase&#45;&gt;\\CakeTestCase</title>
<path fill="none" stroke="black" d="M541.149,-2616.95C530.139,-2509.23 472.526,-1940.25 436,-1475 426.318,-1351.68 442.426,-459.665 364,-364 362.283,-361.905 360.39,-359.998 358.355,-358.262"/>
<polygon fill="none" stroke="black" points="360.087,-355.204 349.875,-352.381 356.098,-360.956 360.087,-355.204"/>
</g>
<!-- \\NetCommonsSaveTest -->
<g id="node14" class="node"><title>\\NetCommonsSaveTest</title>
<polygon fill="none" stroke="black" points="1202,-2788 1064,-2788 1064,-2752 1202,-2752 1202,-2788"/>
<text text-anchor="middle" x="1133" y="-2767.1" font-family="Courier,monospace" font-size="11.00">NetCommonsSaveTest</text>
</g>
<!-- \\NetCommonsSaveTest&#45;&gt;\\NetCommonsModelTestCase -->
<g id="edge27" class="edge"><title>\\NetCommonsSaveTest&#45;&gt;\\NetCommonsModelTestCase</title>
<path fill="none" stroke="black" d="M1063.8,-2755.82C1052.23,-2752.34 1040.57,-2748.11 1030,-2743 993.981,-2725.6 994.288,-2705.83 958,-2689 950.962,-2685.74 943.501,-2682.85 935.884,-2680.31"/>
<polygon fill="none" stroke="black" points="936.762,-2676.91 926.173,-2677.26 934.666,-2683.59 936.762,-2676.91"/>
</g>
<!-- \\NetCommonsModelTestCase&#45;&gt;\\NetCommonsCakeTestCase -->
<g id="edge29" class="edge"><title>\\NetCommonsModelTestCase&#45;&gt;\\NetCommonsCakeTestCase</title>
<path fill="none" stroke="black" d="M753.696,-2654.15C716.671,-2650.79 673.35,-2646.85 635.65,-2643.42"/>
<polygon fill="none" stroke="black" points="635.962,-2639.94 625.686,-2642.52 635.328,-2646.91 635.962,-2639.94"/>
</g>
<!-- \\NetCommonsControllerTestCase -->
<g id="node16" class="node"><title>\\NetCommonsControllerTestCase</title>
<polygon fill="none" stroke="black" points="1236,-1330 1030,-1330 1030,-1294 1236,-1294 1236,-1330"/>
<text text-anchor="middle" x="1133" y="-1309.1" font-family="Courier,monospace" font-size="11.00">NetCommonsControllerTestCase</text>
</g>
<!-- \\NetCommonsControllerTestCase&#45;&gt;\\NetCommonsControllerBaseTestCase -->
<g id="edge31" class="edge"><title>\\NetCommonsControllerTestCase&#45;&gt;\\NetCommonsControllerBaseTestCase</title>
<path fill="none" stroke="black" d="M1029.7,-1302.48C1009.29,-1300.6 987.65,-1298.61 966.571,-1296.66"/>
<polygon fill="none" stroke="black" points="966.885,-1293.18 956.606,-1295.75 966.243,-1300.15 966.885,-1293.18"/>
</g>
<!-- \\NetCommonsAppController -->
<g id="node17" class="node"><title>\\NetCommonsAppController</title>
<polygon fill="none" stroke="black" points="926,-1222 754,-1222 754,-1186 926,-1186 926,-1222"/>
<text text-anchor="middle" x="840" y="-1201.1" font-family="Courier,monospace" font-size="11.00">NetCommonsAppController</text>
</g>
<!-- \\NetCommonsAppController&#45;&gt;\\Controller -->
<g id="edge33" class="edge"><title>\\NetCommonsAppController&#45;&gt;\\Controller</title>
<path fill="none" stroke="black" d="M753.996,-1201.7C741.83,-1197.75 730.568,-1191.53 722,-1182 584.755,-1029.33 800.713,-400.391 650,-261 503.171,-125.201 355.346,-135.034 200,-261 101.87,-340.571 71.7953,-763.138 65.4213,-876.819"/>
<polygon fill="none" stroke="black" points="61.9249,-876.659 64.8769,-886.835 68.9146,-877.039 61.9249,-876.659"/>
</g>
<!-- \\AssetComponent -->
<g id="node18" class="node"><title>\\AssetComponent</title>
<polygon fill="none" stroke="black" points="1188,-952 1078,-952 1078,-916 1188,-916 1188,-952"/>
<text text-anchor="middle" x="1133" y="-931.1" font-family="Courier,monospace" font-size="11.00">AssetComponent</text>
</g>
<!-- \\Component -->
<g id="node83" class="node"><title>\\Component</title>
<ellipse fill="none" stroke="black" cx="840" cy="-288" rx="70.9184" ry="18.3848"/>
<text text-anchor="middle" x="840" y="-284.4" font-family="Times Roman,serif" font-size="14.00" fill="gray">\Component</text>
</g>
<!-- \\AssetComponent&#45;&gt;\\Component -->
<g id="edge35" class="edge"><title>\\AssetComponent&#45;&gt;\\Component</title>
<path fill="none" stroke="black" d="M1077.34,-931.436C1059.8,-927.802 1041.91,-920.647 1030,-907 855.683,-707.337 1135.43,-511.899 958,-315 948.227,-304.155 935.069,-297.207 921.082,-292.841"/>
<polygon fill="none" stroke="black" points="921.864,-289.426 911.298,-290.214 920.049,-296.187 921.864,-289.426"/>
</g>
<!-- \\AccessCtrlComponent -->
<g id="node19" class="node"><title>\\AccessCtrlComponent</title>
<polygon fill="none" stroke="black" points="1205,-898 1061,-898 1061,-862 1205,-862 1205,-898"/>
<text text-anchor="middle" x="1133" y="-877.1" font-family="Courier,monospace" font-size="11.00">AccessCtrlComponent</text>
</g>
<!-- \\AccessCtrlComponent&#45;&gt;\\Component -->
<g id="edge37" class="edge"><title>\\AccessCtrlComponent&#45;&gt;\\Component</title>
<path fill="none" stroke="black" d="M1060.36,-872.567C1048.84,-868.366 1038.08,-862.143 1030,-853 870.252,-672.227 1120.57,-493.24 958,-315 948.162,-304.213 934.974,-297.293 920.979,-292.934"/>
<polygon fill="none" stroke="black" points="921.757,-289.519 911.192,-290.31 919.944,-296.281 921.757,-289.519"/>
</g>
<!-- \\NetCommonsTimeComponent -->
<g id="node20" class="node"><title>\\NetCommonsTimeComponent</title>
<polygon fill="none" stroke="black" points="1219,-1114 1047,-1114 1047,-1078 1219,-1078 1219,-1114"/>
<text text-anchor="middle" x="1133" y="-1093.1" font-family="Courier,monospace" font-size="11.00">NetCommonsTimeComponent</text>
</g>
<!-- \\NetCommonsTimeComponent&#45;&gt;\\Component -->
<g id="edge39" class="edge"><title>\\NetCommonsTimeComponent&#45;&gt;\\Component</title>
<path fill="none" stroke="black" d="M1046.99,-1082.8C1040.6,-1079.16 1034.79,-1074.63 1030,-1069 920.948,-940.787 1069.05,-441.484 958,-315 948.311,-303.965 935.121,-296.943 921.061,-292.564"/>
<polygon fill="none" stroke="black" points="921.786,-289.135 911.222,-289.939 919.981,-295.899 921.786,-289.135"/>
</g>
<!-- \\PermissionComponent -->
<g id="node21" class="node"><title>\\PermissionComponent</title>
<polygon fill="none" stroke="black" points="1205,-1060 1061,-1060 1061,-1024 1205,-1024 1205,-1060"/>
<text text-anchor="middle" x="1133" y="-1039.1" font-family="Courier,monospace" font-size="11.00">PermissionComponent</text>
</g>
<!-- \\PermissionComponent&#45;&gt;\\Component -->
<g id="edge41" class="edge"><title>\\PermissionComponent&#45;&gt;\\Component</title>
<path fill="none" stroke="black" d="M1060.39,-1034.86C1048.79,-1030.64 1038,-1024.34 1030,-1015 826.502,-777.507 1165.2,-549.266 958,-315 948.271,-304.001 935.062,-296.994 920.998,-292.62"/>
<polygon fill="none" stroke="black" points="921.72,-289.191 911.156,-289.996 919.917,-295.955 921.72,-289.191"/>
</g>
<!-- \\NetCommonsComponent -->
<g id="node22" class="node"><title>\\NetCommonsComponent</title>
<polygon fill="none" stroke="black" points="1205,-1006 1061,-1006 1061,-970 1205,-970 1205,-1006"/>
<text text-anchor="middle" x="1133" y="-985.1" font-family="Courier,monospace" font-size="11.00">NetCommonsComponent</text>
</g>
<!-- \\NetCommonsComponent&#45;&gt;\\Component -->
<g id="edge43" class="edge"><title>\\NetCommonsComponent&#45;&gt;\\Component</title>
<path fill="none" stroke="black" d="M1060.45,-980.809C1048.85,-976.592 1038.04,-970.301 1030,-961 841.099,-742.429 1150.31,-530.576 958,-315 948.225,-304.042 934.994,-297.054 920.924,-292.686"/>
<polygon fill="none" stroke="black" points="921.644,-289.256 911.08,-290.064 919.842,-296.02 921.644,-289.256"/>
</g>
<!-- \\SiteCloseController -->
<g id="node23" class="node"><title>\\SiteCloseController</title>
<polygon fill="none" stroke="black" points="1205,-1222 1061,-1222 1061,-1186 1205,-1186 1205,-1222"/>
<text text-anchor="middle" x="1133" y="-1201.1" font-family="Courier,monospace" font-size="11.00">SiteCloseController</text>
</g>
<!-- \\SiteCloseController&#45;&gt;\\NetCommonsAppController -->
<g id="edge45" class="edge"><title>\\SiteCloseController&#45;&gt;\\NetCommonsAppController</title>
<path fill="none" stroke="black" d="M1060.2,-1204C1022.78,-1204 976.682,-1204 936.354,-1204"/>
<polygon fill="none" stroke="black" points="936.233,-1200.5 926.233,-1204 936.233,-1207.5 936.233,-1200.5"/>
</g>
<!-- \\NetCommonsController -->
<g id="node24" class="node"><title>\\NetCommonsController</title>
<polygon fill="none" stroke="black" points="1209,-1276 1057,-1276 1057,-1240 1209,-1240 1209,-1276"/>
<text text-anchor="middle" x="1133" y="-1255.1" font-family="Courier,monospace" font-size="11.00">NetCommonsController</text>
</g>
<!-- \\NetCommonsController&#45;&gt;\\NetCommonsAppController -->
<g id="edge47" class="edge"><title>\\NetCommonsController&#45;&gt;\\NetCommonsAppController</title>
<path fill="none" stroke="black" d="M1056.78,-1243.95C1019.89,-1237.15 975.211,-1228.92 936.02,-1221.7"/>
<polygon fill="none" stroke="black" points="936.652,-1218.25 926.183,-1219.88 935.383,-1225.14 936.652,-1218.25"/>
</g>
<!-- \\NetCommonsUrl -->
<g id="node25" class="node"><title>\\NetCommonsUrl</title>
<polygon fill="none" stroke="black" points="1185,-2086 1081,-2086 1081,-2050 1185,-2050 1185,-2086"/>
<text text-anchor="middle" x="1133" y="-2065.1" font-family="Courier,monospace" font-size="11.00">NetCommonsUrl</text>
</g>
<!-- \\NetCommonsTime -->
<g id="node26" class="node"><title>\\NetCommonsTime</title>
<polygon fill="none" stroke="black" points="1188,-2032 1078,-2032 1078,-1996 1188,-1996 1188,-2032"/>
<text text-anchor="middle" x="1133" y="-2011.1" font-family="Courier,monospace" font-size="11.00">NetCommonsTime</text>
</g>
<!-- \\CurrentBase -->
<g id="node27" class="node"><title>\\CurrentBase</title>
<polygon fill="none" stroke="black" points="885,-2464 795,-2464 795,-2428 885,-2428 885,-2464"/>
<text text-anchor="middle" x="840" y="-2443.1" font-family="Courier,monospace" font-size="11.00">CurrentBase</text>
</g>
<!-- \\Current -->
<g id="node28" class="node"><title>\\Current</title>
<polygon fill="none" stroke="black" points="1165,-2464 1101,-2464 1101,-2428 1165,-2428 1165,-2464"/>
<text text-anchor="middle" x="1133" y="-2443.1" font-family="Courier,monospace" font-size="11.00">Current</text>
</g>
<!-- \\Current&#45;&gt;\\CurrentBase -->
<g id="edge49" class="edge"><title>\\Current&#45;&gt;\\CurrentBase</title>
<path fill="none" stroke="black" d="M1100.81,-2446C1051.48,-2446 956.554,-2446 895.846,-2446"/>
<polygon fill="none" stroke="black" points="895.669,-2442.5 885.669,-2446 895.669,-2449.5 895.669,-2442.5"/>
</g>
<!-- \\CurrentSystem -->
<g id="node29" class="node"><title>\\CurrentSystem</title>
<polygon fill="none" stroke="black" points="1185,-1924 1081,-1924 1081,-1888 1185,-1888 1185,-1924"/>
<text text-anchor="middle" x="1133" y="-1903.1" font-family="Courier,monospace" font-size="11.00">CurrentSystem</text>
</g>
<!-- \\CurrentPage -->
<g id="node30" class="node"><title>\\CurrentPage</title>
<polygon fill="none" stroke="black" points="1178,-1870 1088,-1870 1088,-1834 1178,-1834 1178,-1870"/>
<text text-anchor="middle" x="1133" y="-1849.1" font-family="Courier,monospace" font-size="11.00">CurrentPage</text>
</g>
<!-- \\CurrentFrame -->
<g id="node31" class="node"><title>\\CurrentFrame</title>
<polygon fill="none" stroke="black" points="1182,-1816 1084,-1816 1084,-1780 1182,-1780 1182,-1816"/>
<text text-anchor="middle" x="1133" y="-1795.1" font-family="Courier,monospace" font-size="11.00">CurrentFrame</text>
</g>
<!-- \\TokenHelper -->
<g id="node32" class="node"><title>\\TokenHelper</title>
<polygon fill="none" stroke="black" points="1178,-790 1088,-790 1088,-754 1178,-754 1178,-790"/>
<text text-anchor="middle" x="1133" y="-769.1" font-family="Courier,monospace" font-size="11.00">TokenHelper</text>
</g>
<!-- \\FormHelper -->
<g id="node92" class="node"><title>\\FormHelper</title>
<ellipse fill="none" stroke="black" cx="840" cy="-234" rx="70.9184" ry="18.3848"/>
<text text-anchor="middle" x="840" y="-230.4" font-family="Times Roman,serif" font-size="14.00" fill="gray">\FormHelper</text>
</g>
<!-- \\TokenHelper&#45;&gt;\\FormHelper -->
<g id="edge51" class="edge"><title>\\TokenHelper&#45;&gt;\\FormHelper</title>
<path fill="none" stroke="black" d="M1087.39,-770.968C1067,-768.065 1044.38,-761.033 1030,-745 884.8,-583.094 1105.73,-420.605 958,-261 948.083,-250.286 934.859,-243.398 920.853,-239.049"/>
<polygon fill="none" stroke="black" points="921.628,-235.634 911.063,-236.429 919.818,-242.396 921.628,-235.634"/>
</g>
<!-- \\SingletonViewBlockHtmlHelper -->
<g id="node33" class="node"><title>\\SingletonViewBlockHtmlHelper</title>
<polygon fill="none" stroke="black" points="1236,-682 1030,-682 1030,-646 1236,-646 1236,-682"/>
<text text-anchor="middle" x="1133" y="-661.1" font-family="Courier,monospace" font-size="11.00">SingletonViewBlockHtmlHelper</text>
</g>
<!-- \\HtmlHelper -->
<g id="node94" class="node"><title>\\HtmlHelper</title>
<ellipse fill="none" stroke="black" cx="840" cy="-180" rx="67.1751" ry="18.3848"/>
<text text-anchor="middle" x="840" y="-176.4" font-family="Times Roman,serif" font-size="14.00" fill="gray">HtmlHelper</text>
</g>
<!-- \\SingletonViewBlockHtmlHelper&#45;&gt;\\HtmlHelper -->
<g id="edge53" class="edge"><title>\\SingletonViewBlockHtmlHelper&#45;&gt;\\HtmlHelper</title>
<path fill="none" stroke="black" d="M1039.92,-645.739C1036.33,-643.175 1032.99,-640.276 1030,-637 899.318,-493.927 1090.91,-348.002 958,-207 947.121,-195.459 932.401,-188.376 917.051,-184.126"/>
<polygon fill="none" stroke="black" points="917.444,-180.622 906.906,-181.723 915.83,-187.434 917.444,-180.622"/>
</g>
<!-- \\FormInputHelper -->
<g id="node34" class="node"><title>\\FormInputHelper</title>
<polygon fill="none" stroke="black" points="1192,-2410 1074,-2410 1074,-2374 1192,-2374 1192,-2410"/>
<text text-anchor="middle" x="1133" y="-2389.1" font-family="Courier,monospace" font-size="11.00">FormInputHelper</text>
</g>
<!-- \\FormInputHelper&#45;&gt;\\AppHelper -->
<g id="edge55" class="edge"><title>\\FormInputHelper&#45;&gt;\\AppHelper</title>
<path fill="none" stroke="black" d="M1073.76,-2387.16C1057.84,-2383.22 1041.8,-2376.46 1030,-2365 937.138,-2274.78 863.079,-1857.86 844.505,-1745.15"/>
<polygon fill="none" stroke="black" points="847.948,-1744.52 842.881,-1735.22 841.039,-1745.65 847.948,-1744.52"/>
</g>
<!-- \\WizardHelper -->
<g id="node35" class="node"><title>\\WizardHelper</title>
<polygon fill="none" stroke="black" points="1182,-2356 1084,-2356 1084,-2320 1182,-2320 1182,-2356"/>
<text text-anchor="middle" x="1133" y="-2335.1" font-family="Courier,monospace" font-size="11.00">WizardHelper</text>
</g>
<!-- \\WizardHelper&#45;&gt;\\AppHelper -->
<g id="edge57" class="edge"><title>\\WizardHelper&#45;&gt;\\AppHelper</title>
<path fill="none" stroke="black" d="M1083.79,-2335.09C1064.89,-2331.62 1044.42,-2324.67 1030,-2311 943.879,-2229.34 865.926,-1851.95 845.305,-1745.2"/>
<polygon fill="none" stroke="black" points="848.705,-1744.35 843.386,-1735.18 841.83,-1745.66 848.705,-1744.35"/>
</g>
<!-- \\DisplayNumberHelper -->
<g id="node36" class="node"><title>\\DisplayNumberHelper</title>
<polygon fill="none" stroke="black" points="1205,-2302 1061,-2302 1061,-2266 1205,-2266 1205,-2302"/>
<text text-anchor="middle" x="1133" y="-2281.1" font-family="Courier,monospace" font-size="11.00">DisplayNumberHelper</text>
</g>
<!-- \\DisplayNumberHelper&#45;&gt;\\AppHelper -->
<g id="edge59" class="edge"><title>\\DisplayNumberHelper&#45;&gt;\\AppHelper</title>
<path fill="none" stroke="black" d="M1060.25,-2274.56C1049.15,-2270.53 1038.57,-2264.89 1030,-2257 874.226,-2113.5 846.135,-1834.7 841.095,-1745.31"/>
<polygon fill="none" stroke="black" points="844.581,-1744.94 840.577,-1735.13 837.59,-1745.3 844.581,-1744.94"/>
</g>
<!-- \\MessageFlashHelper -->
<g id="node37" class="node"><title>\\MessageFlashHelper</title>
<polygon fill="none" stroke="black" points="1202,-2248 1064,-2248 1064,-2212 1202,-2212 1202,-2248"/>
<text text-anchor="middle" x="1133" y="-2227.1" font-family="Courier,monospace" font-size="11.00">MessageFlashHelper</text>
</g>
<!-- \\MessageFlashHelper&#45;&gt;\\AppHelper -->
<g id="edge61" class="edge"><title>\\MessageFlashHelper&#45;&gt;\\AppHelper</title>
<path fill="none" stroke="black" d="M1063.93,-2221.49C1051.58,-2217.44 1039.6,-2211.54 1030,-2203 887.368,-2076.06 850.808,-1828.73 842.341,-1745.27"/>
<polygon fill="none" stroke="black" points="845.82,-1744.89 841.383,-1735.27 838.852,-1745.56 845.82,-1744.89"/>
</g>
<!-- \\DateHelper -->
<g id="node38" class="node"><title>\\DateHelper</title>
<polygon fill="none" stroke="black" points="1175,-2194 1091,-2194 1091,-2158 1175,-2158 1175,-2194"/>
<text text-anchor="middle" x="1133" y="-2173.1" font-family="Courier,monospace" font-size="11.00">DateHelper</text>
</g>
<!-- \\DateHelper&#45;&gt;\\AppHelper -->
<g id="edge63" class="edge"><title>\\DateHelper&#45;&gt;\\AppHelper</title>
<path fill="none" stroke="black" d="M1090.97,-2173.43C1070.56,-2170.23 1046.87,-2163.4 1030,-2149 900.231,-2038.27 855.867,-1821.9 843.825,-1744.97"/>
<polygon fill="none" stroke="black" points="847.284,-1744.43 842.335,-1735.07 840.362,-1745.48 847.284,-1744.43"/>
</g>
<!-- \\SnsButtonHelper -->
<g id="node39" class="node"><title>\\SnsButtonHelper</title>
<polygon fill="none" stroke="black" points="1192,-2140 1074,-2140 1074,-2104 1192,-2104 1192,-2140"/>
<text text-anchor="middle" x="1133" y="-2119.1" font-family="Courier,monospace" font-size="11.00">SnsButtonHelper</text>
</g>
<!-- \\SnsButtonHelper&#45;&gt;\\AppHelper -->
<g id="edge65" class="edge"><title>\\SnsButtonHelper&#45;&gt;\\AppHelper</title>
<path fill="none" stroke="black" d="M1073.94,-2115.47C1058.4,-2111.48 1042.5,-2105.12 1030,-2095 913.272,-2000.47 861.79,-1815.75 845.802,-1745.26"/>
<polygon fill="none" stroke="black" points="849.185,-1744.35 843.616,-1735.33 842.349,-1745.85 849.185,-1744.35"/>
</g>
<!-- \\BackToHelper -->
<g id="node40" class="node"><title>\\BackToHelper</title>
<polygon fill="none" stroke="black" points="1182,-1978 1084,-1978 1084,-1942 1182,-1942 1182,-1978"/>
<text text-anchor="middle" x="1133" y="-1957.1" font-family="Courier,monospace" font-size="11.00">BackToHelper</text>
</g>
<!-- \\BackToHelper&#45;&gt;\\AppHelper -->
<g id="edge67" class="edge"><title>\\BackToHelper&#45;&gt;\\AppHelper</title>
<path fill="none" stroke="black" d="M1083.97,-1953.31C1066.04,-1949.32 1046.2,-1943 1030,-1933 949.876,-1883.56 884.727,-1789.81 855.946,-1743.81"/>
<polygon fill="none" stroke="black" points="858.75,-1741.69 850.523,-1735.02 852.792,-1745.36 858.75,-1741.69"/>
</g>
<!-- \\NetCommonsHtmlHelper -->
<g id="node41" class="node"><title>\\NetCommonsHtmlHelper</title>
<polygon fill="none" stroke="black" points="1209,-1762 1057,-1762 1057,-1726 1209,-1726 1209,-1762"/>
<text text-anchor="middle" x="1133" y="-1741.1" font-family="Courier,monospace" font-size="11.00">NetCommonsHtmlHelper</text>
</g>
<!-- \\NetCommonsHtmlHelper&#45;&gt;\\AppHelper -->
<g id="edge69" class="edge"><title>\\NetCommonsHtmlHelper&#45;&gt;\\AppHelper</title>
<path fill="none" stroke="black" d="M1056.78,-1736.98C1003.66,-1732.08 934.376,-1725.7 888.603,-1721.48"/>
<polygon fill="none" stroke="black" points="888.917,-1717.99 878.638,-1720.56 888.274,-1724.96 888.917,-1717.99"/>
</g>
<!-- \\ButtonHelper -->
<g id="node42" class="node"><title>\\ButtonHelper</title>
<polygon fill="none" stroke="black" points="1182,-736 1084,-736 1084,-700 1182,-700 1182,-736"/>
<text text-anchor="middle" x="1133" y="-715.1" font-family="Courier,monospace" font-size="11.00">ButtonHelper</text>
</g>
<!-- \\ButtonHelper&#45;&gt;\\FormHelper -->
<g id="edge71" class="edge"><title>\\ButtonHelper&#45;&gt;\\FormHelper</title>
<path fill="none" stroke="black" d="M1083.82,-716.278C1064.47,-713.046 1043.65,-705.946 1030,-691 899.318,-547.927 1090.91,-402.002 958,-261 947.986,-250.377 934.718,-243.531 920.698,-239.194"/>
<polygon fill="none" stroke="black" points="921.468,-235.777 910.904,-236.577 919.661,-242.54 921.468,-235.777"/>
</g>
<!-- \\ComposerHelper -->
<g id="node43" class="node"><title>\\ComposerHelper</title>
<polygon fill="none" stroke="black" points="1188,-1708 1078,-1708 1078,-1672 1188,-1672 1188,-1708"/>
<text text-anchor="middle" x="1133" y="-1687.1" font-family="Courier,monospace" font-size="11.00">ComposerHelper</text>
</g>
<!-- \\ComposerHelper&#45;&gt;\\AppHelper -->
<g id="edge73" class="edge"><title>\\ComposerHelper&#45;&gt;\\AppHelper</title>
<path fill="none" stroke="black" d="M1077.2,-1695.14C1022.72,-1700.16 940.647,-1707.73 888.725,-1712.51"/>
<polygon fill="none" stroke="black" points="888.396,-1709.03 878.759,-1713.43 889.038,-1716 888.396,-1709.03"/>
</g>
<!-- \\LinkButtonHelper -->
<g id="node44" class="node"><title>\\LinkButtonHelper</title>
<polygon fill="none" stroke="black" points="1195,-844 1071,-844 1071,-808 1195,-808 1195,-844"/>
<text text-anchor="middle" x="1133" y="-823.1" font-family="Courier,monospace" font-size="11.00">LinkButtonHelper</text>
</g>
<!-- \\LinkButtonHelper&#45;&gt;\\FormHelper -->
<g id="edge75" class="edge"><title>\\LinkButtonHelper&#45;&gt;\\FormHelper</title>
<path fill="none" stroke="black" d="M1070.45,-821.714C1055.26,-817.707 1040.41,-810.775 1030,-799 870.252,-618.227 1120.57,-439.24 958,-261 948.162,-250.213 934.974,-243.293 920.979,-238.934"/>
<polygon fill="none" stroke="black" points="921.757,-235.519 911.192,-236.31 919.944,-242.281 921.757,-235.519"/>
</g>
<!-- \\TableListHelper -->
<g id="node45" class="node"><title>\\TableListHelper</title>
<polygon fill="none" stroke="black" points="1192,-1654 1074,-1654 1074,-1618 1192,-1618 1192,-1654"/>
<text text-anchor="middle" x="1133" y="-1633.1" font-family="Courier,monospace" font-size="11.00">TableListHelper</text>
</g>
<!-- \\TableListHelper&#45;&gt;\\AppHelper -->
<g id="edge77" class="edge"><title>\\TableListHelper&#45;&gt;\\AppHelper</title>
<path fill="none" stroke="black" d="M1073.85,-1651.28C1059.48,-1655.06 1044.18,-1659.13 1030,-1663 981.716,-1676.19 926.728,-1691.89 888.375,-1702.96"/>
<polygon fill="none" stroke="black" points="887.145,-1699.67 878.508,-1705.8 889.087,-1706.39 887.145,-1699.67"/>
</g>
<!-- \\NetCommonsTimeHelper -->
<g id="node46" class="node"><title>\\NetCommonsTimeHelper</title>
<polygon fill="none" stroke="black" points="1209,-1600 1057,-1600 1057,-1564 1209,-1564 1209,-1600"/>
<text text-anchor="middle" x="1133" y="-1579.1" font-family="Courier,monospace" font-size="11.00">NetCommonsTimeHelper</text>
</g>
<!-- \\NetCommonsTimeHelper&#45;&gt;\\AppHelper -->
<g id="edge79" class="edge"><title>\\NetCommonsTimeHelper&#45;&gt;\\AppHelper</title>
<path fill="none" stroke="black" d="M1056.88,-1599.54C1047.71,-1602.36 1038.56,-1605.51 1030,-1609 973.066,-1632.18 912.097,-1669.27 875.004,-1693.39"/>
<polygon fill="none" stroke="black" points="873.002,-1690.52 866.557,-1698.93 876.839,-1696.37 873.002,-1690.52"/>
</g>
<!-- \\NetCommonsFormHelper -->
<g id="node47" class="node"><title>\\NetCommonsFormHelper</title>
<polygon fill="none" stroke="black" points="1209,-1546 1057,-1546 1057,-1510 1209,-1510 1209,-1546"/>
<text text-anchor="middle" x="1133" y="-1525.1" font-family="Courier,monospace" font-size="11.00">NetCommonsFormHelper</text>
</g>
<!-- \\NetCommonsFormHelper&#45;&gt;\\AppHelper -->
<g id="edge81" class="edge"><title>\\NetCommonsFormHelper&#45;&gt;\\AppHelper</title>
<path fill="none" stroke="black" d="M1056.98,-1543.73C1047.65,-1546.87 1038.44,-1550.59 1030,-1555 961.41,-1590.81 896.097,-1655.44 862.838,-1691.3"/>
<polygon fill="none" stroke="black" points="860.033,-1689.17 855.854,-1698.91 865.192,-1693.91 860.033,-1689.17"/>
</g>
<!-- \\TitleIconHelper -->
<g id="node48" class="node"><title>\\TitleIconHelper</title>
<polygon fill="none" stroke="black" points="1192,-1492 1074,-1492 1074,-1456 1192,-1456 1192,-1492"/>
<text text-anchor="middle" x="1133" y="-1471.1" font-family="Courier,monospace" font-size="11.00">TitleIconHelper</text>
</g>
<!-- \\TitleIconHelper&#45;&gt;\\AppHelper -->
<g id="edge83" class="edge"><title>\\TitleIconHelper&#45;&gt;\\AppHelper</title>
<path fill="none" stroke="black" d="M1073.89,-1483.14C1058.85,-1487.14 1043.22,-1492.85 1030,-1501 949.876,-1550.44 884.727,-1644.19 855.946,-1690.19"/>
<polygon fill="none" stroke="black" points="852.792,-1688.64 850.523,-1698.98 858.75,-1692.31 852.792,-1688.64"/>
</g>
<!-- \\DatetimePickerHelper -->
<g id="node49" class="node"><title>\\DatetimePickerHelper</title>
<polygon fill="none" stroke="black" points="1209,-1438 1057,-1438 1057,-1402 1209,-1402 1209,-1438"/>
<text text-anchor="middle" x="1133" y="-1417.1" font-family="Courier,monospace" font-size="11.00">DatetimePickerHelper</text>
</g>
<!-- \\DatetimePickerHelper&#45;&gt;\\AppHelper -->
<g id="edge85" class="edge"><title>\\DatetimePickerHelper&#45;&gt;\\AppHelper</title>
<path fill="none" stroke="black" d="M1056.86,-1433.37C1047.35,-1436.9 1038.12,-1441.36 1030,-1447 938.034,-1510.86 875.79,-1634.47 851.457,-1689.46"/>
<polygon fill="none" stroke="black" points="848.13,-1688.34 847.356,-1698.9 854.551,-1691.13 848.13,-1688.34"/>
</g>
<!-- \\Model -->
<g id="node112" class="node"><title>\\Model</title>
<ellipse fill="none" stroke="black" cx="282" cy="-288" rx="43.8406" ry="18.3848"/>
<text text-anchor="middle" x="282" y="-284.4" font-family="Times Roman,serif" font-size="14.00" fill="gray">\Model</text>
</g>
<!-- \\NetCommonsAppModel&#45;&gt;\\Model -->
<g id="edge87" class="edge"><title>\\NetCommonsAppModel&#45;&gt;\\Model</title>
<path fill="none" stroke="black" d="M473.835,-1447.06C459.441,-1443.56 445.714,-1437.16 436,-1426 273.541,-1239.41 515.437,-510.645 364,-315 356.618,-305.463 345.774,-299.253 334.375,-295.222"/>
<polygon fill="none" stroke="black" points="335.318,-291.851 324.733,-292.323 333.302,-298.554 335.318,-291.851"/>
</g>
<!-- \\OriginalKeyBehavior -->
<g id="node51" class="node"><title>\\OriginalKeyBehavior</title>
<polygon fill="none" stroke="black" points="1205,-574 1061,-574 1061,-538 1205,-538 1205,-574"/>
<text text-anchor="middle" x="1133" y="-553.1" font-family="Courier,monospace" font-size="11.00">OriginalKeyBehavior</text>
</g>
<!-- \\ModelBehavior -->
<g id="node114" class="node"><title>\\ModelBehavior</title>
<ellipse fill="none" stroke="black" cx="840" cy="-126" rx="86.9741" ry="18.3848"/>
<text text-anchor="middle" x="840" y="-122.4" font-family="Times Roman,serif" font-size="14.00" fill="gray">\ModelBehavior</text>
</g>
<!-- \\OriginalKeyBehavior&#45;&gt;\\ModelBehavior -->
<g id="edge89" class="edge"><title>\\OriginalKeyBehavior&#45;&gt;\\ModelBehavior</title>
<path fill="none" stroke="black" d="M1060.25,-547.995C1048.89,-543.838 1038.21,-537.777 1030,-529 913.795,-404.716 1076.14,-275.443 958,-153 950.646,-145.379 941.615,-139.712 931.852,-135.525"/>
<polygon fill="none" stroke="black" points="932.89,-132.176 922.298,-131.949 930.436,-138.732 932.89,-132.176"/>
</g>
<!-- \\TrackableBehavior -->
<g id="node52" class="node"><title>\\TrackableBehavior</title>
<polygon fill="none" stroke="black" points="1198,-520 1068,-520 1068,-484 1198,-484 1198,-520"/>
<text text-anchor="middle" x="1133" y="-499.1" font-family="Courier,monospace" font-size="11.00">TrackableBehavior</text>
</g>
<!-- \\TrackableBehavior&#45;&gt;\\ModelBehavior -->
<g id="edge91" class="edge"><title>\\TrackableBehavior&#45;&gt;\\ModelBehavior</title>
<path fill="none" stroke="black" d="M1067.38,-496.047C1053.48,-491.941 1040.01,-485.38 1030,-475 928.21,-369.437 1061.44,-256.95 958,-153 950.53,-145.493 941.428,-139.895 931.627,-135.745"/>
<polygon fill="none" stroke="black" points="932.638,-132.388 922.045,-132.196 930.207,-138.952 932.638,-132.388"/>
</g>
<!-- \\YAExceptionRenderer -->
<g id="node53" class="node"><title>\\YAExceptionRenderer</title>
<polygon fill="none" stroke="black" points="1205,-466 1061,-466 1061,-430 1205,-430 1205,-466"/>
<text text-anchor="middle" x="1133" y="-445.1" font-family="Courier,monospace" font-size="11.00">YAExceptionRenderer</text>
</g>
<!-- \\ExceptionRenderer -->
<g id="node117" class="node"><title>\\ExceptionRenderer</title>
<ellipse fill="none" stroke="black" cx="840" cy="-72" rx="118.087" ry="18.3848"/>
<text text-anchor="middle" x="840" y="-68.4" font-family="Times Roman,serif" font-size="14.00" fill="gray">TEHxceptionRenderer</text>
</g>
<!-- \\YAExceptionRenderer&#45;&gt;\\ExceptionRenderer -->
<g id="edge93" class="edge"><title>\\YAExceptionRenderer&#45;&gt;\\ExceptionRenderer</title>
<path fill="none" stroke="black" d="M1060.48,-439.783C1049.09,-435.648 1038.34,-429.65 1030,-421 928.21,-315.437 1061.44,-202.95 958,-99 953.632,-94.61 948.706,-90.873 943.408,-87.6967"/>
<polygon fill="none" stroke="black" points="944.657,-84.4002 934.174,-82.8643 941.411,-90.6022 944.657,-84.4002"/>
</g>
<!-- \\NetCommonsMigration -->
<g id="node54" class="node"><title>\\NetCommonsMigration</title>
<polygon fill="none" stroke="black" points="1205,-412 1061,-412 1061,-376 1205,-376 1205,-412"/>
<text text-anchor="middle" x="1133" y="-391.1" font-family="Courier,monospace" font-size="11.00">NetCommonsMigration</text>
</g>
<!-- \\CakeMigration -->
<g id="node119" class="node"><title>\\CakeMigration</title>
<ellipse fill="none" stroke="black" cx="840" cy="-18" rx="84.8528" ry="18.3848"/>
<text text-anchor="middle" x="840" y="-14.4" font-family="Times Roman,serif" font-size="14.00" fill="gray">\CakeMigration</text>
</g>
<!-- \\NetCommonsMigration&#45;&gt;\\CakeMigration -->
<g id="edge95" class="edge"><title>\\NetCommonsMigration&#45;&gt;\\CakeMigration</title>
<path fill="none" stroke="black" d="M1129.54,-375.725C1117.51,-317.407 1071.83,-134.35 958,-45 948.922,-37.8745 938.309,-32.5637 927.237,-28.6167"/>
<polygon fill="none" stroke="black" points="928.007,-25.1887 917.416,-25.488 925.882,-31.8584 928.007,-25.1887"/>
</g>
<!-- \\FileController -->
<g id="node55" class="node"><title>\\FileController</title>
<polygon fill="none" stroke="black" points="895,-2815 785,-2815 785,-2779 895,-2779 895,-2815"/>
<text text-anchor="middle" x="840" y="-2794.1" font-family="Courier,monospace" font-size="11.00">FileController</text>
</g>
<!-- \\WysiwygAppController -->
<g id="node56" class="node"><title>\\WysiwygAppController</title>
<polygon fill="none" stroke="black" points="619,-2761 467,-2761 467,-2725 619,-2725 619,-2761"/>
<text text-anchor="middle" x="543" y="-2740.1" font-family="Courier,monospace" font-size="11.00">WysiwygAppController</text>
</g>
<!-- \\FileController&#45;&gt;\\WysiwygAppController -->
<g id="edge97" class="edge"><title>\\FileController&#45;&gt;\\WysiwygAppController</title>
<path fill="none" stroke="black" d="M784.485,-2786.91C740.806,-2778.96 679.168,-2767.76 629.098,-2758.65"/>
<polygon fill="none" stroke="black" points="629.712,-2755.21 619.247,-2756.86 628.46,-2762.1 629.712,-2755.21"/>
</g>
<!-- \\WysiwygAppController&#45;&gt;\\AppController -->
<g id="edge99" class="edge"><title>\\WysiwygAppController&#45;&gt;\\AppController</title>
<path fill="none" stroke="black" d="M506.142,-2724.9C482.113,-2711.09 452.293,-2689.72 436,-2662 325.04,-2473.23 289.463,-1750.46 283.106,-1597.53"/>
<polygon fill="none" stroke="black" points="286.587,-1596.99 282.683,-1587.14 279.593,-1597.27 286.587,-1596.99"/>
</g>
<!-- \\ImageController -->
<g id="node57" class="node"><title>\\ImageController</title>
<polygon fill="none" stroke="black" points="1192,-2842 1074,-2842 1074,-2806 1192,-2806 1192,-2842"/>
<text text-anchor="middle" x="1133" y="-2821.1" font-family="Courier,monospace" font-size="11.00">ImageController</text>
</g>
<!-- \\ImageController&#45;&gt;\\FileController -->
<g id="edge101" class="edge"><title>\\ImageController&#45;&gt;\\FileController</title>
<path fill="none" stroke="black" d="M1073.71,-2818.54C1025.05,-2814.05 956.226,-2807.71 905.864,-2803.07"/>
<polygon fill="none" stroke="black" points="906.01,-2799.57 895.731,-2802.14 905.367,-2806.54 906.01,-2799.57"/>
</g>
<!-- \\WysiwygHelper -->
<g id="node58" class="node"><title>\\WysiwygHelper</title>
<polygon fill="none" stroke="black" points="1185,-1384 1081,-1384 1081,-1348 1185,-1348 1185,-1384"/>
<text text-anchor="middle" x="1133" y="-1363.1" font-family="Courier,monospace" font-size="11.00">WysiwygHelper</text>
</g>
<!-- \\WysiwygHelper&#45;&gt;\\AppHelper -->
<g id="edge103" class="edge"><title>\\WysiwygHelper&#45;&gt;\\AppHelper</title>
<path fill="none" stroke="black" d="M1080.76,-1371.54C1063.3,-1375.41 1044.59,-1381.95 1030,-1393 925.624,-1472.08 868.084,-1626.47 848.129,-1689.35"/>
<polygon fill="none" stroke="black" points="844.764,-1688.39 845.144,-1698.97 851.45,-1690.46 844.764,-1688.39"/>
</g>
<!-- \\WysiwygBehavior -->
<g id="node59" class="node"><title>\\WysiwygBehavior</title>
<polygon fill="none" stroke="black" points="1192,-628 1074,-628 1074,-592 1192,-592 1192,-628"/>
<text text-anchor="middle" x="1133" y="-607.1" font-family="Courier,monospace" font-size="11.00">WysiwygBehavior</text>
</g>
<!-- \\WysiwygBehavior&#45;&gt;\\ModelBehavior -->
<g id="edge105" class="edge"><title>\\WysiwygBehavior&#45;&gt;\\ModelBehavior</title>
<path fill="none" stroke="black" d="M1073.93,-606.289C1057.64,-602.423 1041.35,-595.421 1030,-583 899.318,-439.927 1090.91,-294.002 958,-153 950.736,-145.293 941.758,-139.575 932.025,-135.36"/>
<polygon fill="none" stroke="black" points="933.083,-132.019 922.491,-131.764 930.613,-138.568 933.083,-132.019"/>
</g>
<!-- \\WysiwygAppModel -->
<g id="node60" class="node"><title>\\WysiwygAppModel</title>
<polygon fill="none" stroke="black" points="1192,-2572 1074,-2572 1074,-2536 1192,-2536 1192,-2572"/>
<text text-anchor="middle" x="1133" y="-2551.1" font-family="Courier,monospace" font-size="11.00">WysiwygAppModel</text>
</g>
<!-- \\WysiwygAppModel&#45;&gt;\\AppModel -->
<g id="edge107" class="edge"><title>\\WysiwygAppModel&#45;&gt;\\AppModel</title>
<path fill="none" stroke="black" d="M1073.71,-2543.07C1018.17,-2532.84 936.346,-2517.76 885.707,-2508.42"/>
<polygon fill="none" stroke="black" points="886.172,-2504.95 875.703,-2506.58 884.903,-2511.83 886.172,-2504.95"/>
</g>
</g>
</svg>
