<?xml version="1.0" encoding="UTF-8" standalone="no"?>
<!DOCTYPE svg PUBLIC "-//W3C//DTD SVG 1.1//EN"
 "http://www.w3.org/Graphics/SVG/1.1/DTD/svg11.dtd">
<!-- Generated by graphviz version 2.26.3 (20100126.1600)
 -->
<!-- Title: G Pages: 1 -->
<svg width="1260pt" height="2780pt"
 viewBox="0.00 0.00 1260.00 2780.00" xmlns="http://www.w3.org/2000/svg" xmlns:xlink="http://www.w3.org/1999/xlink">
<g id="graph1" class="graph" transform="scale(1 1) rotate(0) translate(4 2776)">
<title>G</title>
<polygon fill="white" stroke="white" points="-4,5 -4,-2776 1257,-2776 1257,5 -4,5"/>
<g id="graph2" class="cluster"><title>cluster_Global</title>
<polyline fill="none" stroke="gray" points="234,-368 1232,-368 "/>
<path fill="none" stroke="gray" d="M1232,-368C1238,-368 1244,-374 1244,-380"/>
<polyline fill="none" stroke="gray" points="1244,-380 1244,-2752 "/>
<path fill="none" stroke="gray" d="M1244,-2752C1244,-2758 1238,-2764 1232,-2764"/>
<polyline fill="none" stroke="gray" points="1232,-2764 234,-2764 "/>
<path fill="none" stroke="gray" d="M234,-2764C228,-2764 222,-2758 222,-2752"/>
<polyline fill="none" stroke="gray" points="222,-2752 222,-380 "/>
<path fill="none" stroke="gray" d="M222,-380C222,-374 228,-368 234,-368"/>
<text text-anchor="middle" x="733" y="-2750.1" font-family="Times Roman,serif" font-size="11.00" fill="gray">Global</text>
</g>
<!-- \\AppController -->
<g id="node2" class="node"><title>\\AppController</title>
<polygon fill="none" stroke="black" points="334,-1533 230,-1533 230,-1497 334,-1497 334,-1533"/>
<text text-anchor="middle" x="282" y="-1512.1" font-family="Courier,monospace" font-size="11.00">AppController</text>
</g>
<!-- \\Controller -->
<g id="node60" class="node"><title>\\Controller</title>
<ellipse fill="none" stroke="black" cx="64" cy="-878" rx="63.1385" ry="18.3848"/>
<text text-anchor="middle" x="64" y="-874.4" font-family="Times Roman,serif" font-size="14.00" fill="gray">\Controller</text>
</g>
<!-- \\AppController&#45;&gt;\\Controller -->
<g id="edge3" class="edge"><title>\\AppController&#45;&gt;\\Controller</title>
<path fill="none" stroke="black" d="M229.724,-1509.93C218.663,-1506.6 207.947,-1501.31 200,-1493 116.97,-1406.19 76.2862,-1015.41 66.4191,-906.347"/>
<polygon fill="none" stroke="black" points="69.8827,-905.781 65.5111,-896.13 62.9102,-906.401 69.8827,-905.781"/>
</g>
<!-- \\AppModel -->
<g id="node3" class="node"><title>\\AppModel</title>
<polygon fill="none" stroke="black" points="875,-2410 805,-2410 805,-2374 875,-2374 875,-2410"/>
<text text-anchor="middle" x="840" y="-2389.1" font-family="Courier,monospace" font-size="11.00">AppModel</text>
</g>
<!-- \\NetCommonsAppModel -->
<g id="node48" class="node"><title>\\NetCommonsAppModel</title>
<polygon fill="none" stroke="black" points="612,-1412 474,-1412 474,-1376 612,-1376 612,-1412"/>
<text text-anchor="middle" x="543" y="-1391.1" font-family="Courier,monospace" font-size="11.00">NetCommonsAppModel</text>
</g>
<!-- \\AppModel&#45;&gt;\\NetCommonsAppModel -->
<g id="edge5" class="edge"><title>\\AppModel&#45;&gt;\\NetCommonsAppModel</title>
<path fill="none" stroke="black" d="M804.302,-2393.57C777.898,-2392.7 743.01,-2386.93 722,-2365 587.197,-2224.32 550.655,-1567.81 544.16,-1422.52"/>
<polygon fill="none" stroke="black" points="547.644,-1422.06 543.713,-1412.22 540.65,-1422.36 547.644,-1422.06"/>
</g>
<!-- \\DatabaseConfiguration -->
<g id="node4" class="node"><title>\\DatabaseConfiguration</title>
<polygon fill="none" stroke="black" points="1212,-2410 1054,-2410 1054,-2374 1212,-2374 1212,-2410"/>
<text text-anchor="middle" x="1133" y="-2389.1" font-family="Courier,monospace" font-size="11.00">DatabaseConfiguration</text>
</g>
<!-- \\DatabaseConfiguration&#45;&gt;\\AppModel -->
<g id="edge7" class="edge"><title>\\DatabaseConfiguration&#45;&gt;\\AppModel</title>
<path fill="none" stroke="black" d="M1053.71,-2392C999.937,-2392 930.74,-2392 885.886,-2392"/>
<polygon fill="none" stroke="black" points="885.866,-2388.5 875.866,-2392 885.866,-2395.5 885.866,-2388.5"/>
</g>
<!-- \\AppHelper -->
<g id="node5" class="node"><title>\\AppHelper</title>
<polygon fill="none" stroke="black" points="878,-1627 802,-1627 802,-1591 878,-1591 878,-1627"/>
<text text-anchor="middle" x="840" y="-1606.1" font-family="Courier,monospace" font-size="11.00">AppHelper</text>
</g>
<!-- \\Helper -->
<g id="node64" class="node"><title>\\Helper</title>
<ellipse fill="none" stroke="black" cx="543" cy="-342" rx="43.8406" ry="18.3848"/>
<text text-anchor="middle" x="543" y="-338.4" font-family="Times Roman,serif" font-size="14.00" fill="gray">Helper</text>
</g>
<!-- \\AppHelper&#45;&gt;\\Helper -->
<g id="edge9" class="edge"><title>\\AppHelper&#45;&gt;\\Helper</title>
<path fill="none" stroke="black" d="M832.769,-1590.88C811.635,-1537.06 749.717,-1373.04 722,-1231 684.972,-1041.25 778.267,-508.652 650,-364 636.767,-349.077 616.349,-342.702 596.882,-340.371"/>
<polygon fill="none" stroke="black" points="597.097,-336.876 586.832,-339.496 596.491,-343.85 597.097,-336.876"/>
</g>
<!-- \\NetCommonsDeleteTest -->
<g id="node6" class="node"><title>\\NetCommonsDeleteTest</title>
<polygon fill="none" stroke="black" points="1209,-2518 1057,-2518 1057,-2482 1209,-2482 1209,-2518"/>
<text text-anchor="middle" x="1133" y="-2497.1" font-family="Courier,monospace" font-size="11.00">NetCommonsDeleteTest</text>
</g>
<!-- \\NetCommonsModelTestCase -->
<g id="node15" class="node"><title>\\NetCommonsModelTestCase</title>
<polygon fill="none" stroke="black" points="926,-2572 754,-2572 754,-2536 926,-2536 926,-2572"/>
<text text-anchor="middle" x="840" y="-2551.1" font-family="Courier,monospace" font-size="11.00">NetCommonsModelTestCase</text>
</g>
<!-- \\NetCommonsDeleteTest&#45;&gt;\\NetCommonsModelTestCase -->
<g id="edge11" class="edge"><title>\\NetCommonsDeleteTest&#45;&gt;\\NetCommonsModelTestCase</title>
<path fill="none" stroke="black" d="M1056.78,-2514.05C1019.89,-2520.85 975.211,-2529.08 936.02,-2536.3"/>
<polygon fill="none" stroke="black" points="935.383,-2532.86 926.183,-2538.12 936.652,-2539.75 935.383,-2532.86"/>
</g>
<!-- \\NetCommonsConsoleTestCase -->
<g id="node7" class="node"><title>\\NetCommonsConsoleTestCase</title>
<polygon fill="none" stroke="black" points="932,-2518 748,-2518 748,-2482 932,-2482 932,-2518"/>
<text text-anchor="middle" x="840" y="-2497.1" font-family="Courier,monospace" font-size="11.00">NetCommonsConsoleTestCase</text>
</g>
<!-- \\NetCommonsCakeTestCase -->
<g id="node13" class="node"><title>\\NetCommonsCakeTestCase</title>
<polygon fill="none" stroke="black" points="625,-2545 461,-2545 461,-2509 625,-2509 625,-2545"/>
<text text-anchor="middle" x="543" y="-2524.1" font-family="Courier,monospace" font-size="11.00">NetCommonsCakeTestCase</text>
</g>
<!-- \\NetCommonsConsoleTestCase&#45;&gt;\\NetCommonsCakeTestCase -->
<g id="edge13" class="edge"><title>\\NetCommonsConsoleTestCase&#45;&gt;\\NetCommonsCakeTestCase</title>
<path fill="none" stroke="black" d="M747.249,-2508.43C711.93,-2511.64 671.688,-2515.3 636.316,-2518.52"/>
<polygon fill="none" stroke="black" points="635.635,-2515.06 625.993,-2519.46 636.269,-2522.04 635.635,-2515.06"/>
</g>
<!-- \\NetCommonsGetTest -->
<g id="node8" class="node"><title>\\NetCommonsGetTest</title>
<polygon fill="none" stroke="black" points="1198,-2680 1068,-2680 1068,-2644 1198,-2644 1198,-2680"/>
<text text-anchor="middle" x="1133" y="-2659.1" font-family="Courier,monospace" font-size="11.00">NetCommonsGetTest</text>
</g>
<!-- \\NetCommonsGetTest&#45;&gt;\\NetCommonsModelTestCase -->
<g id="edge15" class="edge"><title>\\NetCommonsGetTest&#45;&gt;\\NetCommonsModelTestCase</title>
<path fill="none" stroke="black" d="M1067.35,-2648.86C1054.63,-2645.2 1041.65,-2640.63 1030,-2635 993.981,-2617.6 994.288,-2597.83 958,-2581 950.962,-2577.74 943.501,-2574.85 935.884,-2572.31"/>
<polygon fill="none" stroke="black" points="936.762,-2568.91 926.173,-2569.26 934.666,-2575.59 936.762,-2568.91"/>
</g>
<!-- \\NetCommonsHelperTestCase -->
<g id="node9" class="node"><title>\\NetCommonsHelperTestCase</title>
<polygon fill="none" stroke="black" points="929,-2626 751,-2626 751,-2590 929,-2590 929,-2626"/>
<text text-anchor="middle" x="840" y="-2605.1" font-family="Courier,monospace" font-size="11.00">NetCommonsHelperTestCase</text>
</g>
<!-- \\NetCommonsHelperTestCase&#45;&gt;\\NetCommonsCakeTestCase -->
<g id="edge17" class="edge"><title>\\NetCommonsHelperTestCase&#45;&gt;\\NetCommonsCakeTestCase</title>
<path fill="none" stroke="black" d="M757.936,-2589.98C745.852,-2587.11 733.579,-2584.07 722,-2581 684.303,-2571.01 642.565,-2558.51 608.882,-2548.05"/>
<polygon fill="none" stroke="black" points="609.742,-2544.65 599.154,-2545.01 607.658,-2551.33 609.742,-2544.65"/>
</g>
<!-- \\NetCommonsControllerBaseTestCase -->
<g id="node10" class="node"><title>\\NetCommonsControllerBaseTestCase</title>
<polygon fill="none" stroke="black" points="956,-1222 724,-1222 724,-1186 956,-1186 956,-1222"/>
<text text-anchor="middle" x="840" y="-1201.1" font-family="Courier,monospace" font-size="11.00">NetCommonsControllerBaseTestCase</text>
</g>
<!-- \\ControllerTestCase -->
<g id="node70" class="node"><title>\\ControllerTestCase</title>
<ellipse fill="none" stroke="black" cx="543" cy="-288" rx="106.773" ry="18.3848"/>
<text text-anchor="middle" x="543" y="-284.4" font-family="Times Roman,serif" font-size="14.00" fill="gray">\ControllerTestCase</text>
</g>
<!-- \\NetCommonsControllerBaseTestCase&#45;&gt;\\ControllerTestCase -->
<g id="edge19" class="edge"><title>\\NetCommonsControllerBaseTestCase&#45;&gt;\\ControllerTestCase</title>
<path fill="none" stroke="black" d="M833.68,-1185.71C814.324,-1129.07 755.166,-951.315 722,-800 698.671,-693.568 723.107,-395.793 650,-315 646.144,-310.738 641.722,-307.104 636.92,-304.01"/>
<polygon fill="none" stroke="black" points="638.347,-300.799 627.906,-299.004 634.948,-306.919 638.347,-300.799"/>
</g>
<!-- \\NetCommonsValidateTest -->
<g id="node11" class="node"><title>\\NetCommonsValidateTest</title>
<polygon fill="none" stroke="black" points="1215,-2626 1051,-2626 1051,-2590 1215,-2590 1215,-2626"/>
<text text-anchor="middle" x="1133" y="-2605.1" font-family="Courier,monospace" font-size="11.00">NetCommonsValidateTest</text>
</g>
<!-- \\NetCommonsValidateTest&#45;&gt;\\NetCommonsModelTestCase -->
<g id="edge21" class="edge"><title>\\NetCommonsValidateTest&#45;&gt;\\NetCommonsModelTestCase</title>
<path fill="none" stroke="black" d="M1050.21,-2592.74C1014.79,-2586.21 973.196,-2578.55 936.397,-2571.77"/>
<polygon fill="none" stroke="black" points="936.623,-2568.25 926.154,-2569.88 935.354,-2575.13 936.623,-2568.25"/>
</g>
<!-- \\NetCommonsTestSuite -->
<g id="node12" class="node"><title>\\NetCommonsTestSuite</title>
<polygon fill="none" stroke="black" points="1205,-1114 1061,-1114 1061,-1078 1205,-1078 1205,-1114"/>
<text text-anchor="middle" x="1133" y="-1093.1" font-family="Courier,monospace" font-size="11.00">NetCommonsTestSuite</text>
</g>
<!-- \\CakeTestSuite -->
<g id="node73" class="node"><title>\\CakeTestSuite</title>
<ellipse fill="none" stroke="black" cx="840" cy="-342" rx="84.1457" ry="18.3848"/>
<text text-anchor="middle" x="840" y="-338.4" font-family="Times Roman,serif" font-size="14.00" fill="gray">\CakeTestSuite</text>
</g>
<!-- \\NetCommonsTestSuite&#45;&gt;\\CakeTestSuite -->
<g id="edge23" class="edge"><title>\\NetCommonsTestSuite&#45;&gt;\\CakeTestSuite</title>
<path fill="none" stroke="black" d="M1060.38,-1088.87C1048.79,-1084.65 1038,-1078.34 1030,-1069 927.575,-949.377 1064.67,-479.856 958,-364 951.119,-356.526 942.58,-351.101 933.263,-347.215"/>
<polygon fill="none" stroke="black" points="934.315,-343.875 923.72,-343.824 931.97,-350.47 934.315,-343.875"/>
</g>
<!-- \\CakeTestCase -->
<g id="node75" class="node"><title>\\CakeTestCase</title>
<ellipse fill="none" stroke="black" cx="282" cy="-342" rx="82.0244" ry="18.3848"/>
<text text-anchor="middle" x="282" y="-338.4" font-family="Times Roman,serif" font-size="14.00" fill="gray">\CakeTestCase</text>
</g>
<!-- \\NetCommonsCakeTestCase&#45;&gt;\\CakeTestCase -->
<g id="edge25" class="edge"><title>\\NetCommonsCakeTestCase&#45;&gt;\\CakeTestCase</title>
<path fill="none" stroke="black" d="M541.041,-2508.78C529.772,-2403.57 472.443,-1863.19 436,-1421 426.331,-1303.68 438.781,-454.912 364,-364 362.279,-361.908 360.383,-360.004 358.346,-358.27"/>
<polygon fill="none" stroke="black" points="360.073,-355.208 349.858,-352.395 356.089,-360.964 360.073,-355.208"/>
</g>
<!-- \\NetCommonsSaveTest -->
<g id="node14" class="node"><title>\\NetCommonsSaveTest</title>
<polygon fill="none" stroke="black" points="1202,-2572 1064,-2572 1064,-2536 1202,-2536 1202,-2572"/>
<text text-anchor="middle" x="1133" y="-2551.1" font-family="Courier,monospace" font-size="11.00">NetCommonsSaveTest</text>
</g>
<!-- \\NetCommonsSaveTest&#45;&gt;\\NetCommonsModelTestCase -->
<g id="edge27" class="edge"><title>\\NetCommonsSaveTest&#45;&gt;\\NetCommonsModelTestCase</title>
<path fill="none" stroke="black" d="M1063.93,-2554C1025.88,-2554 978.032,-2554 936.349,-2554"/>
<polygon fill="none" stroke="black" points="936.173,-2550.5 926.172,-2554 936.172,-2557.5 936.173,-2550.5"/>
</g>
<!-- \\NetCommonsModelTestCase&#45;&gt;\\NetCommonsCakeTestCase -->
<g id="edge29" class="edge"><title>\\NetCommonsModelTestCase&#45;&gt;\\NetCommonsCakeTestCase</title>
<path fill="none" stroke="black" d="M753.696,-2546.15C716.671,-2542.79 673.35,-2538.85 635.65,-2535.42"/>
<polygon fill="none" stroke="black" points="635.962,-2531.94 625.686,-2534.52 635.328,-2538.91 635.962,-2531.94"/>
</g>
<!-- \\NetCommonsControllerTestCase -->
<g id="node16" class="node"><title>\\NetCommonsControllerTestCase</title>
<polygon fill="none" stroke="black" points="1236,-1222 1030,-1222 1030,-1186 1236,-1186 1236,-1222"/>
<text text-anchor="middle" x="1133" y="-1201.1" font-family="Courier,monospace" font-size="11.00">NetCommonsControllerTestCase</text>
</g>
<!-- \\NetCommonsControllerTestCase&#45;&gt;\\NetCommonsControllerBaseTestCase -->
<g id="edge31" class="edge"><title>\\NetCommonsControllerTestCase&#45;&gt;\\NetCommonsControllerBaseTestCase</title>
<path fill="none" stroke="black" d="M1029.7,-1204C1009.38,-1204 987.845,-1204 966.858,-1204"/>
<polygon fill="none" stroke="black" points="966.606,-1200.5 956.606,-1204 966.606,-1207.5 966.606,-1200.5"/>
</g>
<!-- \\NetCommonsAppController -->
<g id="node17" class="node"><title>\\NetCommonsAppController</title>
<polygon fill="none" stroke="black" points="926,-791 754,-791 754,-755 926,-755 926,-791"/>
<text text-anchor="middle" x="840" y="-770.1" font-family="Courier,monospace" font-size="11.00">NetCommonsAppController</text>
</g>
<!-- \\NetCommonsAppController&#45;&gt;\\Controller -->
<g id="edge33" class="edge"><title>\\NetCommonsAppController&#45;&gt;\\Controller</title>
<path fill="none" stroke="black" d="M753.951,-770C741.943,-766.104 730.742,-760.085 722,-751 569.374,-592.393 816.576,-404.888 650,-261 498.648,-130.262 355.901,-135.721 200,-261 105.771,-336.721 72.9856,-739.426 65.6911,-849.932"/>
<polygon fill="none" stroke="black" points="62.1942,-849.772 65.0458,-859.976 69.1798,-850.221 62.1942,-849.772"/>
</g>
<!-- \\AssetComponent -->
<g id="node18" class="node"><title>\\AssetComponent</title>
<polygon fill="none" stroke="black" points="1188,-952 1078,-952 1078,-916 1188,-916 1188,-952"/>
<text text-anchor="middle" x="1133" y="-931.1" font-family="Courier,monospace" font-size="11.00">AssetComponent</text>
</g>
<!-- \\Component -->
<g id="node81" class="node"><title>\\Component</title>
<ellipse fill="none" stroke="black" cx="840" cy="-288" rx="70.9184" ry="18.3848"/>
<text text-anchor="middle" x="840" y="-284.4" font-family="Times Roman,serif" font-size="14.00" fill="gray">\Component</text>
</g>
<!-- \\AssetComponent&#45;&gt;\\Component -->
<g id="edge35" class="edge"><title>\\AssetComponent&#45;&gt;\\Component</title>
<path fill="none" stroke="black" d="M1077.34,-931.436C1059.8,-927.802 1041.91,-920.647 1030,-907 855.683,-707.337 1135.43,-511.899 958,-315 948.227,-304.155 935.069,-297.207 921.082,-292.841"/>
<polygon fill="none" stroke="black" points="921.864,-289.426 911.298,-290.214 920.049,-296.187 921.864,-289.426"/>
</g>
<!-- \\NetCommonsTimeComponent -->
<g id="node19" class="node"><title>\\NetCommonsTimeComponent</title>
<polygon fill="none" stroke="black" points="1219,-898 1047,-898 1047,-862 1219,-862 1219,-898"/>
<text text-anchor="middle" x="1133" y="-877.1" font-family="Courier,monospace" font-size="11.00">NetCommonsTimeComponent</text>
</g>
<!-- \\NetCommonsTimeComponent&#45;&gt;\\Component -->
<g id="edge37" class="edge"><title>\\NetCommonsTimeComponent&#45;&gt;\\Component</title>
<path fill="none" stroke="black" d="M1046.73,-866.334C1040.48,-862.785 1034.77,-858.402 1030,-853 870.252,-672.227 1120.57,-493.24 958,-315 948.162,-304.213 934.974,-297.293 920.979,-292.934"/>
<polygon fill="none" stroke="black" points="921.757,-289.519 911.192,-290.31 919.944,-296.281 921.757,-289.519"/>
</g>
<!-- \\PermissionComponent -->
<g id="node20" class="node"><title>\\PermissionComponent</title>
<polygon fill="none" stroke="black" points="1205,-1060 1061,-1060 1061,-1024 1205,-1024 1205,-1060"/>
<text text-anchor="middle" x="1133" y="-1039.1" font-family="Courier,monospace" font-size="11.00">PermissionComponent</text>
</g>
<!-- \\PermissionComponent&#45;&gt;\\Component -->
<g id="edge39" class="edge"><title>\\PermissionComponent&#45;&gt;\\Component</title>
<path fill="none" stroke="black" d="M1060.39,-1034.86C1048.79,-1030.64 1038,-1024.34 1030,-1015 826.502,-777.507 1165.2,-549.266 958,-315 948.271,-304.001 935.062,-296.994 920.998,-292.62"/>
<polygon fill="none" stroke="black" points="921.72,-289.191 911.156,-289.996 919.917,-295.955 921.72,-289.191"/>
</g>
<!-- \\NetCommonsComponent -->
<g id="node21" class="node"><title>\\NetCommonsComponent</title>
<polygon fill="none" stroke="black" points="1205,-1006 1061,-1006 1061,-970 1205,-970 1205,-1006"/>
<text text-anchor="middle" x="1133" y="-985.1" font-family="Courier,monospace" font-size="11.00">NetCommonsComponent</text>
</g>
<!-- \\NetCommonsComponent&#45;&gt;\\Component -->
<g id="edge41" class="edge"><title>\\NetCommonsComponent&#45;&gt;\\Component</title>
<path fill="none" stroke="black" d="M1060.45,-980.809C1048.85,-976.592 1038.04,-970.301 1030,-961 841.099,-742.429 1150.31,-530.576 958,-315 948.225,-304.042 934.994,-297.054 920.924,-292.686"/>
<polygon fill="none" stroke="black" points="921.644,-289.256 911.08,-290.064 919.842,-296.02 921.644,-289.256"/>
</g>
<!-- \\NetCommonsController -->
<g id="node22" class="node"><title>\\NetCommonsController</title>
<polygon fill="none" stroke="black" points="1209,-1168 1057,-1168 1057,-1132 1209,-1132 1209,-1168"/>
<text text-anchor="middle" x="1133" y="-1147.1" font-family="Courier,monospace" font-size="11.00">NetCommonsController</text>
</g>
<!-- \\NetCommonsController&#45;&gt;\\NetCommonsAppController -->
<g id="edge43" class="edge"><title>\\NetCommonsController&#45;&gt;\\NetCommonsAppController</title>
<path fill="none" stroke="black" d="M1056.75,-1137.7C1047.15,-1134.01 1037.93,-1129.22 1030,-1123 919.731,-1036.55 864.977,-867.634 846.947,-800.995"/>
<polygon fill="none" stroke="black" points="850.3,-799.983 844.366,-791.206 843.532,-801.768 850.3,-799.983"/>
</g>
<!-- \\NetCommonsUrl -->
<g id="node23" class="node"><title>\\NetCommonsUrl</title>
<polygon fill="none" stroke="black" points="1185,-2086 1081,-2086 1081,-2050 1185,-2050 1185,-2086"/>
<text text-anchor="middle" x="1133" y="-2065.1" font-family="Courier,monospace" font-size="11.00">NetCommonsUrl</text>
</g>
<!-- \\NetCommonsTime -->
<g id="node24" class="node"><title>\\NetCommonsTime</title>
<polygon fill="none" stroke="black" points="1188,-2032 1078,-2032 1078,-1996 1188,-1996 1188,-2032"/>
<text text-anchor="middle" x="1133" y="-2011.1" font-family="Courier,monospace" font-size="11.00">NetCommonsTime</text>
</g>
<!-- \\CurrentBase -->
<g id="node25" class="node"><title>\\CurrentBase</title>
<polygon fill="none" stroke="black" points="885,-2356 795,-2356 795,-2320 885,-2320 885,-2356"/>
<text text-anchor="middle" x="840" y="-2335.1" font-family="Courier,monospace" font-size="11.00">CurrentBase</text>
</g>
<!-- \\Current -->
<g id="node26" class="node"><title>\\Current</title>
<polygon fill="none" stroke="black" points="1165,-2356 1101,-2356 1101,-2320 1165,-2320 1165,-2356"/>
<text text-anchor="middle" x="1133" y="-2335.1" font-family="Courier,monospace" font-size="11.00">Current</text>
</g>
<!-- \\Current&#45;&gt;\\CurrentBase -->
<g id="edge45" class="edge"><title>\\Current&#45;&gt;\\CurrentBase</title>
<path fill="none" stroke="black" d="M1100.81,-2338C1051.48,-2338 956.554,-2338 895.846,-2338"/>
<polygon fill="none" stroke="black" points="895.669,-2334.5 885.669,-2338 895.669,-2341.5 895.669,-2334.5"/>
</g>
<!-- \\CurrentSystem -->
<g id="node27" class="node"><title>\\CurrentSystem</title>
<polygon fill="none" stroke="black" points="1185,-1924 1081,-1924 1081,-1888 1185,-1888 1185,-1924"/>
<text text-anchor="middle" x="1133" y="-1903.1" font-family="Courier,monospace" font-size="11.00">CurrentSystem</text>
</g>
<!-- \\CurrentPage -->
<g id="node28" class="node"><title>\\CurrentPage</title>
<polygon fill="none" stroke="black" points="1178,-1870 1088,-1870 1088,-1834 1178,-1834 1178,-1870"/>
<text text-anchor="middle" x="1133" y="-1849.1" font-family="Courier,monospace" font-size="11.00">CurrentPage</text>
</g>
<!-- \\CurrentFrame -->
<g id="node29" class="node"><title>\\CurrentFrame</title>
<polygon fill="none" stroke="black" points="1182,-1816 1084,-1816 1084,-1780 1182,-1780 1182,-1816"/>
<text text-anchor="middle" x="1133" y="-1795.1" font-family="Courier,monospace" font-size="11.00">CurrentFrame</text>
</g>
<!-- \\TokenHelper -->
<g id="node30" class="node"><title>\\TokenHelper</title>
<polygon fill="none" stroke="black" points="1178,-736 1088,-736 1088,-700 1178,-700 1178,-736"/>
<text text-anchor="middle" x="1133" y="-715.1" font-family="Courier,monospace" font-size="11.00">TokenHelper</text>
</g>
<!-- \\FormHelper -->
<g id="node88" class="node"><title>\\FormHelper</title>
<ellipse fill="none" stroke="black" cx="840" cy="-234" rx="70.9184" ry="18.3848"/>
<text text-anchor="middle" x="840" y="-230.4" font-family="Times Roman,serif" font-size="14.00" fill="gray">\FormHelper</text>
</g>
<!-- \\TokenHelper&#45;&gt;\\FormHelper -->
<g id="edge47" class="edge"><title>\\TokenHelper&#45;&gt;\\FormHelper</title>
<path fill="none" stroke="black" d="M1087.25,-716.813C1066.97,-713.861 1044.46,-706.833 1030,-691 899.318,-547.927 1090.91,-402.002 958,-261 947.986,-250.377 934.718,-243.531 920.698,-239.194"/>
<polygon fill="none" stroke="black" points="921.468,-235.777 910.904,-236.577 919.661,-242.54 921.468,-235.777"/>
</g>
<!-- \\SingletonViewBlockHtmlHelper -->
<g id="node31" class="node"><title>\\SingletonViewBlockHtmlHelper</title>
<polygon fill="none" stroke="black" points="1236,-682 1030,-682 1030,-646 1236,-646 1236,-682"/>
<text text-anchor="middle" x="1133" y="-661.1" font-family="Courier,monospace" font-size="11.00">SingletonViewBlockHtmlHelper</text>
</g>
<!-- \\HtmlHelper -->
<g id="node90" class="node"><title>\\HtmlHelper</title>
<ellipse fill="none" stroke="black" cx="840" cy="-180" rx="67.1751" ry="18.3848"/>
<text text-anchor="middle" x="840" y="-176.4" font-family="Times Roman,serif" font-size="14.00" fill="gray">HtmlHelper</text>
</g>
<!-- \\SingletonViewBlockHtmlHelper&#45;&gt;\\HtmlHelper -->
<g id="edge49" class="edge"><title>\\SingletonViewBlockHtmlHelper&#45;&gt;\\HtmlHelper</title>
<path fill="none" stroke="black" d="M1039.92,-645.739C1036.33,-643.175 1032.99,-640.276 1030,-637 899.318,-493.927 1090.91,-348.002 958,-207 947.121,-195.459 932.401,-188.376 917.051,-184.126"/>
<polygon fill="none" stroke="black" points="917.444,-180.622 906.906,-181.723 915.83,-187.434 917.444,-180.622"/>
</g>
<!-- \\FormInputHelper -->
<g id="node32" class="node"><title>\\FormInputHelper</title>
<polygon fill="none" stroke="black" points="1192,-1330 1074,-1330 1074,-1294 1192,-1294 1192,-1330"/>
<text text-anchor="middle" x="1133" y="-1309.1" font-family="Courier,monospace" font-size="11.00">FormInputHelper</text>
</g>
<!-- \\FormInputHelper&#45;&gt;\\AppHelper -->
<g id="edge51" class="edge"><title>\\FormInputHelper&#45;&gt;\\AppHelper</title>
<path fill="none" stroke="black" d="M1073.8,-1320.05C1058.6,-1324.05 1042.91,-1330.04 1030,-1339 938.034,-1402.86 875.79,-1526.47 851.457,-1581.46"/>
<polygon fill="none" stroke="black" points="848.13,-1580.34 847.356,-1590.9 854.551,-1583.13 848.13,-1580.34"/>
</g>
<!-- \\WizardHelper -->
<g id="node33" class="node"><title>\\WizardHelper</title>
<polygon fill="none" stroke="black" points="1182,-1276 1084,-1276 1084,-1240 1182,-1240 1182,-1276"/>
<text text-anchor="middle" x="1133" y="-1255.1" font-family="Courier,monospace" font-size="11.00">WizardHelper</text>
</g>
<!-- \\WizardHelper&#45;&gt;\\AppHelper -->
<g id="edge53" class="edge"><title>\\WizardHelper&#45;&gt;\\AppHelper</title>
<path fill="none" stroke="black" d="M1083.92,-1262.86C1065.58,-1266.63 1045.47,-1273.28 1030,-1285 925.624,-1364.08 868.084,-1518.47 848.129,-1581.35"/>
<polygon fill="none" stroke="black" points="844.764,-1580.39 845.144,-1590.97 851.45,-1582.46 844.764,-1580.39"/>
</g>
<!-- \\DisplayNumberHelper -->
<g id="node34" class="node"><title>\\DisplayNumberHelper</title>
<polygon fill="none" stroke="black" points="1205,-2302 1061,-2302 1061,-2266 1205,-2266 1205,-2302"/>
<text text-anchor="middle" x="1133" y="-2281.1" font-family="Courier,monospace" font-size="11.00">DisplayNumberHelper</text>
</g>
<!-- \\DisplayNumberHelper&#45;&gt;\\AppHelper -->
<g id="edge55" class="edge"><title>\\DisplayNumberHelper&#45;&gt;\\AppHelper</title>
<path fill="none" stroke="black" d="M1060.41,-2275.13C1049.17,-2271.05 1038.49,-2265.24 1030,-2257 937.138,-2166.78 863.079,-1749.86 844.505,-1637.15"/>
<polygon fill="none" stroke="black" points="847.948,-1636.52 842.881,-1627.22 841.039,-1637.65 847.948,-1636.52"/>
</g>
<!-- \\MessageFlashHelper -->
<g id="node35" class="node"><title>\\MessageFlashHelper</title>
<polygon fill="none" stroke="black" points="1202,-2248 1064,-2248 1064,-2212 1202,-2212 1202,-2248"/>
<text text-anchor="middle" x="1133" y="-2227.1" font-family="Courier,monospace" font-size="11.00">MessageFlashHelper</text>
</g>
<!-- \\MessageFlashHelper&#45;&gt;\\AppHelper -->
<g id="edge57" class="edge"><title>\\MessageFlashHelper&#45;&gt;\\AppHelper</title>
<path fill="none" stroke="black" d="M1063.76,-2222.05C1051.35,-2217.96 1039.39,-2211.9 1030,-2203 943.879,-2121.34 865.926,-1743.95 845.305,-1637.2"/>
<polygon fill="none" stroke="black" points="848.705,-1636.35 843.386,-1627.18 841.83,-1637.66 848.705,-1636.35"/>
</g>
<!-- \\DateHelper -->
<g id="node36" class="node"><title>\\DateHelper</title>
<polygon fill="none" stroke="black" points="1175,-2194 1091,-2194 1091,-2158 1175,-2158 1175,-2194"/>
<text text-anchor="middle" x="1133" y="-2173.1" font-family="Courier,monospace" font-size="11.00">DateHelper</text>
</g>
<!-- \\DateHelper&#45;&gt;\\AppHelper -->
<g id="edge59" class="edge"><title>\\DateHelper&#45;&gt;\\AppHelper</title>
<path fill="none" stroke="black" d="M1090.75,-2174C1070.16,-2170.96 1046.38,-2164.09 1030,-2149 874.226,-2005.5 846.135,-1726.7 841.095,-1637.31"/>
<polygon fill="none" stroke="black" points="844.581,-1636.94 840.577,-1627.13 837.59,-1637.3 844.581,-1636.94"/>
</g>
<!-- \\SnsButtonHelper -->
<g id="node37" class="node"><title>\\SnsButtonHelper</title>
<polygon fill="none" stroke="black" points="1192,-2140 1074,-2140 1074,-2104 1192,-2104 1192,-2140"/>
<text text-anchor="middle" x="1133" y="-2119.1" font-family="Courier,monospace" font-size="11.00">SnsButtonHelper</text>
</g>
<!-- \\SnsButtonHelper&#45;&gt;\\AppHelper -->
<g id="edge61" class="edge"><title>\\SnsButtonHelper&#45;&gt;\\AppHelper</title>
<path fill="none" stroke="black" d="M1073.85,-2116.35C1058.12,-2112.39 1042.15,-2105.82 1030,-2095 887.368,-1968.06 850.808,-1720.73 842.341,-1637.27"/>
<polygon fill="none" stroke="black" points="845.82,-1636.89 841.383,-1627.27 838.852,-1637.56 845.82,-1636.89"/>
</g>
<!-- \\BackToHelper -->
<g id="node38" class="node"><title>\\BackToHelper</title>
<polygon fill="none" stroke="black" points="1182,-1978 1084,-1978 1084,-1942 1182,-1942 1182,-1978"/>
<text text-anchor="middle" x="1133" y="-1957.1" font-family="Courier,monospace" font-size="11.00">BackToHelper</text>
</g>
<!-- \\BackToHelper&#45;&gt;\\AppHelper -->
<g id="edge63" class="edge"><title>\\BackToHelper&#45;&gt;\\AppHelper</title>
<path fill="none" stroke="black" d="M1083.92,-1955.14C1065.58,-1951.37 1045.47,-1944.72 1030,-1933 925.624,-1853.92 868.084,-1699.53 848.129,-1636.65"/>
<polygon fill="none" stroke="black" points="851.45,-1635.54 845.144,-1627.03 844.764,-1637.61 851.45,-1635.54"/>
</g>
<!-- \\NetCommonsHtmlHelper -->
<g id="node39" class="node"><title>\\NetCommonsHtmlHelper</title>
<polygon fill="none" stroke="black" points="1209,-1762 1057,-1762 1057,-1726 1209,-1726 1209,-1762"/>
<text text-anchor="middle" x="1133" y="-1741.1" font-family="Courier,monospace" font-size="11.00">NetCommonsHtmlHelper</text>
</g>
<!-- \\NetCommonsHtmlHelper&#45;&gt;\\AppHelper -->
<g id="edge65" class="edge"><title>\\NetCommonsHtmlHelper&#45;&gt;\\AppHelper</title>
<path fill="none" stroke="black" d="M1056.88,-1726.46C1047.71,-1723.64 1038.56,-1720.49 1030,-1717 973.066,-1693.82 912.097,-1656.73 875.004,-1632.61"/>
<polygon fill="none" stroke="black" points="876.839,-1629.63 866.557,-1627.07 873.002,-1635.48 876.839,-1629.63"/>
</g>
<!-- \\ButtonHelper -->
<g id="node40" class="node"><title>\\ButtonHelper</title>
<polygon fill="none" stroke="black" points="1182,-844 1084,-844 1084,-808 1182,-808 1182,-844"/>
<text text-anchor="middle" x="1133" y="-823.1" font-family="Courier,monospace" font-size="11.00">ButtonHelper</text>
</g>
<!-- \\ButtonHelper&#45;&gt;\\FormHelper -->
<g id="edge67" class="edge"><title>\\ButtonHelper&#45;&gt;\\FormHelper</title>
<path fill="none" stroke="black" d="M1083.85,-824.539C1064.38,-821.365 1043.47,-814.238 1030,-799 870.252,-618.227 1120.57,-439.24 958,-261 948.162,-250.213 934.974,-243.293 920.979,-238.934"/>
<polygon fill="none" stroke="black" points="921.757,-235.519 911.192,-236.31 919.944,-242.281 921.757,-235.519"/>
</g>
<!-- \\ComposerHelper -->
<g id="node41" class="node"><title>\\ComposerHelper</title>
<polygon fill="none" stroke="black" points="1188,-1708 1078,-1708 1078,-1672 1188,-1672 1188,-1708"/>
<text text-anchor="middle" x="1133" y="-1687.1" font-family="Courier,monospace" font-size="11.00">ComposerHelper</text>
</g>
<!-- \\ComposerHelper&#45;&gt;\\AppHelper -->
<g id="edge69" class="edge"><title>\\ComposerHelper&#45;&gt;\\AppHelper</title>
<path fill="none" stroke="black" d="M1077.35,-1675.64C1061.99,-1671.61 1045.34,-1667.19 1030,-1663 981.716,-1649.81 926.728,-1634.11 888.375,-1623.04"/>
<polygon fill="none" stroke="black" points="889.087,-1619.61 878.508,-1620.2 887.145,-1626.33 889.087,-1619.61"/>
</g>
<!-- \\LinkButtonHelper -->
<g id="node42" class="node"><title>\\LinkButtonHelper</title>
<polygon fill="none" stroke="black" points="1195,-790 1071,-790 1071,-754 1195,-754 1195,-790"/>
<text text-anchor="middle" x="1133" y="-769.1" font-family="Courier,monospace" font-size="11.00">LinkButtonHelper</text>
</g>
<!-- \\LinkButtonHelper&#45;&gt;\\FormHelper -->
<g id="edge71" class="edge"><title>\\LinkButtonHelper&#45;&gt;\\FormHelper</title>
<path fill="none" stroke="black" d="M1070.3,-767.541C1055.2,-763.523 1040.43,-756.629 1030,-745 884.8,-583.094 1105.73,-420.605 958,-261 948.083,-250.286 934.859,-243.398 920.853,-239.049"/>
<polygon fill="none" stroke="black" points="921.628,-235.634 911.063,-236.429 919.818,-242.396 921.628,-235.634"/>
</g>
<!-- \\TableListHelper -->
<g id="node43" class="node"><title>\\TableListHelper</title>
<polygon fill="none" stroke="black" points="1192,-1654 1074,-1654 1074,-1618 1192,-1618 1192,-1654"/>
<text text-anchor="middle" x="1133" y="-1633.1" font-family="Courier,monospace" font-size="11.00">TableListHelper</text>
</g>
<!-- \\TableListHelper&#45;&gt;\\AppHelper -->
<g id="edge73" class="edge"><title>\\TableListHelper&#45;&gt;\\AppHelper</title>
<path fill="none" stroke="black" d="M1073.71,-1630.54C1019.27,-1625.52 939.563,-1618.17 888.738,-1613.49"/>
<polygon fill="none" stroke="black" points="888.942,-1610 878.663,-1612.56 888.299,-1616.97 888.942,-1610"/>
</g>
<!-- \\NetCommonsTimeHelper -->
<g id="node44" class="node"><title>\\NetCommonsTimeHelper</title>
<polygon fill="none" stroke="black" points="1209,-1600 1057,-1600 1057,-1564 1209,-1564 1209,-1600"/>
<text text-anchor="middle" x="1133" y="-1579.1" font-family="Courier,monospace" font-size="11.00">NetCommonsTimeHelper</text>
</g>
<!-- \\NetCommonsTimeHelper&#45;&gt;\\AppHelper -->
<g id="edge75" class="edge"><title>\\NetCommonsTimeHelper&#45;&gt;\\AppHelper</title>
<path fill="none" stroke="black" d="M1056.78,-1589.02C1003.66,-1593.92 934.376,-1600.3 888.603,-1604.52"/>
<polygon fill="none" stroke="black" points="888.274,-1601.04 878.638,-1605.44 888.917,-1608.01 888.274,-1601.04"/>
</g>
<!-- \\NetCommonsFormHelper -->
<g id="node45" class="node"><title>\\NetCommonsFormHelper</title>
<polygon fill="none" stroke="black" points="1209,-1546 1057,-1546 1057,-1510 1209,-1510 1209,-1546"/>
<text text-anchor="middle" x="1133" y="-1525.1" font-family="Courier,monospace" font-size="11.00">NetCommonsFormHelper</text>
</g>
<!-- \\NetCommonsFormHelper&#45;&gt;\\AppHelper -->
<g id="edge77" class="edge"><title>\\NetCommonsFormHelper&#45;&gt;\\AppHelper</title>
<path fill="none" stroke="black" d="M1063.41,-1546.03C1052.23,-1548.99 1040.79,-1552.05 1030,-1555 981.716,-1568.19 926.728,-1583.89 888.375,-1594.96"/>
<polygon fill="none" stroke="black" points="887.145,-1591.67 878.508,-1597.8 889.087,-1598.39 887.145,-1591.67"/>
</g>
<!-- \\TitleIconHelper -->
<g id="node46" class="node"><title>\\TitleIconHelper</title>
<polygon fill="none" stroke="black" points="1192,-1492 1074,-1492 1074,-1456 1192,-1456 1192,-1492"/>
<text text-anchor="middle" x="1133" y="-1471.1" font-family="Courier,monospace" font-size="11.00">TitleIconHelper</text>
</g>
<!-- \\TitleIconHelper&#45;&gt;\\AppHelper -->
<g id="edge79" class="edge"><title>\\TitleIconHelper&#45;&gt;\\AppHelper</title>
<path fill="none" stroke="black" d="M1073.85,-1486.69C1059.27,-1490.58 1043.87,-1495.35 1030,-1501 973.066,-1524.18 912.097,-1561.27 875.004,-1585.39"/>
<polygon fill="none" stroke="black" points="873.002,-1582.52 866.557,-1590.93 876.839,-1588.37 873.002,-1582.52"/>
</g>
<!-- \\DatetimePickerHelper -->
<g id="node47" class="node"><title>\\DatetimePickerHelper</title>
<polygon fill="none" stroke="black" points="1209,-1438 1057,-1438 1057,-1402 1209,-1402 1209,-1438"/>
<text text-anchor="middle" x="1133" y="-1417.1" font-family="Courier,monospace" font-size="11.00">DatetimePickerHelper</text>
</g>
<!-- \\DatetimePickerHelper&#45;&gt;\\AppHelper -->
<g id="edge81" class="edge"><title>\\DatetimePickerHelper&#45;&gt;\\AppHelper</title>
<path fill="none" stroke="black" d="M1056.98,-1435.73C1047.65,-1438.87 1038.44,-1442.59 1030,-1447 961.41,-1482.81 896.097,-1547.44 862.838,-1583.3"/>
<polygon fill="none" stroke="black" points="860.033,-1581.17 855.854,-1590.91 865.192,-1585.91 860.033,-1581.17"/>
</g>
<!-- \\Model -->
<g id="node108" class="node"><title>\\Model</title>
<ellipse fill="none" stroke="black" cx="282" cy="-288" rx="43.8406" ry="18.3848"/>
<text text-anchor="middle" x="282" y="-284.4" font-family="Times Roman,serif" font-size="14.00" fill="gray">\Model</text>
</g>
<!-- \\NetCommonsAppModel&#45;&gt;\\Model -->
<g id="edge83" class="edge"><title>\\NetCommonsAppModel&#45;&gt;\\Model</title>
<path fill="none" stroke="black" d="M473.862,-1393.04C459.467,-1389.53 445.732,-1383.14 436,-1372 281.111,-1194.69 508.415,-500.938 364,-315 356.602,-305.475 345.753,-299.27 334.353,-295.239"/>
<polygon fill="none" stroke="black" points="335.296,-291.868 324.712,-292.34 333.28,-298.572 335.296,-291.868"/>
</g>
<!-- \\OriginalKeyBehavior -->
<g id="node49" class="node"><title>\\OriginalKeyBehavior</title>
<polygon fill="none" stroke="black" points="1205,-520 1061,-520 1061,-484 1205,-484 1205,-520"/>
<text text-anchor="middle" x="1133" y="-499.1" font-family="Courier,monospace" font-size="11.00">OriginalKeyBehavior</text>
</g>
<!-- \\ModelBehavior -->
<g id="node110" class="node"><title>\\ModelBehavior</title>
<ellipse fill="none" stroke="black" cx="840" cy="-126" rx="86.9741" ry="18.3848"/>
<text text-anchor="middle" x="840" y="-122.4" font-family="Times Roman,serif" font-size="14.00" fill="gray">\ModelBehavior</text>
</g>
<!-- \\OriginalKeyBehavior&#45;&gt;\\ModelBehavior -->
<g id="edge85" class="edge"><title>\\OriginalKeyBehavior&#45;&gt;\\ModelBehavior</title>
<path fill="none" stroke="black" d="M1060.48,-493.783C1049.09,-489.648 1038.34,-483.65 1030,-475 928.21,-369.437 1061.44,-256.95 958,-153 950.53,-145.493 941.428,-139.895 931.627,-135.745"/>
<polygon fill="none" stroke="black" points="932.638,-132.388 922.045,-132.196 930.207,-138.952 932.638,-132.388"/>
</g>
<!-- \\TrackableBehavior -->
<g id="node50" class="node"><title>\\TrackableBehavior</title>
<polygon fill="none" stroke="black" points="1198,-628 1068,-628 1068,-592 1198,-592 1198,-628"/>
<text text-anchor="middle" x="1133" y="-607.1" font-family="Courier,monospace" font-size="11.00">TrackableBehavior</text>
</g>
<!-- \\TrackableBehavior&#45;&gt;\\ModelBehavior -->
<g id="edge87" class="edge"><title>\\TrackableBehavior&#45;&gt;\\ModelBehavior</title>
<path fill="none" stroke="black" d="M1067.5,-604.591C1053.43,-600.482 1039.85,-593.783 1030,-583 899.318,-439.927 1090.91,-294.002 958,-153 950.736,-145.293 941.758,-139.575 932.025,-135.36"/>
<polygon fill="none" stroke="black" points="933.083,-132.019 922.491,-131.764 930.613,-138.568 933.083,-132.019"/>
</g>
<!-- \\YAExceptionRenderer -->
<g id="node51" class="node"><title>\\YAExceptionRenderer</title>
<polygon fill="none" stroke="black" points="1205,-466 1061,-466 1061,-430 1205,-430 1205,-466"/>
<text text-anchor="middle" x="1133" y="-445.1" font-family="Courier,monospace" font-size="11.00">YAExceptionRenderer</text>
</g>
<!-- \\ExceptionRenderer -->
<g id="node113" class="node"><title>\\ExceptionRenderer</title>
<ellipse fill="none" stroke="black" cx="840" cy="-72" rx="118.087" ry="18.3848"/>
<text text-anchor="middle" x="840" y="-68.4" font-family="Times Roman,serif" font-size="14.00" fill="gray">TEHxceptionRenderer</text>
</g>
<!-- \\YAExceptionRenderer&#45;&gt;\\ExceptionRenderer -->
<g id="edge89" class="edge"><title>\\YAExceptionRenderer&#45;&gt;\\ExceptionRenderer</title>
<path fill="none" stroke="black" d="M1060.48,-439.783C1049.09,-435.648 1038.34,-429.65 1030,-421 928.21,-315.437 1061.44,-202.95 958,-99 953.632,-94.61 948.706,-90.873 943.408,-87.6967"/>
<polygon fill="none" stroke="black" points="944.657,-84.4002 934.174,-82.8643 941.411,-90.6022 944.657,-84.4002"/>
</g>
<!-- \\NetCommonsMigration -->
<g id="node52" class="node"><title>\\NetCommonsMigration</title>
<polygon fill="none" stroke="black" points="1205,-412 1061,-412 1061,-376 1205,-376 1205,-412"/>
<text text-anchor="middle" x="1133" y="-391.1" font-family="Courier,monospace" font-size="11.00">NetCommonsMigration</text>
</g>
<!-- \\CakeMigration -->
<g id="node115" class="node"><title>\\CakeMigration</title>
<ellipse fill="none" stroke="black" cx="840" cy="-18" rx="84.8528" ry="18.3848"/>
<text text-anchor="middle" x="840" y="-14.4" font-family="Times Roman,serif" font-size="14.00" fill="gray">\CakeMigration</text>
</g>
<!-- \\NetCommonsMigration&#45;&gt;\\CakeMigration -->
<g id="edge91" class="edge"><title>\\NetCommonsMigration&#45;&gt;\\CakeMigration</title>
<path fill="none" stroke="black" d="M1129.54,-375.725C1117.51,-317.407 1071.83,-134.35 958,-45 948.922,-37.8745 938.309,-32.5637 927.237,-28.6167"/>
<polygon fill="none" stroke="black" points="928.007,-25.1887 917.416,-25.488 925.882,-31.8584 928.007,-25.1887"/>
</g>
<!-- \\FileController -->
<g id="node53" class="node"><title>\\FileController</title>
<polygon fill="none" stroke="black" points="895,-2707 785,-2707 785,-2671 895,-2671 895,-2707"/>
<text text-anchor="middle" x="840" y="-2686.1" font-family="Courier,monospace" font-size="11.00">FileController</text>
</g>
<!-- \\WysiwygAppController -->
<g id="node54" class="node"><title>\\WysiwygAppController</title>
<polygon fill="none" stroke="black" points="619,-2653 467,-2653 467,-2617 619,-2617 619,-2653"/>
<text text-anchor="middle" x="543" y="-2632.1" font-family="Courier,monospace" font-size="11.00">WysiwygAppController</text>
</g>
<!-- \\FileController&#45;&gt;\\WysiwygAppController -->
<g id="edge93" class="edge"><title>\\FileController&#45;&gt;\\WysiwygAppController</title>
<path fill="none" stroke="black" d="M784.485,-2678.91C740.806,-2670.96 679.168,-2659.76 629.098,-2650.65"/>
<polygon fill="none" stroke="black" points="629.712,-2647.21 619.247,-2648.86 628.46,-2654.1 629.712,-2647.21"/>
</g>
<!-- \\WysiwygAppController&#45;&gt;\\AppController -->
<g id="edge95" class="edge"><title>\\WysiwygAppController&#45;&gt;\\AppController</title>
<path fill="none" stroke="black" d="M506.205,-2616.87C482.205,-2603.04 452.392,-2581.66 436,-2554 329.996,-2375.13 290.646,-1690.47 283.316,-1543.07"/>
<polygon fill="none" stroke="black" points="286.809,-1542.84 282.825,-1533.03 279.818,-1543.19 286.809,-1542.84"/>
</g>
<!-- \\ImageController -->
<g id="node55" class="node"><title>\\ImageController</title>
<polygon fill="none" stroke="black" points="1192,-2734 1074,-2734 1074,-2698 1192,-2698 1192,-2734"/>
<text text-anchor="middle" x="1133" y="-2713.1" font-family="Courier,monospace" font-size="11.00">ImageController</text>
</g>
<!-- \\ImageController&#45;&gt;\\FileController -->
<g id="edge97" class="edge"><title>\\ImageController&#45;&gt;\\FileController</title>
<path fill="none" stroke="black" d="M1073.71,-2710.54C1025.05,-2706.05 956.226,-2699.71 905.864,-2695.07"/>
<polygon fill="none" stroke="black" points="906.01,-2691.57 895.731,-2694.14 905.367,-2698.54 906.01,-2691.57"/>
</g>
<!-- \\WysiwygHelper -->
<g id="node56" class="node"><title>\\WysiwygHelper</title>
<polygon fill="none" stroke="black" points="1185,-1384 1081,-1384 1081,-1348 1185,-1348 1185,-1384"/>
<text text-anchor="middle" x="1133" y="-1363.1" font-family="Courier,monospace" font-size="11.00">WysiwygHelper</text>
</g>
<!-- \\WysiwygHelper&#45;&gt;\\AppHelper -->
<g id="edge99" class="edge"><title>\\WysiwygHelper&#45;&gt;\\AppHelper</title>
<path fill="none" stroke="black" d="M1080.82,-1373.41C1063.74,-1377.43 1045.26,-1383.58 1030,-1393 949.876,-1442.44 884.727,-1536.19 855.946,-1582.19"/>
<polygon fill="none" stroke="black" points="852.792,-1580.64 850.523,-1590.98 858.75,-1584.31 852.792,-1580.64"/>
</g>
<!-- \\WysiwygBehavior -->
<g id="node57" class="node"><title>\\WysiwygBehavior</title>
<polygon fill="none" stroke="black" points="1192,-574 1074,-574 1074,-538 1192,-538 1192,-574"/>
<text text-anchor="middle" x="1133" y="-553.1" font-family="Courier,monospace" font-size="11.00">WysiwygBehavior</text>
</g>
<!-- \\WysiwygBehavior&#45;&gt;\\ModelBehavior -->
<g id="edge101" class="edge"><title>\\WysiwygBehavior&#45;&gt;\\ModelBehavior</title>
<path fill="none" stroke="black" d="M1073.84,-552.059C1057.65,-548.175 1041.43,-541.22 1030,-529 913.795,-404.716 1076.14,-275.443 958,-153 950.646,-145.379 941.615,-139.712 931.852,-135.525"/>
<polygon fill="none" stroke="black" points="932.89,-132.176 922.298,-131.949 930.436,-138.732 932.89,-132.176"/>
</g>
<!-- \\WysiwygAppModel -->
<g id="node58" class="node"><title>\\WysiwygAppModel</title>
<polygon fill="none" stroke="black" points="1192,-2464 1074,-2464 1074,-2428 1192,-2428 1192,-2464"/>
<text text-anchor="middle" x="1133" y="-2443.1" font-family="Courier,monospace" font-size="11.00">WysiwygAppModel</text>
</g>
<!-- \\WysiwygAppModel&#45;&gt;\\AppModel -->
<g id="edge103" class="edge"><title>\\WysiwygAppModel&#45;&gt;\\AppModel</title>
<path fill="none" stroke="black" d="M1073.71,-2435.07C1018.17,-2424.84 936.346,-2409.76 885.707,-2400.42"/>
<polygon fill="none" stroke="black" points="886.172,-2396.95 875.703,-2398.58 884.903,-2403.83 886.172,-2396.95"/>
</g>
</g>
</svg>
