<?xml version="1.0" encoding="UTF-8" standalone="no"?>
<!DOCTYPE svg PUBLIC "-//W3C//DTD SVG 1.1//EN"
 "http://www.w3.org/Graphics/SVG/1.1/DTD/svg11.dtd">
<!-- Generated by graphviz version 2.26.3 (20100126.1600)
 -->
<!-- Title: G Pages: 1 -->
<svg width="1260pt" height="2726pt"
 viewBox="0.00 0.00 1260.00 2726.00" xmlns="http://www.w3.org/2000/svg" xmlns:xlink="http://www.w3.org/1999/xlink">
<g id="graph1" class="graph" transform="scale(1 1) rotate(0) translate(4 2722)">
<title>G</title>
<polygon fill="white" stroke="white" points="-4,5 -4,-2722 1257,-2722 1257,5 -4,5"/>
<g id="graph2" class="cluster"><title>cluster_Global</title>
<polyline fill="none" stroke="gray" points="234,-368 1232,-368 "/>
<path fill="none" stroke="gray" d="M1232,-368C1238,-368 1244,-374 1244,-380"/>
<polyline fill="none" stroke="gray" points="1244,-380 1244,-2698 "/>
<path fill="none" stroke="gray" d="M1244,-2698C1244,-2704 1238,-2710 1232,-2710"/>
<polyline fill="none" stroke="gray" points="1232,-2710 234,-2710 "/>
<path fill="none" stroke="gray" d="M234,-2710C228,-2710 222,-2704 222,-2698"/>
<polyline fill="none" stroke="gray" points="222,-2698 222,-380 "/>
<path fill="none" stroke="gray" d="M222,-380C222,-374 228,-368 234,-368"/>
<text text-anchor="middle" x="733" y="-2696.1" font-family="Times Roman,serif" font-size="11.00" fill="gray">Global</text>
</g>
<!-- \\AppController -->
<g id="node2" class="node"><title>\\AppController</title>
<polygon fill="none" stroke="black" points="334,-1506 230,-1506 230,-1470 334,-1470 334,-1506"/>
<text text-anchor="middle" x="282" y="-1485.1" font-family="Courier,monospace" font-size="11.00">AppController</text>
</g>
<!-- \\Controller -->
<g id="node59" class="node"><title>\\Controller</title>
<ellipse fill="none" stroke="black" cx="64" cy="-865" rx="63.1385" ry="18.3848"/>
<text text-anchor="middle" x="64" y="-861.4" font-family="Times Roman,serif" font-size="14.00" fill="gray">\Controller</text>
</g>
<!-- \\AppController&#45;&gt;\\Controller -->
<g id="edge3" class="edge"><title>\\AppController&#45;&gt;\\Controller</title>
<path fill="none" stroke="black" d="M229.754,-1482.9C218.692,-1479.57 207.967,-1474.29 200,-1466 118.652,-1381.37 76.83,-1000.15 66.549,-893.06"/>
<polygon fill="none" stroke="black" points="70.0256,-892.647 65.601,-883.02 63.0566,-893.305 70.0256,-892.647"/>
</g>
<!-- \\AppModel -->
<g id="node3" class="node"><title>\\AppModel</title>
<polygon fill="none" stroke="black" points="875,-2356 805,-2356 805,-2320 875,-2320 875,-2356"/>
<text text-anchor="middle" x="840" y="-2335.1" font-family="Courier,monospace" font-size="11.00">AppModel</text>
</g>
<!-- \\NetCommonsAppModel -->
<g id="node47" class="node"><title>\\NetCommonsAppModel</title>
<polygon fill="none" stroke="black" points="612,-1385 474,-1385 474,-1349 612,-1349 612,-1385"/>
<text text-anchor="middle" x="543" y="-1364.1" font-family="Courier,monospace" font-size="11.00">NetCommonsAppModel</text>
</g>
<!-- \\AppModel&#45;&gt;\\NetCommonsAppModel -->
<g id="edge5" class="edge"><title>\\AppModel&#45;&gt;\\NetCommonsAppModel</title>
<path fill="none" stroke="black" d="M804.334,-2339.54C777.946,-2338.66 743.066,-2332.87 722,-2311 590.613,-2174.58 551.472,-1537.39 544.306,-1395.19"/>
<polygon fill="none" stroke="black" points="547.797,-1394.92 543.81,-1385.1 540.806,-1395.26 547.797,-1394.92"/>
</g>
<!-- \\DatabaseConfiguration -->
<g id="node4" class="node"><title>\\DatabaseConfiguration</title>
<polygon fill="none" stroke="black" points="1212,-2410 1054,-2410 1054,-2374 1212,-2374 1212,-2410"/>
<text text-anchor="middle" x="1133" y="-2389.1" font-family="Courier,monospace" font-size="11.00">DatabaseConfiguration</text>
</g>
<!-- \\DatabaseConfiguration&#45;&gt;\\AppModel -->
<g id="edge7" class="edge"><title>\\DatabaseConfiguration&#45;&gt;\\AppModel</title>
<path fill="none" stroke="black" d="M1053.71,-2377.39C999.937,-2367.48 930.74,-2354.72 885.886,-2346.46"/>
<polygon fill="none" stroke="black" points="886.334,-2342.98 875.866,-2344.61 885.066,-2349.86 886.334,-2342.98"/>
</g>
<!-- \\AppHelper -->
<g id="node5" class="node"><title>\\AppHelper</title>
<polygon fill="none" stroke="black" points="878,-1600 802,-1600 802,-1564 878,-1564 878,-1600"/>
<text text-anchor="middle" x="840" y="-1579.1" font-family="Courier,monospace" font-size="11.00">AppHelper</text>
</g>
<!-- \\Helper -->
<g id="node63" class="node"><title>\\Helper</title>
<ellipse fill="none" stroke="black" cx="543" cy="-342" rx="43.8406" ry="18.3848"/>
<text text-anchor="middle" x="543" y="-338.4" font-family="Times Roman,serif" font-size="14.00" fill="gray">Helper</text>
</g>
<!-- \\AppHelper&#45;&gt;\\Helper -->
<g id="edge9" class="edge"><title>\\AppHelper&#45;&gt;\\Helper</title>
<path fill="none" stroke="black" d="M832.119,-1563.79C810.33,-1512.55 749.101,-1362.27 722,-1231 682.913,-1041.66 778.267,-508.652 650,-364 636.767,-349.077 616.349,-342.702 596.882,-340.371"/>
<polygon fill="none" stroke="black" points="597.097,-336.876 586.832,-339.496 596.491,-343.85 597.097,-336.876"/>
</g>
<!-- \\NetCommonsDeleteTest -->
<g id="node6" class="node"><title>\\NetCommonsDeleteTest</title>
<polygon fill="none" stroke="black" points="1209,-2518 1057,-2518 1057,-2482 1209,-2482 1209,-2518"/>
<text text-anchor="middle" x="1133" y="-2497.1" font-family="Courier,monospace" font-size="11.00">NetCommonsDeleteTest</text>
</g>
<!-- \\NetCommonsModelTestCase -->
<g id="node15" class="node"><title>\\NetCommonsModelTestCase</title>
<polygon fill="none" stroke="black" points="926,-2518 754,-2518 754,-2482 926,-2482 926,-2518"/>
<text text-anchor="middle" x="840" y="-2497.1" font-family="Courier,monospace" font-size="11.00">NetCommonsModelTestCase</text>
</g>
<!-- \\NetCommonsDeleteTest&#45;&gt;\\NetCommonsModelTestCase -->
<g id="edge11" class="edge"><title>\\NetCommonsDeleteTest&#45;&gt;\\NetCommonsModelTestCase</title>
<path fill="none" stroke="black" d="M1056.78,-2500C1020.05,-2500 975.59,-2500 936.519,-2500"/>
<polygon fill="none" stroke="black" points="936.183,-2496.5 926.183,-2500 936.183,-2503.5 936.183,-2496.5"/>
</g>
<!-- \\NetCommonsConsoleTestCase -->
<g id="node7" class="node"><title>\\NetCommonsConsoleTestCase</title>
<polygon fill="none" stroke="black" points="932,-2464 748,-2464 748,-2428 932,-2428 932,-2464"/>
<text text-anchor="middle" x="840" y="-2443.1" font-family="Courier,monospace" font-size="11.00">NetCommonsConsoleTestCase</text>
</g>
<!-- \\NetCommonsCakeTestCase -->
<g id="node13" class="node"><title>\\NetCommonsCakeTestCase</title>
<polygon fill="none" stroke="black" points="625,-2491 461,-2491 461,-2455 625,-2455 625,-2491"/>
<text text-anchor="middle" x="543" y="-2470.1" font-family="Courier,monospace" font-size="11.00">NetCommonsCakeTestCase</text>
</g>
<!-- \\NetCommonsConsoleTestCase&#45;&gt;\\NetCommonsCakeTestCase -->
<g id="edge13" class="edge"><title>\\NetCommonsConsoleTestCase&#45;&gt;\\NetCommonsCakeTestCase</title>
<path fill="none" stroke="black" d="M747.249,-2454.43C711.93,-2457.64 671.688,-2461.3 636.316,-2464.52"/>
<polygon fill="none" stroke="black" points="635.635,-2461.06 625.993,-2465.46 636.269,-2468.04 635.635,-2461.06"/>
</g>
<!-- \\NetCommonsGetTest -->
<g id="node8" class="node"><title>\\NetCommonsGetTest</title>
<polygon fill="none" stroke="black" points="1198,-2464 1068,-2464 1068,-2428 1198,-2428 1198,-2464"/>
<text text-anchor="middle" x="1133" y="-2443.1" font-family="Courier,monospace" font-size="11.00">NetCommonsGetTest</text>
</g>
<!-- \\NetCommonsGetTest&#45;&gt;\\NetCommonsModelTestCase -->
<g id="edge15" class="edge"><title>\\NetCommonsGetTest&#45;&gt;\\NetCommonsModelTestCase</title>
<path fill="none" stroke="black" d="M1067.25,-2458.12C1028.58,-2465.24 979.008,-2474.38 936.034,-2482.3"/>
<polygon fill="none" stroke="black" points="935.32,-2478.87 926.12,-2484.13 936.588,-2485.76 935.32,-2478.87"/>
</g>
<!-- \\NetCommonsHelperTestCase -->
<g id="node9" class="node"><title>\\NetCommonsHelperTestCase</title>
<polygon fill="none" stroke="black" points="929,-2572 751,-2572 751,-2536 929,-2536 929,-2572"/>
<text text-anchor="middle" x="840" y="-2551.1" font-family="Courier,monospace" font-size="11.00">NetCommonsHelperTestCase</text>
</g>
<!-- \\NetCommonsHelperTestCase&#45;&gt;\\NetCommonsCakeTestCase -->
<g id="edge17" class="edge"><title>\\NetCommonsHelperTestCase&#45;&gt;\\NetCommonsCakeTestCase</title>
<path fill="none" stroke="black" d="M757.936,-2535.98C745.852,-2533.11 733.579,-2530.07 722,-2527 684.303,-2517.01 642.565,-2504.51 608.882,-2494.05"/>
<polygon fill="none" stroke="black" points="609.742,-2490.65 599.154,-2491.01 607.658,-2497.33 609.742,-2490.65"/>
</g>
<!-- \\NetCommonsControllerBaseTestCase -->
<g id="node10" class="node"><title>\\NetCommonsControllerBaseTestCase</title>
<polygon fill="none" stroke="black" points="956,-1222 724,-1222 724,-1186 956,-1186 956,-1222"/>
<text text-anchor="middle" x="840" y="-1201.1" font-family="Courier,monospace" font-size="11.00">NetCommonsControllerBaseTestCase</text>
</g>
<!-- \\ControllerTestCase -->
<g id="node69" class="node"><title>\\ControllerTestCase</title>
<ellipse fill="none" stroke="black" cx="543" cy="-288" rx="106.773" ry="18.3848"/>
<text text-anchor="middle" x="543" y="-284.4" font-family="Times Roman,serif" font-size="14.00" fill="gray">\ControllerTestCase</text>
</g>
<!-- \\NetCommonsControllerBaseTestCase&#45;&gt;\\ControllerTestCase -->
<g id="edge19" class="edge"><title>\\NetCommonsControllerBaseTestCase&#45;&gt;\\ControllerTestCase</title>
<path fill="none" stroke="black" d="M833.68,-1185.71C814.324,-1129.07 755.166,-951.315 722,-800 698.671,-693.568 723.107,-395.793 650,-315 646.144,-310.738 641.722,-307.104 636.92,-304.01"/>
<polygon fill="none" stroke="black" points="638.347,-300.799 627.906,-299.004 634.948,-306.919 638.347,-300.799"/>
</g>
<!-- \\NetCommonsValidateTest -->
<g id="node11" class="node"><title>\\NetCommonsValidateTest</title>
<polygon fill="none" stroke="black" points="1215,-2626 1051,-2626 1051,-2590 1215,-2590 1215,-2626"/>
<text text-anchor="middle" x="1133" y="-2605.1" font-family="Courier,monospace" font-size="11.00">NetCommonsValidateTest</text>
</g>
<!-- \\NetCommonsValidateTest&#45;&gt;\\NetCommonsModelTestCase -->
<g id="edge21" class="edge"><title>\\NetCommonsValidateTest&#45;&gt;\\NetCommonsModelTestCase</title>
<path fill="none" stroke="black" d="M1051.79,-2589.93C1044.28,-2587.3 1036.91,-2584.34 1030,-2581 993.981,-2563.6 994.288,-2543.83 958,-2527 950.962,-2523.74 943.501,-2520.85 935.884,-2518.31"/>
<polygon fill="none" stroke="black" points="936.762,-2514.91 926.173,-2515.26 934.666,-2521.59 936.762,-2514.91"/>
</g>
<!-- \\NetCommonsTestSuite -->
<g id="node12" class="node"><title>\\NetCommonsTestSuite</title>
<polygon fill="none" stroke="black" points="1205,-1114 1061,-1114 1061,-1078 1205,-1078 1205,-1114"/>
<text text-anchor="middle" x="1133" y="-1093.1" font-family="Courier,monospace" font-size="11.00">NetCommonsTestSuite</text>
</g>
<!-- \\CakeTestSuite -->
<g id="node72" class="node"><title>\\CakeTestSuite</title>
<ellipse fill="none" stroke="black" cx="840" cy="-342" rx="84.1457" ry="18.3848"/>
<text text-anchor="middle" x="840" y="-338.4" font-family="Times Roman,serif" font-size="14.00" fill="gray">\CakeTestSuite</text>
</g>
<!-- \\NetCommonsTestSuite&#45;&gt;\\CakeTestSuite -->
<g id="edge23" class="edge"><title>\\NetCommonsTestSuite&#45;&gt;\\CakeTestSuite</title>
<path fill="none" stroke="black" d="M1060.38,-1088.87C1048.79,-1084.65 1038,-1078.34 1030,-1069 927.575,-949.377 1064.67,-479.856 958,-364 951.119,-356.526 942.58,-351.101 933.263,-347.215"/>
<polygon fill="none" stroke="black" points="934.315,-343.875 923.72,-343.824 931.97,-350.47 934.315,-343.875"/>
</g>
<!-- \\CakeTestCase -->
<g id="node74" class="node"><title>\\CakeTestCase</title>
<ellipse fill="none" stroke="black" cx="282" cy="-342" rx="82.0244" ry="18.3848"/>
<text text-anchor="middle" x="282" y="-338.4" font-family="Times Roman,serif" font-size="14.00" fill="gray">\CakeTestCase</text>
</g>
<!-- \\NetCommonsCakeTestCase&#45;&gt;\\CakeTestCase -->
<g id="edge25" class="edge"><title>\\NetCommonsCakeTestCase&#45;&gt;\\CakeTestCase</title>
<path fill="none" stroke="black" d="M541.005,-2454.89C529.651,-2351.45 472.423,-1824.96 436,-1394 426.338,-1279.68 436.958,-452.536 364,-364 362.278,-361.91 360.38,-360.006 358.341,-358.274"/>
<polygon fill="none" stroke="black" points="360.065,-355.211 349.85,-352.402 356.084,-360.968 360.065,-355.211"/>
</g>
<!-- \\NetCommonsSaveTest -->
<g id="node14" class="node"><title>\\NetCommonsSaveTest</title>
<polygon fill="none" stroke="black" points="1202,-2572 1064,-2572 1064,-2536 1202,-2536 1202,-2572"/>
<text text-anchor="middle" x="1133" y="-2551.1" font-family="Courier,monospace" font-size="11.00">NetCommonsSaveTest</text>
</g>
<!-- \\NetCommonsSaveTest&#45;&gt;\\NetCommonsModelTestCase -->
<g id="edge27" class="edge"><title>\\NetCommonsSaveTest&#45;&gt;\\NetCommonsModelTestCase</title>
<path fill="none" stroke="black" d="M1063.93,-2541.27C1025.79,-2534.24 977.829,-2525.4 936.084,-2517.71"/>
<polygon fill="none" stroke="black" points="936.641,-2514.25 926.172,-2515.88 935.372,-2521.14 936.641,-2514.25"/>
</g>
<!-- \\NetCommonsModelTestCase&#45;&gt;\\NetCommonsCakeTestCase -->
<g id="edge29" class="edge"><title>\\NetCommonsModelTestCase&#45;&gt;\\NetCommonsCakeTestCase</title>
<path fill="none" stroke="black" d="M753.696,-2492.15C716.671,-2488.79 673.35,-2484.85 635.65,-2481.42"/>
<polygon fill="none" stroke="black" points="635.962,-2477.94 625.686,-2480.52 635.328,-2484.91 635.962,-2477.94"/>
</g>
<!-- \\NetCommonsControllerTestCase -->
<g id="node16" class="node"><title>\\NetCommonsControllerTestCase</title>
<polygon fill="none" stroke="black" points="1236,-1222 1030,-1222 1030,-1186 1236,-1186 1236,-1222"/>
<text text-anchor="middle" x="1133" y="-1201.1" font-family="Courier,monospace" font-size="11.00">NetCommonsControllerTestCase</text>
</g>
<!-- \\NetCommonsControllerTestCase&#45;&gt;\\NetCommonsControllerBaseTestCase -->
<g id="edge31" class="edge"><title>\\NetCommonsControllerTestCase&#45;&gt;\\NetCommonsControllerBaseTestCase</title>
<path fill="none" stroke="black" d="M1029.7,-1204C1009.38,-1204 987.845,-1204 966.858,-1204"/>
<polygon fill="none" stroke="black" points="966.606,-1200.5 956.606,-1204 966.606,-1207.5 966.606,-1200.5"/>
</g>
<!-- \\NetCommonsAppController -->
<g id="node17" class="node"><title>\\NetCommonsAppController</title>
<polygon fill="none" stroke="black" points="926,-791 754,-791 754,-755 926,-755 926,-791"/>
<text text-anchor="middle" x="840" y="-770.1" font-family="Courier,monospace" font-size="11.00">NetCommonsAppController</text>
</g>
<!-- \\NetCommonsAppController&#45;&gt;\\Controller -->
<g id="edge33" class="edge"><title>\\NetCommonsAppController&#45;&gt;\\Controller</title>
<path fill="none" stroke="black" d="M753.951,-770C741.943,-766.104 730.742,-760.085 722,-751 569.374,-592.393 816.576,-404.888 650,-261 498.648,-130.262 356.184,-136.073 200,-261 107.792,-334.754 73.6838,-726.786 65.8656,-836.467"/>
<polygon fill="none" stroke="black" points="62.3532,-836.525 65.1519,-846.744 69.3364,-837.011 62.3532,-836.525"/>
</g>
<!-- \\AssetComponent -->
<g id="node18" class="node"><title>\\AssetComponent</title>
<polygon fill="none" stroke="black" points="1188,-952 1078,-952 1078,-916 1188,-916 1188,-952"/>
<text text-anchor="middle" x="1133" y="-931.1" font-family="Courier,monospace" font-size="11.00">AssetComponent</text>
</g>
<!-- \\Component -->
<g id="node80" class="node"><title>\\Component</title>
<ellipse fill="none" stroke="black" cx="840" cy="-288" rx="70.9184" ry="18.3848"/>
<text text-anchor="middle" x="840" y="-284.4" font-family="Times Roman,serif" font-size="14.00" fill="gray">\Component</text>
</g>
<!-- \\AssetComponent&#45;&gt;\\Component -->
<g id="edge35" class="edge"><title>\\AssetComponent&#45;&gt;\\Component</title>
<path fill="none" stroke="black" d="M1077.34,-931.436C1059.8,-927.802 1041.91,-920.647 1030,-907 855.683,-707.337 1135.43,-511.899 958,-315 948.227,-304.155 935.069,-297.207 921.082,-292.841"/>
<polygon fill="none" stroke="black" points="921.864,-289.426 911.298,-290.214 920.049,-296.187 921.864,-289.426"/>
</g>
<!-- \\NetCommonsTimeComponent -->
<g id="node19" class="node"><title>\\NetCommonsTimeComponent</title>
<polygon fill="none" stroke="black" points="1219,-898 1047,-898 1047,-862 1219,-862 1219,-898"/>
<text text-anchor="middle" x="1133" y="-877.1" font-family="Courier,monospace" font-size="11.00">NetCommonsTimeComponent</text>
</g>
<!-- \\NetCommonsTimeComponent&#45;&gt;\\Component -->
<g id="edge37" class="edge"><title>\\NetCommonsTimeComponent&#45;&gt;\\Component</title>
<path fill="none" stroke="black" d="M1046.73,-866.334C1040.48,-862.785 1034.77,-858.402 1030,-853 870.252,-672.227 1120.57,-493.24 958,-315 948.162,-304.213 934.974,-297.293 920.979,-292.934"/>
<polygon fill="none" stroke="black" points="921.757,-289.519 911.192,-290.31 919.944,-296.281 921.757,-289.519"/>
</g>
<!-- \\PermissionComponent -->
<g id="node20" class="node"><title>\\PermissionComponent</title>
<polygon fill="none" stroke="black" points="1205,-1060 1061,-1060 1061,-1024 1205,-1024 1205,-1060"/>
<text text-anchor="middle" x="1133" y="-1039.1" font-family="Courier,monospace" font-size="11.00">PermissionComponent</text>
</g>
<!-- \\PermissionComponent&#45;&gt;\\Component -->
<g id="edge39" class="edge"><title>\\PermissionComponent&#45;&gt;\\Component</title>
<path fill="none" stroke="black" d="M1060.39,-1034.86C1048.79,-1030.64 1038,-1024.34 1030,-1015 826.502,-777.507 1165.2,-549.266 958,-315 948.271,-304.001 935.062,-296.994 920.998,-292.62"/>
<polygon fill="none" stroke="black" points="921.72,-289.191 911.156,-289.996 919.917,-295.955 921.72,-289.191"/>
</g>
<!-- \\NetCommonsComponent -->
<g id="node21" class="node"><title>\\NetCommonsComponent</title>
<polygon fill="none" stroke="black" points="1205,-1006 1061,-1006 1061,-970 1205,-970 1205,-1006"/>
<text text-anchor="middle" x="1133" y="-985.1" font-family="Courier,monospace" font-size="11.00">NetCommonsComponent</text>
</g>
<!-- \\NetCommonsComponent&#45;&gt;\\Component -->
<g id="edge41" class="edge"><title>\\NetCommonsComponent&#45;&gt;\\Component</title>
<path fill="none" stroke="black" d="M1060.45,-980.809C1048.85,-976.592 1038.04,-970.301 1030,-961 841.099,-742.429 1150.31,-530.576 958,-315 948.225,-304.042 934.994,-297.054 920.924,-292.686"/>
<polygon fill="none" stroke="black" points="921.644,-289.256 911.08,-290.064 919.842,-296.02 921.644,-289.256"/>
</g>
<!-- \\NetCommonsController -->
<g id="node22" class="node"><title>\\NetCommonsController</title>
<polygon fill="none" stroke="black" points="1209,-1168 1057,-1168 1057,-1132 1209,-1132 1209,-1168"/>
<text text-anchor="middle" x="1133" y="-1147.1" font-family="Courier,monospace" font-size="11.00">NetCommonsController</text>
</g>
<!-- \\NetCommonsController&#45;&gt;\\NetCommonsAppController -->
<g id="edge43" class="edge"><title>\\NetCommonsController&#45;&gt;\\NetCommonsAppController</title>
<path fill="none" stroke="black" d="M1056.75,-1137.7C1047.15,-1134.01 1037.93,-1129.22 1030,-1123 919.731,-1036.55 864.977,-867.634 846.947,-800.995"/>
<polygon fill="none" stroke="black" points="850.3,-799.983 844.366,-791.206 843.532,-801.768 850.3,-799.983"/>
</g>
<!-- \\NetCommonsUrl -->
<g id="node23" class="node"><title>\\NetCommonsUrl</title>
<polygon fill="none" stroke="black" points="1185,-2032 1081,-2032 1081,-1996 1185,-1996 1185,-2032"/>
<text text-anchor="middle" x="1133" y="-2011.1" font-family="Courier,monospace" font-size="11.00">NetCommonsUrl</text>
</g>
<!-- \\NetCommonsTime -->
<g id="node24" class="node"><title>\\NetCommonsTime</title>
<polygon fill="none" stroke="black" points="1188,-1978 1078,-1978 1078,-1942 1188,-1942 1188,-1978"/>
<text text-anchor="middle" x="1133" y="-1957.1" font-family="Courier,monospace" font-size="11.00">NetCommonsTime</text>
</g>
<!-- \\CurrentBase -->
<g id="node25" class="node"><title>\\CurrentBase</title>
<polygon fill="none" stroke="black" points="885,-2302 795,-2302 795,-2266 885,-2266 885,-2302"/>
<text text-anchor="middle" x="840" y="-2281.1" font-family="Courier,monospace" font-size="11.00">CurrentBase</text>
</g>
<!-- \\Current -->
<g id="node26" class="node"><title>\\Current</title>
<polygon fill="none" stroke="black" points="1165,-2302 1101,-2302 1101,-2266 1165,-2266 1165,-2302"/>
<text text-anchor="middle" x="1133" y="-2281.1" font-family="Courier,monospace" font-size="11.00">Current</text>
</g>
<!-- \\Current&#45;&gt;\\CurrentBase -->
<g id="edge45" class="edge"><title>\\Current&#45;&gt;\\CurrentBase</title>
<path fill="none" stroke="black" d="M1100.81,-2284C1051.48,-2284 956.554,-2284 895.846,-2284"/>
<polygon fill="none" stroke="black" points="895.669,-2280.5 885.669,-2284 895.669,-2287.5 895.669,-2280.5"/>
</g>
<!-- \\CurrentSystem -->
<g id="node27" class="node"><title>\\CurrentSystem</title>
<polygon fill="none" stroke="black" points="1185,-1870 1081,-1870 1081,-1834 1185,-1834 1185,-1870"/>
<text text-anchor="middle" x="1133" y="-1849.1" font-family="Courier,monospace" font-size="11.00">CurrentSystem</text>
</g>
<!-- \\CurrentPage -->
<g id="node28" class="node"><title>\\CurrentPage</title>
<polygon fill="none" stroke="black" points="1178,-1816 1088,-1816 1088,-1780 1178,-1780 1178,-1816"/>
<text text-anchor="middle" x="1133" y="-1795.1" font-family="Courier,monospace" font-size="11.00">CurrentPage</text>
</g>
<!-- \\CurrentFrame -->
<g id="node29" class="node"><title>\\CurrentFrame</title>
<polygon fill="none" stroke="black" points="1182,-1762 1084,-1762 1084,-1726 1182,-1726 1182,-1762"/>
<text text-anchor="middle" x="1133" y="-1741.1" font-family="Courier,monospace" font-size="11.00">CurrentFrame</text>
</g>
<!-- \\TokenHelper -->
<g id="node30" class="node"><title>\\TokenHelper</title>
<polygon fill="none" stroke="black" points="1178,-790 1088,-790 1088,-754 1178,-754 1178,-790"/>
<text text-anchor="middle" x="1133" y="-769.1" font-family="Courier,monospace" font-size="11.00">TokenHelper</text>
</g>
<!-- \\FormHelper -->
<g id="node87" class="node"><title>\\FormHelper</title>
<ellipse fill="none" stroke="black" cx="840" cy="-234" rx="70.9184" ry="18.3848"/>
<text text-anchor="middle" x="840" y="-230.4" font-family="Times Roman,serif" font-size="14.00" fill="gray">\FormHelper</text>
</g>
<!-- \\TokenHelper&#45;&gt;\\FormHelper -->
<g id="edge47" class="edge"><title>\\TokenHelper&#45;&gt;\\FormHelper</title>
<path fill="none" stroke="black" d="M1087.39,-770.968C1067,-768.065 1044.38,-761.033 1030,-745 884.8,-583.094 1105.73,-420.605 958,-261 948.083,-250.286 934.859,-243.398 920.853,-239.049"/>
<polygon fill="none" stroke="black" points="921.628,-235.634 911.063,-236.429 919.818,-242.396 921.628,-235.634"/>
</g>
<!-- \\SingletonViewBlockHtmlHelper -->
<g id="node31" class="node"><title>\\SingletonViewBlockHtmlHelper</title>
<polygon fill="none" stroke="black" points="1236,-682 1030,-682 1030,-646 1236,-646 1236,-682"/>
<text text-anchor="middle" x="1133" y="-661.1" font-family="Courier,monospace" font-size="11.00">SingletonViewBlockHtmlHelper</text>
</g>
<!-- \\HtmlHelper -->
<g id="node89" class="node"><title>\\HtmlHelper</title>
<ellipse fill="none" stroke="black" cx="840" cy="-180" rx="67.1751" ry="18.3848"/>
<text text-anchor="middle" x="840" y="-176.4" font-family="Times Roman,serif" font-size="14.00" fill="gray">HtmlHelper</text>
</g>
<!-- \\SingletonViewBlockHtmlHelper&#45;&gt;\\HtmlHelper -->
<g id="edge49" class="edge"><title>\\SingletonViewBlockHtmlHelper&#45;&gt;\\HtmlHelper</title>
<path fill="none" stroke="black" d="M1039.92,-645.739C1036.33,-643.175 1032.99,-640.276 1030,-637 899.318,-493.927 1090.91,-348.002 958,-207 947.121,-195.459 932.401,-188.376 917.051,-184.126"/>
<polygon fill="none" stroke="black" points="917.444,-180.622 906.906,-181.723 915.83,-187.434 917.444,-180.622"/>
</g>
<!-- \\FormInputHelper -->
<g id="node32" class="node"><title>\\FormInputHelper</title>
<polygon fill="none" stroke="black" points="1192,-2248 1074,-2248 1074,-2212 1192,-2212 1192,-2248"/>
<text text-anchor="middle" x="1133" y="-2227.1" font-family="Courier,monospace" font-size="11.00">FormInputHelper</text>
</g>
<!-- \\FormInputHelper&#45;&gt;\\AppHelper -->
<g id="edge51" class="edge"><title>\\FormInputHelper&#45;&gt;\\AppHelper</title>
<path fill="none" stroke="black" d="M1073.84,-2225.07C1057.93,-2221.13 1041.87,-2214.4 1030,-2203 940.476,-2117.03 864.404,-1719.61 844.863,-1610.04"/>
<polygon fill="none" stroke="black" points="848.289,-1609.31 843.101,-1600.07 841.396,-1610.53 848.289,-1609.31"/>
</g>
<!-- \\WizardHelper -->
<g id="node33" class="node"><title>\\WizardHelper</title>
<polygon fill="none" stroke="black" points="1182,-2194 1084,-2194 1084,-2158 1182,-2158 1182,-2194"/>
<text text-anchor="middle" x="1133" y="-2173.1" font-family="Courier,monospace" font-size="11.00">WizardHelper</text>
</g>
<!-- \\WizardHelper&#45;&gt;\\AppHelper -->
<g id="edge53" class="edge"><title>\\WizardHelper&#45;&gt;\\AppHelper</title>
<path fill="none" stroke="black" d="M1083.89,-2172.99C1065,-2169.51 1044.51,-2162.57 1030,-2149 947.245,-2071.61 867.482,-1713.99 845.771,-1610.27"/>
<polygon fill="none" stroke="black" points="849.147,-1609.31 843.686,-1600.23 842.293,-1610.74 849.147,-1609.31"/>
</g>
<!-- \\DisplayNumberHelper -->
<g id="node34" class="node"><title>\\DisplayNumberHelper</title>
<polygon fill="none" stroke="black" points="1205,-2140 1061,-2140 1061,-2104 1205,-2104 1205,-2140"/>
<text text-anchor="middle" x="1133" y="-2119.1" font-family="Courier,monospace" font-size="11.00">DisplayNumberHelper</text>
</g>
<!-- \\DisplayNumberHelper&#45;&gt;\\AppHelper -->
<g id="edge55" class="edge"><title>\\DisplayNumberHelper&#45;&gt;\\AppHelper</title>
<path fill="none" stroke="black" d="M1060.36,-2112.44C1049.25,-2108.43 1038.63,-2102.82 1030,-2095 880.846,-1959.84 848.432,-1696.87 841.693,-1610.35"/>
<polygon fill="none" stroke="black" points="845.174,-1609.96 840.962,-1600.24 838.192,-1610.47 845.174,-1609.96"/>
</g>
<!-- \\MessageFlashHelper -->
<g id="node35" class="node"><title>\\MessageFlashHelper</title>
<polygon fill="none" stroke="black" points="1202,-2086 1064,-2086 1064,-2050 1202,-2050 1202,-2086"/>
<text text-anchor="middle" x="1133" y="-2065.1" font-family="Courier,monospace" font-size="11.00">MessageFlashHelper</text>
</g>
<!-- \\MessageFlashHelper&#45;&gt;\\AppHelper -->
<g id="edge57" class="edge"><title>\\MessageFlashHelper&#45;&gt;\\AppHelper</title>
<path fill="none" stroke="black" d="M1063.8,-2059.25C1051.52,-2055.21 1039.61,-2049.39 1030,-2041 894.066,-1922.41 853.424,-1691.2 843.102,-1610.56"/>
<polygon fill="none" stroke="black" points="846.525,-1609.71 841.84,-1600.21 839.576,-1610.56 846.525,-1609.71"/>
</g>
<!-- \\DateHelper -->
<g id="node36" class="node"><title>\\DateHelper</title>
<polygon fill="none" stroke="black" points="1175,-1924 1091,-1924 1091,-1888 1175,-1888 1175,-1924"/>
<text text-anchor="middle" x="1133" y="-1903.1" font-family="Courier,monospace" font-size="11.00">DateHelper</text>
</g>
<!-- \\DateHelper&#45;&gt;\\AppHelper -->
<g id="edge59" class="edge"><title>\\DateHelper&#45;&gt;\\AppHelper</title>
<path fill="none" stroke="black" d="M1090.85,-1902.11C1070.9,-1898.57 1047.64,-1891.83 1030,-1879 979.522,-1842.27 888.866,-1675.53 854.1,-1609.27"/>
<polygon fill="none" stroke="black" points="857.121,-1607.49 849.388,-1600.25 850.916,-1610.73 857.121,-1607.49"/>
</g>
<!-- \\SnsButtonHelper -->
<g id="node37" class="node"><title>\\SnsButtonHelper</title>
<polygon fill="none" stroke="black" points="1192,-1708 1074,-1708 1074,-1672 1192,-1672 1192,-1708"/>
<text text-anchor="middle" x="1133" y="-1687.1" font-family="Courier,monospace" font-size="11.00">SnsButtonHelper</text>
</g>
<!-- \\SnsButtonHelper&#45;&gt;\\AppHelper -->
<g id="edge61" class="edge"><title>\\SnsButtonHelper&#45;&gt;\\AppHelper</title>
<path fill="none" stroke="black" d="M1073.73,-1676.05C1059.3,-1672.22 1043.99,-1667.79 1030,-1663 980.27,-1645.98 925.199,-1621.9 887.206,-1604.42"/>
<polygon fill="none" stroke="black" points="888.474,-1601.15 877.929,-1600.12 885.534,-1607.5 888.474,-1601.15"/>
</g>
<!-- \\BackToHelper -->
<g id="node38" class="node"><title>\\BackToHelper</title>
<polygon fill="none" stroke="black" points="1182,-1654 1084,-1654 1084,-1618 1182,-1618 1182,-1654"/>
<text text-anchor="middle" x="1133" y="-1633.1" font-family="Courier,monospace" font-size="11.00">BackToHelper</text>
</g>
<!-- \\BackToHelper&#45;&gt;\\AppHelper -->
<g id="edge63" class="edge"><title>\\BackToHelper&#45;&gt;\\AppHelper</title>
<path fill="none" stroke="black" d="M1083.96,-1626.96C1029.78,-1616.98 943.056,-1600.99 888.925,-1591.02"/>
<polygon fill="none" stroke="black" points="889.351,-1587.54 878.882,-1589.17 888.082,-1594.42 889.351,-1587.54"/>
</g>
<!-- \\NetCommonsHtmlHelper -->
<g id="node39" class="node"><title>\\NetCommonsHtmlHelper</title>
<polygon fill="none" stroke="black" points="1209,-1600 1057,-1600 1057,-1564 1209,-1564 1209,-1600"/>
<text text-anchor="middle" x="1133" y="-1579.1" font-family="Courier,monospace" font-size="11.00">NetCommonsHtmlHelper</text>
</g>
<!-- \\NetCommonsHtmlHelper&#45;&gt;\\AppHelper -->
<g id="edge65" class="edge"><title>\\NetCommonsHtmlHelper&#45;&gt;\\AppHelper</title>
<path fill="none" stroke="black" d="M1056.78,-1582C1003.77,-1582 934.667,-1582 888.892,-1582"/>
<polygon fill="none" stroke="black" points="888.638,-1578.5 878.638,-1582 888.638,-1585.5 888.638,-1578.5"/>
</g>
<!-- \\ButtonHelper -->
<g id="node40" class="node"><title>\\ButtonHelper</title>
<polygon fill="none" stroke="black" points="1182,-736 1084,-736 1084,-700 1182,-700 1182,-736"/>
<text text-anchor="middle" x="1133" y="-715.1" font-family="Courier,monospace" font-size="11.00">ButtonHelper</text>
</g>
<!-- \\ButtonHelper&#45;&gt;\\FormHelper -->
<g id="edge67" class="edge"><title>\\ButtonHelper&#45;&gt;\\FormHelper</title>
<path fill="none" stroke="black" d="M1083.82,-716.278C1064.47,-713.046 1043.65,-705.946 1030,-691 899.318,-547.927 1090.91,-402.002 958,-261 947.986,-250.377 934.718,-243.531 920.698,-239.194"/>
<polygon fill="none" stroke="black" points="921.468,-235.777 910.904,-236.577 919.661,-242.54 921.468,-235.777"/>
</g>
<!-- \\ComposerHelper -->
<g id="node41" class="node"><title>\\ComposerHelper</title>
<polygon fill="none" stroke="black" points="1188,-1546 1078,-1546 1078,-1510 1188,-1510 1188,-1546"/>
<text text-anchor="middle" x="1133" y="-1525.1" font-family="Courier,monospace" font-size="11.00">ComposerHelper</text>
</g>
<!-- \\ComposerHelper&#45;&gt;\\AppHelper -->
<g id="edge69" class="edge"><title>\\ComposerHelper&#45;&gt;\\AppHelper</title>
<path fill="none" stroke="black" d="M1077.2,-1538.28C1022.72,-1548.32 940.647,-1563.45 888.725,-1573.02"/>
<polygon fill="none" stroke="black" points="887.959,-1569.6 878.759,-1574.86 889.228,-1576.49 887.959,-1569.6"/>
</g>
<!-- \\LinkButtonHelper -->
<g id="node42" class="node"><title>\\LinkButtonHelper</title>
<polygon fill="none" stroke="black" points="1195,-844 1071,-844 1071,-808 1195,-808 1195,-844"/>
<text text-anchor="middle" x="1133" y="-823.1" font-family="Courier,monospace" font-size="11.00">LinkButtonHelper</text>
</g>
<!-- \\LinkButtonHelper&#45;&gt;\\FormHelper -->
<g id="edge71" class="edge"><title>\\LinkButtonHelper&#45;&gt;\\FormHelper</title>
<path fill="none" stroke="black" d="M1070.45,-821.714C1055.26,-817.707 1040.41,-810.775 1030,-799 870.252,-618.227 1120.57,-439.24 958,-261 948.162,-250.213 934.974,-243.293 920.979,-238.934"/>
<polygon fill="none" stroke="black" points="921.757,-235.519 911.192,-236.31 919.944,-242.281 921.757,-235.519"/>
</g>
<!-- \\NetCommonsTimeHelper -->
<g id="node43" class="node"><title>\\NetCommonsTimeHelper</title>
<polygon fill="none" stroke="black" points="1209,-1492 1057,-1492 1057,-1456 1209,-1456 1209,-1492"/>
<text text-anchor="middle" x="1133" y="-1471.1" font-family="Courier,monospace" font-size="11.00">NetCommonsTimeHelper</text>
</g>
<!-- \\NetCommonsTimeHelper&#45;&gt;\\AppHelper -->
<g id="edge73" class="edge"><title>\\NetCommonsTimeHelper&#45;&gt;\\AppHelper</title>
<path fill="none" stroke="black" d="M1058.9,-1492.02C1049.12,-1494.81 1039.27,-1497.83 1030,-1501 980.27,-1518.02 925.199,-1542.1 887.206,-1559.58"/>
<polygon fill="none" stroke="black" points="885.534,-1556.5 877.929,-1563.88 888.474,-1562.85 885.534,-1556.5"/>
</g>
<!-- \\NetCommonsFormHelper -->
<g id="node44" class="node"><title>\\NetCommonsFormHelper</title>
<polygon fill="none" stroke="black" points="1209,-1438 1057,-1438 1057,-1402 1209,-1402 1209,-1438"/>
<text text-anchor="middle" x="1133" y="-1417.1" font-family="Courier,monospace" font-size="11.00">NetCommonsFormHelper</text>
</g>
<!-- \\NetCommonsFormHelper&#45;&gt;\\AppHelper -->
<g id="edge75" class="edge"><title>\\NetCommonsFormHelper&#45;&gt;\\AppHelper</title>
<path fill="none" stroke="black" d="M1056.79,-1436.62C1047.59,-1439.61 1038.46,-1443.05 1030,-1447 967.211,-1476.33 903.394,-1526.84 868.029,-1557.06"/>
<polygon fill="none" stroke="black" points="865.369,-1554.74 860.087,-1563.92 869.944,-1560.03 865.369,-1554.74"/>
</g>
<!-- \\TitleIconHelper -->
<g id="node45" class="node"><title>\\TitleIconHelper</title>
<polygon fill="none" stroke="black" points="1192,-1384 1074,-1384 1074,-1348 1192,-1348 1192,-1384"/>
<text text-anchor="middle" x="1133" y="-1363.1" font-family="Courier,monospace" font-size="11.00">TitleIconHelper</text>
</g>
<!-- \\TitleIconHelper&#45;&gt;\\AppHelper -->
<g id="edge77" class="edge"><title>\\TitleIconHelper&#45;&gt;\\AppHelper</title>
<path fill="none" stroke="black" d="M1073.98,-1375.82C1059.02,-1379.8 1043.4,-1385.34 1030,-1393 955.721,-1435.49 890.104,-1514.48 859.041,-1555.59"/>
<polygon fill="none" stroke="black" points="856.119,-1553.65 852.946,-1563.76 861.73,-1557.84 856.119,-1553.65"/>
</g>
<!-- \\DatetimePickerHelper -->
<g id="node46" class="node"><title>\\DatetimePickerHelper</title>
<polygon fill="none" stroke="black" points="1209,-1330 1057,-1330 1057,-1294 1209,-1294 1209,-1330"/>
<text text-anchor="middle" x="1133" y="-1309.1" font-family="Courier,monospace" font-size="11.00">DatetimePickerHelper</text>
</g>
<!-- \\DatetimePickerHelper&#45;&gt;\\AppHelper -->
<g id="edge79" class="edge"><title>\\DatetimePickerHelper&#45;&gt;\\AppHelper</title>
<path fill="none" stroke="black" d="M1056.86,-1325.85C1047.4,-1329.3 1038.19,-1333.62 1030,-1339 944.042,-1395.54 880.094,-1504.07 853.531,-1554.72"/>
<polygon fill="none" stroke="black" points="850.341,-1553.27 848.865,-1563.76 856.562,-1556.48 850.341,-1553.27"/>
</g>
<!-- \\Model -->
<g id="node106" class="node"><title>\\Model</title>
<ellipse fill="none" stroke="black" cx="282" cy="-288" rx="43.8406" ry="18.3848"/>
<text text-anchor="middle" x="282" y="-284.4" font-family="Times Roman,serif" font-size="14.00" fill="gray">\Model</text>
</g>
<!-- \\NetCommonsAppModel&#45;&gt;\\Model -->
<g id="edge81" class="edge"><title>\\NetCommonsAppModel&#45;&gt;\\Model</title>
<path fill="none" stroke="black" d="M473.876,-1366.03C459.481,-1362.52 445.742,-1356.13 436,-1345 284.895,-1172.33 504.904,-496.086 364,-315 356.594,-305.481 345.741,-299.279 334.341,-295.249"/>
<polygon fill="none" stroke="black" points="335.284,-291.878 324.7,-292.349 333.268,-298.581 335.284,-291.878"/>
</g>
<!-- \\OriginalKeyBehavior -->
<g id="node48" class="node"><title>\\OriginalKeyBehavior</title>
<polygon fill="none" stroke="black" points="1205,-574 1061,-574 1061,-538 1205,-538 1205,-574"/>
<text text-anchor="middle" x="1133" y="-553.1" font-family="Courier,monospace" font-size="11.00">OriginalKeyBehavior</text>
</g>
<!-- \\ModelBehavior -->
<g id="node108" class="node"><title>\\ModelBehavior</title>
<ellipse fill="none" stroke="black" cx="840" cy="-126" rx="86.9741" ry="18.3848"/>
<text text-anchor="middle" x="840" y="-122.4" font-family="Times Roman,serif" font-size="14.00" fill="gray">\ModelBehavior</text>
</g>
<!-- \\OriginalKeyBehavior&#45;&gt;\\ModelBehavior -->
<g id="edge83" class="edge"><title>\\OriginalKeyBehavior&#45;&gt;\\ModelBehavior</title>
<path fill="none" stroke="black" d="M1060.25,-547.995C1048.89,-543.838 1038.21,-537.777 1030,-529 913.795,-404.716 1076.14,-275.443 958,-153 950.646,-145.379 941.615,-139.712 931.852,-135.525"/>
<polygon fill="none" stroke="black" points="932.89,-132.176 922.298,-131.949 930.436,-138.732 932.89,-132.176"/>
</g>
<!-- \\TrackableBehavior -->
<g id="node49" class="node"><title>\\TrackableBehavior</title>
<polygon fill="none" stroke="black" points="1198,-520 1068,-520 1068,-484 1198,-484 1198,-520"/>
<text text-anchor="middle" x="1133" y="-499.1" font-family="Courier,monospace" font-size="11.00">TrackableBehavior</text>
</g>
<!-- \\TrackableBehavior&#45;&gt;\\ModelBehavior -->
<g id="edge85" class="edge"><title>\\TrackableBehavior&#45;&gt;\\ModelBehavior</title>
<path fill="none" stroke="black" d="M1067.38,-496.047C1053.48,-491.941 1040.01,-485.38 1030,-475 928.21,-369.437 1061.44,-256.95 958,-153 950.53,-145.493 941.428,-139.895 931.627,-135.745"/>
<polygon fill="none" stroke="black" points="932.638,-132.388 922.045,-132.196 930.207,-138.952 932.638,-132.388"/>
</g>
<!-- \\YAExceptionRenderer -->
<g id="node50" class="node"><title>\\YAExceptionRenderer</title>
<polygon fill="none" stroke="black" points="1205,-466 1061,-466 1061,-430 1205,-430 1205,-466"/>
<text text-anchor="middle" x="1133" y="-445.1" font-family="Courier,monospace" font-size="11.00">YAExceptionRenderer</text>
</g>
<!-- \\ExceptionRenderer -->
<g id="node111" class="node"><title>\\ExceptionRenderer</title>
<ellipse fill="none" stroke="black" cx="840" cy="-72" rx="118.087" ry="18.3848"/>
<text text-anchor="middle" x="840" y="-68.4" font-family="Times Roman,serif" font-size="14.00" fill="gray">TEHxceptionRenderer</text>
</g>
<!-- \\YAExceptionRenderer&#45;&gt;\\ExceptionRenderer -->
<g id="edge87" class="edge"><title>\\YAExceptionRenderer&#45;&gt;\\ExceptionRenderer</title>
<path fill="none" stroke="black" d="M1060.48,-439.783C1049.09,-435.648 1038.34,-429.65 1030,-421 928.21,-315.437 1061.44,-202.95 958,-99 953.632,-94.61 948.706,-90.873 943.408,-87.6967"/>
<polygon fill="none" stroke="black" points="944.657,-84.4002 934.174,-82.8643 941.411,-90.6022 944.657,-84.4002"/>
</g>
<!-- \\NetCommonsMigration -->
<g id="node51" class="node"><title>\\NetCommonsMigration</title>
<polygon fill="none" stroke="black" points="1205,-412 1061,-412 1061,-376 1205,-376 1205,-412"/>
<text text-anchor="middle" x="1133" y="-391.1" font-family="Courier,monospace" font-size="11.00">NetCommonsMigration</text>
</g>
<!-- \\CakeMigration -->
<g id="node113" class="node"><title>\\CakeMigration</title>
<ellipse fill="none" stroke="black" cx="840" cy="-18" rx="84.8528" ry="18.3848"/>
<text text-anchor="middle" x="840" y="-14.4" font-family="Times Roman,serif" font-size="14.00" fill="gray">\CakeMigration</text>
</g>
<!-- \\NetCommonsMigration&#45;&gt;\\CakeMigration -->
<g id="edge89" class="edge"><title>\\NetCommonsMigration&#45;&gt;\\CakeMigration</title>
<path fill="none" stroke="black" d="M1129.54,-375.725C1117.51,-317.407 1071.83,-134.35 958,-45 948.922,-37.8745 938.309,-32.5637 927.237,-28.6167"/>
<polygon fill="none" stroke="black" points="928.007,-25.1887 917.416,-25.488 925.882,-31.8584 928.007,-25.1887"/>
</g>
<!-- \\FileController -->
<g id="node52" class="node"><title>\\FileController</title>
<polygon fill="none" stroke="black" points="895,-2653 785,-2653 785,-2617 895,-2617 895,-2653"/>
<text text-anchor="middle" x="840" y="-2632.1" font-family="Courier,monospace" font-size="11.00">FileController</text>
</g>
<!-- \\WysiwygAppController -->
<g id="node53" class="node"><title>\\WysiwygAppController</title>
<polygon fill="none" stroke="black" points="619,-2599 467,-2599 467,-2563 619,-2563 619,-2599"/>
<text text-anchor="middle" x="543" y="-2578.1" font-family="Courier,monospace" font-size="11.00">WysiwygAppController</text>
</g>
<!-- \\FileController&#45;&gt;\\WysiwygAppController -->
<g id="edge91" class="edge"><title>\\FileController&#45;&gt;\\WysiwygAppController</title>
<path fill="none" stroke="black" d="M784.485,-2624.91C740.806,-2616.96 679.168,-2605.76 629.098,-2596.65"/>
<polygon fill="none" stroke="black" points="629.712,-2593.21 619.247,-2594.86 628.46,-2600.1 629.712,-2593.21"/>
</g>
<!-- \\WysiwygAppController&#45;&gt;\\AppController -->
<g id="edge93" class="edge"><title>\\WysiwygAppController&#45;&gt;\\AppController</title>
<path fill="none" stroke="black" d="M506.5,-2563C482.47,-2549.16 452.505,-2527.73 436,-2500 332.679,-2326.42 291.42,-1663.11 283.474,-1516.71"/>
<polygon fill="none" stroke="black" points="286.949,-1516.14 282.921,-1506.34 279.959,-1516.51 286.949,-1516.14"/>
</g>
<!-- \\ImageController -->
<g id="node54" class="node"><title>\\ImageController</title>
<polygon fill="none" stroke="black" points="1192,-2680 1074,-2680 1074,-2644 1192,-2644 1192,-2680"/>
<text text-anchor="middle" x="1133" y="-2659.1" font-family="Courier,monospace" font-size="11.00">ImageController</text>
</g>
<!-- \\ImageController&#45;&gt;\\FileController -->
<g id="edge95" class="edge"><title>\\ImageController&#45;&gt;\\FileController</title>
<path fill="none" stroke="black" d="M1073.71,-2656.54C1025.05,-2652.05 956.226,-2645.71 905.864,-2641.07"/>
<polygon fill="none" stroke="black" points="906.01,-2637.57 895.731,-2640.14 905.367,-2644.54 906.01,-2637.57"/>
</g>
<!-- \\WysiwygHelper -->
<g id="node55" class="node"><title>\\WysiwygHelper</title>
<polygon fill="none" stroke="black" points="1185,-1276 1081,-1276 1081,-1240 1185,-1240 1185,-1276"/>
<text text-anchor="middle" x="1133" y="-1255.1" font-family="Courier,monospace" font-size="11.00">WysiwygHelper</text>
</g>
<!-- \\WysiwygHelper&#45;&gt;\\AppHelper -->
<g id="edge97" class="edge"><title>\\WysiwygHelper&#45;&gt;\\AppHelper</title>
<path fill="none" stroke="black" d="M1081,-1263.86C1063.56,-1267.75 1044.8,-1274.23 1030,-1285 979.522,-1321.73 888.866,-1488.47 854.1,-1554.73"/>
<polygon fill="none" stroke="black" points="850.916,-1553.27 849.388,-1563.75 857.121,-1556.51 850.916,-1553.27"/>
</g>
<!-- \\WysiwygBehavior -->
<g id="node56" class="node"><title>\\WysiwygBehavior</title>
<polygon fill="none" stroke="black" points="1192,-628 1074,-628 1074,-592 1192,-592 1192,-628"/>
<text text-anchor="middle" x="1133" y="-607.1" font-family="Courier,monospace" font-size="11.00">WysiwygBehavior</text>
</g>
<!-- \\WysiwygBehavior&#45;&gt;\\ModelBehavior -->
<g id="edge99" class="edge"><title>\\WysiwygBehavior&#45;&gt;\\ModelBehavior</title>
<path fill="none" stroke="black" d="M1073.93,-606.289C1057.64,-602.423 1041.35,-595.421 1030,-583 899.318,-439.927 1090.91,-294.002 958,-153 950.736,-145.293 941.758,-139.575 932.025,-135.36"/>
<polygon fill="none" stroke="black" points="933.083,-132.019 922.491,-131.764 930.613,-138.568 933.083,-132.019"/>
</g>
<!-- \\WysiwygAppModel -->
<g id="node57" class="node"><title>\\WysiwygAppModel</title>
<polygon fill="none" stroke="black" points="1192,-2356 1074,-2356 1074,-2320 1192,-2320 1192,-2356"/>
<text text-anchor="middle" x="1133" y="-2335.1" font-family="Courier,monospace" font-size="11.00">WysiwygAppModel</text>
</g>
<!-- \\WysiwygAppModel&#45;&gt;\\AppModel -->
<g id="edge101" class="edge"><title>\\WysiwygAppModel&#45;&gt;\\AppModel</title>
<path fill="none" stroke="black" d="M1073.71,-2338C1018.17,-2338 936.346,-2338 885.707,-2338"/>
<polygon fill="none" stroke="black" points="885.703,-2334.5 875.703,-2338 885.703,-2341.5 885.703,-2334.5"/>
</g>
</g>
</svg>
