<?xml version="1.0" encoding="UTF-8" standalone="no"?>
<!DOCTYPE svg PUBLIC "-//W3C//DTD SVG 1.1//EN"
 "http://www.w3.org/Graphics/SVG/1.1/DTD/svg11.dtd">
<!-- Generated by graphviz version 2.26.3 (20100126.1600)
 -->
<!-- Title: G Pages: 1 -->
<svg width="1220pt" height="2978pt"
 viewBox="0.00 0.00 1220.00 2978.25" xmlns="http://www.w3.org/2000/svg" xmlns:xlink="http://www.w3.org/1999/xlink">
<g id="graph1" class="graph" transform="scale(1 1) rotate(0) translate(4 2974.25)">
<title>G</title>
<polygon fill="white" stroke="white" points="-4,5 -4,-2974.25 1217,-2974.25 1217,5 -4,5"/>
<g id="graph2" class="cluster"><title>cluster_Global</title>
<polyline fill="none" stroke="gray" points="177,-404.249 1192,-404.249 "/>
<path fill="none" stroke="gray" d="M1192,-404.249C1198,-404.249 1204,-410.249 1204,-416.249"/>
<polyline fill="none" stroke="gray" points="1204,-416.249 1204,-2950.25 "/>
<path fill="none" stroke="gray" d="M1204,-2950.25C1204,-2956.25 1198,-2962.25 1192,-2962.25"/>
<polyline fill="none" stroke="gray" points="1192,-2962.25 177,-2962.25 "/>
<path fill="none" stroke="gray" d="M177,-2962.25C171,-2962.25 165,-2956.25 165,-2950.25"/>
<polyline fill="none" stroke="gray" points="165,-2950.25 165,-416.249 "/>
<path fill="none" stroke="gray" d="M165,-416.249C165,-410.249 171,-404.249 177,-404.249"/>
<text text-anchor="middle" x="684.5" y="-2948.35" font-family="Times Roman,serif" font-size="11.00" fill="gray">Global</text>
</g>
<!-- \\AppController -->
<g id="node2" class="node"><title>\\AppController</title>
<polygon fill="none" stroke="black" points="555,-1529.25 451,-1529.25 451,-1493.25 555,-1493.25 555,-1529.25"/>
<text text-anchor="middle" x="503" y="-1508.35" font-family="Courier,monospace" font-size="11.00">AppController</text>
</g>
<!-- \\Controller -->
<g id="node65" class="node"><title>\\Controller</title>
<ellipse fill="none" stroke="black" cx="242" cy="-301.249" rx="63.1385" ry="18.3848"/>
<text text-anchor="middle" x="242" y="-297.649" font-family="Times Roman,serif" font-size="14.00" fill="gray">\Controller</text>
</g>
<!-- \\AppController&#45;&gt;\\Controller -->
<g id="edge3" class="edge"><title>\\AppController&#45;&gt;\\Controller</title>
<path fill="none" stroke="black" d="M450.814,-1513.22C430.777,-1511.1 409.5,-1504.78 396,-1489.25 229.755,-1298.01 454.976,-568.168 324,-351.249 316.087,-338.144 303.303,-328.007 290.159,-320.396"/>
<polygon fill="none" stroke="black" points="291.526,-317.158 281.058,-315.525 288.223,-323.33 291.526,-317.158"/>
</g>
<!-- \\AppModel -->
<g id="node3" class="node"><title>\\AppModel</title>
<polygon fill="none" stroke="black" points="538,-2905.25 468,-2905.25 468,-2869.25 538,-2869.25 538,-2905.25"/>
<text text-anchor="middle" x="503" y="-2884.35" font-family="Courier,monospace" font-size="11.00">AppModel</text>
</g>
<!-- \\NetCommonsAppModel -->
<g id="node48" class="node"><title>\\NetCommonsAppModel</title>
<polygon fill="none" stroke="black" points="311,-2905.25 173,-2905.25 173,-2869.25 311,-2869.25 311,-2905.25"/>
<text text-anchor="middle" x="242" y="-2884.35" font-family="Courier,monospace" font-size="11.00">NetCommonsAppModel</text>
</g>
<!-- \\AppModel&#45;&gt;\\NetCommonsAppModel -->
<g id="edge5" class="edge"><title>\\AppModel&#45;&gt;\\NetCommonsAppModel</title>
<path fill="none" stroke="black" d="M467.256,-2887.25C429.848,-2887.25 369.903,-2887.25 321.254,-2887.25"/>
<polygon fill="none" stroke="black" points="321.056,-2883.75 311.056,-2887.25 321.056,-2890.75 321.056,-2883.75"/>
</g>
<!-- \\DatabaseConfiguration -->
<g id="node4" class="node"><title>\\DatabaseConfiguration</title>
<polygon fill="none" stroke="black" points="879,-2878.25 721,-2878.25 721,-2842.25 879,-2842.25 879,-2878.25"/>
<text text-anchor="middle" x="800" y="-2857.35" font-family="Courier,monospace" font-size="11.00">DatabaseConfiguration</text>
</g>
<!-- \\DatabaseConfiguration&#45;&gt;\\AppModel -->
<g id="edge7" class="edge"><title>\\DatabaseConfiguration&#45;&gt;\\AppModel</title>
<path fill="none" stroke="black" d="M720.8,-2867.45C665.959,-2872.43 594.863,-2878.9 549.084,-2883.06"/>
<polygon fill="none" stroke="black" points="548.509,-2879.6 538.867,-2883.99 549.143,-2886.57 548.509,-2879.6"/>
</g>
<!-- \\AppHelper -->
<g id="node5" class="node"><title>\\AppHelper</title>
<polygon fill="none" stroke="black" points="838,-1852.25 762,-1852.25 762,-1816.25 838,-1816.25 838,-1852.25"/>
<text text-anchor="middle" x="800" y="-1831.35" font-family="Courier,monospace" font-size="11.00">AppHelper</text>
</g>
<!-- \\Helper -->
<g id="node69" class="node"><title>\\Helper</title>
<ellipse fill="none" stroke="black" cx="503" cy="-378.249" rx="43.8406" ry="18.3848"/>
<text text-anchor="middle" x="503" y="-374.649" font-family="Times Roman,serif" font-size="14.00" fill="gray">Helper</text>
</g>
<!-- \\AppHelper&#45;&gt;\\Helper -->
<g id="edge9" class="edge"><title>\\AppHelper&#45;&gt;\\Helper</title>
<path fill="none" stroke="black" d="M792.007,-1816.06C769.929,-1764.88 708.019,-1614.74 682,-1483.25 658.591,-1364.94 689.267,-491.138 610,-400.249 596.837,-385.156 576.329,-378.771 556.774,-376.479"/>
<polygon fill="none" stroke="black" points="556.937,-372.98 546.678,-375.628 556.349,-379.955 556.937,-372.98"/>
</g>
<!-- \\NetCommonsDeleteTest -->
<g id="node6" class="node"><title>\\NetCommonsDeleteTest</title>
<polygon fill="none" stroke="black" points="1169,-2770.25 1017,-2770.25 1017,-2734.25 1169,-2734.25 1169,-2770.25"/>
<text text-anchor="middle" x="1093" y="-2749.35" font-family="Courier,monospace" font-size="11.00">NetCommonsDeleteTest</text>
</g>
<!-- \\NetCommonsModelTestCase -->
<g id="node15" class="node"><title>\\NetCommonsModelTestCase</title>
<polygon fill="none" stroke="black" points="886,-2716.25 714,-2716.25 714,-2680.25 886,-2680.25 886,-2716.25"/>
<text text-anchor="middle" x="800" y="-2695.35" font-family="Courier,monospace" font-size="11.00">NetCommonsModelTestCase</text>
</g>
<!-- \\NetCommonsDeleteTest&#45;&gt;\\NetCommonsModelTestCase -->
<g id="edge11" class="edge"><title>\\NetCommonsDeleteTest&#45;&gt;\\NetCommonsModelTestCase</title>
<path fill="none" stroke="black" d="M1016.78,-2738.2C979.893,-2731.4 935.211,-2723.17 896.02,-2715.95"/>
<polygon fill="none" stroke="black" points="896.652,-2712.5 886.183,-2714.13 895.383,-2719.39 896.652,-2712.5"/>
</g>
<!-- \\NetCommonsConsoleTestCase -->
<g id="node7" class="node"><title>\\NetCommonsConsoleTestCase</title>
<polygon fill="none" stroke="black" points="892,-2824.25 708,-2824.25 708,-2788.25 892,-2788.25 892,-2824.25"/>
<text text-anchor="middle" x="800" y="-2803.35" font-family="Courier,monospace" font-size="11.00">NetCommonsConsoleTestCase</text>
</g>
<!-- \\NetCommonsCakeTestCase -->
<g id="node13" class="node"><title>\\NetCommonsCakeTestCase</title>
<polygon fill="none" stroke="black" points="585,-2743.25 421,-2743.25 421,-2707.25 585,-2707.25 585,-2743.25"/>
<text text-anchor="middle" x="503" y="-2722.35" font-family="Courier,monospace" font-size="11.00">NetCommonsCakeTestCase</text>
</g>
<!-- \\NetCommonsConsoleTestCase&#45;&gt;\\NetCommonsCakeTestCase -->
<g id="edge13" class="edge"><title>\\NetCommonsConsoleTestCase&#45;&gt;\\NetCommonsCakeTestCase</title>
<path fill="none" stroke="black" d="M717.936,-2788.23C705.852,-2785.36 693.579,-2782.32 682,-2779.25 644.303,-2769.26 602.565,-2756.76 568.882,-2746.29"/>
<polygon fill="none" stroke="black" points="569.742,-2742.9 559.154,-2743.26 567.658,-2749.58 569.742,-2742.9"/>
</g>
<!-- \\NetCommonsGetTest -->
<g id="node8" class="node"><title>\\NetCommonsGetTest</title>
<polygon fill="none" stroke="black" points="1158,-2716.25 1028,-2716.25 1028,-2680.25 1158,-2680.25 1158,-2716.25"/>
<text text-anchor="middle" x="1093" y="-2695.35" font-family="Courier,monospace" font-size="11.00">NetCommonsGetTest</text>
</g>
<!-- \\NetCommonsGetTest&#45;&gt;\\NetCommonsModelTestCase -->
<g id="edge15" class="edge"><title>\\NetCommonsGetTest&#45;&gt;\\NetCommonsModelTestCase</title>
<path fill="none" stroke="black" d="M1027.25,-2698.25C988.664,-2698.25 939.217,-2698.25 896.305,-2698.25"/>
<polygon fill="none" stroke="black" points="896.12,-2694.75 886.12,-2698.25 896.12,-2701.75 896.12,-2694.75"/>
</g>
<!-- \\NetCommonsHelperTestCase -->
<g id="node9" class="node"><title>\\NetCommonsHelperTestCase</title>
<polygon fill="none" stroke="black" points="889,-2770.25 711,-2770.25 711,-2734.25 889,-2734.25 889,-2770.25"/>
<text text-anchor="middle" x="800" y="-2749.35" font-family="Courier,monospace" font-size="11.00">NetCommonsHelperTestCase</text>
</g>
<!-- \\NetCommonsHelperTestCase&#45;&gt;\\NetCommonsCakeTestCase -->
<g id="edge17" class="edge"><title>\\NetCommonsHelperTestCase&#45;&gt;\\NetCommonsCakeTestCase</title>
<path fill="none" stroke="black" d="M710.487,-2744.11C674.267,-2740.82 632.456,-2737.02 595.9,-2733.69"/>
<polygon fill="none" stroke="black" points="596.013,-2730.19 585.737,-2732.77 595.379,-2737.16 596.013,-2730.19"/>
</g>
<!-- \\NetCommonsControllerBaseTestCase -->
<g id="node10" class="node"><title>\\NetCommonsControllerBaseTestCase</title>
<polygon fill="none" stroke="black" points="916,-1474.25 684,-1474.25 684,-1438.25 916,-1438.25 916,-1474.25"/>
<text text-anchor="middle" x="800" y="-1453.35" font-family="Courier,monospace" font-size="11.00">NetCommonsControllerBaseTestCase</text>
</g>
<!-- \\ControllerTestCase -->
<g id="node75" class="node"><title>\\ControllerTestCase</title>
<ellipse fill="none" stroke="black" cx="503" cy="-324.249" rx="106.773" ry="18.3848"/>
<text text-anchor="middle" x="503" y="-320.649" font-family="Times Roman,serif" font-size="14.00" fill="gray">\ControllerTestCase</text>
</g>
<!-- \\NetCommonsControllerBaseTestCase&#45;&gt;\\ControllerTestCase -->
<g id="edge19" class="edge"><title>\\NetCommonsControllerBaseTestCase&#45;&gt;\\ControllerTestCase</title>
<path fill="none" stroke="black" d="M729.121,-1438.21C710.942,-1430.16 693.34,-1418.65 682,-1402.25 548.849,-1209.7 760.098,-530.901 610,-351.249 606.392,-346.93 602.203,-343.247 597.613,-340.11"/>
<polygon fill="none" stroke="black" points="599.357,-337.075 588.96,-335.035 595.816,-343.113 599.357,-337.075"/>
</g>
<!-- \\NetCommonsValidateTest -->
<g id="node11" class="node"><title>\\NetCommonsValidateTest</title>
<polygon fill="none" stroke="black" points="1175,-2662.25 1011,-2662.25 1011,-2626.25 1175,-2626.25 1175,-2662.25"/>
<text text-anchor="middle" x="1093" y="-2641.35" font-family="Courier,monospace" font-size="11.00">NetCommonsValidateTest</text>
</g>
<!-- \\NetCommonsValidateTest&#45;&gt;\\NetCommonsModelTestCase -->
<g id="edge21" class="edge"><title>\\NetCommonsValidateTest&#45;&gt;\\NetCommonsModelTestCase</title>
<path fill="none" stroke="black" d="M1010.21,-2659.51C974.791,-2666.03 933.196,-2673.7 896.397,-2680.48"/>
<polygon fill="none" stroke="black" points="895.354,-2677.12 886.154,-2682.37 896.623,-2684 895.354,-2677.12"/>
</g>
<!-- \\NetCommonsTestSuite -->
<g id="node12" class="node"><title>\\NetCommonsTestSuite</title>
<polygon fill="none" stroke="black" points="1165,-1258.25 1021,-1258.25 1021,-1222.25 1165,-1222.25 1165,-1258.25"/>
<text text-anchor="middle" x="1093" y="-1237.35" font-family="Courier,monospace" font-size="11.00">NetCommonsTestSuite</text>
</g>
<!-- \\CakeTestSuite -->
<g id="node78" class="node"><title>\\CakeTestSuite</title>
<ellipse fill="none" stroke="black" cx="800" cy="-378.249" rx="84.1457" ry="18.3848"/>
<text text-anchor="middle" x="800" y="-374.649" font-family="Times Roman,serif" font-size="14.00" fill="gray">\CakeTestSuite</text>
</g>
<!-- \\NetCommonsTestSuite&#45;&gt;\\CakeTestSuite -->
<g id="edge23" class="edge"><title>\\NetCommonsTestSuite&#45;&gt;\\CakeTestSuite</title>
<path fill="none" stroke="black" d="M1020.28,-1233.21C1008.69,-1228.97 997.933,-1222.64 990,-1213.25 872.965,-1074.69 1039.95,-534.505 918,-400.249 911.169,-392.729 902.661,-387.275 893.362,-383.373"/>
<polygon fill="none" stroke="black" points="894.427,-380.037 883.832,-379.97 892.072,-386.629 894.427,-380.037"/>
</g>
<!-- \\CakeTestCase -->
<g id="node80" class="node"><title>\\CakeTestCase</title>
<ellipse fill="none" stroke="black" cx="242" cy="-378.249" rx="82.0244" ry="18.3848"/>
<text text-anchor="middle" x="242" y="-374.649" font-family="Times Roman,serif" font-size="14.00" fill="gray">\CakeTestCase</text>
</g>
<!-- \\NetCommonsCakeTestCase&#45;&gt;\\CakeTestCase -->
<g id="edge25" class="edge"><title>\\NetCommonsCakeTestCase&#45;&gt;\\CakeTestCase</title>
<path fill="none" stroke="black" d="M501.184,-2707.13C490.26,-2597.81 432.549,-2014.82 396,-1538.25 386.312,-1411.92 404.249,-498.291 324,-400.249 322.285,-398.153 320.393,-396.245 318.359,-394.508"/>
<polygon fill="none" stroke="black" points="320.093,-391.451 309.883,-388.624 316.102,-397.201 320.093,-391.451"/>
</g>
<!-- \\NetCommonsSaveTest -->
<g id="node14" class="node"><title>\\NetCommonsSaveTest</title>
<polygon fill="none" stroke="black" points="1162,-2824.25 1024,-2824.25 1024,-2788.25 1162,-2788.25 1162,-2824.25"/>
<text text-anchor="middle" x="1093" y="-2803.35" font-family="Courier,monospace" font-size="11.00">NetCommonsSaveTest</text>
</g>
<!-- \\NetCommonsSaveTest&#45;&gt;\\NetCommonsModelTestCase -->
<g id="edge27" class="edge"><title>\\NetCommonsSaveTest&#45;&gt;\\NetCommonsModelTestCase</title>
<path fill="none" stroke="black" d="M1023.8,-2792.07C1012.23,-2788.59 1000.57,-2784.35 990,-2779.25 953.981,-2761.85 954.288,-2742.08 918,-2725.25 910.962,-2721.99 903.501,-2719.1 895.884,-2716.56"/>
<polygon fill="none" stroke="black" points="896.762,-2713.16 886.173,-2713.51 894.666,-2719.84 896.762,-2713.16"/>
</g>
<!-- \\NetCommonsModelTestCase&#45;&gt;\\NetCommonsCakeTestCase -->
<g id="edge29" class="edge"><title>\\NetCommonsModelTestCase&#45;&gt;\\NetCommonsCakeTestCase</title>
<path fill="none" stroke="black" d="M713.696,-2706.09C676.671,-2709.46 633.35,-2713.4 595.65,-2716.83"/>
<polygon fill="none" stroke="black" points="595.328,-2713.34 585.686,-2717.73 595.962,-2720.31 595.328,-2713.34"/>
</g>
<!-- \\NetCommonsControllerTestCase -->
<g id="node16" class="node"><title>\\NetCommonsControllerTestCase</title>
<polygon fill="none" stroke="black" points="1196,-1474.25 990,-1474.25 990,-1438.25 1196,-1438.25 1196,-1474.25"/>
<text text-anchor="middle" x="1093" y="-1453.35" font-family="Courier,monospace" font-size="11.00">NetCommonsControllerTestCase</text>
</g>
<!-- \\NetCommonsControllerTestCase&#45;&gt;\\NetCommonsControllerBaseTestCase -->
<g id="edge31" class="edge"><title>\\NetCommonsControllerTestCase&#45;&gt;\\NetCommonsControllerBaseTestCase</title>
<path fill="none" stroke="black" d="M989.699,-1456.25C969.381,-1456.25 947.845,-1456.25 926.858,-1456.25"/>
<polygon fill="none" stroke="black" points="926.606,-1452.75 916.606,-1456.25 926.606,-1459.75 926.606,-1452.75"/>
</g>
<!-- \\NetCommonsAppController -->
<g id="node17" class="node"><title>\\NetCommonsAppController</title>
<polygon fill="none" stroke="black" points="886,-1393.25 714,-1393.25 714,-1357.25 886,-1357.25 886,-1393.25"/>
<text text-anchor="middle" x="800" y="-1372.35" font-family="Courier,monospace" font-size="11.00">NetCommonsAppController</text>
</g>
<!-- \\NetCommonsAppController&#45;&gt;\\Controller -->
<g id="edge33" class="edge"><title>\\NetCommonsAppController&#45;&gt;\\Controller</title>
<path fill="none" stroke="black" d="M729.14,-1357.2C710.961,-1349.15 693.355,-1337.64 682,-1321.25 552.085,-1133.74 776.864,-452.792 610,-297.249 522.378,-215.571 365.724,-255.672 288.144,-282.989"/>
<polygon fill="none" stroke="black" points="286.858,-279.732 278.636,-286.414 289.23,-286.318 286.858,-279.732"/>
</g>
<!-- \\AssetComponent -->
<g id="node18" class="node"><title>\\AssetComponent</title>
<polygon fill="none" stroke="black" points="1148,-1096.25 1038,-1096.25 1038,-1060.25 1148,-1060.25 1148,-1096.25"/>
<text text-anchor="middle" x="1093" y="-1075.35" font-family="Courier,monospace" font-size="11.00">AssetComponent</text>
</g>
<!-- \\Component -->
<g id="node86" class="node"><title>\\Component</title>
<ellipse fill="none" stroke="black" cx="800" cy="-324.249" rx="70.9184" ry="18.3848"/>
<text text-anchor="middle" x="800" y="-320.649" font-family="Times Roman,serif" font-size="14.00" fill="gray">\Component</text>
</g>
<!-- \\AssetComponent&#45;&gt;\\Component -->
<g id="edge35" class="edge"><title>\\AssetComponent&#45;&gt;\\Component</title>
<path fill="none" stroke="black" d="M1037.47,-1075.87C1019.83,-1072.26 1001.85,-1065.08 990,-1051.25 786.502,-813.756 1125.2,-585.515 918,-351.249 908.271,-340.249 895.062,-333.243 880.998,-328.869"/>
<polygon fill="none" stroke="black" points="881.72,-325.44 871.156,-326.245 879.917,-332.203 881.72,-325.44"/>
</g>
<!-- \\NetCommonsTimeComponent -->
<g id="node19" class="node"><title>\\NetCommonsTimeComponent</title>
<polygon fill="none" stroke="black" points="1179,-1042.25 1007,-1042.25 1007,-1006.25 1179,-1006.25 1179,-1042.25"/>
<text text-anchor="middle" x="1093" y="-1021.35" font-family="Courier,monospace" font-size="11.00">NetCommonsTimeComponent</text>
</g>
<!-- \\NetCommonsTimeComponent&#45;&gt;\\Component -->
<g id="edge37" class="edge"><title>\\NetCommonsTimeComponent&#45;&gt;\\Component</title>
<path fill="none" stroke="black" d="M1006.61,-1010.7C1000.38,-1007.12 994.714,-1002.7 990,-997.249 801.099,-778.678 1110.31,-566.824 918,-351.249 908.225,-340.291 894.994,-333.303 880.924,-328.935"/>
<polygon fill="none" stroke="black" points="881.644,-325.505 871.08,-326.313 879.842,-332.269 881.644,-325.505"/>
</g>
<!-- \\PermissionComponent -->
<g id="node20" class="node"><title>\\PermissionComponent</title>
<polygon fill="none" stroke="black" points="1165,-988.249 1021,-988.249 1021,-952.249 1165,-952.249 1165,-988.249"/>
<text text-anchor="middle" x="1093" y="-967.349" font-family="Courier,monospace" font-size="11.00">PermissionComponent</text>
</g>
<!-- \\PermissionComponent&#45;&gt;\\Component -->
<g id="edge39" class="edge"><title>\\PermissionComponent&#45;&gt;\\Component</title>
<path fill="none" stroke="black" d="M1020.27,-962.896C1008.76,-958.686 998.024,-952.44 990,-943.249 815.683,-743.586 1095.43,-548.148 918,-351.249 908.227,-340.403 895.069,-333.456 881.082,-329.089"/>
<polygon fill="none" stroke="black" points="881.864,-325.675 871.298,-326.462 880.049,-332.436 881.864,-325.675"/>
</g>
<!-- \\NetCommonsComponent -->
<g id="node21" class="node"><title>\\NetCommonsComponent</title>
<polygon fill="none" stroke="black" points="1165,-1204.25 1021,-1204.25 1021,-1168.25 1165,-1168.25 1165,-1204.25"/>
<text text-anchor="middle" x="1093" y="-1183.35" font-family="Courier,monospace" font-size="11.00">NetCommonsComponent</text>
</g>
<!-- \\NetCommonsComponent&#45;&gt;\\Component -->
<g id="edge41" class="edge"><title>\\NetCommonsComponent&#45;&gt;\\Component</title>
<path fill="none" stroke="black" d="M1020.28,-1179.2C1008.7,-1174.97 997.935,-1168.64 990,-1159.25 873.641,-1021.56 1036.51,-487.087 918,-351.249 908.346,-340.183 895.171,-333.147 881.117,-328.765"/>
<polygon fill="none" stroke="black" points="881.843,-325.336 871.278,-326.138 880.037,-332.099 881.843,-325.336"/>
</g>
<!-- \\NetCommonsController -->
<g id="node22" class="node"><title>\\NetCommonsController</title>
<polygon fill="none" stroke="black" points="1169,-1420.25 1017,-1420.25 1017,-1384.25 1169,-1384.25 1169,-1420.25"/>
<text text-anchor="middle" x="1093" y="-1399.35" font-family="Courier,monospace" font-size="11.00">NetCommonsController</text>
</g>
<!-- \\NetCommonsController&#45;&gt;\\NetCommonsAppController -->
<g id="edge43" class="edge"><title>\\NetCommonsController&#45;&gt;\\NetCommonsAppController</title>
<path fill="none" stroke="black" d="M1016.78,-1395.23C980.049,-1391.84 935.59,-1387.74 896.519,-1384.14"/>
<polygon fill="none" stroke="black" points="896.462,-1380.62 886.183,-1383.19 895.82,-1387.59 896.462,-1380.62"/>
</g>
<!-- \\NetCommonsUrl -->
<g id="node23" class="node"><title>\\NetCommonsUrl</title>
<polygon fill="none" stroke="black" points="1145,-2338.25 1041,-2338.25 1041,-2302.25 1145,-2302.25 1145,-2338.25"/>
<text text-anchor="middle" x="1093" y="-2317.35" font-family="Courier,monospace" font-size="11.00">NetCommonsUrl</text>
</g>
<!-- \\NetCommonsTime -->
<g id="node24" class="node"><title>\\NetCommonsTime</title>
<polygon fill="none" stroke="black" points="1148,-2284.25 1038,-2284.25 1038,-2248.25 1148,-2248.25 1148,-2284.25"/>
<text text-anchor="middle" x="1093" y="-2263.35" font-family="Courier,monospace" font-size="11.00">NetCommonsTime</text>
</g>
<!-- \\CurrentBase -->
<g id="node25" class="node"><title>\\CurrentBase</title>
<polygon fill="none" stroke="black" points="845,-2554.25 755,-2554.25 755,-2518.25 845,-2518.25 845,-2554.25"/>
<text text-anchor="middle" x="800" y="-2533.35" font-family="Courier,monospace" font-size="11.00">CurrentBase</text>
</g>
<!-- \\Current -->
<g id="node26" class="node"><title>\\Current</title>
<polygon fill="none" stroke="black" points="1125,-2554.25 1061,-2554.25 1061,-2518.25 1125,-2518.25 1125,-2554.25"/>
<text text-anchor="middle" x="1093" y="-2533.35" font-family="Courier,monospace" font-size="11.00">Current</text>
</g>
<!-- \\Current&#45;&gt;\\CurrentBase -->
<g id="edge45" class="edge"><title>\\Current&#45;&gt;\\CurrentBase</title>
<path fill="none" stroke="black" d="M1060.81,-2536.25C1011.48,-2536.25 916.554,-2536.25 855.846,-2536.25"/>
<polygon fill="none" stroke="black" points="855.669,-2532.75 845.669,-2536.25 855.669,-2539.75 855.669,-2532.75"/>
</g>
<!-- \\CurrentSystem -->
<g id="node27" class="node"><title>\\CurrentSystem</title>
<polygon fill="none" stroke="black" points="1145,-2176.25 1041,-2176.25 1041,-2140.25 1145,-2140.25 1145,-2176.25"/>
<text text-anchor="middle" x="1093" y="-2155.35" font-family="Courier,monospace" font-size="11.00">CurrentSystem</text>
</g>
<!-- \\CurrentPage -->
<g id="node28" class="node"><title>\\CurrentPage</title>
<polygon fill="none" stroke="black" points="1138,-2122.25 1048,-2122.25 1048,-2086.25 1138,-2086.25 1138,-2122.25"/>
<text text-anchor="middle" x="1093" y="-2101.35" font-family="Courier,monospace" font-size="11.00">CurrentPage</text>
</g>
<!-- \\CurrentFrame -->
<g id="node29" class="node"><title>\\CurrentFrame</title>
<polygon fill="none" stroke="black" points="1142,-2068.25 1044,-2068.25 1044,-2032.25 1142,-2032.25 1142,-2068.25"/>
<text text-anchor="middle" x="1093" y="-2047.35" font-family="Courier,monospace" font-size="11.00">CurrentFrame</text>
</g>
<!-- \\TokenHelper -->
<g id="node30" class="node"><title>\\TokenHelper</title>
<polygon fill="none" stroke="black" points="1138,-826.249 1048,-826.249 1048,-790.249 1138,-790.249 1138,-826.249"/>
<text text-anchor="middle" x="1093" y="-805.349" font-family="Courier,monospace" font-size="11.00">TokenHelper</text>
</g>
<!-- \\FormHelper -->
<g id="node93" class="node"><title>\\FormHelper</title>
<ellipse fill="none" stroke="black" cx="800" cy="-270.249" rx="70.9184" ry="18.3848"/>
<text text-anchor="middle" x="800" y="-266.649" font-family="Times Roman,serif" font-size="14.00" fill="gray">\FormHelper</text>
</g>
<!-- \\TokenHelper&#45;&gt;\\FormHelper -->
<g id="edge47" class="edge"><title>\\TokenHelper&#45;&gt;\\FormHelper</title>
<path fill="none" stroke="black" d="M1047.39,-807.217C1027,-804.314 1004.38,-797.282 990,-781.249 844.8,-619.342 1065.73,-456.854 918,-297.249 908.083,-286.535 894.859,-279.647 880.853,-275.298"/>
<polygon fill="none" stroke="black" points="881.628,-271.882 871.063,-272.677 879.818,-278.644 881.628,-271.882"/>
</g>
<!-- \\SingletonViewBlockHtmlHelper -->
<g id="node31" class="node"><title>\\SingletonViewBlockHtmlHelper</title>
<polygon fill="none" stroke="black" points="1196,-772.249 990,-772.249 990,-736.249 1196,-736.249 1196,-772.249"/>
<text text-anchor="middle" x="1093" y="-751.349" font-family="Courier,monospace" font-size="11.00">SingletonViewBlockHtmlHelper</text>
</g>
<!-- \\HtmlHelper -->
<g id="node95" class="node"><title>\\HtmlHelper</title>
<ellipse fill="none" stroke="black" cx="800" cy="-216.249" rx="67.1751" ry="18.3848"/>
<text text-anchor="middle" x="800" y="-212.649" font-family="Times Roman,serif" font-size="14.00" fill="gray">HtmlHelper</text>
</g>
<!-- \\SingletonViewBlockHtmlHelper&#45;&gt;\\HtmlHelper -->
<g id="edge49" class="edge"><title>\\SingletonViewBlockHtmlHelper&#45;&gt;\\HtmlHelper</title>
<path fill="none" stroke="black" d="M999.844,-736.054C996.274,-733.473 992.962,-730.552 990,-727.249 844.8,-565.342 1065.73,-402.854 918,-243.249 907.227,-231.609 892.55,-224.486 877.208,-220.227"/>
<polygon fill="none" stroke="black" points="877.602,-216.724 867.065,-217.824 875.988,-223.535 877.602,-216.724"/>
</g>
<!-- \\FormInputHelper -->
<g id="node32" class="node"><title>\\FormInputHelper</title>
<polygon fill="none" stroke="black" points="1152,-2392.25 1034,-2392.25 1034,-2356.25 1152,-2356.25 1152,-2392.25"/>
<text text-anchor="middle" x="1093" y="-2371.35" font-family="Courier,monospace" font-size="11.00">FormInputHelper</text>
</g>
<!-- \\FormInputHelper&#45;&gt;\\AppHelper -->
<g id="edge51" class="edge"><title>\\FormInputHelper&#45;&gt;\\AppHelper</title>
<path fill="none" stroke="black" d="M1033.99,-2368.81C1018.17,-2364.85 1002.12,-2358.23 990,-2347.25 840.846,-2212.09 808.432,-1949.12 801.693,-1862.6"/>
<polygon fill="none" stroke="black" points="805.174,-1862.21 800.962,-1852.49 798.192,-1862.72 805.174,-1862.21"/>
</g>
<!-- \\WizardHelper -->
<g id="node33" class="node"><title>\\WizardHelper</title>
<polygon fill="none" stroke="black" points="1142,-2230.25 1044,-2230.25 1044,-2194.25 1142,-2194.25 1142,-2230.25"/>
<text text-anchor="middle" x="1093" y="-2209.35" font-family="Courier,monospace" font-size="11.00">WizardHelper</text>
</g>
<!-- \\WizardHelper&#45;&gt;\\AppHelper -->
<g id="edge53" class="edge"><title>\\WizardHelper&#45;&gt;\\AppHelper</title>
<path fill="none" stroke="black" d="M1043.97,-2207.71C1025.53,-2203.99 1005.34,-2197.29 990,-2185.25 879.54,-2098.54 824.898,-1929.15 806.922,-1862.32"/>
<polygon fill="none" stroke="black" points="810.271,-1861.29 804.349,-1852.51 803.499,-1863.07 810.271,-1861.29"/>
</g>
<!-- \\DisplayNumberHelper -->
<g id="node34" class="node"><title>\\DisplayNumberHelper</title>
<polygon fill="none" stroke="black" points="1165,-2014.25 1021,-2014.25 1021,-1978.25 1165,-1978.25 1165,-2014.25"/>
<text text-anchor="middle" x="1093" y="-1993.35" font-family="Courier,monospace" font-size="11.00">DisplayNumberHelper</text>
</g>
<!-- \\DisplayNumberHelper&#45;&gt;\\AppHelper -->
<g id="edge55" class="edge"><title>\\DisplayNumberHelper&#45;&gt;\\AppHelper</title>
<path fill="none" stroke="black" d="M1020.35,-1980.75C1009.95,-1977.52 999.547,-1973.71 990,-1969.25 927.211,-1939.91 863.394,-1889.41 828.029,-1859.19"/>
<polygon fill="none" stroke="black" points="829.944,-1856.21 820.087,-1852.33 825.369,-1861.51 829.944,-1856.21"/>
</g>
<!-- \\MessageFlashHelper -->
<g id="node35" class="node"><title>\\MessageFlashHelper</title>
<polygon fill="none" stroke="black" points="1162,-1960.25 1024,-1960.25 1024,-1924.25 1162,-1924.25 1162,-1960.25"/>
<text text-anchor="middle" x="1093" y="-1939.35" font-family="Courier,monospace" font-size="11.00">MessageFlashHelper</text>
</g>
<!-- \\MessageFlashHelper&#45;&gt;\\AppHelper -->
<g id="edge57" class="edge"><title>\\MessageFlashHelper&#45;&gt;\\AppHelper</title>
<path fill="none" stroke="black" d="M1023.88,-1925.63C1012.48,-1922.46 1000.84,-1918.96 990,-1915.25 940.27,-1898.23 885.199,-1874.15 847.206,-1856.67"/>
<polygon fill="none" stroke="black" points="848.474,-1853.4 837.929,-1852.37 845.534,-1859.75 848.474,-1853.4"/>
</g>
<!-- \\DateHelper -->
<g id="node36" class="node"><title>\\DateHelper</title>
<polygon fill="none" stroke="black" points="1135,-1906.25 1051,-1906.25 1051,-1870.25 1135,-1870.25 1135,-1906.25"/>
<text text-anchor="middle" x="1093" y="-1885.35" font-family="Courier,monospace" font-size="11.00">DateHelper</text>
</g>
<!-- \\DateHelper&#45;&gt;\\AppHelper -->
<g id="edge59" class="edge"><title>\\DateHelper&#45;&gt;\\AppHelper</title>
<path fill="none" stroke="black" d="M1050.71,-1880.45C997.148,-1870.58 905.059,-1853.61 848.643,-1843.21"/>
<polygon fill="none" stroke="black" points="849.01,-1839.72 838.542,-1841.35 847.742,-1846.61 849.01,-1839.72"/>
</g>
<!-- \\SnsButtonHelper -->
<g id="node37" class="node"><title>\\SnsButtonHelper</title>
<polygon fill="none" stroke="black" points="1152,-1852.25 1034,-1852.25 1034,-1816.25 1152,-1816.25 1152,-1852.25"/>
<text text-anchor="middle" x="1093" y="-1831.35" font-family="Courier,monospace" font-size="11.00">SnsButtonHelper</text>
</g>
<!-- \\SnsButtonHelper&#45;&gt;\\AppHelper -->
<g id="edge61" class="edge"><title>\\SnsButtonHelper&#45;&gt;\\AppHelper</title>
<path fill="none" stroke="black" d="M1033.71,-1834.25C979.266,-1834.25 899.563,-1834.25 848.738,-1834.25"/>
<polygon fill="none" stroke="black" points="848.663,-1830.75 838.663,-1834.25 848.662,-1837.75 848.663,-1830.75"/>
</g>
<!-- \\BackToHelper -->
<g id="node38" class="node"><title>\\BackToHelper</title>
<polygon fill="none" stroke="black" points="1142,-1798.25 1044,-1798.25 1044,-1762.25 1142,-1762.25 1142,-1798.25"/>
<text text-anchor="middle" x="1093" y="-1777.35" font-family="Courier,monospace" font-size="11.00">BackToHelper</text>
</g>
<!-- \\BackToHelper&#45;&gt;\\AppHelper -->
<g id="edge63" class="edge"><title>\\BackToHelper&#45;&gt;\\AppHelper</title>
<path fill="none" stroke="black" d="M1043.96,-1789.29C989.78,-1799.27 903.056,-1815.26 848.925,-1825.23"/>
<polygon fill="none" stroke="black" points="848.082,-1821.83 838.882,-1827.08 849.351,-1828.71 848.082,-1821.83"/>
</g>
<!-- \\NetCommonsHtmlHelper -->
<g id="node39" class="node"><title>\\NetCommonsHtmlHelper</title>
<polygon fill="none" stroke="black" points="1169,-1744.25 1017,-1744.25 1017,-1708.25 1169,-1708.25 1169,-1744.25"/>
<text text-anchor="middle" x="1093" y="-1723.35" font-family="Courier,monospace" font-size="11.00">NetCommonsHtmlHelper</text>
</g>
<!-- \\NetCommonsHtmlHelper&#45;&gt;\\AppHelper -->
<g id="edge65" class="edge"><title>\\NetCommonsHtmlHelper&#45;&gt;\\AppHelper</title>
<path fill="none" stroke="black" d="M1018.9,-1744.27C1009.12,-1747.06 999.27,-1750.08 990,-1753.25 940.27,-1770.26 885.199,-1794.35 847.206,-1811.83"/>
<polygon fill="none" stroke="black" points="845.534,-1808.75 837.929,-1816.12 848.474,-1815.1 845.534,-1808.75"/>
</g>
<!-- \\ButtonHelper -->
<g id="node40" class="node"><title>\\ButtonHelper</title>
<polygon fill="none" stroke="black" points="1142,-934.249 1044,-934.249 1044,-898.249 1142,-898.249 1142,-934.249"/>
<text text-anchor="middle" x="1093" y="-913.349" font-family="Courier,monospace" font-size="11.00">ButtonHelper</text>
</g>
<!-- \\ButtonHelper&#45;&gt;\\FormHelper -->
<g id="edge67" class="edge"><title>\\ButtonHelper&#45;&gt;\\FormHelper</title>
<path fill="none" stroke="black" d="M1043.76,-914.867C1024.27,-911.706 1003.37,-904.567 990,-889.249 815.683,-689.586 1095.43,-494.148 918,-297.249 908.227,-286.403 895.069,-279.456 881.082,-275.089"/>
<polygon fill="none" stroke="black" points="881.864,-271.675 871.298,-272.462 880.049,-278.436 881.864,-271.675"/>
</g>
<!-- \\ComposerHelper -->
<g id="node41" class="node"><title>\\ComposerHelper</title>
<polygon fill="none" stroke="black" points="1148,-1690.25 1038,-1690.25 1038,-1654.25 1148,-1654.25 1148,-1690.25"/>
<text text-anchor="middle" x="1093" y="-1669.35" font-family="Courier,monospace" font-size="11.00">ComposerHelper</text>
</g>
<!-- \\ComposerHelper&#45;&gt;\\AppHelper -->
<g id="edge69" class="edge"><title>\\ComposerHelper&#45;&gt;\\AppHelper</title>
<path fill="none" stroke="black" d="M1037.45,-1682.91C1021.71,-1686.96 1004.82,-1692.32 990,-1699.25 927.211,-1728.58 863.394,-1779.09 828.029,-1809.31"/>
<polygon fill="none" stroke="black" points="825.369,-1806.98 820.087,-1816.17 829.944,-1812.28 825.369,-1806.98"/>
</g>
<!-- \\LinkButtonHelper -->
<g id="node42" class="node"><title>\\LinkButtonHelper</title>
<polygon fill="none" stroke="black" points="1155,-880.249 1031,-880.249 1031,-844.249 1155,-844.249 1155,-880.249"/>
<text text-anchor="middle" x="1093" y="-859.349" font-family="Courier,monospace" font-size="11.00">LinkButtonHelper</text>
</g>
<!-- \\LinkButtonHelper&#45;&gt;\\FormHelper -->
<g id="edge71" class="edge"><title>\\LinkButtonHelper&#45;&gt;\\FormHelper</title>
<path fill="none" stroke="black" d="M1030.45,-857.963C1015.26,-853.955 1000.41,-847.023 990,-835.249 830.252,-654.476 1080.57,-475.489 918,-297.249 908.162,-286.462 894.974,-279.542 880.979,-275.183"/>
<polygon fill="none" stroke="black" points="881.757,-271.768 871.192,-272.559 879.944,-278.529 881.757,-271.768"/>
</g>
<!-- \\TableListHelper -->
<g id="node43" class="node"><title>\\TableListHelper</title>
<polygon fill="none" stroke="black" points="1152,-1636.25 1034,-1636.25 1034,-1600.25 1152,-1600.25 1152,-1636.25"/>
<text text-anchor="middle" x="1093" y="-1615.35" font-family="Courier,monospace" font-size="11.00">TableListHelper</text>
</g>
<!-- \\TableListHelper&#45;&gt;\\AppHelper -->
<g id="edge73" class="edge"><title>\\TableListHelper&#45;&gt;\\AppHelper</title>
<path fill="none" stroke="black" d="M1033.98,-1628.07C1019.02,-1632.05 1003.4,-1637.58 990,-1645.25 915.721,-1687.73 850.104,-1766.73 819.041,-1807.84"/>
<polygon fill="none" stroke="black" points="816.119,-1805.9 812.946,-1816.01 821.73,-1810.09 816.119,-1805.9"/>
</g>
<!-- \\NetCommonsTimeHelper -->
<g id="node44" class="node"><title>\\NetCommonsTimeHelper</title>
<polygon fill="none" stroke="black" points="1169,-1582.25 1017,-1582.25 1017,-1546.25 1169,-1546.25 1169,-1582.25"/>
<text text-anchor="middle" x="1093" y="-1561.35" font-family="Courier,monospace" font-size="11.00">NetCommonsTimeHelper</text>
</g>
<!-- \\NetCommonsTimeHelper&#45;&gt;\\AppHelper -->
<g id="edge75" class="edge"><title>\\NetCommonsTimeHelper&#45;&gt;\\AppHelper</title>
<path fill="none" stroke="black" d="M1016.86,-1578.1C1007.4,-1581.55 998.186,-1585.86 990,-1591.25 904.042,-1647.78 840.094,-1756.32 813.531,-1806.97"/>
<polygon fill="none" stroke="black" points="810.341,-1805.52 808.865,-1816.01 816.562,-1808.73 810.341,-1805.52"/>
</g>
<!-- \\NetCommonsFormHelper -->
<g id="node45" class="node"><title>\\NetCommonsFormHelper</title>
<polygon fill="none" stroke="black" points="1169,-1528.25 1017,-1528.25 1017,-1492.25 1169,-1492.25 1169,-1528.25"/>
<text text-anchor="middle" x="1093" y="-1507.35" font-family="Courier,monospace" font-size="11.00">NetCommonsFormHelper</text>
</g>
<!-- \\NetCommonsFormHelper&#45;&gt;\\AppHelper -->
<g id="edge77" class="edge"><title>\\NetCommonsFormHelper&#45;&gt;\\AppHelper</title>
<path fill="none" stroke="black" d="M1016.89,-1523.18C1007.32,-1526.78 998.072,-1531.38 990,-1537.25 939.522,-1573.98 848.866,-1740.72 814.1,-1806.98"/>
<polygon fill="none" stroke="black" points="810.916,-1805.52 809.388,-1816 817.121,-1808.76 810.916,-1805.52"/>
</g>
<!-- \\TitleIconHelper -->
<g id="node46" class="node"><title>\\TitleIconHelper</title>
<polygon fill="none" stroke="black" points="1152,-2500.25 1034,-2500.25 1034,-2464.25 1152,-2464.25 1152,-2500.25"/>
<text text-anchor="middle" x="1093" y="-2479.35" font-family="Courier,monospace" font-size="11.00">TitleIconHelper</text>
</g>
<!-- \\TitleIconHelper&#45;&gt;\\AppHelper -->
<g id="edge79" class="edge"><title>\\TitleIconHelper&#45;&gt;\\AppHelper</title>
<path fill="none" stroke="black" d="M1033.84,-2477.32C1017.93,-2473.38 1001.87,-2466.64 990,-2455.25 900.476,-2369.28 824.404,-1971.86 804.863,-1862.29"/>
<polygon fill="none" stroke="black" points="808.289,-1861.56 803.101,-1852.32 801.396,-1862.78 808.289,-1861.56"/>
</g>
<!-- \\DatetimePickerHelper -->
<g id="node47" class="node"><title>\\DatetimePickerHelper</title>
<polygon fill="none" stroke="black" points="1169,-2446.25 1017,-2446.25 1017,-2410.25 1169,-2410.25 1169,-2446.25"/>
<text text-anchor="middle" x="1093" y="-2425.35" font-family="Courier,monospace" font-size="11.00">DatetimePickerHelper</text>
</g>
<!-- \\DatetimePickerHelper&#45;&gt;\\AppHelper -->
<g id="edge81" class="edge"><title>\\DatetimePickerHelper&#45;&gt;\\AppHelper</title>
<path fill="none" stroke="black" d="M1017,-2417.72C1007.07,-2413.78 997.696,-2408.45 990,-2401.25 907.245,-2323.86 827.482,-1966.24 805.771,-1862.52"/>
<polygon fill="none" stroke="black" points="809.147,-1861.56 803.686,-1852.48 802.293,-1862.99 809.147,-1861.56"/>
</g>
<!-- \\Model -->
<g id="node113" class="node"><title>\\Model</title>
<ellipse fill="none" stroke="black" cx="44" cy="-2887.25" rx="43.8406" ry="18.3848"/>
<text text-anchor="middle" x="44" y="-2883.65" font-family="Times Roman,serif" font-size="14.00" fill="gray">\Model</text>
</g>
<!-- \\NetCommonsAppModel&#45;&gt;\\Model -->
<g id="edge83" class="edge"><title>\\NetCommonsAppModel&#45;&gt;\\Model</title>
<path fill="none" stroke="black" d="M172.749,-2887.25C148.379,-2887.25 121.357,-2887.25 98.3871,-2887.25"/>
<polygon fill="none" stroke="black" points="98.1425,-2883.75 88.1425,-2887.25 98.1424,-2890.75 98.1425,-2883.75"/>
</g>
<!-- \\OriginalKeyBehavior -->
<g id="node49" class="node"><title>\\OriginalKeyBehavior</title>
<polygon fill="none" stroke="black" points="1165,-664.249 1021,-664.249 1021,-628.249 1165,-628.249 1165,-664.249"/>
<text text-anchor="middle" x="1093" y="-643.349" font-family="Courier,monospace" font-size="11.00">OriginalKeyBehavior</text>
</g>
<!-- \\ModelBehavior -->
<g id="node115" class="node"><title>\\ModelBehavior</title>
<ellipse fill="none" stroke="black" cx="800" cy="-162.249" rx="86.9741" ry="18.3848"/>
<text text-anchor="middle" x="800" y="-158.649" font-family="Times Roman,serif" font-size="14.00" fill="gray">\ModelBehavior</text>
</g>
<!-- \\OriginalKeyBehavior&#45;&gt;\\ModelBehavior -->
<g id="edge85" class="edge"><title>\\OriginalKeyBehavior&#45;&gt;\\ModelBehavior</title>
<path fill="none" stroke="black" d="M1020.34,-638.499C1008.9,-634.322 998.166,-628.189 990,-619.249 859.318,-476.176 1050.91,-330.25 918,-189.249 910.736,-181.542 901.758,-175.824 892.025,-171.609"/>
<polygon fill="none" stroke="black" points="893.083,-168.267 882.491,-168.013 890.613,-174.817 893.083,-168.267"/>
</g>
<!-- \\TrackableBehavior -->
<g id="node50" class="node"><title>\\TrackableBehavior</title>
<polygon fill="none" stroke="black" points="1158,-718.249 1028,-718.249 1028,-682.249 1158,-682.249 1158,-718.249"/>
<text text-anchor="middle" x="1093" y="-697.349" font-family="Courier,monospace" font-size="11.00">TrackableBehavior</text>
</g>
<!-- \\TrackableBehavior&#45;&gt;\\ModelBehavior -->
<g id="edge87" class="edge"><title>\\TrackableBehavior&#45;&gt;\\ModelBehavior</title>
<path fill="none" stroke="black" d="M1027.36,-694.968C1013.29,-690.854 999.75,-684.121 990,-673.249 844.8,-511.342 1065.73,-348.854 918,-189.249 910.86,-181.535 902.006,-175.804 892.38,-171.577"/>
<polygon fill="none" stroke="black" points="893.536,-168.272 882.945,-167.969 891.035,-174.81 893.536,-168.272"/>
</g>
<!-- \\YAExceptionRenderer -->
<g id="node51" class="node"><title>\\YAExceptionRenderer</title>
<polygon fill="none" stroke="black" points="1165,-610.249 1021,-610.249 1021,-574.249 1165,-574.249 1165,-610.249"/>
<text text-anchor="middle" x="1093" y="-589.349" font-family="Courier,monospace" font-size="11.00">YAExceptionRenderer</text>
</g>
<!-- \\ExceptionRenderer -->
<g id="node118" class="node"><title>\\ExceptionRenderer</title>
<ellipse fill="none" stroke="black" cx="800" cy="-108.249" rx="118.087" ry="18.3848"/>
<text text-anchor="middle" x="800" y="-104.649" font-family="Times Roman,serif" font-size="14.00" fill="gray">TEHxceptionRenderer</text>
</g>
<!-- \\YAExceptionRenderer&#45;&gt;\\ExceptionRenderer -->
<g id="edge89" class="edge"><title>\\YAExceptionRenderer&#45;&gt;\\ExceptionRenderer</title>
<path fill="none" stroke="black" d="M1020.34,-584.499C1008.9,-580.322 998.166,-574.189 990,-565.249 859.318,-422.176 1050.91,-276.25 918,-135.249 913.844,-130.84 909.128,-127.082 904.031,-123.884"/>
<polygon fill="none" stroke="black" points="905.577,-120.74 895.123,-119.015 902.219,-126.883 905.577,-120.74"/>
</g>
<!-- \\NetCommonsMigration -->
<g id="node52" class="node"><title>\\NetCommonsMigration</title>
<polygon fill="none" stroke="black" points="872,-1312.25 728,-1312.25 728,-1276.25 872,-1276.25 872,-1312.25"/>
<text text-anchor="middle" x="800" y="-1291.35" font-family="Courier,monospace" font-size="11.00">NetCommonsMigration</text>
</g>
<!-- \\CakeMigration -->
<g id="node120" class="node"><title>\\CakeMigration</title>
<ellipse fill="none" stroke="black" cx="503" cy="-120.249" rx="84.8528" ry="18.3848"/>
<text text-anchor="middle" x="503" y="-116.649" font-family="Times Roman,serif" font-size="14.00" fill="gray">\CakeMigration</text>
</g>
<!-- \\NetCommonsMigration&#45;&gt;\\CakeMigration -->
<g id="edge91" class="edge"><title>\\NetCommonsMigration&#45;&gt;\\CakeMigration</title>
<path fill="none" stroke="black" d="M727.259,-1295.42C710.173,-1292.08 693.59,-1285.23 682,-1272.25 532.427,-1104.74 688.095,-474.803 610,-264.249 592.551,-217.205 554.691,-172.345 529.018,-145.55"/>
<polygon fill="none" stroke="black" points="531.293,-142.869 521.803,-138.158 526.283,-147.759 531.293,-142.869"/>
</g>
<!-- \\HolidaysController -->
<g id="node53" class="node"><title>\\HolidaysController</title>
<polygon fill="none" stroke="black" points="1162,-2608.25 1024,-2608.25 1024,-2572.25 1162,-2572.25 1162,-2608.25"/>
<text text-anchor="middle" x="1093" y="-2587.35" font-family="Courier,monospace" font-size="11.00">HolidaysController</text>
</g>
<!-- \\HolidaysAppController -->
<g id="node55" class="node"><title>\\HolidaysAppController</title>
<polygon fill="none" stroke="black" points="879,-2608.25 721,-2608.25 721,-2572.25 879,-2572.25 879,-2608.25"/>
<text text-anchor="middle" x="800" y="-2587.35" font-family="Courier,monospace" font-size="11.00">HolidaysAppController</text>
</g>
<!-- \\HolidaysController&#45;&gt;\\HolidaysAppController -->
<g id="edge93" class="edge"><title>\\HolidaysController&#45;&gt;\\HolidaysAppController</title>
<path fill="none" stroke="black" d="M1023.93,-2590.25C983.759,-2590.25 932.68,-2590.25 889.454,-2590.25"/>
<polygon fill="none" stroke="black" points="889.219,-2586.75 879.219,-2590.25 889.219,-2593.75 889.219,-2586.75"/>
</g>
<!-- \\HolidaysComponent -->
<g id="node54" class="node"><title>\\HolidaysComponent</title>
<polygon fill="none" stroke="black" points="1158,-1150.25 1028,-1150.25 1028,-1114.25 1158,-1114.25 1158,-1150.25"/>
<text text-anchor="middle" x="1093" y="-1129.35" font-family="Courier,monospace" font-size="11.00">HolidaysComponent</text>
</g>
<!-- \\HolidaysComponent&#45;&gt;\\Component -->
<g id="edge95" class="edge"><title>\\HolidaysComponent&#45;&gt;\\Component</title>
<path fill="none" stroke="black" d="M1027.48,-1127.48C1013.23,-1123.38 999.582,-1116.51 990,-1105.25 880.948,-977.036 1029.05,-477.732 918,-351.249 908.311,-340.214 895.121,-333.191 881.061,-328.813"/>
<polygon fill="none" stroke="black" points="881.786,-325.384 871.222,-326.188 879.981,-332.147 881.786,-325.384"/>
</g>
<!-- \\HolidaysAppController&#45;&gt;\\AppController -->
<g id="edge97" class="edge"><title>\\HolidaysAppController&#45;&gt;\\AppController</title>
<path fill="none" stroke="black" d="M720.859,-2585.5C706.275,-2581.19 692.393,-2574.25 682,-2563.25 536.591,-2409.4 508.148,-1691.88 503.718,-1539.67"/>
<polygon fill="none" stroke="black" points="507.207,-1539.22 503.429,-1529.32 500.21,-1539.42 507.207,-1539.22"/>
</g>
<!-- \\HolidaysAppModel -->
<g id="node56" class="node"><title>\\HolidaysAppModel</title>
<polygon fill="none" stroke="black" points="862,-2932.25 738,-2932.25 738,-2896.25 862,-2896.25 862,-2932.25"/>
<text text-anchor="middle" x="800" y="-2911.35" font-family="Courier,monospace" font-size="11.00">HolidaysAppModel</text>
</g>
<!-- \\HolidaysAppModel&#45;&gt;\\AppModel -->
<g id="edge99" class="edge"><title>\\HolidaysAppModel&#45;&gt;\\AppModel</title>
<path fill="none" stroke="black" d="M737.377,-2908.56C680.854,-2903.42 599.041,-2895.98 548.531,-2891.39"/>
<polygon fill="none" stroke="black" points="548.832,-2887.9 538.556,-2890.48 548.198,-2894.87 548.832,-2887.9"/>
</g>
<!-- \\HolidayRrule -->
<g id="node57" class="node"><title>\\HolidayRrule</title>
<polygon fill="none" stroke="black" points="1142,-2878.25 1044,-2878.25 1044,-2842.25 1142,-2842.25 1142,-2878.25"/>
<text text-anchor="middle" x="1093" y="-2857.35" font-family="Courier,monospace" font-size="11.00">HolidayRrule</text>
</g>
<!-- \\HolidayRrule&#45;&gt;\\HolidaysAppModel -->
<g id="edge101" class="edge"><title>\\HolidayRrule&#45;&gt;\\HolidaysAppModel</title>
<path fill="none" stroke="black" d="M1043.96,-2869.29C997.203,-2877.9 926.209,-2890.99 872.842,-2900.82"/>
<polygon fill="none" stroke="black" points="871.954,-2897.43 862.754,-2902.68 873.223,-2904.31 871.954,-2897.43"/>
</g>
<!-- \\Holiday -->
<g id="node58" class="node"><title>\\Holiday</title>
<polygon fill="none" stroke="black" points="1125,-2932.25 1061,-2932.25 1061,-2896.25 1125,-2896.25 1125,-2932.25"/>
<text text-anchor="middle" x="1093" y="-2911.35" font-family="Courier,monospace" font-size="11.00">Holiday</text>
</g>
<!-- \\Holiday&#45;&gt;\\HolidaysAppModel -->
<g id="edge103" class="edge"><title>\\Holiday&#45;&gt;\\HolidaysAppModel</title>
<path fill="none" stroke="black" d="M1060.81,-2914.25C1015.91,-2914.25 933.224,-2914.25 872.959,-2914.25"/>
<polygon fill="none" stroke="black" points="872.737,-2910.75 862.737,-2914.25 872.737,-2917.75 872.737,-2910.75"/>
</g>
<!-- \\HolidaysSchema -->
<g id="node59" class="node"><title>\\HolidaysSchema</title>
<polygon fill="none" stroke="black" points="1148,-556.249 1038,-556.249 1038,-520.249 1148,-520.249 1148,-556.249"/>
<text text-anchor="middle" x="1093" y="-535.349" font-family="Courier,monospace" font-size="11.00">HolidaysSchema</text>
</g>
<!-- \\CakeSchema -->
<g id="node128" class="node"><title>\\CakeSchema</title>
<ellipse fill="none" stroke="black" cx="800" cy="-54.2488" rx="77.0746" ry="18.3848"/>
<text text-anchor="middle" x="800" y="-50.6488" font-family="Times Roman,serif" font-size="14.00" fill="gray">\CakeSchema</text>
</g>
<!-- \\HolidaysSchema&#45;&gt;\\CakeSchema -->
<g id="edge105" class="edge"><title>\\HolidaysSchema&#45;&gt;\\CakeSchema</title>
<path fill="none" stroke="black" d="M1037.42,-535.319C1019.99,-531.644 1002.16,-524.557 990,-511.249 859.318,-368.176 1050.91,-222.25 918,-81.2488 909.04,-71.7436 897.475,-65.2625 885.098,-60.8972"/>
<polygon fill="none" stroke="black" points="886.091,-57.541 875.504,-57.9564 884.039,-64.2336 886.091,-57.541"/>
</g>
<!-- \\Init -->
<g id="node60" class="node"><title>\\Init</title>
<polygon fill="none" stroke="black" points="1120,-502.249 1066,-502.249 1066,-466.249 1120,-466.249 1120,-502.249"/>
<text text-anchor="middle" x="1093" y="-481.349" font-family="Courier,monospace" font-size="11.00">Init</text>
</g>
<!-- \\Init&#45;&gt;\\CakeMigration -->
<g id="edge107" class="edge"><title>\\Init&#45;&gt;\\CakeMigration</title>
<path fill="none" stroke="black" d="M1065.66,-484.795C1042.14,-483.698 1009.07,-478.132 990,-457.249 859.318,-314.176 1055.45,-163.837 918,-27.2488 880.321,10.195 850.49,-24.7569 800,-8.24879"/>
</g>
<!-- \\PluginRecords -->
<g id="node61" class="node"><title>\\PluginRecords</title>
<polygon fill="none" stroke="black" points="1145,-1312.25 1041,-1312.25 1041,-1276.25 1145,-1276.25 1145,-1312.25"/>
<text text-anchor="middle" x="1093" y="-1291.35" font-family="Courier,monospace" font-size="11.00">PluginRecords</text>
</g>
<!-- \\PluginRecords&#45;&gt;\\NetCommonsMigration -->
<g id="edge109" class="edge"><title>\\PluginRecords&#45;&gt;\\NetCommonsMigration</title>
<path fill="none" stroke="black" d="M1040.96,-1294.25C997.186,-1294.25 933.807,-1294.25 883.035,-1294.25"/>
<polygon fill="none" stroke="black" points="882.731,-1290.75 872.731,-1294.25 882.731,-1297.75 882.731,-1290.75"/>
</g>
<!-- \\HolidayRecords -->
<g id="node62" class="node"><title>\\HolidayRecords</title>
<polygon fill="none" stroke="black" points="1148,-1366.25 1038,-1366.25 1038,-1330.25 1148,-1330.25 1148,-1366.25"/>
<text text-anchor="middle" x="1093" y="-1345.35" font-family="Courier,monospace" font-size="11.00">HolidayRecords</text>
</g>
<!-- \\HolidayRecords&#45;&gt;\\NetCommonsMigration -->
<g id="edge111" class="edge"><title>\\HolidayRecords&#45;&gt;\\NetCommonsMigration</title>
<path fill="none" stroke="black" d="M1037.2,-1337.96C993.472,-1329.91 931.972,-1318.57 882.551,-1309.46"/>
<polygon fill="none" stroke="black" points="882.988,-1305.98 872.519,-1307.61 881.719,-1312.87 882.988,-1305.98"/>
</g>
<!-- \\ChangeDayOfTheWeek -->
<g id="node63" class="node"><title>\\ChangeDayOfTheWeek</title>
<polygon fill="none" stroke="black" points="1162,-448.249 1024,-448.249 1024,-412.249 1162,-412.249 1162,-448.249"/>
<text text-anchor="middle" x="1093" y="-427.349" font-family="Courier,monospace" font-size="11.00">ChangeDayOfTheWeek</text>
</g>
<!-- \\ChangeDayOfTheWeek&#45;&gt;\\CakeMigration -->
<g id="edge113" class="edge"><title>\\ChangeDayOfTheWeek&#45;&gt;\\CakeMigration</title>
<path fill="none" stroke="black" d="M1091.15,-412.109C1083.57,-347.749 1048.72,-128.783 918,-27.2488 876.048,5.33608 850.49,-24.7569 800,-8.24879"/>
<path fill="none" stroke="black" d="M800,-8.24879C699.817,24.507 583.545,-54.2037 531.149,-96.1038"/>
<polygon fill="none" stroke="black" points="528.848,-93.4636 523.301,-102.49 533.266,-98.8933 528.848,-93.4636"/>
</g>
</g>
</svg>
