<?xml version="1.0" encoding="UTF-8" standalone="no"?>
<!DOCTYPE svg PUBLIC "-//W3C//DTD SVG 1.1//EN"
 "http://www.w3.org/Graphics/SVG/1.1/DTD/svg11.dtd">
<!-- Generated by graphviz version 2.26.3 (20100126.1600)
 -->
<!-- Title: G Pages: 1 -->
<svg width="1220pt" height="3104pt"
 viewBox="0.00 0.00 1220.00 3104.00" xmlns="http://www.w3.org/2000/svg" xmlns:xlink="http://www.w3.org/1999/xlink">
<g id="graph1" class="graph" transform="scale(1 1) rotate(0) translate(4 3100)">
<title>G</title>
<polygon fill="white" stroke="white" points="-4,5 -4,-3100 1217,-3100 1217,5 -4,5"/>
<g id="graph2" class="cluster"><title>cluster_Global</title>
<polyline fill="none" stroke="gray" points="177,-422 1192,-422 "/>
<path fill="none" stroke="gray" d="M1192,-422C1198,-422 1204,-428 1204,-434"/>
<polyline fill="none" stroke="gray" points="1204,-434 1204,-3076 "/>
<path fill="none" stroke="gray" d="M1204,-3076C1204,-3082 1198,-3088 1192,-3088"/>
<polyline fill="none" stroke="gray" points="1192,-3088 177,-3088 "/>
<path fill="none" stroke="gray" d="M177,-3088C171,-3088 165,-3082 165,-3076"/>
<polyline fill="none" stroke="gray" points="165,-3076 165,-434 "/>
<path fill="none" stroke="gray" d="M165,-434C165,-428 171,-422 177,-422"/>
<text text-anchor="middle" x="684.5" y="-3074.1" font-family="Times Roman,serif" font-size="11.00" fill="gray">Global</text>
</g>
<!-- \\AppController -->
<g id="node2" class="node"><title>\\AppController</title>
<polygon fill="none" stroke="black" points="555,-1601 451,-1601 451,-1565 555,-1565 555,-1601"/>
<text text-anchor="middle" x="503" y="-1580.1" font-family="Courier,monospace" font-size="11.00">AppController</text>
</g>
<!-- \\Controller -->
<g id="node66" class="node"><title>\\Controller</title>
<ellipse fill="none" stroke="black" cx="242" cy="-319" rx="63.1385" ry="18.3848"/>
<text text-anchor="middle" x="242" y="-315.4" font-family="Times Roman,serif" font-size="14.00" fill="gray">\Controller</text>
</g>
<!-- \\AppController&#45;&gt;\\Controller -->
<g id="edge3" class="edge"><title>\\AppController&#45;&gt;\\Controller</title>
<path fill="none" stroke="black" d="M450.792,-1584.99C430.751,-1582.87 409.478,-1576.55 396,-1561 222.184,-1360.48 460.842,-596.368 324,-369 316.106,-355.884 303.327,-345.744 290.182,-338.133"/>
<polygon fill="none" stroke="black" points="291.548,-334.895 281.079,-333.263 288.245,-341.067 291.548,-334.895"/>
</g>
<!-- \\AppModel -->
<g id="node3" class="node"><title>\\AppModel</title>
<polygon fill="none" stroke="black" points="538,-3031 468,-3031 468,-2995 538,-2995 538,-3031"/>
<text text-anchor="middle" x="503" y="-3010.1" font-family="Courier,monospace" font-size="11.00">AppModel</text>
</g>
<!-- \\NetCommonsAppModel -->
<g id="node50" class="node"><title>\\NetCommonsAppModel</title>
<polygon fill="none" stroke="black" points="311,-3031 173,-3031 173,-2995 311,-2995 311,-3031"/>
<text text-anchor="middle" x="242" y="-3010.1" font-family="Courier,monospace" font-size="11.00">NetCommonsAppModel</text>
</g>
<!-- \\AppModel&#45;&gt;\\NetCommonsAppModel -->
<g id="edge5" class="edge"><title>\\AppModel&#45;&gt;\\NetCommonsAppModel</title>
<path fill="none" stroke="black" d="M467.256,-3013C429.848,-3013 369.903,-3013 321.254,-3013"/>
<polygon fill="none" stroke="black" points="321.056,-3009.5 311.056,-3013 321.056,-3016.5 321.056,-3009.5"/>
</g>
<!-- \\DatabaseConfiguration -->
<g id="node4" class="node"><title>\\DatabaseConfiguration</title>
<polygon fill="none" stroke="black" points="879,-3058 721,-3058 721,-3022 879,-3022 879,-3058"/>
<text text-anchor="middle" x="800" y="-3037.1" font-family="Courier,monospace" font-size="11.00">DatabaseConfiguration</text>
</g>
<!-- \\DatabaseConfiguration&#45;&gt;\\AppModel -->
<g id="edge7" class="edge"><title>\\DatabaseConfiguration&#45;&gt;\\AppModel</title>
<path fill="none" stroke="black" d="M720.8,-3032.8C665.959,-3027.81 594.863,-3021.35 549.084,-3017.19"/>
<polygon fill="none" stroke="black" points="549.143,-3013.68 538.867,-3016.26 548.509,-3020.65 549.143,-3013.68"/>
</g>
<!-- \\AppHelper -->
<g id="node5" class="node"><title>\\AppHelper</title>
<polygon fill="none" stroke="black" points="838,-1978 762,-1978 762,-1942 838,-1942 838,-1978"/>
<text text-anchor="middle" x="800" y="-1957.1" font-family="Courier,monospace" font-size="11.00">AppHelper</text>
</g>
<!-- \\Helper -->
<g id="node70" class="node"><title>\\Helper</title>
<ellipse fill="none" stroke="black" cx="503" cy="-396" rx="43.8406" ry="18.3848"/>
<text text-anchor="middle" x="503" y="-392.4" font-family="Times Roman,serif" font-size="14.00" fill="gray">Helper</text>
</g>
<!-- \\AppHelper&#45;&gt;\\Helper -->
<g id="edge9" class="edge"><title>\\AppHelper&#45;&gt;\\Helper</title>
<path fill="none" stroke="black" d="M792.627,-1941.91C771.102,-1888.16 708.219,-1724.32 682,-1582 658.523,-1454.56 694.945,-515.854 610,-418 596.872,-402.877 576.37,-396.487 556.81,-394.198"/>
<polygon fill="none" stroke="black" points="556.969,-390.7 546.711,-393.351 556.383,-397.675 556.969,-390.7"/>
</g>
<!-- \\NetCommonsDeleteTest -->
<g id="node6" class="node"><title>\\NetCommonsDeleteTest</title>
<polygon fill="none" stroke="black" points="1169,-2788 1017,-2788 1017,-2752 1169,-2752 1169,-2788"/>
<text text-anchor="middle" x="1093" y="-2767.1" font-family="Courier,monospace" font-size="11.00">NetCommonsDeleteTest</text>
</g>
<!-- \\NetCommonsModelTestCase -->
<g id="node15" class="node"><title>\\NetCommonsModelTestCase</title>
<polygon fill="none" stroke="black" points="886,-2842 714,-2842 714,-2806 886,-2806 886,-2842"/>
<text text-anchor="middle" x="800" y="-2821.1" font-family="Courier,monospace" font-size="11.00">NetCommonsModelTestCase</text>
</g>
<!-- \\NetCommonsDeleteTest&#45;&gt;\\NetCommonsModelTestCase -->
<g id="edge11" class="edge"><title>\\NetCommonsDeleteTest&#45;&gt;\\NetCommonsModelTestCase</title>
<path fill="none" stroke="black" d="M1016.78,-2784.05C979.893,-2790.85 935.211,-2799.08 896.02,-2806.3"/>
<polygon fill="none" stroke="black" points="895.383,-2802.86 886.183,-2808.12 896.652,-2809.75 895.383,-2802.86"/>
</g>
<!-- \\NetCommonsConsoleTestCase -->
<g id="node7" class="node"><title>\\NetCommonsConsoleTestCase</title>
<polygon fill="none" stroke="black" points="892,-2788 708,-2788 708,-2752 892,-2752 892,-2788"/>
<text text-anchor="middle" x="800" y="-2767.1" font-family="Courier,monospace" font-size="11.00">NetCommonsConsoleTestCase</text>
</g>
<!-- \\NetCommonsCakeTestCase -->
<g id="node13" class="node"><title>\\NetCommonsCakeTestCase</title>
<polygon fill="none" stroke="black" points="585,-2815 421,-2815 421,-2779 585,-2779 585,-2815"/>
<text text-anchor="middle" x="503" y="-2794.1" font-family="Courier,monospace" font-size="11.00">NetCommonsCakeTestCase</text>
</g>
<!-- \\NetCommonsConsoleTestCase&#45;&gt;\\NetCommonsCakeTestCase -->
<g id="edge13" class="edge"><title>\\NetCommonsConsoleTestCase&#45;&gt;\\NetCommonsCakeTestCase</title>
<path fill="none" stroke="black" d="M707.249,-2778.43C671.93,-2781.64 631.688,-2785.3 596.316,-2788.52"/>
<polygon fill="none" stroke="black" points="595.635,-2785.06 585.993,-2789.46 596.269,-2792.04 595.635,-2785.06"/>
</g>
<!-- \\NetCommonsGetTest -->
<g id="node8" class="node"><title>\\NetCommonsGetTest</title>
<polygon fill="none" stroke="black" points="1158,-2950 1028,-2950 1028,-2914 1158,-2914 1158,-2950"/>
<text text-anchor="middle" x="1093" y="-2929.1" font-family="Courier,monospace" font-size="11.00">NetCommonsGetTest</text>
</g>
<!-- \\NetCommonsGetTest&#45;&gt;\\NetCommonsModelTestCase -->
<g id="edge15" class="edge"><title>\\NetCommonsGetTest&#45;&gt;\\NetCommonsModelTestCase</title>
<path fill="none" stroke="black" d="M1027.35,-2918.86C1014.63,-2915.2 1001.65,-2910.63 990,-2905 953.981,-2887.6 954.288,-2867.83 918,-2851 910.962,-2847.74 903.501,-2844.85 895.884,-2842.31"/>
<polygon fill="none" stroke="black" points="896.762,-2838.91 886.173,-2839.26 894.666,-2845.59 896.762,-2838.91"/>
</g>
<!-- \\NetCommonsHelperTestCase -->
<g id="node9" class="node"><title>\\NetCommonsHelperTestCase</title>
<polygon fill="none" stroke="black" points="889,-2896 711,-2896 711,-2860 889,-2860 889,-2896"/>
<text text-anchor="middle" x="800" y="-2875.1" font-family="Courier,monospace" font-size="11.00">NetCommonsHelperTestCase</text>
</g>
<!-- \\NetCommonsHelperTestCase&#45;&gt;\\NetCommonsCakeTestCase -->
<g id="edge17" class="edge"><title>\\NetCommonsHelperTestCase&#45;&gt;\\NetCommonsCakeTestCase</title>
<path fill="none" stroke="black" d="M717.936,-2859.98C705.852,-2857.11 693.579,-2854.07 682,-2851 644.303,-2841.01 602.565,-2828.51 568.882,-2818.05"/>
<polygon fill="none" stroke="black" points="569.742,-2814.65 559.154,-2815.01 567.658,-2821.33 569.742,-2814.65"/>
</g>
<!-- \\NetCommonsControllerBaseTestCase -->
<g id="node10" class="node"><title>\\NetCommonsControllerBaseTestCase</title>
<polygon fill="none" stroke="black" points="916,-1573 684,-1573 684,-1537 916,-1537 916,-1573"/>
<text text-anchor="middle" x="800" y="-1552.1" font-family="Courier,monospace" font-size="11.00">NetCommonsControllerBaseTestCase</text>
</g>
<!-- \\ControllerTestCase -->
<g id="node76" class="node"><title>\\ControllerTestCase</title>
<ellipse fill="none" stroke="black" cx="503" cy="-342" rx="106.773" ry="18.3848"/>
<text text-anchor="middle" x="503" y="-338.4" font-family="Times Roman,serif" font-size="14.00" fill="gray">\ControllerTestCase</text>
</g>
<!-- \\NetCommonsControllerBaseTestCase&#45;&gt;\\ControllerTestCase -->
<g id="edge19" class="edge"><title>\\NetCommonsControllerBaseTestCase&#45;&gt;\\ControllerTestCase</title>
<path fill="none" stroke="black" d="M729.07,-1537C710.89,-1528.95 693.3,-1517.43 682,-1501 539.14,-1293.33 771.141,-562.829 610,-369 606.402,-364.672 602.221,-360.982 597.638,-357.841"/>
<polygon fill="none" stroke="black" points="599.388,-354.81 588.994,-352.759 595.841,-360.844 599.388,-354.81"/>
</g>
<!-- \\NetCommonsValidateTest -->
<g id="node11" class="node"><title>\\NetCommonsValidateTest</title>
<polygon fill="none" stroke="black" points="1175,-2896 1011,-2896 1011,-2860 1175,-2860 1175,-2896"/>
<text text-anchor="middle" x="1093" y="-2875.1" font-family="Courier,monospace" font-size="11.00">NetCommonsValidateTest</text>
</g>
<!-- \\NetCommonsValidateTest&#45;&gt;\\NetCommonsModelTestCase -->
<g id="edge21" class="edge"><title>\\NetCommonsValidateTest&#45;&gt;\\NetCommonsModelTestCase</title>
<path fill="none" stroke="black" d="M1010.21,-2862.74C974.791,-2856.21 933.196,-2848.55 896.397,-2841.77"/>
<polygon fill="none" stroke="black" points="896.623,-2838.25 886.154,-2839.88 895.354,-2845.13 896.623,-2838.25"/>
</g>
<!-- \\NetCommonsTestSuite -->
<g id="node12" class="node"><title>\\NetCommonsTestSuite</title>
<polygon fill="none" stroke="black" points="1165,-1438 1021,-1438 1021,-1402 1165,-1402 1165,-1438"/>
<text text-anchor="middle" x="1093" y="-1417.1" font-family="Courier,monospace" font-size="11.00">NetCommonsTestSuite</text>
</g>
<!-- \\CakeTestSuite -->
<g id="node79" class="node"><title>\\CakeTestSuite</title>
<ellipse fill="none" stroke="black" cx="800" cy="-396" rx="84.1457" ry="18.3848"/>
<text text-anchor="middle" x="800" y="-392.4" font-family="Times Roman,serif" font-size="14.00" fill="gray">\CakeTestSuite</text>
</g>
<!-- \\NetCommonsTestSuite&#45;&gt;\\CakeTestSuite -->
<g id="edge23" class="edge"><title>\\NetCommonsTestSuite&#45;&gt;\\CakeTestSuite</title>
<path fill="none" stroke="black" d="M1020.43,-1413.15C1008.75,-1408.91 997.923,-1402.52 990,-1393 851.027,-1226.01 1062.9,-579.881 918,-418 911.225,-410.43 902.75,-404.946 893.47,-401.027"/>
<polygon fill="none" stroke="black" points="894.549,-397.696 883.955,-397.611 892.184,-404.284 894.549,-397.696"/>
</g>
<!-- \\CakeTestCase -->
<g id="node81" class="node"><title>\\CakeTestCase</title>
<ellipse fill="none" stroke="black" cx="242" cy="-396" rx="82.0244" ry="18.3848"/>
<text text-anchor="middle" x="242" y="-392.4" font-family="Times Roman,serif" font-size="14.00" fill="gray">\CakeTestCase</text>
</g>
<!-- \\NetCommonsCakeTestCase&#45;&gt;\\CakeTestCase -->
<g id="edge25" class="edge"><title>\\NetCommonsCakeTestCase&#45;&gt;\\CakeTestCase</title>
<path fill="none" stroke="black" d="M501.164,-2778.89C490.128,-2669.57 431.869,-2086.62 396,-1610 386.043,-1477.69 407.896,-520.796 324,-418 322.288,-415.902 320.398,-413.991 318.367,-412.253"/>
<polygon fill="none" stroke="black" points="320.105,-409.199 309.897,-406.363 316.109,-414.946 320.105,-409.199"/>
</g>
<!-- \\NetCommonsSaveTest -->
<g id="node14" class="node"><title>\\NetCommonsSaveTest</title>
<polygon fill="none" stroke="black" points="1162,-2842 1024,-2842 1024,-2806 1162,-2806 1162,-2842"/>
<text text-anchor="middle" x="1093" y="-2821.1" font-family="Courier,monospace" font-size="11.00">NetCommonsSaveTest</text>
</g>
<!-- \\NetCommonsSaveTest&#45;&gt;\\NetCommonsModelTestCase -->
<g id="edge27" class="edge"><title>\\NetCommonsSaveTest&#45;&gt;\\NetCommonsModelTestCase</title>
<path fill="none" stroke="black" d="M1023.93,-2824C985.875,-2824 938.032,-2824 896.349,-2824"/>
<polygon fill="none" stroke="black" points="896.173,-2820.5 886.172,-2824 896.172,-2827.5 896.173,-2820.5"/>
</g>
<!-- \\NetCommonsModelTestCase&#45;&gt;\\NetCommonsCakeTestCase -->
<g id="edge29" class="edge"><title>\\NetCommonsModelTestCase&#45;&gt;\\NetCommonsCakeTestCase</title>
<path fill="none" stroke="black" d="M713.696,-2816.15C676.671,-2812.79 633.35,-2808.85 595.65,-2805.42"/>
<polygon fill="none" stroke="black" points="595.962,-2801.94 585.686,-2804.52 595.328,-2808.91 595.962,-2801.94"/>
</g>
<!-- \\NetCommonsControllerTestCase -->
<g id="node16" class="node"><title>\\NetCommonsControllerTestCase</title>
<polygon fill="none" stroke="black" points="1196,-1600 990,-1600 990,-1564 1196,-1564 1196,-1600"/>
<text text-anchor="middle" x="1093" y="-1579.1" font-family="Courier,monospace" font-size="11.00">NetCommonsControllerTestCase</text>
</g>
<!-- \\NetCommonsControllerTestCase&#45;&gt;\\NetCommonsControllerBaseTestCase -->
<g id="edge31" class="edge"><title>\\NetCommonsControllerTestCase&#45;&gt;\\NetCommonsControllerBaseTestCase</title>
<path fill="none" stroke="black" d="M989.699,-1572.48C969.289,-1570.6 947.65,-1568.61 926.571,-1566.66"/>
<polygon fill="none" stroke="black" points="926.885,-1563.18 916.606,-1565.75 926.243,-1570.15 926.885,-1563.18"/>
</g>
<!-- \\NetCommonsAppController -->
<g id="node17" class="node"><title>\\NetCommonsAppController</title>
<polygon fill="none" stroke="black" points="886,-1492 714,-1492 714,-1456 886,-1456 886,-1492"/>
<text text-anchor="middle" x="800" y="-1471.1" font-family="Courier,monospace" font-size="11.00">NetCommonsAppController</text>
</g>
<!-- \\NetCommonsAppController&#45;&gt;\\Controller -->
<g id="edge33" class="edge"><title>\\NetCommonsAppController&#45;&gt;\\Controller</title>
<path fill="none" stroke="black" d="M713.873,-1471.81C701.722,-1467.85 690.497,-1461.59 682,-1452 514.139,-1262.48 794.59,-488.271 610,-315 522.551,-232.913 365.475,-273.363 287.908,-300.78"/>
<polygon fill="none" stroke="black" points="286.618,-297.525 278.403,-304.216 288.998,-304.108 286.618,-297.525"/>
</g>
<!-- \\AssetComponent -->
<g id="node18" class="node"><title>\\AssetComponent</title>
<polygon fill="none" stroke="black" points="1148,-1330 1038,-1330 1038,-1294 1148,-1294 1148,-1330"/>
<text text-anchor="middle" x="1093" y="-1309.1" font-family="Courier,monospace" font-size="11.00">AssetComponent</text>
</g>
<!-- \\Component -->
<g id="node87" class="node"><title>\\Component</title>
<ellipse fill="none" stroke="black" cx="800" cy="-342" rx="70.9184" ry="18.3848"/>
<text text-anchor="middle" x="800" y="-338.4" font-family="Times Roman,serif" font-size="14.00" fill="gray">\Component</text>
</g>
<!-- \\AssetComponent&#45;&gt;\\Component -->
<g id="edge35" class="edge"><title>\\AssetComponent&#45;&gt;\\Component</title>
<path fill="none" stroke="black" d="M1037.28,-1309.78C1019.62,-1306.19 1001.68,-1298.97 990,-1285 859.019,-1128.36 1051.43,-523.559 918,-369 908.404,-357.884 895.256,-350.825 881.208,-346.436"/>
<polygon fill="none" stroke="black" points="881.937,-343.008 871.373,-343.807 880.13,-349.771 881.937,-343.008"/>
</g>
<!-- \\AccessCtrlComponent -->
<g id="node19" class="node"><title>\\AccessCtrlComponent</title>
<polygon fill="none" stroke="black" points="1165,-1276 1021,-1276 1021,-1240 1165,-1240 1165,-1276"/>
<text text-anchor="middle" x="1093" y="-1255.1" font-family="Courier,monospace" font-size="11.00">AccessCtrlComponent</text>
</g>
<!-- \\AccessCtrlComponent&#45;&gt;\\Component -->
<g id="edge37" class="edge"><title>\\AccessCtrlComponent&#45;&gt;\\Component</title>
<path fill="none" stroke="black" d="M1020.24,-1250.99C1008.66,-1246.75 997.909,-1240.41 990,-1231 866.331,-1083.84 1043.97,-514.197 918,-369 908.377,-357.908 895.216,-350.859 881.165,-346.473"/>
<polygon fill="none" stroke="black" points="881.893,-343.045 871.328,-343.845 880.086,-349.808 881.893,-343.045"/>
</g>
<!-- \\NetCommonsTimeComponent -->
<g id="node20" class="node"><title>\\NetCommonsTimeComponent</title>
<polygon fill="none" stroke="black" points="1179,-1222 1007,-1222 1007,-1186 1179,-1186 1179,-1222"/>
<text text-anchor="middle" x="1093" y="-1201.1" font-family="Courier,monospace" font-size="11.00">NetCommonsTimeComponent</text>
</g>
<!-- \\NetCommonsTimeComponent&#45;&gt;\\Component -->
<g id="edge39" class="edge"><title>\\NetCommonsTimeComponent&#45;&gt;\\Component</title>
<path fill="none" stroke="black" d="M1006.95,-1190.83C1000.57,-1187.19 994.773,-1182.65 990,-1177 873.641,-1039.32 1036.51,-504.839 918,-369 908.346,-357.935 895.171,-350.898 881.117,-346.516"/>
<polygon fill="none" stroke="black" points="881.843,-343.087 871.278,-343.889 880.037,-349.85 881.843,-343.087"/>
</g>
<!-- \\PermissionComponent -->
<g id="node21" class="node"><title>\\PermissionComponent</title>
<polygon fill="none" stroke="black" points="1165,-1168 1021,-1168 1021,-1132 1165,-1132 1165,-1168"/>
<text text-anchor="middle" x="1093" y="-1147.1" font-family="Courier,monospace" font-size="11.00">PermissionComponent</text>
</g>
<!-- \\PermissionComponent&#45;&gt;\\Component -->
<g id="edge41" class="edge"><title>\\PermissionComponent&#45;&gt;\\Component</title>
<path fill="none" stroke="black" d="M1020.33,-1142.91C1008.74,-1138.69 997.965,-1132.36 990,-1123 880.948,-994.787 1029.05,-495.484 918,-369 908.311,-357.965 895.121,-350.943 881.061,-346.564"/>
<polygon fill="none" stroke="black" points="881.786,-343.135 871.222,-343.939 879.981,-349.899 881.786,-343.135"/>
</g>
<!-- \\NetCommonsComponent -->
<g id="node22" class="node"><title>\\NetCommonsComponent</title>
<polygon fill="none" stroke="black" points="1165,-1384 1021,-1384 1021,-1348 1165,-1348 1165,-1384"/>
<text text-anchor="middle" x="1093" y="-1363.1" font-family="Courier,monospace" font-size="11.00">NetCommonsComponent</text>
</g>
<!-- \\NetCommonsComponent&#45;&gt;\\Component -->
<g id="edge43" class="edge"><title>\\NetCommonsComponent&#45;&gt;\\Component</title>
<path fill="none" stroke="black" d="M1020.43,-1359.15C1008.76,-1354.9 997.925,-1348.52 990,-1339 851.705,-1172.88 1058.89,-532.923 918,-369 908.428,-357.863 895.291,-350.795 881.247,-346.403"/>
<polygon fill="none" stroke="black" points="881.977,-342.975 871.412,-343.773 880.168,-349.738 881.977,-342.975"/>
</g>
<!-- \\SiteCloseController -->
<g id="node23" class="node"><title>\\SiteCloseController</title>
<polygon fill="none" stroke="black" points="1165,-1492 1021,-1492 1021,-1456 1165,-1456 1165,-1492"/>
<text text-anchor="middle" x="1093" y="-1471.1" font-family="Courier,monospace" font-size="11.00">SiteCloseController</text>
</g>
<!-- \\SiteCloseController&#45;&gt;\\NetCommonsAppController -->
<g id="edge45" class="edge"><title>\\SiteCloseController&#45;&gt;\\NetCommonsAppController</title>
<path fill="none" stroke="black" d="M1020.2,-1474C982.776,-1474 936.682,-1474 896.354,-1474"/>
<polygon fill="none" stroke="black" points="896.233,-1470.5 886.233,-1474 896.233,-1477.5 896.233,-1470.5"/>
</g>
<!-- \\NetCommonsController -->
<g id="node24" class="node"><title>\\NetCommonsController</title>
<polygon fill="none" stroke="black" points="1169,-1546 1017,-1546 1017,-1510 1169,-1510 1169,-1546"/>
<text text-anchor="middle" x="1093" y="-1525.1" font-family="Courier,monospace" font-size="11.00">NetCommonsController</text>
</g>
<!-- \\NetCommonsController&#45;&gt;\\NetCommonsAppController -->
<g id="edge47" class="edge"><title>\\NetCommonsController&#45;&gt;\\NetCommonsAppController</title>
<path fill="none" stroke="black" d="M1016.78,-1513.95C979.893,-1507.15 935.211,-1498.92 896.02,-1491.7"/>
<polygon fill="none" stroke="black" points="896.652,-1488.25 886.183,-1489.88 895.383,-1495.14 896.652,-1488.25"/>
</g>
<!-- \\NetCommonsUrl -->
<g id="node25" class="node"><title>\\NetCommonsUrl</title>
<polygon fill="none" stroke="black" points="1145,-2356 1041,-2356 1041,-2320 1145,-2320 1145,-2356"/>
<text text-anchor="middle" x="1093" y="-2335.1" font-family="Courier,monospace" font-size="11.00">NetCommonsUrl</text>
</g>
<!-- \\NetCommonsTime -->
<g id="node26" class="node"><title>\\NetCommonsTime</title>
<polygon fill="none" stroke="black" points="1148,-2302 1038,-2302 1038,-2266 1148,-2266 1148,-2302"/>
<text text-anchor="middle" x="1093" y="-2281.1" font-family="Courier,monospace" font-size="11.00">NetCommonsTime</text>
</g>
<!-- \\CurrentBase -->
<g id="node27" class="node"><title>\\CurrentBase</title>
<polygon fill="none" stroke="black" points="845,-2680 755,-2680 755,-2644 845,-2644 845,-2680"/>
<text text-anchor="middle" x="800" y="-2659.1" font-family="Courier,monospace" font-size="11.00">CurrentBase</text>
</g>
<!-- \\Current -->
<g id="node28" class="node"><title>\\Current</title>
<polygon fill="none" stroke="black" points="1125,-2680 1061,-2680 1061,-2644 1125,-2644 1125,-2680"/>
<text text-anchor="middle" x="1093" y="-2659.1" font-family="Courier,monospace" font-size="11.00">Current</text>
</g>
<!-- \\Current&#45;&gt;\\CurrentBase -->
<g id="edge49" class="edge"><title>\\Current&#45;&gt;\\CurrentBase</title>
<path fill="none" stroke="black" d="M1060.81,-2662C1011.48,-2662 916.554,-2662 855.846,-2662"/>
<polygon fill="none" stroke="black" points="855.669,-2658.5 845.669,-2662 855.669,-2665.5 855.669,-2658.5"/>
</g>
<!-- \\CurrentSystem -->
<g id="node29" class="node"><title>\\CurrentSystem</title>
<polygon fill="none" stroke="black" points="1145,-2194 1041,-2194 1041,-2158 1145,-2158 1145,-2194"/>
<text text-anchor="middle" x="1093" y="-2173.1" font-family="Courier,monospace" font-size="11.00">CurrentSystem</text>
</g>
<!-- \\CurrentPage -->
<g id="node30" class="node"><title>\\CurrentPage</title>
<polygon fill="none" stroke="black" points="1138,-2140 1048,-2140 1048,-2104 1138,-2104 1138,-2140"/>
<text text-anchor="middle" x="1093" y="-2119.1" font-family="Courier,monospace" font-size="11.00">CurrentPage</text>
</g>
<!-- \\CurrentFrame -->
<g id="node31" class="node"><title>\\CurrentFrame</title>
<polygon fill="none" stroke="black" points="1142,-2086 1044,-2086 1044,-2050 1142,-2050 1142,-2086"/>
<text text-anchor="middle" x="1093" y="-2065.1" font-family="Courier,monospace" font-size="11.00">CurrentFrame</text>
</g>
<!-- \\TokenHelper -->
<g id="node32" class="node"><title>\\TokenHelper</title>
<polygon fill="none" stroke="black" points="1138,-1060 1048,-1060 1048,-1024 1138,-1024 1138,-1060"/>
<text text-anchor="middle" x="1093" y="-1039.1" font-family="Courier,monospace" font-size="11.00">TokenHelper</text>
</g>
<!-- \\FormHelper -->
<g id="node96" class="node"><title>\\FormHelper</title>
<ellipse fill="none" stroke="black" cx="800" cy="-288" rx="70.9184" ry="18.3848"/>
<text text-anchor="middle" x="800" y="-284.4" font-family="Times Roman,serif" font-size="14.00" fill="gray">\FormHelper</text>
</g>
<!-- \\TokenHelper&#45;&gt;\\FormHelper -->
<g id="edge51" class="edge"><title>\\TokenHelper&#45;&gt;\\FormHelper</title>
<path fill="none" stroke="black" d="M1047.32,-1041.29C1026.8,-1038.48 1004.07,-1031.42 990,-1015 786.502,-777.507 1125.2,-549.266 918,-315 908.271,-304.001 895.062,-296.994 880.998,-292.62"/>
<polygon fill="none" stroke="black" points="881.72,-289.191 871.156,-289.996 879.917,-295.955 881.72,-289.191"/>
</g>
<!-- \\SingletonViewBlockHtmlHelper -->
<g id="node33" class="node"><title>\\SingletonViewBlockHtmlHelper</title>
<polygon fill="none" stroke="black" points="1196,-952 990,-952 990,-916 1196,-916 1196,-952"/>
<text text-anchor="middle" x="1093" y="-931.1" font-family="Courier,monospace" font-size="11.00">SingletonViewBlockHtmlHelper</text>
</g>
<!-- \\HtmlHelper -->
<g id="node98" class="node"><title>\\HtmlHelper</title>
<ellipse fill="none" stroke="black" cx="800" cy="-234" rx="67.1751" ry="18.3848"/>
<text text-anchor="middle" x="800" y="-230.4" font-family="Times Roman,serif" font-size="14.00" fill="gray">HtmlHelper</text>
</g>
<!-- \\SingletonViewBlockHtmlHelper&#45;&gt;\\HtmlHelper -->
<g id="edge53" class="edge"><title>\\SingletonViewBlockHtmlHelper&#45;&gt;\\HtmlHelper</title>
<path fill="none" stroke="black" d="M999.694,-915.938C996.163,-913.321 992.901,-910.357 990,-907 801.099,-688.429 1110.31,-476.576 918,-261 907.283,-248.987 892.415,-241.746 876.839,-237.496"/>
<polygon fill="none" stroke="black" points="877.614,-234.083 867.08,-235.221 876.024,-240.9 877.614,-234.083"/>
</g>
<!-- \\FormInputHelper -->
<g id="node34" class="node"><title>\\FormInputHelper</title>
<polygon fill="none" stroke="black" points="1152,-2410 1034,-2410 1034,-2374 1152,-2374 1152,-2410"/>
<text text-anchor="middle" x="1093" y="-2389.1" font-family="Courier,monospace" font-size="11.00">FormInputHelper</text>
</g>
<!-- \\FormInputHelper&#45;&gt;\\AppHelper -->
<g id="edge55" class="edge"><title>\\FormInputHelper&#45;&gt;\\AppHelper</title>
<path fill="none" stroke="black" d="M1033.76,-2385.69C1018.22,-2381.7 1002.36,-2375.29 990,-2365 866.832,-2262.46 818.776,-2062.09 804.769,-1988.22"/>
<polygon fill="none" stroke="black" points="808.19,-1987.47 802.945,-1978.27 801.305,-1988.73 808.19,-1987.47"/>
</g>
<!-- \\WizardHelper -->
<g id="node35" class="node"><title>\\WizardHelper</title>
<polygon fill="none" stroke="black" points="1142,-2248 1044,-2248 1044,-2212 1142,-2212 1142,-2248"/>
<text text-anchor="middle" x="1093" y="-2227.1" font-family="Courier,monospace" font-size="11.00">WizardHelper</text>
</g>
<!-- \\WizardHelper&#45;&gt;\\AppHelper -->
<g id="edge57" class="edge"><title>\\WizardHelper&#45;&gt;\\AppHelper</title>
<path fill="none" stroke="black" d="M1043.91,-2223.86C1025.88,-2219.94 1005.99,-2213.51 990,-2203 904.042,-2146.46 840.094,-2037.93 813.531,-1987.28"/>
<polygon fill="none" stroke="black" points="816.562,-1985.52 808.865,-1978.24 810.341,-1988.73 816.562,-1985.52"/>
</g>
<!-- \\DisplayNumberHelper -->
<g id="node36" class="node"><title>\\DisplayNumberHelper</title>
<polygon fill="none" stroke="black" points="1165,-2032 1021,-2032 1021,-1996 1165,-1996 1165,-2032"/>
<text text-anchor="middle" x="1093" y="-2011.1" font-family="Courier,monospace" font-size="11.00">DisplayNumberHelper</text>
</g>
<!-- \\DisplayNumberHelper&#45;&gt;\\AppHelper -->
<g id="edge59" class="edge"><title>\\DisplayNumberHelper&#45;&gt;\\AppHelper</title>
<path fill="none" stroke="black" d="M1020.2,-2000.58C966.669,-1990.72 895.393,-1977.58 848.632,-1968.96"/>
<polygon fill="none" stroke="black" points="849.22,-1965.51 838.752,-1967.14 847.952,-1972.4 849.22,-1965.51"/>
</g>
<!-- \\MessageFlashHelper -->
<g id="node37" class="node"><title>\\MessageFlashHelper</title>
<polygon fill="none" stroke="black" points="1162,-1978 1024,-1978 1024,-1942 1162,-1942 1162,-1978"/>
<text text-anchor="middle" x="1093" y="-1957.1" font-family="Courier,monospace" font-size="11.00">MessageFlashHelper</text>
</g>
<!-- \\MessageFlashHelper&#45;&gt;\\AppHelper -->
<g id="edge61" class="edge"><title>\\MessageFlashHelper&#45;&gt;\\AppHelper</title>
<path fill="none" stroke="black" d="M1023.93,-1960C970.028,-1960 896.492,-1960 848.634,-1960"/>
<polygon fill="none" stroke="black" points="848.532,-1956.5 838.532,-1960 848.532,-1963.5 848.532,-1956.5"/>
</g>
<!-- \\DateHelper -->
<g id="node38" class="node"><title>\\DateHelper</title>
<polygon fill="none" stroke="black" points="1135,-1924 1051,-1924 1051,-1888 1135,-1888 1135,-1924"/>
<text text-anchor="middle" x="1093" y="-1903.1" font-family="Courier,monospace" font-size="11.00">DateHelper</text>
</g>
<!-- \\DateHelper&#45;&gt;\\AppHelper -->
<g id="edge63" class="edge"><title>\\DateHelper&#45;&gt;\\AppHelper</title>
<path fill="none" stroke="black" d="M1050.71,-1913.79C997.148,-1923.67 905.059,-1940.64 848.643,-1951.04"/>
<polygon fill="none" stroke="black" points="847.742,-1947.64 838.542,-1952.9 849.01,-1954.53 847.742,-1947.64"/>
</g>
<!-- \\SnsButtonHelper -->
<g id="node39" class="node"><title>\\SnsButtonHelper</title>
<polygon fill="none" stroke="black" points="1152,-1870 1034,-1870 1034,-1834 1152,-1834 1152,-1870"/>
<text text-anchor="middle" x="1093" y="-1849.1" font-family="Courier,monospace" font-size="11.00">SnsButtonHelper</text>
</g>
<!-- \\SnsButtonHelper&#45;&gt;\\AppHelper -->
<g id="edge65" class="edge"><title>\\SnsButtonHelper&#45;&gt;\\AppHelper</title>
<path fill="none" stroke="black" d="M1033.73,-1865.95C1019.3,-1869.78 1003.99,-1874.21 990,-1879 940.27,-1896.02 885.199,-1920.1 847.206,-1937.58"/>
<polygon fill="none" stroke="black" points="845.534,-1934.5 837.929,-1941.88 848.474,-1940.85 845.534,-1934.5"/>
</g>
<!-- \\BackToHelper -->
<g id="node40" class="node"><title>\\BackToHelper</title>
<polygon fill="none" stroke="black" points="1142,-1816 1044,-1816 1044,-1780 1142,-1780 1142,-1816"/>
<text text-anchor="middle" x="1093" y="-1795.1" font-family="Courier,monospace" font-size="11.00">BackToHelper</text>
</g>
<!-- \\BackToHelper&#45;&gt;\\AppHelper -->
<g id="edge67" class="edge"><title>\\BackToHelper&#45;&gt;\\AppHelper</title>
<path fill="none" stroke="black" d="M1043.79,-1807.08C1026.32,-1811.29 1006.83,-1817.14 990,-1825 927.211,-1854.33 863.394,-1904.84 828.029,-1935.06"/>
<polygon fill="none" stroke="black" points="825.369,-1932.74 820.087,-1941.92 829.944,-1938.03 825.369,-1932.74"/>
</g>
<!-- \\NetCommonsHtmlHelper -->
<g id="node41" class="node"><title>\\NetCommonsHtmlHelper</title>
<polygon fill="none" stroke="black" points="1169,-1762 1017,-1762 1017,-1726 1169,-1726 1169,-1762"/>
<text text-anchor="middle" x="1093" y="-1741.1" font-family="Courier,monospace" font-size="11.00">NetCommonsHtmlHelper</text>
</g>
<!-- \\NetCommonsHtmlHelper&#45;&gt;\\AppHelper -->
<g id="edge69" class="edge"><title>\\NetCommonsHtmlHelper&#45;&gt;\\AppHelper</title>
<path fill="none" stroke="black" d="M1016.92,-1759.02C1007.55,-1762.28 998.344,-1766.23 990,-1771 915.721,-1813.49 850.104,-1892.48 819.041,-1933.59"/>
<polygon fill="none" stroke="black" points="816.119,-1931.65 812.946,-1941.76 821.73,-1935.84 816.119,-1931.65"/>
</g>
<!-- \\ButtonHelper -->
<g id="node42" class="node"><title>\\ButtonHelper</title>
<polygon fill="none" stroke="black" points="1142,-1006 1044,-1006 1044,-970 1142,-970 1142,-1006"/>
<text text-anchor="middle" x="1093" y="-985.1" font-family="Courier,monospace" font-size="11.00">ButtonHelper</text>
</g>
<!-- \\ButtonHelper&#45;&gt;\\FormHelper -->
<g id="edge71" class="edge"><title>\\ButtonHelper&#45;&gt;\\FormHelper</title>
<path fill="none" stroke="black" d="M1043.95,-986.726C1024.37,-983.598 1003.36,-976.455 990,-961 801.099,-742.429 1110.31,-530.576 918,-315 908.225,-304.042 894.994,-297.054 880.924,-292.686"/>
<polygon fill="none" stroke="black" points="881.644,-289.256 871.08,-290.064 879.842,-296.02 881.644,-289.256"/>
</g>
<!-- \\ComposerHelper -->
<g id="node43" class="node"><title>\\ComposerHelper</title>
<polygon fill="none" stroke="black" points="1148,-1708 1038,-1708 1038,-1672 1148,-1672 1148,-1708"/>
<text text-anchor="middle" x="1093" y="-1687.1" font-family="Courier,monospace" font-size="11.00">ComposerHelper</text>
</g>
<!-- \\ComposerHelper&#45;&gt;\\AppHelper -->
<g id="edge73" class="edge"><title>\\ComposerHelper&#45;&gt;\\AppHelper</title>
<path fill="none" stroke="black" d="M1037.31,-1697.67C1021.13,-1701.67 1004.05,-1707.76 990,-1717 904.042,-1773.54 840.094,-1882.07 813.531,-1932.72"/>
<polygon fill="none" stroke="black" points="810.341,-1931.27 808.865,-1941.76 816.562,-1934.48 810.341,-1931.27"/>
</g>
<!-- \\LinkButtonHelper -->
<g id="node44" class="node"><title>\\LinkButtonHelper</title>
<polygon fill="none" stroke="black" points="1155,-1114 1031,-1114 1031,-1078 1155,-1078 1155,-1114"/>
<text text-anchor="middle" x="1093" y="-1093.1" font-family="Courier,monospace" font-size="11.00">LinkButtonHelper</text>
</g>
<!-- \\LinkButtonHelper&#45;&gt;\\FormHelper -->
<g id="edge75" class="edge"><title>\\LinkButtonHelper&#45;&gt;\\FormHelper</title>
<path fill="none" stroke="black" d="M1030.42,-1092.04C1015.13,-1088.05 1000.24,-1081.04 990,-1069 880.948,-940.787 1029.05,-441.484 918,-315 908.311,-303.965 895.121,-296.943 881.061,-292.564"/>
<polygon fill="none" stroke="black" points="881.786,-289.135 871.222,-289.939 879.981,-295.899 881.786,-289.135"/>
</g>
<!-- \\TableListHelper -->
<g id="node45" class="node"><title>\\TableListHelper</title>
<polygon fill="none" stroke="black" points="1152,-1654 1034,-1654 1034,-1618 1152,-1618 1152,-1654"/>
<text text-anchor="middle" x="1093" y="-1633.1" font-family="Courier,monospace" font-size="11.00">TableListHelper</text>
</g>
<!-- \\TableListHelper&#45;&gt;\\AppHelper -->
<g id="edge77" class="edge"><title>\\TableListHelper&#45;&gt;\\AppHelper</title>
<path fill="none" stroke="black" d="M1033.8,-1643.6C1018.51,-1647.6 1002.78,-1653.7 990,-1663 939.522,-1699.73 848.866,-1866.47 814.1,-1932.73"/>
<polygon fill="none" stroke="black" points="810.916,-1931.27 809.388,-1941.75 817.121,-1934.51 810.916,-1931.27"/>
</g>
<!-- \\NetCommonsTimeHelper -->
<g id="node46" class="node"><title>\\NetCommonsTimeHelper</title>
<polygon fill="none" stroke="black" points="1169,-2626 1017,-2626 1017,-2590 1169,-2590 1169,-2626"/>
<text text-anchor="middle" x="1093" y="-2605.1" font-family="Courier,monospace" font-size="11.00">NetCommonsTimeHelper</text>
</g>
<!-- \\NetCommonsTimeHelper&#45;&gt;\\AppHelper -->
<g id="edge79" class="edge"><title>\\NetCommonsTimeHelper&#45;&gt;\\AppHelper</title>
<path fill="none" stroke="black" d="M1016.82,-2597.65C1006.92,-2593.69 997.6,-2588.3 990,-2581 900.476,-2495.03 824.404,-2097.61 804.863,-1988.04"/>
<polygon fill="none" stroke="black" points="808.289,-1987.31 803.101,-1978.07 801.396,-1988.53 808.289,-1987.31"/>
</g>
<!-- \\NetCommonsFormHelper -->
<g id="node47" class="node"><title>\\NetCommonsFormHelper</title>
<polygon fill="none" stroke="black" points="1169,-2572 1017,-2572 1017,-2536 1169,-2536 1169,-2572"/>
<text text-anchor="middle" x="1093" y="-2551.1" font-family="Courier,monospace" font-size="11.00">NetCommonsFormHelper</text>
</g>
<!-- \\NetCommonsFormHelper&#45;&gt;\\AppHelper -->
<g id="edge81" class="edge"><title>\\NetCommonsFormHelper&#45;&gt;\\AppHelper</title>
<path fill="none" stroke="black" d="M1017,-2543.47C1007.07,-2539.53 997.696,-2534.2 990,-2527 907.245,-2449.61 827.482,-2091.99 805.771,-1988.27"/>
<polygon fill="none" stroke="black" points="809.147,-1987.31 803.686,-1978.23 802.293,-1988.74 809.147,-1987.31"/>
</g>
<!-- \\TitleIconHelper -->
<g id="node48" class="node"><title>\\TitleIconHelper</title>
<polygon fill="none" stroke="black" points="1152,-2518 1034,-2518 1034,-2482 1152,-2482 1152,-2518"/>
<text text-anchor="middle" x="1093" y="-2497.1" font-family="Courier,monospace" font-size="11.00">TitleIconHelper</text>
</g>
<!-- \\TitleIconHelper&#45;&gt;\\AppHelper -->
<g id="edge83" class="edge"><title>\\TitleIconHelper&#45;&gt;\\AppHelper</title>
<path fill="none" stroke="black" d="M1033.99,-2494.56C1018.17,-2490.6 1002.12,-2483.99 990,-2473 840.846,-2337.84 808.432,-2074.87 801.693,-1988.35"/>
<polygon fill="none" stroke="black" points="805.174,-1987.96 800.962,-1978.24 798.192,-1988.47 805.174,-1987.96"/>
</g>
<!-- \\DatetimePickerHelper -->
<g id="node49" class="node"><title>\\DatetimePickerHelper</title>
<polygon fill="none" stroke="black" points="1169,-2464 1017,-2464 1017,-2428 1169,-2428 1169,-2464"/>
<text text-anchor="middle" x="1093" y="-2443.1" font-family="Courier,monospace" font-size="11.00">DatetimePickerHelper</text>
</g>
<!-- \\DatetimePickerHelper&#45;&gt;\\AppHelper -->
<g id="edge85" class="edge"><title>\\DatetimePickerHelper&#45;&gt;\\AppHelper</title>
<path fill="none" stroke="black" d="M1016.91,-2434.77C1007.12,-2430.93 997.801,-2425.81 990,-2419 854.066,-2300.41 813.424,-2069.2 803.102,-1988.56"/>
<polygon fill="none" stroke="black" points="806.525,-1987.71 801.84,-1978.21 799.576,-1988.56 806.525,-1987.71"/>
</g>
<!-- \\Model -->
<g id="node116" class="node"><title>\\Model</title>
<ellipse fill="none" stroke="black" cx="44" cy="-3013" rx="43.8406" ry="18.3848"/>
<text text-anchor="middle" x="44" y="-3009.4" font-family="Times Roman,serif" font-size="14.00" fill="gray">\Model</text>
</g>
<!-- \\NetCommonsAppModel&#45;&gt;\\Model -->
<g id="edge87" class="edge"><title>\\NetCommonsAppModel&#45;&gt;\\Model</title>
<path fill="none" stroke="black" d="M172.749,-3013C148.379,-3013 121.357,-3013 98.3871,-3013"/>
<polygon fill="none" stroke="black" points="98.1425,-3009.5 88.1425,-3013 98.1424,-3016.5 98.1425,-3009.5"/>
</g>
<!-- \\OriginalKeyBehavior -->
<g id="node51" class="node"><title>\\OriginalKeyBehavior</title>
<polygon fill="none" stroke="black" points="1165,-844 1021,-844 1021,-808 1165,-808 1165,-844"/>
<text text-anchor="middle" x="1093" y="-823.1" font-family="Courier,monospace" font-size="11.00">OriginalKeyBehavior</text>
</g>
<!-- \\ModelBehavior -->
<g id="node118" class="node"><title>\\ModelBehavior</title>
<ellipse fill="none" stroke="black" cx="800" cy="-180" rx="86.9741" ry="18.3848"/>
<text text-anchor="middle" x="800" y="-176.4" font-family="Times Roman,serif" font-size="14.00" fill="gray">\ModelBehavior</text>
</g>
<!-- \\OriginalKeyBehavior&#45;&gt;\\ModelBehavior -->
<g id="edge89" class="edge"><title>\\OriginalKeyBehavior&#45;&gt;\\ModelBehavior</title>
<path fill="none" stroke="black" d="M1020.27,-818.647C1008.76,-814.437 998.024,-808.191 990,-799 815.683,-599.337 1095.43,-403.899 918,-207 910.964,-199.192 902.172,-193.404 892.581,-189.145"/>
<polygon fill="none" stroke="black" points="893.76,-185.848 883.171,-185.514 891.24,-192.379 893.76,-185.848"/>
</g>
<!-- \\TrackableBehavior -->
<g id="node52" class="node"><title>\\TrackableBehavior</title>
<polygon fill="none" stroke="black" points="1158,-790 1028,-790 1028,-754 1158,-754 1158,-790"/>
<text text-anchor="middle" x="1093" y="-769.1" font-family="Courier,monospace" font-size="11.00">TrackableBehavior</text>
</g>
<!-- \\TrackableBehavior&#45;&gt;\\ModelBehavior -->
<g id="edge91" class="edge"><title>\\TrackableBehavior&#45;&gt;\\ModelBehavior</title>
<path fill="none" stroke="black" d="M1027.24,-766.821C1013.18,-762.704 999.671,-755.943 990,-745 830.252,-564.227 1080.57,-385.24 918,-207 910.917,-199.234 902.097,-193.472 892.49,-189.227"/>
<polygon fill="none" stroke="black" points="893.659,-185.927 883.069,-185.607 891.148,-192.461 893.659,-185.927"/>
</g>
<!-- \\YAExceptionRenderer -->
<g id="node53" class="node"><title>\\YAExceptionRenderer</title>
<polygon fill="none" stroke="black" points="1165,-736 1021,-736 1021,-700 1165,-700 1165,-736"/>
<text text-anchor="middle" x="1093" y="-715.1" font-family="Courier,monospace" font-size="11.00">YAExceptionRenderer</text>
</g>
<!-- \\ExceptionRenderer -->
<g id="node121" class="node"><title>\\ExceptionRenderer</title>
<ellipse fill="none" stroke="black" cx="800" cy="-126" rx="118.087" ry="18.3848"/>
<text text-anchor="middle" x="800" y="-122.4" font-family="Times Roman,serif" font-size="14.00" fill="gray">TEHxceptionRenderer</text>
</g>
<!-- \\YAExceptionRenderer&#45;&gt;\\ExceptionRenderer -->
<g id="edge93" class="edge"><title>\\YAExceptionRenderer&#45;&gt;\\ExceptionRenderer</title>
<path fill="none" stroke="black" d="M1020.36,-710.567C1008.84,-706.366 998.079,-700.143 990,-691 830.252,-510.227 1080.57,-331.24 918,-153 913.963,-148.574 909.361,-144.798 904.372,-141.584"/>
<polygon fill="none" stroke="black" points="906.073,-138.525 895.638,-136.687 902.65,-144.631 906.073,-138.525"/>
</g>
<!-- \\NetCommonsMigration -->
<g id="node54" class="node"><title>\\NetCommonsMigration</title>
<polygon fill="none" stroke="black" points="1165,-628 1021,-628 1021,-592 1165,-592 1165,-628"/>
<text text-anchor="middle" x="1093" y="-607.1" font-family="Courier,monospace" font-size="11.00">NetCommonsMigration</text>
</g>
<!-- \\CakeMigration -->
<g id="node123" class="node"><title>\\CakeMigration</title>
<ellipse fill="none" stroke="black" cx="800" cy="-72" rx="84.8528" ry="18.3848"/>
<text text-anchor="middle" x="800" y="-68.4" font-family="Times Roman,serif" font-size="14.00" fill="gray">\CakeMigration</text>
</g>
<!-- \\NetCommonsMigration&#45;&gt;\\CakeMigration -->
<g id="edge95" class="edge"><title>\\NetCommonsMigration&#45;&gt;\\CakeMigration</title>
<path fill="none" stroke="black" d="M1020.47,-602.469C1008.94,-598.277 998.146,-592.083 990,-583 844.8,-421.094 1065.73,-258.605 918,-99 910.513,-90.9113 901.142,-85.0036 890.972,-80.7228"/>
<polygon fill="none" stroke="black" points="892.033,-77.384 881.439,-77.2329 889.626,-83.9574 892.033,-77.384"/>
</g>
<!-- \\TagsAppController -->
<g id="node55" class="node"><title>\\TagsAppController</title>
<polygon fill="none" stroke="black" points="865,-2734 735,-2734 735,-2698 865,-2698 865,-2734"/>
<text text-anchor="middle" x="800" y="-2713.1" font-family="Courier,monospace" font-size="11.00">TagsAppController</text>
</g>
<!-- \\TagsAppController&#45;&gt;\\AppController -->
<g id="edge97" class="edge"><title>\\TagsAppController&#45;&gt;\\AppController</title>
<path fill="none" stroke="black" d="M734.277,-2714.56C715.009,-2710.88 695.511,-2703.41 682,-2689 529.509,-2526.34 506.586,-1768.08 503.46,-1611.38"/>
<polygon fill="none" stroke="black" points="506.955,-1611.09 503.268,-1601.15 499.956,-1611.22 506.955,-1611.09"/>
</g>
<!-- \\TagsController -->
<g id="node56" class="node"><title>\\TagsController</title>
<polygon fill="none" stroke="black" points="1148,-2734 1038,-2734 1038,-2698 1148,-2698 1148,-2734"/>
<text text-anchor="middle" x="1093" y="-2713.1" font-family="Courier,monospace" font-size="11.00">TagsController</text>
</g>
<!-- \\TagsController&#45;&gt;\\TagsAppController -->
<g id="edge99" class="edge"><title>\\TagsController&#45;&gt;\\TagsAppController</title>
<path fill="none" stroke="black" d="M1037.2,-2716C991.453,-2716 926.254,-2716 875.785,-2716"/>
<polygon fill="none" stroke="black" points="875.575,-2712.5 865.575,-2716 875.575,-2719.5 875.575,-2712.5"/>
</g>
<!-- \\TagsAppModel -->
<g id="node57" class="node"><title>\\TagsAppModel</title>
<polygon fill="none" stroke="black" points="849,-3004 751,-3004 751,-2968 849,-2968 849,-3004"/>
<text text-anchor="middle" x="800" y="-2983.1" font-family="Courier,monospace" font-size="11.00">TagsAppModel</text>
</g>
<!-- \\TagsAppModel&#45;&gt;\\AppModel -->
<g id="edge101" class="edge"><title>\\TagsAppModel&#45;&gt;\\AppModel</title>
<path fill="none" stroke="black" d="M750.956,-2990.46C694.77,-2995.57 603.429,-3003.87 548.689,-3008.85"/>
<polygon fill="none" stroke="black" points="548.223,-3005.37 538.581,-3009.77 548.857,-3012.35 548.223,-3005.37"/>
</g>
<!-- \\TagBehavior -->
<g id="node58" class="node"><title>\\TagBehavior</title>
<polygon fill="none" stroke="black" points="1138,-898 1048,-898 1048,-862 1138,-862 1138,-898"/>
<text text-anchor="middle" x="1093" y="-877.1" font-family="Courier,monospace" font-size="11.00">TagBehavior</text>
</g>
<!-- \\TagBehavior&#45;&gt;\\ModelBehavior -->
<g id="edge103" class="edge"><title>\\TagBehavior&#45;&gt;\\ModelBehavior</title>
<path fill="none" stroke="black" d="M1047.39,-879.237C1026.87,-876.41 1004.14,-869.364 990,-853 801.099,-634.429 1110.31,-422.576 918,-207 911.003,-199.156 902.236,-193.347 892.657,-189.076"/>
<polygon fill="none" stroke="black" points="893.845,-185.783 883.256,-185.437 891.318,-192.311 893.845,-185.783"/>
</g>
<!-- \\TagsContent -->
<g id="node59" class="node"><title>\\TagsContent</title>
<polygon fill="none" stroke="black" points="1138,-3004 1048,-3004 1048,-2968 1138,-2968 1138,-3004"/>
<text text-anchor="middle" x="1093" y="-2983.1" font-family="Courier,monospace" font-size="11.00">TagsContent</text>
</g>
<!-- \\TagsContent&#45;&gt;\\TagsAppModel -->
<g id="edge105" class="edge"><title>\\TagsContent&#45;&gt;\\TagsAppModel</title>
<path fill="none" stroke="black" d="M1047.22,-2986C996.611,-2986 914.925,-2986 859.418,-2986"/>
<polygon fill="none" stroke="black" points="859.372,-2982.5 849.372,-2986 859.372,-2989.5 859.372,-2982.5"/>
</g>
<!-- \\Tag -->
<g id="node60" class="node"><title>\\Tag</title>
<polygon fill="none" stroke="black" points="1120,-3058 1066,-3058 1066,-3022 1120,-3022 1120,-3058"/>
<text text-anchor="middle" x="1093" y="-3037.1" font-family="Courier,monospace" font-size="11.00">Tag</text>
</g>
<!-- \\Tag&#45;&gt;\\TagsAppModel -->
<g id="edge107" class="edge"><title>\\Tag&#45;&gt;\\TagsAppModel</title>
<path fill="none" stroke="black" d="M1065.96,-3035.02C1019.26,-3026.41 922.445,-3008.57 859.406,-2996.95"/>
<polygon fill="none" stroke="black" points="859.676,-2993.44 849.207,-2995.07 858.407,-3000.32 859.676,-2993.44"/>
</g>
<!-- \\TagsSchema -->
<g id="node61" class="node"><title>\\TagsSchema</title>
<polygon fill="none" stroke="black" points="1135,-466 1051,-466 1051,-430 1135,-430 1135,-466"/>
<text text-anchor="middle" x="1093" y="-445.1" font-family="Courier,monospace" font-size="11.00">TagsSchema</text>
</g>
<!-- \\CakeSchema -->
<g id="node131" class="node"><title>\\CakeSchema</title>
<ellipse fill="none" stroke="black" cx="800" cy="-18" rx="77.0746" ry="18.3848"/>
<text text-anchor="middle" x="800" y="-14.4" font-family="Times Roman,serif" font-size="14.00" fill="gray">\CakeSchema</text>
</g>
<!-- \\TagsSchema&#45;&gt;\\CakeSchema -->
<g id="edge109" class="edge"><title>\\TagsSchema&#45;&gt;\\CakeSchema</title>
<path fill="none" stroke="black" d="M1090.86,-429.713C1082.37,-365.789 1045.04,-150.503 918,-45 907.886,-36.6012 895.67,-30.6949 882.982,-26.5644"/>
<polygon fill="none" stroke="black" points="883.793,-23.1556 873.214,-23.74 881.848,-29.8801 883.793,-23.1556"/>
</g>
<!-- \\Init -->
<g id="node62" class="node"><title>\\Init</title>
<polygon fill="none" stroke="black" points="1120,-574 1066,-574 1066,-538 1120,-538 1120,-574"/>
<text text-anchor="middle" x="1093" y="-553.1" font-family="Courier,monospace" font-size="11.00">Init</text>
</g>
<!-- \\Init&#45;&gt;\\CakeMigration -->
<g id="edge111" class="edge"><title>\\Init&#45;&gt;\\CakeMigration</title>
<path fill="none" stroke="black" d="M1065.66,-556.547C1042.14,-555.449 1009.07,-549.884 990,-529 859.318,-385.927 1050.91,-240.002 918,-99 910.44,-90.9799 901.025,-85.1126 890.833,-80.8528"/>
<polygon fill="none" stroke="black" points="891.879,-77.5089 881.284,-77.377 889.484,-84.0866 891.879,-77.5089"/>
</g>
<!-- \\FixOriginId -->
<g id="node63" class="node"><title>\\FixOriginId</title>
<polygon fill="none" stroke="black" points="1138,-520 1048,-520 1048,-484 1138,-484 1138,-520"/>
<text text-anchor="middle" x="1093" y="-499.1" font-family="Courier,monospace" font-size="11.00">FixOriginId</text>
</g>
<!-- \\FixOriginId&#45;&gt;\\CakeMigration -->
<g id="edge113" class="edge"><title>\\FixOriginId&#45;&gt;\\CakeMigration</title>
<path fill="none" stroke="black" d="M1047.42,-500.661C1027.17,-497.676 1004.65,-490.664 990,-475 873.795,-350.716 1036.14,-221.443 918,-99 910.347,-91.0685 900.877,-85.2535 890.656,-81.0209"/>
<polygon fill="none" stroke="black" points="891.684,-77.6706 881.089,-77.5632 889.304,-84.2538 891.684,-77.6706"/>
</g>
<!-- \\OriginIdToKey -->
<g id="node64" class="node"><title>\\OriginIdToKey</title>
<polygon fill="none" stroke="black" points="1145,-682 1041,-682 1041,-646 1145,-646 1145,-682"/>
<text text-anchor="middle" x="1093" y="-661.1" font-family="Courier,monospace" font-size="11.00">OriginIdToKey</text>
</g>
<!-- \\OriginIdToKey&#45;&gt;\\CakeMigration -->
<g id="edge115" class="edge"><title>\\OriginIdToKey&#45;&gt;\\CakeMigration</title>
<path fill="none" stroke="black" d="M1040.92,-662.033C1022.3,-658.632 1002.79,-651.476 990,-637 830.252,-456.227 1080.57,-277.24 918,-99 910.573,-90.8567 901.236,-84.9168 891.084,-80.6193"/>
<polygon fill="none" stroke="black" points="892.157,-77.2846 881.564,-77.1181 889.741,-83.8545 892.157,-77.2846"/>
</g>
</g>
</svg>
