<?xml version="1.0" encoding="UTF-8" standalone="no"?>
<!DOCTYPE svg PUBLIC "-//W3C//DTD SVG 1.1//EN"
 "http://www.w3.org/Graphics/SVG/1.1/DTD/svg11.dtd">
<!-- Generated by graphviz version 2.26.3 (20100126.1600)
 -->
<!-- Title: G Pages: 1 -->
<svg width="1220pt" height="2942pt"
 viewBox="0.00 0.00 1220.00 2942.00" xmlns="http://www.w3.org/2000/svg" xmlns:xlink="http://www.w3.org/1999/xlink">
<g id="graph1" class="graph" transform="scale(1 1) rotate(0) translate(4 2938)">
<title>G</title>
<polygon fill="white" stroke="white" points="-4,5 -4,-2938 1217,-2938 1217,5 -4,5"/>
<g id="graph2" class="cluster"><title>cluster_Global</title>
<polyline fill="none" stroke="gray" points="177,-422 1192,-422 "/>
<path fill="none" stroke="gray" d="M1192,-422C1198,-422 1204,-428 1204,-434"/>
<polyline fill="none" stroke="gray" points="1204,-434 1204,-2914 "/>
<path fill="none" stroke="gray" d="M1204,-2914C1204,-2920 1198,-2926 1192,-2926"/>
<polyline fill="none" stroke="gray" points="1192,-2926 177,-2926 "/>
<path fill="none" stroke="gray" d="M177,-2926C171,-2926 165,-2920 165,-2914"/>
<polyline fill="none" stroke="gray" points="165,-2914 165,-434 "/>
<path fill="none" stroke="gray" d="M165,-434C165,-428 171,-422 177,-422"/>
<text text-anchor="middle" x="684.5" y="-2912.1" font-family="Times Roman,serif" font-size="11.00" fill="gray">Global</text>
</g>
<!-- \\AppController -->
<g id="node2" class="node"><title>\\AppController</title>
<polygon fill="none" stroke="black" points="555,-1520 451,-1520 451,-1484 555,-1484 555,-1520"/>
<text text-anchor="middle" x="503" y="-1499.1" font-family="Courier,monospace" font-size="11.00">AppController</text>
</g>
<!-- \\Controller -->
<g id="node63" class="node"><title>\\Controller</title>
<ellipse fill="none" stroke="black" cx="242" cy="-319" rx="63.1385" ry="18.3848"/>
<text text-anchor="middle" x="242" y="-315.4" font-family="Times Roman,serif" font-size="14.00" fill="gray">\Controller</text>
</g>
<!-- \\AppController&#45;&gt;\\Controller -->
<g id="edge3" class="edge"><title>\\AppController&#45;&gt;\\Controller</title>
<path fill="none" stroke="black" d="M450.826,-1503.96C430.791,-1501.84 409.512,-1495.52 396,-1480 233.541,-1293.41 452.043,-580.696 324,-369 316.077,-355.901 303.29,-345.766 290.147,-338.155"/>
<polygon fill="none" stroke="black" points="291.514,-334.917 281.046,-333.283 288.21,-341.088 291.514,-334.917"/>
</g>
<!-- \\AppModel -->
<g id="node3" class="node"><title>\\AppModel</title>
<polygon fill="none" stroke="black" points="538,-2869 468,-2869 468,-2833 538,-2833 538,-2869"/>
<text text-anchor="middle" x="503" y="-2848.1" font-family="Courier,monospace" font-size="11.00">AppModel</text>
</g>
<!-- \\NetCommonsAppModel -->
<g id="node47" class="node"><title>\\NetCommonsAppModel</title>
<polygon fill="none" stroke="black" points="311,-2869 173,-2869 173,-2833 311,-2833 311,-2869"/>
<text text-anchor="middle" x="242" y="-2848.1" font-family="Courier,monospace" font-size="11.00">NetCommonsAppModel</text>
</g>
<!-- \\AppModel&#45;&gt;\\NetCommonsAppModel -->
<g id="edge5" class="edge"><title>\\AppModel&#45;&gt;\\NetCommonsAppModel</title>
<path fill="none" stroke="black" d="M467.256,-2851C429.848,-2851 369.903,-2851 321.254,-2851"/>
<polygon fill="none" stroke="black" points="321.056,-2847.5 311.056,-2851 321.056,-2854.5 321.056,-2847.5"/>
</g>
<!-- \\DatabaseConfiguration -->
<g id="node4" class="node"><title>\\DatabaseConfiguration</title>
<polygon fill="none" stroke="black" points="879,-2896 721,-2896 721,-2860 879,-2860 879,-2896"/>
<text text-anchor="middle" x="800" y="-2875.1" font-family="Courier,monospace" font-size="11.00">DatabaseConfiguration</text>
</g>
<!-- \\DatabaseConfiguration&#45;&gt;\\AppModel -->
<g id="edge7" class="edge"><title>\\DatabaseConfiguration&#45;&gt;\\AppModel</title>
<path fill="none" stroke="black" d="M720.8,-2870.8C665.959,-2865.81 594.863,-2859.35 549.084,-2855.19"/>
<polygon fill="none" stroke="black" points="549.143,-2851.68 538.867,-2854.26 548.509,-2858.65 549.143,-2851.68"/>
</g>
<!-- \\AppHelper -->
<g id="node5" class="node"><title>\\AppHelper</title>
<polygon fill="none" stroke="black" points="838,-1843 762,-1843 762,-1807 838,-1807 838,-1843"/>
<text text-anchor="middle" x="800" y="-1822.1" font-family="Courier,monospace" font-size="11.00">AppHelper</text>
</g>
<!-- \\Helper -->
<g id="node67" class="node"><title>\\Helper</title>
<ellipse fill="none" stroke="black" cx="503" cy="-396" rx="43.8406" ry="18.3848"/>
<text text-anchor="middle" x="503" y="-392.4" font-family="Times Roman,serif" font-size="14.00" fill="gray">Helper</text>
</g>
<!-- \\AppHelper&#45;&gt;\\Helper -->
<g id="edge9" class="edge"><title>\\AppHelper&#45;&gt;\\Helper</title>
<path fill="none" stroke="black" d="M791.332,-1806.91C768.643,-1758.59 707.507,-1621.96 682,-1501 657.117,-1383 689.267,-508.889 610,-418 596.837,-402.908 576.329,-396.523 556.774,-394.23"/>
<polygon fill="none" stroke="black" points="556.937,-390.731 546.678,-393.379 556.349,-397.706 556.937,-390.731"/>
</g>
<!-- \\NetCommonsDeleteTest -->
<g id="node6" class="node"><title>\\NetCommonsDeleteTest</title>
<polygon fill="none" stroke="black" points="1169,-2788 1017,-2788 1017,-2752 1169,-2752 1169,-2788"/>
<text text-anchor="middle" x="1093" y="-2767.1" font-family="Courier,monospace" font-size="11.00">NetCommonsDeleteTest</text>
</g>
<!-- \\NetCommonsModelTestCase -->
<g id="node15" class="node"><title>\\NetCommonsModelTestCase</title>
<polygon fill="none" stroke="black" points="886,-2680 714,-2680 714,-2644 886,-2644 886,-2680"/>
<text text-anchor="middle" x="800" y="-2659.1" font-family="Courier,monospace" font-size="11.00">NetCommonsModelTestCase</text>
</g>
<!-- \\NetCommonsDeleteTest&#45;&gt;\\NetCommonsModelTestCase -->
<g id="edge11" class="edge"><title>\\NetCommonsDeleteTest&#45;&gt;\\NetCommonsModelTestCase</title>
<path fill="none" stroke="black" d="M1016.97,-2753.68C1007.68,-2750.64 998.49,-2747.1 990,-2743 953.981,-2725.6 954.288,-2705.83 918,-2689 910.962,-2685.74 903.501,-2682.85 895.884,-2680.31"/>
<polygon fill="none" stroke="black" points="896.762,-2676.91 886.173,-2677.26 894.666,-2683.59 896.762,-2676.91"/>
</g>
<!-- \\NetCommonsConsoleTestCase -->
<g id="node7" class="node"><title>\\NetCommonsConsoleTestCase</title>
<polygon fill="none" stroke="black" points="892,-2626 708,-2626 708,-2590 892,-2590 892,-2626"/>
<text text-anchor="middle" x="800" y="-2605.1" font-family="Courier,monospace" font-size="11.00">NetCommonsConsoleTestCase</text>
</g>
<!-- \\NetCommonsCakeTestCase -->
<g id="node13" class="node"><title>\\NetCommonsCakeTestCase</title>
<polygon fill="none" stroke="black" points="585,-2653 421,-2653 421,-2617 585,-2617 585,-2653"/>
<text text-anchor="middle" x="503" y="-2632.1" font-family="Courier,monospace" font-size="11.00">NetCommonsCakeTestCase</text>
</g>
<!-- \\NetCommonsConsoleTestCase&#45;&gt;\\NetCommonsCakeTestCase -->
<g id="edge13" class="edge"><title>\\NetCommonsConsoleTestCase&#45;&gt;\\NetCommonsCakeTestCase</title>
<path fill="none" stroke="black" d="M707.249,-2616.43C671.93,-2619.64 631.688,-2623.3 596.316,-2626.52"/>
<polygon fill="none" stroke="black" points="595.635,-2623.06 585.993,-2627.46 596.269,-2630.04 595.635,-2623.06"/>
</g>
<!-- \\NetCommonsGetTest -->
<g id="node8" class="node"><title>\\NetCommonsGetTest</title>
<polygon fill="none" stroke="black" points="1158,-2734 1028,-2734 1028,-2698 1158,-2698 1158,-2734"/>
<text text-anchor="middle" x="1093" y="-2713.1" font-family="Courier,monospace" font-size="11.00">NetCommonsGetTest</text>
</g>
<!-- \\NetCommonsGetTest&#45;&gt;\\NetCommonsModelTestCase -->
<g id="edge15" class="edge"><title>\\NetCommonsGetTest&#45;&gt;\\NetCommonsModelTestCase</title>
<path fill="none" stroke="black" d="M1027.25,-2703.88C988.582,-2696.76 939.008,-2687.62 896.034,-2679.7"/>
<polygon fill="none" stroke="black" points="896.588,-2676.24 886.12,-2677.87 895.32,-2683.13 896.588,-2676.24"/>
</g>
<!-- \\NetCommonsHelperTestCase -->
<g id="node9" class="node"><title>\\NetCommonsHelperTestCase</title>
<polygon fill="none" stroke="black" points="889,-2734 711,-2734 711,-2698 889,-2698 889,-2734"/>
<text text-anchor="middle" x="800" y="-2713.1" font-family="Courier,monospace" font-size="11.00">NetCommonsHelperTestCase</text>
</g>
<!-- \\NetCommonsHelperTestCase&#45;&gt;\\NetCommonsCakeTestCase -->
<g id="edge17" class="edge"><title>\\NetCommonsHelperTestCase&#45;&gt;\\NetCommonsCakeTestCase</title>
<path fill="none" stroke="black" d="M717.936,-2697.98C705.852,-2695.11 693.579,-2692.07 682,-2689 644.303,-2679.01 602.565,-2666.51 568.882,-2656.05"/>
<polygon fill="none" stroke="black" points="569.742,-2652.65 559.154,-2653.01 567.658,-2659.33 569.742,-2652.65"/>
</g>
<!-- \\NetCommonsControllerBaseTestCase -->
<g id="node10" class="node"><title>\\NetCommonsControllerBaseTestCase</title>
<polygon fill="none" stroke="black" points="916,-1492 684,-1492 684,-1456 916,-1456 916,-1492"/>
<text text-anchor="middle" x="800" y="-1471.1" font-family="Courier,monospace" font-size="11.00">NetCommonsControllerBaseTestCase</text>
</g>
<!-- \\ControllerTestCase -->
<g id="node73" class="node"><title>\\ControllerTestCase</title>
<ellipse fill="none" stroke="black" cx="503" cy="-342" rx="106.773" ry="18.3848"/>
<text text-anchor="middle" x="503" y="-338.4" font-family="Times Roman,serif" font-size="14.00" fill="gray">\ControllerTestCase</text>
</g>
<!-- \\NetCommonsControllerBaseTestCase&#45;&gt;\\ControllerTestCase -->
<g id="edge19" class="edge"><title>\\NetCommonsControllerBaseTestCase&#45;&gt;\\ControllerTestCase</title>
<path fill="none" stroke="black" d="M795,-1455.55C777.207,-1389.29 716.204,-1156.97 682,-962 659.062,-831.251 697.752,-468.604 610,-369 606.24,-364.732 601.913,-361.091 597.202,-357.989"/>
<polygon fill="none" stroke="black" points="598.77,-354.855 588.344,-352.968 595.318,-360.944 598.77,-354.855"/>
</g>
<!-- \\NetCommonsValidateTest -->
<g id="node11" class="node"><title>\\NetCommonsValidateTest</title>
<polygon fill="none" stroke="black" points="1175,-2680 1011,-2680 1011,-2644 1175,-2644 1175,-2680"/>
<text text-anchor="middle" x="1093" y="-2659.1" font-family="Courier,monospace" font-size="11.00">NetCommonsValidateTest</text>
</g>
<!-- \\NetCommonsValidateTest&#45;&gt;\\NetCommonsModelTestCase -->
<g id="edge21" class="edge"><title>\\NetCommonsValidateTest&#45;&gt;\\NetCommonsModelTestCase</title>
<path fill="none" stroke="black" d="M1010.21,-2662C974.791,-2662 933.196,-2662 896.397,-2662"/>
<polygon fill="none" stroke="black" points="896.154,-2658.5 886.154,-2662 896.154,-2665.5 896.154,-2658.5"/>
</g>
<!-- \\NetCommonsTestSuite -->
<g id="node12" class="node"><title>\\NetCommonsTestSuite</title>
<polygon fill="none" stroke="black" points="1165,-1384 1021,-1384 1021,-1348 1165,-1348 1165,-1384"/>
<text text-anchor="middle" x="1093" y="-1363.1" font-family="Courier,monospace" font-size="11.00">NetCommonsTestSuite</text>
</g>
<!-- \\CakeTestSuite -->
<g id="node76" class="node"><title>\\CakeTestSuite</title>
<ellipse fill="none" stroke="black" cx="800" cy="-396" rx="84.1457" ry="18.3848"/>
<text text-anchor="middle" x="800" y="-392.4" font-family="Times Roman,serif" font-size="14.00" fill="gray">\CakeTestSuite</text>
</g>
<!-- \\NetCommonsTestSuite&#45;&gt;\\CakeTestSuite -->
<g id="edge23" class="edge"><title>\\NetCommonsTestSuite&#45;&gt;\\CakeTestSuite</title>
<path fill="none" stroke="black" d="M1020.46,-1359.12C1008.78,-1354.88 997.943,-1348.5 990,-1339 858.342,-1181.49 1055.25,-570.67 918,-418 911.208,-410.445 902.724,-404.97 893.438,-401.056"/>
<polygon fill="none" stroke="black" points="894.513,-397.723 883.919,-397.643 892.151,-404.312 894.513,-397.723"/>
</g>
<!-- \\CakeTestCase -->
<g id="node78" class="node"><title>\\CakeTestCase</title>
<ellipse fill="none" stroke="black" cx="242" cy="-396" rx="82.0244" ry="18.3848"/>
<text text-anchor="middle" x="242" y="-392.4" font-family="Times Roman,serif" font-size="14.00" fill="gray">\CakeTestCase</text>
</g>
<!-- \\NetCommonsCakeTestCase&#45;&gt;\\CakeTestCase -->
<g id="edge25" class="edge"><title>\\NetCommonsCakeTestCase&#45;&gt;\\CakeTestCase</title>
<path fill="none" stroke="black" d="M501.018,-2616.78C489.624,-2511.58 431.714,-1971.25 396,-1529 386.043,-1405.7 402.426,-513.665 324,-418 322.283,-415.905 320.39,-413.998 318.355,-412.262"/>
<polygon fill="none" stroke="black" points="320.087,-409.204 309.875,-406.381 316.098,-414.956 320.087,-409.204"/>
</g>
<!-- \\NetCommonsSaveTest -->
<g id="node14" class="node"><title>\\NetCommonsSaveTest</title>
<polygon fill="none" stroke="black" points="1162,-2626 1024,-2626 1024,-2590 1162,-2590 1162,-2626"/>
<text text-anchor="middle" x="1093" y="-2605.1" font-family="Courier,monospace" font-size="11.00">NetCommonsSaveTest</text>
</g>
<!-- \\NetCommonsSaveTest&#45;&gt;\\NetCommonsModelTestCase -->
<g id="edge27" class="edge"><title>\\NetCommonsSaveTest&#45;&gt;\\NetCommonsModelTestCase</title>
<path fill="none" stroke="black" d="M1023.93,-2620.73C985.795,-2627.76 937.829,-2636.6 896.084,-2644.29"/>
<polygon fill="none" stroke="black" points="895.372,-2640.86 886.172,-2646.12 896.641,-2647.75 895.372,-2640.86"/>
</g>
<!-- \\NetCommonsModelTestCase&#45;&gt;\\NetCommonsCakeTestCase -->
<g id="edge29" class="edge"><title>\\NetCommonsModelTestCase&#45;&gt;\\NetCommonsCakeTestCase</title>
<path fill="none" stroke="black" d="M713.696,-2654.15C676.671,-2650.79 633.35,-2646.85 595.65,-2643.42"/>
<polygon fill="none" stroke="black" points="595.962,-2639.94 585.686,-2642.52 595.328,-2646.91 595.962,-2639.94"/>
</g>
<!-- \\NetCommonsControllerTestCase -->
<g id="node16" class="node"><title>\\NetCommonsControllerTestCase</title>
<polygon fill="none" stroke="black" points="1196,-1492 990,-1492 990,-1456 1196,-1456 1196,-1492"/>
<text text-anchor="middle" x="1093" y="-1471.1" font-family="Courier,monospace" font-size="11.00">NetCommonsControllerTestCase</text>
</g>
<!-- \\NetCommonsControllerTestCase&#45;&gt;\\NetCommonsControllerBaseTestCase -->
<g id="edge31" class="edge"><title>\\NetCommonsControllerTestCase&#45;&gt;\\NetCommonsControllerBaseTestCase</title>
<path fill="none" stroke="black" d="M989.699,-1474C969.381,-1474 947.845,-1474 926.858,-1474"/>
<polygon fill="none" stroke="black" points="926.606,-1470.5 916.606,-1474 926.606,-1477.5 926.606,-1470.5"/>
</g>
<!-- \\NetCommonsAppController -->
<g id="node17" class="node"><title>\\NetCommonsAppController</title>
<polygon fill="none" stroke="black" points="886,-953 714,-953 714,-917 886,-917 886,-953"/>
<text text-anchor="middle" x="800" y="-932.1" font-family="Courier,monospace" font-size="11.00">NetCommonsAppController</text>
</g>
<!-- \\NetCommonsAppController&#45;&gt;\\Controller -->
<g id="edge33" class="edge"><title>\\NetCommonsAppController&#45;&gt;\\Controller</title>
<path fill="none" stroke="black" d="M713.743,-932.198C701.761,-928.277 690.623,-922.198 682,-913 498.911,-717.704 810.285,-492.617 610,-315 520.722,-235.826 365.848,-274.302 288.604,-300.906"/>
<polygon fill="none" stroke="black" points="287.398,-297.62 279.13,-304.244 289.724,-304.222 287.398,-297.62"/>
</g>
<!-- \\AssetComponent -->
<g id="node18" class="node"><title>\\AssetComponent</title>
<polygon fill="none" stroke="black" points="1148,-1276 1038,-1276 1038,-1240 1148,-1240 1148,-1276"/>
<text text-anchor="middle" x="1093" y="-1255.1" font-family="Courier,monospace" font-size="11.00">AssetComponent</text>
</g>
<!-- \\Component -->
<g id="node84" class="node"><title>\\Component</title>
<ellipse fill="none" stroke="black" cx="800" cy="-342" rx="70.9184" ry="18.3848"/>
<text text-anchor="middle" x="800" y="-338.4" font-family="Times Roman,serif" font-size="14.00" fill="gray">\Component</text>
</g>
<!-- \\AssetComponent&#45;&gt;\\Component -->
<g id="edge35" class="edge"><title>\\AssetComponent&#45;&gt;\\Component</title>
<path fill="none" stroke="black" d="M1037.31,-1255.75C1019.66,-1252.15 1001.71,-1244.94 990,-1231 866.331,-1083.84 1043.97,-514.197 918,-369 908.377,-357.908 895.216,-350.859 881.165,-346.473"/>
<polygon fill="none" stroke="black" points="881.893,-343.045 871.328,-343.845 880.086,-349.808 881.893,-343.045"/>
</g>
<!-- \\NetCommonsTimeComponent -->
<g id="node19" class="node"><title>\\NetCommonsTimeComponent</title>
<polygon fill="none" stroke="black" points="1179,-1222 1007,-1222 1007,-1186 1179,-1186 1179,-1222"/>
<text text-anchor="middle" x="1093" y="-1201.1" font-family="Courier,monospace" font-size="11.00">NetCommonsTimeComponent</text>
</g>
<!-- \\NetCommonsTimeComponent&#45;&gt;\\Component -->
<g id="edge37" class="edge"><title>\\NetCommonsTimeComponent&#45;&gt;\\Component</title>
<path fill="none" stroke="black" d="M1006.95,-1190.83C1000.57,-1187.19 994.773,-1182.65 990,-1177 873.641,-1039.32 1036.51,-504.839 918,-369 908.346,-357.935 895.171,-350.898 881.117,-346.516"/>
<polygon fill="none" stroke="black" points="881.843,-343.087 871.278,-343.889 880.037,-349.85 881.843,-343.087"/>
</g>
<!-- \\PermissionComponent -->
<g id="node20" class="node"><title>\\PermissionComponent</title>
<polygon fill="none" stroke="black" points="1165,-1168 1021,-1168 1021,-1132 1165,-1132 1165,-1168"/>
<text text-anchor="middle" x="1093" y="-1147.1" font-family="Courier,monospace" font-size="11.00">PermissionComponent</text>
</g>
<!-- \\PermissionComponent&#45;&gt;\\Component -->
<g id="edge39" class="edge"><title>\\PermissionComponent&#45;&gt;\\Component</title>
<path fill="none" stroke="black" d="M1020.33,-1142.91C1008.74,-1138.69 997.965,-1132.36 990,-1123 880.948,-994.787 1029.05,-495.484 918,-369 908.311,-357.965 895.121,-350.943 881.061,-346.564"/>
<polygon fill="none" stroke="black" points="881.786,-343.135 871.222,-343.939 879.981,-349.899 881.786,-343.135"/>
</g>
<!-- \\NetCommonsComponent -->
<g id="node21" class="node"><title>\\NetCommonsComponent</title>
<polygon fill="none" stroke="black" points="1165,-1330 1021,-1330 1021,-1294 1165,-1294 1165,-1330"/>
<text text-anchor="middle" x="1093" y="-1309.1" font-family="Courier,monospace" font-size="11.00">NetCommonsComponent</text>
</g>
<!-- \\NetCommonsComponent&#45;&gt;\\Component -->
<g id="edge41" class="edge"><title>\\NetCommonsComponent&#45;&gt;\\Component</title>
<path fill="none" stroke="black" d="M1020.46,-1305.12C1008.79,-1300.88 997.945,-1294.5 990,-1285 859.019,-1128.36 1051.43,-523.559 918,-369 908.404,-357.884 895.256,-350.825 881.208,-346.436"/>
<polygon fill="none" stroke="black" points="881.937,-343.008 871.373,-343.807 880.13,-349.771 881.937,-343.008"/>
</g>
<!-- \\NetCommonsController -->
<g id="node22" class="node"><title>\\NetCommonsController</title>
<polygon fill="none" stroke="black" points="1169,-1438 1017,-1438 1017,-1402 1169,-1402 1169,-1438"/>
<text text-anchor="middle" x="1093" y="-1417.1" font-family="Courier,monospace" font-size="11.00">NetCommonsController</text>
</g>
<!-- \\NetCommonsController&#45;&gt;\\NetCommonsAppController -->
<g id="edge43" class="edge"><title>\\NetCommonsController&#45;&gt;\\NetCommonsAppController</title>
<path fill="none" stroke="black" d="M1016.92,-1408.77C1007.12,-1404.92 997.804,-1399.8 990,-1393 854.273,-1274.69 813.499,-1043.97 803.123,-963.502"/>
<polygon fill="none" stroke="black" points="806.547,-962.672 801.854,-953.173 799.6,-963.525 806.547,-962.672"/>
</g>
<!-- \\NetCommonsUrl -->
<g id="node23" class="node"><title>\\NetCommonsUrl</title>
<polygon fill="none" stroke="black" points="1145,-2302 1041,-2302 1041,-2266 1145,-2266 1145,-2302"/>
<text text-anchor="middle" x="1093" y="-2281.1" font-family="Courier,monospace" font-size="11.00">NetCommonsUrl</text>
</g>
<!-- \\NetCommonsTime -->
<g id="node24" class="node"><title>\\NetCommonsTime</title>
<polygon fill="none" stroke="black" points="1148,-2248 1038,-2248 1038,-2212 1148,-2212 1148,-2248"/>
<text text-anchor="middle" x="1093" y="-2227.1" font-family="Courier,monospace" font-size="11.00">NetCommonsTime</text>
</g>
<!-- \\CurrentBase -->
<g id="node25" class="node"><title>\\CurrentBase</title>
<polygon fill="none" stroke="black" points="845,-2518 755,-2518 755,-2482 845,-2482 845,-2518"/>
<text text-anchor="middle" x="800" y="-2497.1" font-family="Courier,monospace" font-size="11.00">CurrentBase</text>
</g>
<!-- \\Current -->
<g id="node26" class="node"><title>\\Current</title>
<polygon fill="none" stroke="black" points="1125,-2518 1061,-2518 1061,-2482 1125,-2482 1125,-2518"/>
<text text-anchor="middle" x="1093" y="-2497.1" font-family="Courier,monospace" font-size="11.00">Current</text>
</g>
<!-- \\Current&#45;&gt;\\CurrentBase -->
<g id="edge45" class="edge"><title>\\Current&#45;&gt;\\CurrentBase</title>
<path fill="none" stroke="black" d="M1060.81,-2500C1011.48,-2500 916.554,-2500 855.846,-2500"/>
<polygon fill="none" stroke="black" points="855.669,-2496.5 845.669,-2500 855.669,-2503.5 855.669,-2496.5"/>
</g>
<!-- \\CurrentSystem -->
<g id="node27" class="node"><title>\\CurrentSystem</title>
<polygon fill="none" stroke="black" points="1145,-2140 1041,-2140 1041,-2104 1145,-2104 1145,-2140"/>
<text text-anchor="middle" x="1093" y="-2119.1" font-family="Courier,monospace" font-size="11.00">CurrentSystem</text>
</g>
<!-- \\CurrentPage -->
<g id="node28" class="node"><title>\\CurrentPage</title>
<polygon fill="none" stroke="black" points="1138,-2086 1048,-2086 1048,-2050 1138,-2050 1138,-2086"/>
<text text-anchor="middle" x="1093" y="-2065.1" font-family="Courier,monospace" font-size="11.00">CurrentPage</text>
</g>
<!-- \\CurrentFrame -->
<g id="node29" class="node"><title>\\CurrentFrame</title>
<polygon fill="none" stroke="black" points="1142,-2032 1044,-2032 1044,-1996 1142,-1996 1142,-2032"/>
<text text-anchor="middle" x="1093" y="-2011.1" font-family="Courier,monospace" font-size="11.00">CurrentFrame</text>
</g>
<!-- \\TokenHelper -->
<g id="node30" class="node"><title>\\TokenHelper</title>
<polygon fill="none" stroke="black" points="1138,-1060 1048,-1060 1048,-1024 1138,-1024 1138,-1060"/>
<text text-anchor="middle" x="1093" y="-1039.1" font-family="Courier,monospace" font-size="11.00">TokenHelper</text>
</g>
<!-- \\FormHelper -->
<g id="node91" class="node"><title>\\FormHelper</title>
<ellipse fill="none" stroke="black" cx="800" cy="-288" rx="70.9184" ry="18.3848"/>
<text text-anchor="middle" x="800" y="-284.4" font-family="Times Roman,serif" font-size="14.00" fill="gray">\FormHelper</text>
</g>
<!-- \\TokenHelper&#45;&gt;\\FormHelper -->
<g id="edge47" class="edge"><title>\\TokenHelper&#45;&gt;\\FormHelper</title>
<path fill="none" stroke="black" d="M1047.32,-1041.29C1026.8,-1038.48 1004.07,-1031.42 990,-1015 786.502,-777.507 1125.2,-549.266 918,-315 908.271,-304.001 895.062,-296.994 880.998,-292.62"/>
<polygon fill="none" stroke="black" points="881.72,-289.191 871.156,-289.996 879.917,-295.955 881.72,-289.191"/>
</g>
<!-- \\SingletonViewBlockHtmlHelper -->
<g id="node31" class="node"><title>\\SingletonViewBlockHtmlHelper</title>
<polygon fill="none" stroke="black" points="1196,-952 990,-952 990,-916 1196,-916 1196,-952"/>
<text text-anchor="middle" x="1093" y="-931.1" font-family="Courier,monospace" font-size="11.00">SingletonViewBlockHtmlHelper</text>
</g>
<!-- \\HtmlHelper -->
<g id="node93" class="node"><title>\\HtmlHelper</title>
<ellipse fill="none" stroke="black" cx="800" cy="-234" rx="67.1751" ry="18.3848"/>
<text text-anchor="middle" x="800" y="-230.4" font-family="Times Roman,serif" font-size="14.00" fill="gray">HtmlHelper</text>
</g>
<!-- \\SingletonViewBlockHtmlHelper&#45;&gt;\\HtmlHelper -->
<g id="edge49" class="edge"><title>\\SingletonViewBlockHtmlHelper&#45;&gt;\\HtmlHelper</title>
<path fill="none" stroke="black" d="M999.694,-915.938C996.163,-913.321 992.901,-910.357 990,-907 801.099,-688.429 1110.31,-476.576 918,-261 907.283,-248.987 892.415,-241.746 876.839,-237.496"/>
<polygon fill="none" stroke="black" points="877.614,-234.083 867.08,-235.221 876.024,-240.9 877.614,-234.083"/>
</g>
<!-- \\FormInputHelper -->
<g id="node32" class="node"><title>\\FormInputHelper</title>
<polygon fill="none" stroke="black" points="1152,-1978 1034,-1978 1034,-1942 1152,-1942 1152,-1978"/>
<text text-anchor="middle" x="1093" y="-1957.1" font-family="Courier,monospace" font-size="11.00">FormInputHelper</text>
</g>
<!-- \\FormInputHelper&#45;&gt;\\AppHelper -->
<g id="edge51" class="edge"><title>\\FormInputHelper&#45;&gt;\\AppHelper</title>
<path fill="none" stroke="black" d="M1033.85,-1947.31C1019.27,-1943.42 1003.87,-1938.65 990,-1933 933.066,-1909.82 872.097,-1872.73 835.004,-1848.61"/>
<polygon fill="none" stroke="black" points="836.839,-1845.63 826.557,-1843.07 833.002,-1851.48 836.839,-1845.63"/>
</g>
<!-- \\WizardHelper -->
<g id="node33" class="node"><title>\\WizardHelper</title>
<polygon fill="none" stroke="black" points="1142,-1924 1044,-1924 1044,-1888 1142,-1888 1142,-1924"/>
<text text-anchor="middle" x="1093" y="-1903.1" font-family="Courier,monospace" font-size="11.00">WizardHelper</text>
</g>
<!-- \\WizardHelper&#45;&gt;\\AppHelper -->
<g id="edge53" class="edge"><title>\\WizardHelper&#45;&gt;\\AppHelper</title>
<path fill="none" stroke="black" d="M1043.96,-1893.36C1026.86,-1888.9 1007.57,-1883.8 990,-1879 941.716,-1865.81 886.728,-1850.11 848.375,-1839.04"/>
<polygon fill="none" stroke="black" points="849.087,-1835.61 838.508,-1836.2 847.145,-1842.33 849.087,-1835.61"/>
</g>
<!-- \\DisplayNumberHelper -->
<g id="node34" class="node"><title>\\DisplayNumberHelper</title>
<polygon fill="none" stroke="black" points="1165,-1870 1021,-1870 1021,-1834 1165,-1834 1165,-1870"/>
<text text-anchor="middle" x="1093" y="-1849.1" font-family="Courier,monospace" font-size="11.00">DisplayNumberHelper</text>
</g>
<!-- \\DisplayNumberHelper&#45;&gt;\\AppHelper -->
<g id="edge55" class="edge"><title>\\DisplayNumberHelper&#45;&gt;\\AppHelper</title>
<path fill="none" stroke="black" d="M1020.2,-1845.29C966.781,-1840.37 895.692,-1833.82 848.927,-1829.51"/>
<polygon fill="none" stroke="black" points="849.031,-1826 838.752,-1828.57 848.388,-1832.97 849.031,-1826"/>
</g>
<!-- \\MessageFlashHelper -->
<g id="node35" class="node"><title>\\MessageFlashHelper</title>
<polygon fill="none" stroke="black" points="1162,-1816 1024,-1816 1024,-1780 1162,-1780 1162,-1816"/>
<text text-anchor="middle" x="1093" y="-1795.1" font-family="Courier,monospace" font-size="11.00">MessageFlashHelper</text>
</g>
<!-- \\MessageFlashHelper&#45;&gt;\\AppHelper -->
<g id="edge57" class="edge"><title>\\MessageFlashHelper&#45;&gt;\\AppHelper</title>
<path fill="none" stroke="black" d="M1023.93,-1804.36C970.028,-1809.33 896.492,-1816.11 848.634,-1820.52"/>
<polygon fill="none" stroke="black" points="848.168,-1817.05 838.532,-1821.45 848.811,-1824.02 848.168,-1817.05"/>
</g>
<!-- \\DateHelper -->
<g id="node36" class="node"><title>\\DateHelper</title>
<polygon fill="none" stroke="black" points="1135,-1762 1051,-1762 1051,-1726 1135,-1726 1135,-1762"/>
<text text-anchor="middle" x="1093" y="-1741.1" font-family="Courier,monospace" font-size="11.00">DateHelper</text>
</g>
<!-- \\DateHelper&#45;&gt;\\AppHelper -->
<g id="edge59" class="edge"><title>\\DateHelper&#45;&gt;\\AppHelper</title>
<path fill="none" stroke="black" d="M1050.85,-1754.84C1032.18,-1759.69 1009.97,-1765.54 990,-1771 941.716,-1784.19 886.728,-1799.89 848.375,-1810.96"/>
<polygon fill="none" stroke="black" points="847.145,-1807.67 838.508,-1813.8 849.087,-1814.39 847.145,-1807.67"/>
</g>
<!-- \\SnsButtonHelper -->
<g id="node37" class="node"><title>\\SnsButtonHelper</title>
<polygon fill="none" stroke="black" points="1152,-1708 1034,-1708 1034,-1672 1152,-1672 1152,-1708"/>
<text text-anchor="middle" x="1093" y="-1687.1" font-family="Courier,monospace" font-size="11.00">SnsButtonHelper</text>
</g>
<!-- \\SnsButtonHelper&#45;&gt;\\AppHelper -->
<g id="edge61" class="edge"><title>\\SnsButtonHelper&#45;&gt;\\AppHelper</title>
<path fill="none" stroke="black" d="M1033.85,-1702.69C1019.27,-1706.58 1003.87,-1711.35 990,-1717 933.066,-1740.18 872.097,-1777.27 835.004,-1801.39"/>
<polygon fill="none" stroke="black" points="833.002,-1798.52 826.557,-1806.93 836.839,-1804.37 833.002,-1798.52"/>
</g>
<!-- \\BackToHelper -->
<g id="node38" class="node"><title>\\BackToHelper</title>
<polygon fill="none" stroke="black" points="1142,-1654 1044,-1654 1044,-1618 1142,-1618 1142,-1654"/>
<text text-anchor="middle" x="1093" y="-1633.1" font-family="Courier,monospace" font-size="11.00">BackToHelper</text>
</g>
<!-- \\BackToHelper&#45;&gt;\\AppHelper -->
<g id="edge63" class="edge"><title>\\BackToHelper&#45;&gt;\\AppHelper</title>
<path fill="none" stroke="black" d="M1043.91,-1644.14C1026.27,-1648.27 1006.63,-1654.32 990,-1663 921.41,-1698.81 856.097,-1763.44 822.838,-1799.3"/>
<polygon fill="none" stroke="black" points="820.033,-1797.17 815.854,-1806.91 825.192,-1801.91 820.033,-1797.17"/>
</g>
<!-- \\NetCommonsHtmlHelper -->
<g id="node39" class="node"><title>\\NetCommonsHtmlHelper</title>
<polygon fill="none" stroke="black" points="1169,-1600 1017,-1600 1017,-1564 1169,-1564 1169,-1600"/>
<text text-anchor="middle" x="1093" y="-1579.1" font-family="Courier,monospace" font-size="11.00">NetCommonsHtmlHelper</text>
</g>
<!-- \\NetCommonsHtmlHelper&#45;&gt;\\AppHelper -->
<g id="edge65" class="edge"><title>\\NetCommonsHtmlHelper&#45;&gt;\\AppHelper</title>
<path fill="none" stroke="black" d="M1016.88,-1596.4C1007.46,-1599.76 998.259,-1603.9 990,-1609 909.876,-1658.44 844.727,-1752.19 815.946,-1798.19"/>
<polygon fill="none" stroke="black" points="812.792,-1796.64 810.523,-1806.98 818.75,-1800.31 812.792,-1796.64"/>
</g>
<!-- \\ButtonHelper -->
<g id="node40" class="node"><title>\\ButtonHelper</title>
<polygon fill="none" stroke="black" points="1142,-1006 1044,-1006 1044,-970 1142,-970 1142,-1006"/>
<text text-anchor="middle" x="1093" y="-985.1" font-family="Courier,monospace" font-size="11.00">ButtonHelper</text>
</g>
<!-- \\ButtonHelper&#45;&gt;\\FormHelper -->
<g id="edge67" class="edge"><title>\\ButtonHelper&#45;&gt;\\FormHelper</title>
<path fill="none" stroke="black" d="M1043.95,-986.726C1024.37,-983.598 1003.36,-976.455 990,-961 801.099,-742.429 1110.31,-530.576 918,-315 908.225,-304.042 894.994,-297.054 880.924,-292.686"/>
<polygon fill="none" stroke="black" points="881.644,-289.256 871.08,-290.064 879.842,-296.02 881.644,-289.256"/>
</g>
<!-- \\ComposerHelper -->
<g id="node41" class="node"><title>\\ComposerHelper</title>
<polygon fill="none" stroke="black" points="1148,-1546 1038,-1546 1038,-1510 1148,-1510 1148,-1546"/>
<text text-anchor="middle" x="1093" y="-1525.1" font-family="Courier,monospace" font-size="11.00">ComposerHelper</text>
</g>
<!-- \\ComposerHelper&#45;&gt;\\AppHelper -->
<g id="edge69" class="edge"><title>\\ComposerHelper&#45;&gt;\\AppHelper</title>
<path fill="none" stroke="black" d="M1037.28,-1535.17C1021.01,-1539.15 1003.89,-1545.35 990,-1555 898.034,-1618.86 835.79,-1742.47 811.457,-1797.46"/>
<polygon fill="none" stroke="black" points="808.13,-1796.34 807.356,-1806.9 814.551,-1799.13 808.13,-1796.34"/>
</g>
<!-- \\LinkButtonHelper -->
<g id="node42" class="node"><title>\\LinkButtonHelper</title>
<polygon fill="none" stroke="black" points="1155,-1114 1031,-1114 1031,-1078 1155,-1078 1155,-1114"/>
<text text-anchor="middle" x="1093" y="-1093.1" font-family="Courier,monospace" font-size="11.00">LinkButtonHelper</text>
</g>
<!-- \\LinkButtonHelper&#45;&gt;\\FormHelper -->
<g id="edge71" class="edge"><title>\\LinkButtonHelper&#45;&gt;\\FormHelper</title>
<path fill="none" stroke="black" d="M1030.42,-1092.04C1015.13,-1088.05 1000.24,-1081.04 990,-1069 880.948,-940.787 1029.05,-441.484 918,-315 908.311,-303.965 895.121,-296.943 881.061,-292.564"/>
<polygon fill="none" stroke="black" points="881.786,-289.135 871.222,-289.939 879.981,-295.899 881.786,-289.135"/>
</g>
<!-- \\NetCommonsTimeHelper -->
<g id="node43" class="node"><title>\\NetCommonsTimeHelper</title>
<polygon fill="none" stroke="black" points="1169,-2464 1017,-2464 1017,-2428 1169,-2428 1169,-2464"/>
<text text-anchor="middle" x="1093" y="-2443.1" font-family="Courier,monospace" font-size="11.00">NetCommonsTimeHelper</text>
</g>
<!-- \\NetCommonsTimeHelper&#45;&gt;\\AppHelper -->
<g id="edge73" class="edge"><title>\\NetCommonsTimeHelper&#45;&gt;\\AppHelper</title>
<path fill="none" stroke="black" d="M1016.91,-2435.56C1006.99,-2431.61 997.646,-2426.25 990,-2419 903.879,-2337.34 825.926,-1959.95 805.305,-1853.2"/>
<polygon fill="none" stroke="black" points="808.705,-1852.35 803.386,-1843.18 801.83,-1853.66 808.705,-1852.35"/>
</g>
<!-- \\NetCommonsFormHelper -->
<g id="node44" class="node"><title>\\NetCommonsFormHelper</title>
<polygon fill="none" stroke="black" points="1169,-2410 1017,-2410 1017,-2374 1169,-2374 1169,-2410"/>
<text text-anchor="middle" x="1093" y="-2389.1" font-family="Courier,monospace" font-size="11.00">NetCommonsFormHelper</text>
</g>
<!-- \\NetCommonsFormHelper&#45;&gt;\\AppHelper -->
<g id="edge75" class="edge"><title>\\NetCommonsFormHelper&#45;&gt;\\AppHelper</title>
<path fill="none" stroke="black" d="M1016.83,-2381.26C1006.99,-2377.34 997.682,-2372.08 990,-2365 834.226,-2221.5 806.135,-1942.7 801.095,-1853.31"/>
<polygon fill="none" stroke="black" points="804.581,-1852.94 800.577,-1843.13 797.59,-1853.3 804.581,-1852.94"/>
</g>
<!-- \\TitleIconHelper -->
<g id="node45" class="node"><title>\\TitleIconHelper</title>
<polygon fill="none" stroke="black" points="1152,-2356 1034,-2356 1034,-2320 1152,-2320 1152,-2356"/>
<text text-anchor="middle" x="1093" y="-2335.1" font-family="Courier,monospace" font-size="11.00">TitleIconHelper</text>
</g>
<!-- \\TitleIconHelper&#45;&gt;\\AppHelper -->
<g id="edge77" class="edge"><title>\\TitleIconHelper&#45;&gt;\\AppHelper</title>
<path fill="none" stroke="black" d="M1033.85,-2332.35C1018.12,-2328.39 1002.15,-2321.82 990,-2311 847.368,-2184.06 810.808,-1936.73 802.341,-1853.27"/>
<polygon fill="none" stroke="black" points="805.82,-1852.89 801.383,-1843.27 798.852,-1853.56 805.82,-1852.89"/>
</g>
<!-- \\DatetimePickerHelper -->
<g id="node46" class="node"><title>\\DatetimePickerHelper</title>
<polygon fill="none" stroke="black" points="1169,-2194 1017,-2194 1017,-2158 1169,-2158 1169,-2194"/>
<text text-anchor="middle" x="1093" y="-2173.1" font-family="Courier,monospace" font-size="11.00">DatetimePickerHelper</text>
</g>
<!-- \\DatetimePickerHelper&#45;&gt;\\AppHelper -->
<g id="edge79" class="edge"><title>\\DatetimePickerHelper&#45;&gt;\\AppHelper</title>
<path fill="none" stroke="black" d="M1016.94,-2163.46C1007.31,-2159.8 998.03,-2155.08 990,-2149 885.624,-2069.92 828.084,-1915.53 808.129,-1852.65"/>
<polygon fill="none" stroke="black" points="811.45,-1851.54 805.144,-1843.03 804.764,-1853.61 811.45,-1851.54"/>
</g>
<!-- \\Model -->
<g id="node110" class="node"><title>\\Model</title>
<ellipse fill="none" stroke="black" cx="44" cy="-2851" rx="43.8406" ry="18.3848"/>
<text text-anchor="middle" x="44" y="-2847.4" font-family="Times Roman,serif" font-size="14.00" fill="gray">\Model</text>
</g>
<!-- \\NetCommonsAppModel&#45;&gt;\\Model -->
<g id="edge81" class="edge"><title>\\NetCommonsAppModel&#45;&gt;\\Model</title>
<path fill="none" stroke="black" d="M172.749,-2851C148.379,-2851 121.357,-2851 98.3871,-2851"/>
<polygon fill="none" stroke="black" points="98.1425,-2847.5 88.1425,-2851 98.1424,-2854.5 98.1425,-2847.5"/>
</g>
<!-- \\OriginalKeyBehavior -->
<g id="node48" class="node"><title>\\OriginalKeyBehavior</title>
<polygon fill="none" stroke="black" points="1165,-844 1021,-844 1021,-808 1165,-808 1165,-844"/>
<text text-anchor="middle" x="1093" y="-823.1" font-family="Courier,monospace" font-size="11.00">OriginalKeyBehavior</text>
</g>
<!-- \\ModelBehavior -->
<g id="node112" class="node"><title>\\ModelBehavior</title>
<ellipse fill="none" stroke="black" cx="800" cy="-180" rx="86.9741" ry="18.3848"/>
<text text-anchor="middle" x="800" y="-176.4" font-family="Times Roman,serif" font-size="14.00" fill="gray">\ModelBehavior</text>
</g>
<!-- \\OriginalKeyBehavior&#45;&gt;\\ModelBehavior -->
<g id="edge83" class="edge"><title>\\OriginalKeyBehavior&#45;&gt;\\ModelBehavior</title>
<path fill="none" stroke="black" d="M1020.27,-818.647C1008.76,-814.437 998.024,-808.191 990,-799 815.683,-599.337 1095.43,-403.899 918,-207 910.964,-199.192 902.172,-193.404 892.581,-189.145"/>
<polygon fill="none" stroke="black" points="893.76,-185.848 883.171,-185.514 891.24,-192.379 893.76,-185.848"/>
</g>
<!-- \\TrackableBehavior -->
<g id="node49" class="node"><title>\\TrackableBehavior</title>
<polygon fill="none" stroke="black" points="1158,-790 1028,-790 1028,-754 1158,-754 1158,-790"/>
<text text-anchor="middle" x="1093" y="-769.1" font-family="Courier,monospace" font-size="11.00">TrackableBehavior</text>
</g>
<!-- \\TrackableBehavior&#45;&gt;\\ModelBehavior -->
<g id="edge85" class="edge"><title>\\TrackableBehavior&#45;&gt;\\ModelBehavior</title>
<path fill="none" stroke="black" d="M1027.24,-766.821C1013.18,-762.704 999.671,-755.943 990,-745 830.252,-564.227 1080.57,-385.24 918,-207 910.917,-199.234 902.097,-193.472 892.49,-189.227"/>
<polygon fill="none" stroke="black" points="893.659,-185.927 883.069,-185.607 891.148,-192.461 893.659,-185.927"/>
</g>
<!-- \\YAExceptionRenderer -->
<g id="node50" class="node"><title>\\YAExceptionRenderer</title>
<polygon fill="none" stroke="black" points="1165,-736 1021,-736 1021,-700 1165,-700 1165,-736"/>
<text text-anchor="middle" x="1093" y="-715.1" font-family="Courier,monospace" font-size="11.00">YAExceptionRenderer</text>
</g>
<!-- \\ExceptionRenderer -->
<g id="node115" class="node"><title>\\ExceptionRenderer</title>
<ellipse fill="none" stroke="black" cx="800" cy="-126" rx="118.087" ry="18.3848"/>
<text text-anchor="middle" x="800" y="-122.4" font-family="Times Roman,serif" font-size="14.00" fill="gray">TEHxceptionRenderer</text>
</g>
<!-- \\YAExceptionRenderer&#45;&gt;\\ExceptionRenderer -->
<g id="edge87" class="edge"><title>\\YAExceptionRenderer&#45;&gt;\\ExceptionRenderer</title>
<path fill="none" stroke="black" d="M1020.36,-710.567C1008.84,-706.366 998.079,-700.143 990,-691 830.252,-510.227 1080.57,-331.24 918,-153 913.963,-148.574 909.361,-144.798 904.372,-141.584"/>
<polygon fill="none" stroke="black" points="906.073,-138.525 895.638,-136.687 902.65,-144.631 906.073,-138.525"/>
</g>
<!-- \\NetCommonsMigration -->
<g id="node51" class="node"><title>\\NetCommonsMigration</title>
<polygon fill="none" stroke="black" points="1165,-574 1021,-574 1021,-538 1165,-538 1165,-574"/>
<text text-anchor="middle" x="1093" y="-553.1" font-family="Courier,monospace" font-size="11.00">NetCommonsMigration</text>
</g>
<!-- \\CakeMigration -->
<g id="node117" class="node"><title>\\CakeMigration</title>
<ellipse fill="none" stroke="black" cx="800" cy="-72" rx="84.8528" ry="18.3848"/>
<text text-anchor="middle" x="800" y="-68.4" font-family="Times Roman,serif" font-size="14.00" fill="gray">\CakeMigration</text>
</g>
<!-- \\NetCommonsMigration&#45;&gt;\\CakeMigration -->
<g id="edge89" class="edge"><title>\\NetCommonsMigration&#45;&gt;\\CakeMigration</title>
<path fill="none" stroke="black" d="M1020.34,-548.25C1008.9,-544.073 998.166,-537.94 990,-529 859.318,-385.927 1050.91,-240.002 918,-99 910.44,-90.9799 901.025,-85.1126 890.833,-80.8528"/>
<polygon fill="none" stroke="black" points="891.879,-77.5089 881.284,-77.377 889.484,-84.0866 891.879,-77.5089"/>
</g>
<!-- \\TagsAppController -->
<g id="node52" class="node"><title>\\TagsAppController</title>
<polygon fill="none" stroke="black" points="865,-2572 735,-2572 735,-2536 865,-2536 865,-2572"/>
<text text-anchor="middle" x="800" y="-2551.1" font-family="Courier,monospace" font-size="11.00">TagsAppController</text>
</g>
<!-- \\TagsAppController&#45;&gt;\\AppController -->
<g id="edge91" class="edge"><title>\\TagsAppController&#45;&gt;\\AppController</title>
<path fill="none" stroke="black" d="M734.384,-2552.46C715.123,-2548.77 695.6,-2541.33 682,-2527 540.042,-2377.45 508.922,-1679.53 503.848,-1530.18"/>
<polygon fill="none" stroke="black" points="507.341,-1529.89 503.515,-1520.01 500.345,-1530.12 507.341,-1529.89"/>
</g>
<!-- \\TagsController -->
<g id="node53" class="node"><title>\\TagsController</title>
<polygon fill="none" stroke="black" points="1148,-2572 1038,-2572 1038,-2536 1148,-2536 1148,-2572"/>
<text text-anchor="middle" x="1093" y="-2551.1" font-family="Courier,monospace" font-size="11.00">TagsController</text>
</g>
<!-- \\TagsController&#45;&gt;\\TagsAppController -->
<g id="edge93" class="edge"><title>\\TagsController&#45;&gt;\\TagsAppController</title>
<path fill="none" stroke="black" d="M1037.2,-2554C991.453,-2554 926.254,-2554 875.785,-2554"/>
<polygon fill="none" stroke="black" points="875.575,-2550.5 865.575,-2554 875.575,-2557.5 875.575,-2550.5"/>
</g>
<!-- \\TagsAppModel -->
<g id="node54" class="node"><title>\\TagsAppModel</title>
<polygon fill="none" stroke="black" points="849,-2842 751,-2842 751,-2806 849,-2806 849,-2842"/>
<text text-anchor="middle" x="800" y="-2821.1" font-family="Courier,monospace" font-size="11.00">TagsAppModel</text>
</g>
<!-- \\TagsAppModel&#45;&gt;\\AppModel -->
<g id="edge95" class="edge"><title>\\TagsAppModel&#45;&gt;\\AppModel</title>
<path fill="none" stroke="black" d="M750.956,-2828.46C694.77,-2833.57 603.429,-2841.87 548.689,-2846.85"/>
<polygon fill="none" stroke="black" points="548.223,-2843.37 538.581,-2847.77 548.857,-2850.35 548.223,-2843.37"/>
</g>
<!-- \\TagBehavior -->
<g id="node55" class="node"><title>\\TagBehavior</title>
<polygon fill="none" stroke="black" points="1138,-898 1048,-898 1048,-862 1138,-862 1138,-898"/>
<text text-anchor="middle" x="1093" y="-877.1" font-family="Courier,monospace" font-size="11.00">TagBehavior</text>
</g>
<!-- \\TagBehavior&#45;&gt;\\ModelBehavior -->
<g id="edge97" class="edge"><title>\\TagBehavior&#45;&gt;\\ModelBehavior</title>
<path fill="none" stroke="black" d="M1047.39,-879.237C1026.87,-876.41 1004.14,-869.364 990,-853 801.099,-634.429 1110.31,-422.576 918,-207 911.003,-199.156 902.236,-193.347 892.657,-189.076"/>
<polygon fill="none" stroke="black" points="893.845,-185.783 883.256,-185.437 891.318,-192.311 893.845,-185.783"/>
</g>
<!-- \\TagsContent -->
<g id="node56" class="node"><title>\\TagsContent</title>
<polygon fill="none" stroke="black" points="1138,-2896 1048,-2896 1048,-2860 1138,-2860 1138,-2896"/>
<text text-anchor="middle" x="1093" y="-2875.1" font-family="Courier,monospace" font-size="11.00">TagsContent</text>
</g>
<!-- \\TagsContent&#45;&gt;\\TagsAppModel -->
<g id="edge99" class="edge"><title>\\TagsContent&#45;&gt;\\TagsAppModel</title>
<path fill="none" stroke="black" d="M1047.22,-2869.56C996.611,-2860.24 914.925,-2845.18 859.418,-2834.95"/>
<polygon fill="none" stroke="black" points="859.841,-2831.47 849.372,-2833.1 858.572,-2838.35 859.841,-2831.47"/>
</g>
<!-- \\Tag -->
<g id="node57" class="node"><title>\\Tag</title>
<polygon fill="none" stroke="black" points="1120,-2842 1066,-2842 1066,-2806 1120,-2806 1120,-2842"/>
<text text-anchor="middle" x="1093" y="-2821.1" font-family="Courier,monospace" font-size="11.00">Tag</text>
</g>
<!-- \\Tag&#45;&gt;\\TagsAppModel -->
<g id="edge101" class="edge"><title>\\Tag&#45;&gt;\\TagsAppModel</title>
<path fill="none" stroke="black" d="M1065.96,-2824C1019.26,-2824 922.445,-2824 859.406,-2824"/>
<polygon fill="none" stroke="black" points="859.207,-2820.5 849.207,-2824 859.207,-2827.5 859.207,-2820.5"/>
</g>
<!-- \\TagsSchema -->
<g id="node58" class="node"><title>\\TagsSchema</title>
<polygon fill="none" stroke="black" points="1135,-466 1051,-466 1051,-430 1135,-430 1135,-466"/>
<text text-anchor="middle" x="1093" y="-445.1" font-family="Courier,monospace" font-size="11.00">TagsSchema</text>
</g>
<!-- \\CakeSchema -->
<g id="node125" class="node"><title>\\CakeSchema</title>
<ellipse fill="none" stroke="black" cx="800" cy="-18" rx="77.0746" ry="18.3848"/>
<text text-anchor="middle" x="800" y="-14.4" font-family="Times Roman,serif" font-size="14.00" fill="gray">\CakeSchema</text>
</g>
<!-- \\TagsSchema&#45;&gt;\\CakeSchema -->
<g id="edge103" class="edge"><title>\\TagsSchema&#45;&gt;\\CakeSchema</title>
<path fill="none" stroke="black" d="M1090.86,-429.713C1082.37,-365.789 1045.04,-150.503 918,-45 907.886,-36.6012 895.67,-30.6949 882.982,-26.5644"/>
<polygon fill="none" stroke="black" points="883.793,-23.1556 873.214,-23.74 881.848,-29.8801 883.793,-23.1556"/>
</g>
<!-- \\Init -->
<g id="node59" class="node"><title>\\Init</title>
<polygon fill="none" stroke="black" points="1120,-520 1066,-520 1066,-484 1120,-484 1120,-520"/>
<text text-anchor="middle" x="1093" y="-499.1" font-family="Courier,monospace" font-size="11.00">Init</text>
</g>
<!-- \\Init&#45;&gt;\\CakeMigration -->
<g id="edge105" class="edge"><title>\\Init&#45;&gt;\\CakeMigration</title>
<path fill="none" stroke="black" d="M1065.78,-502.438C1042.33,-501.269 1009.32,-495.66 990,-475 873.795,-350.716 1036.14,-221.443 918,-99 910.347,-91.0685 900.877,-85.2535 890.656,-81.0209"/>
<polygon fill="none" stroke="black" points="891.684,-77.6706 881.089,-77.5632 889.304,-84.2538 891.684,-77.6706"/>
</g>
<!-- \\FixOriginId -->
<g id="node60" class="node"><title>\\FixOriginId</title>
<polygon fill="none" stroke="black" points="1138,-682 1048,-682 1048,-646 1138,-646 1138,-682"/>
<text text-anchor="middle" x="1093" y="-661.1" font-family="Courier,monospace" font-size="11.00">FixOriginId</text>
</g>
<!-- \\FixOriginId&#45;&gt;\\CakeMigration -->
<g id="edge107" class="edge"><title>\\FixOriginId&#45;&gt;\\CakeMigration</title>
<path fill="none" stroke="black" d="M1047.28,-663.062C1026.87,-660.179 1004.26,-653.138 990,-637 830.252,-456.227 1080.57,-277.24 918,-99 910.573,-90.8567 901.236,-84.9168 891.084,-80.6193"/>
<polygon fill="none" stroke="black" points="892.157,-77.2846 881.564,-77.1181 889.741,-83.8545 892.157,-77.2846"/>
</g>
<!-- \\OriginIdToKey -->
<g id="node61" class="node"><title>\\OriginIdToKey</title>
<polygon fill="none" stroke="black" points="1145,-628 1041,-628 1041,-592 1145,-592 1145,-628"/>
<text text-anchor="middle" x="1093" y="-607.1" font-family="Courier,monospace" font-size="11.00">OriginIdToKey</text>
</g>
<!-- \\OriginIdToKey&#45;&gt;\\CakeMigration -->
<g id="edge109" class="edge"><title>\\OriginIdToKey&#45;&gt;\\CakeMigration</title>
<path fill="none" stroke="black" d="M1040.76,-607.885C1022.24,-604.453 1002.84,-597.313 990,-583 844.8,-421.094 1065.73,-258.605 918,-99 910.513,-90.9113 901.142,-85.0036 890.972,-80.7228"/>
<polygon fill="none" stroke="black" points="892.033,-77.384 881.439,-77.2329 889.626,-83.9574 892.033,-77.384"/>
</g>
</g>
</svg>
