<?xml version="1.0" encoding="UTF-8" standalone="no"?>
<!DOCTYPE svg PUBLIC "-//W3C//DTD SVG 1.1//EN"
 "http://www.w3.org/Graphics/SVG/1.1/DTD/svg11.dtd">
<!-- Generated by graphviz version 2.26.3 (20100126.1600)
 -->
<!-- Title: G Pages: 1 -->
<svg width="1060pt" height="3073pt"
 viewBox="0.00 0.00 1060.00 3073.49" xmlns="http://www.w3.org/2000/svg" xmlns:xlink="http://www.w3.org/1999/xlink">
<g id="graph1" class="graph" transform="scale(1 1) rotate(0) translate(4 3069.49)">
<title>G</title>
<polygon fill="white" stroke="white" points="-4,5 -4,-3069.49 1057,-3069.49 1057,5 -4,5"/>
<g id="graph2" class="cluster"><title>cluster_Global</title>
<polyline fill="none" stroke="gray" points="264,-355.491 1032,-355.491 "/>
<path fill="none" stroke="gray" d="M1032,-355.491C1038,-355.491 1044,-361.491 1044,-367.491"/>
<polyline fill="none" stroke="gray" points="1044,-367.491 1044,-2955.49 "/>
<path fill="none" stroke="gray" d="M1044,-2955.49C1044,-2961.49 1038,-2967.49 1032,-2967.49"/>
<polyline fill="none" stroke="gray" points="1032,-2967.49 264,-2967.49 "/>
<path fill="none" stroke="gray" d="M264,-2967.49C258,-2967.49 252,-2961.49 252,-2955.49"/>
<polyline fill="none" stroke="gray" points="252,-2955.49 252,-367.491 "/>
<path fill="none" stroke="gray" d="M252,-367.491C252,-361.491 258,-355.491 264,-355.491"/>
<text text-anchor="middle" x="648" y="-2953.59" font-family="Times Roman,serif" font-size="11.00" fill="gray">Global</text>
</g>
<!-- \\AppController -->
<g id="node2" class="node"><title>\\AppController</title>
<polygon fill="none" stroke="black" points="395,-1751.49 291,-1751.49 291,-1715.49 395,-1715.49 395,-1751.49"/>
<text text-anchor="middle" x="343" y="-1730.59" font-family="Courier,monospace" font-size="11.00">AppController</text>
</g>
<!-- \\Controller -->
<g id="node65" class="node"><title>\\Controller</title>
<ellipse fill="none" stroke="black" cx="82" cy="-1758.49" rx="63.1385" ry="18.3848"/>
<text text-anchor="middle" x="82" y="-1754.89" font-family="Times Roman,serif" font-size="14.00" fill="gray">\Controller</text>
</g>
<!-- \\AppController&#45;&gt;\\Controller -->
<g id="edge3" class="edge"><title>\\AppController&#45;&gt;\\Controller</title>
<path fill="none" stroke="black" d="M290.81,-1738.49C251.063,-1742.3 195.935,-1747.58 152.303,-1751.76"/>
<polygon fill="none" stroke="black" points="151.95,-1748.27 142.329,-1752.71 152.618,-1755.24 151.95,-1748.27"/>
</g>
<!-- \\AppModel -->
<g id="node3" class="node"><title>\\AppModel</title>
<polygon fill="none" stroke="black" points="675,-1641.49 605,-1641.49 605,-1605.49 675,-1605.49 675,-1641.49"/>
<text text-anchor="middle" x="640" y="-1620.59" font-family="Courier,monospace" font-size="11.00">AppModel</text>
</g>
<!-- \\NetCommonsAppModel -->
<g id="node48" class="node"><title>\\NetCommonsAppModel</title>
<polygon fill="none" stroke="black" points="412,-1641.49 274,-1641.49 274,-1605.49 412,-1605.49 412,-1641.49"/>
<text text-anchor="middle" x="343" y="-1620.59" font-family="Courier,monospace" font-size="11.00">NetCommonsAppModel</text>
</g>
<!-- \\AppModel&#45;&gt;\\NetCommonsAppModel -->
<g id="edge5" class="edge"><title>\\AppModel&#45;&gt;\\NetCommonsAppModel</title>
<path fill="none" stroke="black" d="M604.47,-1623.49C559.713,-1623.49 481.497,-1623.49 422.241,-1623.49"/>
<polygon fill="none" stroke="black" points="422.157,-1619.99 412.157,-1623.49 422.157,-1626.99 422.157,-1619.99"/>
</g>
<!-- \\DatabaseConfiguration -->
<g id="node4" class="node"><title>\\DatabaseConfiguration</title>
<polygon fill="none" stroke="black" points="1012,-1587.49 854,-1587.49 854,-1551.49 1012,-1551.49 1012,-1587.49"/>
<text text-anchor="middle" x="933" y="-1566.59" font-family="Courier,monospace" font-size="11.00">DatabaseConfiguration</text>
</g>
<!-- \\DatabaseConfiguration&#45;&gt;\\AppModel -->
<g id="edge7" class="edge"><title>\\DatabaseConfiguration&#45;&gt;\\AppModel</title>
<path fill="none" stroke="black" d="M853.71,-1584.1C799.937,-1594.01 730.74,-1606.77 685.886,-1615.03"/>
<polygon fill="none" stroke="black" points="685.066,-1611.63 675.866,-1616.88 686.334,-1618.51 685.066,-1611.63"/>
</g>
<!-- \\AppHelper -->
<g id="node5" class="node"><title>\\AppHelper</title>
<polygon fill="none" stroke="black" points="678,-2586.49 602,-2586.49 602,-2550.49 678,-2550.49 678,-2586.49"/>
<text text-anchor="middle" x="640" y="-2565.59" font-family="Courier,monospace" font-size="11.00">AppHelper</text>
</g>
<!-- \\Helper -->
<g id="node69" class="node"><title>\\Helper</title>
<ellipse fill="none" stroke="black" cx="343" cy="-3047.49" rx="43.8406" ry="18.3848"/>
<text text-anchor="middle" x="343" y="-3043.89" font-family="Times Roman,serif" font-size="14.00" fill="gray">Helper</text>
</g>
<!-- \\AppHelper&#45;&gt;\\Helper -->
<g id="edge9" class="edge"><title>\\AppHelper&#45;&gt;\\Helper</title>
<path fill="none" stroke="black" d="M638.043,-2586.94C629.736,-2655.69 591.048,-2899.25 450,-3020.49 435.221,-3033.19 415.294,-3040.06 396.643,-3043.73"/>
<polygon fill="none" stroke="black" points="396.019,-3040.29 386.747,-3045.42 397.193,-3047.19 396.019,-3040.29"/>
</g>
<!-- \\NetCommonsDeleteTest -->
<g id="node6" class="node"><title>\\NetCommonsDeleteTest</title>
<polygon fill="none" stroke="black" points="1009,-1371.49 857,-1371.49 857,-1335.49 1009,-1335.49 1009,-1371.49"/>
<text text-anchor="middle" x="933" y="-1350.59" font-family="Courier,monospace" font-size="11.00">NetCommonsDeleteTest</text>
</g>
<!-- \\NetCommonsModelTestCase -->
<g id="node15" class="node"><title>\\NetCommonsModelTestCase</title>
<polygon fill="none" stroke="black" points="726,-1398.49 554,-1398.49 554,-1362.49 726,-1362.49 726,-1398.49"/>
<text text-anchor="middle" x="640" y="-1377.59" font-family="Courier,monospace" font-size="11.00">NetCommonsModelTestCase</text>
</g>
<!-- \\NetCommonsDeleteTest&#45;&gt;\\NetCommonsModelTestCase -->
<g id="edge11" class="edge"><title>\\NetCommonsDeleteTest&#45;&gt;\\NetCommonsModelTestCase</title>
<path fill="none" stroke="black" d="M856.783,-1360.51C820.049,-1363.9 775.59,-1368 736.519,-1371.6"/>
<polygon fill="none" stroke="black" points="735.82,-1368.15 726.183,-1372.55 736.462,-1375.12 735.82,-1368.15"/>
</g>
<!-- \\NetCommonsConsoleTestCase -->
<g id="node7" class="node"><title>\\NetCommonsConsoleTestCase</title>
<polygon fill="none" stroke="black" points="732,-1344.49 548,-1344.49 548,-1308.49 732,-1308.49 732,-1344.49"/>
<text text-anchor="middle" x="640" y="-1323.59" font-family="Courier,monospace" font-size="11.00">NetCommonsConsoleTestCase</text>
</g>
<!-- \\NetCommonsCakeTestCase -->
<g id="node13" class="node"><title>\\NetCommonsCakeTestCase</title>
<polygon fill="none" stroke="black" points="425,-1344.49 261,-1344.49 261,-1308.49 425,-1308.49 425,-1344.49"/>
<text text-anchor="middle" x="343" y="-1323.59" font-family="Courier,monospace" font-size="11.00">NetCommonsCakeTestCase</text>
</g>
<!-- \\NetCommonsConsoleTestCase&#45;&gt;\\NetCommonsCakeTestCase -->
<g id="edge13" class="edge"><title>\\NetCommonsConsoleTestCase&#45;&gt;\\NetCommonsCakeTestCase</title>
<path fill="none" stroke="black" d="M547.249,-1326.49C511.93,-1326.49 471.688,-1326.49 436.316,-1326.49"/>
<polygon fill="none" stroke="black" points="435.993,-1322.99 425.993,-1326.49 435.993,-1329.99 435.993,-1322.99"/>
</g>
<!-- \\NetCommonsGetTest -->
<g id="node8" class="node"><title>\\NetCommonsGetTest</title>
<polygon fill="none" stroke="black" points="998,-1317.49 868,-1317.49 868,-1281.49 998,-1281.49 998,-1317.49"/>
<text text-anchor="middle" x="933" y="-1296.59" font-family="Courier,monospace" font-size="11.00">NetCommonsGetTest</text>
</g>
<!-- \\NetCommonsGetTest&#45;&gt;\\NetCommonsModelTestCase -->
<g id="edge15" class="edge"><title>\\NetCommonsGetTest&#45;&gt;\\NetCommonsModelTestCase</title>
<path fill="none" stroke="black" d="M867.325,-1315.63C854.864,-1319 841.981,-1322.68 830,-1326.49 797.428,-1336.84 790.731,-1343.66 758,-1353.49 750.57,-1355.72 742.83,-1357.87 735.023,-1359.92"/>
<polygon fill="none" stroke="black" points="733.938,-1356.58 725.116,-1362.45 735.671,-1363.36 733.938,-1356.58"/>
</g>
<!-- \\NetCommonsHelperTestCase -->
<g id="node9" class="node"><title>\\NetCommonsHelperTestCase</title>
<polygon fill="none" stroke="black" points="729,-1290.49 551,-1290.49 551,-1254.49 729,-1254.49 729,-1290.49"/>
<text text-anchor="middle" x="640" y="-1269.59" font-family="Courier,monospace" font-size="11.00">NetCommonsHelperTestCase</text>
</g>
<!-- \\NetCommonsHelperTestCase&#45;&gt;\\NetCommonsCakeTestCase -->
<g id="edge17" class="edge"><title>\\NetCommonsHelperTestCase&#45;&gt;\\NetCommonsCakeTestCase</title>
<path fill="none" stroke="black" d="M550.487,-1288.77C514.267,-1295.35 472.456,-1302.95 435.9,-1309.6"/>
<polygon fill="none" stroke="black" points="434.95,-1306.21 425.737,-1311.45 436.202,-1313.1 434.95,-1306.21"/>
</g>
<!-- \\NetCommonsControllerBaseTestCase -->
<g id="node10" class="node"><title>\\NetCommonsControllerBaseTestCase</title>
<polygon fill="none" stroke="black" points="756,-1857.49 524,-1857.49 524,-1821.49 756,-1821.49 756,-1857.49"/>
<text text-anchor="middle" x="640" y="-1836.59" font-family="Courier,monospace" font-size="11.00">NetCommonsControllerBaseTestCase</text>
</g>
<!-- \\ControllerTestCase -->
<g id="node75" class="node"><title>\\ControllerTestCase</title>
<ellipse fill="none" stroke="black" cx="343" cy="-2993.49" rx="106.773" ry="18.3848"/>
<text text-anchor="middle" x="343" y="-2989.89" font-family="Times Roman,serif" font-size="14.00" fill="gray">\ControllerTestCase</text>
</g>
<!-- \\NetCommonsControllerBaseTestCase&#45;&gt;\\ControllerTestCase -->
<g id="edge19" class="edge"><title>\\NetCommonsControllerBaseTestCase&#45;&gt;\\ControllerTestCase</title>
<path fill="none" stroke="black" d="M636.942,-1857.66C623.42,-1938 567.649,-2269.39 522,-2541.49 505.97,-2637.04 517.234,-2901.73 450,-2971.49 447.598,-2973.98 444.995,-2976.23 442.231,-2978.26"/>
<polygon fill="none" stroke="black" points="440.137,-2975.44 433.5,-2983.7 443.839,-2981.38 440.137,-2975.44"/>
</g>
<!-- \\NetCommonsValidateTest -->
<g id="node11" class="node"><title>\\NetCommonsValidateTest</title>
<polygon fill="none" stroke="black" points="1015,-1479.49 851,-1479.49 851,-1443.49 1015,-1443.49 1015,-1479.49"/>
<text text-anchor="middle" x="933" y="-1458.59" font-family="Courier,monospace" font-size="11.00">NetCommonsValidateTest</text>
</g>
<!-- \\NetCommonsValidateTest&#45;&gt;\\NetCommonsModelTestCase -->
<g id="edge21" class="edge"><title>\\NetCommonsValidateTest&#45;&gt;\\NetCommonsModelTestCase</title>
<path fill="none" stroke="black" d="M863.415,-1443.46C852.231,-1440.5 840.789,-1437.44 830,-1434.49 790.993,-1423.84 747.61,-1411.54 712.158,-1401.38"/>
<polygon fill="none" stroke="black" points="712.957,-1397.96 702.379,-1398.57 711.025,-1404.69 712.957,-1397.96"/>
</g>
<!-- \\NetCommonsTestSuite -->
<g id="node12" class="node"><title>\\NetCommonsTestSuite</title>
<polygon fill="none" stroke="black" points="1005,-1101.49 861,-1101.49 861,-1065.49 1005,-1065.49 1005,-1101.49"/>
<text text-anchor="middle" x="933" y="-1080.59" font-family="Courier,monospace" font-size="11.00">NetCommonsTestSuite</text>
</g>
<!-- \\CakeTestSuite -->
<g id="node78" class="node"><title>\\CakeTestSuite</title>
<ellipse fill="none" stroke="black" cx="640" cy="-329.491" rx="84.1457" ry="18.3848"/>
<text text-anchor="middle" x="640" y="-325.891" font-family="Times Roman,serif" font-size="14.00" fill="gray">\CakeTestSuite</text>
</g>
<!-- \\NetCommonsTestSuite&#45;&gt;\\CakeTestSuite -->
<g id="edge23" class="edge"><title>\\NetCommonsTestSuite&#45;&gt;\\CakeTestSuite</title>
<path fill="none" stroke="black" d="M860.383,-1076.36C848.787,-1072.14 837.995,-1065.83 830,-1056.49 727.575,-936.868 864.667,-467.347 758,-351.491 751.119,-344.017 742.58,-338.592 733.263,-334.706"/>
<polygon fill="none" stroke="black" points="734.315,-331.365 723.72,-331.314 731.97,-337.961 734.315,-331.365"/>
</g>
<!-- \\CakeTestCase -->
<g id="node80" class="node"><title>\\CakeTestCase</title>
<ellipse fill="none" stroke="black" cx="82" cy="-1326.49" rx="82.0244" ry="18.3848"/>
<text text-anchor="middle" x="82" y="-1322.89" font-family="Times Roman,serif" font-size="14.00" fill="gray">\CakeTestCase</text>
</g>
<!-- \\NetCommonsCakeTestCase&#45;&gt;\\CakeTestCase -->
<g id="edge25" class="edge"><title>\\NetCommonsCakeTestCase&#45;&gt;\\CakeTestCase</title>
<path fill="none" stroke="black" d="M260.418,-1326.49C233.018,-1326.49 202.345,-1326.49 174.263,-1326.49"/>
<polygon fill="none" stroke="black" points="174.045,-1322.99 164.045,-1326.49 174.045,-1329.99 174.045,-1322.99"/>
</g>
<!-- \\NetCommonsSaveTest -->
<g id="node14" class="node"><title>\\NetCommonsSaveTest</title>
<polygon fill="none" stroke="black" points="1002,-1425.49 864,-1425.49 864,-1389.49 1002,-1389.49 1002,-1425.49"/>
<text text-anchor="middle" x="933" y="-1404.59" font-family="Courier,monospace" font-size="11.00">NetCommonsSaveTest</text>
</g>
<!-- \\NetCommonsSaveTest&#45;&gt;\\NetCommonsModelTestCase -->
<g id="edge27" class="edge"><title>\\NetCommonsSaveTest&#45;&gt;\\NetCommonsModelTestCase</title>
<path fill="none" stroke="black" d="M863.934,-1401.13C825.875,-1397.62 778.032,-1393.21 736.349,-1389.37"/>
<polygon fill="none" stroke="black" points="736.452,-1385.86 726.172,-1388.43 735.809,-1392.83 736.452,-1385.86"/>
</g>
<!-- \\NetCommonsModelTestCase&#45;&gt;\\NetCommonsCakeTestCase -->
<g id="edge29" class="edge"><title>\\NetCommonsModelTestCase&#45;&gt;\\NetCommonsCakeTestCase</title>
<path fill="none" stroke="black" d="M553.696,-1364.8C516.671,-1358.07 473.35,-1350.19 435.65,-1343.34"/>
<polygon fill="none" stroke="black" points="436.151,-1339.87 425.686,-1341.52 434.899,-1346.76 436.151,-1339.87"/>
</g>
<!-- \\NetCommonsControllerTestCase -->
<g id="node16" class="node"><title>\\NetCommonsControllerTestCase</title>
<polygon fill="none" stroke="black" points="1036,-1857.49 830,-1857.49 830,-1821.49 1036,-1821.49 1036,-1857.49"/>
<text text-anchor="middle" x="933" y="-1836.59" font-family="Courier,monospace" font-size="11.00">NetCommonsControllerTestCase</text>
</g>
<!-- \\NetCommonsControllerTestCase&#45;&gt;\\NetCommonsControllerBaseTestCase -->
<g id="edge31" class="edge"><title>\\NetCommonsControllerTestCase&#45;&gt;\\NetCommonsControllerBaseTestCase</title>
<path fill="none" stroke="black" d="M829.699,-1839.49C809.381,-1839.49 787.845,-1839.49 766.858,-1839.49"/>
<polygon fill="none" stroke="black" points="766.606,-1835.99 756.606,-1839.49 766.606,-1842.99 766.606,-1835.99"/>
</g>
<!-- \\NetCommonsAppController -->
<g id="node17" class="node"><title>\\NetCommonsAppController</title>
<polygon fill="none" stroke="black" points="726,-1803.49 554,-1803.49 554,-1767.49 726,-1767.49 726,-1803.49"/>
<text text-anchor="middle" x="640" y="-1782.59" font-family="Courier,monospace" font-size="11.00">NetCommonsAppController</text>
</g>
<!-- \\NetCommonsAppController&#45;&gt;\\Controller -->
<g id="edge33" class="edge"><title>\\NetCommonsAppController&#45;&gt;\\Controller</title>
<path fill="none" stroke="black" d="M553.73,-1781.32C444.3,-1776.02 257.514,-1766.98 154.88,-1762.02"/>
<polygon fill="none" stroke="black" points="154.767,-1758.51 144.61,-1761.52 154.429,-1765.5 154.767,-1758.51"/>
</g>
<!-- \\AssetComponent -->
<g id="node18" class="node"><title>\\AssetComponent</title>
<polygon fill="none" stroke="black" points="988,-885.491 878,-885.491 878,-849.491 988,-849.491 988,-885.491"/>
<text text-anchor="middle" x="933" y="-864.591" font-family="Courier,monospace" font-size="11.00">AssetComponent</text>
</g>
<!-- \\Component -->
<g id="node86" class="node"><title>\\Component</title>
<ellipse fill="none" stroke="black" cx="640" cy="-275.491" rx="70.9184" ry="18.3848"/>
<text text-anchor="middle" x="640" y="-271.891" font-family="Times Roman,serif" font-size="14.00" fill="gray">\Component</text>
</g>
<!-- \\AssetComponent&#45;&gt;\\Component -->
<g id="edge35" class="edge"><title>\\AssetComponent&#45;&gt;\\Component</title>
<path fill="none" stroke="black" d="M877.435,-864.845C859.902,-861.204 841.996,-854.066 830,-840.491 670.252,-659.718 920.569,-480.731 758,-302.491 748.162,-291.704 734.974,-284.783 720.979,-280.425"/>
<polygon fill="none" stroke="black" points="721.757,-277.01 711.192,-277.801 719.944,-283.771 721.757,-277.01"/>
</g>
<!-- \\NetCommonsTimeComponent -->
<g id="node19" class="node"><title>\\NetCommonsTimeComponent</title>
<polygon fill="none" stroke="black" points="1019,-831.491 847,-831.491 847,-795.491 1019,-795.491 1019,-831.491"/>
<text text-anchor="middle" x="933" y="-810.591" font-family="Courier,monospace" font-size="11.00">NetCommonsTimeComponent</text>
</g>
<!-- \\NetCommonsTimeComponent&#45;&gt;\\Component -->
<g id="edge37" class="edge"><title>\\NetCommonsTimeComponent&#45;&gt;\\Component</title>
<path fill="none" stroke="black" d="M846.819,-799.749C840.551,-796.216 834.814,-791.858 830,-786.491 684.8,-624.584 905.726,-462.095 758,-302.491 748.083,-291.776 734.859,-284.889 720.853,-280.54"/>
<polygon fill="none" stroke="black" points="721.628,-277.124 711.063,-277.919 719.818,-283.886 721.628,-277.124"/>
</g>
<!-- \\PermissionComponent -->
<g id="node20" class="node"><title>\\PermissionComponent</title>
<polygon fill="none" stroke="black" points="1005,-1047.49 861,-1047.49 861,-1011.49 1005,-1011.49 1005,-1047.49"/>
<text text-anchor="middle" x="933" y="-1026.59" font-family="Courier,monospace" font-size="11.00">PermissionComponent</text>
</g>
<!-- \\PermissionComponent&#45;&gt;\\Component -->
<g id="edge39" class="edge"><title>\\PermissionComponent&#45;&gt;\\Component</title>
<path fill="none" stroke="black" d="M860.389,-1022.36C848.792,-1018.13 837.999,-1011.83 830,-1002.49 626.502,-764.998 965.204,-536.756 758,-302.491 748.271,-291.491 735.062,-284.485 720.998,-280.111"/>
<polygon fill="none" stroke="black" points="721.72,-276.681 711.156,-277.487 719.917,-283.445 721.72,-276.681"/>
</g>
<!-- \\NetCommonsComponent -->
<g id="node21" class="node"><title>\\NetCommonsComponent</title>
<polygon fill="none" stroke="black" points="1005,-993.491 861,-993.491 861,-957.491 1005,-957.491 1005,-993.491"/>
<text text-anchor="middle" x="933" y="-972.591" font-family="Courier,monospace" font-size="11.00">NetCommonsComponent</text>
</g>
<!-- \\NetCommonsComponent&#45;&gt;\\Component -->
<g id="edge41" class="edge"><title>\\NetCommonsComponent&#45;&gt;\\Component</title>
<path fill="none" stroke="black" d="M860.454,-968.299C848.851,-964.082 838.038,-957.791 830,-948.491 641.099,-729.92 950.312,-518.066 758,-302.491 748.225,-291.533 734.994,-284.545 720.924,-280.177"/>
<polygon fill="none" stroke="black" points="721.644,-276.747 711.08,-277.554 719.842,-283.511 721.644,-276.747"/>
</g>
<!-- \\NetCommonsController -->
<g id="node22" class="node"><title>\\NetCommonsController</title>
<polygon fill="none" stroke="black" points="1009,-1803.49 857,-1803.49 857,-1767.49 1009,-1767.49 1009,-1803.49"/>
<text text-anchor="middle" x="933" y="-1782.59" font-family="Courier,monospace" font-size="11.00">NetCommonsController</text>
</g>
<!-- \\NetCommonsController&#45;&gt;\\NetCommonsAppController -->
<g id="edge43" class="edge"><title>\\NetCommonsController&#45;&gt;\\NetCommonsAppController</title>
<path fill="none" stroke="black" d="M856.783,-1785.49C820.049,-1785.49 775.59,-1785.49 736.519,-1785.49"/>
<polygon fill="none" stroke="black" points="736.183,-1781.99 726.183,-1785.49 736.183,-1788.99 736.183,-1781.99"/>
</g>
<!-- \\NetCommonsUrl -->
<g id="node23" class="node"><title>\\NetCommonsUrl</title>
<polygon fill="none" stroke="black" points="985,-2289.49 881,-2289.49 881,-2253.49 985,-2253.49 985,-2289.49"/>
<text text-anchor="middle" x="933" y="-2268.59" font-family="Courier,monospace" font-size="11.00">NetCommonsUrl</text>
</g>
<!-- \\NetCommonsTime -->
<g id="node24" class="node"><title>\\NetCommonsTime</title>
<polygon fill="none" stroke="black" points="988,-2235.49 878,-2235.49 878,-2199.49 988,-2199.49 988,-2235.49"/>
<text text-anchor="middle" x="933" y="-2214.59" font-family="Courier,monospace" font-size="11.00">NetCommonsTime</text>
</g>
<!-- \\CurrentBase -->
<g id="node25" class="node"><title>\\CurrentBase</title>
<polygon fill="none" stroke="black" points="685,-1533.49 595,-1533.49 595,-1497.49 685,-1497.49 685,-1533.49"/>
<text text-anchor="middle" x="640" y="-1512.59" font-family="Courier,monospace" font-size="11.00">CurrentBase</text>
</g>
<!-- \\Current -->
<g id="node26" class="node"><title>\\Current</title>
<polygon fill="none" stroke="black" points="965,-1533.49 901,-1533.49 901,-1497.49 965,-1497.49 965,-1533.49"/>
<text text-anchor="middle" x="933" y="-1512.59" font-family="Courier,monospace" font-size="11.00">Current</text>
</g>
<!-- \\Current&#45;&gt;\\CurrentBase -->
<g id="edge45" class="edge"><title>\\Current&#45;&gt;\\CurrentBase</title>
<path fill="none" stroke="black" d="M900.806,-1515.49C851.48,-1515.49 756.554,-1515.49 695.846,-1515.49"/>
<polygon fill="none" stroke="black" points="695.669,-1511.99 685.669,-1515.49 695.669,-1518.99 695.669,-1511.99"/>
</g>
<!-- \\CurrentSystem -->
<g id="node27" class="node"><title>\\CurrentSystem</title>
<polygon fill="none" stroke="black" points="985,-2127.49 881,-2127.49 881,-2091.49 985,-2091.49 985,-2127.49"/>
<text text-anchor="middle" x="933" y="-2106.59" font-family="Courier,monospace" font-size="11.00">CurrentSystem</text>
</g>
<!-- \\CurrentPage -->
<g id="node28" class="node"><title>\\CurrentPage</title>
<polygon fill="none" stroke="black" points="978,-2073.49 888,-2073.49 888,-2037.49 978,-2037.49 978,-2073.49"/>
<text text-anchor="middle" x="933" y="-2052.59" font-family="Courier,monospace" font-size="11.00">CurrentPage</text>
</g>
<!-- \\CurrentFrame -->
<g id="node29" class="node"><title>\\CurrentFrame</title>
<polygon fill="none" stroke="black" points="982,-2019.49 884,-2019.49 884,-1983.49 982,-1983.49 982,-2019.49"/>
<text text-anchor="middle" x="933" y="-1998.59" font-family="Courier,monospace" font-size="11.00">CurrentFrame</text>
</g>
<!-- \\TokenHelper -->
<g id="node30" class="node"><title>\\TokenHelper</title>
<polygon fill="none" stroke="black" points="978,-777.491 888,-777.491 888,-741.491 978,-741.491 978,-777.491"/>
<text text-anchor="middle" x="933" y="-756.591" font-family="Courier,monospace" font-size="11.00">TokenHelper</text>
</g>
<!-- \\FormHelper -->
<g id="node93" class="node"><title>\\FormHelper</title>
<ellipse fill="none" stroke="black" cx="640" cy="-221.491" rx="70.9184" ry="18.3848"/>
<text text-anchor="middle" x="640" y="-217.891" font-family="Times Roman,serif" font-size="14.00" fill="gray">\FormHelper</text>
</g>
<!-- \\TokenHelper&#45;&gt;\\FormHelper -->
<g id="edge47" class="edge"><title>\\TokenHelper&#45;&gt;\\FormHelper</title>
<path fill="none" stroke="black" d="M887.387,-758.459C867.002,-755.556 844.379,-748.524 830,-732.491 684.8,-570.584 905.726,-408.095 758,-248.491 748.083,-237.776 734.859,-230.889 720.853,-226.54"/>
<polygon fill="none" stroke="black" points="721.628,-223.124 711.063,-223.919 719.818,-229.886 721.628,-223.124"/>
</g>
<!-- \\SingletonViewBlockHtmlHelper -->
<g id="node31" class="node"><title>\\SingletonViewBlockHtmlHelper</title>
<polygon fill="none" stroke="black" points="1036,-561.491 830,-561.491 830,-525.491 1036,-525.491 1036,-561.491"/>
<text text-anchor="middle" x="933" y="-540.591" font-family="Courier,monospace" font-size="11.00">SingletonViewBlockHtmlHelper</text>
</g>
<!-- \\HtmlHelper -->
<g id="node95" class="node"><title>\\HtmlHelper</title>
<ellipse fill="none" stroke="black" cx="640" cy="-167.491" rx="67.1751" ry="18.3848"/>
<text text-anchor="middle" x="640" y="-163.891" font-family="Times Roman,serif" font-size="14.00" fill="gray">HtmlHelper</text>
</g>
<!-- \\SingletonViewBlockHtmlHelper&#45;&gt;\\HtmlHelper -->
<g id="edge49" class="edge"><title>\\SingletonViewBlockHtmlHelper&#45;&gt;\\HtmlHelper</title>
<path fill="none" stroke="black" d="M840.591,-525.339C836.772,-522.752 833.208,-519.817 830,-516.491 728.21,-410.928 861.436,-298.441 758,-194.491 746.874,-183.309 732.128,-176.363 716.842,-172.131"/>
<polygon fill="none" stroke="black" points="717.29,-168.639 706.751,-169.724 715.666,-175.448 717.29,-168.639"/>
</g>
<!-- \\FormInputHelper -->
<g id="node32" class="node"><title>\\FormInputHelper</title>
<polygon fill="none" stroke="black" points="992,-2451.49 874,-2451.49 874,-2415.49 992,-2415.49 992,-2451.49"/>
<text text-anchor="middle" x="933" y="-2430.59" font-family="Courier,monospace" font-size="11.00">FormInputHelper</text>
</g>
<!-- \\FormInputHelper&#45;&gt;\\AppHelper -->
<g id="edge51" class="edge"><title>\\FormInputHelper&#45;&gt;\\AppHelper</title>
<path fill="none" stroke="black" d="M873.852,-2446.18C859.272,-2450.07 843.869,-2454.84 830,-2460.49 773.066,-2483.67 712.097,-2520.77 675.004,-2544.88"/>
<polygon fill="none" stroke="black" points="673.002,-2542.01 666.557,-2550.42 676.839,-2547.86 673.002,-2542.01"/>
</g>
<!-- \\WizardHelper -->
<g id="node33" class="node"><title>\\WizardHelper</title>
<polygon fill="none" stroke="black" points="982,-2397.49 884,-2397.49 884,-2361.49 982,-2361.49 982,-2397.49"/>
<text text-anchor="middle" x="933" y="-2376.59" font-family="Courier,monospace" font-size="11.00">WizardHelper</text>
</g>
<!-- \\WizardHelper&#45;&gt;\\AppHelper -->
<g id="edge53" class="edge"><title>\\WizardHelper&#45;&gt;\\AppHelper</title>
<path fill="none" stroke="black" d="M883.91,-2387.63C866.268,-2391.76 846.633,-2397.81 830,-2406.49 761.41,-2442.3 696.097,-2506.94 662.838,-2542.79"/>
<polygon fill="none" stroke="black" points="660.033,-2540.67 655.854,-2550.4 665.192,-2545.4 660.033,-2540.67"/>
</g>
<!-- \\DisplayNumberHelper -->
<g id="node34" class="node"><title>\\DisplayNumberHelper</title>
<polygon fill="none" stroke="black" points="1005,-2343.49 861,-2343.49 861,-2307.49 1005,-2307.49 1005,-2343.49"/>
<text text-anchor="middle" x="933" y="-2322.59" font-family="Courier,monospace" font-size="11.00">DisplayNumberHelper</text>
</g>
<!-- \\DisplayNumberHelper&#45;&gt;\\AppHelper -->
<g id="edge55" class="edge"><title>\\DisplayNumberHelper&#45;&gt;\\AppHelper</title>
<path fill="none" stroke="black" d="M860.381,-2338.67C849.756,-2342.24 839.282,-2346.76 830,-2352.49 749.876,-2401.93 684.727,-2495.68 655.946,-2541.68"/>
<polygon fill="none" stroke="black" points="652.792,-2540.13 650.523,-2550.48 658.75,-2543.8 652.792,-2540.13"/>
</g>
<!-- \\MessageFlashHelper -->
<g id="node35" class="node"><title>\\MessageFlashHelper</title>
<polygon fill="none" stroke="black" points="1002,-2181.49 864,-2181.49 864,-2145.49 1002,-2145.49 1002,-2181.49"/>
<text text-anchor="middle" x="933" y="-2160.59" font-family="Courier,monospace" font-size="11.00">MessageFlashHelper</text>
</g>
<!-- \\MessageFlashHelper&#45;&gt;\\AppHelper -->
<g id="edge57" class="edge"><title>\\MessageFlashHelper&#45;&gt;\\AppHelper</title>
<path fill="none" stroke="black" d="M863.747,-2172.99C851.616,-2176.97 839.769,-2182.58 830,-2190.49 713.272,-2285.02 661.79,-2469.74 645.802,-2540.23"/>
<polygon fill="none" stroke="black" points="642.349,-2539.64 643.616,-2550.16 649.185,-2541.14 642.349,-2539.64"/>
</g>
<!-- \\DateHelper -->
<g id="node36" class="node"><title>\\DateHelper</title>
<polygon fill="none" stroke="black" points="975,-1965.49 891,-1965.49 891,-1929.49 975,-1929.49 975,-1965.49"/>
<text text-anchor="middle" x="933" y="-1944.59" font-family="Courier,monospace" font-size="11.00">DateHelper</text>
</g>
<!-- \\DateHelper&#45;&gt;\\AppHelper -->
<g id="edge59" class="edge"><title>\\DateHelper&#45;&gt;\\AppHelper</title>
<path fill="none" stroke="black" d="M890.821,-1949.26C870.13,-1952.23 846.232,-1959.1 830,-1974.49 743.879,-2056.15 665.926,-2433.54 645.305,-2540.29"/>
<polygon fill="none" stroke="black" points="641.83,-2539.83 643.386,-2550.31 648.705,-2541.14 641.83,-2539.83"/>
</g>
<!-- \\SnsButtonHelper -->
<g id="node37" class="node"><title>\\SnsButtonHelper</title>
<polygon fill="none" stroke="black" points="992,-1911.49 874,-1911.49 874,-1875.49 992,-1875.49 992,-1911.49"/>
<text text-anchor="middle" x="933" y="-1890.59" font-family="Courier,monospace" font-size="11.00">SnsButtonHelper</text>
</g>
<!-- \\SnsButtonHelper&#45;&gt;\\AppHelper -->
<g id="edge61" class="edge"><title>\\SnsButtonHelper&#45;&gt;\\AppHelper</title>
<path fill="none" stroke="black" d="M873.756,-1898.33C857.845,-1902.27 841.8,-1909.03 830,-1920.49 737.138,-2010.71 663.079,-2427.63 644.505,-2540.34"/>
<polygon fill="none" stroke="black" points="641.039,-2539.84 642.881,-2550.27 647.948,-2540.97 641.039,-2539.84"/>
</g>
<!-- \\BackToHelper -->
<g id="node38" class="node"><title>\\BackToHelper</title>
<polygon fill="none" stroke="black" points="982,-2937.49 884,-2937.49 884,-2901.49 982,-2901.49 982,-2937.49"/>
<text text-anchor="middle" x="933" y="-2916.59" font-family="Courier,monospace" font-size="11.00">BackToHelper</text>
</g>
<!-- \\BackToHelper&#45;&gt;\\AppHelper -->
<g id="edge63" class="edge"><title>\\BackToHelper&#45;&gt;\\AppHelper</title>
<path fill="none" stroke="black" d="M883.917,-2914.63C865.579,-2910.86 845.471,-2904.21 830,-2892.49 725.624,-2813.41 668.084,-2659.02 648.129,-2596.14"/>
<polygon fill="none" stroke="black" points="651.45,-2595.03 645.144,-2586.52 644.764,-2597.1 651.45,-2595.03"/>
</g>
<!-- \\NetCommonsHtmlHelper -->
<g id="node39" class="node"><title>\\NetCommonsHtmlHelper</title>
<polygon fill="none" stroke="black" points="1009,-2883.49 857,-2883.49 857,-2847.49 1009,-2847.49 1009,-2883.49"/>
<text text-anchor="middle" x="933" y="-2862.59" font-family="Courier,monospace" font-size="11.00">NetCommonsHtmlHelper</text>
</g>
<!-- \\NetCommonsHtmlHelper&#45;&gt;\\AppHelper -->
<g id="edge65" class="edge"><title>\\NetCommonsHtmlHelper&#45;&gt;\\AppHelper</title>
<path fill="none" stroke="black" d="M856.864,-2852.12C847.35,-2848.59 838.123,-2844.13 830,-2838.49 738.034,-2774.63 675.79,-2651.02 651.457,-2596.03"/>
<polygon fill="none" stroke="black" points="654.551,-2594.36 647.356,-2586.59 648.13,-2597.15 654.551,-2594.36"/>
</g>
<!-- \\ButtonHelper -->
<g id="node40" class="node"><title>\\ButtonHelper</title>
<polygon fill="none" stroke="black" points="982,-723.491 884,-723.491 884,-687.491 982,-687.491 982,-723.491"/>
<text text-anchor="middle" x="933" y="-702.591" font-family="Courier,monospace" font-size="11.00">ButtonHelper</text>
</g>
<!-- \\ButtonHelper&#45;&gt;\\FormHelper -->
<g id="edge67" class="edge"><title>\\ButtonHelper&#45;&gt;\\FormHelper</title>
<path fill="none" stroke="black" d="M883.825,-703.768C864.469,-700.537 843.652,-693.437 830,-678.491 699.318,-535.418 890.914,-389.492 758,-248.491 747.986,-237.867 734.718,-231.021 720.698,-226.685"/>
<polygon fill="none" stroke="black" points="721.468,-223.268 710.904,-224.068 719.661,-230.03 721.468,-223.268"/>
</g>
<!-- \\ComposerHelper -->
<g id="node41" class="node"><title>\\ComposerHelper</title>
<polygon fill="none" stroke="black" points="988,-2829.49 878,-2829.49 878,-2793.49 988,-2793.49 988,-2829.49"/>
<text text-anchor="middle" x="933" y="-2808.59" font-family="Courier,monospace" font-size="11.00">ComposerHelper</text>
</g>
<!-- \\ComposerHelper&#45;&gt;\\AppHelper -->
<g id="edge69" class="edge"><title>\\ComposerHelper&#45;&gt;\\AppHelper</title>
<path fill="none" stroke="black" d="M877.367,-2803.24C861.281,-2799.22 844.238,-2793.28 830,-2784.49 749.876,-2735.05 684.727,-2641.3 655.946,-2595.3"/>
<polygon fill="none" stroke="black" points="658.75,-2593.18 650.523,-2586.51 652.792,-2596.85 658.75,-2593.18"/>
</g>
<!-- \\LinkButtonHelper -->
<g id="node42" class="node"><title>\\LinkButtonHelper</title>
<polygon fill="none" stroke="black" points="995,-669.491 871,-669.491 871,-633.491 995,-633.491 995,-669.491"/>
<text text-anchor="middle" x="933" y="-648.591" font-family="Courier,monospace" font-size="11.00">LinkButtonHelper</text>
</g>
<!-- \\LinkButtonHelper&#45;&gt;\\FormHelper -->
<g id="edge71" class="edge"><title>\\LinkButtonHelper&#45;&gt;\\FormHelper</title>
<path fill="none" stroke="black" d="M870.353,-646.665C855.34,-642.639 840.605,-635.833 830,-624.491 713.795,-500.206 876.143,-370.934 758,-248.491 747.863,-237.984 734.538,-231.192 720.502,-226.872"/>
<polygon fill="none" stroke="black" points="721.266,-223.453 710.702,-224.26 719.464,-230.217 721.266,-223.453"/>
</g>
<!-- \\TableListHelper -->
<g id="node43" class="node"><title>\\TableListHelper</title>
<polygon fill="none" stroke="black" points="992,-2775.49 874,-2775.49 874,-2739.49 992,-2739.49 992,-2775.49"/>
<text text-anchor="middle" x="933" y="-2754.59" font-family="Courier,monospace" font-size="11.00">TableListHelper</text>
</g>
<!-- \\TableListHelper&#45;&gt;\\AppHelper -->
<g id="edge73" class="edge"><title>\\TableListHelper&#45;&gt;\\AppHelper</title>
<path fill="none" stroke="black" d="M873.826,-2746.82C859.022,-2742.86 843.519,-2737.55 830,-2730.49 761.41,-2694.68 696.097,-2630.05 662.838,-2594.2"/>
<polygon fill="none" stroke="black" points="665.192,-2591.58 655.854,-2586.58 660.033,-2596.32 665.192,-2591.58"/>
</g>
<!-- \\NetCommonsTimeHelper -->
<g id="node44" class="node"><title>\\NetCommonsTimeHelper</title>
<polygon fill="none" stroke="black" points="1009,-2721.49 857,-2721.49 857,-2685.49 1009,-2685.49 1009,-2721.49"/>
<text text-anchor="middle" x="933" y="-2700.59" font-family="Courier,monospace" font-size="11.00">NetCommonsTimeHelper</text>
</g>
<!-- \\NetCommonsTimeHelper&#45;&gt;\\AppHelper -->
<g id="edge75" class="edge"><title>\\NetCommonsTimeHelper&#45;&gt;\\AppHelper</title>
<path fill="none" stroke="black" d="M856.883,-2685.95C847.707,-2683.13 838.561,-2679.98 830,-2676.49 773.066,-2653.31 712.097,-2616.22 675.004,-2592.1"/>
<polygon fill="none" stroke="black" points="676.839,-2589.12 666.557,-2586.57 673.002,-2594.97 676.839,-2589.12"/>
</g>
<!-- \\NetCommonsFormHelper -->
<g id="node45" class="node"><title>\\NetCommonsFormHelper</title>
<polygon fill="none" stroke="black" points="1009,-2667.49 857,-2667.49 857,-2631.49 1009,-2631.49 1009,-2667.49"/>
<text text-anchor="middle" x="933" y="-2646.59" font-family="Courier,monospace" font-size="11.00">NetCommonsFormHelper</text>
</g>
<!-- \\NetCommonsFormHelper&#45;&gt;\\AppHelper -->
<g id="edge77" class="edge"><title>\\NetCommonsFormHelper&#45;&gt;\\AppHelper</title>
<path fill="none" stroke="black" d="M863.415,-2631.46C852.231,-2628.5 840.789,-2625.44 830,-2622.49 781.716,-2609.3 726.728,-2593.6 688.375,-2582.54"/>
<polygon fill="none" stroke="black" points="689.087,-2579.1 678.508,-2579.69 687.145,-2585.82 689.087,-2579.1"/>
</g>
<!-- \\TitleIconHelper -->
<g id="node46" class="node"><title>\\TitleIconHelper</title>
<polygon fill="none" stroke="black" points="992,-2613.49 874,-2613.49 874,-2577.49 992,-2577.49 992,-2613.49"/>
<text text-anchor="middle" x="933" y="-2592.59" font-family="Courier,monospace" font-size="11.00">TitleIconHelper</text>
</g>
<!-- \\TitleIconHelper&#45;&gt;\\AppHelper -->
<g id="edge79" class="edge"><title>\\TitleIconHelper&#45;&gt;\\AppHelper</title>
<path fill="none" stroke="black" d="M873.707,-2590.03C819.266,-2585.01 739.563,-2577.67 688.738,-2572.98"/>
<polygon fill="none" stroke="black" points="688.942,-2569.49 678.663,-2572.05 688.299,-2576.46 688.942,-2569.49"/>
</g>
<!-- \\DatetimePickerHelper -->
<g id="node47" class="node"><title>\\DatetimePickerHelper</title>
<polygon fill="none" stroke="black" points="1009,-2559.49 857,-2559.49 857,-2523.49 1009,-2523.49 1009,-2559.49"/>
<text text-anchor="middle" x="933" y="-2538.59" font-family="Courier,monospace" font-size="11.00">DatetimePickerHelper</text>
</g>
<!-- \\DatetimePickerHelper&#45;&gt;\\AppHelper -->
<g id="edge81" class="edge"><title>\\DatetimePickerHelper&#45;&gt;\\AppHelper</title>
<path fill="none" stroke="black" d="M856.783,-2548.51C803.659,-2553.41 734.376,-2559.79 688.603,-2564.01"/>
<polygon fill="none" stroke="black" points="688.274,-2560.53 678.638,-2564.93 688.917,-2567.5 688.274,-2560.53"/>
</g>
<!-- \\Model -->
<g id="node113" class="node"><title>\\Model</title>
<ellipse fill="none" stroke="black" cx="82" cy="-1623.49" rx="43.8406" ry="18.3848"/>
<text text-anchor="middle" x="82" y="-1619.89" font-family="Times Roman,serif" font-size="14.00" fill="gray">\Model</text>
</g>
<!-- \\NetCommonsAppModel&#45;&gt;\\Model -->
<g id="edge83" class="edge"><title>\\NetCommonsAppModel&#45;&gt;\\Model</title>
<path fill="none" stroke="black" d="M273.742,-1623.49C230.675,-1623.49 176.099,-1623.49 136.195,-1623.49"/>
<polygon fill="none" stroke="black" points="136.125,-1619.99 126.125,-1623.49 136.125,-1626.99 136.125,-1619.99"/>
</g>
<!-- \\OriginalKeyBehavior -->
<g id="node49" class="node"><title>\\OriginalKeyBehavior</title>
<polygon fill="none" stroke="black" points="712,-1147.49 568,-1147.49 568,-1111.49 712,-1111.49 712,-1147.49"/>
<text text-anchor="middle" x="640" y="-1126.59" font-family="Courier,monospace" font-size="11.00">OriginalKeyBehavior</text>
</g>
<!-- \\ModelBehavior -->
<g id="node115" class="node"><title>\\ModelBehavior</title>
<ellipse fill="none" stroke="black" cx="343" cy="-329.491" rx="86.9741" ry="18.3848"/>
<text text-anchor="middle" x="343" y="-325.891" font-family="Times Roman,serif" font-size="14.00" fill="gray">\ModelBehavior</text>
</g>
<!-- \\OriginalKeyBehavior&#45;&gt;\\ModelBehavior -->
<g id="edge85" class="edge"><title>\\OriginalKeyBehavior&#45;&gt;\\ModelBehavior</title>
<path fill="none" stroke="black" d="M626.268,-1111.37C600.923,-1076.89 547.096,-998.54 522,-923.491 481.371,-801.989 537.01,-445.525 450,-351.491 445.562,-346.695 440.381,-342.791 434.737,-339.627"/>
<polygon fill="none" stroke="black" points="436.06,-336.38 425.526,-335.24 433.05,-342.7 436.06,-336.38"/>
</g>
<!-- \\TrackableBehavior -->
<g id="node50" class="node"><title>\\TrackableBehavior</title>
<polygon fill="none" stroke="black" points="998,-1155.49 868,-1155.49 868,-1119.49 998,-1119.49 998,-1155.49"/>
<text text-anchor="middle" x="933" y="-1134.59" font-family="Courier,monospace" font-size="11.00">TrackableBehavior</text>
</g>
<!-- \\TrackableBehavior&#45;&gt;\\ModelBehavior -->
<g id="edge87" class="edge"><title>\\TrackableBehavior&#45;&gt;\\ModelBehavior</title>
<path fill="none" stroke="black" d="M867.361,-1130.86C853.631,-1126.77 840.235,-1120.38 830,-1110.49 749.623,-1032.8 802.906,-971.864 758,-869.491 650.406,-624.206 668.215,-506.806 450,-351.491 444.051,-347.257 437.472,-343.799 430.586,-340.979"/>
<polygon fill="none" stroke="black" points="431.631,-337.635 421.036,-337.516 429.245,-344.215 431.631,-337.635"/>
</g>
<!-- \\YAExceptionRenderer -->
<g id="node51" class="node"><title>\\YAExceptionRenderer</title>
<polygon fill="none" stroke="black" points="1005,-507.491 861,-507.491 861,-471.491 1005,-471.491 1005,-507.491"/>
<text text-anchor="middle" x="933" y="-486.591" font-family="Courier,monospace" font-size="11.00">YAExceptionRenderer</text>
</g>
<!-- \\ExceptionRenderer -->
<g id="node118" class="node"><title>\\ExceptionRenderer</title>
<ellipse fill="none" stroke="black" cx="640" cy="-113.491" rx="118.087" ry="18.3848"/>
<text text-anchor="middle" x="640" y="-109.891" font-family="Times Roman,serif" font-size="14.00" fill="gray">TEHxceptionRenderer</text>
</g>
<!-- \\YAExceptionRenderer&#45;&gt;\\ExceptionRenderer -->
<g id="edge89" class="edge"><title>\\YAExceptionRenderer&#45;&gt;\\ExceptionRenderer</title>
<path fill="none" stroke="black" d="M860.477,-481.273C849.086,-477.138 838.341,-471.14 830,-462.491 728.21,-356.928 861.436,-244.441 758,-140.491 753.632,-136.101 748.706,-132.363 743.408,-129.187"/>
<polygon fill="none" stroke="black" points="744.657,-125.891 734.174,-124.355 741.411,-132.093 744.657,-125.891"/>
</g>
<!-- \\NetCommonsMigration -->
<g id="node52" class="node"><title>\\NetCommonsMigration</title>
<polygon fill="none" stroke="black" points="712,-914.491 568,-914.491 568,-878.491 712,-878.491 712,-914.491"/>
<text text-anchor="middle" x="640" y="-893.591" font-family="Courier,monospace" font-size="11.00">NetCommonsMigration</text>
</g>
<!-- \\CakeMigration -->
<g id="node120" class="node"><title>\\CakeMigration</title>
<ellipse fill="none" stroke="black" cx="343" cy="-144.491" rx="84.8528" ry="18.3848"/>
<text text-anchor="middle" x="343" y="-140.891" font-family="Times Roman,serif" font-size="14.00" fill="gray">\CakeMigration</text>
</g>
<!-- \\NetCommonsMigration&#45;&gt;\\CakeMigration -->
<g id="edge91" class="edge"><title>\\NetCommonsMigration&#45;&gt;\\CakeMigration</title>
<path fill="none" stroke="black" d="M567.422,-897.173C550.438,-893.815 533.864,-887.077 522,-874.491 434.126,-781.263 495.16,-422.381 450,-302.491 430.573,-250.915 391.209,-199.649 366.024,-170.07"/>
<polygon fill="none" stroke="black" points="368.513,-167.597 359.325,-162.32 363.217,-172.174 368.513,-167.597"/>
</g>
<!-- \\SwitchLanguageComponent -->
<g id="node53" class="node"><title>\\SwitchLanguageComponent</title>
<polygon fill="none" stroke="black" points="1019,-939.491 847,-939.491 847,-903.491 1019,-903.491 1019,-939.491"/>
<text text-anchor="middle" x="933" y="-918.591" font-family="Courier,monospace" font-size="11.00">SwitchLanguageComponent</text>
</g>
<!-- \\SwitchLanguageComponent&#45;&gt;\\Component -->
<g id="edge93" class="edge"><title>\\SwitchLanguageComponent&#45;&gt;\\Component</title>
<path fill="none" stroke="black" d="M846.664,-907.886C840.429,-904.324 834.742,-899.922 830,-894.491 655.683,-694.828 935.432,-499.39 758,-302.491 748.227,-291.645 735.069,-284.698 721.082,-280.331"/>
<polygon fill="none" stroke="black" points="721.864,-276.917 711.298,-277.704 720.049,-283.678 721.864,-276.917"/>
</g>
<!-- \\M17nAppController -->
<g id="node54" class="node"><title>\\M17nAppController</title>
<polygon fill="none" stroke="black" points="705,-1749.49 575,-1749.49 575,-1713.49 705,-1713.49 705,-1749.49"/>
<text text-anchor="middle" x="640" y="-1728.59" font-family="Courier,monospace" font-size="11.00">M17nAppController</text>
</g>
<!-- \\M17nAppController&#45;&gt;\\AppController -->
<g id="edge95" class="edge"><title>\\M17nAppController&#45;&gt;\\AppController</title>
<path fill="none" stroke="black" d="M574.454,-1731.93C524.058,-1732.27 454.894,-1732.74 405.322,-1733.07"/>
<polygon fill="none" stroke="black" points="405.031,-1729.57 395.055,-1733.14 405.078,-1736.57 405.031,-1729.57"/>
</g>
<!-- \\M17nController -->
<g id="node55" class="node"><title>\\M17nController</title>
<polygon fill="none" stroke="black" points="988,-1749.49 878,-1749.49 878,-1713.49 988,-1713.49 988,-1749.49"/>
<text text-anchor="middle" x="933" y="-1728.59" font-family="Courier,monospace" font-size="11.00">M17nController</text>
</g>
<!-- \\M17nController&#45;&gt;\\M17nAppController -->
<g id="edge97" class="edge"><title>\\M17nController&#45;&gt;\\M17nAppController</title>
<path fill="none" stroke="black" d="M877.199,-1731.49C831.453,-1731.49 766.254,-1731.49 715.785,-1731.49"/>
<polygon fill="none" stroke="black" points="715.575,-1727.99 705.575,-1731.49 715.575,-1734.99 715.575,-1727.99"/>
</g>
<!-- \\M17nHelper -->
<g id="node56" class="node"><title>\\M17nHelper</title>
<polygon fill="none" stroke="black" points="975,-615.491 891,-615.491 891,-579.491 975,-579.491 975,-615.491"/>
<text text-anchor="middle" x="933" y="-594.591" font-family="Courier,monospace" font-size="11.00">M17nHelper</text>
</g>
<!-- \\M17nHelper&#45;&gt;\\FormHelper -->
<g id="edge99" class="edge"><title>\\M17nHelper&#45;&gt;\\FormHelper</title>
<path fill="none" stroke="black" d="M890.749,-596.386C869.781,-593.618 845.655,-586.725 830,-570.491 728.21,-464.928 861.436,-352.441 758,-248.491 747.763,-238.202 734.461,-231.5 720.493,-227.198"/>
<polygon fill="none" stroke="black" points="721.312,-223.794 710.747,-224.588 719.501,-230.555 721.312,-223.794"/>
</g>
<!-- \\SwitchLanguageHelper -->
<g id="node57" class="node"><title>\\SwitchLanguageHelper</title>
<polygon fill="none" stroke="black" points="1009,-2505.49 857,-2505.49 857,-2469.49 1009,-2469.49 1009,-2505.49"/>
<text text-anchor="middle" x="933" y="-2484.59" font-family="Courier,monospace" font-size="11.00">SwitchLanguageHelper</text>
</g>
<!-- \\SwitchLanguageHelper&#45;&gt;\\AppHelper -->
<g id="edge101" class="edge"><title>\\SwitchLanguageHelper&#45;&gt;\\AppHelper</title>
<path fill="none" stroke="black" d="M863.415,-2505.52C852.231,-2508.48 840.789,-2511.54 830,-2514.49 781.716,-2527.68 726.728,-2543.38 688.375,-2554.45"/>
<polygon fill="none" stroke="black" points="687.145,-2551.16 678.508,-2557.3 689.087,-2557.88 687.145,-2551.16"/>
</g>
<!-- \\M17nBehavior -->
<g id="node58" class="node"><title>\\M17nBehavior</title>
<polygon fill="none" stroke="black" points="982,-1263.49 884,-1263.49 884,-1227.49 982,-1227.49 982,-1263.49"/>
<text text-anchor="middle" x="933" y="-1242.59" font-family="Courier,monospace" font-size="11.00">M17nBehavior</text>
</g>
<!-- \\M17nBehavior&#45;&gt;\\OriginalKeyBehavior -->
<g id="edge103" class="edge"><title>\\M17nBehavior&#45;&gt;\\OriginalKeyBehavior</title>
<path fill="none" stroke="black" d="M883.976,-1234.57C866.707,-1230.22 847.296,-1224.75 830,-1218.49 778.058,-1199.69 720.981,-1171.94 683.08,-1152.43"/>
<polygon fill="none" stroke="black" points="684.362,-1149.15 673.873,-1147.66 681.141,-1155.37 684.362,-1149.15"/>
</g>
<!-- \\Language -->
<g id="node59" class="node"><title>\\Language</title>
<polygon fill="none" stroke="black" points="968,-1695.49 898,-1695.49 898,-1659.49 968,-1659.49 968,-1695.49"/>
<text text-anchor="middle" x="933" y="-1674.59" font-family="Courier,monospace" font-size="11.00">Language</text>
</g>
<!-- \\Language&#45;&gt;\\AppModel -->
<g id="edge105" class="edge"><title>\\Language&#45;&gt;\\AppModel</title>
<path fill="none" stroke="black" d="M897.365,-1670.92C844.277,-1661.14 744.412,-1642.73 685.915,-1631.95"/>
<polygon fill="none" stroke="black" points="686.313,-1628.47 675.844,-1630.1 685.044,-1635.35 686.313,-1628.47"/>
</g>
<!-- \\M17nAppModel -->
<g id="node60" class="node"><title>\\M17nAppModel</title>
<polygon fill="none" stroke="black" points="982,-1641.49 884,-1641.49 884,-1605.49 982,-1605.49 982,-1641.49"/>
<text text-anchor="middle" x="933" y="-1620.59" font-family="Courier,monospace" font-size="11.00">M17nAppModel</text>
</g>
<!-- \\M17nAppModel&#45;&gt;\\AppModel -->
<g id="edge107" class="edge"><title>\\M17nAppModel&#45;&gt;\\AppModel</title>
<path fill="none" stroke="black" d="M883.958,-1623.49C828.824,-1623.49 739.984,-1623.49 686.089,-1623.49"/>
<polygon fill="none" stroke="black" points="685.796,-1619.99 675.796,-1623.49 685.796,-1626.99 685.796,-1619.99"/>
</g>
<!-- \\M17nSchema -->
<g id="node61" class="node"><title>\\M17nSchema</title>
<polygon fill="none" stroke="black" points="975,-453.491 891,-453.491 891,-417.491 975,-417.491 975,-453.491"/>
<text text-anchor="middle" x="933" y="-432.591" font-family="Courier,monospace" font-size="11.00">M17nSchema</text>
</g>
<!-- \\CakeSchema -->
<g id="node130" class="node"><title>\\CakeSchema</title>
<ellipse fill="none" stroke="black" cx="640" cy="-59.4905" rx="77.0746" ry="18.3848"/>
<text text-anchor="middle" x="640" y="-55.8905" font-family="Times Roman,serif" font-size="14.00" fill="gray">\CakeSchema</text>
</g>
<!-- \\M17nSchema&#45;&gt;\\CakeSchema -->
<g id="edge109" class="edge"><title>\\M17nSchema&#45;&gt;\\CakeSchema</title>
<path fill="none" stroke="black" d="M890.749,-434.386C869.781,-431.618 845.655,-424.725 830,-408.491 728.21,-302.928 861.436,-190.441 758,-86.4905 748.786,-77.2311 737.091,-70.8763 724.661,-66.5616"/>
<polygon fill="none" stroke="black" points="725.628,-63.1973 715.042,-63.6454 723.597,-69.8962 725.628,-63.1973"/>
</g>
<!-- \\Records -->
<g id="node62" class="node"><title>\\Records</title>
<polygon fill="none" stroke="black" points="965,-1209.49 901,-1209.49 901,-1173.49 965,-1173.49 965,-1209.49"/>
<text text-anchor="middle" x="933" y="-1188.59" font-family="Courier,monospace" font-size="11.00">Records</text>
</g>
<!-- \\Records&#45;&gt;\\NetCommonsMigration -->
<g id="edge111" class="edge"><title>\\Records&#45;&gt;\\NetCommonsMigration</title>
<path fill="none" stroke="black" d="M900.895,-1188.82C879.271,-1185.72 850.979,-1179 830,-1164.49 738.599,-1101.26 676.254,-978.999 651.692,-924.219"/>
<polygon fill="none" stroke="black" points="654.78,-922.546 647.547,-914.805 648.374,-925.367 654.78,-922.546"/>
</g>
<!-- \\Init -->
<g id="node63" class="node"><title>\\Init</title>
<polygon fill="none" stroke="black" points="960,-399.491 906,-399.491 906,-363.491 960,-363.491 960,-399.491"/>
<text text-anchor="middle" x="933" y="-378.591" font-family="Courier,monospace" font-size="11.00">Init</text>
</g>
<!-- \\Init&#45;&gt;\\CakeMigration -->
<g id="edge113" class="edge"><title>\\Init&#45;&gt;\\CakeMigration</title>
<path fill="none" stroke="black" d="M930.514,-363.392C921.155,-303.171 882.008,-109.034 758,-32.4905 668.745,22.6017 622.817,-3.54917 522,-32.4905 462.557,-49.5546 403.724,-92.7673 370.512,-120.254"/>
<polygon fill="none" stroke="black" points="368.036,-117.763 362.635,-126.878 372.541,-123.121 368.036,-117.763"/>
</g>
</g>
</svg>
