<?xml version="1.0" encoding="UTF-8" standalone="no"?>
<!DOCTYPE svg PUBLIC "-//W3C//DTD SVG 1.1//EN"
 "http://www.w3.org/Graphics/SVG/1.1/DTD/svg11.dtd">
<!-- Generated by graphviz version 2.26.3 (20100126.1600)
 -->
<!-- Title: G Pages: 1 -->
<svg width="1060pt" height="2618pt"
 viewBox="0.00 0.00 1060.00 2618.00" xmlns="http://www.w3.org/2000/svg" xmlns:xlink="http://www.w3.org/1999/xlink">
<g id="graph1" class="graph" transform="scale(1 1) rotate(0) translate(4 2614)">
<title>G</title>
<polygon fill="white" stroke="white" points="-4,5 -4,-2614 1057,-2614 1057,5 -4,5"/>
<g id="graph2" class="cluster"><title>cluster_Global</title>
<polyline fill="none" stroke="gray" points="264,-368 1032,-368 "/>
<path fill="none" stroke="gray" d="M1032,-368C1038,-368 1044,-374 1044,-380"/>
<polyline fill="none" stroke="gray" points="1044,-380 1044,-2590 "/>
<path fill="none" stroke="gray" d="M1044,-2590C1044,-2596 1038,-2602 1032,-2602"/>
<polyline fill="none" stroke="gray" points="1032,-2602 264,-2602 "/>
<path fill="none" stroke="gray" d="M264,-2602C258,-2602 252,-2596 252,-2590"/>
<polyline fill="none" stroke="gray" points="252,-2590 252,-380 "/>
<path fill="none" stroke="gray" d="M252,-380C252,-374 258,-368 264,-368"/>
<text text-anchor="middle" x="648" y="-2588.1" font-family="Times Roman,serif" font-size="11.00" fill="gray">Global</text>
</g>
<!-- \\AppController -->
<g id="node2" class="node"><title>\\AppController</title>
<polygon fill="none" stroke="black" points="395,-1537 291,-1537 291,-1501 395,-1501 395,-1537"/>
<text text-anchor="middle" x="343" y="-1516.1" font-family="Courier,monospace" font-size="11.00">AppController</text>
</g>
<!-- \\Controller -->
<g id="node56" class="node"><title>\\Controller</title>
<ellipse fill="none" stroke="black" cx="82" cy="-498" rx="63.1385" ry="18.3848"/>
<text text-anchor="middle" x="82" y="-494.4" font-family="Times Roman,serif" font-size="14.00" fill="gray">\Controller</text>
</g>
<!-- \\AppController&#45;&gt;\\Controller -->
<g id="edge3" class="edge"><title>\\AppController&#45;&gt;\\Controller</title>
<path fill="none" stroke="black" d="M290.943,-1520.29C271.171,-1518.02 250.052,-1511.77 236,-1497 166.751,-1424.21 98.162,-682.235 84.4662,-526.557"/>
<polygon fill="none" stroke="black" points="87.934,-526.035 83.5757,-516.378 80.9607,-526.645 87.934,-526.035"/>
</g>
<!-- \\AppModel -->
<g id="node3" class="node"><title>\\AppModel</title>
<polygon fill="none" stroke="black" points="675,-2356 605,-2356 605,-2320 675,-2320 675,-2356"/>
<text text-anchor="middle" x="640" y="-2335.1" font-family="Courier,monospace" font-size="11.00">AppModel</text>
</g>
<!-- \\NetCommonsAppModel -->
<g id="node47" class="node"><title>\\NetCommonsAppModel</title>
<polygon fill="none" stroke="black" points="412,-2356 274,-2356 274,-2320 412,-2320 412,-2356"/>
<text text-anchor="middle" x="343" y="-2335.1" font-family="Courier,monospace" font-size="11.00">NetCommonsAppModel</text>
</g>
<!-- \\AppModel&#45;&gt;\\NetCommonsAppModel -->
<g id="edge5" class="edge"><title>\\AppModel&#45;&gt;\\NetCommonsAppModel</title>
<path fill="none" stroke="black" d="M604.47,-2338C559.713,-2338 481.497,-2338 422.241,-2338"/>
<polygon fill="none" stroke="black" points="422.157,-2334.5 412.157,-2338 422.157,-2341.5 422.157,-2334.5"/>
</g>
<!-- \\DatabaseConfiguration -->
<g id="node4" class="node"><title>\\DatabaseConfiguration</title>
<polygon fill="none" stroke="black" points="1012,-2356 854,-2356 854,-2320 1012,-2320 1012,-2356"/>
<text text-anchor="middle" x="933" y="-2335.1" font-family="Courier,monospace" font-size="11.00">DatabaseConfiguration</text>
</g>
<!-- \\DatabaseConfiguration&#45;&gt;\\AppModel -->
<g id="edge7" class="edge"><title>\\DatabaseConfiguration&#45;&gt;\\AppModel</title>
<path fill="none" stroke="black" d="M853.71,-2338C799.937,-2338 730.74,-2338 685.886,-2338"/>
<polygon fill="none" stroke="black" points="685.866,-2334.5 675.866,-2338 685.866,-2341.5 685.866,-2334.5"/>
</g>
<!-- \\AppHelper -->
<g id="node5" class="node"><title>\\AppHelper</title>
<polygon fill="none" stroke="black" points="678,-1708 602,-1708 602,-1672 678,-1672 678,-1708"/>
<text text-anchor="middle" x="640" y="-1687.1" font-family="Courier,monospace" font-size="11.00">AppHelper</text>
</g>
<!-- \\Helper -->
<g id="node60" class="node"><title>\\Helper</title>
<ellipse fill="none" stroke="black" cx="343" cy="-342" rx="43.8406" ry="18.3848"/>
<text text-anchor="middle" x="343" y="-338.4" font-family="Times Roman,serif" font-size="14.00" fill="gray">Helper</text>
</g>
<!-- \\AppHelper&#45;&gt;\\Helper -->
<g id="edge9" class="edge"><title>\\AppHelper&#45;&gt;\\Helper</title>
<path fill="none" stroke="black" d="M633.214,-1671.76C612.518,-1615.25 549.913,-1437.73 522,-1285 503.546,-1184.03 517.915,-440.965 450,-364 436.75,-348.984 416.226,-342.613 396.683,-340.309"/>
<polygon fill="none" stroke="black" points="396.857,-336.812 386.596,-339.451 396.264,-343.786 396.857,-336.812"/>
</g>
<!-- \\NetCommonsDeleteTest -->
<g id="node6" class="node"><title>\\NetCommonsDeleteTest</title>
<polygon fill="none" stroke="black" points="1009,-2518 857,-2518 857,-2482 1009,-2482 1009,-2518"/>
<text text-anchor="middle" x="933" y="-2497.1" font-family="Courier,monospace" font-size="11.00">NetCommonsDeleteTest</text>
</g>
<!-- \\NetCommonsModelTestCase -->
<g id="node15" class="node"><title>\\NetCommonsModelTestCase</title>
<polygon fill="none" stroke="black" points="726,-2464 554,-2464 554,-2428 726,-2428 726,-2464"/>
<text text-anchor="middle" x="640" y="-2443.1" font-family="Courier,monospace" font-size="11.00">NetCommonsModelTestCase</text>
</g>
<!-- \\NetCommonsDeleteTest&#45;&gt;\\NetCommonsModelTestCase -->
<g id="edge11" class="edge"><title>\\NetCommonsDeleteTest&#45;&gt;\\NetCommonsModelTestCase</title>
<path fill="none" stroke="black" d="M856.783,-2485.95C819.893,-2479.15 775.211,-2470.92 736.02,-2463.7"/>
<polygon fill="none" stroke="black" points="736.652,-2460.25 726.183,-2461.88 735.383,-2467.14 736.652,-2460.25"/>
</g>
<!-- \\NetCommonsConsoleTestCase -->
<g id="node7" class="node"><title>\\NetCommonsConsoleTestCase</title>
<polygon fill="none" stroke="black" points="732,-2572 548,-2572 548,-2536 732,-2536 732,-2572"/>
<text text-anchor="middle" x="640" y="-2551.1" font-family="Courier,monospace" font-size="11.00">NetCommonsConsoleTestCase</text>
</g>
<!-- \\NetCommonsCakeTestCase -->
<g id="node13" class="node"><title>\\NetCommonsCakeTestCase</title>
<polygon fill="none" stroke="black" points="425,-2518 261,-2518 261,-2482 425,-2482 425,-2518"/>
<text text-anchor="middle" x="343" y="-2497.1" font-family="Courier,monospace" font-size="11.00">NetCommonsCakeTestCase</text>
</g>
<!-- \\NetCommonsConsoleTestCase&#45;&gt;\\NetCommonsCakeTestCase -->
<g id="edge13" class="edge"><title>\\NetCommonsConsoleTestCase&#45;&gt;\\NetCommonsCakeTestCase</title>
<path fill="none" stroke="black" d="M547.249,-2537.14C511.778,-2530.69 471.343,-2523.34 435.861,-2516.88"/>
<polygon fill="none" stroke="black" points="436.458,-2513.44 425.993,-2515.09 435.206,-2520.32 436.458,-2513.44"/>
</g>
<!-- \\NetCommonsGetTest -->
<g id="node8" class="node"><title>\\NetCommonsGetTest</title>
<polygon fill="none" stroke="black" points="998,-2464 868,-2464 868,-2428 998,-2428 998,-2464"/>
<text text-anchor="middle" x="933" y="-2443.1" font-family="Courier,monospace" font-size="11.00">NetCommonsGetTest</text>
</g>
<!-- \\NetCommonsGetTest&#45;&gt;\\NetCommonsModelTestCase -->
<g id="edge15" class="edge"><title>\\NetCommonsGetTest&#45;&gt;\\NetCommonsModelTestCase</title>
<path fill="none" stroke="black" d="M867.245,-2446C828.664,-2446 779.217,-2446 736.305,-2446"/>
<polygon fill="none" stroke="black" points="736.12,-2442.5 726.12,-2446 736.12,-2449.5 736.12,-2442.5"/>
</g>
<!-- \\NetCommonsHelperTestCase -->
<g id="node9" class="node"><title>\\NetCommonsHelperTestCase</title>
<polygon fill="none" stroke="black" points="729,-2518 551,-2518 551,-2482 729,-2482 729,-2518"/>
<text text-anchor="middle" x="640" y="-2497.1" font-family="Courier,monospace" font-size="11.00">NetCommonsHelperTestCase</text>
</g>
<!-- \\NetCommonsHelperTestCase&#45;&gt;\\NetCommonsCakeTestCase -->
<g id="edge17" class="edge"><title>\\NetCommonsHelperTestCase&#45;&gt;\\NetCommonsCakeTestCase</title>
<path fill="none" stroke="black" d="M550.487,-2500C514.267,-2500 472.456,-2500 435.9,-2500"/>
<polygon fill="none" stroke="black" points="435.737,-2496.5 425.737,-2500 435.737,-2503.5 435.737,-2496.5"/>
</g>
<!-- \\NetCommonsControllerBaseTestCase -->
<g id="node10" class="node"><title>\\NetCommonsControllerBaseTestCase</title>
<polygon fill="none" stroke="black" points="756,-1222 524,-1222 524,-1186 756,-1186 756,-1222"/>
<text text-anchor="middle" x="640" y="-1201.1" font-family="Courier,monospace" font-size="11.00">NetCommonsControllerBaseTestCase</text>
</g>
<!-- \\ControllerTestCase -->
<g id="node66" class="node"><title>\\ControllerTestCase</title>
<ellipse fill="none" stroke="black" cx="343" cy="-288" rx="106.773" ry="18.3848"/>
<text text-anchor="middle" x="343" y="-284.4" font-family="Times Roman,serif" font-size="14.00" fill="gray">\ControllerTestCase</text>
</g>
<!-- \\NetCommonsControllerBaseTestCase&#45;&gt;\\ControllerTestCase -->
<g id="edge19" class="edge"><title>\\NetCommonsControllerBaseTestCase&#45;&gt;\\ControllerTestCase</title>
<path fill="none" stroke="black" d="M633.68,-1185.71C614.324,-1129.07 555.166,-951.315 522,-800 498.671,-693.568 523.107,-395.793 450,-315 446.144,-310.738 441.722,-307.104 436.92,-304.01"/>
<polygon fill="none" stroke="black" points="438.347,-300.799 427.906,-299.004 434.948,-306.919 438.347,-300.799"/>
</g>
<!-- \\NetCommonsValidateTest -->
<g id="node11" class="node"><title>\\NetCommonsValidateTest</title>
<polygon fill="none" stroke="black" points="1015,-2410 851,-2410 851,-2374 1015,-2374 1015,-2410"/>
<text text-anchor="middle" x="933" y="-2389.1" font-family="Courier,monospace" font-size="11.00">NetCommonsValidateTest</text>
</g>
<!-- \\NetCommonsValidateTest&#45;&gt;\\NetCommonsModelTestCase -->
<g id="edge21" class="edge"><title>\\NetCommonsValidateTest&#45;&gt;\\NetCommonsModelTestCase</title>
<path fill="none" stroke="black" d="M850.213,-2407.26C814.791,-2413.79 773.196,-2421.45 736.397,-2428.23"/>
<polygon fill="none" stroke="black" points="735.354,-2424.87 726.154,-2430.12 736.623,-2431.75 735.354,-2424.87"/>
</g>
<!-- \\NetCommonsTestSuite -->
<g id="node12" class="node"><title>\\NetCommonsTestSuite</title>
<polygon fill="none" stroke="black" points="1005,-1114 861,-1114 861,-1078 1005,-1078 1005,-1114"/>
<text text-anchor="middle" x="933" y="-1093.1" font-family="Courier,monospace" font-size="11.00">NetCommonsTestSuite</text>
</g>
<!-- \\CakeTestSuite -->
<g id="node69" class="node"><title>\\CakeTestSuite</title>
<ellipse fill="none" stroke="black" cx="640" cy="-342" rx="84.1457" ry="18.3848"/>
<text text-anchor="middle" x="640" y="-338.4" font-family="Times Roman,serif" font-size="14.00" fill="gray">\CakeTestSuite</text>
</g>
<!-- \\NetCommonsTestSuite&#45;&gt;\\CakeTestSuite -->
<g id="edge23" class="edge"><title>\\NetCommonsTestSuite&#45;&gt;\\CakeTestSuite</title>
<path fill="none" stroke="black" d="M860.383,-1088.87C848.787,-1084.65 837.995,-1078.34 830,-1069 727.575,-949.377 864.667,-479.856 758,-364 751.119,-356.526 742.58,-351.101 733.263,-347.215"/>
<polygon fill="none" stroke="black" points="734.315,-343.875 723.72,-343.824 731.97,-350.47 734.315,-343.875"/>
</g>
<!-- \\CakeTestCase -->
<g id="node71" class="node"><title>\\CakeTestCase</title>
<ellipse fill="none" stroke="black" cx="82" cy="-2500" rx="82.0244" ry="18.3848"/>
<text text-anchor="middle" x="82" y="-2496.4" font-family="Times Roman,serif" font-size="14.00" fill="gray">\CakeTestCase</text>
</g>
<!-- \\NetCommonsCakeTestCase&#45;&gt;\\CakeTestCase -->
<g id="edge25" class="edge"><title>\\NetCommonsCakeTestCase&#45;&gt;\\CakeTestCase</title>
<path fill="none" stroke="black" d="M260.418,-2500C233.018,-2500 202.345,-2500 174.263,-2500"/>
<polygon fill="none" stroke="black" points="174.045,-2496.5 164.045,-2500 174.045,-2503.5 174.045,-2496.5"/>
</g>
<!-- \\NetCommonsSaveTest -->
<g id="node14" class="node"><title>\\NetCommonsSaveTest</title>
<polygon fill="none" stroke="black" points="1002,-2572 864,-2572 864,-2536 1002,-2536 1002,-2572"/>
<text text-anchor="middle" x="933" y="-2551.1" font-family="Courier,monospace" font-size="11.00">NetCommonsSaveTest</text>
</g>
<!-- \\NetCommonsSaveTest&#45;&gt;\\NetCommonsModelTestCase -->
<g id="edge27" class="edge"><title>\\NetCommonsSaveTest&#45;&gt;\\NetCommonsModelTestCase</title>
<path fill="none" stroke="black" d="M863.799,-2539.82C852.234,-2536.34 840.57,-2532.11 830,-2527 793.981,-2509.6 794.288,-2489.83 758,-2473 750.962,-2469.74 743.501,-2466.85 735.884,-2464.31"/>
<polygon fill="none" stroke="black" points="736.762,-2460.91 726.173,-2461.26 734.666,-2467.59 736.762,-2460.91"/>
</g>
<!-- \\NetCommonsModelTestCase&#45;&gt;\\NetCommonsCakeTestCase -->
<g id="edge29" class="edge"><title>\\NetCommonsModelTestCase&#45;&gt;\\NetCommonsCakeTestCase</title>
<path fill="none" stroke="black" d="M553.696,-2461.69C516.671,-2468.42 473.35,-2476.3 435.65,-2483.15"/>
<polygon fill="none" stroke="black" points="434.899,-2479.73 425.686,-2484.97 436.151,-2486.62 434.899,-2479.73"/>
</g>
<!-- \\NetCommonsControllerTestCase -->
<g id="node16" class="node"><title>\\NetCommonsControllerTestCase</title>
<polygon fill="none" stroke="black" points="1036,-1222 830,-1222 830,-1186 1036,-1186 1036,-1222"/>
<text text-anchor="middle" x="933" y="-1201.1" font-family="Courier,monospace" font-size="11.00">NetCommonsControllerTestCase</text>
</g>
<!-- \\NetCommonsControllerTestCase&#45;&gt;\\NetCommonsControllerBaseTestCase -->
<g id="edge31" class="edge"><title>\\NetCommonsControllerTestCase&#45;&gt;\\NetCommonsControllerBaseTestCase</title>
<path fill="none" stroke="black" d="M829.699,-1204C809.381,-1204 787.845,-1204 766.858,-1204"/>
<polygon fill="none" stroke="black" points="766.606,-1200.5 756.606,-1204 766.606,-1207.5 766.606,-1200.5"/>
</g>
<!-- \\NetCommonsAppController -->
<g id="node17" class="node"><title>\\NetCommonsAppController</title>
<polygon fill="none" stroke="black" points="726,-791 554,-791 554,-755 726,-755 726,-791"/>
<text text-anchor="middle" x="640" y="-770.1" font-family="Courier,monospace" font-size="11.00">NetCommonsAppController</text>
</g>
<!-- \\NetCommonsAppController&#45;&gt;\\Controller -->
<g id="edge33" class="edge"><title>\\NetCommonsAppController&#45;&gt;\\Controller</title>
<path fill="none" stroke="black" d="M553.951,-770C541.943,-766.104 530.742,-760.085 522,-751 369.374,-592.393 616.576,-404.888 450,-261 378.024,-198.827 319.591,-215.628 236,-261 152.713,-306.207 107.445,-418.085 90.2335,-470.314"/>
<polygon fill="none" stroke="black" points="86.8716,-469.337 87.1622,-479.927 93.5396,-471.467 86.8716,-469.337"/>
</g>
<!-- \\AssetComponent -->
<g id="node18" class="node"><title>\\AssetComponent</title>
<polygon fill="none" stroke="black" points="988,-1006 878,-1006 878,-970 988,-970 988,-1006"/>
<text text-anchor="middle" x="933" y="-985.1" font-family="Courier,monospace" font-size="11.00">AssetComponent</text>
</g>
<!-- \\Component -->
<g id="node77" class="node"><title>\\Component</title>
<ellipse fill="none" stroke="black" cx="640" cy="-288" rx="70.9184" ry="18.3848"/>
<text text-anchor="middle" x="640" y="-284.4" font-family="Times Roman,serif" font-size="14.00" fill="gray">\Component</text>
</g>
<!-- \\AssetComponent&#45;&gt;\\Component -->
<g id="edge35" class="edge"><title>\\AssetComponent&#45;&gt;\\Component</title>
<path fill="none" stroke="black" d="M877.263,-985.504C859.717,-981.876 841.846,-974.707 830,-961 641.099,-742.429 950.312,-530.576 758,-315 748.225,-304.042 734.994,-297.054 720.924,-292.686"/>
<polygon fill="none" stroke="black" points="721.644,-289.256 711.08,-290.064 719.842,-296.02 721.644,-289.256"/>
</g>
<!-- \\NetCommonsTimeComponent -->
<g id="node19" class="node"><title>\\NetCommonsTimeComponent</title>
<polygon fill="none" stroke="black" points="1019,-952 847,-952 847,-916 1019,-916 1019,-952"/>
<text text-anchor="middle" x="933" y="-931.1" font-family="Courier,monospace" font-size="11.00">NetCommonsTimeComponent</text>
</g>
<!-- \\NetCommonsTimeComponent&#45;&gt;\\Component -->
<g id="edge37" class="edge"><title>\\NetCommonsTimeComponent&#45;&gt;\\Component</title>
<path fill="none" stroke="black" d="M846.664,-920.396C840.429,-916.834 834.742,-912.431 830,-907 655.683,-707.337 935.432,-511.899 758,-315 748.227,-304.155 735.069,-297.207 721.082,-292.841"/>
<polygon fill="none" stroke="black" points="721.864,-289.426 711.298,-290.214 720.049,-296.187 721.864,-289.426"/>
</g>
<!-- \\PermissionComponent -->
<g id="node20" class="node"><title>\\PermissionComponent</title>
<polygon fill="none" stroke="black" points="1005,-898 861,-898 861,-862 1005,-862 1005,-898"/>
<text text-anchor="middle" x="933" y="-877.1" font-family="Courier,monospace" font-size="11.00">PermissionComponent</text>
</g>
<!-- \\PermissionComponent&#45;&gt;\\Component -->
<g id="edge39" class="edge"><title>\\PermissionComponent&#45;&gt;\\Component</title>
<path fill="none" stroke="black" d="M860.36,-872.567C848.839,-868.366 838.079,-862.143 830,-853 670.252,-672.227 920.569,-493.24 758,-315 748.162,-304.213 734.974,-297.293 720.979,-292.934"/>
<polygon fill="none" stroke="black" points="721.757,-289.519 711.192,-290.31 719.944,-296.281 721.757,-289.519"/>
</g>
<!-- \\NetCommonsComponent -->
<g id="node21" class="node"><title>\\NetCommonsComponent</title>
<polygon fill="none" stroke="black" points="1005,-844 861,-844 861,-808 1005,-808 1005,-844"/>
<text text-anchor="middle" x="933" y="-823.1" font-family="Courier,monospace" font-size="11.00">NetCommonsComponent</text>
</g>
<!-- \\NetCommonsComponent&#45;&gt;\\Component -->
<g id="edge41" class="edge"><title>\\NetCommonsComponent&#45;&gt;\\Component</title>
<path fill="none" stroke="black" d="M860.47,-818.469C848.938,-814.277 838.146,-808.083 830,-799 684.8,-637.094 905.726,-474.605 758,-315 748.083,-304.286 734.859,-297.398 720.853,-293.049"/>
<polygon fill="none" stroke="black" points="721.628,-289.634 711.063,-290.429 719.818,-296.396 721.628,-289.634"/>
</g>
<!-- \\NetCommonsController -->
<g id="node22" class="node"><title>\\NetCommonsController</title>
<polygon fill="none" stroke="black" points="1009,-1168 857,-1168 857,-1132 1009,-1132 1009,-1168"/>
<text text-anchor="middle" x="933" y="-1147.1" font-family="Courier,monospace" font-size="11.00">NetCommonsController</text>
</g>
<!-- \\NetCommonsController&#45;&gt;\\NetCommonsAppController -->
<g id="edge43" class="edge"><title>\\NetCommonsController&#45;&gt;\\NetCommonsAppController</title>
<path fill="none" stroke="black" d="M856.753,-1137.7C847.15,-1134.01 837.929,-1129.22 830,-1123 719.731,-1036.55 664.977,-867.634 646.947,-800.995"/>
<polygon fill="none" stroke="black" points="650.3,-799.983 644.366,-791.206 643.532,-801.768 650.3,-799.983"/>
</g>
<!-- \\NetCommonsUrl -->
<g id="node23" class="node"><title>\\NetCommonsUrl</title>
<polygon fill="none" stroke="black" points="985,-1924 881,-1924 881,-1888 985,-1888 985,-1924"/>
<text text-anchor="middle" x="933" y="-1903.1" font-family="Courier,monospace" font-size="11.00">NetCommonsUrl</text>
</g>
<!-- \\NetCommonsTime -->
<g id="node24" class="node"><title>\\NetCommonsTime</title>
<polygon fill="none" stroke="black" points="988,-1870 878,-1870 878,-1834 988,-1834 988,-1870"/>
<text text-anchor="middle" x="933" y="-1849.1" font-family="Courier,monospace" font-size="11.00">NetCommonsTime</text>
</g>
<!-- \\CurrentBase -->
<g id="node25" class="node"><title>\\CurrentBase</title>
<polygon fill="none" stroke="black" points="685,-1276 595,-1276 595,-1240 685,-1240 685,-1276"/>
<text text-anchor="middle" x="640" y="-1255.1" font-family="Courier,monospace" font-size="11.00">CurrentBase</text>
</g>
<!-- \\Current -->
<g id="node26" class="node"><title>\\Current</title>
<polygon fill="none" stroke="black" points="965,-1276 901,-1276 901,-1240 965,-1240 965,-1276"/>
<text text-anchor="middle" x="933" y="-1255.1" font-family="Courier,monospace" font-size="11.00">Current</text>
</g>
<!-- \\Current&#45;&gt;\\CurrentBase -->
<g id="edge45" class="edge"><title>\\Current&#45;&gt;\\CurrentBase</title>
<path fill="none" stroke="black" d="M900.806,-1258C851.48,-1258 756.554,-1258 695.846,-1258"/>
<polygon fill="none" stroke="black" points="695.669,-1254.5 685.669,-1258 695.669,-1261.5 695.669,-1254.5"/>
</g>
<!-- \\CurrentSystem -->
<g id="node27" class="node"><title>\\CurrentSystem</title>
<polygon fill="none" stroke="black" points="985,-1762 881,-1762 881,-1726 985,-1726 985,-1762"/>
<text text-anchor="middle" x="933" y="-1741.1" font-family="Courier,monospace" font-size="11.00">CurrentSystem</text>
</g>
<!-- \\CurrentPage -->
<g id="node28" class="node"><title>\\CurrentPage</title>
<polygon fill="none" stroke="black" points="978,-1708 888,-1708 888,-1672 978,-1672 978,-1708"/>
<text text-anchor="middle" x="933" y="-1687.1" font-family="Courier,monospace" font-size="11.00">CurrentPage</text>
</g>
<!-- \\CurrentFrame -->
<g id="node29" class="node"><title>\\CurrentFrame</title>
<polygon fill="none" stroke="black" points="982,-1654 884,-1654 884,-1618 982,-1618 982,-1654"/>
<text text-anchor="middle" x="933" y="-1633.1" font-family="Courier,monospace" font-size="11.00">CurrentFrame</text>
</g>
<!-- \\TokenHelper -->
<g id="node30" class="node"><title>\\TokenHelper</title>
<polygon fill="none" stroke="black" points="978,-682 888,-682 888,-646 978,-646 978,-682"/>
<text text-anchor="middle" x="933" y="-661.1" font-family="Courier,monospace" font-size="11.00">TokenHelper</text>
</g>
<!-- \\FormHelper -->
<g id="node84" class="node"><title>\\FormHelper</title>
<ellipse fill="none" stroke="black" cx="640" cy="-234" rx="70.9184" ry="18.3848"/>
<text text-anchor="middle" x="640" y="-230.4" font-family="Times Roman,serif" font-size="14.00" fill="gray">\FormHelper</text>
</g>
<!-- \\TokenHelper&#45;&gt;\\FormHelper -->
<g id="edge47" class="edge"><title>\\TokenHelper&#45;&gt;\\FormHelper</title>
<path fill="none" stroke="black" d="M887.419,-662.661C867.167,-659.676 844.645,-652.664 830,-637 713.795,-512.716 876.143,-383.443 758,-261 747.863,-250.494 734.538,-243.702 720.502,-239.381"/>
<polygon fill="none" stroke="black" points="721.266,-235.962 710.702,-236.77 719.464,-242.726 721.266,-235.962"/>
</g>
<!-- \\SingletonViewBlockHtmlHelper -->
<g id="node31" class="node"><title>\\SingletonViewBlockHtmlHelper</title>
<polygon fill="none" stroke="black" points="1036,-628 830,-628 830,-592 1036,-592 1036,-628"/>
<text text-anchor="middle" x="933" y="-607.1" font-family="Courier,monospace" font-size="11.00">SingletonViewBlockHtmlHelper</text>
</g>
<!-- \\HtmlHelper -->
<g id="node86" class="node"><title>\\HtmlHelper</title>
<ellipse fill="none" stroke="black" cx="640" cy="-180" rx="67.1751" ry="18.3848"/>
<text text-anchor="middle" x="640" y="-176.4" font-family="Times Roman,serif" font-size="14.00" fill="gray">HtmlHelper</text>
</g>
<!-- \\SingletonViewBlockHtmlHelper&#45;&gt;\\HtmlHelper -->
<g id="edge49" class="edge"><title>\\SingletonViewBlockHtmlHelper&#45;&gt;\\HtmlHelper</title>
<path fill="none" stroke="black" d="M840.465,-591.968C836.678,-589.35 833.156,-586.376 830,-583 713.795,-458.716 876.143,-329.443 758,-207 746.987,-195.587 732.213,-188.556 716.851,-184.316"/>
<polygon fill="none" stroke="black" points="717.243,-180.812 706.706,-181.915 715.631,-187.624 717.243,-180.812"/>
</g>
<!-- \\FormInputHelper -->
<g id="node32" class="node"><title>\\FormInputHelper</title>
<polygon fill="none" stroke="black" points="992,-2194 874,-2194 874,-2158 992,-2158 992,-2194"/>
<text text-anchor="middle" x="933" y="-2173.1" font-family="Courier,monospace" font-size="11.00">FormInputHelper</text>
</g>
<!-- \\FormInputHelper&#45;&gt;\\AppHelper -->
<g id="edge51" class="edge"><title>\\FormInputHelper&#45;&gt;\\AppHelper</title>
<path fill="none" stroke="black" d="M873.983,-2170.19C858.26,-2166.23 842.259,-2159.69 830,-2149 812.366,-2133.62 688.032,-1814.31 650.623,-1717.55"/>
<polygon fill="none" stroke="black" points="653.855,-1716.2 646.986,-1708.14 647.325,-1718.73 653.855,-1716.2"/>
</g>
<!-- \\WizardHelper -->
<g id="node33" class="node"><title>\\WizardHelper</title>
<polygon fill="none" stroke="black" points="982,-2140 884,-2140 884,-2104 982,-2104 982,-2140"/>
<text text-anchor="middle" x="933" y="-2119.1" font-family="Courier,monospace" font-size="11.00">WizardHelper</text>
</g>
<!-- \\WizardHelper&#45;&gt;\\AppHelper -->
<g id="edge53" class="edge"><title>\\WizardHelper&#45;&gt;\\AppHelper</title>
<path fill="none" stroke="black" d="M883.864,-2117.97C865.307,-2114.32 845.06,-2107.54 830,-2095 766.828,-2042.41 678.226,-1799.9 649.435,-1717.49"/>
<polygon fill="none" stroke="black" points="652.74,-1716.34 646.151,-1708.04 646.128,-1718.64 652.74,-1716.34"/>
</g>
<!-- \\DisplayNumberHelper -->
<g id="node34" class="node"><title>\\DisplayNumberHelper</title>
<polygon fill="none" stroke="black" points="1005,-2086 861,-2086 861,-2050 1005,-2050 1005,-2086"/>
<text text-anchor="middle" x="933" y="-2065.1" font-family="Courier,monospace" font-size="11.00">DisplayNumberHelper</text>
</g>
<!-- \\DisplayNumberHelper&#45;&gt;\\AppHelper -->
<g id="edge55" class="edge"><title>\\DisplayNumberHelper&#45;&gt;\\AppHelper</title>
<path fill="none" stroke="black" d="M860.464,-2057.08C849.533,-2053.23 838.943,-2048.02 830,-2041 719.54,-1954.29 664.898,-1784.9 646.922,-1718.07"/>
<polygon fill="none" stroke="black" points="650.271,-1717.04 644.349,-1708.26 643.499,-1718.82 650.271,-1717.04"/>
</g>
<!-- \\MessageFlashHelper -->
<g id="node35" class="node"><title>\\MessageFlashHelper</title>
<polygon fill="none" stroke="black" points="1002,-2032 864,-2032 864,-1996 1002,-1996 1002,-2032"/>
<text text-anchor="middle" x="933" y="-2011.1" font-family="Courier,monospace" font-size="11.00">MessageFlashHelper</text>
</g>
<!-- \\MessageFlashHelper&#45;&gt;\\AppHelper -->
<g id="edge57" class="edge"><title>\\MessageFlashHelper&#45;&gt;\\AppHelper</title>
<path fill="none" stroke="black" d="M863.849,-2003.5C851.843,-1999.61 840.015,-1994.29 830,-1987 779.522,-1950.27 688.866,-1783.53 654.1,-1717.27"/>
<polygon fill="none" stroke="black" points="657.121,-1715.49 649.388,-1708.25 650.916,-1718.73 657.121,-1715.49"/>
</g>
<!-- \\DateHelper -->
<g id="node36" class="node"><title>\\DateHelper</title>
<polygon fill="none" stroke="black" points="975,-1978 891,-1978 891,-1942 975,-1942 975,-1978"/>
<text text-anchor="middle" x="933" y="-1957.1" font-family="Courier,monospace" font-size="11.00">DateHelper</text>
</g>
<!-- \\DateHelper&#45;&gt;\\AppHelper -->
<g id="edge59" class="edge"><title>\\DateHelper&#45;&gt;\\AppHelper</title>
<path fill="none" stroke="black" d="M890.86,-1955.28C871.138,-1951.55 848.071,-1944.89 830,-1933 744.042,-1876.46 680.094,-1767.93 653.531,-1717.28"/>
<polygon fill="none" stroke="black" points="656.562,-1715.52 648.865,-1708.24 650.341,-1718.73 656.562,-1715.52"/>
</g>
<!-- \\SnsButtonHelper -->
<g id="node37" class="node"><title>\\SnsButtonHelper</title>
<polygon fill="none" stroke="black" points="992,-1816 874,-1816 874,-1780 992,-1780 992,-1816"/>
<text text-anchor="middle" x="933" y="-1795.1" font-family="Courier,monospace" font-size="11.00">SnsButtonHelper</text>
</g>
<!-- \\SnsButtonHelper&#45;&gt;\\AppHelper -->
<g id="edge61" class="edge"><title>\\SnsButtonHelper&#45;&gt;\\AppHelper</title>
<path fill="none" stroke="black" d="M873.73,-1784.05C859.298,-1780.22 843.992,-1775.79 830,-1771 780.27,-1753.98 725.199,-1729.9 687.206,-1712.42"/>
<polygon fill="none" stroke="black" points="688.474,-1709.15 677.929,-1708.12 685.534,-1715.5 688.474,-1709.15"/>
</g>
<!-- \\BackToHelper -->
<g id="node38" class="node"><title>\\BackToHelper</title>
<polygon fill="none" stroke="black" points="982,-1600 884,-1600 884,-1564 982,-1564 982,-1600"/>
<text text-anchor="middle" x="933" y="-1579.1" font-family="Courier,monospace" font-size="11.00">BackToHelper</text>
</g>
<!-- \\BackToHelper&#45;&gt;\\AppHelper -->
<g id="edge63" class="edge"><title>\\BackToHelper&#45;&gt;\\AppHelper</title>
<path fill="none" stroke="black" d="M883.836,-1593.32C866.643,-1597.69 847.316,-1603.08 830,-1609 780.27,-1626.02 725.199,-1650.1 687.206,-1667.58"/>
<polygon fill="none" stroke="black" points="685.534,-1664.5 677.929,-1671.88 688.474,-1670.85 685.534,-1664.5"/>
</g>
<!-- \\NetCommonsHtmlHelper -->
<g id="node39" class="node"><title>\\NetCommonsHtmlHelper</title>
<polygon fill="none" stroke="black" points="1009,-1546 857,-1546 857,-1510 1009,-1510 1009,-1546"/>
<text text-anchor="middle" x="933" y="-1525.1" font-family="Courier,monospace" font-size="11.00">NetCommonsHtmlHelper</text>
</g>
<!-- \\NetCommonsHtmlHelper&#45;&gt;\\AppHelper -->
<g id="edge65" class="edge"><title>\\NetCommonsHtmlHelper&#45;&gt;\\AppHelper</title>
<path fill="none" stroke="black" d="M856.793,-1544.62C847.587,-1547.61 838.458,-1551.05 830,-1555 767.211,-1584.33 703.394,-1634.84 668.029,-1665.06"/>
<polygon fill="none" stroke="black" points="665.369,-1662.74 660.087,-1671.92 669.944,-1668.03 665.369,-1662.74"/>
</g>
<!-- \\ButtonHelper -->
<g id="node40" class="node"><title>\\ButtonHelper</title>
<polygon fill="none" stroke="black" points="982,-790 884,-790 884,-754 982,-754 982,-790"/>
<text text-anchor="middle" x="933" y="-769.1" font-family="Courier,monospace" font-size="11.00">ButtonHelper</text>
</g>
<!-- \\ButtonHelper&#45;&gt;\\FormHelper -->
<g id="edge67" class="edge"><title>\\ButtonHelper&#45;&gt;\\FormHelper</title>
<path fill="none" stroke="black" d="M883.956,-770.443C864.503,-767.253 843.577,-760.139 830,-745 684.8,-583.094 905.726,-420.605 758,-261 748.083,-250.286 734.859,-243.398 720.853,-239.049"/>
<polygon fill="none" stroke="black" points="721.628,-235.634 711.063,-236.429 719.818,-242.396 721.628,-235.634"/>
</g>
<!-- \\ComposerHelper -->
<g id="node41" class="node"><title>\\ComposerHelper</title>
<polygon fill="none" stroke="black" points="988,-1492 878,-1492 878,-1456 988,-1456 988,-1492"/>
<text text-anchor="middle" x="933" y="-1471.1" font-family="Courier,monospace" font-size="11.00">ComposerHelper</text>
</g>
<!-- \\ComposerHelper&#45;&gt;\\AppHelper -->
<g id="edge69" class="edge"><title>\\ComposerHelper&#45;&gt;\\AppHelper</title>
<path fill="none" stroke="black" d="M877.457,-1482.92C861.46,-1486.95 844.442,-1492.74 830,-1501 755.721,-1543.49 690.104,-1622.48 659.041,-1663.59"/>
<polygon fill="none" stroke="black" points="656.119,-1661.65 652.946,-1671.76 661.73,-1665.84 656.119,-1661.65"/>
</g>
<!-- \\LinkButtonHelper -->
<g id="node42" class="node"><title>\\LinkButtonHelper</title>
<polygon fill="none" stroke="black" points="995,-736 871,-736 871,-700 995,-700 995,-736"/>
<text text-anchor="middle" x="933" y="-715.1" font-family="Courier,monospace" font-size="11.00">LinkButtonHelper</text>
</g>
<!-- \\LinkButtonHelper&#45;&gt;\\FormHelper -->
<g id="edge71" class="edge"><title>\\LinkButtonHelper&#45;&gt;\\FormHelper</title>
<path fill="none" stroke="black" d="M870.442,-713.412C855.337,-709.395 840.535,-702.534 830,-691 699.318,-547.927 890.914,-402.002 758,-261 747.986,-250.377 734.718,-243.531 720.698,-239.194"/>
<polygon fill="none" stroke="black" points="721.468,-235.777 710.904,-236.577 719.661,-242.54 721.468,-235.777"/>
</g>
<!-- \\NetCommonsTimeHelper -->
<g id="node43" class="node"><title>\\NetCommonsTimeHelper</title>
<polygon fill="none" stroke="black" points="1009,-1438 857,-1438 857,-1402 1009,-1402 1009,-1438"/>
<text text-anchor="middle" x="933" y="-1417.1" font-family="Courier,monospace" font-size="11.00">NetCommonsTimeHelper</text>
</g>
<!-- \\NetCommonsTimeHelper&#45;&gt;\\AppHelper -->
<g id="edge73" class="edge"><title>\\NetCommonsTimeHelper&#45;&gt;\\AppHelper</title>
<path fill="none" stroke="black" d="M856.858,-1433.85C847.397,-1437.3 838.186,-1441.62 830,-1447 744.042,-1503.54 680.094,-1612.07 653.531,-1662.72"/>
<polygon fill="none" stroke="black" points="650.341,-1661.27 648.865,-1671.76 656.562,-1664.48 650.341,-1661.27"/>
</g>
<!-- \\NetCommonsFormHelper -->
<g id="node44" class="node"><title>\\NetCommonsFormHelper</title>
<polygon fill="none" stroke="black" points="1009,-1384 857,-1384 857,-1348 1009,-1348 1009,-1384"/>
<text text-anchor="middle" x="933" y="-1363.1" font-family="Courier,monospace" font-size="11.00">NetCommonsFormHelper</text>
</g>
<!-- \\NetCommonsFormHelper&#45;&gt;\\AppHelper -->
<g id="edge75" class="edge"><title>\\NetCommonsFormHelper&#45;&gt;\\AppHelper</title>
<path fill="none" stroke="black" d="M856.893,-1378.93C847.321,-1382.53 838.072,-1387.13 830,-1393 779.522,-1429.73 688.866,-1596.47 654.1,-1662.73"/>
<polygon fill="none" stroke="black" points="650.916,-1661.27 649.388,-1671.75 657.121,-1664.51 650.916,-1661.27"/>
</g>
<!-- \\TitleIconHelper -->
<g id="node45" class="node"><title>\\TitleIconHelper</title>
<polygon fill="none" stroke="black" points="992,-1330 874,-1330 874,-1294 992,-1294 992,-1330"/>
<text text-anchor="middle" x="933" y="-1309.1" font-family="Courier,monospace" font-size="11.00">TitleIconHelper</text>
</g>
<!-- \\TitleIconHelper&#45;&gt;\\AppHelper -->
<g id="edge77" class="edge"><title>\\TitleIconHelper&#45;&gt;\\AppHelper</title>
<path fill="none" stroke="black" d="M873.874,-1318.85C858.416,-1322.84 842.578,-1329.13 830,-1339 719.54,-1425.71 664.898,-1595.1 646.922,-1661.93"/>
<polygon fill="none" stroke="black" points="643.499,-1661.18 644.349,-1671.74 650.271,-1662.96 643.499,-1661.18"/>
</g>
<!-- \\DatetimePickerHelper -->
<g id="node46" class="node"><title>\\DatetimePickerHelper</title>
<polygon fill="none" stroke="black" points="1009,-2248 857,-2248 857,-2212 1009,-2212 1009,-2248"/>
<text text-anchor="middle" x="933" y="-2227.1" font-family="Courier,monospace" font-size="11.00">DatetimePickerHelper</text>
</g>
<!-- \\DatetimePickerHelper&#45;&gt;\\AppHelper -->
<g id="edge79" class="edge"><title>\\DatetimePickerHelper&#45;&gt;\\AppHelper</title>
<path fill="none" stroke="black" d="M856.869,-2219.22C847.021,-2215.31 837.702,-2210.06 830,-2203 760.028,-2138.9 790.785,-2091.05 758,-2002 719.278,-1896.83 671.666,-1772.37 650.734,-1717.88"/>
<polygon fill="none" stroke="black" points="653.884,-1716.32 647.029,-1708.24 647.35,-1718.83 653.884,-1716.32"/>
</g>
<!-- \\Model -->
<g id="node103" class="node"><title>\\Model</title>
<ellipse fill="none" stroke="black" cx="82" cy="-2338" rx="43.8406" ry="18.3848"/>
<text text-anchor="middle" x="82" y="-2334.4" font-family="Times Roman,serif" font-size="14.00" fill="gray">\Model</text>
</g>
<!-- \\NetCommonsAppModel&#45;&gt;\\Model -->
<g id="edge81" class="edge"><title>\\NetCommonsAppModel&#45;&gt;\\Model</title>
<path fill="none" stroke="black" d="M273.742,-2338C230.675,-2338 176.099,-2338 136.195,-2338"/>
<polygon fill="none" stroke="black" points="136.125,-2334.5 126.125,-2338 136.125,-2341.5 136.125,-2334.5"/>
</g>
<!-- \\OriginalKeyBehavior -->
<g id="node48" class="node"><title>\\OriginalKeyBehavior</title>
<polygon fill="none" stroke="black" points="1005,-520 861,-520 861,-484 1005,-484 1005,-520"/>
<text text-anchor="middle" x="933" y="-499.1" font-family="Courier,monospace" font-size="11.00">OriginalKeyBehavior</text>
</g>
<!-- \\ModelBehavior -->
<g id="node105" class="node"><title>\\ModelBehavior</title>
<ellipse fill="none" stroke="black" cx="640" cy="-126" rx="86.9741" ry="18.3848"/>
<text text-anchor="middle" x="640" y="-122.4" font-family="Times Roman,serif" font-size="14.00" fill="gray">\ModelBehavior</text>
</g>
<!-- \\OriginalKeyBehavior&#45;&gt;\\ModelBehavior -->
<g id="edge83" class="edge"><title>\\OriginalKeyBehavior&#45;&gt;\\ModelBehavior</title>
<path fill="none" stroke="black" d="M860.477,-493.783C849.086,-489.648 838.341,-483.65 830,-475 728.21,-369.437 861.436,-256.95 758,-153 750.53,-145.493 741.428,-139.895 731.627,-135.745"/>
<polygon fill="none" stroke="black" points="732.638,-132.388 722.045,-132.196 730.207,-138.952 732.638,-132.388"/>
</g>
<!-- \\TrackableBehavior -->
<g id="node49" class="node"><title>\\TrackableBehavior</title>
<polygon fill="none" stroke="black" points="998,-574 868,-574 868,-538 998,-538 998,-574"/>
<text text-anchor="middle" x="933" y="-553.1" font-family="Courier,monospace" font-size="11.00">TrackableBehavior</text>
</g>
<!-- \\TrackableBehavior&#45;&gt;\\ModelBehavior -->
<g id="edge85" class="edge"><title>\\TrackableBehavior&#45;&gt;\\ModelBehavior</title>
<path fill="none" stroke="black" d="M867.409,-550.347C853.429,-546.238 839.911,-539.6 830,-529 713.795,-404.716 876.143,-275.443 758,-153 750.646,-145.379 741.615,-139.712 731.852,-135.525"/>
<polygon fill="none" stroke="black" points="732.89,-132.176 722.298,-131.949 730.436,-138.732 732.89,-132.176"/>
</g>
<!-- \\YAExceptionRenderer -->
<g id="node50" class="node"><title>\\YAExceptionRenderer</title>
<polygon fill="none" stroke="black" points="1005,-466 861,-466 861,-430 1005,-430 1005,-466"/>
<text text-anchor="middle" x="933" y="-445.1" font-family="Courier,monospace" font-size="11.00">YAExceptionRenderer</text>
</g>
<!-- \\ExceptionRenderer -->
<g id="node108" class="node"><title>\\ExceptionRenderer</title>
<ellipse fill="none" stroke="black" cx="640" cy="-72" rx="118.087" ry="18.3848"/>
<text text-anchor="middle" x="640" y="-68.4" font-family="Times Roman,serif" font-size="14.00" fill="gray">TEHxceptionRenderer</text>
</g>
<!-- \\YAExceptionRenderer&#45;&gt;\\ExceptionRenderer -->
<g id="edge87" class="edge"><title>\\YAExceptionRenderer&#45;&gt;\\ExceptionRenderer</title>
<path fill="none" stroke="black" d="M860.477,-439.783C849.086,-435.648 838.341,-429.65 830,-421 728.21,-315.437 861.436,-202.95 758,-99 753.632,-94.61 748.706,-90.873 743.408,-87.6967"/>
<polygon fill="none" stroke="black" points="744.657,-84.4002 734.174,-82.8643 741.411,-90.6022 744.657,-84.4002"/>
</g>
<!-- \\NetCommonsMigration -->
<g id="node51" class="node"><title>\\NetCommonsMigration</title>
<polygon fill="none" stroke="black" points="1005,-412 861,-412 861,-376 1005,-376 1005,-412"/>
<text text-anchor="middle" x="933" y="-391.1" font-family="Courier,monospace" font-size="11.00">NetCommonsMigration</text>
</g>
<!-- \\CakeMigration -->
<g id="node110" class="node"><title>\\CakeMigration</title>
<ellipse fill="none" stroke="black" cx="640" cy="-18" rx="84.8528" ry="18.3848"/>
<text text-anchor="middle" x="640" y="-14.4" font-family="Times Roman,serif" font-size="14.00" fill="gray">\CakeMigration</text>
</g>
<!-- \\NetCommonsMigration&#45;&gt;\\CakeMigration -->
<g id="edge89" class="edge"><title>\\NetCommonsMigration&#45;&gt;\\CakeMigration</title>
<path fill="none" stroke="black" d="M929.544,-375.725C917.514,-317.407 871.834,-134.35 758,-45 748.922,-37.8745 738.309,-32.5637 727.237,-28.6167"/>
<polygon fill="none" stroke="black" points="728.007,-25.1887 717.416,-25.488 725.882,-31.8584 728.007,-25.1887"/>
</g>
<!-- \\VisualCaptchaAppController -->
<g id="node52" class="node"><title>\\VisualCaptchaAppController</title>
<polygon fill="none" stroke="black" points="736,-2047 544,-2047 544,-2011 736,-2011 736,-2047"/>
<text text-anchor="middle" x="640" y="-2026.1" font-family="Courier,monospace" font-size="11.00">VisualCaptchaAppController</text>
</g>
<!-- \\VisualCaptchaAppController&#45;&gt;\\AppController -->
<g id="edge91" class="edge"><title>\\VisualCaptchaAppController&#45;&gt;\\AppController</title>
<path fill="none" stroke="black" d="M629.43,-2010.85C584.823,-1934.25 411.827,-1637.19 358.644,-1545.86"/>
<polygon fill="none" stroke="black" points="361.655,-1544.08 353.598,-1537.2 355.606,-1547.6 361.655,-1544.08"/>
</g>
<!-- \\VisualCaptchaController -->
<g id="node53" class="node"><title>\\VisualCaptchaController</title>
<polygon fill="none" stroke="black" points="1019,-2302 847,-2302 847,-2266 1019,-2266 1019,-2302"/>
<text text-anchor="middle" x="933" y="-2281.1" font-family="Courier,monospace" font-size="11.00">VisualCaptchaController</text>
</g>
<!-- \\VisualCaptchaController&#45;&gt;\\VisualCaptchaAppController -->
<g id="edge93" class="edge"><title>\\VisualCaptchaController&#45;&gt;\\VisualCaptchaAppController</title>
<path fill="none" stroke="black" d="M846.935,-2265.91C841.017,-2263.32 835.304,-2260.37 830,-2257 747.243,-2204.4 682.526,-2104 654.763,-2055.94"/>
<polygon fill="none" stroke="black" points="657.696,-2054.02 649.708,-2047.06 651.611,-2057.48 657.696,-2054.02"/>
</g>
<!-- \\VisualCaptchaComponent -->
<g id="node54" class="node"><title>\\VisualCaptchaComponent</title>
<polygon fill="none" stroke="black" points="1015,-1060 851,-1060 851,-1024 1015,-1024 1015,-1060"/>
<text text-anchor="middle" x="933" y="-1039.1" font-family="Courier,monospace" font-size="11.00">VisualCaptchaComponent</text>
</g>
<!-- \\VisualCaptchaComponent&#45;&gt;\\Component -->
<g id="edge95" class="edge"><title>\\VisualCaptchaComponent&#45;&gt;\\Component</title>
<path fill="none" stroke="black" d="M850.445,-1030.59C842.703,-1026.68 835.653,-1021.6 830,-1015 626.502,-777.507 965.204,-549.266 758,-315 748.271,-304.001 735.062,-296.994 720.998,-292.62"/>
<polygon fill="none" stroke="black" points="721.72,-289.191 711.156,-289.996 719.917,-295.955 721.72,-289.191"/>
</g>
</g>
</svg>
