<?xml version="1.0" encoding="UTF-8" standalone="no"?>
<!DOCTYPE svg PUBLIC "-//W3C//DTD SVG 1.1//EN"
 "http://www.w3.org/Graphics/SVG/1.1/DTD/svg11.dtd">
<!-- Generated by graphviz version 2.26.3 (20100126.1600)
 -->
<!-- Title: G Pages: 1 -->
<svg width="1220pt" height="3036pt"
 viewBox="0.00 0.00 1220.00 3035.60" xmlns="http://www.w3.org/2000/svg" xmlns:xlink="http://www.w3.org/1999/xlink">
<g id="graph1" class="graph" transform="scale(1 1) rotate(0) translate(4 3031.6)">
<title>G</title>
<polygon fill="white" stroke="white" points="-4,5 -4,-3031.6 1217,-3031.6 1217,5 -4,5"/>
<g id="graph2" class="cluster"><title>cluster_Global</title>
<polyline fill="none" stroke="gray" points="177,-407.599 1192,-407.599 "/>
<path fill="none" stroke="gray" d="M1192,-407.599C1198,-407.599 1204,-413.599 1204,-419.599"/>
<polyline fill="none" stroke="gray" points="1204,-419.599 1204,-3007.6 "/>
<path fill="none" stroke="gray" d="M1204,-3007.6C1204,-3013.6 1198,-3019.6 1192,-3019.6"/>
<polyline fill="none" stroke="gray" points="1192,-3019.6 177,-3019.6 "/>
<path fill="none" stroke="gray" d="M177,-3019.6C171,-3019.6 165,-3013.6 165,-3007.6"/>
<polyline fill="none" stroke="gray" points="165,-3007.6 165,-419.599 "/>
<path fill="none" stroke="gray" d="M165,-419.599C165,-413.599 171,-407.599 177,-407.599"/>
<text text-anchor="middle" x="684.5" y="-3005.7" font-family="Times Roman,serif" font-size="11.00" fill="gray">Global</text>
</g>
<!-- \\AppController -->
<g id="node2" class="node"><title>\\AppController</title>
<polygon fill="none" stroke="black" points="555,-1505.6 451,-1505.6 451,-1469.6 555,-1469.6 555,-1505.6"/>
<text text-anchor="middle" x="503" y="-1484.7" font-family="Courier,monospace" font-size="11.00">AppController</text>
</g>
<!-- \\Controller -->
<g id="node66" class="node"><title>\\Controller</title>
<ellipse fill="none" stroke="black" cx="242" cy="-304.599" rx="63.1385" ry="18.3848"/>
<text text-anchor="middle" x="242" y="-300.999" font-family="Times Roman,serif" font-size="14.00" fill="gray">\Controller</text>
</g>
<!-- \\AppController&#45;&gt;\\Controller -->
<g id="edge3" class="edge"><title>\\AppController&#45;&gt;\\Controller</title>
<path fill="none" stroke="black" d="M450.826,-1489.56C430.791,-1487.43 409.512,-1481.12 396,-1465.6 233.541,-1279.01 452.043,-566.295 324,-354.599 316.077,-341.5 303.29,-331.366 290.147,-323.754"/>
<polygon fill="none" stroke="black" points="291.514,-320.516 281.046,-318.882 288.21,-326.688 291.514,-320.516"/>
</g>
<!-- \\AppModel -->
<g id="node3" class="node"><title>\\AppModel</title>
<polygon fill="none" stroke="black" points="538,-2908.6 468,-2908.6 468,-2872.6 538,-2872.6 538,-2908.6"/>
<text text-anchor="middle" x="503" y="-2887.7" font-family="Courier,monospace" font-size="11.00">AppModel</text>
</g>
<!-- \\NetCommonsAppModel -->
<g id="node47" class="node"><title>\\NetCommonsAppModel</title>
<polygon fill="none" stroke="black" points="311,-2908.6 173,-2908.6 173,-2872.6 311,-2872.6 311,-2908.6"/>
<text text-anchor="middle" x="242" y="-2887.7" font-family="Courier,monospace" font-size="11.00">NetCommonsAppModel</text>
</g>
<!-- \\AppModel&#45;&gt;\\NetCommonsAppModel -->
<g id="edge5" class="edge"><title>\\AppModel&#45;&gt;\\NetCommonsAppModel</title>
<path fill="none" stroke="black" d="M467.256,-2890.6C429.848,-2890.6 369.903,-2890.6 321.254,-2890.6"/>
<polygon fill="none" stroke="black" points="321.056,-2887.1 311.056,-2890.6 321.056,-2894.1 321.056,-2887.1"/>
</g>
<!-- \\DatabaseConfiguration -->
<g id="node4" class="node"><title>\\DatabaseConfiguration</title>
<polygon fill="none" stroke="black" points="879,-2881.6 721,-2881.6 721,-2845.6 879,-2845.6 879,-2881.6"/>
<text text-anchor="middle" x="800" y="-2860.7" font-family="Courier,monospace" font-size="11.00">DatabaseConfiguration</text>
</g>
<!-- \\DatabaseConfiguration&#45;&gt;\\AppModel -->
<g id="edge7" class="edge"><title>\\DatabaseConfiguration&#45;&gt;\\AppModel</title>
<path fill="none" stroke="black" d="M720.8,-2870.8C665.959,-2875.78 594.863,-2882.25 549.084,-2886.41"/>
<polygon fill="none" stroke="black" points="548.509,-2882.95 538.867,-2887.34 549.143,-2889.92 548.509,-2882.95"/>
</g>
<!-- \\AppHelper -->
<g id="node5" class="node"><title>\\AppHelper</title>
<polygon fill="none" stroke="black" points="838,-1774.6 762,-1774.6 762,-1738.6 838,-1738.6 838,-1774.6"/>
<text text-anchor="middle" x="800" y="-1753.7" font-family="Courier,monospace" font-size="11.00">AppHelper</text>
</g>
<!-- \\Helper -->
<g id="node70" class="node"><title>\\Helper</title>
<ellipse fill="none" stroke="black" cx="503" cy="-381.599" rx="43.8406" ry="18.3848"/>
<text text-anchor="middle" x="503" y="-377.999" font-family="Times Roman,serif" font-size="14.00" fill="gray">Helper</text>
</g>
<!-- \\AppHelper&#45;&gt;\\Helper -->
<g id="edge9" class="edge"><title>\\AppHelper&#45;&gt;\\Helper</title>
<path fill="none" stroke="black" d="M792.707,-1738.49C771.404,-1684.71 709.067,-1520.76 682,-1378.6 661.682,-1271.89 681.698,-485.205 610,-403.599 596.782,-388.555 576.264,-382.179 556.717,-379.879"/>
<polygon fill="none" stroke="black" points="556.887,-376.381 546.627,-379.024 556.295,-383.356 556.887,-376.381"/>
</g>
<!-- \\NetCommonsDeleteTest -->
<g id="node6" class="node"><title>\\NetCommonsDeleteTest</title>
<polygon fill="none" stroke="black" points="1169,-2773.6 1017,-2773.6 1017,-2737.6 1169,-2737.6 1169,-2773.6"/>
<text text-anchor="middle" x="1093" y="-2752.7" font-family="Courier,monospace" font-size="11.00">NetCommonsDeleteTest</text>
</g>
<!-- \\NetCommonsModelTestCase -->
<g id="node15" class="node"><title>\\NetCommonsModelTestCase</title>
<polygon fill="none" stroke="black" points="886,-2719.6 714,-2719.6 714,-2683.6 886,-2683.6 886,-2719.6"/>
<text text-anchor="middle" x="800" y="-2698.7" font-family="Courier,monospace" font-size="11.00">NetCommonsModelTestCase</text>
</g>
<!-- \\NetCommonsDeleteTest&#45;&gt;\\NetCommonsModelTestCase -->
<g id="edge11" class="edge"><title>\\NetCommonsDeleteTest&#45;&gt;\\NetCommonsModelTestCase</title>
<path fill="none" stroke="black" d="M1016.78,-2741.55C979.893,-2734.75 935.211,-2726.52 896.02,-2719.3"/>
<polygon fill="none" stroke="black" points="896.652,-2715.85 886.183,-2717.48 895.383,-2722.74 896.652,-2715.85"/>
</g>
<!-- \\NetCommonsConsoleTestCase -->
<g id="node7" class="node"><title>\\NetCommonsConsoleTestCase</title>
<polygon fill="none" stroke="black" points="892,-2827.6 708,-2827.6 708,-2791.6 892,-2791.6 892,-2827.6"/>
<text text-anchor="middle" x="800" y="-2806.7" font-family="Courier,monospace" font-size="11.00">NetCommonsConsoleTestCase</text>
</g>
<!-- \\NetCommonsCakeTestCase -->
<g id="node13" class="node"><title>\\NetCommonsCakeTestCase</title>
<polygon fill="none" stroke="black" points="585,-2746.6 421,-2746.6 421,-2710.6 585,-2710.6 585,-2746.6"/>
<text text-anchor="middle" x="503" y="-2725.7" font-family="Courier,monospace" font-size="11.00">NetCommonsCakeTestCase</text>
</g>
<!-- \\NetCommonsConsoleTestCase&#45;&gt;\\NetCommonsCakeTestCase -->
<g id="edge13" class="edge"><title>\\NetCommonsConsoleTestCase&#45;&gt;\\NetCommonsCakeTestCase</title>
<path fill="none" stroke="black" d="M717.936,-2791.58C705.852,-2788.71 693.579,-2785.67 682,-2782.6 644.303,-2772.61 602.565,-2760.11 568.882,-2749.65"/>
<polygon fill="none" stroke="black" points="569.742,-2746.25 559.154,-2746.61 567.658,-2752.93 569.742,-2746.25"/>
</g>
<!-- \\NetCommonsGetTest -->
<g id="node8" class="node"><title>\\NetCommonsGetTest</title>
<polygon fill="none" stroke="black" points="1158,-2719.6 1028,-2719.6 1028,-2683.6 1158,-2683.6 1158,-2719.6"/>
<text text-anchor="middle" x="1093" y="-2698.7" font-family="Courier,monospace" font-size="11.00">NetCommonsGetTest</text>
</g>
<!-- \\NetCommonsGetTest&#45;&gt;\\NetCommonsModelTestCase -->
<g id="edge15" class="edge"><title>\\NetCommonsGetTest&#45;&gt;\\NetCommonsModelTestCase</title>
<path fill="none" stroke="black" d="M1027.25,-2701.6C988.664,-2701.6 939.217,-2701.6 896.305,-2701.6"/>
<polygon fill="none" stroke="black" points="896.12,-2698.1 886.12,-2701.6 896.12,-2705.1 896.12,-2698.1"/>
</g>
<!-- \\NetCommonsHelperTestCase -->
<g id="node9" class="node"><title>\\NetCommonsHelperTestCase</title>
<polygon fill="none" stroke="black" points="889,-2773.6 711,-2773.6 711,-2737.6 889,-2737.6 889,-2773.6"/>
<text text-anchor="middle" x="800" y="-2752.7" font-family="Courier,monospace" font-size="11.00">NetCommonsHelperTestCase</text>
</g>
<!-- \\NetCommonsHelperTestCase&#45;&gt;\\NetCommonsCakeTestCase -->
<g id="edge17" class="edge"><title>\\NetCommonsHelperTestCase&#45;&gt;\\NetCommonsCakeTestCase</title>
<path fill="none" stroke="black" d="M710.487,-2747.46C674.267,-2744.17 632.456,-2740.37 595.9,-2737.04"/>
<polygon fill="none" stroke="black" points="596.013,-2733.54 585.737,-2736.12 595.379,-2740.51 596.013,-2733.54"/>
</g>
<!-- \\NetCommonsControllerBaseTestCase -->
<g id="node10" class="node"><title>\\NetCommonsControllerBaseTestCase</title>
<polygon fill="none" stroke="black" points="916,-1369.6 684,-1369.6 684,-1333.6 916,-1333.6 916,-1369.6"/>
<text text-anchor="middle" x="800" y="-1348.7" font-family="Courier,monospace" font-size="11.00">NetCommonsControllerBaseTestCase</text>
</g>
<!-- \\ControllerTestCase -->
<g id="node76" class="node"><title>\\ControllerTestCase</title>
<ellipse fill="none" stroke="black" cx="503" cy="-327.599" rx="106.773" ry="18.3848"/>
<text text-anchor="middle" x="503" y="-323.999" font-family="Times Roman,serif" font-size="14.00" fill="gray">\ControllerTestCase</text>
</g>
<!-- \\NetCommonsControllerBaseTestCase&#45;&gt;\\ControllerTestCase -->
<g id="edge19" class="edge"><title>\\NetCommonsControllerBaseTestCase&#45;&gt;\\ControllerTestCase</title>
<path fill="none" stroke="black" d="M729.203,-1333.5C711.026,-1325.45 693.404,-1313.95 682,-1297.6 561.791,-1125.21 745.378,-515.355 610,-354.599 606.375,-350.295 602.173,-346.622 597.574,-343.494"/>
<polygon fill="none" stroke="black" points="599.307,-340.453 588.906,-338.431 595.776,-346.497 599.307,-340.453"/>
</g>
<!-- \\NetCommonsValidateTest -->
<g id="node11" class="node"><title>\\NetCommonsValidateTest</title>
<polygon fill="none" stroke="black" points="1175,-2665.6 1011,-2665.6 1011,-2629.6 1175,-2629.6 1175,-2665.6"/>
<text text-anchor="middle" x="1093" y="-2644.7" font-family="Courier,monospace" font-size="11.00">NetCommonsValidateTest</text>
</g>
<!-- \\NetCommonsValidateTest&#45;&gt;\\NetCommonsModelTestCase -->
<g id="edge21" class="edge"><title>\\NetCommonsValidateTest&#45;&gt;\\NetCommonsModelTestCase</title>
<path fill="none" stroke="black" d="M1010.21,-2662.86C974.791,-2669.39 933.196,-2677.05 896.397,-2683.83"/>
<polygon fill="none" stroke="black" points="895.354,-2680.47 886.154,-2685.72 896.623,-2687.35 895.354,-2680.47"/>
</g>
<!-- \\NetCommonsTestSuite -->
<g id="node12" class="node"><title>\\NetCommonsTestSuite</title>
<polygon fill="none" stroke="black" points="1165,-1153.6 1021,-1153.6 1021,-1117.6 1165,-1117.6 1165,-1153.6"/>
<text text-anchor="middle" x="1093" y="-1132.7" font-family="Courier,monospace" font-size="11.00">NetCommonsTestSuite</text>
</g>
<!-- \\CakeTestSuite -->
<g id="node79" class="node"><title>\\CakeTestSuite</title>
<ellipse fill="none" stroke="black" cx="800" cy="-381.599" rx="84.1457" ry="18.3848"/>
<text text-anchor="middle" x="800" y="-377.999" font-family="Times Roman,serif" font-size="14.00" fill="gray">\CakeTestSuite</text>
</g>
<!-- \\NetCommonsTestSuite&#45;&gt;\\CakeTestSuite -->
<g id="edge23" class="edge"><title>\\NetCommonsTestSuite&#45;&gt;\\CakeTestSuite</title>
<path fill="none" stroke="black" d="M1020.38,-1128.47C1008.79,-1124.25 997.995,-1117.94 990,-1108.6 887.575,-988.977 1024.67,-519.456 918,-403.599 911.119,-396.126 902.58,-390.7 893.263,-386.815"/>
<polygon fill="none" stroke="black" points="894.315,-383.474 883.72,-383.423 891.97,-390.07 894.315,-383.474"/>
</g>
<!-- \\CakeTestCase -->
<g id="node81" class="node"><title>\\CakeTestCase</title>
<ellipse fill="none" stroke="black" cx="242" cy="-381.599" rx="82.0244" ry="18.3848"/>
<text text-anchor="middle" x="242" y="-377.999" font-family="Times Roman,serif" font-size="14.00" fill="gray">\CakeTestCase</text>
</g>
<!-- \\NetCommonsCakeTestCase&#45;&gt;\\CakeTestCase -->
<g id="edge25" class="edge"><title>\\NetCommonsCakeTestCase&#45;&gt;\\CakeTestCase</title>
<path fill="none" stroke="black" d="M501.239,-2710.43C490.523,-2599.54 433.303,-2002.46 396,-1514.6 386.569,-1391.26 402.426,-499.265 324,-403.599 322.283,-401.505 320.39,-399.598 318.355,-397.862"/>
<polygon fill="none" stroke="black" points="320.087,-394.804 309.875,-391.981 316.098,-400.556 320.087,-394.804"/>
</g>
<!-- \\NetCommonsSaveTest -->
<g id="node14" class="node"><title>\\NetCommonsSaveTest</title>
<polygon fill="none" stroke="black" points="1162,-2827.6 1024,-2827.6 1024,-2791.6 1162,-2791.6 1162,-2827.6"/>
<text text-anchor="middle" x="1093" y="-2806.7" font-family="Courier,monospace" font-size="11.00">NetCommonsSaveTest</text>
</g>
<!-- \\NetCommonsSaveTest&#45;&gt;\\NetCommonsModelTestCase -->
<g id="edge27" class="edge"><title>\\NetCommonsSaveTest&#45;&gt;\\NetCommonsModelTestCase</title>
<path fill="none" stroke="black" d="M1023.8,-2795.42C1012.23,-2791.94 1000.57,-2787.7 990,-2782.6 953.981,-2765.2 954.288,-2745.43 918,-2728.6 910.962,-2725.34 903.501,-2722.45 895.884,-2719.91"/>
<polygon fill="none" stroke="black" points="896.762,-2716.51 886.173,-2716.86 894.666,-2723.19 896.762,-2716.51"/>
</g>
<!-- \\NetCommonsModelTestCase&#45;&gt;\\NetCommonsCakeTestCase -->
<g id="edge29" class="edge"><title>\\NetCommonsModelTestCase&#45;&gt;\\NetCommonsCakeTestCase</title>
<path fill="none" stroke="black" d="M713.696,-2709.45C676.671,-2712.81 633.35,-2716.75 595.65,-2720.18"/>
<polygon fill="none" stroke="black" points="595.328,-2716.69 585.686,-2721.08 595.962,-2723.66 595.328,-2716.69"/>
</g>
<!-- \\NetCommonsControllerTestCase -->
<g id="node16" class="node"><title>\\NetCommonsControllerTestCase</title>
<polygon fill="none" stroke="black" points="1196,-1369.6 990,-1369.6 990,-1333.6 1196,-1333.6 1196,-1369.6"/>
<text text-anchor="middle" x="1093" y="-1348.7" font-family="Courier,monospace" font-size="11.00">NetCommonsControllerTestCase</text>
</g>
<!-- \\NetCommonsControllerTestCase&#45;&gt;\\NetCommonsControllerBaseTestCase -->
<g id="edge31" class="edge"><title>\\NetCommonsControllerTestCase&#45;&gt;\\NetCommonsControllerBaseTestCase</title>
<path fill="none" stroke="black" d="M989.699,-1351.6C969.381,-1351.6 947.845,-1351.6 926.858,-1351.6"/>
<polygon fill="none" stroke="black" points="926.606,-1348.1 916.606,-1351.6 926.606,-1355.1 926.606,-1348.1"/>
</g>
<!-- \\NetCommonsAppController -->
<g id="node17" class="node"><title>\\NetCommonsAppController</title>
<polygon fill="none" stroke="black" points="886,-1288.6 714,-1288.6 714,-1252.6 886,-1252.6 886,-1288.6"/>
<text text-anchor="middle" x="800" y="-1267.7" font-family="Courier,monospace" font-size="11.00">NetCommonsAppController</text>
</g>
<!-- \\NetCommonsAppController&#45;&gt;\\Controller -->
<g id="edge33" class="edge"><title>\\NetCommonsAppController&#45;&gt;\\Controller</title>
<path fill="none" stroke="black" d="M729.227,-1252.49C711.05,-1244.44 693.423,-1232.94 682,-1216.6 565.025,-1049.24 759.93,-439.207 610,-300.599 522.042,-219.284 365.544,-259.216 288.072,-286.417"/>
<polygon fill="none" stroke="black" points="286.806,-283.153 278.577,-289.827 289.171,-289.742 286.806,-283.153"/>
</g>
<!-- \\AssetComponent -->
<g id="node18" class="node"><title>\\AssetComponent</title>
<polygon fill="none" stroke="black" points="1148,-1045.6 1038,-1045.6 1038,-1009.6 1148,-1009.6 1148,-1045.6"/>
<text text-anchor="middle" x="1093" y="-1024.7" font-family="Courier,monospace" font-size="11.00">AssetComponent</text>
</g>
<!-- \\Component -->
<g id="node87" class="node"><title>\\Component</title>
<ellipse fill="none" stroke="black" cx="800" cy="-327.599" rx="70.9184" ry="18.3848"/>
<text text-anchor="middle" x="800" y="-323.999" font-family="Times Roman,serif" font-size="14.00" fill="gray">\Component</text>
</g>
<!-- \\AssetComponent&#45;&gt;\\Component -->
<g id="edge35" class="edge"><title>\\AssetComponent&#45;&gt;\\Component</title>
<path fill="none" stroke="black" d="M1037.26,-1025.1C1019.72,-1021.48 1001.85,-1014.31 990,-1000.6 801.099,-782.029 1110.31,-570.175 918,-354.599 908.225,-343.641 894.994,-336.654 880.924,-332.286"/>
<polygon fill="none" stroke="black" points="881.644,-328.856 871.08,-329.663 879.842,-335.62 881.644,-328.856"/>
</g>
<!-- \\NetCommonsTimeComponent -->
<g id="node19" class="node"><title>\\NetCommonsTimeComponent</title>
<polygon fill="none" stroke="black" points="1179,-991.599 1007,-991.599 1007,-955.599 1179,-955.599 1179,-991.599"/>
<text text-anchor="middle" x="1093" y="-970.699" font-family="Courier,monospace" font-size="11.00">NetCommonsTimeComponent</text>
</g>
<!-- \\NetCommonsTimeComponent&#45;&gt;\\Component -->
<g id="edge37" class="edge"><title>\\NetCommonsTimeComponent&#45;&gt;\\Component</title>
<path fill="none" stroke="black" d="M1006.66,-959.995C1000.43,-956.433 994.742,-952.03 990,-946.599 815.683,-746.937 1095.43,-551.498 918,-354.599 908.227,-343.754 895.069,-336.806 881.082,-332.44"/>
<polygon fill="none" stroke="black" points="881.864,-329.026 871.298,-329.813 880.049,-335.786 881.864,-329.026"/>
</g>
<!-- \\PermissionComponent -->
<g id="node20" class="node"><title>\\PermissionComponent</title>
<polygon fill="none" stroke="black" points="1165,-937.599 1021,-937.599 1021,-901.599 1165,-901.599 1165,-937.599"/>
<text text-anchor="middle" x="1093" y="-916.699" font-family="Courier,monospace" font-size="11.00">PermissionComponent</text>
</g>
<!-- \\PermissionComponent&#45;&gt;\\Component -->
<g id="edge39" class="edge"><title>\\PermissionComponent&#45;&gt;\\Component</title>
<path fill="none" stroke="black" d="M1020.36,-912.166C1008.84,-907.965 998.079,-901.742 990,-892.599 830.252,-711.827 1080.57,-532.84 918,-354.599 908.162,-343.813 894.974,-336.892 880.979,-332.534"/>
<polygon fill="none" stroke="black" points="881.757,-329.119 871.192,-329.909 879.944,-335.88 881.757,-329.119"/>
</g>
<!-- \\NetCommonsComponent -->
<g id="node21" class="node"><title>\\NetCommonsComponent</title>
<polygon fill="none" stroke="black" points="1165,-1099.6 1021,-1099.6 1021,-1063.6 1165,-1063.6 1165,-1099.6"/>
<text text-anchor="middle" x="1093" y="-1078.7" font-family="Courier,monospace" font-size="11.00">NetCommonsComponent</text>
</g>
<!-- \\NetCommonsComponent&#45;&gt;\\Component -->
<g id="edge41" class="edge"><title>\\NetCommonsComponent&#45;&gt;\\Component</title>
<path fill="none" stroke="black" d="M1020.39,-1074.46C1008.79,-1070.24 997.999,-1063.93 990,-1054.6 786.502,-817.107 1125.2,-588.865 918,-354.599 908.271,-343.6 895.062,-336.594 880.998,-332.22"/>
<polygon fill="none" stroke="black" points="881.72,-328.79 871.156,-329.596 879.917,-335.554 881.72,-328.79"/>
</g>
<!-- \\NetCommonsController -->
<g id="node22" class="node"><title>\\NetCommonsController</title>
<polygon fill="none" stroke="black" points="1169,-1315.6 1017,-1315.6 1017,-1279.6 1169,-1279.6 1169,-1315.6"/>
<text text-anchor="middle" x="1093" y="-1294.7" font-family="Courier,monospace" font-size="11.00">NetCommonsController</text>
</g>
<!-- \\NetCommonsController&#45;&gt;\\NetCommonsAppController -->
<g id="edge43" class="edge"><title>\\NetCommonsController&#45;&gt;\\NetCommonsAppController</title>
<path fill="none" stroke="black" d="M1016.78,-1290.58C980.049,-1287.19 935.59,-1283.09 896.519,-1279.49"/>
<polygon fill="none" stroke="black" points="896.462,-1275.97 886.183,-1278.54 895.82,-1282.94 896.462,-1275.97"/>
</g>
<!-- \\NetCommonsUrl -->
<g id="node23" class="node"><title>\\NetCommonsUrl</title>
<polygon fill="none" stroke="black" points="1145,-2395.6 1041,-2395.6 1041,-2359.6 1145,-2359.6 1145,-2395.6"/>
<text text-anchor="middle" x="1093" y="-2374.7" font-family="Courier,monospace" font-size="11.00">NetCommonsUrl</text>
</g>
<!-- \\NetCommonsTime -->
<g id="node24" class="node"><title>\\NetCommonsTime</title>
<polygon fill="none" stroke="black" points="1148,-2341.6 1038,-2341.6 1038,-2305.6 1148,-2305.6 1148,-2341.6"/>
<text text-anchor="middle" x="1093" y="-2320.7" font-family="Courier,monospace" font-size="11.00">NetCommonsTime</text>
</g>
<!-- \\CurrentBase -->
<g id="node25" class="node"><title>\\CurrentBase</title>
<polygon fill="none" stroke="black" points="845,-2503.6 755,-2503.6 755,-2467.6 845,-2467.6 845,-2503.6"/>
<text text-anchor="middle" x="800" y="-2482.7" font-family="Courier,monospace" font-size="11.00">CurrentBase</text>
</g>
<!-- \\Current -->
<g id="node26" class="node"><title>\\Current</title>
<polygon fill="none" stroke="black" points="1125,-2503.6 1061,-2503.6 1061,-2467.6 1125,-2467.6 1125,-2503.6"/>
<text text-anchor="middle" x="1093" y="-2482.7" font-family="Courier,monospace" font-size="11.00">Current</text>
</g>
<!-- \\Current&#45;&gt;\\CurrentBase -->
<g id="edge45" class="edge"><title>\\Current&#45;&gt;\\CurrentBase</title>
<path fill="none" stroke="black" d="M1060.81,-2485.6C1011.48,-2485.6 916.554,-2485.6 855.846,-2485.6"/>
<polygon fill="none" stroke="black" points="855.669,-2482.1 845.669,-2485.6 855.669,-2489.1 855.669,-2482.1"/>
</g>
<!-- \\CurrentSystem -->
<g id="node27" class="node"><title>\\CurrentSystem</title>
<polygon fill="none" stroke="black" points="1145,-2233.6 1041,-2233.6 1041,-2197.6 1145,-2197.6 1145,-2233.6"/>
<text text-anchor="middle" x="1093" y="-2212.7" font-family="Courier,monospace" font-size="11.00">CurrentSystem</text>
</g>
<!-- \\CurrentPage -->
<g id="node28" class="node"><title>\\CurrentPage</title>
<polygon fill="none" stroke="black" points="1138,-2179.6 1048,-2179.6 1048,-2143.6 1138,-2143.6 1138,-2179.6"/>
<text text-anchor="middle" x="1093" y="-2158.7" font-family="Courier,monospace" font-size="11.00">CurrentPage</text>
</g>
<!-- \\CurrentFrame -->
<g id="node29" class="node"><title>\\CurrentFrame</title>
<polygon fill="none" stroke="black" points="1142,-2125.6 1044,-2125.6 1044,-2089.6 1142,-2089.6 1142,-2125.6"/>
<text text-anchor="middle" x="1093" y="-2104.7" font-family="Courier,monospace" font-size="11.00">CurrentFrame</text>
</g>
<!-- \\TokenHelper -->
<g id="node30" class="node"><title>\\TokenHelper</title>
<polygon fill="none" stroke="black" points="1138,-883.599 1048,-883.599 1048,-847.599 1138,-847.599 1138,-883.599"/>
<text text-anchor="middle" x="1093" y="-862.699" font-family="Courier,monospace" font-size="11.00">TokenHelper</text>
</g>
<!-- \\FormHelper -->
<g id="node94" class="node"><title>\\FormHelper</title>
<ellipse fill="none" stroke="black" cx="800" cy="-273.599" rx="70.9184" ry="18.3848"/>
<text text-anchor="middle" x="800" y="-269.999" font-family="Times Roman,serif" font-size="14.00" fill="gray">\FormHelper</text>
</g>
<!-- \\TokenHelper&#45;&gt;\\FormHelper -->
<g id="edge47" class="edge"><title>\\TokenHelper&#45;&gt;\\FormHelper</title>
<path fill="none" stroke="black" d="M1047.28,-864.661C1026.87,-861.779 1004.26,-854.737 990,-838.599 830.252,-657.827 1080.57,-478.84 918,-300.599 908.162,-289.813 894.974,-282.892 880.979,-278.534"/>
<polygon fill="none" stroke="black" points="881.757,-275.119 871.192,-275.909 879.944,-281.88 881.757,-275.119"/>
</g>
<!-- \\SingletonViewBlockHtmlHelper -->
<g id="node31" class="node"><title>\\SingletonViewBlockHtmlHelper</title>
<polygon fill="none" stroke="black" points="1196,-721.599 990,-721.599 990,-685.599 1196,-685.599 1196,-721.599"/>
<text text-anchor="middle" x="1093" y="-700.699" font-family="Courier,monospace" font-size="11.00">SingletonViewBlockHtmlHelper</text>
</g>
<!-- \\HtmlHelper -->
<g id="node96" class="node"><title>\\HtmlHelper</title>
<ellipse fill="none" stroke="black" cx="800" cy="-219.599" rx="67.1751" ry="18.3848"/>
<text text-anchor="middle" x="800" y="-215.999" font-family="Times Roman,serif" font-size="14.00" fill="gray">HtmlHelper</text>
</g>
<!-- \\SingletonViewBlockHtmlHelper&#45;&gt;\\HtmlHelper -->
<g id="edge49" class="edge"><title>\\SingletonViewBlockHtmlHelper&#45;&gt;\\HtmlHelper</title>
<path fill="none" stroke="black" d="M999.918,-685.338C996.329,-682.774 992.992,-679.875 990,-676.599 859.318,-533.527 1050.91,-387.601 918,-246.599 907.121,-235.058 892.401,-227.975 877.051,-223.725"/>
<polygon fill="none" stroke="black" points="877.444,-220.221 866.906,-221.323 875.83,-227.033 877.444,-220.221"/>
</g>
<!-- \\FormInputHelper -->
<g id="node32" class="node"><title>\\FormInputHelper</title>
<polygon fill="none" stroke="black" points="1152,-1477.6 1034,-1477.6 1034,-1441.6 1152,-1441.6 1152,-1477.6"/>
<text text-anchor="middle" x="1093" y="-1456.7" font-family="Courier,monospace" font-size="11.00">FormInputHelper</text>
</g>
<!-- \\FormInputHelper&#45;&gt;\\AppHelper -->
<g id="edge51" class="edge"><title>\\FormInputHelper&#45;&gt;\\AppHelper</title>
<path fill="none" stroke="black" d="M1033.8,-1467.65C1018.6,-1471.65 1002.91,-1477.64 990,-1486.6 898.034,-1550.46 835.79,-1674.07 811.457,-1729.06"/>
<polygon fill="none" stroke="black" points="808.13,-1727.94 807.356,-1738.5 814.551,-1730.73 808.13,-1727.94"/>
</g>
<!-- \\WizardHelper -->
<g id="node33" class="node"><title>\\WizardHelper</title>
<polygon fill="none" stroke="black" points="1142,-1423.6 1044,-1423.6 1044,-1387.6 1142,-1387.6 1142,-1423.6"/>
<text text-anchor="middle" x="1093" y="-1402.7" font-family="Courier,monospace" font-size="11.00">WizardHelper</text>
</g>
<!-- \\WizardHelper&#45;&gt;\\AppHelper -->
<g id="edge53" class="edge"><title>\\WizardHelper&#45;&gt;\\AppHelper</title>
<path fill="none" stroke="black" d="M1043.92,-1410.46C1025.58,-1414.23 1005.47,-1420.88 990,-1432.6 885.624,-1511.68 828.084,-1666.07 808.129,-1728.95"/>
<polygon fill="none" stroke="black" points="804.764,-1727.99 805.144,-1738.57 811.45,-1730.06 804.764,-1727.99"/>
</g>
<!-- \\DisplayNumberHelper -->
<g id="node34" class="node"><title>\\DisplayNumberHelper</title>
<polygon fill="none" stroke="black" points="1165,-2449.6 1021,-2449.6 1021,-2413.6 1165,-2413.6 1165,-2449.6"/>
<text text-anchor="middle" x="1093" y="-2428.7" font-family="Courier,monospace" font-size="11.00">DisplayNumberHelper</text>
</g>
<!-- \\DisplayNumberHelper&#45;&gt;\\AppHelper -->
<g id="edge55" class="edge"><title>\\DisplayNumberHelper&#45;&gt;\\AppHelper</title>
<path fill="none" stroke="black" d="M1020.41,-2422.73C1009.17,-2418.65 998.486,-2412.84 990,-2404.6 897.138,-2314.38 823.079,-1897.46 804.505,-1784.75"/>
<polygon fill="none" stroke="black" points="807.948,-1784.12 802.881,-1774.82 801.039,-1785.25 807.948,-1784.12"/>
</g>
<!-- \\MessageFlashHelper -->
<g id="node35" class="node"><title>\\MessageFlashHelper</title>
<polygon fill="none" stroke="black" points="1162,-2287.6 1024,-2287.6 1024,-2251.6 1162,-2251.6 1162,-2287.6"/>
<text text-anchor="middle" x="1093" y="-2266.7" font-family="Courier,monospace" font-size="11.00">MessageFlashHelper</text>
</g>
<!-- \\MessageFlashHelper&#45;&gt;\\AppHelper -->
<g id="edge57" class="edge"><title>\\MessageFlashHelper&#45;&gt;\\AppHelper</title>
<path fill="none" stroke="black" d="M1023.93,-2261.09C1011.58,-2257.03 999.597,-2251.14 990,-2242.6 847.368,-2115.66 810.808,-1868.32 802.341,-1784.87"/>
<polygon fill="none" stroke="black" points="805.82,-1784.49 801.383,-1774.87 798.852,-1785.16 805.82,-1784.49"/>
</g>
<!-- \\DateHelper -->
<g id="node36" class="node"><title>\\DateHelper</title>
<polygon fill="none" stroke="black" points="1135,-2071.6 1051,-2071.6 1051,-2035.6 1135,-2035.6 1135,-2071.6"/>
<text text-anchor="middle" x="1093" y="-2050.7" font-family="Courier,monospace" font-size="11.00">DateHelper</text>
</g>
<!-- \\DateHelper&#45;&gt;\\AppHelper -->
<g id="edge59" class="edge"><title>\\DateHelper&#45;&gt;\\AppHelper</title>
<path fill="none" stroke="black" d="M1050.84,-2049.32C1031,-2045.69 1007.84,-2038.99 990,-2026.6 898.034,-1962.74 835.79,-1839.13 811.457,-1784.14"/>
<polygon fill="none" stroke="black" points="814.551,-1782.47 807.356,-1774.7 808.13,-1785.26 814.551,-1782.47"/>
</g>
<!-- \\SnsButtonHelper -->
<g id="node37" class="node"><title>\\SnsButtonHelper</title>
<polygon fill="none" stroke="black" points="1152,-2017.6 1034,-2017.6 1034,-1981.6 1152,-1981.6 1152,-2017.6"/>
<text text-anchor="middle" x="1093" y="-1996.7" font-family="Courier,monospace" font-size="11.00">SnsButtonHelper</text>
</g>
<!-- \\SnsButtonHelper&#45;&gt;\\AppHelper -->
<g id="edge61" class="edge"><title>\\SnsButtonHelper&#45;&gt;\\AppHelper</title>
<path fill="none" stroke="black" d="M1033.89,-1990.46C1018.85,-1986.46 1003.22,-1980.75 990,-1972.6 909.876,-1923.16 844.727,-1829.41 815.946,-1783.41"/>
<polygon fill="none" stroke="black" points="818.75,-1781.29 810.523,-1774.61 812.792,-1784.96 818.75,-1781.29"/>
</g>
<!-- \\BackToHelper -->
<g id="node38" class="node"><title>\\BackToHelper</title>
<polygon fill="none" stroke="black" points="1142,-1963.6 1044,-1963.6 1044,-1927.6 1142,-1927.6 1142,-1963.6"/>
<text text-anchor="middle" x="1093" y="-1942.7" font-family="Courier,monospace" font-size="11.00">BackToHelper</text>
</g>
<!-- \\BackToHelper&#45;&gt;\\AppHelper -->
<g id="edge63" class="edge"><title>\\BackToHelper&#45;&gt;\\AppHelper</title>
<path fill="none" stroke="black" d="M1043.91,-1937.46C1026.27,-1933.33 1006.63,-1927.28 990,-1918.6 921.41,-1882.79 856.097,-1818.15 822.838,-1782.3"/>
<polygon fill="none" stroke="black" points="825.192,-1779.69 815.854,-1774.69 820.033,-1784.42 825.192,-1779.69"/>
</g>
<!-- \\NetCommonsHtmlHelper -->
<g id="node39" class="node"><title>\\NetCommonsHtmlHelper</title>
<polygon fill="none" stroke="black" points="1169,-1909.6 1017,-1909.6 1017,-1873.6 1169,-1873.6 1169,-1909.6"/>
<text text-anchor="middle" x="1093" y="-1888.7" font-family="Courier,monospace" font-size="11.00">NetCommonsHtmlHelper</text>
</g>
<!-- \\NetCommonsHtmlHelper&#45;&gt;\\AppHelper -->
<g id="edge65" class="edge"><title>\\NetCommonsHtmlHelper&#45;&gt;\\AppHelper</title>
<path fill="none" stroke="black" d="M1016.88,-1874.06C1007.71,-1871.24 998.561,-1868.08 990,-1864.6 933.066,-1841.42 872.097,-1804.32 835.004,-1780.21"/>
<polygon fill="none" stroke="black" points="836.839,-1777.23 826.557,-1774.67 833.002,-1783.08 836.839,-1777.23"/>
</g>
<!-- \\ButtonHelper -->
<g id="node40" class="node"><title>\\ButtonHelper</title>
<polygon fill="none" stroke="black" points="1142,-829.599 1044,-829.599 1044,-793.599 1142,-793.599 1142,-829.599"/>
<text text-anchor="middle" x="1093" y="-808.699" font-family="Courier,monospace" font-size="11.00">ButtonHelper</text>
</g>
<!-- \\ButtonHelper&#45;&gt;\\FormHelper -->
<g id="edge67" class="edge"><title>\\ButtonHelper&#45;&gt;\\FormHelper</title>
<path fill="none" stroke="black" d="M1043.96,-810.042C1024.5,-806.852 1003.58,-799.738 990,-784.599 844.8,-622.693 1065.73,-460.204 918,-300.599 908.083,-289.885 894.859,-282.998 880.853,-278.649"/>
<polygon fill="none" stroke="black" points="881.628,-275.233 871.063,-276.028 879.818,-281.995 881.628,-275.233"/>
</g>
<!-- \\ComposerHelper -->
<g id="node41" class="node"><title>\\ComposerHelper</title>
<polygon fill="none" stroke="black" points="1148,-1855.6 1038,-1855.6 1038,-1819.6 1148,-1819.6 1148,-1855.6"/>
<text text-anchor="middle" x="1093" y="-1834.7" font-family="Courier,monospace" font-size="11.00">ComposerHelper</text>
</g>
<!-- \\ComposerHelper&#45;&gt;\\AppHelper -->
<g id="edge69" class="edge"><title>\\ComposerHelper&#45;&gt;\\AppHelper</title>
<path fill="none" stroke="black" d="M1037.35,-1823.24C1021.99,-1819.21 1005.34,-1814.79 990,-1810.6 941.716,-1797.41 886.728,-1781.71 848.375,-1770.64"/>
<polygon fill="none" stroke="black" points="849.087,-1767.21 838.508,-1767.79 847.145,-1773.93 849.087,-1767.21"/>
</g>
<!-- \\LinkButtonHelper -->
<g id="node42" class="node"><title>\\LinkButtonHelper</title>
<polygon fill="none" stroke="black" points="1155,-775.599 1031,-775.599 1031,-739.599 1155,-739.599 1155,-775.599"/>
<text text-anchor="middle" x="1093" y="-754.699" font-family="Courier,monospace" font-size="11.00">LinkButtonHelper</text>
</g>
<!-- \\LinkButtonHelper&#45;&gt;\\FormHelper -->
<g id="edge71" class="edge"><title>\\LinkButtonHelper&#45;&gt;\\FormHelper</title>
<path fill="none" stroke="black" d="M1030.44,-753.011C1015.34,-748.994 1000.53,-742.133 990,-730.599 859.318,-587.527 1050.91,-441.601 918,-300.599 907.986,-289.976 894.718,-283.13 880.698,-278.793"/>
<polygon fill="none" stroke="black" points="881.468,-275.376 870.904,-276.177 879.661,-282.139 881.468,-275.376"/>
</g>
<!-- \\NetCommonsTimeHelper -->
<g id="node43" class="node"><title>\\NetCommonsTimeHelper</title>
<polygon fill="none" stroke="black" points="1169,-1801.6 1017,-1801.6 1017,-1765.6 1169,-1765.6 1169,-1801.6"/>
<text text-anchor="middle" x="1093" y="-1780.7" font-family="Courier,monospace" font-size="11.00">NetCommonsTimeHelper</text>
</g>
<!-- \\NetCommonsTimeHelper&#45;&gt;\\AppHelper -->
<g id="edge73" class="edge"><title>\\NetCommonsTimeHelper&#45;&gt;\\AppHelper</title>
<path fill="none" stroke="black" d="M1016.78,-1776.58C963.659,-1771.68 894.376,-1765.3 848.603,-1761.08"/>
<polygon fill="none" stroke="black" points="848.917,-1757.59 838.638,-1760.16 848.274,-1764.56 848.917,-1757.59"/>
</g>
<!-- \\NetCommonsFormHelper -->
<g id="node44" class="node"><title>\\NetCommonsFormHelper</title>
<polygon fill="none" stroke="black" points="1169,-1747.6 1017,-1747.6 1017,-1711.6 1169,-1711.6 1169,-1747.6"/>
<text text-anchor="middle" x="1093" y="-1726.7" font-family="Courier,monospace" font-size="11.00">NetCommonsFormHelper</text>
</g>
<!-- \\NetCommonsFormHelper&#45;&gt;\\AppHelper -->
<g id="edge75" class="edge"><title>\\NetCommonsFormHelper&#45;&gt;\\AppHelper</title>
<path fill="none" stroke="black" d="M1016.78,-1736.62C963.659,-1741.52 894.376,-1747.9 848.603,-1752.12"/>
<polygon fill="none" stroke="black" points="848.274,-1748.64 838.638,-1753.04 848.917,-1755.61 848.274,-1748.64"/>
</g>
<!-- \\TitleIconHelper -->
<g id="node45" class="node"><title>\\TitleIconHelper</title>
<polygon fill="none" stroke="black" points="1152,-1693.6 1034,-1693.6 1034,-1657.6 1152,-1657.6 1152,-1693.6"/>
<text text-anchor="middle" x="1093" y="-1672.7" font-family="Courier,monospace" font-size="11.00">TitleIconHelper</text>
</g>
<!-- \\TitleIconHelper&#45;&gt;\\AppHelper -->
<g id="edge77" class="edge"><title>\\TitleIconHelper&#45;&gt;\\AppHelper</title>
<path fill="none" stroke="black" d="M1033.85,-1690.88C1019.48,-1694.66 1004.18,-1698.73 990,-1702.6 941.716,-1715.79 886.728,-1731.49 848.375,-1742.55"/>
<polygon fill="none" stroke="black" points="847.145,-1739.27 838.508,-1745.4 849.087,-1745.99 847.145,-1739.27"/>
</g>
<!-- \\DatetimePickerHelper -->
<g id="node46" class="node"><title>\\DatetimePickerHelper</title>
<polygon fill="none" stroke="black" points="1169,-1639.6 1017,-1639.6 1017,-1603.6 1169,-1603.6 1169,-1639.6"/>
<text text-anchor="middle" x="1093" y="-1618.7" font-family="Courier,monospace" font-size="11.00">DatetimePickerHelper</text>
</g>
<!-- \\DatetimePickerHelper&#45;&gt;\\AppHelper -->
<g id="edge79" class="edge"><title>\\DatetimePickerHelper&#45;&gt;\\AppHelper</title>
<path fill="none" stroke="black" d="M1016.88,-1639.14C1007.71,-1641.96 998.561,-1645.11 990,-1648.6 933.066,-1671.78 872.097,-1708.87 835.004,-1732.99"/>
<polygon fill="none" stroke="black" points="833.002,-1730.12 826.557,-1738.52 836.839,-1735.97 833.002,-1730.12"/>
</g>
<!-- \\Model -->
<g id="node113" class="node"><title>\\Model</title>
<ellipse fill="none" stroke="black" cx="44" cy="-2890.6" rx="43.8406" ry="18.3848"/>
<text text-anchor="middle" x="44" y="-2887" font-family="Times Roman,serif" font-size="14.00" fill="gray">\Model</text>
</g>
<!-- \\NetCommonsAppModel&#45;&gt;\\Model -->
<g id="edge81" class="edge"><title>\\NetCommonsAppModel&#45;&gt;\\Model</title>
<path fill="none" stroke="black" d="M172.749,-2890.6C148.379,-2890.6 121.357,-2890.6 98.3871,-2890.6"/>
<polygon fill="none" stroke="black" points="98.1425,-2887.1 88.1425,-2890.6 98.1424,-2894.1 98.1425,-2887.1"/>
</g>
<!-- \\OriginalKeyBehavior -->
<g id="node48" class="node"><title>\\OriginalKeyBehavior</title>
<polygon fill="none" stroke="black" points="1165,-667.599 1021,-667.599 1021,-631.599 1165,-631.599 1165,-667.599"/>
<text text-anchor="middle" x="1093" y="-646.699" font-family="Courier,monospace" font-size="11.00">OriginalKeyBehavior</text>
</g>
<!-- \\ModelBehavior -->
<g id="node115" class="node"><title>\\ModelBehavior</title>
<ellipse fill="none" stroke="black" cx="800" cy="-165.599" rx="86.9741" ry="18.3848"/>
<text text-anchor="middle" x="800" y="-161.999" font-family="Times Roman,serif" font-size="14.00" fill="gray">\ModelBehavior</text>
</g>
<!-- \\OriginalKeyBehavior&#45;&gt;\\ModelBehavior -->
<g id="edge83" class="edge"><title>\\OriginalKeyBehavior&#45;&gt;\\ModelBehavior</title>
<path fill="none" stroke="black" d="M1020.34,-641.849C1008.9,-637.673 998.166,-631.54 990,-622.599 859.318,-479.527 1050.91,-333.601 918,-192.599 910.736,-184.893 901.758,-179.174 892.025,-174.959"/>
<polygon fill="none" stroke="black" points="893.083,-171.618 882.491,-171.363 890.613,-178.167 893.083,-171.618"/>
</g>
<!-- \\TrackableBehavior -->
<g id="node49" class="node"><title>\\TrackableBehavior</title>
<polygon fill="none" stroke="black" points="1158,-613.599 1028,-613.599 1028,-577.599 1158,-577.599 1158,-613.599"/>
<text text-anchor="middle" x="1093" y="-592.699" font-family="Courier,monospace" font-size="11.00">TrackableBehavior</text>
</g>
<!-- \\TrackableBehavior&#45;&gt;\\ModelBehavior -->
<g id="edge85" class="edge"><title>\\TrackableBehavior&#45;&gt;\\ModelBehavior</title>
<path fill="none" stroke="black" d="M1027.41,-589.946C1013.43,-585.837 999.911,-579.199 990,-568.599 873.795,-444.315 1036.14,-315.042 918,-192.599 910.646,-184.978 901.615,-179.311 891.852,-175.124"/>
<polygon fill="none" stroke="black" points="892.89,-171.776 882.298,-171.548 890.436,-178.331 892.89,-171.776"/>
</g>
<!-- \\YAExceptionRenderer -->
<g id="node50" class="node"><title>\\YAExceptionRenderer</title>
<polygon fill="none" stroke="black" points="1165,-559.599 1021,-559.599 1021,-523.599 1165,-523.599 1165,-559.599"/>
<text text-anchor="middle" x="1093" y="-538.699" font-family="Courier,monospace" font-size="11.00">YAExceptionRenderer</text>
</g>
<!-- \\ExceptionRenderer -->
<g id="node118" class="node"><title>\\ExceptionRenderer</title>
<ellipse fill="none" stroke="black" cx="800" cy="-111.599" rx="118.087" ry="18.3848"/>
<text text-anchor="middle" x="800" y="-107.999" font-family="Times Roman,serif" font-size="14.00" fill="gray">TEHxceptionRenderer</text>
</g>
<!-- \\YAExceptionRenderer&#45;&gt;\\ExceptionRenderer -->
<g id="edge87" class="edge"><title>\\YAExceptionRenderer&#45;&gt;\\ExceptionRenderer</title>
<path fill="none" stroke="black" d="M1020.25,-533.595C1008.89,-529.437 998.206,-523.376 990,-514.599 873.795,-390.315 1036.14,-261.042 918,-138.599 913.747,-134.191 908.932,-130.437 903.739,-127.244"/>
<polygon fill="none" stroke="black" points="905.142,-124.025 894.675,-122.386 901.836,-130.195 905.142,-124.025"/>
</g>
<!-- \\NetCommonsMigration -->
<g id="node51" class="node"><title>\\NetCommonsMigration</title>
<polygon fill="none" stroke="black" points="872,-1207.6 728,-1207.6 728,-1171.6 872,-1171.6 872,-1207.6"/>
<text text-anchor="middle" x="800" y="-1186.7" font-family="Courier,monospace" font-size="11.00">NetCommonsMigration</text>
</g>
<!-- \\CakeMigration -->
<g id="node120" class="node"><title>\\CakeMigration</title>
<ellipse fill="none" stroke="black" cx="503" cy="-123.599" rx="84.8528" ry="18.3848"/>
<text text-anchor="middle" x="503" y="-119.999" font-family="Times Roman,serif" font-size="14.00" fill="gray">\CakeMigration</text>
</g>
<!-- \\NetCommonsMigration&#45;&gt;\\CakeMigration -->
<g id="edge89" class="edge"><title>\\NetCommonsMigration&#45;&gt;\\CakeMigration</title>
<path fill="none" stroke="black" d="M727.334,-1190.71C710.247,-1187.36 693.645,-1180.53 682,-1167.6 547.73,-1018.51 680.574,-455.417 610,-267.599 592.351,-220.63 554.542,-175.751 528.935,-148.931"/>
<polygon fill="none" stroke="black" points="531.221,-146.261 521.74,-141.532 526.203,-151.141 531.221,-146.261"/>
</g>
<!-- \\MenusAppController -->
<g id="node52" class="node"><title>\\MenusAppController</title>
<polygon fill="none" stroke="black" points="869,-2557.6 731,-2557.6 731,-2521.6 869,-2521.6 869,-2557.6"/>
<text text-anchor="middle" x="800" y="-2536.7" font-family="Courier,monospace" font-size="11.00">MenusAppController</text>
</g>
<!-- \\MenusAppController&#45;&gt;\\AppController -->
<g id="edge91" class="edge"><title>\\MenusAppController&#45;&gt;\\AppController</title>
<path fill="none" stroke="black" d="M730.694,-2537.31C712.654,-2533.39 694.732,-2526.01 682,-2512.6 540.042,-2363.05 508.922,-1665.13 503.848,-1515.78"/>
<polygon fill="none" stroke="black" points="507.341,-1515.49 503.515,-1505.61 500.345,-1515.72 507.341,-1515.49"/>
</g>
<!-- \\MenusController -->
<g id="node53" class="node"><title>\\MenusController</title>
<polygon fill="none" stroke="black" points="1152,-2557.6 1034,-2557.6 1034,-2521.6 1152,-2521.6 1152,-2557.6"/>
<text text-anchor="middle" x="1093" y="-2536.7" font-family="Courier,monospace" font-size="11.00">MenusController</text>
</g>
<!-- \\MenusController&#45;&gt;\\MenusAppController -->
<g id="edge93" class="edge"><title>\\MenusController&#45;&gt;\\MenusAppController</title>
<path fill="none" stroke="black" d="M1033.71,-2539.6C989.293,-2539.6 928.065,-2539.6 879.421,-2539.6"/>
<polygon fill="none" stroke="black" points="879.243,-2536.1 869.243,-2539.6 879.243,-2543.1 879.243,-2536.1"/>
</g>
<!-- \\MenuFrameSettingsController -->
<g id="node54" class="node"><title>\\MenuFrameSettingsController</title>
<polygon fill="none" stroke="black" points="1192,-2611.6 994,-2611.6 994,-2575.6 1192,-2575.6 1192,-2611.6"/>
<text text-anchor="middle" x="1093" y="-2590.7" font-family="Courier,monospace" font-size="11.00">MenuFrameSettingsController</text>
</g>
<!-- \\MenuFrameSettingsController&#45;&gt;\\MenusAppController -->
<g id="edge95" class="edge"><title>\\MenuFrameSettingsController&#45;&gt;\\MenusAppController</title>
<path fill="none" stroke="black" d="M995.028,-2575.54C957.316,-2568.59 914.767,-2560.75 879.057,-2554.17"/>
<polygon fill="none" stroke="black" points="879.645,-2550.72 869.176,-2552.35 878.376,-2557.6 879.645,-2550.72"/>
</g>
<!-- \\MenuFormHelper -->
<g id="node55" class="node"><title>\\MenuFormHelper</title>
<polygon fill="none" stroke="black" points="1148,-1585.6 1038,-1585.6 1038,-1549.6 1148,-1549.6 1148,-1585.6"/>
<text text-anchor="middle" x="1093" y="-1564.7" font-family="Courier,monospace" font-size="11.00">MenuFormHelper</text>
</g>
<!-- \\MenuFormHelper&#45;&gt;\\AppHelper -->
<g id="edge97" class="edge"><title>\\MenuFormHelper&#45;&gt;\\AppHelper</title>
<path fill="none" stroke="black" d="M1037.31,-1577.36C1021.48,-1581.4 1004.58,-1586.98 990,-1594.6 921.41,-1630.41 856.097,-1695.04 822.838,-1730.89"/>
<polygon fill="none" stroke="black" points="820.033,-1728.77 815.854,-1738.51 825.192,-1733.51 820.033,-1728.77"/>
</g>
<!-- \\MenuHelper -->
<g id="node56" class="node"><title>\\MenuHelper</title>
<polygon fill="none" stroke="black" points="1135,-1531.6 1051,-1531.6 1051,-1495.6 1135,-1495.6 1135,-1531.6"/>
<text text-anchor="middle" x="1093" y="-1510.7" font-family="Courier,monospace" font-size="11.00">MenuHelper</text>
</g>
<!-- \\MenuHelper&#45;&gt;\\AppHelper -->
<g id="edge99" class="edge"><title>\\MenuHelper&#45;&gt;\\AppHelper</title>
<path fill="none" stroke="black" d="M1050.91,-1518.84C1031.31,-1522.68 1008.33,-1529.29 990,-1540.6 909.876,-1590.04 844.727,-1683.79 815.946,-1729.79"/>
<polygon fill="none" stroke="black" points="812.792,-1728.24 810.523,-1738.58 818.75,-1731.91 812.792,-1728.24"/>
</g>
<!-- \\MenusAppModel -->
<g id="node57" class="node"><title>\\MenusAppModel</title>
<polygon fill="none" stroke="black" points="852,-2935.6 748,-2935.6 748,-2899.6 852,-2899.6 852,-2935.6"/>
<text text-anchor="middle" x="800" y="-2914.7" font-family="Courier,monospace" font-size="11.00">MenusAppModel</text>
</g>
<!-- \\MenusAppModel&#45;&gt;\\AppModel -->
<g id="edge101" class="edge"><title>\\MenusAppModel&#45;&gt;\\AppModel</title>
<path fill="none" stroke="black" d="M747.927,-2912.87C691.623,-2907.75 602.737,-2899.67 548.944,-2894.78"/>
<polygon fill="none" stroke="black" points="548.949,-2891.26 538.673,-2893.84 548.316,-2898.23 548.949,-2891.26"/>
</g>
<!-- \\MenuFramesPage -->
<g id="node58" class="node"><title>\\MenuFramesPage</title>
<polygon fill="none" stroke="black" points="1148,-2989.6 1038,-2989.6 1038,-2953.6 1148,-2953.6 1148,-2989.6"/>
<text text-anchor="middle" x="1093" y="-2968.7" font-family="Courier,monospace" font-size="11.00">MenuFramesPage</text>
</g>
<!-- \\MenuFramesPage&#45;&gt;\\MenusAppModel -->
<g id="edge103" class="edge"><title>\\MenuFramesPage&#45;&gt;\\MenusAppModel</title>
<path fill="none" stroke="black" d="M1037.2,-2961.32C987.232,-2952.11 914.058,-2938.62 862.219,-2929.07"/>
<polygon fill="none" stroke="black" points="862.618,-2925.58 852.149,-2927.21 861.349,-2932.47 862.618,-2925.58"/>
</g>
<!-- \\MenuFramesRoom -->
<g id="node59" class="node"><title>\\MenuFramesRoom</title>
<polygon fill="none" stroke="black" points="1148,-2935.6 1038,-2935.6 1038,-2899.6 1148,-2899.6 1148,-2935.6"/>
<text text-anchor="middle" x="1093" y="-2914.7" font-family="Courier,monospace" font-size="11.00">MenuFramesRoom</text>
</g>
<!-- \\MenuFramesRoom&#45;&gt;\\MenusAppModel -->
<g id="edge105" class="edge"><title>\\MenuFramesRoom&#45;&gt;\\MenusAppModel</title>
<path fill="none" stroke="black" d="M1037.2,-2917.6C987.232,-2917.6 914.058,-2917.6 862.219,-2917.6"/>
<polygon fill="none" stroke="black" points="862.149,-2914.1 852.149,-2917.6 862.149,-2921.1 862.149,-2914.1"/>
</g>
<!-- \\MenuFrameSetting -->
<g id="node60" class="node"><title>\\MenuFrameSetting</title>
<polygon fill="none" stroke="black" points="1155,-2881.6 1031,-2881.6 1031,-2845.6 1155,-2845.6 1155,-2881.6"/>
<text text-anchor="middle" x="1093" y="-2860.7" font-family="Courier,monospace" font-size="11.00">MenuFrameSetting</text>
</g>
<!-- \\MenuFrameSetting&#45;&gt;\\MenusAppModel -->
<g id="edge107" class="edge"><title>\\MenuFrameSetting&#45;&gt;\\MenusAppModel</title>
<path fill="none" stroke="black" d="M1030.14,-2875.18C980.591,-2884.32 911.836,-2896.99 862.401,-2906.1"/>
<polygon fill="none" stroke="black" points="861.671,-2902.67 852.471,-2907.93 862.94,-2909.56 861.671,-2902.67"/>
</g>
<!-- \\MenusSchema -->
<g id="node61" class="node"><title>\\MenusSchema</title>
<polygon fill="none" stroke="black" points="1138,-505.599 1048,-505.599 1048,-469.599 1138,-469.599 1138,-505.599"/>
<text text-anchor="middle" x="1093" y="-484.699" font-family="Courier,monospace" font-size="11.00">MenusSchema</text>
</g>
<!-- \\CakeSchema -->
<g id="node131" class="node"><title>\\CakeSchema</title>
<ellipse fill="none" stroke="black" cx="800" cy="-57.5994" rx="77.0746" ry="18.3848"/>
<text text-anchor="middle" x="800" y="-53.9994" font-family="Times Roman,serif" font-size="14.00" fill="gray">\CakeSchema</text>
</g>
<!-- \\MenusSchema&#45;&gt;\\CakeSchema -->
<g id="edge109" class="edge"><title>\\MenusSchema&#45;&gt;\\CakeSchema</title>
<path fill="none" stroke="black" d="M1047.42,-486.26C1027.17,-483.275 1004.65,-476.263 990,-460.599 873.795,-336.315 1036.14,-207.042 918,-84.5994 908.93,-75.1992 897.308,-68.772 884.908,-64.4284"/>
<polygon fill="none" stroke="black" points="885.89,-61.0686 875.304,-61.4981 883.847,-67.764 885.89,-61.0686"/>
</g>
<!-- \\Init -->
<g id="node62" class="node"><title>\\Init</title>
<polygon fill="none" stroke="black" points="1120,-451.599 1066,-451.599 1066,-415.599 1120,-415.599 1120,-451.599"/>
<text text-anchor="middle" x="1093" y="-430.699" font-family="Courier,monospace" font-size="11.00">Init</text>
</g>
<!-- \\Init&#45;&gt;\\CakeMigration -->
<g id="edge111" class="edge"><title>\\Init&#45;&gt;\\CakeMigration</title>
<path fill="none" stroke="black" d="M1091.73,-415.171C1086.05,-348.869 1056.72,-121.596 918,-30.5994 794.601,50.3467 610.913,-51.7982 536.301,-100.477"/>
<polygon fill="none" stroke="black" points="534.163,-97.6953 527.755,-106.133 538.026,-103.533 534.163,-97.6953"/>
</g>
<!-- \\MenuFrameSettingsRecords -->
<g id="node63" class="node"><title>\\MenuFrameSettingsRecords</title>
<polygon fill="none" stroke="black" points="1182,-1261.6 1004,-1261.6 1004,-1225.6 1182,-1225.6 1182,-1261.6"/>
<text text-anchor="middle" x="1093" y="-1240.7" font-family="Courier,monospace" font-size="11.00">MenuFrameSettingsRecords</text>
</g>
<!-- \\MenuFrameSettingsRecords&#45;&gt;\\NetCommonsMigration -->
<g id="edge113" class="edge"><title>\\MenuFrameSettingsRecords&#45;&gt;\\NetCommonsMigration</title>
<path fill="none" stroke="black" d="M1003.5,-1227.1C965.031,-1220.01 920.352,-1211.78 882.674,-1204.84"/>
<polygon fill="none" stroke="black" points="883.219,-1201.38 872.75,-1203.01 881.95,-1208.26 883.219,-1201.38"/>
</g>
<!-- \\PluginRecords -->
<g id="node64" class="node"><title>\\PluginRecords</title>
<polygon fill="none" stroke="black" points="1145,-1207.6 1041,-1207.6 1041,-1171.6 1145,-1171.6 1145,-1207.6"/>
<text text-anchor="middle" x="1093" y="-1186.7" font-family="Courier,monospace" font-size="11.00">PluginRecords</text>
</g>
<!-- \\PluginRecords&#45;&gt;\\NetCommonsMigration -->
<g id="edge115" class="edge"><title>\\PluginRecords&#45;&gt;\\NetCommonsMigration</title>
<path fill="none" stroke="black" d="M1040.96,-1189.6C997.186,-1189.6 933.807,-1189.6 883.035,-1189.6"/>
<polygon fill="none" stroke="black" points="882.731,-1186.1 872.731,-1189.6 882.731,-1193.1 882.731,-1186.1"/>
</g>
</g>
</svg>
