<?xml version="1.0" encoding="UTF-8" standalone="no"?>
<!DOCTYPE svg PUBLIC "-//W3C//DTD SVG 1.1//EN"
 "http://www.w3.org/Graphics/SVG/1.1/DTD/svg11.dtd">
<!-- Generated by graphviz version 2.26.3 (20100126.1600)
 -->
<!-- Title: G Pages: 1 -->
<svg width="1060pt" height="2834pt"
 viewBox="0.00 0.00 1060.00 2834.00" xmlns="http://www.w3.org/2000/svg" xmlns:xlink="http://www.w3.org/1999/xlink">
<g id="graph1" class="graph" transform="scale(1 1) rotate(0) translate(4 2830)">
<title>G</title>
<polygon fill="white" stroke="white" points="-4,5 -4,-2830 1057,-2830 1057,5 -4,5"/>
<g id="graph2" class="cluster"><title>cluster_Global</title>
<polyline fill="none" stroke="gray" points="264,-314 1032,-314 "/>
<path fill="none" stroke="gray" d="M1032,-314C1038,-314 1044,-320 1044,-326"/>
<polyline fill="none" stroke="gray" points="1044,-326 1044,-2806 "/>
<path fill="none" stroke="gray" d="M1044,-2806C1044,-2812 1038,-2818 1032,-2818"/>
<polyline fill="none" stroke="gray" points="1032,-2818 264,-2818 "/>
<path fill="none" stroke="gray" d="M264,-2818C258,-2818 252,-2812 252,-2806"/>
<polyline fill="none" stroke="gray" points="252,-2806 252,-326 "/>
<path fill="none" stroke="gray" d="M252,-326C252,-320 258,-314 264,-314"/>
<text text-anchor="middle" x="648" y="-2804.1" font-family="Times Roman,serif" font-size="11.00" fill="gray">Global</text>
</g>
<!-- \\AppController -->
<g id="node2" class="node"><title>\\AppController</title>
<polygon fill="none" stroke="black" points="395,-1792 291,-1792 291,-1756 395,-1756 395,-1792"/>
<text text-anchor="middle" x="343" y="-1771.1" font-family="Courier,monospace" font-size="11.00">AppController</text>
</g>
<!-- \\Controller -->
<g id="node62" class="node"><title>\\Controller</title>
<ellipse fill="none" stroke="black" cx="82" cy="-699" rx="63.1385" ry="18.3848"/>
<text text-anchor="middle" x="82" y="-695.4" font-family="Times Roman,serif" font-size="14.00" fill="gray">\Controller</text>
</g>
<!-- \\AppController&#45;&gt;\\Controller -->
<g id="edge3" class="edge"><title>\\AppController&#45;&gt;\\Controller</title>
<path fill="none" stroke="black" d="M290.885,-1775.35C271.104,-1773.08 249.995,-1766.82 236,-1752 163.084,-1674.76 96.899,-886.57 84.1917,-727.059"/>
<polygon fill="none" stroke="black" points="87.6798,-726.768 83.4011,-717.075 80.7016,-727.321 87.6798,-726.768"/>
</g>
<!-- \\AppModel -->
<g id="node3" class="node"><title>\\AppModel</title>
<polygon fill="none" stroke="black" points="675,-2531 605,-2531 605,-2495 675,-2495 675,-2531"/>
<text text-anchor="middle" x="640" y="-2510.1" font-family="Courier,monospace" font-size="11.00">AppModel</text>
</g>
<!-- \\NetCommonsAppModel -->
<g id="node47" class="node"><title>\\NetCommonsAppModel</title>
<polygon fill="none" stroke="black" points="412,-2531 274,-2531 274,-2495 412,-2495 412,-2531"/>
<text text-anchor="middle" x="343" y="-2510.1" font-family="Courier,monospace" font-size="11.00">NetCommonsAppModel</text>
</g>
<!-- \\AppModel&#45;&gt;\\NetCommonsAppModel -->
<g id="edge5" class="edge"><title>\\AppModel&#45;&gt;\\NetCommonsAppModel</title>
<path fill="none" stroke="black" d="M604.47,-2513C559.713,-2513 481.497,-2513 422.241,-2513"/>
<polygon fill="none" stroke="black" points="422.157,-2509.5 412.157,-2513 422.157,-2516.5 422.157,-2509.5"/>
</g>
<!-- \\DatabaseConfiguration -->
<g id="node4" class="node"><title>\\DatabaseConfiguration</title>
<polygon fill="none" stroke="black" points="1012,-2572 854,-2572 854,-2536 1012,-2536 1012,-2572"/>
<text text-anchor="middle" x="933" y="-2551.1" font-family="Courier,monospace" font-size="11.00">DatabaseConfiguration</text>
</g>
<!-- \\DatabaseConfiguration&#45;&gt;\\AppModel -->
<g id="edge7" class="edge"><title>\\DatabaseConfiguration&#45;&gt;\\AppModel</title>
<path fill="none" stroke="black" d="M853.71,-2542.9C799.937,-2535.38 730.74,-2525.7 685.886,-2519.42"/>
<polygon fill="none" stroke="black" points="686.254,-2515.94 675.866,-2518.02 685.284,-2522.87 686.254,-2515.94"/>
</g>
<!-- \\AppHelper -->
<g id="node5" class="node"><title>\\AppHelper</title>
<polygon fill="none" stroke="black" points="678,-1492 602,-1492 602,-1456 678,-1456 678,-1492"/>
<text text-anchor="middle" x="640" y="-1471.1" font-family="Courier,monospace" font-size="11.00">AppHelper</text>
</g>
<!-- \\Helper -->
<g id="node66" class="node"><title>\\Helper</title>
<ellipse fill="none" stroke="black" cx="343" cy="-288" rx="43.8406" ry="18.3848"/>
<text text-anchor="middle" x="343" y="-284.4" font-family="Times Roman,serif" font-size="14.00" fill="gray">Helper</text>
</g>
<!-- \\AppHelper&#45;&gt;\\Helper -->
<g id="edge9" class="edge"><title>\\AppHelper&#45;&gt;\\Helper</title>
<path fill="none" stroke="black" d="M632.156,-1455.78C610.464,-1404.52 549.46,-1254.2 522,-1123 484.844,-945.473 570.705,-445.376 450,-310 436.726,-295.113 416.301,-288.745 396.839,-286.408"/>
<polygon fill="none" stroke="black" points="397.06,-282.914 386.793,-285.53 396.45,-289.888 397.06,-282.914"/>
</g>
<!-- \\NetCommonsDeleteTest -->
<g id="node6" class="node"><title>\\NetCommonsDeleteTest</title>
<polygon fill="none" stroke="black" points="1009,-2680 857,-2680 857,-2644 1009,-2644 1009,-2680"/>
<text text-anchor="middle" x="933" y="-2659.1" font-family="Courier,monospace" font-size="11.00">NetCommonsDeleteTest</text>
</g>
<!-- \\NetCommonsModelTestCase -->
<g id="node15" class="node"><title>\\NetCommonsModelTestCase</title>
<polygon fill="none" stroke="black" points="726,-2720 554,-2720 554,-2684 726,-2684 726,-2720"/>
<text text-anchor="middle" x="640" y="-2699.1" font-family="Courier,monospace" font-size="11.00">NetCommonsModelTestCase</text>
</g>
<!-- \\NetCommonsDeleteTest&#45;&gt;\\NetCommonsModelTestCase -->
<g id="edge11" class="edge"><title>\\NetCommonsDeleteTest&#45;&gt;\\NetCommonsModelTestCase</title>
<path fill="none" stroke="black" d="M856.783,-2672.41C820.049,-2677.42 775.59,-2683.49 736.519,-2688.82"/>
<polygon fill="none" stroke="black" points="735.618,-2685.41 726.183,-2690.23 736.564,-2692.35 735.618,-2685.41"/>
</g>
<!-- \\NetCommonsConsoleTestCase -->
<g id="node7" class="node"><title>\\NetCommonsConsoleTestCase</title>
<polygon fill="none" stroke="black" points="732,-2666 548,-2666 548,-2630 732,-2630 732,-2666"/>
<text text-anchor="middle" x="640" y="-2645.1" font-family="Courier,monospace" font-size="11.00">NetCommonsConsoleTestCase</text>
</g>
<!-- \\NetCommonsCakeTestCase -->
<g id="node13" class="node"><title>\\NetCommonsCakeTestCase</title>
<polygon fill="none" stroke="black" points="425,-2666 261,-2666 261,-2630 425,-2630 425,-2666"/>
<text text-anchor="middle" x="343" y="-2645.1" font-family="Courier,monospace" font-size="11.00">NetCommonsCakeTestCase</text>
</g>
<!-- \\NetCommonsConsoleTestCase&#45;&gt;\\NetCommonsCakeTestCase -->
<g id="edge13" class="edge"><title>\\NetCommonsConsoleTestCase&#45;&gt;\\NetCommonsCakeTestCase</title>
<path fill="none" stroke="black" d="M547.249,-2648C511.93,-2648 471.688,-2648 436.316,-2648"/>
<polygon fill="none" stroke="black" points="435.993,-2644.5 425.993,-2648 435.993,-2651.5 435.993,-2644.5"/>
</g>
<!-- \\NetCommonsGetTest -->
<g id="node8" class="node"><title>\\NetCommonsGetTest</title>
<polygon fill="none" stroke="black" points="998,-2626 868,-2626 868,-2590 998,-2590 998,-2626"/>
<text text-anchor="middle" x="933" y="-2605.1" font-family="Courier,monospace" font-size="11.00">NetCommonsGetTest</text>
</g>
<!-- \\NetCommonsGetTest&#45;&gt;\\NetCommonsModelTestCase -->
<g id="edge15" class="edge"><title>\\NetCommonsGetTest&#45;&gt;\\NetCommonsModelTestCase</title>
<path fill="none" stroke="black" d="M867.363,-2622.57C854.776,-2626.1 841.837,-2630.25 830,-2635 796.028,-2648.64 792.182,-2661.9 758,-2675 750.894,-2677.72 743.438,-2680.22 735.872,-2682.49"/>
<polygon fill="none" stroke="black" points="734.894,-2679.13 726.248,-2685.25 736.826,-2685.86 734.894,-2679.13"/>
</g>
<!-- \\NetCommonsHelperTestCase -->
<g id="node9" class="node"><title>\\NetCommonsHelperTestCase</title>
<polygon fill="none" stroke="black" points="729,-2612 551,-2612 551,-2576 729,-2576 729,-2612"/>
<text text-anchor="middle" x="640" y="-2591.1" font-family="Courier,monospace" font-size="11.00">NetCommonsHelperTestCase</text>
</g>
<!-- \\NetCommonsHelperTestCase&#45;&gt;\\NetCommonsCakeTestCase -->
<g id="edge17" class="edge"><title>\\NetCommonsHelperTestCase&#45;&gt;\\NetCommonsCakeTestCase</title>
<path fill="none" stroke="black" d="M550.487,-2610.28C514.267,-2616.86 472.456,-2624.46 435.9,-2631.11"/>
<polygon fill="none" stroke="black" points="434.95,-2627.72 425.737,-2632.96 436.202,-2634.61 434.95,-2627.72"/>
</g>
<!-- \\NetCommonsControllerBaseTestCase -->
<g id="node10" class="node"><title>\\NetCommonsControllerBaseTestCase</title>
<polygon fill="none" stroke="black" points="756,-1114 524,-1114 524,-1078 756,-1078 756,-1114"/>
<text text-anchor="middle" x="640" y="-1093.1" font-family="Courier,monospace" font-size="11.00">NetCommonsControllerBaseTestCase</text>
</g>
<!-- \\ControllerTestCase -->
<g id="node72" class="node"><title>\\ControllerTestCase</title>
<ellipse fill="none" stroke="black" cx="343" cy="-234" rx="106.773" ry="18.3848"/>
<text text-anchor="middle" x="343" y="-230.4" font-family="Times Roman,serif" font-size="14.00" fill="gray">\ControllerTestCase</text>
</g>
<!-- \\NetCommonsControllerBaseTestCase&#45;&gt;\\ControllerTestCase -->
<g id="edge19" class="edge"><title>\\NetCommonsControllerBaseTestCase&#45;&gt;\\ControllerTestCase</title>
<path fill="none" stroke="black" d="M531.586,-1077.92C528.121,-1075.29 524.901,-1072.33 522,-1069 403.492,-933.161 566.99,-398.148 450,-261 446.348,-256.718 442.125,-253.064 437.51,-249.949"/>
<polygon fill="none" stroke="black" points="439.225,-246.898 428.819,-244.906 435.712,-252.952 439.225,-246.898"/>
</g>
<!-- \\NetCommonsValidateTest -->
<g id="node11" class="node"><title>\\NetCommonsValidateTest</title>
<polygon fill="none" stroke="black" points="1015,-2788 851,-2788 851,-2752 1015,-2752 1015,-2788"/>
<text text-anchor="middle" x="933" y="-2767.1" font-family="Courier,monospace" font-size="11.00">NetCommonsValidateTest</text>
</g>
<!-- \\NetCommonsValidateTest&#45;&gt;\\NetCommonsModelTestCase -->
<g id="edge21" class="edge"><title>\\NetCommonsValidateTest&#45;&gt;\\NetCommonsModelTestCase</title>
<path fill="none" stroke="black" d="M855.251,-2751.96C815.938,-2742.83 768.084,-2731.73 727.489,-2722.3"/>
<polygon fill="none" stroke="black" points="728.136,-2718.86 717.604,-2720.01 726.554,-2725.68 728.136,-2718.86"/>
</g>
<!-- \\NetCommonsTestSuite -->
<g id="node12" class="node"><title>\\NetCommonsTestSuite</title>
<polygon fill="none" stroke="black" points="1005,-952 861,-952 861,-916 1005,-916 1005,-952"/>
<text text-anchor="middle" x="933" y="-931.1" font-family="Courier,monospace" font-size="11.00">NetCommonsTestSuite</text>
</g>
<!-- \\CakeTestSuite -->
<g id="node75" class="node"><title>\\CakeTestSuite</title>
<ellipse fill="none" stroke="black" cx="640" cy="-288" rx="84.1457" ry="18.3848"/>
<text text-anchor="middle" x="640" y="-284.4" font-family="Times Roman,serif" font-size="14.00" fill="gray">\CakeTestSuite</text>
</g>
<!-- \\NetCommonsTestSuite&#45;&gt;\\CakeTestSuite -->
<g id="edge23" class="edge"><title>\\NetCommonsTestSuite&#45;&gt;\\CakeTestSuite</title>
<path fill="none" stroke="black" d="M860.261,-926.653C848.75,-922.443 838.02,-916.195 830,-907 654.334,-705.587 940.806,-504.956 758,-310 751.051,-302.589 742.47,-297.203 733.129,-293.339"/>
<polygon fill="none" stroke="black" points="734.163,-289.993 723.569,-289.964 731.833,-296.594 734.163,-289.993"/>
</g>
<!-- \\CakeTestCase -->
<g id="node77" class="node"><title>\\CakeTestCase</title>
<ellipse fill="none" stroke="black" cx="82" cy="-2648" rx="82.0244" ry="18.3848"/>
<text text-anchor="middle" x="82" y="-2644.4" font-family="Times Roman,serif" font-size="14.00" fill="gray">\CakeTestCase</text>
</g>
<!-- \\NetCommonsCakeTestCase&#45;&gt;\\CakeTestCase -->
<g id="edge25" class="edge"><title>\\NetCommonsCakeTestCase&#45;&gt;\\CakeTestCase</title>
<path fill="none" stroke="black" d="M260.418,-2648C233.018,-2648 202.345,-2648 174.263,-2648"/>
<polygon fill="none" stroke="black" points="174.045,-2644.5 164.045,-2648 174.045,-2651.5 174.045,-2644.5"/>
</g>
<!-- \\NetCommonsSaveTest -->
<g id="node14" class="node"><title>\\NetCommonsSaveTest</title>
<polygon fill="none" stroke="black" points="1002,-2734 864,-2734 864,-2698 1002,-2698 1002,-2734"/>
<text text-anchor="middle" x="933" y="-2713.1" font-family="Courier,monospace" font-size="11.00">NetCommonsSaveTest</text>
</g>
<!-- \\NetCommonsSaveTest&#45;&gt;\\NetCommonsModelTestCase -->
<g id="edge27" class="edge"><title>\\NetCommonsSaveTest&#45;&gt;\\NetCommonsModelTestCase</title>
<path fill="none" stroke="black" d="M863.934,-2712.7C825.875,-2710.88 778.032,-2708.6 736.349,-2706.6"/>
<polygon fill="none" stroke="black" points="736.328,-2703.1 726.172,-2706.12 735.994,-2710.09 736.328,-2703.1"/>
</g>
<!-- \\NetCommonsModelTestCase&#45;&gt;\\NetCommonsCakeTestCase -->
<g id="edge29" class="edge"><title>\\NetCommonsModelTestCase&#45;&gt;\\NetCommonsCakeTestCase</title>
<path fill="none" stroke="black" d="M553.696,-2686.31C516.671,-2679.58 473.35,-2671.7 435.65,-2664.85"/>
<polygon fill="none" stroke="black" points="436.151,-2661.38 425.686,-2663.03 434.899,-2668.27 436.151,-2661.38"/>
</g>
<!-- \\NetCommonsControllerTestCase -->
<g id="node16" class="node"><title>\\NetCommonsControllerTestCase</title>
<polygon fill="none" stroke="black" points="1036,-1114 830,-1114 830,-1078 1036,-1078 1036,-1114"/>
<text text-anchor="middle" x="933" y="-1093.1" font-family="Courier,monospace" font-size="11.00">NetCommonsControllerTestCase</text>
</g>
<!-- \\NetCommonsControllerTestCase&#45;&gt;\\NetCommonsControllerBaseTestCase -->
<g id="edge31" class="edge"><title>\\NetCommonsControllerTestCase&#45;&gt;\\NetCommonsControllerBaseTestCase</title>
<path fill="none" stroke="black" d="M829.699,-1096C809.381,-1096 787.845,-1096 766.858,-1096"/>
<polygon fill="none" stroke="black" points="766.606,-1092.5 756.606,-1096 766.606,-1099.5 766.606,-1092.5"/>
</g>
<!-- \\NetCommonsAppController -->
<g id="node17" class="node"><title>\\NetCommonsAppController</title>
<polygon fill="none" stroke="black" points="726,-1060 554,-1060 554,-1024 726,-1024 726,-1060"/>
<text text-anchor="middle" x="640" y="-1039.1" font-family="Courier,monospace" font-size="11.00">NetCommonsAppController</text>
</g>
<!-- \\NetCommonsAppController&#45;&gt;\\Controller -->
<g id="edge33" class="edge"><title>\\NetCommonsAppController&#45;&gt;\\Controller</title>
<path fill="none" stroke="black" d="M632.553,-1023.75C611.887,-972.403 553.297,-821.985 522,-692 496.494,-586.068 532.509,-278.164 450,-207 413.989,-175.94 274.322,-178.84 236,-207 158.132,-264.22 102.061,-574.942 86.4148,-670.815"/>
<polygon fill="none" stroke="black" points="82.9228,-670.486 84.7871,-680.916 89.8336,-671.6 82.9228,-670.486"/>
</g>
<!-- \\AssetComponent -->
<g id="node18" class="node"><title>\\AssetComponent</title>
<polygon fill="none" stroke="black" points="988,-898 878,-898 878,-862 988,-862 988,-898"/>
<text text-anchor="middle" x="933" y="-877.1" font-family="Courier,monospace" font-size="11.00">AssetComponent</text>
</g>
<!-- \\Component -->
<g id="node83" class="node"><title>\\Component</title>
<ellipse fill="none" stroke="black" cx="640" cy="-234" rx="70.9184" ry="18.3848"/>
<text text-anchor="middle" x="640" y="-230.4" font-family="Times Roman,serif" font-size="14.00" fill="gray">\Component</text>
</g>
<!-- \\AssetComponent&#45;&gt;\\Component -->
<g id="edge35" class="edge"><title>\\AssetComponent&#45;&gt;\\Component</title>
<path fill="none" stroke="black" d="M877.342,-877.436C859.801,-873.802 841.915,-866.647 830,-853 655.683,-653.337 935.432,-457.899 758,-261 748.227,-250.155 735.069,-243.207 721.082,-238.841"/>
<polygon fill="none" stroke="black" points="721.864,-235.426 711.298,-236.214 720.049,-242.187 721.864,-235.426"/>
</g>
<!-- \\NetCommonsTimeComponent -->
<g id="node19" class="node"><title>\\NetCommonsTimeComponent</title>
<polygon fill="none" stroke="black" points="1019,-844 847,-844 847,-808 1019,-808 1019,-844"/>
<text text-anchor="middle" x="933" y="-823.1" font-family="Courier,monospace" font-size="11.00">NetCommonsTimeComponent</text>
</g>
<!-- \\NetCommonsTimeComponent&#45;&gt;\\Component -->
<g id="edge37" class="edge"><title>\\NetCommonsTimeComponent&#45;&gt;\\Component</title>
<path fill="none" stroke="black" d="M846.734,-812.334C840.484,-808.785 834.774,-804.402 830,-799 670.252,-618.227 920.569,-439.24 758,-261 748.162,-250.213 734.974,-243.293 720.979,-238.934"/>
<polygon fill="none" stroke="black" points="721.757,-235.519 711.192,-236.31 719.944,-242.281 721.757,-235.519"/>
</g>
<!-- \\PermissionComponent -->
<g id="node20" class="node"><title>\\PermissionComponent</title>
<polygon fill="none" stroke="black" points="1005,-790 861,-790 861,-754 1005,-754 1005,-790"/>
<text text-anchor="middle" x="933" y="-769.1" font-family="Courier,monospace" font-size="11.00">PermissionComponent</text>
</g>
<!-- \\PermissionComponent&#45;&gt;\\Component -->
<g id="edge39" class="edge"><title>\\PermissionComponent&#45;&gt;\\Component</title>
<path fill="none" stroke="black" d="M860.47,-764.469C848.938,-760.277 838.146,-754.083 830,-745 684.8,-583.094 905.726,-420.605 758,-261 748.083,-250.286 734.859,-243.398 720.853,-239.049"/>
<polygon fill="none" stroke="black" points="721.628,-235.634 711.063,-236.429 719.818,-242.396 721.628,-235.634"/>
</g>
<!-- \\NetCommonsComponent -->
<g id="node21" class="node"><title>\\NetCommonsComponent</title>
<polygon fill="none" stroke="black" points="1005,-736 861,-736 861,-700 1005,-700 1005,-736"/>
<text text-anchor="middle" x="933" y="-715.1" font-family="Courier,monospace" font-size="11.00">NetCommonsComponent</text>
</g>
<!-- \\NetCommonsComponent&#45;&gt;\\Component -->
<g id="edge41" class="edge"><title>\\NetCommonsComponent&#45;&gt;\\Component</title>
<path fill="none" stroke="black" d="M860.344,-710.25C848.896,-706.073 838.166,-699.94 830,-691 699.318,-547.927 890.914,-402.002 758,-261 747.986,-250.377 734.718,-243.531 720.698,-239.194"/>
<polygon fill="none" stroke="black" points="721.468,-235.777 710.904,-236.577 719.661,-242.54 721.468,-235.777"/>
</g>
<!-- \\NetCommonsController -->
<g id="node22" class="node"><title>\\NetCommonsController</title>
<polygon fill="none" stroke="black" points="1009,-1060 857,-1060 857,-1024 1009,-1024 1009,-1060"/>
<text text-anchor="middle" x="933" y="-1039.1" font-family="Courier,monospace" font-size="11.00">NetCommonsController</text>
</g>
<!-- \\NetCommonsController&#45;&gt;\\NetCommonsAppController -->
<g id="edge43" class="edge"><title>\\NetCommonsController&#45;&gt;\\NetCommonsAppController</title>
<path fill="none" stroke="black" d="M856.783,-1042C820.049,-1042 775.59,-1042 736.519,-1042"/>
<polygon fill="none" stroke="black" points="736.183,-1038.5 726.183,-1042 736.183,-1045.5 736.183,-1038.5"/>
</g>
<!-- \\NetCommonsUrl -->
<g id="node23" class="node"><title>\\NetCommonsUrl</title>
<polygon fill="none" stroke="black" points="985,-2140 881,-2140 881,-2104 985,-2104 985,-2140"/>
<text text-anchor="middle" x="933" y="-2119.1" font-family="Courier,monospace" font-size="11.00">NetCommonsUrl</text>
</g>
<!-- \\NetCommonsTime -->
<g id="node24" class="node"><title>\\NetCommonsTime</title>
<polygon fill="none" stroke="black" points="988,-2086 878,-2086 878,-2050 988,-2050 988,-2086"/>
<text text-anchor="middle" x="933" y="-2065.1" font-family="Courier,monospace" font-size="11.00">NetCommonsTime</text>
</g>
<!-- \\CurrentBase -->
<g id="node25" class="node"><title>\\CurrentBase</title>
<polygon fill="none" stroke="black" points="685,-2194 595,-2194 595,-2158 685,-2158 685,-2194"/>
<text text-anchor="middle" x="640" y="-2173.1" font-family="Courier,monospace" font-size="11.00">CurrentBase</text>
</g>
<!-- \\Current -->
<g id="node26" class="node"><title>\\Current</title>
<polygon fill="none" stroke="black" points="965,-2194 901,-2194 901,-2158 965,-2158 965,-2194"/>
<text text-anchor="middle" x="933" y="-2173.1" font-family="Courier,monospace" font-size="11.00">Current</text>
</g>
<!-- \\Current&#45;&gt;\\CurrentBase -->
<g id="edge45" class="edge"><title>\\Current&#45;&gt;\\CurrentBase</title>
<path fill="none" stroke="black" d="M900.806,-2176C851.48,-2176 756.554,-2176 695.846,-2176"/>
<polygon fill="none" stroke="black" points="695.669,-2172.5 685.669,-2176 695.669,-2179.5 695.669,-2172.5"/>
</g>
<!-- \\CurrentSystem -->
<g id="node27" class="node"><title>\\CurrentSystem</title>
<polygon fill="none" stroke="black" points="985,-1978 881,-1978 881,-1942 985,-1942 985,-1978"/>
<text text-anchor="middle" x="933" y="-1957.1" font-family="Courier,monospace" font-size="11.00">CurrentSystem</text>
</g>
<!-- \\CurrentPage -->
<g id="node28" class="node"><title>\\CurrentPage</title>
<polygon fill="none" stroke="black" points="978,-1924 888,-1924 888,-1888 978,-1888 978,-1924"/>
<text text-anchor="middle" x="933" y="-1903.1" font-family="Courier,monospace" font-size="11.00">CurrentPage</text>
</g>
<!-- \\CurrentFrame -->
<g id="node29" class="node"><title>\\CurrentFrame</title>
<polygon fill="none" stroke="black" points="982,-1870 884,-1870 884,-1834 982,-1834 982,-1870"/>
<text text-anchor="middle" x="933" y="-1849.1" font-family="Courier,monospace" font-size="11.00">CurrentFrame</text>
</g>
<!-- \\TokenHelper -->
<g id="node30" class="node"><title>\\TokenHelper</title>
<polygon fill="none" stroke="black" points="978,-628 888,-628 888,-592 978,-592 978,-628"/>
<text text-anchor="middle" x="933" y="-607.1" font-family="Courier,monospace" font-size="11.00">TokenHelper</text>
</g>
<!-- \\FormHelper -->
<g id="node90" class="node"><title>\\FormHelper</title>
<ellipse fill="none" stroke="black" cx="640" cy="-180" rx="70.9184" ry="18.3848"/>
<text text-anchor="middle" x="640" y="-176.4" font-family="Times Roman,serif" font-size="14.00" fill="gray">\FormHelper</text>
</g>
<!-- \\TokenHelper&#45;&gt;\\FormHelper -->
<g id="edge47" class="edge"><title>\\TokenHelper&#45;&gt;\\FormHelper</title>
<path fill="none" stroke="black" d="M887.419,-608.661C867.167,-605.676 844.645,-598.664 830,-583 713.795,-458.716 876.143,-329.443 758,-207 747.863,-196.494 734.538,-189.702 720.502,-185.381"/>
<polygon fill="none" stroke="black" points="721.266,-181.962 710.702,-182.77 719.464,-188.726 721.266,-181.962"/>
</g>
<!-- \\SingletonViewBlockHtmlHelper -->
<g id="node31" class="node"><title>\\SingletonViewBlockHtmlHelper</title>
<polygon fill="none" stroke="black" points="1036,-520 830,-520 830,-484 1036,-484 1036,-520"/>
<text text-anchor="middle" x="933" y="-499.1" font-family="Courier,monospace" font-size="11.00">SingletonViewBlockHtmlHelper</text>
</g>
<!-- \\HtmlHelper -->
<g id="node92" class="node"><title>\\HtmlHelper</title>
<ellipse fill="none" stroke="black" cx="640" cy="-126" rx="67.1751" ry="18.3848"/>
<text text-anchor="middle" x="640" y="-122.4" font-family="Times Roman,serif" font-size="14.00" fill="gray">HtmlHelper</text>
</g>
<!-- \\SingletonViewBlockHtmlHelper&#45;&gt;\\HtmlHelper -->
<g id="edge49" class="edge"><title>\\SingletonViewBlockHtmlHelper&#45;&gt;\\HtmlHelper</title>
<path fill="none" stroke="black" d="M840.591,-483.849C836.772,-481.261 833.208,-478.327 830,-475 728.21,-369.437 861.436,-256.95 758,-153 746.874,-141.819 732.128,-134.873 716.842,-130.64"/>
<polygon fill="none" stroke="black" points="717.29,-127.149 706.751,-128.233 715.666,-133.958 717.29,-127.149"/>
</g>
<!-- \\FormInputHelper -->
<g id="node32" class="node"><title>\\FormInputHelper</title>
<polygon fill="none" stroke="black" points="992,-1168 874,-1168 874,-1132 992,-1132 992,-1168"/>
<text text-anchor="middle" x="933" y="-1147.1" font-family="Courier,monospace" font-size="11.00">FormInputHelper</text>
</g>
<!-- \\FormInputHelper&#45;&gt;\\AppHelper -->
<g id="edge51" class="edge"><title>\\FormInputHelper&#45;&gt;\\AppHelper</title>
<path fill="none" stroke="black" d="M873.801,-1157.6C858.513,-1161.6 842.78,-1167.7 830,-1177 779.522,-1213.73 688.866,-1380.47 654.1,-1446.73"/>
<polygon fill="none" stroke="black" points="650.916,-1445.27 649.388,-1455.75 657.121,-1448.51 650.916,-1445.27"/>
</g>
<!-- \\WizardHelper -->
<g id="node33" class="node"><title>\\WizardHelper</title>
<polygon fill="none" stroke="black" points="982,-2032 884,-2032 884,-1996 982,-1996 982,-2032"/>
<text text-anchor="middle" x="933" y="-2011.1" font-family="Courier,monospace" font-size="11.00">WizardHelper</text>
</g>
<!-- \\WizardHelper&#45;&gt;\\AppHelper -->
<g id="edge53" class="edge"><title>\\WizardHelper&#45;&gt;\\AppHelper</title>
<path fill="none" stroke="black" d="M883.836,-2010.71C865.056,-2007.18 844.657,-2000.28 830,-1987 680.846,-1851.84 648.432,-1588.87 641.693,-1502.35"/>
<polygon fill="none" stroke="black" points="645.174,-1501.96 640.962,-1492.24 638.192,-1502.47 645.174,-1501.96"/>
</g>
<!-- \\DisplayNumberHelper -->
<g id="node34" class="node"><title>\\DisplayNumberHelper</title>
<polygon fill="none" stroke="black" points="1005,-1816 861,-1816 861,-1780 1005,-1780 1005,-1816"/>
<text text-anchor="middle" x="933" y="-1795.1" font-family="Courier,monospace" font-size="11.00">DisplayNumberHelper</text>
</g>
<!-- \\DisplayNumberHelper&#45;&gt;\\AppHelper -->
<g id="edge55" class="edge"><title>\\DisplayNumberHelper&#45;&gt;\\AppHelper</title>
<path fill="none" stroke="black" d="M860.361,-1786.32C849.565,-1782.56 839.044,-1777.58 830,-1771 779.522,-1734.27 688.866,-1567.53 654.1,-1501.27"/>
<polygon fill="none" stroke="black" points="657.121,-1499.49 649.388,-1492.25 650.916,-1502.73 657.121,-1499.49"/>
</g>
<!-- \\MessageFlashHelper -->
<g id="node35" class="node"><title>\\MessageFlashHelper</title>
<polygon fill="none" stroke="black" points="1002,-1762 864,-1762 864,-1726 1002,-1726 1002,-1762"/>
<text text-anchor="middle" x="933" y="-1741.1" font-family="Courier,monospace" font-size="11.00">MessageFlashHelper</text>
</g>
<!-- \\MessageFlashHelper&#45;&gt;\\AppHelper -->
<g id="edge57" class="edge"><title>\\MessageFlashHelper&#45;&gt;\\AppHelper</title>
<path fill="none" stroke="black" d="M863.854,-1732.54C851.977,-1728.75 840.194,-1723.7 830,-1717 744.042,-1660.46 680.094,-1551.93 653.531,-1501.28"/>
<polygon fill="none" stroke="black" points="656.562,-1499.52 648.865,-1492.24 650.341,-1502.73 656.562,-1499.52"/>
</g>
<!-- \\DateHelper -->
<g id="node36" class="node"><title>\\DateHelper</title>
<polygon fill="none" stroke="black" points="975,-1708 891,-1708 891,-1672 975,-1672 975,-1708"/>
<text text-anchor="middle" x="933" y="-1687.1" font-family="Courier,monospace" font-size="11.00">DateHelper</text>
</g>
<!-- \\DateHelper&#45;&gt;\\AppHelper -->
<g id="edge59" class="edge"><title>\\DateHelper&#45;&gt;\\AppHelper</title>
<path fill="none" stroke="black" d="M890.98,-1684.16C871.507,-1680.19 848.614,-1673.65 830,-1663 755.721,-1620.51 690.104,-1541.52 659.041,-1500.41"/>
<polygon fill="none" stroke="black" points="661.73,-1498.16 652.946,-1492.24 656.119,-1502.35 661.73,-1498.16"/>
</g>
<!-- \\SnsButtonHelper -->
<g id="node37" class="node"><title>\\SnsButtonHelper</title>
<polygon fill="none" stroke="black" points="992,-1654 874,-1654 874,-1618 992,-1618 992,-1654"/>
<text text-anchor="middle" x="933" y="-1633.1" font-family="Courier,monospace" font-size="11.00">SnsButtonHelper</text>
</g>
<!-- \\SnsButtonHelper&#45;&gt;\\AppHelper -->
<g id="edge61" class="edge"><title>\\SnsButtonHelper&#45;&gt;\\AppHelper</title>
<path fill="none" stroke="black" d="M873.967,-1624.43C859.237,-1620.49 843.734,-1615.42 830,-1609 767.211,-1579.67 703.394,-1529.16 668.029,-1498.94"/>
<polygon fill="none" stroke="black" points="669.944,-1495.97 660.087,-1492.08 665.369,-1501.26 669.944,-1495.97"/>
</g>
<!-- \\BackToHelper -->
<g id="node38" class="node"><title>\\BackToHelper</title>
<polygon fill="none" stroke="black" points="982,-1600 884,-1600 884,-1564 982,-1564 982,-1600"/>
<text text-anchor="middle" x="933" y="-1579.1" font-family="Courier,monospace" font-size="11.00">BackToHelper</text>
</g>
<!-- \\BackToHelper&#45;&gt;\\AppHelper -->
<g id="edge63" class="edge"><title>\\BackToHelper&#45;&gt;\\AppHelper</title>
<path fill="none" stroke="black" d="M883.836,-1570.68C866.643,-1566.31 847.316,-1560.92 830,-1555 780.27,-1537.98 725.199,-1513.9 687.206,-1496.42"/>
<polygon fill="none" stroke="black" points="688.474,-1493.15 677.929,-1492.12 685.534,-1499.5 688.474,-1493.15"/>
</g>
<!-- \\NetCommonsHtmlHelper -->
<g id="node39" class="node"><title>\\NetCommonsHtmlHelper</title>
<polygon fill="none" stroke="black" points="1009,-1546 857,-1546 857,-1510 1009,-1510 1009,-1546"/>
<text text-anchor="middle" x="933" y="-1525.1" font-family="Courier,monospace" font-size="11.00">NetCommonsHtmlHelper</text>
</g>
<!-- \\NetCommonsHtmlHelper&#45;&gt;\\AppHelper -->
<g id="edge65" class="edge"><title>\\NetCommonsHtmlHelper&#45;&gt;\\AppHelper</title>
<path fill="none" stroke="black" d="M856.783,-1513.95C803.659,-1504.16 734.376,-1491.39 688.603,-1482.96"/>
<polygon fill="none" stroke="black" points="689.107,-1479.49 678.638,-1481.12 687.838,-1486.38 689.107,-1479.49"/>
</g>
<!-- \\ButtonHelper -->
<g id="node40" class="node"><title>\\ButtonHelper</title>
<polygon fill="none" stroke="black" points="982,-574 884,-574 884,-538 982,-538 982,-574"/>
<text text-anchor="middle" x="933" y="-553.1" font-family="Courier,monospace" font-size="11.00">ButtonHelper</text>
</g>
<!-- \\ButtonHelper&#45;&gt;\\FormHelper -->
<g id="edge67" class="edge"><title>\\ButtonHelper&#45;&gt;\\FormHelper</title>
<path fill="none" stroke="black" d="M883.953,-553.864C864.736,-550.553 843.987,-543.505 830,-529 728.21,-423.437 861.436,-310.95 758,-207 747.763,-196.712 734.461,-190.009 720.493,-185.707"/>
<polygon fill="none" stroke="black" points="721.312,-182.303 710.747,-183.098 719.501,-189.065 721.312,-182.303"/>
</g>
<!-- \\ComposerHelper -->
<g id="node41" class="node"><title>\\ComposerHelper</title>
<polygon fill="none" stroke="black" points="988,-1492 878,-1492 878,-1456 988,-1456 988,-1492"/>
<text text-anchor="middle" x="933" y="-1471.1" font-family="Courier,monospace" font-size="11.00">ComposerHelper</text>
</g>
<!-- \\ComposerHelper&#45;&gt;\\AppHelper -->
<g id="edge69" class="edge"><title>\\ComposerHelper&#45;&gt;\\AppHelper</title>
<path fill="none" stroke="black" d="M877.199,-1474C822.832,-1474 740.989,-1474 689.05,-1474"/>
<polygon fill="none" stroke="black" points="688.759,-1470.5 678.759,-1474 688.759,-1477.5 688.759,-1470.5"/>
</g>
<!-- \\LinkButtonHelper -->
<g id="node42" class="node"><title>\\LinkButtonHelper</title>
<polygon fill="none" stroke="black" points="995,-682 871,-682 871,-646 995,-646 995,-682"/>
<text text-anchor="middle" x="933" y="-661.1" font-family="Courier,monospace" font-size="11.00">LinkButtonHelper</text>
</g>
<!-- \\LinkButtonHelper&#45;&gt;\\FormHelper -->
<g id="edge71" class="edge"><title>\\LinkButtonHelper&#45;&gt;\\FormHelper</title>
<path fill="none" stroke="black" d="M870.442,-659.412C855.337,-655.395 840.535,-648.534 830,-637 699.318,-493.927 890.914,-348.002 758,-207 747.986,-196.377 734.718,-189.531 720.698,-185.194"/>
<polygon fill="none" stroke="black" points="721.468,-181.777 710.904,-182.577 719.661,-188.54 721.468,-181.777"/>
</g>
<!-- \\NetCommonsTimeHelper -->
<g id="node43" class="node"><title>\\NetCommonsTimeHelper</title>
<polygon fill="none" stroke="black" points="1009,-1438 857,-1438 857,-1402 1009,-1402 1009,-1438"/>
<text text-anchor="middle" x="933" y="-1417.1" font-family="Courier,monospace" font-size="11.00">NetCommonsTimeHelper</text>
</g>
<!-- \\NetCommonsTimeHelper&#45;&gt;\\AppHelper -->
<g id="edge73" class="edge"><title>\\NetCommonsTimeHelper&#45;&gt;\\AppHelper</title>
<path fill="none" stroke="black" d="M856.783,-1434.05C803.659,-1443.84 734.376,-1456.61 688.603,-1465.04"/>
<polygon fill="none" stroke="black" points="687.838,-1461.62 678.638,-1466.88 689.107,-1468.51 687.838,-1461.62"/>
</g>
<!-- \\NetCommonsFormHelper -->
<g id="node44" class="node"><title>\\NetCommonsFormHelper</title>
<polygon fill="none" stroke="black" points="1009,-1384 857,-1384 857,-1348 1009,-1348 1009,-1384"/>
<text text-anchor="middle" x="933" y="-1363.1" font-family="Courier,monospace" font-size="11.00">NetCommonsFormHelper</text>
</g>
<!-- \\NetCommonsFormHelper&#45;&gt;\\AppHelper -->
<g id="edge75" class="edge"><title>\\NetCommonsFormHelper&#45;&gt;\\AppHelper</title>
<path fill="none" stroke="black" d="M858.903,-1384.02C849.116,-1386.81 839.27,-1389.83 830,-1393 780.27,-1410.02 725.199,-1434.1 687.206,-1451.58"/>
<polygon fill="none" stroke="black" points="685.534,-1448.5 677.929,-1455.88 688.474,-1454.85 685.534,-1448.5"/>
</g>
<!-- \\TitleIconHelper -->
<g id="node45" class="node"><title>\\TitleIconHelper</title>
<polygon fill="none" stroke="black" points="992,-1330 874,-1330 874,-1294 992,-1294 992,-1330"/>
<text text-anchor="middle" x="933" y="-1309.1" font-family="Courier,monospace" font-size="11.00">TitleIconHelper</text>
</g>
<!-- \\TitleIconHelper&#45;&gt;\\AppHelper -->
<g id="edge77" class="edge"><title>\\TitleIconHelper&#45;&gt;\\AppHelper</title>
<path fill="none" stroke="black" d="M873.967,-1323.57C859.237,-1327.51 843.734,-1332.58 830,-1339 767.211,-1368.33 703.394,-1418.84 668.029,-1449.06"/>
<polygon fill="none" stroke="black" points="665.369,-1446.74 660.087,-1455.92 669.944,-1452.03 665.369,-1446.74"/>
</g>
<!-- \\DatetimePickerHelper -->
<g id="node46" class="node"><title>\\DatetimePickerHelper</title>
<polygon fill="none" stroke="black" points="1009,-1276 857,-1276 857,-1240 1009,-1240 1009,-1276"/>
<text text-anchor="middle" x="933" y="-1255.1" font-family="Courier,monospace" font-size="11.00">DatetimePickerHelper</text>
</g>
<!-- \\DatetimePickerHelper&#45;&gt;\\AppHelper -->
<g id="edge79" class="edge"><title>\\DatetimePickerHelper&#45;&gt;\\AppHelper</title>
<path fill="none" stroke="black" d="M856.919,-1273.02C847.548,-1276.28 838.344,-1280.23 830,-1285 755.721,-1327.49 690.104,-1406.48 659.041,-1447.59"/>
<polygon fill="none" stroke="black" points="656.119,-1445.65 652.946,-1455.76 661.73,-1449.84 656.119,-1445.65"/>
</g>
<!-- \\Model -->
<g id="node109" class="node"><title>\\Model</title>
<ellipse fill="none" stroke="black" cx="82" cy="-2513" rx="43.8406" ry="18.3848"/>
<text text-anchor="middle" x="82" y="-2509.4" font-family="Times Roman,serif" font-size="14.00" fill="gray">\Model</text>
</g>
<!-- \\NetCommonsAppModel&#45;&gt;\\Model -->
<g id="edge81" class="edge"><title>\\NetCommonsAppModel&#45;&gt;\\Model</title>
<path fill="none" stroke="black" d="M273.742,-2513C230.675,-2513 176.099,-2513 136.195,-2513"/>
<polygon fill="none" stroke="black" points="136.125,-2509.5 126.125,-2513 136.125,-2516.5 136.125,-2509.5"/>
</g>
<!-- \\OriginalKeyBehavior -->
<g id="node48" class="node"><title>\\OriginalKeyBehavior</title>
<polygon fill="none" stroke="black" points="1005,-466 861,-466 861,-430 1005,-430 1005,-466"/>
<text text-anchor="middle" x="933" y="-445.1" font-family="Courier,monospace" font-size="11.00">OriginalKeyBehavior</text>
</g>
<!-- \\ModelBehavior -->
<g id="node111" class="node"><title>\\ModelBehavior</title>
<ellipse fill="none" stroke="black" cx="640" cy="-72" rx="86.9741" ry="18.3848"/>
<text text-anchor="middle" x="640" y="-68.4" font-family="Times Roman,serif" font-size="14.00" fill="gray">\ModelBehavior</text>
</g>
<!-- \\OriginalKeyBehavior&#45;&gt;\\ModelBehavior -->
<g id="edge83" class="edge"><title>\\OriginalKeyBehavior&#45;&gt;\\ModelBehavior</title>
<path fill="none" stroke="black" d="M860.477,-439.783C849.086,-435.648 838.341,-429.65 830,-421 728.21,-315.437 861.436,-202.95 758,-99 750.53,-91.4927 741.428,-85.8948 731.627,-81.7455"/>
<polygon fill="none" stroke="black" points="732.638,-78.3879 722.045,-78.1961 730.207,-84.952 732.638,-78.3879"/>
</g>
<!-- \\TrackableBehavior -->
<g id="node49" class="node"><title>\\TrackableBehavior</title>
<polygon fill="none" stroke="black" points="998,-412 868,-412 868,-376 998,-376 998,-412"/>
<text text-anchor="middle" x="933" y="-391.1" font-family="Courier,monospace" font-size="11.00">TrackableBehavior</text>
</g>
<!-- \\TrackableBehavior&#45;&gt;\\ModelBehavior -->
<g id="edge85" class="edge"><title>\\TrackableBehavior&#45;&gt;\\ModelBehavior</title>
<path fill="none" stroke="black" d="M867.424,-387.656C853.61,-383.559 840.161,-377.1 830,-367 742.524,-280.055 846.831,-184.56 758,-99 750.315,-91.5978 741.036,-86.0697 731.099,-81.9636"/>
<polygon fill="none" stroke="black" points="731.994,-78.5653 721.4,-78.4477 729.608,-85.1462 731.994,-78.5653"/>
</g>
<!-- \\YAExceptionRenderer -->
<g id="node50" class="node"><title>\\YAExceptionRenderer</title>
<polygon fill="none" stroke="black" points="1005,-358 861,-358 861,-322 1005,-322 1005,-358"/>
<text text-anchor="middle" x="933" y="-337.1" font-family="Courier,monospace" font-size="11.00">YAExceptionRenderer</text>
</g>
<!-- \\ExceptionRenderer -->
<g id="node114" class="node"><title>\\ExceptionRenderer</title>
<ellipse fill="none" stroke="black" cx="640" cy="-18" rx="118.087" ry="18.3848"/>
<text text-anchor="middle" x="640" y="-14.4" font-family="Times Roman,serif" font-size="14.00" fill="gray">TEHxceptionRenderer</text>
</g>
<!-- \\YAExceptionRenderer&#45;&gt;\\ExceptionRenderer -->
<g id="edge87" class="edge"><title>\\YAExceptionRenderer&#45;&gt;\\ExceptionRenderer</title>
<path fill="none" stroke="black" d="M927.866,-321.986C912.069,-269.992 859.034,-118.69 758,-45 751.988,-40.6153 745.382,-36.927 738.462,-33.8264"/>
<polygon fill="none" stroke="black" points="739.438,-30.4465 728.855,-29.9522 736.82,-36.9384 739.438,-30.4465"/>
</g>
<!-- \\NetCommonsMigration -->
<g id="node51" class="node"><title>\\NetCommonsMigration</title>
<polygon fill="none" stroke="black" points="712,-683 568,-683 568,-647 712,-647 712,-683"/>
<text text-anchor="middle" x="640" y="-662.1" font-family="Courier,monospace" font-size="11.00">NetCommonsMigration</text>
</g>
<!-- \\CakeMigration -->
<g id="node116" class="node"><title>\\CakeMigration</title>
<ellipse fill="none" stroke="black" cx="343" cy="-142" rx="84.8528" ry="18.3848"/>
<text text-anchor="middle" x="343" y="-138.4" font-family="Times Roman,serif" font-size="14.00" fill="gray">\CakeMigration</text>
</g>
<!-- \\NetCommonsMigration&#45;&gt;\\CakeMigration -->
<g id="edge89" class="edge"><title>\\NetCommonsMigration&#45;&gt;\\CakeMigration</title>
<path fill="none" stroke="black" d="M567.348,-665.399C550.467,-662.024 533.961,-655.35 522,-643 375.285,-491.514 588.462,-333.064 450,-174 443.102,-166.076 434.331,-160.072 424.788,-155.532"/>
<polygon fill="none" stroke="black" points="426.014,-152.251 415.439,-151.612 423.308,-158.706 426.014,-152.251"/>
</g>
<!-- \\SecuritySettingsController -->
<g id="node52" class="node"><title>\\SecuritySettingsController</title>
<polygon fill="none" stroke="black" points="1029,-2410 837,-2410 837,-2374 1029,-2374 1029,-2410"/>
<text text-anchor="middle" x="933" y="-2389.1" font-family="Courier,monospace" font-size="11.00">SecuritySettingsController</text>
</g>
<!-- \\SystemManagerAppController -->
<g id="node53" class="node"><title>\\SystemManagerAppController</title>
<polygon fill="none" stroke="black" points="736,-2329 544,-2329 544,-2293 736,-2293 736,-2329"/>
<text text-anchor="middle" x="640" y="-2308.1" font-family="Courier,monospace" font-size="11.00">SystemManagerAppController</text>
</g>
<!-- \\SecuritySettingsController&#45;&gt;\\SystemManagerAppController -->
<g id="edge91" class="edge"><title>\\SecuritySettingsController&#45;&gt;\\SystemManagerAppController</title>
<path fill="none" stroke="black" d="M863.415,-2373.97C852.231,-2371.01 840.789,-2367.95 830,-2365 790.993,-2354.35 747.61,-2342.05 712.158,-2331.88"/>
<polygon fill="none" stroke="black" points="712.957,-2328.47 702.379,-2329.08 711.025,-2335.2 712.957,-2328.47"/>
</g>
<!-- \\SystemManagerAppController&#45;&gt;\\AppController -->
<g id="edge93" class="edge"><title>\\SystemManagerAppController&#45;&gt;\\AppController</title>
<path fill="none" stroke="black" d="M614.416,-2292.9C588.247,-2273.28 547.863,-2239.81 522,-2203 426.903,-2067.65 369.334,-1874.01 350.164,-1802.2"/>
<polygon fill="none" stroke="black" points="353.444,-1800.91 347.516,-1792.13 346.674,-1802.69 353.444,-1800.91"/>
</g>
<!-- \\MailServerController -->
<g id="node54" class="node"><title>\\MailServerController</title>
<polygon fill="none" stroke="black" points="1009,-2356 857,-2356 857,-2320 1009,-2320 1009,-2356"/>
<text text-anchor="middle" x="933" y="-2335.1" font-family="Courier,monospace" font-size="11.00">MailServerController</text>
</g>
<!-- \\MailServerController&#45;&gt;\\SystemManagerAppController -->
<g id="edge95" class="edge"><title>\\MailServerController&#45;&gt;\\SystemManagerAppController</title>
<path fill="none" stroke="black" d="M856.783,-2330.98C823.073,-2327.87 782.856,-2324.16 746.269,-2320.79"/>
<polygon fill="none" stroke="black" points="746.333,-2317.28 736.054,-2319.85 745.691,-2324.25 746.333,-2317.28"/>
</g>
<!-- \\DeveloperController -->
<g id="node55" class="node"><title>\\DeveloperController</title>
<polygon fill="none" stroke="black" points="1005,-2302 861,-2302 861,-2266 1005,-2266 1005,-2302"/>
<text text-anchor="middle" x="933" y="-2281.1" font-family="Courier,monospace" font-size="11.00">DeveloperController</text>
</g>
<!-- \\DeveloperController&#45;&gt;\\SystemManagerAppController -->
<g id="edge97" class="edge"><title>\\DeveloperController&#45;&gt;\\SystemManagerAppController</title>
<path fill="none" stroke="black" d="M860.197,-2290.71C825.813,-2293.88 784.107,-2297.72 746.278,-2301.21"/>
<polygon fill="none" stroke="black" points="745.875,-2297.73 736.238,-2302.13 746.517,-2304.7 745.875,-2297.73"/>
</g>
<!-- \\WebServerController -->
<g id="node56" class="node"><title>\\WebServerController</title>
<polygon fill="none" stroke="black" points="1005,-2248 861,-2248 861,-2212 1005,-2212 1005,-2248"/>
<text text-anchor="middle" x="933" y="-2227.1" font-family="Courier,monospace" font-size="11.00">WebServerController</text>
</g>
<!-- \\WebServerController&#45;&gt;\\SystemManagerAppController -->
<g id="edge99" class="edge"><title>\\WebServerController&#45;&gt;\\SystemManagerAppController</title>
<path fill="none" stroke="black" d="M863.415,-2248.03C852.231,-2250.99 840.789,-2254.05 830,-2257 790.993,-2267.65 747.61,-2279.95 712.158,-2290.12"/>
<polygon fill="none" stroke="black" points="711.025,-2286.8 702.379,-2292.92 712.957,-2293.53 711.025,-2286.8"/>
</g>
<!-- \\SystemManagerController -->
<g id="node57" class="node"><title>\\SystemManagerController</title>
<polygon fill="none" stroke="black" points="1019,-2464 847,-2464 847,-2428 1019,-2428 1019,-2464"/>
<text text-anchor="middle" x="933" y="-2443.1" font-family="Courier,monospace" font-size="11.00">SystemManagerController</text>
</g>
<!-- \\SystemManagerController&#45;&gt;\\SystemManagerAppController -->
<g id="edge101" class="edge"><title>\\SystemManagerController&#45;&gt;\\SystemManagerAppController</title>
<path fill="none" stroke="black" d="M855.231,-2427.95C846.611,-2425.26 838.047,-2422.28 830,-2419 773.066,-2395.82 712.097,-2358.73 675.004,-2334.61"/>
<polygon fill="none" stroke="black" points="676.839,-2331.63 666.557,-2329.07 673.002,-2337.48 676.839,-2331.63"/>
</g>
<!-- \\SystemManagerHelper -->
<g id="node58" class="node"><title>\\SystemManagerHelper</title>
<polygon fill="none" stroke="black" points="1005,-1222 861,-1222 861,-1186 1005,-1186 1005,-1222"/>
<text text-anchor="middle" x="933" y="-1201.1" font-family="Courier,monospace" font-size="11.00">SystemManagerHelper</text>
</g>
<!-- \\SystemManagerHelper&#45;&gt;\\AppHelper -->
<g id="edge103" class="edge"><title>\\SystemManagerHelper&#45;&gt;\\AppHelper</title>
<path fill="none" stroke="black" d="M860.349,-1216.62C849.672,-1220.26 839.19,-1224.96 830,-1231 744.042,-1287.54 680.094,-1396.07 653.531,-1446.72"/>
<polygon fill="none" stroke="black" points="650.341,-1445.27 648.865,-1455.76 656.562,-1448.48 650.341,-1445.27"/>
</g>
<!-- \\SystemManagerAppModel -->
<g id="node59" class="node"><title>\\SystemManagerAppModel</title>
<polygon fill="none" stroke="black" points="1012,-2518 854,-2518 854,-2482 1012,-2482 1012,-2518"/>
<text text-anchor="middle" x="933" y="-2497.1" font-family="Courier,monospace" font-size="11.00">SystemManagerAppModel</text>
</g>
<!-- \\SystemManagerAppModel&#45;&gt;\\AppModel -->
<g id="edge105" class="edge"><title>\\SystemManagerAppModel&#45;&gt;\\AppModel</title>
<path fill="none" stroke="black" d="M853.71,-2503.52C799.937,-2505.9 730.74,-2508.97 685.886,-2510.96"/>
<polygon fill="none" stroke="black" points="685.701,-2507.47 675.866,-2511.41 686.011,-2514.46 685.701,-2507.47"/>
</g>
<!-- \\PluginRecords -->
<g id="node60" class="node"><title>\\PluginRecords</title>
<polygon fill="none" stroke="black" points="985,-1006 881,-1006 881,-970 985,-970 985,-1006"/>
<text text-anchor="middle" x="933" y="-985.1" font-family="Courier,monospace" font-size="11.00">PluginRecords</text>
</g>
<!-- \\PluginRecords&#45;&gt;\\NetCommonsMigration -->
<g id="edge107" class="edge"><title>\\PluginRecords&#45;&gt;\\NetCommonsMigration</title>
<path fill="none" stroke="black" d="M880.74,-982.068C863.376,-978.166 844.732,-971.702 830,-961 732.157,-889.923 671.99,-751.671 649.761,-692.716"/>
<polygon fill="none" stroke="black" points="653.034,-691.475 646.284,-683.308 646.468,-693.901 653.034,-691.475"/>
</g>
</g>
</svg>
