<?xml version="1.0" encoding="UTF-8" standalone="no"?>
<!DOCTYPE svg PUBLIC "-//W3C//DTD SVG 1.1//EN"
 "http://www.w3.org/Graphics/SVG/1.1/DTD/svg11.dtd">
<!-- Generated by graphviz version 2.26.3 (20100126.1600)
 -->
<!-- Title: G Pages: 1 -->
<svg width="1060pt" height="2996pt"
 viewBox="0.00 0.00 1060.00 2996.00" xmlns="http://www.w3.org/2000/svg" xmlns:xlink="http://www.w3.org/1999/xlink">
<g id="graph1" class="graph" transform="scale(1 1) rotate(0) translate(4 2992)">
<title>G</title>
<polygon fill="white" stroke="white" points="-4,5 -4,-2992 1057,-2992 1057,5 -4,5"/>
<g id="graph2" class="cluster"><title>cluster_Global</title>
<polyline fill="none" stroke="gray" points="264,-314 1032,-314 "/>
<path fill="none" stroke="gray" d="M1032,-314C1038,-314 1044,-320 1044,-326"/>
<polyline fill="none" stroke="gray" points="1044,-326 1044,-2968 "/>
<path fill="none" stroke="gray" d="M1044,-2968C1044,-2974 1038,-2980 1032,-2980"/>
<polyline fill="none" stroke="gray" points="1032,-2980 264,-2980 "/>
<path fill="none" stroke="gray" d="M264,-2980C258,-2980 252,-2974 252,-2968"/>
<polyline fill="none" stroke="gray" points="252,-2968 252,-326 "/>
<path fill="none" stroke="gray" d="M252,-326C252,-320 258,-314 264,-314"/>
<text text-anchor="middle" x="648" y="-2966.1" font-family="Times Roman,serif" font-size="11.00" fill="gray">Global</text>
</g>
<!-- \\AppController -->
<g id="node2" class="node"><title>\\AppController</title>
<polygon fill="none" stroke="black" points="395,-1913 291,-1913 291,-1877 395,-1877 395,-1913"/>
<text text-anchor="middle" x="343" y="-1892.1" font-family="Courier,monospace" font-size="11.00">AppController</text>
</g>
<!-- \\Controller -->
<g id="node65" class="node"><title>\\Controller</title>
<ellipse fill="none" stroke="black" cx="82" cy="-739" rx="63.1385" ry="18.3848"/>
<text text-anchor="middle" x="82" y="-735.4" font-family="Times Roman,serif" font-size="14.00" fill="gray">\Controller</text>
</g>
<!-- \\AppController&#45;&gt;\\Controller -->
<g id="edge3" class="edge"><title>\\AppController&#45;&gt;\\Controller</title>
<path fill="none" stroke="black" d="M290.808,-1896.42C271.016,-1894.16 249.919,-1887.9 236,-1873 157.727,-1789.23 95.4096,-934.67 83.9056,-767.335"/>
<polygon fill="none" stroke="black" points="87.3808,-766.853 83.2075,-757.114 80.3971,-767.33 87.3808,-766.853"/>
</g>
<!-- \\AppModel -->
<g id="node3" class="node"><title>\\AppModel</title>
<polygon fill="none" stroke="black" points="675,-2693 605,-2693 605,-2657 675,-2657 675,-2693"/>
<text text-anchor="middle" x="640" y="-2672.1" font-family="Courier,monospace" font-size="11.00">AppModel</text>
</g>
<!-- \\NetCommonsAppModel -->
<g id="node50" class="node"><title>\\NetCommonsAppModel</title>
<polygon fill="none" stroke="black" points="412,-2693 274,-2693 274,-2657 412,-2657 412,-2693"/>
<text text-anchor="middle" x="343" y="-2672.1" font-family="Courier,monospace" font-size="11.00">NetCommonsAppModel</text>
</g>
<!-- \\AppModel&#45;&gt;\\NetCommonsAppModel -->
<g id="edge5" class="edge"><title>\\AppModel&#45;&gt;\\NetCommonsAppModel</title>
<path fill="none" stroke="black" d="M604.47,-2675C559.713,-2675 481.497,-2675 422.241,-2675"/>
<polygon fill="none" stroke="black" points="422.157,-2671.5 412.157,-2675 422.157,-2678.5 422.157,-2671.5"/>
</g>
<!-- \\DatabaseConfiguration -->
<g id="node4" class="node"><title>\\DatabaseConfiguration</title>
<polygon fill="none" stroke="black" points="1012,-2680 854,-2680 854,-2644 1012,-2644 1012,-2680"/>
<text text-anchor="middle" x="933" y="-2659.1" font-family="Courier,monospace" font-size="11.00">DatabaseConfiguration</text>
</g>
<!-- \\DatabaseConfiguration&#45;&gt;\\AppModel -->
<g id="edge7" class="edge"><title>\\DatabaseConfiguration&#45;&gt;\\AppModel</title>
<path fill="none" stroke="black" d="M853.71,-2665.52C799.937,-2667.9 730.74,-2670.97 685.886,-2672.96"/>
<polygon fill="none" stroke="black" points="685.701,-2669.47 675.866,-2673.41 686.011,-2676.46 685.701,-2669.47"/>
</g>
<!-- \\AppHelper -->
<g id="node5" class="node"><title>\\AppHelper</title>
<polygon fill="none" stroke="black" points="678,-1627 602,-1627 602,-1591 678,-1591 678,-1627"/>
<text text-anchor="middle" x="640" y="-1606.1" font-family="Courier,monospace" font-size="11.00">AppHelper</text>
</g>
<!-- \\Helper -->
<g id="node69" class="node"><title>\\Helper</title>
<ellipse fill="none" stroke="black" cx="343" cy="-288" rx="43.8406" ry="18.3848"/>
<text text-anchor="middle" x="343" y="-284.4" font-family="Times Roman,serif" font-size="14.00" fill="gray">Helper</text>
</g>
<!-- \\AppHelper&#45;&gt;\\Helper -->
<g id="edge9" class="edge"><title>\\AppHelper&#45;&gt;\\Helper</title>
<path fill="none" stroke="black" d="M633.23,-1590.75C612.58,-1534.24 550.092,-1356.7 522,-1204 503.969,-1105.99 516.024,-384.645 450,-310 436.732,-295 416.205,-288.631 396.665,-286.325"/>
<polygon fill="none" stroke="black" points="396.841,-282.828 386.58,-285.466 396.247,-289.803 396.841,-282.828"/>
</g>
<!-- \\NetCommonsDeleteTest -->
<g id="node6" class="node"><title>\\NetCommonsDeleteTest</title>
<polygon fill="none" stroke="black" points="1009,-2896 857,-2896 857,-2860 1009,-2860 1009,-2896"/>
<text text-anchor="middle" x="933" y="-2875.1" font-family="Courier,monospace" font-size="11.00">NetCommonsDeleteTest</text>
</g>
<!-- \\NetCommonsModelTestCase -->
<g id="node15" class="node"><title>\\NetCommonsModelTestCase</title>
<polygon fill="none" stroke="black" points="726,-2882 554,-2882 554,-2846 726,-2846 726,-2882"/>
<text text-anchor="middle" x="640" y="-2861.1" font-family="Courier,monospace" font-size="11.00">NetCommonsModelTestCase</text>
</g>
<!-- \\NetCommonsDeleteTest&#45;&gt;\\NetCommonsModelTestCase -->
<g id="edge11" class="edge"><title>\\NetCommonsDeleteTest&#45;&gt;\\NetCommonsModelTestCase</title>
<path fill="none" stroke="black" d="M856.783,-2874.36C820.049,-2872.6 775.59,-2870.48 736.519,-2868.61"/>
<polygon fill="none" stroke="black" points="736.339,-2865.1 726.183,-2868.12 736.004,-2872.09 736.339,-2865.1"/>
</g>
<!-- \\NetCommonsConsoleTestCase -->
<g id="node7" class="node"><title>\\NetCommonsConsoleTestCase</title>
<polygon fill="none" stroke="black" points="732,-2828 548,-2828 548,-2792 732,-2792 732,-2828"/>
<text text-anchor="middle" x="640" y="-2807.1" font-family="Courier,monospace" font-size="11.00">NetCommonsConsoleTestCase</text>
</g>
<!-- \\NetCommonsCakeTestCase -->
<g id="node13" class="node"><title>\\NetCommonsCakeTestCase</title>
<polygon fill="none" stroke="black" points="425,-2828 261,-2828 261,-2792 425,-2792 425,-2828"/>
<text text-anchor="middle" x="343" y="-2807.1" font-family="Courier,monospace" font-size="11.00">NetCommonsCakeTestCase</text>
</g>
<!-- \\NetCommonsConsoleTestCase&#45;&gt;\\NetCommonsCakeTestCase -->
<g id="edge13" class="edge"><title>\\NetCommonsConsoleTestCase&#45;&gt;\\NetCommonsCakeTestCase</title>
<path fill="none" stroke="black" d="M547.249,-2810C511.93,-2810 471.688,-2810 436.316,-2810"/>
<polygon fill="none" stroke="black" points="435.993,-2806.5 425.993,-2810 435.993,-2813.5 435.993,-2806.5"/>
</g>
<!-- \\NetCommonsGetTest -->
<g id="node8" class="node"><title>\\NetCommonsGetTest</title>
<polygon fill="none" stroke="black" points="998,-2842 868,-2842 868,-2806 998,-2806 998,-2842"/>
<text text-anchor="middle" x="933" y="-2821.1" font-family="Courier,monospace" font-size="11.00">NetCommonsGetTest</text>
</g>
<!-- \\NetCommonsGetTest&#45;&gt;\\NetCommonsModelTestCase -->
<g id="edge15" class="edge"><title>\\NetCommonsGetTest&#45;&gt;\\NetCommonsModelTestCase</title>
<path fill="none" stroke="black" d="M867.245,-2832.98C828.582,-2838.25 779.008,-2845.02 736.034,-2850.89"/>
<polygon fill="none" stroke="black" points="735.554,-2847.42 726.12,-2852.24 736.501,-2854.36 735.554,-2847.42"/>
</g>
<!-- \\NetCommonsHelperTestCase -->
<g id="node9" class="node"><title>\\NetCommonsHelperTestCase</title>
<polygon fill="none" stroke="black" points="729,-2774 551,-2774 551,-2738 729,-2738 729,-2774"/>
<text text-anchor="middle" x="640" y="-2753.1" font-family="Courier,monospace" font-size="11.00">NetCommonsHelperTestCase</text>
</g>
<!-- \\NetCommonsHelperTestCase&#45;&gt;\\NetCommonsCakeTestCase -->
<g id="edge17" class="edge"><title>\\NetCommonsHelperTestCase&#45;&gt;\\NetCommonsCakeTestCase</title>
<path fill="none" stroke="black" d="M550.487,-2772.28C514.267,-2778.86 472.456,-2786.46 435.9,-2793.11"/>
<polygon fill="none" stroke="black" points="434.95,-2789.72 425.737,-2794.96 436.202,-2796.61 434.95,-2789.72"/>
</g>
<!-- \\NetCommonsControllerBaseTestCase -->
<g id="node10" class="node"><title>\\NetCommonsControllerBaseTestCase</title>
<polygon fill="none" stroke="black" points="756,-1195 524,-1195 524,-1159 756,-1159 756,-1195"/>
<text text-anchor="middle" x="640" y="-1174.1" font-family="Courier,monospace" font-size="11.00">NetCommonsControllerBaseTestCase</text>
</g>
<!-- \\ControllerTestCase -->
<g id="node75" class="node"><title>\\ControllerTestCase</title>
<ellipse fill="none" stroke="black" cx="343" cy="-234" rx="106.773" ry="18.3848"/>
<text text-anchor="middle" x="343" y="-230.4" font-family="Times Roman,serif" font-size="14.00" fill="gray">\ControllerTestCase</text>
</g>
<!-- \\NetCommonsControllerBaseTestCase&#45;&gt;\\ControllerTestCase -->
<g id="edge19" class="edge"><title>\\NetCommonsControllerBaseTestCase&#45;&gt;\\ControllerTestCase</title>
<path fill="none" stroke="black" d="M569.586,-1158.99C551.302,-1150.93 533.527,-1139.41 522,-1123 411.492,-965.718 574.344,-407.589 450,-261 446.359,-256.708 442.146,-253.046 437.538,-249.925"/>
<polygon fill="none" stroke="black" points="439.261,-246.878 428.857,-244.873 435.74,-252.928 439.261,-246.878"/>
</g>
<!-- \\NetCommonsValidateTest -->
<g id="node11" class="node"><title>\\NetCommonsValidateTest</title>
<polygon fill="none" stroke="black" points="1015,-2788 851,-2788 851,-2752 1015,-2752 1015,-2788"/>
<text text-anchor="middle" x="933" y="-2767.1" font-family="Courier,monospace" font-size="11.00">NetCommonsValidateTest</text>
</g>
<!-- \\NetCommonsValidateTest&#45;&gt;\\NetCommonsModelTestCase -->
<g id="edge21" class="edge"><title>\\NetCommonsValidateTest&#45;&gt;\\NetCommonsModelTestCase</title>
<path fill="none" stroke="black" d="M855.538,-2788.05C846.82,-2790.74 838.149,-2793.73 830,-2797 796.028,-2810.64 792.182,-2823.9 758,-2837 750.894,-2839.72 743.438,-2842.22 735.872,-2844.49"/>
<polygon fill="none" stroke="black" points="734.894,-2841.13 726.248,-2847.25 736.826,-2847.86 734.894,-2841.13"/>
</g>
<!-- \\NetCommonsTestSuite -->
<g id="node12" class="node"><title>\\NetCommonsTestSuite</title>
<polygon fill="none" stroke="black" points="1005,-1006 861,-1006 861,-970 1005,-970 1005,-1006"/>
<text text-anchor="middle" x="933" y="-985.1" font-family="Courier,monospace" font-size="11.00">NetCommonsTestSuite</text>
</g>
<!-- \\CakeTestSuite -->
<g id="node78" class="node"><title>\\CakeTestSuite</title>
<ellipse fill="none" stroke="black" cx="640" cy="-288" rx="84.1457" ry="18.3848"/>
<text text-anchor="middle" x="640" y="-284.4" font-family="Times Roman,serif" font-size="14.00" fill="gray">\CakeTestSuite</text>
</g>
<!-- \\NetCommonsTestSuite&#45;&gt;\\CakeTestSuite -->
<g id="edge23" class="edge"><title>\\NetCommonsTestSuite&#45;&gt;\\CakeTestSuite</title>
<path fill="none" stroke="black" d="M860.447,-980.814C848.845,-976.597 838.034,-970.304 830,-961 639.748,-740.678 956.063,-523.328 758,-310 751.088,-302.555 742.529,-297.148 733.202,-293.272"/>
<polygon fill="none" stroke="black" points="734.245,-289.929 723.65,-289.888 731.907,-296.527 734.245,-289.929"/>
</g>
<!-- \\CakeTestCase -->
<g id="node80" class="node"><title>\\CakeTestCase</title>
<ellipse fill="none" stroke="black" cx="82" cy="-2810" rx="82.0244" ry="18.3848"/>
<text text-anchor="middle" x="82" y="-2806.4" font-family="Times Roman,serif" font-size="14.00" fill="gray">\CakeTestCase</text>
</g>
<!-- \\NetCommonsCakeTestCase&#45;&gt;\\CakeTestCase -->
<g id="edge25" class="edge"><title>\\NetCommonsCakeTestCase&#45;&gt;\\CakeTestCase</title>
<path fill="none" stroke="black" d="M260.418,-2810C233.018,-2810 202.345,-2810 174.263,-2810"/>
<polygon fill="none" stroke="black" points="174.045,-2806.5 164.045,-2810 174.045,-2813.5 174.045,-2806.5"/>
</g>
<!-- \\NetCommonsSaveTest -->
<g id="node14" class="node"><title>\\NetCommonsSaveTest</title>
<polygon fill="none" stroke="black" points="1002,-2950 864,-2950 864,-2914 1002,-2914 1002,-2950"/>
<text text-anchor="middle" x="933" y="-2929.1" font-family="Courier,monospace" font-size="11.00">NetCommonsSaveTest</text>
</g>
<!-- \\NetCommonsSaveTest&#45;&gt;\\NetCommonsModelTestCase -->
<g id="edge27" class="edge"><title>\\NetCommonsSaveTest&#45;&gt;\\NetCommonsModelTestCase</title>
<path fill="none" stroke="black" d="M863.934,-2915.97C823.117,-2906.5 771.046,-2894.41 727.39,-2884.28"/>
<polygon fill="none" stroke="black" points="728.17,-2880.87 717.637,-2882.02 726.587,-2887.69 728.17,-2880.87"/>
</g>
<!-- \\NetCommonsModelTestCase&#45;&gt;\\NetCommonsCakeTestCase -->
<g id="edge29" class="edge"><title>\\NetCommonsModelTestCase&#45;&gt;\\NetCommonsCakeTestCase</title>
<path fill="none" stroke="black" d="M553.696,-2848.31C516.671,-2841.58 473.35,-2833.7 435.65,-2826.85"/>
<polygon fill="none" stroke="black" points="436.151,-2823.38 425.686,-2825.03 434.899,-2830.27 436.151,-2823.38"/>
</g>
<!-- \\NetCommonsControllerTestCase -->
<g id="node16" class="node"><title>\\NetCommonsControllerTestCase</title>
<polygon fill="none" stroke="black" points="1036,-1222 830,-1222 830,-1186 1036,-1186 1036,-1222"/>
<text text-anchor="middle" x="933" y="-1201.1" font-family="Courier,monospace" font-size="11.00">NetCommonsControllerTestCase</text>
</g>
<!-- \\NetCommonsControllerTestCase&#45;&gt;\\NetCommonsControllerBaseTestCase -->
<g id="edge31" class="edge"><title>\\NetCommonsControllerTestCase&#45;&gt;\\NetCommonsControllerBaseTestCase</title>
<path fill="none" stroke="black" d="M829.699,-1194.48C809.289,-1192.6 787.65,-1190.61 766.571,-1188.66"/>
<polygon fill="none" stroke="black" points="766.885,-1185.18 756.606,-1187.75 766.243,-1192.15 766.885,-1185.18"/>
</g>
<!-- \\NetCommonsAppController -->
<g id="node17" class="node"><title>\\NetCommonsAppController</title>
<polygon fill="none" stroke="black" points="726,-1114 554,-1114 554,-1078 726,-1078 726,-1114"/>
<text text-anchor="middle" x="640" y="-1093.1" font-family="Courier,monospace" font-size="11.00">NetCommonsAppController</text>
</g>
<!-- \\NetCommonsAppController&#45;&gt;\\Controller -->
<g id="edge33" class="edge"><title>\\NetCommonsAppController&#45;&gt;\\Controller</title>
<path fill="none" stroke="black" d="M633.148,-1077.85C613.058,-1023.96 553.72,-859.838 522,-719 496.755,-606.91 536.717,-282.376 450,-207 414.108,-175.802 274.016,-178.428 236,-207 152.383,-269.845 99.66,-610.139 85.7159,-710.885"/>
<polygon fill="none" stroke="black" points="82.2311,-710.537 84.3465,-720.919 89.1668,-711.484 82.2311,-710.537"/>
</g>
<!-- \\AssetComponent -->
<g id="node18" class="node"><title>\\AssetComponent</title>
<polygon fill="none" stroke="black" points="988,-898 878,-898 878,-862 988,-862 988,-898"/>
<text text-anchor="middle" x="933" y="-877.1" font-family="Courier,monospace" font-size="11.00">AssetComponent</text>
</g>
<!-- \\Component -->
<g id="node86" class="node"><title>\\Component</title>
<ellipse fill="none" stroke="black" cx="640" cy="-234" rx="70.9184" ry="18.3848"/>
<text text-anchor="middle" x="640" y="-230.4" font-family="Times Roman,serif" font-size="14.00" fill="gray">\Component</text>
</g>
<!-- \\AssetComponent&#45;&gt;\\Component -->
<g id="edge35" class="edge"><title>\\AssetComponent&#45;&gt;\\Component</title>
<path fill="none" stroke="black" d="M877.342,-877.436C859.801,-873.802 841.915,-866.647 830,-853 655.683,-653.337 935.432,-457.899 758,-261 748.227,-250.155 735.069,-243.207 721.082,-238.841"/>
<polygon fill="none" stroke="black" points="721.864,-235.426 711.298,-236.214 720.049,-242.187 721.864,-235.426"/>
</g>
<!-- \\AccessCtrlComponent -->
<g id="node19" class="node"><title>\\AccessCtrlComponent</title>
<polygon fill="none" stroke="black" points="1005,-844 861,-844 861,-808 1005,-808 1005,-844"/>
<text text-anchor="middle" x="933" y="-823.1" font-family="Courier,monospace" font-size="11.00">AccessCtrlComponent</text>
</g>
<!-- \\AccessCtrlComponent&#45;&gt;\\Component -->
<g id="edge37" class="edge"><title>\\AccessCtrlComponent&#45;&gt;\\Component</title>
<path fill="none" stroke="black" d="M860.36,-818.567C848.839,-814.366 838.079,-808.143 830,-799 670.252,-618.227 920.569,-439.24 758,-261 748.162,-250.213 734.974,-243.293 720.979,-238.934"/>
<polygon fill="none" stroke="black" points="721.757,-235.519 711.192,-236.31 719.944,-242.281 721.757,-235.519"/>
</g>
<!-- \\NetCommonsTimeComponent -->
<g id="node20" class="node"><title>\\NetCommonsTimeComponent</title>
<polygon fill="none" stroke="black" points="1019,-790 847,-790 847,-754 1019,-754 1019,-790"/>
<text text-anchor="middle" x="933" y="-769.1" font-family="Courier,monospace" font-size="11.00">NetCommonsTimeComponent</text>
</g>
<!-- \\NetCommonsTimeComponent&#45;&gt;\\Component -->
<g id="edge39" class="edge"><title>\\NetCommonsTimeComponent&#45;&gt;\\Component</title>
<path fill="none" stroke="black" d="M846.819,-758.259C840.551,-754.726 834.814,-750.367 830,-745 684.8,-583.094 905.726,-420.605 758,-261 748.083,-250.286 734.859,-243.398 720.853,-239.049"/>
<polygon fill="none" stroke="black" points="721.628,-235.634 711.063,-236.429 719.818,-242.396 721.628,-235.634"/>
</g>
<!-- \\PermissionComponent -->
<g id="node21" class="node"><title>\\PermissionComponent</title>
<polygon fill="none" stroke="black" points="1005,-736 861,-736 861,-700 1005,-700 1005,-736"/>
<text text-anchor="middle" x="933" y="-715.1" font-family="Courier,monospace" font-size="11.00">PermissionComponent</text>
</g>
<!-- \\PermissionComponent&#45;&gt;\\Component -->
<g id="edge41" class="edge"><title>\\PermissionComponent&#45;&gt;\\Component</title>
<path fill="none" stroke="black" d="M860.344,-710.25C848.896,-706.073 838.166,-699.94 830,-691 699.318,-547.927 890.914,-402.002 758,-261 747.986,-250.377 734.718,-243.531 720.698,-239.194"/>
<polygon fill="none" stroke="black" points="721.468,-235.777 710.904,-236.577 719.661,-242.54 721.468,-235.777"/>
</g>
<!-- \\NetCommonsComponent -->
<g id="node22" class="node"><title>\\NetCommonsComponent</title>
<polygon fill="none" stroke="black" points="1005,-952 861,-952 861,-916 1005,-916 1005,-952"/>
<text text-anchor="middle" x="933" y="-931.1" font-family="Courier,monospace" font-size="11.00">NetCommonsComponent</text>
</g>
<!-- \\NetCommonsComponent&#45;&gt;\\Component -->
<g id="edge43" class="edge"><title>\\NetCommonsComponent&#45;&gt;\\Component</title>
<path fill="none" stroke="black" d="M860.454,-926.809C848.851,-922.592 838.038,-916.301 830,-907 641.099,-688.429 950.312,-476.576 758,-261 748.225,-250.042 734.994,-243.054 720.924,-238.686"/>
<polygon fill="none" stroke="black" points="721.644,-235.256 711.08,-236.064 719.842,-242.02 721.644,-235.256"/>
</g>
<!-- \\SiteCloseController -->
<g id="node23" class="node"><title>\\SiteCloseController</title>
<polygon fill="none" stroke="black" points="1005,-1168 861,-1168 861,-1132 1005,-1132 1005,-1168"/>
<text text-anchor="middle" x="933" y="-1147.1" font-family="Courier,monospace" font-size="11.00">SiteCloseController</text>
</g>
<!-- \\SiteCloseController&#45;&gt;\\NetCommonsAppController -->
<g id="edge45" class="edge"><title>\\SiteCloseController&#45;&gt;\\NetCommonsAppController</title>
<path fill="none" stroke="black" d="M860.197,-1136.58C822.697,-1129.67 776.487,-1121.15 736.097,-1113.71"/>
<polygon fill="none" stroke="black" points="736.702,-1110.26 726.233,-1111.89 735.433,-1117.15 736.702,-1110.26"/>
</g>
<!-- \\NetCommonsController -->
<g id="node24" class="node"><title>\\NetCommonsController</title>
<polygon fill="none" stroke="black" points="1009,-1114 857,-1114 857,-1078 1009,-1078 1009,-1114"/>
<text text-anchor="middle" x="933" y="-1093.1" font-family="Courier,monospace" font-size="11.00">NetCommonsController</text>
</g>
<!-- \\NetCommonsController&#45;&gt;\\NetCommonsAppController -->
<g id="edge47" class="edge"><title>\\NetCommonsController&#45;&gt;\\NetCommonsAppController</title>
<path fill="none" stroke="black" d="M856.783,-1096C820.049,-1096 775.59,-1096 736.519,-1096"/>
<polygon fill="none" stroke="black" points="736.183,-1092.5 726.183,-1096 736.183,-1099.5 736.183,-1092.5"/>
</g>
<!-- \\NetCommonsUrl -->
<g id="node25" class="node"><title>\\NetCommonsUrl</title>
<polygon fill="none" stroke="black" points="985,-2194 881,-2194 881,-2158 985,-2158 985,-2194"/>
<text text-anchor="middle" x="933" y="-2173.1" font-family="Courier,monospace" font-size="11.00">NetCommonsUrl</text>
</g>
<!-- \\NetCommonsTime -->
<g id="node26" class="node"><title>\\NetCommonsTime</title>
<polygon fill="none" stroke="black" points="988,-2140 878,-2140 878,-2104 988,-2104 988,-2140"/>
<text text-anchor="middle" x="933" y="-2119.1" font-family="Courier,monospace" font-size="11.00">NetCommonsTime</text>
</g>
<!-- \\CurrentBase -->
<g id="node27" class="node"><title>\\CurrentBase</title>
<polygon fill="none" stroke="black" points="685,-2356 595,-2356 595,-2320 685,-2320 685,-2356"/>
<text text-anchor="middle" x="640" y="-2335.1" font-family="Courier,monospace" font-size="11.00">CurrentBase</text>
</g>
<!-- \\Current -->
<g id="node28" class="node"><title>\\Current</title>
<polygon fill="none" stroke="black" points="965,-2356 901,-2356 901,-2320 965,-2320 965,-2356"/>
<text text-anchor="middle" x="933" y="-2335.1" font-family="Courier,monospace" font-size="11.00">Current</text>
</g>
<!-- \\Current&#45;&gt;\\CurrentBase -->
<g id="edge49" class="edge"><title>\\Current&#45;&gt;\\CurrentBase</title>
<path fill="none" stroke="black" d="M900.806,-2338C851.48,-2338 756.554,-2338 695.846,-2338"/>
<polygon fill="none" stroke="black" points="695.669,-2334.5 685.669,-2338 695.669,-2341.5 695.669,-2334.5"/>
</g>
<!-- \\CurrentSystem -->
<g id="node29" class="node"><title>\\CurrentSystem</title>
<polygon fill="none" stroke="black" points="985,-2032 881,-2032 881,-1996 985,-1996 985,-2032"/>
<text text-anchor="middle" x="933" y="-2011.1" font-family="Courier,monospace" font-size="11.00">CurrentSystem</text>
</g>
<!-- \\CurrentPage -->
<g id="node30" class="node"><title>\\CurrentPage</title>
<polygon fill="none" stroke="black" points="978,-1978 888,-1978 888,-1942 978,-1942 978,-1978"/>
<text text-anchor="middle" x="933" y="-1957.1" font-family="Courier,monospace" font-size="11.00">CurrentPage</text>
</g>
<!-- \\CurrentFrame -->
<g id="node31" class="node"><title>\\CurrentFrame</title>
<polygon fill="none" stroke="black" points="982,-1924 884,-1924 884,-1888 982,-1888 982,-1924"/>
<text text-anchor="middle" x="933" y="-1903.1" font-family="Courier,monospace" font-size="11.00">CurrentFrame</text>
</g>
<!-- \\TokenHelper -->
<g id="node32" class="node"><title>\\TokenHelper</title>
<polygon fill="none" stroke="black" points="978,-628 888,-628 888,-592 978,-592 978,-628"/>
<text text-anchor="middle" x="933" y="-607.1" font-family="Courier,monospace" font-size="11.00">TokenHelper</text>
</g>
<!-- \\FormHelper -->
<g id="node95" class="node"><title>\\FormHelper</title>
<ellipse fill="none" stroke="black" cx="640" cy="-180" rx="70.9184" ry="18.3848"/>
<text text-anchor="middle" x="640" y="-176.4" font-family="Times Roman,serif" font-size="14.00" fill="gray">\FormHelper</text>
</g>
<!-- \\TokenHelper&#45;&gt;\\FormHelper -->
<g id="edge51" class="edge"><title>\\TokenHelper&#45;&gt;\\FormHelper</title>
<path fill="none" stroke="black" d="M887.419,-608.661C867.167,-605.676 844.645,-598.664 830,-583 713.795,-458.716 876.143,-329.443 758,-207 747.863,-196.494 734.538,-189.702 720.502,-185.381"/>
<polygon fill="none" stroke="black" points="721.266,-181.962 710.702,-182.77 719.464,-188.726 721.266,-181.962"/>
</g>
<!-- \\SingletonViewBlockHtmlHelper -->
<g id="node33" class="node"><title>\\SingletonViewBlockHtmlHelper</title>
<polygon fill="none" stroke="black" points="1036,-520 830,-520 830,-484 1036,-484 1036,-520"/>
<text text-anchor="middle" x="933" y="-499.1" font-family="Courier,monospace" font-size="11.00">SingletonViewBlockHtmlHelper</text>
</g>
<!-- \\HtmlHelper -->
<g id="node97" class="node"><title>\\HtmlHelper</title>
<ellipse fill="none" stroke="black" cx="640" cy="-126" rx="67.1751" ry="18.3848"/>
<text text-anchor="middle" x="640" y="-122.4" font-family="Times Roman,serif" font-size="14.00" fill="gray">HtmlHelper</text>
</g>
<!-- \\SingletonViewBlockHtmlHelper&#45;&gt;\\HtmlHelper -->
<g id="edge53" class="edge"><title>\\SingletonViewBlockHtmlHelper&#45;&gt;\\HtmlHelper</title>
<path fill="none" stroke="black" d="M840.591,-483.849C836.772,-481.261 833.208,-478.327 830,-475 728.21,-369.437 861.436,-256.95 758,-153 746.874,-141.819 732.128,-134.873 716.842,-130.64"/>
<polygon fill="none" stroke="black" points="717.29,-127.149 706.751,-128.233 715.666,-133.958 717.29,-127.149"/>
</g>
<!-- \\FormInputHelper -->
<g id="node34" class="node"><title>\\FormInputHelper</title>
<polygon fill="none" stroke="black" points="992,-1276 874,-1276 874,-1240 992,-1240 992,-1276"/>
<text text-anchor="middle" x="933" y="-1255.1" font-family="Courier,monospace" font-size="11.00">FormInputHelper</text>
</g>
<!-- \\FormInputHelper&#45;&gt;\\AppHelper -->
<g id="edge55" class="edge"><title>\\FormInputHelper&#45;&gt;\\AppHelper</title>
<path fill="none" stroke="black" d="M873.826,-1265.2C858.453,-1269.2 842.672,-1275.4 830,-1285 725.624,-1364.08 668.084,-1518.47 648.129,-1581.35"/>
<polygon fill="none" stroke="black" points="644.764,-1580.39 645.144,-1590.97 651.45,-1582.46 644.764,-1580.39"/>
</g>
<!-- \\WizardHelper -->
<g id="node35" class="node"><title>\\WizardHelper</title>
<polygon fill="none" stroke="black" points="982,-2302 884,-2302 884,-2266 982,-2266 982,-2302"/>
<text text-anchor="middle" x="933" y="-2281.1" font-family="Courier,monospace" font-size="11.00">WizardHelper</text>
</g>
<!-- \\WizardHelper&#45;&gt;\\AppHelper -->
<g id="edge57" class="edge"><title>\\WizardHelper&#45;&gt;\\AppHelper</title>
<path fill="none" stroke="black" d="M883.886,-2281.31C864.889,-2277.89 844.32,-2270.91 830,-2257 737.138,-2166.78 663.079,-1749.86 644.505,-1637.15"/>
<polygon fill="none" stroke="black" points="647.948,-1636.52 642.881,-1627.22 641.039,-1637.65 647.948,-1636.52"/>
</g>
<!-- \\DisplayNumberHelper -->
<g id="node36" class="node"><title>\\DisplayNumberHelper</title>
<polygon fill="none" stroke="black" points="1005,-2248 861,-2248 861,-2212 1005,-2212 1005,-2248"/>
<text text-anchor="middle" x="933" y="-2227.1" font-family="Courier,monospace" font-size="11.00">DisplayNumberHelper</text>
</g>
<!-- \\DisplayNumberHelper&#45;&gt;\\AppHelper -->
<g id="edge59" class="edge"><title>\\DisplayNumberHelper&#45;&gt;\\AppHelper</title>
<path fill="none" stroke="black" d="M860.318,-2220.86C849.148,-2216.81 838.518,-2211.08 830,-2203 743.879,-2121.34 665.926,-1743.95 645.305,-1637.2"/>
<polygon fill="none" stroke="black" points="648.705,-1636.35 643.386,-1627.18 641.83,-1637.66 648.705,-1636.35"/>
</g>
<!-- \\MessageFlashHelper -->
<g id="node37" class="node"><title>\\MessageFlashHelper</title>
<polygon fill="none" stroke="black" points="1002,-2086 864,-2086 864,-2050 1002,-2050 1002,-2086"/>
<text text-anchor="middle" x="933" y="-2065.1" font-family="Courier,monospace" font-size="11.00">MessageFlashHelper</text>
</g>
<!-- \\MessageFlashHelper&#45;&gt;\\AppHelper -->
<g id="edge61" class="edge"><title>\\MessageFlashHelper&#45;&gt;\\AppHelper</title>
<path fill="none" stroke="black" d="M863.947,-2059.08C851.658,-2055.06 839.703,-2049.28 830,-2041 700.231,-1930.27 655.867,-1713.9 643.825,-1636.97"/>
<polygon fill="none" stroke="black" points="647.284,-1636.43 642.335,-1627.07 640.362,-1637.48 647.284,-1636.43"/>
</g>
<!-- \\DateHelper -->
<g id="node38" class="node"><title>\\DateHelper</title>
<polygon fill="none" stroke="black" points="975,-1870 891,-1870 891,-1834 975,-1834 975,-1870"/>
<text text-anchor="middle" x="933" y="-1849.1" font-family="Courier,monospace" font-size="11.00">DateHelper</text>
</g>
<!-- \\DateHelper&#45;&gt;\\AppHelper -->
<g id="edge63" class="edge"><title>\\DateHelper&#45;&gt;\\AppHelper</title>
<path fill="none" stroke="black" d="M890.905,-1846.76C871.306,-1842.92 848.328,-1836.31 830,-1825 749.876,-1775.56 684.727,-1681.81 655.946,-1635.81"/>
<polygon fill="none" stroke="black" points="658.75,-1633.69 650.523,-1627.02 652.792,-1637.36 658.75,-1633.69"/>
</g>
<!-- \\SnsButtonHelper -->
<g id="node39" class="node"><title>\\SnsButtonHelper</title>
<polygon fill="none" stroke="black" points="992,-1816 874,-1816 874,-1780 992,-1780 992,-1816"/>
<text text-anchor="middle" x="933" y="-1795.1" font-family="Courier,monospace" font-size="11.00">SnsButtonHelper</text>
</g>
<!-- \\SnsButtonHelper&#45;&gt;\\AppHelper -->
<g id="edge65" class="edge"><title>\\SnsButtonHelper&#45;&gt;\\AppHelper</title>
<path fill="none" stroke="black" d="M873.826,-1787.33C859.022,-1783.37 843.519,-1778.06 830,-1771 761.41,-1735.19 696.097,-1670.56 662.838,-1634.7"/>
<polygon fill="none" stroke="black" points="665.192,-1632.09 655.854,-1627.09 660.033,-1636.83 665.192,-1632.09"/>
</g>
<!-- \\BackToHelper -->
<g id="node40" class="node"><title>\\BackToHelper</title>
<polygon fill="none" stroke="black" points="982,-1762 884,-1762 884,-1726 982,-1726 982,-1762"/>
<text text-anchor="middle" x="933" y="-1741.1" font-family="Courier,monospace" font-size="11.00">BackToHelper</text>
</g>
<!-- \\BackToHelper&#45;&gt;\\AppHelper -->
<g id="edge67" class="edge"><title>\\BackToHelper&#45;&gt;\\AppHelper</title>
<path fill="none" stroke="black" d="M883.945,-1733.91C866.584,-1729.62 847.122,-1723.97 830,-1717 773.066,-1693.82 712.097,-1656.73 675.004,-1632.61"/>
<polygon fill="none" stroke="black" points="676.839,-1629.63 666.557,-1627.07 673.002,-1635.48 676.839,-1629.63"/>
</g>
<!-- \\NetCommonsHtmlHelper -->
<g id="node41" class="node"><title>\\NetCommonsHtmlHelper</title>
<polygon fill="none" stroke="black" points="1009,-1708 857,-1708 857,-1672 1009,-1672 1009,-1708"/>
<text text-anchor="middle" x="933" y="-1687.1" font-family="Courier,monospace" font-size="11.00">NetCommonsHtmlHelper</text>
</g>
<!-- \\NetCommonsHtmlHelper&#45;&gt;\\AppHelper -->
<g id="edge69" class="edge"><title>\\NetCommonsHtmlHelper&#45;&gt;\\AppHelper</title>
<path fill="none" stroke="black" d="M863.415,-1671.97C852.231,-1669.01 840.789,-1665.95 830,-1663 781.716,-1649.81 726.728,-1634.11 688.375,-1623.04"/>
<polygon fill="none" stroke="black" points="689.087,-1619.61 678.508,-1620.2 687.145,-1626.33 689.087,-1619.61"/>
</g>
<!-- \\ButtonHelper -->
<g id="node42" class="node"><title>\\ButtonHelper</title>
<polygon fill="none" stroke="black" points="982,-574 884,-574 884,-538 982,-538 982,-574"/>
<text text-anchor="middle" x="933" y="-553.1" font-family="Courier,monospace" font-size="11.00">ButtonHelper</text>
</g>
<!-- \\ButtonHelper&#45;&gt;\\FormHelper -->
<g id="edge71" class="edge"><title>\\ButtonHelper&#45;&gt;\\FormHelper</title>
<path fill="none" stroke="black" d="M883.953,-553.864C864.736,-550.553 843.987,-543.505 830,-529 728.21,-423.437 861.436,-310.95 758,-207 747.763,-196.712 734.461,-190.009 720.493,-185.707"/>
<polygon fill="none" stroke="black" points="721.312,-182.303 710.747,-183.098 719.501,-189.065 721.312,-182.303"/>
</g>
<!-- \\ComposerHelper -->
<g id="node43" class="node"><title>\\ComposerHelper</title>
<polygon fill="none" stroke="black" points="988,-1654 878,-1654 878,-1618 988,-1618 988,-1654"/>
<text text-anchor="middle" x="933" y="-1633.1" font-family="Courier,monospace" font-size="11.00">ComposerHelper</text>
</g>
<!-- \\ComposerHelper&#45;&gt;\\AppHelper -->
<g id="edge73" class="edge"><title>\\ComposerHelper&#45;&gt;\\AppHelper</title>
<path fill="none" stroke="black" d="M877.199,-1630.86C822.718,-1625.84 740.647,-1618.27 688.725,-1613.49"/>
<polygon fill="none" stroke="black" points="689.038,-1610 678.759,-1612.57 688.396,-1616.97 689.038,-1610"/>
</g>
<!-- \\LinkButtonHelper -->
<g id="node44" class="node"><title>\\LinkButtonHelper</title>
<polygon fill="none" stroke="black" points="995,-682 871,-682 871,-646 995,-646 995,-682"/>
<text text-anchor="middle" x="933" y="-661.1" font-family="Courier,monospace" font-size="11.00">LinkButtonHelper</text>
</g>
<!-- \\LinkButtonHelper&#45;&gt;\\FormHelper -->
<g id="edge75" class="edge"><title>\\LinkButtonHelper&#45;&gt;\\FormHelper</title>
<path fill="none" stroke="black" d="M870.442,-659.412C855.337,-655.395 840.535,-648.534 830,-637 699.318,-493.927 890.914,-348.002 758,-207 747.986,-196.377 734.718,-189.531 720.698,-185.194"/>
<polygon fill="none" stroke="black" points="721.468,-181.777 710.904,-182.577 719.661,-188.54 721.468,-181.777"/>
</g>
<!-- \\TableListHelper -->
<g id="node45" class="node"><title>\\TableListHelper</title>
<polygon fill="none" stroke="black" points="992,-1600 874,-1600 874,-1564 992,-1564 992,-1600"/>
<text text-anchor="middle" x="933" y="-1579.1" font-family="Courier,monospace" font-size="11.00">TableListHelper</text>
</g>
<!-- \\TableListHelper&#45;&gt;\\AppHelper -->
<g id="edge77" class="edge"><title>\\TableListHelper&#45;&gt;\\AppHelper</title>
<path fill="none" stroke="black" d="M873.707,-1587.46C819.266,-1592.48 739.563,-1599.83 688.738,-1604.51"/>
<polygon fill="none" stroke="black" points="688.299,-1601.03 678.663,-1605.44 688.942,-1608 688.299,-1601.03"/>
</g>
<!-- \\NetCommonsTimeHelper -->
<g id="node46" class="node"><title>\\NetCommonsTimeHelper</title>
<polygon fill="none" stroke="black" points="1009,-1546 857,-1546 857,-1510 1009,-1510 1009,-1546"/>
<text text-anchor="middle" x="933" y="-1525.1" font-family="Courier,monospace" font-size="11.00">NetCommonsTimeHelper</text>
</g>
<!-- \\NetCommonsTimeHelper&#45;&gt;\\AppHelper -->
<g id="edge79" class="edge"><title>\\NetCommonsTimeHelper&#45;&gt;\\AppHelper</title>
<path fill="none" stroke="black" d="M863.415,-1546.03C852.231,-1548.99 840.789,-1552.05 830,-1555 781.716,-1568.19 726.728,-1583.89 688.375,-1594.96"/>
<polygon fill="none" stroke="black" points="687.145,-1591.67 678.508,-1597.8 689.087,-1598.39 687.145,-1591.67"/>
</g>
<!-- \\NetCommonsFormHelper -->
<g id="node47" class="node"><title>\\NetCommonsFormHelper</title>
<polygon fill="none" stroke="black" points="1009,-1492 857,-1492 857,-1456 1009,-1456 1009,-1492"/>
<text text-anchor="middle" x="933" y="-1471.1" font-family="Courier,monospace" font-size="11.00">NetCommonsFormHelper</text>
</g>
<!-- \\NetCommonsFormHelper&#45;&gt;\\AppHelper -->
<g id="edge81" class="edge"><title>\\NetCommonsFormHelper&#45;&gt;\\AppHelper</title>
<path fill="none" stroke="black" d="M856.883,-1491.54C847.707,-1494.36 838.561,-1497.51 830,-1501 773.066,-1524.18 712.097,-1561.27 675.004,-1585.39"/>
<polygon fill="none" stroke="black" points="673.002,-1582.52 666.557,-1590.93 676.839,-1588.37 673.002,-1582.52"/>
</g>
<!-- \\TitleIconHelper -->
<g id="node48" class="node"><title>\\TitleIconHelper</title>
<polygon fill="none" stroke="black" points="992,-1438 874,-1438 874,-1402 992,-1402 992,-1438"/>
<text text-anchor="middle" x="933" y="-1417.1" font-family="Courier,monospace" font-size="11.00">TitleIconHelper</text>
</g>
<!-- \\TitleIconHelper&#45;&gt;\\AppHelper -->
<g id="edge83" class="edge"><title>\\TitleIconHelper&#45;&gt;\\AppHelper</title>
<path fill="none" stroke="black" d="M873.826,-1430.67C859.022,-1434.63 843.519,-1439.94 830,-1447 761.41,-1482.81 696.097,-1547.44 662.838,-1583.3"/>
<polygon fill="none" stroke="black" points="660.033,-1581.17 655.854,-1590.91 665.192,-1585.91 660.033,-1581.17"/>
</g>
<!-- \\DatetimePickerHelper -->
<g id="node49" class="node"><title>\\DatetimePickerHelper</title>
<polygon fill="none" stroke="black" points="1009,-1384 857,-1384 857,-1348 1009,-1348 1009,-1384"/>
<text text-anchor="middle" x="933" y="-1363.1" font-family="Courier,monospace" font-size="11.00">DatetimePickerHelper</text>
</g>
<!-- \\DatetimePickerHelper&#45;&gt;\\AppHelper -->
<g id="edge85" class="edge"><title>\\DatetimePickerHelper&#45;&gt;\\AppHelper</title>
<path fill="none" stroke="black" d="M856.876,-1380.4C847.463,-1383.76 838.259,-1387.9 830,-1393 749.876,-1442.44 684.727,-1536.19 655.946,-1582.19"/>
<polygon fill="none" stroke="black" points="652.792,-1580.64 650.523,-1590.98 658.75,-1584.31 652.792,-1580.64"/>
</g>
<!-- \\Model -->
<g id="node115" class="node"><title>\\Model</title>
<ellipse fill="none" stroke="black" cx="82" cy="-2675" rx="43.8406" ry="18.3848"/>
<text text-anchor="middle" x="82" y="-2671.4" font-family="Times Roman,serif" font-size="14.00" fill="gray">\Model</text>
</g>
<!-- \\NetCommonsAppModel&#45;&gt;\\Model -->
<g id="edge87" class="edge"><title>\\NetCommonsAppModel&#45;&gt;\\Model</title>
<path fill="none" stroke="black" d="M273.742,-2675C230.675,-2675 176.099,-2675 136.195,-2675"/>
<polygon fill="none" stroke="black" points="136.125,-2671.5 126.125,-2675 136.125,-2678.5 136.125,-2671.5"/>
</g>
<!-- \\OriginalKeyBehavior -->
<g id="node51" class="node"><title>\\OriginalKeyBehavior</title>
<polygon fill="none" stroke="black" points="1005,-412 861,-412 861,-376 1005,-376 1005,-412"/>
<text text-anchor="middle" x="933" y="-391.1" font-family="Courier,monospace" font-size="11.00">OriginalKeyBehavior</text>
</g>
<!-- \\ModelBehavior -->
<g id="node117" class="node"><title>\\ModelBehavior</title>
<ellipse fill="none" stroke="black" cx="640" cy="-72" rx="86.9741" ry="18.3848"/>
<text text-anchor="middle" x="640" y="-68.4" font-family="Times Roman,serif" font-size="14.00" fill="gray">\ModelBehavior</text>
</g>
<!-- \\OriginalKeyBehavior&#45;&gt;\\ModelBehavior -->
<g id="edge89" class="edge"><title>\\OriginalKeyBehavior&#45;&gt;\\ModelBehavior</title>
<path fill="none" stroke="black" d="M860.254,-385.293C849.024,-381.198 838.391,-375.34 830,-367 742.524,-280.055 846.831,-184.56 758,-99 750.315,-91.5978 741.036,-86.0697 731.099,-81.9636"/>
<polygon fill="none" stroke="black" points="731.994,-78.5653 721.4,-78.4477 729.608,-85.1462 731.994,-78.5653"/>
</g>
<!-- \\TrackableBehavior -->
<g id="node52" class="node"><title>\\TrackableBehavior</title>
<polygon fill="none" stroke="black" points="998,-466 868,-466 868,-430 998,-430 998,-466"/>
<text text-anchor="middle" x="933" y="-445.1" font-family="Courier,monospace" font-size="11.00">TrackableBehavior</text>
</g>
<!-- \\TrackableBehavior&#45;&gt;\\ModelBehavior -->
<g id="edge91" class="edge"><title>\\TrackableBehavior&#45;&gt;\\ModelBehavior</title>
<path fill="none" stroke="black" d="M867.375,-442.047C853.48,-437.941 840.009,-431.38 830,-421 728.21,-315.437 861.436,-202.95 758,-99 750.53,-91.4927 741.428,-85.8948 731.627,-81.7455"/>
<polygon fill="none" stroke="black" points="732.638,-78.3879 722.045,-78.1961 730.207,-84.952 732.638,-78.3879"/>
</g>
<!-- \\YAExceptionRenderer -->
<g id="node53" class="node"><title>\\YAExceptionRenderer</title>
<polygon fill="none" stroke="black" points="1005,-358 861,-358 861,-322 1005,-322 1005,-358"/>
<text text-anchor="middle" x="933" y="-337.1" font-family="Courier,monospace" font-size="11.00">YAExceptionRenderer</text>
</g>
<!-- \\ExceptionRenderer -->
<g id="node120" class="node"><title>\\ExceptionRenderer</title>
<ellipse fill="none" stroke="black" cx="640" cy="-18" rx="118.087" ry="18.3848"/>
<text text-anchor="middle" x="640" y="-14.4" font-family="Times Roman,serif" font-size="14.00" fill="gray">TEHxceptionRenderer</text>
</g>
<!-- \\YAExceptionRenderer&#45;&gt;\\ExceptionRenderer -->
<g id="edge93" class="edge"><title>\\YAExceptionRenderer&#45;&gt;\\ExceptionRenderer</title>
<path fill="none" stroke="black" d="M927.866,-321.986C912.069,-269.992 859.034,-118.69 758,-45 751.988,-40.6153 745.382,-36.927 738.462,-33.8264"/>
<polygon fill="none" stroke="black" points="739.438,-30.4465 728.855,-29.9522 736.82,-36.9384 739.438,-30.4465"/>
</g>
<!-- \\NetCommonsMigration -->
<g id="node54" class="node"><title>\\NetCommonsMigration</title>
<polygon fill="none" stroke="black" points="712,-710 568,-710 568,-674 712,-674 712,-710"/>
<text text-anchor="middle" x="640" y="-689.1" font-family="Courier,monospace" font-size="11.00">NetCommonsMigration</text>
</g>
<!-- \\CakeMigration -->
<g id="node122" class="node"><title>\\CakeMigration</title>
<ellipse fill="none" stroke="black" cx="343" cy="-142" rx="84.8528" ry="18.3848"/>
<text text-anchor="middle" x="343" y="-138.4" font-family="Times Roman,serif" font-size="14.00" fill="gray">\CakeMigration</text>
</g>
<!-- \\NetCommonsMigration&#45;&gt;\\CakeMigration -->
<g id="edge95" class="edge"><title>\\NetCommonsMigration&#45;&gt;\\CakeMigration</title>
<path fill="none" stroke="black" d="M567.278,-692.467C550.399,-689.091 533.91,-682.398 522,-670 367.684,-509.357 595.566,-342.613 450,-174 443.135,-166.048 434.382,-160.028 424.849,-155.479"/>
<polygon fill="none" stroke="black" points="426.081,-152.201 415.505,-151.554 423.369,-158.654 426.081,-152.201"/>
</g>
<!-- \\SecuritySettingsController -->
<g id="node55" class="node"><title>\\SecuritySettingsController</title>
<polygon fill="none" stroke="black" points="1029,-2410 837,-2410 837,-2374 1029,-2374 1029,-2410"/>
<text text-anchor="middle" x="933" y="-2389.1" font-family="Courier,monospace" font-size="11.00">SecuritySettingsController</text>
</g>
<!-- \\SystemManagerAppController -->
<g id="node56" class="node"><title>\\SystemManagerAppController</title>
<polygon fill="none" stroke="black" points="736,-2491 544,-2491 544,-2455 736,-2455 736,-2491"/>
<text text-anchor="middle" x="640" y="-2470.1" font-family="Courier,monospace" font-size="11.00">SystemManagerAppController</text>
</g>
<!-- \\SecuritySettingsController&#45;&gt;\\SystemManagerAppController -->
<g id="edge97" class="edge"><title>\\SecuritySettingsController&#45;&gt;\\SystemManagerAppController</title>
<path fill="none" stroke="black" d="M863.415,-2410.03C852.231,-2412.99 840.789,-2416.05 830,-2419 790.993,-2429.65 747.61,-2441.95 712.158,-2452.12"/>
<polygon fill="none" stroke="black" points="711.025,-2448.8 702.379,-2454.92 712.957,-2455.53 711.025,-2448.8"/>
</g>
<!-- \\SystemManagerAppController&#45;&gt;\\AppController -->
<g id="edge99" class="edge"><title>\\SystemManagerAppController&#45;&gt;\\AppController</title>
<path fill="none" stroke="black" d="M613.691,-2454.7C587.32,-2435.17 547.126,-2401.98 522,-2365 420.073,-2214.97 365.701,-1998.95 348.821,-1922.83"/>
<polygon fill="none" stroke="black" points="352.236,-1922.06 346.687,-1913.03 345.396,-1923.55 352.236,-1922.06"/>
</g>
<!-- \\MailServerController -->
<g id="node57" class="node"><title>\\MailServerController</title>
<polygon fill="none" stroke="black" points="1009,-2626 857,-2626 857,-2590 1009,-2590 1009,-2626"/>
<text text-anchor="middle" x="933" y="-2605.1" font-family="Courier,monospace" font-size="11.00">MailServerController</text>
</g>
<!-- \\MailServerController&#45;&gt;\\SystemManagerAppController -->
<g id="edge101" class="edge"><title>\\MailServerController&#45;&gt;\\SystemManagerAppController</title>
<path fill="none" stroke="black" d="M856.883,-2590.46C847.707,-2587.64 838.561,-2584.49 830,-2581 773.066,-2557.82 712.097,-2520.73 675.004,-2496.61"/>
<polygon fill="none" stroke="black" points="676.839,-2493.63 666.557,-2491.07 673.002,-2499.48 676.839,-2493.63"/>
</g>
<!-- \\DeveloperController -->
<g id="node58" class="node"><title>\\DeveloperController</title>
<polygon fill="none" stroke="black" points="1005,-2572 861,-2572 861,-2536 1005,-2536 1005,-2572"/>
<text text-anchor="middle" x="933" y="-2551.1" font-family="Courier,monospace" font-size="11.00">DeveloperController</text>
</g>
<!-- \\DeveloperController&#45;&gt;\\SystemManagerAppController -->
<g id="edge103" class="edge"><title>\\DeveloperController&#45;&gt;\\SystemManagerAppController</title>
<path fill="none" stroke="black" d="M863.415,-2535.97C852.231,-2533.01 840.789,-2529.95 830,-2527 790.993,-2516.35 747.61,-2504.05 712.158,-2493.88"/>
<polygon fill="none" stroke="black" points="712.957,-2490.47 702.379,-2491.08 711.025,-2497.2 712.957,-2490.47"/>
</g>
<!-- \\WebServerController -->
<g id="node59" class="node"><title>\\WebServerController</title>
<polygon fill="none" stroke="black" points="1005,-2518 861,-2518 861,-2482 1005,-2482 1005,-2518"/>
<text text-anchor="middle" x="933" y="-2497.1" font-family="Courier,monospace" font-size="11.00">WebServerController</text>
</g>
<!-- \\WebServerController&#45;&gt;\\SystemManagerAppController -->
<g id="edge105" class="edge"><title>\\WebServerController&#45;&gt;\\SystemManagerAppController</title>
<path fill="none" stroke="black" d="M860.197,-2493.29C825.813,-2490.12 784.107,-2486.28 746.278,-2482.79"/>
<polygon fill="none" stroke="black" points="746.517,-2479.3 736.238,-2481.87 745.875,-2486.27 746.517,-2479.3"/>
</g>
<!-- \\SystemManagerController -->
<g id="node60" class="node"><title>\\SystemManagerController</title>
<polygon fill="none" stroke="black" points="1019,-2464 847,-2464 847,-2428 1019,-2428 1019,-2464"/>
<text text-anchor="middle" x="933" y="-2443.1" font-family="Courier,monospace" font-size="11.00">SystemManagerController</text>
</g>
<!-- \\SystemManagerController&#45;&gt;\\SystemManagerAppController -->
<g id="edge107" class="edge"><title>\\SystemManagerController&#45;&gt;\\SystemManagerAppController</title>
<path fill="none" stroke="black" d="M846.675,-2453.95C815.238,-2456.85 779.326,-2460.16 746.354,-2463.2"/>
<polygon fill="none" stroke="black" points="745.861,-2459.73 736.224,-2464.13 746.503,-2466.7 745.861,-2459.73"/>
</g>
<!-- \\SystemManagerHelper -->
<g id="node61" class="node"><title>\\SystemManagerHelper</title>
<polygon fill="none" stroke="black" points="1005,-1330 861,-1330 861,-1294 1005,-1294 1005,-1330"/>
<text text-anchor="middle" x="933" y="-1309.1" font-family="Courier,monospace" font-size="11.00">SystemManagerHelper</text>
</g>
<!-- \\SystemManagerHelper&#45;&gt;\\AppHelper -->
<g id="edge109" class="edge"><title>\\SystemManagerHelper&#45;&gt;\\AppHelper</title>
<path fill="none" stroke="black" d="M860.343,-1324.12C849.608,-1327.83 839.11,-1332.67 830,-1339 738.034,-1402.86 675.79,-1526.47 651.457,-1581.46"/>
<polygon fill="none" stroke="black" points="648.13,-1580.34 647.356,-1590.9 654.551,-1583.13 648.13,-1580.34"/>
</g>
<!-- \\SystemManagerAppModel -->
<g id="node62" class="node"><title>\\SystemManagerAppModel</title>
<polygon fill="none" stroke="black" points="1012,-2734 854,-2734 854,-2698 1012,-2698 1012,-2734"/>
<text text-anchor="middle" x="933" y="-2713.1" font-family="Courier,monospace" font-size="11.00">SystemManagerAppModel</text>
</g>
<!-- \\SystemManagerAppModel&#45;&gt;\\AppModel -->
<g id="edge111" class="edge"><title>\\SystemManagerAppModel&#45;&gt;\\AppModel</title>
<path fill="none" stroke="black" d="M853.71,-2704.9C799.937,-2697.38 730.74,-2687.7 685.886,-2681.42"/>
<polygon fill="none" stroke="black" points="686.254,-2677.94 675.866,-2680.02 685.284,-2684.87 686.254,-2677.94"/>
</g>
<!-- \\PluginRecords -->
<g id="node63" class="node"><title>\\PluginRecords</title>
<polygon fill="none" stroke="black" points="985,-1060 881,-1060 881,-1024 985,-1024 985,-1060"/>
<text text-anchor="middle" x="933" y="-1039.1" font-family="Courier,monospace" font-size="11.00">PluginRecords</text>
</g>
<!-- \\PluginRecords&#45;&gt;\\NetCommonsMigration -->
<g id="edge113" class="edge"><title>\\PluginRecords&#45;&gt;\\NetCommonsMigration</title>
<path fill="none" stroke="black" d="M880.765,-1036.45C863.305,-1032.58 844.595,-1026.04 830,-1015 726.056,-936.355 668.437,-782.978 648.297,-720.008"/>
<polygon fill="none" stroke="black" points="651.605,-718.86 645.28,-710.36 644.924,-720.949 651.605,-718.86"/>
</g>
</g>
</svg>
