<?xml version="1.0" encoding="UTF-8" standalone="no"?>
<!DOCTYPE svg PUBLIC "-//W3C//DTD SVG 1.1//EN"
 "http://www.w3.org/Graphics/SVG/1.1/DTD/svg11.dtd">
<!-- Generated by graphviz version 2.26.3 (20100126.1600)
 -->
<!-- Title: G Pages: 1 -->
<svg width="1060pt" height="2888pt"
 viewBox="0.00 0.00 1060.00 2888.00" xmlns="http://www.w3.org/2000/svg" xmlns:xlink="http://www.w3.org/1999/xlink">
<g id="graph1" class="graph" transform="scale(1 1) rotate(0) translate(4 2884)">
<title>G</title>
<polygon fill="white" stroke="white" points="-4,5 -4,-2884 1057,-2884 1057,5 -4,5"/>
<g id="graph2" class="cluster"><title>cluster_Global</title>
<polyline fill="none" stroke="gray" points="264,-314 1032,-314 "/>
<path fill="none" stroke="gray" d="M1032,-314C1038,-314 1044,-320 1044,-326"/>
<polyline fill="none" stroke="gray" points="1044,-326 1044,-2860 "/>
<path fill="none" stroke="gray" d="M1044,-2860C1044,-2866 1038,-2872 1032,-2872"/>
<polyline fill="none" stroke="gray" points="1032,-2872 264,-2872 "/>
<path fill="none" stroke="gray" d="M264,-2872C258,-2872 252,-2866 252,-2860"/>
<polyline fill="none" stroke="gray" points="252,-2860 252,-326 "/>
<path fill="none" stroke="gray" d="M252,-326C252,-320 258,-314 264,-314"/>
<text text-anchor="middle" x="648" y="-2858.1" font-family="Times Roman,serif" font-size="11.00" fill="gray">Global</text>
</g>
<!-- \\AppController -->
<g id="node2" class="node"><title>\\AppController</title>
<polygon fill="none" stroke="black" points="395,-1832 291,-1832 291,-1796 395,-1796 395,-1832"/>
<text text-anchor="middle" x="343" y="-1811.1" font-family="Courier,monospace" font-size="11.00">AppController</text>
</g>
<!-- \\Controller -->
<g id="node63" class="node"><title>\\Controller</title>
<ellipse fill="none" stroke="black" cx="82" cy="-712" rx="63.1385" ry="18.3848"/>
<text text-anchor="middle" x="82" y="-708.4" font-family="Times Roman,serif" font-size="14.00" fill="gray">\Controller</text>
</g>
<!-- \\AppController&#45;&gt;\\Controller -->
<g id="edge3" class="edge"><title>\\AppController&#45;&gt;\\Controller</title>
<path fill="none" stroke="black" d="M290.858,-1815.37C271.074,-1813.11 249.969,-1806.85 236,-1792 161.315,-1712.6 96.4177,-902.642 84.0999,-740.256"/>
<polygon fill="none" stroke="black" points="87.5766,-739.813 83.3347,-730.105 80.5964,-740.34 87.5766,-739.813"/>
</g>
<!-- \\AppModel -->
<g id="node3" class="node"><title>\\AppModel</title>
<polygon fill="none" stroke="black" points="675,-2585 605,-2585 605,-2549 675,-2549 675,-2585"/>
<text text-anchor="middle" x="640" y="-2564.1" font-family="Courier,monospace" font-size="11.00">AppModel</text>
</g>
<!-- \\NetCommonsAppModel -->
<g id="node48" class="node"><title>\\NetCommonsAppModel</title>
<polygon fill="none" stroke="black" points="412,-2585 274,-2585 274,-2549 412,-2549 412,-2585"/>
<text text-anchor="middle" x="343" y="-2564.1" font-family="Courier,monospace" font-size="11.00">NetCommonsAppModel</text>
</g>
<!-- \\AppModel&#45;&gt;\\NetCommonsAppModel -->
<g id="edge5" class="edge"><title>\\AppModel&#45;&gt;\\NetCommonsAppModel</title>
<path fill="none" stroke="black" d="M604.47,-2567C559.713,-2567 481.497,-2567 422.241,-2567"/>
<polygon fill="none" stroke="black" points="422.157,-2563.5 412.157,-2567 422.157,-2570.5 422.157,-2563.5"/>
</g>
<!-- \\DatabaseConfiguration -->
<g id="node4" class="node"><title>\\DatabaseConfiguration</title>
<polygon fill="none" stroke="black" points="1012,-2572 854,-2572 854,-2536 1012,-2536 1012,-2572"/>
<text text-anchor="middle" x="933" y="-2551.1" font-family="Courier,monospace" font-size="11.00">DatabaseConfiguration</text>
</g>
<!-- \\DatabaseConfiguration&#45;&gt;\\AppModel -->
<g id="edge7" class="edge"><title>\\DatabaseConfiguration&#45;&gt;\\AppModel</title>
<path fill="none" stroke="black" d="M853.71,-2557.52C799.937,-2559.9 730.74,-2562.97 685.886,-2564.96"/>
<polygon fill="none" stroke="black" points="685.701,-2561.47 675.866,-2565.41 686.011,-2568.46 685.701,-2561.47"/>
</g>
<!-- \\AppHelper -->
<g id="node5" class="node"><title>\\AppHelper</title>
<polygon fill="none" stroke="black" points="678,-1519 602,-1519 602,-1483 678,-1483 678,-1519"/>
<text text-anchor="middle" x="640" y="-1498.1" font-family="Courier,monospace" font-size="11.00">AppHelper</text>
</g>
<!-- \\Helper -->
<g id="node67" class="node"><title>\\Helper</title>
<ellipse fill="none" stroke="black" cx="343" cy="-288" rx="43.8406" ry="18.3848"/>
<text text-anchor="middle" x="343" y="-284.4" font-family="Times Roman,serif" font-size="14.00" fill="gray">Helper</text>
</g>
<!-- \\AppHelper&#45;&gt;\\Helper -->
<g id="edge9" class="edge"><title>\\AppHelper&#45;&gt;\\Helper</title>
<path fill="none" stroke="black" d="M632.806,-1482.88C611.773,-1429.04 550.106,-1264.96 522,-1123 486.775,-945.08 570.705,-445.376 450,-310 436.726,-295.113 416.301,-288.745 396.839,-286.408"/>
<polygon fill="none" stroke="black" points="397.06,-282.914 386.793,-285.53 396.45,-289.888 397.06,-282.914"/>
</g>
<!-- \\NetCommonsDeleteTest -->
<g id="node6" class="node"><title>\\NetCommonsDeleteTest</title>
<polygon fill="none" stroke="black" points="1009,-2680 857,-2680 857,-2644 1009,-2644 1009,-2680"/>
<text text-anchor="middle" x="933" y="-2659.1" font-family="Courier,monospace" font-size="11.00">NetCommonsDeleteTest</text>
</g>
<!-- \\NetCommonsModelTestCase -->
<g id="node15" class="node"><title>\\NetCommonsModelTestCase</title>
<polygon fill="none" stroke="black" points="726,-2774 554,-2774 554,-2738 726,-2738 726,-2774"/>
<text text-anchor="middle" x="640" y="-2753.1" font-family="Courier,monospace" font-size="11.00">NetCommonsModelTestCase</text>
</g>
<!-- \\NetCommonsDeleteTest&#45;&gt;\\NetCommonsModelTestCase -->
<g id="edge11" class="edge"><title>\\NetCommonsDeleteTest&#45;&gt;\\NetCommonsModelTestCase</title>
<path fill="none" stroke="black" d="M856.915,-2679.62C847.734,-2682.43 838.578,-2685.56 830,-2689 796.028,-2702.64 792.182,-2715.9 758,-2729 750.894,-2731.72 743.438,-2734.22 735.872,-2736.49"/>
<polygon fill="none" stroke="black" points="734.894,-2733.13 726.248,-2739.25 736.826,-2739.86 734.894,-2733.13"/>
</g>
<!-- \\NetCommonsConsoleTestCase -->
<g id="node7" class="node"><title>\\NetCommonsConsoleTestCase</title>
<polygon fill="none" stroke="black" points="732,-2720 548,-2720 548,-2684 732,-2684 732,-2720"/>
<text text-anchor="middle" x="640" y="-2699.1" font-family="Courier,monospace" font-size="11.00">NetCommonsConsoleTestCase</text>
</g>
<!-- \\NetCommonsCakeTestCase -->
<g id="node13" class="node"><title>\\NetCommonsCakeTestCase</title>
<polygon fill="none" stroke="black" points="425,-2720 261,-2720 261,-2684 425,-2684 425,-2720"/>
<text text-anchor="middle" x="343" y="-2699.1" font-family="Courier,monospace" font-size="11.00">NetCommonsCakeTestCase</text>
</g>
<!-- \\NetCommonsConsoleTestCase&#45;&gt;\\NetCommonsCakeTestCase -->
<g id="edge13" class="edge"><title>\\NetCommonsConsoleTestCase&#45;&gt;\\NetCommonsCakeTestCase</title>
<path fill="none" stroke="black" d="M547.249,-2702C511.93,-2702 471.688,-2702 436.316,-2702"/>
<polygon fill="none" stroke="black" points="435.993,-2698.5 425.993,-2702 435.993,-2705.5 435.993,-2698.5"/>
</g>
<!-- \\NetCommonsGetTest -->
<g id="node8" class="node"><title>\\NetCommonsGetTest</title>
<polygon fill="none" stroke="black" points="998,-2842 868,-2842 868,-2806 998,-2806 998,-2842"/>
<text text-anchor="middle" x="933" y="-2821.1" font-family="Courier,monospace" font-size="11.00">NetCommonsGetTest</text>
</g>
<!-- \\NetCommonsGetTest&#45;&gt;\\NetCommonsModelTestCase -->
<g id="edge15" class="edge"><title>\\NetCommonsGetTest&#45;&gt;\\NetCommonsModelTestCase</title>
<path fill="none" stroke="black" d="M867.245,-2808.74C826.069,-2799.18 772.518,-2786.76 727.743,-2776.36"/>
<polygon fill="none" stroke="black" points="728.277,-2772.89 717.744,-2774.04 726.694,-2779.71 728.277,-2772.89"/>
</g>
<!-- \\NetCommonsHelperTestCase -->
<g id="node9" class="node"><title>\\NetCommonsHelperTestCase</title>
<polygon fill="none" stroke="black" points="729,-2666 551,-2666 551,-2630 729,-2630 729,-2666"/>
<text text-anchor="middle" x="640" y="-2645.1" font-family="Courier,monospace" font-size="11.00">NetCommonsHelperTestCase</text>
</g>
<!-- \\NetCommonsHelperTestCase&#45;&gt;\\NetCommonsCakeTestCase -->
<g id="edge17" class="edge"><title>\\NetCommonsHelperTestCase&#45;&gt;\\NetCommonsCakeTestCase</title>
<path fill="none" stroke="black" d="M550.487,-2664.28C514.267,-2670.86 472.456,-2678.46 435.9,-2685.11"/>
<polygon fill="none" stroke="black" points="434.95,-2681.72 425.737,-2686.96 436.202,-2688.61 434.95,-2681.72"/>
</g>
<!-- \\NetCommonsControllerBaseTestCase -->
<g id="node10" class="node"><title>\\NetCommonsControllerBaseTestCase</title>
<polygon fill="none" stroke="black" points="756,-1114 524,-1114 524,-1078 756,-1078 756,-1114"/>
<text text-anchor="middle" x="640" y="-1093.1" font-family="Courier,monospace" font-size="11.00">NetCommonsControllerBaseTestCase</text>
</g>
<!-- \\ControllerTestCase -->
<g id="node73" class="node"><title>\\ControllerTestCase</title>
<ellipse fill="none" stroke="black" cx="343" cy="-234" rx="106.773" ry="18.3848"/>
<text text-anchor="middle" x="343" y="-230.4" font-family="Times Roman,serif" font-size="14.00" fill="gray">\ControllerTestCase</text>
</g>
<!-- \\NetCommonsControllerBaseTestCase&#45;&gt;\\ControllerTestCase -->
<g id="edge19" class="edge"><title>\\NetCommonsControllerBaseTestCase&#45;&gt;\\ControllerTestCase</title>
<path fill="none" stroke="black" d="M531.586,-1077.92C528.121,-1075.29 524.901,-1072.33 522,-1069 403.492,-933.161 566.99,-398.148 450,-261 446.348,-256.718 442.125,-253.064 437.51,-249.949"/>
<polygon fill="none" stroke="black" points="439.225,-246.898 428.819,-244.906 435.712,-252.952 439.225,-246.898"/>
</g>
<!-- \\NetCommonsValidateTest -->
<g id="node11" class="node"><title>\\NetCommonsValidateTest</title>
<polygon fill="none" stroke="black" points="1015,-2788 851,-2788 851,-2752 1015,-2752 1015,-2788"/>
<text text-anchor="middle" x="933" y="-2767.1" font-family="Courier,monospace" font-size="11.00">NetCommonsValidateTest</text>
</g>
<!-- \\NetCommonsValidateTest&#45;&gt;\\NetCommonsModelTestCase -->
<g id="edge21" class="edge"><title>\\NetCommonsValidateTest&#45;&gt;\\NetCommonsModelTestCase</title>
<path fill="none" stroke="black" d="M850.213,-2766.04C814.791,-2764.35 773.196,-2762.36 736.397,-2760.61"/>
<polygon fill="none" stroke="black" points="736.31,-2757.1 726.154,-2760.12 735.976,-2764.09 736.31,-2757.1"/>
</g>
<!-- \\NetCommonsTestSuite -->
<g id="node12" class="node"><title>\\NetCommonsTestSuite</title>
<polygon fill="none" stroke="black" points="1005,-952 861,-952 861,-916 1005,-916 1005,-952"/>
<text text-anchor="middle" x="933" y="-931.1" font-family="Courier,monospace" font-size="11.00">NetCommonsTestSuite</text>
</g>
<!-- \\CakeTestSuite -->
<g id="node76" class="node"><title>\\CakeTestSuite</title>
<ellipse fill="none" stroke="black" cx="640" cy="-288" rx="84.1457" ry="18.3848"/>
<text text-anchor="middle" x="640" y="-284.4" font-family="Times Roman,serif" font-size="14.00" fill="gray">\CakeTestSuite</text>
</g>
<!-- \\NetCommonsTestSuite&#45;&gt;\\CakeTestSuite -->
<g id="edge23" class="edge"><title>\\NetCommonsTestSuite&#45;&gt;\\CakeTestSuite</title>
<path fill="none" stroke="black" d="M860.261,-926.653C848.75,-922.443 838.02,-916.195 830,-907 654.334,-705.587 940.806,-504.956 758,-310 751.051,-302.589 742.47,-297.203 733.129,-293.339"/>
<polygon fill="none" stroke="black" points="734.163,-289.993 723.569,-289.964 731.833,-296.594 734.163,-289.993"/>
</g>
<!-- \\CakeTestCase -->
<g id="node78" class="node"><title>\\CakeTestCase</title>
<ellipse fill="none" stroke="black" cx="82" cy="-2702" rx="82.0244" ry="18.3848"/>
<text text-anchor="middle" x="82" y="-2698.4" font-family="Times Roman,serif" font-size="14.00" fill="gray">\CakeTestCase</text>
</g>
<!-- \\NetCommonsCakeTestCase&#45;&gt;\\CakeTestCase -->
<g id="edge25" class="edge"><title>\\NetCommonsCakeTestCase&#45;&gt;\\CakeTestCase</title>
<path fill="none" stroke="black" d="M260.418,-2702C233.018,-2702 202.345,-2702 174.263,-2702"/>
<polygon fill="none" stroke="black" points="174.045,-2698.5 164.045,-2702 174.045,-2705.5 174.045,-2698.5"/>
</g>
<!-- \\NetCommonsSaveTest -->
<g id="node14" class="node"><title>\\NetCommonsSaveTest</title>
<polygon fill="none" stroke="black" points="1002,-2734 864,-2734 864,-2698 1002,-2698 1002,-2734"/>
<text text-anchor="middle" x="933" y="-2713.1" font-family="Courier,monospace" font-size="11.00">NetCommonsSaveTest</text>
</g>
<!-- \\NetCommonsSaveTest&#45;&gt;\\NetCommonsModelTestCase -->
<g id="edge27" class="edge"><title>\\NetCommonsSaveTest&#45;&gt;\\NetCommonsModelTestCase</title>
<path fill="none" stroke="black" d="M863.934,-2725.43C825.795,-2730.64 777.829,-2737.18 736.084,-2742.88"/>
<polygon fill="none" stroke="black" points="735.607,-2739.42 726.172,-2744.24 736.554,-2746.35 735.607,-2739.42"/>
</g>
<!-- \\NetCommonsModelTestCase&#45;&gt;\\NetCommonsCakeTestCase -->
<g id="edge29" class="edge"><title>\\NetCommonsModelTestCase&#45;&gt;\\NetCommonsCakeTestCase</title>
<path fill="none" stroke="black" d="M553.696,-2740.31C516.671,-2733.58 473.35,-2725.7 435.65,-2718.85"/>
<polygon fill="none" stroke="black" points="436.151,-2715.38 425.686,-2717.03 434.899,-2722.27 436.151,-2715.38"/>
</g>
<!-- \\NetCommonsControllerTestCase -->
<g id="node16" class="node"><title>\\NetCommonsControllerTestCase</title>
<polygon fill="none" stroke="black" points="1036,-1114 830,-1114 830,-1078 1036,-1078 1036,-1114"/>
<text text-anchor="middle" x="933" y="-1093.1" font-family="Courier,monospace" font-size="11.00">NetCommonsControllerTestCase</text>
</g>
<!-- \\NetCommonsControllerTestCase&#45;&gt;\\NetCommonsControllerBaseTestCase -->
<g id="edge31" class="edge"><title>\\NetCommonsControllerTestCase&#45;&gt;\\NetCommonsControllerBaseTestCase</title>
<path fill="none" stroke="black" d="M829.699,-1096C809.381,-1096 787.845,-1096 766.858,-1096"/>
<polygon fill="none" stroke="black" points="766.606,-1092.5 756.606,-1096 766.606,-1099.5 766.606,-1092.5"/>
</g>
<!-- \\NetCommonsAppController -->
<g id="node17" class="node"><title>\\NetCommonsAppController</title>
<polygon fill="none" stroke="black" points="726,-1060 554,-1060 554,-1024 726,-1024 726,-1060"/>
<text text-anchor="middle" x="640" y="-1039.1" font-family="Courier,monospace" font-size="11.00">NetCommonsAppController</text>
</g>
<!-- \\NetCommonsAppController&#45;&gt;\\Controller -->
<g id="edge33" class="edge"><title>\\NetCommonsAppController&#45;&gt;\\Controller</title>
<path fill="none" stroke="black" d="M632.553,-1023.75C611.887,-972.403 553.297,-821.985 522,-692 496.494,-586.068 532.509,-278.164 450,-207 413.989,-175.94 274.218,-178.699 236,-207 156.214,-266.083 101.185,-586.787 86.1456,-684.033"/>
<polygon fill="none" stroke="black" points="82.673,-683.588 84.6237,-694.002 89.5928,-684.645 82.673,-683.588"/>
</g>
<!-- \\AssetComponent -->
<g id="node18" class="node"><title>\\AssetComponent</title>
<polygon fill="none" stroke="black" points="988,-898 878,-898 878,-862 988,-862 988,-898"/>
<text text-anchor="middle" x="933" y="-877.1" font-family="Courier,monospace" font-size="11.00">AssetComponent</text>
</g>
<!-- \\Component -->
<g id="node84" class="node"><title>\\Component</title>
<ellipse fill="none" stroke="black" cx="640" cy="-234" rx="70.9184" ry="18.3848"/>
<text text-anchor="middle" x="640" y="-230.4" font-family="Times Roman,serif" font-size="14.00" fill="gray">\Component</text>
</g>
<!-- \\AssetComponent&#45;&gt;\\Component -->
<g id="edge35" class="edge"><title>\\AssetComponent&#45;&gt;\\Component</title>
<path fill="none" stroke="black" d="M877.342,-877.436C859.801,-873.802 841.915,-866.647 830,-853 655.683,-653.337 935.432,-457.899 758,-261 748.227,-250.155 735.069,-243.207 721.082,-238.841"/>
<polygon fill="none" stroke="black" points="721.864,-235.426 711.298,-236.214 720.049,-242.187 721.864,-235.426"/>
</g>
<!-- \\NetCommonsTimeComponent -->
<g id="node19" class="node"><title>\\NetCommonsTimeComponent</title>
<polygon fill="none" stroke="black" points="1019,-844 847,-844 847,-808 1019,-808 1019,-844"/>
<text text-anchor="middle" x="933" y="-823.1" font-family="Courier,monospace" font-size="11.00">NetCommonsTimeComponent</text>
</g>
<!-- \\NetCommonsTimeComponent&#45;&gt;\\Component -->
<g id="edge37" class="edge"><title>\\NetCommonsTimeComponent&#45;&gt;\\Component</title>
<path fill="none" stroke="black" d="M846.734,-812.334C840.484,-808.785 834.774,-804.402 830,-799 670.252,-618.227 920.569,-439.24 758,-261 748.162,-250.213 734.974,-243.293 720.979,-238.934"/>
<polygon fill="none" stroke="black" points="721.757,-235.519 711.192,-236.31 719.944,-242.281 721.757,-235.519"/>
</g>
<!-- \\PermissionComponent -->
<g id="node20" class="node"><title>\\PermissionComponent</title>
<polygon fill="none" stroke="black" points="1005,-790 861,-790 861,-754 1005,-754 1005,-790"/>
<text text-anchor="middle" x="933" y="-769.1" font-family="Courier,monospace" font-size="11.00">PermissionComponent</text>
</g>
<!-- \\PermissionComponent&#45;&gt;\\Component -->
<g id="edge39" class="edge"><title>\\PermissionComponent&#45;&gt;\\Component</title>
<path fill="none" stroke="black" d="M860.47,-764.469C848.938,-760.277 838.146,-754.083 830,-745 684.8,-583.094 905.726,-420.605 758,-261 748.083,-250.286 734.859,-243.398 720.853,-239.049"/>
<polygon fill="none" stroke="black" points="721.628,-235.634 711.063,-236.429 719.818,-242.396 721.628,-235.634"/>
</g>
<!-- \\NetCommonsComponent -->
<g id="node21" class="node"><title>\\NetCommonsComponent</title>
<polygon fill="none" stroke="black" points="1005,-736 861,-736 861,-700 1005,-700 1005,-736"/>
<text text-anchor="middle" x="933" y="-715.1" font-family="Courier,monospace" font-size="11.00">NetCommonsComponent</text>
</g>
<!-- \\NetCommonsComponent&#45;&gt;\\Component -->
<g id="edge41" class="edge"><title>\\NetCommonsComponent&#45;&gt;\\Component</title>
<path fill="none" stroke="black" d="M860.344,-710.25C848.896,-706.073 838.166,-699.94 830,-691 699.318,-547.927 890.914,-402.002 758,-261 747.986,-250.377 734.718,-243.531 720.698,-239.194"/>
<polygon fill="none" stroke="black" points="721.468,-235.777 710.904,-236.577 719.661,-242.54 721.468,-235.777"/>
</g>
<!-- \\NetCommonsController -->
<g id="node22" class="node"><title>\\NetCommonsController</title>
<polygon fill="none" stroke="black" points="1009,-1060 857,-1060 857,-1024 1009,-1024 1009,-1060"/>
<text text-anchor="middle" x="933" y="-1039.1" font-family="Courier,monospace" font-size="11.00">NetCommonsController</text>
</g>
<!-- \\NetCommonsController&#45;&gt;\\NetCommonsAppController -->
<g id="edge43" class="edge"><title>\\NetCommonsController&#45;&gt;\\NetCommonsAppController</title>
<path fill="none" stroke="black" d="M856.783,-1042C820.049,-1042 775.59,-1042 736.519,-1042"/>
<polygon fill="none" stroke="black" points="736.183,-1038.5 726.183,-1042 736.183,-1045.5 736.183,-1038.5"/>
</g>
<!-- \\NetCommonsUrl -->
<g id="node23" class="node"><title>\\NetCommonsUrl</title>
<polygon fill="none" stroke="black" points="985,-2194 881,-2194 881,-2158 985,-2158 985,-2194"/>
<text text-anchor="middle" x="933" y="-2173.1" font-family="Courier,monospace" font-size="11.00">NetCommonsUrl</text>
</g>
<!-- \\NetCommonsTime -->
<g id="node24" class="node"><title>\\NetCommonsTime</title>
<polygon fill="none" stroke="black" points="988,-2140 878,-2140 878,-2104 988,-2104 988,-2140"/>
<text text-anchor="middle" x="933" y="-2119.1" font-family="Courier,monospace" font-size="11.00">NetCommonsTime</text>
</g>
<!-- \\CurrentBase -->
<g id="node25" class="node"><title>\\CurrentBase</title>
<polygon fill="none" stroke="black" points="685,-2248 595,-2248 595,-2212 685,-2212 685,-2248"/>
<text text-anchor="middle" x="640" y="-2227.1" font-family="Courier,monospace" font-size="11.00">CurrentBase</text>
</g>
<!-- \\Current -->
<g id="node26" class="node"><title>\\Current</title>
<polygon fill="none" stroke="black" points="965,-2248 901,-2248 901,-2212 965,-2212 965,-2248"/>
<text text-anchor="middle" x="933" y="-2227.1" font-family="Courier,monospace" font-size="11.00">Current</text>
</g>
<!-- \\Current&#45;&gt;\\CurrentBase -->
<g id="edge45" class="edge"><title>\\Current&#45;&gt;\\CurrentBase</title>
<path fill="none" stroke="black" d="M900.806,-2230C851.48,-2230 756.554,-2230 695.846,-2230"/>
<polygon fill="none" stroke="black" points="695.669,-2226.5 685.669,-2230 695.669,-2233.5 695.669,-2226.5"/>
</g>
<!-- \\CurrentSystem -->
<g id="node27" class="node"><title>\\CurrentSystem</title>
<polygon fill="none" stroke="black" points="985,-2032 881,-2032 881,-1996 985,-1996 985,-2032"/>
<text text-anchor="middle" x="933" y="-2011.1" font-family="Courier,monospace" font-size="11.00">CurrentSystem</text>
</g>
<!-- \\CurrentPage -->
<g id="node28" class="node"><title>\\CurrentPage</title>
<polygon fill="none" stroke="black" points="978,-1978 888,-1978 888,-1942 978,-1942 978,-1978"/>
<text text-anchor="middle" x="933" y="-1957.1" font-family="Courier,monospace" font-size="11.00">CurrentPage</text>
</g>
<!-- \\CurrentFrame -->
<g id="node29" class="node"><title>\\CurrentFrame</title>
<polygon fill="none" stroke="black" points="982,-1924 884,-1924 884,-1888 982,-1888 982,-1924"/>
<text text-anchor="middle" x="933" y="-1903.1" font-family="Courier,monospace" font-size="11.00">CurrentFrame</text>
</g>
<!-- \\TokenHelper -->
<g id="node30" class="node"><title>\\TokenHelper</title>
<polygon fill="none" stroke="black" points="978,-574 888,-574 888,-538 978,-538 978,-574"/>
<text text-anchor="middle" x="933" y="-553.1" font-family="Courier,monospace" font-size="11.00">TokenHelper</text>
</g>
<!-- \\FormHelper -->
<g id="node91" class="node"><title>\\FormHelper</title>
<ellipse fill="none" stroke="black" cx="640" cy="-180" rx="70.9184" ry="18.3848"/>
<text text-anchor="middle" x="640" y="-176.4" font-family="Times Roman,serif" font-size="14.00" fill="gray">\FormHelper</text>
</g>
<!-- \\TokenHelper&#45;&gt;\\FormHelper -->
<g id="edge47" class="edge"><title>\\TokenHelper&#45;&gt;\\FormHelper</title>
<path fill="none" stroke="black" d="M887.373,-554.418C867.234,-551.367 844.821,-544.37 830,-529 728.21,-423.437 861.436,-310.95 758,-207 747.763,-196.712 734.461,-190.009 720.493,-185.707"/>
<polygon fill="none" stroke="black" points="721.312,-182.303 710.747,-183.098 719.501,-189.065 721.312,-182.303"/>
</g>
<!-- \\SingletonViewBlockHtmlHelper -->
<g id="node31" class="node"><title>\\SingletonViewBlockHtmlHelper</title>
<polygon fill="none" stroke="black" points="1036,-520 830,-520 830,-484 1036,-484 1036,-520"/>
<text text-anchor="middle" x="933" y="-499.1" font-family="Courier,monospace" font-size="11.00">SingletonViewBlockHtmlHelper</text>
</g>
<!-- \\HtmlHelper -->
<g id="node93" class="node"><title>\\HtmlHelper</title>
<ellipse fill="none" stroke="black" cx="640" cy="-126" rx="67.1751" ry="18.3848"/>
<text text-anchor="middle" x="640" y="-122.4" font-family="Times Roman,serif" font-size="14.00" fill="gray">HtmlHelper</text>
</g>
<!-- \\SingletonViewBlockHtmlHelper&#45;&gt;\\HtmlHelper -->
<g id="edge49" class="edge"><title>\\SingletonViewBlockHtmlHelper&#45;&gt;\\HtmlHelper</title>
<path fill="none" stroke="black" d="M840.591,-483.849C836.772,-481.261 833.208,-478.327 830,-475 728.21,-369.437 861.436,-256.95 758,-153 746.874,-141.819 732.128,-134.873 716.842,-130.64"/>
<polygon fill="none" stroke="black" points="717.29,-127.149 706.751,-128.233 715.666,-133.958 717.29,-127.149"/>
</g>
<!-- \\FormInputHelper -->
<g id="node32" class="node"><title>\\FormInputHelper</title>
<polygon fill="none" stroke="black" points="992,-1276 874,-1276 874,-1240 992,-1240 992,-1276"/>
<text text-anchor="middle" x="933" y="-1255.1" font-family="Courier,monospace" font-size="11.00">FormInputHelper</text>
</g>
<!-- \\FormInputHelper&#45;&gt;\\AppHelper -->
<g id="edge51" class="edge"><title>\\FormInputHelper&#45;&gt;\\AppHelper</title>
<path fill="none" stroke="black" d="M873.888,-1267.14C858.847,-1271.14 843.215,-1276.85 830,-1285 749.876,-1334.44 684.727,-1428.19 655.946,-1474.19"/>
<polygon fill="none" stroke="black" points="652.792,-1472.64 650.523,-1482.98 658.75,-1476.31 652.792,-1472.64"/>
</g>
<!-- \\WizardHelper -->
<g id="node33" class="node"><title>\\WizardHelper</title>
<polygon fill="none" stroke="black" points="982,-1222 884,-1222 884,-1186 982,-1186 982,-1222"/>
<text text-anchor="middle" x="933" y="-1201.1" font-family="Courier,monospace" font-size="11.00">WizardHelper</text>
</g>
<!-- \\WizardHelper&#45;&gt;\\AppHelper -->
<g id="edge53" class="edge"><title>\\WizardHelper&#45;&gt;\\AppHelper</title>
<path fill="none" stroke="black" d="M883.887,-1209.65C865.751,-1213.52 845.791,-1220.03 830,-1231 738.034,-1294.86 675.79,-1418.47 651.457,-1473.46"/>
<polygon fill="none" stroke="black" points="648.13,-1472.34 647.356,-1482.9 654.551,-1475.13 648.13,-1472.34"/>
</g>
<!-- \\DisplayNumberHelper -->
<g id="node34" class="node"><title>\\DisplayNumberHelper</title>
<polygon fill="none" stroke="black" points="1005,-1168 861,-1168 861,-1132 1005,-1132 1005,-1168"/>
<text text-anchor="middle" x="933" y="-1147.1" font-family="Courier,monospace" font-size="11.00">DisplayNumberHelper</text>
</g>
<!-- \\DisplayNumberHelper&#45;&gt;\\AppHelper -->
<g id="edge55" class="edge"><title>\\DisplayNumberHelper&#45;&gt;\\AppHelper</title>
<path fill="none" stroke="black" d="M860.402,-1161.28C849.541,-1165.09 838.988,-1170.19 830,-1177 725.624,-1256.08 668.084,-1410.47 648.129,-1473.35"/>
<polygon fill="none" stroke="black" points="644.764,-1472.39 645.144,-1482.97 651.45,-1474.46 644.764,-1472.39"/>
</g>
<!-- \\MessageFlashHelper -->
<g id="node35" class="node"><title>\\MessageFlashHelper</title>
<polygon fill="none" stroke="black" points="1002,-2086 864,-2086 864,-2050 1002,-2050 1002,-2086"/>
<text text-anchor="middle" x="933" y="-2065.1" font-family="Courier,monospace" font-size="11.00">MessageFlashHelper</text>
</g>
<!-- \\MessageFlashHelper&#45;&gt;\\AppHelper -->
<g id="edge57" class="edge"><title>\\MessageFlashHelper&#45;&gt;\\AppHelper</title>
<path fill="none" stroke="black" d="M863.964,-2059.84C851.531,-2055.76 839.517,-2049.77 830,-2041 674.226,-1897.5 646.135,-1618.7 641.095,-1529.31"/>
<polygon fill="none" stroke="black" points="644.581,-1528.94 640.577,-1519.13 637.59,-1529.3 644.581,-1528.94"/>
</g>
<!-- \\DateHelper -->
<g id="node36" class="node"><title>\\DateHelper</title>
<polygon fill="none" stroke="black" points="975,-1870 891,-1870 891,-1834 975,-1834 975,-1870"/>
<text text-anchor="middle" x="933" y="-1849.1" font-family="Courier,monospace" font-size="11.00">DateHelper</text>
</g>
<!-- \\DateHelper&#45;&gt;\\AppHelper -->
<g id="edge59" class="edge"><title>\\DateHelper&#45;&gt;\\AppHelper</title>
<path fill="none" stroke="black" d="M890.888,-1848.45C870.826,-1845 847.46,-1838.23 830,-1825 725.624,-1745.92 668.084,-1591.53 648.129,-1528.65"/>
<polygon fill="none" stroke="black" points="651.45,-1527.54 645.144,-1519.03 644.764,-1529.61 651.45,-1527.54"/>
</g>
<!-- \\SnsButtonHelper -->
<g id="node37" class="node"><title>\\SnsButtonHelper</title>
<polygon fill="none" stroke="black" points="992,-1816 874,-1816 874,-1780 992,-1780 992,-1816"/>
<text text-anchor="middle" x="933" y="-1795.1" font-family="Courier,monospace" font-size="11.00">SnsButtonHelper</text>
</g>
<!-- \\SnsButtonHelper&#45;&gt;\\AppHelper -->
<g id="edge61" class="edge"><title>\\SnsButtonHelper&#45;&gt;\\AppHelper</title>
<path fill="none" stroke="black" d="M873.801,-1789.95C858.597,-1785.95 842.906,-1779.96 830,-1771 738.034,-1707.14 675.79,-1583.53 651.457,-1528.54"/>
<polygon fill="none" stroke="black" points="654.551,-1526.87 647.356,-1519.1 648.13,-1529.66 654.551,-1526.87"/>
</g>
<!-- \\BackToHelper -->
<g id="node38" class="node"><title>\\BackToHelper</title>
<polygon fill="none" stroke="black" points="982,-1762 884,-1762 884,-1726 982,-1726 982,-1762"/>
<text text-anchor="middle" x="933" y="-1741.1" font-family="Courier,monospace" font-size="11.00">BackToHelper</text>
</g>
<!-- \\BackToHelper&#45;&gt;\\AppHelper -->
<g id="edge63" class="edge"><title>\\BackToHelper&#45;&gt;\\AppHelper</title>
<path fill="none" stroke="black" d="M883.968,-1737.31C866.043,-1733.32 846.204,-1727 830,-1717 749.876,-1667.56 684.727,-1573.81 655.946,-1527.81"/>
<polygon fill="none" stroke="black" points="658.75,-1525.69 650.523,-1519.02 652.792,-1529.36 658.75,-1525.69"/>
</g>
<!-- \\NetCommonsHtmlHelper -->
<g id="node39" class="node"><title>\\NetCommonsHtmlHelper</title>
<polygon fill="none" stroke="black" points="1009,-1708 857,-1708 857,-1672 1009,-1672 1009,-1708"/>
<text text-anchor="middle" x="933" y="-1687.1" font-family="Courier,monospace" font-size="11.00">NetCommonsHtmlHelper</text>
</g>
<!-- \\NetCommonsHtmlHelper&#45;&gt;\\AppHelper -->
<g id="edge65" class="edge"><title>\\NetCommonsHtmlHelper&#45;&gt;\\AppHelper</title>
<path fill="none" stroke="black" d="M856.984,-1674.27C847.651,-1671.13 838.439,-1667.41 830,-1663 761.41,-1627.19 696.097,-1562.56 662.838,-1526.7"/>
<polygon fill="none" stroke="black" points="665.192,-1524.09 655.854,-1519.09 660.033,-1528.83 665.192,-1524.09"/>
</g>
<!-- \\ButtonHelper -->
<g id="node40" class="node"><title>\\ButtonHelper</title>
<polygon fill="none" stroke="black" points="982,-682 884,-682 884,-646 982,-646 982,-682"/>
<text text-anchor="middle" x="933" y="-661.1" font-family="Courier,monospace" font-size="11.00">ButtonHelper</text>
</g>
<!-- \\ButtonHelper&#45;&gt;\\FormHelper -->
<g id="edge67" class="edge"><title>\\ButtonHelper&#45;&gt;\\FormHelper</title>
<path fill="none" stroke="black" d="M883.825,-662.278C864.469,-659.046 843.652,-651.946 830,-637 699.318,-493.927 890.914,-348.002 758,-207 747.986,-196.377 734.718,-189.531 720.698,-185.194"/>
<polygon fill="none" stroke="black" points="721.468,-181.777 710.904,-182.577 719.661,-188.54 721.468,-181.777"/>
</g>
<!-- \\ComposerHelper -->
<g id="node41" class="node"><title>\\ComposerHelper</title>
<polygon fill="none" stroke="black" points="988,-1654 878,-1654 878,-1618 988,-1618 988,-1654"/>
<text text-anchor="middle" x="933" y="-1633.1" font-family="Courier,monospace" font-size="11.00">ComposerHelper</text>
</g>
<!-- \\ComposerHelper&#45;&gt;\\AppHelper -->
<g id="edge69" class="edge"><title>\\ComposerHelper&#45;&gt;\\AppHelper</title>
<path fill="none" stroke="black" d="M877.345,-1624.23C861.755,-1620.18 844.981,-1615.1 830,-1609 773.066,-1585.82 712.097,-1548.73 675.004,-1524.61"/>
<polygon fill="none" stroke="black" points="676.839,-1521.63 666.557,-1519.07 673.002,-1527.48 676.839,-1521.63"/>
</g>
<!-- \\LinkButtonHelper -->
<g id="node42" class="node"><title>\\LinkButtonHelper</title>
<polygon fill="none" stroke="black" points="995,-628 871,-628 871,-592 995,-592 995,-628"/>
<text text-anchor="middle" x="933" y="-607.1" font-family="Courier,monospace" font-size="11.00">LinkButtonHelper</text>
</g>
<!-- \\LinkButtonHelper&#45;&gt;\\FormHelper -->
<g id="edge71" class="edge"><title>\\LinkButtonHelper&#45;&gt;\\FormHelper</title>
<path fill="none" stroke="black" d="M870.353,-605.174C855.34,-601.149 840.605,-594.343 830,-583 713.795,-458.716 876.143,-329.443 758,-207 747.863,-196.494 734.538,-189.702 720.502,-185.381"/>
<polygon fill="none" stroke="black" points="721.266,-181.962 710.702,-182.77 719.464,-188.726 721.266,-181.962"/>
</g>
<!-- \\TableListHelper -->
<g id="node43" class="node"><title>\\TableListHelper</title>
<polygon fill="none" stroke="black" points="992,-1600 874,-1600 874,-1564 992,-1564 992,-1600"/>
<text text-anchor="middle" x="933" y="-1579.1" font-family="Courier,monospace" font-size="11.00">TableListHelper</text>
</g>
<!-- \\TableListHelper&#45;&gt;\\AppHelper -->
<g id="edge73" class="edge"><title>\\TableListHelper&#45;&gt;\\AppHelper</title>
<path fill="none" stroke="black" d="M873.847,-1566.72C859.482,-1562.94 844.177,-1558.87 830,-1555 781.716,-1541.81 726.728,-1526.11 688.375,-1515.04"/>
<polygon fill="none" stroke="black" points="689.087,-1511.61 678.508,-1512.2 687.145,-1518.33 689.087,-1511.61"/>
</g>
<!-- \\NetCommonsTimeHelper -->
<g id="node44" class="node"><title>\\NetCommonsTimeHelper</title>
<polygon fill="none" stroke="black" points="1009,-1546 857,-1546 857,-1510 1009,-1510 1009,-1546"/>
<text text-anchor="middle" x="933" y="-1525.1" font-family="Courier,monospace" font-size="11.00">NetCommonsTimeHelper</text>
</g>
<!-- \\NetCommonsTimeHelper&#45;&gt;\\AppHelper -->
<g id="edge75" class="edge"><title>\\NetCommonsTimeHelper&#45;&gt;\\AppHelper</title>
<path fill="none" stroke="black" d="M856.783,-1520.98C803.659,-1516.08 734.376,-1509.7 688.603,-1505.48"/>
<polygon fill="none" stroke="black" points="688.917,-1501.99 678.638,-1504.56 688.274,-1508.96 688.917,-1501.99"/>
</g>
<!-- \\NetCommonsFormHelper -->
<g id="node45" class="node"><title>\\NetCommonsFormHelper</title>
<polygon fill="none" stroke="black" points="1009,-1492 857,-1492 857,-1456 1009,-1456 1009,-1492"/>
<text text-anchor="middle" x="933" y="-1471.1" font-family="Courier,monospace" font-size="11.00">NetCommonsFormHelper</text>
</g>
<!-- \\NetCommonsFormHelper&#45;&gt;\\AppHelper -->
<g id="edge77" class="edge"><title>\\NetCommonsFormHelper&#45;&gt;\\AppHelper</title>
<path fill="none" stroke="black" d="M856.783,-1481.02C803.659,-1485.92 734.376,-1492.3 688.603,-1496.52"/>
<polygon fill="none" stroke="black" points="688.274,-1493.04 678.638,-1497.44 688.917,-1500.01 688.274,-1493.04"/>
</g>
<!-- \\TitleIconHelper -->
<g id="node46" class="node"><title>\\TitleIconHelper</title>
<polygon fill="none" stroke="black" points="992,-1438 874,-1438 874,-1402 992,-1402 992,-1438"/>
<text text-anchor="middle" x="933" y="-1417.1" font-family="Courier,monospace" font-size="11.00">TitleIconHelper</text>
</g>
<!-- \\TitleIconHelper&#45;&gt;\\AppHelper -->
<g id="edge79" class="edge"><title>\\TitleIconHelper&#45;&gt;\\AppHelper</title>
<path fill="none" stroke="black" d="M873.847,-1435.28C859.482,-1439.06 844.177,-1443.13 830,-1447 781.716,-1460.19 726.728,-1475.89 688.375,-1486.96"/>
<polygon fill="none" stroke="black" points="687.145,-1483.67 678.508,-1489.8 689.087,-1490.39 687.145,-1483.67"/>
</g>
<!-- \\DatetimePickerHelper -->
<g id="node47" class="node"><title>\\DatetimePickerHelper</title>
<polygon fill="none" stroke="black" points="1009,-1384 857,-1384 857,-1348 1009,-1348 1009,-1384"/>
<text text-anchor="middle" x="933" y="-1363.1" font-family="Courier,monospace" font-size="11.00">DatetimePickerHelper</text>
</g>
<!-- \\DatetimePickerHelper&#45;&gt;\\AppHelper -->
<g id="edge81" class="edge"><title>\\DatetimePickerHelper&#45;&gt;\\AppHelper</title>
<path fill="none" stroke="black" d="M856.883,-1383.54C847.707,-1386.36 838.561,-1389.51 830,-1393 773.066,-1416.18 712.097,-1453.27 675.004,-1477.39"/>
<polygon fill="none" stroke="black" points="673.002,-1474.52 666.557,-1482.93 676.839,-1480.37 673.002,-1474.52"/>
</g>
<!-- \\Model -->
<g id="node111" class="node"><title>\\Model</title>
<ellipse fill="none" stroke="black" cx="82" cy="-2567" rx="43.8406" ry="18.3848"/>
<text text-anchor="middle" x="82" y="-2563.4" font-family="Times Roman,serif" font-size="14.00" fill="gray">\Model</text>
</g>
<!-- \\NetCommonsAppModel&#45;&gt;\\Model -->
<g id="edge83" class="edge"><title>\\NetCommonsAppModel&#45;&gt;\\Model</title>
<path fill="none" stroke="black" d="M273.742,-2567C230.675,-2567 176.099,-2567 136.195,-2567"/>
<polygon fill="none" stroke="black" points="136.125,-2563.5 126.125,-2567 136.125,-2570.5 136.125,-2563.5"/>
</g>
<!-- \\OriginalKeyBehavior -->
<g id="node49" class="node"><title>\\OriginalKeyBehavior</title>
<polygon fill="none" stroke="black" points="1005,-412 861,-412 861,-376 1005,-376 1005,-412"/>
<text text-anchor="middle" x="933" y="-391.1" font-family="Courier,monospace" font-size="11.00">OriginalKeyBehavior</text>
</g>
<!-- \\ModelBehavior -->
<g id="node113" class="node"><title>\\ModelBehavior</title>
<ellipse fill="none" stroke="black" cx="640" cy="-72" rx="86.9741" ry="18.3848"/>
<text text-anchor="middle" x="640" y="-68.4" font-family="Times Roman,serif" font-size="14.00" fill="gray">\ModelBehavior</text>
</g>
<!-- \\OriginalKeyBehavior&#45;&gt;\\ModelBehavior -->
<g id="edge85" class="edge"><title>\\OriginalKeyBehavior&#45;&gt;\\ModelBehavior</title>
<path fill="none" stroke="black" d="M860.254,-385.293C849.024,-381.198 838.391,-375.34 830,-367 742.524,-280.055 846.831,-184.56 758,-99 750.315,-91.5978 741.036,-86.0697 731.099,-81.9636"/>
<polygon fill="none" stroke="black" points="731.994,-78.5653 721.4,-78.4477 729.608,-85.1462 731.994,-78.5653"/>
</g>
<!-- \\TrackableBehavior -->
<g id="node50" class="node"><title>\\TrackableBehavior</title>
<polygon fill="none" stroke="black" points="998,-466 868,-466 868,-430 998,-430 998,-466"/>
<text text-anchor="middle" x="933" y="-445.1" font-family="Courier,monospace" font-size="11.00">TrackableBehavior</text>
</g>
<!-- \\TrackableBehavior&#45;&gt;\\ModelBehavior -->
<g id="edge87" class="edge"><title>\\TrackableBehavior&#45;&gt;\\ModelBehavior</title>
<path fill="none" stroke="black" d="M867.375,-442.047C853.48,-437.941 840.009,-431.38 830,-421 728.21,-315.437 861.436,-202.95 758,-99 750.53,-91.4927 741.428,-85.8948 731.627,-81.7455"/>
<polygon fill="none" stroke="black" points="732.638,-78.3879 722.045,-78.1961 730.207,-84.952 732.638,-78.3879"/>
</g>
<!-- \\YAExceptionRenderer -->
<g id="node51" class="node"><title>\\YAExceptionRenderer</title>
<polygon fill="none" stroke="black" points="1005,-358 861,-358 861,-322 1005,-322 1005,-358"/>
<text text-anchor="middle" x="933" y="-337.1" font-family="Courier,monospace" font-size="11.00">YAExceptionRenderer</text>
</g>
<!-- \\ExceptionRenderer -->
<g id="node116" class="node"><title>\\ExceptionRenderer</title>
<ellipse fill="none" stroke="black" cx="640" cy="-18" rx="118.087" ry="18.3848"/>
<text text-anchor="middle" x="640" y="-14.4" font-family="Times Roman,serif" font-size="14.00" fill="gray">TEHxceptionRenderer</text>
</g>
<!-- \\YAExceptionRenderer&#45;&gt;\\ExceptionRenderer -->
<g id="edge89" class="edge"><title>\\YAExceptionRenderer&#45;&gt;\\ExceptionRenderer</title>
<path fill="none" stroke="black" d="M927.866,-321.986C912.069,-269.992 859.034,-118.69 758,-45 751.988,-40.6153 745.382,-36.927 738.462,-33.8264"/>
<polygon fill="none" stroke="black" points="739.438,-30.4465 728.855,-29.9522 736.82,-36.9384 739.438,-30.4465"/>
</g>
<!-- \\NetCommonsMigration -->
<g id="node52" class="node"><title>\\NetCommonsMigration</title>
<polygon fill="none" stroke="black" points="712,-683 568,-683 568,-647 712,-647 712,-683"/>
<text text-anchor="middle" x="640" y="-662.1" font-family="Courier,monospace" font-size="11.00">NetCommonsMigration</text>
</g>
<!-- \\CakeMigration -->
<g id="node118" class="node"><title>\\CakeMigration</title>
<ellipse fill="none" stroke="black" cx="343" cy="-142" rx="84.8528" ry="18.3848"/>
<text text-anchor="middle" x="343" y="-138.4" font-family="Times Roman,serif" font-size="14.00" fill="gray">\CakeMigration</text>
</g>
<!-- \\NetCommonsMigration&#45;&gt;\\CakeMigration -->
<g id="edge91" class="edge"><title>\\NetCommonsMigration&#45;&gt;\\CakeMigration</title>
<path fill="none" stroke="black" d="M567.348,-665.399C550.467,-662.024 533.961,-655.35 522,-643 375.285,-491.514 588.462,-333.064 450,-174 443.102,-166.076 434.331,-160.072 424.788,-155.532"/>
<polygon fill="none" stroke="black" points="426.014,-152.251 415.439,-151.612 423.308,-158.706 426.014,-152.251"/>
</g>
<!-- \\SecuritySettingsController -->
<g id="node53" class="node"><title>\\SecuritySettingsController</title>
<polygon fill="none" stroke="black" points="1029,-2410 837,-2410 837,-2374 1029,-2374 1029,-2410"/>
<text text-anchor="middle" x="933" y="-2389.1" font-family="Courier,monospace" font-size="11.00">SecuritySettingsController</text>
</g>
<!-- \\SystemManagerAppController -->
<g id="node54" class="node"><title>\\SystemManagerAppController</title>
<polygon fill="none" stroke="black" points="736,-2383 544,-2383 544,-2347 736,-2347 736,-2383"/>
<text text-anchor="middle" x="640" y="-2362.1" font-family="Courier,monospace" font-size="11.00">SystemManagerAppController</text>
</g>
<!-- \\SecuritySettingsController&#45;&gt;\\SystemManagerAppController -->
<g id="edge93" class="edge"><title>\\SecuritySettingsController&#45;&gt;\\SystemManagerAppController</title>
<path fill="none" stroke="black" d="M836.655,-2383.12C807.784,-2380.46 775.958,-2377.53 746.475,-2374.81"/>
<polygon fill="none" stroke="black" points="746.432,-2371.29 736.153,-2373.86 745.789,-2378.26 746.432,-2371.29"/>
</g>
<!-- \\SystemManagerAppController&#45;&gt;\\AppController -->
<g id="edge95" class="edge"><title>\\SystemManagerAppController&#45;&gt;\\AppController</title>
<path fill="none" stroke="black" d="M614.332,-2346.96C588.094,-2327.39 547.655,-2293.96 522,-2257 424.615,-2116.71 368.098,-1915.56 349.7,-1842.17"/>
<polygon fill="none" stroke="black" points="353.056,-1841.16 347.261,-1832.29 346.26,-1842.83 353.056,-1841.16"/>
</g>
<!-- \\MailServerController -->
<g id="node55" class="node"><title>\\MailServerController</title>
<polygon fill="none" stroke="black" points="1009,-2356 857,-2356 857,-2320 1009,-2320 1009,-2356"/>
<text text-anchor="middle" x="933" y="-2335.1" font-family="Courier,monospace" font-size="11.00">MailServerController</text>
</g>
<!-- \\MailServerController&#45;&gt;\\SystemManagerAppController -->
<g id="edge97" class="edge"><title>\\MailServerController&#45;&gt;\\SystemManagerAppController</title>
<path fill="none" stroke="black" d="M856.783,-2345.02C823.073,-2348.13 782.856,-2351.84 746.269,-2355.21"/>
<polygon fill="none" stroke="black" points="745.691,-2351.75 736.054,-2356.15 746.333,-2358.72 745.691,-2351.75"/>
</g>
<!-- \\DeveloperController -->
<g id="node56" class="node"><title>\\DeveloperController</title>
<polygon fill="none" stroke="black" points="1005,-2302 861,-2302 861,-2266 1005,-2266 1005,-2302"/>
<text text-anchor="middle" x="933" y="-2281.1" font-family="Courier,monospace" font-size="11.00">DeveloperController</text>
</g>
<!-- \\DeveloperController&#45;&gt;\\SystemManagerAppController -->
<g id="edge99" class="edge"><title>\\DeveloperController&#45;&gt;\\SystemManagerAppController</title>
<path fill="none" stroke="black" d="M863.415,-2302.03C852.231,-2304.99 840.789,-2308.05 830,-2311 790.993,-2321.65 747.61,-2333.95 712.158,-2344.12"/>
<polygon fill="none" stroke="black" points="711.025,-2340.8 702.379,-2346.92 712.957,-2347.53 711.025,-2340.8"/>
</g>
<!-- \\WebServerController -->
<g id="node57" class="node"><title>\\WebServerController</title>
<polygon fill="none" stroke="black" points="1005,-2518 861,-2518 861,-2482 1005,-2482 1005,-2518"/>
<text text-anchor="middle" x="933" y="-2497.1" font-family="Courier,monospace" font-size="11.00">WebServerController</text>
</g>
<!-- \\WebServerController&#45;&gt;\\SystemManagerAppController -->
<g id="edge101" class="edge"><title>\\WebServerController&#45;&gt;\\SystemManagerAppController</title>
<path fill="none" stroke="black" d="M860.461,-2483.54C850.095,-2480.45 839.674,-2476.94 830,-2473 773.066,-2449.82 712.097,-2412.73 675.004,-2388.61"/>
<polygon fill="none" stroke="black" points="676.839,-2385.63 666.557,-2383.07 673.002,-2391.48 676.839,-2385.63"/>
</g>
<!-- \\SystemManagerController -->
<g id="node58" class="node"><title>\\SystemManagerController</title>
<polygon fill="none" stroke="black" points="1019,-2464 847,-2464 847,-2428 1019,-2428 1019,-2464"/>
<text text-anchor="middle" x="933" y="-2443.1" font-family="Courier,monospace" font-size="11.00">SystemManagerController</text>
</g>
<!-- \\SystemManagerController&#45;&gt;\\SystemManagerAppController -->
<g id="edge103" class="edge"><title>\\SystemManagerController&#45;&gt;\\SystemManagerAppController</title>
<path fill="none" stroke="black" d="M863.415,-2427.97C852.231,-2425.01 840.789,-2421.95 830,-2419 790.993,-2408.35 747.61,-2396.05 712.158,-2385.88"/>
<polygon fill="none" stroke="black" points="712.957,-2382.47 702.379,-2383.08 711.025,-2389.2 712.957,-2382.47"/>
</g>
<!-- \\SystemManagerHelper -->
<g id="node59" class="node"><title>\\SystemManagerHelper</title>
<polygon fill="none" stroke="black" points="1005,-1330 861,-1330 861,-1294 1005,-1294 1005,-1330"/>
<text text-anchor="middle" x="933" y="-1309.1" font-family="Courier,monospace" font-size="11.00">SystemManagerHelper</text>
</g>
<!-- \\SystemManagerHelper&#45;&gt;\\AppHelper -->
<g id="edge105" class="edge"><title>\\SystemManagerHelper&#45;&gt;\\AppHelper</title>
<path fill="none" stroke="black" d="M860.25,-1326.65C849.808,-1330.01 839.422,-1334.08 830,-1339 761.41,-1374.81 696.097,-1439.44 662.838,-1475.3"/>
<polygon fill="none" stroke="black" points="660.033,-1473.17 655.854,-1482.91 665.192,-1477.91 660.033,-1473.17"/>
</g>
<!-- \\SystemManagerAppModel -->
<g id="node60" class="node"><title>\\SystemManagerAppModel</title>
<polygon fill="none" stroke="black" points="1012,-2626 854,-2626 854,-2590 1012,-2590 1012,-2626"/>
<text text-anchor="middle" x="933" y="-2605.1" font-family="Courier,monospace" font-size="11.00">SystemManagerAppModel</text>
</g>
<!-- \\SystemManagerAppModel&#45;&gt;\\AppModel -->
<g id="edge107" class="edge"><title>\\SystemManagerAppModel&#45;&gt;\\AppModel</title>
<path fill="none" stroke="black" d="M853.71,-2596.9C799.937,-2589.38 730.74,-2579.7 685.886,-2573.42"/>
<polygon fill="none" stroke="black" points="686.254,-2569.94 675.866,-2572.02 685.284,-2576.87 686.254,-2569.94"/>
</g>
<!-- \\PluginRecords -->
<g id="node61" class="node"><title>\\PluginRecords</title>
<polygon fill="none" stroke="black" points="985,-1006 881,-1006 881,-970 985,-970 985,-1006"/>
<text text-anchor="middle" x="933" y="-985.1" font-family="Courier,monospace" font-size="11.00">PluginRecords</text>
</g>
<!-- \\PluginRecords&#45;&gt;\\NetCommonsMigration -->
<g id="edge109" class="edge"><title>\\PluginRecords&#45;&gt;\\NetCommonsMigration</title>
<path fill="none" stroke="black" d="M880.74,-982.068C863.376,-978.166 844.732,-971.702 830,-961 732.157,-889.923 671.99,-751.671 649.761,-692.716"/>
<polygon fill="none" stroke="black" points="653.034,-691.475 646.284,-683.308 646.468,-693.901 653.034,-691.475"/>
</g>
</g>
</svg>
