<?xml version="1.0" encoding="UTF-8" standalone="no"?>
<!DOCTYPE svg PUBLIC "-//W3C//DTD SVG 1.1//EN"
 "http://www.w3.org/Graphics/SVG/1.1/DTD/svg11.dtd">
<!-- Generated by graphviz version 2.26.3 (20100126.1600)
 -->
<!-- Title: G Pages: 1 -->
<svg width="1274pt" height="2872pt"
 viewBox="0.00 0.00 1274.00 2871.81" xmlns="http://www.w3.org/2000/svg" xmlns:xlink="http://www.w3.org/1999/xlink">
<g id="graph1" class="graph" transform="scale(1 1) rotate(0) translate(4 2867.81)">
<title>G</title>
<polygon fill="white" stroke="white" points="-4,5 -4,-2867.81 1271,-2867.81 1271,5 -4,5"/>
<g id="graph2" class="cluster"><title>cluster_Global</title>
<polyline fill="none" stroke="gray" points="177,-405.806 1246,-405.806 "/>
<path fill="none" stroke="gray" d="M1246,-405.806C1252,-405.806 1258,-411.806 1258,-417.806"/>
<polyline fill="none" stroke="gray" points="1258,-417.806 1258,-2843.81 "/>
<path fill="none" stroke="gray" d="M1258,-2843.81C1258,-2849.81 1252,-2855.81 1246,-2855.81"/>
<polyline fill="none" stroke="gray" points="1246,-2855.81 177,-2855.81 "/>
<path fill="none" stroke="gray" d="M177,-2855.81C171,-2855.81 165,-2849.81 165,-2843.81"/>
<polyline fill="none" stroke="gray" points="165,-2843.81 165,-417.806 "/>
<path fill="none" stroke="gray" d="M165,-417.806C165,-411.806 171,-405.806 177,-405.806"/>
<text text-anchor="middle" x="711.5" y="-2841.91" font-family="Times Roman,serif" font-size="11.00" fill="gray">Global</text>
</g>
<!-- \\AppController -->
<g id="node2" class="node"><title>\\AppController</title>
<polygon fill="none" stroke="black" points="555,-1435.81 451,-1435.81 451,-1399.81 555,-1399.81 555,-1435.81"/>
<text text-anchor="middle" x="503" y="-1414.91" font-family="Courier,monospace" font-size="11.00">AppController</text>
</g>
<!-- \\Controller -->
<g id="node63" class="node"><title>\\Controller</title>
<ellipse fill="none" stroke="black" cx="242" cy="-302.806" rx="63.1385" ry="18.3848"/>
<text text-anchor="middle" x="242" y="-299.206" font-family="Times Roman,serif" font-size="14.00" fill="gray">\Controller</text>
</g>
<!-- \\AppController&#45;&gt;\\Controller -->
<g id="edge3" class="edge"><title>\\AppController&#45;&gt;\\Controller</title>
<path fill="none" stroke="black" d="M450.858,-1419.74C430.828,-1417.61 409.544,-1411.3 396,-1395.81 243.073,-1220.91 444.658,-551.347 324,-352.806 316.05,-339.724 303.255,-329.594 290.113,-321.982"/>
<polygon fill="none" stroke="black" points="291.482,-318.745 281.014,-317.108 288.177,-324.915 291.482,-318.745"/>
</g>
<!-- \\AppModel -->
<g id="node3" class="node"><title>\\AppModel</title>
<polygon fill="none" stroke="black" points="538,-2798.81 468,-2798.81 468,-2762.81 538,-2762.81 538,-2798.81"/>
<text text-anchor="middle" x="503" y="-2777.91" font-family="Courier,monospace" font-size="11.00">AppModel</text>
</g>
<!-- \\NetCommonsAppModel -->
<g id="node47" class="node"><title>\\NetCommonsAppModel</title>
<polygon fill="none" stroke="black" points="311,-2798.81 173,-2798.81 173,-2762.81 311,-2762.81 311,-2798.81"/>
<text text-anchor="middle" x="242" y="-2777.91" font-family="Courier,monospace" font-size="11.00">NetCommonsAppModel</text>
</g>
<!-- \\AppModel&#45;&gt;\\NetCommonsAppModel -->
<g id="edge5" class="edge"><title>\\AppModel&#45;&gt;\\NetCommonsAppModel</title>
<path fill="none" stroke="black" d="M467.256,-2780.81C429.848,-2780.81 369.903,-2780.81 321.254,-2780.81"/>
<polygon fill="none" stroke="black" points="321.056,-2777.31 311.056,-2780.81 321.056,-2784.31 321.056,-2777.31"/>
</g>
<!-- \\DatabaseConfiguration -->
<g id="node4" class="node"><title>\\DatabaseConfiguration</title>
<polygon fill="none" stroke="black" points="879,-2771.81 721,-2771.81 721,-2735.81 879,-2735.81 879,-2771.81"/>
<text text-anchor="middle" x="800" y="-2750.91" font-family="Courier,monospace" font-size="11.00">DatabaseConfiguration</text>
</g>
<!-- \\DatabaseConfiguration&#45;&gt;\\AppModel -->
<g id="edge7" class="edge"><title>\\DatabaseConfiguration&#45;&gt;\\AppModel</title>
<path fill="none" stroke="black" d="M720.8,-2761.01C665.959,-2765.99 594.863,-2772.45 549.084,-2776.62"/>
<polygon fill="none" stroke="black" points="548.509,-2773.15 538.867,-2777.55 549.143,-2780.13 548.509,-2773.15"/>
</g>
<!-- \\AppHelper -->
<g id="node5" class="node"><title>\\AppHelper</title>
<polygon fill="none" stroke="black" points="838,-1664.81 762,-1664.81 762,-1628.81 838,-1628.81 838,-1664.81"/>
<text text-anchor="middle" x="800" y="-1643.91" font-family="Courier,monospace" font-size="11.00">AppHelper</text>
</g>
<!-- \\Helper -->
<g id="node67" class="node"><title>\\Helper</title>
<ellipse fill="none" stroke="black" cx="503" cy="-379.806" rx="43.8406" ry="18.3848"/>
<text text-anchor="middle" x="503" y="-376.206" font-family="Times Roman,serif" font-size="14.00" fill="gray">Helper</text>
</g>
<!-- \\AppHelper&#45;&gt;\\Helper -->
<g id="edge9" class="edge"><title>\\AppHelper&#45;&gt;\\Helper</title>
<path fill="none" stroke="black" d="M791.411,-1628.7C768.915,-1580.34 708.21,-1443.62 682,-1322.81 638.474,-1122.18 745.831,-555.736 610,-401.806 596.75,-386.79 576.226,-380.419 556.683,-378.115"/>
<polygon fill="none" stroke="black" points="556.857,-374.618 546.596,-377.257 556.264,-381.592 556.857,-374.618"/>
</g>
<!-- \\NetCommonsDeleteTest -->
<g id="node6" class="node"><title>\\NetCommonsDeleteTest</title>
<polygon fill="none" stroke="black" points="1196,-2555.81 1044,-2555.81 1044,-2519.81 1196,-2519.81 1196,-2555.81"/>
<text text-anchor="middle" x="1120" y="-2534.91" font-family="Courier,monospace" font-size="11.00">NetCommonsDeleteTest</text>
</g>
<!-- \\NetCommonsModelTestCase -->
<g id="node15" class="node"><title>\\NetCommonsModelTestCase</title>
<polygon fill="none" stroke="black" points="886,-2609.81 714,-2609.81 714,-2573.81 886,-2573.81 886,-2609.81"/>
<text text-anchor="middle" x="800" y="-2588.91" font-family="Courier,monospace" font-size="11.00">NetCommonsModelTestCase</text>
</g>
<!-- \\NetCommonsDeleteTest&#45;&gt;\\NetCommonsModelTestCase -->
<g id="edge11" class="edge"><title>\\NetCommonsDeleteTest&#45;&gt;\\NetCommonsModelTestCase</title>
<path fill="none" stroke="black" d="M1043.76,-2550.67C999.49,-2558.14 943.309,-2567.62 896.042,-2575.6"/>
<polygon fill="none" stroke="black" points="895.376,-2572.16 886.098,-2577.28 896.541,-2579.06 895.376,-2572.16"/>
</g>
<!-- \\NetCommonsConsoleTestCase -->
<g id="node7" class="node"><title>\\NetCommonsConsoleTestCase</title>
<polygon fill="none" stroke="black" points="892,-2717.81 708,-2717.81 708,-2681.81 892,-2681.81 892,-2717.81"/>
<text text-anchor="middle" x="800" y="-2696.91" font-family="Courier,monospace" font-size="11.00">NetCommonsConsoleTestCase</text>
</g>
<!-- \\NetCommonsCakeTestCase -->
<g id="node13" class="node"><title>\\NetCommonsCakeTestCase</title>
<polygon fill="none" stroke="black" points="585,-2636.81 421,-2636.81 421,-2600.81 585,-2600.81 585,-2636.81"/>
<text text-anchor="middle" x="503" y="-2615.91" font-family="Courier,monospace" font-size="11.00">NetCommonsCakeTestCase</text>
</g>
<!-- \\NetCommonsConsoleTestCase&#45;&gt;\\NetCommonsCakeTestCase -->
<g id="edge13" class="edge"><title>\\NetCommonsConsoleTestCase&#45;&gt;\\NetCommonsCakeTestCase</title>
<path fill="none" stroke="black" d="M717.936,-2681.79C705.852,-2678.91 693.579,-2675.87 682,-2672.81 644.303,-2662.82 602.565,-2650.31 568.882,-2639.85"/>
<polygon fill="none" stroke="black" points="569.742,-2636.45 559.154,-2636.82 567.658,-2643.14 569.742,-2636.45"/>
</g>
<!-- \\NetCommonsGetTest -->
<g id="node8" class="node"><title>\\NetCommonsGetTest</title>
<polygon fill="none" stroke="black" points="1185,-2717.81 1055,-2717.81 1055,-2681.81 1185,-2681.81 1185,-2717.81"/>
<text text-anchor="middle" x="1120" y="-2696.91" font-family="Courier,monospace" font-size="11.00">NetCommonsGetTest</text>
</g>
<!-- \\NetCommonsGetTest&#45;&gt;\\NetCommonsModelTestCase -->
<g id="edge15" class="edge"><title>\\NetCommonsGetTest&#45;&gt;\\NetCommonsModelTestCase</title>
<path fill="none" stroke="black" d="M1054.43,-2691.96C1033.25,-2687.92 1010.06,-2681.87 990,-2672.81 953.544,-2656.34 954.288,-2635.63 918,-2618.81 910.962,-2615.54 903.501,-2612.66 895.884,-2610.11"/>
<polygon fill="none" stroke="black" points="896.762,-2606.72 886.173,-2607.07 894.666,-2613.4 896.762,-2606.72"/>
</g>
<!-- \\NetCommonsHelperTestCase -->
<g id="node9" class="node"><title>\\NetCommonsHelperTestCase</title>
<polygon fill="none" stroke="black" points="889,-2663.81 711,-2663.81 711,-2627.81 889,-2627.81 889,-2663.81"/>
<text text-anchor="middle" x="800" y="-2642.91" font-family="Courier,monospace" font-size="11.00">NetCommonsHelperTestCase</text>
</g>
<!-- \\NetCommonsHelperTestCase&#45;&gt;\\NetCommonsCakeTestCase -->
<g id="edge17" class="edge"><title>\\NetCommonsHelperTestCase&#45;&gt;\\NetCommonsCakeTestCase</title>
<path fill="none" stroke="black" d="M710.487,-2637.67C674.267,-2634.38 632.456,-2630.57 595.9,-2627.25"/>
<polygon fill="none" stroke="black" points="596.013,-2623.75 585.737,-2626.33 595.379,-2630.72 596.013,-2623.75"/>
</g>
<!-- \\NetCommonsControllerBaseTestCase -->
<g id="node10" class="node"><title>\\NetCommonsControllerBaseTestCase</title>
<polygon fill="none" stroke="black" points="916,-1313.81 684,-1313.81 684,-1277.81 916,-1277.81 916,-1313.81"/>
<text text-anchor="middle" x="800" y="-1292.91" font-family="Courier,monospace" font-size="11.00">NetCommonsControllerBaseTestCase</text>
</g>
<!-- \\ControllerTestCase -->
<g id="node73" class="node"><title>\\ControllerTestCase</title>
<ellipse fill="none" stroke="black" cx="503" cy="-325.806" rx="106.773" ry="18.3848"/>
<text text-anchor="middle" x="503" y="-322.206" font-family="Times Roman,serif" font-size="14.00" fill="gray">\ControllerTestCase</text>
</g>
<!-- \\NetCommonsControllerBaseTestCase&#45;&gt;\\ControllerTestCase -->
<g id="edge19" class="edge"><title>\\NetCommonsControllerBaseTestCase&#45;&gt;\\ControllerTestCase</title>
<path fill="none" stroke="black" d="M691.542,-1277.77C688.089,-1275.12 684.884,-1272.15 682,-1268.81 548.574,-1114.25 741.699,-508.838 610,-352.806 606.37,-348.505 602.164,-344.836 597.563,-341.71"/>
<polygon fill="none" stroke="black" points="599.292,-338.667 588.891,-336.651 595.765,-344.713 599.292,-338.667"/>
</g>
<!-- \\NetCommonsValidateTest -->
<g id="node11" class="node"><title>\\NetCommonsValidateTest</title>
<polygon fill="none" stroke="black" points="1202,-2663.81 1038,-2663.81 1038,-2627.81 1202,-2627.81 1202,-2663.81"/>
<text text-anchor="middle" x="1120" y="-2642.91" font-family="Courier,monospace" font-size="11.00">NetCommonsValidateTest</text>
</g>
<!-- \\NetCommonsValidateTest&#45;&gt;\\NetCommonsModelTestCase -->
<g id="edge21" class="edge"><title>\\NetCommonsValidateTest&#45;&gt;\\NetCommonsModelTestCase</title>
<path fill="none" stroke="black" d="M1037.18,-2631.83C994.049,-2624.55 941.085,-2615.61 896.155,-2608.03"/>
<polygon fill="none" stroke="black" points="896.549,-2604.55 886.106,-2606.34 895.385,-2611.45 896.549,-2604.55"/>
</g>
<!-- \\NetCommonsTestSuite -->
<g id="node12" class="node"><title>\\NetCommonsTestSuite</title>
<polygon fill="none" stroke="black" points="1192,-1151.81 1048,-1151.81 1048,-1115.81 1192,-1115.81 1192,-1151.81"/>
<text text-anchor="middle" x="1120" y="-1130.91" font-family="Courier,monospace" font-size="11.00">NetCommonsTestSuite</text>
</g>
<!-- \\CakeTestSuite -->
<g id="node76" class="node"><title>\\CakeTestSuite</title>
<ellipse fill="none" stroke="black" cx="800" cy="-379.806" rx="84.1457" ry="18.3848"/>
<text text-anchor="middle" x="800" y="-376.206" font-family="Times Roman,serif" font-size="14.00" fill="gray">\CakeTestSuite</text>
</g>
<!-- \\NetCommonsTestSuite&#45;&gt;\\CakeTestSuite -->
<g id="edge23" class="edge"><title>\\NetCommonsTestSuite&#45;&gt;\\CakeTestSuite</title>
<path fill="none" stroke="black" d="M1047.48,-1134.44C1026.12,-1130.89 1004.59,-1122.98 990,-1106.81 779.048,-872.923 1131.33,-633.519 918,-401.806 911.119,-394.332 902.58,-388.907 893.263,-385.021"/>
<polygon fill="none" stroke="black" points="894.315,-381.681 883.72,-381.63 891.97,-388.277 894.315,-381.681"/>
</g>
<!-- \\CakeTestCase -->
<g id="node78" class="node"><title>\\CakeTestCase</title>
<ellipse fill="none" stroke="black" cx="242" cy="-379.806" rx="82.0244" ry="18.3848"/>
<text text-anchor="middle" x="242" y="-376.206" font-family="Times Roman,serif" font-size="14.00" fill="gray">\CakeTestCase</text>
</g>
<!-- \\NetCommonsCakeTestCase&#45;&gt;\\CakeTestCase -->
<g id="edge25" class="edge"><title>\\NetCommonsCakeTestCase&#45;&gt;\\CakeTestCase</title>
<path fill="none" stroke="black" d="M501.183,-2600.53C490.37,-2491.5 433.697,-1915.56 396,-1444.81 386.728,-1329.01 397.836,-491.486 324,-401.806 322.279,-399.715 320.382,-397.811 318.344,-396.078"/>
<polygon fill="none" stroke="black" points="320.069,-393.016 309.854,-390.205 316.087,-398.772 320.069,-393.016"/>
</g>
<!-- \\NetCommonsSaveTest -->
<g id="node14" class="node"><title>\\NetCommonsSaveTest</title>
<polygon fill="none" stroke="black" points="1189,-2609.81 1051,-2609.81 1051,-2573.81 1189,-2573.81 1189,-2609.81"/>
<text text-anchor="middle" x="1120" y="-2588.91" font-family="Courier,monospace" font-size="11.00">NetCommonsSaveTest</text>
</g>
<!-- \\NetCommonsSaveTest&#45;&gt;\\NetCommonsModelTestCase -->
<g id="edge27" class="edge"><title>\\NetCommonsSaveTest&#45;&gt;\\NetCommonsModelTestCase</title>
<path fill="none" stroke="black" d="M1050.96,-2591.81C1005.75,-2591.81 946.037,-2591.81 896.199,-2591.81"/>
<polygon fill="none" stroke="black" points="896.048,-2588.31 886.048,-2591.81 896.048,-2595.31 896.048,-2588.31"/>
</g>
<!-- \\NetCommonsModelTestCase&#45;&gt;\\NetCommonsCakeTestCase -->
<g id="edge29" class="edge"><title>\\NetCommonsModelTestCase&#45;&gt;\\NetCommonsCakeTestCase</title>
<path fill="none" stroke="black" d="M713.696,-2599.65C676.671,-2603.02 633.35,-2606.96 595.65,-2610.38"/>
<polygon fill="none" stroke="black" points="595.328,-2606.9 585.686,-2611.29 595.962,-2613.87 595.328,-2606.9"/>
</g>
<!-- \\NetCommonsControllerTestCase -->
<g id="node16" class="node"><title>\\NetCommonsControllerTestCase</title>
<polygon fill="none" stroke="black" points="1223,-1313.81 1017,-1313.81 1017,-1277.81 1223,-1277.81 1223,-1313.81"/>
<text text-anchor="middle" x="1120" y="-1292.91" font-family="Courier,monospace" font-size="11.00">NetCommonsControllerTestCase</text>
</g>
<!-- \\NetCommonsControllerTestCase&#45;&gt;\\NetCommonsControllerBaseTestCase -->
<g id="edge31" class="edge"><title>\\NetCommonsControllerTestCase&#45;&gt;\\NetCommonsControllerBaseTestCase</title>
<path fill="none" stroke="black" d="M1016.99,-1295.81C988.262,-1295.81 956.716,-1295.81 926.792,-1295.81"/>
<polygon fill="none" stroke="black" points="926.712,-1292.31 916.712,-1295.81 926.712,-1299.31 926.712,-1292.31"/>
</g>
<!-- \\NetCommonsAppController -->
<g id="node17" class="node"><title>\\NetCommonsAppController</title>
<polygon fill="none" stroke="black" points="886,-1259.81 714,-1259.81 714,-1223.81 886,-1223.81 886,-1259.81"/>
<text text-anchor="middle" x="800" y="-1238.91" font-family="Courier,monospace" font-size="11.00">NetCommonsAppController</text>
</g>
<!-- \\NetCommonsAppController&#45;&gt;\\Controller -->
<g id="edge33" class="edge"><title>\\NetCommonsAppController&#45;&gt;\\Controller</title>
<path fill="none" stroke="black" d="M793.582,-1223.54C773.945,-1166.96 714.062,-989.359 682,-837.806 656.989,-719.581 700.929,-378.396 610,-298.806 520.21,-220.213 365.571,-258.422 288.491,-284.84"/>
<polygon fill="none" stroke="black" points="287.317,-281.543 279.038,-288.154 289.633,-288.148 287.317,-281.543"/>
</g>
<!-- \\AssetComponent -->
<g id="node18" class="node"><title>\\AssetComponent</title>
<polygon fill="none" stroke="black" points="1175,-1043.81 1065,-1043.81 1065,-1007.81 1175,-1007.81 1175,-1043.81"/>
<text text-anchor="middle" x="1120" y="-1022.91" font-family="Courier,monospace" font-size="11.00">AssetComponent</text>
</g>
<!-- \\Component -->
<g id="node84" class="node"><title>\\Component</title>
<ellipse fill="none" stroke="black" cx="800" cy="-325.806" rx="70.9184" ry="18.3848"/>
<text text-anchor="middle" x="800" y="-322.206" font-family="Times Roman,serif" font-size="14.00" fill="gray">\Component</text>
</g>
<!-- \\AssetComponent&#45;&gt;\\Component -->
<g id="edge35" class="edge"><title>\\AssetComponent&#45;&gt;\\Component</title>
<path fill="none" stroke="black" d="M1064.35,-1028.34C1038.1,-1026.41 1008.54,-1019.18 990,-998.806 795.525,-785.18 1110.31,-568.382 918,-352.806 908.225,-341.848 894.994,-334.86 880.924,-330.492"/>
<polygon fill="none" stroke="black" points="881.644,-327.062 871.08,-327.87 879.842,-333.826 881.644,-327.062"/>
</g>
<!-- \\NetCommonsTimeComponent -->
<g id="node19" class="node"><title>\\NetCommonsTimeComponent</title>
<polygon fill="none" stroke="black" points="1206,-989.806 1034,-989.806 1034,-953.806 1206,-953.806 1206,-989.806"/>
<text text-anchor="middle" x="1120" y="-968.906" font-family="Courier,monospace" font-size="11.00">NetCommonsTimeComponent</text>
</g>
<!-- \\NetCommonsTimeComponent&#45;&gt;\\Component -->
<g id="edge37" class="edge"><title>\\NetCommonsTimeComponent&#45;&gt;\\Component</title>
<path fill="none" stroke="black" d="M1033.81,-969.309C1017.28,-964.915 1001.55,-957.362 990,-944.806 810.592,-749.706 1095.43,-549.705 918,-352.806 908.227,-341.961 895.069,-335.013 881.082,-330.647"/>
<polygon fill="none" stroke="black" points="881.864,-327.233 871.298,-328.02 880.049,-333.993 881.864,-327.233"/>
</g>
<!-- \\PermissionComponent -->
<g id="node20" class="node"><title>\\PermissionComponent</title>
<polygon fill="none" stroke="black" points="1192,-935.806 1048,-935.806 1048,-899.806 1192,-899.806 1192,-935.806"/>
<text text-anchor="middle" x="1120" y="-914.906" font-family="Courier,monospace" font-size="11.00">PermissionComponent</text>
</g>
<!-- \\PermissionComponent&#45;&gt;\\Component -->
<g id="edge39" class="edge"><title>\\PermissionComponent&#45;&gt;\\Component</title>
<path fill="none" stroke="black" d="M1047.45,-918.109C1026.21,-914.521 1004.76,-906.667 990,-890.806 825.643,-714.214 1080.57,-531.046 918,-352.806 908.162,-342.02 894.974,-335.099 880.979,-330.74"/>
<polygon fill="none" stroke="black" points="881.757,-327.326 871.192,-328.116 879.944,-334.087 881.757,-327.326"/>
</g>
<!-- \\NetCommonsComponent -->
<g id="node21" class="node"><title>\\NetCommonsComponent</title>
<polygon fill="none" stroke="black" points="1192,-1097.81 1048,-1097.81 1048,-1061.81 1192,-1061.81 1192,-1097.81"/>
<text text-anchor="middle" x="1120" y="-1076.91" font-family="Courier,monospace" font-size="11.00">NetCommonsComponent</text>
</g>
<!-- \\NetCommonsComponent&#45;&gt;\\Component -->
<g id="edge41" class="edge"><title>\\NetCommonsComponent&#45;&gt;\\Component</title>
<path fill="none" stroke="black" d="M1047.49,-1080.43C1026.13,-1076.89 1004.6,-1068.98 990,-1052.81 780.445,-820.641 1125.2,-587.072 918,-352.806 908.271,-341.807 895.062,-334.8 880.998,-330.427"/>
<polygon fill="none" stroke="black" points="881.72,-326.997 871.156,-327.802 879.917,-333.761 881.72,-326.997"/>
</g>
<!-- \\NetCommonsController -->
<g id="node22" class="node"><title>\\NetCommonsController</title>
<polygon fill="none" stroke="black" points="1196,-1259.81 1044,-1259.81 1044,-1223.81 1196,-1223.81 1196,-1259.81"/>
<text text-anchor="middle" x="1120" y="-1238.91" font-family="Courier,monospace" font-size="11.00">NetCommonsController</text>
</g>
<!-- \\NetCommonsController&#45;&gt;\\NetCommonsAppController -->
<g id="edge43" class="edge"><title>\\NetCommonsController&#45;&gt;\\NetCommonsAppController</title>
<path fill="none" stroke="black" d="M1043.76,-1241.81C999.583,-1241.81 943.544,-1241.81 896.338,-1241.81"/>
<polygon fill="none" stroke="black" points="896.098,-1238.31 886.098,-1241.81 896.098,-1245.31 896.098,-1238.31"/>
</g>
<!-- \\NetCommonsUrl -->
<g id="node23" class="node"><title>\\NetCommonsUrl</title>
<polygon fill="none" stroke="black" points="1172,-2231.81 1068,-2231.81 1068,-2195.81 1172,-2195.81 1172,-2231.81"/>
<text text-anchor="middle" x="1120" y="-2210.91" font-family="Courier,monospace" font-size="11.00">NetCommonsUrl</text>
</g>
<!-- \\NetCommonsTime -->
<g id="node24" class="node"><title>\\NetCommonsTime</title>
<polygon fill="none" stroke="black" points="1175,-2177.81 1065,-2177.81 1065,-2141.81 1175,-2141.81 1175,-2177.81"/>
<text text-anchor="middle" x="1120" y="-2156.91" font-family="Courier,monospace" font-size="11.00">NetCommonsTime</text>
</g>
<!-- \\CurrentBase -->
<g id="node25" class="node"><title>\\CurrentBase</title>
<polygon fill="none" stroke="black" points="845,-2339.81 755,-2339.81 755,-2303.81 845,-2303.81 845,-2339.81"/>
<text text-anchor="middle" x="800" y="-2318.91" font-family="Courier,monospace" font-size="11.00">CurrentBase</text>
</g>
<!-- \\Current -->
<g id="node26" class="node"><title>\\Current</title>
<polygon fill="none" stroke="black" points="1152,-2339.81 1088,-2339.81 1088,-2303.81 1152,-2303.81 1152,-2339.81"/>
<text text-anchor="middle" x="1120" y="-2318.91" font-family="Courier,monospace" font-size="11.00">Current</text>
</g>
<!-- \\Current&#45;&gt;\\CurrentBase -->
<g id="edge45" class="edge"><title>\\Current&#45;&gt;\\CurrentBase</title>
<path fill="none" stroke="black" d="M1087.85,-2321.81C1033.62,-2321.81 923.298,-2321.81 856.088,-2321.81"/>
<polygon fill="none" stroke="black" points="855.686,-2318.31 845.686,-2321.81 855.686,-2325.31 855.686,-2318.31"/>
</g>
<!-- \\CurrentSystem -->
<g id="node27" class="node"><title>\\CurrentSystem</title>
<polygon fill="none" stroke="black" points="1172,-2069.81 1068,-2069.81 1068,-2033.81 1172,-2033.81 1172,-2069.81"/>
<text text-anchor="middle" x="1120" y="-2048.91" font-family="Courier,monospace" font-size="11.00">CurrentSystem</text>
</g>
<!-- \\CurrentPage -->
<g id="node28" class="node"><title>\\CurrentPage</title>
<polygon fill="none" stroke="black" points="1165,-2015.81 1075,-2015.81 1075,-1979.81 1165,-1979.81 1165,-2015.81"/>
<text text-anchor="middle" x="1120" y="-1994.91" font-family="Courier,monospace" font-size="11.00">CurrentPage</text>
</g>
<!-- \\CurrentFrame -->
<g id="node29" class="node"><title>\\CurrentFrame</title>
<polygon fill="none" stroke="black" points="1169,-1961.81 1071,-1961.81 1071,-1925.81 1169,-1925.81 1169,-1961.81"/>
<text text-anchor="middle" x="1120" y="-1940.91" font-family="Courier,monospace" font-size="11.00">CurrentFrame</text>
</g>
<!-- \\TokenHelper -->
<g id="node30" class="node"><title>\\TokenHelper</title>
<polygon fill="none" stroke="black" points="1165,-881.806 1075,-881.806 1075,-845.806 1165,-845.806 1165,-881.806"/>
<text text-anchor="middle" x="1120" y="-860.906" font-family="Courier,monospace" font-size="11.00">TokenHelper</text>
</g>
<!-- \\FormHelper -->
<g id="node91" class="node"><title>\\FormHelper</title>
<ellipse fill="none" stroke="black" cx="800" cy="-271.806" rx="70.9184" ry="18.3848"/>
<text text-anchor="middle" x="800" y="-268.206" font-family="Times Roman,serif" font-size="14.00" fill="gray">\FormHelper</text>
</g>
<!-- \\TokenHelper&#45;&gt;\\FormHelper -->
<g id="edge47" class="edge"><title>\\TokenHelper&#45;&gt;\\FormHelper</title>
<path fill="none" stroke="black" d="M1074.22,-866.67C1045.93,-865.802 1011.12,-859.501 990,-836.806 825.643,-660.214 1080.57,-477.046 918,-298.806 908.162,-288.02 894.974,-281.099 880.979,-276.74"/>
<polygon fill="none" stroke="black" points="881.757,-273.326 871.192,-274.116 879.944,-280.087 881.757,-273.326"/>
</g>
<!-- \\SingletonViewBlockHtmlHelper -->
<g id="node31" class="node"><title>\\SingletonViewBlockHtmlHelper</title>
<polygon fill="none" stroke="black" points="1223,-719.806 1017,-719.806 1017,-683.806 1223,-683.806 1223,-719.806"/>
<text text-anchor="middle" x="1120" y="-698.906" font-family="Courier,monospace" font-size="11.00">SingletonViewBlockHtmlHelper</text>
</g>
<!-- \\HtmlHelper -->
<g id="node93" class="node"><title>\\HtmlHelper</title>
<ellipse fill="none" stroke="black" cx="800" cy="-217.806" rx="67.1751" ry="18.3848"/>
<text text-anchor="middle" x="800" y="-214.206" font-family="Times Roman,serif" font-size="14.00" fill="gray">HtmlHelper</text>
</g>
<!-- \\SingletonViewBlockHtmlHelper&#45;&gt;\\HtmlHelper -->
<g id="edge49" class="edge"><title>\\SingletonViewBlockHtmlHelper&#45;&gt;\\HtmlHelper</title>
<path fill="none" stroke="black" d="M1016.87,-692.954C1006.84,-688.59 997.59,-682.697 990,-674.806 855.672,-535.151 1050.91,-385.808 918,-244.806 907.121,-233.265 892.401,-226.182 877.051,-221.932"/>
<polygon fill="none" stroke="black" points="877.444,-218.428 866.906,-219.529 875.83,-225.24 877.444,-218.428"/>
</g>
<!-- \\FormInputHelper -->
<g id="node32" class="node"><title>\\FormInputHelper</title>
<polygon fill="none" stroke="black" points="1179,-2123.81 1061,-2123.81 1061,-2087.81 1179,-2087.81 1179,-2123.81"/>
<text text-anchor="middle" x="1120" y="-2102.91" font-family="Courier,monospace" font-size="11.00">FormInputHelper</text>
</g>
<!-- \\FormInputHelper&#45;&gt;\\AppHelper -->
<g id="edge51" class="edge"><title>\\FormInputHelper&#45;&gt;\\AppHelper</title>
<path fill="none" stroke="black" d="M1060.94,-2105.09C1036.72,-2102.06 1009.8,-2094.83 990,-2078.81 857.419,-1971.46 814.817,-1752.97 803.531,-1675.13"/>
<polygon fill="none" stroke="black" points="806.982,-1674.53 802.14,-1665.11 800.048,-1675.49 806.982,-1674.53"/>
</g>
<!-- \\WizardHelper -->
<g id="node33" class="node"><title>\\WizardHelper</title>
<polygon fill="none" stroke="black" points="1169,-1907.81 1071,-1907.81 1071,-1871.81 1169,-1871.81 1169,-1907.81"/>
<text text-anchor="middle" x="1120" y="-1886.91" font-family="Courier,monospace" font-size="11.00">WizardHelper</text>
</g>
<!-- \\WizardHelper&#45;&gt;\\AppHelper -->
<g id="edge53" class="edge"><title>\\WizardHelper&#45;&gt;\\AppHelper</title>
<path fill="none" stroke="black" d="M1070.72,-1887.02C1045.22,-1883.8 1014.41,-1877.01 990,-1862.81 908.256,-1815.23 843.479,-1719.84 815.299,-1673.41"/>
<polygon fill="none" stroke="black" points="818.291,-1671.6 810.156,-1664.81 812.282,-1675.19 818.291,-1671.6"/>
</g>
<!-- \\DisplayNumberHelper -->
<g id="node34" class="node"><title>\\DisplayNumberHelper</title>
<polygon fill="none" stroke="black" points="1192,-1853.81 1048,-1853.81 1048,-1817.81 1192,-1817.81 1192,-1853.81"/>
<text text-anchor="middle" x="1120" y="-1832.91" font-family="Courier,monospace" font-size="11.00">DisplayNumberHelper</text>
</g>
<!-- \\DisplayNumberHelper&#45;&gt;\\AppHelper -->
<g id="edge55" class="edge"><title>\\DisplayNumberHelper&#45;&gt;\\AppHelper</title>
<path fill="none" stroke="black" d="M1047.37,-1827.36C1028.08,-1823.36 1007.7,-1817.47 990,-1808.81 920.328,-1774.69 855.213,-1709.1 822.333,-1672.72"/>
<polygon fill="none" stroke="black" points="824.708,-1670.12 815.438,-1664.99 819.484,-1674.78 824.708,-1670.12"/>
</g>
<!-- \\MessageFlashHelper -->
<g id="node35" class="node"><title>\\MessageFlashHelper</title>
<polygon fill="none" stroke="black" points="1189,-1799.81 1051,-1799.81 1051,-1763.81 1189,-1763.81 1189,-1799.81"/>
<text text-anchor="middle" x="1120" y="-1778.91" font-family="Courier,monospace" font-size="11.00">MessageFlashHelper</text>
</g>
<!-- \\MessageFlashHelper&#45;&gt;\\AppHelper -->
<g id="edge57" class="edge"><title>\\MessageFlashHelper&#45;&gt;\\AppHelper</title>
<path fill="none" stroke="black" d="M1050.72,-1771.57C1030.76,-1767.52 1009.19,-1762.05 990,-1754.81 932.158,-1732.98 870.977,-1695.19 834.139,-1670.59"/>
<polygon fill="none" stroke="black" points="836.012,-1667.63 825.763,-1664.95 832.099,-1673.44 836.012,-1667.63"/>
</g>
<!-- \\DateHelper -->
<g id="node36" class="node"><title>\\DateHelper</title>
<polygon fill="none" stroke="black" points="1162,-1745.81 1078,-1745.81 1078,-1709.81 1162,-1709.81 1162,-1745.81"/>
<text text-anchor="middle" x="1120" y="-1724.91" font-family="Courier,monospace" font-size="11.00">DateHelper</text>
</g>
<!-- \\DateHelper&#45;&gt;\\AppHelper -->
<g id="edge59" class="edge"><title>\\DateHelper&#45;&gt;\\AppHelper</title>
<path fill="none" stroke="black" d="M1077.97,-1719.87C1052.42,-1714.86 1019.21,-1707.98 990,-1700.81 941.545,-1688.9 886.795,-1673.09 848.557,-1661.65"/>
<polygon fill="none" stroke="black" points="849.302,-1658.22 838.718,-1658.7 847.288,-1664.93 849.302,-1658.22"/>
</g>
<!-- \\SnsButtonHelper -->
<g id="node37" class="node"><title>\\SnsButtonHelper</title>
<polygon fill="none" stroke="black" points="1179,-1691.81 1061,-1691.81 1061,-1655.81 1179,-1655.81 1179,-1691.81"/>
<text text-anchor="middle" x="1120" y="-1670.91" font-family="Courier,monospace" font-size="11.00">SnsButtonHelper</text>
</g>
<!-- \\SnsButtonHelper&#45;&gt;\\AppHelper -->
<g id="edge61" class="edge"><title>\\SnsButtonHelper&#45;&gt;\\AppHelper</title>
<path fill="none" stroke="black" d="M1060.93,-1668.82C999.901,-1663.67 905.749,-1655.73 848.794,-1650.92"/>
<polygon fill="none" stroke="black" points="848.868,-1647.42 838.609,-1650.06 848.279,-1654.39 848.868,-1647.42"/>
</g>
<!-- \\BackToHelper -->
<g id="node38" class="node"><title>\\BackToHelper</title>
<polygon fill="none" stroke="black" points="1169,-1637.81 1071,-1637.81 1071,-1601.81 1169,-1601.81 1169,-1637.81"/>
<text text-anchor="middle" x="1120" y="-1616.91" font-family="Courier,monospace" font-size="11.00">BackToHelper</text>
</g>
<!-- \\BackToHelper&#45;&gt;\\AppHelper -->
<g id="edge63" class="edge"><title>\\BackToHelper&#45;&gt;\\AppHelper</title>
<path fill="none" stroke="black" d="M1070.7,-1623.97C1010.38,-1629.06 908.869,-1637.62 848.78,-1642.69"/>
<polygon fill="none" stroke="black" points="848.454,-1639.21 838.784,-1643.53 849.043,-1646.18 848.454,-1639.21"/>
</g>
<!-- \\NetCommonsHtmlHelper -->
<g id="node39" class="node"><title>\\NetCommonsHtmlHelper</title>
<polygon fill="none" stroke="black" points="1196,-1583.81 1044,-1583.81 1044,-1547.81 1196,-1547.81 1196,-1583.81"/>
<text text-anchor="middle" x="1120" y="-1562.91" font-family="Courier,monospace" font-size="11.00">NetCommonsHtmlHelper</text>
</g>
<!-- \\NetCommonsHtmlHelper&#45;&gt;\\AppHelper -->
<g id="edge65" class="edge"><title>\\NetCommonsHtmlHelper&#45;&gt;\\AppHelper</title>
<path fill="none" stroke="black" d="M1043.83,-1580.67C1026.11,-1584.39 1007.35,-1588.54 990,-1592.81 941.545,-1604.71 886.795,-1620.52 848.557,-1631.96"/>
<polygon fill="none" stroke="black" points="847.288,-1628.69 838.718,-1634.92 849.302,-1635.39 847.288,-1628.69"/>
</g>
<!-- \\ButtonHelper -->
<g id="node40" class="node"><title>\\ButtonHelper</title>
<polygon fill="none" stroke="black" points="1169,-827.806 1071,-827.806 1071,-791.806 1169,-791.806 1169,-827.806"/>
<text text-anchor="middle" x="1120" y="-806.906" font-family="Courier,monospace" font-size="11.00">ButtonHelper</text>
</g>
<!-- \\ButtonHelper&#45;&gt;\\FormHelper -->
<g id="edge67" class="edge"><title>\\ButtonHelper&#45;&gt;\\FormHelper</title>
<path fill="none" stroke="black" d="M1070.84,-812.426C1043.27,-811.111 1010.42,-804.424 990,-782.806 840.672,-624.698 1065.73,-458.411 918,-298.806 908.083,-288.092 894.859,-281.204 880.853,-276.856"/>
<polygon fill="none" stroke="black" points="881.628,-273.44 871.063,-274.235 879.818,-280.202 881.628,-273.44"/>
</g>
<!-- \\ComposerHelper -->
<g id="node41" class="node"><title>\\ComposerHelper</title>
<polygon fill="none" stroke="black" points="1175,-1529.81 1065,-1529.81 1065,-1493.81 1175,-1493.81 1175,-1529.81"/>
<text text-anchor="middle" x="1120" y="-1508.91" font-family="Courier,monospace" font-size="11.00">ComposerHelper</text>
</g>
<!-- \\ComposerHelper&#45;&gt;\\AppHelper -->
<g id="edge69" class="edge"><title>\\ComposerHelper&#45;&gt;\\AppHelper</title>
<path fill="none" stroke="black" d="M1064.21,-1519.46C1040.81,-1523.67 1013.62,-1529.89 990,-1538.81 932.158,-1560.63 870.977,-1598.43 834.139,-1623.02"/>
<polygon fill="none" stroke="black" points="832.099,-1620.17 825.763,-1628.66 836.012,-1625.98 832.099,-1620.17"/>
</g>
<!-- \\LinkButtonHelper -->
<g id="node42" class="node"><title>\\LinkButtonHelper</title>
<polygon fill="none" stroke="black" points="1182,-773.806 1058,-773.806 1058,-737.806 1182,-737.806 1182,-773.806"/>
<text text-anchor="middle" x="1120" y="-752.906" font-family="Courier,monospace" font-size="11.00">LinkButtonHelper</text>
</g>
<!-- \\LinkButtonHelper&#45;&gt;\\FormHelper -->
<g id="edge71" class="edge"><title>\\LinkButtonHelper&#45;&gt;\\FormHelper</title>
<path fill="none" stroke="black" d="M1057.19,-757.158C1033.09,-754.357 1007.26,-746.748 990,-728.806 855.672,-589.151 1050.91,-439.808 918,-298.806 907.986,-288.183 894.718,-281.337 880.698,-277"/>
<polygon fill="none" stroke="black" points="881.468,-273.583 870.904,-274.383 879.661,-280.346 881.468,-273.583"/>
</g>
<!-- \\NetCommonsTimeHelper -->
<g id="node43" class="node"><title>\\NetCommonsTimeHelper</title>
<polygon fill="none" stroke="black" points="1196,-1475.81 1044,-1475.81 1044,-1439.81 1196,-1439.81 1196,-1475.81"/>
<text text-anchor="middle" x="1120" y="-1454.91" font-family="Courier,monospace" font-size="11.00">NetCommonsTimeHelper</text>
</g>
<!-- \\NetCommonsTimeHelper&#45;&gt;\\AppHelper -->
<g id="edge73" class="edge"><title>\\NetCommonsTimeHelper&#45;&gt;\\AppHelper</title>
<path fill="none" stroke="black" d="M1043.98,-1466.97C1025.7,-1470.95 1006.66,-1476.64 990,-1484.81 920.328,-1518.93 855.213,-1584.51 822.333,-1620.9"/>
<polygon fill="none" stroke="black" points="819.484,-1618.83 815.438,-1628.62 824.708,-1623.49 819.484,-1618.83"/>
</g>
<!-- \\NetCommonsFormHelper -->
<g id="node44" class="node"><title>\\NetCommonsFormHelper</title>
<polygon fill="none" stroke="black" points="1196,-1421.81 1044,-1421.81 1044,-1385.81 1196,-1385.81 1196,-1421.81"/>
<text text-anchor="middle" x="1120" y="-1400.91" font-family="Courier,monospace" font-size="11.00">NetCommonsFormHelper</text>
</g>
<!-- \\NetCommonsFormHelper&#45;&gt;\\AppHelper -->
<g id="edge75" class="edge"><title>\\NetCommonsFormHelper&#45;&gt;\\AppHelper</title>
<path fill="none" stroke="black" d="M1043.77,-1411.17C1025.31,-1415.19 1006.24,-1421.36 990,-1430.81 908.256,-1478.38 843.479,-1573.77 815.299,-1620.2"/>
<polygon fill="none" stroke="black" points="812.282,-1618.42 810.156,-1628.8 818.291,-1622.01 812.282,-1618.42"/>
</g>
<!-- \\TitleIconHelper -->
<g id="node45" class="node"><title>\\TitleIconHelper</title>
<polygon fill="none" stroke="black" points="1179,-1367.81 1061,-1367.81 1061,-1331.81 1179,-1331.81 1179,-1367.81"/>
<text text-anchor="middle" x="1120" y="-1346.91" font-family="Courier,monospace" font-size="11.00">TitleIconHelper</text>
</g>
<!-- \\TitleIconHelper&#45;&gt;\\AppHelper -->
<g id="edge77" class="edge"><title>\\TitleIconHelper&#45;&gt;\\AppHelper</title>
<path fill="none" stroke="black" d="M1060.75,-1352.74C1037.2,-1356.2 1010.81,-1363.14 990,-1376.81 896.192,-1438.43 834.729,-1563.75 811.013,-1619.27"/>
<polygon fill="none" stroke="black" points="807.659,-1618.22 807.025,-1628.79 814.116,-1620.92 807.659,-1618.22"/>
</g>
<!-- \\DatetimePickerHelper -->
<g id="node46" class="node"><title>\\DatetimePickerHelper</title>
<polygon fill="none" stroke="black" points="1196,-2285.81 1044,-2285.81 1044,-2249.81 1196,-2249.81 1196,-2285.81"/>
<text text-anchor="middle" x="1120" y="-2264.91" font-family="Courier,monospace" font-size="11.00">DatetimePickerHelper</text>
</g>
<!-- \\DatetimePickerHelper&#45;&gt;\\AppHelper -->
<g id="edge79" class="edge"><title>\\DatetimePickerHelper&#45;&gt;\\AppHelper</title>
<path fill="none" stroke="black" d="M1043.98,-2265.52C1024.46,-2261.56 1004.82,-2254.15 990,-2240.81 901.802,-2161.4 825.33,-1782.41 805.177,-1675.15"/>
<polygon fill="none" stroke="black" points="808.574,-1674.27 803.302,-1665.08 801.692,-1675.55 808.574,-1674.27"/>
</g>
<!-- \\Model -->
<g id="node110" class="node"><title>\\Model</title>
<ellipse fill="none" stroke="black" cx="44" cy="-2780.81" rx="43.8406" ry="18.3848"/>
<text text-anchor="middle" x="44" y="-2777.21" font-family="Times Roman,serif" font-size="14.00" fill="gray">\Model</text>
</g>
<!-- \\NetCommonsAppModel&#45;&gt;\\Model -->
<g id="edge81" class="edge"><title>\\NetCommonsAppModel&#45;&gt;\\Model</title>
<path fill="none" stroke="black" d="M172.749,-2780.81C148.379,-2780.81 121.357,-2780.81 98.3871,-2780.81"/>
<polygon fill="none" stroke="black" points="98.1425,-2777.31 88.1425,-2780.81 98.1424,-2784.31 98.1425,-2777.31"/>
</g>
<!-- \\OriginalKeyBehavior -->
<g id="node48" class="node"><title>\\OriginalKeyBehavior</title>
<polygon fill="none" stroke="black" points="1192,-611.806 1048,-611.806 1048,-575.806 1192,-575.806 1192,-611.806"/>
<text text-anchor="middle" x="1120" y="-590.906" font-family="Courier,monospace" font-size="11.00">OriginalKeyBehavior</text>
</g>
<!-- \\ModelBehavior -->
<g id="node112" class="node"><title>\\ModelBehavior</title>
<ellipse fill="none" stroke="black" cx="800" cy="-163.806" rx="86.9741" ry="18.3848"/>
<text text-anchor="middle" x="800" y="-160.206" font-family="Times Roman,serif" font-size="14.00" fill="gray">\ModelBehavior</text>
</g>
<!-- \\OriginalKeyBehavior&#45;&gt;\\ModelBehavior -->
<g id="edge83" class="edge"><title>\\OriginalKeyBehavior&#45;&gt;\\ModelBehavior</title>
<path fill="none" stroke="black" d="M1047.3,-593.486C1026.31,-589.823 1005.04,-582.082 990,-566.806 870.629,-445.56 1036.14,-313.249 918,-190.806 910.646,-183.185 901.615,-177.518 891.852,-173.331"/>
<polygon fill="none" stroke="black" points="892.89,-169.982 882.298,-169.755 890.436,-176.538 892.89,-169.982"/>
</g>
<!-- \\TrackableBehavior -->
<g id="node49" class="node"><title>\\TrackableBehavior</title>
<polygon fill="none" stroke="black" points="1185,-665.806 1055,-665.806 1055,-629.806 1185,-629.806 1185,-665.806"/>
<text text-anchor="middle" x="1120" y="-644.906" font-family="Courier,monospace" font-size="11.00">TrackableBehavior</text>
</g>
<!-- \\TrackableBehavior&#45;&gt;\\ModelBehavior -->
<g id="edge85" class="edge"><title>\\TrackableBehavior&#45;&gt;\\ModelBehavior</title>
<path fill="none" stroke="black" d="M1054.17,-648.783C1030.95,-645.705 1006.54,-638.001 990,-620.806 855.672,-481.151 1050.91,-331.808 918,-190.806 910.736,-183.1 901.758,-177.381 892.025,-173.166"/>
<polygon fill="none" stroke="black" points="893.083,-169.825 882.491,-169.57 890.613,-176.374 893.083,-169.825"/>
</g>
<!-- \\YAExceptionRenderer -->
<g id="node50" class="node"><title>\\YAExceptionRenderer</title>
<polygon fill="none" stroke="black" points="1192,-557.806 1048,-557.806 1048,-521.806 1192,-521.806 1192,-557.806"/>
<text text-anchor="middle" x="1120" y="-536.906" font-family="Courier,monospace" font-size="11.00">YAExceptionRenderer</text>
</g>
<!-- \\ExceptionRenderer -->
<g id="node115" class="node"><title>\\ExceptionRenderer</title>
<ellipse fill="none" stroke="black" cx="800" cy="-109.806" rx="118.087" ry="18.3848"/>
<text text-anchor="middle" x="800" y="-106.206" font-family="Times Roman,serif" font-size="14.00" fill="gray">TEHxceptionRenderer</text>
</g>
<!-- \\YAExceptionRenderer&#45;&gt;\\ExceptionRenderer -->
<g id="edge87" class="edge"><title>\\YAExceptionRenderer&#45;&gt;\\ExceptionRenderer</title>
<path fill="none" stroke="black" d="M1047.3,-539.486C1026.31,-535.823 1005.04,-528.082 990,-512.806 870.629,-391.56 1036.14,-259.249 918,-136.806 913.747,-132.398 908.932,-128.643 903.739,-125.451"/>
<polygon fill="none" stroke="black" points="905.142,-122.232 894.675,-120.593 901.836,-128.402 905.142,-122.232"/>
</g>
<!-- \\NetCommonsMigration -->
<g id="node51" class="node"><title>\\NetCommonsMigration</title>
<polygon fill="none" stroke="black" points="872,-828.806 728,-828.806 728,-792.806 872,-792.806 872,-828.806"/>
<text text-anchor="middle" x="800" y="-807.906" font-family="Courier,monospace" font-size="11.00">NetCommonsMigration</text>
</g>
<!-- \\CakeMigration -->
<g id="node117" class="node"><title>\\CakeMigration</title>
<ellipse fill="none" stroke="black" cx="503" cy="-121.806" rx="84.8528" ry="18.3848"/>
<text text-anchor="middle" x="503" y="-118.206" font-family="Times Roman,serif" font-size="14.00" fill="gray">\CakeMigration</text>
</g>
<!-- \\NetCommonsMigration&#45;&gt;\\CakeMigration -->
<g id="edge89" class="edge"><title>\\NetCommonsMigration&#45;&gt;\\CakeMigration</title>
<path fill="none" stroke="black" d="M727.215,-811.333C710.337,-807.956 693.865,-801.248 682,-788.806 520.075,-618.998 698.756,-483.008 610,-265.806 590.913,-219.096 553.132,-173.836 527.961,-146.897"/>
<polygon fill="none" stroke="black" points="530.331,-144.31 520.906,-139.471 525.257,-149.132 530.331,-144.31"/>
</g>
<!-- \\AccessCountersAppController -->
<g id="node52" class="node"><title>\\AccessCountersAppController</title>
<polygon fill="none" stroke="black" points="899,-2420.81 701,-2420.81 701,-2384.81 899,-2384.81 899,-2420.81"/>
<text text-anchor="middle" x="800" y="-2399.91" font-family="Courier,monospace" font-size="11.00">AccessCountersAppController</text>
</g>
<!-- \\AccessCountersAppController&#45;&gt;\\AppController -->
<g id="edge91" class="edge"><title>\\AccessCountersAppController&#45;&gt;\\AppController</title>
<path fill="none" stroke="black" d="M732.528,-2384.78C713.643,-2376.67 694.803,-2365.11 682,-2348.81 566.931,-2202.3 515.401,-1586.93 505.014,-1446.45"/>
<polygon fill="none" stroke="black" points="508.478,-1445.82 504.26,-1436.1 501.496,-1446.33 508.478,-1445.82"/>
</g>
<!-- \\AccessCountersController -->
<g id="node53" class="node"><title>\\AccessCountersController</title>
<polygon fill="none" stroke="black" points="1209,-2447.81 1031,-2447.81 1031,-2411.81 1209,-2411.81 1209,-2447.81"/>
<text text-anchor="middle" x="1120" y="-2426.91" font-family="Courier,monospace" font-size="11.00">AccessCountersController</text>
</g>
<!-- \\AccessCountersController&#45;&gt;\\AccessCountersAppController -->
<g id="edge93" class="edge"><title>\\AccessCountersController&#45;&gt;\\AccessCountersAppController</title>
<path fill="none" stroke="black" d="M1030.44,-2422.25C993.017,-2419.09 949.175,-2415.39 909.834,-2412.07"/>
<polygon fill="none" stroke="black" points="909.929,-2408.57 899.67,-2411.22 909.341,-2415.54 909.929,-2408.57"/>
</g>
<!-- \\AccessCounterBlocksController -->
<g id="node54" class="node"><title>\\AccessCounterBlocksController</title>
<polygon fill="none" stroke="black" points="1226,-2393.81 1014,-2393.81 1014,-2357.81 1226,-2357.81 1226,-2393.81"/>
<text text-anchor="middle" x="1120" y="-2372.91" font-family="Courier,monospace" font-size="11.00">AccessCounterBlocksController</text>
</g>
<!-- \\AccessCounterBlocksController&#45;&gt;\\AccessCountersAppController -->
<g id="edge95" class="edge"><title>\\AccessCounterBlocksController&#45;&gt;\\AccessCountersAppController</title>
<path fill="none" stroke="black" d="M1013.89,-2384.76C980.502,-2387.58 943.57,-2390.69 909.924,-2393.53"/>
<polygon fill="none" stroke="black" points="909.265,-2390.07 899.595,-2394.4 909.854,-2397.05 909.265,-2390.07"/>
</g>
<!-- \\AccessCounterFrameSettingsController -->
<g id="node55" class="node"><title>\\AccessCounterFrameSettingsController</title>
<polygon fill="none" stroke="black" points="1250,-2501.81 990,-2501.81 990,-2465.81 1250,-2465.81 1250,-2501.81"/>
<text text-anchor="middle" x="1120" y="-2480.91" font-family="Courier,monospace" font-size="11.00">AccessCounterFrameSettingsController</text>
</g>
<!-- \\AccessCounterFrameSettingsController&#45;&gt;\\AccessCountersAppController -->
<g id="edge97" class="edge"><title>\\AccessCounterFrameSettingsController&#45;&gt;\\AccessCountersAppController</title>
<path fill="none" stroke="black" d="M1028.89,-2465.75C1015.81,-2462.91 1002.54,-2459.89 990,-2456.81 949.666,-2446.9 904.97,-2434.28 869.066,-2423.73"/>
<polygon fill="none" stroke="black" points="869.766,-2420.29 859.184,-2420.82 867.784,-2427 869.766,-2420.29"/>
</g>
<!-- \\AccessCounterFrameSetting -->
<g id="node56" class="node"><title>\\AccessCounterFrameSetting</title>
<polygon fill="none" stroke="black" points="1212,-2771.81 1028,-2771.81 1028,-2735.81 1212,-2735.81 1212,-2771.81"/>
<text text-anchor="middle" x="1120" y="-2750.91" font-family="Courier,monospace" font-size="11.00">AccessCounterFrameSetting</text>
</g>
<!-- \\AccessCountersAppModel -->
<g id="node57" class="node"><title>\\AccessCountersAppModel</title>
<polygon fill="none" stroke="black" points="882,-2825.81 718,-2825.81 718,-2789.81 882,-2789.81 882,-2825.81"/>
<text text-anchor="middle" x="800" y="-2804.91" font-family="Courier,monospace" font-size="11.00">AccessCountersAppModel</text>
</g>
<!-- \\AccessCounterFrameSetting&#45;&gt;\\AccessCountersAppModel -->
<g id="edge99" class="edge"><title>\\AccessCounterFrameSetting&#45;&gt;\\AccessCountersAppModel</title>
<path fill="none" stroke="black" d="M1027.44,-2769.43C985.063,-2776.58 934.956,-2785.03 892.574,-2792.18"/>
<polygon fill="none" stroke="black" points="891.816,-2788.76 882.538,-2793.88 892.981,-2795.66 891.816,-2788.76"/>
</g>
<!-- \\AccessCountersAppModel&#45;&gt;\\AppModel -->
<g id="edge101" class="edge"><title>\\AccessCountersAppModel&#45;&gt;\\AppModel</title>
<path fill="none" stroke="black" d="M717.269,-2800.29C662.81,-2795.33 593.563,-2789.04 548.769,-2784.97"/>
<polygon fill="none" stroke="black" points="549.041,-2781.48 538.765,-2784.06 548.407,-2788.45 549.041,-2781.48"/>
</g>
<!-- \\AccessCounter -->
<g id="node58" class="node"><title>\\AccessCounter</title>
<polygon fill="none" stroke="black" points="1172,-2825.81 1068,-2825.81 1068,-2789.81 1172,-2789.81 1172,-2825.81"/>
<text text-anchor="middle" x="1120" y="-2804.91" font-family="Courier,monospace" font-size="11.00">AccessCounter</text>
</g>
<!-- \\AccessCounter&#45;&gt;\\AccessCountersAppModel -->
<g id="edge103" class="edge"><title>\\AccessCounter&#45;&gt;\\AccessCountersAppModel</title>
<path fill="none" stroke="black" d="M1067.87,-2807.81C1020.59,-2807.81 949.788,-2807.81 892.846,-2807.81"/>
<polygon fill="none" stroke="black" points="892.748,-2804.31 882.748,-2807.81 892.748,-2811.31 892.748,-2804.31"/>
</g>
<!-- \\AccessCountersSchema -->
<g id="node59" class="node"><title>\\AccessCountersSchema</title>
<polygon fill="none" stroke="black" points="1196,-503.806 1044,-503.806 1044,-467.806 1196,-467.806 1196,-503.806"/>
<text text-anchor="middle" x="1120" y="-482.906" font-family="Courier,monospace" font-size="11.00">AccessCountersSchema</text>
</g>
<!-- \\CakeSchema -->
<g id="node126" class="node"><title>\\CakeSchema</title>
<ellipse fill="none" stroke="black" cx="800" cy="-55.8061" rx="77.0746" ry="18.3848"/>
<text text-anchor="middle" x="800" y="-52.2061" font-family="Times Roman,serif" font-size="14.00" fill="gray">\CakeSchema</text>
</g>
<!-- \\AccessCountersSchema&#45;&gt;\\CakeSchema -->
<g id="edge105" class="edge"><title>\\AccessCountersSchema&#45;&gt;\\CakeSchema</title>
<path fill="none" stroke="black" d="M1043.91,-484.86C1024.04,-480.969 1004.23,-473.261 990,-458.806 870.629,-337.56 1036.14,-205.249 918,-82.8061 908.93,-73.4059 897.308,-66.9788 884.908,-62.6351"/>
<polygon fill="none" stroke="black" points="885.89,-59.2754 875.304,-59.7048 883.847,-65.9707 885.89,-59.2754"/>
</g>
<!-- \\Init -->
<g id="node60" class="node"><title>\\Init</title>
<polygon fill="none" stroke="black" points="1147,-449.806 1093,-449.806 1093,-413.806 1147,-413.806 1147,-449.806"/>
<text text-anchor="middle" x="1120" y="-428.906" font-family="Courier,monospace" font-size="11.00">Init</text>
</g>
<!-- \\Init&#45;&gt;\\CakeMigration -->
<g id="edge107" class="edge"><title>\\Init&#45;&gt;\\CakeMigration</title>
<path fill="none" stroke="black" d="M1117.57,-413.728C1107.58,-347.652 1063.18,-118.43 918,-28.8061 792.725,48.5321 610.835,-51.0243 536.523,-98.8324"/>
<polygon fill="none" stroke="black" points="534.467,-95.9948 528.005,-104.391 538.292,-101.857 534.467,-95.9948"/>
</g>
<!-- \\PluginRecords -->
<g id="node61" class="node"><title>\\PluginRecords</title>
<polygon fill="none" stroke="black" points="1172,-1205.81 1068,-1205.81 1068,-1169.81 1172,-1169.81 1172,-1205.81"/>
<text text-anchor="middle" x="1120" y="-1184.91" font-family="Courier,monospace" font-size="11.00">PluginRecords</text>
</g>
<!-- \\PluginRecords&#45;&gt;\\NetCommonsMigration -->
<g id="edge109" class="edge"><title>\\PluginRecords&#45;&gt;\\NetCommonsMigration</title>
<path fill="none" stroke="black" d="M1067.71,-1187.01C1042.15,-1184.27 1012.2,-1177.31 990,-1160.81 877.275,-1077.03 823.813,-905.837 806.54,-838.703"/>
<polygon fill="none" stroke="black" points="809.898,-837.702 804.075,-828.851 803.107,-839.401 809.898,-837.702"/>
</g>
</g>
</svg>
