<?xml version="1.0" encoding="UTF-8" standalone="no"?>
<!DOCTYPE svg PUBLIC "-//W3C//DTD SVG 1.1//EN"
 "http://www.w3.org/Graphics/SVG/1.1/DTD/svg11.dtd">
<!-- Generated by graphviz version 2.26.3 (20100126.1600)
 -->
<!-- Title: G Pages: 1 -->
<svg width="1274pt" height="2926pt"
 viewBox="0.00 0.00 1274.00 2925.81" xmlns="http://www.w3.org/2000/svg" xmlns:xlink="http://www.w3.org/1999/xlink">
<g id="graph1" class="graph" transform="scale(1 1) rotate(0) translate(4 2921.81)">
<title>G</title>
<polygon fill="white" stroke="white" points="-4,5 -4,-2921.81 1271,-2921.81 1271,5 -4,5"/>
<g id="graph2" class="cluster"><title>cluster_Global</title>
<polyline fill="none" stroke="gray" points="177,-405.806 1246,-405.806 "/>
<path fill="none" stroke="gray" d="M1246,-405.806C1252,-405.806 1258,-411.806 1258,-417.806"/>
<polyline fill="none" stroke="gray" points="1258,-417.806 1258,-2897.81 "/>
<path fill="none" stroke="gray" d="M1258,-2897.81C1258,-2903.81 1252,-2909.81 1246,-2909.81"/>
<polyline fill="none" stroke="gray" points="1246,-2909.81 177,-2909.81 "/>
<path fill="none" stroke="gray" d="M177,-2909.81C171,-2909.81 165,-2903.81 165,-2897.81"/>
<polyline fill="none" stroke="gray" points="165,-2897.81 165,-417.806 "/>
<path fill="none" stroke="gray" d="M165,-417.806C165,-411.806 171,-405.806 177,-405.806"/>
<text text-anchor="middle" x="711.5" y="-2895.91" font-family="Times Roman,serif" font-size="11.00" fill="gray">Global</text>
</g>
<!-- \\AppController -->
<g id="node2" class="node"><title>\\AppController</title>
<polygon fill="none" stroke="black" points="555,-1462.81 451,-1462.81 451,-1426.81 555,-1426.81 555,-1462.81"/>
<text text-anchor="middle" x="503" y="-1441.91" font-family="Courier,monospace" font-size="11.00">AppController</text>
</g>
<!-- \\Controller -->
<g id="node64" class="node"><title>\\Controller</title>
<ellipse fill="none" stroke="black" cx="242" cy="-302.806" rx="63.1385" ry="18.3848"/>
<text text-anchor="middle" x="242" y="-299.206" font-family="Times Roman,serif" font-size="14.00" fill="gray">\Controller</text>
</g>
<!-- \\AppController&#45;&gt;\\Controller -->
<g id="edge3" class="edge"><title>\\AppController&#45;&gt;\\Controller</title>
<path fill="none" stroke="black" d="M450.845,-1446.75C430.813,-1444.62 409.531,-1438.31 396,-1422.81 239.289,-1243.26 447.59,-556.57 324,-352.806 316.061,-339.717 303.269,-329.585 290.127,-321.973"/>
<polygon fill="none" stroke="black" points="291.495,-318.736 281.027,-317.1 288.191,-324.907 291.495,-318.736"/>
</g>
<!-- \\AppModel -->
<g id="node3" class="node"><title>\\AppModel</title>
<polygon fill="none" stroke="black" points="538,-2852.81 468,-2852.81 468,-2816.81 538,-2816.81 538,-2852.81"/>
<text text-anchor="middle" x="503" y="-2831.91" font-family="Courier,monospace" font-size="11.00">AppModel</text>
</g>
<!-- \\NetCommonsAppModel -->
<g id="node48" class="node"><title>\\NetCommonsAppModel</title>
<polygon fill="none" stroke="black" points="311,-2852.81 173,-2852.81 173,-2816.81 311,-2816.81 311,-2852.81"/>
<text text-anchor="middle" x="242" y="-2831.91" font-family="Courier,monospace" font-size="11.00">NetCommonsAppModel</text>
</g>
<!-- \\AppModel&#45;&gt;\\NetCommonsAppModel -->
<g id="edge5" class="edge"><title>\\AppModel&#45;&gt;\\NetCommonsAppModel</title>
<path fill="none" stroke="black" d="M467.256,-2834.81C429.848,-2834.81 369.903,-2834.81 321.254,-2834.81"/>
<polygon fill="none" stroke="black" points="321.056,-2831.31 311.056,-2834.81 321.056,-2838.31 321.056,-2831.31"/>
</g>
<!-- \\DatabaseConfiguration -->
<g id="node4" class="node"><title>\\DatabaseConfiguration</title>
<polygon fill="none" stroke="black" points="879,-2825.81 721,-2825.81 721,-2789.81 879,-2789.81 879,-2825.81"/>
<text text-anchor="middle" x="800" y="-2804.91" font-family="Courier,monospace" font-size="11.00">DatabaseConfiguration</text>
</g>
<!-- \\DatabaseConfiguration&#45;&gt;\\AppModel -->
<g id="edge7" class="edge"><title>\\DatabaseConfiguration&#45;&gt;\\AppModel</title>
<path fill="none" stroke="black" d="M720.8,-2815.01C665.959,-2819.99 594.863,-2826.45 549.084,-2830.62"/>
<polygon fill="none" stroke="black" points="548.509,-2827.15 538.867,-2831.55 549.143,-2834.13 548.509,-2827.15"/>
</g>
<!-- \\AppHelper -->
<g id="node5" class="node"><title>\\AppHelper</title>
<polygon fill="none" stroke="black" points="838,-1691.81 762,-1691.81 762,-1655.81 838,-1655.81 838,-1691.81"/>
<text text-anchor="middle" x="800" y="-1670.91" font-family="Courier,monospace" font-size="11.00">AppHelper</text>
</g>
<!-- \\Helper -->
<g id="node68" class="node"><title>\\Helper</title>
<ellipse fill="none" stroke="black" cx="503" cy="-379.806" rx="43.8406" ry="18.3848"/>
<text text-anchor="middle" x="503" y="-376.206" font-family="Times Roman,serif" font-size="14.00" fill="gray">Helper</text>
</g>
<!-- \\AppHelper&#45;&gt;\\Helper -->
<g id="edge9" class="edge"><title>\\AppHelper&#45;&gt;\\Helper</title>
<path fill="none" stroke="black" d="M792.086,-1655.6C770.212,-1604.38 708.783,-1454.15 682,-1322.81 661.49,-1222.23 677.915,-478.771 610,-401.806 596.75,-386.79 576.226,-380.419 556.683,-378.115"/>
<polygon fill="none" stroke="black" points="556.857,-374.618 546.596,-377.257 556.264,-381.592 556.857,-374.618"/>
</g>
<!-- \\NetCommonsDeleteTest -->
<g id="node6" class="node"><title>\\NetCommonsDeleteTest</title>
<polygon fill="none" stroke="black" points="1196,-2771.81 1044,-2771.81 1044,-2735.81 1196,-2735.81 1196,-2771.81"/>
<text text-anchor="middle" x="1120" y="-2750.91" font-family="Courier,monospace" font-size="11.00">NetCommonsDeleteTest</text>
</g>
<!-- \\NetCommonsModelTestCase -->
<g id="node15" class="node"><title>\\NetCommonsModelTestCase</title>
<polygon fill="none" stroke="black" points="886,-2663.81 714,-2663.81 714,-2627.81 886,-2627.81 886,-2663.81"/>
<text text-anchor="middle" x="800" y="-2642.91" font-family="Courier,monospace" font-size="11.00">NetCommonsModelTestCase</text>
</g>
<!-- \\NetCommonsDeleteTest&#45;&gt;\\NetCommonsModelTestCase -->
<g id="edge11" class="edge"><title>\\NetCommonsDeleteTest&#45;&gt;\\NetCommonsModelTestCase</title>
<path fill="none" stroke="black" d="M1043.98,-2743.83C1025.8,-2739.88 1006.81,-2734.4 990,-2726.81 953.544,-2710.34 954.288,-2689.63 918,-2672.81 910.962,-2669.54 903.501,-2666.66 895.884,-2664.11"/>
<polygon fill="none" stroke="black" points="896.762,-2660.72 886.173,-2661.07 894.666,-2667.4 896.762,-2660.72"/>
</g>
<!-- \\NetCommonsConsoleTestCase -->
<g id="node7" class="node"><title>\\NetCommonsConsoleTestCase</title>
<polygon fill="none" stroke="black" points="892,-2771.81 708,-2771.81 708,-2735.81 892,-2735.81 892,-2771.81"/>
<text text-anchor="middle" x="800" y="-2750.91" font-family="Courier,monospace" font-size="11.00">NetCommonsConsoleTestCase</text>
</g>
<!-- \\NetCommonsCakeTestCase -->
<g id="node13" class="node"><title>\\NetCommonsCakeTestCase</title>
<polygon fill="none" stroke="black" points="585,-2690.81 421,-2690.81 421,-2654.81 585,-2654.81 585,-2690.81"/>
<text text-anchor="middle" x="503" y="-2669.91" font-family="Courier,monospace" font-size="11.00">NetCommonsCakeTestCase</text>
</g>
<!-- \\NetCommonsConsoleTestCase&#45;&gt;\\NetCommonsCakeTestCase -->
<g id="edge13" class="edge"><title>\\NetCommonsConsoleTestCase&#45;&gt;\\NetCommonsCakeTestCase</title>
<path fill="none" stroke="black" d="M717.936,-2735.79C705.852,-2732.91 693.579,-2729.87 682,-2726.81 644.303,-2716.82 602.565,-2704.31 568.882,-2693.85"/>
<polygon fill="none" stroke="black" points="569.742,-2690.45 559.154,-2690.82 567.658,-2697.14 569.742,-2690.45"/>
</g>
<!-- \\NetCommonsGetTest -->
<g id="node8" class="node"><title>\\NetCommonsGetTest</title>
<polygon fill="none" stroke="black" points="1185,-2717.81 1055,-2717.81 1055,-2681.81 1185,-2681.81 1185,-2717.81"/>
<text text-anchor="middle" x="1120" y="-2696.91" font-family="Courier,monospace" font-size="11.00">NetCommonsGetTest</text>
</g>
<!-- \\NetCommonsGetTest&#45;&gt;\\NetCommonsModelTestCase -->
<g id="edge15" class="edge"><title>\\NetCommonsGetTest&#45;&gt;\\NetCommonsModelTestCase</title>
<path fill="none" stroke="black" d="M1054.47,-2688.75C1008.87,-2681.05 947.325,-2670.67 896.181,-2662.04"/>
<polygon fill="none" stroke="black" points="896.542,-2658.55 886.099,-2660.34 895.378,-2665.45 896.542,-2658.55"/>
</g>
<!-- \\NetCommonsHelperTestCase -->
<g id="node9" class="node"><title>\\NetCommonsHelperTestCase</title>
<polygon fill="none" stroke="black" points="889,-2717.81 711,-2717.81 711,-2681.81 889,-2681.81 889,-2717.81"/>
<text text-anchor="middle" x="800" y="-2696.91" font-family="Courier,monospace" font-size="11.00">NetCommonsHelperTestCase</text>
</g>
<!-- \\NetCommonsHelperTestCase&#45;&gt;\\NetCommonsCakeTestCase -->
<g id="edge17" class="edge"><title>\\NetCommonsHelperTestCase&#45;&gt;\\NetCommonsCakeTestCase</title>
<path fill="none" stroke="black" d="M710.487,-2691.67C674.267,-2688.38 632.456,-2684.57 595.9,-2681.25"/>
<polygon fill="none" stroke="black" points="596.013,-2677.75 585.737,-2680.33 595.379,-2684.72 596.013,-2677.75"/>
</g>
<!-- \\NetCommonsControllerBaseTestCase -->
<g id="node10" class="node"><title>\\NetCommonsControllerBaseTestCase</title>
<polygon fill="none" stroke="black" points="916,-1313.81 684,-1313.81 684,-1277.81 916,-1277.81 916,-1313.81"/>
<text text-anchor="middle" x="800" y="-1292.91" font-family="Courier,monospace" font-size="11.00">NetCommonsControllerBaseTestCase</text>
</g>
<!-- \\ControllerTestCase -->
<g id="node74" class="node"><title>\\ControllerTestCase</title>
<ellipse fill="none" stroke="black" cx="503" cy="-325.806" rx="106.773" ry="18.3848"/>
<text text-anchor="middle" x="503" y="-322.206" font-family="Times Roman,serif" font-size="14.00" fill="gray">\ControllerTestCase</text>
</g>
<!-- \\NetCommonsControllerBaseTestCase&#45;&gt;\\ControllerTestCase -->
<g id="edge19" class="edge"><title>\\NetCommonsControllerBaseTestCase&#45;&gt;\\ControllerTestCase</title>
<path fill="none" stroke="black" d="M691.542,-1277.77C688.089,-1275.12 684.884,-1272.15 682,-1268.81 548.574,-1114.25 741.699,-508.838 610,-352.806 606.37,-348.505 602.164,-344.836 597.563,-341.71"/>
<polygon fill="none" stroke="black" points="599.292,-338.667 588.891,-336.651 595.765,-344.713 599.292,-338.667"/>
</g>
<!-- \\NetCommonsValidateTest -->
<g id="node11" class="node"><title>\\NetCommonsValidateTest</title>
<polygon fill="none" stroke="black" points="1202,-2663.81 1038,-2663.81 1038,-2627.81 1202,-2627.81 1202,-2663.81"/>
<text text-anchor="middle" x="1120" y="-2642.91" font-family="Courier,monospace" font-size="11.00">NetCommonsValidateTest</text>
</g>
<!-- \\NetCommonsValidateTest&#45;&gt;\\NetCommonsModelTestCase -->
<g id="edge21" class="edge"><title>\\NetCommonsValidateTest&#45;&gt;\\NetCommonsModelTestCase</title>
<path fill="none" stroke="black" d="M1037.18,-2645.81C994.049,-2645.81 941.085,-2645.81 896.155,-2645.81"/>
<polygon fill="none" stroke="black" points="896.106,-2642.31 886.106,-2645.81 896.106,-2649.31 896.106,-2642.31"/>
</g>
<!-- \\NetCommonsTestSuite -->
<g id="node12" class="node"><title>\\NetCommonsTestSuite</title>
<polygon fill="none" stroke="black" points="1192,-1151.81 1048,-1151.81 1048,-1115.81 1192,-1115.81 1192,-1151.81"/>
<text text-anchor="middle" x="1120" y="-1130.91" font-family="Courier,monospace" font-size="11.00">NetCommonsTestSuite</text>
</g>
<!-- \\CakeTestSuite -->
<g id="node77" class="node"><title>\\CakeTestSuite</title>
<ellipse fill="none" stroke="black" cx="800" cy="-379.806" rx="84.1457" ry="18.3848"/>
<text text-anchor="middle" x="800" y="-376.206" font-family="Times Roman,serif" font-size="14.00" fill="gray">\CakeTestSuite</text>
</g>
<!-- \\NetCommonsTestSuite&#45;&gt;\\CakeTestSuite -->
<g id="edge23" class="edge"><title>\\NetCommonsTestSuite&#45;&gt;\\CakeTestSuite</title>
<path fill="none" stroke="black" d="M1047.48,-1134.44C1026.12,-1130.89 1004.59,-1122.98 990,-1106.81 779.048,-872.923 1131.33,-633.519 918,-401.806 911.119,-394.332 902.58,-388.907 893.263,-385.021"/>
<polygon fill="none" stroke="black" points="894.315,-381.681 883.72,-381.63 891.97,-388.277 894.315,-381.681"/>
</g>
<!-- \\CakeTestCase -->
<g id="node79" class="node"><title>\\CakeTestCase</title>
<ellipse fill="none" stroke="black" cx="242" cy="-379.806" rx="82.0244" ry="18.3848"/>
<text text-anchor="middle" x="242" y="-376.206" font-family="Times Roman,serif" font-size="14.00" fill="gray">\CakeTestCase</text>
</g>
<!-- \\NetCommonsCakeTestCase&#45;&gt;\\CakeTestCase -->
<g id="edge25" class="edge"><title>\\NetCommonsCakeTestCase&#45;&gt;\\CakeTestCase</title>
<path fill="none" stroke="black" d="M501.216,-2654.47C490.483,-2543.85 433.691,-1953.89 396,-1471.81 386.712,-1353.01 399.658,-493.863 324,-401.806 322.28,-399.714 320.385,-397.808 318.348,-396.074"/>
<polygon fill="none" stroke="black" points="320.076,-393.013 309.863,-390.198 316.091,-398.768 320.076,-393.013"/>
</g>
<!-- \\NetCommonsSaveTest -->
<g id="node14" class="node"><title>\\NetCommonsSaveTest</title>
<polygon fill="none" stroke="black" points="1189,-2609.81 1051,-2609.81 1051,-2573.81 1189,-2573.81 1189,-2609.81"/>
<text text-anchor="middle" x="1120" y="-2588.91" font-family="Courier,monospace" font-size="11.00">NetCommonsSaveTest</text>
</g>
<!-- \\NetCommonsSaveTest&#45;&gt;\\NetCommonsModelTestCase -->
<g id="edge27" class="edge"><title>\\NetCommonsSaveTest&#45;&gt;\\NetCommonsModelTestCase</title>
<path fill="none" stroke="black" d="M1050.96,-2603.46C1005.75,-2611.09 946.037,-2621.16 896.199,-2629.57"/>
<polygon fill="none" stroke="black" points="895.326,-2626.17 886.048,-2631.29 896.491,-2633.07 895.326,-2626.17"/>
</g>
<!-- \\NetCommonsModelTestCase&#45;&gt;\\NetCommonsCakeTestCase -->
<g id="edge29" class="edge"><title>\\NetCommonsModelTestCase&#45;&gt;\\NetCommonsCakeTestCase</title>
<path fill="none" stroke="black" d="M713.696,-2653.65C676.671,-2657.02 633.35,-2660.96 595.65,-2664.38"/>
<polygon fill="none" stroke="black" points="595.328,-2660.9 585.686,-2665.29 595.962,-2667.87 595.328,-2660.9"/>
</g>
<!-- \\NetCommonsControllerTestCase -->
<g id="node16" class="node"><title>\\NetCommonsControllerTestCase</title>
<polygon fill="none" stroke="black" points="1223,-1313.81 1017,-1313.81 1017,-1277.81 1223,-1277.81 1223,-1313.81"/>
<text text-anchor="middle" x="1120" y="-1292.91" font-family="Courier,monospace" font-size="11.00">NetCommonsControllerTestCase</text>
</g>
<!-- \\NetCommonsControllerTestCase&#45;&gt;\\NetCommonsControllerBaseTestCase -->
<g id="edge31" class="edge"><title>\\NetCommonsControllerTestCase&#45;&gt;\\NetCommonsControllerBaseTestCase</title>
<path fill="none" stroke="black" d="M1016.99,-1295.81C988.262,-1295.81 956.716,-1295.81 926.792,-1295.81"/>
<polygon fill="none" stroke="black" points="926.712,-1292.31 916.712,-1295.81 926.712,-1299.31 926.712,-1292.31"/>
</g>
<!-- \\NetCommonsAppController -->
<g id="node17" class="node"><title>\\NetCommonsAppController</title>
<polygon fill="none" stroke="black" points="886,-1259.81 714,-1259.81 714,-1223.81 886,-1223.81 886,-1259.81"/>
<text text-anchor="middle" x="800" y="-1238.91" font-family="Courier,monospace" font-size="11.00">NetCommonsAppController</text>
</g>
<!-- \\NetCommonsAppController&#45;&gt;\\Controller -->
<g id="edge33" class="edge"><title>\\NetCommonsAppController&#45;&gt;\\Controller</title>
<path fill="none" stroke="black" d="M793.582,-1223.54C773.945,-1166.96 714.062,-989.359 682,-837.806 656.989,-719.581 700.929,-378.396 610,-298.806 520.21,-220.213 365.571,-258.422 288.491,-284.84"/>
<polygon fill="none" stroke="black" points="287.317,-281.543 279.038,-288.154 289.633,-288.148 287.317,-281.543"/>
</g>
<!-- \\AssetComponent -->
<g id="node18" class="node"><title>\\AssetComponent</title>
<polygon fill="none" stroke="black" points="1175,-1043.81 1065,-1043.81 1065,-1007.81 1175,-1007.81 1175,-1043.81"/>
<text text-anchor="middle" x="1120" y="-1022.91" font-family="Courier,monospace" font-size="11.00">AssetComponent</text>
</g>
<!-- \\Component -->
<g id="node85" class="node"><title>\\Component</title>
<ellipse fill="none" stroke="black" cx="800" cy="-325.806" rx="70.9184" ry="18.3848"/>
<text text-anchor="middle" x="800" y="-322.206" font-family="Times Roman,serif" font-size="14.00" fill="gray">\Component</text>
</g>
<!-- \\AssetComponent&#45;&gt;\\Component -->
<g id="edge35" class="edge"><title>\\AssetComponent&#45;&gt;\\Component</title>
<path fill="none" stroke="black" d="M1064.35,-1028.34C1038.1,-1026.41 1008.54,-1019.18 990,-998.806 795.525,-785.18 1110.31,-568.382 918,-352.806 908.225,-341.848 894.994,-334.86 880.924,-330.492"/>
<polygon fill="none" stroke="black" points="881.644,-327.062 871.08,-327.87 879.842,-333.826 881.644,-327.062"/>
</g>
<!-- \\NetCommonsTimeComponent -->
<g id="node19" class="node"><title>\\NetCommonsTimeComponent</title>
<polygon fill="none" stroke="black" points="1206,-989.806 1034,-989.806 1034,-953.806 1206,-953.806 1206,-989.806"/>
<text text-anchor="middle" x="1120" y="-968.906" font-family="Courier,monospace" font-size="11.00">NetCommonsTimeComponent</text>
</g>
<!-- \\NetCommonsTimeComponent&#45;&gt;\\Component -->
<g id="edge37" class="edge"><title>\\NetCommonsTimeComponent&#45;&gt;\\Component</title>
<path fill="none" stroke="black" d="M1033.81,-969.309C1017.28,-964.915 1001.55,-957.362 990,-944.806 810.592,-749.706 1095.43,-549.705 918,-352.806 908.227,-341.961 895.069,-335.013 881.082,-330.647"/>
<polygon fill="none" stroke="black" points="881.864,-327.233 871.298,-328.02 880.049,-333.993 881.864,-327.233"/>
</g>
<!-- \\PermissionComponent -->
<g id="node20" class="node"><title>\\PermissionComponent</title>
<polygon fill="none" stroke="black" points="1192,-935.806 1048,-935.806 1048,-899.806 1192,-899.806 1192,-935.806"/>
<text text-anchor="middle" x="1120" y="-914.906" font-family="Courier,monospace" font-size="11.00">PermissionComponent</text>
</g>
<!-- \\PermissionComponent&#45;&gt;\\Component -->
<g id="edge39" class="edge"><title>\\PermissionComponent&#45;&gt;\\Component</title>
<path fill="none" stroke="black" d="M1047.45,-918.109C1026.21,-914.521 1004.76,-906.667 990,-890.806 825.643,-714.214 1080.57,-531.046 918,-352.806 908.162,-342.02 894.974,-335.099 880.979,-330.74"/>
<polygon fill="none" stroke="black" points="881.757,-327.326 871.192,-328.116 879.944,-334.087 881.757,-327.326"/>
</g>
<!-- \\NetCommonsComponent -->
<g id="node21" class="node"><title>\\NetCommonsComponent</title>
<polygon fill="none" stroke="black" points="1192,-1097.81 1048,-1097.81 1048,-1061.81 1192,-1061.81 1192,-1097.81"/>
<text text-anchor="middle" x="1120" y="-1076.91" font-family="Courier,monospace" font-size="11.00">NetCommonsComponent</text>
</g>
<!-- \\NetCommonsComponent&#45;&gt;\\Component -->
<g id="edge41" class="edge"><title>\\NetCommonsComponent&#45;&gt;\\Component</title>
<path fill="none" stroke="black" d="M1047.49,-1080.43C1026.13,-1076.89 1004.6,-1068.98 990,-1052.81 780.445,-820.641 1125.2,-587.072 918,-352.806 908.271,-341.807 895.062,-334.8 880.998,-330.427"/>
<polygon fill="none" stroke="black" points="881.72,-326.997 871.156,-327.802 879.917,-333.761 881.72,-326.997"/>
</g>
<!-- \\NetCommonsController -->
<g id="node22" class="node"><title>\\NetCommonsController</title>
<polygon fill="none" stroke="black" points="1196,-1259.81 1044,-1259.81 1044,-1223.81 1196,-1223.81 1196,-1259.81"/>
<text text-anchor="middle" x="1120" y="-1238.91" font-family="Courier,monospace" font-size="11.00">NetCommonsController</text>
</g>
<!-- \\NetCommonsController&#45;&gt;\\NetCommonsAppController -->
<g id="edge43" class="edge"><title>\\NetCommonsController&#45;&gt;\\NetCommonsAppController</title>
<path fill="none" stroke="black" d="M1043.76,-1241.81C999.583,-1241.81 943.544,-1241.81 896.338,-1241.81"/>
<polygon fill="none" stroke="black" points="896.098,-1238.31 886.098,-1241.81 896.098,-1245.31 896.098,-1238.31"/>
</g>
<!-- \\NetCommonsUrl -->
<g id="node23" class="node"><title>\\NetCommonsUrl</title>
<polygon fill="none" stroke="black" points="1172,-2285.81 1068,-2285.81 1068,-2249.81 1172,-2249.81 1172,-2285.81"/>
<text text-anchor="middle" x="1120" y="-2264.91" font-family="Courier,monospace" font-size="11.00">NetCommonsUrl</text>
</g>
<!-- \\NetCommonsTime -->
<g id="node24" class="node"><title>\\NetCommonsTime</title>
<polygon fill="none" stroke="black" points="1175,-2231.81 1065,-2231.81 1065,-2195.81 1175,-2195.81 1175,-2231.81"/>
<text text-anchor="middle" x="1120" y="-2210.91" font-family="Courier,monospace" font-size="11.00">NetCommonsTime</text>
</g>
<!-- \\CurrentBase -->
<g id="node25" class="node"><title>\\CurrentBase</title>
<polygon fill="none" stroke="black" points="845,-2393.81 755,-2393.81 755,-2357.81 845,-2357.81 845,-2393.81"/>
<text text-anchor="middle" x="800" y="-2372.91" font-family="Courier,monospace" font-size="11.00">CurrentBase</text>
</g>
<!-- \\Current -->
<g id="node26" class="node"><title>\\Current</title>
<polygon fill="none" stroke="black" points="1152,-2393.81 1088,-2393.81 1088,-2357.81 1152,-2357.81 1152,-2393.81"/>
<text text-anchor="middle" x="1120" y="-2372.91" font-family="Courier,monospace" font-size="11.00">Current</text>
</g>
<!-- \\Current&#45;&gt;\\CurrentBase -->
<g id="edge45" class="edge"><title>\\Current&#45;&gt;\\CurrentBase</title>
<path fill="none" stroke="black" d="M1087.85,-2375.81C1033.62,-2375.81 923.298,-2375.81 856.088,-2375.81"/>
<polygon fill="none" stroke="black" points="855.686,-2372.31 845.686,-2375.81 855.686,-2379.31 855.686,-2372.31"/>
</g>
<!-- \\CurrentSystem -->
<g id="node27" class="node"><title>\\CurrentSystem</title>
<polygon fill="none" stroke="black" points="1172,-2123.81 1068,-2123.81 1068,-2087.81 1172,-2087.81 1172,-2123.81"/>
<text text-anchor="middle" x="1120" y="-2102.91" font-family="Courier,monospace" font-size="11.00">CurrentSystem</text>
</g>
<!-- \\CurrentPage -->
<g id="node28" class="node"><title>\\CurrentPage</title>
<polygon fill="none" stroke="black" points="1165,-2069.81 1075,-2069.81 1075,-2033.81 1165,-2033.81 1165,-2069.81"/>
<text text-anchor="middle" x="1120" y="-2048.91" font-family="Courier,monospace" font-size="11.00">CurrentPage</text>
</g>
<!-- \\CurrentFrame -->
<g id="node29" class="node"><title>\\CurrentFrame</title>
<polygon fill="none" stroke="black" points="1169,-2015.81 1071,-2015.81 1071,-1979.81 1169,-1979.81 1169,-2015.81"/>
<text text-anchor="middle" x="1120" y="-1994.91" font-family="Courier,monospace" font-size="11.00">CurrentFrame</text>
</g>
<!-- \\TokenHelper -->
<g id="node30" class="node"><title>\\TokenHelper</title>
<polygon fill="none" stroke="black" points="1165,-827.806 1075,-827.806 1075,-791.806 1165,-791.806 1165,-827.806"/>
<text text-anchor="middle" x="1120" y="-806.906" font-family="Courier,monospace" font-size="11.00">TokenHelper</text>
</g>
<!-- \\FormHelper -->
<g id="node92" class="node"><title>\\FormHelper</title>
<ellipse fill="none" stroke="black" cx="800" cy="-271.806" rx="70.9184" ry="18.3848"/>
<text text-anchor="middle" x="800" y="-268.206" font-family="Times Roman,serif" font-size="14.00" fill="gray">\FormHelper</text>
</g>
<!-- \\TokenHelper&#45;&gt;\\FormHelper -->
<g id="edge47" class="edge"><title>\\TokenHelper&#45;&gt;\\FormHelper</title>
<path fill="none" stroke="black" d="M1074.33,-812.565C1046.09,-811.654 1011.29,-805.346 990,-782.806 840.672,-624.698 1065.73,-458.411 918,-298.806 908.083,-288.092 894.859,-281.204 880.853,-276.856"/>
<polygon fill="none" stroke="black" points="881.628,-273.44 871.063,-274.235 879.818,-280.202 881.628,-273.44"/>
</g>
<!-- \\SingletonViewBlockHtmlHelper -->
<g id="node31" class="node"><title>\\SingletonViewBlockHtmlHelper</title>
<polygon fill="none" stroke="black" points="1223,-719.806 1017,-719.806 1017,-683.806 1223,-683.806 1223,-719.806"/>
<text text-anchor="middle" x="1120" y="-698.906" font-family="Courier,monospace" font-size="11.00">SingletonViewBlockHtmlHelper</text>
</g>
<!-- \\HtmlHelper -->
<g id="node94" class="node"><title>\\HtmlHelper</title>
<ellipse fill="none" stroke="black" cx="800" cy="-217.806" rx="67.1751" ry="18.3848"/>
<text text-anchor="middle" x="800" y="-214.206" font-family="Times Roman,serif" font-size="14.00" fill="gray">HtmlHelper</text>
</g>
<!-- \\SingletonViewBlockHtmlHelper&#45;&gt;\\HtmlHelper -->
<g id="edge49" class="edge"><title>\\SingletonViewBlockHtmlHelper&#45;&gt;\\HtmlHelper</title>
<path fill="none" stroke="black" d="M1016.87,-692.954C1006.84,-688.59 997.59,-682.697 990,-674.806 855.672,-535.151 1050.91,-385.808 918,-244.806 907.121,-233.265 892.401,-226.182 877.051,-221.932"/>
<polygon fill="none" stroke="black" points="877.444,-218.428 866.906,-219.529 875.83,-225.24 877.444,-218.428"/>
</g>
<!-- \\FormInputHelper -->
<g id="node32" class="node"><title>\\FormInputHelper</title>
<polygon fill="none" stroke="black" points="1179,-1367.81 1061,-1367.81 1061,-1331.81 1179,-1331.81 1179,-1367.81"/>
<text text-anchor="middle" x="1120" y="-1346.91" font-family="Courier,monospace" font-size="11.00">FormInputHelper</text>
</g>
<!-- \\FormInputHelper&#45;&gt;\\AppHelper -->
<g id="edge51" class="edge"><title>\\FormInputHelper&#45;&gt;\\AppHelper</title>
<path fill="none" stroke="black" d="M1060.77,-1352.24C1037.09,-1355.61 1010.6,-1362.62 990,-1376.81 889.933,-1445.74 830.808,-1586.36 809.301,-1646.03"/>
<polygon fill="none" stroke="black" points="805.971,-1644.95 805.946,-1655.55 812.573,-1647.28 805.971,-1644.95"/>
</g>
<!-- \\WizardHelper -->
<g id="node33" class="node"><title>\\WizardHelper</title>
<polygon fill="none" stroke="black" points="1169,-2339.81 1071,-2339.81 1071,-2303.81 1169,-2303.81 1169,-2339.81"/>
<text text-anchor="middle" x="1120" y="-2318.91" font-family="Courier,monospace" font-size="11.00">WizardHelper</text>
</g>
<!-- \\WizardHelper&#45;&gt;\\AppHelper -->
<g id="edge53" class="edge"><title>\\WizardHelper&#45;&gt;\\AppHelper</title>
<path fill="none" stroke="black" d="M1070.72,-2323.17C1043.79,-2321.33 1011.63,-2314.53 990,-2294.81 898.289,-2211.18 823.792,-1812.07 804.735,-1701.98"/>
<polygon fill="none" stroke="black" points="808.157,-1701.23 803.017,-1691.97 801.258,-1702.42 808.157,-1701.23"/>
</g>
<!-- \\DisplayNumberHelper -->
<g id="node34" class="node"><title>\\DisplayNumberHelper</title>
<polygon fill="none" stroke="black" points="1192,-2177.81 1048,-2177.81 1048,-2141.81 1192,-2141.81 1192,-2177.81"/>
<text text-anchor="middle" x="1120" y="-2156.91" font-family="Courier,monospace" font-size="11.00">DisplayNumberHelper</text>
</g>
<!-- \\DisplayNumberHelper&#45;&gt;\\AppHelper -->
<g id="edge55" class="edge"><title>\\DisplayNumberHelper&#45;&gt;\\AppHelper</title>
<path fill="none" stroke="black" d="M1047.4,-2157.22C1027.02,-2153.38 1006.07,-2146.11 990,-2132.81 850.768,-2017.53 812.163,-1783.35 802.741,-1702.23"/>
<polygon fill="none" stroke="black" points="806.217,-1701.81 801.643,-1692.25 799.259,-1702.57 806.217,-1701.81"/>
</g>
<!-- \\MessageFlashHelper -->
<g id="node35" class="node"><title>\\MessageFlashHelper</title>
<polygon fill="none" stroke="black" points="1189,-1961.81 1051,-1961.81 1051,-1925.81 1189,-1925.81 1189,-1961.81"/>
<text text-anchor="middle" x="1120" y="-1940.91" font-family="Courier,monospace" font-size="11.00">MessageFlashHelper</text>
</g>
<!-- \\MessageFlashHelper&#45;&gt;\\AppHelper -->
<g id="edge57" class="edge"><title>\\MessageFlashHelper&#45;&gt;\\AppHelper</title>
<path fill="none" stroke="black" d="M1050.81,-1938.6C1030.11,-1934.71 1008.11,-1928.06 990,-1916.81 902.399,-1862.37 839.071,-1752.31 813.073,-1701.13"/>
<polygon fill="none" stroke="black" points="816.113,-1699.38 808.515,-1692 809.85,-1702.51 816.113,-1699.38"/>
</g>
<!-- \\DateHelper -->
<g id="node36" class="node"><title>\\DateHelper</title>
<polygon fill="none" stroke="black" points="1162,-1907.81 1078,-1907.81 1078,-1871.81 1162,-1871.81 1162,-1907.81"/>
<text text-anchor="middle" x="1120" y="-1886.91" font-family="Courier,monospace" font-size="11.00">DateHelper</text>
</g>
<!-- \\DateHelper&#45;&gt;\\AppHelper -->
<g id="edge59" class="edge"><title>\\DateHelper&#45;&gt;\\AppHelper</title>
<path fill="none" stroke="black" d="M1077.8,-1887.19C1051.29,-1884.11 1017.1,-1877.39 990,-1862.81 914.459,-1822.15 849.17,-1742.01 818.553,-1700.36"/>
<polygon fill="none" stroke="black" points="821.257,-1698.12 812.555,-1692.08 815.589,-1702.23 821.257,-1698.12"/>
</g>
<!-- \\SnsButtonHelper -->
<g id="node37" class="node"><title>\\SnsButtonHelper</title>
<polygon fill="none" stroke="black" points="1179,-1853.81 1061,-1853.81 1061,-1817.81 1179,-1817.81 1179,-1853.81"/>
<text text-anchor="middle" x="1120" y="-1832.91" font-family="Courier,monospace" font-size="11.00">SnsButtonHelper</text>
</g>
<!-- \\SnsButtonHelper&#45;&gt;\\AppHelper -->
<g id="edge61" class="edge"><title>\\SnsButtonHelper&#45;&gt;\\AppHelper</title>
<path fill="none" stroke="black" d="M1060.82,-1828.81C1038.04,-1824.76 1012.19,-1818.48 990,-1808.81 926.132,-1780.95 862.22,-1729.49 827.22,-1698.78"/>
<polygon fill="none" stroke="black" points="829.177,-1695.84 819.375,-1691.82 824.531,-1701.07 829.177,-1695.84"/>
</g>
<!-- \\BackToHelper -->
<g id="node38" class="node"><title>\\BackToHelper</title>
<polygon fill="none" stroke="black" points="1169,-1799.81 1071,-1799.81 1071,-1763.81 1169,-1763.81 1169,-1799.81"/>
<text text-anchor="middle" x="1120" y="-1778.91" font-family="Courier,monospace" font-size="11.00">BackToHelper</text>
</g>
<!-- \\BackToHelper&#45;&gt;\\AppHelper -->
<g id="edge63" class="edge"><title>\\BackToHelper&#45;&gt;\\AppHelper</title>
<path fill="none" stroke="black" d="M1070.95,-1773.99C1046.36,-1769.48 1016.28,-1763.05 990,-1754.81 939.217,-1738.88 883.453,-1714.19 845.554,-1696.26"/>
<polygon fill="none" stroke="black" points="846.85,-1693 836.317,-1691.85 843.837,-1699.32 846.85,-1693"/>
</g>
<!-- \\NetCommonsHtmlHelper -->
<g id="node39" class="node"><title>\\NetCommonsHtmlHelper</title>
<polygon fill="none" stroke="black" points="1196,-1745.81 1044,-1745.81 1044,-1709.81 1196,-1709.81 1196,-1745.81"/>
<text text-anchor="middle" x="1120" y="-1724.91" font-family="Courier,monospace" font-size="11.00">NetCommonsHtmlHelper</text>
</g>
<!-- \\NetCommonsHtmlHelper&#45;&gt;\\AppHelper -->
<g id="edge65" class="edge"><title>\\NetCommonsHtmlHelper&#45;&gt;\\AppHelper</title>
<path fill="none" stroke="black" d="M1043.76,-1714.94C983.274,-1704.73 900.55,-1690.77 848.71,-1682.03"/>
<polygon fill="none" stroke="black" points="849.212,-1678.56 838.769,-1680.35 848.048,-1685.46 849.212,-1678.56"/>
</g>
<!-- \\ButtonHelper -->
<g id="node40" class="node"><title>\\ButtonHelper</title>
<polygon fill="none" stroke="black" points="1169,-773.806 1071,-773.806 1071,-737.806 1169,-737.806 1169,-773.806"/>
<text text-anchor="middle" x="1120" y="-752.906" font-family="Courier,monospace" font-size="11.00">ButtonHelper</text>
</g>
<!-- \\ButtonHelper&#45;&gt;\\FormHelper -->
<g id="edge67" class="edge"><title>\\ButtonHelper&#45;&gt;\\FormHelper</title>
<path fill="none" stroke="black" d="M1070.98,-758.287C1043.46,-756.926 1010.61,-750.237 990,-728.806 855.672,-589.151 1050.91,-439.808 918,-298.806 907.986,-288.183 894.718,-281.337 880.698,-277"/>
<polygon fill="none" stroke="black" points="881.468,-273.583 870.904,-274.383 879.661,-280.346 881.468,-273.583"/>
</g>
<!-- \\ComposerHelper -->
<g id="node41" class="node"><title>\\ComposerHelper</title>
<polygon fill="none" stroke="black" points="1175,-1691.81 1065,-1691.81 1065,-1655.81 1175,-1655.81 1175,-1691.81"/>
<text text-anchor="middle" x="1120" y="-1670.91" font-family="Courier,monospace" font-size="11.00">ComposerHelper</text>
</g>
<!-- \\ComposerHelper&#45;&gt;\\AppHelper -->
<g id="edge69" class="edge"><title>\\ComposerHelper&#45;&gt;\\AppHelper</title>
<path fill="none" stroke="black" d="M1064.26,-1673.81C1003.28,-1673.81 906.507,-1673.81 848.536,-1673.81"/>
<polygon fill="none" stroke="black" points="848.53,-1670.31 838.53,-1673.81 848.53,-1677.31 848.53,-1670.31"/>
</g>
<!-- \\LinkButtonHelper -->
<g id="node42" class="node"><title>\\LinkButtonHelper</title>
<polygon fill="none" stroke="black" points="1182,-881.806 1058,-881.806 1058,-845.806 1182,-845.806 1182,-881.806"/>
<text text-anchor="middle" x="1120" y="-860.906" font-family="Courier,monospace" font-size="11.00">LinkButtonHelper</text>
</g>
<!-- \\LinkButtonHelper&#45;&gt;\\FormHelper -->
<g id="edge71" class="edge"><title>\\LinkButtonHelper&#45;&gt;\\FormHelper</title>
<path fill="none" stroke="black" d="M1057.23,-865.478C1032.99,-862.753 1007.04,-855.114 990,-836.806 825.643,-660.214 1080.57,-477.046 918,-298.806 908.162,-288.02 894.974,-281.099 880.979,-276.74"/>
<polygon fill="none" stroke="black" points="881.757,-273.326 871.192,-274.116 879.944,-280.087 881.757,-273.326"/>
</g>
<!-- \\TableListHelper -->
<g id="node43" class="node"><title>\\TableListHelper</title>
<polygon fill="none" stroke="black" points="1179,-1637.81 1061,-1637.81 1061,-1601.81 1179,-1601.81 1179,-1637.81"/>
<text text-anchor="middle" x="1120" y="-1616.91" font-family="Courier,monospace" font-size="11.00">TableListHelper</text>
</g>
<!-- \\TableListHelper&#45;&gt;\\AppHelper -->
<g id="edge73" class="edge"><title>\\TableListHelper&#45;&gt;\\AppHelper</title>
<path fill="none" stroke="black" d="M1060.93,-1629.77C999.901,-1640.07 905.749,-1655.96 848.794,-1665.57"/>
<polygon fill="none" stroke="black" points="847.887,-1662.18 838.609,-1667.29 849.052,-1669.08 847.887,-1662.18"/>
</g>
<!-- \\NetCommonsTimeHelper -->
<g id="node44" class="node"><title>\\NetCommonsTimeHelper</title>
<polygon fill="none" stroke="black" points="1196,-1583.81 1044,-1583.81 1044,-1547.81 1196,-1547.81 1196,-1583.81"/>
<text text-anchor="middle" x="1120" y="-1562.91" font-family="Courier,monospace" font-size="11.00">NetCommonsTimeHelper</text>
</g>
<!-- \\NetCommonsTimeHelper&#45;&gt;\\AppHelper -->
<g id="edge75" class="edge"><title>\\NetCommonsTimeHelper&#45;&gt;\\AppHelper</title>
<path fill="none" stroke="black" d="M1043.73,-1579.01C1025.93,-1582.82 1007.16,-1587.43 990,-1592.81 939.217,-1608.73 883.453,-1633.42 845.554,-1651.35"/>
<polygon fill="none" stroke="black" points="843.837,-1648.29 836.317,-1655.76 846.85,-1654.61 843.837,-1648.29"/>
</g>
<!-- \\NetCommonsFormHelper -->
<g id="node45" class="node"><title>\\NetCommonsFormHelper</title>
<polygon fill="none" stroke="black" points="1196,-1529.81 1044,-1529.81 1044,-1493.81 1196,-1493.81 1196,-1529.81"/>
<text text-anchor="middle" x="1120" y="-1508.91" font-family="Courier,monospace" font-size="11.00">NetCommonsFormHelper</text>
</g>
<!-- \\NetCommonsFormHelper&#45;&gt;\\AppHelper -->
<g id="edge77" class="edge"><title>\\NetCommonsFormHelper&#45;&gt;\\AppHelper</title>
<path fill="none" stroke="black" d="M1043.78,-1522.16C1025.7,-1526.1 1006.8,-1531.48 990,-1538.81 926.132,-1566.66 862.22,-1618.12 827.22,-1648.83"/>
<polygon fill="none" stroke="black" points="824.531,-1646.54 819.375,-1655.79 829.177,-1651.77 824.531,-1646.54"/>
</g>
<!-- \\TitleIconHelper -->
<g id="node46" class="node"><title>\\TitleIconHelper</title>
<polygon fill="none" stroke="black" points="1179,-1475.81 1061,-1475.81 1061,-1439.81 1179,-1439.81 1179,-1475.81"/>
<text text-anchor="middle" x="1120" y="-1454.91" font-family="Courier,monospace" font-size="11.00">TitleIconHelper</text>
</g>
<!-- \\TitleIconHelper&#45;&gt;\\AppHelper -->
<g id="edge79" class="edge"><title>\\TitleIconHelper&#45;&gt;\\AppHelper</title>
<path fill="none" stroke="black" d="M1060.89,-1462.77C1037.75,-1466.54 1011.62,-1473.17 990,-1484.81 914.459,-1525.47 849.17,-1605.6 818.553,-1647.25"/>
<polygon fill="none" stroke="black" points="815.589,-1645.38 812.555,-1655.53 821.257,-1649.49 815.589,-1645.38"/>
</g>
<!-- \\DatetimePickerHelper -->
<g id="node47" class="node"><title>\\DatetimePickerHelper</title>
<polygon fill="none" stroke="black" points="1196,-1421.81 1044,-1421.81 1044,-1385.81 1196,-1385.81 1196,-1421.81"/>
<text text-anchor="middle" x="1120" y="-1400.91" font-family="Courier,monospace" font-size="11.00">DatetimePickerHelper</text>
</g>
<!-- \\DatetimePickerHelper&#45;&gt;\\AppHelper -->
<g id="edge81" class="edge"><title>\\DatetimePickerHelper&#45;&gt;\\AppHelper</title>
<path fill="none" stroke="black" d="M1043.72,-1410.44C1025.16,-1414.47 1006.05,-1420.83 990,-1430.81 902.399,-1485.24 839.071,-1595.3 813.073,-1646.48"/>
<polygon fill="none" stroke="black" points="809.85,-1645.1 808.515,-1655.61 816.113,-1648.23 809.85,-1645.1"/>
</g>
<!-- \\Model -->
<g id="node112" class="node"><title>\\Model</title>
<ellipse fill="none" stroke="black" cx="44" cy="-2834.81" rx="43.8406" ry="18.3848"/>
<text text-anchor="middle" x="44" y="-2831.21" font-family="Times Roman,serif" font-size="14.00" fill="gray">\Model</text>
</g>
<!-- \\NetCommonsAppModel&#45;&gt;\\Model -->
<g id="edge83" class="edge"><title>\\NetCommonsAppModel&#45;&gt;\\Model</title>
<path fill="none" stroke="black" d="M172.749,-2834.81C148.379,-2834.81 121.357,-2834.81 98.3871,-2834.81"/>
<polygon fill="none" stroke="black" points="98.1425,-2831.31 88.1425,-2834.81 98.1424,-2838.31 98.1425,-2831.31"/>
</g>
<!-- \\OriginalKeyBehavior -->
<g id="node49" class="node"><title>\\OriginalKeyBehavior</title>
<polygon fill="none" stroke="black" points="1192,-665.806 1048,-665.806 1048,-629.806 1192,-629.806 1192,-665.806"/>
<text text-anchor="middle" x="1120" y="-644.906" font-family="Courier,monospace" font-size="11.00">OriginalKeyBehavior</text>
</g>
<!-- \\ModelBehavior -->
<g id="node114" class="node"><title>\\ModelBehavior</title>
<ellipse fill="none" stroke="black" cx="800" cy="-163.806" rx="86.9741" ry="18.3848"/>
<text text-anchor="middle" x="800" y="-160.206" font-family="Times Roman,serif" font-size="14.00" fill="gray">\ModelBehavior</text>
</g>
<!-- \\OriginalKeyBehavior&#45;&gt;\\ModelBehavior -->
<g id="edge85" class="edge"><title>\\OriginalKeyBehavior&#45;&gt;\\ModelBehavior</title>
<path fill="none" stroke="black" d="M1047.42,-647.757C1026.31,-644.128 1004.94,-636.34 990,-620.806 855.672,-481.151 1050.91,-331.808 918,-190.806 910.736,-183.1 901.758,-177.381 892.025,-173.166"/>
<polygon fill="none" stroke="black" points="893.083,-169.825 882.491,-169.57 890.613,-176.374 893.083,-169.825"/>
</g>
<!-- \\TrackableBehavior -->
<g id="node50" class="node"><title>\\TrackableBehavior</title>
<polygon fill="none" stroke="black" points="1185,-611.806 1055,-611.806 1055,-575.806 1185,-575.806 1185,-611.806"/>
<text text-anchor="middle" x="1120" y="-590.906" font-family="Courier,monospace" font-size="11.00">TrackableBehavior</text>
</g>
<!-- \\TrackableBehavior&#45;&gt;\\ModelBehavior -->
<g id="edge87" class="edge"><title>\\TrackableBehavior&#45;&gt;\\ModelBehavior</title>
<path fill="none" stroke="black" d="M1054.38,-594.576C1031.19,-591.474 1006.74,-583.807 990,-566.806 870.629,-445.56 1036.14,-313.249 918,-190.806 910.646,-183.185 901.615,-177.518 891.852,-173.331"/>
<polygon fill="none" stroke="black" points="892.89,-169.982 882.298,-169.755 890.436,-176.538 892.89,-169.982"/>
</g>
<!-- \\YAExceptionRenderer -->
<g id="node51" class="node"><title>\\YAExceptionRenderer</title>
<polygon fill="none" stroke="black" points="1192,-557.806 1048,-557.806 1048,-521.806 1192,-521.806 1192,-557.806"/>
<text text-anchor="middle" x="1120" y="-536.906" font-family="Courier,monospace" font-size="11.00">YAExceptionRenderer</text>
</g>
<!-- \\ExceptionRenderer -->
<g id="node117" class="node"><title>\\ExceptionRenderer</title>
<ellipse fill="none" stroke="black" cx="800" cy="-109.806" rx="118.087" ry="18.3848"/>
<text text-anchor="middle" x="800" y="-106.206" font-family="Times Roman,serif" font-size="14.00" fill="gray">TEHxceptionRenderer</text>
</g>
<!-- \\YAExceptionRenderer&#45;&gt;\\ExceptionRenderer -->
<g id="edge89" class="edge"><title>\\YAExceptionRenderer&#45;&gt;\\ExceptionRenderer</title>
<path fill="none" stroke="black" d="M1047.3,-539.486C1026.31,-535.823 1005.04,-528.082 990,-512.806 870.629,-391.56 1036.14,-259.249 918,-136.806 913.747,-132.398 908.932,-128.643 903.739,-125.451"/>
<polygon fill="none" stroke="black" points="905.142,-122.232 894.675,-120.593 901.836,-128.402 905.142,-122.232"/>
</g>
<!-- \\NetCommonsMigration -->
<g id="node52" class="node"><title>\\NetCommonsMigration</title>
<polygon fill="none" stroke="black" points="872,-828.806 728,-828.806 728,-792.806 872,-792.806 872,-828.806"/>
<text text-anchor="middle" x="800" y="-807.906" font-family="Courier,monospace" font-size="11.00">NetCommonsMigration</text>
</g>
<!-- \\CakeMigration -->
<g id="node119" class="node"><title>\\CakeMigration</title>
<ellipse fill="none" stroke="black" cx="503" cy="-121.806" rx="84.8528" ry="18.3848"/>
<text text-anchor="middle" x="503" y="-118.206" font-family="Times Roman,serif" font-size="14.00" fill="gray">\CakeMigration</text>
</g>
<!-- \\NetCommonsMigration&#45;&gt;\\CakeMigration -->
<g id="edge91" class="edge"><title>\\NetCommonsMigration&#45;&gt;\\CakeMigration</title>
<path fill="none" stroke="black" d="M727.215,-811.333C710.337,-807.956 693.865,-801.248 682,-788.806 520.075,-618.998 698.756,-483.008 610,-265.806 590.913,-219.096 553.132,-173.836 527.961,-146.897"/>
<polygon fill="none" stroke="black" points="530.331,-144.31 520.906,-139.471 525.257,-149.132 530.331,-144.31"/>
</g>
<!-- \\AccessCountersAppController -->
<g id="node53" class="node"><title>\\AccessCountersAppController</title>
<polygon fill="none" stroke="black" points="899,-2474.81 701,-2474.81 701,-2438.81 899,-2438.81 899,-2474.81"/>
<text text-anchor="middle" x="800" y="-2453.91" font-family="Courier,monospace" font-size="11.00">AccessCountersAppController</text>
</g>
<!-- \\AccessCountersAppController&#45;&gt;\\AppController -->
<g id="edge93" class="edge"><title>\\AccessCountersAppController&#45;&gt;\\AppController</title>
<path fill="none" stroke="black" d="M732.168,-2438.69C713.384,-2430.58 694.691,-2419.05 682,-2402.81 563.734,-2251.41 514.436,-1614.8 504.809,-1472.92"/>
<polygon fill="none" stroke="black" points="508.295,-1472.6 504.136,-1462.85 501.311,-1473.06 508.295,-1472.6"/>
</g>
<!-- \\AccessCountersController -->
<g id="node54" class="node"><title>\\AccessCountersController</title>
<polygon fill="none" stroke="black" points="1209,-2447.81 1031,-2447.81 1031,-2411.81 1209,-2411.81 1209,-2447.81"/>
<text text-anchor="middle" x="1120" y="-2426.91" font-family="Courier,monospace" font-size="11.00">AccessCountersController</text>
</g>
<!-- \\AccessCountersController&#45;&gt;\\AccessCountersAppController -->
<g id="edge95" class="edge"><title>\\AccessCountersController&#45;&gt;\\AccessCountersAppController</title>
<path fill="none" stroke="black" d="M1030.44,-2437.36C993.017,-2440.52 949.175,-2444.22 909.834,-2447.54"/>
<polygon fill="none" stroke="black" points="909.341,-2444.07 899.67,-2448.4 909.929,-2451.04 909.341,-2444.07"/>
</g>
<!-- \\AccessCounterBlocksController -->
<g id="node55" class="node"><title>\\AccessCounterBlocksController</title>
<polygon fill="none" stroke="black" points="1226,-2555.81 1014,-2555.81 1014,-2519.81 1226,-2519.81 1226,-2555.81"/>
<text text-anchor="middle" x="1120" y="-2534.91" font-family="Courier,monospace" font-size="11.00">AccessCounterBlocksController</text>
</g>
<!-- \\AccessCounterBlocksController&#45;&gt;\\AccessCountersAppController -->
<g id="edge97" class="edge"><title>\\AccessCounterBlocksController&#45;&gt;\\AccessCountersAppController</title>
<path fill="none" stroke="black" d="M1028.89,-2519.75C1015.81,-2516.91 1002.54,-2513.89 990,-2510.81 949.666,-2500.9 904.97,-2488.28 869.066,-2477.73"/>
<polygon fill="none" stroke="black" points="869.766,-2474.29 859.184,-2474.82 867.784,-2481 869.766,-2474.29"/>
</g>
<!-- \\AccessCounterFrameSettingsController -->
<g id="node56" class="node"><title>\\AccessCounterFrameSettingsController</title>
<polygon fill="none" stroke="black" points="1250,-2501.81 990,-2501.81 990,-2465.81 1250,-2465.81 1250,-2501.81"/>
<text text-anchor="middle" x="1120" y="-2480.91" font-family="Courier,monospace" font-size="11.00">AccessCounterFrameSettingsController</text>
</g>
<!-- \\AccessCounterFrameSettingsController&#45;&gt;\\AccessCountersAppController -->
<g id="edge99" class="edge"><title>\\AccessCounterFrameSettingsController&#45;&gt;\\AccessCountersAppController</title>
<path fill="none" stroke="black" d="M989.844,-2472.82C963.264,-2470.58 935.545,-2468.24 909.763,-2466.07"/>
<polygon fill="none" stroke="black" points="909.864,-2462.56 899.605,-2465.21 909.276,-2469.54 909.864,-2462.56"/>
</g>
<!-- \\AccessCounterFrameSetting -->
<g id="node57" class="node"><title>\\AccessCounterFrameSetting</title>
<polygon fill="none" stroke="black" points="1212,-2879.81 1028,-2879.81 1028,-2843.81 1212,-2843.81 1212,-2879.81"/>
<text text-anchor="middle" x="1120" y="-2858.91" font-family="Courier,monospace" font-size="11.00">AccessCounterFrameSetting</text>
</g>
<!-- \\AccessCountersAppModel -->
<g id="node58" class="node"><title>\\AccessCountersAppModel</title>
<polygon fill="none" stroke="black" points="882,-2879.81 718,-2879.81 718,-2843.81 882,-2843.81 882,-2879.81"/>
<text text-anchor="middle" x="800" y="-2858.91" font-family="Courier,monospace" font-size="11.00">AccessCountersAppModel</text>
</g>
<!-- \\AccessCounterFrameSetting&#45;&gt;\\AccessCountersAppModel -->
<g id="edge101" class="edge"><title>\\AccessCounterFrameSetting&#45;&gt;\\AccessCountersAppModel</title>
<path fill="none" stroke="black" d="M1027.44,-2861.81C985.063,-2861.81 934.956,-2861.81 892.574,-2861.81"/>
<polygon fill="none" stroke="black" points="892.538,-2858.31 882.538,-2861.81 892.538,-2865.31 892.538,-2858.31"/>
</g>
<!-- \\AccessCountersAppModel&#45;&gt;\\AppModel -->
<g id="edge103" class="edge"><title>\\AccessCountersAppModel&#45;&gt;\\AppModel</title>
<path fill="none" stroke="black" d="M717.269,-2854.29C662.81,-2849.33 593.563,-2843.04 548.769,-2838.97"/>
<polygon fill="none" stroke="black" points="549.041,-2835.48 538.765,-2838.06 548.407,-2842.45 549.041,-2835.48"/>
</g>
<!-- \\AccessCounter -->
<g id="node59" class="node"><title>\\AccessCounter</title>
<polygon fill="none" stroke="black" points="1172,-2825.81 1068,-2825.81 1068,-2789.81 1172,-2789.81 1172,-2825.81"/>
<text text-anchor="middle" x="1120" y="-2804.91" font-family="Courier,monospace" font-size="11.00">AccessCounter</text>
</g>
<!-- \\AccessCounter&#45;&gt;\\AccessCountersAppModel -->
<g id="edge105" class="edge"><title>\\AccessCounter&#45;&gt;\\AccessCountersAppModel</title>
<path fill="none" stroke="black" d="M1067.87,-2816.6C1020.59,-2824.58 949.788,-2836.53 892.846,-2846.14"/>
<polygon fill="none" stroke="black" points="892.026,-2842.73 882.748,-2847.84 893.191,-2849.63 892.026,-2842.73"/>
</g>
<!-- \\AccessCountersSchema -->
<g id="node60" class="node"><title>\\AccessCountersSchema</title>
<polygon fill="none" stroke="black" points="1196,-503.806 1044,-503.806 1044,-467.806 1196,-467.806 1196,-503.806"/>
<text text-anchor="middle" x="1120" y="-482.906" font-family="Courier,monospace" font-size="11.00">AccessCountersSchema</text>
</g>
<!-- \\CakeSchema -->
<g id="node128" class="node"><title>\\CakeSchema</title>
<ellipse fill="none" stroke="black" cx="800" cy="-55.8061" rx="77.0746" ry="18.3848"/>
<text text-anchor="middle" x="800" y="-52.2061" font-family="Times Roman,serif" font-size="14.00" fill="gray">\CakeSchema</text>
</g>
<!-- \\AccessCountersSchema&#45;&gt;\\CakeSchema -->
<g id="edge107" class="edge"><title>\\AccessCountersSchema&#45;&gt;\\CakeSchema</title>
<path fill="none" stroke="black" d="M1043.91,-484.86C1024.04,-480.969 1004.23,-473.261 990,-458.806 870.629,-337.56 1036.14,-205.249 918,-82.8061 908.93,-73.4059 897.308,-66.9788 884.908,-62.6351"/>
<polygon fill="none" stroke="black" points="885.89,-59.2754 875.304,-59.7048 883.847,-65.9707 885.89,-59.2754"/>
</g>
<!-- \\Init -->
<g id="node61" class="node"><title>\\Init</title>
<polygon fill="none" stroke="black" points="1147,-449.806 1093,-449.806 1093,-413.806 1147,-413.806 1147,-449.806"/>
<text text-anchor="middle" x="1120" y="-428.906" font-family="Courier,monospace" font-size="11.00">Init</text>
</g>
<!-- \\Init&#45;&gt;\\CakeMigration -->
<g id="edge109" class="edge"><title>\\Init&#45;&gt;\\CakeMigration</title>
<path fill="none" stroke="black" d="M1117.57,-413.728C1107.58,-347.652 1063.18,-118.43 918,-28.8061 792.725,48.5321 610.835,-51.0243 536.523,-98.8324"/>
<polygon fill="none" stroke="black" points="534.467,-95.9948 528.005,-104.391 538.292,-101.857 534.467,-95.9948"/>
</g>
<!-- \\PluginRecords -->
<g id="node62" class="node"><title>\\PluginRecords</title>
<polygon fill="none" stroke="black" points="1172,-1205.81 1068,-1205.81 1068,-1169.81 1172,-1169.81 1172,-1205.81"/>
<text text-anchor="middle" x="1120" y="-1184.91" font-family="Courier,monospace" font-size="11.00">PluginRecords</text>
</g>
<!-- \\PluginRecords&#45;&gt;\\NetCommonsMigration -->
<g id="edge111" class="edge"><title>\\PluginRecords&#45;&gt;\\NetCommonsMigration</title>
<path fill="none" stroke="black" d="M1067.71,-1187.01C1042.15,-1184.27 1012.2,-1177.31 990,-1160.81 877.275,-1077.03 823.813,-905.837 806.54,-838.703"/>
<polygon fill="none" stroke="black" points="809.898,-837.702 804.075,-828.851 803.107,-839.401 809.898,-837.702"/>
</g>
</g>
</svg>
