<?xml version="1.0" encoding="UTF-8" standalone="no"?>
<!DOCTYPE svg PUBLIC "-//W3C//DTD SVG 1.1//EN"
 "http://www.w3.org/Graphics/SVG/1.1/DTD/svg11.dtd">
<!-- Generated by graphviz version 2.26.3 (20100126.1600)
 -->
<!-- Title: G Pages: 1 -->
<svg width="1290pt" height="2769pt"
 viewBox="0.00 0.00 1290.00 2768.64" xmlns="http://www.w3.org/2000/svg" xmlns:xlink="http://www.w3.org/1999/xlink">
<g id="graph1" class="graph" transform="scale(1 1) rotate(0) translate(4 2764.64)">
<title>G</title>
<polygon fill="white" stroke="white" points="-4,5 -4,-2764.64 1287,-2764.64 1287,5 -4,5"/>
<g id="graph2" class="cluster"><title>cluster_Global</title>
<polyline fill="none" stroke="gray" points="202,-410.64 1262,-410.64 "/>
<path fill="none" stroke="gray" d="M1262,-410.64C1268,-410.64 1274,-416.64 1274,-422.64"/>
<polyline fill="none" stroke="gray" points="1274,-422.64 1274,-2740.64 "/>
<path fill="none" stroke="gray" d="M1274,-2740.64C1274,-2746.64 1268,-2752.64 1262,-2752.64"/>
<polyline fill="none" stroke="gray" points="1262,-2752.64 202,-2752.64 "/>
<path fill="none" stroke="gray" d="M202,-2752.64C196,-2752.64 190,-2746.64 190,-2740.64"/>
<polyline fill="none" stroke="gray" points="190,-2740.64 190,-422.64 "/>
<path fill="none" stroke="gray" d="M190,-422.64C190,-416.64 196,-410.64 202,-410.64"/>
<text text-anchor="middle" x="732" y="-2738.74" font-family="Times Roman,serif" font-size="11.00" fill="gray">Global</text>
</g>
<!-- \\AppController -->
<g id="node2" class="node"><title>\\AppController</title>
<polygon fill="none" stroke="black" points="615,-1447.64 511,-1447.64 511,-1411.64 615,-1411.64 615,-1447.64"/>
<text text-anchor="middle" x="563" y="-1426.74" font-family="Courier,monospace" font-size="11.00">AppController</text>
</g>
<!-- \\Controller -->
<g id="node62" class="node"><title>\\Controller</title>
<ellipse fill="none" stroke="black" cx="267" cy="-276.64" rx="63.1385" ry="18.3848"/>
<text text-anchor="middle" x="267" y="-273.04" font-family="Times Roman,serif" font-size="14.00" fill="gray">\Controller</text>
</g>
<!-- \\AppController&#45;&gt;\\Controller -->
<g id="edge3" class="edge"><title>\\AppController&#45;&gt;\\Controller</title>
<path fill="none" stroke="black" d="M510.862,-1433.22C487.633,-1431.84 461.968,-1425.66 446,-1407.64 282.96,-1223.62 531.323,-492.568 374,-303.64 365.171,-293.037 352.841,-286.262 339.679,-282.002"/>
<polygon fill="none" stroke="black" points="340.556,-278.613 329.986,-279.325 338.693,-285.361 340.556,-278.613"/>
</g>
<!-- \\AppModel -->
<g id="node3" class="node"><title>\\AppModel</title>
<polygon fill="none" stroke="black" points="598,-2695.64 528,-2695.64 528,-2659.64 598,-2659.64 598,-2695.64"/>
<text text-anchor="middle" x="563" y="-2674.74" font-family="Courier,monospace" font-size="11.00">AppModel</text>
</g>
<!-- \\NetCommonsAppModel -->
<g id="node48" class="node"><title>\\NetCommonsAppModel</title>
<polygon fill="none" stroke="black" points="336,-2695.64 198,-2695.64 198,-2659.64 336,-2659.64 336,-2695.64"/>
<text text-anchor="middle" x="267" y="-2674.74" font-family="Courier,monospace" font-size="11.00">NetCommonsAppModel</text>
</g>
<!-- \\AppModel&#45;&gt;\\NetCommonsAppModel -->
<g id="edge5" class="edge"><title>\\AppModel&#45;&gt;\\NetCommonsAppModel</title>
<path fill="none" stroke="black" d="M527.295,-2677.64C482.672,-2677.64 405.006,-2677.64 346.094,-2677.64"/>
<polygon fill="none" stroke="black" points="346.068,-2674.14 336.068,-2677.64 346.068,-2681.14 346.068,-2674.14"/>
</g>
<!-- \\DatabaseConfiguration -->
<g id="node4" class="node"><title>\\DatabaseConfiguration</title>
<polygon fill="none" stroke="black" points="949,-2668.64 791,-2668.64 791,-2632.64 949,-2632.64 949,-2668.64"/>
<text text-anchor="middle" x="870" y="-2647.74" font-family="Courier,monospace" font-size="11.00">DatabaseConfiguration</text>
</g>
<!-- \\DatabaseConfiguration&#45;&gt;\\AppModel -->
<g id="edge7" class="edge"><title>\\DatabaseConfiguration&#45;&gt;\\AppModel</title>
<path fill="none" stroke="black" d="M790.94,-2657.59C733.175,-2662.67 656.853,-2669.39 608.838,-2673.61"/>
<polygon fill="none" stroke="black" points="608.4,-2670.13 598.745,-2674.5 609.013,-2677.11 608.4,-2670.13"/>
</g>
<!-- \\AppHelper -->
<g id="node5" class="node"><title>\\AppHelper</title>
<polygon fill="none" stroke="black" points="908,-1642.64 832,-1642.64 832,-1606.64 908,-1606.64 908,-1642.64"/>
<text text-anchor="middle" x="870" y="-1621.74" font-family="Courier,monospace" font-size="11.00">AppHelper</text>
</g>
<!-- \\Helper -->
<g id="node66" class="node"><title>\\Helper</title>
<ellipse fill="none" stroke="black" cx="563" cy="-384.64" rx="43.8406" ry="18.3848"/>
<text text-anchor="middle" x="563" y="-381.04" font-family="Times Roman,serif" font-size="14.00" fill="gray">Helper</text>
</g>
<!-- \\AppHelper&#45;&gt;\\Helper -->
<g id="edge9" class="edge"><title>\\AppHelper&#45;&gt;\\Helper</title>
<path fill="none" stroke="black" d="M862.119,-1606.43C840.33,-1555.18 779.101,-1404.91 752,-1273.64 712.913,-1084.3 809.486,-550.201 680,-406.64 664.214,-389.138 639.276,-382.863 616.472,-381.286"/>
<polygon fill="none" stroke="black" points="616.319,-377.777 606.185,-380.868 616.035,-384.771 616.319,-377.777"/>
</g>
<!-- \\NetCommonsDeleteTest -->
<g id="node6" class="node"><title>\\NetCommonsDeleteTest</title>
<polygon fill="none" stroke="black" points="1239,-2560.64 1087,-2560.64 1087,-2524.64 1239,-2524.64 1239,-2560.64"/>
<text text-anchor="middle" x="1163" y="-2539.74" font-family="Courier,monospace" font-size="11.00">NetCommonsDeleteTest</text>
</g>
<!-- \\NetCommonsModelTestCase -->
<g id="node15" class="node"><title>\\NetCommonsModelTestCase</title>
<polygon fill="none" stroke="black" points="956,-2466.64 784,-2466.64 784,-2430.64 956,-2430.64 956,-2466.64"/>
<text text-anchor="middle" x="870" y="-2445.74" font-family="Courier,monospace" font-size="11.00">NetCommonsModelTestCase</text>
</g>
<!-- \\NetCommonsDeleteTest&#45;&gt;\\NetCommonsModelTestCase -->
<g id="edge11" class="edge"><title>\\NetCommonsDeleteTest&#45;&gt;\\NetCommonsModelTestCase</title>
<path fill="none" stroke="black" d="M1086.92,-2525.02C1077.73,-2522.21 1068.58,-2519.08 1060,-2515.64 1026.03,-2502 1022.18,-2488.74 988,-2475.64 980.894,-2472.92 973.438,-2470.42 965.872,-2468.15"/>
<polygon fill="none" stroke="black" points="966.826,-2464.78 956.248,-2465.39 964.894,-2471.51 966.826,-2464.78"/>
</g>
<!-- \\NetCommonsConsoleTestCase -->
<g id="node7" class="node"><title>\\NetCommonsConsoleTestCase</title>
<polygon fill="none" stroke="black" points="962,-2351.64 778,-2351.64 778,-2315.64 962,-2315.64 962,-2351.64"/>
<text text-anchor="middle" x="870" y="-2330.74" font-family="Courier,monospace" font-size="11.00">NetCommonsConsoleTestCase</text>
</g>
<!-- \\NetCommonsCakeTestCase -->
<g id="node13" class="node"><title>\\NetCommonsCakeTestCase</title>
<polygon fill="none" stroke="black" points="645,-2418.64 481,-2418.64 481,-2382.64 645,-2382.64 645,-2418.64"/>
<text text-anchor="middle" x="563" y="-2397.74" font-family="Courier,monospace" font-size="11.00">NetCommonsCakeTestCase</text>
</g>
<!-- \\NetCommonsConsoleTestCase&#45;&gt;\\NetCommonsCakeTestCase -->
<g id="edge13" class="edge"><title>\\NetCommonsConsoleTestCase&#45;&gt;\\NetCommonsCakeTestCase</title>
<path fill="none" stroke="black" d="M787.326,-2351.68C746.633,-2360.56 697.435,-2371.3 655.494,-2380.45"/>
<polygon fill="none" stroke="black" points="654.579,-2377.07 645.555,-2382.62 656.072,-2383.91 654.579,-2377.07"/>
</g>
<!-- \\NetCommonsGetTest -->
<g id="node8" class="node"><title>\\NetCommonsGetTest</title>
<polygon fill="none" stroke="black" points="1228,-2506.64 1098,-2506.64 1098,-2470.64 1228,-2470.64 1228,-2506.64"/>
<text text-anchor="middle" x="1163" y="-2485.74" font-family="Courier,monospace" font-size="11.00">NetCommonsGetTest</text>
</g>
<!-- \\NetCommonsGetTest&#45;&gt;\\NetCommonsModelTestCase -->
<g id="edge15" class="edge"><title>\\NetCommonsGetTest&#45;&gt;\\NetCommonsModelTestCase</title>
<path fill="none" stroke="black" d="M1097.25,-2479.66C1058.58,-2474.38 1009.01,-2467.62 966.034,-2461.75"/>
<polygon fill="none" stroke="black" points="966.501,-2458.28 956.12,-2460.4 965.554,-2465.22 966.501,-2458.28"/>
</g>
<!-- \\NetCommonsHelperTestCase -->
<g id="node9" class="node"><title>\\NetCommonsHelperTestCase</title>
<polygon fill="none" stroke="black" points="959,-2520.64 781,-2520.64 781,-2484.64 959,-2484.64 959,-2520.64"/>
<text text-anchor="middle" x="870" y="-2499.74" font-family="Courier,monospace" font-size="11.00">NetCommonsHelperTestCase</text>
</g>
<!-- \\NetCommonsHelperTestCase&#45;&gt;\\NetCommonsCakeTestCase -->
<g id="edge17" class="edge"><title>\\NetCommonsHelperTestCase&#45;&gt;\\NetCommonsCakeTestCase</title>
<path fill="none" stroke="black" d="M784.191,-2484.63C773.288,-2481.86 762.335,-2478.85 752,-2475.64 703.675,-2460.62 650.208,-2438.9 612.51,-2422.7"/>
<polygon fill="none" stroke="black" points="613.846,-2419.47 603.278,-2418.71 611.066,-2425.89 613.846,-2419.47"/>
</g>
<!-- \\NetCommonsControllerBaseTestCase -->
<g id="node10" class="node"><title>\\NetCommonsControllerBaseTestCase</title>
<polygon fill="none" stroke="black" points="679,-2533.64 447,-2533.64 447,-2497.64 679,-2497.64 679,-2533.64"/>
<text text-anchor="middle" x="563" y="-2512.74" font-family="Courier,monospace" font-size="11.00">NetCommonsControllerBaseTestCase</text>
</g>
<!-- \\ControllerTestCase -->
<g id="node72" class="node"><title>\\ControllerTestCase</title>
<ellipse fill="none" stroke="black" cx="267" cy="-384.64" rx="106.773" ry="18.3848"/>
<text text-anchor="middle" x="267" y="-381.04" font-family="Times Roman,serif" font-size="14.00" fill="gray">\ControllerTestCase</text>
</g>
<!-- \\NetCommonsControllerBaseTestCase&#45;&gt;\\ControllerTestCase -->
<g id="edge19" class="edge"><title>\\NetCommonsControllerBaseTestCase&#45;&gt;\\ControllerTestCase</title>
<path fill="none" stroke="black" d="M523.415,-2497.56C496.383,-2482.88 462.573,-2459.41 446,-2427.64 342.086,-2228.41 519.066,-578.236 374,-406.64 371.991,-404.264 369.8,-402.102 367.459,-400.136"/>
<polygon fill="none" stroke="black" points="369.164,-397.057 358.966,-394.185 365.147,-402.79 369.164,-397.057"/>
</g>
<!-- \\NetCommonsValidateTest -->
<g id="node11" class="node"><title>\\NetCommonsValidateTest</title>
<polygon fill="none" stroke="black" points="1245,-2452.64 1081,-2452.64 1081,-2416.64 1245,-2416.64 1245,-2452.64"/>
<text text-anchor="middle" x="1163" y="-2431.74" font-family="Courier,monospace" font-size="11.00">NetCommonsValidateTest</text>
</g>
<!-- \\NetCommonsValidateTest&#45;&gt;\\NetCommonsModelTestCase -->
<g id="edge21" class="edge"><title>\\NetCommonsValidateTest&#45;&gt;\\NetCommonsModelTestCase</title>
<path fill="none" stroke="black" d="M1080.21,-2438.6C1044.79,-2440.29 1003.2,-2442.28 966.397,-2444.03"/>
<polygon fill="none" stroke="black" points="965.976,-2440.55 956.154,-2444.52 966.31,-2447.54 965.976,-2440.55"/>
</g>
<!-- \\NetCommonsTestSuite -->
<g id="node12" class="node"><title>\\NetCommonsTestSuite</title>
<polygon fill="none" stroke="black" points="1235,-1156.64 1091,-1156.64 1091,-1120.64 1235,-1120.64 1235,-1156.64"/>
<text text-anchor="middle" x="1163" y="-1135.74" font-family="Courier,monospace" font-size="11.00">NetCommonsTestSuite</text>
</g>
<!-- \\CakeTestSuite -->
<g id="node75" class="node"><title>\\CakeTestSuite</title>
<ellipse fill="none" stroke="black" cx="870" cy="-384.64" rx="84.1457" ry="18.3848"/>
<text text-anchor="middle" x="870" y="-381.04" font-family="Times Roman,serif" font-size="14.00" fill="gray">\CakeTestSuite</text>
</g>
<!-- \\NetCommonsTestSuite&#45;&gt;\\CakeTestSuite -->
<g id="edge23" class="edge"><title>\\NetCommonsTestSuite&#45;&gt;\\CakeTestSuite</title>
<path fill="none" stroke="black" d="M1090.38,-1131.51C1078.79,-1127.29 1068,-1120.98 1060,-1111.64 957.575,-992.017 1094.67,-522.496 988,-406.64 981.119,-399.166 972.58,-393.741 963.263,-389.855"/>
<polygon fill="none" stroke="black" points="964.315,-386.514 953.72,-386.464 961.97,-393.11 964.315,-386.514"/>
</g>
<!-- \\CakeTestCase -->
<g id="node77" class="node"><title>\\CakeTestCase</title>
<ellipse fill="none" stroke="black" cx="267" cy="-330.64" rx="82.0244" ry="18.3848"/>
<text text-anchor="middle" x="267" y="-327.04" font-family="Times Roman,serif" font-size="14.00" fill="gray">\CakeTestCase</text>
</g>
<!-- \\NetCommonsCakeTestCase&#45;&gt;\\CakeTestCase -->
<g id="edge25" class="edge"><title>\\NetCommonsCakeTestCase&#45;&gt;\\CakeTestCase</title>
<path fill="none" stroke="black" d="M560.335,-2382.37C546.424,-2286.43 481.44,-1831.08 446,-1456.64 434.469,-1334.81 452.321,-451.666 374,-357.64 368.209,-350.688 360.913,-345.382 352.865,-341.351"/>
<polygon fill="none" stroke="black" points="354.068,-338.058 343.499,-337.323 351.302,-344.489 354.068,-338.058"/>
</g>
<!-- \\NetCommonsSaveTest -->
<g id="node14" class="node"><title>\\NetCommonsSaveTest</title>
<polygon fill="none" stroke="black" points="1232,-2614.64 1094,-2614.64 1094,-2578.64 1232,-2578.64 1232,-2614.64"/>
<text text-anchor="middle" x="1163" y="-2593.74" font-family="Courier,monospace" font-size="11.00">NetCommonsSaveTest</text>
</g>
<!-- \\NetCommonsSaveTest&#45;&gt;\\NetCommonsModelTestCase -->
<g id="edge27" class="edge"><title>\\NetCommonsSaveTest&#45;&gt;\\NetCommonsModelTestCase</title>
<path fill="none" stroke="black" d="M1093.8,-2585.26C1081.93,-2581.46 1070.16,-2576.39 1060,-2569.64 1016.18,-2540.5 1032.28,-2504.08 988,-2475.64 981.01,-2471.15 973.366,-2467.4 965.435,-2464.27"/>
<polygon fill="none" stroke="black" points="966.61,-2460.98 956.016,-2460.88 964.238,-2467.56 966.61,-2460.98"/>
</g>
<!-- \\NetCommonsModelTestCase&#45;&gt;\\NetCommonsCakeTestCase -->
<g id="edge29" class="edge"><title>\\NetCommonsModelTestCase&#45;&gt;\\NetCommonsCakeTestCase</title>
<path fill="none" stroke="black" d="M783.666,-2435.14C743.689,-2428.89 696.141,-2421.46 655.437,-2415.09"/>
<polygon fill="none" stroke="black" points="655.937,-2411.63 645.516,-2413.54 654.856,-2418.54 655.937,-2411.63"/>
</g>
<!-- \\NetCommonsControllerTestCase -->
<g id="node16" class="node"><title>\\NetCommonsControllerTestCase</title>
<polygon fill="none" stroke="black" points="973,-2601.64 767,-2601.64 767,-2565.64 973,-2565.64 973,-2601.64"/>
<text text-anchor="middle" x="870" y="-2580.74" font-family="Courier,monospace" font-size="11.00">NetCommonsControllerTestCase</text>
</g>
<!-- \\NetCommonsControllerTestCase&#45;&gt;\\NetCommonsControllerBaseTestCase -->
<g id="edge31" class="edge"><title>\\NetCommonsControllerTestCase&#45;&gt;\\NetCommonsControllerBaseTestCase</title>
<path fill="none" stroke="black" d="M788.536,-2565.6C747.171,-2556.43 696.78,-2545.27 654.13,-2535.82"/>
<polygon fill="none" stroke="black" points="654.832,-2532.4 644.312,-2533.65 653.318,-2539.23 654.832,-2532.4"/>
</g>
<!-- \\NetCommonsAppController -->
<g id="node17" class="node"><title>\\NetCommonsAppController</title>
<polygon fill="none" stroke="black" points="956,-1264.64 784,-1264.64 784,-1228.64 956,-1228.64 956,-1264.64"/>
<text text-anchor="middle" x="870" y="-1243.74" font-family="Courier,monospace" font-size="11.00">NetCommonsAppController</text>
</g>
<!-- \\NetCommonsAppController&#45;&gt;\\Controller -->
<g id="edge33" class="edge"><title>\\NetCommonsAppController&#45;&gt;\\Controller</title>
<path fill="none" stroke="black" d="M863.68,-1228.35C844.324,-1171.71 785.166,-993.955 752,-842.64 728.671,-736.207 755.242,-436.448 680,-357.64 590.636,-264.04 427.244,-261.182 335.029,-268.309"/>
<polygon fill="none" stroke="black" points="334.64,-264.829 324.966,-269.149 335.222,-271.805 334.64,-264.829"/>
</g>
<!-- \\AssetComponent -->
<g id="node18" class="node"><title>\\AssetComponent</title>
<polygon fill="none" stroke="black" points="1218,-1102.64 1108,-1102.64 1108,-1066.64 1218,-1066.64 1218,-1102.64"/>
<text text-anchor="middle" x="1163" y="-1081.74" font-family="Courier,monospace" font-size="11.00">AssetComponent</text>
</g>
<!-- \\Component -->
<g id="node83" class="node"><title>\\Component</title>
<ellipse fill="none" stroke="black" cx="870" cy="-330.64" rx="70.9184" ry="18.3848"/>
<text text-anchor="middle" x="870" y="-327.04" font-family="Times Roman,serif" font-size="14.00" fill="gray">\Component</text>
</g>
<!-- \\AssetComponent&#45;&gt;\\Component -->
<g id="edge35" class="edge"><title>\\AssetComponent&#45;&gt;\\Component</title>
<path fill="none" stroke="black" d="M1107.47,-1082.26C1089.83,-1078.65 1071.85,-1071.47 1060,-1057.64 856.502,-820.147 1195.2,-591.906 988,-357.64 978.271,-346.64 965.062,-339.634 950.998,-335.26"/>
<polygon fill="none" stroke="black" points="951.72,-331.831 941.156,-332.636 949.917,-338.594 951.72,-331.831"/>
</g>
<!-- \\NetCommonsTimeComponent -->
<g id="node19" class="node"><title>\\NetCommonsTimeComponent</title>
<polygon fill="none" stroke="black" points="1249,-1048.64 1077,-1048.64 1077,-1012.64 1249,-1012.64 1249,-1048.64"/>
<text text-anchor="middle" x="1163" y="-1027.74" font-family="Courier,monospace" font-size="11.00">NetCommonsTimeComponent</text>
</g>
<!-- \\NetCommonsTimeComponent&#45;&gt;\\Component -->
<g id="edge37" class="edge"><title>\\NetCommonsTimeComponent&#45;&gt;\\Component</title>
<path fill="none" stroke="black" d="M1076.61,-1017.09C1070.38,-1013.51 1064.71,-1009.09 1060,-1003.64 871.099,-785.069 1180.31,-573.215 988,-357.64 978.225,-346.682 964.994,-339.694 950.924,-335.326"/>
<polygon fill="none" stroke="black" points="951.644,-331.896 941.08,-332.704 949.842,-338.66 951.644,-331.896"/>
</g>
<!-- \\PermissionComponent -->
<g id="node20" class="node"><title>\\PermissionComponent</title>
<polygon fill="none" stroke="black" points="1235,-994.64 1091,-994.64 1091,-958.64 1235,-958.64 1235,-994.64"/>
<text text-anchor="middle" x="1163" y="-973.74" font-family="Courier,monospace" font-size="11.00">PermissionComponent</text>
</g>
<!-- \\PermissionComponent&#45;&gt;\\Component -->
<g id="edge39" class="edge"><title>\\PermissionComponent&#45;&gt;\\Component</title>
<path fill="none" stroke="black" d="M1090.27,-969.286C1078.76,-965.077 1068.02,-958.831 1060,-949.64 885.683,-749.977 1165.43,-554.539 988,-357.64 978.227,-346.794 965.069,-339.847 951.082,-335.48"/>
<polygon fill="none" stroke="black" points="951.864,-332.066 941.298,-332.853 950.049,-338.827 951.864,-332.066"/>
</g>
<!-- \\NetCommonsComponent -->
<g id="node21" class="node"><title>\\NetCommonsComponent</title>
<polygon fill="none" stroke="black" points="1235,-940.64 1091,-940.64 1091,-904.64 1235,-904.64 1235,-940.64"/>
<text text-anchor="middle" x="1163" y="-919.74" font-family="Courier,monospace" font-size="11.00">NetCommonsComponent</text>
</g>
<!-- \\NetCommonsComponent&#45;&gt;\\Component -->
<g id="edge41" class="edge"><title>\\NetCommonsComponent&#45;&gt;\\Component</title>
<path fill="none" stroke="black" d="M1090.36,-915.207C1078.84,-911.005 1068.08,-904.782 1060,-895.64 900.252,-714.867 1150.57,-535.88 988,-357.64 978.162,-346.853 964.974,-339.933 950.979,-335.574"/>
<polygon fill="none" stroke="black" points="951.757,-332.159 941.192,-332.95 949.944,-338.92 951.757,-332.159"/>
</g>
<!-- \\NetCommonsController -->
<g id="node22" class="node"><title>\\NetCommonsController</title>
<polygon fill="none" stroke="black" points="1239,-1264.64 1087,-1264.64 1087,-1228.64 1239,-1228.64 1239,-1264.64"/>
<text text-anchor="middle" x="1163" y="-1243.74" font-family="Courier,monospace" font-size="11.00">NetCommonsController</text>
</g>
<!-- \\NetCommonsController&#45;&gt;\\NetCommonsAppController -->
<g id="edge43" class="edge"><title>\\NetCommonsController&#45;&gt;\\NetCommonsAppController</title>
<path fill="none" stroke="black" d="M1086.78,-1246.64C1050.05,-1246.64 1005.59,-1246.64 966.519,-1246.64"/>
<polygon fill="none" stroke="black" points="966.183,-1243.14 956.183,-1246.64 966.183,-1250.14 966.183,-1243.14"/>
</g>
<!-- \\NetCommonsUrl -->
<g id="node23" class="node"><title>\\NetCommonsUrl</title>
<polygon fill="none" stroke="black" points="1215,-2182.64 1111,-2182.64 1111,-2146.64 1215,-2146.64 1215,-2182.64"/>
<text text-anchor="middle" x="1163" y="-2161.74" font-family="Courier,monospace" font-size="11.00">NetCommonsUrl</text>
</g>
<!-- \\NetCommonsTime -->
<g id="node24" class="node"><title>\\NetCommonsTime</title>
<polygon fill="none" stroke="black" points="1218,-2128.64 1108,-2128.64 1108,-2092.64 1218,-2092.64 1218,-2128.64"/>
<text text-anchor="middle" x="1163" y="-2107.74" font-family="Courier,monospace" font-size="11.00">NetCommonsTime</text>
</g>
<!-- \\CurrentBase -->
<g id="node25" class="node"><title>\\CurrentBase</title>
<polygon fill="none" stroke="black" points="915,-2405.64 825,-2405.64 825,-2369.64 915,-2369.64 915,-2405.64"/>
<text text-anchor="middle" x="870" y="-2384.74" font-family="Courier,monospace" font-size="11.00">CurrentBase</text>
</g>
<!-- \\Current -->
<g id="node26" class="node"><title>\\Current</title>
<polygon fill="none" stroke="black" points="1195,-2398.64 1131,-2398.64 1131,-2362.64 1195,-2362.64 1195,-2398.64"/>
<text text-anchor="middle" x="1163" y="-2377.74" font-family="Courier,monospace" font-size="11.00">Current</text>
</g>
<!-- \\Current&#45;&gt;\\CurrentBase -->
<g id="edge45" class="edge"><title>\\Current&#45;&gt;\\CurrentBase</title>
<path fill="none" stroke="black" d="M1130.81,-2381.41C1081.48,-2382.59 986.554,-2384.86 925.846,-2386.31"/>
<polygon fill="none" stroke="black" points="925.582,-2382.81 915.669,-2386.55 925.75,-2389.81 925.582,-2382.81"/>
</g>
<!-- \\CurrentSystem -->
<g id="node27" class="node"><title>\\CurrentSystem</title>
<polygon fill="none" stroke="black" points="1215,-2020.64 1111,-2020.64 1111,-1984.64 1215,-1984.64 1215,-2020.64"/>
<text text-anchor="middle" x="1163" y="-1999.74" font-family="Courier,monospace" font-size="11.00">CurrentSystem</text>
</g>
<!-- \\CurrentPage -->
<g id="node28" class="node"><title>\\CurrentPage</title>
<polygon fill="none" stroke="black" points="1208,-1966.64 1118,-1966.64 1118,-1930.64 1208,-1930.64 1208,-1966.64"/>
<text text-anchor="middle" x="1163" y="-1945.74" font-family="Courier,monospace" font-size="11.00">CurrentPage</text>
</g>
<!-- \\CurrentFrame -->
<g id="node29" class="node"><title>\\CurrentFrame</title>
<polygon fill="none" stroke="black" points="1212,-1912.64 1114,-1912.64 1114,-1876.64 1212,-1876.64 1212,-1912.64"/>
<text text-anchor="middle" x="1163" y="-1891.74" font-family="Courier,monospace" font-size="11.00">CurrentFrame</text>
</g>
<!-- \\TokenHelper -->
<g id="node30" class="node"><title>\\TokenHelper</title>
<polygon fill="none" stroke="black" points="1208,-832.64 1118,-832.64 1118,-796.64 1208,-796.64 1208,-832.64"/>
<text text-anchor="middle" x="1163" y="-811.74" font-family="Courier,monospace" font-size="11.00">TokenHelper</text>
</g>
<!-- \\FormHelper -->
<g id="node90" class="node"><title>\\FormHelper</title>
<ellipse fill="none" stroke="black" cx="870" cy="-276.64" rx="70.9184" ry="18.3848"/>
<text text-anchor="middle" x="870" y="-273.04" font-family="Times Roman,serif" font-size="14.00" fill="gray">\FormHelper</text>
</g>
<!-- \\TokenHelper&#45;&gt;\\FormHelper -->
<g id="edge47" class="edge"><title>\\TokenHelper&#45;&gt;\\FormHelper</title>
<path fill="none" stroke="black" d="M1117.39,-813.608C1097,-810.705 1074.38,-803.673 1060,-787.64 914.8,-625.733 1135.73,-463.245 988,-303.64 978.083,-292.925 964.859,-286.038 950.853,-281.689"/>
<polygon fill="none" stroke="black" points="951.628,-278.273 941.063,-279.068 949.818,-285.035 951.628,-278.273"/>
</g>
<!-- \\SingletonViewBlockHtmlHelper -->
<g id="node31" class="node"><title>\\SingletonViewBlockHtmlHelper</title>
<polygon fill="none" stroke="black" points="1266,-724.64 1060,-724.64 1060,-688.64 1266,-688.64 1266,-724.64"/>
<text text-anchor="middle" x="1163" y="-703.74" font-family="Courier,monospace" font-size="11.00">SingletonViewBlockHtmlHelper</text>
</g>
<!-- \\HtmlHelper -->
<g id="node92" class="node"><title>\\HtmlHelper</title>
<ellipse fill="none" stroke="black" cx="870" cy="-222.64" rx="67.1751" ry="18.3848"/>
<text text-anchor="middle" x="870" y="-219.04" font-family="Times Roman,serif" font-size="14.00" fill="gray">HtmlHelper</text>
</g>
<!-- \\SingletonViewBlockHtmlHelper&#45;&gt;\\HtmlHelper -->
<g id="edge49" class="edge"><title>\\SingletonViewBlockHtmlHelper&#45;&gt;\\HtmlHelper</title>
<path fill="none" stroke="black" d="M1069.92,-688.378C1066.33,-685.814 1062.99,-682.916 1060,-679.64 929.318,-536.567 1120.91,-390.641 988,-249.64 977.121,-238.099 962.401,-231.016 947.051,-226.766"/>
<polygon fill="none" stroke="black" points="947.444,-223.262 936.906,-224.363 945.83,-230.073 947.444,-223.262"/>
</g>
<!-- \\FormInputHelper -->
<g id="node32" class="node"><title>\\FormInputHelper</title>
<polygon fill="none" stroke="black" points="1222,-1372.64 1104,-1372.64 1104,-1336.64 1222,-1336.64 1222,-1372.64"/>
<text text-anchor="middle" x="1163" y="-1351.74" font-family="Courier,monospace" font-size="11.00">FormInputHelper</text>
</g>
<!-- \\FormInputHelper&#45;&gt;\\AppHelper -->
<g id="edge51" class="edge"><title>\\FormInputHelper&#45;&gt;\\AppHelper</title>
<path fill="none" stroke="black" d="M1103.83,-1363.2C1088.71,-1367.2 1073.05,-1373.06 1060,-1381.64 974.042,-1438.18 910.094,-1546.71 883.531,-1597.36"/>
<polygon fill="none" stroke="black" points="880.341,-1595.91 878.865,-1606.4 886.562,-1599.12 880.341,-1595.91"/>
</g>
<!-- \\WizardHelper -->
<g id="node33" class="node"><title>\\WizardHelper</title>
<polygon fill="none" stroke="black" points="1212,-1318.64 1114,-1318.64 1114,-1282.64 1212,-1282.64 1212,-1318.64"/>
<text text-anchor="middle" x="1163" y="-1297.74" font-family="Courier,monospace" font-size="11.00">WizardHelper</text>
</g>
<!-- \\WizardHelper&#45;&gt;\\AppHelper -->
<g id="edge53" class="edge"><title>\\WizardHelper&#45;&gt;\\AppHelper</title>
<path fill="none" stroke="black" d="M1113.89,-1305.87C1095.65,-1309.69 1075.62,-1316.27 1060,-1327.64 1009.52,-1364.37 918.866,-1531.11 884.1,-1597.37"/>
<polygon fill="none" stroke="black" points="880.916,-1595.91 879.388,-1606.39 887.121,-1599.15 880.916,-1595.91"/>
</g>
<!-- \\DisplayNumberHelper -->
<g id="node34" class="node"><title>\\DisplayNumberHelper</title>
<polygon fill="none" stroke="black" points="1235,-2290.64 1091,-2290.64 1091,-2254.64 1235,-2254.64 1235,-2290.64"/>
<text text-anchor="middle" x="1163" y="-2269.74" font-family="Courier,monospace" font-size="11.00">DisplayNumberHelper</text>
</g>
<!-- \\DisplayNumberHelper&#45;&gt;\\AppHelper -->
<g id="edge55" class="edge"><title>\\DisplayNumberHelper&#45;&gt;\\AppHelper</title>
<path fill="none" stroke="black" d="M1090.38,-2264.16C1079.07,-2260.05 1068.38,-2254.13 1060,-2245.64 966.708,-2151.13 1026.34,-2082.79 988,-1955.64 953.591,-1841.54 902.988,-1708.84 880.94,-1652.37"/>
<polygon fill="none" stroke="black" points="884.071,-1650.76 877.165,-1642.73 877.553,-1653.32 884.071,-1650.76"/>
</g>
<!-- \\MessageFlashHelper -->
<g id="node35" class="node"><title>\\MessageFlashHelper</title>
<polygon fill="none" stroke="black" points="1232,-2236.64 1094,-2236.64 1094,-2200.64 1232,-2200.64 1232,-2236.64"/>
<text text-anchor="middle" x="1163" y="-2215.74" font-family="Courier,monospace" font-size="11.00">MessageFlashHelper</text>
</g>
<!-- \\MessageFlashHelper&#45;&gt;\\AppHelper -->
<g id="edge57" class="edge"><title>\\MessageFlashHelper&#45;&gt;\\AppHelper</title>
<path fill="none" stroke="black" d="M1093.93,-2210.88C1081.43,-2206.77 1069.4,-2200.67 1060,-2191.64 980.932,-2115.65 1022.42,-2059.76 988,-1955.64 950.593,-1842.49 901.568,-1709.29 880.435,-1652.53"/>
<polygon fill="none" stroke="black" points="883.596,-1650.98 876.823,-1642.84 877.037,-1653.43 883.596,-1650.98"/>
</g>
<!-- \\DateHelper -->
<g id="node36" class="node"><title>\\DateHelper</title>
<polygon fill="none" stroke="black" points="1205,-2074.64 1121,-2074.64 1121,-2038.64 1205,-2038.64 1205,-2074.64"/>
<text text-anchor="middle" x="1163" y="-2053.74" font-family="Courier,monospace" font-size="11.00">DateHelper</text>
</g>
<!-- \\DateHelper&#45;&gt;\\AppHelper -->
<g id="edge59" class="edge"><title>\\DateHelper&#45;&gt;\\AppHelper</title>
<path fill="none" stroke="black" d="M1120.86,-2053.85C1100.55,-2050.6 1076.98,-2043.77 1060,-2029.64 936.832,-1927.1 888.776,-1726.72 874.769,-1652.86"/>
<polygon fill="none" stroke="black" points="878.19,-1652.11 872.945,-1642.91 871.305,-1653.37 878.19,-1652.11"/>
</g>
<!-- \\SnsButtonHelper -->
<g id="node37" class="node"><title>\\SnsButtonHelper</title>
<polygon fill="none" stroke="black" points="1222,-1858.64 1104,-1858.64 1104,-1822.64 1222,-1822.64 1222,-1858.64"/>
<text text-anchor="middle" x="1163" y="-1837.74" font-family="Courier,monospace" font-size="11.00">SnsButtonHelper</text>
</g>
<!-- \\SnsButtonHelper&#45;&gt;\\AppHelper -->
<g id="edge61" class="edge"><title>\\SnsButtonHelper&#45;&gt;\\AppHelper</title>
<path fill="none" stroke="black" d="M1103.98,-1830.82C1089.02,-1826.84 1073.4,-1821.3 1060,-1813.64 985.721,-1771.15 920.104,-1692.16 889.041,-1651.05"/>
<polygon fill="none" stroke="black" points="891.73,-1648.8 882.946,-1642.88 886.119,-1652.99 891.73,-1648.8"/>
</g>
<!-- \\BackToHelper -->
<g id="node38" class="node"><title>\\BackToHelper</title>
<polygon fill="none" stroke="black" points="1212,-1804.64 1114,-1804.64 1114,-1768.64 1212,-1768.64 1212,-1804.64"/>
<text text-anchor="middle" x="1163" y="-1783.74" font-family="Courier,monospace" font-size="11.00">BackToHelper</text>
</g>
<!-- \\BackToHelper&#45;&gt;\\AppHelper -->
<g id="edge63" class="edge"><title>\\BackToHelper&#45;&gt;\\AppHelper</title>
<path fill="none" stroke="black" d="M1113.79,-1777.56C1096.32,-1773.35 1076.83,-1767.5 1060,-1759.64 997.211,-1730.3 933.394,-1679.8 898.029,-1649.58"/>
<polygon fill="none" stroke="black" points="899.944,-1646.61 890.087,-1642.72 895.369,-1651.9 899.944,-1646.61"/>
</g>
<!-- \\NetCommonsHtmlHelper -->
<g id="node39" class="node"><title>\\NetCommonsHtmlHelper</title>
<polygon fill="none" stroke="black" points="1239,-1750.64 1087,-1750.64 1087,-1714.64 1239,-1714.64 1239,-1750.64"/>
<text text-anchor="middle" x="1163" y="-1729.74" font-family="Courier,monospace" font-size="11.00">NetCommonsHtmlHelper</text>
</g>
<!-- \\NetCommonsHtmlHelper&#45;&gt;\\AppHelper -->
<g id="edge65" class="edge"><title>\\NetCommonsHtmlHelper&#45;&gt;\\AppHelper</title>
<path fill="none" stroke="black" d="M1088.9,-1714.62C1079.12,-1711.83 1069.27,-1708.81 1060,-1705.64 1010.27,-1688.62 955.199,-1664.54 917.206,-1647.06"/>
<polygon fill="none" stroke="black" points="918.474,-1643.79 907.929,-1642.76 915.534,-1650.14 918.474,-1643.79"/>
</g>
<!-- \\ButtonHelper -->
<g id="node40" class="node"><title>\\ButtonHelper</title>
<polygon fill="none" stroke="black" points="1212,-778.64 1114,-778.64 1114,-742.64 1212,-742.64 1212,-778.64"/>
<text text-anchor="middle" x="1163" y="-757.74" font-family="Courier,monospace" font-size="11.00">ButtonHelper</text>
</g>
<!-- \\ButtonHelper&#45;&gt;\\FormHelper -->
<g id="edge67" class="edge"><title>\\ButtonHelper&#45;&gt;\\FormHelper</title>
<path fill="none" stroke="black" d="M1113.82,-758.917C1094.47,-755.686 1073.65,-748.586 1060,-733.64 929.318,-590.567 1120.91,-444.641 988,-303.64 977.986,-293.016 964.718,-286.17 950.698,-281.834"/>
<polygon fill="none" stroke="black" points="951.468,-278.417 940.904,-279.217 949.661,-285.18 951.468,-278.417"/>
</g>
<!-- \\ComposerHelper -->
<g id="node41" class="node"><title>\\ComposerHelper</title>
<polygon fill="none" stroke="black" points="1218,-1696.64 1108,-1696.64 1108,-1660.64 1218,-1660.64 1218,-1696.64"/>
<text text-anchor="middle" x="1163" y="-1675.74" font-family="Courier,monospace" font-size="11.00">ComposerHelper</text>
</g>
<!-- \\ComposerHelper&#45;&gt;\\AppHelper -->
<g id="edge69" class="edge"><title>\\ComposerHelper&#45;&gt;\\AppHelper</title>
<path fill="none" stroke="black" d="M1107.2,-1668.36C1052.72,-1658.31 970.647,-1643.19 918.725,-1633.62"/>
<polygon fill="none" stroke="black" points="919.228,-1630.15 908.759,-1631.78 917.959,-1637.04 919.228,-1630.15"/>
</g>
<!-- \\LinkButtonHelper -->
<g id="node42" class="node"><title>\\LinkButtonHelper</title>
<polygon fill="none" stroke="black" points="1225,-886.64 1101,-886.64 1101,-850.64 1225,-850.64 1225,-886.64"/>
<text text-anchor="middle" x="1163" y="-865.74" font-family="Courier,monospace" font-size="11.00">LinkButtonHelper</text>
</g>
<!-- \\LinkButtonHelper&#45;&gt;\\FormHelper -->
<g id="edge71" class="edge"><title>\\LinkButtonHelper&#45;&gt;\\FormHelper</title>
<path fill="none" stroke="black" d="M1100.45,-864.354C1085.26,-860.346 1070.41,-853.414 1060,-841.64 900.252,-660.867 1150.57,-481.88 988,-303.64 978.162,-292.853 964.974,-285.933 950.979,-281.574"/>
<polygon fill="none" stroke="black" points="951.757,-278.159 941.192,-278.95 949.944,-284.92 951.757,-278.159"/>
</g>
<!-- \\TableListHelper -->
<g id="node43" class="node"><title>\\TableListHelper</title>
<polygon fill="none" stroke="black" points="1222,-1642.64 1104,-1642.64 1104,-1606.64 1222,-1606.64 1222,-1642.64"/>
<text text-anchor="middle" x="1163" y="-1621.74" font-family="Courier,monospace" font-size="11.00">TableListHelper</text>
</g>
<!-- \\TableListHelper&#45;&gt;\\AppHelper -->
<g id="edge73" class="edge"><title>\\TableListHelper&#45;&gt;\\AppHelper</title>
<path fill="none" stroke="black" d="M1103.71,-1624.64C1049.27,-1624.64 969.563,-1624.64 918.738,-1624.64"/>
<polygon fill="none" stroke="black" points="918.663,-1621.14 908.663,-1624.64 918.662,-1628.14 918.663,-1621.14"/>
</g>
<!-- \\NetCommonsTimeHelper -->
<g id="node44" class="node"><title>\\NetCommonsTimeHelper</title>
<polygon fill="none" stroke="black" points="1239,-1588.64 1087,-1588.64 1087,-1552.64 1239,-1552.64 1239,-1588.64"/>
<text text-anchor="middle" x="1163" y="-1567.74" font-family="Courier,monospace" font-size="11.00">NetCommonsTimeHelper</text>
</g>
<!-- \\NetCommonsTimeHelper&#45;&gt;\\AppHelper -->
<g id="edge75" class="edge"><title>\\NetCommonsTimeHelper&#45;&gt;\\AppHelper</title>
<path fill="none" stroke="black" d="M1086.78,-1584.69C1033.66,-1594.48 964.376,-1607.25 918.603,-1615.68"/>
<polygon fill="none" stroke="black" points="917.838,-1612.26 908.638,-1617.52 919.107,-1619.15 917.838,-1612.26"/>
</g>
<!-- \\NetCommonsFormHelper -->
<g id="node45" class="node"><title>\\NetCommonsFormHelper</title>
<polygon fill="none" stroke="black" points="1239,-1534.64 1087,-1534.64 1087,-1498.64 1239,-1498.64 1239,-1534.64"/>
<text text-anchor="middle" x="1163" y="-1513.74" font-family="Courier,monospace" font-size="11.00">NetCommonsFormHelper</text>
</g>
<!-- \\NetCommonsFormHelper&#45;&gt;\\AppHelper -->
<g id="edge77" class="edge"><title>\\NetCommonsFormHelper&#45;&gt;\\AppHelper</title>
<path fill="none" stroke="black" d="M1088.9,-1534.66C1079.12,-1537.45 1069.27,-1540.47 1060,-1543.64 1010.27,-1560.66 955.199,-1584.74 917.206,-1602.22"/>
<polygon fill="none" stroke="black" points="915.534,-1599.14 907.929,-1606.51 918.474,-1605.49 915.534,-1599.14"/>
</g>
<!-- \\TitleIconHelper -->
<g id="node46" class="node"><title>\\TitleIconHelper</title>
<polygon fill="none" stroke="black" points="1222,-1480.64 1104,-1480.64 1104,-1444.64 1222,-1444.64 1222,-1480.64"/>
<text text-anchor="middle" x="1163" y="-1459.74" font-family="Courier,monospace" font-size="11.00">TitleIconHelper</text>
</g>
<!-- \\TitleIconHelper&#45;&gt;\\AppHelper -->
<g id="edge79" class="edge"><title>\\TitleIconHelper&#45;&gt;\\AppHelper</title>
<path fill="none" stroke="black" d="M1103.97,-1474.21C1089.24,-1478.15 1073.73,-1483.22 1060,-1489.64 997.211,-1518.97 933.394,-1569.48 898.029,-1599.7"/>
<polygon fill="none" stroke="black" points="895.369,-1597.38 890.087,-1606.56 899.944,-1602.67 895.369,-1597.38"/>
</g>
<!-- \\DatetimePickerHelper -->
<g id="node47" class="node"><title>\\DatetimePickerHelper</title>
<polygon fill="none" stroke="black" points="1239,-1426.64 1087,-1426.64 1087,-1390.64 1239,-1390.64 1239,-1426.64"/>
<text text-anchor="middle" x="1163" y="-1405.74" font-family="Courier,monospace" font-size="11.00">DatetimePickerHelper</text>
</g>
<!-- \\DatetimePickerHelper&#45;&gt;\\AppHelper -->
<g id="edge81" class="edge"><title>\\DatetimePickerHelper&#45;&gt;\\AppHelper</title>
<path fill="none" stroke="black" d="M1086.92,-1423.66C1077.55,-1426.92 1068.34,-1430.87 1060,-1435.64 985.721,-1478.13 920.104,-1557.12 889.041,-1598.23"/>
<polygon fill="none" stroke="black" points="886.119,-1596.29 882.946,-1606.4 891.73,-1600.48 886.119,-1596.29"/>
</g>
<!-- \\Model -->
<g id="node110" class="node"><title>\\Model</title>
<ellipse fill="none" stroke="black" cx="44" cy="-2677.64" rx="43.8406" ry="18.3848"/>
<text text-anchor="middle" x="44" y="-2674.04" font-family="Times Roman,serif" font-size="14.00" fill="gray">\Model</text>
</g>
<!-- \\NetCommonsAppModel&#45;&gt;\\Model -->
<g id="edge83" class="edge"><title>\\NetCommonsAppModel&#45;&gt;\\Model</title>
<path fill="none" stroke="black" d="M197.969,-2677.64C165.93,-2677.64 128.391,-2677.64 98.4002,-2677.64"/>
<polygon fill="none" stroke="black" points="98.1284,-2674.14 88.1284,-2677.64 98.1284,-2681.14 98.1284,-2674.14"/>
</g>
<!-- \\OriginalKeyBehavior -->
<g id="node49" class="node"><title>\\OriginalKeyBehavior</title>
<polygon fill="none" stroke="black" points="1235,-616.64 1091,-616.64 1091,-580.64 1235,-580.64 1235,-616.64"/>
<text text-anchor="middle" x="1163" y="-595.74" font-family="Courier,monospace" font-size="11.00">OriginalKeyBehavior</text>
</g>
<!-- \\ModelBehavior -->
<g id="node112" class="node"><title>\\ModelBehavior</title>
<ellipse fill="none" stroke="black" cx="870" cy="-168.64" rx="86.9741" ry="18.3848"/>
<text text-anchor="middle" x="870" y="-165.04" font-family="Times Roman,serif" font-size="14.00" fill="gray">\ModelBehavior</text>
</g>
<!-- \\OriginalKeyBehavior&#45;&gt;\\ModelBehavior -->
<g id="edge85" class="edge"><title>\\OriginalKeyBehavior&#45;&gt;\\ModelBehavior</title>
<path fill="none" stroke="black" d="M1090.25,-590.635C1078.89,-586.477 1068.21,-580.417 1060,-571.64 943.795,-447.355 1106.14,-318.083 988,-195.64 980.646,-188.018 971.615,-182.351 961.852,-178.164"/>
<polygon fill="none" stroke="black" points="962.89,-174.816 952.298,-174.588 960.436,-181.372 962.89,-174.816"/>
</g>
<!-- \\TrackableBehavior -->
<g id="node50" class="node"><title>\\TrackableBehavior</title>
<polygon fill="none" stroke="black" points="1228,-670.64 1098,-670.64 1098,-634.64 1228,-634.64 1228,-670.64"/>
<text text-anchor="middle" x="1163" y="-649.74" font-family="Courier,monospace" font-size="11.00">TrackableBehavior</text>
</g>
<!-- \\TrackableBehavior&#45;&gt;\\ModelBehavior -->
<g id="edge87" class="edge"><title>\\TrackableBehavior&#45;&gt;\\ModelBehavior</title>
<path fill="none" stroke="black" d="M1097.5,-647.231C1083.43,-643.122 1069.85,-636.423 1060,-625.64 929.318,-482.567 1120.91,-336.641 988,-195.64 980.736,-187.933 971.758,-182.214 962.025,-178"/>
<polygon fill="none" stroke="black" points="963.083,-174.658 952.491,-174.404 960.613,-181.208 963.083,-174.658"/>
</g>
<!-- \\YAExceptionRenderer -->
<g id="node51" class="node"><title>\\YAExceptionRenderer</title>
<polygon fill="none" stroke="black" points="1235,-562.64 1091,-562.64 1091,-526.64 1235,-526.64 1235,-562.64"/>
<text text-anchor="middle" x="1163" y="-541.74" font-family="Courier,monospace" font-size="11.00">YAExceptionRenderer</text>
</g>
<!-- \\ExceptionRenderer -->
<g id="node115" class="node"><title>\\ExceptionRenderer</title>
<ellipse fill="none" stroke="black" cx="870" cy="-114.64" rx="118.087" ry="18.3848"/>
<text text-anchor="middle" x="870" y="-111.04" font-family="Times Roman,serif" font-size="14.00" fill="gray">TEHxceptionRenderer</text>
</g>
<!-- \\YAExceptionRenderer&#45;&gt;\\ExceptionRenderer -->
<g id="edge89" class="edge"><title>\\YAExceptionRenderer&#45;&gt;\\ExceptionRenderer</title>
<path fill="none" stroke="black" d="M1090.25,-536.635C1078.89,-532.477 1068.21,-526.417 1060,-517.64 943.795,-393.355 1106.14,-264.083 988,-141.64 983.747,-137.231 978.932,-133.477 973.739,-130.285"/>
<polygon fill="none" stroke="black" points="975.142,-127.066 964.675,-125.427 971.836,-133.235 975.142,-127.066"/>
</g>
<!-- \\NetCommonsMigration -->
<g id="node52" class="node"><title>\\NetCommonsMigration</title>
<polygon fill="none" stroke="black" points="942,-833.64 798,-833.64 798,-797.64 942,-797.64 942,-833.64"/>
<text text-anchor="middle" x="870" y="-812.74" font-family="Courier,monospace" font-size="11.00">NetCommonsMigration</text>
</g>
<!-- \\CakeMigration -->
<g id="node117" class="node"><title>\\CakeMigration</title>
<ellipse fill="none" stroke="black" cx="563" cy="-153.64" rx="84.8528" ry="18.3848"/>
<text text-anchor="middle" x="563" y="-150.04" font-family="Times Roman,serif" font-size="14.00" fill="gray">\CakeMigration</text>
</g>
<!-- \\NetCommonsMigration&#45;&gt;\\CakeMigration -->
<g id="edge91" class="edge"><title>\\NetCommonsMigration&#45;&gt;\\CakeMigration</title>
<path fill="none" stroke="black" d="M797.268,-816.116C780.389,-812.739 763.903,-806.045 752,-793.64 596.557,-631.639 771.462,-498.68 680,-293.64 659.241,-247.101 618.368,-203.767 590.859,-177.988"/>
<polygon fill="none" stroke="black" points="593.21,-175.394 583.483,-171.194 588.467,-180.543 593.21,-175.394"/>
</g>
<!-- \\FrameSettingsControllerTest -->
<g id="node53" class="node"><title>\\FrameSettingsControllerTest</title>
<polygon fill="none" stroke="black" points="1262,-2668.64 1064,-2668.64 1064,-2632.64 1262,-2632.64 1262,-2668.64"/>
<text text-anchor="middle" x="1163" y="-2647.74" font-family="Courier,monospace" font-size="11.00">FrameSettingsControllerTest</text>
</g>
<!-- \\FrameSettingsControllerTest&#45;&gt;\\NetCommonsControllerTestCase -->
<g id="edge93" class="edge"><title>\\FrameSettingsControllerTest&#45;&gt;\\NetCommonsControllerTestCase</title>
<path fill="none" stroke="black" d="M1084.1,-2632.6C1045.42,-2623.75 998.701,-2613.07 958.784,-2603.94"/>
<polygon fill="none" stroke="black" points="959.319,-2600.47 948.791,-2601.66 957.759,-2607.3 959.319,-2600.47"/>
</g>
<!-- \\FramesAppController -->
<g id="node54" class="node"><title>\\FramesAppController</title>
<polygon fill="none" stroke="black" points="942,-2000.64 798,-2000.64 798,-1964.64 942,-1964.64 942,-2000.64"/>
<text text-anchor="middle" x="870" y="-1979.74" font-family="Courier,monospace" font-size="11.00">FramesAppController</text>
</g>
<!-- \\FramesAppController&#45;&gt;\\AppController -->
<g id="edge95" class="edge"><title>\\FramesAppController&#45;&gt;\\AppController</title>
<path fill="none" stroke="black" d="M859.96,-1964.55C815.006,-1883.58 632.071,-1554.06 578.074,-1456.79"/>
<polygon fill="none" stroke="black" points="581.032,-1454.91 573.118,-1447.87 574.912,-1458.31 581.032,-1454.91"/>
</g>
<!-- \\FramesController -->
<g id="node55" class="node"><title>\\FramesController</title>
<polygon fill="none" stroke="black" points="1225,-2344.64 1101,-2344.64 1101,-2308.64 1225,-2308.64 1225,-2344.64"/>
<text text-anchor="middle" x="1163" y="-2323.74" font-family="Courier,monospace" font-size="11.00">FramesController</text>
</g>
<!-- \\FramesController&#45;&gt;\\FramesAppController -->
<g id="edge97" class="edge"><title>\\FramesController&#45;&gt;\\FramesAppController</title>
<path fill="none" stroke="black" d="M1100.4,-2318.41C1086.14,-2314.4 1071.76,-2308.46 1060,-2299.64 957.381,-2222.66 899.161,-2072.57 878.582,-2010.52"/>
<polygon fill="none" stroke="black" points="881.801,-2009.1 875.387,-2000.66 875.142,-2011.26 881.801,-2009.1"/>
</g>
<!-- \\FramesAppModel -->
<g id="node56" class="node"><title>\\FramesAppModel</title>
<polygon fill="none" stroke="black" points="925,-2722.64 815,-2722.64 815,-2686.64 925,-2686.64 925,-2722.64"/>
<text text-anchor="middle" x="870" y="-2701.74" font-family="Courier,monospace" font-size="11.00">FramesAppModel</text>
</g>
<!-- \\FramesAppModel&#45;&gt;\\AppModel -->
<g id="edge99" class="edge"><title>\\FramesAppModel&#45;&gt;\\AppModel</title>
<path fill="none" stroke="black" d="M814.405,-2699.75C755.479,-2694.57 663.518,-2686.48 608.67,-2681.66"/>
<polygon fill="none" stroke="black" points="608.814,-2678.16 598.546,-2680.77 608.201,-2685.13 608.814,-2678.16"/>
</g>
<!-- \\Frame -->
<g id="node57" class="node"><title>\\Frame</title>
<polygon fill="none" stroke="black" points="1190,-2722.64 1136,-2722.64 1136,-2686.64 1190,-2686.64 1190,-2722.64"/>
<text text-anchor="middle" x="1163" y="-2701.74" font-family="Courier,monospace" font-size="11.00">Frame</text>
</g>
<!-- \\Frame&#45;&gt;\\FramesAppModel -->
<g id="edge101" class="edge"><title>\\Frame&#45;&gt;\\FramesAppModel</title>
<path fill="none" stroke="black" d="M1135.96,-2704.64C1090.8,-2704.64 998.789,-2704.64 935.763,-2704.64"/>
<polygon fill="none" stroke="black" points="935.52,-2701.14 925.52,-2704.64 935.52,-2708.14 935.52,-2701.14"/>
</g>
<!-- \\FramesSchema -->
<g id="node58" class="node"><title>\\FramesSchema</title>
<polygon fill="none" stroke="black" points="1212,-508.64 1114,-508.64 1114,-472.64 1212,-472.64 1212,-508.64"/>
<text text-anchor="middle" x="1163" y="-487.74" font-family="Courier,monospace" font-size="11.00">FramesSchema</text>
</g>
<!-- \\CakeSchema -->
<g id="node124" class="node"><title>\\CakeSchema</title>
<ellipse fill="none" stroke="black" cx="870" cy="-60.6397" rx="77.0746" ry="18.3848"/>
<text text-anchor="middle" x="870" y="-57.0397" font-family="Times Roman,serif" font-size="14.00" fill="gray">\CakeSchema</text>
</g>
<!-- \\FramesSchema&#45;&gt;\\CakeSchema -->
<g id="edge103" class="edge"><title>\\FramesSchema&#45;&gt;\\CakeSchema</title>
<path fill="none" stroke="black" d="M1114,-488.76C1094.67,-485.503 1073.82,-478.426 1060,-463.64 943.795,-339.355 1106.14,-210.083 988,-87.6397 978.93,-78.2395 967.308,-71.8124 954.908,-67.4687"/>
<polygon fill="none" stroke="black" points="955.89,-64.109 945.304,-64.5385 953.847,-70.8043 955.89,-64.109"/>
</g>
<!-- \\Records -->
<g id="node59" class="node"><title>\\Records</title>
<polygon fill="none" stroke="black" points="1195,-1210.64 1131,-1210.64 1131,-1174.64 1195,-1174.64 1195,-1210.64"/>
<text text-anchor="middle" x="1163" y="-1189.74" font-family="Courier,monospace" font-size="11.00">Records</text>
</g>
<!-- \\Records&#45;&gt;\\NetCommonsMigration -->
<g id="edge105" class="edge"><title>\\Records&#45;&gt;\\NetCommonsMigration</title>
<path fill="none" stroke="black" d="M1130.79,-1190.81C1108.85,-1188.09 1080.22,-1181.49 1060,-1165.64 949.731,-1079.19 894.977,-910.273 876.947,-843.634"/>
<polygon fill="none" stroke="black" points="880.3,-842.623 874.366,-833.846 873.532,-844.407 880.3,-842.623"/>
</g>
<!-- \\Init -->
<g id="node60" class="node"><title>\\Init</title>
<polygon fill="none" stroke="black" points="1190,-454.64 1136,-454.64 1136,-418.64 1190,-418.64 1190,-454.64"/>
<text text-anchor="middle" x="1163" y="-433.74" font-family="Courier,monospace" font-size="11.00">Init</text>
</g>
<!-- \\Init&#45;&gt;\\CakeMigration -->
<g id="edge107" class="edge"><title>\\Init&#45;&gt;\\CakeMigration</title>
<path fill="none" stroke="black" d="M1161.73,-418.211C1156.05,-351.91 1126.72,-124.636 988,-33.6397 900.297,23.8912 852.721,-4.3658 752,-33.6397 687.904,-52.2687 624.751,-99.9054 590.119,-129.248"/>
<polygon fill="none" stroke="black" points="587.653,-126.753 582.354,-135.928 592.218,-132.06 587.653,-126.753"/>
</g>
</g>
</svg>
