<?xml version="1.0" encoding="UTF-8" standalone="no"?>
<!DOCTYPE svg PUBLIC "-//W3C//DTD SVG 1.1//EN"
 "http://www.w3.org/Graphics/SVG/1.1/DTD/svg11.dtd">
<!-- Generated by graphviz version 2.26.3 (20100126.1600)
 -->
<!-- Title: G Pages: 1 -->
<svg width="1290pt" height="2715pt"
 viewBox="0.00 0.00 1290.00 2714.64" xmlns="http://www.w3.org/2000/svg" xmlns:xlink="http://www.w3.org/1999/xlink">
<g id="graph1" class="graph" transform="scale(1 1) rotate(0) translate(4 2710.64)">
<title>G</title>
<polygon fill="white" stroke="white" points="-4,5 -4,-2710.64 1287,-2710.64 1287,5 -4,5"/>
<g id="graph2" class="cluster"><title>cluster_Global</title>
<polyline fill="none" stroke="gray" points="202,-410.64 1262,-410.64 "/>
<path fill="none" stroke="gray" d="M1262,-410.64C1268,-410.64 1274,-416.64 1274,-422.64"/>
<polyline fill="none" stroke="gray" points="1274,-422.64 1274,-2686.64 "/>
<path fill="none" stroke="gray" d="M1274,-2686.64C1274,-2692.64 1268,-2698.64 1262,-2698.64"/>
<polyline fill="none" stroke="gray" points="1262,-2698.64 202,-2698.64 "/>
<path fill="none" stroke="gray" d="M202,-2698.64C196,-2698.64 190,-2692.64 190,-2686.64"/>
<polyline fill="none" stroke="gray" points="190,-2686.64 190,-422.64 "/>
<path fill="none" stroke="gray" d="M190,-422.64C190,-416.64 196,-410.64 202,-410.64"/>
<text text-anchor="middle" x="732" y="-2684.74" font-family="Times Roman,serif" font-size="11.00" fill="gray">Global</text>
</g>
<!-- \\AppController -->
<g id="node2" class="node"><title>\\AppController</title>
<polygon fill="none" stroke="black" points="615,-1420.64 511,-1420.64 511,-1384.64 615,-1384.64 615,-1420.64"/>
<text text-anchor="middle" x="563" y="-1399.74" font-family="Courier,monospace" font-size="11.00">AppController</text>
</g>
<!-- \\Controller -->
<g id="node61" class="node"><title>\\Controller</title>
<ellipse fill="none" stroke="black" cx="267" cy="-276.64" rx="63.1385" ry="18.3848"/>
<text text-anchor="middle" x="267" y="-273.04" font-family="Times Roman,serif" font-size="14.00" fill="gray">\Controller</text>
</g>
<!-- \\AppController&#45;&gt;\\Controller -->
<g id="edge3" class="edge"><title>\\AppController&#45;&gt;\\Controller</title>
<path fill="none" stroke="black" d="M510.875,-1406.2C487.649,-1404.82 461.983,-1398.65 446,-1380.64 286.784,-1201.23 527.642,-487.842 374,-303.64 365.162,-293.044 352.828,-286.273 339.665,-282.013"/>
<polygon fill="none" stroke="black" points="340.543,-278.625 329.972,-279.337 338.68,-285.372 340.543,-278.625"/>
</g>
<!-- \\AppModel -->
<g id="node3" class="node"><title>\\AppModel</title>
<polygon fill="none" stroke="black" points="598,-2641.64 528,-2641.64 528,-2605.64 598,-2605.64 598,-2641.64"/>
<text text-anchor="middle" x="563" y="-2620.74" font-family="Courier,monospace" font-size="11.00">AppModel</text>
</g>
<!-- \\NetCommonsAppModel -->
<g id="node47" class="node"><title>\\NetCommonsAppModel</title>
<polygon fill="none" stroke="black" points="336,-2641.64 198,-2641.64 198,-2605.64 336,-2605.64 336,-2641.64"/>
<text text-anchor="middle" x="267" y="-2620.74" font-family="Courier,monospace" font-size="11.00">NetCommonsAppModel</text>
</g>
<!-- \\AppModel&#45;&gt;\\NetCommonsAppModel -->
<g id="edge5" class="edge"><title>\\AppModel&#45;&gt;\\NetCommonsAppModel</title>
<path fill="none" stroke="black" d="M527.295,-2623.64C482.672,-2623.64 405.006,-2623.64 346.094,-2623.64"/>
<polygon fill="none" stroke="black" points="346.068,-2620.14 336.068,-2623.64 346.068,-2627.14 346.068,-2620.14"/>
</g>
<!-- \\DatabaseConfiguration -->
<g id="node4" class="node"><title>\\DatabaseConfiguration</title>
<polygon fill="none" stroke="black" points="949,-2614.64 791,-2614.64 791,-2578.64 949,-2578.64 949,-2614.64"/>
<text text-anchor="middle" x="870" y="-2593.74" font-family="Courier,monospace" font-size="11.00">DatabaseConfiguration</text>
</g>
<!-- \\DatabaseConfiguration&#45;&gt;\\AppModel -->
<g id="edge7" class="edge"><title>\\DatabaseConfiguration&#45;&gt;\\AppModel</title>
<path fill="none" stroke="black" d="M790.94,-2603.59C733.175,-2608.67 656.853,-2615.39 608.838,-2619.61"/>
<polygon fill="none" stroke="black" points="608.4,-2616.13 598.745,-2620.5 609.013,-2623.11 608.4,-2616.13"/>
</g>
<!-- \\AppHelper -->
<g id="node5" class="node"><title>\\AppHelper</title>
<polygon fill="none" stroke="black" points="908,-1615.64 832,-1615.64 832,-1579.64 908,-1579.64 908,-1615.64"/>
<text text-anchor="middle" x="870" y="-1594.74" font-family="Courier,monospace" font-size="11.00">AppHelper</text>
</g>
<!-- \\Helper -->
<g id="node65" class="node"><title>\\Helper</title>
<ellipse fill="none" stroke="black" cx="563" cy="-384.64" rx="43.8406" ry="18.3848"/>
<text text-anchor="middle" x="563" y="-381.04" font-family="Times Roman,serif" font-size="14.00" fill="gray">Helper</text>
</g>
<!-- \\AppHelper&#45;&gt;\\Helper -->
<g id="edge9" class="edge"><title>\\AppHelper&#45;&gt;\\Helper</title>
<path fill="none" stroke="black" d="M861.443,-1579.53C839.028,-1531.15 778.502,-1394.39 752,-1273.64 710.553,-1084.8 809.486,-550.201 680,-406.64 664.214,-389.138 639.276,-382.863 616.472,-381.286"/>
<polygon fill="none" stroke="black" points="616.319,-377.777 606.185,-380.868 616.035,-384.771 616.319,-377.777"/>
</g>
<!-- \\NetCommonsDeleteTest -->
<g id="node6" class="node"><title>\\NetCommonsDeleteTest</title>
<polygon fill="none" stroke="black" points="1239,-2560.64 1087,-2560.64 1087,-2524.64 1239,-2524.64 1239,-2560.64"/>
<text text-anchor="middle" x="1163" y="-2539.74" font-family="Courier,monospace" font-size="11.00">NetCommonsDeleteTest</text>
</g>
<!-- \\NetCommonsModelTestCase -->
<g id="node15" class="node"><title>\\NetCommonsModelTestCase</title>
<polygon fill="none" stroke="black" points="956,-2412.64 784,-2412.64 784,-2376.64 956,-2376.64 956,-2412.64"/>
<text text-anchor="middle" x="870" y="-2391.74" font-family="Courier,monospace" font-size="11.00">NetCommonsModelTestCase</text>
</g>
<!-- \\NetCommonsDeleteTest&#45;&gt;\\NetCommonsModelTestCase -->
<g id="edge11" class="edge"><title>\\NetCommonsDeleteTest&#45;&gt;\\NetCommonsModelTestCase</title>
<path fill="none" stroke="black" d="M1086.81,-2528.87C1077.35,-2525.4 1068.16,-2521.06 1060,-2515.64 1016.18,-2486.5 1032.28,-2450.08 988,-2421.64 981.01,-2417.15 973.366,-2413.4 965.435,-2410.27"/>
<polygon fill="none" stroke="black" points="966.61,-2406.98 956.016,-2406.88 964.238,-2413.56 966.61,-2406.98"/>
</g>
<!-- \\NetCommonsConsoleTestCase -->
<g id="node7" class="node"><title>\\NetCommonsConsoleTestCase</title>
<polygon fill="none" stroke="black" points="962,-2297.64 778,-2297.64 778,-2261.64 962,-2261.64 962,-2297.64"/>
<text text-anchor="middle" x="870" y="-2276.74" font-family="Courier,monospace" font-size="11.00">NetCommonsConsoleTestCase</text>
</g>
<!-- \\NetCommonsCakeTestCase -->
<g id="node13" class="node"><title>\\NetCommonsCakeTestCase</title>
<polygon fill="none" stroke="black" points="645,-2364.64 481,-2364.64 481,-2328.64 645,-2328.64 645,-2364.64"/>
<text text-anchor="middle" x="563" y="-2343.74" font-family="Courier,monospace" font-size="11.00">NetCommonsCakeTestCase</text>
</g>
<!-- \\NetCommonsConsoleTestCase&#45;&gt;\\NetCommonsCakeTestCase -->
<g id="edge13" class="edge"><title>\\NetCommonsConsoleTestCase&#45;&gt;\\NetCommonsCakeTestCase</title>
<path fill="none" stroke="black" d="M787.326,-2297.68C746.633,-2306.56 697.435,-2317.3 655.494,-2326.45"/>
<polygon fill="none" stroke="black" points="654.579,-2323.07 645.555,-2328.62 656.072,-2329.91 654.579,-2323.07"/>
</g>
<!-- \\NetCommonsGetTest -->
<g id="node8" class="node"><title>\\NetCommonsGetTest</title>
<polygon fill="none" stroke="black" points="1228,-2506.64 1098,-2506.64 1098,-2470.64 1228,-2470.64 1228,-2506.64"/>
<text text-anchor="middle" x="1163" y="-2485.74" font-family="Courier,monospace" font-size="11.00">NetCommonsGetTest</text>
</g>
<!-- \\NetCommonsGetTest&#45;&gt;\\NetCommonsModelTestCase -->
<g id="edge15" class="edge"><title>\\NetCommonsGetTest&#45;&gt;\\NetCommonsModelTestCase</title>
<path fill="none" stroke="black" d="M1097.36,-2474.07C1084.78,-2470.54 1071.84,-2466.39 1060,-2461.64 1026.03,-2448 1022.18,-2434.74 988,-2421.64 980.894,-2418.92 973.438,-2416.42 965.872,-2414.15"/>
<polygon fill="none" stroke="black" points="966.826,-2410.78 956.248,-2411.39 964.894,-2417.51 966.826,-2410.78"/>
</g>
<!-- \\NetCommonsHelperTestCase -->
<g id="node9" class="node"><title>\\NetCommonsHelperTestCase</title>
<polygon fill="none" stroke="black" points="959,-2466.64 781,-2466.64 781,-2430.64 959,-2430.64 959,-2466.64"/>
<text text-anchor="middle" x="870" y="-2445.74" font-family="Courier,monospace" font-size="11.00">NetCommonsHelperTestCase</text>
</g>
<!-- \\NetCommonsHelperTestCase&#45;&gt;\\NetCommonsCakeTestCase -->
<g id="edge17" class="edge"><title>\\NetCommonsHelperTestCase&#45;&gt;\\NetCommonsCakeTestCase</title>
<path fill="none" stroke="black" d="M784.191,-2430.63C773.288,-2427.86 762.335,-2424.85 752,-2421.64 703.675,-2406.62 650.208,-2384.9 612.51,-2368.7"/>
<polygon fill="none" stroke="black" points="613.846,-2365.47 603.278,-2364.71 611.066,-2371.89 613.846,-2365.47"/>
</g>
<!-- \\NetCommonsControllerBaseTestCase -->
<g id="node10" class="node"><title>\\NetCommonsControllerBaseTestCase</title>
<polygon fill="none" stroke="black" points="679,-2479.64 447,-2479.64 447,-2443.64 679,-2443.64 679,-2479.64"/>
<text text-anchor="middle" x="563" y="-2458.74" font-family="Courier,monospace" font-size="11.00">NetCommonsControllerBaseTestCase</text>
</g>
<!-- \\ControllerTestCase -->
<g id="node71" class="node"><title>\\ControllerTestCase</title>
<ellipse fill="none" stroke="black" cx="267" cy="-384.64" rx="106.773" ry="18.3848"/>
<text text-anchor="middle" x="267" y="-381.04" font-family="Times Roman,serif" font-size="14.00" fill="gray">\ControllerTestCase</text>
</g>
<!-- \\NetCommonsControllerBaseTestCase&#45;&gt;\\ControllerTestCase -->
<g id="edge19" class="edge"><title>\\NetCommonsControllerBaseTestCase&#45;&gt;\\ControllerTestCase</title>
<path fill="none" stroke="black" d="M523.424,-2443.55C496.397,-2428.88 462.589,-2405.41 446,-2373.64 344.764,-2179.78 515.276,-573.587 374,-406.64 371.99,-404.265 369.798,-402.103 367.456,-400.139"/>
<polygon fill="none" stroke="black" points="369.159,-397.059 358.96,-394.19 365.144,-402.793 369.159,-397.059"/>
</g>
<!-- \\NetCommonsValidateTest -->
<g id="node11" class="node"><title>\\NetCommonsValidateTest</title>
<polygon fill="none" stroke="black" points="1245,-2452.64 1081,-2452.64 1081,-2416.64 1245,-2416.64 1245,-2452.64"/>
<text text-anchor="middle" x="1163" y="-2431.74" font-family="Courier,monospace" font-size="11.00">NetCommonsValidateTest</text>
</g>
<!-- \\NetCommonsValidateTest&#45;&gt;\\NetCommonsModelTestCase -->
<g id="edge21" class="edge"><title>\\NetCommonsValidateTest&#45;&gt;\\NetCommonsModelTestCase</title>
<path fill="none" stroke="black" d="M1080.21,-2423.34C1044.79,-2418.5 1003.2,-2412.82 966.397,-2407.8"/>
<polygon fill="none" stroke="black" points="966.536,-2404.29 956.154,-2406.4 965.589,-2411.22 966.536,-2404.29"/>
</g>
<!-- \\NetCommonsTestSuite -->
<g id="node12" class="node"><title>\\NetCommonsTestSuite</title>
<polygon fill="none" stroke="black" points="1235,-1156.64 1091,-1156.64 1091,-1120.64 1235,-1120.64 1235,-1156.64"/>
<text text-anchor="middle" x="1163" y="-1135.74" font-family="Courier,monospace" font-size="11.00">NetCommonsTestSuite</text>
</g>
<!-- \\CakeTestSuite -->
<g id="node74" class="node"><title>\\CakeTestSuite</title>
<ellipse fill="none" stroke="black" cx="870" cy="-384.64" rx="84.1457" ry="18.3848"/>
<text text-anchor="middle" x="870" y="-381.04" font-family="Times Roman,serif" font-size="14.00" fill="gray">\CakeTestSuite</text>
</g>
<!-- \\NetCommonsTestSuite&#45;&gt;\\CakeTestSuite -->
<g id="edge23" class="edge"><title>\\NetCommonsTestSuite&#45;&gt;\\CakeTestSuite</title>
<path fill="none" stroke="black" d="M1090.38,-1131.51C1078.79,-1127.29 1068,-1120.98 1060,-1111.64 957.575,-992.017 1094.67,-522.496 988,-406.64 981.119,-399.166 972.58,-393.741 963.263,-389.855"/>
<polygon fill="none" stroke="black" points="964.315,-386.514 953.72,-386.464 961.97,-393.11 964.315,-386.514"/>
</g>
<!-- \\CakeTestCase -->
<g id="node76" class="node"><title>\\CakeTestCase</title>
<ellipse fill="none" stroke="black" cx="267" cy="-330.64" rx="82.0244" ry="18.3848"/>
<text text-anchor="middle" x="267" y="-327.04" font-family="Times Roman,serif" font-size="14.00" fill="gray">\CakeTestCase</text>
</g>
<!-- \\NetCommonsCakeTestCase&#45;&gt;\\CakeTestCase -->
<g id="edge25" class="edge"><title>\\NetCommonsCakeTestCase&#45;&gt;\\CakeTestCase</title>
<path fill="none" stroke="black" d="M560.287,-2328.59C546.271,-2234.74 481.355,-1793.04 446,-1429.64 434.44,-1310.82 450.48,-449.303 374,-357.64 368.203,-350.692 360.904,-345.389 352.854,-341.361"/>
<polygon fill="none" stroke="black" points="354.055,-338.067 343.485,-337.334 351.29,-344.498 354.055,-338.067"/>
</g>
<!-- \\NetCommonsSaveTest -->
<g id="node14" class="node"><title>\\NetCommonsSaveTest</title>
<polygon fill="none" stroke="black" points="1232,-2398.64 1094,-2398.64 1094,-2362.64 1232,-2362.64 1232,-2398.64"/>
<text text-anchor="middle" x="1163" y="-2377.74" font-family="Courier,monospace" font-size="11.00">NetCommonsSaveTest</text>
</g>
<!-- \\NetCommonsSaveTest&#45;&gt;\\NetCommonsModelTestCase -->
<g id="edge27" class="edge"><title>\\NetCommonsSaveTest&#45;&gt;\\NetCommonsModelTestCase</title>
<path fill="none" stroke="black" d="M1093.93,-2383.94C1055.88,-2385.76 1008.03,-2388.04 966.349,-2390.04"/>
<polygon fill="none" stroke="black" points="965.994,-2386.55 956.172,-2390.52 966.328,-2393.54 965.994,-2386.55"/>
</g>
<!-- \\NetCommonsModelTestCase&#45;&gt;\\NetCommonsCakeTestCase -->
<g id="edge29" class="edge"><title>\\NetCommonsModelTestCase&#45;&gt;\\NetCommonsCakeTestCase</title>
<path fill="none" stroke="black" d="M783.666,-2381.14C743.689,-2374.89 696.141,-2367.46 655.437,-2361.09"/>
<polygon fill="none" stroke="black" points="655.937,-2357.63 645.516,-2359.54 654.856,-2364.54 655.937,-2357.63"/>
</g>
<!-- \\NetCommonsControllerTestCase -->
<g id="node16" class="node"><title>\\NetCommonsControllerTestCase</title>
<polygon fill="none" stroke="black" points="973,-2547.64 767,-2547.64 767,-2511.64 973,-2511.64 973,-2547.64"/>
<text text-anchor="middle" x="870" y="-2526.74" font-family="Courier,monospace" font-size="11.00">NetCommonsControllerTestCase</text>
</g>
<!-- \\NetCommonsControllerTestCase&#45;&gt;\\NetCommonsControllerBaseTestCase -->
<g id="edge31" class="edge"><title>\\NetCommonsControllerTestCase&#45;&gt;\\NetCommonsControllerBaseTestCase</title>
<path fill="none" stroke="black" d="M788.536,-2511.6C747.171,-2502.43 696.78,-2491.27 654.13,-2481.82"/>
<polygon fill="none" stroke="black" points="654.832,-2478.4 644.312,-2479.65 653.318,-2485.23 654.832,-2478.4"/>
</g>
<!-- \\NetCommonsAppController -->
<g id="node17" class="node"><title>\\NetCommonsAppController</title>
<polygon fill="none" stroke="black" points="956,-1264.64 784,-1264.64 784,-1228.64 956,-1228.64 956,-1264.64"/>
<text text-anchor="middle" x="870" y="-1243.74" font-family="Courier,monospace" font-size="11.00">NetCommonsAppController</text>
</g>
<!-- \\NetCommonsAppController&#45;&gt;\\Controller -->
<g id="edge33" class="edge"><title>\\NetCommonsAppController&#45;&gt;\\Controller</title>
<path fill="none" stroke="black" d="M863.68,-1228.35C844.324,-1171.71 785.166,-993.955 752,-842.64 728.671,-736.207 755.242,-436.448 680,-357.64 590.636,-264.04 427.244,-261.182 335.029,-268.309"/>
<polygon fill="none" stroke="black" points="334.64,-264.829 324.966,-269.149 335.222,-271.805 334.64,-264.829"/>
</g>
<!-- \\AssetComponent -->
<g id="node18" class="node"><title>\\AssetComponent</title>
<polygon fill="none" stroke="black" points="1218,-1102.64 1108,-1102.64 1108,-1066.64 1218,-1066.64 1218,-1102.64"/>
<text text-anchor="middle" x="1163" y="-1081.74" font-family="Courier,monospace" font-size="11.00">AssetComponent</text>
</g>
<!-- \\Component -->
<g id="node82" class="node"><title>\\Component</title>
<ellipse fill="none" stroke="black" cx="870" cy="-330.64" rx="70.9184" ry="18.3848"/>
<text text-anchor="middle" x="870" y="-327.04" font-family="Times Roman,serif" font-size="14.00" fill="gray">\Component</text>
</g>
<!-- \\AssetComponent&#45;&gt;\\Component -->
<g id="edge35" class="edge"><title>\\AssetComponent&#45;&gt;\\Component</title>
<path fill="none" stroke="black" d="M1107.47,-1082.26C1089.83,-1078.65 1071.85,-1071.47 1060,-1057.64 856.502,-820.147 1195.2,-591.906 988,-357.64 978.271,-346.64 965.062,-339.634 950.998,-335.26"/>
<polygon fill="none" stroke="black" points="951.72,-331.831 941.156,-332.636 949.917,-338.594 951.72,-331.831"/>
</g>
<!-- \\NetCommonsTimeComponent -->
<g id="node19" class="node"><title>\\NetCommonsTimeComponent</title>
<polygon fill="none" stroke="black" points="1249,-1048.64 1077,-1048.64 1077,-1012.64 1249,-1012.64 1249,-1048.64"/>
<text text-anchor="middle" x="1163" y="-1027.74" font-family="Courier,monospace" font-size="11.00">NetCommonsTimeComponent</text>
</g>
<!-- \\NetCommonsTimeComponent&#45;&gt;\\Component -->
<g id="edge37" class="edge"><title>\\NetCommonsTimeComponent&#45;&gt;\\Component</title>
<path fill="none" stroke="black" d="M1076.61,-1017.09C1070.38,-1013.51 1064.71,-1009.09 1060,-1003.64 871.099,-785.069 1180.31,-573.215 988,-357.64 978.225,-346.682 964.994,-339.694 950.924,-335.326"/>
<polygon fill="none" stroke="black" points="951.644,-331.896 941.08,-332.704 949.842,-338.66 951.644,-331.896"/>
</g>
<!-- \\PermissionComponent -->
<g id="node20" class="node"><title>\\PermissionComponent</title>
<polygon fill="none" stroke="black" points="1235,-994.64 1091,-994.64 1091,-958.64 1235,-958.64 1235,-994.64"/>
<text text-anchor="middle" x="1163" y="-973.74" font-family="Courier,monospace" font-size="11.00">PermissionComponent</text>
</g>
<!-- \\PermissionComponent&#45;&gt;\\Component -->
<g id="edge39" class="edge"><title>\\PermissionComponent&#45;&gt;\\Component</title>
<path fill="none" stroke="black" d="M1090.27,-969.286C1078.76,-965.077 1068.02,-958.831 1060,-949.64 885.683,-749.977 1165.43,-554.539 988,-357.64 978.227,-346.794 965.069,-339.847 951.082,-335.48"/>
<polygon fill="none" stroke="black" points="951.864,-332.066 941.298,-332.853 950.049,-338.827 951.864,-332.066"/>
</g>
<!-- \\NetCommonsComponent -->
<g id="node21" class="node"><title>\\NetCommonsComponent</title>
<polygon fill="none" stroke="black" points="1235,-940.64 1091,-940.64 1091,-904.64 1235,-904.64 1235,-940.64"/>
<text text-anchor="middle" x="1163" y="-919.74" font-family="Courier,monospace" font-size="11.00">NetCommonsComponent</text>
</g>
<!-- \\NetCommonsComponent&#45;&gt;\\Component -->
<g id="edge41" class="edge"><title>\\NetCommonsComponent&#45;&gt;\\Component</title>
<path fill="none" stroke="black" d="M1090.36,-915.207C1078.84,-911.005 1068.08,-904.782 1060,-895.64 900.252,-714.867 1150.57,-535.88 988,-357.64 978.162,-346.853 964.974,-339.933 950.979,-335.574"/>
<polygon fill="none" stroke="black" points="951.757,-332.159 941.192,-332.95 949.944,-338.92 951.757,-332.159"/>
</g>
<!-- \\NetCommonsController -->
<g id="node22" class="node"><title>\\NetCommonsController</title>
<polygon fill="none" stroke="black" points="1239,-1264.64 1087,-1264.64 1087,-1228.64 1239,-1228.64 1239,-1264.64"/>
<text text-anchor="middle" x="1163" y="-1243.74" font-family="Courier,monospace" font-size="11.00">NetCommonsController</text>
</g>
<!-- \\NetCommonsController&#45;&gt;\\NetCommonsAppController -->
<g id="edge43" class="edge"><title>\\NetCommonsController&#45;&gt;\\NetCommonsAppController</title>
<path fill="none" stroke="black" d="M1086.78,-1246.64C1050.05,-1246.64 1005.59,-1246.64 966.519,-1246.64"/>
<polygon fill="none" stroke="black" points="966.183,-1243.14 956.183,-1246.64 966.183,-1250.14 966.183,-1243.14"/>
</g>
<!-- \\NetCommonsUrl -->
<g id="node23" class="node"><title>\\NetCommonsUrl</title>
<polygon fill="none" stroke="black" points="1215,-2128.64 1111,-2128.64 1111,-2092.64 1215,-2092.64 1215,-2128.64"/>
<text text-anchor="middle" x="1163" y="-2107.74" font-family="Courier,monospace" font-size="11.00">NetCommonsUrl</text>
</g>
<!-- \\NetCommonsTime -->
<g id="node24" class="node"><title>\\NetCommonsTime</title>
<polygon fill="none" stroke="black" points="1218,-2074.64 1108,-2074.64 1108,-2038.64 1218,-2038.64 1218,-2074.64"/>
<text text-anchor="middle" x="1163" y="-2053.74" font-family="Courier,monospace" font-size="11.00">NetCommonsTime</text>
</g>
<!-- \\CurrentBase -->
<g id="node25" class="node"><title>\\CurrentBase</title>
<polygon fill="none" stroke="black" points="915,-2351.64 825,-2351.64 825,-2315.64 915,-2315.64 915,-2351.64"/>
<text text-anchor="middle" x="870" y="-2330.74" font-family="Courier,monospace" font-size="11.00">CurrentBase</text>
</g>
<!-- \\Current -->
<g id="node26" class="node"><title>\\Current</title>
<polygon fill="none" stroke="black" points="1195,-2344.64 1131,-2344.64 1131,-2308.64 1195,-2308.64 1195,-2344.64"/>
<text text-anchor="middle" x="1163" y="-2323.74" font-family="Courier,monospace" font-size="11.00">Current</text>
</g>
<!-- \\Current&#45;&gt;\\CurrentBase -->
<g id="edge45" class="edge"><title>\\Current&#45;&gt;\\CurrentBase</title>
<path fill="none" stroke="black" d="M1130.81,-2327.41C1081.48,-2328.59 986.554,-2330.86 925.846,-2332.31"/>
<polygon fill="none" stroke="black" points="925.582,-2328.81 915.669,-2332.55 925.75,-2335.81 925.582,-2328.81"/>
</g>
<!-- \\CurrentSystem -->
<g id="node27" class="node"><title>\\CurrentSystem</title>
<polygon fill="none" stroke="black" points="1215,-1966.64 1111,-1966.64 1111,-1930.64 1215,-1930.64 1215,-1966.64"/>
<text text-anchor="middle" x="1163" y="-1945.74" font-family="Courier,monospace" font-size="11.00">CurrentSystem</text>
</g>
<!-- \\CurrentPage -->
<g id="node28" class="node"><title>\\CurrentPage</title>
<polygon fill="none" stroke="black" points="1208,-1912.64 1118,-1912.64 1118,-1876.64 1208,-1876.64 1208,-1912.64"/>
<text text-anchor="middle" x="1163" y="-1891.74" font-family="Courier,monospace" font-size="11.00">CurrentPage</text>
</g>
<!-- \\CurrentFrame -->
<g id="node29" class="node"><title>\\CurrentFrame</title>
<polygon fill="none" stroke="black" points="1212,-1858.64 1114,-1858.64 1114,-1822.64 1212,-1822.64 1212,-1858.64"/>
<text text-anchor="middle" x="1163" y="-1837.74" font-family="Courier,monospace" font-size="11.00">CurrentFrame</text>
</g>
<!-- \\TokenHelper -->
<g id="node30" class="node"><title>\\TokenHelper</title>
<polygon fill="none" stroke="black" points="1208,-886.64 1118,-886.64 1118,-850.64 1208,-850.64 1208,-886.64"/>
<text text-anchor="middle" x="1163" y="-865.74" font-family="Courier,monospace" font-size="11.00">TokenHelper</text>
</g>
<!-- \\FormHelper -->
<g id="node89" class="node"><title>\\FormHelper</title>
<ellipse fill="none" stroke="black" cx="870" cy="-276.64" rx="70.9184" ry="18.3848"/>
<text text-anchor="middle" x="870" y="-273.04" font-family="Times Roman,serif" font-size="14.00" fill="gray">\FormHelper</text>
</g>
<!-- \\TokenHelper&#45;&gt;\\FormHelper -->
<g id="edge47" class="edge"><title>\\TokenHelper&#45;&gt;\\FormHelper</title>
<path fill="none" stroke="black" d="M1117.28,-867.701C1096.87,-864.819 1074.26,-857.778 1060,-841.64 900.252,-660.867 1150.57,-481.88 988,-303.64 978.162,-292.853 964.974,-285.933 950.979,-281.574"/>
<polygon fill="none" stroke="black" points="951.757,-278.159 941.192,-278.95 949.944,-284.92 951.757,-278.159"/>
</g>
<!-- \\SingletonViewBlockHtmlHelper -->
<g id="node31" class="node"><title>\\SingletonViewBlockHtmlHelper</title>
<polygon fill="none" stroke="black" points="1266,-724.64 1060,-724.64 1060,-688.64 1266,-688.64 1266,-724.64"/>
<text text-anchor="middle" x="1163" y="-703.74" font-family="Courier,monospace" font-size="11.00">SingletonViewBlockHtmlHelper</text>
</g>
<!-- \\HtmlHelper -->
<g id="node91" class="node"><title>\\HtmlHelper</title>
<ellipse fill="none" stroke="black" cx="870" cy="-222.64" rx="67.1751" ry="18.3848"/>
<text text-anchor="middle" x="870" y="-219.04" font-family="Times Roman,serif" font-size="14.00" fill="gray">HtmlHelper</text>
</g>
<!-- \\SingletonViewBlockHtmlHelper&#45;&gt;\\HtmlHelper -->
<g id="edge49" class="edge"><title>\\SingletonViewBlockHtmlHelper&#45;&gt;\\HtmlHelper</title>
<path fill="none" stroke="black" d="M1069.92,-688.378C1066.33,-685.814 1062.99,-682.916 1060,-679.64 929.318,-536.567 1120.91,-390.641 988,-249.64 977.121,-238.099 962.401,-231.016 947.051,-226.766"/>
<polygon fill="none" stroke="black" points="947.444,-223.262 936.906,-224.363 945.83,-230.073 947.444,-223.262"/>
</g>
<!-- \\FormInputHelper -->
<g id="node32" class="node"><title>\\FormInputHelper</title>
<polygon fill="none" stroke="black" points="1222,-2236.64 1104,-2236.64 1104,-2200.64 1222,-2200.64 1222,-2236.64"/>
<text text-anchor="middle" x="1163" y="-2215.74" font-family="Courier,monospace" font-size="11.00">FormInputHelper</text>
</g>
<!-- \\FormInputHelper&#45;&gt;\\AppHelper -->
<g id="edge51" class="edge"><title>\\FormInputHelper&#45;&gt;\\AppHelper</title>
<path fill="none" stroke="black" d="M1103.98,-2214.24C1087.89,-2210.33 1071.69,-2203.48 1060,-2191.64 966.708,-2097.13 1028.11,-2028.24 988,-1901.64 955.071,-1797.7 904.904,-1678.1 882.072,-1625.22"/>
<polygon fill="none" stroke="black" points="885.199,-1623.64 878.01,-1615.85 878.777,-1626.42 885.199,-1623.64"/>
</g>
<!-- \\WizardHelper -->
<g id="node33" class="node"><title>\\WizardHelper</title>
<polygon fill="none" stroke="black" points="1212,-2182.64 1114,-2182.64 1114,-2146.64 1212,-2146.64 1212,-2182.64"/>
<text text-anchor="middle" x="1163" y="-2161.74" font-family="Courier,monospace" font-size="11.00">WizardHelper</text>
</g>
<!-- \\WizardHelper&#45;&gt;\\AppHelper -->
<g id="edge53" class="edge"><title>\\WizardHelper&#45;&gt;\\AppHelper</title>
<path fill="none" stroke="black" d="M1113.96,-2161.87C1094.98,-2158.44 1074.4,-2151.47 1060,-2137.64 980.932,-2061.65 1023.87,-2005.27 988,-1901.64 952.34,-1798.6 903.552,-1678.55 881.57,-1625.39"/>
<polygon fill="none" stroke="black" points="884.727,-1623.87 877.664,-1615.97 878.26,-1626.55 884.727,-1623.87"/>
</g>
<!-- \\DisplayNumberHelper -->
<g id="node34" class="node"><title>\\DisplayNumberHelper</title>
<polygon fill="none" stroke="black" points="1235,-2020.64 1091,-2020.64 1091,-1984.64 1235,-1984.64 1235,-2020.64"/>
<text text-anchor="middle" x="1163" y="-1999.74" font-family="Courier,monospace" font-size="11.00">DisplayNumberHelper</text>
</g>
<!-- \\DisplayNumberHelper&#45;&gt;\\AppHelper -->
<g id="edge55" class="edge"><title>\\DisplayNumberHelper&#45;&gt;\\AppHelper</title>
<path fill="none" stroke="black" d="M1090.28,-1991.96C1079.37,-1988.07 1068.84,-1982.79 1060,-1975.64 943.272,-1881.11 891.79,-1696.39 875.802,-1625.9"/>
<polygon fill="none" stroke="black" points="879.185,-1624.99 873.616,-1615.97 872.349,-1626.49 879.185,-1624.99"/>
</g>
<!-- \\MessageFlashHelper -->
<g id="node35" class="node"><title>\\MessageFlashHelper</title>
<polygon fill="none" stroke="black" points="1232,-1804.64 1094,-1804.64 1094,-1768.64 1232,-1768.64 1232,-1804.64"/>
<text text-anchor="middle" x="1163" y="-1783.74" font-family="Courier,monospace" font-size="11.00">MessageFlashHelper</text>
</g>
<!-- \\MessageFlashHelper&#45;&gt;\\AppHelper -->
<g id="edge57" class="edge"><title>\\MessageFlashHelper&#45;&gt;\\AppHelper</title>
<path fill="none" stroke="black" d="M1093.79,-1773.1C1082.17,-1769.54 1070.49,-1765.12 1060,-1759.64 991.41,-1723.83 926.097,-1659.19 892.838,-1623.34"/>
<polygon fill="none" stroke="black" points="895.192,-1620.73 885.854,-1615.73 890.033,-1625.47 895.192,-1620.73"/>
</g>
<!-- \\DateHelper -->
<g id="node36" class="node"><title>\\DateHelper</title>
<polygon fill="none" stroke="black" points="1205,-1750.64 1121,-1750.64 1121,-1714.64 1205,-1714.64 1205,-1750.64"/>
<text text-anchor="middle" x="1163" y="-1729.74" font-family="Courier,monospace" font-size="11.00">DateHelper</text>
</g>
<!-- \\DateHelper&#45;&gt;\\AppHelper -->
<g id="edge59" class="edge"><title>\\DateHelper&#45;&gt;\\AppHelper</title>
<path fill="none" stroke="black" d="M1120.85,-1724.21C1101.88,-1719.75 1079.43,-1713.55 1060,-1705.64 1003.07,-1682.46 942.097,-1645.36 905.004,-1621.25"/>
<polygon fill="none" stroke="black" points="906.839,-1618.27 896.557,-1615.71 903.002,-1624.12 906.839,-1618.27"/>
</g>
<!-- \\SnsButtonHelper -->
<g id="node37" class="node"><title>\\SnsButtonHelper</title>
<polygon fill="none" stroke="black" points="1222,-1696.64 1104,-1696.64 1104,-1660.64 1222,-1660.64 1222,-1696.64"/>
<text text-anchor="middle" x="1163" y="-1675.74" font-family="Courier,monospace" font-size="11.00">SnsButtonHelper</text>
</g>
<!-- \\SnsButtonHelper&#45;&gt;\\AppHelper -->
<g id="edge61" class="edge"><title>\\SnsButtonHelper&#45;&gt;\\AppHelper</title>
<path fill="none" stroke="black" d="M1103.85,-1663.36C1089.48,-1659.58 1074.18,-1655.51 1060,-1651.64 1011.72,-1638.45 956.728,-1622.75 918.375,-1611.68"/>
<polygon fill="none" stroke="black" points="919.087,-1608.25 908.508,-1608.83 917.145,-1614.97 919.087,-1608.25"/>
</g>
<!-- \\BackToHelper -->
<g id="node38" class="node"><title>\\BackToHelper</title>
<polygon fill="none" stroke="black" points="1212,-1642.64 1114,-1642.64 1114,-1606.64 1212,-1606.64 1212,-1642.64"/>
<text text-anchor="middle" x="1163" y="-1621.74" font-family="Courier,monospace" font-size="11.00">BackToHelper</text>
</g>
<!-- \\BackToHelper&#45;&gt;\\AppHelper -->
<g id="edge63" class="edge"><title>\\BackToHelper&#45;&gt;\\AppHelper</title>
<path fill="none" stroke="black" d="M1113.96,-1620.12C1059.78,-1615.13 973.056,-1607.14 918.925,-1602.15"/>
<polygon fill="none" stroke="black" points="919.161,-1598.66 908.882,-1601.22 918.519,-1605.63 919.161,-1598.66"/>
</g>
<!-- \\NetCommonsHtmlHelper -->
<g id="node39" class="node"><title>\\NetCommonsHtmlHelper</title>
<polygon fill="none" stroke="black" points="1239,-1588.64 1087,-1588.64 1087,-1552.64 1239,-1552.64 1239,-1588.64"/>
<text text-anchor="middle" x="1163" y="-1567.74" font-family="Courier,monospace" font-size="11.00">NetCommonsHtmlHelper</text>
</g>
<!-- \\NetCommonsHtmlHelper&#45;&gt;\\AppHelper -->
<g id="edge65" class="edge"><title>\\NetCommonsHtmlHelper&#45;&gt;\\AppHelper</title>
<path fill="none" stroke="black" d="M1086.78,-1577.66C1033.66,-1582.56 964.376,-1588.94 918.603,-1593.16"/>
<polygon fill="none" stroke="black" points="918.274,-1589.68 908.638,-1594.08 918.917,-1596.65 918.274,-1589.68"/>
</g>
<!-- \\ButtonHelper -->
<g id="node40" class="node"><title>\\ButtonHelper</title>
<polygon fill="none" stroke="black" points="1212,-832.64 1114,-832.64 1114,-796.64 1212,-796.64 1212,-832.64"/>
<text text-anchor="middle" x="1163" y="-811.74" font-family="Courier,monospace" font-size="11.00">ButtonHelper</text>
</g>
<!-- \\ButtonHelper&#45;&gt;\\FormHelper -->
<g id="edge67" class="edge"><title>\\ButtonHelper&#45;&gt;\\FormHelper</title>
<path fill="none" stroke="black" d="M1113.96,-813.083C1094.5,-809.892 1073.58,-802.778 1060,-787.64 914.8,-625.733 1135.73,-463.245 988,-303.64 978.083,-292.925 964.859,-286.038 950.853,-281.689"/>
<polygon fill="none" stroke="black" points="951.628,-278.273 941.063,-279.068 949.818,-285.035 951.628,-278.273"/>
</g>
<!-- \\ComposerHelper -->
<g id="node41" class="node"><title>\\ComposerHelper</title>
<polygon fill="none" stroke="black" points="1218,-1534.64 1108,-1534.64 1108,-1498.64 1218,-1498.64 1218,-1534.64"/>
<text text-anchor="middle" x="1163" y="-1513.74" font-family="Courier,monospace" font-size="11.00">ComposerHelper</text>
</g>
<!-- \\ComposerHelper&#45;&gt;\\AppHelper -->
<g id="edge69" class="edge"><title>\\ComposerHelper&#45;&gt;\\AppHelper</title>
<path fill="none" stroke="black" d="M1107.35,-1531C1091.99,-1535.03 1075.34,-1539.45 1060,-1543.64 1011.72,-1556.83 956.728,-1572.53 918.375,-1583.59"/>
<polygon fill="none" stroke="black" points="917.145,-1580.31 908.508,-1586.44 919.087,-1587.03 917.145,-1580.31"/>
</g>
<!-- \\LinkButtonHelper -->
<g id="node42" class="node"><title>\\LinkButtonHelper</title>
<polygon fill="none" stroke="black" points="1225,-778.64 1101,-778.64 1101,-742.64 1225,-742.64 1225,-778.64"/>
<text text-anchor="middle" x="1163" y="-757.74" font-family="Courier,monospace" font-size="11.00">LinkButtonHelper</text>
</g>
<!-- \\LinkButtonHelper&#45;&gt;\\FormHelper -->
<g id="edge71" class="edge"><title>\\LinkButtonHelper&#45;&gt;\\FormHelper</title>
<path fill="none" stroke="black" d="M1100.44,-756.052C1085.34,-752.035 1070.53,-745.173 1060,-733.64 929.318,-590.567 1120.91,-444.641 988,-303.64 977.986,-293.016 964.718,-286.17 950.698,-281.834"/>
<polygon fill="none" stroke="black" points="951.468,-278.417 940.904,-279.217 949.661,-285.18 951.468,-278.417"/>
</g>
<!-- \\NetCommonsTimeHelper -->
<g id="node43" class="node"><title>\\NetCommonsTimeHelper</title>
<polygon fill="none" stroke="black" points="1239,-1480.64 1087,-1480.64 1087,-1444.64 1239,-1444.64 1239,-1480.64"/>
<text text-anchor="middle" x="1163" y="-1459.74" font-family="Courier,monospace" font-size="11.00">NetCommonsTimeHelper</text>
</g>
<!-- \\NetCommonsTimeHelper&#45;&gt;\\AppHelper -->
<g id="edge73" class="edge"><title>\\NetCommonsTimeHelper&#45;&gt;\\AppHelper</title>
<path fill="none" stroke="black" d="M1086.88,-1480.18C1077.71,-1483 1068.56,-1486.15 1060,-1489.64 1003.07,-1512.82 942.097,-1549.91 905.004,-1574.03"/>
<polygon fill="none" stroke="black" points="903.002,-1571.16 896.557,-1579.56 906.839,-1577.01 903.002,-1571.16"/>
</g>
<!-- \\NetCommonsFormHelper -->
<g id="node44" class="node"><title>\\NetCommonsFormHelper</title>
<polygon fill="none" stroke="black" points="1239,-1426.64 1087,-1426.64 1087,-1390.64 1239,-1390.64 1239,-1426.64"/>
<text text-anchor="middle" x="1163" y="-1405.74" font-family="Courier,monospace" font-size="11.00">NetCommonsFormHelper</text>
</g>
<!-- \\NetCommonsFormHelper&#45;&gt;\\AppHelper -->
<g id="edge75" class="edge"><title>\\NetCommonsFormHelper&#45;&gt;\\AppHelper</title>
<path fill="none" stroke="black" d="M1086.98,-1424.37C1077.65,-1427.51 1068.44,-1431.23 1060,-1435.64 991.41,-1471.45 926.097,-1536.08 892.838,-1571.93"/>
<polygon fill="none" stroke="black" points="890.033,-1569.81 885.854,-1579.55 895.192,-1574.55 890.033,-1569.81"/>
</g>
<!-- \\TitleIconHelper -->
<g id="node45" class="node"><title>\\TitleIconHelper</title>
<polygon fill="none" stroke="black" points="1222,-1372.64 1104,-1372.64 1104,-1336.64 1222,-1336.64 1222,-1372.64"/>
<text text-anchor="middle" x="1163" y="-1351.74" font-family="Courier,monospace" font-size="11.00">TitleIconHelper</text>
</g>
<!-- \\TitleIconHelper&#45;&gt;\\AppHelper -->
<g id="edge77" class="edge"><title>\\TitleIconHelper&#45;&gt;\\AppHelper</title>
<path fill="none" stroke="black" d="M1103.89,-1363.78C1088.85,-1367.78 1073.22,-1373.49 1060,-1381.64 979.876,-1431.08 914.727,-1524.83 885.946,-1570.83"/>
<polygon fill="none" stroke="black" points="882.792,-1569.28 880.523,-1579.62 888.75,-1572.95 882.792,-1569.28"/>
</g>
<!-- \\DatetimePickerHelper -->
<g id="node46" class="node"><title>\\DatetimePickerHelper</title>
<polygon fill="none" stroke="black" points="1239,-1318.64 1087,-1318.64 1087,-1282.64 1239,-1282.64 1239,-1318.64"/>
<text text-anchor="middle" x="1163" y="-1297.74" font-family="Courier,monospace" font-size="11.00">DatetimePickerHelper</text>
</g>
<!-- \\DatetimePickerHelper&#45;&gt;\\AppHelper -->
<g id="edge79" class="edge"><title>\\DatetimePickerHelper&#45;&gt;\\AppHelper</title>
<path fill="none" stroke="black" d="M1086.86,-1314.01C1077.35,-1317.54 1068.12,-1322 1060,-1327.64 968.034,-1391.5 905.79,-1515.11 881.457,-1570.1"/>
<polygon fill="none" stroke="black" points="878.13,-1568.98 877.356,-1579.54 884.551,-1571.77 878.13,-1568.98"/>
</g>
<!-- \\Model -->
<g id="node108" class="node"><title>\\Model</title>
<ellipse fill="none" stroke="black" cx="44" cy="-2623.64" rx="43.8406" ry="18.3848"/>
<text text-anchor="middle" x="44" y="-2620.04" font-family="Times Roman,serif" font-size="14.00" fill="gray">\Model</text>
</g>
<!-- \\NetCommonsAppModel&#45;&gt;\\Model -->
<g id="edge81" class="edge"><title>\\NetCommonsAppModel&#45;&gt;\\Model</title>
<path fill="none" stroke="black" d="M197.969,-2623.64C165.93,-2623.64 128.391,-2623.64 98.4002,-2623.64"/>
<polygon fill="none" stroke="black" points="98.1284,-2620.14 88.1284,-2623.64 98.1284,-2627.14 98.1284,-2620.14"/>
</g>
<!-- \\OriginalKeyBehavior -->
<g id="node48" class="node"><title>\\OriginalKeyBehavior</title>
<polygon fill="none" stroke="black" points="1235,-670.64 1091,-670.64 1091,-634.64 1235,-634.64 1235,-670.64"/>
<text text-anchor="middle" x="1163" y="-649.74" font-family="Courier,monospace" font-size="11.00">OriginalKeyBehavior</text>
</g>
<!-- \\ModelBehavior -->
<g id="node110" class="node"><title>\\ModelBehavior</title>
<ellipse fill="none" stroke="black" cx="870" cy="-168.64" rx="86.9741" ry="18.3848"/>
<text text-anchor="middle" x="870" y="-165.04" font-family="Times Roman,serif" font-size="14.00" fill="gray">\ModelBehavior</text>
</g>
<!-- \\OriginalKeyBehavior&#45;&gt;\\ModelBehavior -->
<g id="edge83" class="edge"><title>\\OriginalKeyBehavior&#45;&gt;\\ModelBehavior</title>
<path fill="none" stroke="black" d="M1090.34,-644.89C1078.9,-640.713 1068.17,-634.58 1060,-625.64 929.318,-482.567 1120.91,-336.641 988,-195.64 980.736,-187.933 971.758,-182.214 962.025,-178"/>
<polygon fill="none" stroke="black" points="963.083,-174.658 952.491,-174.404 960.613,-181.208 963.083,-174.658"/>
</g>
<!-- \\TrackableBehavior -->
<g id="node49" class="node"><title>\\TrackableBehavior</title>
<polygon fill="none" stroke="black" points="1228,-616.64 1098,-616.64 1098,-580.64 1228,-580.64 1228,-616.64"/>
<text text-anchor="middle" x="1163" y="-595.74" font-family="Courier,monospace" font-size="11.00">TrackableBehavior</text>
</g>
<!-- \\TrackableBehavior&#45;&gt;\\ModelBehavior -->
<g id="edge85" class="edge"><title>\\TrackableBehavior&#45;&gt;\\ModelBehavior</title>
<path fill="none" stroke="black" d="M1097.41,-592.987C1083.43,-588.878 1069.91,-582.24 1060,-571.64 943.795,-447.355 1106.14,-318.083 988,-195.64 980.646,-188.018 971.615,-182.351 961.852,-178.164"/>
<polygon fill="none" stroke="black" points="962.89,-174.816 952.298,-174.588 960.436,-181.372 962.89,-174.816"/>
</g>
<!-- \\YAExceptionRenderer -->
<g id="node50" class="node"><title>\\YAExceptionRenderer</title>
<polygon fill="none" stroke="black" points="1235,-562.64 1091,-562.64 1091,-526.64 1235,-526.64 1235,-562.64"/>
<text text-anchor="middle" x="1163" y="-541.74" font-family="Courier,monospace" font-size="11.00">YAExceptionRenderer</text>
</g>
<!-- \\ExceptionRenderer -->
<g id="node113" class="node"><title>\\ExceptionRenderer</title>
<ellipse fill="none" stroke="black" cx="870" cy="-114.64" rx="118.087" ry="18.3848"/>
<text text-anchor="middle" x="870" y="-111.04" font-family="Times Roman,serif" font-size="14.00" fill="gray">TEHxceptionRenderer</text>
</g>
<!-- \\YAExceptionRenderer&#45;&gt;\\ExceptionRenderer -->
<g id="edge87" class="edge"><title>\\YAExceptionRenderer&#45;&gt;\\ExceptionRenderer</title>
<path fill="none" stroke="black" d="M1090.25,-536.635C1078.89,-532.477 1068.21,-526.417 1060,-517.64 943.795,-393.355 1106.14,-264.083 988,-141.64 983.747,-137.231 978.932,-133.477 973.739,-130.285"/>
<polygon fill="none" stroke="black" points="975.142,-127.066 964.675,-125.427 971.836,-133.235 975.142,-127.066"/>
</g>
<!-- \\NetCommonsMigration -->
<g id="node51" class="node"><title>\\NetCommonsMigration</title>
<polygon fill="none" stroke="black" points="942,-833.64 798,-833.64 798,-797.64 942,-797.64 942,-833.64"/>
<text text-anchor="middle" x="870" y="-812.74" font-family="Courier,monospace" font-size="11.00">NetCommonsMigration</text>
</g>
<!-- \\CakeMigration -->
<g id="node115" class="node"><title>\\CakeMigration</title>
<ellipse fill="none" stroke="black" cx="563" cy="-153.64" rx="84.8528" ry="18.3848"/>
<text text-anchor="middle" x="563" y="-150.04" font-family="Times Roman,serif" font-size="14.00" fill="gray">\CakeMigration</text>
</g>
<!-- \\NetCommonsMigration&#45;&gt;\\CakeMigration -->
<g id="edge89" class="edge"><title>\\NetCommonsMigration&#45;&gt;\\CakeMigration</title>
<path fill="none" stroke="black" d="M797.268,-816.116C780.389,-812.739 763.903,-806.045 752,-793.64 596.557,-631.639 771.462,-498.68 680,-293.64 659.241,-247.101 618.368,-203.767 590.859,-177.988"/>
<polygon fill="none" stroke="black" points="593.21,-175.394 583.483,-171.194 588.467,-180.543 593.21,-175.394"/>
</g>
<!-- \\FrameSettingsControllerTest -->
<g id="node52" class="node"><title>\\FrameSettingsControllerTest</title>
<polygon fill="none" stroke="black" points="1262,-2614.64 1064,-2614.64 1064,-2578.64 1262,-2578.64 1262,-2614.64"/>
<text text-anchor="middle" x="1163" y="-2593.74" font-family="Courier,monospace" font-size="11.00">FrameSettingsControllerTest</text>
</g>
<!-- \\FrameSettingsControllerTest&#45;&gt;\\NetCommonsControllerTestCase -->
<g id="edge91" class="edge"><title>\\FrameSettingsControllerTest&#45;&gt;\\NetCommonsControllerTestCase</title>
<path fill="none" stroke="black" d="M1084.1,-2578.6C1045.42,-2569.75 998.701,-2559.07 958.784,-2549.94"/>
<polygon fill="none" stroke="black" points="959.319,-2546.47 948.791,-2547.66 957.759,-2553.3 959.319,-2546.47"/>
</g>
<!-- \\FramesAppController -->
<g id="node53" class="node"><title>\\FramesAppController</title>
<polygon fill="none" stroke="black" points="942,-1946.64 798,-1946.64 798,-1910.64 942,-1910.64 942,-1946.64"/>
<text text-anchor="middle" x="870" y="-1925.74" font-family="Courier,monospace" font-size="11.00">FramesAppController</text>
</g>
<!-- \\FramesAppController&#45;&gt;\\AppController -->
<g id="edge93" class="edge"><title>\\FramesAppController&#45;&gt;\\AppController</title>
<path fill="none" stroke="black" d="M859.432,-1910.53C813.766,-1832.29 633.227,-1522.96 578.686,-1429.52"/>
<polygon fill="none" stroke="black" points="581.587,-1427.54 573.523,-1420.67 575.541,-1431.07 581.587,-1427.54"/>
</g>
<!-- \\FramesController -->
<g id="node54" class="node"><title>\\FramesController</title>
<polygon fill="none" stroke="black" points="1225,-2290.64 1101,-2290.64 1101,-2254.64 1225,-2254.64 1225,-2290.64"/>
<text text-anchor="middle" x="1163" y="-2269.74" font-family="Courier,monospace" font-size="11.00">FramesController</text>
</g>
<!-- \\FramesController&#45;&gt;\\FramesAppController -->
<g id="edge95" class="edge"><title>\\FramesController&#45;&gt;\\FramesAppController</title>
<path fill="none" stroke="black" d="M1100.4,-2264.41C1086.14,-2260.4 1071.76,-2254.46 1060,-2245.64 957.381,-2168.66 899.161,-2018.57 878.582,-1956.52"/>
<polygon fill="none" stroke="black" points="881.801,-1955.1 875.387,-1946.66 875.142,-1957.26 881.801,-1955.1"/>
</g>
<!-- \\FramesAppModel -->
<g id="node55" class="node"><title>\\FramesAppModel</title>
<polygon fill="none" stroke="black" points="925,-2668.64 815,-2668.64 815,-2632.64 925,-2632.64 925,-2668.64"/>
<text text-anchor="middle" x="870" y="-2647.74" font-family="Courier,monospace" font-size="11.00">FramesAppModel</text>
</g>
<!-- \\FramesAppModel&#45;&gt;\\AppModel -->
<g id="edge97" class="edge"><title>\\FramesAppModel&#45;&gt;\\AppModel</title>
<path fill="none" stroke="black" d="M814.405,-2645.75C755.479,-2640.57 663.518,-2632.48 608.67,-2627.66"/>
<polygon fill="none" stroke="black" points="608.814,-2624.16 598.546,-2626.77 608.201,-2631.13 608.814,-2624.16"/>
</g>
<!-- \\Frame -->
<g id="node56" class="node"><title>\\Frame</title>
<polygon fill="none" stroke="black" points="1190,-2668.64 1136,-2668.64 1136,-2632.64 1190,-2632.64 1190,-2668.64"/>
<text text-anchor="middle" x="1163" y="-2647.74" font-family="Courier,monospace" font-size="11.00">Frame</text>
</g>
<!-- \\Frame&#45;&gt;\\FramesAppModel -->
<g id="edge99" class="edge"><title>\\Frame&#45;&gt;\\FramesAppModel</title>
<path fill="none" stroke="black" d="M1135.96,-2650.64C1090.8,-2650.64 998.789,-2650.64 935.763,-2650.64"/>
<polygon fill="none" stroke="black" points="935.52,-2647.14 925.52,-2650.64 935.52,-2654.14 935.52,-2647.14"/>
</g>
<!-- \\FramesSchema -->
<g id="node57" class="node"><title>\\FramesSchema</title>
<polygon fill="none" stroke="black" points="1212,-508.64 1114,-508.64 1114,-472.64 1212,-472.64 1212,-508.64"/>
<text text-anchor="middle" x="1163" y="-487.74" font-family="Courier,monospace" font-size="11.00">FramesSchema</text>
</g>
<!-- \\CakeSchema -->
<g id="node122" class="node"><title>\\CakeSchema</title>
<ellipse fill="none" stroke="black" cx="870" cy="-60.6397" rx="77.0746" ry="18.3848"/>
<text text-anchor="middle" x="870" y="-57.0397" font-family="Times Roman,serif" font-size="14.00" fill="gray">\CakeSchema</text>
</g>
<!-- \\FramesSchema&#45;&gt;\\CakeSchema -->
<g id="edge101" class="edge"><title>\\FramesSchema&#45;&gt;\\CakeSchema</title>
<path fill="none" stroke="black" d="M1114,-488.76C1094.67,-485.503 1073.82,-478.426 1060,-463.64 943.795,-339.355 1106.14,-210.083 988,-87.6397 978.93,-78.2395 967.308,-71.8124 954.908,-67.4687"/>
<polygon fill="none" stroke="black" points="955.89,-64.109 945.304,-64.5385 953.847,-70.8043 955.89,-64.109"/>
</g>
<!-- \\Records -->
<g id="node58" class="node"><title>\\Records</title>
<polygon fill="none" stroke="black" points="1195,-1210.64 1131,-1210.64 1131,-1174.64 1195,-1174.64 1195,-1210.64"/>
<text text-anchor="middle" x="1163" y="-1189.74" font-family="Courier,monospace" font-size="11.00">Records</text>
</g>
<!-- \\Records&#45;&gt;\\NetCommonsMigration -->
<g id="edge103" class="edge"><title>\\Records&#45;&gt;\\NetCommonsMigration</title>
<path fill="none" stroke="black" d="M1130.79,-1190.81C1108.85,-1188.09 1080.22,-1181.49 1060,-1165.64 949.731,-1079.19 894.977,-910.273 876.947,-843.634"/>
<polygon fill="none" stroke="black" points="880.3,-842.623 874.366,-833.846 873.532,-844.407 880.3,-842.623"/>
</g>
<!-- \\Init -->
<g id="node59" class="node"><title>\\Init</title>
<polygon fill="none" stroke="black" points="1190,-454.64 1136,-454.64 1136,-418.64 1190,-418.64 1190,-454.64"/>
<text text-anchor="middle" x="1163" y="-433.74" font-family="Courier,monospace" font-size="11.00">Init</text>
</g>
<!-- \\Init&#45;&gt;\\CakeMigration -->
<g id="edge105" class="edge"><title>\\Init&#45;&gt;\\CakeMigration</title>
<path fill="none" stroke="black" d="M1161.73,-418.211C1156.05,-351.91 1126.72,-124.636 988,-33.6397 900.297,23.8912 852.721,-4.3658 752,-33.6397 687.904,-52.2687 624.751,-99.9054 590.119,-129.248"/>
<polygon fill="none" stroke="black" points="587.653,-126.753 582.354,-135.928 592.218,-132.06 587.653,-126.753"/>
</g>
</g>
</svg>
