<?xml version="1.0" encoding="UTF-8" standalone="no"?>
<!DOCTYPE svg PUBLIC "-//W3C//DTD SVG 1.1//EN"
 "http://www.w3.org/Graphics/SVG/1.1/DTD/svg11.dtd">
<!-- Generated by graphviz version 2.26.3 (20100126.1600)
 -->
<!-- Title: G Pages: 1 -->
<svg width="1290pt" height="2877pt"
 viewBox="0.00 0.00 1290.00 2876.64" xmlns="http://www.w3.org/2000/svg" xmlns:xlink="http://www.w3.org/1999/xlink">
<g id="graph1" class="graph" transform="scale(1 1) rotate(0) translate(4 2872.64)">
<title>G</title>
<polygon fill="white" stroke="white" points="-4,5 -4,-2872.64 1287,-2872.64 1287,5 -4,5"/>
<g id="graph2" class="cluster"><title>cluster_Global</title>
<polyline fill="none" stroke="gray" points="202,-410.64 1262,-410.64 "/>
<path fill="none" stroke="gray" d="M1262,-410.64C1268,-410.64 1274,-416.64 1274,-422.64"/>
<polyline fill="none" stroke="gray" points="1274,-422.64 1274,-2848.64 "/>
<path fill="none" stroke="gray" d="M1274,-2848.64C1274,-2854.64 1268,-2860.64 1262,-2860.64"/>
<polyline fill="none" stroke="gray" points="1262,-2860.64 202,-2860.64 "/>
<path fill="none" stroke="gray" d="M202,-2860.64C196,-2860.64 190,-2854.64 190,-2848.64"/>
<polyline fill="none" stroke="gray" points="190,-2848.64 190,-422.64 "/>
<path fill="none" stroke="gray" d="M190,-422.64C190,-416.64 196,-410.64 202,-410.64"/>
<text text-anchor="middle" x="732" y="-2846.74" font-family="Times Roman,serif" font-size="11.00" fill="gray">Global</text>
</g>
<!-- \\AppController -->
<g id="node2" class="node"><title>\\AppController</title>
<polygon fill="none" stroke="black" points="615,-1501.64 511,-1501.64 511,-1465.64 615,-1465.64 615,-1501.64"/>
<text text-anchor="middle" x="563" y="-1480.74" font-family="Courier,monospace" font-size="11.00">AppController</text>
</g>
<!-- \\Controller -->
<g id="node64" class="node"><title>\\Controller</title>
<ellipse fill="none" stroke="black" cx="267" cy="-276.64" rx="63.1385" ry="18.3848"/>
<text text-anchor="middle" x="267" y="-273.04" font-family="Times Roman,serif" font-size="14.00" fill="gray">\Controller</text>
</g>
<!-- \\AppController&#45;&gt;\\Controller -->
<g id="edge3" class="edge"><title>\\AppController&#45;&gt;\\Controller</title>
<path fill="none" stroke="black" d="M510.838,-1487.24C487.603,-1485.86 461.941,-1479.69 446,-1461.64 275.311,-1268.4 538.686,-502.02 374,-303.64 365.187,-293.023 352.864,-286.243 339.703,-281.981"/>
<polygon fill="none" stroke="black" points="340.582,-278.593 330.011,-279.304 338.718,-285.34 340.582,-278.593"/>
</g>
<!-- \\AppModel -->
<g id="node3" class="node"><title>\\AppModel</title>
<polygon fill="none" stroke="black" points="598,-2803.64 528,-2803.64 528,-2767.64 598,-2767.64 598,-2803.64"/>
<text text-anchor="middle" x="563" y="-2782.74" font-family="Courier,monospace" font-size="11.00">AppModel</text>
</g>
<!-- \\NetCommonsAppModel -->
<g id="node50" class="node"><title>\\NetCommonsAppModel</title>
<polygon fill="none" stroke="black" points="336,-2803.64 198,-2803.64 198,-2767.64 336,-2767.64 336,-2803.64"/>
<text text-anchor="middle" x="267" y="-2782.74" font-family="Courier,monospace" font-size="11.00">NetCommonsAppModel</text>
</g>
<!-- \\AppModel&#45;&gt;\\NetCommonsAppModel -->
<g id="edge5" class="edge"><title>\\AppModel&#45;&gt;\\NetCommonsAppModel</title>
<path fill="none" stroke="black" d="M527.295,-2785.64C482.672,-2785.64 405.006,-2785.64 346.094,-2785.64"/>
<polygon fill="none" stroke="black" points="346.068,-2782.14 336.068,-2785.64 346.068,-2789.14 346.068,-2782.14"/>
</g>
<!-- \\DatabaseConfiguration -->
<g id="node4" class="node"><title>\\DatabaseConfiguration</title>
<polygon fill="none" stroke="black" points="949,-2776.64 791,-2776.64 791,-2740.64 949,-2740.64 949,-2776.64"/>
<text text-anchor="middle" x="870" y="-2755.74" font-family="Courier,monospace" font-size="11.00">DatabaseConfiguration</text>
</g>
<!-- \\DatabaseConfiguration&#45;&gt;\\AppModel -->
<g id="edge7" class="edge"><title>\\DatabaseConfiguration&#45;&gt;\\AppModel</title>
<path fill="none" stroke="black" d="M790.94,-2765.59C733.175,-2770.67 656.853,-2777.39 608.838,-2781.61"/>
<polygon fill="none" stroke="black" points="608.4,-2778.13 598.745,-2782.5 609.013,-2785.11 608.4,-2778.13"/>
</g>
<!-- \\AppHelper -->
<g id="node5" class="node"><title>\\AppHelper</title>
<polygon fill="none" stroke="black" points="908,-1750.64 832,-1750.64 832,-1714.64 908,-1714.64 908,-1750.64"/>
<text text-anchor="middle" x="870" y="-1729.74" font-family="Courier,monospace" font-size="11.00">AppHelper</text>
</g>
<!-- \\Helper -->
<g id="node68" class="node"><title>\\Helper</title>
<ellipse fill="none" stroke="black" cx="563" cy="-384.64" rx="43.8406" ry="18.3848"/>
<text text-anchor="middle" x="563" y="-381.04" font-family="Times Roman,serif" font-size="14.00" fill="gray">Helper</text>
</g>
<!-- \\AppHelper&#45;&gt;\\Helper -->
<g id="edge9" class="edge"><title>\\AppHelper&#45;&gt;\\Helper</title>
<path fill="none" stroke="black" d="M863.214,-1714.4C842.518,-1657.89 779.913,-1480.37 752,-1327.64 733.546,-1226.67 748.564,-483.027 680,-406.64 664.256,-389.1 639.323,-382.821 616.511,-381.251"/>
<polygon fill="none" stroke="black" points="616.352,-377.742 606.22,-380.837 616.071,-384.736 616.352,-377.742"/>
</g>
<!-- \\NetCommonsDeleteTest -->
<g id="node6" class="node"><title>\\NetCommonsDeleteTest</title>
<polygon fill="none" stroke="black" points="1239,-2560.64 1087,-2560.64 1087,-2524.64 1239,-2524.64 1239,-2560.64"/>
<text text-anchor="middle" x="1163" y="-2539.74" font-family="Courier,monospace" font-size="11.00">NetCommonsDeleteTest</text>
</g>
<!-- \\NetCommonsModelTestCase -->
<g id="node15" class="node"><title>\\NetCommonsModelTestCase</title>
<polygon fill="none" stroke="black" points="956,-2574.64 784,-2574.64 784,-2538.64 956,-2538.64 956,-2574.64"/>
<text text-anchor="middle" x="870" y="-2553.74" font-family="Courier,monospace" font-size="11.00">NetCommonsModelTestCase</text>
</g>
<!-- \\NetCommonsDeleteTest&#45;&gt;\\NetCommonsModelTestCase -->
<g id="edge11" class="edge"><title>\\NetCommonsDeleteTest&#45;&gt;\\NetCommonsModelTestCase</title>
<path fill="none" stroke="black" d="M1086.78,-2546.28C1050.05,-2548.04 1005.59,-2550.16 966.519,-2552.03"/>
<polygon fill="none" stroke="black" points="966.004,-2548.55 956.183,-2552.52 966.339,-2555.54 966.004,-2548.55"/>
</g>
<!-- \\NetCommonsConsoleTestCase -->
<g id="node7" class="node"><title>\\NetCommonsConsoleTestCase</title>
<polygon fill="none" stroke="black" points="962,-2459.64 778,-2459.64 778,-2423.64 962,-2423.64 962,-2459.64"/>
<text text-anchor="middle" x="870" y="-2438.74" font-family="Courier,monospace" font-size="11.00">NetCommonsConsoleTestCase</text>
</g>
<!-- \\NetCommonsCakeTestCase -->
<g id="node13" class="node"><title>\\NetCommonsCakeTestCase</title>
<polygon fill="none" stroke="black" points="645,-2526.64 481,-2526.64 481,-2490.64 645,-2490.64 645,-2526.64"/>
<text text-anchor="middle" x="563" y="-2505.74" font-family="Courier,monospace" font-size="11.00">NetCommonsCakeTestCase</text>
</g>
<!-- \\NetCommonsConsoleTestCase&#45;&gt;\\NetCommonsCakeTestCase -->
<g id="edge13" class="edge"><title>\\NetCommonsConsoleTestCase&#45;&gt;\\NetCommonsCakeTestCase</title>
<path fill="none" stroke="black" d="M787.326,-2459.68C746.633,-2468.56 697.435,-2479.3 655.494,-2488.45"/>
<polygon fill="none" stroke="black" points="654.579,-2485.07 645.555,-2490.62 656.072,-2491.91 654.579,-2485.07"/>
</g>
<!-- \\NetCommonsGetTest -->
<g id="node8" class="node"><title>\\NetCommonsGetTest</title>
<polygon fill="none" stroke="black" points="1228,-2722.64 1098,-2722.64 1098,-2686.64 1228,-2686.64 1228,-2722.64"/>
<text text-anchor="middle" x="1163" y="-2701.74" font-family="Courier,monospace" font-size="11.00">NetCommonsGetTest</text>
</g>
<!-- \\NetCommonsGetTest&#45;&gt;\\NetCommonsModelTestCase -->
<g id="edge15" class="edge"><title>\\NetCommonsGetTest&#45;&gt;\\NetCommonsModelTestCase</title>
<path fill="none" stroke="black" d="M1097.31,-2694.35C1084.26,-2690.44 1071.16,-2685.06 1060,-2677.64 1016.18,-2648.5 1032.28,-2612.08 988,-2583.64 981.01,-2579.15 973.366,-2575.4 965.435,-2572.27"/>
<polygon fill="none" stroke="black" points="966.61,-2568.98 956.016,-2568.88 964.238,-2575.56 966.61,-2568.98"/>
</g>
<!-- \\NetCommonsHelperTestCase -->
<g id="node9" class="node"><title>\\NetCommonsHelperTestCase</title>
<polygon fill="none" stroke="black" points="959,-2628.64 781,-2628.64 781,-2592.64 959,-2592.64 959,-2628.64"/>
<text text-anchor="middle" x="870" y="-2607.74" font-family="Courier,monospace" font-size="11.00">NetCommonsHelperTestCase</text>
</g>
<!-- \\NetCommonsHelperTestCase&#45;&gt;\\NetCommonsCakeTestCase -->
<g id="edge17" class="edge"><title>\\NetCommonsHelperTestCase&#45;&gt;\\NetCommonsCakeTestCase</title>
<path fill="none" stroke="black" d="M784.191,-2592.63C773.288,-2589.86 762.335,-2586.85 752,-2583.64 703.675,-2568.62 650.208,-2546.9 612.51,-2530.7"/>
<polygon fill="none" stroke="black" points="613.846,-2527.47 603.278,-2526.71 611.066,-2533.89 613.846,-2527.47"/>
</g>
<!-- \\NetCommonsControllerBaseTestCase -->
<g id="node10" class="node"><title>\\NetCommonsControllerBaseTestCase</title>
<polygon fill="none" stroke="black" points="679,-2641.64 447,-2641.64 447,-2605.64 679,-2605.64 679,-2641.64"/>
<text text-anchor="middle" x="563" y="-2620.74" font-family="Courier,monospace" font-size="11.00">NetCommonsControllerBaseTestCase</text>
</g>
<!-- \\ControllerTestCase -->
<g id="node74" class="node"><title>\\ControllerTestCase</title>
<ellipse fill="none" stroke="black" cx="267" cy="-384.64" rx="106.773" ry="18.3848"/>
<text text-anchor="middle" x="267" y="-381.04" font-family="Times Roman,serif" font-size="14.00" fill="gray">\ControllerTestCase</text>
</g>
<!-- \\NetCommonsControllerBaseTestCase&#45;&gt;\\ControllerTestCase -->
<g id="edge19" class="edge"><title>\\NetCommonsControllerBaseTestCase&#45;&gt;\\ControllerTestCase</title>
<path fill="none" stroke="black" d="M523.398,-2605.57C496.358,-2590.9 462.545,-2567.43 446,-2535.64 336.729,-2325.68 526.645,-587.532 374,-406.64 371.993,-404.262 369.805,-402.098 367.465,-400.131"/>
<polygon fill="none" stroke="black" points="369.173,-397.054 358.976,-394.177 365.153,-402.785 369.173,-397.054"/>
</g>
<!-- \\NetCommonsValidateTest -->
<g id="node11" class="node"><title>\\NetCommonsValidateTest</title>
<polygon fill="none" stroke="black" points="1245,-2668.64 1081,-2668.64 1081,-2632.64 1245,-2632.64 1245,-2668.64"/>
<text text-anchor="middle" x="1163" y="-2647.74" font-family="Courier,monospace" font-size="11.00">NetCommonsValidateTest</text>
</g>
<!-- \\NetCommonsValidateTest&#45;&gt;\\NetCommonsModelTestCase -->
<g id="edge21" class="edge"><title>\\NetCommonsValidateTest&#45;&gt;\\NetCommonsModelTestCase</title>
<path fill="none" stroke="black" d="M1085.54,-2632.59C1076.82,-2629.9 1068.15,-2626.91 1060,-2623.64 1026.03,-2610 1022.18,-2596.74 988,-2583.64 980.894,-2580.92 973.438,-2578.42 965.872,-2576.15"/>
<polygon fill="none" stroke="black" points="966.826,-2572.78 956.248,-2573.39 964.894,-2579.51 966.826,-2572.78"/>
</g>
<!-- \\NetCommonsTestSuite -->
<g id="node12" class="node"><title>\\NetCommonsTestSuite</title>
<polygon fill="none" stroke="black" points="1235,-1210.64 1091,-1210.64 1091,-1174.64 1235,-1174.64 1235,-1210.64"/>
<text text-anchor="middle" x="1163" y="-1189.74" font-family="Courier,monospace" font-size="11.00">NetCommonsTestSuite</text>
</g>
<!-- \\CakeTestSuite -->
<g id="node77" class="node"><title>\\CakeTestSuite</title>
<ellipse fill="none" stroke="black" cx="870" cy="-384.64" rx="84.1457" ry="18.3848"/>
<text text-anchor="middle" x="870" y="-381.04" font-family="Times Roman,serif" font-size="14.00" fill="gray">\CakeTestSuite</text>
</g>
<!-- \\NetCommonsTestSuite&#45;&gt;\\CakeTestSuite -->
<g id="edge23" class="edge"><title>\\NetCommonsTestSuite&#45;&gt;\\CakeTestSuite</title>
<path fill="none" stroke="black" d="M1090.33,-1185.56C1078.74,-1181.33 1067.96,-1175.01 1060,-1165.64 950.272,-1036.55 1102.31,-531.694 988,-406.64 981.146,-399.141 972.623,-393.701 963.316,-389.806"/>
<polygon fill="none" stroke="black" points="964.374,-386.468 953.78,-386.409 962.025,-393.062 964.374,-386.468"/>
</g>
<!-- \\CakeTestCase -->
<g id="node79" class="node"><title>\\CakeTestCase</title>
<ellipse fill="none" stroke="black" cx="267" cy="-330.64" rx="82.0244" ry="18.3848"/>
<text text-anchor="middle" x="267" y="-327.04" font-family="Times Roman,serif" font-size="14.00" fill="gray">\CakeTestCase</text>
</g>
<!-- \\NetCommonsCakeTestCase&#45;&gt;\\CakeTestCase -->
<g id="edge25" class="edge"><title>\\NetCommonsCakeTestCase&#45;&gt;\\CakeTestCase</title>
<path fill="none" stroke="black" d="M560.518,-2490.63C547.014,-2392.1 481.681,-1908.1 446,-1510.64 434.523,-1382.79 456.002,-456.392 374,-357.64 368.22,-350.679 360.931,-345.367 352.886,-341.333"/>
<polygon fill="none" stroke="black" points="354.092,-338.042 343.523,-337.302 351.324,-344.471 354.092,-338.042"/>
</g>
<!-- \\NetCommonsSaveTest -->
<g id="node14" class="node"><title>\\NetCommonsSaveTest</title>
<polygon fill="none" stroke="black" points="1232,-2614.64 1094,-2614.64 1094,-2578.64 1232,-2578.64 1232,-2614.64"/>
<text text-anchor="middle" x="1163" y="-2593.74" font-family="Courier,monospace" font-size="11.00">NetCommonsSaveTest</text>
</g>
<!-- \\NetCommonsSaveTest&#45;&gt;\\NetCommonsModelTestCase -->
<g id="edge27" class="edge"><title>\\NetCommonsSaveTest&#45;&gt;\\NetCommonsModelTestCase</title>
<path fill="none" stroke="black" d="M1093.93,-2587.21C1055.79,-2582 1007.83,-2575.46 966.084,-2569.76"/>
<polygon fill="none" stroke="black" points="966.554,-2566.29 956.172,-2568.4 965.607,-2573.22 966.554,-2566.29"/>
</g>
<!-- \\NetCommonsModelTestCase&#45;&gt;\\NetCommonsCakeTestCase -->
<g id="edge29" class="edge"><title>\\NetCommonsModelTestCase&#45;&gt;\\NetCommonsCakeTestCase</title>
<path fill="none" stroke="black" d="M783.666,-2543.14C743.689,-2536.89 696.141,-2529.46 655.437,-2523.09"/>
<polygon fill="none" stroke="black" points="655.937,-2519.63 645.516,-2521.54 654.856,-2526.54 655.937,-2519.63"/>
</g>
<!-- \\NetCommonsControllerTestCase -->
<g id="node16" class="node"><title>\\NetCommonsControllerTestCase</title>
<polygon fill="none" stroke="black" points="973,-2709.64 767,-2709.64 767,-2673.64 973,-2673.64 973,-2709.64"/>
<text text-anchor="middle" x="870" y="-2688.74" font-family="Courier,monospace" font-size="11.00">NetCommonsControllerTestCase</text>
</g>
<!-- \\NetCommonsControllerTestCase&#45;&gt;\\NetCommonsControllerBaseTestCase -->
<g id="edge31" class="edge"><title>\\NetCommonsControllerTestCase&#45;&gt;\\NetCommonsControllerBaseTestCase</title>
<path fill="none" stroke="black" d="M788.536,-2673.6C747.171,-2664.43 696.78,-2653.27 654.13,-2643.82"/>
<polygon fill="none" stroke="black" points="654.832,-2640.4 644.312,-2641.65 653.318,-2647.23 654.832,-2640.4"/>
</g>
<!-- \\NetCommonsAppController -->
<g id="node17" class="node"><title>\\NetCommonsAppController</title>
<polygon fill="none" stroke="black" points="956,-1318.64 784,-1318.64 784,-1282.64 956,-1282.64 956,-1318.64"/>
<text text-anchor="middle" x="870" y="-1297.74" font-family="Courier,monospace" font-size="11.00">NetCommonsAppController</text>
</g>
<!-- \\NetCommonsAppController&#45;&gt;\\Controller -->
<g id="edge33" class="edge"><title>\\NetCommonsAppController&#45;&gt;\\Controller</title>
<path fill="none" stroke="black" d="M864.091,-1282.36C845.185,-1223.27 785.47,-1031.86 752,-869.64 728.783,-757.113 759.023,-441.046 680,-357.64 590.874,-263.57 427.021,-260.964 334.755,-268.241"/>
<polygon fill="none" stroke="black" points="334.355,-264.763 324.688,-269.097 334.948,-271.738 334.355,-264.763"/>
</g>
<!-- \\AssetComponent -->
<g id="node18" class="node"><title>\\AssetComponent</title>
<polygon fill="none" stroke="black" points="1218,-1102.64 1108,-1102.64 1108,-1066.64 1218,-1066.64 1218,-1102.64"/>
<text text-anchor="middle" x="1163" y="-1081.74" font-family="Courier,monospace" font-size="11.00">AssetComponent</text>
</g>
<!-- \\Component -->
<g id="node85" class="node"><title>\\Component</title>
<ellipse fill="none" stroke="black" cx="870" cy="-330.64" rx="70.9184" ry="18.3848"/>
<text text-anchor="middle" x="870" y="-327.04" font-family="Times Roman,serif" font-size="14.00" fill="gray">\Component</text>
</g>
<!-- \\AssetComponent&#45;&gt;\\Component -->
<g id="edge35" class="edge"><title>\\AssetComponent&#45;&gt;\\Component</title>
<path fill="none" stroke="black" d="M1107.47,-1082.26C1089.83,-1078.65 1071.85,-1071.47 1060,-1057.64 856.502,-820.147 1195.2,-591.906 988,-357.64 978.271,-346.64 965.062,-339.634 950.998,-335.26"/>
<polygon fill="none" stroke="black" points="951.72,-331.831 941.156,-332.636 949.917,-338.594 951.72,-331.831"/>
</g>
<!-- \\AccessCtrlComponent -->
<g id="node19" class="node"><title>\\AccessCtrlComponent</title>
<polygon fill="none" stroke="black" points="1235,-1048.64 1091,-1048.64 1091,-1012.64 1235,-1012.64 1235,-1048.64"/>
<text text-anchor="middle" x="1163" y="-1027.74" font-family="Courier,monospace" font-size="11.00">AccessCtrlComponent</text>
</g>
<!-- \\AccessCtrlComponent&#45;&gt;\\Component -->
<g id="edge37" class="edge"><title>\\AccessCtrlComponent&#45;&gt;\\Component</title>
<path fill="none" stroke="black" d="M1090.45,-1023.45C1078.85,-1019.23 1068.04,-1012.94 1060,-1003.64 871.099,-785.069 1180.31,-573.215 988,-357.64 978.225,-346.682 964.994,-339.694 950.924,-335.326"/>
<polygon fill="none" stroke="black" points="951.644,-331.896 941.08,-332.704 949.842,-338.66 951.644,-331.896"/>
</g>
<!-- \\NetCommonsTimeComponent -->
<g id="node20" class="node"><title>\\NetCommonsTimeComponent</title>
<polygon fill="none" stroke="black" points="1249,-994.64 1077,-994.64 1077,-958.64 1249,-958.64 1249,-994.64"/>
<text text-anchor="middle" x="1163" y="-973.74" font-family="Courier,monospace" font-size="11.00">NetCommonsTimeComponent</text>
</g>
<!-- \\NetCommonsTimeComponent&#45;&gt;\\Component -->
<g id="edge39" class="edge"><title>\\NetCommonsTimeComponent&#45;&gt;\\Component</title>
<path fill="none" stroke="black" d="M1076.66,-963.036C1070.43,-959.474 1064.74,-955.071 1060,-949.64 885.683,-749.977 1165.43,-554.539 988,-357.64 978.227,-346.794 965.069,-339.847 951.082,-335.48"/>
<polygon fill="none" stroke="black" points="951.864,-332.066 941.298,-332.853 950.049,-338.827 951.864,-332.066"/>
</g>
<!-- \\PermissionComponent -->
<g id="node21" class="node"><title>\\PermissionComponent</title>
<polygon fill="none" stroke="black" points="1235,-940.64 1091,-940.64 1091,-904.64 1235,-904.64 1235,-940.64"/>
<text text-anchor="middle" x="1163" y="-919.74" font-family="Courier,monospace" font-size="11.00">PermissionComponent</text>
</g>
<!-- \\PermissionComponent&#45;&gt;\\Component -->
<g id="edge41" class="edge"><title>\\PermissionComponent&#45;&gt;\\Component</title>
<path fill="none" stroke="black" d="M1090.36,-915.207C1078.84,-911.005 1068.08,-904.782 1060,-895.64 900.252,-714.867 1150.57,-535.88 988,-357.64 978.162,-346.853 964.974,-339.933 950.979,-335.574"/>
<polygon fill="none" stroke="black" points="951.757,-332.159 941.192,-332.95 949.944,-338.92 951.757,-332.159"/>
</g>
<!-- \\NetCommonsComponent -->
<g id="node22" class="node"><title>\\NetCommonsComponent</title>
<polygon fill="none" stroke="black" points="1235,-1156.64 1091,-1156.64 1091,-1120.64 1235,-1120.64 1235,-1156.64"/>
<text text-anchor="middle" x="1163" y="-1135.74" font-family="Courier,monospace" font-size="11.00">NetCommonsComponent</text>
</g>
<!-- \\NetCommonsComponent&#45;&gt;\\Component -->
<g id="edge43" class="edge"><title>\\NetCommonsComponent&#45;&gt;\\Component</title>
<path fill="none" stroke="black" d="M1090.33,-1131.55C1078.74,-1127.32 1067.96,-1121 1060,-1111.64 950.948,-983.427 1099.05,-484.123 988,-357.64 978.311,-346.605 965.121,-339.582 951.061,-335.204"/>
<polygon fill="none" stroke="black" points="951.786,-331.775 941.222,-332.578 949.981,-338.538 951.786,-331.775"/>
</g>
<!-- \\SiteCloseController -->
<g id="node23" class="node"><title>\\SiteCloseController</title>
<polygon fill="none" stroke="black" points="1235,-1318.64 1091,-1318.64 1091,-1282.64 1235,-1282.64 1235,-1318.64"/>
<text text-anchor="middle" x="1163" y="-1297.74" font-family="Courier,monospace" font-size="11.00">SiteCloseController</text>
</g>
<!-- \\SiteCloseController&#45;&gt;\\NetCommonsAppController -->
<g id="edge45" class="edge"><title>\\SiteCloseController&#45;&gt;\\NetCommonsAppController</title>
<path fill="none" stroke="black" d="M1090.2,-1300.64C1052.78,-1300.64 1006.68,-1300.64 966.354,-1300.64"/>
<polygon fill="none" stroke="black" points="966.233,-1297.14 956.233,-1300.64 966.233,-1304.14 966.233,-1297.14"/>
</g>
<!-- \\NetCommonsController -->
<g id="node24" class="node"><title>\\NetCommonsController</title>
<polygon fill="none" stroke="black" points="1239,-1372.64 1087,-1372.64 1087,-1336.64 1239,-1336.64 1239,-1372.64"/>
<text text-anchor="middle" x="1163" y="-1351.74" font-family="Courier,monospace" font-size="11.00">NetCommonsController</text>
</g>
<!-- \\NetCommonsController&#45;&gt;\\NetCommonsAppController -->
<g id="edge47" class="edge"><title>\\NetCommonsController&#45;&gt;\\NetCommonsAppController</title>
<path fill="none" stroke="black" d="M1086.78,-1340.59C1049.89,-1333.79 1005.21,-1325.56 966.02,-1318.34"/>
<polygon fill="none" stroke="black" points="966.652,-1314.89 956.183,-1316.52 965.383,-1321.78 966.652,-1314.89"/>
</g>
<!-- \\NetCommonsUrl -->
<g id="node25" class="node"><title>\\NetCommonsUrl</title>
<polygon fill="none" stroke="black" points="1215,-2182.64 1111,-2182.64 1111,-2146.64 1215,-2146.64 1215,-2182.64"/>
<text text-anchor="middle" x="1163" y="-2161.74" font-family="Courier,monospace" font-size="11.00">NetCommonsUrl</text>
</g>
<!-- \\NetCommonsTime -->
<g id="node26" class="node"><title>\\NetCommonsTime</title>
<polygon fill="none" stroke="black" points="1218,-2128.64 1108,-2128.64 1108,-2092.64 1218,-2092.64 1218,-2128.64"/>
<text text-anchor="middle" x="1163" y="-2107.74" font-family="Courier,monospace" font-size="11.00">NetCommonsTime</text>
</g>
<!-- \\CurrentBase -->
<g id="node27" class="node"><title>\\CurrentBase</title>
<polygon fill="none" stroke="black" points="915,-2513.64 825,-2513.64 825,-2477.64 915,-2477.64 915,-2513.64"/>
<text text-anchor="middle" x="870" y="-2492.74" font-family="Courier,monospace" font-size="11.00">CurrentBase</text>
</g>
<!-- \\Current -->
<g id="node28" class="node"><title>\\Current</title>
<polygon fill="none" stroke="black" points="1195,-2506.64 1131,-2506.64 1131,-2470.64 1195,-2470.64 1195,-2506.64"/>
<text text-anchor="middle" x="1163" y="-2485.74" font-family="Courier,monospace" font-size="11.00">Current</text>
</g>
<!-- \\Current&#45;&gt;\\CurrentBase -->
<g id="edge49" class="edge"><title>\\Current&#45;&gt;\\CurrentBase</title>
<path fill="none" stroke="black" d="M1130.81,-2489.41C1081.48,-2490.59 986.554,-2492.86 925.846,-2494.31"/>
<polygon fill="none" stroke="black" points="925.582,-2490.81 915.669,-2494.55 925.75,-2497.81 925.582,-2490.81"/>
</g>
<!-- \\CurrentSystem -->
<g id="node29" class="node"><title>\\CurrentSystem</title>
<polygon fill="none" stroke="black" points="1215,-2020.64 1111,-2020.64 1111,-1984.64 1215,-1984.64 1215,-2020.64"/>
<text text-anchor="middle" x="1163" y="-1999.74" font-family="Courier,monospace" font-size="11.00">CurrentSystem</text>
</g>
<!-- \\CurrentPage -->
<g id="node30" class="node"><title>\\CurrentPage</title>
<polygon fill="none" stroke="black" points="1208,-1966.64 1118,-1966.64 1118,-1930.64 1208,-1930.64 1208,-1966.64"/>
<text text-anchor="middle" x="1163" y="-1945.74" font-family="Courier,monospace" font-size="11.00">CurrentPage</text>
</g>
<!-- \\CurrentFrame -->
<g id="node31" class="node"><title>\\CurrentFrame</title>
<polygon fill="none" stroke="black" points="1212,-1912.64 1114,-1912.64 1114,-1876.64 1212,-1876.64 1212,-1912.64"/>
<text text-anchor="middle" x="1163" y="-1891.74" font-family="Courier,monospace" font-size="11.00">CurrentFrame</text>
</g>
<!-- \\TokenHelper -->
<g id="node32" class="node"><title>\\TokenHelper</title>
<polygon fill="none" stroke="black" points="1208,-886.64 1118,-886.64 1118,-850.64 1208,-850.64 1208,-886.64"/>
<text text-anchor="middle" x="1163" y="-865.74" font-family="Courier,monospace" font-size="11.00">TokenHelper</text>
</g>
<!-- \\FormHelper -->
<g id="node94" class="node"><title>\\FormHelper</title>
<ellipse fill="none" stroke="black" cx="870" cy="-276.64" rx="70.9184" ry="18.3848"/>
<text text-anchor="middle" x="870" y="-273.04" font-family="Times Roman,serif" font-size="14.00" fill="gray">\FormHelper</text>
</g>
<!-- \\TokenHelper&#45;&gt;\\FormHelper -->
<g id="edge51" class="edge"><title>\\TokenHelper&#45;&gt;\\FormHelper</title>
<path fill="none" stroke="black" d="M1117.28,-867.701C1096.87,-864.819 1074.26,-857.778 1060,-841.64 900.252,-660.867 1150.57,-481.88 988,-303.64 978.162,-292.853 964.974,-285.933 950.979,-281.574"/>
<polygon fill="none" stroke="black" points="951.757,-278.159 941.192,-278.95 949.944,-284.92 951.757,-278.159"/>
</g>
<!-- \\SingletonViewBlockHtmlHelper -->
<g id="node33" class="node"><title>\\SingletonViewBlockHtmlHelper</title>
<polygon fill="none" stroke="black" points="1266,-724.64 1060,-724.64 1060,-688.64 1266,-688.64 1266,-724.64"/>
<text text-anchor="middle" x="1163" y="-703.74" font-family="Courier,monospace" font-size="11.00">SingletonViewBlockHtmlHelper</text>
</g>
<!-- \\HtmlHelper -->
<g id="node96" class="node"><title>\\HtmlHelper</title>
<ellipse fill="none" stroke="black" cx="870" cy="-222.64" rx="67.1751" ry="18.3848"/>
<text text-anchor="middle" x="870" y="-219.04" font-family="Times Roman,serif" font-size="14.00" fill="gray">HtmlHelper</text>
</g>
<!-- \\SingletonViewBlockHtmlHelper&#45;&gt;\\HtmlHelper -->
<g id="edge53" class="edge"><title>\\SingletonViewBlockHtmlHelper&#45;&gt;\\HtmlHelper</title>
<path fill="none" stroke="black" d="M1069.92,-688.378C1066.33,-685.814 1062.99,-682.916 1060,-679.64 929.318,-536.567 1120.91,-390.641 988,-249.64 977.121,-238.099 962.401,-231.016 947.051,-226.766"/>
<polygon fill="none" stroke="black" points="947.444,-223.262 936.906,-224.363 945.83,-230.073 947.444,-223.262"/>
</g>
<!-- \\FormInputHelper -->
<g id="node34" class="node"><title>\\FormInputHelper</title>
<polygon fill="none" stroke="black" points="1222,-2398.64 1104,-2398.64 1104,-2362.64 1222,-2362.64 1222,-2398.64"/>
<text text-anchor="middle" x="1163" y="-2377.74" font-family="Courier,monospace" font-size="11.00">FormInputHelper</text>
</g>
<!-- \\FormInputHelper&#45;&gt;\\AppHelper -->
<g id="edge55" class="edge"><title>\\FormInputHelper&#45;&gt;\\AppHelper</title>
<path fill="none" stroke="black" d="M1103.98,-2376.24C1087.89,-2372.33 1071.69,-2365.48 1060,-2353.64 966.708,-2259.13 1026.34,-2190.79 988,-2063.64 953.591,-1949.54 902.988,-1816.84 880.94,-1760.37"/>
<polygon fill="none" stroke="black" points="884.071,-1758.76 877.165,-1750.73 877.553,-1761.32 884.071,-1758.76"/>
</g>
<!-- \\WizardHelper -->
<g id="node35" class="node"><title>\\WizardHelper</title>
<polygon fill="none" stroke="black" points="1212,-2344.64 1114,-2344.64 1114,-2308.64 1212,-2308.64 1212,-2344.64"/>
<text text-anchor="middle" x="1163" y="-2323.74" font-family="Courier,monospace" font-size="11.00">WizardHelper</text>
</g>
<!-- \\WizardHelper&#45;&gt;\\AppHelper -->
<g id="edge57" class="edge"><title>\\WizardHelper&#45;&gt;\\AppHelper</title>
<path fill="none" stroke="black" d="M1113.96,-2323.87C1094.98,-2320.44 1074.4,-2313.47 1060,-2299.64 980.932,-2223.65 1022.42,-2167.76 988,-2063.64 950.593,-1950.49 901.568,-1817.29 880.435,-1760.53"/>
<polygon fill="none" stroke="black" points="883.596,-1758.98 876.823,-1750.84 877.037,-1761.43 883.596,-1758.98"/>
</g>
<!-- \\DisplayNumberHelper -->
<g id="node36" class="node"><title>\\DisplayNumberHelper</title>
<polygon fill="none" stroke="black" points="1235,-2290.64 1091,-2290.64 1091,-2254.64 1235,-2254.64 1235,-2290.64"/>
<text text-anchor="middle" x="1163" y="-2269.74" font-family="Courier,monospace" font-size="11.00">DisplayNumberHelper</text>
</g>
<!-- \\DisplayNumberHelper&#45;&gt;\\AppHelper -->
<g id="edge59" class="edge"><title>\\DisplayNumberHelper&#45;&gt;\\AppHelper</title>
<path fill="none" stroke="black" d="M1090.36,-2263.08C1079.25,-2259.07 1068.63,-2253.46 1060,-2245.64 1050.35,-2236.89 917.634,-1866.2 879.927,-1760.5"/>
<polygon fill="none" stroke="black" points="883.139,-1759.09 876.484,-1750.85 876.546,-1761.44 883.139,-1759.09"/>
</g>
<!-- \\MessageFlashHelper -->
<g id="node37" class="node"><title>\\MessageFlashHelper</title>
<polygon fill="none" stroke="black" points="1232,-2236.64 1094,-2236.64 1094,-2200.64 1232,-2200.64 1232,-2236.64"/>
<text text-anchor="middle" x="1163" y="-2215.74" font-family="Courier,monospace" font-size="11.00">MessageFlashHelper</text>
</g>
<!-- \\MessageFlashHelper&#45;&gt;\\AppHelper -->
<g id="edge61" class="edge"><title>\\MessageFlashHelper&#45;&gt;\\AppHelper</title>
<path fill="none" stroke="black" d="M1093.8,-2209.89C1081.52,-2205.85 1069.61,-2200.02 1060,-2191.64 1024.89,-2161.01 913.641,-1854.95 879.837,-1760.35"/>
<polygon fill="none" stroke="black" points="883.114,-1759.12 876.458,-1750.87 876.521,-1761.47 883.114,-1759.12"/>
</g>
<!-- \\DateHelper -->
<g id="node38" class="node"><title>\\DateHelper</title>
<polygon fill="none" stroke="black" points="1205,-2074.64 1121,-2074.64 1121,-2038.64 1205,-2038.64 1205,-2074.64"/>
<text text-anchor="middle" x="1163" y="-2053.74" font-family="Courier,monospace" font-size="11.00">DateHelper</text>
</g>
<!-- \\DateHelper&#45;&gt;\\AppHelper -->
<g id="edge63" class="edge"><title>\\DateHelper&#45;&gt;\\AppHelper</title>
<path fill="none" stroke="black" d="M1120.85,-2052.75C1100.9,-2049.21 1077.64,-2042.47 1060,-2029.64 1009.52,-1992.91 918.866,-1826.17 884.1,-1759.91"/>
<polygon fill="none" stroke="black" points="887.121,-1758.13 879.388,-1750.89 880.916,-1761.37 887.121,-1758.13"/>
</g>
<!-- \\SnsButtonHelper -->
<g id="node39" class="node"><title>\\SnsButtonHelper</title>
<polygon fill="none" stroke="black" points="1222,-1858.64 1104,-1858.64 1104,-1822.64 1222,-1822.64 1222,-1858.64"/>
<text text-anchor="middle" x="1163" y="-1837.74" font-family="Courier,monospace" font-size="11.00">SnsButtonHelper</text>
</g>
<!-- \\SnsButtonHelper&#45;&gt;\\AppHelper -->
<g id="edge65" class="edge"><title>\\SnsButtonHelper&#45;&gt;\\AppHelper</title>
<path fill="none" stroke="black" d="M1103.73,-1826.69C1089.3,-1822.86 1073.99,-1818.43 1060,-1813.64 1010.27,-1796.62 955.199,-1772.54 917.206,-1755.06"/>
<polygon fill="none" stroke="black" points="918.474,-1751.79 907.929,-1750.76 915.534,-1758.14 918.474,-1751.79"/>
</g>
<!-- \\BackToHelper -->
<g id="node40" class="node"><title>\\BackToHelper</title>
<polygon fill="none" stroke="black" points="1212,-1804.64 1114,-1804.64 1114,-1768.64 1212,-1768.64 1212,-1804.64"/>
<text text-anchor="middle" x="1163" y="-1783.74" font-family="Courier,monospace" font-size="11.00">BackToHelper</text>
</g>
<!-- \\BackToHelper&#45;&gt;\\AppHelper -->
<g id="edge67" class="edge"><title>\\BackToHelper&#45;&gt;\\AppHelper</title>
<path fill="none" stroke="black" d="M1113.96,-1777.6C1059.78,-1767.62 973.056,-1751.63 918.925,-1741.66"/>
<polygon fill="none" stroke="black" points="919.351,-1738.18 908.882,-1739.81 918.082,-1745.06 919.351,-1738.18"/>
</g>
<!-- \\NetCommonsHtmlHelper -->
<g id="node41" class="node"><title>\\NetCommonsHtmlHelper</title>
<polygon fill="none" stroke="black" points="1239,-1750.64 1087,-1750.64 1087,-1714.64 1239,-1714.64 1239,-1750.64"/>
<text text-anchor="middle" x="1163" y="-1729.74" font-family="Courier,monospace" font-size="11.00">NetCommonsHtmlHelper</text>
</g>
<!-- \\NetCommonsHtmlHelper&#45;&gt;\\AppHelper -->
<g id="edge69" class="edge"><title>\\NetCommonsHtmlHelper&#45;&gt;\\AppHelper</title>
<path fill="none" stroke="black" d="M1086.78,-1732.64C1033.77,-1732.64 964.667,-1732.64 918.892,-1732.64"/>
<polygon fill="none" stroke="black" points="918.638,-1729.14 908.638,-1732.64 918.638,-1736.14 918.638,-1729.14"/>
</g>
<!-- \\ButtonHelper -->
<g id="node42" class="node"><title>\\ButtonHelper</title>
<polygon fill="none" stroke="black" points="1212,-832.64 1114,-832.64 1114,-796.64 1212,-796.64 1212,-832.64"/>
<text text-anchor="middle" x="1163" y="-811.74" font-family="Courier,monospace" font-size="11.00">ButtonHelper</text>
</g>
<!-- \\ButtonHelper&#45;&gt;\\FormHelper -->
<g id="edge71" class="edge"><title>\\ButtonHelper&#45;&gt;\\FormHelper</title>
<path fill="none" stroke="black" d="M1113.96,-813.083C1094.5,-809.892 1073.58,-802.778 1060,-787.64 914.8,-625.733 1135.73,-463.245 988,-303.64 978.083,-292.925 964.859,-286.038 950.853,-281.689"/>
<polygon fill="none" stroke="black" points="951.628,-278.273 941.063,-279.068 949.818,-285.035 951.628,-278.273"/>
</g>
<!-- \\ComposerHelper -->
<g id="node43" class="node"><title>\\ComposerHelper</title>
<polygon fill="none" stroke="black" points="1218,-1696.64 1108,-1696.64 1108,-1660.64 1218,-1660.64 1218,-1696.64"/>
<text text-anchor="middle" x="1163" y="-1675.74" font-family="Courier,monospace" font-size="11.00">ComposerHelper</text>
</g>
<!-- \\ComposerHelper&#45;&gt;\\AppHelper -->
<g id="edge73" class="edge"><title>\\ComposerHelper&#45;&gt;\\AppHelper</title>
<path fill="none" stroke="black" d="M1107.2,-1688.92C1052.72,-1698.96 970.647,-1714.09 918.725,-1723.66"/>
<polygon fill="none" stroke="black" points="917.959,-1720.24 908.759,-1725.5 919.228,-1727.13 917.959,-1720.24"/>
</g>
<!-- \\LinkButtonHelper -->
<g id="node44" class="node"><title>\\LinkButtonHelper</title>
<polygon fill="none" stroke="black" points="1225,-778.64 1101,-778.64 1101,-742.64 1225,-742.64 1225,-778.64"/>
<text text-anchor="middle" x="1163" y="-757.74" font-family="Courier,monospace" font-size="11.00">LinkButtonHelper</text>
</g>
<!-- \\LinkButtonHelper&#45;&gt;\\FormHelper -->
<g id="edge75" class="edge"><title>\\LinkButtonHelper&#45;&gt;\\FormHelper</title>
<path fill="none" stroke="black" d="M1100.44,-756.052C1085.34,-752.035 1070.53,-745.173 1060,-733.64 929.318,-590.567 1120.91,-444.641 988,-303.64 977.986,-293.016 964.718,-286.17 950.698,-281.834"/>
<polygon fill="none" stroke="black" points="951.468,-278.417 940.904,-279.217 949.661,-285.18 951.468,-278.417"/>
</g>
<!-- \\TableListHelper -->
<g id="node45" class="node"><title>\\TableListHelper</title>
<polygon fill="none" stroke="black" points="1222,-1642.64 1104,-1642.64 1104,-1606.64 1222,-1606.64 1222,-1642.64"/>
<text text-anchor="middle" x="1163" y="-1621.74" font-family="Courier,monospace" font-size="11.00">TableListHelper</text>
</g>
<!-- \\TableListHelper&#45;&gt;\\AppHelper -->
<g id="edge77" class="edge"><title>\\TableListHelper&#45;&gt;\\AppHelper</title>
<path fill="none" stroke="black" d="M1103.73,-1638.59C1089.3,-1642.42 1073.99,-1646.85 1060,-1651.64 1010.27,-1668.66 955.199,-1692.74 917.206,-1710.22"/>
<polygon fill="none" stroke="black" points="915.534,-1707.14 907.929,-1714.51 918.474,-1713.49 915.534,-1707.14"/>
</g>
<!-- \\NetCommonsTimeHelper -->
<g id="node46" class="node"><title>\\NetCommonsTimeHelper</title>
<polygon fill="none" stroke="black" points="1239,-1588.64 1087,-1588.64 1087,-1552.64 1239,-1552.64 1239,-1588.64"/>
<text text-anchor="middle" x="1163" y="-1567.74" font-family="Courier,monospace" font-size="11.00">NetCommonsTimeHelper</text>
</g>
<!-- \\NetCommonsTimeHelper&#45;&gt;\\AppHelper -->
<g id="edge79" class="edge"><title>\\NetCommonsTimeHelper&#45;&gt;\\AppHelper</title>
<path fill="none" stroke="black" d="M1086.79,-1587.26C1077.59,-1590.24 1068.46,-1593.69 1060,-1597.64 997.211,-1626.97 933.394,-1677.48 898.029,-1707.7"/>
<polygon fill="none" stroke="black" points="895.369,-1705.38 890.087,-1714.56 899.944,-1710.67 895.369,-1705.38"/>
</g>
<!-- \\NetCommonsFormHelper -->
<g id="node47" class="node"><title>\\NetCommonsFormHelper</title>
<polygon fill="none" stroke="black" points="1239,-1534.64 1087,-1534.64 1087,-1498.64 1239,-1498.64 1239,-1534.64"/>
<text text-anchor="middle" x="1163" y="-1513.74" font-family="Courier,monospace" font-size="11.00">NetCommonsFormHelper</text>
</g>
<!-- \\NetCommonsFormHelper&#45;&gt;\\AppHelper -->
<g id="edge81" class="edge"><title>\\NetCommonsFormHelper&#45;&gt;\\AppHelper</title>
<path fill="none" stroke="black" d="M1086.92,-1531.66C1077.55,-1534.92 1068.34,-1538.87 1060,-1543.64 985.721,-1586.13 920.104,-1665.12 889.041,-1706.23"/>
<polygon fill="none" stroke="black" points="886.119,-1704.29 882.946,-1714.4 891.73,-1708.48 886.119,-1704.29"/>
</g>
<!-- \\TitleIconHelper -->
<g id="node48" class="node"><title>\\TitleIconHelper</title>
<polygon fill="none" stroke="black" points="1222,-1480.64 1104,-1480.64 1104,-1444.64 1222,-1444.64 1222,-1480.64"/>
<text text-anchor="middle" x="1163" y="-1459.74" font-family="Courier,monospace" font-size="11.00">TitleIconHelper</text>
</g>
<!-- \\TitleIconHelper&#45;&gt;\\AppHelper -->
<g id="edge83" class="edge"><title>\\TitleIconHelper&#45;&gt;\\AppHelper</title>
<path fill="none" stroke="black" d="M1103.83,-1471.2C1088.71,-1475.2 1073.05,-1481.06 1060,-1489.64 974.042,-1546.18 910.094,-1654.71 883.531,-1705.36"/>
<polygon fill="none" stroke="black" points="880.341,-1703.91 878.865,-1714.4 886.562,-1707.12 880.341,-1703.91"/>
</g>
<!-- \\DatetimePickerHelper -->
<g id="node49" class="node"><title>\\DatetimePickerHelper</title>
<polygon fill="none" stroke="black" points="1239,-1426.64 1087,-1426.64 1087,-1390.64 1239,-1390.64 1239,-1426.64"/>
<text text-anchor="middle" x="1163" y="-1405.74" font-family="Courier,monospace" font-size="11.00">DatetimePickerHelper</text>
</g>
<!-- \\DatetimePickerHelper&#45;&gt;\\AppHelper -->
<g id="edge85" class="edge"><title>\\DatetimePickerHelper&#45;&gt;\\AppHelper</title>
<path fill="none" stroke="black" d="M1086.89,-1421.57C1077.32,-1425.17 1068.07,-1429.77 1060,-1435.64 1009.52,-1472.37 918.866,-1639.11 884.1,-1705.37"/>
<polygon fill="none" stroke="black" points="880.916,-1703.91 879.388,-1714.39 887.121,-1707.15 880.916,-1703.91"/>
</g>
<!-- \\Model -->
<g id="node114" class="node"><title>\\Model</title>
<ellipse fill="none" stroke="black" cx="44" cy="-2785.64" rx="43.8406" ry="18.3848"/>
<text text-anchor="middle" x="44" y="-2782.04" font-family="Times Roman,serif" font-size="14.00" fill="gray">\Model</text>
</g>
<!-- \\NetCommonsAppModel&#45;&gt;\\Model -->
<g id="edge87" class="edge"><title>\\NetCommonsAppModel&#45;&gt;\\Model</title>
<path fill="none" stroke="black" d="M197.969,-2785.64C165.93,-2785.64 128.391,-2785.64 98.4002,-2785.64"/>
<polygon fill="none" stroke="black" points="98.1284,-2782.14 88.1284,-2785.64 98.1284,-2789.14 98.1284,-2782.14"/>
</g>
<!-- \\OriginalKeyBehavior -->
<g id="node51" class="node"><title>\\OriginalKeyBehavior</title>
<polygon fill="none" stroke="black" points="1235,-616.64 1091,-616.64 1091,-580.64 1235,-580.64 1235,-616.64"/>
<text text-anchor="middle" x="1163" y="-595.74" font-family="Courier,monospace" font-size="11.00">OriginalKeyBehavior</text>
</g>
<!-- \\ModelBehavior -->
<g id="node116" class="node"><title>\\ModelBehavior</title>
<ellipse fill="none" stroke="black" cx="870" cy="-168.64" rx="86.9741" ry="18.3848"/>
<text text-anchor="middle" x="870" y="-165.04" font-family="Times Roman,serif" font-size="14.00" fill="gray">\ModelBehavior</text>
</g>
<!-- \\OriginalKeyBehavior&#45;&gt;\\ModelBehavior -->
<g id="edge89" class="edge"><title>\\OriginalKeyBehavior&#45;&gt;\\ModelBehavior</title>
<path fill="none" stroke="black" d="M1090.25,-590.635C1078.89,-586.477 1068.21,-580.417 1060,-571.64 943.795,-447.355 1106.14,-318.083 988,-195.64 980.646,-188.018 971.615,-182.351 961.852,-178.164"/>
<polygon fill="none" stroke="black" points="962.89,-174.816 952.298,-174.588 960.436,-181.372 962.89,-174.816"/>
</g>
<!-- \\TrackableBehavior -->
<g id="node52" class="node"><title>\\TrackableBehavior</title>
<polygon fill="none" stroke="black" points="1228,-670.64 1098,-670.64 1098,-634.64 1228,-634.64 1228,-670.64"/>
<text text-anchor="middle" x="1163" y="-649.74" font-family="Courier,monospace" font-size="11.00">TrackableBehavior</text>
</g>
<!-- \\TrackableBehavior&#45;&gt;\\ModelBehavior -->
<g id="edge91" class="edge"><title>\\TrackableBehavior&#45;&gt;\\ModelBehavior</title>
<path fill="none" stroke="black" d="M1097.5,-647.231C1083.43,-643.122 1069.85,-636.423 1060,-625.64 929.318,-482.567 1120.91,-336.641 988,-195.64 980.736,-187.933 971.758,-182.214 962.025,-178"/>
<polygon fill="none" stroke="black" points="963.083,-174.658 952.491,-174.404 960.613,-181.208 963.083,-174.658"/>
</g>
<!-- \\YAExceptionRenderer -->
<g id="node53" class="node"><title>\\YAExceptionRenderer</title>
<polygon fill="none" stroke="black" points="1235,-562.64 1091,-562.64 1091,-526.64 1235,-526.64 1235,-562.64"/>
<text text-anchor="middle" x="1163" y="-541.74" font-family="Courier,monospace" font-size="11.00">YAExceptionRenderer</text>
</g>
<!-- \\ExceptionRenderer -->
<g id="node119" class="node"><title>\\ExceptionRenderer</title>
<ellipse fill="none" stroke="black" cx="870" cy="-114.64" rx="118.087" ry="18.3848"/>
<text text-anchor="middle" x="870" y="-111.04" font-family="Times Roman,serif" font-size="14.00" fill="gray">TEHxceptionRenderer</text>
</g>
<!-- \\YAExceptionRenderer&#45;&gt;\\ExceptionRenderer -->
<g id="edge93" class="edge"><title>\\YAExceptionRenderer&#45;&gt;\\ExceptionRenderer</title>
<path fill="none" stroke="black" d="M1090.25,-536.635C1078.89,-532.477 1068.21,-526.417 1060,-517.64 943.795,-393.355 1106.14,-264.083 988,-141.64 983.747,-137.231 978.932,-133.477 973.739,-130.285"/>
<polygon fill="none" stroke="black" points="975.142,-127.066 964.675,-125.427 971.836,-133.235 975.142,-127.066"/>
</g>
<!-- \\NetCommonsMigration -->
<g id="node54" class="node"><title>\\NetCommonsMigration</title>
<polygon fill="none" stroke="black" points="942,-860.64 798,-860.64 798,-824.64 942,-824.64 942,-860.64"/>
<text text-anchor="middle" x="870" y="-839.74" font-family="Courier,monospace" font-size="11.00">NetCommonsMigration</text>
</g>
<!-- \\CakeMigration -->
<g id="node121" class="node"><title>\\CakeMigration</title>
<ellipse fill="none" stroke="black" cx="563" cy="-153.64" rx="84.8528" ry="18.3848"/>
<text text-anchor="middle" x="563" y="-150.04" font-family="Times Roman,serif" font-size="14.00" fill="gray">\CakeMigration</text>
</g>
<!-- \\NetCommonsMigration&#45;&gt;\\CakeMigration -->
<g id="edge95" class="edge"><title>\\NetCommonsMigration&#45;&gt;\\CakeMigration</title>
<path fill="none" stroke="black" d="M797.206,-843.175C780.328,-839.798 763.858,-833.088 752,-820.64 588.947,-649.473 775.521,-509.88 680,-293.64 659.409,-247.027 618.493,-203.711 590.929,-177.957"/>
<polygon fill="none" stroke="black" points="593.27,-175.355 583.537,-171.17 588.536,-180.511 593.27,-175.355"/>
</g>
<!-- \\FrameSettingsControllerTest -->
<g id="node55" class="node"><title>\\FrameSettingsControllerTest</title>
<polygon fill="none" stroke="black" points="1262,-2776.64 1064,-2776.64 1064,-2740.64 1262,-2740.64 1262,-2776.64"/>
<text text-anchor="middle" x="1163" y="-2755.74" font-family="Courier,monospace" font-size="11.00">FrameSettingsControllerTest</text>
</g>
<!-- \\FrameSettingsControllerTest&#45;&gt;\\NetCommonsControllerTestCase -->
<g id="edge97" class="edge"><title>\\FrameSettingsControllerTest&#45;&gt;\\NetCommonsControllerTestCase</title>
<path fill="none" stroke="black" d="M1084.1,-2740.6C1045.42,-2731.75 998.701,-2721.07 958.784,-2711.94"/>
<polygon fill="none" stroke="black" points="959.319,-2708.47 948.791,-2709.66 957.759,-2715.3 959.319,-2708.47"/>
</g>
<!-- \\FramesAppController -->
<g id="node56" class="node"><title>\\FramesAppController</title>
<polygon fill="none" stroke="black" points="942,-2108.64 798,-2108.64 798,-2072.64 942,-2072.64 942,-2108.64"/>
<text text-anchor="middle" x="870" y="-2087.74" font-family="Courier,monospace" font-size="11.00">FramesAppController</text>
</g>
<!-- \\FramesAppController&#45;&gt;\\AppController -->
<g id="edge99" class="edge"><title>\\FramesAppController&#45;&gt;\\AppController</title>
<path fill="none" stroke="black" d="M860.812,-2072.47C817.03,-1985.91 629.513,-1615.15 576.821,-1510.97"/>
<polygon fill="none" stroke="black" points="579.789,-1509.08 572.152,-1501.74 573.542,-1512.24 579.789,-1509.08"/>
</g>
<!-- \\FramesController -->
<g id="node57" class="node"><title>\\FramesController</title>
<polygon fill="none" stroke="black" points="1225,-2452.64 1101,-2452.64 1101,-2416.64 1225,-2416.64 1225,-2452.64"/>
<text text-anchor="middle" x="1163" y="-2431.74" font-family="Courier,monospace" font-size="11.00">FramesController</text>
</g>
<!-- \\FramesController&#45;&gt;\\FramesAppController -->
<g id="edge101" class="edge"><title>\\FramesController&#45;&gt;\\FramesAppController</title>
<path fill="none" stroke="black" d="M1100.4,-2426.41C1086.14,-2422.4 1071.76,-2416.46 1060,-2407.64 957.381,-2330.66 899.161,-2180.57 878.582,-2118.52"/>
<polygon fill="none" stroke="black" points="881.801,-2117.1 875.387,-2108.66 875.142,-2119.26 881.801,-2117.1"/>
</g>
<!-- \\FramesAppModel -->
<g id="node58" class="node"><title>\\FramesAppModel</title>
<polygon fill="none" stroke="black" points="925,-2830.64 815,-2830.64 815,-2794.64 925,-2794.64 925,-2830.64"/>
<text text-anchor="middle" x="870" y="-2809.74" font-family="Courier,monospace" font-size="11.00">FramesAppModel</text>
</g>
<!-- \\FramesAppModel&#45;&gt;\\AppModel -->
<g id="edge103" class="edge"><title>\\FramesAppModel&#45;&gt;\\AppModel</title>
<path fill="none" stroke="black" d="M814.405,-2807.75C755.479,-2802.57 663.518,-2794.48 608.67,-2789.66"/>
<polygon fill="none" stroke="black" points="608.814,-2786.16 598.546,-2788.77 608.201,-2793.13 608.814,-2786.16"/>
</g>
<!-- \\Frame -->
<g id="node59" class="node"><title>\\Frame</title>
<polygon fill="none" stroke="black" points="1190,-2830.64 1136,-2830.64 1136,-2794.64 1190,-2794.64 1190,-2830.64"/>
<text text-anchor="middle" x="1163" y="-2809.74" font-family="Courier,monospace" font-size="11.00">Frame</text>
</g>
<!-- \\Frame&#45;&gt;\\FramesAppModel -->
<g id="edge105" class="edge"><title>\\Frame&#45;&gt;\\FramesAppModel</title>
<path fill="none" stroke="black" d="M1135.96,-2812.64C1090.8,-2812.64 998.789,-2812.64 935.763,-2812.64"/>
<polygon fill="none" stroke="black" points="935.52,-2809.14 925.52,-2812.64 935.52,-2816.14 935.52,-2809.14"/>
</g>
<!-- \\FramesSchema -->
<g id="node60" class="node"><title>\\FramesSchema</title>
<polygon fill="none" stroke="black" points="1212,-508.64 1114,-508.64 1114,-472.64 1212,-472.64 1212,-508.64"/>
<text text-anchor="middle" x="1163" y="-487.74" font-family="Courier,monospace" font-size="11.00">FramesSchema</text>
</g>
<!-- \\CakeSchema -->
<g id="node128" class="node"><title>\\CakeSchema</title>
<ellipse fill="none" stroke="black" cx="870" cy="-60.6397" rx="77.0746" ry="18.3848"/>
<text text-anchor="middle" x="870" y="-57.0397" font-family="Times Roman,serif" font-size="14.00" fill="gray">\CakeSchema</text>
</g>
<!-- \\FramesSchema&#45;&gt;\\CakeSchema -->
<g id="edge107" class="edge"><title>\\FramesSchema&#45;&gt;\\CakeSchema</title>
<path fill="none" stroke="black" d="M1114,-488.76C1094.67,-485.503 1073.82,-478.426 1060,-463.64 943.795,-339.355 1106.14,-210.083 988,-87.6397 978.93,-78.2395 967.308,-71.8124 954.908,-67.4687"/>
<polygon fill="none" stroke="black" points="955.89,-64.109 945.304,-64.5385 953.847,-70.8043 955.89,-64.109"/>
</g>
<!-- \\Records -->
<g id="node61" class="node"><title>\\Records</title>
<polygon fill="none" stroke="black" points="1195,-1264.64 1131,-1264.64 1131,-1228.64 1195,-1228.64 1195,-1264.64"/>
<text text-anchor="middle" x="1163" y="-1243.74" font-family="Courier,monospace" font-size="11.00">Records</text>
</g>
<!-- \\Records&#45;&gt;\\NetCommonsMigration -->
<g id="edge109" class="edge"><title>\\Records&#45;&gt;\\NetCommonsMigration</title>
<path fill="none" stroke="black" d="M1130.64,-1245C1108.63,-1242.37 1079.98,-1235.8 1060,-1219.64 943.468,-1125.37 891.869,-941.135 875.826,-870.826"/>
<polygon fill="none" stroke="black" points="879.213,-869.932 873.632,-860.926 872.378,-871.447 879.213,-869.932"/>
</g>
<!-- \\Init -->
<g id="node62" class="node"><title>\\Init</title>
<polygon fill="none" stroke="black" points="1190,-454.64 1136,-454.64 1136,-418.64 1190,-418.64 1190,-454.64"/>
<text text-anchor="middle" x="1163" y="-433.74" font-family="Courier,monospace" font-size="11.00">Init</text>
</g>
<!-- \\Init&#45;&gt;\\CakeMigration -->
<g id="edge111" class="edge"><title>\\Init&#45;&gt;\\CakeMigration</title>
<path fill="none" stroke="black" d="M1161.73,-418.211C1156.05,-351.91 1126.72,-124.636 988,-33.6397 900.297,23.8912 852.721,-4.3658 752,-33.6397 687.904,-52.2687 624.751,-99.9054 590.119,-129.248"/>
<polygon fill="none" stroke="black" points="587.653,-126.753 582.354,-135.928 592.218,-132.06 587.653,-126.753"/>
</g>
</g>
</svg>
