<?xml version="1.0" encoding="UTF-8" standalone="no"?>
<!DOCTYPE svg PUBLIC "-//W3C//DTD SVG 1.1//EN"
 "http://www.w3.org/Graphics/SVG/1.1/DTD/svg11.dtd">
<!-- Generated by graphviz version 2.26.3 (20100126.1600)
 -->
<!-- Title: G Pages: 1 -->
<svg width="1080pt" height="2942pt"
 viewBox="0.00 0.00 1080.00 2942.00" xmlns="http://www.w3.org/2000/svg" xmlns:xlink="http://www.w3.org/1999/xlink">
<g id="graph1" class="graph" transform="scale(1 1) rotate(0) translate(4 2938)">
<title>G</title>
<polygon fill="white" stroke="white" points="-4,5 -4,-2938 1077,-2938 1077,5 -4,5"/>
<g id="graph2" class="cluster"><title>cluster_Global</title>
<polyline fill="none" stroke="gray" points="264,-368 1052,-368 "/>
<path fill="none" stroke="gray" d="M1052,-368C1058,-368 1064,-374 1064,-380"/>
<polyline fill="none" stroke="gray" points="1064,-380 1064,-2914 "/>
<path fill="none" stroke="gray" d="M1064,-2914C1064,-2920 1058,-2926 1052,-2926"/>
<polyline fill="none" stroke="gray" points="1052,-2926 264,-2926 "/>
<path fill="none" stroke="gray" d="M264,-2926C258,-2926 252,-2920 252,-2914"/>
<polyline fill="none" stroke="gray" points="252,-2914 252,-380 "/>
<path fill="none" stroke="gray" d="M252,-380C252,-374 258,-368 264,-368"/>
<text text-anchor="middle" x="658" y="-2912.1" font-family="Times Roman,serif" font-size="11.00" fill="gray">Global</text>
</g>
<!-- \\AppController -->
<g id="node2" class="node"><title>\\AppController</title>
<polygon fill="none" stroke="black" points="395,-2059 291,-2059 291,-2023 395,-2023 395,-2059"/>
<text text-anchor="middle" x="343" y="-2038.1" font-family="Courier,monospace" font-size="11.00">AppController</text>
</g>
<!-- \\Controller -->
<g id="node63" class="node"><title>\\Controller</title>
<ellipse fill="none" stroke="black" cx="82" cy="-1317" rx="63.1385" ry="18.3848"/>
<text text-anchor="middle" x="82" y="-1313.4" font-family="Times Roman,serif" font-size="14.00" fill="gray">\Controller</text>
</g>
<!-- \\AppController&#45;&gt;\\Controller -->
<g id="edge3" class="edge"><title>\\AppController&#45;&gt;\\Controller</title>
<path fill="none" stroke="black" d="M290.855,-2041.77C271.309,-2039.38 250.376,-2033.19 236,-2019 137.287,-1921.58 93.8845,-1463.97 84.1705,-1345.21"/>
<polygon fill="none" stroke="black" points="87.648,-1344.79 83.3586,-1335.1 80.6704,-1345.35 87.648,-1344.79"/>
</g>
<!-- \\AppModel -->
<g id="node3" class="node"><title>\\AppModel</title>
<polygon fill="none" stroke="black" points="675,-2626 605,-2626 605,-2590 675,-2590 675,-2626"/>
<text text-anchor="middle" x="640" y="-2605.1" font-family="Courier,monospace" font-size="11.00">AppModel</text>
</g>
<!-- \\NetCommonsAppModel -->
<g id="node48" class="node"><title>\\NetCommonsAppModel</title>
<polygon fill="none" stroke="black" points="412,-2626 274,-2626 274,-2590 412,-2590 412,-2626"/>
<text text-anchor="middle" x="343" y="-2605.1" font-family="Courier,monospace" font-size="11.00">NetCommonsAppModel</text>
</g>
<!-- \\AppModel&#45;&gt;\\NetCommonsAppModel -->
<g id="edge5" class="edge"><title>\\AppModel&#45;&gt;\\NetCommonsAppModel</title>
<path fill="none" stroke="black" d="M604.47,-2608C559.713,-2608 481.497,-2608 422.241,-2608"/>
<polygon fill="none" stroke="black" points="422.157,-2604.5 412.157,-2608 422.157,-2611.5 422.157,-2604.5"/>
</g>
<!-- \\DatabaseConfiguration -->
<g id="node4" class="node"><title>\\DatabaseConfiguration</title>
<polygon fill="none" stroke="black" points="1022,-2572 864,-2572 864,-2536 1022,-2536 1022,-2572"/>
<text text-anchor="middle" x="943" y="-2551.1" font-family="Courier,monospace" font-size="11.00">DatabaseConfiguration</text>
</g>
<!-- \\DatabaseConfiguration&#45;&gt;\\AppModel -->
<g id="edge7" class="edge"><title>\\DatabaseConfiguration&#45;&gt;\\AppModel</title>
<path fill="none" stroke="black" d="M863.786,-2568.12C807.101,-2578.22 732.781,-2591.46 685.695,-2599.86"/>
<polygon fill="none" stroke="black" points="685.018,-2596.42 675.787,-2601.62 686.246,-2603.31 685.018,-2596.42"/>
</g>
<!-- \\AppHelper -->
<g id="node5" class="node"><title>\\AppHelper</title>
<polygon fill="none" stroke="black" points="678,-1681 602,-1681 602,-1645 678,-1645 678,-1681"/>
<text text-anchor="middle" x="640" y="-1660.1" font-family="Courier,monospace" font-size="11.00">AppHelper</text>
</g>
<!-- \\Helper -->
<g id="node67" class="node"><title>\\Helper</title>
<ellipse fill="none" stroke="black" cx="343" cy="-342" rx="43.8406" ry="18.3848"/>
<text text-anchor="middle" x="343" y="-338.4" font-family="Times Roman,serif" font-size="14.00" fill="gray">Helper</text>
</g>
<!-- \\AppHelper&#45;&gt;\\Helper -->
<g id="edge9" class="edge"><title>\\AppHelper&#45;&gt;\\Helper</title>
<path fill="none" stroke="black" d="M632.736,-1644.89C611.513,-1591.09 549.373,-1427.1 522,-1285 502.584,-1184.21 517.915,-440.965 450,-364 436.75,-348.984 416.226,-342.613 396.683,-340.309"/>
<polygon fill="none" stroke="black" points="396.857,-336.812 386.596,-339.451 396.264,-343.786 396.857,-336.812"/>
</g>
<!-- \\NetCommonsDeleteTest -->
<g id="node6" class="node"><title>\\NetCommonsDeleteTest</title>
<polygon fill="none" stroke="black" points="1019,-2734 867,-2734 867,-2698 1019,-2698 1019,-2734"/>
<text text-anchor="middle" x="943" y="-2713.1" font-family="Courier,monospace" font-size="11.00">NetCommonsDeleteTest</text>
</g>
<!-- \\NetCommonsModelTestCase -->
<g id="node15" class="node"><title>\\NetCommonsModelTestCase</title>
<polygon fill="none" stroke="black" points="726,-2815 554,-2815 554,-2779 726,-2779 726,-2815"/>
<text text-anchor="middle" x="640" y="-2794.1" font-family="Courier,monospace" font-size="11.00">NetCommonsModelTestCase</text>
</g>
<!-- \\NetCommonsDeleteTest&#45;&gt;\\NetCommonsModelTestCase -->
<g id="edge11" class="edge"><title>\\NetCommonsDeleteTest&#45;&gt;\\NetCommonsModelTestCase</title>
<path fill="none" stroke="black" d="M866.975,-2732.79C854.548,-2735.93 841.863,-2739.37 830,-2743 797.317,-2752.99 790.731,-2760.17 758,-2770 750.57,-2772.23 742.83,-2774.38 735.023,-2776.43"/>
<polygon fill="none" stroke="black" points="733.938,-2773.09 725.116,-2778.96 735.671,-2779.87 733.938,-2773.09"/>
</g>
<!-- \\NetCommonsConsoleTestCase -->
<g id="node7" class="node"><title>\\NetCommonsConsoleTestCase</title>
<polygon fill="none" stroke="black" points="732,-2761 548,-2761 548,-2725 732,-2725 732,-2761"/>
<text text-anchor="middle" x="640" y="-2740.1" font-family="Courier,monospace" font-size="11.00">NetCommonsConsoleTestCase</text>
</g>
<!-- \\NetCommonsCakeTestCase -->
<g id="node13" class="node"><title>\\NetCommonsCakeTestCase</title>
<polygon fill="none" stroke="black" points="425,-2761 261,-2761 261,-2725 425,-2725 425,-2761"/>
<text text-anchor="middle" x="343" y="-2740.1" font-family="Courier,monospace" font-size="11.00">NetCommonsCakeTestCase</text>
</g>
<!-- \\NetCommonsConsoleTestCase&#45;&gt;\\NetCommonsCakeTestCase -->
<g id="edge13" class="edge"><title>\\NetCommonsConsoleTestCase&#45;&gt;\\NetCommonsCakeTestCase</title>
<path fill="none" stroke="black" d="M547.249,-2743C511.93,-2743 471.688,-2743 436.316,-2743"/>
<polygon fill="none" stroke="black" points="435.993,-2739.5 425.993,-2743 435.993,-2746.5 435.993,-2739.5"/>
</g>
<!-- \\NetCommonsGetTest -->
<g id="node8" class="node"><title>\\NetCommonsGetTest</title>
<polygon fill="none" stroke="black" points="1008,-2896 878,-2896 878,-2860 1008,-2860 1008,-2896"/>
<text text-anchor="middle" x="943" y="-2875.1" font-family="Courier,monospace" font-size="11.00">NetCommonsGetTest</text>
</g>
<!-- \\NetCommonsGetTest&#45;&gt;\\NetCommonsModelTestCase -->
<g id="edge15" class="edge"><title>\\NetCommonsGetTest&#45;&gt;\\NetCommonsModelTestCase</title>
<path fill="none" stroke="black" d="M877.453,-2862.84C861.868,-2859.09 845.319,-2855.01 830,-2851 790.424,-2840.65 746.478,-2828.22 710.826,-2817.9"/>
<polygon fill="none" stroke="black" points="711.58,-2814.47 701.001,-2815.05 709.628,-2821.2 711.58,-2814.47"/>
</g>
<!-- \\NetCommonsHelperTestCase -->
<g id="node9" class="node"><title>\\NetCommonsHelperTestCase</title>
<polygon fill="none" stroke="black" points="729,-2707 551,-2707 551,-2671 729,-2671 729,-2707"/>
<text text-anchor="middle" x="640" y="-2686.1" font-family="Courier,monospace" font-size="11.00">NetCommonsHelperTestCase</text>
</g>
<!-- \\NetCommonsHelperTestCase&#45;&gt;\\NetCommonsCakeTestCase -->
<g id="edge17" class="edge"><title>\\NetCommonsHelperTestCase&#45;&gt;\\NetCommonsCakeTestCase</title>
<path fill="none" stroke="black" d="M550.487,-2705.28C514.267,-2711.86 472.456,-2719.46 435.9,-2726.11"/>
<polygon fill="none" stroke="black" points="434.95,-2722.72 425.737,-2727.96 436.202,-2729.61 434.95,-2722.72"/>
</g>
<!-- \\NetCommonsControllerBaseTestCase -->
<g id="node10" class="node"><title>\\NetCommonsControllerBaseTestCase</title>
<polygon fill="none" stroke="black" points="756,-1276 524,-1276 524,-1240 756,-1240 756,-1276"/>
<text text-anchor="middle" x="640" y="-1255.1" font-family="Courier,monospace" font-size="11.00">NetCommonsControllerBaseTestCase</text>
</g>
<!-- \\ControllerTestCase -->
<g id="node73" class="node"><title>\\ControllerTestCase</title>
<ellipse fill="none" stroke="black" cx="343" cy="-288" rx="106.773" ry="18.3848"/>
<text text-anchor="middle" x="343" y="-284.4" font-family="Times Roman,serif" font-size="14.00" fill="gray">\ControllerTestCase</text>
</g>
<!-- \\NetCommonsControllerBaseTestCase&#45;&gt;\\ControllerTestCase -->
<g id="edge19" class="edge"><title>\\NetCommonsControllerBaseTestCase&#45;&gt;\\ControllerTestCase</title>
<path fill="none" stroke="black" d="M634.091,-1239.72C615.185,-1180.63 555.47,-989.217 522,-827 498.783,-714.473 526.764,-400.491 450,-315 446.16,-310.723 441.751,-307.078 436.958,-303.976"/>
<polygon fill="none" stroke="black" points="438.396,-300.77 427.957,-298.957 434.987,-306.884 438.396,-300.77"/>
</g>
<!-- \\NetCommonsValidateTest -->
<g id="node11" class="node"><title>\\NetCommonsValidateTest</title>
<polygon fill="none" stroke="black" points="1025,-2842 861,-2842 861,-2806 1025,-2806 1025,-2842"/>
<text text-anchor="middle" x="943" y="-2821.1" font-family="Courier,monospace" font-size="11.00">NetCommonsValidateTest</text>
</g>
<!-- \\NetCommonsValidateTest&#45;&gt;\\NetCommonsModelTestCase -->
<g id="edge21" class="edge"><title>\\NetCommonsValidateTest&#45;&gt;\\NetCommonsModelTestCase</title>
<path fill="none" stroke="black" d="M860.204,-2816.62C821.84,-2813.2 776.02,-2809.12 736.135,-2805.57"/>
<polygon fill="none" stroke="black" points="736.402,-2802.08 726.131,-2804.68 735.781,-2809.05 736.402,-2802.08"/>
</g>
<!-- \\NetCommonsTestSuite -->
<g id="node12" class="node"><title>\\NetCommonsTestSuite</title>
<polygon fill="none" stroke="black" points="1015,-1168 871,-1168 871,-1132 1015,-1132 1015,-1168"/>
<text text-anchor="middle" x="943" y="-1147.1" font-family="Courier,monospace" font-size="11.00">NetCommonsTestSuite</text>
</g>
<!-- \\CakeTestSuite -->
<g id="node76" class="node"><title>\\CakeTestSuite</title>
<ellipse fill="none" stroke="black" cx="640" cy="-342" rx="84.1457" ry="18.3848"/>
<text text-anchor="middle" x="640" y="-338.4" font-family="Times Roman,serif" font-size="14.00" fill="gray">\CakeTestSuite</text>
</g>
<!-- \\NetCommonsTestSuite&#45;&gt;\\CakeTestSuite -->
<g id="edge23" class="edge"><title>\\NetCommonsTestSuite&#45;&gt;\\CakeTestSuite</title>
<path fill="none" stroke="black" d="M870.338,-1146.3C855.027,-1142.11 840.386,-1134.95 830,-1123 718.869,-995.116 872.306,-489.054 758,-364 751.146,-356.501 742.623,-351.061 733.316,-347.167"/>
<polygon fill="none" stroke="black" points="734.374,-343.828 723.78,-343.769 732.025,-350.422 734.374,-343.828"/>
</g>
<!-- \\CakeTestCase -->
<g id="node78" class="node"><title>\\CakeTestCase</title>
<ellipse fill="none" stroke="black" cx="82" cy="-2743" rx="82.0244" ry="18.3848"/>
<text text-anchor="middle" x="82" y="-2739.4" font-family="Times Roman,serif" font-size="14.00" fill="gray">\CakeTestCase</text>
</g>
<!-- \\NetCommonsCakeTestCase&#45;&gt;\\CakeTestCase -->
<g id="edge25" class="edge"><title>\\NetCommonsCakeTestCase&#45;&gt;\\CakeTestCase</title>
<path fill="none" stroke="black" d="M260.418,-2743C233.018,-2743 202.345,-2743 174.263,-2743"/>
<polygon fill="none" stroke="black" points="174.045,-2739.5 164.045,-2743 174.045,-2746.5 174.045,-2739.5"/>
</g>
<!-- \\NetCommonsSaveTest -->
<g id="node14" class="node"><title>\\NetCommonsSaveTest</title>
<polygon fill="none" stroke="black" points="1012,-2788 874,-2788 874,-2752 1012,-2752 1012,-2788"/>
<text text-anchor="middle" x="943" y="-2767.1" font-family="Courier,monospace" font-size="11.00">NetCommonsSaveTest</text>
</g>
<!-- \\NetCommonsSaveTest&#45;&gt;\\NetCommonsModelTestCase -->
<g id="edge27" class="edge"><title>\\NetCommonsSaveTest&#45;&gt;\\NetCommonsModelTestCase</title>
<path fill="none" stroke="black" d="M873.865,-2776.16C833.108,-2779.79 780.923,-2784.44 736.193,-2788.43"/>
<polygon fill="none" stroke="black" points="735.831,-2784.95 726.181,-2789.32 736.452,-2791.92 735.831,-2784.95"/>
</g>
<!-- \\NetCommonsModelTestCase&#45;&gt;\\NetCommonsCakeTestCase -->
<g id="edge29" class="edge"><title>\\NetCommonsModelTestCase&#45;&gt;\\NetCommonsCakeTestCase</title>
<path fill="none" stroke="black" d="M553.696,-2781.31C516.671,-2774.58 473.35,-2766.7 435.65,-2759.85"/>
<polygon fill="none" stroke="black" points="436.151,-2756.38 425.686,-2758.03 434.899,-2763.27 436.151,-2756.38"/>
</g>
<!-- \\NetCommonsControllerTestCase -->
<g id="node16" class="node"><title>\\NetCommonsControllerTestCase</title>
<polygon fill="none" stroke="black" points="1046,-1276 840,-1276 840,-1240 1046,-1240 1046,-1276"/>
<text text-anchor="middle" x="943" y="-1255.1" font-family="Courier,monospace" font-size="11.00">NetCommonsControllerTestCase</text>
</g>
<!-- \\NetCommonsControllerTestCase&#45;&gt;\\NetCommonsControllerBaseTestCase -->
<g id="edge31" class="edge"><title>\\NetCommonsControllerTestCase&#45;&gt;\\NetCommonsControllerBaseTestCase</title>
<path fill="none" stroke="black" d="M839.995,-1258C816.397,-1258 791.044,-1258 766.582,-1258"/>
<polygon fill="none" stroke="black" points="766.529,-1254.5 756.529,-1258 766.529,-1261.5 766.529,-1254.5"/>
</g>
<!-- \\NetCommonsAppController -->
<g id="node17" class="node"><title>\\NetCommonsAppController</title>
<polygon fill="none" stroke="black" points="726,-818 554,-818 554,-782 726,-782 726,-818"/>
<text text-anchor="middle" x="640" y="-797.1" font-family="Courier,monospace" font-size="11.00">NetCommonsAppController</text>
</g>
<!-- \\NetCommonsAppController&#45;&gt;\\Controller -->
<g id="edge33" class="edge"><title>\\NetCommonsAppController&#45;&gt;\\Controller</title>
<path fill="none" stroke="black" d="M553.891,-797.057C541.89,-793.154 530.708,-787.117 522,-778 361.766,-610.229 624.994,-413.312 450,-261 378.258,-198.557 307.943,-198.788 236,-261 155.43,-330.672 95.3424,-1127.31 83.9543,-1288.62"/>
<polygon fill="none" stroke="black" points="80.4545,-1288.5 83.2468,-1298.72 87.4374,-1288.99 80.4545,-1288.5"/>
</g>
<!-- \\AssetComponent -->
<g id="node18" class="node"><title>\\AssetComponent</title>
<polygon fill="none" stroke="black" points="998,-1006 888,-1006 888,-970 998,-970 998,-1006"/>
<text text-anchor="middle" x="943" y="-985.1" font-family="Courier,monospace" font-size="11.00">AssetComponent</text>
</g>
<!-- \\Component -->
<g id="node84" class="node"><title>\\Component</title>
<ellipse fill="none" stroke="black" cx="640" cy="-288" rx="70.9184" ry="18.3848"/>
<text text-anchor="middle" x="640" y="-284.4" font-family="Times Roman,serif" font-size="14.00" fill="gray">\Component</text>
</g>
<!-- \\AssetComponent&#45;&gt;\\Component -->
<g id="edge35" class="edge"><title>\\AssetComponent&#45;&gt;\\Component</title>
<path fill="none" stroke="black" d="M887.243,-987.645C866.375,-984.544 844.29,-977.174 830,-961 638.725,-744.504 950.312,-530.576 758,-315 748.225,-304.042 734.994,-297.054 720.924,-292.686"/>
<polygon fill="none" stroke="black" points="721.644,-289.256 711.08,-290.064 719.842,-296.02 721.644,-289.256"/>
</g>
<!-- \\NetCommonsTimeComponent -->
<g id="node19" class="node"><title>\\NetCommonsTimeComponent</title>
<polygon fill="none" stroke="black" points="1029,-952 857,-952 857,-916 1029,-916 1029,-952"/>
<text text-anchor="middle" x="943" y="-931.1" font-family="Courier,monospace" font-size="11.00">NetCommonsTimeComponent</text>
</g>
<!-- \\NetCommonsTimeComponent&#45;&gt;\\Component -->
<g id="edge37" class="edge"><title>\\NetCommonsTimeComponent&#45;&gt;\\Component</title>
<path fill="none" stroke="black" d="M856.788,-925.394C846.644,-921.135 837.32,-915.202 830,-907 653.515,-709.252 935.432,-511.899 758,-315 748.227,-304.155 735.069,-297.207 721.082,-292.841"/>
<polygon fill="none" stroke="black" points="721.864,-289.426 711.298,-290.214 720.049,-296.187 721.864,-289.426"/>
</g>
<!-- \\PermissionComponent -->
<g id="node20" class="node"><title>\\PermissionComponent</title>
<polygon fill="none" stroke="black" points="1015,-898 871,-898 871,-862 1015,-862 1015,-898"/>
<text text-anchor="middle" x="943" y="-877.1" font-family="Courier,monospace" font-size="11.00">PermissionComponent</text>
</g>
<!-- \\PermissionComponent&#45;&gt;\\Component -->
<g id="edge39" class="edge"><title>\\PermissionComponent&#45;&gt;\\Component</title>
<path fill="none" stroke="black" d="M870.374,-875.925C855.156,-871.742 840.546,-864.675 830,-853 668.289,-673.982 920.569,-493.24 758,-315 748.162,-304.213 734.974,-297.293 720.979,-292.934"/>
<polygon fill="none" stroke="black" points="721.757,-289.519 711.192,-290.31 719.944,-296.281 721.757,-289.519"/>
</g>
<!-- \\NetCommonsComponent -->
<g id="node21" class="node"><title>\\NetCommonsComponent</title>
<polygon fill="none" stroke="black" points="1015,-1114 871,-1114 871,-1078 1015,-1078 1015,-1114"/>
<text text-anchor="middle" x="943" y="-1093.1" font-family="Courier,monospace" font-size="11.00">NetCommonsComponent</text>
</g>
<!-- \\NetCommonsComponent&#45;&gt;\\Component -->
<g id="edge41" class="edge"><title>\\NetCommonsComponent&#45;&gt;\\Component</title>
<path fill="none" stroke="black" d="M870.344,-1092.29C855.033,-1088.11 840.39,-1080.95 830,-1069 719.555,-941.985 869.053,-441.484 758,-315 748.311,-303.965 735.121,-296.943 721.061,-292.564"/>
<polygon fill="none" stroke="black" points="721.786,-289.135 711.222,-289.939 719.981,-295.899 721.786,-289.135"/>
</g>
<!-- \\NetCommonsController -->
<g id="node22" class="node"><title>\\NetCommonsController</title>
<polygon fill="none" stroke="black" points="1019,-1222 867,-1222 867,-1186 1019,-1186 1019,-1222"/>
<text text-anchor="middle" x="943" y="-1201.1" font-family="Courier,monospace" font-size="11.00">NetCommonsController</text>
</g>
<!-- \\NetCommonsController&#45;&gt;\\NetCommonsAppController -->
<g id="edge43" class="edge"><title>\\NetCommonsController&#45;&gt;\\NetCommonsAppController</title>
<path fill="none" stroke="black" d="M866.794,-1195.38C853.581,-1191.32 840.678,-1185.45 830,-1177 712.446,-1084.01 661.458,-899.009 645.702,-828.341"/>
<polygon fill="none" stroke="black" points="649.084,-827.424 643.549,-818.39 642.242,-828.904 649.084,-827.424"/>
</g>
<!-- \\NetCommonsUrl -->
<g id="node23" class="node"><title>\\NetCommonsUrl</title>
<polygon fill="none" stroke="black" points="995,-2248 891,-2248 891,-2212 995,-2212 995,-2248"/>
<text text-anchor="middle" x="943" y="-2227.1" font-family="Courier,monospace" font-size="11.00">NetCommonsUrl</text>
</g>
<!-- \\NetCommonsTime -->
<g id="node24" class="node"><title>\\NetCommonsTime</title>
<polygon fill="none" stroke="black" points="998,-2194 888,-2194 888,-2158 998,-2158 998,-2194"/>
<text text-anchor="middle" x="943" y="-2173.1" font-family="Courier,monospace" font-size="11.00">NetCommonsTime</text>
</g>
<!-- \\CurrentBase -->
<g id="node25" class="node"><title>\\CurrentBase</title>
<polygon fill="none" stroke="black" points="685,-2410 595,-2410 595,-2374 685,-2374 685,-2410"/>
<text text-anchor="middle" x="640" y="-2389.1" font-family="Courier,monospace" font-size="11.00">CurrentBase</text>
</g>
<!-- \\Current -->
<g id="node26" class="node"><title>\\Current</title>
<polygon fill="none" stroke="black" points="975,-2410 911,-2410 911,-2374 975,-2374 975,-2410"/>
<text text-anchor="middle" x="943" y="-2389.1" font-family="Courier,monospace" font-size="11.00">Current</text>
</g>
<!-- \\Current&#45;&gt;\\CurrentBase -->
<g id="edge45" class="edge"><title>\\Current&#45;&gt;\\CurrentBase</title>
<path fill="none" stroke="black" d="M910.861,-2392C859.643,-2392 758.861,-2392 695.715,-2392"/>
<polygon fill="none" stroke="black" points="695.534,-2388.5 685.534,-2392 695.534,-2395.5 695.534,-2388.5"/>
</g>
<!-- \\CurrentSystem -->
<g id="node27" class="node"><title>\\CurrentSystem</title>
<polygon fill="none" stroke="black" points="995,-2086 891,-2086 891,-2050 995,-2050 995,-2086"/>
<text text-anchor="middle" x="943" y="-2065.1" font-family="Courier,monospace" font-size="11.00">CurrentSystem</text>
</g>
<!-- \\CurrentPage -->
<g id="node28" class="node"><title>\\CurrentPage</title>
<polygon fill="none" stroke="black" points="988,-2032 898,-2032 898,-1996 988,-1996 988,-2032"/>
<text text-anchor="middle" x="943" y="-2011.1" font-family="Courier,monospace" font-size="11.00">CurrentPage</text>
</g>
<!-- \\CurrentFrame -->
<g id="node29" class="node"><title>\\CurrentFrame</title>
<polygon fill="none" stroke="black" points="992,-1978 894,-1978 894,-1942 992,-1942 992,-1978"/>
<text text-anchor="middle" x="943" y="-1957.1" font-family="Courier,monospace" font-size="11.00">CurrentFrame</text>
</g>
<!-- \\TokenHelper -->
<g id="node30" class="node"><title>\\TokenHelper</title>
<polygon fill="none" stroke="black" points="988,-736 898,-736 898,-700 988,-700 988,-736"/>
<text text-anchor="middle" x="943" y="-715.1" font-family="Courier,monospace" font-size="11.00">TokenHelper</text>
</g>
<!-- \\FormHelper -->
<g id="node91" class="node"><title>\\FormHelper</title>
<ellipse fill="none" stroke="black" cx="640" cy="-234" rx="70.9184" ry="18.3848"/>
<text text-anchor="middle" x="640" y="-230.4" font-family="Times Roman,serif" font-size="14.00" fill="gray">\FormHelper</text>
</g>
<!-- \\TokenHelper&#45;&gt;\\FormHelper -->
<g id="edge47" class="edge"><title>\\TokenHelper&#45;&gt;\\FormHelper</title>
<path fill="none" stroke="black" d="M897.466,-718.449C874.114,-716.188 847.068,-709.282 830,-691 697.765,-549.362 890.914,-402.002 758,-261 747.986,-250.377 734.718,-243.531 720.698,-239.194"/>
<polygon fill="none" stroke="black" points="721.468,-235.777 710.904,-236.577 719.661,-242.54 721.468,-235.777"/>
</g>
<!-- \\SingletonViewBlockHtmlHelper -->
<g id="node31" class="node"><title>\\SingletonViewBlockHtmlHelper</title>
<polygon fill="none" stroke="black" points="1046,-682 840,-682 840,-646 1046,-646 1046,-682"/>
<text text-anchor="middle" x="943" y="-661.1" font-family="Courier,monospace" font-size="11.00">SingletonViewBlockHtmlHelper</text>
</g>
<!-- \\HtmlHelper -->
<g id="node93" class="node"><title>\\HtmlHelper</title>
<ellipse fill="none" stroke="black" cx="640" cy="-180" rx="67.1751" ry="18.3848"/>
<text text-anchor="middle" x="640" y="-176.4" font-family="Times Roman,serif" font-size="14.00" fill="gray">HtmlHelper</text>
</g>
<!-- \\SingletonViewBlockHtmlHelper&#45;&gt;\\HtmlHelper -->
<g id="edge49" class="edge"><title>\\SingletonViewBlockHtmlHelper&#45;&gt;\\HtmlHelper</title>
<path fill="none" stroke="black" d="M839.951,-645.694C836.371,-643.129 833.028,-640.244 830,-637 697.765,-495.362 890.914,-348.002 758,-207 747.121,-195.459 732.401,-188.376 717.051,-184.126"/>
<polygon fill="none" stroke="black" points="717.444,-180.622 706.906,-181.723 715.83,-187.434 717.444,-180.622"/>
</g>
<!-- \\FormInputHelper -->
<g id="node32" class="node"><title>\\FormInputHelper</title>
<polygon fill="none" stroke="black" points="1002,-1384 884,-1384 884,-1348 1002,-1348 1002,-1384"/>
<text text-anchor="middle" x="943" y="-1363.1" font-family="Courier,monospace" font-size="11.00">FormInputHelper</text>
</g>
<!-- \\FormInputHelper&#45;&gt;\\AppHelper -->
<g id="edge51" class="edge"><title>\\FormInputHelper&#45;&gt;\\AppHelper</title>
<path fill="none" stroke="black" d="M883.95,-1371.84C865.507,-1375.75 845.857,-1382.24 830,-1393 737.342,-1455.86 675.463,-1580 651.34,-1635.29"/>
<polygon fill="none" stroke="black" points="647.994,-1634.22 647.277,-1644.79 654.429,-1636.97 647.994,-1634.22"/>
</g>
<!-- \\WizardHelper -->
<g id="node33" class="node"><title>\\WizardHelper</title>
<polygon fill="none" stroke="black" points="992,-1330 894,-1330 894,-1294 992,-1294 992,-1330"/>
<text text-anchor="middle" x="943" y="-1309.1" font-family="Courier,monospace" font-size="11.00">WizardHelper</text>
</g>
<!-- \\WizardHelper&#45;&gt;\\AppHelper -->
<g id="edge53" class="edge"><title>\\WizardHelper&#45;&gt;\\AppHelper</title>
<path fill="none" stroke="black" d="M893.759,-1315.16C872.479,-1318.58 848.316,-1325.43 830,-1339 724.767,-1416.94 667.715,-1571.98 648.009,-1635.19"/>
<polygon fill="none" stroke="black" points="644.628,-1634.28 645.064,-1644.87 651.325,-1636.32 644.628,-1634.28"/>
</g>
<!-- \\DisplayNumberHelper -->
<g id="node34" class="node"><title>\\DisplayNumberHelper</title>
<polygon fill="none" stroke="black" points="1015,-2356 871,-2356 871,-2320 1015,-2320 1015,-2356"/>
<text text-anchor="middle" x="943" y="-2335.1" font-family="Courier,monospace" font-size="11.00">DisplayNumberHelper</text>
</g>
<!-- \\DisplayNumberHelper&#45;&gt;\\AppHelper -->
<g id="edge55" class="edge"><title>\\DisplayNumberHelper&#45;&gt;\\AppHelper</title>
<path fill="none" stroke="black" d="M870.361,-2332.86C855.417,-2328.69 840.929,-2321.89 830,-2311 733.8,-2215.12 795.676,-2144.49 758,-2014 722.84,-1892.22 671.846,-1749.82 650.263,-1690.8"/>
<polygon fill="none" stroke="black" points="653.432,-1689.28 646.703,-1681.1 646.86,-1691.69 653.432,-1689.28"/>
</g>
<!-- \\MessageFlashHelper -->
<g id="node35" class="node"><title>\\MessageFlashHelper</title>
<polygon fill="none" stroke="black" points="1012,-2302 874,-2302 874,-2266 1012,-2266 1012,-2302"/>
<text text-anchor="middle" x="943" y="-2281.1" font-family="Courier,monospace" font-size="11.00">MessageFlashHelper</text>
</g>
<!-- \\MessageFlashHelper&#45;&gt;\\AppHelper -->
<g id="edge57" class="edge"><title>\\MessageFlashHelper&#45;&gt;\\AppHelper</title>
<path fill="none" stroke="black" d="M873.991,-2279.31C857.912,-2275.24 842.004,-2268.38 830,-2257 748.248,-2179.51 791.953,-2121.4 758,-2014 719.794,-1893.14 670.446,-1750.25 649.78,-1690.95"/>
<polygon fill="none" stroke="black" points="652.975,-1689.48 646.376,-1681.19 646.366,-1691.79 652.975,-1689.48"/>
</g>
<!-- \\DateHelper -->
<g id="node36" class="node"><title>\\DateHelper</title>
<polygon fill="none" stroke="black" points="985,-2140 901,-2140 901,-2104 985,-2104 985,-2140"/>
<text text-anchor="middle" x="943" y="-2119.1" font-family="Courier,monospace" font-size="11.00">DateHelper</text>
</g>
<!-- \\DateHelper&#45;&gt;\\AppHelper -->
<g id="edge59" class="edge"><title>\\DateHelper&#45;&gt;\\AppHelper</title>
<path fill="none" stroke="black" d="M900.819,-2120.85C877.631,-2118.19 849.667,-2111.41 830,-2095 699.031,-1985.69 655.419,-1768.43 643.7,-1691.12"/>
<polygon fill="none" stroke="black" points="647.155,-1690.56 642.252,-1681.16 640.228,-1691.56 647.155,-1690.56"/>
</g>
<!-- \\SnsButtonHelper -->
<g id="node37" class="node"><title>\\SnsButtonHelper</title>
<polygon fill="none" stroke="black" points="1002,-1924 884,-1924 884,-1888 1002,-1888 1002,-1924"/>
<text text-anchor="middle" x="943" y="-1903.1" font-family="Courier,monospace" font-size="11.00">SnsButtonHelper</text>
</g>
<!-- \\SnsButtonHelper&#45;&gt;\\AppHelper -->
<g id="edge61" class="edge"><title>\\SnsButtonHelper&#45;&gt;\\AppHelper</title>
<path fill="none" stroke="black" d="M883.74,-1898.93C865.585,-1894.95 846.157,-1888.73 830,-1879 749.173,-1830.34 684.174,-1735.88 655.656,-1689.71"/>
<polygon fill="none" stroke="black" points="658.634,-1687.87 650.445,-1681.14 652.654,-1691.5 658.634,-1687.87"/>
</g>
<!-- \\BackToHelper -->
<g id="node38" class="node"><title>\\BackToHelper</title>
<polygon fill="none" stroke="black" points="992,-1870 894,-1870 894,-1834 992,-1834 992,-1870"/>
<text text-anchor="middle" x="943" y="-1849.1" font-family="Courier,monospace" font-size="11.00">BackToHelper</text>
</g>
<!-- \\BackToHelper&#45;&gt;\\AppHelper -->
<g id="edge63" class="edge"><title>\\BackToHelper&#45;&gt;\\AppHelper</title>
<path fill="none" stroke="black" d="M893.96,-1845.48C873.423,-1841.45 849.779,-1835.05 830,-1825 761.023,-1789.94 695.862,-1725.01 662.731,-1688.91"/>
<polygon fill="none" stroke="black" points="665.086,-1686.3 655.776,-1681.24 659.901,-1691 665.086,-1686.3"/>
</g>
<!-- \\NetCommonsHtmlHelper -->
<g id="node39" class="node"><title>\\NetCommonsHtmlHelper</title>
<polygon fill="none" stroke="black" points="1019,-1816 867,-1816 867,-1780 1019,-1780 1019,-1816"/>
<text text-anchor="middle" x="943" y="-1795.1" font-family="Courier,monospace" font-size="11.00">NetCommonsHtmlHelper</text>
</g>
<!-- \\NetCommonsHtmlHelper&#45;&gt;\\AppHelper -->
<g id="edge65" class="edge"><title>\\NetCommonsHtmlHelper&#45;&gt;\\AppHelper</title>
<path fill="none" stroke="black" d="M866.716,-1782.89C854.26,-1779.54 841.633,-1775.59 830,-1771 772.653,-1748.38 711.566,-1710.97 674.586,-1686.65"/>
<polygon fill="none" stroke="black" points="676.439,-1683.68 666.171,-1681.07 672.57,-1689.52 676.439,-1683.68"/>
</g>
<!-- \\ButtonHelper -->
<g id="node40" class="node"><title>\\ButtonHelper</title>
<polygon fill="none" stroke="black" points="992,-844 894,-844 894,-808 992,-808 992,-844"/>
<text text-anchor="middle" x="943" y="-823.1" font-family="Courier,monospace" font-size="11.00">ButtonHelper</text>
</g>
<!-- \\ButtonHelper&#45;&gt;\\FormHelper -->
<g id="edge67" class="edge"><title>\\ButtonHelper&#45;&gt;\\FormHelper</title>
<path fill="none" stroke="black" d="M893.801,-826.318C871.209,-823.778 845.954,-816.662 830,-799 668.289,-619.982 920.569,-439.24 758,-261 748.162,-250.213 734.974,-243.293 720.979,-238.934"/>
<polygon fill="none" stroke="black" points="721.757,-235.519 711.192,-236.31 719.944,-242.281 721.757,-235.519"/>
</g>
<!-- \\ComposerHelper -->
<g id="node41" class="node"><title>\\ComposerHelper</title>
<polygon fill="none" stroke="black" points="998,-1762 888,-1762 888,-1726 998,-1726 998,-1762"/>
<text text-anchor="middle" x="943" y="-1741.1" font-family="Courier,monospace" font-size="11.00">ComposerHelper</text>
</g>
<!-- \\ComposerHelper&#45;&gt;\\AppHelper -->
<g id="edge69" class="edge"><title>\\ComposerHelper&#45;&gt;\\AppHelper</title>
<path fill="none" stroke="black" d="M887.42,-1731.21C869.094,-1726.87 848.636,-1721.87 830,-1717 781.728,-1704.38 726.952,-1688.66 688.659,-1677.44"/>
<polygon fill="none" stroke="black" points="689.385,-1674.01 678.804,-1674.55 687.413,-1680.73 689.385,-1674.01"/>
</g>
<!-- \\LinkButtonHelper -->
<g id="node42" class="node"><title>\\LinkButtonHelper</title>
<polygon fill="none" stroke="black" points="1005,-790 881,-790 881,-754 1005,-754 1005,-790"/>
<text text-anchor="middle" x="943" y="-769.1" font-family="Courier,monospace" font-size="11.00">LinkButtonHelper</text>
</g>
<!-- \\LinkButtonHelper&#45;&gt;\\FormHelper -->
<g id="edge71" class="edge"><title>\\LinkButtonHelper&#45;&gt;\\FormHelper</title>
<path fill="none" stroke="black" d="M880.499,-770.155C861.848,-766.485 842.948,-759.125 830,-745 683.042,-584.688 905.726,-420.605 758,-261 748.083,-250.286 734.859,-243.398 720.853,-239.049"/>
<polygon fill="none" stroke="black" points="721.628,-235.634 711.063,-236.429 719.818,-242.396 721.628,-235.634"/>
</g>
<!-- \\TableListHelper -->
<g id="node43" class="node"><title>\\TableListHelper</title>
<polygon fill="none" stroke="black" points="1002,-1708 884,-1708 884,-1672 1002,-1672 1002,-1708"/>
<text text-anchor="middle" x="943" y="-1687.1" font-family="Courier,monospace" font-size="11.00">TableListHelper</text>
</g>
<!-- \\TableListHelper&#45;&gt;\\AppHelper -->
<g id="edge73" class="edge"><title>\\TableListHelper&#45;&gt;\\AppHelper</title>
<path fill="none" stroke="black" d="M883.859,-1684.73C827.025,-1679.67 742.15,-1672.1 688.99,-1667.37"/>
<polygon fill="none" stroke="black" points="689.07,-1663.86 678.799,-1666.46 688.448,-1670.83 689.07,-1663.86"/>
</g>
<!-- \\NetCommonsTimeHelper -->
<g id="node44" class="node"><title>\\NetCommonsTimeHelper</title>
<polygon fill="none" stroke="black" points="1019,-1654 867,-1654 867,-1618 1019,-1618 1019,-1654"/>
<text text-anchor="middle" x="943" y="-1633.1" font-family="Courier,monospace" font-size="11.00">NetCommonsTimeHelper</text>
</g>
<!-- \\NetCommonsTimeHelper&#45;&gt;\\AppHelper -->
<g id="edge75" class="edge"><title>\\NetCommonsTimeHelper&#45;&gt;\\AppHelper</title>
<path fill="none" stroke="black" d="M866.931,-1642.78C811.077,-1647.76 736.857,-1654.37 688.76,-1658.66"/>
<polygon fill="none" stroke="black" points="688.262,-1655.19 678.612,-1659.56 688.883,-1662.16 688.262,-1655.19"/>
</g>
<!-- \\NetCommonsFormHelper -->
<g id="node45" class="node"><title>\\NetCommonsFormHelper</title>
<polygon fill="none" stroke="black" points="1019,-1600 867,-1600 867,-1564 1019,-1564 1019,-1600"/>
<text text-anchor="middle" x="943" y="-1579.1" font-family="Courier,monospace" font-size="11.00">NetCommonsFormHelper</text>
</g>
<!-- \\NetCommonsFormHelper&#45;&gt;\\AppHelper -->
<g id="edge77" class="edge"><title>\\NetCommonsFormHelper&#45;&gt;\\AppHelper</title>
<path fill="none" stroke="black" d="M866.91,-1599.71C854.551,-1602.73 841.904,-1605.89 830,-1609 781.728,-1621.62 726.952,-1637.34 688.659,-1648.56"/>
<polygon fill="none" stroke="black" points="687.413,-1645.27 678.804,-1651.45 689.385,-1651.99 687.413,-1645.27"/>
</g>
<!-- \\TitleIconHelper -->
<g id="node46" class="node"><title>\\TitleIconHelper</title>
<polygon fill="none" stroke="black" points="1002,-1546 884,-1546 884,-1510 1002,-1510 1002,-1546"/>
<text text-anchor="middle" x="943" y="-1525.1" font-family="Courier,monospace" font-size="11.00">TitleIconHelper</text>
</g>
<!-- \\TitleIconHelper&#45;&gt;\\AppHelper -->
<g id="edge79" class="edge"><title>\\TitleIconHelper&#45;&gt;\\AppHelper</title>
<path fill="none" stroke="black" d="M883.964,-1538.8C866.289,-1542.91 847.075,-1548.26 830,-1555 772.653,-1577.62 711.566,-1615.03 674.586,-1639.35"/>
<polygon fill="none" stroke="black" points="672.57,-1636.48 666.171,-1644.93 676.439,-1642.32 672.57,-1636.48"/>
</g>
<!-- \\DatetimePickerHelper -->
<g id="node47" class="node"><title>\\DatetimePickerHelper</title>
<polygon fill="none" stroke="black" points="1019,-1492 867,-1492 867,-1456 1019,-1456 1019,-1492"/>
<text text-anchor="middle" x="943" y="-1471.1" font-family="Courier,monospace" font-size="11.00">DatetimePickerHelper</text>
</g>
<!-- \\DatetimePickerHelper&#45;&gt;\\AppHelper -->
<g id="edge81" class="edge"><title>\\DatetimePickerHelper&#45;&gt;\\AppHelper</title>
<path fill="none" stroke="black" d="M866.776,-1487C854.124,-1490.61 841.418,-1495.2 830,-1501 761.023,-1536.06 695.862,-1600.99 662.731,-1637.09"/>
<polygon fill="none" stroke="black" points="659.901,-1635 655.776,-1644.76 665.086,-1639.7 659.901,-1635"/>
</g>
<!-- \\Model -->
<g id="node111" class="node"><title>\\Model</title>
<ellipse fill="none" stroke="black" cx="82" cy="-2608" rx="43.8406" ry="18.3848"/>
<text text-anchor="middle" x="82" y="-2604.4" font-family="Times Roman,serif" font-size="14.00" fill="gray">\Model</text>
</g>
<!-- \\NetCommonsAppModel&#45;&gt;\\Model -->
<g id="edge83" class="edge"><title>\\NetCommonsAppModel&#45;&gt;\\Model</title>
<path fill="none" stroke="black" d="M273.742,-2608C230.675,-2608 176.099,-2608 136.195,-2608"/>
<polygon fill="none" stroke="black" points="136.125,-2604.5 126.125,-2608 136.125,-2611.5 136.125,-2604.5"/>
</g>
<!-- \\OriginalKeyBehavior -->
<g id="node49" class="node"><title>\\OriginalKeyBehavior</title>
<polygon fill="none" stroke="black" points="1015,-520 871,-520 871,-484 1015,-484 1015,-520"/>
<text text-anchor="middle" x="943" y="-499.1" font-family="Courier,monospace" font-size="11.00">OriginalKeyBehavior</text>
</g>
<!-- \\ModelBehavior -->
<g id="node113" class="node"><title>\\ModelBehavior</title>
<ellipse fill="none" stroke="black" cx="640" cy="-126" rx="86.9741" ry="18.3848"/>
<text text-anchor="middle" x="640" y="-122.4" font-family="Times Roman,serif" font-size="14.00" fill="gray">\ModelBehavior</text>
</g>
<!-- \\OriginalKeyBehavior&#45;&gt;\\ModelBehavior -->
<g id="edge85" class="edge"><title>\\OriginalKeyBehavior&#45;&gt;\\ModelBehavior</title>
<path fill="none" stroke="black" d="M870.216,-497.002C855.28,-492.823 840.831,-485.99 830,-475 727.064,-370.554 861.436,-256.95 758,-153 750.53,-145.493 741.428,-139.895 731.627,-135.745"/>
<polygon fill="none" stroke="black" points="732.638,-132.388 722.045,-132.196 730.207,-138.952 732.638,-132.388"/>
</g>
<!-- \\TrackableBehavior -->
<g id="node50" class="node"><title>\\TrackableBehavior</title>
<polygon fill="none" stroke="black" points="1008,-628 878,-628 878,-592 1008,-592 1008,-628"/>
<text text-anchor="middle" x="943" y="-607.1" font-family="Courier,monospace" font-size="11.00">TrackableBehavior</text>
</g>
<!-- \\TrackableBehavior&#45;&gt;\\ModelBehavior -->
<g id="edge87" class="edge"><title>\\TrackableBehavior&#45;&gt;\\ModelBehavior</title>
<path fill="none" stroke="black" d="M877.411,-607.338C859.837,-603.465 842.319,-596.195 830,-583 697.765,-441.362 890.914,-294.002 758,-153 750.736,-145.293 741.758,-139.575 732.025,-135.36"/>
<polygon fill="none" stroke="black" points="733.083,-132.019 722.491,-131.764 730.613,-138.568 733.083,-132.019"/>
</g>
<!-- \\YAExceptionRenderer -->
<g id="node51" class="node"><title>\\YAExceptionRenderer</title>
<polygon fill="none" stroke="black" points="1015,-466 871,-466 871,-430 1015,-430 1015,-466"/>
<text text-anchor="middle" x="943" y="-445.1" font-family="Courier,monospace" font-size="11.00">YAExceptionRenderer</text>
</g>
<!-- \\ExceptionRenderer -->
<g id="node116" class="node"><title>\\ExceptionRenderer</title>
<ellipse fill="none" stroke="black" cx="640" cy="-72" rx="118.087" ry="18.3848"/>
<text text-anchor="middle" x="640" y="-68.4" font-family="Times Roman,serif" font-size="14.00" fill="gray">TEHxceptionRenderer</text>
</g>
<!-- \\YAExceptionRenderer&#45;&gt;\\ExceptionRenderer -->
<g id="edge89" class="edge"><title>\\YAExceptionRenderer&#45;&gt;\\ExceptionRenderer</title>
<path fill="none" stroke="black" d="M870.216,-443.002C855.28,-438.823 840.831,-431.99 830,-421 727.064,-316.554 861.436,-202.95 758,-99 753.632,-94.61 748.706,-90.873 743.408,-87.6967"/>
<polygon fill="none" stroke="black" points="744.657,-84.4002 734.174,-82.8643 741.411,-90.6022 744.657,-84.4002"/>
</g>
<!-- \\NetCommonsMigration -->
<g id="node52" class="node"><title>\\NetCommonsMigration</title>
<polygon fill="none" stroke="black" points="1015,-412 871,-412 871,-376 1015,-376 1015,-412"/>
<text text-anchor="middle" x="943" y="-391.1" font-family="Courier,monospace" font-size="11.00">NetCommonsMigration</text>
</g>
<!-- \\CakeMigration -->
<g id="node118" class="node"><title>\\CakeMigration</title>
<ellipse fill="none" stroke="black" cx="640" cy="-18" rx="84.8528" ry="18.3848"/>
<text text-anchor="middle" x="640" y="-14.4" font-family="Times Roman,serif" font-size="14.00" fill="gray">\CakeMigration</text>
</g>
<!-- \\NetCommonsMigration&#45;&gt;\\CakeMigration -->
<g id="edge91" class="edge"><title>\\NetCommonsMigration&#45;&gt;\\CakeMigration</title>
<path fill="none" stroke="black" d="M939.003,-375.703C925.25,-317.32 874.186,-134.09 758,-45 748.842,-37.9777 738.183,-32.7258 727.089,-28.8077"/>
<polygon fill="none" stroke="black" points="727.844,-25.3757 717.254,-25.697 725.733,-32.0498 727.844,-25.3757"/>
</g>
<!-- \\ThemeSettingsAppController -->
<g id="node53" class="node"><title>\\ThemeSettingsAppController</title>
<polygon fill="none" stroke="black" points="736,-2464 544,-2464 544,-2428 736,-2428 736,-2464"/>
<text text-anchor="middle" x="640" y="-2443.1" font-family="Courier,monospace" font-size="11.00">ThemeSettingsAppController</text>
</g>
<!-- \\ThemeSettingsAppController&#45;&gt;\\AppController -->
<g id="edge93" class="edge"><title>\\ThemeSettingsAppController&#45;&gt;\\AppController</title>
<path fill="none" stroke="black" d="M543.739,-2432.02C535.94,-2428.54 528.554,-2424.26 522,-2419 405.964,-2325.79 360.988,-2139.51 347.669,-2068.95"/>
<polygon fill="none" stroke="black" points="351.097,-2068.24 345.863,-2059.03 344.21,-2069.5 351.097,-2068.24"/>
</g>
<!-- \\ThemeSettingsSiteController -->
<g id="node54" class="node"><title>\\ThemeSettingsSiteController</title>
<polygon fill="none" stroke="black" points="1042,-2464 844,-2464 844,-2428 1042,-2428 1042,-2464"/>
<text text-anchor="middle" x="943" y="-2443.1" font-family="Courier,monospace" font-size="11.00">ThemeSettingsSiteController</text>
</g>
<!-- \\ThemeSettingsSiteController&#45;&gt;\\ThemeSettingsAppController -->
<g id="edge95" class="edge"><title>\\ThemeSettingsSiteController&#45;&gt;\\ThemeSettingsAppController</title>
<path fill="none" stroke="black" d="M843.367,-2446C812.238,-2446 777.788,-2446 746.224,-2446"/>
<polygon fill="none" stroke="black" points="746.086,-2442.5 736.086,-2446 746.086,-2449.5 746.086,-2442.5"/>
</g>
<!-- \\ThemeSettingsThemeListComponent -->
<g id="node55" class="node"><title>\\ThemeSettingsThemeListComponent</title>
<polygon fill="none" stroke="black" points="1056,-1060 830,-1060 830,-1024 1056,-1024 1056,-1060"/>
<text text-anchor="middle" x="943" y="-1039.1" font-family="Courier,monospace" font-size="11.00">ThemeSettingsThemeListComponent</text>
</g>
<!-- \\ThemeSettingsThemeListComponent&#45;&gt;\\Component -->
<g id="edge97" class="edge"><title>\\ThemeSettingsThemeListComponent&#45;&gt;\\Component</title>
<path fill="none" stroke="black" d="M839.689,-1023.93C836.18,-1021.3 832.924,-1018.34 830,-1015 623.923,-779.742 965.204,-549.266 758,-315 748.271,-304.001 735.062,-296.994 720.998,-292.62"/>
<polygon fill="none" stroke="black" points="721.72,-289.191 711.156,-289.996 719.917,-295.955 721.72,-289.191"/>
</g>
<!-- \\ThemeSettingsController -->
<g id="node56" class="node"><title>\\ThemeSettingsController</title>
<polygon fill="none" stroke="black" points="726,-2059 554,-2059 554,-2023 726,-2023 726,-2059"/>
<text text-anchor="middle" x="640" y="-2038.1" font-family="Courier,monospace" font-size="11.00">ThemeSettingsController</text>
</g>
<!-- \\ThemeSettingsController&#45;&gt;\\AppController -->
<g id="edge99" class="edge"><title>\\ThemeSettingsController&#45;&gt;\\AppController</title>
<path fill="none" stroke="black" d="M553.696,-2041C506.129,-2041 448.17,-2041 405.089,-2041"/>
<polygon fill="none" stroke="black" points="405.028,-2037.5 395.028,-2041 405.028,-2044.5 405.028,-2037.5"/>
</g>
<!-- \\ThemeSettingsUploadController -->
<g id="node57" class="node"><title>\\ThemeSettingsUploadController</title>
<polygon fill="none" stroke="black" points="1049,-2518 837,-2518 837,-2482 1049,-2482 1049,-2518"/>
<text text-anchor="middle" x="943" y="-2497.1" font-family="Courier,monospace" font-size="11.00">ThemeSettingsUploadController</text>
</g>
<!-- \\ThemeSettingsUploadController&#45;&gt;\\ThemeSettingsAppController -->
<g id="edge101" class="edge"><title>\\ThemeSettingsUploadController&#45;&gt;\\ThemeSettingsAppController</title>
<path fill="none" stroke="black" d="M841.684,-2481.94C810.947,-2476.47 777.103,-2470.43 746.062,-2464.9"/>
<polygon fill="none" stroke="black" points="746.55,-2461.43 736.091,-2463.13 745.321,-2468.33 746.55,-2461.43"/>
</g>
<!-- \\ThemeSettingsHelper -->
<g id="node58" class="node"><title>\\ThemeSettingsHelper</title>
<polygon fill="none" stroke="black" points="1015,-1438 871,-1438 871,-1402 1015,-1402 1015,-1438"/>
<text text-anchor="middle" x="943" y="-1417.1" font-family="Courier,monospace" font-size="11.00">ThemeSettingsHelper</text>
</g>
<!-- \\ThemeSettingsHelper&#45;&gt;\\AppHelper -->
<g id="edge103" class="edge"><title>\\ThemeSettingsHelper&#45;&gt;\\AppHelper</title>
<path fill="none" stroke="black" d="M870.476,-1430.35C856.424,-1434.25 842.269,-1439.61 830,-1447 749.173,-1495.66 684.174,-1590.12 655.656,-1636.29"/>
<polygon fill="none" stroke="black" points="652.654,-1634.5 650.445,-1644.86 658.634,-1638.13 652.654,-1634.5"/>
</g>
<!-- \\ThemeBehavior -->
<g id="node59" class="node"><title>\\ThemeBehavior</title>
<polygon fill="none" stroke="black" points="995,-574 891,-574 891,-538 995,-538 995,-574"/>
<text text-anchor="middle" x="943" y="-553.1" font-family="Courier,monospace" font-size="11.00">ThemeBehavior</text>
</g>
<!-- \\ThemeBehavior&#45;&gt;\\ModelBehavior -->
<g id="edge105" class="edge"><title>\\ThemeBehavior&#45;&gt;\\ModelBehavior</title>
<path fill="none" stroke="black" d="M890.777,-555.485C869.188,-552.542 845.608,-545.332 830,-529 712.446,-405.991 876.143,-275.443 758,-153 750.646,-145.379 741.615,-139.712 731.852,-135.525"/>
<polygon fill="none" stroke="black" points="732.89,-132.176 722.298,-131.949 730.436,-138.732 732.89,-132.176"/>
</g>
<!-- \\ThemeSettingsAppModel -->
<g id="node60" class="node"><title>\\ThemeSettingsAppModel</title>
<polygon fill="none" stroke="black" points="1022,-2680 864,-2680 864,-2644 1022,-2644 1022,-2680"/>
<text text-anchor="middle" x="943" y="-2659.1" font-family="Courier,monospace" font-size="11.00">ThemeSettingsAppModel</text>
</g>
<!-- \\ThemeSettingsAppModel&#45;&gt;\\AppModel -->
<g id="edge107" class="edge"><title>\\ThemeSettingsAppModel&#45;&gt;\\AppModel</title>
<path fill="none" stroke="black" d="M863.786,-2647.88C807.101,-2637.78 732.781,-2624.54 685.695,-2616.14"/>
<polygon fill="none" stroke="black" points="686.246,-2612.69 675.787,-2614.38 685.018,-2619.58 686.246,-2612.69"/>
</g>
<!-- \\ThemeSettingsSite -->
<g id="node61" class="node"><title>\\ThemeSettingsSite</title>
<polygon fill="none" stroke="black" points="1008,-2626 878,-2626 878,-2590 1008,-2590 1008,-2626"/>
<text text-anchor="middle" x="943" y="-2605.1" font-family="Courier,monospace" font-size="11.00">ThemeSettingsSite</text>
</g>
<!-- \\ThemeSettingsSite&#45;&gt;\\AppModel -->
<g id="edge109" class="edge"><title>\\ThemeSettingsSite&#45;&gt;\\AppModel</title>
<path fill="none" stroke="black" d="M877.254,-2608C819.447,-2608 736.806,-2608 685.872,-2608"/>
<polygon fill="none" stroke="black" points="685.815,-2604.5 675.815,-2608 685.815,-2611.5 685.815,-2604.5"/>
</g>
</g>
</svg>
