<?xml version="1.0" encoding="UTF-8" standalone="no"?>
<!DOCTYPE svg PUBLIC "-//W3C//DTD SVG 1.1//EN"
 "http://www.w3.org/Graphics/SVG/1.1/DTD/svg11.dtd">
<!-- Generated by graphviz version 2.26.3 (20100126.1600)
 -->
<!-- Title: G Pages: 1 -->
<svg width="1080pt" height="2888pt"
 viewBox="0.00 0.00 1080.00 2888.00" xmlns="http://www.w3.org/2000/svg" xmlns:xlink="http://www.w3.org/1999/xlink">
<g id="graph1" class="graph" transform="scale(1 1) rotate(0) translate(4 2884)">
<title>G</title>
<polygon fill="white" stroke="white" points="-4,5 -4,-2884 1077,-2884 1077,5 -4,5"/>
<g id="graph2" class="cluster"><title>cluster_Global</title>
<polyline fill="none" stroke="gray" points="264,-368 1052,-368 "/>
<path fill="none" stroke="gray" d="M1052,-368C1058,-368 1064,-374 1064,-380"/>
<polyline fill="none" stroke="gray" points="1064,-380 1064,-2860 "/>
<path fill="none" stroke="gray" d="M1064,-2860C1064,-2866 1058,-2872 1052,-2872"/>
<polyline fill="none" stroke="gray" points="1052,-2872 264,-2872 "/>
<path fill="none" stroke="gray" d="M264,-2872C258,-2872 252,-2866 252,-2860"/>
<polyline fill="none" stroke="gray" points="252,-2860 252,-380 "/>
<path fill="none" stroke="gray" d="M252,-380C252,-374 258,-368 264,-368"/>
<text text-anchor="middle" x="658" y="-2858.1" font-family="Times Roman,serif" font-size="11.00" fill="gray">Global</text>
</g>
<!-- \\AppController -->
<g id="node2" class="node"><title>\\AppController</title>
<polygon fill="none" stroke="black" points="395,-2005 291,-2005 291,-1969 395,-1969 395,-2005"/>
<text text-anchor="middle" x="343" y="-1984.1" font-family="Courier,monospace" font-size="11.00">AppController</text>
</g>
<!-- \\Controller -->
<g id="node62" class="node"><title>\\Controller</title>
<ellipse fill="none" stroke="black" cx="82" cy="-1263" rx="63.1385" ry="18.3848"/>
<text text-anchor="middle" x="82" y="-1259.4" font-family="Times Roman,serif" font-size="14.00" fill="gray">\Controller</text>
</g>
<!-- \\AppController&#45;&gt;\\Controller -->
<g id="edge3" class="edge"><title>\\AppController&#45;&gt;\\Controller</title>
<path fill="none" stroke="black" d="M290.855,-1987.77C271.309,-1985.38 250.376,-1979.19 236,-1965 137.287,-1867.58 93.8845,-1409.97 84.1705,-1291.21"/>
<polygon fill="none" stroke="black" points="87.648,-1290.79 83.3586,-1281.1 80.6704,-1291.35 87.648,-1290.79"/>
</g>
<!-- \\AppModel -->
<g id="node3" class="node"><title>\\AppModel</title>
<polygon fill="none" stroke="black" points="675,-2572 605,-2572 605,-2536 675,-2536 675,-2572"/>
<text text-anchor="middle" x="640" y="-2551.1" font-family="Courier,monospace" font-size="11.00">AppModel</text>
</g>
<!-- \\NetCommonsAppModel -->
<g id="node47" class="node"><title>\\NetCommonsAppModel</title>
<polygon fill="none" stroke="black" points="412,-2572 274,-2572 274,-2536 412,-2536 412,-2572"/>
<text text-anchor="middle" x="343" y="-2551.1" font-family="Courier,monospace" font-size="11.00">NetCommonsAppModel</text>
</g>
<!-- \\AppModel&#45;&gt;\\NetCommonsAppModel -->
<g id="edge5" class="edge"><title>\\AppModel&#45;&gt;\\NetCommonsAppModel</title>
<path fill="none" stroke="black" d="M604.47,-2554C559.713,-2554 481.497,-2554 422.241,-2554"/>
<polygon fill="none" stroke="black" points="422.157,-2550.5 412.157,-2554 422.157,-2557.5 422.157,-2550.5"/>
</g>
<!-- \\DatabaseConfiguration -->
<g id="node4" class="node"><title>\\DatabaseConfiguration</title>
<polygon fill="none" stroke="black" points="1022,-2572 864,-2572 864,-2536 1022,-2536 1022,-2572"/>
<text text-anchor="middle" x="943" y="-2551.1" font-family="Courier,monospace" font-size="11.00">DatabaseConfiguration</text>
</g>
<!-- \\DatabaseConfiguration&#45;&gt;\\AppModel -->
<g id="edge7" class="edge"><title>\\DatabaseConfiguration&#45;&gt;\\AppModel</title>
<path fill="none" stroke="black" d="M863.786,-2554C807.22,-2554 733.093,-2554 685.991,-2554"/>
<polygon fill="none" stroke="black" points="685.787,-2550.5 675.787,-2554 685.787,-2557.5 685.787,-2550.5"/>
</g>
<!-- \\AppHelper -->
<g id="node5" class="node"><title>\\AppHelper</title>
<polygon fill="none" stroke="black" points="678,-1654 602,-1654 602,-1618 678,-1618 678,-1654"/>
<text text-anchor="middle" x="640" y="-1633.1" font-family="Courier,monospace" font-size="11.00">AppHelper</text>
</g>
<!-- \\Helper -->
<g id="node66" class="node"><title>\\Helper</title>
<ellipse fill="none" stroke="black" cx="343" cy="-342" rx="43.8406" ry="18.3848"/>
<text text-anchor="middle" x="343" y="-338.4" font-family="Times Roman,serif" font-size="14.00" fill="gray">Helper</text>
</g>
<!-- \\AppHelper&#45;&gt;\\Helper -->
<g id="edge9" class="edge"><title>\\AppHelper&#45;&gt;\\Helper</title>
<path fill="none" stroke="black" d="M632.086,-1617.8C610.212,-1566.57 548.783,-1416.34 522,-1285 501.49,-1184.42 517.915,-440.965 450,-364 436.75,-348.984 416.226,-342.613 396.683,-340.309"/>
<polygon fill="none" stroke="black" points="396.857,-336.812 386.596,-339.451 396.264,-343.786 396.857,-336.812"/>
</g>
<!-- \\NetCommonsDeleteTest -->
<g id="node6" class="node"><title>\\NetCommonsDeleteTest</title>
<polygon fill="none" stroke="black" points="1019,-2734 867,-2734 867,-2698 1019,-2698 1019,-2734"/>
<text text-anchor="middle" x="943" y="-2713.1" font-family="Courier,monospace" font-size="11.00">NetCommonsDeleteTest</text>
</g>
<!-- \\NetCommonsModelTestCase -->
<g id="node15" class="node"><title>\\NetCommonsModelTestCase</title>
<polygon fill="none" stroke="black" points="726,-2761 554,-2761 554,-2725 726,-2725 726,-2761"/>
<text text-anchor="middle" x="640" y="-2740.1" font-family="Courier,monospace" font-size="11.00">NetCommonsModelTestCase</text>
</g>
<!-- \\NetCommonsDeleteTest&#45;&gt;\\NetCommonsModelTestCase -->
<g id="edge11" class="edge"><title>\\NetCommonsDeleteTest&#45;&gt;\\NetCommonsModelTestCase</title>
<path fill="none" stroke="black" d="M866.931,-2722.78C827.251,-2726.31 778.302,-2730.68 736.036,-2734.44"/>
<polygon fill="none" stroke="black" points="735.657,-2730.96 726.007,-2735.34 736.278,-2737.93 735.657,-2730.96"/>
</g>
<!-- \\NetCommonsConsoleTestCase -->
<g id="node7" class="node"><title>\\NetCommonsConsoleTestCase</title>
<polygon fill="none" stroke="black" points="732,-2707 548,-2707 548,-2671 732,-2671 732,-2707"/>
<text text-anchor="middle" x="640" y="-2686.1" font-family="Courier,monospace" font-size="11.00">NetCommonsConsoleTestCase</text>
</g>
<!-- \\NetCommonsCakeTestCase -->
<g id="node13" class="node"><title>\\NetCommonsCakeTestCase</title>
<polygon fill="none" stroke="black" points="425,-2707 261,-2707 261,-2671 425,-2671 425,-2707"/>
<text text-anchor="middle" x="343" y="-2686.1" font-family="Courier,monospace" font-size="11.00">NetCommonsCakeTestCase</text>
</g>
<!-- \\NetCommonsConsoleTestCase&#45;&gt;\\NetCommonsCakeTestCase -->
<g id="edge13" class="edge"><title>\\NetCommonsConsoleTestCase&#45;&gt;\\NetCommonsCakeTestCase</title>
<path fill="none" stroke="black" d="M547.249,-2689C511.93,-2689 471.688,-2689 436.316,-2689"/>
<polygon fill="none" stroke="black" points="435.993,-2685.5 425.993,-2689 435.993,-2692.5 435.993,-2685.5"/>
</g>
<!-- \\NetCommonsGetTest -->
<g id="node8" class="node"><title>\\NetCommonsGetTest</title>
<polygon fill="none" stroke="black" points="1008,-2680 878,-2680 878,-2644 1008,-2644 1008,-2680"/>
<text text-anchor="middle" x="943" y="-2659.1" font-family="Courier,monospace" font-size="11.00">NetCommonsGetTest</text>
</g>
<!-- \\NetCommonsGetTest&#45;&gt;\\NetCommonsModelTestCase -->
<g id="edge15" class="edge"><title>\\NetCommonsGetTest&#45;&gt;\\NetCommonsModelTestCase</title>
<path fill="none" stroke="black" d="M877.495,-2676.19C861.833,-2679.99 845.239,-2684.34 830,-2689 797.317,-2698.99 790.731,-2706.17 758,-2716 750.57,-2718.23 742.83,-2720.38 735.023,-2722.43"/>
<polygon fill="none" stroke="black" points="733.938,-2719.09 725.116,-2724.96 735.671,-2725.87 733.938,-2719.09"/>
</g>
<!-- \\NetCommonsHelperTestCase -->
<g id="node9" class="node"><title>\\NetCommonsHelperTestCase</title>
<polygon fill="none" stroke="black" points="729,-2653 551,-2653 551,-2617 729,-2617 729,-2653"/>
<text text-anchor="middle" x="640" y="-2632.1" font-family="Courier,monospace" font-size="11.00">NetCommonsHelperTestCase</text>
</g>
<!-- \\NetCommonsHelperTestCase&#45;&gt;\\NetCommonsCakeTestCase -->
<g id="edge17" class="edge"><title>\\NetCommonsHelperTestCase&#45;&gt;\\NetCommonsCakeTestCase</title>
<path fill="none" stroke="black" d="M550.487,-2651.28C514.267,-2657.86 472.456,-2665.46 435.9,-2672.11"/>
<polygon fill="none" stroke="black" points="434.95,-2668.72 425.737,-2673.96 436.202,-2675.61 434.95,-2668.72"/>
</g>
<!-- \\NetCommonsControllerBaseTestCase -->
<g id="node10" class="node"><title>\\NetCommonsControllerBaseTestCase</title>
<polygon fill="none" stroke="black" points="756,-1276 524,-1276 524,-1240 756,-1240 756,-1276"/>
<text text-anchor="middle" x="640" y="-1255.1" font-family="Courier,monospace" font-size="11.00">NetCommonsControllerBaseTestCase</text>
</g>
<!-- \\ControllerTestCase -->
<g id="node72" class="node"><title>\\ControllerTestCase</title>
<ellipse fill="none" stroke="black" cx="343" cy="-288" rx="106.773" ry="18.3848"/>
<text text-anchor="middle" x="343" y="-284.4" font-family="Times Roman,serif" font-size="14.00" fill="gray">\ControllerTestCase</text>
</g>
<!-- \\NetCommonsControllerBaseTestCase&#45;&gt;\\ControllerTestCase -->
<g id="edge19" class="edge"><title>\\NetCommonsControllerBaseTestCase&#45;&gt;\\ControllerTestCase</title>
<path fill="none" stroke="black" d="M634.091,-1239.72C615.185,-1180.63 555.47,-989.217 522,-827 498.783,-714.473 526.764,-400.491 450,-315 446.16,-310.723 441.751,-307.078 436.958,-303.976"/>
<polygon fill="none" stroke="black" points="438.396,-300.77 427.957,-298.957 434.987,-306.884 438.396,-300.77"/>
</g>
<!-- \\NetCommonsValidateTest -->
<g id="node11" class="node"><title>\\NetCommonsValidateTest</title>
<polygon fill="none" stroke="black" points="1025,-2842 861,-2842 861,-2806 1025,-2806 1025,-2842"/>
<text text-anchor="middle" x="943" y="-2821.1" font-family="Courier,monospace" font-size="11.00">NetCommonsValidateTest</text>
</g>
<!-- \\NetCommonsValidateTest&#45;&gt;\\NetCommonsModelTestCase -->
<g id="edge21" class="edge"><title>\\NetCommonsValidateTest&#45;&gt;\\NetCommonsModelTestCase</title>
<path fill="none" stroke="black" d="M865.694,-2805.99C853.722,-2803.07 841.513,-2800.01 830,-2797 790.424,-2786.65 746.478,-2774.22 710.826,-2763.9"/>
<polygon fill="none" stroke="black" points="711.58,-2760.47 701.001,-2761.05 709.628,-2767.2 711.58,-2760.47"/>
</g>
<!-- \\NetCommonsTestSuite -->
<g id="node12" class="node"><title>\\NetCommonsTestSuite</title>
<polygon fill="none" stroke="black" points="1015,-1168 871,-1168 871,-1132 1015,-1132 1015,-1168"/>
<text text-anchor="middle" x="943" y="-1147.1" font-family="Courier,monospace" font-size="11.00">NetCommonsTestSuite</text>
</g>
<!-- \\CakeTestSuite -->
<g id="node75" class="node"><title>\\CakeTestSuite</title>
<ellipse fill="none" stroke="black" cx="640" cy="-342" rx="84.1457" ry="18.3848"/>
<text text-anchor="middle" x="640" y="-338.4" font-family="Times Roman,serif" font-size="14.00" fill="gray">\CakeTestSuite</text>
</g>
<!-- \\NetCommonsTestSuite&#45;&gt;\\CakeTestSuite -->
<g id="edge23" class="edge"><title>\\NetCommonsTestSuite&#45;&gt;\\CakeTestSuite</title>
<path fill="none" stroke="black" d="M870.338,-1146.3C855.027,-1142.11 840.386,-1134.95 830,-1123 718.869,-995.116 872.306,-489.054 758,-364 751.146,-356.501 742.623,-351.061 733.316,-347.167"/>
<polygon fill="none" stroke="black" points="734.374,-343.828 723.78,-343.769 732.025,-350.422 734.374,-343.828"/>
</g>
<!-- \\CakeTestCase -->
<g id="node77" class="node"><title>\\CakeTestCase</title>
<ellipse fill="none" stroke="black" cx="82" cy="-2689" rx="82.0244" ry="18.3848"/>
<text text-anchor="middle" x="82" y="-2685.4" font-family="Times Roman,serif" font-size="14.00" fill="gray">\CakeTestCase</text>
</g>
<!-- \\NetCommonsCakeTestCase&#45;&gt;\\CakeTestCase -->
<g id="edge25" class="edge"><title>\\NetCommonsCakeTestCase&#45;&gt;\\CakeTestCase</title>
<path fill="none" stroke="black" d="M260.418,-2689C233.018,-2689 202.345,-2689 174.263,-2689"/>
<polygon fill="none" stroke="black" points="174.045,-2685.5 164.045,-2689 174.045,-2692.5 174.045,-2685.5"/>
</g>
<!-- \\NetCommonsSaveTest -->
<g id="node14" class="node"><title>\\NetCommonsSaveTest</title>
<polygon fill="none" stroke="black" points="1012,-2788 874,-2788 874,-2752 1012,-2752 1012,-2788"/>
<text text-anchor="middle" x="943" y="-2767.1" font-family="Courier,monospace" font-size="11.00">NetCommonsSaveTest</text>
</g>
<!-- \\NetCommonsSaveTest&#45;&gt;\\NetCommonsModelTestCase -->
<g id="edge27" class="edge"><title>\\NetCommonsSaveTest&#45;&gt;\\NetCommonsModelTestCase</title>
<path fill="none" stroke="black" d="M873.865,-2763.84C833.108,-2760.21 780.923,-2755.56 736.193,-2751.57"/>
<polygon fill="none" stroke="black" points="736.452,-2748.08 726.181,-2750.68 735.831,-2755.05 736.452,-2748.08"/>
</g>
<!-- \\NetCommonsModelTestCase&#45;&gt;\\NetCommonsCakeTestCase -->
<g id="edge29" class="edge"><title>\\NetCommonsModelTestCase&#45;&gt;\\NetCommonsCakeTestCase</title>
<path fill="none" stroke="black" d="M553.696,-2727.31C516.671,-2720.58 473.35,-2712.7 435.65,-2705.85"/>
<polygon fill="none" stroke="black" points="436.151,-2702.38 425.686,-2704.03 434.899,-2709.27 436.151,-2702.38"/>
</g>
<!-- \\NetCommonsControllerTestCase -->
<g id="node16" class="node"><title>\\NetCommonsControllerTestCase</title>
<polygon fill="none" stroke="black" points="1046,-1276 840,-1276 840,-1240 1046,-1240 1046,-1276"/>
<text text-anchor="middle" x="943" y="-1255.1" font-family="Courier,monospace" font-size="11.00">NetCommonsControllerTestCase</text>
</g>
<!-- \\NetCommonsControllerTestCase&#45;&gt;\\NetCommonsControllerBaseTestCase -->
<g id="edge31" class="edge"><title>\\NetCommonsControllerTestCase&#45;&gt;\\NetCommonsControllerBaseTestCase</title>
<path fill="none" stroke="black" d="M839.995,-1258C816.397,-1258 791.044,-1258 766.582,-1258"/>
<polygon fill="none" stroke="black" points="766.529,-1254.5 756.529,-1258 766.529,-1261.5 766.529,-1254.5"/>
</g>
<!-- \\NetCommonsAppController -->
<g id="node17" class="node"><title>\\NetCommonsAppController</title>
<polygon fill="none" stroke="black" points="726,-818 554,-818 554,-782 726,-782 726,-818"/>
<text text-anchor="middle" x="640" y="-797.1" font-family="Courier,monospace" font-size="11.00">NetCommonsAppController</text>
</g>
<!-- \\NetCommonsAppController&#45;&gt;\\Controller -->
<g id="edge33" class="edge"><title>\\NetCommonsAppController&#45;&gt;\\Controller</title>
<path fill="none" stroke="black" d="M553.891,-797.057C541.89,-793.154 530.708,-787.117 522,-778 361.766,-610.229 624.994,-413.312 450,-261 378.258,-198.557 308.181,-199.065 236,-261 159.448,-326.685 96.505,-1078.25 84.1858,-1234.61"/>
<polygon fill="none" stroke="black" points="80.6776,-1234.58 83.3868,-1244.82 87.6563,-1235.13 80.6776,-1234.58"/>
</g>
<!-- \\AssetComponent -->
<g id="node18" class="node"><title>\\AssetComponent</title>
<polygon fill="none" stroke="black" points="998,-1006 888,-1006 888,-970 998,-970 998,-1006"/>
<text text-anchor="middle" x="943" y="-985.1" font-family="Courier,monospace" font-size="11.00">AssetComponent</text>
</g>
<!-- \\Component -->
<g id="node83" class="node"><title>\\Component</title>
<ellipse fill="none" stroke="black" cx="640" cy="-288" rx="70.9184" ry="18.3848"/>
<text text-anchor="middle" x="640" y="-284.4" font-family="Times Roman,serif" font-size="14.00" fill="gray">\Component</text>
</g>
<!-- \\AssetComponent&#45;&gt;\\Component -->
<g id="edge35" class="edge"><title>\\AssetComponent&#45;&gt;\\Component</title>
<path fill="none" stroke="black" d="M887.243,-987.645C866.375,-984.544 844.29,-977.174 830,-961 638.725,-744.504 950.312,-530.576 758,-315 748.225,-304.042 734.994,-297.054 720.924,-292.686"/>
<polygon fill="none" stroke="black" points="721.644,-289.256 711.08,-290.064 719.842,-296.02 721.644,-289.256"/>
</g>
<!-- \\NetCommonsTimeComponent -->
<g id="node19" class="node"><title>\\NetCommonsTimeComponent</title>
<polygon fill="none" stroke="black" points="1029,-952 857,-952 857,-916 1029,-916 1029,-952"/>
<text text-anchor="middle" x="943" y="-931.1" font-family="Courier,monospace" font-size="11.00">NetCommonsTimeComponent</text>
</g>
<!-- \\NetCommonsTimeComponent&#45;&gt;\\Component -->
<g id="edge37" class="edge"><title>\\NetCommonsTimeComponent&#45;&gt;\\Component</title>
<path fill="none" stroke="black" d="M856.788,-925.394C846.644,-921.135 837.32,-915.202 830,-907 653.515,-709.252 935.432,-511.899 758,-315 748.227,-304.155 735.069,-297.207 721.082,-292.841"/>
<polygon fill="none" stroke="black" points="721.864,-289.426 711.298,-290.214 720.049,-296.187 721.864,-289.426"/>
</g>
<!-- \\PermissionComponent -->
<g id="node20" class="node"><title>\\PermissionComponent</title>
<polygon fill="none" stroke="black" points="1015,-898 871,-898 871,-862 1015,-862 1015,-898"/>
<text text-anchor="middle" x="943" y="-877.1" font-family="Courier,monospace" font-size="11.00">PermissionComponent</text>
</g>
<!-- \\PermissionComponent&#45;&gt;\\Component -->
<g id="edge39" class="edge"><title>\\PermissionComponent&#45;&gt;\\Component</title>
<path fill="none" stroke="black" d="M870.374,-875.925C855.156,-871.742 840.546,-864.675 830,-853 668.289,-673.982 920.569,-493.24 758,-315 748.162,-304.213 734.974,-297.293 720.979,-292.934"/>
<polygon fill="none" stroke="black" points="721.757,-289.519 711.192,-290.31 719.944,-296.281 721.757,-289.519"/>
</g>
<!-- \\NetCommonsComponent -->
<g id="node21" class="node"><title>\\NetCommonsComponent</title>
<polygon fill="none" stroke="black" points="1015,-1114 871,-1114 871,-1078 1015,-1078 1015,-1114"/>
<text text-anchor="middle" x="943" y="-1093.1" font-family="Courier,monospace" font-size="11.00">NetCommonsComponent</text>
</g>
<!-- \\NetCommonsComponent&#45;&gt;\\Component -->
<g id="edge41" class="edge"><title>\\NetCommonsComponent&#45;&gt;\\Component</title>
<path fill="none" stroke="black" d="M870.344,-1092.29C855.033,-1088.11 840.39,-1080.95 830,-1069 719.555,-941.985 869.053,-441.484 758,-315 748.311,-303.965 735.121,-296.943 721.061,-292.564"/>
<polygon fill="none" stroke="black" points="721.786,-289.135 711.222,-289.939 719.981,-295.899 721.786,-289.135"/>
</g>
<!-- \\NetCommonsController -->
<g id="node22" class="node"><title>\\NetCommonsController</title>
<polygon fill="none" stroke="black" points="1019,-1222 867,-1222 867,-1186 1019,-1186 1019,-1222"/>
<text text-anchor="middle" x="943" y="-1201.1" font-family="Courier,monospace" font-size="11.00">NetCommonsController</text>
</g>
<!-- \\NetCommonsController&#45;&gt;\\NetCommonsAppController -->
<g id="edge43" class="edge"><title>\\NetCommonsController&#45;&gt;\\NetCommonsAppController</title>
<path fill="none" stroke="black" d="M866.794,-1195.38C853.581,-1191.32 840.678,-1185.45 830,-1177 712.446,-1084.01 661.458,-899.009 645.702,-828.341"/>
<polygon fill="none" stroke="black" points="649.084,-827.424 643.549,-818.39 642.242,-828.904 649.084,-827.424"/>
</g>
<!-- \\NetCommonsUrl -->
<g id="node23" class="node"><title>\\NetCommonsUrl</title>
<polygon fill="none" stroke="black" points="995,-2194 891,-2194 891,-2158 995,-2158 995,-2194"/>
<text text-anchor="middle" x="943" y="-2173.1" font-family="Courier,monospace" font-size="11.00">NetCommonsUrl</text>
</g>
<!-- \\NetCommonsTime -->
<g id="node24" class="node"><title>\\NetCommonsTime</title>
<polygon fill="none" stroke="black" points="998,-2140 888,-2140 888,-2104 998,-2104 998,-2140"/>
<text text-anchor="middle" x="943" y="-2119.1" font-family="Courier,monospace" font-size="11.00">NetCommonsTime</text>
</g>
<!-- \\CurrentBase -->
<g id="node25" class="node"><title>\\CurrentBase</title>
<polygon fill="none" stroke="black" points="685,-2356 595,-2356 595,-2320 685,-2320 685,-2356"/>
<text text-anchor="middle" x="640" y="-2335.1" font-family="Courier,monospace" font-size="11.00">CurrentBase</text>
</g>
<!-- \\Current -->
<g id="node26" class="node"><title>\\Current</title>
<polygon fill="none" stroke="black" points="975,-2356 911,-2356 911,-2320 975,-2320 975,-2356"/>
<text text-anchor="middle" x="943" y="-2335.1" font-family="Courier,monospace" font-size="11.00">Current</text>
</g>
<!-- \\Current&#45;&gt;\\CurrentBase -->
<g id="edge45" class="edge"><title>\\Current&#45;&gt;\\CurrentBase</title>
<path fill="none" stroke="black" d="M910.861,-2338C859.643,-2338 758.861,-2338 695.715,-2338"/>
<polygon fill="none" stroke="black" points="695.534,-2334.5 685.534,-2338 695.534,-2341.5 695.534,-2334.5"/>
</g>
<!-- \\CurrentSystem -->
<g id="node27" class="node"><title>\\CurrentSystem</title>
<polygon fill="none" stroke="black" points="995,-2032 891,-2032 891,-1996 995,-1996 995,-2032"/>
<text text-anchor="middle" x="943" y="-2011.1" font-family="Courier,monospace" font-size="11.00">CurrentSystem</text>
</g>
<!-- \\CurrentPage -->
<g id="node28" class="node"><title>\\CurrentPage</title>
<polygon fill="none" stroke="black" points="988,-1978 898,-1978 898,-1942 988,-1942 988,-1978"/>
<text text-anchor="middle" x="943" y="-1957.1" font-family="Courier,monospace" font-size="11.00">CurrentPage</text>
</g>
<!-- \\CurrentFrame -->
<g id="node29" class="node"><title>\\CurrentFrame</title>
<polygon fill="none" stroke="black" points="992,-1924 894,-1924 894,-1888 992,-1888 992,-1924"/>
<text text-anchor="middle" x="943" y="-1903.1" font-family="Courier,monospace" font-size="11.00">CurrentFrame</text>
</g>
<!-- \\TokenHelper -->
<g id="node30" class="node"><title>\\TokenHelper</title>
<polygon fill="none" stroke="black" points="988,-790 898,-790 898,-754 988,-754 988,-790"/>
<text text-anchor="middle" x="943" y="-769.1" font-family="Courier,monospace" font-size="11.00">TokenHelper</text>
</g>
<!-- \\FormHelper -->
<g id="node90" class="node"><title>\\FormHelper</title>
<ellipse fill="none" stroke="black" cx="640" cy="-234" rx="70.9184" ry="18.3848"/>
<text text-anchor="middle" x="640" y="-230.4" font-family="Times Roman,serif" font-size="14.00" fill="gray">\FormHelper</text>
</g>
<!-- \\TokenHelper&#45;&gt;\\FormHelper -->
<g id="edge47" class="edge"><title>\\TokenHelper&#45;&gt;\\FormHelper</title>
<path fill="none" stroke="black" d="M897.333,-772.573C873.941,-770.348 846.901,-763.437 830,-745 683.042,-584.688 905.726,-420.605 758,-261 748.083,-250.286 734.859,-243.398 720.853,-239.049"/>
<polygon fill="none" stroke="black" points="721.628,-235.634 711.063,-236.429 719.818,-242.396 721.628,-235.634"/>
</g>
<!-- \\SingletonViewBlockHtmlHelper -->
<g id="node31" class="node"><title>\\SingletonViewBlockHtmlHelper</title>
<polygon fill="none" stroke="black" points="1046,-682 840,-682 840,-646 1046,-646 1046,-682"/>
<text text-anchor="middle" x="943" y="-661.1" font-family="Courier,monospace" font-size="11.00">SingletonViewBlockHtmlHelper</text>
</g>
<!-- \\HtmlHelper -->
<g id="node92" class="node"><title>\\HtmlHelper</title>
<ellipse fill="none" stroke="black" cx="640" cy="-180" rx="67.1751" ry="18.3848"/>
<text text-anchor="middle" x="640" y="-176.4" font-family="Times Roman,serif" font-size="14.00" fill="gray">HtmlHelper</text>
</g>
<!-- \\SingletonViewBlockHtmlHelper&#45;&gt;\\HtmlHelper -->
<g id="edge49" class="edge"><title>\\SingletonViewBlockHtmlHelper&#45;&gt;\\HtmlHelper</title>
<path fill="none" stroke="black" d="M839.951,-645.694C836.371,-643.129 833.028,-640.244 830,-637 697.765,-495.362 890.914,-348.002 758,-207 747.121,-195.459 732.401,-188.376 717.051,-184.126"/>
<polygon fill="none" stroke="black" points="717.444,-180.622 706.906,-181.723 715.83,-187.434 717.444,-180.622"/>
</g>
<!-- \\FormInputHelper -->
<g id="node32" class="node"><title>\\FormInputHelper</title>
<polygon fill="none" stroke="black" points="1002,-2302 884,-2302 884,-2266 1002,-2266 1002,-2302"/>
<text text-anchor="middle" x="943" y="-2281.1" font-family="Courier,monospace" font-size="11.00">FormInputHelper</text>
</g>
<!-- \\FormInputHelper&#45;&gt;\\AppHelper -->
<g id="edge51" class="edge"><title>\\FormInputHelper&#45;&gt;\\AppHelper</title>
<path fill="none" stroke="black" d="M883.879,-2281.95C864.45,-2278.4 844.215,-2271.17 830,-2257 733.8,-2161.12 797.301,-2090.01 758,-1960 724.245,-1848.33 673.504,-1718.93 651.197,-1663.5"/>
<polygon fill="none" stroke="black" points="654.363,-1661.99 647.373,-1654.03 647.873,-1664.61 654.363,-1661.99"/>
</g>
<!-- \\WizardHelper -->
<g id="node33" class="node"><title>\\WizardHelper</title>
<polygon fill="none" stroke="black" points="992,-2248 894,-2248 894,-2212 992,-2212 992,-2248"/>
<text text-anchor="middle" x="943" y="-2227.1" font-family="Courier,monospace" font-size="11.00">WizardHelper</text>
</g>
<!-- \\WizardHelper&#45;&gt;\\AppHelper -->
<g id="edge53" class="edge"><title>\\WizardHelper&#45;&gt;\\AppHelper</title>
<path fill="none" stroke="black" d="M893.814,-2229.05C871.775,-2226.15 846.981,-2219.1 830,-2203 748.248,-2125.51 793.29,-2066.97 758,-1960 721.451,-1849.21 672.171,-1719.35 650.719,-1663.65"/>
<polygon fill="none" stroke="black" points="653.913,-1662.2 647.047,-1654.13 647.382,-1664.72 653.913,-1662.2"/>
</g>
<!-- \\DisplayNumberHelper -->
<g id="node34" class="node"><title>\\DisplayNumberHelper</title>
<polygon fill="none" stroke="black" points="1015,-2086 871,-2086 871,-2050 1015,-2050 1015,-2086"/>
<text text-anchor="middle" x="943" y="-2065.1" font-family="Courier,monospace" font-size="11.00">DisplayNumberHelper</text>
</g>
<!-- \\DisplayNumberHelper&#45;&gt;\\AppHelper -->
<g id="edge55" class="edge"><title>\\DisplayNumberHelper&#45;&gt;\\AppHelper</title>
<path fill="none" stroke="black" d="M870.418,-2060.75C855.9,-2056.66 841.575,-2050.42 830,-2041 766.258,-1989.1 678.028,-1746.14 649.384,-1663.56"/>
<polygon fill="none" stroke="black" points="652.687,-1662.4 646.117,-1654.09 646.069,-1664.68 652.687,-1662.4"/>
</g>
<!-- \\MessageFlashHelper -->
<g id="node35" class="node"><title>\\MessageFlashHelper</title>
<polygon fill="none" stroke="black" points="1012,-1870 874,-1870 874,-1834 1012,-1834 1012,-1870"/>
<text text-anchor="middle" x="943" y="-1849.1" font-family="Courier,monospace" font-size="11.00">MessageFlashHelper</text>
</g>
<!-- \\MessageFlashHelper&#45;&gt;\\AppHelper -->
<g id="edge57" class="edge"><title>\\MessageFlashHelper&#45;&gt;\\AppHelper</title>
<path fill="none" stroke="black" d="M873.822,-1841.8C858.787,-1837.88 843.389,-1832.47 830,-1825 755.072,-1783.22 689.513,-1703.58 658.697,-1662.29"/>
<polygon fill="none" stroke="black" points="661.406,-1660.06 652.658,-1654.09 655.769,-1664.21 661.406,-1660.06"/>
</g>
<!-- \\DateHelper -->
<g id="node36" class="node"><title>\\DateHelper</title>
<polygon fill="none" stroke="black" points="985,-1816 901,-1816 901,-1780 985,-1780 985,-1816"/>
<text text-anchor="middle" x="943" y="-1795.1" font-family="Courier,monospace" font-size="11.00">DateHelper</text>
</g>
<!-- \\DateHelper&#45;&gt;\\AppHelper -->
<g id="edge59" class="edge"><title>\\DateHelper&#45;&gt;\\AppHelper</title>
<path fill="none" stroke="black" d="M900.948,-1791.91C879.121,-1787.78 852.407,-1781.17 830,-1771 766.724,-1742.27 702.84,-1691.34 667.639,-1660.92"/>
<polygon fill="none" stroke="black" points="669.575,-1657.96 659.741,-1654.02 664.97,-1663.23 669.575,-1657.96"/>
</g>
<!-- \\SnsButtonHelper -->
<g id="node37" class="node"><title>\\SnsButtonHelper</title>
<polygon fill="none" stroke="black" points="1002,-1762 884,-1762 884,-1726 1002,-1726 1002,-1762"/>
<text text-anchor="middle" x="943" y="-1741.1" font-family="Courier,monospace" font-size="11.00">SnsButtonHelper</text>
</g>
<!-- \\SnsButtonHelper&#45;&gt;\\AppHelper -->
<g id="edge61" class="edge"><title>\\SnsButtonHelper&#45;&gt;\\AppHelper</title>
<path fill="none" stroke="black" d="M883.824,-1731.84C866.323,-1727.72 847.239,-1722.69 830,-1717 779.773,-1700.42 724.35,-1676.06 686.392,-1658.38"/>
<polygon fill="none" stroke="black" points="687.672,-1655.12 677.132,-1654.04 684.701,-1661.46 687.672,-1655.12"/>
</g>
<!-- \\BackToHelper -->
<g id="node38" class="node"><title>\\BackToHelper</title>
<polygon fill="none" stroke="black" points="992,-1708 894,-1708 894,-1672 992,-1672 992,-1708"/>
<text text-anchor="middle" x="943" y="-1687.1" font-family="Courier,monospace" font-size="11.00">BackToHelper</text>
</g>
<!-- \\BackToHelper&#45;&gt;\\AppHelper -->
<g id="edge63" class="edge"><title>\\BackToHelper&#45;&gt;\\AppHelper</title>
<path fill="none" stroke="black" d="M893.981,-1681.26C837.533,-1671.2 745.351,-1654.78 688.937,-1644.72"/>
<polygon fill="none" stroke="black" points="689.295,-1641.23 678.836,-1642.92 688.067,-1648.12 689.295,-1641.23"/>
</g>
<!-- \\NetCommonsHtmlHelper -->
<g id="node39" class="node"><title>\\NetCommonsHtmlHelper</title>
<polygon fill="none" stroke="black" points="1019,-1654 867,-1654 867,-1618 1019,-1618 1019,-1654"/>
<text text-anchor="middle" x="943" y="-1633.1" font-family="Courier,monospace" font-size="11.00">NetCommonsHtmlHelper</text>
</g>
<!-- \\NetCommonsHtmlHelper&#45;&gt;\\AppHelper -->
<g id="edge65" class="edge"><title>\\NetCommonsHtmlHelper&#45;&gt;\\AppHelper</title>
<path fill="none" stroke="black" d="M866.931,-1636C811.077,-1636 736.857,-1636 688.76,-1636"/>
<polygon fill="none" stroke="black" points="688.612,-1632.5 678.612,-1636 688.612,-1639.5 688.612,-1632.5"/>
</g>
<!-- \\ButtonHelper -->
<g id="node40" class="node"><title>\\ButtonHelper</title>
<polygon fill="none" stroke="black" points="992,-736 894,-736 894,-700 992,-700 992,-736"/>
<text text-anchor="middle" x="943" y="-715.1" font-family="Courier,monospace" font-size="11.00">ButtonHelper</text>
</g>
<!-- \\ButtonHelper&#45;&gt;\\FormHelper -->
<g id="edge67" class="edge"><title>\\ButtonHelper&#45;&gt;\\FormHelper</title>
<path fill="none" stroke="black" d="M893.765,-718.054C871.306,-715.433 846.174,-708.324 830,-691 697.765,-549.362 890.914,-402.002 758,-261 747.986,-250.377 734.718,-243.531 720.698,-239.194"/>
<polygon fill="none" stroke="black" points="721.468,-235.777 710.904,-236.577 719.661,-242.54 721.468,-235.777"/>
</g>
<!-- \\ComposerHelper -->
<g id="node41" class="node"><title>\\ComposerHelper</title>
<polygon fill="none" stroke="black" points="998,-1600 888,-1600 888,-1564 998,-1564 998,-1600"/>
<text text-anchor="middle" x="943" y="-1579.1" font-family="Courier,monospace" font-size="11.00">ComposerHelper</text>
</g>
<!-- \\ComposerHelper&#45;&gt;\\AppHelper -->
<g id="edge69" class="edge"><title>\\ComposerHelper&#45;&gt;\\AppHelper</title>
<path fill="none" stroke="black" d="M887.425,-1591.9C830.607,-1602.03 743.21,-1617.61 688.931,-1627.28"/>
<polygon fill="none" stroke="black" points="688.097,-1623.87 678.866,-1629.07 689.325,-1630.76 688.097,-1623.87"/>
</g>
<!-- \\LinkButtonHelper -->
<g id="node42" class="node"><title>\\LinkButtonHelper</title>
<polygon fill="none" stroke="black" points="1005,-844 881,-844 881,-808 1005,-808 1005,-844"/>
<text text-anchor="middle" x="943" y="-823.1" font-family="Courier,monospace" font-size="11.00">LinkButtonHelper</text>
</g>
<!-- \\LinkButtonHelper&#45;&gt;\\FormHelper -->
<g id="edge71" class="edge"><title>\\LinkButtonHelper&#45;&gt;\\FormHelper</title>
<path fill="none" stroke="black" d="M880.376,-824.267C861.717,-820.603 842.845,-813.219 830,-799 668.289,-619.982 920.569,-439.24 758,-261 748.162,-250.213 734.974,-243.293 720.979,-238.934"/>
<polygon fill="none" stroke="black" points="721.757,-235.519 711.192,-236.31 719.944,-242.281 721.757,-235.519"/>
</g>
<!-- \\NetCommonsTimeHelper -->
<g id="node43" class="node"><title>\\NetCommonsTimeHelper</title>
<polygon fill="none" stroke="black" points="1019,-1546 867,-1546 867,-1510 1019,-1510 1019,-1546"/>
<text text-anchor="middle" x="943" y="-1525.1" font-family="Courier,monospace" font-size="11.00">NetCommonsTimeHelper</text>
</g>
<!-- \\NetCommonsTimeHelper&#45;&gt;\\AppHelper -->
<g id="edge73" class="edge"><title>\\NetCommonsTimeHelper&#45;&gt;\\AppHelper</title>
<path fill="none" stroke="black" d="M866.831,-1544.34C854.421,-1547.53 841.78,-1551.11 830,-1555 779.773,-1571.58 724.35,-1595.94 686.392,-1613.62"/>
<polygon fill="none" stroke="black" points="684.701,-1610.54 677.132,-1617.96 687.672,-1616.88 684.701,-1610.54"/>
</g>
<!-- \\NetCommonsFormHelper -->
<g id="node44" class="node"><title>\\NetCommonsFormHelper</title>
<polygon fill="none" stroke="black" points="1019,-1492 867,-1492 867,-1456 1019,-1456 1019,-1492"/>
<text text-anchor="middle" x="943" y="-1471.1" font-family="Courier,monospace" font-size="11.00">NetCommonsFormHelper</text>
</g>
<!-- \\NetCommonsFormHelper&#45;&gt;\\AppHelper -->
<g id="edge75" class="edge"><title>\\NetCommonsFormHelper&#45;&gt;\\AppHelper</title>
<path fill="none" stroke="black" d="M866.892,-1487.94C854.29,-1491.44 841.571,-1495.75 830,-1501 766.724,-1529.73 702.84,-1580.66 667.639,-1611.08"/>
<polygon fill="none" stroke="black" points="664.97,-1608.77 659.741,-1617.98 669.575,-1614.04 664.97,-1608.77"/>
</g>
<!-- \\TitleIconHelper -->
<g id="node45" class="node"><title>\\TitleIconHelper</title>
<polygon fill="none" stroke="black" points="1002,-1438 884,-1438 884,-1402 1002,-1402 1002,-1438"/>
<text text-anchor="middle" x="943" y="-1417.1" font-family="Courier,monospace" font-size="11.00">TitleIconHelper</text>
</g>
<!-- \\TitleIconHelper&#45;&gt;\\AppHelper -->
<g id="edge77" class="edge"><title>\\TitleIconHelper&#45;&gt;\\AppHelper</title>
<path fill="none" stroke="black" d="M883.83,-1427.79C865.776,-1431.8 846.384,-1437.86 830,-1447 755.072,-1488.78 689.513,-1568.42 658.697,-1609.71"/>
<polygon fill="none" stroke="black" points="655.769,-1607.79 652.658,-1617.91 661.406,-1611.94 655.769,-1607.79"/>
</g>
<!-- \\DatetimePickerHelper -->
<g id="node46" class="node"><title>\\DatetimePickerHelper</title>
<polygon fill="none" stroke="black" points="1019,-1384 867,-1384 867,-1348 1019,-1348 1019,-1384"/>
<text text-anchor="middle" x="943" y="-1363.1" font-family="Courier,monospace" font-size="11.00">DatetimePickerHelper</text>
</g>
<!-- \\DatetimePickerHelper&#45;&gt;\\AppHelper -->
<g id="edge79" class="edge"><title>\\DatetimePickerHelper&#45;&gt;\\AppHelper</title>
<path fill="none" stroke="black" d="M866.874,-1376.74C853.942,-1380.61 841.117,-1385.86 830,-1393 743.218,-1448.73 679.477,-1558.14 653.224,-1608.92"/>
<polygon fill="none" stroke="black" points="650.031,-1607.47 648.619,-1617.97 656.271,-1610.65 650.031,-1607.47"/>
</g>
<!-- \\Model -->
<g id="node109" class="node"><title>\\Model</title>
<ellipse fill="none" stroke="black" cx="82" cy="-2554" rx="43.8406" ry="18.3848"/>
<text text-anchor="middle" x="82" y="-2550.4" font-family="Times Roman,serif" font-size="14.00" fill="gray">\Model</text>
</g>
<!-- \\NetCommonsAppModel&#45;&gt;\\Model -->
<g id="edge81" class="edge"><title>\\NetCommonsAppModel&#45;&gt;\\Model</title>
<path fill="none" stroke="black" d="M273.742,-2554C230.675,-2554 176.099,-2554 136.195,-2554"/>
<polygon fill="none" stroke="black" points="136.125,-2550.5 126.125,-2554 136.125,-2557.5 136.125,-2550.5"/>
</g>
<!-- \\OriginalKeyBehavior -->
<g id="node48" class="node"><title>\\OriginalKeyBehavior</title>
<polygon fill="none" stroke="black" points="1015,-574 871,-574 871,-538 1015,-538 1015,-574"/>
<text text-anchor="middle" x="943" y="-553.1" font-family="Courier,monospace" font-size="11.00">OriginalKeyBehavior</text>
</g>
<!-- \\ModelBehavior -->
<g id="node111" class="node"><title>\\ModelBehavior</title>
<ellipse fill="none" stroke="black" cx="640" cy="-126" rx="86.9741" ry="18.3848"/>
<text text-anchor="middle" x="640" y="-122.4" font-family="Times Roman,serif" font-size="14.00" fill="gray">\ModelBehavior</text>
</g>
<!-- \\OriginalKeyBehavior&#45;&gt;\\ModelBehavior -->
<g id="edge83" class="edge"><title>\\OriginalKeyBehavior&#45;&gt;\\ModelBehavior</title>
<path fill="none" stroke="black" d="M870.258,-551.327C855.229,-547.145 840.73,-540.228 830,-529 712.446,-405.991 876.143,-275.443 758,-153 750.646,-145.379 741.615,-139.712 731.852,-135.525"/>
<polygon fill="none" stroke="black" points="732.89,-132.176 722.298,-131.949 730.436,-138.732 732.89,-132.176"/>
</g>
<!-- \\TrackableBehavior -->
<g id="node49" class="node"><title>\\TrackableBehavior</title>
<polygon fill="none" stroke="black" points="1008,-520 878,-520 878,-484 1008,-484 1008,-520"/>
<text text-anchor="middle" x="943" y="-499.1" font-family="Courier,monospace" font-size="11.00">TrackableBehavior</text>
</g>
<!-- \\TrackableBehavior&#45;&gt;\\ModelBehavior -->
<g id="edge85" class="edge"><title>\\TrackableBehavior&#45;&gt;\\ModelBehavior</title>
<path fill="none" stroke="black" d="M877.27,-498.778C859.902,-494.864 842.53,-487.714 830,-475 727.064,-370.554 861.436,-256.95 758,-153 750.53,-145.493 741.428,-139.895 731.627,-135.745"/>
<polygon fill="none" stroke="black" points="732.638,-132.388 722.045,-132.196 730.207,-138.952 732.638,-132.388"/>
</g>
<!-- \\YAExceptionRenderer -->
<g id="node50" class="node"><title>\\YAExceptionRenderer</title>
<polygon fill="none" stroke="black" points="1015,-466 871,-466 871,-430 1015,-430 1015,-466"/>
<text text-anchor="middle" x="943" y="-445.1" font-family="Courier,monospace" font-size="11.00">YAExceptionRenderer</text>
</g>
<!-- \\ExceptionRenderer -->
<g id="node114" class="node"><title>\\ExceptionRenderer</title>
<ellipse fill="none" stroke="black" cx="640" cy="-72" rx="118.087" ry="18.3848"/>
<text text-anchor="middle" x="640" y="-68.4" font-family="Times Roman,serif" font-size="14.00" fill="gray">TEHxceptionRenderer</text>
</g>
<!-- \\YAExceptionRenderer&#45;&gt;\\ExceptionRenderer -->
<g id="edge87" class="edge"><title>\\YAExceptionRenderer&#45;&gt;\\ExceptionRenderer</title>
<path fill="none" stroke="black" d="M870.216,-443.002C855.28,-438.823 840.831,-431.99 830,-421 727.064,-316.554 861.436,-202.95 758,-99 753.632,-94.61 748.706,-90.873 743.408,-87.6967"/>
<polygon fill="none" stroke="black" points="744.657,-84.4002 734.174,-82.8643 741.411,-90.6022 744.657,-84.4002"/>
</g>
<!-- \\NetCommonsMigration -->
<g id="node51" class="node"><title>\\NetCommonsMigration</title>
<polygon fill="none" stroke="black" points="1015,-412 871,-412 871,-376 1015,-376 1015,-412"/>
<text text-anchor="middle" x="943" y="-391.1" font-family="Courier,monospace" font-size="11.00">NetCommonsMigration</text>
</g>
<!-- \\CakeMigration -->
<g id="node116" class="node"><title>\\CakeMigration</title>
<ellipse fill="none" stroke="black" cx="640" cy="-18" rx="84.8528" ry="18.3848"/>
<text text-anchor="middle" x="640" y="-14.4" font-family="Times Roman,serif" font-size="14.00" fill="gray">\CakeMigration</text>
</g>
<!-- \\NetCommonsMigration&#45;&gt;\\CakeMigration -->
<g id="edge89" class="edge"><title>\\NetCommonsMigration&#45;&gt;\\CakeMigration</title>
<path fill="none" stroke="black" d="M939.003,-375.703C925.25,-317.32 874.186,-134.09 758,-45 748.842,-37.9777 738.183,-32.7258 727.089,-28.8077"/>
<polygon fill="none" stroke="black" points="727.844,-25.3757 717.254,-25.697 725.733,-32.0498 727.844,-25.3757"/>
</g>
<!-- \\ThemeSettingsAppController -->
<g id="node52" class="node"><title>\\ThemeSettingsAppController</title>
<polygon fill="none" stroke="black" points="736,-2410 544,-2410 544,-2374 736,-2374 736,-2410"/>
<text text-anchor="middle" x="640" y="-2389.1" font-family="Courier,monospace" font-size="11.00">ThemeSettingsAppController</text>
</g>
<!-- \\ThemeSettingsAppController&#45;&gt;\\AppController -->
<g id="edge91" class="edge"><title>\\ThemeSettingsAppController&#45;&gt;\\AppController</title>
<path fill="none" stroke="black" d="M543.739,-2378.02C535.94,-2374.54 528.554,-2370.26 522,-2365 405.964,-2271.79 360.988,-2085.51 347.669,-2014.95"/>
<polygon fill="none" stroke="black" points="351.097,-2014.24 345.863,-2005.03 344.21,-2015.5 351.097,-2014.24"/>
</g>
<!-- \\ThemeSettingsSiteController -->
<g id="node53" class="node"><title>\\ThemeSettingsSiteController</title>
<polygon fill="none" stroke="black" points="1042,-2464 844,-2464 844,-2428 1042,-2428 1042,-2464"/>
<text text-anchor="middle" x="943" y="-2443.1" font-family="Courier,monospace" font-size="11.00">ThemeSettingsSiteController</text>
</g>
<!-- \\ThemeSettingsSiteController&#45;&gt;\\ThemeSettingsAppController -->
<g id="edge93" class="edge"><title>\\ThemeSettingsSiteController&#45;&gt;\\ThemeSettingsAppController</title>
<path fill="none" stroke="black" d="M843.367,-2428.24C812.238,-2422.7 777.788,-2416.56 746.224,-2410.93"/>
<polygon fill="none" stroke="black" points="746.545,-2407.43 736.086,-2409.12 745.316,-2414.32 746.545,-2407.43"/>
</g>
<!-- \\ThemeSettingsThemeListComponent -->
<g id="node54" class="node"><title>\\ThemeSettingsThemeListComponent</title>
<polygon fill="none" stroke="black" points="1056,-1060 830,-1060 830,-1024 1056,-1024 1056,-1060"/>
<text text-anchor="middle" x="943" y="-1039.1" font-family="Courier,monospace" font-size="11.00">ThemeSettingsThemeListComponent</text>
</g>
<!-- \\ThemeSettingsThemeListComponent&#45;&gt;\\Component -->
<g id="edge95" class="edge"><title>\\ThemeSettingsThemeListComponent&#45;&gt;\\Component</title>
<path fill="none" stroke="black" d="M839.689,-1023.93C836.18,-1021.3 832.924,-1018.34 830,-1015 623.923,-779.742 965.204,-549.266 758,-315 748.271,-304.001 735.062,-296.994 720.998,-292.62"/>
<polygon fill="none" stroke="black" points="721.72,-289.191 711.156,-289.996 719.917,-295.955 721.72,-289.191"/>
</g>
<!-- \\ThemeSettingsController -->
<g id="node55" class="node"><title>\\ThemeSettingsController</title>
<polygon fill="none" stroke="black" points="726,-2005 554,-2005 554,-1969 726,-1969 726,-2005"/>
<text text-anchor="middle" x="640" y="-1984.1" font-family="Courier,monospace" font-size="11.00">ThemeSettingsController</text>
</g>
<!-- \\ThemeSettingsController&#45;&gt;\\AppController -->
<g id="edge97" class="edge"><title>\\ThemeSettingsController&#45;&gt;\\AppController</title>
<path fill="none" stroke="black" d="M553.696,-1987C506.129,-1987 448.17,-1987 405.089,-1987"/>
<polygon fill="none" stroke="black" points="405.028,-1983.5 395.028,-1987 405.028,-1990.5 405.028,-1983.5"/>
</g>
<!-- \\ThemeSettingsUploadController -->
<g id="node56" class="node"><title>\\ThemeSettingsUploadController</title>
<polygon fill="none" stroke="black" points="1049,-2410 837,-2410 837,-2374 1049,-2374 1049,-2410"/>
<text text-anchor="middle" x="943" y="-2389.1" font-family="Courier,monospace" font-size="11.00">ThemeSettingsUploadController</text>
</g>
<!-- \\ThemeSettingsUploadController&#45;&gt;\\ThemeSettingsAppController -->
<g id="edge99" class="edge"><title>\\ThemeSettingsUploadController&#45;&gt;\\ThemeSettingsAppController</title>
<path fill="none" stroke="black" d="M836.6,-2392C807.313,-2392 775.552,-2392 746.272,-2392"/>
<polygon fill="none" stroke="black" points="746.027,-2388.5 736.027,-2392 746.027,-2395.5 746.027,-2388.5"/>
</g>
<!-- \\ThemeSettingsHelper -->
<g id="node57" class="node"><title>\\ThemeSettingsHelper</title>
<polygon fill="none" stroke="black" points="1015,-1330 871,-1330 871,-1294 1015,-1294 1015,-1330"/>
<text text-anchor="middle" x="943" y="-1309.1" font-family="Courier,monospace" font-size="11.00">ThemeSettingsHelper</text>
</g>
<!-- \\ThemeSettingsHelper&#45;&gt;\\AppHelper -->
<g id="edge101" class="edge"><title>\\ThemeSettingsHelper&#45;&gt;\\AppHelper</title>
<path fill="none" stroke="black" d="M870.426,-1320.67C856.148,-1324.69 841.918,-1330.53 830,-1339 730.97,-1409.42 671.274,-1549.22 649.458,-1608.45"/>
<polygon fill="none" stroke="black" points="646.153,-1607.3 646.052,-1617.89 652.738,-1609.67 646.153,-1607.3"/>
</g>
<!-- \\ThemeBehavior -->
<g id="node58" class="node"><title>\\ThemeBehavior</title>
<polygon fill="none" stroke="black" points="995,-628 891,-628 891,-592 995,-592 995,-628"/>
<text text-anchor="middle" x="943" y="-607.1" font-family="Courier,monospace" font-size="11.00">ThemeBehavior</text>
</g>
<!-- \\ThemeBehavior&#45;&gt;\\ModelBehavior -->
<g id="edge103" class="edge"><title>\\ThemeBehavior&#45;&gt;\\ModelBehavior</title>
<path fill="none" stroke="black" d="M890.885,-609.695C869.183,-606.809 845.485,-599.586 830,-583 697.765,-441.362 890.914,-294.002 758,-153 750.736,-145.293 741.758,-139.575 732.025,-135.36"/>
<polygon fill="none" stroke="black" points="733.083,-132.019 722.491,-131.764 730.613,-138.568 733.083,-132.019"/>
</g>
<!-- \\ThemeSettingsAppModel -->
<g id="node59" class="node"><title>\\ThemeSettingsAppModel</title>
<polygon fill="none" stroke="black" points="1022,-2518 864,-2518 864,-2482 1022,-2482 1022,-2518"/>
<text text-anchor="middle" x="943" y="-2497.1" font-family="Courier,monospace" font-size="11.00">ThemeSettingsAppModel</text>
</g>
<!-- \\ThemeSettingsAppModel&#45;&gt;\\AppModel -->
<g id="edge105" class="edge"><title>\\ThemeSettingsAppModel&#45;&gt;\\AppModel</title>
<path fill="none" stroke="black" d="M863.786,-2514.12C807.101,-2524.22 732.781,-2537.46 685.695,-2545.86"/>
<polygon fill="none" stroke="black" points="685.018,-2542.42 675.787,-2547.62 686.246,-2549.31 685.018,-2542.42"/>
</g>
<!-- \\ThemeSettingsSite -->
<g id="node60" class="node"><title>\\ThemeSettingsSite</title>
<polygon fill="none" stroke="black" points="1008,-2626 878,-2626 878,-2590 1008,-2590 1008,-2626"/>
<text text-anchor="middle" x="943" y="-2605.1" font-family="Courier,monospace" font-size="11.00">ThemeSettingsSite</text>
</g>
<!-- \\ThemeSettingsSite&#45;&gt;\\AppModel -->
<g id="edge107" class="edge"><title>\\ThemeSettingsSite&#45;&gt;\\AppModel</title>
<path fill="none" stroke="black" d="M877.254,-2596.28C819.447,-2585.98 736.806,-2571.25 685.872,-2562.18"/>
<polygon fill="none" stroke="black" points="686.274,-2558.69 675.815,-2560.38 685.045,-2565.58 686.274,-2558.69"/>
</g>
</g>
</svg>
