<?xml version="1.0" encoding="UTF-8" standalone="no"?>
<!DOCTYPE svg PUBLIC "-//W3C//DTD SVG 1.1//EN"
 "http://www.w3.org/Graphics/SVG/1.1/DTD/svg11.dtd">
<!-- Generated by graphviz version 2.26.3 (20100126.1600)
 -->
<!-- Title: G Pages: 1 -->
<svg width="1080pt" height="3050pt"
 viewBox="0.00 0.00 1080.00 3050.00" xmlns="http://www.w3.org/2000/svg" xmlns:xlink="http://www.w3.org/1999/xlink">
<g id="graph1" class="graph" transform="scale(1 1) rotate(0) translate(4 3046)">
<title>G</title>
<polygon fill="white" stroke="white" points="-4,5 -4,-3046 1077,-3046 1077,5 -4,5"/>
<g id="graph2" class="cluster"><title>cluster_Global</title>
<polyline fill="none" stroke="gray" points="264,-368 1052,-368 "/>
<path fill="none" stroke="gray" d="M1052,-368C1058,-368 1064,-374 1064,-380"/>
<polyline fill="none" stroke="gray" points="1064,-380 1064,-3022 "/>
<path fill="none" stroke="gray" d="M1064,-3022C1064,-3028 1058,-3034 1052,-3034"/>
<polyline fill="none" stroke="gray" points="1052,-3034 264,-3034 "/>
<path fill="none" stroke="gray" d="M264,-3034C258,-3034 252,-3028 252,-3022"/>
<polyline fill="none" stroke="gray" points="252,-3022 252,-380 "/>
<path fill="none" stroke="gray" d="M252,-380C252,-374 258,-368 264,-368"/>
<text text-anchor="middle" x="658" y="-3020.1" font-family="Times Roman,serif" font-size="11.00" fill="gray">Global</text>
</g>
<!-- \\AppController -->
<g id="node2" class="node"><title>\\AppController</title>
<polygon fill="none" stroke="black" points="395,-2167 291,-2167 291,-2131 395,-2131 395,-2167"/>
<text text-anchor="middle" x="343" y="-2146.1" font-family="Courier,monospace" font-size="11.00">AppController</text>
</g>
<!-- \\Controller -->
<g id="node65" class="node"><title>\\Controller</title>
<ellipse fill="none" stroke="black" cx="82" cy="-1371" rx="63.1385" ry="18.3848"/>
<text text-anchor="middle" x="82" y="-1367.4" font-family="Times Roman,serif" font-size="14.00" fill="gray">\Controller</text>
</g>
<!-- \\AppController&#45;&gt;\\Controller -->
<g id="edge3" class="edge"><title>\\AppController&#45;&gt;\\Controller</title>
<path fill="none" stroke="black" d="M290.746,-2149.88C271.184,-2147.5 250.269,-2141.29 236,-2127 130.252,-2021.06 91.7685,-1523.85 83.7025,-1399.33"/>
<polygon fill="none" stroke="black" points="87.1794,-1398.85 83.0543,-1389.1 80.1934,-1399.3 87.1794,-1398.85"/>
</g>
<!-- \\AppModel -->
<g id="node3" class="node"><title>\\AppModel</title>
<polygon fill="none" stroke="black" points="675,-2734 605,-2734 605,-2698 675,-2698 675,-2734"/>
<text text-anchor="middle" x="640" y="-2713.1" font-family="Courier,monospace" font-size="11.00">AppModel</text>
</g>
<!-- \\NetCommonsAppModel -->
<g id="node50" class="node"><title>\\NetCommonsAppModel</title>
<polygon fill="none" stroke="black" points="412,-2734 274,-2734 274,-2698 412,-2698 412,-2734"/>
<text text-anchor="middle" x="343" y="-2713.1" font-family="Courier,monospace" font-size="11.00">NetCommonsAppModel</text>
</g>
<!-- \\AppModel&#45;&gt;\\NetCommonsAppModel -->
<g id="edge5" class="edge"><title>\\AppModel&#45;&gt;\\NetCommonsAppModel</title>
<path fill="none" stroke="black" d="M604.47,-2716C559.713,-2716 481.497,-2716 422.241,-2716"/>
<polygon fill="none" stroke="black" points="422.157,-2712.5 412.157,-2716 422.157,-2719.5 422.157,-2712.5"/>
</g>
<!-- \\DatabaseConfiguration -->
<g id="node4" class="node"><title>\\DatabaseConfiguration</title>
<polygon fill="none" stroke="black" points="1022,-2734 864,-2734 864,-2698 1022,-2698 1022,-2734"/>
<text text-anchor="middle" x="943" y="-2713.1" font-family="Courier,monospace" font-size="11.00">DatabaseConfiguration</text>
</g>
<!-- \\DatabaseConfiguration&#45;&gt;\\AppModel -->
<g id="edge7" class="edge"><title>\\DatabaseConfiguration&#45;&gt;\\AppModel</title>
<path fill="none" stroke="black" d="M863.786,-2716C807.22,-2716 733.093,-2716 685.991,-2716"/>
<polygon fill="none" stroke="black" points="685.787,-2712.5 675.787,-2716 685.787,-2719.5 685.787,-2712.5"/>
</g>
<!-- \\AppHelper -->
<g id="node5" class="node"><title>\\AppHelper</title>
<polygon fill="none" stroke="black" points="678,-1789 602,-1789 602,-1753 678,-1753 678,-1789"/>
<text text-anchor="middle" x="640" y="-1768.1" font-family="Courier,monospace" font-size="11.00">AppHelper</text>
</g>
<!-- \\Helper -->
<g id="node69" class="node"><title>\\Helper</title>
<ellipse fill="none" stroke="black" cx="343" cy="-342" rx="43.8406" ry="18.3848"/>
<text text-anchor="middle" x="343" y="-338.4" font-family="Times Roman,serif" font-size="14.00" fill="gray">Helper</text>
</g>
<!-- \\AppHelper&#45;&gt;\\Helper -->
<g id="edge9" class="edge"><title>\\AppHelper&#45;&gt;\\Helper</title>
<path fill="none" stroke="black" d="M633.172,-1752.76C612.353,-1696.28 549.433,-1518.82 522,-1366 502.278,-1256.14 523.59,-447.926 450,-364 436.797,-348.943 416.281,-342.564 396.732,-340.266"/>
<polygon fill="none" stroke="black" points="396.9,-336.768 386.641,-339.412 396.31,-343.743 396.9,-336.768"/>
</g>
<!-- \\NetCommonsDeleteTest -->
<g id="node6" class="node"><title>\\NetCommonsDeleteTest</title>
<polygon fill="none" stroke="black" points="1019,-2950 867,-2950 867,-2914 1019,-2914 1019,-2950"/>
<text text-anchor="middle" x="943" y="-2929.1" font-family="Courier,monospace" font-size="11.00">NetCommonsDeleteTest</text>
</g>
<!-- \\NetCommonsModelTestCase -->
<g id="node15" class="node"><title>\\NetCommonsModelTestCase</title>
<polygon fill="none" stroke="black" points="726,-2923 554,-2923 554,-2887 726,-2887 726,-2923"/>
<text text-anchor="middle" x="640" y="-2902.1" font-family="Courier,monospace" font-size="11.00">NetCommonsModelTestCase</text>
</g>
<!-- \\NetCommonsDeleteTest&#45;&gt;\\NetCommonsModelTestCase -->
<g id="edge11" class="edge"><title>\\NetCommonsDeleteTest&#45;&gt;\\NetCommonsModelTestCase</title>
<path fill="none" stroke="black" d="M866.931,-2925.22C827.251,-2921.69 778.302,-2917.32 736.036,-2913.56"/>
<polygon fill="none" stroke="black" points="736.278,-2910.07 726.007,-2912.66 735.657,-2917.04 736.278,-2910.07"/>
</g>
<!-- \\NetCommonsConsoleTestCase -->
<g id="node7" class="node"><title>\\NetCommonsConsoleTestCase</title>
<polygon fill="none" stroke="black" points="732,-2869 548,-2869 548,-2833 732,-2833 732,-2869"/>
<text text-anchor="middle" x="640" y="-2848.1" font-family="Courier,monospace" font-size="11.00">NetCommonsConsoleTestCase</text>
</g>
<!-- \\NetCommonsCakeTestCase -->
<g id="node13" class="node"><title>\\NetCommonsCakeTestCase</title>
<polygon fill="none" stroke="black" points="425,-2869 261,-2869 261,-2833 425,-2833 425,-2869"/>
<text text-anchor="middle" x="343" y="-2848.1" font-family="Courier,monospace" font-size="11.00">NetCommonsCakeTestCase</text>
</g>
<!-- \\NetCommonsConsoleTestCase&#45;&gt;\\NetCommonsCakeTestCase -->
<g id="edge13" class="edge"><title>\\NetCommonsConsoleTestCase&#45;&gt;\\NetCommonsCakeTestCase</title>
<path fill="none" stroke="black" d="M547.249,-2851C511.93,-2851 471.688,-2851 436.316,-2851"/>
<polygon fill="none" stroke="black" points="435.993,-2847.5 425.993,-2851 435.993,-2854.5 435.993,-2847.5"/>
</g>
<!-- \\NetCommonsGetTest -->
<g id="node8" class="node"><title>\\NetCommonsGetTest</title>
<polygon fill="none" stroke="black" points="1008,-2896 878,-2896 878,-2860 1008,-2860 1008,-2896"/>
<text text-anchor="middle" x="943" y="-2875.1" font-family="Courier,monospace" font-size="11.00">NetCommonsGetTest</text>
</g>
<!-- \\NetCommonsGetTest&#45;&gt;\\NetCommonsModelTestCase -->
<g id="edge15" class="edge"><title>\\NetCommonsGetTest&#45;&gt;\\NetCommonsModelTestCase</title>
<path fill="none" stroke="black" d="M877.254,-2883.86C835.985,-2887.54 782.059,-2892.34 736.049,-2896.44"/>
<polygon fill="none" stroke="black" points="735.707,-2892.96 726.057,-2897.33 736.328,-2899.93 735.707,-2892.96"/>
</g>
<!-- \\NetCommonsHelperTestCase -->
<g id="node9" class="node"><title>\\NetCommonsHelperTestCase</title>
<polygon fill="none" stroke="black" points="729,-2815 551,-2815 551,-2779 729,-2779 729,-2815"/>
<text text-anchor="middle" x="640" y="-2794.1" font-family="Courier,monospace" font-size="11.00">NetCommonsHelperTestCase</text>
</g>
<!-- \\NetCommonsHelperTestCase&#45;&gt;\\NetCommonsCakeTestCase -->
<g id="edge17" class="edge"><title>\\NetCommonsHelperTestCase&#45;&gt;\\NetCommonsCakeTestCase</title>
<path fill="none" stroke="black" d="M550.487,-2813.28C514.267,-2819.86 472.456,-2827.46 435.9,-2834.11"/>
<polygon fill="none" stroke="black" points="434.95,-2830.72 425.737,-2835.96 436.202,-2837.61 434.95,-2830.72"/>
</g>
<!-- \\NetCommonsControllerBaseTestCase -->
<g id="node10" class="node"><title>\\NetCommonsControllerBaseTestCase</title>
<polygon fill="none" stroke="black" points="756,-1357 524,-1357 524,-1321 756,-1321 756,-1357"/>
<text text-anchor="middle" x="640" y="-1336.1" font-family="Courier,monospace" font-size="11.00">NetCommonsControllerBaseTestCase</text>
</g>
<!-- \\ControllerTestCase -->
<g id="node75" class="node"><title>\\ControllerTestCase</title>
<ellipse fill="none" stroke="black" cx="343" cy="-288" rx="106.773" ry="18.3848"/>
<text text-anchor="middle" x="343" y="-284.4" font-family="Times Roman,serif" font-size="14.00" fill="gray">\ControllerTestCase</text>
</g>
<!-- \\NetCommonsControllerBaseTestCase&#45;&gt;\\ControllerTestCase -->
<g id="edge19" class="edge"><title>\\NetCommonsControllerBaseTestCase&#45;&gt;\\ControllerTestCase</title>
<path fill="none" stroke="black" d="M569.181,-1320.92C551.003,-1312.87 533.387,-1301.37 522,-1285 398.556,-1107.57 589.057,-480.479 450,-315 446.379,-310.691 442.181,-307.016 437.585,-303.886"/>
<polygon fill="none" stroke="black" points="439.32,-300.846 428.921,-298.82 435.787,-306.889 439.32,-300.846"/>
</g>
<!-- \\NetCommonsValidateTest -->
<g id="node11" class="node"><title>\\NetCommonsValidateTest</title>
<polygon fill="none" stroke="black" points="1025,-2842 861,-2842 861,-2806 1025,-2806 1025,-2842"/>
<text text-anchor="middle" x="943" y="-2821.1" font-family="Courier,monospace" font-size="11.00">NetCommonsValidateTest</text>
</g>
<!-- \\NetCommonsValidateTest&#45;&gt;\\NetCommonsModelTestCase -->
<g id="edge21" class="edge"><title>\\NetCommonsValidateTest&#45;&gt;\\NetCommonsModelTestCase</title>
<path fill="none" stroke="black" d="M862.114,-2842.03C851.261,-2844.83 840.32,-2847.85 830,-2851 797.317,-2860.99 790.731,-2868.17 758,-2878 750.57,-2880.23 742.83,-2882.38 735.023,-2884.43"/>
<polygon fill="none" stroke="black" points="733.938,-2881.09 725.116,-2886.96 735.671,-2887.87 733.938,-2881.09"/>
</g>
<!-- \\NetCommonsTestSuite -->
<g id="node12" class="node"><title>\\NetCommonsTestSuite</title>
<polygon fill="none" stroke="black" points="1015,-1222 871,-1222 871,-1186 1015,-1186 1015,-1222"/>
<text text-anchor="middle" x="943" y="-1201.1" font-family="Courier,monospace" font-size="11.00">NetCommonsTestSuite</text>
</g>
<!-- \\CakeTestSuite -->
<g id="node78" class="node"><title>\\CakeTestSuite</title>
<ellipse fill="none" stroke="black" cx="640" cy="-342" rx="84.1457" ry="18.3848"/>
<text text-anchor="middle" x="640" y="-338.4" font-family="Times Roman,serif" font-size="14.00" fill="gray">\CakeTestSuite</text>
</g>
<!-- \\NetCommonsTestSuite&#45;&gt;\\CakeTestSuite -->
<g id="edge23" class="edge"><title>\\NetCommonsTestSuite&#45;&gt;\\CakeTestSuite</title>
<path fill="none" stroke="black" d="M870.284,-1200.34C854.976,-1196.16 840.348,-1188.98 830,-1177 711.459,-1039.72 879.95,-498.256 758,-364 751.169,-356.48 742.661,-351.026 733.362,-347.125"/>
<polygon fill="none" stroke="black" points="734.427,-343.788 723.832,-343.721 732.072,-350.381 734.427,-343.788"/>
</g>
<!-- \\CakeTestCase -->
<g id="node80" class="node"><title>\\CakeTestCase</title>
<ellipse fill="none" stroke="black" cx="82" cy="-2851" rx="82.0244" ry="18.3848"/>
<text text-anchor="middle" x="82" y="-2847.4" font-family="Times Roman,serif" font-size="14.00" fill="gray">\CakeTestCase</text>
</g>
<!-- \\NetCommonsCakeTestCase&#45;&gt;\\CakeTestCase -->
<g id="edge25" class="edge"><title>\\NetCommonsCakeTestCase&#45;&gt;\\CakeTestCase</title>
<path fill="none" stroke="black" d="M260.418,-2851C233.018,-2851 202.345,-2851 174.263,-2851"/>
<polygon fill="none" stroke="black" points="174.045,-2847.5 164.045,-2851 174.045,-2854.5 174.045,-2847.5"/>
</g>
<!-- \\NetCommonsSaveTest -->
<g id="node14" class="node"><title>\\NetCommonsSaveTest</title>
<polygon fill="none" stroke="black" points="1012,-3004 874,-3004 874,-2968 1012,-2968 1012,-3004"/>
<text text-anchor="middle" x="943" y="-2983.1" font-family="Courier,monospace" font-size="11.00">NetCommonsSaveTest</text>
</g>
<!-- \\NetCommonsSaveTest&#45;&gt;\\NetCommonsModelTestCase -->
<g id="edge27" class="edge"><title>\\NetCommonsSaveTest&#45;&gt;\\NetCommonsModelTestCase</title>
<path fill="none" stroke="black" d="M873.863,-2969.97C859.345,-2966.47 844.148,-2962.7 830,-2959 790.424,-2948.65 746.478,-2936.22 710.826,-2925.9"/>
<polygon fill="none" stroke="black" points="711.58,-2922.47 701.001,-2923.05 709.628,-2929.2 711.58,-2922.47"/>
</g>
<!-- \\NetCommonsModelTestCase&#45;&gt;\\NetCommonsCakeTestCase -->
<g id="edge29" class="edge"><title>\\NetCommonsModelTestCase&#45;&gt;\\NetCommonsCakeTestCase</title>
<path fill="none" stroke="black" d="M553.696,-2889.31C516.671,-2882.58 473.35,-2874.7 435.65,-2867.85"/>
<polygon fill="none" stroke="black" points="436.151,-2864.38 425.686,-2866.03 434.899,-2871.27 436.151,-2864.38"/>
</g>
<!-- \\NetCommonsControllerTestCase -->
<g id="node16" class="node"><title>\\NetCommonsControllerTestCase</title>
<polygon fill="none" stroke="black" points="1046,-1384 840,-1384 840,-1348 1046,-1348 1046,-1384"/>
<text text-anchor="middle" x="943" y="-1363.1" font-family="Courier,monospace" font-size="11.00">NetCommonsControllerTestCase</text>
</g>
<!-- \\NetCommonsControllerTestCase&#45;&gt;\\NetCommonsControllerBaseTestCase -->
<g id="edge31" class="edge"><title>\\NetCommonsControllerTestCase&#45;&gt;\\NetCommonsControllerBaseTestCase</title>
<path fill="none" stroke="black" d="M839.995,-1356.82C816.397,-1354.72 791.044,-1352.46 766.582,-1350.28"/>
<polygon fill="none" stroke="black" points="766.8,-1346.79 756.529,-1349.38 766.178,-1353.76 766.8,-1346.79"/>
</g>
<!-- \\NetCommonsAppController -->
<g id="node17" class="node"><title>\\NetCommonsAppController</title>
<polygon fill="none" stroke="black" points="726,-1276 554,-1276 554,-1240 726,-1240 726,-1276"/>
<text text-anchor="middle" x="640" y="-1255.1" font-family="Courier,monospace" font-size="11.00">NetCommonsAppController</text>
</g>
<!-- \\NetCommonsAppController&#45;&gt;\\Controller -->
<g id="edge33" class="edge"><title>\\NetCommonsAppController&#45;&gt;\\Controller</title>
<path fill="none" stroke="black" d="M553.96,-1255.74C541.798,-1251.78 530.548,-1245.55 522,-1236 377.103,-1074.12 609.18,-408.859 450,-261 380.314,-196.27 307.726,-198.538 236,-261 151.47,-334.612 94.3308,-1175.22 83.7691,-1342.25"/>
<polygon fill="none" stroke="black" points="80.248,-1342.48 83.1151,-1352.68 87.2342,-1342.92 80.248,-1342.48"/>
</g>
<!-- \\AssetComponent -->
<g id="node18" class="node"><title>\\AssetComponent</title>
<polygon fill="none" stroke="black" points="998,-898 888,-898 888,-862 998,-862 998,-898"/>
<text text-anchor="middle" x="943" y="-877.1" font-family="Courier,monospace" font-size="11.00">AssetComponent</text>
</g>
<!-- \\Component -->
<g id="node86" class="node"><title>\\Component</title>
<ellipse fill="none" stroke="black" cx="640" cy="-288" rx="70.9184" ry="18.3848"/>
<text text-anchor="middle" x="640" y="-284.4" font-family="Times Roman,serif" font-size="14.00" fill="gray">\Component</text>
</g>
<!-- \\AssetComponent&#45;&gt;\\Component -->
<g id="edge35" class="edge"><title>\\AssetComponent&#45;&gt;\\Component</title>
<path fill="none" stroke="black" d="M887.423,-879.484C866.581,-876.36 844.467,-869.015 830,-853 668.289,-673.982 920.569,-493.24 758,-315 748.162,-304.213 734.974,-297.293 720.979,-292.934"/>
<polygon fill="none" stroke="black" points="721.757,-289.519 711.192,-290.31 719.944,-296.281 721.757,-289.519"/>
</g>
<!-- \\AccessCtrlComponent -->
<g id="node19" class="node"><title>\\AccessCtrlComponent</title>
<polygon fill="none" stroke="black" points="1015,-1168 871,-1168 871,-1132 1015,-1132 1015,-1168"/>
<text text-anchor="middle" x="943" y="-1147.1" font-family="Courier,monospace" font-size="11.00">AccessCtrlComponent</text>
</g>
<!-- \\AccessCtrlComponent&#45;&gt;\\Component -->
<g id="edge37" class="edge"><title>\\AccessCtrlComponent&#45;&gt;\\Component</title>
<path fill="none" stroke="black" d="M870.289,-1146.34C854.98,-1142.15 840.352,-1134.98 830,-1123 712.146,-986.594 876.508,-450.839 758,-315 748.346,-303.935 735.171,-296.898 721.117,-292.516"/>
<polygon fill="none" stroke="black" points="721.843,-289.087 711.278,-289.889 720.037,-295.85 721.843,-289.087"/>
</g>
<!-- \\NetCommonsTimeComponent -->
<g id="node20" class="node"><title>\\NetCommonsTimeComponent</title>
<polygon fill="none" stroke="black" points="1029,-1114 857,-1114 857,-1078 1029,-1078 1029,-1114"/>
<text text-anchor="middle" x="943" y="-1093.1" font-family="Courier,monospace" font-size="11.00">NetCommonsTimeComponent</text>
</g>
<!-- \\NetCommonsTimeComponent&#45;&gt;\\Component -->
<g id="edge39" class="edge"><title>\\NetCommonsTimeComponent&#45;&gt;\\Component</title>
<path fill="none" stroke="black" d="M856.869,-1087.69C846.647,-1083.39 837.279,-1077.37 830,-1069 719.555,-941.985 869.053,-441.484 758,-315 748.311,-303.965 735.121,-296.943 721.061,-292.564"/>
<polygon fill="none" stroke="black" points="721.786,-289.135 711.222,-289.939 719.981,-295.899 721.786,-289.135"/>
</g>
<!-- \\PermissionComponent -->
<g id="node21" class="node"><title>\\PermissionComponent</title>
<polygon fill="none" stroke="black" points="1015,-1060 871,-1060 871,-1024 1015,-1024 1015,-1060"/>
<text text-anchor="middle" x="943" y="-1039.1" font-family="Courier,monospace" font-size="11.00">PermissionComponent</text>
</g>
<!-- \\PermissionComponent&#45;&gt;\\Component -->
<g id="edge41" class="edge"><title>\\PermissionComponent&#45;&gt;\\Component</title>
<path fill="none" stroke="black" d="M870.406,-1038.24C855.093,-1034.06 840.433,-1026.91 830,-1015 623.923,-779.742 965.204,-549.266 758,-315 748.271,-304.001 735.062,-296.994 720.998,-292.62"/>
<polygon fill="none" stroke="black" points="721.72,-289.191 711.156,-289.996 719.917,-295.955 721.72,-289.191"/>
</g>
<!-- \\NetCommonsComponent -->
<g id="node22" class="node"><title>\\NetCommonsComponent</title>
<polygon fill="none" stroke="black" points="1015,-1006 871,-1006 871,-970 1015,-970 1015,-1006"/>
<text text-anchor="middle" x="943" y="-985.1" font-family="Courier,monospace" font-size="11.00">NetCommonsComponent</text>
</g>
<!-- \\NetCommonsComponent&#45;&gt;\\Component -->
<g id="edge43" class="edge"><title>\\NetCommonsComponent&#45;&gt;\\Component</title>
<path fill="none" stroke="black" d="M870.479,-984.173C855.163,-979.993 840.484,-972.866 830,-961 638.725,-744.504 950.312,-530.576 758,-315 748.225,-304.042 734.994,-297.054 720.924,-292.686"/>
<polygon fill="none" stroke="black" points="721.644,-289.256 711.08,-290.064 719.842,-296.02 721.644,-289.256"/>
</g>
<!-- \\SiteCloseController -->
<g id="node23" class="node"><title>\\SiteCloseController</title>
<polygon fill="none" stroke="black" points="1015,-1330 871,-1330 871,-1294 1015,-1294 1015,-1330"/>
<text text-anchor="middle" x="943" y="-1309.1" font-family="Courier,monospace" font-size="11.00">SiteCloseController</text>
</g>
<!-- \\SiteCloseController&#45;&gt;\\NetCommonsAppController -->
<g id="edge45" class="edge"><title>\\SiteCloseController&#45;&gt;\\NetCommonsAppController</title>
<path fill="none" stroke="black" d="M870.424,-1299.07C830.224,-1291.9 779.737,-1282.9 736.275,-1275.16"/>
<polygon fill="none" stroke="black" points="736.714,-1271.68 726.255,-1273.37 735.486,-1278.57 736.714,-1271.68"/>
</g>
<!-- \\NetCommonsController -->
<g id="node24" class="node"><title>\\NetCommonsController</title>
<polygon fill="none" stroke="black" points="1019,-1276 867,-1276 867,-1240 1019,-1240 1019,-1276"/>
<text text-anchor="middle" x="943" y="-1255.1" font-family="Courier,monospace" font-size="11.00">NetCommonsController</text>
</g>
<!-- \\NetCommonsController&#45;&gt;\\NetCommonsAppController -->
<g id="edge47" class="edge"><title>\\NetCommonsController&#45;&gt;\\NetCommonsAppController</title>
<path fill="none" stroke="black" d="M866.931,-1258C827.251,-1258 778.302,-1258 736.036,-1258"/>
<polygon fill="none" stroke="black" points="736.007,-1254.5 726.007,-1258 736.007,-1261.5 736.007,-1254.5"/>
</g>
<!-- \\NetCommonsUrl -->
<g id="node25" class="node"><title>\\NetCommonsUrl</title>
<polygon fill="none" stroke="black" points="995,-2248 891,-2248 891,-2212 995,-2212 995,-2248"/>
<text text-anchor="middle" x="943" y="-2227.1" font-family="Courier,monospace" font-size="11.00">NetCommonsUrl</text>
</g>
<!-- \\NetCommonsTime -->
<g id="node26" class="node"><title>\\NetCommonsTime</title>
<polygon fill="none" stroke="black" points="998,-2194 888,-2194 888,-2158 998,-2158 998,-2194"/>
<text text-anchor="middle" x="943" y="-2173.1" font-family="Courier,monospace" font-size="11.00">NetCommonsTime</text>
</g>
<!-- \\CurrentBase -->
<g id="node27" class="node"><title>\\CurrentBase</title>
<polygon fill="none" stroke="black" points="685,-2518 595,-2518 595,-2482 685,-2482 685,-2518"/>
<text text-anchor="middle" x="640" y="-2497.1" font-family="Courier,monospace" font-size="11.00">CurrentBase</text>
</g>
<!-- \\Current -->
<g id="node28" class="node"><title>\\Current</title>
<polygon fill="none" stroke="black" points="975,-2518 911,-2518 911,-2482 975,-2482 975,-2518"/>
<text text-anchor="middle" x="943" y="-2497.1" font-family="Courier,monospace" font-size="11.00">Current</text>
</g>
<!-- \\Current&#45;&gt;\\CurrentBase -->
<g id="edge49" class="edge"><title>\\Current&#45;&gt;\\CurrentBase</title>
<path fill="none" stroke="black" d="M910.861,-2500C859.643,-2500 758.861,-2500 695.715,-2500"/>
<polygon fill="none" stroke="black" points="695.534,-2496.5 685.534,-2500 695.534,-2503.5 695.534,-2496.5"/>
</g>
<!-- \\CurrentSystem -->
<g id="node29" class="node"><title>\\CurrentSystem</title>
<polygon fill="none" stroke="black" points="995,-2086 891,-2086 891,-2050 995,-2050 995,-2086"/>
<text text-anchor="middle" x="943" y="-2065.1" font-family="Courier,monospace" font-size="11.00">CurrentSystem</text>
</g>
<!-- \\CurrentPage -->
<g id="node30" class="node"><title>\\CurrentPage</title>
<polygon fill="none" stroke="black" points="988,-2032 898,-2032 898,-1996 988,-1996 988,-2032"/>
<text text-anchor="middle" x="943" y="-2011.1" font-family="Courier,monospace" font-size="11.00">CurrentPage</text>
</g>
<!-- \\CurrentFrame -->
<g id="node31" class="node"><title>\\CurrentFrame</title>
<polygon fill="none" stroke="black" points="992,-1978 894,-1978 894,-1942 992,-1942 992,-1978"/>
<text text-anchor="middle" x="943" y="-1957.1" font-family="Courier,monospace" font-size="11.00">CurrentFrame</text>
</g>
<!-- \\TokenHelper -->
<g id="node32" class="node"><title>\\TokenHelper</title>
<polygon fill="none" stroke="black" points="988,-790 898,-790 898,-754 988,-754 988,-790"/>
<text text-anchor="middle" x="943" y="-769.1" font-family="Courier,monospace" font-size="11.00">TokenHelper</text>
</g>
<!-- \\FormHelper -->
<g id="node95" class="node"><title>\\FormHelper</title>
<ellipse fill="none" stroke="black" cx="640" cy="-234" rx="70.9184" ry="18.3848"/>
<text text-anchor="middle" x="640" y="-230.4" font-family="Times Roman,serif" font-size="14.00" fill="gray">\FormHelper</text>
</g>
<!-- \\TokenHelper&#45;&gt;\\FormHelper -->
<g id="edge51" class="edge"><title>\\TokenHelper&#45;&gt;\\FormHelper</title>
<path fill="none" stroke="black" d="M897.333,-772.573C873.941,-770.348 846.901,-763.437 830,-745 683.042,-584.688 905.726,-420.605 758,-261 748.083,-250.286 734.859,-243.398 720.853,-239.049"/>
<polygon fill="none" stroke="black" points="721.628,-235.634 711.063,-236.429 719.818,-242.396 721.628,-235.634"/>
</g>
<!-- \\SingletonViewBlockHtmlHelper -->
<g id="node33" class="node"><title>\\SingletonViewBlockHtmlHelper</title>
<polygon fill="none" stroke="black" points="1046,-682 840,-682 840,-646 1046,-646 1046,-682"/>
<text text-anchor="middle" x="943" y="-661.1" font-family="Courier,monospace" font-size="11.00">SingletonViewBlockHtmlHelper</text>
</g>
<!-- \\HtmlHelper -->
<g id="node97" class="node"><title>\\HtmlHelper</title>
<ellipse fill="none" stroke="black" cx="640" cy="-180" rx="67.1751" ry="18.3848"/>
<text text-anchor="middle" x="640" y="-176.4" font-family="Times Roman,serif" font-size="14.00" fill="gray">HtmlHelper</text>
</g>
<!-- \\SingletonViewBlockHtmlHelper&#45;&gt;\\HtmlHelper -->
<g id="edge53" class="edge"><title>\\SingletonViewBlockHtmlHelper&#45;&gt;\\HtmlHelper</title>
<path fill="none" stroke="black" d="M839.951,-645.694C836.371,-643.129 833.028,-640.244 830,-637 697.765,-495.362 890.914,-348.002 758,-207 747.121,-195.459 732.401,-188.376 717.051,-184.126"/>
<polygon fill="none" stroke="black" points="717.444,-180.622 706.906,-181.723 715.83,-187.434 717.444,-180.622"/>
</g>
<!-- \\FormInputHelper -->
<g id="node34" class="node"><title>\\FormInputHelper</title>
<polygon fill="none" stroke="black" points="1002,-2464 884,-2464 884,-2428 1002,-2428 1002,-2464"/>
<text text-anchor="middle" x="943" y="-2443.1" font-family="Courier,monospace" font-size="11.00">FormInputHelper</text>
</g>
<!-- \\FormInputHelper&#45;&gt;\\AppHelper -->
<g id="edge55" class="edge"><title>\\FormInputHelper&#45;&gt;\\AppHelper</title>
<path fill="none" stroke="black" d="M883.879,-2443.95C864.45,-2440.4 844.215,-2433.17 830,-2419 733.8,-2323.12 795.676,-2252.49 758,-2122 722.84,-2000.22 671.846,-1857.82 650.263,-1798.8"/>
<polygon fill="none" stroke="black" points="653.432,-1797.28 646.703,-1789.1 646.86,-1799.69 653.432,-1797.28"/>
</g>
<!-- \\WizardHelper -->
<g id="node35" class="node"><title>\\WizardHelper</title>
<polygon fill="none" stroke="black" points="992,-2410 894,-2410 894,-2374 992,-2374 992,-2410"/>
<text text-anchor="middle" x="943" y="-2389.1" font-family="Courier,monospace" font-size="11.00">WizardHelper</text>
</g>
<!-- \\WizardHelper&#45;&gt;\\AppHelper -->
<g id="edge57" class="edge"><title>\\WizardHelper&#45;&gt;\\AppHelper</title>
<path fill="none" stroke="black" d="M893.814,-2391.05C871.775,-2388.15 846.981,-2381.1 830,-2365 748.248,-2287.51 791.953,-2229.4 758,-2122 719.794,-2001.14 670.446,-1858.25 649.78,-1798.95"/>
<polygon fill="none" stroke="black" points="652.975,-1797.48 646.376,-1789.19 646.366,-1799.79 652.975,-1797.48"/>
</g>
<!-- \\DisplayNumberHelper -->
<g id="node36" class="node"><title>\\DisplayNumberHelper</title>
<polygon fill="none" stroke="black" points="1015,-2356 871,-2356 871,-2320 1015,-2320 1015,-2356"/>
<text text-anchor="middle" x="943" y="-2335.1" font-family="Courier,monospace" font-size="11.00">DisplayNumberHelper</text>
</g>
<!-- \\DisplayNumberHelper&#45;&gt;\\AppHelper -->
<g id="edge59" class="edge"><title>\\DisplayNumberHelper&#45;&gt;\\AppHelper</title>
<path fill="none" stroke="black" d="M870.266,-2331.78C855.589,-2327.64 841.237,-2321.13 830,-2311 819.831,-2301.84 686.352,-1908.23 649.416,-1798.91"/>
<polygon fill="none" stroke="black" points="652.666,-1797.59 646.15,-1789.24 646.034,-1799.83 652.666,-1797.59"/>
</g>
<!-- \\MessageFlashHelper -->
<g id="node37" class="node"><title>\\MessageFlashHelper</title>
<polygon fill="none" stroke="black" points="1012,-2302 874,-2302 874,-2266 1012,-2266 1012,-2302"/>
<text text-anchor="middle" x="943" y="-2281.1" font-family="Courier,monospace" font-size="11.00">MessageFlashHelper</text>
</g>
<!-- \\MessageFlashHelper&#45;&gt;\\AppHelper -->
<g id="edge61" class="edge"><title>\\MessageFlashHelper&#45;&gt;\\AppHelper</title>
<path fill="none" stroke="black" d="M873.76,-2278.36C857.964,-2274.29 842.246,-2267.66 830,-2257 792.879,-2224.68 681.871,-1897.03 649.164,-1798.73"/>
<polygon fill="none" stroke="black" points="652.466,-1797.57 645.993,-1789.18 645.822,-1799.78 652.466,-1797.57"/>
</g>
<!-- \\DateHelper -->
<g id="node38" class="node"><title>\\DateHelper</title>
<polygon fill="none" stroke="black" points="985,-2140 901,-2140 901,-2104 985,-2104 985,-2140"/>
<text text-anchor="middle" x="943" y="-2119.1" font-family="Courier,monospace" font-size="11.00">DateHelper</text>
</g>
<!-- \\DateHelper&#45;&gt;\\AppHelper -->
<g id="edge63" class="edge"><title>\\DateHelper&#45;&gt;\\AppHelper</title>
<path fill="none" stroke="black" d="M900.976,-2119.89C878.116,-2116.9 850.423,-2110.13 830,-2095 724.767,-2017.06 667.715,-1862.02 648.009,-1798.81"/>
<polygon fill="none" stroke="black" points="651.325,-1797.68 645.064,-1789.13 644.628,-1799.72 651.325,-1797.68"/>
</g>
<!-- \\SnsButtonHelper -->
<g id="node39" class="node"><title>\\SnsButtonHelper</title>
<polygon fill="none" stroke="black" points="1002,-1924 884,-1924 884,-1888 1002,-1888 1002,-1924"/>
<text text-anchor="middle" x="943" y="-1903.1" font-family="Courier,monospace" font-size="11.00">SnsButtonHelper</text>
</g>
<!-- \\SnsButtonHelper&#45;&gt;\\AppHelper -->
<g id="edge65" class="edge"><title>\\SnsButtonHelper&#45;&gt;\\AppHelper</title>
<path fill="none" stroke="black" d="M883.964,-1895.2C866.289,-1891.09 847.075,-1885.74 830,-1879 772.653,-1856.38 711.566,-1818.97 674.586,-1794.65"/>
<polygon fill="none" stroke="black" points="676.439,-1791.68 666.171,-1789.07 672.57,-1797.52 676.439,-1791.68"/>
</g>
<!-- \\BackToHelper -->
<g id="node40" class="node"><title>\\BackToHelper</title>
<polygon fill="none" stroke="black" points="992,-1870 894,-1870 894,-1834 992,-1834 992,-1870"/>
<text text-anchor="middle" x="943" y="-1849.1" font-family="Courier,monospace" font-size="11.00">BackToHelper</text>
</g>
<!-- \\BackToHelper&#45;&gt;\\AppHelper -->
<g id="edge67" class="edge"><title>\\BackToHelper&#45;&gt;\\AppHelper</title>
<path fill="none" stroke="black" d="M893.941,-1840.76C874.047,-1836.07 850.88,-1830.46 830,-1825 781.728,-1812.38 726.952,-1796.66 688.659,-1785.44"/>
<polygon fill="none" stroke="black" points="689.385,-1782.01 678.804,-1782.55 687.413,-1788.73 689.385,-1782.01"/>
</g>
<!-- \\NetCommonsHtmlHelper -->
<g id="node41" class="node"><title>\\NetCommonsHtmlHelper</title>
<polygon fill="none" stroke="black" points="1019,-1816 867,-1816 867,-1780 1019,-1780 1019,-1816"/>
<text text-anchor="middle" x="943" y="-1795.1" font-family="Courier,monospace" font-size="11.00">NetCommonsHtmlHelper</text>
</g>
<!-- \\NetCommonsHtmlHelper&#45;&gt;\\AppHelper -->
<g id="edge69" class="edge"><title>\\NetCommonsHtmlHelper&#45;&gt;\\AppHelper</title>
<path fill="none" stroke="black" d="M866.931,-1791.22C811.077,-1786.24 736.857,-1779.63 688.76,-1775.34"/>
<polygon fill="none" stroke="black" points="688.883,-1771.84 678.612,-1774.44 688.262,-1778.81 688.883,-1771.84"/>
</g>
<!-- \\ButtonHelper -->
<g id="node42" class="node"><title>\\ButtonHelper</title>
<polygon fill="none" stroke="black" points="992,-736 894,-736 894,-700 992,-700 992,-736"/>
<text text-anchor="middle" x="943" y="-715.1" font-family="Courier,monospace" font-size="11.00">ButtonHelper</text>
</g>
<!-- \\ButtonHelper&#45;&gt;\\FormHelper -->
<g id="edge71" class="edge"><title>\\ButtonHelper&#45;&gt;\\FormHelper</title>
<path fill="none" stroke="black" d="M893.765,-718.054C871.306,-715.433 846.174,-708.324 830,-691 697.765,-549.362 890.914,-402.002 758,-261 747.986,-250.377 734.718,-243.531 720.698,-239.194"/>
<polygon fill="none" stroke="black" points="721.468,-235.777 710.904,-236.577 719.661,-242.54 721.468,-235.777"/>
</g>
<!-- \\ComposerHelper -->
<g id="node43" class="node"><title>\\ComposerHelper</title>
<polygon fill="none" stroke="black" points="998,-1762 888,-1762 888,-1726 998,-1726 998,-1762"/>
<text text-anchor="middle" x="943" y="-1741.1" font-family="Courier,monospace" font-size="11.00">ComposerHelper</text>
</g>
<!-- \\ComposerHelper&#45;&gt;\\AppHelper -->
<g id="edge73" class="edge"><title>\\ComposerHelper&#45;&gt;\\AppHelper</title>
<path fill="none" stroke="black" d="M887.425,-1748.95C830.607,-1754.02 743.21,-1761.8 688.931,-1766.64"/>
<polygon fill="none" stroke="black" points="688.516,-1763.16 678.866,-1767.54 689.137,-1770.14 688.516,-1763.16"/>
</g>
<!-- \\LinkButtonHelper -->
<g id="node44" class="node"><title>\\LinkButtonHelper</title>
<polygon fill="none" stroke="black" points="1005,-844 881,-844 881,-808 1005,-808 1005,-844"/>
<text text-anchor="middle" x="943" y="-823.1" font-family="Courier,monospace" font-size="11.00">LinkButtonHelper</text>
</g>
<!-- \\LinkButtonHelper&#45;&gt;\\FormHelper -->
<g id="edge75" class="edge"><title>\\LinkButtonHelper&#45;&gt;\\FormHelper</title>
<path fill="none" stroke="black" d="M880.376,-824.267C861.717,-820.603 842.845,-813.219 830,-799 668.289,-619.982 920.569,-439.24 758,-261 748.162,-250.213 734.974,-243.293 720.979,-238.934"/>
<polygon fill="none" stroke="black" points="721.757,-235.519 711.192,-236.31 719.944,-242.281 721.757,-235.519"/>
</g>
<!-- \\TableListHelper -->
<g id="node45" class="node"><title>\\TableListHelper</title>
<polygon fill="none" stroke="black" points="1002,-1708 884,-1708 884,-1672 1002,-1672 1002,-1708"/>
<text text-anchor="middle" x="943" y="-1687.1" font-family="Courier,monospace" font-size="11.00">TableListHelper</text>
</g>
<!-- \\TableListHelper&#45;&gt;\\AppHelper -->
<g id="edge77" class="edge"><title>\\TableListHelper&#45;&gt;\\AppHelper</title>
<path fill="none" stroke="black" d="M883.941,-1703.61C866.53,-1707.76 847.465,-1712.43 830,-1717 781.728,-1729.62 726.952,-1745.34 688.659,-1756.56"/>
<polygon fill="none" stroke="black" points="687.413,-1753.27 678.804,-1759.45 689.385,-1759.99 687.413,-1753.27"/>
</g>
<!-- \\NetCommonsTimeHelper -->
<g id="node46" class="node"><title>\\NetCommonsTimeHelper</title>
<polygon fill="none" stroke="black" points="1019,-1654 867,-1654 867,-1618 1019,-1618 1019,-1654"/>
<text text-anchor="middle" x="943" y="-1633.1" font-family="Courier,monospace" font-size="11.00">NetCommonsTimeHelper</text>
</g>
<!-- \\NetCommonsTimeHelper&#45;&gt;\\AppHelper -->
<g id="edge79" class="edge"><title>\\NetCommonsTimeHelper&#45;&gt;\\AppHelper</title>
<path fill="none" stroke="black" d="M866.716,-1651.11C854.26,-1654.46 841.633,-1658.41 830,-1663 772.653,-1685.62 711.566,-1723.03 674.586,-1747.35"/>
<polygon fill="none" stroke="black" points="672.57,-1744.48 666.171,-1752.93 676.439,-1750.32 672.57,-1744.48"/>
</g>
<!-- \\NetCommonsFormHelper -->
<g id="node47" class="node"><title>\\NetCommonsFormHelper</title>
<polygon fill="none" stroke="black" points="1019,-1600 867,-1600 867,-1564 1019,-1564 1019,-1600"/>
<text text-anchor="middle" x="943" y="-1579.1" font-family="Courier,monospace" font-size="11.00">NetCommonsFormHelper</text>
</g>
<!-- \\NetCommonsFormHelper&#45;&gt;\\AppHelper -->
<g id="edge81" class="edge"><title>\\NetCommonsFormHelper&#45;&gt;\\AppHelper</title>
<path fill="none" stroke="black" d="M866.776,-1595C854.124,-1598.61 841.418,-1603.2 830,-1609 761.023,-1644.06 695.862,-1708.99 662.731,-1745.09"/>
<polygon fill="none" stroke="black" points="659.901,-1743 655.776,-1752.76 665.086,-1747.7 659.901,-1743"/>
</g>
<!-- \\TitleIconHelper -->
<g id="node48" class="node"><title>\\TitleIconHelper</title>
<polygon fill="none" stroke="black" points="1002,-1546 884,-1546 884,-1510 1002,-1510 1002,-1546"/>
<text text-anchor="middle" x="943" y="-1525.1" font-family="Courier,monospace" font-size="11.00">TitleIconHelper</text>
</g>
<!-- \\TitleIconHelper&#45;&gt;\\AppHelper -->
<g id="edge83" class="edge"><title>\\TitleIconHelper&#45;&gt;\\AppHelper</title>
<path fill="none" stroke="black" d="M883.74,-1535.07C865.585,-1539.05 846.157,-1545.27 830,-1555 749.173,-1603.66 684.174,-1698.12 655.656,-1744.29"/>
<polygon fill="none" stroke="black" points="652.654,-1742.5 650.445,-1752.86 658.634,-1746.13 652.654,-1742.5"/>
</g>
<!-- \\DatetimePickerHelper -->
<g id="node49" class="node"><title>\\DatetimePickerHelper</title>
<polygon fill="none" stroke="black" points="1019,-1492 867,-1492 867,-1456 1019,-1456 1019,-1492"/>
<text text-anchor="middle" x="943" y="-1471.1" font-family="Courier,monospace" font-size="11.00">DatetimePickerHelper</text>
</g>
<!-- \\DatetimePickerHelper&#45;&gt;\\AppHelper -->
<g id="edge85" class="edge"><title>\\DatetimePickerHelper&#45;&gt;\\AppHelper</title>
<path fill="none" stroke="black" d="M866.865,-1484.19C853.864,-1488.11 841.017,-1493.53 830,-1501 737.342,-1563.86 675.463,-1688 651.34,-1743.29"/>
<polygon fill="none" stroke="black" points="647.994,-1742.22 647.277,-1752.79 654.429,-1744.97 647.994,-1742.22"/>
</g>
<!-- \\Model -->
<g id="node115" class="node"><title>\\Model</title>
<ellipse fill="none" stroke="black" cx="82" cy="-2716" rx="43.8406" ry="18.3848"/>
<text text-anchor="middle" x="82" y="-2712.4" font-family="Times Roman,serif" font-size="14.00" fill="gray">\Model</text>
</g>
<!-- \\NetCommonsAppModel&#45;&gt;\\Model -->
<g id="edge87" class="edge"><title>\\NetCommonsAppModel&#45;&gt;\\Model</title>
<path fill="none" stroke="black" d="M273.742,-2716C230.675,-2716 176.099,-2716 136.195,-2716"/>
<polygon fill="none" stroke="black" points="136.125,-2712.5 126.125,-2716 136.125,-2719.5 136.125,-2712.5"/>
</g>
<!-- \\OriginalKeyBehavior -->
<g id="node51" class="node"><title>\\OriginalKeyBehavior</title>
<polygon fill="none" stroke="black" points="1015,-574 871,-574 871,-538 1015,-538 1015,-574"/>
<text text-anchor="middle" x="943" y="-553.1" font-family="Courier,monospace" font-size="11.00">OriginalKeyBehavior</text>
</g>
<!-- \\ModelBehavior -->
<g id="node117" class="node"><title>\\ModelBehavior</title>
<ellipse fill="none" stroke="black" cx="640" cy="-126" rx="86.9741" ry="18.3848"/>
<text text-anchor="middle" x="640" y="-122.4" font-family="Times Roman,serif" font-size="14.00" fill="gray">\ModelBehavior</text>
</g>
<!-- \\OriginalKeyBehavior&#45;&gt;\\ModelBehavior -->
<g id="edge89" class="edge"><title>\\OriginalKeyBehavior&#45;&gt;\\ModelBehavior</title>
<path fill="none" stroke="black" d="M870.258,-551.327C855.229,-547.145 840.73,-540.228 830,-529 712.446,-405.991 876.143,-275.443 758,-153 750.646,-145.379 741.615,-139.712 731.852,-135.525"/>
<polygon fill="none" stroke="black" points="732.89,-132.176 722.298,-131.949 730.436,-138.732 732.89,-132.176"/>
</g>
<!-- \\TrackableBehavior -->
<g id="node52" class="node"><title>\\TrackableBehavior</title>
<polygon fill="none" stroke="black" points="1008,-520 878,-520 878,-484 1008,-484 1008,-520"/>
<text text-anchor="middle" x="943" y="-499.1" font-family="Courier,monospace" font-size="11.00">TrackableBehavior</text>
</g>
<!-- \\TrackableBehavior&#45;&gt;\\ModelBehavior -->
<g id="edge91" class="edge"><title>\\TrackableBehavior&#45;&gt;\\ModelBehavior</title>
<path fill="none" stroke="black" d="M877.27,-498.778C859.902,-494.864 842.53,-487.714 830,-475 727.064,-370.554 861.436,-256.95 758,-153 750.53,-145.493 741.428,-139.895 731.627,-135.745"/>
<polygon fill="none" stroke="black" points="732.638,-132.388 722.045,-132.196 730.207,-138.952 732.638,-132.388"/>
</g>
<!-- \\YAExceptionRenderer -->
<g id="node53" class="node"><title>\\YAExceptionRenderer</title>
<polygon fill="none" stroke="black" points="1015,-466 871,-466 871,-430 1015,-430 1015,-466"/>
<text text-anchor="middle" x="943" y="-445.1" font-family="Courier,monospace" font-size="11.00">YAExceptionRenderer</text>
</g>
<!-- \\ExceptionRenderer -->
<g id="node120" class="node"><title>\\ExceptionRenderer</title>
<ellipse fill="none" stroke="black" cx="640" cy="-72" rx="118.087" ry="18.3848"/>
<text text-anchor="middle" x="640" y="-68.4" font-family="Times Roman,serif" font-size="14.00" fill="gray">TEHxceptionRenderer</text>
</g>
<!-- \\YAExceptionRenderer&#45;&gt;\\ExceptionRenderer -->
<g id="edge93" class="edge"><title>\\YAExceptionRenderer&#45;&gt;\\ExceptionRenderer</title>
<path fill="none" stroke="black" d="M870.216,-443.002C855.28,-438.823 840.831,-431.99 830,-421 727.064,-316.554 861.436,-202.95 758,-99 753.632,-94.61 748.706,-90.873 743.408,-87.6967"/>
<polygon fill="none" stroke="black" points="744.657,-84.4002 734.174,-82.8643 741.411,-90.6022 744.657,-84.4002"/>
</g>
<!-- \\NetCommonsMigration -->
<g id="node54" class="node"><title>\\NetCommonsMigration</title>
<polygon fill="none" stroke="black" points="1015,-412 871,-412 871,-376 1015,-376 1015,-412"/>
<text text-anchor="middle" x="943" y="-391.1" font-family="Courier,monospace" font-size="11.00">NetCommonsMigration</text>
</g>
<!-- \\CakeMigration -->
<g id="node122" class="node"><title>\\CakeMigration</title>
<ellipse fill="none" stroke="black" cx="640" cy="-18" rx="84.8528" ry="18.3848"/>
<text text-anchor="middle" x="640" y="-14.4" font-family="Times Roman,serif" font-size="14.00" fill="gray">\CakeMigration</text>
</g>
<!-- \\NetCommonsMigration&#45;&gt;\\CakeMigration -->
<g id="edge95" class="edge"><title>\\NetCommonsMigration&#45;&gt;\\CakeMigration</title>
<path fill="none" stroke="black" d="M939.003,-375.703C925.25,-317.32 874.186,-134.09 758,-45 748.842,-37.9777 738.183,-32.7258 727.089,-28.8077"/>
<polygon fill="none" stroke="black" points="727.844,-25.3757 717.254,-25.697 725.733,-32.0498 727.844,-25.3757"/>
</g>
<!-- \\ThemeSettingsAppController -->
<g id="node55" class="node"><title>\\ThemeSettingsAppController</title>
<polygon fill="none" stroke="black" points="736,-2572 544,-2572 544,-2536 736,-2536 736,-2572"/>
<text text-anchor="middle" x="640" y="-2551.1" font-family="Courier,monospace" font-size="11.00">ThemeSettingsAppController</text>
</g>
<!-- \\ThemeSettingsAppController&#45;&gt;\\AppController -->
<g id="edge97" class="edge"><title>\\ThemeSettingsAppController&#45;&gt;\\AppController</title>
<path fill="none" stroke="black" d="M543.739,-2540.02C535.94,-2536.54 528.554,-2532.26 522,-2527 405.964,-2433.79 360.988,-2247.51 347.669,-2176.95"/>
<polygon fill="none" stroke="black" points="351.097,-2176.24 345.863,-2167.03 344.21,-2177.5 351.097,-2176.24"/>
</g>
<!-- \\ThemeSettingsSiteController -->
<g id="node56" class="node"><title>\\ThemeSettingsSiteController</title>
<polygon fill="none" stroke="black" points="1042,-2572 844,-2572 844,-2536 1042,-2536 1042,-2572"/>
<text text-anchor="middle" x="943" y="-2551.1" font-family="Courier,monospace" font-size="11.00">ThemeSettingsSiteController</text>
</g>
<!-- \\ThemeSettingsSiteController&#45;&gt;\\ThemeSettingsAppController -->
<g id="edge99" class="edge"><title>\\ThemeSettingsSiteController&#45;&gt;\\ThemeSettingsAppController</title>
<path fill="none" stroke="black" d="M843.367,-2554C812.238,-2554 777.788,-2554 746.224,-2554"/>
<polygon fill="none" stroke="black" points="746.086,-2550.5 736.086,-2554 746.086,-2557.5 746.086,-2550.5"/>
</g>
<!-- \\ThemeSettingsThemeListComponent -->
<g id="node57" class="node"><title>\\ThemeSettingsThemeListComponent</title>
<polygon fill="none" stroke="black" points="1056,-952 830,-952 830,-916 1056,-916 1056,-952"/>
<text text-anchor="middle" x="943" y="-931.1" font-family="Courier,monospace" font-size="11.00">ThemeSettingsThemeListComponent</text>
</g>
<!-- \\ThemeSettingsThemeListComponent&#45;&gt;\\Component -->
<g id="edge101" class="edge"><title>\\ThemeSettingsThemeListComponent&#45;&gt;\\Component</title>
<path fill="none" stroke="black" d="M839.766,-915.862C836.236,-913.252 832.955,-910.311 830,-907 653.515,-709.252 935.432,-511.899 758,-315 748.227,-304.155 735.069,-297.207 721.082,-292.841"/>
<polygon fill="none" stroke="black" points="721.864,-289.426 711.298,-290.214 720.049,-296.187 721.864,-289.426"/>
</g>
<!-- \\ThemeSettingsController -->
<g id="node58" class="node"><title>\\ThemeSettingsController</title>
<polygon fill="none" stroke="black" points="726,-2167 554,-2167 554,-2131 726,-2131 726,-2167"/>
<text text-anchor="middle" x="640" y="-2146.1" font-family="Courier,monospace" font-size="11.00">ThemeSettingsController</text>
</g>
<!-- \\ThemeSettingsController&#45;&gt;\\AppController -->
<g id="edge103" class="edge"><title>\\ThemeSettingsController&#45;&gt;\\AppController</title>
<path fill="none" stroke="black" d="M553.696,-2149C506.129,-2149 448.17,-2149 405.089,-2149"/>
<polygon fill="none" stroke="black" points="405.028,-2145.5 395.028,-2149 405.028,-2152.5 405.028,-2145.5"/>
</g>
<!-- \\ThemeSettingsUploadController -->
<g id="node59" class="node"><title>\\ThemeSettingsUploadController</title>
<polygon fill="none" stroke="black" points="1049,-2626 837,-2626 837,-2590 1049,-2590 1049,-2626"/>
<text text-anchor="middle" x="943" y="-2605.1" font-family="Courier,monospace" font-size="11.00">ThemeSettingsUploadController</text>
</g>
<!-- \\ThemeSettingsUploadController&#45;&gt;\\ThemeSettingsAppController -->
<g id="edge105" class="edge"><title>\\ThemeSettingsUploadController&#45;&gt;\\ThemeSettingsAppController</title>
<path fill="none" stroke="black" d="M841.684,-2589.94C810.947,-2584.47 777.103,-2578.43 746.062,-2572.9"/>
<polygon fill="none" stroke="black" points="746.55,-2569.43 736.091,-2571.13 745.321,-2576.33 746.55,-2569.43"/>
</g>
<!-- \\ThemeSettingsHelper -->
<g id="node60" class="node"><title>\\ThemeSettingsHelper</title>
<polygon fill="none" stroke="black" points="1015,-1438 871,-1438 871,-1402 1015,-1402 1015,-1438"/>
<text text-anchor="middle" x="943" y="-1417.1" font-family="Courier,monospace" font-size="11.00">ThemeSettingsHelper</text>
</g>
<!-- \\ThemeSettingsHelper&#45;&gt;\\AppHelper -->
<g id="edge107" class="edge"><title>\\ThemeSettingsHelper&#45;&gt;\\AppHelper</title>
<path fill="none" stroke="black" d="M870.464,-1428.23C856.105,-1432.28 841.832,-1438.24 830,-1447 724.767,-1524.94 667.715,-1679.98 648.009,-1743.19"/>
<polygon fill="none" stroke="black" points="644.628,-1742.28 645.064,-1752.87 651.325,-1744.32 644.628,-1742.28"/>
</g>
<!-- \\ThemeBehavior -->
<g id="node61" class="node"><title>\\ThemeBehavior</title>
<polygon fill="none" stroke="black" points="995,-628 891,-628 891,-592 995,-592 995,-628"/>
<text text-anchor="middle" x="943" y="-607.1" font-family="Courier,monospace" font-size="11.00">ThemeBehavior</text>
</g>
<!-- \\ThemeBehavior&#45;&gt;\\ModelBehavior -->
<g id="edge109" class="edge"><title>\\ThemeBehavior&#45;&gt;\\ModelBehavior</title>
<path fill="none" stroke="black" d="M890.885,-609.695C869.183,-606.809 845.485,-599.586 830,-583 697.765,-441.362 890.914,-294.002 758,-153 750.736,-145.293 741.758,-139.575 732.025,-135.36"/>
<polygon fill="none" stroke="black" points="733.083,-132.019 722.491,-131.764 730.613,-138.568 733.083,-132.019"/>
</g>
<!-- \\ThemeSettingsAppModel -->
<g id="node62" class="node"><title>\\ThemeSettingsAppModel</title>
<polygon fill="none" stroke="black" points="1022,-2680 864,-2680 864,-2644 1022,-2644 1022,-2680"/>
<text text-anchor="middle" x="943" y="-2659.1" font-family="Courier,monospace" font-size="11.00">ThemeSettingsAppModel</text>
</g>
<!-- \\ThemeSettingsAppModel&#45;&gt;\\AppModel -->
<g id="edge111" class="edge"><title>\\ThemeSettingsAppModel&#45;&gt;\\AppModel</title>
<path fill="none" stroke="black" d="M863.786,-2676.12C807.101,-2686.22 732.781,-2699.46 685.695,-2707.86"/>
<polygon fill="none" stroke="black" points="685.018,-2704.42 675.787,-2709.62 686.246,-2711.31 685.018,-2704.42"/>
</g>
<!-- \\ThemeSettingsSite -->
<g id="node63" class="node"><title>\\ThemeSettingsSite</title>
<polygon fill="none" stroke="black" points="1008,-2788 878,-2788 878,-2752 1008,-2752 1008,-2788"/>
<text text-anchor="middle" x="943" y="-2767.1" font-family="Courier,monospace" font-size="11.00">ThemeSettingsSite</text>
</g>
<!-- \\ThemeSettingsSite&#45;&gt;\\AppModel -->
<g id="edge113" class="edge"><title>\\ThemeSettingsSite&#45;&gt;\\AppModel</title>
<path fill="none" stroke="black" d="M877.254,-2758.28C819.447,-2747.98 736.806,-2733.25 685.872,-2724.18"/>
<polygon fill="none" stroke="black" points="686.274,-2720.69 675.815,-2722.38 685.045,-2727.58 686.274,-2720.69"/>
</g>
</g>
</svg>
