<?xml version="1.0" encoding="UTF-8" standalone="no"?>
<!DOCTYPE svg PUBLIC "-//W3C//DTD SVG 1.1//EN"
 "http://www.w3.org/Graphics/SVG/1.1/DTD/svg11.dtd">
<!-- Generated by graphviz version 2.26.3 (20100126.1600)
 -->
<!-- Title: G Pages: 1 -->
<svg width="1220pt" height="2780pt"
 viewBox="0.00 0.00 1220.00 2780.00" xmlns="http://www.w3.org/2000/svg" xmlns:xlink="http://www.w3.org/1999/xlink">
<g id="graph1" class="graph" transform="scale(1 1) rotate(0) translate(4 2776)">
<title>G</title>
<polygon fill="white" stroke="white" points="-4,5 -4,-2776 1217,-2776 1217,5 -4,5"/>
<g id="graph2" class="cluster"><title>cluster_Global</title>
<polyline fill="none" stroke="gray" points="177,-422 1192,-422 "/>
<path fill="none" stroke="gray" d="M1192,-422C1198,-422 1204,-428 1204,-434"/>
<polyline fill="none" stroke="gray" points="1204,-434 1204,-2752 "/>
<path fill="none" stroke="gray" d="M1204,-2752C1204,-2758 1198,-2764 1192,-2764"/>
<polyline fill="none" stroke="gray" points="1192,-2764 177,-2764 "/>
<path fill="none" stroke="gray" d="M177,-2764C171,-2764 165,-2758 165,-2752"/>
<polyline fill="none" stroke="gray" points="165,-2752 165,-434 "/>
<path fill="none" stroke="gray" d="M165,-434C165,-428 171,-422 177,-422"/>
<text text-anchor="middle" x="684.5" y="-2750.1" font-family="Times Roman,serif" font-size="11.00" fill="gray">Global</text>
</g>
<!-- \\AppController -->
<g id="node2" class="node"><title>\\AppController</title>
<polygon fill="none" stroke="black" points="1145,-1276 1041,-1276 1041,-1240 1145,-1240 1145,-1276"/>
<text text-anchor="middle" x="1093" y="-1255.1" font-family="Courier,monospace" font-size="11.00">AppController</text>
</g>
<!-- \\Controller -->
<g id="node59" class="node"><title>\\Controller</title>
<ellipse fill="none" stroke="black" cx="503" cy="-288" rx="63.1385" ry="18.3848"/>
<text text-anchor="middle" x="503" y="-284.4" font-family="Times Roman,serif" font-size="14.00" fill="gray">\Controller</text>
</g>
<!-- \\AppController&#45;&gt;\\Controller -->
<g id="edge3" class="edge"><title>\\AppController&#45;&gt;\\Controller</title>
<path fill="none" stroke="black" d="M1040.76,-1251.16C1023.59,-1247.18 1005.06,-1240.91 990,-1231 804.306,-1108.85 768.613,-1041.7 682,-837 590.739,-621.316 766.238,-489.464 610,-315 600.846,-304.779 588.44,-298.163 575.318,-293.936"/>
<polygon fill="none" stroke="black" points="576.244,-290.561 565.672,-291.263 574.374,-297.306 576.244,-290.561"/>
</g>
<!-- \\AppModel -->
<g id="node3" class="node"><title>\\AppModel</title>
<polygon fill="none" stroke="black" points="538,-2707 468,-2707 468,-2671 538,-2671 538,-2707"/>
<text text-anchor="middle" x="503" y="-2686.1" font-family="Courier,monospace" font-size="11.00">AppModel</text>
</g>
<!-- \\NetCommonsAppModel -->
<g id="node47" class="node"><title>\\NetCommonsAppModel</title>
<polygon fill="none" stroke="black" points="311,-2707 173,-2707 173,-2671 311,-2671 311,-2707"/>
<text text-anchor="middle" x="242" y="-2686.1" font-family="Courier,monospace" font-size="11.00">NetCommonsAppModel</text>
</g>
<!-- \\AppModel&#45;&gt;\\NetCommonsAppModel -->
<g id="edge5" class="edge"><title>\\AppModel&#45;&gt;\\NetCommonsAppModel</title>
<path fill="none" stroke="black" d="M467.256,-2689C429.848,-2689 369.903,-2689 321.254,-2689"/>
<polygon fill="none" stroke="black" points="321.056,-2685.5 311.056,-2689 321.056,-2692.5 321.056,-2685.5"/>
</g>
<!-- \\DatabaseConfiguration -->
<g id="node4" class="node"><title>\\DatabaseConfiguration</title>
<polygon fill="none" stroke="black" points="879,-2734 721,-2734 721,-2698 879,-2698 879,-2734"/>
<text text-anchor="middle" x="800" y="-2713.1" font-family="Courier,monospace" font-size="11.00">DatabaseConfiguration</text>
</g>
<!-- \\DatabaseConfiguration&#45;&gt;\\AppModel -->
<g id="edge7" class="edge"><title>\\DatabaseConfiguration&#45;&gt;\\AppModel</title>
<path fill="none" stroke="black" d="M720.8,-2708.8C665.959,-2703.81 594.863,-2697.35 549.084,-2693.19"/>
<polygon fill="none" stroke="black" points="549.143,-2689.68 538.867,-2692.26 548.509,-2696.65 549.143,-2689.68"/>
</g>
<!-- \\AppHelper -->
<g id="node5" class="node"><title>\\AppHelper</title>
<polygon fill="none" stroke="black" points="838,-2059 762,-2059 762,-2023 838,-2023 838,-2059"/>
<text text-anchor="middle" x="800" y="-2038.1" font-family="Courier,monospace" font-size="11.00">AppHelper</text>
</g>
<!-- \\Helper -->
<g id="node63" class="node"><title>\\Helper</title>
<ellipse fill="none" stroke="black" cx="503" cy="-396" rx="43.8406" ry="18.3848"/>
<text text-anchor="middle" x="503" y="-392.4" font-family="Times Roman,serif" font-size="14.00" fill="gray">Helper</text>
</g>
<!-- \\AppHelper&#45;&gt;\\Helper -->
<g id="edge9" class="edge"><title>\\AppHelper&#45;&gt;\\Helper</title>
<path fill="none" stroke="black" d="M795.039,-2023C776.58,-1955.21 711.417,-1708.6 682,-1501 665.08,-1381.59 689.267,-508.889 610,-418 596.837,-402.908 576.329,-396.523 556.774,-394.23"/>
<polygon fill="none" stroke="black" points="556.937,-390.731 546.678,-393.379 556.349,-397.706 556.937,-390.731"/>
</g>
<!-- \\NetCommonsDeleteTest -->
<g id="node6" class="node"><title>\\NetCommonsDeleteTest</title>
<polygon fill="none" stroke="black" points="1169,-2680 1017,-2680 1017,-2644 1169,-2644 1169,-2680"/>
<text text-anchor="middle" x="1093" y="-2659.1" font-family="Courier,monospace" font-size="11.00">NetCommonsDeleteTest</text>
</g>
<!-- \\NetCommonsModelTestCase -->
<g id="node15" class="node"><title>\\NetCommonsModelTestCase</title>
<polygon fill="none" stroke="black" points="886,-2572 714,-2572 714,-2536 886,-2536 886,-2572"/>
<text text-anchor="middle" x="800" y="-2551.1" font-family="Courier,monospace" font-size="11.00">NetCommonsModelTestCase</text>
</g>
<!-- \\NetCommonsDeleteTest&#45;&gt;\\NetCommonsModelTestCase -->
<g id="edge11" class="edge"><title>\\NetCommonsDeleteTest&#45;&gt;\\NetCommonsModelTestCase</title>
<path fill="none" stroke="black" d="M1018.9,-2643.98C1009.12,-2641.19 999.27,-2638.17 990,-2635 940.27,-2617.98 885.199,-2593.9 847.206,-2576.42"/>
<polygon fill="none" stroke="black" points="848.474,-2573.15 837.929,-2572.12 845.534,-2579.5 848.474,-2573.15"/>
</g>
<!-- \\NetCommonsConsoleTestCase -->
<g id="node7" class="node"><title>\\NetCommonsConsoleTestCase</title>
<polygon fill="none" stroke="black" points="892,-2302 708,-2302 708,-2266 892,-2266 892,-2302"/>
<text text-anchor="middle" x="800" y="-2281.1" font-family="Courier,monospace" font-size="11.00">NetCommonsConsoleTestCase</text>
</g>
<!-- \\NetCommonsCakeTestCase -->
<g id="node13" class="node"><title>\\NetCommonsCakeTestCase</title>
<polygon fill="none" stroke="black" points="585,-2275 421,-2275 421,-2239 585,-2239 585,-2275"/>
<text text-anchor="middle" x="503" y="-2254.1" font-family="Courier,monospace" font-size="11.00">NetCommonsCakeTestCase</text>
</g>
<!-- \\NetCommonsConsoleTestCase&#45;&gt;\\NetCommonsCakeTestCase -->
<g id="edge13" class="edge"><title>\\NetCommonsConsoleTestCase&#45;&gt;\\NetCommonsCakeTestCase</title>
<path fill="none" stroke="black" d="M707.249,-2275.57C671.93,-2272.36 631.688,-2268.7 596.316,-2265.48"/>
<polygon fill="none" stroke="black" points="596.269,-2261.96 585.993,-2264.54 595.635,-2268.94 596.269,-2261.96"/>
</g>
<!-- \\NetCommonsGetTest -->
<g id="node8" class="node"><title>\\NetCommonsGetTest</title>
<polygon fill="none" stroke="black" points="1158,-2626 1028,-2626 1028,-2590 1158,-2590 1158,-2626"/>
<text text-anchor="middle" x="1093" y="-2605.1" font-family="Courier,monospace" font-size="11.00">NetCommonsGetTest</text>
</g>
<!-- \\NetCommonsGetTest&#45;&gt;\\NetCommonsModelTestCase -->
<g id="edge15" class="edge"><title>\\NetCommonsGetTest&#45;&gt;\\NetCommonsModelTestCase</title>
<path fill="none" stroke="black" d="M1027.25,-2595.88C988.582,-2588.76 939.008,-2579.62 896.034,-2571.7"/>
<polygon fill="none" stroke="black" points="896.588,-2568.24 886.12,-2569.87 895.32,-2575.13 896.588,-2568.24"/>
</g>
<!-- \\NetCommonsHelperTestCase -->
<g id="node9" class="node"><title>\\NetCommonsHelperTestCase</title>
<polygon fill="none" stroke="black" points="889,-2248 711,-2248 711,-2212 889,-2212 889,-2248"/>
<text text-anchor="middle" x="800" y="-2227.1" font-family="Courier,monospace" font-size="11.00">NetCommonsHelperTestCase</text>
</g>
<!-- \\NetCommonsHelperTestCase&#45;&gt;\\NetCommonsCakeTestCase -->
<g id="edge17" class="edge"><title>\\NetCommonsHelperTestCase&#45;&gt;\\NetCommonsCakeTestCase</title>
<path fill="none" stroke="black" d="M710.487,-2238.14C674.267,-2241.43 632.456,-2245.23 595.9,-2248.55"/>
<polygon fill="none" stroke="black" points="595.379,-2245.09 585.737,-2249.48 596.013,-2252.06 595.379,-2245.09"/>
</g>
<!-- \\NetCommonsControllerBaseTestCase -->
<g id="node10" class="node"><title>\\NetCommonsControllerBaseTestCase</title>
<polygon fill="none" stroke="black" points="916,-1438 684,-1438 684,-1402 916,-1402 916,-1438"/>
<text text-anchor="middle" x="800" y="-1417.1" font-family="Courier,monospace" font-size="11.00">NetCommonsControllerBaseTestCase</text>
</g>
<!-- \\ControllerTestCase -->
<g id="node69" class="node"><title>\\ControllerTestCase</title>
<ellipse fill="none" stroke="black" cx="503" cy="-342" rx="106.773" ry="18.3848"/>
<text text-anchor="middle" x="503" y="-338.4" font-family="Times Roman,serif" font-size="14.00" fill="gray">\ControllerTestCase</text>
</g>
<!-- \\NetCommonsControllerBaseTestCase&#45;&gt;\\ControllerTestCase -->
<g id="edge19" class="edge"><title>\\NetCommonsControllerBaseTestCase&#45;&gt;\\ControllerTestCase</title>
<path fill="none" stroke="black" d="M691.507,-1401.99C688.063,-1399.34 684.87,-1396.35 682,-1393 533.647,-1219.71 756.417,-543.927 610,-369 606.388,-364.684 602.196,-361.004 597.604,-357.869"/>
<polygon fill="none" stroke="black" points="599.345,-354.833 588.948,-352.797 595.807,-360.872 599.345,-354.833"/>
</g>
<!-- \\NetCommonsValidateTest -->
<g id="node11" class="node"><title>\\NetCommonsValidateTest</title>
<polygon fill="none" stroke="black" points="1175,-2572 1011,-2572 1011,-2536 1175,-2536 1175,-2572"/>
<text text-anchor="middle" x="1093" y="-2551.1" font-family="Courier,monospace" font-size="11.00">NetCommonsValidateTest</text>
</g>
<!-- \\NetCommonsValidateTest&#45;&gt;\\NetCommonsModelTestCase -->
<g id="edge21" class="edge"><title>\\NetCommonsValidateTest&#45;&gt;\\NetCommonsModelTestCase</title>
<path fill="none" stroke="black" d="M1010.21,-2554C974.791,-2554 933.196,-2554 896.397,-2554"/>
<polygon fill="none" stroke="black" points="896.154,-2550.5 886.154,-2554 896.154,-2557.5 896.154,-2550.5"/>
</g>
<!-- \\NetCommonsTestSuite -->
<g id="node12" class="node"><title>\\NetCommonsTestSuite</title>
<polygon fill="none" stroke="black" points="1165,-1168 1021,-1168 1021,-1132 1165,-1132 1165,-1168"/>
<text text-anchor="middle" x="1093" y="-1147.1" font-family="Courier,monospace" font-size="11.00">NetCommonsTestSuite</text>
</g>
<!-- \\CakeTestSuite -->
<g id="node72" class="node"><title>\\CakeTestSuite</title>
<ellipse fill="none" stroke="black" cx="800" cy="-396" rx="84.1457" ry="18.3848"/>
<text text-anchor="middle" x="800" y="-392.4" font-family="Times Roman,serif" font-size="14.00" fill="gray">\CakeTestSuite</text>
</g>
<!-- \\NetCommonsTestSuite&#45;&gt;\\CakeTestSuite -->
<g id="edge23" class="edge"><title>\\NetCommonsTestSuite&#45;&gt;\\CakeTestSuite</title>
<path fill="none" stroke="black" d="M1020.38,-1142.87C1008.79,-1138.65 997.995,-1132.34 990,-1123 887.575,-1003.38 1024.67,-533.856 918,-418 911.119,-410.526 902.58,-405.101 893.263,-401.215"/>
<polygon fill="none" stroke="black" points="894.315,-397.875 883.72,-397.824 891.97,-404.47 894.315,-397.875"/>
</g>
<!-- \\CakeTestCase -->
<g id="node74" class="node"><title>\\CakeTestCase</title>
<ellipse fill="none" stroke="black" cx="242" cy="-396" rx="82.0244" ry="18.3848"/>
<text text-anchor="middle" x="242" y="-392.4" font-family="Times Roman,serif" font-size="14.00" fill="gray">\CakeTestCase</text>
</g>
<!-- \\NetCommonsCakeTestCase&#45;&gt;\\CakeTestCase -->
<g id="edge25" class="edge"><title>\\NetCommonsCakeTestCase&#45;&gt;\\CakeTestCase</title>
<path fill="none" stroke="black" d="M420.391,-2252C411.061,-2248.2 402.566,-2242.74 396,-2235 265.25,-2080.96 450.123,-575.848 324,-418 322.309,-415.884 320.439,-413.959 318.423,-412.207"/>
<polygon fill="none" stroke="black" points="320.194,-409.173 310.002,-406.279 316.164,-414.897 320.194,-409.173"/>
</g>
<!-- \\NetCommonsSaveTest -->
<g id="node14" class="node"><title>\\NetCommonsSaveTest</title>
<polygon fill="none" stroke="black" points="1162,-2518 1024,-2518 1024,-2482 1162,-2482 1162,-2518"/>
<text text-anchor="middle" x="1093" y="-2497.1" font-family="Courier,monospace" font-size="11.00">NetCommonsSaveTest</text>
</g>
<!-- \\NetCommonsSaveTest&#45;&gt;\\NetCommonsModelTestCase -->
<g id="edge27" class="edge"><title>\\NetCommonsSaveTest&#45;&gt;\\NetCommonsModelTestCase</title>
<path fill="none" stroke="black" d="M1023.93,-2512.73C985.795,-2519.76 937.829,-2528.6 896.084,-2536.29"/>
<polygon fill="none" stroke="black" points="895.372,-2532.86 886.172,-2538.12 896.641,-2539.75 895.372,-2532.86"/>
</g>
<!-- \\NetCommonsModelTestCase&#45;&gt;\\NetCommonsCakeTestCase -->
<g id="edge29" class="edge"><title>\\NetCommonsModelTestCase&#45;&gt;\\NetCommonsCakeTestCase</title>
<path fill="none" stroke="black" d="M781.868,-2535.87C731.124,-2485.12 587.551,-2341.55 528.674,-2282.67"/>
<polygon fill="none" stroke="black" points="530.818,-2279.87 521.272,-2275.27 525.868,-2284.82 530.818,-2279.87"/>
</g>
<!-- \\NetCommonsControllerTestCase -->
<g id="node16" class="node"><title>\\NetCommonsControllerTestCase</title>
<polygon fill="none" stroke="black" points="1196,-1438 990,-1438 990,-1402 1196,-1402 1196,-1438"/>
<text text-anchor="middle" x="1093" y="-1417.1" font-family="Courier,monospace" font-size="11.00">NetCommonsControllerTestCase</text>
</g>
<!-- \\NetCommonsControllerTestCase&#45;&gt;\\NetCommonsControllerBaseTestCase -->
<g id="edge31" class="edge"><title>\\NetCommonsControllerTestCase&#45;&gt;\\NetCommonsControllerBaseTestCase</title>
<path fill="none" stroke="black" d="M989.699,-1420C969.381,-1420 947.845,-1420 926.858,-1420"/>
<polygon fill="none" stroke="black" points="926.606,-1416.5 916.606,-1420 926.606,-1423.5 926.606,-1416.5"/>
</g>
<!-- \\NetCommonsAppController -->
<g id="node17" class="node"><title>\\NetCommonsAppController</title>
<polygon fill="none" stroke="black" points="886,-1384 714,-1384 714,-1348 886,-1348 886,-1384"/>
<text text-anchor="middle" x="800" y="-1363.1" font-family="Courier,monospace" font-size="11.00">NetCommonsAppController</text>
</g>
<!-- \\NetCommonsAppController&#45;&gt;\\Controller -->
<g id="edge33" class="edge"><title>\\NetCommonsAppController&#45;&gt;\\Controller</title>
<path fill="none" stroke="black" d="M775.95,-1347.95C747.834,-1325.29 702.537,-1283.57 682,-1236 600.634,-1047.52 742.381,-471.907 610,-315 601.102,-304.454 588.743,-297.705 575.573,-293.451"/>
<polygon fill="none" stroke="black" points="576.449,-290.062 565.878,-290.776 574.587,-296.81 576.449,-290.062"/>
</g>
<!-- \\AssetComponent -->
<g id="node18" class="node"><title>\\AssetComponent</title>
<polygon fill="none" stroke="black" points="1148,-1006 1038,-1006 1038,-970 1148,-970 1148,-1006"/>
<text text-anchor="middle" x="1093" y="-985.1" font-family="Courier,monospace" font-size="11.00">AssetComponent</text>
</g>
<!-- \\Component -->
<g id="node80" class="node"><title>\\Component</title>
<ellipse fill="none" stroke="black" cx="800" cy="-342" rx="70.9184" ry="18.3848"/>
<text text-anchor="middle" x="800" y="-338.4" font-family="Times Roman,serif" font-size="14.00" fill="gray">\Component</text>
</g>
<!-- \\AssetComponent&#45;&gt;\\Component -->
<g id="edge35" class="edge"><title>\\AssetComponent&#45;&gt;\\Component</title>
<path fill="none" stroke="black" d="M1037.34,-985.436C1019.8,-981.802 1001.91,-974.647 990,-961 815.683,-761.337 1095.43,-565.899 918,-369 908.227,-358.155 895.069,-351.207 881.082,-346.841"/>
<polygon fill="none" stroke="black" points="881.864,-343.426 871.298,-344.214 880.049,-350.187 881.864,-343.426"/>
</g>
<!-- \\NetCommonsTimeComponent -->
<g id="node19" class="node"><title>\\NetCommonsTimeComponent</title>
<polygon fill="none" stroke="black" points="1179,-952 1007,-952 1007,-916 1179,-916 1179,-952"/>
<text text-anchor="middle" x="1093" y="-931.1" font-family="Courier,monospace" font-size="11.00">NetCommonsTimeComponent</text>
</g>
<!-- \\NetCommonsTimeComponent&#45;&gt;\\Component -->
<g id="edge37" class="edge"><title>\\NetCommonsTimeComponent&#45;&gt;\\Component</title>
<path fill="none" stroke="black" d="M1006.73,-920.334C1000.48,-916.785 994.774,-912.402 990,-907 830.252,-726.227 1080.57,-547.24 918,-369 908.162,-358.213 894.974,-351.293 880.979,-346.934"/>
<polygon fill="none" stroke="black" points="881.757,-343.519 871.192,-344.31 879.944,-350.281 881.757,-343.519"/>
</g>
<!-- \\PermissionComponent -->
<g id="node20" class="node"><title>\\PermissionComponent</title>
<polygon fill="none" stroke="black" points="1165,-1114 1021,-1114 1021,-1078 1165,-1078 1165,-1114"/>
<text text-anchor="middle" x="1093" y="-1093.1" font-family="Courier,monospace" font-size="11.00">PermissionComponent</text>
</g>
<!-- \\PermissionComponent&#45;&gt;\\Component -->
<g id="edge39" class="edge"><title>\\PermissionComponent&#45;&gt;\\Component</title>
<path fill="none" stroke="black" d="M1020.39,-1088.86C1008.79,-1084.64 997.999,-1078.34 990,-1069 786.502,-831.507 1125.2,-603.266 918,-369 908.271,-358.001 895.062,-350.994 880.998,-346.62"/>
<polygon fill="none" stroke="black" points="881.72,-343.191 871.156,-343.996 879.917,-349.955 881.72,-343.191"/>
</g>
<!-- \\NetCommonsComponent -->
<g id="node21" class="node"><title>\\NetCommonsComponent</title>
<polygon fill="none" stroke="black" points="1165,-1060 1021,-1060 1021,-1024 1165,-1024 1165,-1060"/>
<text text-anchor="middle" x="1093" y="-1039.1" font-family="Courier,monospace" font-size="11.00">NetCommonsComponent</text>
</g>
<!-- \\NetCommonsComponent&#45;&gt;\\Component -->
<g id="edge41" class="edge"><title>\\NetCommonsComponent&#45;&gt;\\Component</title>
<path fill="none" stroke="black" d="M1020.45,-1034.81C1008.85,-1030.59 998.038,-1024.3 990,-1015 801.099,-796.429 1110.31,-584.576 918,-369 908.225,-358.042 894.994,-351.054 880.924,-346.686"/>
<polygon fill="none" stroke="black" points="881.644,-343.256 871.08,-344.064 879.842,-350.02 881.644,-343.256"/>
</g>
<!-- \\NetCommonsController -->
<g id="node22" class="node"><title>\\NetCommonsController</title>
<polygon fill="none" stroke="black" points="1169,-1384 1017,-1384 1017,-1348 1169,-1348 1169,-1384"/>
<text text-anchor="middle" x="1093" y="-1363.1" font-family="Courier,monospace" font-size="11.00">NetCommonsController</text>
</g>
<!-- \\NetCommonsController&#45;&gt;\\NetCommonsAppController -->
<g id="edge43" class="edge"><title>\\NetCommonsController&#45;&gt;\\NetCommonsAppController</title>
<path fill="none" stroke="black" d="M1016.78,-1366C980.049,-1366 935.59,-1366 896.519,-1366"/>
<polygon fill="none" stroke="black" points="896.183,-1362.5 886.183,-1366 896.183,-1369.5 896.183,-1362.5"/>
</g>
<!-- \\NetCommonsUrl -->
<g id="node23" class="node"><title>\\NetCommonsUrl</title>
<polygon fill="none" stroke="black" points="1145,-2086 1041,-2086 1041,-2050 1145,-2050 1145,-2086"/>
<text text-anchor="middle" x="1093" y="-2065.1" font-family="Courier,monospace" font-size="11.00">NetCommonsUrl</text>
</g>
<!-- \\NetCommonsTime -->
<g id="node24" class="node"><title>\\NetCommonsTime</title>
<polygon fill="none" stroke="black" points="1148,-2032 1038,-2032 1038,-1996 1148,-1996 1148,-2032"/>
<text text-anchor="middle" x="1093" y="-2011.1" font-family="Courier,monospace" font-size="11.00">NetCommonsTime</text>
</g>
<!-- \\CurrentBase -->
<g id="node25" class="node"><title>\\CurrentBase</title>
<polygon fill="none" stroke="black" points="845,-1492 755,-1492 755,-1456 845,-1456 845,-1492"/>
<text text-anchor="middle" x="800" y="-1471.1" font-family="Courier,monospace" font-size="11.00">CurrentBase</text>
</g>
<!-- \\Current -->
<g id="node26" class="node"><title>\\Current</title>
<polygon fill="none" stroke="black" points="1125,-1492 1061,-1492 1061,-1456 1125,-1456 1125,-1492"/>
<text text-anchor="middle" x="1093" y="-1471.1" font-family="Courier,monospace" font-size="11.00">Current</text>
</g>
<!-- \\Current&#45;&gt;\\CurrentBase -->
<g id="edge45" class="edge"><title>\\Current&#45;&gt;\\CurrentBase</title>
<path fill="none" stroke="black" d="M1060.81,-1474C1011.48,-1474 916.554,-1474 855.846,-1474"/>
<polygon fill="none" stroke="black" points="855.669,-1470.5 845.669,-1474 855.669,-1477.5 855.669,-1470.5"/>
</g>
<!-- \\CurrentSystem -->
<g id="node27" class="node"><title>\\CurrentSystem</title>
<polygon fill="none" stroke="black" points="1145,-1924 1041,-1924 1041,-1888 1145,-1888 1145,-1924"/>
<text text-anchor="middle" x="1093" y="-1903.1" font-family="Courier,monospace" font-size="11.00">CurrentSystem</text>
</g>
<!-- \\CurrentPage -->
<g id="node28" class="node"><title>\\CurrentPage</title>
<polygon fill="none" stroke="black" points="1138,-1870 1048,-1870 1048,-1834 1138,-1834 1138,-1870"/>
<text text-anchor="middle" x="1093" y="-1849.1" font-family="Courier,monospace" font-size="11.00">CurrentPage</text>
</g>
<!-- \\CurrentFrame -->
<g id="node29" class="node"><title>\\CurrentFrame</title>
<polygon fill="none" stroke="black" points="1142,-1816 1044,-1816 1044,-1780 1142,-1780 1142,-1816"/>
<text text-anchor="middle" x="1093" y="-1795.1" font-family="Courier,monospace" font-size="11.00">CurrentFrame</text>
</g>
<!-- \\TokenHelper -->
<g id="node30" class="node"><title>\\TokenHelper</title>
<polygon fill="none" stroke="black" points="1138,-790 1048,-790 1048,-754 1138,-754 1138,-790"/>
<text text-anchor="middle" x="1093" y="-769.1" font-family="Courier,monospace" font-size="11.00">TokenHelper</text>
</g>
<!-- \\FormHelper -->
<g id="node87" class="node"><title>\\FormHelper</title>
<ellipse fill="none" stroke="black" cx="800" cy="-288" rx="70.9184" ry="18.3848"/>
<text text-anchor="middle" x="800" y="-284.4" font-family="Times Roman,serif" font-size="14.00" fill="gray">\FormHelper</text>
</g>
<!-- \\TokenHelper&#45;&gt;\\FormHelper -->
<g id="edge47" class="edge"><title>\\TokenHelper&#45;&gt;\\FormHelper</title>
<path fill="none" stroke="black" d="M1047.25,-770.813C1026.97,-767.861 1004.46,-760.833 990,-745 859.318,-601.927 1050.91,-456.002 918,-315 907.986,-304.377 894.718,-297.531 880.698,-293.194"/>
<polygon fill="none" stroke="black" points="881.468,-289.777 870.904,-290.577 879.661,-296.54 881.468,-289.777"/>
</g>
<!-- \\SingletonViewBlockHtmlHelper -->
<g id="node31" class="node"><title>\\SingletonViewBlockHtmlHelper</title>
<polygon fill="none" stroke="black" points="1196,-736 990,-736 990,-700 1196,-700 1196,-736"/>
<text text-anchor="middle" x="1093" y="-715.1" font-family="Courier,monospace" font-size="11.00">SingletonViewBlockHtmlHelper</text>
</g>
<!-- \\HtmlHelper -->
<g id="node89" class="node"><title>\\HtmlHelper</title>
<ellipse fill="none" stroke="black" cx="800" cy="-234" rx="67.1751" ry="18.3848"/>
<text text-anchor="middle" x="800" y="-230.4" font-family="Times Roman,serif" font-size="14.00" fill="gray">HtmlHelper</text>
</g>
<!-- \\SingletonViewBlockHtmlHelper&#45;&gt;\\HtmlHelper -->
<g id="edge49" class="edge"><title>\\SingletonViewBlockHtmlHelper&#45;&gt;\\HtmlHelper</title>
<path fill="none" stroke="black" d="M999.918,-699.739C996.329,-697.175 992.992,-694.276 990,-691 859.318,-547.927 1050.91,-402.002 918,-261 907.121,-249.459 892.401,-242.376 877.051,-238.126"/>
<polygon fill="none" stroke="black" points="877.444,-234.622 866.906,-235.723 875.83,-241.434 877.444,-234.622"/>
</g>
<!-- \\FormInputHelper -->
<g id="node32" class="node"><title>\\FormInputHelper</title>
<polygon fill="none" stroke="black" points="1152,-1546 1034,-1546 1034,-1510 1152,-1510 1152,-1546"/>
<text text-anchor="middle" x="1093" y="-1525.1" font-family="Courier,monospace" font-size="11.00">FormInputHelper</text>
</g>
<!-- \\FormInputHelper&#45;&gt;\\AppHelper -->
<g id="edge51" class="edge"><title>\\FormInputHelper&#45;&gt;\\AppHelper</title>
<path fill="none" stroke="black" d="M1033.85,-1533.65C1018.12,-1537.61 1002.15,-1544.18 990,-1555 847.368,-1681.94 810.808,-1929.27 802.341,-2012.73"/>
<polygon fill="none" stroke="black" points="798.852,-2012.44 801.383,-2022.73 805.82,-2013.11 798.852,-2012.44"/>
</g>
<!-- \\WizardHelper -->
<g id="node33" class="node"><title>\\WizardHelper</title>
<polygon fill="none" stroke="black" points="1142,-1762 1044,-1762 1044,-1726 1142,-1726 1142,-1762"/>
<text text-anchor="middle" x="1093" y="-1741.1" font-family="Courier,monospace" font-size="11.00">WizardHelper</text>
</g>
<!-- \\WizardHelper&#45;&gt;\\AppHelper -->
<g id="edge53" class="edge"><title>\\WizardHelper&#45;&gt;\\AppHelper</title>
<path fill="none" stroke="black" d="M1043.89,-1749.65C1025.75,-1753.52 1005.79,-1760.03 990,-1771 898.034,-1834.86 835.79,-1958.47 811.457,-2013.46"/>
<polygon fill="none" stroke="black" points="808.13,-2012.34 807.356,-2022.9 814.551,-2015.13 808.13,-2012.34"/>
</g>
<!-- \\DisplayNumberHelper -->
<g id="node34" class="node"><title>\\DisplayNumberHelper</title>
<polygon fill="none" stroke="black" points="1165,-2464 1021,-2464 1021,-2428 1165,-2428 1165,-2464"/>
<text text-anchor="middle" x="1093" y="-2443.1" font-family="Courier,monospace" font-size="11.00">DisplayNumberHelper</text>
</g>
<!-- \\DisplayNumberHelper&#45;&gt;\\AppHelper -->
<g id="edge55" class="edge"><title>\\DisplayNumberHelper&#45;&gt;\\AppHelper</title>
<path fill="none" stroke="black" d="M1020.4,-2436.77C1009.22,-2432.73 998.567,-2427.02 990,-2419 916.145,-2349.82 964.337,-2292.96 918,-2203 891.235,-2151.04 848.785,-2097.51 822.761,-2066.85"/>
<polygon fill="none" stroke="black" points="825.365,-2064.51 816.2,-2059.2 820.05,-2069.07 825.365,-2064.51"/>
</g>
<!-- \\MessageFlashHelper -->
<g id="node35" class="node"><title>\\MessageFlashHelper</title>
<polygon fill="none" stroke="black" points="1162,-2410 1024,-2410 1024,-2374 1162,-2374 1162,-2410"/>
<text text-anchor="middle" x="1093" y="-2389.1" font-family="Courier,monospace" font-size="11.00">MessageFlashHelper</text>
</g>
<!-- \\MessageFlashHelper&#45;&gt;\\AppHelper -->
<g id="edge57" class="edge"><title>\\MessageFlashHelper&#45;&gt;\\AppHelper</title>
<path fill="none" stroke="black" d="M1023.97,-2383.05C1011.68,-2379.03 999.719,-2373.26 990,-2365 929.965,-2313.97 957.414,-2271.22 918,-2203 888.725,-2152.33 846.985,-2098.31 821.794,-2067.22"/>
<polygon fill="none" stroke="black" points="824.185,-2064.62 815.151,-2059.08 818.762,-2069.04 824.185,-2064.62"/>
</g>
<!-- \\DateHelper -->
<g id="node36" class="node"><title>\\DateHelper</title>
<polygon fill="none" stroke="black" points="1135,-2356 1051,-2356 1051,-2320 1135,-2320 1135,-2356"/>
<text text-anchor="middle" x="1093" y="-2335.1" font-family="Courier,monospace" font-size="11.00">DateHelper</text>
</g>
<!-- \\DateHelper&#45;&gt;\\AppHelper -->
<g id="edge59" class="edge"><title>\\DateHelper&#45;&gt;\\AppHelper</title>
<path fill="none" stroke="black" d="M1050.96,-2333.96C1031.03,-2330.39 1007.76,-2323.67 990,-2311 943.034,-2277.5 950.99,-2250.33 918,-2203 884.353,-2154.73 843.67,-2099.55 819.928,-2067.64"/>
<polygon fill="none" stroke="black" points="822.483,-2065.21 813.7,-2059.29 816.87,-2069.4 822.483,-2065.21"/>
</g>
<!-- \\SnsButtonHelper -->
<g id="node37" class="node"><title>\\SnsButtonHelper</title>
<polygon fill="none" stroke="black" points="1152,-2302 1034,-2302 1034,-2266 1152,-2266 1152,-2302"/>
<text text-anchor="middle" x="1093" y="-2281.1" font-family="Courier,monospace" font-size="11.00">SnsButtonHelper</text>
</g>
<!-- \\SnsButtonHelper&#45;&gt;\\AppHelper -->
<g id="edge61" class="edge"><title>\\SnsButtonHelper&#45;&gt;\\AppHelper</title>
<path fill="none" stroke="black" d="M1033.89,-2274.86C1018.85,-2270.86 1003.22,-2265.15 990,-2257 909.876,-2207.56 844.727,-2113.81 815.946,-2067.81"/>
<polygon fill="none" stroke="black" points="818.75,-2065.69 810.523,-2059.02 812.792,-2069.36 818.75,-2065.69"/>
</g>
<!-- \\BackToHelper -->
<g id="node38" class="node"><title>\\BackToHelper</title>
<polygon fill="none" stroke="black" points="1142,-2248 1044,-2248 1044,-2212 1142,-2212 1142,-2248"/>
<text text-anchor="middle" x="1093" y="-2227.1" font-family="Courier,monospace" font-size="11.00">BackToHelper</text>
</g>
<!-- \\BackToHelper&#45;&gt;\\AppHelper -->
<g id="edge63" class="edge"><title>\\BackToHelper&#45;&gt;\\AppHelper</title>
<path fill="none" stroke="black" d="M1043.91,-2221.86C1026.27,-2217.73 1006.63,-2211.68 990,-2203 921.41,-2167.19 856.097,-2102.56 822.838,-2066.7"/>
<polygon fill="none" stroke="black" points="825.192,-2064.09 815.854,-2059.09 820.033,-2068.83 825.192,-2064.09"/>
</g>
<!-- \\NetCommonsHtmlHelper -->
<g id="node39" class="node"><title>\\NetCommonsHtmlHelper</title>
<polygon fill="none" stroke="black" points="1169,-2194 1017,-2194 1017,-2158 1169,-2158 1169,-2194"/>
<text text-anchor="middle" x="1093" y="-2173.1" font-family="Courier,monospace" font-size="11.00">NetCommonsHtmlHelper</text>
</g>
<!-- \\NetCommonsHtmlHelper&#45;&gt;\\AppHelper -->
<g id="edge65" class="edge"><title>\\NetCommonsHtmlHelper&#45;&gt;\\AppHelper</title>
<path fill="none" stroke="black" d="M1016.88,-2158.46C1007.71,-2155.64 998.561,-2152.49 990,-2149 933.066,-2125.82 872.097,-2088.73 835.004,-2064.61"/>
<polygon fill="none" stroke="black" points="836.839,-2061.63 826.557,-2059.07 833.002,-2067.48 836.839,-2061.63"/>
</g>
<!-- \\ButtonHelper -->
<g id="node40" class="node"><title>\\ButtonHelper</title>
<polygon fill="none" stroke="black" points="1142,-898 1044,-898 1044,-862 1142,-862 1142,-898"/>
<text text-anchor="middle" x="1093" y="-877.1" font-family="Courier,monospace" font-size="11.00">ButtonHelper</text>
</g>
<!-- \\ButtonHelper&#45;&gt;\\FormHelper -->
<g id="edge67" class="edge"><title>\\ButtonHelper&#45;&gt;\\FormHelper</title>
<path fill="none" stroke="black" d="M1043.85,-878.539C1024.38,-875.365 1003.47,-868.238 990,-853 830.252,-672.227 1080.57,-493.24 918,-315 908.162,-304.213 894.974,-297.293 880.979,-292.934"/>
<polygon fill="none" stroke="black" points="881.757,-289.519 871.192,-290.31 879.944,-296.281 881.757,-289.519"/>
</g>
<!-- \\ComposerHelper -->
<g id="node41" class="node"><title>\\ComposerHelper</title>
<polygon fill="none" stroke="black" points="1148,-2140 1038,-2140 1038,-2104 1148,-2104 1148,-2140"/>
<text text-anchor="middle" x="1093" y="-2119.1" font-family="Courier,monospace" font-size="11.00">ComposerHelper</text>
</g>
<!-- \\ComposerHelper&#45;&gt;\\AppHelper -->
<g id="edge69" class="edge"><title>\\ComposerHelper&#45;&gt;\\AppHelper</title>
<path fill="none" stroke="black" d="M1037.35,-2107.64C1021.99,-2103.61 1005.34,-2099.19 990,-2095 941.716,-2081.81 886.728,-2066.11 848.375,-2055.04"/>
<polygon fill="none" stroke="black" points="849.087,-2051.61 838.508,-2052.2 847.145,-2058.33 849.087,-2051.61"/>
</g>
<!-- \\LinkButtonHelper -->
<g id="node42" class="node"><title>\\LinkButtonHelper</title>
<polygon fill="none" stroke="black" points="1155,-844 1031,-844 1031,-808 1155,-808 1155,-844"/>
<text text-anchor="middle" x="1093" y="-823.1" font-family="Courier,monospace" font-size="11.00">LinkButtonHelper</text>
</g>
<!-- \\LinkButtonHelper&#45;&gt;\\FormHelper -->
<g id="edge71" class="edge"><title>\\LinkButtonHelper&#45;&gt;\\FormHelper</title>
<path fill="none" stroke="black" d="M1030.3,-821.541C1015.2,-817.523 1000.43,-810.629 990,-799 844.8,-637.094 1065.73,-474.605 918,-315 908.083,-304.286 894.859,-297.398 880.853,-293.049"/>
<polygon fill="none" stroke="black" points="881.628,-289.634 871.063,-290.429 879.818,-296.396 881.628,-289.634"/>
</g>
<!-- \\NetCommonsTimeHelper -->
<g id="node43" class="node"><title>\\NetCommonsTimeHelper</title>
<polygon fill="none" stroke="black" points="1169,-1978 1017,-1978 1017,-1942 1169,-1942 1169,-1978"/>
<text text-anchor="middle" x="1093" y="-1957.1" font-family="Courier,monospace" font-size="11.00">NetCommonsTimeHelper</text>
</g>
<!-- \\NetCommonsTimeHelper&#45;&gt;\\AppHelper -->
<g id="edge73" class="edge"><title>\\NetCommonsTimeHelper&#45;&gt;\\AppHelper</title>
<path fill="none" stroke="black" d="M1023.41,-1978.03C1012.23,-1980.99 1000.79,-1984.05 990,-1987 941.716,-2000.19 886.728,-2015.89 848.375,-2026.96"/>
<polygon fill="none" stroke="black" points="847.145,-2023.67 838.508,-2029.8 849.087,-2030.39 847.145,-2023.67"/>
</g>
<!-- \\NetCommonsFormHelper -->
<g id="node44" class="node"><title>\\NetCommonsFormHelper</title>
<polygon fill="none" stroke="black" points="1169,-1708 1017,-1708 1017,-1672 1169,-1672 1169,-1708"/>
<text text-anchor="middle" x="1093" y="-1687.1" font-family="Courier,monospace" font-size="11.00">NetCommonsFormHelper</text>
</g>
<!-- \\NetCommonsFormHelper&#45;&gt;\\AppHelper -->
<g id="edge75" class="edge"><title>\\NetCommonsFormHelper&#45;&gt;\\AppHelper</title>
<path fill="none" stroke="black" d="M1016.94,-1702.54C1007.31,-1706.2 998.03,-1710.92 990,-1717 885.624,-1796.08 828.084,-1950.47 808.129,-2013.35"/>
<polygon fill="none" stroke="black" points="804.764,-2012.39 805.144,-2022.97 811.45,-2014.46 804.764,-2012.39"/>
</g>
<!-- \\TitleIconHelper -->
<g id="node45" class="node"><title>\\TitleIconHelper</title>
<polygon fill="none" stroke="black" points="1152,-1654 1034,-1654 1034,-1618 1152,-1618 1152,-1654"/>
<text text-anchor="middle" x="1093" y="-1633.1" font-family="Courier,monospace" font-size="11.00">TitleIconHelper</text>
</g>
<!-- \\TitleIconHelper&#45;&gt;\\AppHelper -->
<g id="edge77" class="edge"><title>\\TitleIconHelper&#45;&gt;\\AppHelper</title>
<path fill="none" stroke="black" d="M1033.94,-1642.53C1018.4,-1646.52 1002.5,-1652.88 990,-1663 873.272,-1757.53 821.79,-1942.25 805.802,-2012.74"/>
<polygon fill="none" stroke="black" points="802.349,-2012.15 803.616,-2022.67 809.185,-2013.65 802.349,-2012.15"/>
</g>
<!-- \\DatetimePickerHelper -->
<g id="node46" class="node"><title>\\DatetimePickerHelper</title>
<polygon fill="none" stroke="black" points="1169,-1600 1017,-1600 1017,-1564 1169,-1564 1169,-1600"/>
<text text-anchor="middle" x="1093" y="-1579.1" font-family="Courier,monospace" font-size="11.00">DatetimePickerHelper</text>
</g>
<!-- \\DatetimePickerHelper&#45;&gt;\\AppHelper -->
<g id="edge79" class="edge"><title>\\DatetimePickerHelper&#45;&gt;\\AppHelper</title>
<path fill="none" stroke="black" d="M1016.79,-1593.49C1007.07,-1597.3 997.805,-1602.34 990,-1609 860.231,-1719.73 815.867,-1936.1 803.825,-2013.03"/>
<polygon fill="none" stroke="black" points="800.362,-2012.52 802.335,-2022.93 807.284,-2013.57 800.362,-2012.52"/>
</g>
<!-- \\Model -->
<g id="node106" class="node"><title>\\Model</title>
<ellipse fill="none" stroke="black" cx="44" cy="-2689" rx="43.8406" ry="18.3848"/>
<text text-anchor="middle" x="44" y="-2685.4" font-family="Times Roman,serif" font-size="14.00" fill="gray">\Model</text>
</g>
<!-- \\NetCommonsAppModel&#45;&gt;\\Model -->
<g id="edge81" class="edge"><title>\\NetCommonsAppModel&#45;&gt;\\Model</title>
<path fill="none" stroke="black" d="M172.749,-2689C148.379,-2689 121.357,-2689 98.3871,-2689"/>
<polygon fill="none" stroke="black" points="98.1425,-2685.5 88.1425,-2689 98.1424,-2692.5 98.1425,-2685.5"/>
</g>
<!-- \\OriginalKeyBehavior -->
<g id="node48" class="node"><title>\\OriginalKeyBehavior</title>
<polygon fill="none" stroke="black" points="1165,-628 1021,-628 1021,-592 1165,-592 1165,-628"/>
<text text-anchor="middle" x="1093" y="-607.1" font-family="Courier,monospace" font-size="11.00">OriginalKeyBehavior</text>
</g>
<!-- \\ModelBehavior -->
<g id="node108" class="node"><title>\\ModelBehavior</title>
<ellipse fill="none" stroke="black" cx="800" cy="-180" rx="86.9741" ry="18.3848"/>
<text text-anchor="middle" x="800" y="-176.4" font-family="Times Roman,serif" font-size="14.00" fill="gray">\ModelBehavior</text>
</g>
<!-- \\OriginalKeyBehavior&#45;&gt;\\ModelBehavior -->
<g id="edge83" class="edge"><title>\\OriginalKeyBehavior&#45;&gt;\\ModelBehavior</title>
<path fill="none" stroke="black" d="M1020.25,-601.995C1008.89,-597.838 998.206,-591.777 990,-583 873.795,-458.716 1036.14,-329.443 918,-207 910.646,-199.379 901.615,-193.712 891.852,-189.525"/>
<polygon fill="none" stroke="black" points="892.89,-186.176 882.298,-185.949 890.436,-192.732 892.89,-186.176"/>
</g>
<!-- \\TrackableBehavior -->
<g id="node49" class="node"><title>\\TrackableBehavior</title>
<polygon fill="none" stroke="black" points="1158,-682 1028,-682 1028,-646 1158,-646 1158,-682"/>
<text text-anchor="middle" x="1093" y="-661.1" font-family="Courier,monospace" font-size="11.00">TrackableBehavior</text>
</g>
<!-- \\TrackableBehavior&#45;&gt;\\ModelBehavior -->
<g id="edge85" class="edge"><title>\\TrackableBehavior&#45;&gt;\\ModelBehavior</title>
<path fill="none" stroke="black" d="M1027.5,-658.591C1013.43,-654.482 999.849,-647.783 990,-637 859.318,-493.927 1050.91,-348.002 918,-207 910.736,-199.293 901.758,-193.575 892.025,-189.36"/>
<polygon fill="none" stroke="black" points="893.083,-186.019 882.491,-185.764 890.613,-192.568 893.083,-186.019"/>
</g>
<!-- \\YAExceptionRenderer -->
<g id="node50" class="node"><title>\\YAExceptionRenderer</title>
<polygon fill="none" stroke="black" points="1165,-574 1021,-574 1021,-538 1165,-538 1165,-574"/>
<text text-anchor="middle" x="1093" y="-553.1" font-family="Courier,monospace" font-size="11.00">YAExceptionRenderer</text>
</g>
<!-- \\ExceptionRenderer -->
<g id="node111" class="node"><title>\\ExceptionRenderer</title>
<ellipse fill="none" stroke="black" cx="800" cy="-126" rx="118.087" ry="18.3848"/>
<text text-anchor="middle" x="800" y="-122.4" font-family="Times Roman,serif" font-size="14.00" fill="gray">TEHxceptionRenderer</text>
</g>
<!-- \\YAExceptionRenderer&#45;&gt;\\ExceptionRenderer -->
<g id="edge87" class="edge"><title>\\YAExceptionRenderer&#45;&gt;\\ExceptionRenderer</title>
<path fill="none" stroke="black" d="M1020.25,-547.995C1008.89,-543.838 998.206,-537.777 990,-529 873.795,-404.716 1036.14,-275.443 918,-153 913.747,-148.592 908.932,-144.837 903.739,-141.645"/>
<polygon fill="none" stroke="black" points="905.142,-138.426 894.675,-136.787 901.836,-144.596 905.142,-138.426"/>
</g>
<!-- \\NetCommonsMigration -->
<g id="node51" class="node"><title>\\NetCommonsMigration</title>
<polygon fill="none" stroke="black" points="872,-1227 728,-1227 728,-1191 872,-1191 872,-1227"/>
<text text-anchor="middle" x="800" y="-1206.1" font-family="Courier,monospace" font-size="11.00">NetCommonsMigration</text>
</g>
<!-- \\CakeMigration -->
<g id="node113" class="node"><title>\\CakeMigration</title>
<ellipse fill="none" stroke="black" cx="503" cy="-234" rx="84.8528" ry="18.3848"/>
<text text-anchor="middle" x="503" y="-230.4" font-family="Times Roman,serif" font-size="14.00" fill="gray">\CakeMigration</text>
</g>
<!-- \\NetCommonsMigration&#45;&gt;\\CakeMigration -->
<g id="edge89" class="edge"><title>\\NetCommonsMigration&#45;&gt;\\CakeMigration</title>
<path fill="none" stroke="black" d="M727.314,-1210.12C710.227,-1206.78 693.63,-1199.94 682,-1187 544.046,-1033.48 743.062,-418.782 610,-261 604.616,-254.615 597.962,-249.622 590.628,-245.732"/>
<polygon fill="none" stroke="black" points="591.571,-242.316 581.019,-241.372 588.679,-248.691 591.571,-242.316"/>
</g>
<!-- \\Box -->
<g id="node52" class="node"><title>\\Box</title>
<polygon fill="none" stroke="black" points="1120,-2734 1066,-2734 1066,-2698 1120,-2698 1120,-2734"/>
<text text-anchor="middle" x="1093" y="-2713.1" font-family="Courier,monospace" font-size="11.00">Box</text>
</g>
<!-- \\BoxesAppModel -->
<g id="node54" class="node"><title>\\BoxesAppModel</title>
<polygon fill="none" stroke="black" points="852,-2680 748,-2680 748,-2644 852,-2644 852,-2680"/>
<text text-anchor="middle" x="800" y="-2659.1" font-family="Courier,monospace" font-size="11.00">BoxesAppModel</text>
</g>
<!-- \\Box&#45;&gt;\\BoxesAppModel -->
<g id="edge91" class="edge"><title>\\Box&#45;&gt;\\BoxesAppModel</title>
<path fill="none" stroke="black" d="M1065.96,-2711.02C1019.9,-2702.53 925.102,-2685.06 862.03,-2673.43"/>
<polygon fill="none" stroke="black" points="862.661,-2669.99 852.193,-2671.62 861.392,-2676.87 862.661,-2669.99"/>
</g>
<!-- \\BoxesPage -->
<g id="node53" class="node"><title>\\BoxesPage</title>
<polygon fill="none" stroke="black" points="1131,-520 1055,-520 1055,-484 1131,-484 1131,-520"/>
<text text-anchor="middle" x="1093" y="-499.1" font-family="Courier,monospace" font-size="11.00">BoxesPage</text>
</g>
<!-- \\PagesAppModel -->
<g id="node116" class="node"><title>\\PagesAppModel</title>
<ellipse fill="none" stroke="black" cx="800" cy="-72" rx="90.0096" ry="18.3848"/>
<text text-anchor="middle" x="800" y="-68.4" font-family="Times Roman,serif" font-size="14.00" fill="gray">\PagesAppModel</text>
</g>
<!-- \\BoxesPage&#45;&gt;\\PagesAppModel -->
<g id="edge93" class="edge"><title>\\BoxesPage&#45;&gt;\\PagesAppModel</title>
<path fill="none" stroke="black" d="M1054.38,-501.547C1032.52,-499.191 1006.35,-492.487 990,-475 873.795,-350.716 1036.14,-221.443 918,-99 911.177,-91.9286 902.91,-86.5397 893.954,-82.4544"/>
<polygon fill="none" stroke="black" points="894.988,-79.0992 884.403,-78.6533 892.4,-85.6031 894.988,-79.0992"/>
</g>
<!-- \\BoxesAppModel&#45;&gt;\\AppModel -->
<g id="edge95" class="edge"><title>\\BoxesAppModel&#45;&gt;\\AppModel</title>
<path fill="none" stroke="black" d="M747.927,-2666.73C691.623,-2671.85 602.737,-2679.93 548.944,-2684.82"/>
<polygon fill="none" stroke="black" points="548.316,-2681.37 538.673,-2685.76 548.949,-2688.34 548.316,-2681.37"/>
</g>
<!-- \\BoxesSchema -->
<g id="node55" class="node"><title>\\BoxesSchema</title>
<polygon fill="none" stroke="black" points="1138,-466 1048,-466 1048,-430 1138,-430 1138,-466"/>
<text text-anchor="middle" x="1093" y="-445.1" font-family="Courier,monospace" font-size="11.00">BoxesSchema</text>
</g>
<!-- \\CakeSchema -->
<g id="node119" class="node"><title>\\CakeSchema</title>
<ellipse fill="none" stroke="black" cx="800" cy="-18" rx="77.0746" ry="18.3848"/>
<text text-anchor="middle" x="800" y="-14.4" font-family="Times Roman,serif" font-size="14.00" fill="gray">\CakeSchema</text>
</g>
<!-- \\BoxesSchema&#45;&gt;\\CakeSchema -->
<g id="edge97" class="edge"><title>\\BoxesSchema&#45;&gt;\\CakeSchema</title>
<path fill="none" stroke="black" d="M1090.86,-429.713C1082.37,-365.789 1045.04,-150.503 918,-45 907.886,-36.6012 895.67,-30.6949 882.982,-26.5644"/>
<polygon fill="none" stroke="black" points="883.793,-23.1556 873.214,-23.74 881.848,-29.8801 883.793,-23.1556"/>
</g>
<!-- \\Init -->
<g id="node56" class="node"><title>\\Init</title>
<polygon fill="none" stroke="black" points="1120,-1222 1066,-1222 1066,-1186 1120,-1186 1120,-1222"/>
<text text-anchor="middle" x="1093" y="-1201.1" font-family="Courier,monospace" font-size="11.00">Init</text>
</g>
<!-- \\Init&#45;&gt;\\CakeMigration -->
<g id="edge99" class="edge"><title>\\Init&#45;&gt;\\CakeMigration</title>
<path fill="none" stroke="black" d="M1065.87,-1204.35C1042.5,-1203.12 1009.52,-1197.47 990,-1177 883.414,-1065.21 972.903,-981.375 918,-837 842.717,-639.035 777.573,-612.007 682,-423 646.446,-352.687 670.269,-311.751 610,-261 602.951,-255.064 594.773,-250.406 586.139,-246.754"/>
<polygon fill="none" stroke="black" points="587.216,-243.42 576.624,-243.174 584.751,-249.971 587.216,-243.42"/>
</g>
<!-- \\BoxRecords -->
<g id="node57" class="node"><title>\\BoxRecords</title>
<polygon fill="none" stroke="black" points="1135,-1330 1051,-1330 1051,-1294 1135,-1294 1135,-1330"/>
<text text-anchor="middle" x="1093" y="-1309.1" font-family="Courier,monospace" font-size="11.00">BoxRecords</text>
</g>
<!-- \\BoxRecords&#45;&gt;\\NetCommonsMigration -->
<g id="edge101" class="edge"><title>\\BoxRecords&#45;&gt;\\NetCommonsMigration</title>
<path fill="none" stroke="black" d="M1050.56,-1302.13C1031.84,-1297.46 1009.66,-1291.48 990,-1285 941.787,-1269.11 888.201,-1247.28 850.261,-1231.09"/>
<polygon fill="none" stroke="black" points="851.536,-1227.83 840.966,-1227.1 848.777,-1234.26 851.536,-1227.83"/>
</g>
</g>
</svg>
