<?xml version="1.0" encoding="UTF-8" standalone="no"?>
<!DOCTYPE svg PUBLIC "-//W3C//DTD SVG 1.1//EN"
 "http://www.w3.org/Graphics/SVG/1.1/DTD/svg11.dtd">
<!-- Generated by graphviz version 2.26.3 (20100126.1600)
 -->
<!-- Title: G Pages: 1 -->
<svg width="1220pt" height="2942pt"
 viewBox="0.00 0.00 1220.00 2942.00" xmlns="http://www.w3.org/2000/svg" xmlns:xlink="http://www.w3.org/1999/xlink">
<g id="graph1" class="graph" transform="scale(1 1) rotate(0) translate(4 2938)">
<title>G</title>
<polygon fill="white" stroke="white" points="-4,5 -4,-2938 1217,-2938 1217,5 -4,5"/>
<g id="graph2" class="cluster"><title>cluster_Global</title>
<polyline fill="none" stroke="gray" points="177,-422 1192,-422 "/>
<path fill="none" stroke="gray" d="M1192,-422C1198,-422 1204,-428 1204,-434"/>
<polyline fill="none" stroke="gray" points="1204,-434 1204,-2914 "/>
<path fill="none" stroke="gray" d="M1204,-2914C1204,-2920 1198,-2926 1192,-2926"/>
<polyline fill="none" stroke="gray" points="1192,-2926 177,-2926 "/>
<path fill="none" stroke="gray" d="M177,-2926C171,-2926 165,-2920 165,-2914"/>
<polyline fill="none" stroke="gray" points="165,-2914 165,-434 "/>
<path fill="none" stroke="gray" d="M165,-434C165,-428 171,-422 177,-422"/>
<text text-anchor="middle" x="684.5" y="-2912.1" font-family="Times Roman,serif" font-size="11.00" fill="gray">Global</text>
</g>
<!-- \\AppController -->
<g id="node2" class="node"><title>\\AppController</title>
<polygon fill="none" stroke="black" points="1145,-1330 1041,-1330 1041,-1294 1145,-1294 1145,-1330"/>
<text text-anchor="middle" x="1093" y="-1309.1" font-family="Courier,monospace" font-size="11.00">AppController</text>
</g>
<!-- \\Controller -->
<g id="node62" class="node"><title>\\Controller</title>
<ellipse fill="none" stroke="black" cx="503" cy="-288" rx="63.1385" ry="18.3848"/>
<text text-anchor="middle" x="503" y="-284.4" font-family="Times Roman,serif" font-size="14.00" fill="gray">\Controller</text>
</g>
<!-- \\AppController&#45;&gt;\\Controller -->
<g id="edge3" class="edge"><title>\\AppController&#45;&gt;\\Controller</title>
<path fill="none" stroke="black" d="M1040.84,-1305.49C1023.58,-1301.54 1004.97,-1295.2 990,-1285 894.182,-1219.76 725.105,-971.607 682,-864 590.49,-635.558 773.561,-498.869 610,-315 600.881,-304.748 588.489,-298.119 575.371,-293.889"/>
<polygon fill="none" stroke="black" points="576.298,-290.514 565.726,-291.214 574.427,-297.259 576.298,-290.514"/>
</g>
<!-- \\AppModel -->
<g id="node3" class="node"><title>\\AppModel</title>
<polygon fill="none" stroke="black" points="538,-2869 468,-2869 468,-2833 538,-2833 538,-2869"/>
<text text-anchor="middle" x="503" y="-2848.1" font-family="Courier,monospace" font-size="11.00">AppModel</text>
</g>
<!-- \\NetCommonsAppModel -->
<g id="node50" class="node"><title>\\NetCommonsAppModel</title>
<polygon fill="none" stroke="black" points="311,-2869 173,-2869 173,-2833 311,-2833 311,-2869"/>
<text text-anchor="middle" x="242" y="-2848.1" font-family="Courier,monospace" font-size="11.00">NetCommonsAppModel</text>
</g>
<!-- \\AppModel&#45;&gt;\\NetCommonsAppModel -->
<g id="edge5" class="edge"><title>\\AppModel&#45;&gt;\\NetCommonsAppModel</title>
<path fill="none" stroke="black" d="M467.256,-2851C429.848,-2851 369.903,-2851 321.254,-2851"/>
<polygon fill="none" stroke="black" points="321.056,-2847.5 311.056,-2851 321.056,-2854.5 321.056,-2847.5"/>
</g>
<!-- \\DatabaseConfiguration -->
<g id="node4" class="node"><title>\\DatabaseConfiguration</title>
<polygon fill="none" stroke="black" points="879,-2896 721,-2896 721,-2860 879,-2860 879,-2896"/>
<text text-anchor="middle" x="800" y="-2875.1" font-family="Courier,monospace" font-size="11.00">DatabaseConfiguration</text>
</g>
<!-- \\DatabaseConfiguration&#45;&gt;\\AppModel -->
<g id="edge7" class="edge"><title>\\DatabaseConfiguration&#45;&gt;\\AppModel</title>
<path fill="none" stroke="black" d="M720.8,-2870.8C665.959,-2865.81 594.863,-2859.35 549.084,-2855.19"/>
<polygon fill="none" stroke="black" points="549.143,-2851.68 538.867,-2854.26 548.509,-2858.65 549.143,-2851.68"/>
</g>
<!-- \\AppHelper -->
<g id="node5" class="node"><title>\\AppHelper</title>
<polygon fill="none" stroke="black" points="838,-2248 762,-2248 762,-2212 838,-2212 838,-2248"/>
<text text-anchor="middle" x="800" y="-2227.1" font-family="Courier,monospace" font-size="11.00">AppHelper</text>
</g>
<!-- \\Helper -->
<g id="node66" class="node"><title>\\Helper</title>
<ellipse fill="none" stroke="black" cx="503" cy="-396" rx="43.8406" ry="18.3848"/>
<text text-anchor="middle" x="503" y="-392.4" font-family="Times Roman,serif" font-size="14.00" fill="gray">Helper</text>
</g>
<!-- \\AppHelper&#45;&gt;\\Helper -->
<g id="edge9" class="edge"><title>\\AppHelper&#45;&gt;\\Helper</title>
<path fill="none" stroke="black" d="M795.669,-2211.85C778.147,-2137.61 712.016,-1849.66 682,-1609 665.592,-1477.44 696.838,-518.176 610,-418 596.883,-402.868 576.382,-396.476 556.821,-394.189"/>
<polygon fill="none" stroke="black" points="556.978,-390.69 546.721,-393.342 556.394,-397.665 556.978,-390.69"/>
</g>
<!-- \\NetCommonsDeleteTest -->
<g id="node6" class="node"><title>\\NetCommonsDeleteTest</title>
<polygon fill="none" stroke="black" points="1169,-2788 1017,-2788 1017,-2752 1169,-2752 1169,-2788"/>
<text text-anchor="middle" x="1093" y="-2767.1" font-family="Courier,monospace" font-size="11.00">NetCommonsDeleteTest</text>
</g>
<!-- \\NetCommonsModelTestCase -->
<g id="node15" class="node"><title>\\NetCommonsModelTestCase</title>
<polygon fill="none" stroke="black" points="886,-2734 714,-2734 714,-2698 886,-2698 886,-2734"/>
<text text-anchor="middle" x="800" y="-2713.1" font-family="Courier,monospace" font-size="11.00">NetCommonsModelTestCase</text>
</g>
<!-- \\NetCommonsDeleteTest&#45;&gt;\\NetCommonsModelTestCase -->
<g id="edge11" class="edge"><title>\\NetCommonsDeleteTest&#45;&gt;\\NetCommonsModelTestCase</title>
<path fill="none" stroke="black" d="M1016.78,-2755.95C979.893,-2749.15 935.211,-2740.92 896.02,-2733.7"/>
<polygon fill="none" stroke="black" points="896.652,-2730.25 886.183,-2731.88 895.383,-2737.14 896.652,-2730.25"/>
</g>
<!-- \\NetCommonsConsoleTestCase -->
<g id="node7" class="node"><title>\\NetCommonsConsoleTestCase</title>
<polygon fill="none" stroke="black" points="892,-2518 708,-2518 708,-2482 892,-2482 892,-2518"/>
<text text-anchor="middle" x="800" y="-2497.1" font-family="Courier,monospace" font-size="11.00">NetCommonsConsoleTestCase</text>
</g>
<!-- \\NetCommonsCakeTestCase -->
<g id="node13" class="node"><title>\\NetCommonsCakeTestCase</title>
<polygon fill="none" stroke="black" points="585,-2491 421,-2491 421,-2455 585,-2455 585,-2491"/>
<text text-anchor="middle" x="503" y="-2470.1" font-family="Courier,monospace" font-size="11.00">NetCommonsCakeTestCase</text>
</g>
<!-- \\NetCommonsConsoleTestCase&#45;&gt;\\NetCommonsCakeTestCase -->
<g id="edge13" class="edge"><title>\\NetCommonsConsoleTestCase&#45;&gt;\\NetCommonsCakeTestCase</title>
<path fill="none" stroke="black" d="M707.249,-2491.57C671.93,-2488.36 631.688,-2484.7 596.316,-2481.48"/>
<polygon fill="none" stroke="black" points="596.269,-2477.96 585.993,-2480.54 595.635,-2484.94 596.269,-2477.96"/>
</g>
<!-- \\NetCommonsGetTest -->
<g id="node8" class="node"><title>\\NetCommonsGetTest</title>
<polygon fill="none" stroke="black" points="1158,-2734 1028,-2734 1028,-2698 1158,-2698 1158,-2734"/>
<text text-anchor="middle" x="1093" y="-2713.1" font-family="Courier,monospace" font-size="11.00">NetCommonsGetTest</text>
</g>
<!-- \\NetCommonsGetTest&#45;&gt;\\NetCommonsModelTestCase -->
<g id="edge15" class="edge"><title>\\NetCommonsGetTest&#45;&gt;\\NetCommonsModelTestCase</title>
<path fill="none" stroke="black" d="M1027.25,-2716C988.664,-2716 939.217,-2716 896.305,-2716"/>
<polygon fill="none" stroke="black" points="896.12,-2712.5 886.12,-2716 896.12,-2719.5 896.12,-2712.5"/>
</g>
<!-- \\NetCommonsHelperTestCase -->
<g id="node9" class="node"><title>\\NetCommonsHelperTestCase</title>
<polygon fill="none" stroke="black" points="889,-2464 711,-2464 711,-2428 889,-2428 889,-2464"/>
<text text-anchor="middle" x="800" y="-2443.1" font-family="Courier,monospace" font-size="11.00">NetCommonsHelperTestCase</text>
</g>
<!-- \\NetCommonsHelperTestCase&#45;&gt;\\NetCommonsCakeTestCase -->
<g id="edge17" class="edge"><title>\\NetCommonsHelperTestCase&#45;&gt;\\NetCommonsCakeTestCase</title>
<path fill="none" stroke="black" d="M710.487,-2454.14C674.267,-2457.43 632.456,-2461.23 595.9,-2464.55"/>
<polygon fill="none" stroke="black" points="595.379,-2461.09 585.737,-2465.48 596.013,-2468.06 595.379,-2461.09"/>
</g>
<!-- \\NetCommonsControllerBaseTestCase -->
<g id="node10" class="node"><title>\\NetCommonsControllerBaseTestCase</title>
<polygon fill="none" stroke="black" points="916,-1519 684,-1519 684,-1483 916,-1483 916,-1519"/>
<text text-anchor="middle" x="800" y="-1498.1" font-family="Courier,monospace" font-size="11.00">NetCommonsControllerBaseTestCase</text>
</g>
<!-- \\ControllerTestCase -->
<g id="node72" class="node"><title>\\ControllerTestCase</title>
<ellipse fill="none" stroke="black" cx="503" cy="-342" rx="106.773" ry="18.3848"/>
<text text-anchor="middle" x="503" y="-338.4" font-family="Times Roman,serif" font-size="14.00" fill="gray">\ControllerTestCase</text>
</g>
<!-- \\NetCommonsControllerBaseTestCase&#45;&gt;\\ControllerTestCase -->
<g id="edge19" class="edge"><title>\\NetCommonsControllerBaseTestCase&#45;&gt;\\ControllerTestCase</title>
<path fill="none" stroke="black" d="M729.103,-1482.97C710.924,-1474.93 693.326,-1463.41 682,-1447 545.613,-1249.41 763.778,-553.378 610,-369 606.395,-364.678 602.209,-360.992 597.622,-357.854"/>
<polygon fill="none" stroke="black" points="599.368,-354.82 588.972,-352.777 595.824,-360.857 599.368,-354.82"/>
</g>
<!-- \\NetCommonsValidateTest -->
<g id="node11" class="node"><title>\\NetCommonsValidateTest</title>
<polygon fill="none" stroke="black" points="1175,-2680 1011,-2680 1011,-2644 1175,-2644 1175,-2680"/>
<text text-anchor="middle" x="1093" y="-2659.1" font-family="Courier,monospace" font-size="11.00">NetCommonsValidateTest</text>
</g>
<!-- \\NetCommonsValidateTest&#45;&gt;\\NetCommonsModelTestCase -->
<g id="edge21" class="edge"><title>\\NetCommonsValidateTest&#45;&gt;\\NetCommonsModelTestCase</title>
<path fill="none" stroke="black" d="M1010.21,-2677.26C974.791,-2683.79 933.196,-2691.45 896.397,-2698.23"/>
<polygon fill="none" stroke="black" points="895.354,-2694.87 886.154,-2700.12 896.623,-2701.75 895.354,-2694.87"/>
</g>
<!-- \\NetCommonsTestSuite -->
<g id="node12" class="node"><title>\\NetCommonsTestSuite</title>
<polygon fill="none" stroke="black" points="1165,-1222 1021,-1222 1021,-1186 1165,-1186 1165,-1222"/>
<text text-anchor="middle" x="1093" y="-1201.1" font-family="Courier,monospace" font-size="11.00">NetCommonsTestSuite</text>
</g>
<!-- \\CakeTestSuite -->
<g id="node75" class="node"><title>\\CakeTestSuite</title>
<ellipse fill="none" stroke="black" cx="800" cy="-396" rx="84.1457" ry="18.3848"/>
<text text-anchor="middle" x="800" y="-392.4" font-family="Times Roman,serif" font-size="14.00" fill="gray">\CakeTestSuite</text>
</g>
<!-- \\NetCommonsTestSuite&#45;&gt;\\CakeTestSuite -->
<g id="edge23" class="edge"><title>\\NetCommonsTestSuite&#45;&gt;\\CakeTestSuite</title>
<path fill="none" stroke="black" d="M1020.33,-1196.92C1008.74,-1192.69 997.962,-1186.37 990,-1177 880.272,-1047.91 1032.31,-543.054 918,-418 911.146,-410.501 902.623,-405.061 893.316,-401.167"/>
<polygon fill="none" stroke="black" points="894.374,-397.828 883.78,-397.769 892.025,-404.422 894.374,-397.828"/>
</g>
<!-- \\CakeTestCase -->
<g id="node77" class="node"><title>\\CakeTestCase</title>
<ellipse fill="none" stroke="black" cx="242" cy="-396" rx="82.0244" ry="18.3848"/>
<text text-anchor="middle" x="242" y="-392.4" font-family="Times Roman,serif" font-size="14.00" fill="gray">\CakeTestCase</text>
</g>
<!-- \\NetCommonsCakeTestCase&#45;&gt;\\CakeTestCase -->
<g id="edge25" class="edge"><title>\\NetCommonsCakeTestCase&#45;&gt;\\CakeTestCase</title>
<path fill="none" stroke="black" d="M420.361,-2468.03C411.035,-2464.22 402.55,-2458.75 396,-2451 250.092,-2278.37 464.723,-594.881 324,-418 322.314,-415.881 320.447,-413.952 318.435,-412.198"/>
<polygon fill="none" stroke="black" points="320.211,-409.168 310.023,-406.262 316.176,-414.887 320.211,-409.168"/>
</g>
<!-- \\NetCommonsSaveTest -->
<g id="node14" class="node"><title>\\NetCommonsSaveTest</title>
<polygon fill="none" stroke="black" points="1162,-2842 1024,-2842 1024,-2806 1162,-2806 1162,-2842"/>
<text text-anchor="middle" x="1093" y="-2821.1" font-family="Courier,monospace" font-size="11.00">NetCommonsSaveTest</text>
</g>
<!-- \\NetCommonsSaveTest&#45;&gt;\\NetCommonsModelTestCase -->
<g id="edge27" class="edge"><title>\\NetCommonsSaveTest&#45;&gt;\\NetCommonsModelTestCase</title>
<path fill="none" stroke="black" d="M1023.88,-2807.38C1012.48,-2804.21 1000.84,-2800.71 990,-2797 940.27,-2779.98 885.199,-2755.9 847.206,-2738.42"/>
<polygon fill="none" stroke="black" points="848.474,-2735.15 837.929,-2734.12 845.534,-2741.5 848.474,-2735.15"/>
</g>
<!-- \\NetCommonsModelTestCase&#45;&gt;\\NetCommonsCakeTestCase -->
<g id="edge29" class="edge"><title>\\NetCommonsModelTestCase&#45;&gt;\\NetCommonsCakeTestCase</title>
<path fill="none" stroke="black" d="M777.677,-2697.74C724.98,-2654.62 592.808,-2546.48 533.105,-2497.63"/>
<polygon fill="none" stroke="black" points="535.133,-2494.77 525.177,-2491.14 530.7,-2500.19 535.133,-2494.77"/>
</g>
<!-- \\NetCommonsControllerTestCase -->
<g id="node16" class="node"><title>\\NetCommonsControllerTestCase</title>
<polygon fill="none" stroke="black" points="1196,-1546 990,-1546 990,-1510 1196,-1510 1196,-1546"/>
<text text-anchor="middle" x="1093" y="-1525.1" font-family="Courier,monospace" font-size="11.00">NetCommonsControllerTestCase</text>
</g>
<!-- \\NetCommonsControllerTestCase&#45;&gt;\\NetCommonsControllerBaseTestCase -->
<g id="edge31" class="edge"><title>\\NetCommonsControllerTestCase&#45;&gt;\\NetCommonsControllerBaseTestCase</title>
<path fill="none" stroke="black" d="M989.699,-1518.48C969.289,-1516.6 947.65,-1514.61 926.571,-1512.66"/>
<polygon fill="none" stroke="black" points="926.885,-1509.18 916.606,-1511.75 926.243,-1516.15 926.885,-1509.18"/>
</g>
<!-- \\NetCommonsAppController -->
<g id="node17" class="node"><title>\\NetCommonsAppController</title>
<polygon fill="none" stroke="black" points="886,-1438 714,-1438 714,-1402 886,-1402 886,-1438"/>
<text text-anchor="middle" x="800" y="-1417.1" font-family="Courier,monospace" font-size="11.00">NetCommonsAppController</text>
</g>
<!-- \\NetCommonsAppController&#45;&gt;\\Controller -->
<g id="edge33" class="edge"><title>\\NetCommonsAppController&#45;&gt;\\Controller</title>
<path fill="none" stroke="black" d="M777.384,-1401.96C749.362,-1378.1 702.779,-1333.17 682,-1283 599.466,-1083.71 748.785,-480.129 610,-315 601.122,-304.437 588.771,-297.681 575.604,-293.425"/>
<polygon fill="none" stroke="black" points="576.48,-290.036 565.909,-290.749 574.618,-296.784 576.48,-290.036"/>
</g>
<!-- \\AssetComponent -->
<g id="node18" class="node"><title>\\AssetComponent</title>
<polygon fill="none" stroke="black" points="1148,-1060 1038,-1060 1038,-1024 1148,-1024 1148,-1060"/>
<text text-anchor="middle" x="1093" y="-1039.1" font-family="Courier,monospace" font-size="11.00">AssetComponent</text>
</g>
<!-- \\Component -->
<g id="node83" class="node"><title>\\Component</title>
<ellipse fill="none" stroke="black" cx="800" cy="-342" rx="70.9184" ry="18.3848"/>
<text text-anchor="middle" x="800" y="-338.4" font-family="Times Roman,serif" font-size="14.00" fill="gray">\Component</text>
</g>
<!-- \\AssetComponent&#45;&gt;\\Component -->
<g id="edge35" class="edge"><title>\\AssetComponent&#45;&gt;\\Component</title>
<path fill="none" stroke="black" d="M1037.26,-1039.5C1019.72,-1035.88 1001.85,-1028.71 990,-1015 801.099,-796.429 1110.31,-584.576 918,-369 908.225,-358.042 894.994,-351.054 880.924,-346.686"/>
<polygon fill="none" stroke="black" points="881.644,-343.256 871.08,-344.064 879.842,-350.02 881.644,-343.256"/>
</g>
<!-- \\AccessCtrlComponent -->
<g id="node19" class="node"><title>\\AccessCtrlComponent</title>
<polygon fill="none" stroke="black" points="1165,-1006 1021,-1006 1021,-970 1165,-970 1165,-1006"/>
<text text-anchor="middle" x="1093" y="-985.1" font-family="Courier,monospace" font-size="11.00">AccessCtrlComponent</text>
</g>
<!-- \\AccessCtrlComponent&#45;&gt;\\Component -->
<g id="edge37" class="edge"><title>\\AccessCtrlComponent&#45;&gt;\\Component</title>
<path fill="none" stroke="black" d="M1020.27,-980.647C1008.76,-976.437 998.024,-970.191 990,-961 815.683,-761.337 1095.43,-565.899 918,-369 908.227,-358.155 895.069,-351.207 881.082,-346.841"/>
<polygon fill="none" stroke="black" points="881.864,-343.426 871.298,-344.214 880.049,-350.187 881.864,-343.426"/>
</g>
<!-- \\NetCommonsTimeComponent -->
<g id="node20" class="node"><title>\\NetCommonsTimeComponent</title>
<polygon fill="none" stroke="black" points="1179,-952 1007,-952 1007,-916 1179,-916 1179,-952"/>
<text text-anchor="middle" x="1093" y="-931.1" font-family="Courier,monospace" font-size="11.00">NetCommonsTimeComponent</text>
</g>
<!-- \\NetCommonsTimeComponent&#45;&gt;\\Component -->
<g id="edge39" class="edge"><title>\\NetCommonsTimeComponent&#45;&gt;\\Component</title>
<path fill="none" stroke="black" d="M1006.73,-920.334C1000.48,-916.785 994.774,-912.402 990,-907 830.252,-726.227 1080.57,-547.24 918,-369 908.162,-358.213 894.974,-351.293 880.979,-346.934"/>
<polygon fill="none" stroke="black" points="881.757,-343.519 871.192,-344.31 879.944,-350.281 881.757,-343.519"/>
</g>
<!-- \\PermissionComponent -->
<g id="node21" class="node"><title>\\PermissionComponent</title>
<polygon fill="none" stroke="black" points="1165,-1168 1021,-1168 1021,-1132 1165,-1132 1165,-1168"/>
<text text-anchor="middle" x="1093" y="-1147.1" font-family="Courier,monospace" font-size="11.00">PermissionComponent</text>
</g>
<!-- \\PermissionComponent&#45;&gt;\\Component -->
<g id="edge41" class="edge"><title>\\PermissionComponent&#45;&gt;\\Component</title>
<path fill="none" stroke="black" d="M1020.33,-1142.91C1008.74,-1138.69 997.965,-1132.36 990,-1123 880.948,-994.787 1029.05,-495.484 918,-369 908.311,-357.965 895.121,-350.943 881.061,-346.564"/>
<polygon fill="none" stroke="black" points="881.786,-343.135 871.222,-343.939 879.981,-349.899 881.786,-343.135"/>
</g>
<!-- \\NetCommonsComponent -->
<g id="node22" class="node"><title>\\NetCommonsComponent</title>
<polygon fill="none" stroke="black" points="1165,-1114 1021,-1114 1021,-1078 1165,-1078 1165,-1114"/>
<text text-anchor="middle" x="1093" y="-1093.1" font-family="Courier,monospace" font-size="11.00">NetCommonsComponent</text>
</g>
<!-- \\NetCommonsComponent&#45;&gt;\\Component -->
<g id="edge43" class="edge"><title>\\NetCommonsComponent&#45;&gt;\\Component</title>
<path fill="none" stroke="black" d="M1020.39,-1088.86C1008.79,-1084.64 997.999,-1078.34 990,-1069 786.502,-831.507 1125.2,-603.266 918,-369 908.271,-358.001 895.062,-350.994 880.998,-346.62"/>
<polygon fill="none" stroke="black" points="881.72,-343.191 871.156,-343.996 879.917,-349.955 881.72,-343.191"/>
</g>
<!-- \\SiteCloseController -->
<g id="node23" class="node"><title>\\SiteCloseController</title>
<polygon fill="none" stroke="black" points="1165,-1492 1021,-1492 1021,-1456 1165,-1456 1165,-1492"/>
<text text-anchor="middle" x="1093" y="-1471.1" font-family="Courier,monospace" font-size="11.00">SiteCloseController</text>
</g>
<!-- \\SiteCloseController&#45;&gt;\\NetCommonsAppController -->
<g id="edge45" class="edge"><title>\\SiteCloseController&#45;&gt;\\NetCommonsAppController</title>
<path fill="none" stroke="black" d="M1020.2,-1460.58C982.697,-1453.67 936.487,-1445.15 896.097,-1437.71"/>
<polygon fill="none" stroke="black" points="896.702,-1434.26 886.233,-1435.89 895.433,-1441.15 896.702,-1434.26"/>
</g>
<!-- \\NetCommonsController -->
<g id="node24" class="node"><title>\\NetCommonsController</title>
<polygon fill="none" stroke="black" points="1169,-1438 1017,-1438 1017,-1402 1169,-1402 1169,-1438"/>
<text text-anchor="middle" x="1093" y="-1417.1" font-family="Courier,monospace" font-size="11.00">NetCommonsController</text>
</g>
<!-- \\NetCommonsController&#45;&gt;\\NetCommonsAppController -->
<g id="edge47" class="edge"><title>\\NetCommonsController&#45;&gt;\\NetCommonsAppController</title>
<path fill="none" stroke="black" d="M1016.78,-1420C980.049,-1420 935.59,-1420 896.519,-1420"/>
<polygon fill="none" stroke="black" points="896.183,-1416.5 886.183,-1420 896.183,-1423.5 896.183,-1416.5"/>
</g>
<!-- \\NetCommonsUrl -->
<g id="node25" class="node"><title>\\NetCommonsUrl</title>
<polygon fill="none" stroke="black" points="1145,-2140 1041,-2140 1041,-2104 1145,-2104 1145,-2140"/>
<text text-anchor="middle" x="1093" y="-2119.1" font-family="Courier,monospace" font-size="11.00">NetCommonsUrl</text>
</g>
<!-- \\NetCommonsTime -->
<g id="node26" class="node"><title>\\NetCommonsTime</title>
<polygon fill="none" stroke="black" points="1148,-2086 1038,-2086 1038,-2050 1148,-2050 1148,-2086"/>
<text text-anchor="middle" x="1093" y="-2065.1" font-family="Courier,monospace" font-size="11.00">NetCommonsTime</text>
</g>
<!-- \\CurrentBase -->
<g id="node27" class="node"><title>\\CurrentBase</title>
<polygon fill="none" stroke="black" points="845,-1600 755,-1600 755,-1564 845,-1564 845,-1600"/>
<text text-anchor="middle" x="800" y="-1579.1" font-family="Courier,monospace" font-size="11.00">CurrentBase</text>
</g>
<!-- \\Current -->
<g id="node28" class="node"><title>\\Current</title>
<polygon fill="none" stroke="black" points="1125,-1600 1061,-1600 1061,-1564 1125,-1564 1125,-1600"/>
<text text-anchor="middle" x="1093" y="-1579.1" font-family="Courier,monospace" font-size="11.00">Current</text>
</g>
<!-- \\Current&#45;&gt;\\CurrentBase -->
<g id="edge49" class="edge"><title>\\Current&#45;&gt;\\CurrentBase</title>
<path fill="none" stroke="black" d="M1060.81,-1582C1011.48,-1582 916.554,-1582 855.846,-1582"/>
<polygon fill="none" stroke="black" points="855.669,-1578.5 845.669,-1582 855.669,-1585.5 855.669,-1578.5"/>
</g>
<!-- \\CurrentSystem -->
<g id="node29" class="node"><title>\\CurrentSystem</title>
<polygon fill="none" stroke="black" points="1145,-1978 1041,-1978 1041,-1942 1145,-1942 1145,-1978"/>
<text text-anchor="middle" x="1093" y="-1957.1" font-family="Courier,monospace" font-size="11.00">CurrentSystem</text>
</g>
<!-- \\CurrentPage -->
<g id="node30" class="node"><title>\\CurrentPage</title>
<polygon fill="none" stroke="black" points="1138,-1924 1048,-1924 1048,-1888 1138,-1888 1138,-1924"/>
<text text-anchor="middle" x="1093" y="-1903.1" font-family="Courier,monospace" font-size="11.00">CurrentPage</text>
</g>
<!-- \\CurrentFrame -->
<g id="node31" class="node"><title>\\CurrentFrame</title>
<polygon fill="none" stroke="black" points="1142,-1870 1044,-1870 1044,-1834 1142,-1834 1142,-1870"/>
<text text-anchor="middle" x="1093" y="-1849.1" font-family="Courier,monospace" font-size="11.00">CurrentFrame</text>
</g>
<!-- \\TokenHelper -->
<g id="node32" class="node"><title>\\TokenHelper</title>
<polygon fill="none" stroke="black" points="1138,-790 1048,-790 1048,-754 1138,-754 1138,-790"/>
<text text-anchor="middle" x="1093" y="-769.1" font-family="Courier,monospace" font-size="11.00">TokenHelper</text>
</g>
<!-- \\FormHelper -->
<g id="node92" class="node"><title>\\FormHelper</title>
<ellipse fill="none" stroke="black" cx="800" cy="-288" rx="70.9184" ry="18.3848"/>
<text text-anchor="middle" x="800" y="-284.4" font-family="Times Roman,serif" font-size="14.00" fill="gray">\FormHelper</text>
</g>
<!-- \\TokenHelper&#45;&gt;\\FormHelper -->
<g id="edge51" class="edge"><title>\\TokenHelper&#45;&gt;\\FormHelper</title>
<path fill="none" stroke="black" d="M1047.25,-770.813C1026.97,-767.861 1004.46,-760.833 990,-745 859.318,-601.927 1050.91,-456.002 918,-315 907.986,-304.377 894.718,-297.531 880.698,-293.194"/>
<polygon fill="none" stroke="black" points="881.468,-289.777 870.904,-290.577 879.661,-296.54 881.468,-289.777"/>
</g>
<!-- \\SingletonViewBlockHtmlHelper -->
<g id="node33" class="node"><title>\\SingletonViewBlockHtmlHelper</title>
<polygon fill="none" stroke="black" points="1196,-736 990,-736 990,-700 1196,-700 1196,-736"/>
<text text-anchor="middle" x="1093" y="-715.1" font-family="Courier,monospace" font-size="11.00">SingletonViewBlockHtmlHelper</text>
</g>
<!-- \\HtmlHelper -->
<g id="node94" class="node"><title>\\HtmlHelper</title>
<ellipse fill="none" stroke="black" cx="800" cy="-234" rx="67.1751" ry="18.3848"/>
<text text-anchor="middle" x="800" y="-230.4" font-family="Times Roman,serif" font-size="14.00" fill="gray">HtmlHelper</text>
</g>
<!-- \\SingletonViewBlockHtmlHelper&#45;&gt;\\HtmlHelper -->
<g id="edge53" class="edge"><title>\\SingletonViewBlockHtmlHelper&#45;&gt;\\HtmlHelper</title>
<path fill="none" stroke="black" d="M999.918,-699.739C996.329,-697.175 992.992,-694.276 990,-691 859.318,-547.927 1050.91,-402.002 918,-261 907.121,-249.459 892.401,-242.376 877.051,-238.126"/>
<polygon fill="none" stroke="black" points="877.444,-234.622 866.906,-235.723 875.83,-241.434 877.444,-234.622"/>
</g>
<!-- \\FormInputHelper -->
<g id="node34" class="node"><title>\\FormInputHelper</title>
<polygon fill="none" stroke="black" points="1152,-1762 1034,-1762 1034,-1726 1152,-1726 1152,-1762"/>
<text text-anchor="middle" x="1093" y="-1741.1" font-family="Courier,monospace" font-size="11.00">FormInputHelper</text>
</g>
<!-- \\FormInputHelper&#45;&gt;\\AppHelper -->
<g id="edge55" class="edge"><title>\\FormInputHelper&#45;&gt;\\AppHelper</title>
<path fill="none" stroke="black" d="M1033.98,-1749.81C1018.26,-1753.77 1002.26,-1760.31 990,-1771 854.066,-1889.59 813.424,-2120.8 803.102,-2201.44"/>
<polygon fill="none" stroke="black" points="799.576,-2201.44 801.84,-2211.79 806.525,-2202.29 799.576,-2201.44"/>
</g>
<!-- \\WizardHelper -->
<g id="node35" class="node"><title>\\WizardHelper</title>
<polygon fill="none" stroke="black" points="1142,-1708 1044,-1708 1044,-1672 1142,-1672 1142,-1708"/>
<text text-anchor="middle" x="1093" y="-1687.1" font-family="Courier,monospace" font-size="11.00">WizardHelper</text>
</g>
<!-- \\WizardHelper&#45;&gt;\\AppHelper -->
<g id="edge57" class="edge"><title>\\WizardHelper&#45;&gt;\\AppHelper</title>
<path fill="none" stroke="black" d="M1043.84,-1693.29C1025.06,-1696.82 1004.66,-1703.72 990,-1717 840.846,-1852.16 808.432,-2115.13 801.693,-2201.65"/>
<polygon fill="none" stroke="black" points="798.192,-2201.53 800.962,-2211.76 805.174,-2202.04 798.192,-2201.53"/>
</g>
<!-- \\DisplayNumberHelper -->
<g id="node36" class="node"><title>\\DisplayNumberHelper</title>
<polygon fill="none" stroke="black" points="1165,-1654 1021,-1654 1021,-1618 1165,-1618 1165,-1654"/>
<text text-anchor="middle" x="1093" y="-1633.1" font-family="Courier,monospace" font-size="11.00">DisplayNumberHelper</text>
</g>
<!-- \\DisplayNumberHelper&#45;&gt;\\AppHelper -->
<g id="edge59" class="edge"><title>\\DisplayNumberHelper&#45;&gt;\\AppHelper</title>
<path fill="none" stroke="black" d="M1020.41,-1645.24C1009.23,-1649.28 998.574,-1654.98 990,-1663 907.245,-1740.39 827.482,-2098.01 805.771,-2201.73"/>
<polygon fill="none" stroke="black" points="802.293,-2201.26 803.686,-2211.77 809.147,-2202.69 802.293,-2201.26"/>
</g>
<!-- \\MessageFlashHelper -->
<g id="node37" class="node"><title>\\MessageFlashHelper</title>
<polygon fill="none" stroke="black" points="1162,-2626 1024,-2626 1024,-2590 1162,-2590 1162,-2626"/>
<text text-anchor="middle" x="1093" y="-2605.1" font-family="Courier,monospace" font-size="11.00">MessageFlashHelper</text>
</g>
<!-- \\MessageFlashHelper&#45;&gt;\\AppHelper -->
<g id="edge61" class="edge"><title>\\MessageFlashHelper&#45;&gt;\\AppHelper</title>
<path fill="none" stroke="black" d="M1023.97,-2599.05C1011.68,-2595.03 999.719,-2589.26 990,-2581 929.965,-2529.97 954.954,-2488.59 918,-2419 886.138,-2359 842.46,-2292.38 818.172,-2256.45"/>
<polygon fill="none" stroke="black" points="820.947,-2254.31 812.434,-2248.01 815.157,-2258.24 820.947,-2254.31"/>
</g>
<!-- \\DateHelper -->
<g id="node38" class="node"><title>\\DateHelper</title>
<polygon fill="none" stroke="black" points="1135,-2572 1051,-2572 1051,-2536 1135,-2536 1135,-2572"/>
<text text-anchor="middle" x="1093" y="-2551.1" font-family="Courier,monospace" font-size="11.00">DateHelper</text>
</g>
<!-- \\DateHelper&#45;&gt;\\AppHelper -->
<g id="edge63" class="edge"><title>\\DateHelper&#45;&gt;\\AppHelper</title>
<path fill="none" stroke="black" d="M1050.85,-2550.11C1030.9,-2546.57 1007.64,-2539.83 990,-2527 983.563,-2522.32 862.041,-2328.99 816.791,-2256.81"/>
<polygon fill="none" stroke="black" points="819.694,-2254.85 811.418,-2248.24 813.763,-2258.57 819.694,-2254.85"/>
</g>
<!-- \\SnsButtonHelper -->
<g id="node39" class="node"><title>\\SnsButtonHelper</title>
<polygon fill="none" stroke="black" points="1152,-2518 1034,-2518 1034,-2482 1152,-2482 1152,-2518"/>
<text text-anchor="middle" x="1093" y="-2497.1" font-family="Courier,monospace" font-size="11.00">SnsButtonHelper</text>
</g>
<!-- \\SnsButtonHelper&#45;&gt;\\AppHelper -->
<g id="edge65" class="edge"><title>\\SnsButtonHelper&#45;&gt;\\AppHelper</title>
<path fill="none" stroke="black" d="M1033.83,-2491.44C1018.71,-2487.44 1003.05,-2481.58 990,-2473 904.042,-2416.46 840.094,-2307.93 813.531,-2257.28"/>
<polygon fill="none" stroke="black" points="816.562,-2255.52 808.865,-2248.24 810.341,-2258.73 816.562,-2255.52"/>
</g>
<!-- \\BackToHelper -->
<g id="node40" class="node"><title>\\BackToHelper</title>
<polygon fill="none" stroke="black" points="1142,-2464 1044,-2464 1044,-2428 1142,-2428 1142,-2464"/>
<text text-anchor="middle" x="1093" y="-2443.1" font-family="Courier,monospace" font-size="11.00">BackToHelper</text>
</g>
<!-- \\BackToHelper&#45;&gt;\\AppHelper -->
<g id="edge67" class="edge"><title>\\BackToHelper&#45;&gt;\\AppHelper</title>
<path fill="none" stroke="black" d="M1043.79,-2438.61C1026.04,-2434.55 1006.37,-2428.36 990,-2419 915.721,-2376.51 850.104,-2297.52 819.041,-2256.41"/>
<polygon fill="none" stroke="black" points="821.73,-2254.16 812.946,-2248.24 816.119,-2258.35 821.73,-2254.16"/>
</g>
<!-- \\NetCommonsHtmlHelper -->
<g id="node41" class="node"><title>\\NetCommonsHtmlHelper</title>
<polygon fill="none" stroke="black" points="1169,-2410 1017,-2410 1017,-2374 1169,-2374 1169,-2410"/>
<text text-anchor="middle" x="1093" y="-2389.1" font-family="Courier,monospace" font-size="11.00">NetCommonsHtmlHelper</text>
</g>
<!-- \\NetCommonsHtmlHelper&#45;&gt;\\AppHelper -->
<g id="edge69" class="edge"><title>\\NetCommonsHtmlHelper&#45;&gt;\\AppHelper</title>
<path fill="none" stroke="black" d="M1016.79,-2375.38C1007.59,-2372.39 998.458,-2368.95 990,-2365 927.211,-2335.67 863.394,-2285.16 828.029,-2254.94"/>
<polygon fill="none" stroke="black" points="829.944,-2251.97 820.087,-2248.08 825.369,-2257.26 829.944,-2251.97"/>
</g>
<!-- \\ButtonHelper -->
<g id="node42" class="node"><title>\\ButtonHelper</title>
<polygon fill="none" stroke="black" points="1142,-898 1044,-898 1044,-862 1142,-862 1142,-898"/>
<text text-anchor="middle" x="1093" y="-877.1" font-family="Courier,monospace" font-size="11.00">ButtonHelper</text>
</g>
<!-- \\ButtonHelper&#45;&gt;\\FormHelper -->
<g id="edge71" class="edge"><title>\\ButtonHelper&#45;&gt;\\FormHelper</title>
<path fill="none" stroke="black" d="M1043.85,-878.539C1024.38,-875.365 1003.47,-868.238 990,-853 830.252,-672.227 1080.57,-493.24 918,-315 908.162,-304.213 894.974,-297.293 880.979,-292.934"/>
<polygon fill="none" stroke="black" points="881.757,-289.519 871.192,-290.31 879.944,-296.281 881.757,-289.519"/>
</g>
<!-- \\ComposerHelper -->
<g id="node43" class="node"><title>\\ComposerHelper</title>
<polygon fill="none" stroke="black" points="1148,-2356 1038,-2356 1038,-2320 1148,-2320 1148,-2356"/>
<text text-anchor="middle" x="1093" y="-2335.1" font-family="Courier,monospace" font-size="11.00">ComposerHelper</text>
</g>
<!-- \\ComposerHelper&#45;&gt;\\AppHelper -->
<g id="edge73" class="edge"><title>\\ComposerHelper&#45;&gt;\\AppHelper</title>
<path fill="none" stroke="black" d="M1037.5,-2325.04C1021.99,-2320.99 1005.22,-2316.21 990,-2311 940.27,-2293.98 885.199,-2269.9 847.206,-2252.42"/>
<polygon fill="none" stroke="black" points="848.474,-2249.15 837.929,-2248.12 845.534,-2255.5 848.474,-2249.15"/>
</g>
<!-- \\LinkButtonHelper -->
<g id="node44" class="node"><title>\\LinkButtonHelper</title>
<polygon fill="none" stroke="black" points="1155,-844 1031,-844 1031,-808 1155,-808 1155,-844"/>
<text text-anchor="middle" x="1093" y="-823.1" font-family="Courier,monospace" font-size="11.00">LinkButtonHelper</text>
</g>
<!-- \\LinkButtonHelper&#45;&gt;\\FormHelper -->
<g id="edge75" class="edge"><title>\\LinkButtonHelper&#45;&gt;\\FormHelper</title>
<path fill="none" stroke="black" d="M1030.3,-821.541C1015.2,-817.523 1000.43,-810.629 990,-799 844.8,-637.094 1065.73,-474.605 918,-315 908.083,-304.286 894.859,-297.398 880.853,-293.049"/>
<polygon fill="none" stroke="black" points="881.628,-289.634 871.063,-290.429 879.818,-296.396 881.628,-289.634"/>
</g>
<!-- \\TableListHelper -->
<g id="node45" class="node"><title>\\TableListHelper</title>
<polygon fill="none" stroke="black" points="1152,-2302 1034,-2302 1034,-2266 1152,-2266 1152,-2302"/>
<text text-anchor="middle" x="1093" y="-2281.1" font-family="Courier,monospace" font-size="11.00">TableListHelper</text>
</g>
<!-- \\TableListHelper&#45;&gt;\\AppHelper -->
<g id="edge77" class="edge"><title>\\TableListHelper&#45;&gt;\\AppHelper</title>
<path fill="none" stroke="black" d="M1033.71,-2273.07C979.266,-2263.04 899.563,-2248.35 848.738,-2238.98"/>
<polygon fill="none" stroke="black" points="849.131,-2235.5 838.663,-2237.13 847.863,-2242.38 849.131,-2235.5"/>
</g>
<!-- \\NetCommonsTimeHelper -->
<g id="node46" class="node"><title>\\NetCommonsTimeHelper</title>
<polygon fill="none" stroke="black" points="1169,-2248 1017,-2248 1017,-2212 1169,-2212 1169,-2248"/>
<text text-anchor="middle" x="1093" y="-2227.1" font-family="Courier,monospace" font-size="11.00">NetCommonsTimeHelper</text>
</g>
<!-- \\NetCommonsTimeHelper&#45;&gt;\\AppHelper -->
<g id="edge79" class="edge"><title>\\NetCommonsTimeHelper&#45;&gt;\\AppHelper</title>
<path fill="none" stroke="black" d="M1016.78,-2230C963.77,-2230 894.667,-2230 848.892,-2230"/>
<polygon fill="none" stroke="black" points="848.638,-2226.5 838.638,-2230 848.638,-2233.5 848.638,-2226.5"/>
</g>
<!-- \\NetCommonsFormHelper -->
<g id="node47" class="node"><title>\\NetCommonsFormHelper</title>
<polygon fill="none" stroke="black" points="1169,-2194 1017,-2194 1017,-2158 1169,-2158 1169,-2194"/>
<text text-anchor="middle" x="1093" y="-2173.1" font-family="Courier,monospace" font-size="11.00">NetCommonsFormHelper</text>
</g>
<!-- \\NetCommonsFormHelper&#45;&gt;\\AppHelper -->
<g id="edge81" class="edge"><title>\\NetCommonsFormHelper&#45;&gt;\\AppHelper</title>
<path fill="none" stroke="black" d="M1016.78,-2190.05C963.659,-2199.84 894.376,-2212.61 848.603,-2221.04"/>
<polygon fill="none" stroke="black" points="847.838,-2217.62 838.638,-2222.88 849.107,-2224.51 847.838,-2217.62"/>
</g>
<!-- \\TitleIconHelper -->
<g id="node48" class="node"><title>\\TitleIconHelper</title>
<polygon fill="none" stroke="black" points="1152,-2032 1034,-2032 1034,-1996 1152,-1996 1152,-2032"/>
<text text-anchor="middle" x="1093" y="-2011.1" font-family="Courier,monospace" font-size="11.00">TitleIconHelper</text>
</g>
<!-- \\TitleIconHelper&#45;&gt;\\AppHelper -->
<g id="edge83" class="edge"><title>\\TitleIconHelper&#45;&gt;\\AppHelper</title>
<path fill="none" stroke="black" d="M1033.98,-2023.82C1019.02,-2027.8 1003.4,-2033.34 990,-2041 915.721,-2083.49 850.104,-2162.48 819.041,-2203.59"/>
<polygon fill="none" stroke="black" points="816.119,-2201.65 812.946,-2211.76 821.73,-2205.84 816.119,-2201.65"/>
</g>
<!-- \\DatetimePickerHelper -->
<g id="node49" class="node"><title>\\DatetimePickerHelper</title>
<polygon fill="none" stroke="black" points="1169,-1816 1017,-1816 1017,-1780 1169,-1780 1169,-1816"/>
<text text-anchor="middle" x="1093" y="-1795.1" font-family="Courier,monospace" font-size="11.00">DatetimePickerHelper</text>
</g>
<!-- \\DatetimePickerHelper&#45;&gt;\\AppHelper -->
<g id="edge85" class="edge"><title>\\DatetimePickerHelper&#45;&gt;\\AppHelper</title>
<path fill="none" stroke="black" d="M1016.93,-1809.66C1007.19,-1813.45 997.885,-1818.44 990,-1825 866.832,-1927.54 818.776,-2127.91 804.769,-2201.78"/>
<polygon fill="none" stroke="black" points="801.305,-2201.27 802.945,-2211.73 808.19,-2202.53 801.305,-2201.27"/>
</g>
<!-- \\Model -->
<g id="node112" class="node"><title>\\Model</title>
<ellipse fill="none" stroke="black" cx="44" cy="-2851" rx="43.8406" ry="18.3848"/>
<text text-anchor="middle" x="44" y="-2847.4" font-family="Times Roman,serif" font-size="14.00" fill="gray">\Model</text>
</g>
<!-- \\NetCommonsAppModel&#45;&gt;\\Model -->
<g id="edge87" class="edge"><title>\\NetCommonsAppModel&#45;&gt;\\Model</title>
<path fill="none" stroke="black" d="M172.749,-2851C148.379,-2851 121.357,-2851 98.3871,-2851"/>
<polygon fill="none" stroke="black" points="98.1425,-2847.5 88.1425,-2851 98.1424,-2854.5 98.1425,-2847.5"/>
</g>
<!-- \\OriginalKeyBehavior -->
<g id="node51" class="node"><title>\\OriginalKeyBehavior</title>
<polygon fill="none" stroke="black" points="1165,-682 1021,-682 1021,-646 1165,-646 1165,-682"/>
<text text-anchor="middle" x="1093" y="-661.1" font-family="Courier,monospace" font-size="11.00">OriginalKeyBehavior</text>
</g>
<!-- \\ModelBehavior -->
<g id="node114" class="node"><title>\\ModelBehavior</title>
<ellipse fill="none" stroke="black" cx="800" cy="-180" rx="86.9741" ry="18.3848"/>
<text text-anchor="middle" x="800" y="-176.4" font-family="Times Roman,serif" font-size="14.00" fill="gray">\ModelBehavior</text>
</g>
<!-- \\OriginalKeyBehavior&#45;&gt;\\ModelBehavior -->
<g id="edge89" class="edge"><title>\\OriginalKeyBehavior&#45;&gt;\\ModelBehavior</title>
<path fill="none" stroke="black" d="M1020.34,-656.25C1008.9,-652.073 998.166,-645.94 990,-637 859.318,-493.927 1050.91,-348.002 918,-207 910.736,-199.293 901.758,-193.575 892.025,-189.36"/>
<polygon fill="none" stroke="black" points="893.083,-186.019 882.491,-185.764 890.613,-192.568 893.083,-186.019"/>
</g>
<!-- \\TrackableBehavior -->
<g id="node52" class="node"><title>\\TrackableBehavior</title>
<polygon fill="none" stroke="black" points="1158,-628 1028,-628 1028,-592 1158,-592 1158,-628"/>
<text text-anchor="middle" x="1093" y="-607.1" font-family="Courier,monospace" font-size="11.00">TrackableBehavior</text>
</g>
<!-- \\TrackableBehavior&#45;&gt;\\ModelBehavior -->
<g id="edge91" class="edge"><title>\\TrackableBehavior&#45;&gt;\\ModelBehavior</title>
<path fill="none" stroke="black" d="M1027.41,-604.347C1013.43,-600.238 999.911,-593.6 990,-583 873.795,-458.716 1036.14,-329.443 918,-207 910.646,-199.379 901.615,-193.712 891.852,-189.525"/>
<polygon fill="none" stroke="black" points="892.89,-186.176 882.298,-185.949 890.436,-192.732 892.89,-186.176"/>
</g>
<!-- \\YAExceptionRenderer -->
<g id="node53" class="node"><title>\\YAExceptionRenderer</title>
<polygon fill="none" stroke="black" points="1165,-574 1021,-574 1021,-538 1165,-538 1165,-574"/>
<text text-anchor="middle" x="1093" y="-553.1" font-family="Courier,monospace" font-size="11.00">YAExceptionRenderer</text>
</g>
<!-- \\ExceptionRenderer -->
<g id="node117" class="node"><title>\\ExceptionRenderer</title>
<ellipse fill="none" stroke="black" cx="800" cy="-126" rx="118.087" ry="18.3848"/>
<text text-anchor="middle" x="800" y="-122.4" font-family="Times Roman,serif" font-size="14.00" fill="gray">TEHxceptionRenderer</text>
</g>
<!-- \\YAExceptionRenderer&#45;&gt;\\ExceptionRenderer -->
<g id="edge93" class="edge"><title>\\YAExceptionRenderer&#45;&gt;\\ExceptionRenderer</title>
<path fill="none" stroke="black" d="M1020.25,-547.995C1008.89,-543.838 998.206,-537.777 990,-529 873.795,-404.716 1036.14,-275.443 918,-153 913.747,-148.592 908.932,-144.837 903.739,-141.645"/>
<polygon fill="none" stroke="black" points="905.142,-138.426 894.675,-136.787 901.836,-144.596 905.142,-138.426"/>
</g>
<!-- \\NetCommonsMigration -->
<g id="node54" class="node"><title>\\NetCommonsMigration</title>
<polygon fill="none" stroke="black" points="872,-1274 728,-1274 728,-1238 872,-1238 872,-1274"/>
<text text-anchor="middle" x="800" y="-1253.1" font-family="Courier,monospace" font-size="11.00">NetCommonsMigration</text>
</g>
<!-- \\CakeMigration -->
<g id="node119" class="node"><title>\\CakeMigration</title>
<ellipse fill="none" stroke="black" cx="503" cy="-234" rx="84.8528" ry="18.3848"/>
<text text-anchor="middle" x="503" y="-230.4" font-family="Times Roman,serif" font-size="14.00" fill="gray">\CakeMigration</text>
</g>
<!-- \\NetCommonsMigration&#45;&gt;\\CakeMigration -->
<g id="edge95" class="edge"><title>\\NetCommonsMigration&#45;&gt;\\CakeMigration</title>
<path fill="none" stroke="black" d="M727.281,-1257.15C710.195,-1253.81 693.606,-1246.96 682,-1234 537.387,-1072.46 749.466,-427.004 610,-261 604.628,-254.605 597.982,-249.606 590.653,-245.711"/>
<polygon fill="none" stroke="black" points="591.6,-242.297 581.048,-241.347 588.705,-248.67 591.6,-242.297"/>
</g>
<!-- \\Box -->
<g id="node55" class="node"><title>\\Box</title>
<polygon fill="none" stroke="black" points="1120,-2896 1066,-2896 1066,-2860 1120,-2860 1120,-2896"/>
<text text-anchor="middle" x="1093" y="-2875.1" font-family="Courier,monospace" font-size="11.00">Box</text>
</g>
<!-- \\BoxesAppModel -->
<g id="node57" class="node"><title>\\BoxesAppModel</title>
<polygon fill="none" stroke="black" points="852,-2842 748,-2842 748,-2806 852,-2806 852,-2842"/>
<text text-anchor="middle" x="800" y="-2821.1" font-family="Courier,monospace" font-size="11.00">BoxesAppModel</text>
</g>
<!-- \\Box&#45;&gt;\\BoxesAppModel -->
<g id="edge97" class="edge"><title>\\Box&#45;&gt;\\BoxesAppModel</title>
<path fill="none" stroke="black" d="M1065.96,-2873.02C1019.9,-2864.53 925.102,-2847.06 862.03,-2835.43"/>
<polygon fill="none" stroke="black" points="862.661,-2831.99 852.193,-2833.62 861.392,-2838.87 862.661,-2831.99"/>
</g>
<!-- \\BoxesPage -->
<g id="node56" class="node"><title>\\BoxesPage</title>
<polygon fill="none" stroke="black" points="1131,-520 1055,-520 1055,-484 1131,-484 1131,-520"/>
<text text-anchor="middle" x="1093" y="-499.1" font-family="Courier,monospace" font-size="11.00">BoxesPage</text>
</g>
<!-- \\PagesAppModel -->
<g id="node122" class="node"><title>\\PagesAppModel</title>
<ellipse fill="none" stroke="black" cx="800" cy="-72" rx="90.0096" ry="18.3848"/>
<text text-anchor="middle" x="800" y="-68.4" font-family="Times Roman,serif" font-size="14.00" fill="gray">\PagesAppModel</text>
</g>
<!-- \\BoxesPage&#45;&gt;\\PagesAppModel -->
<g id="edge99" class="edge"><title>\\BoxesPage&#45;&gt;\\PagesAppModel</title>
<path fill="none" stroke="black" d="M1054.38,-501.547C1032.52,-499.191 1006.35,-492.487 990,-475 873.795,-350.716 1036.14,-221.443 918,-99 911.177,-91.9286 902.91,-86.5397 893.954,-82.4544"/>
<polygon fill="none" stroke="black" points="894.988,-79.0992 884.403,-78.6533 892.4,-85.6031 894.988,-79.0992"/>
</g>
<!-- \\BoxesAppModel&#45;&gt;\\AppModel -->
<g id="edge101" class="edge"><title>\\BoxesAppModel&#45;&gt;\\AppModel</title>
<path fill="none" stroke="black" d="M747.927,-2828.73C691.623,-2833.85 602.737,-2841.93 548.944,-2846.82"/>
<polygon fill="none" stroke="black" points="548.316,-2843.37 538.673,-2847.76 548.949,-2850.34 548.316,-2843.37"/>
</g>
<!-- \\BoxesSchema -->
<g id="node58" class="node"><title>\\BoxesSchema</title>
<polygon fill="none" stroke="black" points="1138,-466 1048,-466 1048,-430 1138,-430 1138,-466"/>
<text text-anchor="middle" x="1093" y="-445.1" font-family="Courier,monospace" font-size="11.00">BoxesSchema</text>
</g>
<!-- \\CakeSchema -->
<g id="node125" class="node"><title>\\CakeSchema</title>
<ellipse fill="none" stroke="black" cx="800" cy="-18" rx="77.0746" ry="18.3848"/>
<text text-anchor="middle" x="800" y="-14.4" font-family="Times Roman,serif" font-size="14.00" fill="gray">\CakeSchema</text>
</g>
<!-- \\BoxesSchema&#45;&gt;\\CakeSchema -->
<g id="edge103" class="edge"><title>\\BoxesSchema&#45;&gt;\\CakeSchema</title>
<path fill="none" stroke="black" d="M1090.86,-429.713C1082.37,-365.789 1045.04,-150.503 918,-45 907.886,-36.6012 895.67,-30.6949 882.982,-26.5644"/>
<polygon fill="none" stroke="black" points="883.793,-23.1556 873.214,-23.74 881.848,-29.8801 883.793,-23.1556"/>
</g>
<!-- \\Init -->
<g id="node59" class="node"><title>\\Init</title>
<polygon fill="none" stroke="black" points="1120,-1276 1066,-1276 1066,-1240 1120,-1240 1120,-1276"/>
<text text-anchor="middle" x="1093" y="-1255.1" font-family="Courier,monospace" font-size="11.00">Init</text>
</g>
<!-- \\Init&#45;&gt;\\CakeMigration -->
<g id="edge105" class="edge"><title>\\Init&#45;&gt;\\CakeMigration</title>
<path fill="none" stroke="black" d="M1065.8,-1258.42C1042.37,-1257.23 1009.36,-1251.62 990,-1231 876.203,-1109.84 973.831,-1020.56 918,-864 843.332,-654.614 779.652,-622.704 682,-423 647.389,-352.218 670.269,-311.751 610,-261 602.951,-255.064 594.773,-250.406 586.139,-246.754"/>
<polygon fill="none" stroke="black" points="587.216,-243.42 576.624,-243.174 584.751,-249.971 587.216,-243.42"/>
</g>
<!-- \\BoxRecords -->
<g id="node60" class="node"><title>\\BoxRecords</title>
<polygon fill="none" stroke="black" points="1135,-1384 1051,-1384 1051,-1348 1135,-1348 1135,-1384"/>
<text text-anchor="middle" x="1093" y="-1363.1" font-family="Courier,monospace" font-size="11.00">BoxRecords</text>
</g>
<!-- \\BoxRecords&#45;&gt;\\NetCommonsMigration -->
<g id="edge107" class="edge"><title>\\BoxRecords&#45;&gt;\\NetCommonsMigration</title>
<path fill="none" stroke="black" d="M1050.96,-1356.55C1032.12,-1351.91 1009.73,-1345.85 990,-1339 939.685,-1321.53 884.061,-1296.53 846.074,-1278.54"/>
<polygon fill="none" stroke="black" points="847.343,-1275.27 836.81,-1274.12 844.331,-1281.59 847.343,-1275.27"/>
</g>
</g>
</svg>
