<?xml version="1.0" encoding="UTF-8" standalone="no"?>
<!DOCTYPE svg PUBLIC "-//W3C//DTD SVG 1.1//EN"
 "http://www.w3.org/Graphics/SVG/1.1/DTD/svg11.dtd">
<!-- Generated by graphviz version 2.26.3 (20100126.1600)
 -->
<!-- Title: G Pages: 1 -->
<svg width="1220pt" height="2834pt"
 viewBox="0.00 0.00 1220.00 2834.00" xmlns="http://www.w3.org/2000/svg" xmlns:xlink="http://www.w3.org/1999/xlink">
<g id="graph1" class="graph" transform="scale(1 1) rotate(0) translate(4 2830)">
<title>G</title>
<polygon fill="white" stroke="white" points="-4,5 -4,-2830 1217,-2830 1217,5 -4,5"/>
<g id="graph2" class="cluster"><title>cluster_Global</title>
<polyline fill="none" stroke="gray" points="177,-422 1192,-422 "/>
<path fill="none" stroke="gray" d="M1192,-422C1198,-422 1204,-428 1204,-434"/>
<polyline fill="none" stroke="gray" points="1204,-434 1204,-2806 "/>
<path fill="none" stroke="gray" d="M1204,-2806C1204,-2812 1198,-2818 1192,-2818"/>
<polyline fill="none" stroke="gray" points="1192,-2818 177,-2818 "/>
<path fill="none" stroke="gray" d="M177,-2818C171,-2818 165,-2812 165,-2806"/>
<polyline fill="none" stroke="gray" points="165,-2806 165,-434 "/>
<path fill="none" stroke="gray" d="M165,-434C165,-428 171,-422 177,-422"/>
<text text-anchor="middle" x="684.5" y="-2804.1" font-family="Times Roman,serif" font-size="11.00" fill="gray">Global</text>
</g>
<!-- \\AppController -->
<g id="node2" class="node"><title>\\AppController</title>
<polygon fill="none" stroke="black" points="1145,-1276 1041,-1276 1041,-1240 1145,-1240 1145,-1276"/>
<text text-anchor="middle" x="1093" y="-1255.1" font-family="Courier,monospace" font-size="11.00">AppController</text>
</g>
<!-- \\Controller -->
<g id="node60" class="node"><title>\\Controller</title>
<ellipse fill="none" stroke="black" cx="503" cy="-288" rx="63.1385" ry="18.3848"/>
<text text-anchor="middle" x="503" y="-284.4" font-family="Times Roman,serif" font-size="14.00" fill="gray">\Controller</text>
</g>
<!-- \\AppController&#45;&gt;\\Controller -->
<g id="edge3" class="edge"><title>\\AppController&#45;&gt;\\Controller</title>
<path fill="none" stroke="black" d="M1040.76,-1251.16C1023.59,-1247.18 1005.06,-1240.91 990,-1231 804.306,-1108.85 768.613,-1041.7 682,-837 590.739,-621.316 766.238,-489.464 610,-315 600.846,-304.779 588.44,-298.163 575.318,-293.936"/>
<polygon fill="none" stroke="black" points="576.244,-290.561 565.672,-291.263 574.374,-297.306 576.244,-290.561"/>
</g>
<!-- \\AppModel -->
<g id="node3" class="node"><title>\\AppModel</title>
<polygon fill="none" stroke="black" points="538,-2761 468,-2761 468,-2725 538,-2725 538,-2761"/>
<text text-anchor="middle" x="503" y="-2740.1" font-family="Courier,monospace" font-size="11.00">AppModel</text>
</g>
<!-- \\NetCommonsAppModel -->
<g id="node48" class="node"><title>\\NetCommonsAppModel</title>
<polygon fill="none" stroke="black" points="311,-2761 173,-2761 173,-2725 311,-2725 311,-2761"/>
<text text-anchor="middle" x="242" y="-2740.1" font-family="Courier,monospace" font-size="11.00">NetCommonsAppModel</text>
</g>
<!-- \\AppModel&#45;&gt;\\NetCommonsAppModel -->
<g id="edge5" class="edge"><title>\\AppModel&#45;&gt;\\NetCommonsAppModel</title>
<path fill="none" stroke="black" d="M467.256,-2743C429.848,-2743 369.903,-2743 321.254,-2743"/>
<polygon fill="none" stroke="black" points="321.056,-2739.5 311.056,-2743 321.056,-2746.5 321.056,-2739.5"/>
</g>
<!-- \\DatabaseConfiguration -->
<g id="node4" class="node"><title>\\DatabaseConfiguration</title>
<polygon fill="none" stroke="black" points="879,-2788 721,-2788 721,-2752 879,-2752 879,-2788"/>
<text text-anchor="middle" x="800" y="-2767.1" font-family="Courier,monospace" font-size="11.00">DatabaseConfiguration</text>
</g>
<!-- \\DatabaseConfiguration&#45;&gt;\\AppModel -->
<g id="edge7" class="edge"><title>\\DatabaseConfiguration&#45;&gt;\\AppModel</title>
<path fill="none" stroke="black" d="M720.8,-2762.8C665.959,-2757.81 594.863,-2751.35 549.084,-2747.19"/>
<polygon fill="none" stroke="black" points="549.143,-2743.68 538.867,-2746.26 548.509,-2750.65 549.143,-2743.68"/>
</g>
<!-- \\AppHelper -->
<g id="node5" class="node"><title>\\AppHelper</title>
<polygon fill="none" stroke="black" points="838,-2032 762,-2032 762,-1996 838,-1996 838,-2032"/>
<text text-anchor="middle" x="800" y="-2011.1" font-family="Courier,monospace" font-size="11.00">AppHelper</text>
</g>
<!-- \\Helper -->
<g id="node64" class="node"><title>\\Helper</title>
<ellipse fill="none" stroke="black" cx="503" cy="-396" rx="43.8406" ry="18.3848"/>
<text text-anchor="middle" x="503" y="-392.4" font-family="Times Roman,serif" font-size="14.00" fill="gray">Helper</text>
</g>
<!-- \\AppHelper&#45;&gt;\\Helper -->
<g id="edge9" class="edge"><title>\\AppHelper&#45;&gt;\\Helper</title>
<path fill="none" stroke="black" d="M794.631,-1995.57C775.59,-1929.38 710.897,-1697.2 682,-1501 664.427,-1381.69 689.267,-508.889 610,-418 596.837,-402.908 576.329,-396.523 556.774,-394.23"/>
<polygon fill="none" stroke="black" points="556.937,-390.731 546.678,-393.379 556.349,-397.706 556.937,-390.731"/>
</g>
<!-- \\NetCommonsDeleteTest -->
<g id="node6" class="node"><title>\\NetCommonsDeleteTest</title>
<polygon fill="none" stroke="black" points="1169,-2572 1017,-2572 1017,-2536 1169,-2536 1169,-2572"/>
<text text-anchor="middle" x="1093" y="-2551.1" font-family="Courier,monospace" font-size="11.00">NetCommonsDeleteTest</text>
</g>
<!-- \\NetCommonsModelTestCase -->
<g id="node15" class="node"><title>\\NetCommonsModelTestCase</title>
<polygon fill="none" stroke="black" points="886,-2626 714,-2626 714,-2590 886,-2590 886,-2626"/>
<text text-anchor="middle" x="800" y="-2605.1" font-family="Courier,monospace" font-size="11.00">NetCommonsModelTestCase</text>
</g>
<!-- \\NetCommonsDeleteTest&#45;&gt;\\NetCommonsModelTestCase -->
<g id="edge11" class="edge"><title>\\NetCommonsDeleteTest&#45;&gt;\\NetCommonsModelTestCase</title>
<path fill="none" stroke="black" d="M1016.78,-2568.05C979.893,-2574.85 935.211,-2583.08 896.02,-2590.3"/>
<polygon fill="none" stroke="black" points="895.383,-2586.86 886.183,-2592.12 896.652,-2593.75 895.383,-2586.86"/>
</g>
<!-- \\NetCommonsConsoleTestCase -->
<g id="node7" class="node"><title>\\NetCommonsConsoleTestCase</title>
<polygon fill="none" stroke="black" points="892,-2356 708,-2356 708,-2320 892,-2320 892,-2356"/>
<text text-anchor="middle" x="800" y="-2335.1" font-family="Courier,monospace" font-size="11.00">NetCommonsConsoleTestCase</text>
</g>
<!-- \\NetCommonsCakeTestCase -->
<g id="node13" class="node"><title>\\NetCommonsCakeTestCase</title>
<polygon fill="none" stroke="black" points="585,-2329 421,-2329 421,-2293 585,-2293 585,-2329"/>
<text text-anchor="middle" x="503" y="-2308.1" font-family="Courier,monospace" font-size="11.00">NetCommonsCakeTestCase</text>
</g>
<!-- \\NetCommonsConsoleTestCase&#45;&gt;\\NetCommonsCakeTestCase -->
<g id="edge13" class="edge"><title>\\NetCommonsConsoleTestCase&#45;&gt;\\NetCommonsCakeTestCase</title>
<path fill="none" stroke="black" d="M707.249,-2329.57C671.93,-2326.36 631.688,-2322.7 596.316,-2319.48"/>
<polygon fill="none" stroke="black" points="596.269,-2315.96 585.993,-2318.54 595.635,-2322.94 596.269,-2315.96"/>
</g>
<!-- \\NetCommonsGetTest -->
<g id="node8" class="node"><title>\\NetCommonsGetTest</title>
<polygon fill="none" stroke="black" points="1158,-2734 1028,-2734 1028,-2698 1158,-2698 1158,-2734"/>
<text text-anchor="middle" x="1093" y="-2713.1" font-family="Courier,monospace" font-size="11.00">NetCommonsGetTest</text>
</g>
<!-- \\NetCommonsGetTest&#45;&gt;\\NetCommonsModelTestCase -->
<g id="edge15" class="edge"><title>\\NetCommonsGetTest&#45;&gt;\\NetCommonsModelTestCase</title>
<path fill="none" stroke="black" d="M1027.46,-2700.36C1014.92,-2696.94 1001.98,-2693.1 990,-2689 940.27,-2671.98 885.199,-2647.9 847.206,-2630.42"/>
<polygon fill="none" stroke="black" points="848.474,-2627.15 837.929,-2626.12 845.534,-2633.5 848.474,-2627.15"/>
</g>
<!-- \\NetCommonsHelperTestCase -->
<g id="node9" class="node"><title>\\NetCommonsHelperTestCase</title>
<polygon fill="none" stroke="black" points="889,-2302 711,-2302 711,-2266 889,-2266 889,-2302"/>
<text text-anchor="middle" x="800" y="-2281.1" font-family="Courier,monospace" font-size="11.00">NetCommonsHelperTestCase</text>
</g>
<!-- \\NetCommonsHelperTestCase&#45;&gt;\\NetCommonsCakeTestCase -->
<g id="edge17" class="edge"><title>\\NetCommonsHelperTestCase&#45;&gt;\\NetCommonsCakeTestCase</title>
<path fill="none" stroke="black" d="M710.487,-2292.14C674.267,-2295.43 632.456,-2299.23 595.9,-2302.55"/>
<polygon fill="none" stroke="black" points="595.379,-2299.09 585.737,-2303.48 596.013,-2306.06 595.379,-2299.09"/>
</g>
<!-- \\NetCommonsControllerBaseTestCase -->
<g id="node10" class="node"><title>\\NetCommonsControllerBaseTestCase</title>
<polygon fill="none" stroke="black" points="916,-1438 684,-1438 684,-1402 916,-1402 916,-1438"/>
<text text-anchor="middle" x="800" y="-1417.1" font-family="Courier,monospace" font-size="11.00">NetCommonsControllerBaseTestCase</text>
</g>
<!-- \\ControllerTestCase -->
<g id="node70" class="node"><title>\\ControllerTestCase</title>
<ellipse fill="none" stroke="black" cx="503" cy="-342" rx="106.773" ry="18.3848"/>
<text text-anchor="middle" x="503" y="-338.4" font-family="Times Roman,serif" font-size="14.00" fill="gray">\ControllerTestCase</text>
</g>
<!-- \\NetCommonsControllerBaseTestCase&#45;&gt;\\ControllerTestCase -->
<g id="edge19" class="edge"><title>\\NetCommonsControllerBaseTestCase&#45;&gt;\\ControllerTestCase</title>
<path fill="none" stroke="black" d="M691.507,-1401.99C688.063,-1399.34 684.87,-1396.35 682,-1393 533.647,-1219.71 756.417,-543.927 610,-369 606.388,-364.684 602.196,-361.004 597.604,-357.869"/>
<polygon fill="none" stroke="black" points="599.345,-354.833 588.948,-352.797 595.807,-360.872 599.345,-354.833"/>
</g>
<!-- \\NetCommonsValidateTest -->
<g id="node11" class="node"><title>\\NetCommonsValidateTest</title>
<polygon fill="none" stroke="black" points="1175,-2680 1011,-2680 1011,-2644 1175,-2644 1175,-2680"/>
<text text-anchor="middle" x="1093" y="-2659.1" font-family="Courier,monospace" font-size="11.00">NetCommonsValidateTest</text>
</g>
<!-- \\NetCommonsValidateTest&#45;&gt;\\NetCommonsModelTestCase -->
<g id="edge21" class="edge"><title>\\NetCommonsValidateTest&#45;&gt;\\NetCommonsModelTestCase</title>
<path fill="none" stroke="black" d="M1010.21,-2646.74C974.791,-2640.21 933.196,-2632.55 896.397,-2625.77"/>
<polygon fill="none" stroke="black" points="896.623,-2622.25 886.154,-2623.88 895.354,-2629.13 896.623,-2622.25"/>
</g>
<!-- \\NetCommonsTestSuite -->
<g id="node12" class="node"><title>\\NetCommonsTestSuite</title>
<polygon fill="none" stroke="black" points="1165,-1168 1021,-1168 1021,-1132 1165,-1132 1165,-1168"/>
<text text-anchor="middle" x="1093" y="-1147.1" font-family="Courier,monospace" font-size="11.00">NetCommonsTestSuite</text>
</g>
<!-- \\CakeTestSuite -->
<g id="node73" class="node"><title>\\CakeTestSuite</title>
<ellipse fill="none" stroke="black" cx="800" cy="-396" rx="84.1457" ry="18.3848"/>
<text text-anchor="middle" x="800" y="-392.4" font-family="Times Roman,serif" font-size="14.00" fill="gray">\CakeTestSuite</text>
</g>
<!-- \\NetCommonsTestSuite&#45;&gt;\\CakeTestSuite -->
<g id="edge23" class="edge"><title>\\NetCommonsTestSuite&#45;&gt;\\CakeTestSuite</title>
<path fill="none" stroke="black" d="M1020.38,-1142.87C1008.79,-1138.65 997.995,-1132.34 990,-1123 887.575,-1003.38 1024.67,-533.856 918,-418 911.119,-410.526 902.58,-405.101 893.263,-401.215"/>
<polygon fill="none" stroke="black" points="894.315,-397.875 883.72,-397.824 891.97,-404.47 894.315,-397.875"/>
</g>
<!-- \\CakeTestCase -->
<g id="node75" class="node"><title>\\CakeTestCase</title>
<ellipse fill="none" stroke="black" cx="242" cy="-396" rx="82.0244" ry="18.3848"/>
<text text-anchor="middle" x="242" y="-392.4" font-family="Times Roman,serif" font-size="14.00" fill="gray">\CakeTestCase</text>
</g>
<!-- \\NetCommonsCakeTestCase&#45;&gt;\\CakeTestCase -->
<g id="edge25" class="edge"><title>\\NetCommonsCakeTestCase&#45;&gt;\\CakeTestCase</title>
<path fill="none" stroke="black" d="M420.383,-2306.01C411.054,-2302.2 402.562,-2296.74 396,-2289 261.46,-2130.32 453.773,-580.606 324,-418 322.311,-415.883 320.441,-413.957 318.426,-412.205"/>
<polygon fill="none" stroke="black" points="320.198,-409.172 310.007,-406.274 316.167,-414.894 320.198,-409.172"/>
</g>
<!-- \\NetCommonsSaveTest -->
<g id="node14" class="node"><title>\\NetCommonsSaveTest</title>
<polygon fill="none" stroke="black" points="1162,-2626 1024,-2626 1024,-2590 1162,-2590 1162,-2626"/>
<text text-anchor="middle" x="1093" y="-2605.1" font-family="Courier,monospace" font-size="11.00">NetCommonsSaveTest</text>
</g>
<!-- \\NetCommonsSaveTest&#45;&gt;\\NetCommonsModelTestCase -->
<g id="edge27" class="edge"><title>\\NetCommonsSaveTest&#45;&gt;\\NetCommonsModelTestCase</title>
<path fill="none" stroke="black" d="M1023.93,-2608C985.875,-2608 938.032,-2608 896.349,-2608"/>
<polygon fill="none" stroke="black" points="896.173,-2604.5 886.172,-2608 896.172,-2611.5 896.173,-2604.5"/>
</g>
<!-- \\NetCommonsModelTestCase&#45;&gt;\\NetCommonsCakeTestCase -->
<g id="edge29" class="edge"><title>\\NetCommonsModelTestCase&#45;&gt;\\NetCommonsCakeTestCase</title>
<path fill="none" stroke="black" d="M781.868,-2589.87C731.124,-2539.12 587.551,-2395.55 528.674,-2336.67"/>
<polygon fill="none" stroke="black" points="530.818,-2333.87 521.272,-2329.27 525.868,-2338.82 530.818,-2333.87"/>
</g>
<!-- \\NetCommonsControllerTestCase -->
<g id="node16" class="node"><title>\\NetCommonsControllerTestCase</title>
<polygon fill="none" stroke="black" points="1196,-1438 990,-1438 990,-1402 1196,-1402 1196,-1438"/>
<text text-anchor="middle" x="1093" y="-1417.1" font-family="Courier,monospace" font-size="11.00">NetCommonsControllerTestCase</text>
</g>
<!-- \\NetCommonsControllerTestCase&#45;&gt;\\NetCommonsControllerBaseTestCase -->
<g id="edge31" class="edge"><title>\\NetCommonsControllerTestCase&#45;&gt;\\NetCommonsControllerBaseTestCase</title>
<path fill="none" stroke="black" d="M989.699,-1420C969.381,-1420 947.845,-1420 926.858,-1420"/>
<polygon fill="none" stroke="black" points="926.606,-1416.5 916.606,-1420 926.606,-1423.5 926.606,-1416.5"/>
</g>
<!-- \\NetCommonsAppController -->
<g id="node17" class="node"><title>\\NetCommonsAppController</title>
<polygon fill="none" stroke="black" points="886,-1384 714,-1384 714,-1348 886,-1348 886,-1384"/>
<text text-anchor="middle" x="800" y="-1363.1" font-family="Courier,monospace" font-size="11.00">NetCommonsAppController</text>
</g>
<!-- \\NetCommonsAppController&#45;&gt;\\Controller -->
<g id="edge33" class="edge"><title>\\NetCommonsAppController&#45;&gt;\\Controller</title>
<path fill="none" stroke="black" d="M775.95,-1347.95C747.834,-1325.29 702.537,-1283.57 682,-1236 600.634,-1047.52 742.381,-471.907 610,-315 601.102,-304.454 588.743,-297.705 575.573,-293.451"/>
<polygon fill="none" stroke="black" points="576.449,-290.062 565.878,-290.776 574.587,-296.81 576.449,-290.062"/>
</g>
<!-- \\AssetComponent -->
<g id="node18" class="node"><title>\\AssetComponent</title>
<polygon fill="none" stroke="black" points="1148,-1006 1038,-1006 1038,-970 1148,-970 1148,-1006"/>
<text text-anchor="middle" x="1093" y="-985.1" font-family="Courier,monospace" font-size="11.00">AssetComponent</text>
</g>
<!-- \\Component -->
<g id="node81" class="node"><title>\\Component</title>
<ellipse fill="none" stroke="black" cx="800" cy="-342" rx="70.9184" ry="18.3848"/>
<text text-anchor="middle" x="800" y="-338.4" font-family="Times Roman,serif" font-size="14.00" fill="gray">\Component</text>
</g>
<!-- \\AssetComponent&#45;&gt;\\Component -->
<g id="edge35" class="edge"><title>\\AssetComponent&#45;&gt;\\Component</title>
<path fill="none" stroke="black" d="M1037.34,-985.436C1019.8,-981.802 1001.91,-974.647 990,-961 815.683,-761.337 1095.43,-565.899 918,-369 908.227,-358.155 895.069,-351.207 881.082,-346.841"/>
<polygon fill="none" stroke="black" points="881.864,-343.426 871.298,-344.214 880.049,-350.187 881.864,-343.426"/>
</g>
<!-- \\NetCommonsTimeComponent -->
<g id="node19" class="node"><title>\\NetCommonsTimeComponent</title>
<polygon fill="none" stroke="black" points="1179,-952 1007,-952 1007,-916 1179,-916 1179,-952"/>
<text text-anchor="middle" x="1093" y="-931.1" font-family="Courier,monospace" font-size="11.00">NetCommonsTimeComponent</text>
</g>
<!-- \\NetCommonsTimeComponent&#45;&gt;\\Component -->
<g id="edge37" class="edge"><title>\\NetCommonsTimeComponent&#45;&gt;\\Component</title>
<path fill="none" stroke="black" d="M1006.73,-920.334C1000.48,-916.785 994.774,-912.402 990,-907 830.252,-726.227 1080.57,-547.24 918,-369 908.162,-358.213 894.974,-351.293 880.979,-346.934"/>
<polygon fill="none" stroke="black" points="881.757,-343.519 871.192,-344.31 879.944,-350.281 881.757,-343.519"/>
</g>
<!-- \\PermissionComponent -->
<g id="node20" class="node"><title>\\PermissionComponent</title>
<polygon fill="none" stroke="black" points="1165,-1114 1021,-1114 1021,-1078 1165,-1078 1165,-1114"/>
<text text-anchor="middle" x="1093" y="-1093.1" font-family="Courier,monospace" font-size="11.00">PermissionComponent</text>
</g>
<!-- \\PermissionComponent&#45;&gt;\\Component -->
<g id="edge39" class="edge"><title>\\PermissionComponent&#45;&gt;\\Component</title>
<path fill="none" stroke="black" d="M1020.39,-1088.86C1008.79,-1084.64 997.999,-1078.34 990,-1069 786.502,-831.507 1125.2,-603.266 918,-369 908.271,-358.001 895.062,-350.994 880.998,-346.62"/>
<polygon fill="none" stroke="black" points="881.72,-343.191 871.156,-343.996 879.917,-349.955 881.72,-343.191"/>
</g>
<!-- \\NetCommonsComponent -->
<g id="node21" class="node"><title>\\NetCommonsComponent</title>
<polygon fill="none" stroke="black" points="1165,-1060 1021,-1060 1021,-1024 1165,-1024 1165,-1060"/>
<text text-anchor="middle" x="1093" y="-1039.1" font-family="Courier,monospace" font-size="11.00">NetCommonsComponent</text>
</g>
<!-- \\NetCommonsComponent&#45;&gt;\\Component -->
<g id="edge41" class="edge"><title>\\NetCommonsComponent&#45;&gt;\\Component</title>
<path fill="none" stroke="black" d="M1020.45,-1034.81C1008.85,-1030.59 998.038,-1024.3 990,-1015 801.099,-796.429 1110.31,-584.576 918,-369 908.225,-358.042 894.994,-351.054 880.924,-346.686"/>
<polygon fill="none" stroke="black" points="881.644,-343.256 871.08,-344.064 879.842,-350.02 881.644,-343.256"/>
</g>
<!-- \\NetCommonsController -->
<g id="node22" class="node"><title>\\NetCommonsController</title>
<polygon fill="none" stroke="black" points="1169,-1384 1017,-1384 1017,-1348 1169,-1348 1169,-1384"/>
<text text-anchor="middle" x="1093" y="-1363.1" font-family="Courier,monospace" font-size="11.00">NetCommonsController</text>
</g>
<!-- \\NetCommonsController&#45;&gt;\\NetCommonsAppController -->
<g id="edge43" class="edge"><title>\\NetCommonsController&#45;&gt;\\NetCommonsAppController</title>
<path fill="none" stroke="black" d="M1016.78,-1366C980.049,-1366 935.59,-1366 896.519,-1366"/>
<polygon fill="none" stroke="black" points="896.183,-1362.5 886.183,-1366 896.183,-1369.5 896.183,-1362.5"/>
</g>
<!-- \\NetCommonsUrl -->
<g id="node23" class="node"><title>\\NetCommonsUrl</title>
<polygon fill="none" stroke="black" points="1145,-2140 1041,-2140 1041,-2104 1145,-2104 1145,-2140"/>
<text text-anchor="middle" x="1093" y="-2119.1" font-family="Courier,monospace" font-size="11.00">NetCommonsUrl</text>
</g>
<!-- \\NetCommonsTime -->
<g id="node24" class="node"><title>\\NetCommonsTime</title>
<polygon fill="none" stroke="black" points="1148,-2086 1038,-2086 1038,-2050 1148,-2050 1148,-2086"/>
<text text-anchor="middle" x="1093" y="-2065.1" font-family="Courier,monospace" font-size="11.00">NetCommonsTime</text>
</g>
<!-- \\CurrentBase -->
<g id="node25" class="node"><title>\\CurrentBase</title>
<polygon fill="none" stroke="black" points="845,-1492 755,-1492 755,-1456 845,-1456 845,-1492"/>
<text text-anchor="middle" x="800" y="-1471.1" font-family="Courier,monospace" font-size="11.00">CurrentBase</text>
</g>
<!-- \\Current -->
<g id="node26" class="node"><title>\\Current</title>
<polygon fill="none" stroke="black" points="1125,-1492 1061,-1492 1061,-1456 1125,-1456 1125,-1492"/>
<text text-anchor="middle" x="1093" y="-1471.1" font-family="Courier,monospace" font-size="11.00">Current</text>
</g>
<!-- \\Current&#45;&gt;\\CurrentBase -->
<g id="edge45" class="edge"><title>\\Current&#45;&gt;\\CurrentBase</title>
<path fill="none" stroke="black" d="M1060.81,-1474C1011.48,-1474 916.554,-1474 855.846,-1474"/>
<polygon fill="none" stroke="black" points="855.669,-1470.5 845.669,-1474 855.669,-1477.5 855.669,-1470.5"/>
</g>
<!-- \\CurrentSystem -->
<g id="node27" class="node"><title>\\CurrentSystem</title>
<polygon fill="none" stroke="black" points="1145,-1978 1041,-1978 1041,-1942 1145,-1942 1145,-1978"/>
<text text-anchor="middle" x="1093" y="-1957.1" font-family="Courier,monospace" font-size="11.00">CurrentSystem</text>
</g>
<!-- \\CurrentPage -->
<g id="node28" class="node"><title>\\CurrentPage</title>
<polygon fill="none" stroke="black" points="1138,-1924 1048,-1924 1048,-1888 1138,-1888 1138,-1924"/>
<text text-anchor="middle" x="1093" y="-1903.1" font-family="Courier,monospace" font-size="11.00">CurrentPage</text>
</g>
<!-- \\CurrentFrame -->
<g id="node29" class="node"><title>\\CurrentFrame</title>
<polygon fill="none" stroke="black" points="1142,-1870 1044,-1870 1044,-1834 1142,-1834 1142,-1870"/>
<text text-anchor="middle" x="1093" y="-1849.1" font-family="Courier,monospace" font-size="11.00">CurrentFrame</text>
</g>
<!-- \\TokenHelper -->
<g id="node30" class="node"><title>\\TokenHelper</title>
<polygon fill="none" stroke="black" points="1138,-844 1048,-844 1048,-808 1138,-808 1138,-844"/>
<text text-anchor="middle" x="1093" y="-823.1" font-family="Courier,monospace" font-size="11.00">TokenHelper</text>
</g>
<!-- \\FormHelper -->
<g id="node88" class="node"><title>\\FormHelper</title>
<ellipse fill="none" stroke="black" cx="800" cy="-288" rx="70.9184" ry="18.3848"/>
<text text-anchor="middle" x="800" y="-284.4" font-family="Times Roman,serif" font-size="14.00" fill="gray">\FormHelper</text>
</g>
<!-- \\TokenHelper&#45;&gt;\\FormHelper -->
<g id="edge47" class="edge"><title>\\TokenHelper&#45;&gt;\\FormHelper</title>
<path fill="none" stroke="black" d="M1047.39,-824.968C1027,-822.065 1004.38,-815.033 990,-799 844.8,-637.094 1065.73,-474.605 918,-315 908.083,-304.286 894.859,-297.398 880.853,-293.049"/>
<polygon fill="none" stroke="black" points="881.628,-289.634 871.063,-290.429 879.818,-296.396 881.628,-289.634"/>
</g>
<!-- \\SingletonViewBlockHtmlHelper -->
<g id="node31" class="node"><title>\\SingletonViewBlockHtmlHelper</title>
<polygon fill="none" stroke="black" points="1196,-736 990,-736 990,-700 1196,-700 1196,-736"/>
<text text-anchor="middle" x="1093" y="-715.1" font-family="Courier,monospace" font-size="11.00">SingletonViewBlockHtmlHelper</text>
</g>
<!-- \\HtmlHelper -->
<g id="node90" class="node"><title>\\HtmlHelper</title>
<ellipse fill="none" stroke="black" cx="800" cy="-234" rx="67.1751" ry="18.3848"/>
<text text-anchor="middle" x="800" y="-230.4" font-family="Times Roman,serif" font-size="14.00" fill="gray">HtmlHelper</text>
</g>
<!-- \\SingletonViewBlockHtmlHelper&#45;&gt;\\HtmlHelper -->
<g id="edge49" class="edge"><title>\\SingletonViewBlockHtmlHelper&#45;&gt;\\HtmlHelper</title>
<path fill="none" stroke="black" d="M999.918,-699.739C996.329,-697.175 992.992,-694.276 990,-691 859.318,-547.927 1050.91,-402.002 918,-261 907.121,-249.459 892.401,-242.376 877.051,-238.126"/>
<polygon fill="none" stroke="black" points="877.444,-234.622 866.906,-235.723 875.83,-241.434 877.444,-234.622"/>
</g>
<!-- \\FormInputHelper -->
<g id="node32" class="node"><title>\\FormInputHelper</title>
<polygon fill="none" stroke="black" points="1152,-2248 1034,-2248 1034,-2212 1152,-2212 1152,-2248"/>
<text text-anchor="middle" x="1093" y="-2227.1" font-family="Courier,monospace" font-size="11.00">FormInputHelper</text>
</g>
<!-- \\FormInputHelper&#45;&gt;\\AppHelper -->
<g id="edge51" class="edge"><title>\\FormInputHelper&#45;&gt;\\AppHelper</title>
<path fill="none" stroke="black" d="M1033.98,-2220.18C1019.02,-2216.2 1003.4,-2210.66 990,-2203 915.721,-2160.51 850.104,-2081.52 819.041,-2040.41"/>
<polygon fill="none" stroke="black" points="821.73,-2038.16 812.946,-2032.24 816.119,-2042.35 821.73,-2038.16"/>
</g>
<!-- \\WizardHelper -->
<g id="node33" class="node"><title>\\WizardHelper</title>
<polygon fill="none" stroke="black" points="1142,-2194 1044,-2194 1044,-2158 1142,-2158 1142,-2194"/>
<text text-anchor="middle" x="1093" y="-2173.1" font-family="Courier,monospace" font-size="11.00">WizardHelper</text>
</g>
<!-- \\WizardHelper&#45;&gt;\\AppHelper -->
<g id="edge53" class="edge"><title>\\WizardHelper&#45;&gt;\\AppHelper</title>
<path fill="none" stroke="black" d="M1043.79,-2166.92C1026.32,-2162.71 1006.83,-2156.86 990,-2149 927.211,-2119.67 863.394,-2069.16 828.029,-2038.94"/>
<polygon fill="none" stroke="black" points="829.944,-2035.97 820.087,-2032.08 825.369,-2041.26 829.944,-2035.97"/>
</g>
<!-- \\DisplayNumberHelper -->
<g id="node34" class="node"><title>\\DisplayNumberHelper</title>
<polygon fill="none" stroke="black" points="1165,-2032 1021,-2032 1021,-1996 1165,-1996 1165,-2032"/>
<text text-anchor="middle" x="1093" y="-2011.1" font-family="Courier,monospace" font-size="11.00">DisplayNumberHelper</text>
</g>
<!-- \\DisplayNumberHelper&#45;&gt;\\AppHelper -->
<g id="edge55" class="edge"><title>\\DisplayNumberHelper&#45;&gt;\\AppHelper</title>
<path fill="none" stroke="black" d="M1020.2,-2014C966.781,-2014 895.692,-2014 848.927,-2014"/>
<polygon fill="none" stroke="black" points="848.752,-2010.5 838.752,-2014 848.752,-2017.5 848.752,-2010.5"/>
</g>
<!-- \\MessageFlashHelper -->
<g id="node35" class="node"><title>\\MessageFlashHelper</title>
<polygon fill="none" stroke="black" points="1162,-1600 1024,-1600 1024,-1564 1162,-1564 1162,-1600"/>
<text text-anchor="middle" x="1093" y="-1579.1" font-family="Courier,monospace" font-size="11.00">MessageFlashHelper</text>
</g>
<!-- \\MessageFlashHelper&#45;&gt;\\AppHelper -->
<g id="edge57" class="edge"><title>\\MessageFlashHelper&#45;&gt;\\AppHelper</title>
<path fill="none" stroke="black" d="M1023.84,-1591.2C1011.63,-1595.2 999.732,-1600.9 990,-1609 866.832,-1711.54 818.776,-1911.91 804.769,-1985.78"/>
<polygon fill="none" stroke="black" points="801.305,-1985.27 802.945,-1995.73 808.19,-1986.53 801.305,-1985.27"/>
</g>
<!-- \\DateHelper -->
<g id="node36" class="node"><title>\\DateHelper</title>
<polygon fill="none" stroke="black" points="1135,-1546 1051,-1546 1051,-1510 1135,-1510 1135,-1546"/>
<text text-anchor="middle" x="1093" y="-1525.1" font-family="Courier,monospace" font-size="11.00">DateHelper</text>
</g>
<!-- \\DateHelper&#45;&gt;\\AppHelper -->
<g id="edge59" class="edge"><title>\\DateHelper&#45;&gt;\\AppHelper</title>
<path fill="none" stroke="black" d="M1050.83,-1530.42C1030.39,-1533.57 1006.72,-1540.42 990,-1555 854.066,-1673.59 813.424,-1904.8 803.102,-1985.44"/>
<polygon fill="none" stroke="black" points="799.576,-1985.44 801.84,-1995.79 806.525,-1986.29 799.576,-1985.44"/>
</g>
<!-- \\SnsButtonHelper -->
<g id="node37" class="node"><title>\\SnsButtonHelper</title>
<polygon fill="none" stroke="black" points="1152,-1816 1034,-1816 1034,-1780 1152,-1780 1152,-1816"/>
<text text-anchor="middle" x="1093" y="-1795.1" font-family="Courier,monospace" font-size="11.00">SnsButtonHelper</text>
</g>
<!-- \\SnsButtonHelper&#45;&gt;\\AppHelper -->
<g id="edge61" class="edge"><title>\\SnsButtonHelper&#45;&gt;\\AppHelper</title>
<path fill="none" stroke="black" d="M1033.98,-1807.82C1019.02,-1811.8 1003.4,-1817.34 990,-1825 915.721,-1867.49 850.104,-1946.48 819.041,-1987.59"/>
<polygon fill="none" stroke="black" points="816.119,-1985.65 812.946,-1995.76 821.73,-1989.84 816.119,-1985.65"/>
</g>
<!-- \\BackToHelper -->
<g id="node38" class="node"><title>\\BackToHelper</title>
<polygon fill="none" stroke="black" points="1142,-1762 1044,-1762 1044,-1726 1142,-1726 1142,-1762"/>
<text text-anchor="middle" x="1093" y="-1741.1" font-family="Courier,monospace" font-size="11.00">BackToHelper</text>
</g>
<!-- \\BackToHelper&#45;&gt;\\AppHelper -->
<g id="edge63" class="edge"><title>\\BackToHelper&#45;&gt;\\AppHelper</title>
<path fill="none" stroke="black" d="M1043.91,-1750.14C1025.88,-1754.06 1005.99,-1760.49 990,-1771 904.042,-1827.54 840.094,-1936.07 813.531,-1986.72"/>
<polygon fill="none" stroke="black" points="810.341,-1985.27 808.865,-1995.76 816.562,-1988.48 810.341,-1985.27"/>
</g>
<!-- \\NetCommonsHtmlHelper -->
<g id="node39" class="node"><title>\\NetCommonsHtmlHelper</title>
<polygon fill="none" stroke="black" points="1169,-1708 1017,-1708 1017,-1672 1169,-1672 1169,-1708"/>
<text text-anchor="middle" x="1093" y="-1687.1" font-family="Courier,monospace" font-size="11.00">NetCommonsHtmlHelper</text>
</g>
<!-- \\NetCommonsHtmlHelper&#45;&gt;\\AppHelper -->
<g id="edge65" class="edge"><title>\\NetCommonsHtmlHelper&#45;&gt;\\AppHelper</title>
<path fill="none" stroke="black" d="M1016.89,-1702.93C1007.32,-1706.53 998.072,-1711.13 990,-1717 939.522,-1753.73 848.866,-1920.47 814.1,-1986.73"/>
<polygon fill="none" stroke="black" points="810.916,-1985.27 809.388,-1995.75 817.121,-1988.51 810.916,-1985.27"/>
</g>
<!-- \\ButtonHelper -->
<g id="node40" class="node"><title>\\ButtonHelper</title>
<polygon fill="none" stroke="black" points="1142,-790 1044,-790 1044,-754 1142,-754 1142,-790"/>
<text text-anchor="middle" x="1093" y="-769.1" font-family="Courier,monospace" font-size="11.00">ButtonHelper</text>
</g>
<!-- \\ButtonHelper&#45;&gt;\\FormHelper -->
<g id="edge67" class="edge"><title>\\ButtonHelper&#45;&gt;\\FormHelper</title>
<path fill="none" stroke="black" d="M1043.82,-770.278C1024.47,-767.046 1003.65,-759.946 990,-745 859.318,-601.927 1050.91,-456.002 918,-315 907.986,-304.377 894.718,-297.531 880.698,-293.194"/>
<polygon fill="none" stroke="black" points="881.468,-289.777 870.904,-290.577 879.661,-296.54 881.468,-289.777"/>
</g>
<!-- \\ComposerHelper -->
<g id="node41" class="node"><title>\\ComposerHelper</title>
<polygon fill="none" stroke="black" points="1148,-1654 1038,-1654 1038,-1618 1148,-1618 1148,-1654"/>
<text text-anchor="middle" x="1093" y="-1633.1" font-family="Courier,monospace" font-size="11.00">ComposerHelper</text>
</g>
<!-- \\ComposerHelper&#45;&gt;\\AppHelper -->
<g id="edge69" class="edge"><title>\\ComposerHelper&#45;&gt;\\AppHelper</title>
<path fill="none" stroke="black" d="M1037.35,-1641.99C1020.81,-1645.92 1003.52,-1652.38 990,-1663 879.54,-1749.71 824.898,-1919.1 806.922,-1985.93"/>
<polygon fill="none" stroke="black" points="803.499,-1985.18 804.349,-1995.74 810.271,-1986.96 803.499,-1985.18"/>
</g>
<!-- \\LinkButtonHelper -->
<g id="node42" class="node"><title>\\LinkButtonHelper</title>
<polygon fill="none" stroke="black" points="1155,-898 1031,-898 1031,-862 1155,-862 1155,-898"/>
<text text-anchor="middle" x="1093" y="-877.1" font-family="Courier,monospace" font-size="11.00">LinkButtonHelper</text>
</g>
<!-- \\LinkButtonHelper&#45;&gt;\\FormHelper -->
<g id="edge71" class="edge"><title>\\LinkButtonHelper&#45;&gt;\\FormHelper</title>
<path fill="none" stroke="black" d="M1030.45,-875.714C1015.26,-871.707 1000.41,-864.775 990,-853 830.252,-672.227 1080.57,-493.24 918,-315 908.162,-304.213 894.974,-297.293 880.979,-292.934"/>
<polygon fill="none" stroke="black" points="881.757,-289.519 871.192,-290.31 879.944,-296.281 881.757,-289.519"/>
</g>
<!-- \\TableListHelper -->
<g id="node43" class="node"><title>\\TableListHelper</title>
<polygon fill="none" stroke="black" points="1152,-2518 1034,-2518 1034,-2482 1152,-2482 1152,-2518"/>
<text text-anchor="middle" x="1093" y="-2497.1" font-family="Courier,monospace" font-size="11.00">TableListHelper</text>
</g>
<!-- \\TableListHelper&#45;&gt;\\AppHelper -->
<g id="edge73" class="edge"><title>\\TableListHelper&#45;&gt;\\AppHelper</title>
<path fill="none" stroke="black" d="M1033.75,-2494.81C1017.93,-2490.86 1001.94,-2484.18 990,-2473 916.145,-2403.82 956.182,-2350.71 918,-2257 885.275,-2176.68 838.253,-2085.6 814.667,-2041.22"/>
<polygon fill="none" stroke="black" points="817.664,-2039.4 809.869,-2032.22 811.488,-2042.69 817.664,-2039.4"/>
</g>
<!-- \\NetCommonsTimeHelper -->
<g id="node44" class="node"><title>\\NetCommonsTimeHelper</title>
<polygon fill="none" stroke="black" points="1169,-2464 1017,-2464 1017,-2428 1169,-2428 1169,-2464"/>
<text text-anchor="middle" x="1093" y="-2443.1" font-family="Courier,monospace" font-size="11.00">NetCommonsTimeHelper</text>
</g>
<!-- \\NetCommonsTimeHelper&#45;&gt;\\AppHelper -->
<g id="edge75" class="edge"><title>\\NetCommonsTimeHelper&#45;&gt;\\AppHelper</title>
<path fill="none" stroke="black" d="M1016.81,-2434.48C1007.09,-2430.68 997.818,-2425.64 990,-2419 929.965,-2367.97 951.213,-2328.45 918,-2257 881.348,-2178.15 835.895,-2086.06 813.612,-2041.26"/>
<polygon fill="none" stroke="black" points="816.684,-2039.58 809.094,-2032.19 810.418,-2042.7 816.684,-2039.58"/>
</g>
<!-- \\NetCommonsFormHelper -->
<g id="node45" class="node"><title>\\NetCommonsFormHelper</title>
<polygon fill="none" stroke="black" points="1169,-2410 1017,-2410 1017,-2374 1169,-2374 1169,-2410"/>
<text text-anchor="middle" x="1093" y="-2389.1" font-family="Courier,monospace" font-size="11.00">NetCommonsFormHelper</text>
</g>
<!-- \\NetCommonsFormHelper&#45;&gt;\\AppHelper -->
<g id="edge77" class="edge"><title>\\NetCommonsFormHelper&#45;&gt;\\AppHelper</title>
<path fill="none" stroke="black" d="M1016.75,-2379.71C1007.14,-2376.02 997.925,-2371.22 990,-2365 961.382,-2342.54 851.845,-2120.7 813.418,-2041.73"/>
<polygon fill="none" stroke="black" points="816.407,-2039.87 808.889,-2032.41 810.111,-2042.93 816.407,-2039.87"/>
</g>
<!-- \\TitleIconHelper -->
<g id="node46" class="node"><title>\\TitleIconHelper</title>
<polygon fill="none" stroke="black" points="1152,-2356 1034,-2356 1034,-2320 1152,-2320 1152,-2356"/>
<text text-anchor="middle" x="1093" y="-2335.1" font-family="Courier,monospace" font-size="11.00">TitleIconHelper</text>
</g>
<!-- \\TitleIconHelper&#45;&gt;\\AppHelper -->
<g id="edge79" class="edge"><title>\\TitleIconHelper&#45;&gt;\\AppHelper</title>
<path fill="none" stroke="black" d="M1033.8,-2330.4C1018.51,-2326.4 1002.78,-2320.3 990,-2311 939.522,-2274.27 848.866,-2107.53 814.1,-2041.27"/>
<polygon fill="none" stroke="black" points="817.121,-2039.49 809.388,-2032.25 810.916,-2042.73 817.121,-2039.49"/>
</g>
<!-- \\DatetimePickerHelper -->
<g id="node47" class="node"><title>\\DatetimePickerHelper</title>
<polygon fill="none" stroke="black" points="1169,-2302 1017,-2302 1017,-2266 1169,-2266 1169,-2302"/>
<text text-anchor="middle" x="1093" y="-2281.1" font-family="Courier,monospace" font-size="11.00">DatetimePickerHelper</text>
</g>
<!-- \\DatetimePickerHelper&#45;&gt;\\AppHelper -->
<g id="edge81" class="edge"><title>\\DatetimePickerHelper&#45;&gt;\\AppHelper</title>
<path fill="none" stroke="black" d="M1016.86,-2270.15C1007.4,-2266.7 998.186,-2262.38 990,-2257 904.042,-2200.46 840.094,-2091.93 813.531,-2041.28"/>
<polygon fill="none" stroke="black" points="816.562,-2039.52 808.865,-2032.24 810.341,-2042.73 816.562,-2039.52"/>
</g>
<!-- \\Model -->
<g id="node108" class="node"><title>\\Model</title>
<ellipse fill="none" stroke="black" cx="44" cy="-2743" rx="43.8406" ry="18.3848"/>
<text text-anchor="middle" x="44" y="-2739.4" font-family="Times Roman,serif" font-size="14.00" fill="gray">\Model</text>
</g>
<!-- \\NetCommonsAppModel&#45;&gt;\\Model -->
<g id="edge83" class="edge"><title>\\NetCommonsAppModel&#45;&gt;\\Model</title>
<path fill="none" stroke="black" d="M172.749,-2743C148.379,-2743 121.357,-2743 98.3871,-2743"/>
<polygon fill="none" stroke="black" points="98.1425,-2739.5 88.1425,-2743 98.1424,-2746.5 98.1425,-2739.5"/>
</g>
<!-- \\OriginalKeyBehavior -->
<g id="node49" class="node"><title>\\OriginalKeyBehavior</title>
<polygon fill="none" stroke="black" points="1165,-682 1021,-682 1021,-646 1165,-646 1165,-682"/>
<text text-anchor="middle" x="1093" y="-661.1" font-family="Courier,monospace" font-size="11.00">OriginalKeyBehavior</text>
</g>
<!-- \\ModelBehavior -->
<g id="node110" class="node"><title>\\ModelBehavior</title>
<ellipse fill="none" stroke="black" cx="800" cy="-180" rx="86.9741" ry="18.3848"/>
<text text-anchor="middle" x="800" y="-176.4" font-family="Times Roman,serif" font-size="14.00" fill="gray">\ModelBehavior</text>
</g>
<!-- \\OriginalKeyBehavior&#45;&gt;\\ModelBehavior -->
<g id="edge85" class="edge"><title>\\OriginalKeyBehavior&#45;&gt;\\ModelBehavior</title>
<path fill="none" stroke="black" d="M1020.34,-656.25C1008.9,-652.073 998.166,-645.94 990,-637 859.318,-493.927 1050.91,-348.002 918,-207 910.736,-199.293 901.758,-193.575 892.025,-189.36"/>
<polygon fill="none" stroke="black" points="893.083,-186.019 882.491,-185.764 890.613,-192.568 893.083,-186.019"/>
</g>
<!-- \\TrackableBehavior -->
<g id="node50" class="node"><title>\\TrackableBehavior</title>
<polygon fill="none" stroke="black" points="1158,-628 1028,-628 1028,-592 1158,-592 1158,-628"/>
<text text-anchor="middle" x="1093" y="-607.1" font-family="Courier,monospace" font-size="11.00">TrackableBehavior</text>
</g>
<!-- \\TrackableBehavior&#45;&gt;\\ModelBehavior -->
<g id="edge87" class="edge"><title>\\TrackableBehavior&#45;&gt;\\ModelBehavior</title>
<path fill="none" stroke="black" d="M1027.41,-604.347C1013.43,-600.238 999.911,-593.6 990,-583 873.795,-458.716 1036.14,-329.443 918,-207 910.646,-199.379 901.615,-193.712 891.852,-189.525"/>
<polygon fill="none" stroke="black" points="892.89,-186.176 882.298,-185.949 890.436,-192.732 892.89,-186.176"/>
</g>
<!-- \\YAExceptionRenderer -->
<g id="node51" class="node"><title>\\YAExceptionRenderer</title>
<polygon fill="none" stroke="black" points="1165,-574 1021,-574 1021,-538 1165,-538 1165,-574"/>
<text text-anchor="middle" x="1093" y="-553.1" font-family="Courier,monospace" font-size="11.00">YAExceptionRenderer</text>
</g>
<!-- \\ExceptionRenderer -->
<g id="node113" class="node"><title>\\ExceptionRenderer</title>
<ellipse fill="none" stroke="black" cx="800" cy="-126" rx="118.087" ry="18.3848"/>
<text text-anchor="middle" x="800" y="-122.4" font-family="Times Roman,serif" font-size="14.00" fill="gray">TEHxceptionRenderer</text>
</g>
<!-- \\YAExceptionRenderer&#45;&gt;\\ExceptionRenderer -->
<g id="edge89" class="edge"><title>\\YAExceptionRenderer&#45;&gt;\\ExceptionRenderer</title>
<path fill="none" stroke="black" d="M1020.25,-547.995C1008.89,-543.838 998.206,-537.777 990,-529 873.795,-404.716 1036.14,-275.443 918,-153 913.747,-148.592 908.932,-144.837 903.739,-141.645"/>
<polygon fill="none" stroke="black" points="905.142,-138.426 894.675,-136.787 901.836,-144.596 905.142,-138.426"/>
</g>
<!-- \\NetCommonsMigration -->
<g id="node52" class="node"><title>\\NetCommonsMigration</title>
<polygon fill="none" stroke="black" points="872,-1227 728,-1227 728,-1191 872,-1191 872,-1227"/>
<text text-anchor="middle" x="800" y="-1206.1" font-family="Courier,monospace" font-size="11.00">NetCommonsMigration</text>
</g>
<!-- \\CakeMigration -->
<g id="node115" class="node"><title>\\CakeMigration</title>
<ellipse fill="none" stroke="black" cx="503" cy="-234" rx="84.8528" ry="18.3848"/>
<text text-anchor="middle" x="503" y="-230.4" font-family="Times Roman,serif" font-size="14.00" fill="gray">\CakeMigration</text>
</g>
<!-- \\NetCommonsMigration&#45;&gt;\\CakeMigration -->
<g id="edge91" class="edge"><title>\\NetCommonsMigration&#45;&gt;\\CakeMigration</title>
<path fill="none" stroke="black" d="M727.314,-1210.12C710.227,-1206.78 693.63,-1199.94 682,-1187 544.046,-1033.48 743.062,-418.782 610,-261 604.616,-254.615 597.962,-249.622 590.628,-245.732"/>
<polygon fill="none" stroke="black" points="591.571,-242.316 581.019,-241.372 588.679,-248.691 591.571,-242.316"/>
</g>
<!-- \\Box -->
<g id="node53" class="node"><title>\\Box</title>
<polygon fill="none" stroke="black" points="1120,-2788 1066,-2788 1066,-2752 1120,-2752 1120,-2788"/>
<text text-anchor="middle" x="1093" y="-2767.1" font-family="Courier,monospace" font-size="11.00">Box</text>
</g>
<!-- \\BoxesAppModel -->
<g id="node55" class="node"><title>\\BoxesAppModel</title>
<polygon fill="none" stroke="black" points="852,-2734 748,-2734 748,-2698 852,-2698 852,-2734"/>
<text text-anchor="middle" x="800" y="-2713.1" font-family="Courier,monospace" font-size="11.00">BoxesAppModel</text>
</g>
<!-- \\Box&#45;&gt;\\BoxesAppModel -->
<g id="edge93" class="edge"><title>\\Box&#45;&gt;\\BoxesAppModel</title>
<path fill="none" stroke="black" d="M1065.96,-2765.02C1019.9,-2756.53 925.102,-2739.06 862.03,-2727.43"/>
<polygon fill="none" stroke="black" points="862.661,-2723.99 852.193,-2725.62 861.392,-2730.87 862.661,-2723.99"/>
</g>
<!-- \\BoxesPage -->
<g id="node54" class="node"><title>\\BoxesPage</title>
<polygon fill="none" stroke="black" points="1131,-520 1055,-520 1055,-484 1131,-484 1131,-520"/>
<text text-anchor="middle" x="1093" y="-499.1" font-family="Courier,monospace" font-size="11.00">BoxesPage</text>
</g>
<!-- \\PagesAppModel -->
<g id="node118" class="node"><title>\\PagesAppModel</title>
<ellipse fill="none" stroke="black" cx="800" cy="-72" rx="90.0096" ry="18.3848"/>
<text text-anchor="middle" x="800" y="-68.4" font-family="Times Roman,serif" font-size="14.00" fill="gray">\PagesAppModel</text>
</g>
<!-- \\BoxesPage&#45;&gt;\\PagesAppModel -->
<g id="edge95" class="edge"><title>\\BoxesPage&#45;&gt;\\PagesAppModel</title>
<path fill="none" stroke="black" d="M1054.38,-501.547C1032.52,-499.191 1006.35,-492.487 990,-475 873.795,-350.716 1036.14,-221.443 918,-99 911.177,-91.9286 902.91,-86.5397 893.954,-82.4544"/>
<polygon fill="none" stroke="black" points="894.988,-79.0992 884.403,-78.6533 892.4,-85.6031 894.988,-79.0992"/>
</g>
<!-- \\BoxesAppModel&#45;&gt;\\AppModel -->
<g id="edge97" class="edge"><title>\\BoxesAppModel&#45;&gt;\\AppModel</title>
<path fill="none" stroke="black" d="M747.927,-2720.73C691.623,-2725.85 602.737,-2733.93 548.944,-2738.82"/>
<polygon fill="none" stroke="black" points="548.316,-2735.37 538.673,-2739.76 548.949,-2742.34 548.316,-2735.37"/>
</g>
<!-- \\BoxesSchema -->
<g id="node56" class="node"><title>\\BoxesSchema</title>
<polygon fill="none" stroke="black" points="1138,-466 1048,-466 1048,-430 1138,-430 1138,-466"/>
<text text-anchor="middle" x="1093" y="-445.1" font-family="Courier,monospace" font-size="11.00">BoxesSchema</text>
</g>
<!-- \\CakeSchema -->
<g id="node121" class="node"><title>\\CakeSchema</title>
<ellipse fill="none" stroke="black" cx="800" cy="-18" rx="77.0746" ry="18.3848"/>
<text text-anchor="middle" x="800" y="-14.4" font-family="Times Roman,serif" font-size="14.00" fill="gray">\CakeSchema</text>
</g>
<!-- \\BoxesSchema&#45;&gt;\\CakeSchema -->
<g id="edge99" class="edge"><title>\\BoxesSchema&#45;&gt;\\CakeSchema</title>
<path fill="none" stroke="black" d="M1090.86,-429.713C1082.37,-365.789 1045.04,-150.503 918,-45 907.886,-36.6012 895.67,-30.6949 882.982,-26.5644"/>
<polygon fill="none" stroke="black" points="883.793,-23.1556 873.214,-23.74 881.848,-29.8801 883.793,-23.1556"/>
</g>
<!-- \\Init -->
<g id="node57" class="node"><title>\\Init</title>
<polygon fill="none" stroke="black" points="1120,-1222 1066,-1222 1066,-1186 1120,-1186 1120,-1222"/>
<text text-anchor="middle" x="1093" y="-1201.1" font-family="Courier,monospace" font-size="11.00">Init</text>
</g>
<!-- \\Init&#45;&gt;\\CakeMigration -->
<g id="edge101" class="edge"><title>\\Init&#45;&gt;\\CakeMigration</title>
<path fill="none" stroke="black" d="M1065.87,-1204.35C1042.5,-1203.12 1009.52,-1197.47 990,-1177 883.414,-1065.21 972.903,-981.375 918,-837 842.717,-639.035 777.573,-612.007 682,-423 646.446,-352.687 670.269,-311.751 610,-261 602.951,-255.064 594.773,-250.406 586.139,-246.754"/>
<polygon fill="none" stroke="black" points="587.216,-243.42 576.624,-243.174 584.751,-249.971 587.216,-243.42"/>
</g>
<!-- \\BoxRecords -->
<g id="node58" class="node"><title>\\BoxRecords</title>
<polygon fill="none" stroke="black" points="1135,-1330 1051,-1330 1051,-1294 1135,-1294 1135,-1330"/>
<text text-anchor="middle" x="1093" y="-1309.1" font-family="Courier,monospace" font-size="11.00">BoxRecords</text>
</g>
<!-- \\BoxRecords&#45;&gt;\\NetCommonsMigration -->
<g id="edge103" class="edge"><title>\\BoxRecords&#45;&gt;\\NetCommonsMigration</title>
<path fill="none" stroke="black" d="M1050.56,-1302.13C1031.84,-1297.46 1009.66,-1291.48 990,-1285 941.787,-1269.11 888.201,-1247.28 850.261,-1231.09"/>
<polygon fill="none" stroke="black" points="851.536,-1227.83 840.966,-1227.1 848.777,-1234.26 851.536,-1227.83"/>
</g>
</g>
</svg>
