<?xml version="1.0" encoding="UTF-8" standalone="no"?>
<!DOCTYPE svg PUBLIC "-//W3C//DTD SVG 1.1//EN"
 "http://www.w3.org/Graphics/SVG/1.1/DTD/svg11.dtd">
<!-- Generated by graphviz version 2.26.3 (20100126.1600)
 -->
<!-- Title: G Pages: 1 -->
<svg width="1220pt" height="2928pt"
 viewBox="0.00 0.00 1220.00 2927.60" xmlns="http://www.w3.org/2000/svg" xmlns:xlink="http://www.w3.org/1999/xlink">
<g id="graph1" class="graph" transform="scale(1 1) rotate(0) translate(4 2923.6)">
<title>G</title>
<polygon fill="white" stroke="white" points="-4,5 -4,-2923.6 1217,-2923.6 1217,5 -4,5"/>
<g id="graph2" class="cluster"><title>cluster_Global</title>
<polyline fill="none" stroke="gray" points="177,-407.599 1192,-407.599 "/>
<path fill="none" stroke="gray" d="M1192,-407.599C1198,-407.599 1204,-413.599 1204,-419.599"/>
<polyline fill="none" stroke="gray" points="1204,-419.599 1204,-2899.6 "/>
<path fill="none" stroke="gray" d="M1204,-2899.6C1204,-2905.6 1198,-2911.6 1192,-2911.6"/>
<polyline fill="none" stroke="gray" points="1192,-2911.6 177,-2911.6 "/>
<path fill="none" stroke="gray" d="M177,-2911.6C171,-2911.6 165,-2905.6 165,-2899.6"/>
<polyline fill="none" stroke="gray" points="165,-2899.6 165,-419.599 "/>
<path fill="none" stroke="gray" d="M165,-419.599C165,-413.599 171,-407.599 177,-407.599"/>
<text text-anchor="middle" x="684.5" y="-2897.7" font-family="Times Roman,serif" font-size="11.00" fill="gray">Global</text>
</g>
<!-- \\AppController -->
<g id="node2" class="node"><title>\\AppController</title>
<polygon fill="none" stroke="black" points="555,-1505.6 451,-1505.6 451,-1469.6 555,-1469.6 555,-1505.6"/>
<text text-anchor="middle" x="503" y="-1484.7" font-family="Courier,monospace" font-size="11.00">AppController</text>
</g>
<!-- \\Controller -->
<g id="node64" class="node"><title>\\Controller</title>
<ellipse fill="none" stroke="black" cx="242" cy="-304.599" rx="63.1385" ry="18.3848"/>
<text text-anchor="middle" x="242" y="-300.999" font-family="Times Roman,serif" font-size="14.00" fill="gray">\Controller</text>
</g>
<!-- \\AppController&#45;&gt;\\Controller -->
<g id="edge3" class="edge"><title>\\AppController&#45;&gt;\\Controller</title>
<path fill="none" stroke="black" d="M450.826,-1489.56C430.791,-1487.43 409.512,-1481.12 396,-1465.6 233.541,-1279.01 452.043,-566.295 324,-354.599 316.077,-341.5 303.29,-331.366 290.147,-323.754"/>
<polygon fill="none" stroke="black" points="291.514,-320.516 281.046,-318.882 288.21,-326.688 291.514,-320.516"/>
</g>
<!-- \\AppModel -->
<g id="node3" class="node"><title>\\AppModel</title>
<polygon fill="none" stroke="black" points="538,-2854.6 468,-2854.6 468,-2818.6 538,-2818.6 538,-2854.6"/>
<text text-anchor="middle" x="503" y="-2833.7" font-family="Courier,monospace" font-size="11.00">AppModel</text>
</g>
<!-- \\NetCommonsAppModel -->
<g id="node50" class="node"><title>\\NetCommonsAppModel</title>
<polygon fill="none" stroke="black" points="311,-2854.6 173,-2854.6 173,-2818.6 311,-2818.6 311,-2854.6"/>
<text text-anchor="middle" x="242" y="-2833.7" font-family="Courier,monospace" font-size="11.00">NetCommonsAppModel</text>
</g>
<!-- \\AppModel&#45;&gt;\\NetCommonsAppModel -->
<g id="edge5" class="edge"><title>\\AppModel&#45;&gt;\\NetCommonsAppModel</title>
<path fill="none" stroke="black" d="M467.256,-2836.6C429.848,-2836.6 369.903,-2836.6 321.254,-2836.6"/>
<polygon fill="none" stroke="black" points="321.056,-2833.1 311.056,-2836.6 321.056,-2840.1 321.056,-2833.1"/>
</g>
<!-- \\DatabaseConfiguration -->
<g id="node4" class="node"><title>\\DatabaseConfiguration</title>
<polygon fill="none" stroke="black" points="879,-2827.6 721,-2827.6 721,-2791.6 879,-2791.6 879,-2827.6"/>
<text text-anchor="middle" x="800" y="-2806.7" font-family="Courier,monospace" font-size="11.00">DatabaseConfiguration</text>
</g>
<!-- \\DatabaseConfiguration&#45;&gt;\\AppModel -->
<g id="edge7" class="edge"><title>\\DatabaseConfiguration&#45;&gt;\\AppModel</title>
<path fill="none" stroke="black" d="M720.8,-2816.8C665.959,-2821.78 594.863,-2828.25 549.084,-2832.41"/>
<polygon fill="none" stroke="black" points="548.509,-2828.95 538.867,-2833.34 549.143,-2835.92 548.509,-2828.95"/>
</g>
<!-- \\AppHelper -->
<g id="node5" class="node"><title>\\AppHelper</title>
<polygon fill="none" stroke="black" points="838,-1801.6 762,-1801.6 762,-1765.6 838,-1765.6 838,-1801.6"/>
<text text-anchor="middle" x="800" y="-1780.7" font-family="Courier,monospace" font-size="11.00">AppHelper</text>
</g>
<!-- \\Helper -->
<g id="node68" class="node"><title>\\Helper</title>
<ellipse fill="none" stroke="black" cx="503" cy="-381.599" rx="43.8406" ry="18.3848"/>
<text text-anchor="middle" x="503" y="-377.999" font-family="Times Roman,serif" font-size="14.00" fill="gray">Helper</text>
</g>
<!-- \\AppHelper&#45;&gt;\\Helper -->
<g id="edge9" class="edge"><title>\\AppHelper&#45;&gt;\\Helper</title>
<path fill="none" stroke="black" d="M792.694,-1765.5C771.354,-1711.72 708.927,-1547.79 682,-1405.6 661.231,-1295.93 683.59,-487.525 610,-403.599 596.797,-388.542 576.281,-382.163 556.732,-379.866"/>
<polygon fill="none" stroke="black" points="556.9,-376.367 546.641,-379.012 556.31,-383.342 556.9,-376.367"/>
</g>
<!-- \\NetCommonsDeleteTest -->
<g id="node6" class="node"><title>\\NetCommonsDeleteTest</title>
<polygon fill="none" stroke="black" points="1169,-2773.6 1017,-2773.6 1017,-2737.6 1169,-2737.6 1169,-2773.6"/>
<text text-anchor="middle" x="1093" y="-2752.7" font-family="Courier,monospace" font-size="11.00">NetCommonsDeleteTest</text>
</g>
<!-- \\NetCommonsModelTestCase -->
<g id="node15" class="node"><title>\\NetCommonsModelTestCase</title>
<polygon fill="none" stroke="black" points="886,-2665.6 714,-2665.6 714,-2629.6 886,-2629.6 886,-2665.6"/>
<text text-anchor="middle" x="800" y="-2644.7" font-family="Courier,monospace" font-size="11.00">NetCommonsModelTestCase</text>
</g>
<!-- \\NetCommonsDeleteTest&#45;&gt;\\NetCommonsModelTestCase -->
<g id="edge11" class="edge"><title>\\NetCommonsDeleteTest&#45;&gt;\\NetCommonsModelTestCase</title>
<path fill="none" stroke="black" d="M1016.97,-2739.28C1007.68,-2736.24 998.49,-2732.7 990,-2728.6 953.981,-2711.2 954.288,-2691.43 918,-2674.6 910.962,-2671.34 903.501,-2668.45 895.884,-2665.91"/>
<polygon fill="none" stroke="black" points="896.762,-2662.51 886.173,-2662.86 894.666,-2669.19 896.762,-2662.51"/>
</g>
<!-- \\NetCommonsConsoleTestCase -->
<g id="node7" class="node"><title>\\NetCommonsConsoleTestCase</title>
<polygon fill="none" stroke="black" points="892,-2773.6 708,-2773.6 708,-2737.6 892,-2737.6 892,-2773.6"/>
<text text-anchor="middle" x="800" y="-2752.7" font-family="Courier,monospace" font-size="11.00">NetCommonsConsoleTestCase</text>
</g>
<!-- \\NetCommonsCakeTestCase -->
<g id="node13" class="node"><title>\\NetCommonsCakeTestCase</title>
<polygon fill="none" stroke="black" points="585,-2692.6 421,-2692.6 421,-2656.6 585,-2656.6 585,-2692.6"/>
<text text-anchor="middle" x="503" y="-2671.7" font-family="Courier,monospace" font-size="11.00">NetCommonsCakeTestCase</text>
</g>
<!-- \\NetCommonsConsoleTestCase&#45;&gt;\\NetCommonsCakeTestCase -->
<g id="edge13" class="edge"><title>\\NetCommonsConsoleTestCase&#45;&gt;\\NetCommonsCakeTestCase</title>
<path fill="none" stroke="black" d="M717.936,-2737.58C705.852,-2734.71 693.579,-2731.67 682,-2728.6 644.303,-2718.61 602.565,-2706.11 568.882,-2695.65"/>
<polygon fill="none" stroke="black" points="569.742,-2692.25 559.154,-2692.61 567.658,-2698.93 569.742,-2692.25"/>
</g>
<!-- \\NetCommonsGetTest -->
<g id="node8" class="node"><title>\\NetCommonsGetTest</title>
<polygon fill="none" stroke="black" points="1158,-2719.6 1028,-2719.6 1028,-2683.6 1158,-2683.6 1158,-2719.6"/>
<text text-anchor="middle" x="1093" y="-2698.7" font-family="Courier,monospace" font-size="11.00">NetCommonsGetTest</text>
</g>
<!-- \\NetCommonsGetTest&#45;&gt;\\NetCommonsModelTestCase -->
<g id="edge15" class="edge"><title>\\NetCommonsGetTest&#45;&gt;\\NetCommonsModelTestCase</title>
<path fill="none" stroke="black" d="M1027.25,-2689.48C988.582,-2682.36 939.008,-2673.22 896.034,-2665.3"/>
<polygon fill="none" stroke="black" points="896.588,-2661.84 886.12,-2663.47 895.32,-2668.73 896.588,-2661.84"/>
</g>
<!-- \\NetCommonsHelperTestCase -->
<g id="node9" class="node"><title>\\NetCommonsHelperTestCase</title>
<polygon fill="none" stroke="black" points="889,-2719.6 711,-2719.6 711,-2683.6 889,-2683.6 889,-2719.6"/>
<text text-anchor="middle" x="800" y="-2698.7" font-family="Courier,monospace" font-size="11.00">NetCommonsHelperTestCase</text>
</g>
<!-- \\NetCommonsHelperTestCase&#45;&gt;\\NetCommonsCakeTestCase -->
<g id="edge17" class="edge"><title>\\NetCommonsHelperTestCase&#45;&gt;\\NetCommonsCakeTestCase</title>
<path fill="none" stroke="black" d="M710.487,-2693.46C674.267,-2690.17 632.456,-2686.37 595.9,-2683.04"/>
<polygon fill="none" stroke="black" points="596.013,-2679.54 585.737,-2682.12 595.379,-2686.51 596.013,-2679.54"/>
</g>
<!-- \\NetCommonsControllerBaseTestCase -->
<g id="node10" class="node"><title>\\NetCommonsControllerBaseTestCase</title>
<polygon fill="none" stroke="black" points="916,-1396.6 684,-1396.6 684,-1360.6 916,-1360.6 916,-1396.6"/>
<text text-anchor="middle" x="800" y="-1375.7" font-family="Courier,monospace" font-size="11.00">NetCommonsControllerBaseTestCase</text>
</g>
<!-- \\ControllerTestCase -->
<g id="node74" class="node"><title>\\ControllerTestCase</title>
<ellipse fill="none" stroke="black" cx="503" cy="-327.599" rx="106.773" ry="18.3848"/>
<text text-anchor="middle" x="503" y="-323.999" font-family="Times Roman,serif" font-size="14.00" fill="gray">\ControllerTestCase</text>
</g>
<!-- \\NetCommonsControllerBaseTestCase&#45;&gt;\\ControllerTestCase -->
<g id="edge19" class="edge"><title>\\NetCommonsControllerBaseTestCase&#45;&gt;\\ControllerTestCase</title>
<path fill="none" stroke="black" d="M729.181,-1360.52C711.003,-1352.47 693.387,-1340.97 682,-1324.6 558.556,-1147.17 749.057,-520.078 610,-354.599 606.379,-350.291 602.181,-346.615 597.585,-343.485"/>
<polygon fill="none" stroke="black" points="599.32,-340.445 588.921,-338.419 595.787,-346.488 599.32,-340.445"/>
</g>
<!-- \\NetCommonsValidateTest -->
<g id="node11" class="node"><title>\\NetCommonsValidateTest</title>
<polygon fill="none" stroke="black" points="1175,-2665.6 1011,-2665.6 1011,-2629.6 1175,-2629.6 1175,-2665.6"/>
<text text-anchor="middle" x="1093" y="-2644.7" font-family="Courier,monospace" font-size="11.00">NetCommonsValidateTest</text>
</g>
<!-- \\NetCommonsValidateTest&#45;&gt;\\NetCommonsModelTestCase -->
<g id="edge21" class="edge"><title>\\NetCommonsValidateTest&#45;&gt;\\NetCommonsModelTestCase</title>
<path fill="none" stroke="black" d="M1010.21,-2647.6C974.791,-2647.6 933.196,-2647.6 896.397,-2647.6"/>
<polygon fill="none" stroke="black" points="896.154,-2644.1 886.154,-2647.6 896.154,-2651.1 896.154,-2644.1"/>
</g>
<!-- \\NetCommonsTestSuite -->
<g id="node12" class="node"><title>\\NetCommonsTestSuite</title>
<polygon fill="none" stroke="black" points="1165,-1207.6 1021,-1207.6 1021,-1171.6 1165,-1171.6 1165,-1207.6"/>
<text text-anchor="middle" x="1093" y="-1186.7" font-family="Courier,monospace" font-size="11.00">NetCommonsTestSuite</text>
</g>
<!-- \\CakeTestSuite -->
<g id="node77" class="node"><title>\\CakeTestSuite</title>
<ellipse fill="none" stroke="black" cx="800" cy="-381.599" rx="84.1457" ry="18.3848"/>
<text text-anchor="middle" x="800" y="-377.999" font-family="Times Roman,serif" font-size="14.00" fill="gray">\CakeTestSuite</text>
</g>
<!-- \\NetCommonsTestSuite&#45;&gt;\\CakeTestSuite -->
<g id="edge23" class="edge"><title>\\NetCommonsTestSuite&#45;&gt;\\CakeTestSuite</title>
<path fill="none" stroke="black" d="M1020.33,-1182.52C1008.74,-1178.29 997.962,-1171.97 990,-1162.6 880.272,-1033.51 1032.31,-528.654 918,-403.599 911.146,-396.101 902.623,-390.66 893.316,-386.766"/>
<polygon fill="none" stroke="black" points="894.374,-383.428 883.78,-383.368 892.025,-390.022 894.374,-383.428"/>
</g>
<!-- \\CakeTestCase -->
<g id="node79" class="node"><title>\\CakeTestCase</title>
<ellipse fill="none" stroke="black" cx="242" cy="-381.599" rx="82.0244" ry="18.3848"/>
<text text-anchor="middle" x="242" y="-377.999" font-family="Times Roman,serif" font-size="14.00" fill="gray">\CakeTestCase</text>
</g>
<!-- \\NetCommonsCakeTestCase&#45;&gt;\\CakeTestCase -->
<g id="edge25" class="edge"><title>\\NetCommonsCakeTestCase&#45;&gt;\\CakeTestCase</title>
<path fill="none" stroke="black" d="M501.149,-2656.55C490.139,-2548.83 432.526,-1979.85 396,-1514.6 386.318,-1391.28 402.426,-499.265 324,-403.599 322.283,-401.505 320.39,-399.598 318.355,-397.862"/>
<polygon fill="none" stroke="black" points="320.087,-394.804 309.875,-391.981 316.098,-400.556 320.087,-394.804"/>
</g>
<!-- \\NetCommonsSaveTest -->
<g id="node14" class="node"><title>\\NetCommonsSaveTest</title>
<polygon fill="none" stroke="black" points="1162,-2611.6 1024,-2611.6 1024,-2575.6 1162,-2575.6 1162,-2611.6"/>
<text text-anchor="middle" x="1093" y="-2590.7" font-family="Courier,monospace" font-size="11.00">NetCommonsSaveTest</text>
</g>
<!-- \\NetCommonsSaveTest&#45;&gt;\\NetCommonsModelTestCase -->
<g id="edge27" class="edge"><title>\\NetCommonsSaveTest&#45;&gt;\\NetCommonsModelTestCase</title>
<path fill="none" stroke="black" d="M1023.93,-2606.33C985.795,-2613.36 937.829,-2622.2 896.084,-2629.89"/>
<polygon fill="none" stroke="black" points="895.372,-2626.46 886.172,-2631.72 896.641,-2633.35 895.372,-2626.46"/>
</g>
<!-- \\NetCommonsModelTestCase&#45;&gt;\\NetCommonsCakeTestCase -->
<g id="edge29" class="edge"><title>\\NetCommonsModelTestCase&#45;&gt;\\NetCommonsCakeTestCase</title>
<path fill="none" stroke="black" d="M713.696,-2655.45C676.671,-2658.81 633.35,-2662.75 595.65,-2666.18"/>
<polygon fill="none" stroke="black" points="595.328,-2662.69 585.686,-2667.08 595.962,-2669.66 595.328,-2662.69"/>
</g>
<!-- \\NetCommonsControllerTestCase -->
<g id="node16" class="node"><title>\\NetCommonsControllerTestCase</title>
<polygon fill="none" stroke="black" points="1196,-1423.6 990,-1423.6 990,-1387.6 1196,-1387.6 1196,-1423.6"/>
<text text-anchor="middle" x="1093" y="-1402.7" font-family="Courier,monospace" font-size="11.00">NetCommonsControllerTestCase</text>
</g>
<!-- \\NetCommonsControllerTestCase&#45;&gt;\\NetCommonsControllerBaseTestCase -->
<g id="edge31" class="edge"><title>\\NetCommonsControllerTestCase&#45;&gt;\\NetCommonsControllerBaseTestCase</title>
<path fill="none" stroke="black" d="M989.699,-1396.08C969.289,-1394.2 947.65,-1392.21 926.571,-1390.26"/>
<polygon fill="none" stroke="black" points="926.885,-1386.78 916.606,-1389.34 926.243,-1393.75 926.885,-1386.78"/>
</g>
<!-- \\NetCommonsAppController -->
<g id="node17" class="node"><title>\\NetCommonsAppController</title>
<polygon fill="none" stroke="black" points="886,-1315.6 714,-1315.6 714,-1279.6 886,-1279.6 886,-1315.6"/>
<text text-anchor="middle" x="800" y="-1294.7" font-family="Courier,monospace" font-size="11.00">NetCommonsAppController</text>
</g>
<!-- \\NetCommonsAppController&#45;&gt;\\Controller -->
<g id="edge33" class="edge"><title>\\NetCommonsAppController&#45;&gt;\\Controller</title>
<path fill="none" stroke="black" d="M794.002,-1279.34C774.83,-1220.31 714.4,-1029.03 682,-866.599 657.198,-742.257 705.144,-384.407 610,-300.599 520.457,-221.725 365.704,-260.064 288.545,-286.571"/>
<polygon fill="none" stroke="black" points="287.356,-283.279 279.082,-289.897 289.677,-289.883 287.356,-283.279"/>
</g>
<!-- \\AssetComponent -->
<g id="node18" class="node"><title>\\AssetComponent</title>
<polygon fill="none" stroke="black" points="1148,-1045.6 1038,-1045.6 1038,-1009.6 1148,-1009.6 1148,-1045.6"/>
<text text-anchor="middle" x="1093" y="-1024.7" font-family="Courier,monospace" font-size="11.00">AssetComponent</text>
</g>
<!-- \\Component -->
<g id="node85" class="node"><title>\\Component</title>
<ellipse fill="none" stroke="black" cx="800" cy="-327.599" rx="70.9184" ry="18.3848"/>
<text text-anchor="middle" x="800" y="-323.999" font-family="Times Roman,serif" font-size="14.00" fill="gray">\Component</text>
</g>
<!-- \\AssetComponent&#45;&gt;\\Component -->
<g id="edge35" class="edge"><title>\\AssetComponent&#45;&gt;\\Component</title>
<path fill="none" stroke="black" d="M1037.26,-1025.1C1019.72,-1021.48 1001.85,-1014.31 990,-1000.6 801.099,-782.029 1110.31,-570.175 918,-354.599 908.225,-343.641 894.994,-336.654 880.924,-332.286"/>
<polygon fill="none" stroke="black" points="881.644,-328.856 871.08,-329.663 879.842,-335.62 881.644,-328.856"/>
</g>
<!-- \\AccessCtrlComponent -->
<g id="node19" class="node"><title>\\AccessCtrlComponent</title>
<polygon fill="none" stroke="black" points="1165,-991.599 1021,-991.599 1021,-955.599 1165,-955.599 1165,-991.599"/>
<text text-anchor="middle" x="1093" y="-970.699" font-family="Courier,monospace" font-size="11.00">AccessCtrlComponent</text>
</g>
<!-- \\AccessCtrlComponent&#45;&gt;\\Component -->
<g id="edge37" class="edge"><title>\\AccessCtrlComponent&#45;&gt;\\Component</title>
<path fill="none" stroke="black" d="M1020.27,-966.246C1008.76,-962.037 998.024,-955.79 990,-946.599 815.683,-746.937 1095.43,-551.498 918,-354.599 908.227,-343.754 895.069,-336.806 881.082,-332.44"/>
<polygon fill="none" stroke="black" points="881.864,-329.026 871.298,-329.813 880.049,-335.786 881.864,-329.026"/>
</g>
<!-- \\NetCommonsTimeComponent -->
<g id="node20" class="node"><title>\\NetCommonsTimeComponent</title>
<polygon fill="none" stroke="black" points="1179,-937.599 1007,-937.599 1007,-901.599 1179,-901.599 1179,-937.599"/>
<text text-anchor="middle" x="1093" y="-916.699" font-family="Courier,monospace" font-size="11.00">NetCommonsTimeComponent</text>
</g>
<!-- \\NetCommonsTimeComponent&#45;&gt;\\Component -->
<g id="edge39" class="edge"><title>\\NetCommonsTimeComponent&#45;&gt;\\Component</title>
<path fill="none" stroke="black" d="M1006.73,-905.934C1000.48,-902.385 994.774,-898.002 990,-892.599 830.252,-711.827 1080.57,-532.84 918,-354.599 908.162,-343.813 894.974,-336.892 880.979,-332.534"/>
<polygon fill="none" stroke="black" points="881.757,-329.119 871.192,-329.909 879.944,-335.88 881.757,-329.119"/>
</g>
<!-- \\PermissionComponent -->
<g id="node21" class="node"><title>\\PermissionComponent</title>
<polygon fill="none" stroke="black" points="1165,-1153.6 1021,-1153.6 1021,-1117.6 1165,-1117.6 1165,-1153.6"/>
<text text-anchor="middle" x="1093" y="-1132.7" font-family="Courier,monospace" font-size="11.00">PermissionComponent</text>
</g>
<!-- \\PermissionComponent&#45;&gt;\\Component -->
<g id="edge41" class="edge"><title>\\PermissionComponent&#45;&gt;\\Component</title>
<path fill="none" stroke="black" d="M1020.33,-1128.51C1008.74,-1124.28 997.965,-1117.96 990,-1108.6 880.948,-980.386 1029.05,-481.083 918,-354.599 908.311,-343.564 895.121,-336.542 881.061,-332.164"/>
<polygon fill="none" stroke="black" points="881.786,-328.735 871.222,-329.538 879.981,-335.498 881.786,-328.735"/>
</g>
<!-- \\NetCommonsComponent -->
<g id="node22" class="node"><title>\\NetCommonsComponent</title>
<polygon fill="none" stroke="black" points="1165,-1099.6 1021,-1099.6 1021,-1063.6 1165,-1063.6 1165,-1099.6"/>
<text text-anchor="middle" x="1093" y="-1078.7" font-family="Courier,monospace" font-size="11.00">NetCommonsComponent</text>
</g>
<!-- \\NetCommonsComponent&#45;&gt;\\Component -->
<g id="edge43" class="edge"><title>\\NetCommonsComponent&#45;&gt;\\Component</title>
<path fill="none" stroke="black" d="M1020.39,-1074.46C1008.79,-1070.24 997.999,-1063.93 990,-1054.6 786.502,-817.107 1125.2,-588.865 918,-354.599 908.271,-343.6 895.062,-336.594 880.998,-332.22"/>
<polygon fill="none" stroke="black" points="881.72,-328.79 871.156,-329.596 879.917,-335.554 881.72,-328.79"/>
</g>
<!-- \\SiteCloseController -->
<g id="node23" class="node"><title>\\SiteCloseController</title>
<polygon fill="none" stroke="black" points="1165,-1369.6 1021,-1369.6 1021,-1333.6 1165,-1333.6 1165,-1369.6"/>
<text text-anchor="middle" x="1093" y="-1348.7" font-family="Courier,monospace" font-size="11.00">SiteCloseController</text>
</g>
<!-- \\SiteCloseController&#45;&gt;\\NetCommonsAppController -->
<g id="edge45" class="edge"><title>\\SiteCloseController&#45;&gt;\\NetCommonsAppController</title>
<path fill="none" stroke="black" d="M1020.2,-1338.18C982.697,-1331.27 936.487,-1322.75 896.097,-1315.31"/>
<polygon fill="none" stroke="black" points="896.702,-1311.86 886.233,-1313.49 895.433,-1318.75 896.702,-1311.86"/>
</g>
<!-- \\NetCommonsController -->
<g id="node24" class="node"><title>\\NetCommonsController</title>
<polygon fill="none" stroke="black" points="1169,-1315.6 1017,-1315.6 1017,-1279.6 1169,-1279.6 1169,-1315.6"/>
<text text-anchor="middle" x="1093" y="-1294.7" font-family="Courier,monospace" font-size="11.00">NetCommonsController</text>
</g>
<!-- \\NetCommonsController&#45;&gt;\\NetCommonsAppController -->
<g id="edge47" class="edge"><title>\\NetCommonsController&#45;&gt;\\NetCommonsAppController</title>
<path fill="none" stroke="black" d="M1016.78,-1297.6C980.049,-1297.6 935.59,-1297.6 896.519,-1297.6"/>
<polygon fill="none" stroke="black" points="896.183,-1294.1 886.183,-1297.6 896.183,-1301.1 896.183,-1294.1"/>
</g>
<!-- \\NetCommonsUrl -->
<g id="node25" class="node"><title>\\NetCommonsUrl</title>
<polygon fill="none" stroke="black" points="1145,-2179.6 1041,-2179.6 1041,-2143.6 1145,-2143.6 1145,-2179.6"/>
<text text-anchor="middle" x="1093" y="-2158.7" font-family="Courier,monospace" font-size="11.00">NetCommonsUrl</text>
</g>
<!-- \\NetCommonsTime -->
<g id="node26" class="node"><title>\\NetCommonsTime</title>
<polygon fill="none" stroke="black" points="1148,-2125.6 1038,-2125.6 1038,-2089.6 1148,-2089.6 1148,-2125.6"/>
<text text-anchor="middle" x="1093" y="-2104.7" font-family="Courier,monospace" font-size="11.00">NetCommonsTime</text>
</g>
<!-- \\CurrentBase -->
<g id="node27" class="node"><title>\\CurrentBase</title>
<polygon fill="none" stroke="black" points="845,-2503.6 755,-2503.6 755,-2467.6 845,-2467.6 845,-2503.6"/>
<text text-anchor="middle" x="800" y="-2482.7" font-family="Courier,monospace" font-size="11.00">CurrentBase</text>
</g>
<!-- \\Current -->
<g id="node28" class="node"><title>\\Current</title>
<polygon fill="none" stroke="black" points="1125,-2503.6 1061,-2503.6 1061,-2467.6 1125,-2467.6 1125,-2503.6"/>
<text text-anchor="middle" x="1093" y="-2482.7" font-family="Courier,monospace" font-size="11.00">Current</text>
</g>
<!-- \\Current&#45;&gt;\\CurrentBase -->
<g id="edge49" class="edge"><title>\\Current&#45;&gt;\\CurrentBase</title>
<path fill="none" stroke="black" d="M1060.81,-2485.6C1011.48,-2485.6 916.554,-2485.6 855.846,-2485.6"/>
<polygon fill="none" stroke="black" points="855.669,-2482.1 845.669,-2485.6 855.669,-2489.1 855.669,-2482.1"/>
</g>
<!-- \\CurrentSystem -->
<g id="node29" class="node"><title>\\CurrentSystem</title>
<polygon fill="none" stroke="black" points="1145,-2017.6 1041,-2017.6 1041,-1981.6 1145,-1981.6 1145,-2017.6"/>
<text text-anchor="middle" x="1093" y="-1996.7" font-family="Courier,monospace" font-size="11.00">CurrentSystem</text>
</g>
<!-- \\CurrentPage -->
<g id="node30" class="node"><title>\\CurrentPage</title>
<polygon fill="none" stroke="black" points="1138,-1963.6 1048,-1963.6 1048,-1927.6 1138,-1927.6 1138,-1963.6"/>
<text text-anchor="middle" x="1093" y="-1942.7" font-family="Courier,monospace" font-size="11.00">CurrentPage</text>
</g>
<!-- \\CurrentFrame -->
<g id="node31" class="node"><title>\\CurrentFrame</title>
<polygon fill="none" stroke="black" points="1142,-1909.6 1044,-1909.6 1044,-1873.6 1142,-1873.6 1142,-1909.6"/>
<text text-anchor="middle" x="1093" y="-1888.7" font-family="Courier,monospace" font-size="11.00">CurrentFrame</text>
</g>
<!-- \\TokenHelper -->
<g id="node32" class="node"><title>\\TokenHelper</title>
<polygon fill="none" stroke="black" points="1138,-829.599 1048,-829.599 1048,-793.599 1138,-793.599 1138,-829.599"/>
<text text-anchor="middle" x="1093" y="-808.699" font-family="Courier,monospace" font-size="11.00">TokenHelper</text>
</g>
<!-- \\FormHelper -->
<g id="node94" class="node"><title>\\FormHelper</title>
<ellipse fill="none" stroke="black" cx="800" cy="-273.599" rx="70.9184" ry="18.3848"/>
<text text-anchor="middle" x="800" y="-269.999" font-family="Times Roman,serif" font-size="14.00" fill="gray">\FormHelper</text>
</g>
<!-- \\TokenHelper&#45;&gt;\\FormHelper -->
<g id="edge51" class="edge"><title>\\TokenHelper&#45;&gt;\\FormHelper</title>
<path fill="none" stroke="black" d="M1047.39,-810.568C1027,-807.665 1004.38,-800.633 990,-784.599 844.8,-622.693 1065.73,-460.204 918,-300.599 908.083,-289.885 894.859,-282.998 880.853,-278.649"/>
<polygon fill="none" stroke="black" points="881.628,-275.233 871.063,-276.028 879.818,-281.995 881.628,-275.233"/>
</g>
<!-- \\SingletonViewBlockHtmlHelper -->
<g id="node33" class="node"><title>\\SingletonViewBlockHtmlHelper</title>
<polygon fill="none" stroke="black" points="1196,-721.599 990,-721.599 990,-685.599 1196,-685.599 1196,-721.599"/>
<text text-anchor="middle" x="1093" y="-700.699" font-family="Courier,monospace" font-size="11.00">SingletonViewBlockHtmlHelper</text>
</g>
<!-- \\HtmlHelper -->
<g id="node96" class="node"><title>\\HtmlHelper</title>
<ellipse fill="none" stroke="black" cx="800" cy="-219.599" rx="67.1751" ry="18.3848"/>
<text text-anchor="middle" x="800" y="-215.999" font-family="Times Roman,serif" font-size="14.00" fill="gray">HtmlHelper</text>
</g>
<!-- \\SingletonViewBlockHtmlHelper&#45;&gt;\\HtmlHelper -->
<g id="edge53" class="edge"><title>\\SingletonViewBlockHtmlHelper&#45;&gt;\\HtmlHelper</title>
<path fill="none" stroke="black" d="M999.918,-685.338C996.329,-682.774 992.992,-679.875 990,-676.599 859.318,-533.527 1050.91,-387.601 918,-246.599 907.121,-235.058 892.401,-227.975 877.051,-223.725"/>
<polygon fill="none" stroke="black" points="877.444,-220.221 866.906,-221.323 875.83,-227.033 877.444,-220.221"/>
</g>
<!-- \\FormInputHelper -->
<g id="node34" class="node"><title>\\FormInputHelper</title>
<polygon fill="none" stroke="black" points="1152,-2395.6 1034,-2395.6 1034,-2359.6 1152,-2359.6 1152,-2395.6"/>
<text text-anchor="middle" x="1093" y="-2374.7" font-family="Courier,monospace" font-size="11.00">FormInputHelper</text>
</g>
<!-- \\FormInputHelper&#45;&gt;\\AppHelper -->
<g id="edge55" class="edge"><title>\\FormInputHelper&#45;&gt;\\AppHelper</title>
<path fill="none" stroke="black" d="M1033.76,-2372.4C1017.95,-2368.45 1001.95,-2361.77 990,-2350.6 907.245,-2273.21 827.482,-1915.59 805.771,-1811.87"/>
<polygon fill="none" stroke="black" points="809.147,-1810.91 803.686,-1801.83 802.293,-1812.34 809.147,-1810.91"/>
</g>
<!-- \\WizardHelper -->
<g id="node35" class="node"><title>\\WizardHelper</title>
<polygon fill="none" stroke="black" points="1142,-2341.6 1044,-2341.6 1044,-2305.6 1142,-2305.6 1142,-2341.6"/>
<text text-anchor="middle" x="1093" y="-2320.7" font-family="Courier,monospace" font-size="11.00">WizardHelper</text>
</g>
<!-- \\WizardHelper&#45;&gt;\\AppHelper -->
<g id="edge57" class="edge"><title>\\WizardHelper&#45;&gt;\\AppHelper</title>
<path fill="none" stroke="black" d="M1043.84,-2320.31C1025.06,-2316.78 1004.66,-2309.88 990,-2296.6 840.846,-2161.44 808.432,-1898.47 801.693,-1811.95"/>
<polygon fill="none" stroke="black" points="805.174,-1811.56 800.962,-1801.84 798.192,-1812.07 805.174,-1811.56"/>
</g>
<!-- \\DisplayNumberHelper -->
<g id="node36" class="node"><title>\\DisplayNumberHelper</title>
<polygon fill="none" stroke="black" points="1165,-2287.6 1021,-2287.6 1021,-2251.6 1165,-2251.6 1165,-2287.6"/>
<text text-anchor="middle" x="1093" y="-2266.7" font-family="Courier,monospace" font-size="11.00">DisplayNumberHelper</text>
</g>
<!-- \\DisplayNumberHelper&#45;&gt;\\AppHelper -->
<g id="edge59" class="edge"><title>\\DisplayNumberHelper&#45;&gt;\\AppHelper</title>
<path fill="none" stroke="black" d="M1020.34,-2259.66C1009.3,-2255.69 998.706,-2250.19 990,-2242.6 854.066,-2124.01 813.424,-1892.8 803.102,-1812.16"/>
<polygon fill="none" stroke="black" points="806.525,-1811.31 801.84,-1801.81 799.576,-1812.16 806.525,-1811.31"/>
</g>
<!-- \\MessageFlashHelper -->
<g id="node37" class="node"><title>\\MessageFlashHelper</title>
<polygon fill="none" stroke="black" points="1162,-2233.6 1024,-2233.6 1024,-2197.6 1162,-2197.6 1162,-2233.6"/>
<text text-anchor="middle" x="1093" y="-2212.7" font-family="Courier,monospace" font-size="11.00">MessageFlashHelper</text>
</g>
<!-- \\MessageFlashHelper&#45;&gt;\\AppHelper -->
<g id="edge61" class="edge"><title>\\MessageFlashHelper&#45;&gt;\\AppHelper</title>
<path fill="none" stroke="black" d="M1023.84,-2206.4C1011.63,-2202.4 999.732,-2196.7 990,-2188.6 866.832,-2086.06 818.776,-1885.68 804.769,-1811.82"/>
<polygon fill="none" stroke="black" points="808.19,-1811.07 802.945,-1801.87 801.305,-1812.33 808.19,-1811.07"/>
</g>
<!-- \\DateHelper -->
<g id="node38" class="node"><title>\\DateHelper</title>
<polygon fill="none" stroke="black" points="1135,-2071.6 1051,-2071.6 1051,-2035.6 1135,-2035.6 1135,-2071.6"/>
<text text-anchor="middle" x="1093" y="-2050.7" font-family="Courier,monospace" font-size="11.00">DateHelper</text>
</g>
<!-- \\DateHelper&#45;&gt;\\AppHelper -->
<g id="edge63" class="edge"><title>\\DateHelper&#45;&gt;\\AppHelper</title>
<path fill="none" stroke="black" d="M1050.86,-2048.88C1031.14,-2045.15 1008.07,-2038.48 990,-2026.6 904.042,-1970.06 840.094,-1861.53 813.531,-1810.88"/>
<polygon fill="none" stroke="black" points="816.562,-1809.12 808.865,-1801.84 810.341,-1812.33 816.562,-1809.12"/>
</g>
<!-- \\SnsButtonHelper -->
<g id="node39" class="node"><title>\\SnsButtonHelper</title>
<polygon fill="none" stroke="black" points="1152,-1855.6 1034,-1855.6 1034,-1819.6 1152,-1819.6 1152,-1855.6"/>
<text text-anchor="middle" x="1093" y="-1834.7" font-family="Courier,monospace" font-size="11.00">SnsButtonHelper</text>
</g>
<!-- \\SnsButtonHelper&#45;&gt;\\AppHelper -->
<g id="edge65" class="edge"><title>\\SnsButtonHelper&#45;&gt;\\AppHelper</title>
<path fill="none" stroke="black" d="M1033.71,-1826.67C979.266,-1816.64 899.563,-1801.95 848.738,-1792.58"/>
<polygon fill="none" stroke="black" points="849.131,-1789.1 838.663,-1790.72 847.863,-1795.98 849.131,-1789.1"/>
</g>
<!-- \\BackToHelper -->
<g id="node40" class="node"><title>\\BackToHelper</title>
<polygon fill="none" stroke="black" points="1142,-1801.6 1044,-1801.6 1044,-1765.6 1142,-1765.6 1142,-1801.6"/>
<text text-anchor="middle" x="1093" y="-1780.7" font-family="Courier,monospace" font-size="11.00">BackToHelper</text>
</g>
<!-- \\BackToHelper&#45;&gt;\\AppHelper -->
<g id="edge67" class="edge"><title>\\BackToHelper&#45;&gt;\\AppHelper</title>
<path fill="none" stroke="black" d="M1043.96,-1783.6C989.78,-1783.6 903.056,-1783.6 848.925,-1783.6"/>
<polygon fill="none" stroke="black" points="848.882,-1780.1 838.882,-1783.6 848.882,-1787.1 848.882,-1780.1"/>
</g>
<!-- \\NetCommonsHtmlHelper -->
<g id="node41" class="node"><title>\\NetCommonsHtmlHelper</title>
<polygon fill="none" stroke="black" points="1169,-1747.6 1017,-1747.6 1017,-1711.6 1169,-1711.6 1169,-1747.6"/>
<text text-anchor="middle" x="1093" y="-1726.7" font-family="Courier,monospace" font-size="11.00">NetCommonsHtmlHelper</text>
</g>
<!-- \\NetCommonsHtmlHelper&#45;&gt;\\AppHelper -->
<g id="edge69" class="edge"><title>\\NetCommonsHtmlHelper&#45;&gt;\\AppHelper</title>
<path fill="none" stroke="black" d="M1016.78,-1743.65C963.659,-1753.44 894.376,-1766.21 848.603,-1774.64"/>
<polygon fill="none" stroke="black" points="847.838,-1771.22 838.638,-1776.48 849.107,-1778.11 847.838,-1771.22"/>
</g>
<!-- \\ButtonHelper -->
<g id="node42" class="node"><title>\\ButtonHelper</title>
<polygon fill="none" stroke="black" points="1142,-775.599 1044,-775.599 1044,-739.599 1142,-739.599 1142,-775.599"/>
<text text-anchor="middle" x="1093" y="-754.699" font-family="Courier,monospace" font-size="11.00">ButtonHelper</text>
</g>
<!-- \\ButtonHelper&#45;&gt;\\FormHelper -->
<g id="edge71" class="edge"><title>\\ButtonHelper&#45;&gt;\\FormHelper</title>
<path fill="none" stroke="black" d="M1043.82,-755.877C1024.47,-752.645 1003.65,-745.545 990,-730.599 859.318,-587.527 1050.91,-441.601 918,-300.599 907.986,-289.976 894.718,-283.13 880.698,-278.793"/>
<polygon fill="none" stroke="black" points="881.468,-275.376 870.904,-276.177 879.661,-282.139 881.468,-275.376"/>
</g>
<!-- \\ComposerHelper -->
<g id="node43" class="node"><title>\\ComposerHelper</title>
<polygon fill="none" stroke="black" points="1148,-1693.6 1038,-1693.6 1038,-1657.6 1148,-1657.6 1148,-1693.6"/>
<text text-anchor="middle" x="1093" y="-1672.7" font-family="Courier,monospace" font-size="11.00">ComposerHelper</text>
</g>
<!-- \\ComposerHelper&#45;&gt;\\AppHelper -->
<g id="edge73" class="edge"><title>\\ComposerHelper&#45;&gt;\\AppHelper</title>
<path fill="none" stroke="black" d="M1037.5,-1688.56C1021.99,-1692.61 1005.22,-1697.39 990,-1702.6 940.27,-1719.62 885.199,-1743.7 847.206,-1761.18"/>
<polygon fill="none" stroke="black" points="845.534,-1758.1 837.929,-1765.47 848.474,-1764.45 845.534,-1758.1"/>
</g>
<!-- \\LinkButtonHelper -->
<g id="node44" class="node"><title>\\LinkButtonHelper</title>
<polygon fill="none" stroke="black" points="1155,-883.599 1031,-883.599 1031,-847.599 1155,-847.599 1155,-883.599"/>
<text text-anchor="middle" x="1093" y="-862.699" font-family="Courier,monospace" font-size="11.00">LinkButtonHelper</text>
</g>
<!-- \\LinkButtonHelper&#45;&gt;\\FormHelper -->
<g id="edge75" class="edge"><title>\\LinkButtonHelper&#45;&gt;\\FormHelper</title>
<path fill="none" stroke="black" d="M1030.45,-861.313C1015.26,-857.306 1000.41,-850.374 990,-838.599 830.252,-657.827 1080.57,-478.84 918,-300.599 908.162,-289.813 894.974,-282.892 880.979,-278.534"/>
<polygon fill="none" stroke="black" points="881.757,-275.119 871.192,-275.909 879.944,-281.88 881.757,-275.119"/>
</g>
<!-- \\TableListHelper -->
<g id="node45" class="node"><title>\\TableListHelper</title>
<polygon fill="none" stroke="black" points="1152,-1639.6 1034,-1639.6 1034,-1603.6 1152,-1603.6 1152,-1639.6"/>
<text text-anchor="middle" x="1093" y="-1618.7" font-family="Courier,monospace" font-size="11.00">TableListHelper</text>
</g>
<!-- \\TableListHelper&#45;&gt;\\AppHelper -->
<g id="edge77" class="edge"><title>\\TableListHelper&#45;&gt;\\AppHelper</title>
<path fill="none" stroke="black" d="M1033.97,-1633.17C1019.24,-1637.11 1003.73,-1642.18 990,-1648.6 927.211,-1677.93 863.394,-1728.44 828.029,-1758.66"/>
<polygon fill="none" stroke="black" points="825.369,-1756.33 820.087,-1765.52 829.944,-1761.63 825.369,-1756.33"/>
</g>
<!-- \\NetCommonsTimeHelper -->
<g id="node46" class="node"><title>\\NetCommonsTimeHelper</title>
<polygon fill="none" stroke="black" points="1169,-1585.6 1017,-1585.6 1017,-1549.6 1169,-1549.6 1169,-1585.6"/>
<text text-anchor="middle" x="1093" y="-1564.7" font-family="Courier,monospace" font-size="11.00">NetCommonsTimeHelper</text>
</g>
<!-- \\NetCommonsTimeHelper&#45;&gt;\\AppHelper -->
<g id="edge79" class="edge"><title>\\NetCommonsTimeHelper&#45;&gt;\\AppHelper</title>
<path fill="none" stroke="black" d="M1016.92,-1582.62C1007.55,-1585.88 998.344,-1589.83 990,-1594.6 915.721,-1637.09 850.104,-1716.08 819.041,-1757.19"/>
<polygon fill="none" stroke="black" points="816.119,-1755.25 812.946,-1765.36 821.73,-1759.44 816.119,-1755.25"/>
</g>
<!-- \\NetCommonsFormHelper -->
<g id="node47" class="node"><title>\\NetCommonsFormHelper</title>
<polygon fill="none" stroke="black" points="1169,-1531.6 1017,-1531.6 1017,-1495.6 1169,-1495.6 1169,-1531.6"/>
<text text-anchor="middle" x="1093" y="-1510.7" font-family="Courier,monospace" font-size="11.00">NetCommonsFormHelper</text>
</g>
<!-- \\NetCommonsFormHelper&#45;&gt;\\AppHelper -->
<g id="edge81" class="edge"><title>\\NetCommonsFormHelper&#45;&gt;\\AppHelper</title>
<path fill="none" stroke="black" d="M1016.86,-1527.45C1007.4,-1530.9 998.186,-1535.22 990,-1540.6 904.042,-1597.14 840.094,-1705.67 813.531,-1756.32"/>
<polygon fill="none" stroke="black" points="810.341,-1754.87 808.865,-1765.36 816.562,-1758.08 810.341,-1754.87"/>
</g>
<!-- \\TitleIconHelper -->
<g id="node48" class="node"><title>\\TitleIconHelper</title>
<polygon fill="none" stroke="black" points="1152,-1477.6 1034,-1477.6 1034,-1441.6 1152,-1441.6 1152,-1477.6"/>
<text text-anchor="middle" x="1093" y="-1456.7" font-family="Courier,monospace" font-size="11.00">TitleIconHelper</text>
</g>
<!-- \\TitleIconHelper&#45;&gt;\\AppHelper -->
<g id="edge83" class="edge"><title>\\TitleIconHelper&#45;&gt;\\AppHelper</title>
<path fill="none" stroke="black" d="M1033.8,-1467.2C1018.51,-1471.2 1002.78,-1477.3 990,-1486.6 939.522,-1523.33 848.866,-1690.07 814.1,-1756.33"/>
<polygon fill="none" stroke="black" points="810.916,-1754.87 809.388,-1765.35 817.121,-1758.11 810.916,-1754.87"/>
</g>
<!-- \\DatetimePickerHelper -->
<g id="node49" class="node"><title>\\DatetimePickerHelper</title>
<polygon fill="none" stroke="black" points="1169,-2449.6 1017,-2449.6 1017,-2413.6 1169,-2413.6 1169,-2449.6"/>
<text text-anchor="middle" x="1093" y="-2428.7" font-family="Courier,monospace" font-size="11.00">DatetimePickerHelper</text>
</g>
<!-- \\DatetimePickerHelper&#45;&gt;\\AppHelper -->
<g id="edge85" class="edge"><title>\\DatetimePickerHelper&#45;&gt;\\AppHelper</title>
<path fill="none" stroke="black" d="M1016.82,-2421.25C1006.92,-2417.28 997.6,-2411.9 990,-2404.6 900.476,-2318.63 824.404,-1921.21 804.863,-1811.64"/>
<polygon fill="none" stroke="black" points="808.289,-1810.91 803.101,-1801.67 801.396,-1812.13 808.289,-1810.91"/>
</g>
<!-- \\Model -->
<g id="node114" class="node"><title>\\Model</title>
<ellipse fill="none" stroke="black" cx="44" cy="-2836.6" rx="43.8406" ry="18.3848"/>
<text text-anchor="middle" x="44" y="-2833" font-family="Times Roman,serif" font-size="14.00" fill="gray">\Model</text>
</g>
<!-- \\NetCommonsAppModel&#45;&gt;\\Model -->
<g id="edge87" class="edge"><title>\\NetCommonsAppModel&#45;&gt;\\Model</title>
<path fill="none" stroke="black" d="M172.749,-2836.6C148.379,-2836.6 121.357,-2836.6 98.3871,-2836.6"/>
<polygon fill="none" stroke="black" points="98.1425,-2833.1 88.1425,-2836.6 98.1424,-2840.1 98.1425,-2833.1"/>
</g>
<!-- \\OriginalKeyBehavior -->
<g id="node51" class="node"><title>\\OriginalKeyBehavior</title>
<polygon fill="none" stroke="black" points="1165,-667.599 1021,-667.599 1021,-631.599 1165,-631.599 1165,-667.599"/>
<text text-anchor="middle" x="1093" y="-646.699" font-family="Courier,monospace" font-size="11.00">OriginalKeyBehavior</text>
</g>
<!-- \\ModelBehavior -->
<g id="node116" class="node"><title>\\ModelBehavior</title>
<ellipse fill="none" stroke="black" cx="800" cy="-165.599" rx="86.9741" ry="18.3848"/>
<text text-anchor="middle" x="800" y="-161.999" font-family="Times Roman,serif" font-size="14.00" fill="gray">\ModelBehavior</text>
</g>
<!-- \\OriginalKeyBehavior&#45;&gt;\\ModelBehavior -->
<g id="edge89" class="edge"><title>\\OriginalKeyBehavior&#45;&gt;\\ModelBehavior</title>
<path fill="none" stroke="black" d="M1020.34,-641.849C1008.9,-637.673 998.166,-631.54 990,-622.599 859.318,-479.527 1050.91,-333.601 918,-192.599 910.736,-184.893 901.758,-179.174 892.025,-174.959"/>
<polygon fill="none" stroke="black" points="893.083,-171.618 882.491,-171.363 890.613,-178.167 893.083,-171.618"/>
</g>
<!-- \\TrackableBehavior -->
<g id="node52" class="node"><title>\\TrackableBehavior</title>
<polygon fill="none" stroke="black" points="1158,-613.599 1028,-613.599 1028,-577.599 1158,-577.599 1158,-613.599"/>
<text text-anchor="middle" x="1093" y="-592.699" font-family="Courier,monospace" font-size="11.00">TrackableBehavior</text>
</g>
<!-- \\TrackableBehavior&#45;&gt;\\ModelBehavior -->
<g id="edge91" class="edge"><title>\\TrackableBehavior&#45;&gt;\\ModelBehavior</title>
<path fill="none" stroke="black" d="M1027.41,-589.946C1013.43,-585.837 999.911,-579.199 990,-568.599 873.795,-444.315 1036.14,-315.042 918,-192.599 910.646,-184.978 901.615,-179.311 891.852,-175.124"/>
<polygon fill="none" stroke="black" points="892.89,-171.776 882.298,-171.548 890.436,-178.331 892.89,-171.776"/>
</g>
<!-- \\YAExceptionRenderer -->
<g id="node53" class="node"><title>\\YAExceptionRenderer</title>
<polygon fill="none" stroke="black" points="1165,-559.599 1021,-559.599 1021,-523.599 1165,-523.599 1165,-559.599"/>
<text text-anchor="middle" x="1093" y="-538.699" font-family="Courier,monospace" font-size="11.00">YAExceptionRenderer</text>
</g>
<!-- \\ExceptionRenderer -->
<g id="node119" class="node"><title>\\ExceptionRenderer</title>
<ellipse fill="none" stroke="black" cx="800" cy="-111.599" rx="118.087" ry="18.3848"/>
<text text-anchor="middle" x="800" y="-107.999" font-family="Times Roman,serif" font-size="14.00" fill="gray">TEHxceptionRenderer</text>
</g>
<!-- \\YAExceptionRenderer&#45;&gt;\\ExceptionRenderer -->
<g id="edge93" class="edge"><title>\\YAExceptionRenderer&#45;&gt;\\ExceptionRenderer</title>
<path fill="none" stroke="black" d="M1020.25,-533.595C1008.89,-529.437 998.206,-523.376 990,-514.599 873.795,-390.315 1036.14,-261.042 918,-138.599 913.747,-134.191 908.932,-130.437 903.739,-127.244"/>
<polygon fill="none" stroke="black" points="905.142,-124.025 894.675,-122.386 901.836,-130.195 905.142,-124.025"/>
</g>
<!-- \\NetCommonsMigration -->
<g id="node54" class="node"><title>\\NetCommonsMigration</title>
<polygon fill="none" stroke="black" points="872,-857.599 728,-857.599 728,-821.599 872,-821.599 872,-857.599"/>
<text text-anchor="middle" x="800" y="-836.699" font-family="Courier,monospace" font-size="11.00">NetCommonsMigration</text>
</g>
<!-- \\CakeMigration -->
<g id="node121" class="node"><title>\\CakeMigration</title>
<ellipse fill="none" stroke="black" cx="503" cy="-123.599" rx="84.8528" ry="18.3848"/>
<text text-anchor="middle" x="503" y="-119.999" font-family="Times Roman,serif" font-size="14.00" fill="gray">\CakeMigration</text>
</g>
<!-- \\NetCommonsMigration&#45;&gt;\\CakeMigration -->
<g id="edge95" class="edge"><title>\\NetCommonsMigration&#45;&gt;\\CakeMigration</title>
<path fill="none" stroke="black" d="M727.465,-840.241C710.481,-836.884 693.895,-830.156 682,-817.599 597.23,-728.11 656.248,-381.859 610,-267.599 591.068,-220.826 553.246,-175.583 528.024,-148.665"/>
<polygon fill="none" stroke="black" points="530.386,-146.07 520.954,-141.245 525.319,-150.899 530.386,-146.07"/>
</g>
<!-- \\SearchesController -->
<g id="node55" class="node"><title>\\SearchesController</title>
<polygon fill="none" stroke="black" points="1162,-2557.6 1024,-2557.6 1024,-2521.6 1162,-2521.6 1162,-2557.6"/>
<text text-anchor="middle" x="1093" y="-2536.7" font-family="Courier,monospace" font-size="11.00">SearchesController</text>
</g>
<!-- \\SearchesAppController -->
<g id="node56" class="node"><title>\\SearchesAppController</title>
<polygon fill="none" stroke="black" points="879,-2557.6 721,-2557.6 721,-2521.6 879,-2521.6 879,-2557.6"/>
<text text-anchor="middle" x="800" y="-2536.7" font-family="Courier,monospace" font-size="11.00">SearchesAppController</text>
</g>
<!-- \\SearchesController&#45;&gt;\\SearchesAppController -->
<g id="edge97" class="edge"><title>\\SearchesController&#45;&gt;\\SearchesAppController</title>
<path fill="none" stroke="black" d="M1023.93,-2539.6C983.759,-2539.6 932.68,-2539.6 889.454,-2539.6"/>
<polygon fill="none" stroke="black" points="889.219,-2536.1 879.219,-2539.6 889.219,-2543.1 889.219,-2536.1"/>
</g>
<!-- \\SearchesAppController&#45;&gt;\\AppController -->
<g id="edge99" class="edge"><title>\\SearchesAppController&#45;&gt;\\AppController</title>
<path fill="none" stroke="black" d="M720.896,-2534.81C706.309,-2530.51 692.417,-2523.57 682,-2512.6 540.042,-2363.05 508.922,-1665.13 503.848,-1515.78"/>
<polygon fill="none" stroke="black" points="507.341,-1515.49 503.515,-1505.61 500.345,-1515.72 507.341,-1515.49"/>
</g>
<!-- \\SearchFramesPlugin -->
<g id="node57" class="node"><title>\\SearchFramesPlugin</title>
<polygon fill="none" stroke="black" points="1162,-2881.6 1024,-2881.6 1024,-2845.6 1162,-2845.6 1162,-2881.6"/>
<text text-anchor="middle" x="1093" y="-2860.7" font-family="Courier,monospace" font-size="11.00">SearchFramesPlugin</text>
</g>
<!-- \\SearchesAppModel -->
<g id="node59" class="node"><title>\\SearchesAppModel</title>
<polygon fill="none" stroke="black" points="862,-2881.6 738,-2881.6 738,-2845.6 862,-2845.6 862,-2881.6"/>
<text text-anchor="middle" x="800" y="-2860.7" font-family="Courier,monospace" font-size="11.00">SearchesAppModel</text>
</g>
<!-- \\SearchFramesPlugin&#45;&gt;\\SearchesAppModel -->
<g id="edge101" class="edge"><title>\\SearchFramesPlugin&#45;&gt;\\SearchesAppModel</title>
<path fill="none" stroke="black" d="M1023.93,-2863.6C978.477,-2863.6 919.062,-2863.6 872.856,-2863.6"/>
<polygon fill="none" stroke="black" points="872.611,-2860.1 862.611,-2863.6 872.611,-2867.1 872.611,-2860.1"/>
</g>
<!-- \\SearchFrameSetting -->
<g id="node58" class="node"><title>\\SearchFrameSetting</title>
<polygon fill="none" stroke="black" points="1162,-2827.6 1024,-2827.6 1024,-2791.6 1162,-2791.6 1162,-2827.6"/>
<text text-anchor="middle" x="1093" y="-2806.7" font-family="Courier,monospace" font-size="11.00">SearchFrameSetting</text>
</g>
<!-- \\SearchFrameSetting&#45;&gt;\\SearchesAppModel -->
<g id="edge103" class="edge"><title>\\SearchFrameSetting&#45;&gt;\\SearchesAppModel</title>
<path fill="none" stroke="black" d="M1023.93,-2822.33C978.382,-2830.72 918.812,-2841.7 872.565,-2850.23"/>
<polygon fill="none" stroke="black" points="871.811,-2846.81 862.611,-2852.06 873.08,-2853.69 871.811,-2846.81"/>
</g>
<!-- \\SearchesAppModel&#45;&gt;\\AppModel -->
<g id="edge105" class="edge"><title>\\SearchesAppModel&#45;&gt;\\AppModel</title>
<path fill="none" stroke="black" d="M737.377,-2857.91C680.854,-2852.77 599.041,-2845.33 548.531,-2840.74"/>
<polygon fill="none" stroke="black" points="548.832,-2837.25 538.556,-2839.83 548.198,-2844.22 548.832,-2837.25"/>
</g>
<!-- \\SearchesSchema -->
<g id="node60" class="node"><title>\\SearchesSchema</title>
<polygon fill="none" stroke="black" points="1148,-505.599 1038,-505.599 1038,-469.599 1148,-469.599 1148,-505.599"/>
<text text-anchor="middle" x="1093" y="-484.699" font-family="Courier,monospace" font-size="11.00">SearchesSchema</text>
</g>
<!-- \\CakeSchema -->
<g id="node128" class="node"><title>\\CakeSchema</title>
<ellipse fill="none" stroke="black" cx="800" cy="-57.5994" rx="77.0746" ry="18.3848"/>
<text text-anchor="middle" x="800" y="-53.9994" font-family="Times Roman,serif" font-size="14.00" fill="gray">\CakeSchema</text>
</g>
<!-- \\SearchesSchema&#45;&gt;\\CakeSchema -->
<g id="edge107" class="edge"><title>\\SearchesSchema&#45;&gt;\\CakeSchema</title>
<path fill="none" stroke="black" d="M1037.33,-484.449C1020,-480.746 1002.25,-473.697 990,-460.599 873.795,-336.315 1036.14,-207.042 918,-84.5994 908.93,-75.1992 897.308,-68.772 884.908,-64.4284"/>
<polygon fill="none" stroke="black" points="885.89,-61.0686 875.304,-61.4981 883.847,-67.764 885.89,-61.0686"/>
</g>
<!-- \\Init -->
<g id="node61" class="node"><title>\\Init</title>
<polygon fill="none" stroke="black" points="1120,-451.599 1066,-451.599 1066,-415.599 1120,-415.599 1120,-451.599"/>
<text text-anchor="middle" x="1093" y="-430.699" font-family="Courier,monospace" font-size="11.00">Init</text>
</g>
<!-- \\Init&#45;&gt;\\CakeMigration -->
<g id="edge109" class="edge"><title>\\Init&#45;&gt;\\CakeMigration</title>
<path fill="none" stroke="black" d="M1091.73,-415.171C1086.05,-348.869 1056.72,-121.596 918,-30.5994 794.601,50.3467 610.913,-51.7982 536.301,-100.477"/>
<polygon fill="none" stroke="black" points="534.163,-97.6953 527.755,-106.133 538.026,-103.533 534.163,-97.6953"/>
</g>
<!-- \\PluginRecords -->
<g id="node62" class="node"><title>\\PluginRecords</title>
<polygon fill="none" stroke="black" points="1145,-1261.6 1041,-1261.6 1041,-1225.6 1145,-1225.6 1145,-1261.6"/>
<text text-anchor="middle" x="1093" y="-1240.7" font-family="Courier,monospace" font-size="11.00">PluginRecords</text>
</g>
<!-- \\PluginRecords&#45;&gt;\\NetCommonsMigration -->
<g id="edge111" class="edge"><title>\\PluginRecords&#45;&gt;\\NetCommonsMigration</title>
<path fill="none" stroke="black" d="M1040.88,-1238.69C1023.23,-1234.89 1004.37,-1228.23 990,-1216.6 873.468,-1122.33 821.869,-938.095 805.826,-867.785"/>
<polygon fill="none" stroke="black" points="809.213,-866.892 803.632,-857.886 802.378,-868.406 809.213,-866.892"/>
</g>
</g>
</svg>
