<?xml version="1.0" encoding="UTF-8" standalone="no"?>
<!DOCTYPE svg PUBLIC "-//W3C//DTD SVG 1.1//EN"
 "http://www.w3.org/Graphics/SVG/1.1/DTD/svg11.dtd">
<!-- Generated by graphviz version 2.26.3 (20100126.1600)
 -->
<!-- Title: G Pages: 1 -->
<svg width="1220pt" height="2942pt"
 viewBox="0.00 0.00 1220.00 2942.00" xmlns="http://www.w3.org/2000/svg" xmlns:xlink="http://www.w3.org/1999/xlink">
<g id="graph1" class="graph" transform="scale(1 1) rotate(0) translate(4 2938)">
<title>G</title>
<polygon fill="white" stroke="white" points="-4,5 -4,-2938 1217,-2938 1217,5 -4,5"/>
<g id="graph2" class="cluster"><title>cluster_Global</title>
<polyline fill="none" stroke="gray" points="177,-368 1192,-368 "/>
<path fill="none" stroke="gray" d="M1192,-368C1198,-368 1204,-374 1204,-380"/>
<polyline fill="none" stroke="gray" points="1204,-380 1204,-2914 "/>
<path fill="none" stroke="gray" d="M1204,-2914C1204,-2920 1198,-2926 1192,-2926"/>
<polyline fill="none" stroke="gray" points="1192,-2926 177,-2926 "/>
<path fill="none" stroke="gray" d="M177,-2926C171,-2926 165,-2920 165,-2914"/>
<polyline fill="none" stroke="gray" points="165,-2914 165,-380 "/>
<path fill="none" stroke="gray" d="M165,-380C165,-374 171,-368 177,-368"/>
<text text-anchor="middle" x="684.5" y="-2912.1" font-family="Times Roman,serif" font-size="11.00" fill="gray">Global</text>
</g>
<!-- \\AppController -->
<g id="node2" class="node"><title>\\AppController</title>
<polygon fill="none" stroke="black" points="1145,-1276 1041,-1276 1041,-1240 1145,-1240 1145,-1276"/>
<text text-anchor="middle" x="1093" y="-1255.1" font-family="Courier,monospace" font-size="11.00">AppController</text>
</g>
<!-- \\Controller -->
<g id="node63" class="node"><title>\\Controller</title>
<ellipse fill="none" stroke="black" cx="503" cy="-234" rx="63.1385" ry="18.3848"/>
<text text-anchor="middle" x="503" y="-230.4" font-family="Times Roman,serif" font-size="14.00" fill="gray">\Controller</text>
</g>
<!-- \\AppController&#45;&gt;\\Controller -->
<g id="edge3" class="edge"><title>\\AppController&#45;&gt;\\Controller</title>
<path fill="none" stroke="black" d="M1040.84,-1251.49C1023.58,-1247.54 1004.97,-1241.2 990,-1231 894.182,-1165.76 725.105,-917.607 682,-810 590.49,-581.558 773.561,-444.869 610,-261 600.881,-250.748 588.489,-244.119 575.371,-239.889"/>
<polygon fill="none" stroke="black" points="576.298,-236.514 565.726,-237.214 574.427,-243.259 576.298,-236.514"/>
</g>
<!-- \\AppModel -->
<g id="node3" class="node"><title>\\AppModel</title>
<polygon fill="none" stroke="black" points="538,-2869 468,-2869 468,-2833 538,-2833 538,-2869"/>
<text text-anchor="middle" x="503" y="-2848.1" font-family="Courier,monospace" font-size="11.00">AppModel</text>
</g>
<!-- \\NetCommonsAppModel -->
<g id="node48" class="node"><title>\\NetCommonsAppModel</title>
<polygon fill="none" stroke="black" points="311,-2869 173,-2869 173,-2833 311,-2833 311,-2869"/>
<text text-anchor="middle" x="242" y="-2848.1" font-family="Courier,monospace" font-size="11.00">NetCommonsAppModel</text>
</g>
<!-- \\AppModel&#45;&gt;\\NetCommonsAppModel -->
<g id="edge5" class="edge"><title>\\AppModel&#45;&gt;\\NetCommonsAppModel</title>
<path fill="none" stroke="black" d="M467.256,-2851C429.848,-2851 369.903,-2851 321.254,-2851"/>
<polygon fill="none" stroke="black" points="321.056,-2847.5 311.056,-2851 321.056,-2854.5 321.056,-2847.5"/>
</g>
<!-- \\DatabaseConfiguration -->
<g id="node4" class="node"><title>\\DatabaseConfiguration</title>
<polygon fill="none" stroke="black" points="879,-2896 721,-2896 721,-2860 879,-2860 879,-2896"/>
<text text-anchor="middle" x="800" y="-2875.1" font-family="Courier,monospace" font-size="11.00">DatabaseConfiguration</text>
</g>
<!-- \\DatabaseConfiguration&#45;&gt;\\AppModel -->
<g id="edge7" class="edge"><title>\\DatabaseConfiguration&#45;&gt;\\AppModel</title>
<path fill="none" stroke="black" d="M720.8,-2870.8C665.959,-2865.81 594.863,-2859.35 549.084,-2855.19"/>
<polygon fill="none" stroke="black" points="549.143,-2851.68 538.867,-2854.26 548.509,-2858.65 549.143,-2851.68"/>
</g>
<!-- \\AppHelper -->
<g id="node5" class="node"><title>\\AppHelper</title>
<polygon fill="none" stroke="black" points="838,-1897 762,-1897 762,-1861 838,-1861 838,-1897"/>
<text text-anchor="middle" x="800" y="-1876.1" font-family="Courier,monospace" font-size="11.00">AppHelper</text>
</g>
<!-- \\Helper -->
<g id="node67" class="node"><title>\\Helper</title>
<ellipse fill="none" stroke="black" cx="503" cy="-342" rx="43.8406" ry="18.3848"/>
<text text-anchor="middle" x="503" y="-338.4" font-family="Times Roman,serif" font-size="14.00" fill="gray">Helper</text>
</g>
<!-- \\AppHelper&#45;&gt;\\Helper -->
<g id="edge9" class="edge"><title>\\AppHelper&#45;&gt;\\Helper</title>
<path fill="none" stroke="black" d="M792.637,-1860.91C771.139,-1807.16 708.323,-1643.3 682,-1501 658.975,-1376.53 693.052,-459.532 610,-364 596.861,-348.887 576.357,-342.498 556.798,-340.208"/>
<polygon fill="none" stroke="black" points="556.959,-336.71 546.701,-339.36 556.373,-343.685 556.959,-336.71"/>
</g>
<!-- \\NetCommonsDeleteTest -->
<g id="node6" class="node"><title>\\NetCommonsDeleteTest</title>
<polygon fill="none" stroke="black" points="1169,-2626 1017,-2626 1017,-2590 1169,-2590 1169,-2626"/>
<text text-anchor="middle" x="1093" y="-2605.1" font-family="Courier,monospace" font-size="11.00">NetCommonsDeleteTest</text>
</g>
<!-- \\NetCommonsModelTestCase -->
<g id="node15" class="node"><title>\\NetCommonsModelTestCase</title>
<polygon fill="none" stroke="black" points="886,-2680 714,-2680 714,-2644 886,-2644 886,-2680"/>
<text text-anchor="middle" x="800" y="-2659.1" font-family="Courier,monospace" font-size="11.00">NetCommonsModelTestCase</text>
</g>
<!-- \\NetCommonsDeleteTest&#45;&gt;\\NetCommonsModelTestCase -->
<g id="edge11" class="edge"><title>\\NetCommonsDeleteTest&#45;&gt;\\NetCommonsModelTestCase</title>
<path fill="none" stroke="black" d="M1016.78,-2622.05C979.893,-2628.85 935.211,-2637.08 896.02,-2644.3"/>
<polygon fill="none" stroke="black" points="895.383,-2640.86 886.183,-2646.12 896.652,-2647.75 895.383,-2640.86"/>
</g>
<!-- \\NetCommonsConsoleTestCase -->
<g id="node7" class="node"><title>\\NetCommonsConsoleTestCase</title>
<polygon fill="none" stroke="black" points="892,-2302 708,-2302 708,-2266 892,-2266 892,-2302"/>
<text text-anchor="middle" x="800" y="-2281.1" font-family="Courier,monospace" font-size="11.00">NetCommonsConsoleTestCase</text>
</g>
<!-- \\NetCommonsCakeTestCase -->
<g id="node13" class="node"><title>\\NetCommonsCakeTestCase</title>
<polygon fill="none" stroke="black" points="585,-2275 421,-2275 421,-2239 585,-2239 585,-2275"/>
<text text-anchor="middle" x="503" y="-2254.1" font-family="Courier,monospace" font-size="11.00">NetCommonsCakeTestCase</text>
</g>
<!-- \\NetCommonsConsoleTestCase&#45;&gt;\\NetCommonsCakeTestCase -->
<g id="edge13" class="edge"><title>\\NetCommonsConsoleTestCase&#45;&gt;\\NetCommonsCakeTestCase</title>
<path fill="none" stroke="black" d="M707.249,-2275.57C671.93,-2272.36 631.688,-2268.7 596.316,-2265.48"/>
<polygon fill="none" stroke="black" points="596.269,-2261.96 585.993,-2264.54 595.635,-2268.94 596.269,-2261.96"/>
</g>
<!-- \\NetCommonsGetTest -->
<g id="node8" class="node"><title>\\NetCommonsGetTest</title>
<polygon fill="none" stroke="black" points="1158,-2788 1028,-2788 1028,-2752 1158,-2752 1158,-2788"/>
<text text-anchor="middle" x="1093" y="-2767.1" font-family="Courier,monospace" font-size="11.00">NetCommonsGetTest</text>
</g>
<!-- \\NetCommonsGetTest&#45;&gt;\\NetCommonsModelTestCase -->
<g id="edge15" class="edge"><title>\\NetCommonsGetTest&#45;&gt;\\NetCommonsModelTestCase</title>
<path fill="none" stroke="black" d="M1027.46,-2754.36C1014.92,-2750.94 1001.98,-2747.1 990,-2743 940.27,-2725.98 885.199,-2701.9 847.206,-2684.42"/>
<polygon fill="none" stroke="black" points="848.474,-2681.15 837.929,-2680.12 845.534,-2687.5 848.474,-2681.15"/>
</g>
<!-- \\NetCommonsHelperTestCase -->
<g id="node9" class="node"><title>\\NetCommonsHelperTestCase</title>
<polygon fill="none" stroke="black" points="889,-2248 711,-2248 711,-2212 889,-2212 889,-2248"/>
<text text-anchor="middle" x="800" y="-2227.1" font-family="Courier,monospace" font-size="11.00">NetCommonsHelperTestCase</text>
</g>
<!-- \\NetCommonsHelperTestCase&#45;&gt;\\NetCommonsCakeTestCase -->
<g id="edge17" class="edge"><title>\\NetCommonsHelperTestCase&#45;&gt;\\NetCommonsCakeTestCase</title>
<path fill="none" stroke="black" d="M710.487,-2238.14C674.267,-2241.43 632.456,-2245.23 595.9,-2248.55"/>
<polygon fill="none" stroke="black" points="595.379,-2245.09 585.737,-2249.48 596.013,-2252.06 595.379,-2245.09"/>
</g>
<!-- \\NetCommonsControllerBaseTestCase -->
<g id="node10" class="node"><title>\\NetCommonsControllerBaseTestCase</title>
<polygon fill="none" stroke="black" points="916,-1438 684,-1438 684,-1402 916,-1402 916,-1438"/>
<text text-anchor="middle" x="800" y="-1417.1" font-family="Courier,monospace" font-size="11.00">NetCommonsControllerBaseTestCase</text>
</g>
<!-- \\ControllerTestCase -->
<g id="node73" class="node"><title>\\ControllerTestCase</title>
<ellipse fill="none" stroke="black" cx="503" cy="-288" rx="106.773" ry="18.3848"/>
<text text-anchor="middle" x="503" y="-284.4" font-family="Times Roman,serif" font-size="14.00" fill="gray">\ControllerTestCase</text>
</g>
<!-- \\NetCommonsControllerBaseTestCase&#45;&gt;\\ControllerTestCase -->
<g id="edge19" class="edge"><title>\\NetCommonsControllerBaseTestCase&#45;&gt;\\ControllerTestCase</title>
<path fill="none" stroke="black" d="M691.003,-1401.62C687.75,-1399.06 684.728,-1396.2 682,-1393 526.181,-1210.34 763.778,-499.378 610,-315 606.395,-310.678 602.209,-306.992 597.622,-303.854"/>
<polygon fill="none" stroke="black" points="599.368,-300.82 588.972,-298.777 595.824,-306.857 599.368,-300.82"/>
</g>
<!-- \\NetCommonsValidateTest -->
<g id="node11" class="node"><title>\\NetCommonsValidateTest</title>
<polygon fill="none" stroke="black" points="1175,-2734 1011,-2734 1011,-2698 1175,-2698 1175,-2734"/>
<text text-anchor="middle" x="1093" y="-2713.1" font-family="Courier,monospace" font-size="11.00">NetCommonsValidateTest</text>
</g>
<!-- \\NetCommonsValidateTest&#45;&gt;\\NetCommonsModelTestCase -->
<g id="edge21" class="edge"><title>\\NetCommonsValidateTest&#45;&gt;\\NetCommonsModelTestCase</title>
<path fill="none" stroke="black" d="M1010.21,-2700.74C974.791,-2694.21 933.196,-2686.55 896.397,-2679.77"/>
<polygon fill="none" stroke="black" points="896.623,-2676.25 886.154,-2677.88 895.354,-2683.13 896.623,-2676.25"/>
</g>
<!-- \\NetCommonsTestSuite -->
<g id="node12" class="node"><title>\\NetCommonsTestSuite</title>
<polygon fill="none" stroke="black" points="1165,-1168 1021,-1168 1021,-1132 1165,-1132 1165,-1168"/>
<text text-anchor="middle" x="1093" y="-1147.1" font-family="Courier,monospace" font-size="11.00">NetCommonsTestSuite</text>
</g>
<!-- \\CakeTestSuite -->
<g id="node76" class="node"><title>\\CakeTestSuite</title>
<ellipse fill="none" stroke="black" cx="800" cy="-342" rx="84.1457" ry="18.3848"/>
<text text-anchor="middle" x="800" y="-338.4" font-family="Times Roman,serif" font-size="14.00" fill="gray">\CakeTestSuite</text>
</g>
<!-- \\NetCommonsTestSuite&#45;&gt;\\CakeTestSuite -->
<g id="edge23" class="edge"><title>\\NetCommonsTestSuite&#45;&gt;\\CakeTestSuite</title>
<path fill="none" stroke="black" d="M1020.33,-1142.92C1008.74,-1138.69 997.962,-1132.37 990,-1123 880.272,-993.91 1032.31,-489.054 918,-364 911.146,-356.501 902.623,-351.061 893.316,-347.167"/>
<polygon fill="none" stroke="black" points="894.374,-343.828 883.78,-343.769 892.025,-350.422 894.374,-343.828"/>
</g>
<!-- \\CakeTestCase -->
<g id="node78" class="node"><title>\\CakeTestCase</title>
<ellipse fill="none" stroke="black" cx="242" cy="-342" rx="82.0244" ry="18.3848"/>
<text text-anchor="middle" x="242" y="-338.4" font-family="Times Roman,serif" font-size="14.00" fill="gray">\CakeTestCase</text>
</g>
<!-- \\NetCommonsCakeTestCase&#45;&gt;\\CakeTestCase -->
<g id="edge25" class="edge"><title>\\NetCommonsCakeTestCase&#45;&gt;\\CakeTestCase</title>
<path fill="none" stroke="black" d="M420.383,-2252.01C411.054,-2248.2 402.562,-2242.74 396,-2235 261.46,-2076.32 453.773,-526.606 324,-364 322.311,-361.883 320.441,-359.957 318.426,-358.205"/>
<polygon fill="none" stroke="black" points="320.198,-355.172 310.007,-352.274 316.167,-360.894 320.198,-355.172"/>
</g>
<!-- \\NetCommonsSaveTest -->
<g id="node14" class="node"><title>\\NetCommonsSaveTest</title>
<polygon fill="none" stroke="black" points="1162,-2680 1024,-2680 1024,-2644 1162,-2644 1162,-2680"/>
<text text-anchor="middle" x="1093" y="-2659.1" font-family="Courier,monospace" font-size="11.00">NetCommonsSaveTest</text>
</g>
<!-- \\NetCommonsSaveTest&#45;&gt;\\NetCommonsModelTestCase -->
<g id="edge27" class="edge"><title>\\NetCommonsSaveTest&#45;&gt;\\NetCommonsModelTestCase</title>
<path fill="none" stroke="black" d="M1023.93,-2662C985.875,-2662 938.032,-2662 896.349,-2662"/>
<polygon fill="none" stroke="black" points="896.173,-2658.5 886.172,-2662 896.172,-2665.5 896.173,-2658.5"/>
</g>
<!-- \\NetCommonsModelTestCase&#45;&gt;\\NetCommonsCakeTestCase -->
<g id="edge29" class="edge"><title>\\NetCommonsModelTestCase&#45;&gt;\\NetCommonsCakeTestCase</title>
<path fill="none" stroke="black" d="M786.662,-2643.81C739.166,-2579.05 578.146,-2359.47 522.28,-2283.29"/>
<polygon fill="none" stroke="black" points="525.038,-2281.13 516.302,-2275.14 519.393,-2285.27 525.038,-2281.13"/>
</g>
<!-- \\NetCommonsControllerTestCase -->
<g id="node16" class="node"><title>\\NetCommonsControllerTestCase</title>
<polygon fill="none" stroke="black" points="1196,-1438 990,-1438 990,-1402 1196,-1402 1196,-1438"/>
<text text-anchor="middle" x="1093" y="-1417.1" font-family="Courier,monospace" font-size="11.00">NetCommonsControllerTestCase</text>
</g>
<!-- \\NetCommonsControllerTestCase&#45;&gt;\\NetCommonsControllerBaseTestCase -->
<g id="edge31" class="edge"><title>\\NetCommonsControllerTestCase&#45;&gt;\\NetCommonsControllerBaseTestCase</title>
<path fill="none" stroke="black" d="M989.699,-1420C969.381,-1420 947.845,-1420 926.858,-1420"/>
<polygon fill="none" stroke="black" points="926.606,-1416.5 916.606,-1420 926.606,-1423.5 926.606,-1416.5"/>
</g>
<!-- \\NetCommonsAppController -->
<g id="node17" class="node"><title>\\NetCommonsAppController</title>
<polygon fill="none" stroke="black" points="886,-1384 714,-1384 714,-1348 886,-1348 886,-1384"/>
<text text-anchor="middle" x="800" y="-1363.1" font-family="Courier,monospace" font-size="11.00">NetCommonsAppController</text>
</g>
<!-- \\NetCommonsAppController&#45;&gt;\\Controller -->
<g id="edge33" class="edge"><title>\\NetCommonsAppController&#45;&gt;\\Controller</title>
<path fill="none" stroke="black" d="M777.384,-1347.96C749.362,-1324.1 702.779,-1279.17 682,-1229 599.466,-1029.71 748.785,-426.129 610,-261 601.122,-250.437 588.771,-243.681 575.604,-239.425"/>
<polygon fill="none" stroke="black" points="576.48,-236.036 565.909,-236.749 574.618,-242.784 576.48,-236.036"/>
</g>
<!-- \\AssetComponent -->
<g id="node18" class="node"><title>\\AssetComponent</title>
<polygon fill="none" stroke="black" points="1148,-1114 1038,-1114 1038,-1078 1148,-1078 1148,-1114"/>
<text text-anchor="middle" x="1093" y="-1093.1" font-family="Courier,monospace" font-size="11.00">AssetComponent</text>
</g>
<!-- \\Component -->
<g id="node84" class="node"><title>\\Component</title>
<ellipse fill="none" stroke="black" cx="800" cy="-288" rx="70.9184" ry="18.3848"/>
<text text-anchor="middle" x="800" y="-284.4" font-family="Times Roman,serif" font-size="14.00" fill="gray">\Component</text>
</g>
<!-- \\AssetComponent&#45;&gt;\\Component -->
<g id="edge35" class="edge"><title>\\AssetComponent&#45;&gt;\\Component</title>
<path fill="none" stroke="black" d="M1037.41,-1093.67C1019.76,-1090.06 1001.8,-1082.87 990,-1069 880.948,-940.787 1029.05,-441.484 918,-315 908.311,-303.965 895.121,-296.943 881.061,-292.564"/>
<polygon fill="none" stroke="black" points="881.786,-289.135 871.222,-289.939 879.981,-295.899 881.786,-289.135"/>
</g>
<!-- \\NetCommonsTimeComponent -->
<g id="node19" class="node"><title>\\NetCommonsTimeComponent</title>
<polygon fill="none" stroke="black" points="1179,-1060 1007,-1060 1007,-1024 1179,-1024 1179,-1060"/>
<text text-anchor="middle" x="1093" y="-1039.1" font-family="Courier,monospace" font-size="11.00">NetCommonsTimeComponent</text>
</g>
<!-- \\NetCommonsTimeComponent&#45;&gt;\\Component -->
<g id="edge37" class="edge"><title>\\NetCommonsTimeComponent&#45;&gt;\\Component</title>
<path fill="none" stroke="black" d="M1006.55,-1028.49C1000.34,-1024.91 994.691,-1020.47 990,-1015 786.502,-777.507 1125.2,-549.266 918,-315 908.271,-304.001 895.062,-296.994 880.998,-292.62"/>
<polygon fill="none" stroke="black" points="881.72,-289.191 871.156,-289.996 879.917,-295.955 881.72,-289.191"/>
</g>
<!-- \\PermissionComponent -->
<g id="node20" class="node"><title>\\PermissionComponent</title>
<polygon fill="none" stroke="black" points="1165,-1006 1021,-1006 1021,-970 1165,-970 1165,-1006"/>
<text text-anchor="middle" x="1093" y="-985.1" font-family="Courier,monospace" font-size="11.00">PermissionComponent</text>
</g>
<!-- \\PermissionComponent&#45;&gt;\\Component -->
<g id="edge39" class="edge"><title>\\PermissionComponent&#45;&gt;\\Component</title>
<path fill="none" stroke="black" d="M1020.45,-980.809C1008.85,-976.592 998.038,-970.301 990,-961 801.099,-742.429 1110.31,-530.576 918,-315 908.225,-304.042 894.994,-297.054 880.924,-292.686"/>
<polygon fill="none" stroke="black" points="881.644,-289.256 871.08,-290.064 879.842,-296.02 881.644,-289.256"/>
</g>
<!-- \\NetCommonsComponent -->
<g id="node21" class="node"><title>\\NetCommonsComponent</title>
<polygon fill="none" stroke="black" points="1165,-952 1021,-952 1021,-916 1165,-916 1165,-952"/>
<text text-anchor="middle" x="1093" y="-931.1" font-family="Courier,monospace" font-size="11.00">NetCommonsComponent</text>
</g>
<!-- \\NetCommonsComponent&#45;&gt;\\Component -->
<g id="edge41" class="edge"><title>\\NetCommonsComponent&#45;&gt;\\Component</title>
<path fill="none" stroke="black" d="M1020.27,-926.647C1008.76,-922.437 998.024,-916.191 990,-907 815.683,-707.337 1095.43,-511.899 918,-315 908.227,-304.155 895.069,-297.207 881.082,-292.841"/>
<polygon fill="none" stroke="black" points="881.864,-289.426 871.298,-290.214 880.049,-296.187 881.864,-289.426"/>
</g>
<!-- \\NetCommonsController -->
<g id="node22" class="node"><title>\\NetCommonsController</title>
<polygon fill="none" stroke="black" points="1169,-1384 1017,-1384 1017,-1348 1169,-1348 1169,-1384"/>
<text text-anchor="middle" x="1093" y="-1363.1" font-family="Courier,monospace" font-size="11.00">NetCommonsController</text>
</g>
<!-- \\NetCommonsController&#45;&gt;\\NetCommonsAppController -->
<g id="edge43" class="edge"><title>\\NetCommonsController&#45;&gt;\\NetCommonsAppController</title>
<path fill="none" stroke="black" d="M1016.78,-1366C980.049,-1366 935.59,-1366 896.519,-1366"/>
<polygon fill="none" stroke="black" points="896.183,-1362.5 886.183,-1366 896.183,-1369.5 896.183,-1362.5"/>
</g>
<!-- \\NetCommonsUrl -->
<g id="node23" class="node"><title>\\NetCommonsUrl</title>
<polygon fill="none" stroke="black" points="1145,-2248 1041,-2248 1041,-2212 1145,-2212 1145,-2248"/>
<text text-anchor="middle" x="1093" y="-2227.1" font-family="Courier,monospace" font-size="11.00">NetCommonsUrl</text>
</g>
<!-- \\NetCommonsTime -->
<g id="node24" class="node"><title>\\NetCommonsTime</title>
<polygon fill="none" stroke="black" points="1148,-2194 1038,-2194 1038,-2158 1148,-2158 1148,-2194"/>
<text text-anchor="middle" x="1093" y="-2173.1" font-family="Courier,monospace" font-size="11.00">NetCommonsTime</text>
</g>
<!-- \\CurrentBase -->
<g id="node25" class="node"><title>\\CurrentBase</title>
<polygon fill="none" stroke="black" points="845,-1492 755,-1492 755,-1456 845,-1456 845,-1492"/>
<text text-anchor="middle" x="800" y="-1471.1" font-family="Courier,monospace" font-size="11.00">CurrentBase</text>
</g>
<!-- \\Current -->
<g id="node26" class="node"><title>\\Current</title>
<polygon fill="none" stroke="black" points="1125,-1492 1061,-1492 1061,-1456 1125,-1456 1125,-1492"/>
<text text-anchor="middle" x="1093" y="-1471.1" font-family="Courier,monospace" font-size="11.00">Current</text>
</g>
<!-- \\Current&#45;&gt;\\CurrentBase -->
<g id="edge45" class="edge"><title>\\Current&#45;&gt;\\CurrentBase</title>
<path fill="none" stroke="black" d="M1060.81,-1474C1011.48,-1474 916.554,-1474 855.846,-1474"/>
<polygon fill="none" stroke="black" points="855.669,-1470.5 845.669,-1474 855.669,-1477.5 855.669,-1470.5"/>
</g>
<!-- \\CurrentSystem -->
<g id="node27" class="node"><title>\\CurrentSystem</title>
<polygon fill="none" stroke="black" points="1145,-2086 1041,-2086 1041,-2050 1145,-2050 1145,-2086"/>
<text text-anchor="middle" x="1093" y="-2065.1" font-family="Courier,monospace" font-size="11.00">CurrentSystem</text>
</g>
<!-- \\CurrentPage -->
<g id="node28" class="node"><title>\\CurrentPage</title>
<polygon fill="none" stroke="black" points="1138,-2032 1048,-2032 1048,-1996 1138,-1996 1138,-2032"/>
<text text-anchor="middle" x="1093" y="-2011.1" font-family="Courier,monospace" font-size="11.00">CurrentPage</text>
</g>
<!-- \\CurrentFrame -->
<g id="node29" class="node"><title>\\CurrentFrame</title>
<polygon fill="none" stroke="black" points="1142,-1978 1044,-1978 1044,-1942 1142,-1942 1142,-1978"/>
<text text-anchor="middle" x="1093" y="-1957.1" font-family="Courier,monospace" font-size="11.00">CurrentFrame</text>
</g>
<!-- \\TokenHelper -->
<g id="node30" class="node"><title>\\TokenHelper</title>
<polygon fill="none" stroke="black" points="1138,-790 1048,-790 1048,-754 1138,-754 1138,-790"/>
<text text-anchor="middle" x="1093" y="-769.1" font-family="Courier,monospace" font-size="11.00">TokenHelper</text>
</g>
<!-- \\FormHelper -->
<g id="node91" class="node"><title>\\FormHelper</title>
<ellipse fill="none" stroke="black" cx="800" cy="-234" rx="70.9184" ry="18.3848"/>
<text text-anchor="middle" x="800" y="-230.4" font-family="Times Roman,serif" font-size="14.00" fill="gray">\FormHelper</text>
</g>
<!-- \\TokenHelper&#45;&gt;\\FormHelper -->
<g id="edge47" class="edge"><title>\\TokenHelper&#45;&gt;\\FormHelper</title>
<path fill="none" stroke="black" d="M1047.39,-770.968C1027,-768.065 1004.38,-761.033 990,-745 844.8,-583.094 1065.73,-420.605 918,-261 908.083,-250.286 894.859,-243.398 880.853,-239.049"/>
<polygon fill="none" stroke="black" points="881.628,-235.634 871.063,-236.429 879.818,-242.396 881.628,-235.634"/>
</g>
<!-- \\SingletonViewBlockHtmlHelper -->
<g id="node31" class="node"><title>\\SingletonViewBlockHtmlHelper</title>
<polygon fill="none" stroke="black" points="1196,-682 990,-682 990,-646 1196,-646 1196,-682"/>
<text text-anchor="middle" x="1093" y="-661.1" font-family="Courier,monospace" font-size="11.00">SingletonViewBlockHtmlHelper</text>
</g>
<!-- \\HtmlHelper -->
<g id="node93" class="node"><title>\\HtmlHelper</title>
<ellipse fill="none" stroke="black" cx="800" cy="-180" rx="67.1751" ry="18.3848"/>
<text text-anchor="middle" x="800" y="-176.4" font-family="Times Roman,serif" font-size="14.00" fill="gray">HtmlHelper</text>
</g>
<!-- \\SingletonViewBlockHtmlHelper&#45;&gt;\\HtmlHelper -->
<g id="edge49" class="edge"><title>\\SingletonViewBlockHtmlHelper&#45;&gt;\\HtmlHelper</title>
<path fill="none" stroke="black" d="M999.918,-645.739C996.329,-643.175 992.992,-640.276 990,-637 859.318,-493.927 1050.91,-348.002 918,-207 907.121,-195.459 892.401,-188.376 877.051,-184.126"/>
<polygon fill="none" stroke="black" points="877.444,-180.622 866.906,-181.723 875.83,-187.434 877.444,-180.622"/>
</g>
<!-- \\FormInputHelper -->
<g id="node32" class="node"><title>\\FormInputHelper</title>
<polygon fill="none" stroke="black" points="1152,-2356 1034,-2356 1034,-2320 1152,-2320 1152,-2356"/>
<text text-anchor="middle" x="1093" y="-2335.1" font-family="Courier,monospace" font-size="11.00">FormInputHelper</text>
</g>
<!-- \\FormInputHelper&#45;&gt;\\AppHelper -->
<g id="edge51" class="edge"><title>\\FormInputHelper&#45;&gt;\\AppHelper</title>
<path fill="none" stroke="black" d="M1033.87,-2331.95C1018.23,-2327.98 1002.3,-2321.5 990,-2311 923.67,-2254.4 836.294,-1993.28 808.722,-1906.86"/>
<polygon fill="none" stroke="black" points="812.021,-1905.69 805.661,-1897.21 805.349,-1907.8 812.021,-1905.69"/>
</g>
<!-- \\WizardHelper -->
<g id="node33" class="node"><title>\\WizardHelper</title>
<polygon fill="none" stroke="black" points="1142,-2302 1044,-2302 1044,-2266 1142,-2266 1142,-2302"/>
<text text-anchor="middle" x="1093" y="-2281.1" font-family="Courier,monospace" font-size="11.00">WizardHelper</text>
</g>
<!-- \\WizardHelper&#45;&gt;\\AppHelper -->
<g id="edge53" class="edge"><title>\\WizardHelper&#45;&gt;\\AppHelper</title>
<path fill="none" stroke="black" d="M1043.78,-2279.7C1025.31,-2276.02 1005.16,-2269.27 990,-2257 873.272,-2162.47 821.79,-1977.75 805.802,-1907.26"/>
<polygon fill="none" stroke="black" points="809.185,-1906.35 803.616,-1897.33 802.349,-1907.85 809.185,-1906.35"/>
</g>
<!-- \\DisplayNumberHelper -->
<g id="node34" class="node"><title>\\DisplayNumberHelper</title>
<polygon fill="none" stroke="black" points="1165,-2140 1021,-2140 1021,-2104 1165,-2104 1165,-2140"/>
<text text-anchor="middle" x="1093" y="-2119.1" font-family="Courier,monospace" font-size="11.00">DisplayNumberHelper</text>
</g>
<!-- \\DisplayNumberHelper&#45;&gt;\\AppHelper -->
<g id="edge55" class="edge"><title>\\DisplayNumberHelper&#45;&gt;\\AppHelper</title>
<path fill="none" stroke="black" d="M1020.38,-2108.82C1009.76,-2105.25 999.282,-2100.73 990,-2095 909.876,-2045.56 844.727,-1951.81 815.946,-1905.81"/>
<polygon fill="none" stroke="black" points="818.75,-1903.69 810.523,-1897.02 812.792,-1907.36 818.75,-1903.69"/>
</g>
<!-- \\MessageFlashHelper -->
<g id="node35" class="node"><title>\\MessageFlashHelper</title>
<polygon fill="none" stroke="black" points="1162,-1600 1024,-1600 1024,-1564 1162,-1564 1162,-1600"/>
<text text-anchor="middle" x="1093" y="-1579.1" font-family="Courier,monospace" font-size="11.00">MessageFlashHelper</text>
</g>
<!-- \\MessageFlashHelper&#45;&gt;\\AppHelper -->
<g id="edge57" class="edge"><title>\\MessageFlashHelper&#45;&gt;\\AppHelper</title>
<path fill="none" stroke="black" d="M1023.84,-1592.95C1011.9,-1596.8 1000.1,-1601.99 990,-1609 898.034,-1672.86 835.79,-1796.47 811.457,-1851.46"/>
<polygon fill="none" stroke="black" points="808.13,-1850.34 807.356,-1860.9 814.551,-1853.13 808.13,-1850.34"/>
</g>
<!-- \\DateHelper -->
<g id="node36" class="node"><title>\\DateHelper</title>
<polygon fill="none" stroke="black" points="1135,-1546 1051,-1546 1051,-1510 1135,-1510 1135,-1546"/>
<text text-anchor="middle" x="1093" y="-1525.1" font-family="Courier,monospace" font-size="11.00">DateHelper</text>
</g>
<!-- \\DateHelper&#45;&gt;\\AppHelper -->
<g id="edge59" class="edge"><title>\\DateHelper&#45;&gt;\\AppHelper</title>
<path fill="none" stroke="black" d="M1050.89,-1531.55C1030.83,-1535 1007.46,-1541.77 990,-1555 885.624,-1634.08 828.084,-1788.47 808.129,-1851.35"/>
<polygon fill="none" stroke="black" points="804.764,-1850.39 805.144,-1860.97 811.45,-1852.46 804.764,-1850.39"/>
</g>
<!-- \\SnsButtonHelper -->
<g id="node37" class="node"><title>\\SnsButtonHelper</title>
<polygon fill="none" stroke="black" points="1152,-1924 1034,-1924 1034,-1888 1152,-1888 1152,-1924"/>
<text text-anchor="middle" x="1093" y="-1903.1" font-family="Courier,monospace" font-size="11.00">SnsButtonHelper</text>
</g>
<!-- \\SnsButtonHelper&#45;&gt;\\AppHelper -->
<g id="edge61" class="edge"><title>\\SnsButtonHelper&#45;&gt;\\AppHelper</title>
<path fill="none" stroke="black" d="M1033.71,-1900.54C979.266,-1895.52 899.563,-1888.17 848.738,-1883.49"/>
<polygon fill="none" stroke="black" points="848.942,-1880 838.663,-1882.56 848.299,-1886.97 848.942,-1880"/>
</g>
<!-- \\BackToHelper -->
<g id="node38" class="node"><title>\\BackToHelper</title>
<polygon fill="none" stroke="black" points="1142,-1870 1044,-1870 1044,-1834 1142,-1834 1142,-1870"/>
<text text-anchor="middle" x="1093" y="-1849.1" font-family="Courier,monospace" font-size="11.00">BackToHelper</text>
</g>
<!-- \\BackToHelper&#45;&gt;\\AppHelper -->
<g id="edge63" class="edge"><title>\\BackToHelper&#45;&gt;\\AppHelper</title>
<path fill="none" stroke="black" d="M1043.96,-1856.52C989.78,-1861.51 903.056,-1869.5 848.925,-1874.49"/>
<polygon fill="none" stroke="black" points="848.519,-1871.01 838.882,-1875.42 849.161,-1877.98 848.519,-1871.01"/>
</g>
<!-- \\NetCommonsHtmlHelper -->
<g id="node39" class="node"><title>\\NetCommonsHtmlHelper</title>
<polygon fill="none" stroke="black" points="1169,-1816 1017,-1816 1017,-1780 1169,-1780 1169,-1816"/>
<text text-anchor="middle" x="1093" y="-1795.1" font-family="Courier,monospace" font-size="11.00">NetCommonsHtmlHelper</text>
</g>
<!-- \\NetCommonsHtmlHelper&#45;&gt;\\AppHelper -->
<g id="edge65" class="edge"><title>\\NetCommonsHtmlHelper&#45;&gt;\\AppHelper</title>
<path fill="none" stroke="black" d="M1023.41,-1816.03C1012.23,-1818.99 1000.79,-1822.05 990,-1825 941.716,-1838.19 886.728,-1853.89 848.375,-1864.96"/>
<polygon fill="none" stroke="black" points="847.145,-1861.67 838.508,-1867.8 849.087,-1868.39 847.145,-1861.67"/>
</g>
<!-- \\ButtonHelper -->
<g id="node40" class="node"><title>\\ButtonHelper</title>
<polygon fill="none" stroke="black" points="1142,-736 1044,-736 1044,-700 1142,-700 1142,-736"/>
<text text-anchor="middle" x="1093" y="-715.1" font-family="Courier,monospace" font-size="11.00">ButtonHelper</text>
</g>
<!-- \\ButtonHelper&#45;&gt;\\FormHelper -->
<g id="edge67" class="edge"><title>\\ButtonHelper&#45;&gt;\\FormHelper</title>
<path fill="none" stroke="black" d="M1043.82,-716.278C1024.47,-713.046 1003.65,-705.946 990,-691 859.318,-547.927 1050.91,-402.002 918,-261 907.986,-250.377 894.718,-243.531 880.698,-239.194"/>
<polygon fill="none" stroke="black" points="881.468,-235.777 870.904,-236.577 879.661,-242.54 881.468,-235.777"/>
</g>
<!-- \\ComposerHelper -->
<g id="node41" class="node"><title>\\ComposerHelper</title>
<polygon fill="none" stroke="black" points="1148,-1762 1038,-1762 1038,-1726 1148,-1726 1148,-1762"/>
<text text-anchor="middle" x="1093" y="-1741.1" font-family="Courier,monospace" font-size="11.00">ComposerHelper</text>
</g>
<!-- \\ComposerHelper&#45;&gt;\\AppHelper -->
<g id="edge69" class="edge"><title>\\ComposerHelper&#45;&gt;\\AppHelper</title>
<path fill="none" stroke="black" d="M1037.34,-1755.77C1021.75,-1759.82 1004.98,-1764.9 990,-1771 933.066,-1794.18 872.097,-1831.27 835.004,-1855.39"/>
<polygon fill="none" stroke="black" points="833.002,-1852.52 826.557,-1860.93 836.839,-1858.37 833.002,-1852.52"/>
</g>
<!-- \\LinkButtonHelper -->
<g id="node42" class="node"><title>\\LinkButtonHelper</title>
<polygon fill="none" stroke="black" points="1155,-844 1031,-844 1031,-808 1155,-808 1155,-844"/>
<text text-anchor="middle" x="1093" y="-823.1" font-family="Courier,monospace" font-size="11.00">LinkButtonHelper</text>
</g>
<!-- \\LinkButtonHelper&#45;&gt;\\FormHelper -->
<g id="edge71" class="edge"><title>\\LinkButtonHelper&#45;&gt;\\FormHelper</title>
<path fill="none" stroke="black" d="M1030.45,-821.714C1015.26,-817.707 1000.41,-810.775 990,-799 830.252,-618.227 1080.57,-439.24 918,-261 908.162,-250.213 894.974,-243.293 880.979,-238.934"/>
<polygon fill="none" stroke="black" points="881.757,-235.519 871.192,-236.31 879.944,-242.281 881.757,-235.519"/>
</g>
<!-- \\TableListHelper -->
<g id="node43" class="node"><title>\\TableListHelper</title>
<polygon fill="none" stroke="black" points="1152,-1708 1034,-1708 1034,-1672 1152,-1672 1152,-1708"/>
<text text-anchor="middle" x="1093" y="-1687.1" font-family="Courier,monospace" font-size="11.00">TableListHelper</text>
</g>
<!-- \\TableListHelper&#45;&gt;\\AppHelper -->
<g id="edge73" class="edge"><title>\\TableListHelper&#45;&gt;\\AppHelper</title>
<path fill="none" stroke="black" d="M1033.83,-1700.67C1019.02,-1704.63 1003.52,-1709.94 990,-1717 921.41,-1752.81 856.097,-1817.44 822.838,-1853.3"/>
<polygon fill="none" stroke="black" points="820.033,-1851.17 815.854,-1860.91 825.192,-1855.91 820.033,-1851.17"/>
</g>
<!-- \\NetCommonsTimeHelper -->
<g id="node44" class="node"><title>\\NetCommonsTimeHelper</title>
<polygon fill="none" stroke="black" points="1169,-1654 1017,-1654 1017,-1618 1169,-1618 1169,-1654"/>
<text text-anchor="middle" x="1093" y="-1633.1" font-family="Courier,monospace" font-size="11.00">NetCommonsTimeHelper</text>
</g>
<!-- \\NetCommonsTimeHelper&#45;&gt;\\AppHelper -->
<g id="edge75" class="edge"><title>\\NetCommonsTimeHelper&#45;&gt;\\AppHelper</title>
<path fill="none" stroke="black" d="M1016.88,-1650.4C1007.46,-1653.76 998.259,-1657.9 990,-1663 909.876,-1712.44 844.727,-1806.19 815.946,-1852.19"/>
<polygon fill="none" stroke="black" points="812.792,-1850.64 810.523,-1860.98 818.75,-1854.31 812.792,-1850.64"/>
</g>
<!-- \\NetCommonsFormHelper -->
<g id="node45" class="node"><title>\\NetCommonsFormHelper</title>
<polygon fill="none" stroke="black" points="1169,-2572 1017,-2572 1017,-2536 1169,-2536 1169,-2572"/>
<text text-anchor="middle" x="1093" y="-2551.1" font-family="Courier,monospace" font-size="11.00">NetCommonsFormHelper</text>
</g>
<!-- \\NetCommonsFormHelper&#45;&gt;\\AppHelper -->
<g id="edge77" class="edge"><title>\\NetCommonsFormHelper&#45;&gt;\\AppHelper</title>
<path fill="none" stroke="black" d="M1016.81,-2544.39C1006.79,-2540.33 997.437,-2534.72 990,-2527 887.677,-2420.75 959.328,-2344.61 918,-2203 885.395,-2091.28 834.264,-1962.4 811.545,-1906.85"/>
<polygon fill="none" stroke="black" points="814.681,-1905.27 807.644,-1897.35 808.205,-1907.93 814.681,-1905.27"/>
</g>
<!-- \\TitleIconHelper -->
<g id="node46" class="node"><title>\\TitleIconHelper</title>
<polygon fill="none" stroke="black" points="1152,-2518 1034,-2518 1034,-2482 1152,-2482 1152,-2518"/>
<text text-anchor="middle" x="1093" y="-2497.1" font-family="Courier,monospace" font-size="11.00">TitleIconHelper</text>
</g>
<!-- \\TitleIconHelper&#45;&gt;\\AppHelper -->
<g id="edge79" class="edge"><title>\\TitleIconHelper&#45;&gt;\\AppHelper</title>
<path fill="none" stroke="black" d="M1033.84,-2495.41C1017.84,-2491.49 1001.72,-2484.67 990,-2473 901.996,-2385.37 955.287,-2321.46 918,-2203 882.976,-2091.72 832.898,-1962.12 810.98,-1906.56"/>
<polygon fill="none" stroke="black" points="814.159,-1905.09 807.225,-1897.07 807.65,-1907.66 814.159,-1905.09"/>
</g>
<!-- \\DatetimePickerHelper -->
<g id="node47" class="node"><title>\\DatetimePickerHelper</title>
<polygon fill="none" stroke="black" points="1169,-2464 1017,-2464 1017,-2428 1169,-2428 1169,-2464"/>
<text text-anchor="middle" x="1093" y="-2443.1" font-family="Courier,monospace" font-size="11.00">DatetimePickerHelper</text>
</g>
<!-- \\DatetimePickerHelper&#45;&gt;\\AppHelper -->
<g id="edge81" class="edge"><title>\\DatetimePickerHelper&#45;&gt;\\AppHelper</title>
<path fill="none" stroke="black" d="M1016.99,-2435.48C1007.06,-2431.54 997.69,-2426.2 990,-2419 916.145,-2349.82 951.318,-2298.55 918,-2203 879.59,-2092.85 831.282,-1962.65 810.401,-1906.76"/>
<polygon fill="none" stroke="black" points="813.611,-1905.35 806.83,-1897.21 807.054,-1907.8 813.611,-1905.35"/>
</g>
<!-- \\Model -->
<g id="node111" class="node"><title>\\Model</title>
<ellipse fill="none" stroke="black" cx="44" cy="-2851" rx="43.8406" ry="18.3848"/>
<text text-anchor="middle" x="44" y="-2847.4" font-family="Times Roman,serif" font-size="14.00" fill="gray">\Model</text>
</g>
<!-- \\NetCommonsAppModel&#45;&gt;\\Model -->
<g id="edge83" class="edge"><title>\\NetCommonsAppModel&#45;&gt;\\Model</title>
<path fill="none" stroke="black" d="M172.749,-2851C148.379,-2851 121.357,-2851 98.3871,-2851"/>
<polygon fill="none" stroke="black" points="98.1425,-2847.5 88.1425,-2851 98.1424,-2854.5 98.1425,-2847.5"/>
</g>
<!-- \\OriginalKeyBehavior -->
<g id="node49" class="node"><title>\\OriginalKeyBehavior</title>
<polygon fill="none" stroke="black" points="1165,-574 1021,-574 1021,-538 1165,-538 1165,-574"/>
<text text-anchor="middle" x="1093" y="-553.1" font-family="Courier,monospace" font-size="11.00">OriginalKeyBehavior</text>
</g>
<!-- \\ModelBehavior -->
<g id="node113" class="node"><title>\\ModelBehavior</title>
<ellipse fill="none" stroke="black" cx="800" cy="-126" rx="86.9741" ry="18.3848"/>
<text text-anchor="middle" x="800" y="-122.4" font-family="Times Roman,serif" font-size="14.00" fill="gray">\ModelBehavior</text>
</g>
<!-- \\OriginalKeyBehavior&#45;&gt;\\ModelBehavior -->
<g id="edge85" class="edge"><title>\\OriginalKeyBehavior&#45;&gt;\\ModelBehavior</title>
<path fill="none" stroke="black" d="M1020.25,-547.995C1008.89,-543.838 998.206,-537.777 990,-529 873.795,-404.716 1036.14,-275.443 918,-153 910.646,-145.379 901.615,-139.712 891.852,-135.525"/>
<polygon fill="none" stroke="black" points="892.89,-132.176 882.298,-131.949 890.436,-138.732 892.89,-132.176"/>
</g>
<!-- \\TrackableBehavior -->
<g id="node50" class="node"><title>\\TrackableBehavior</title>
<polygon fill="none" stroke="black" points="1158,-520 1028,-520 1028,-484 1158,-484 1158,-520"/>
<text text-anchor="middle" x="1093" y="-499.1" font-family="Courier,monospace" font-size="11.00">TrackableBehavior</text>
</g>
<!-- \\TrackableBehavior&#45;&gt;\\ModelBehavior -->
<g id="edge87" class="edge"><title>\\TrackableBehavior&#45;&gt;\\ModelBehavior</title>
<path fill="none" stroke="black" d="M1027.38,-496.047C1013.48,-491.941 1000.01,-485.38 990,-475 888.21,-369.437 1021.44,-256.95 918,-153 910.53,-145.493 901.428,-139.895 891.627,-135.745"/>
<polygon fill="none" stroke="black" points="892.638,-132.388 882.045,-132.196 890.207,-138.952 892.638,-132.388"/>
</g>
<!-- \\YAExceptionRenderer -->
<g id="node51" class="node"><title>\\YAExceptionRenderer</title>
<polygon fill="none" stroke="black" points="1165,-466 1021,-466 1021,-430 1165,-430 1165,-466"/>
<text text-anchor="middle" x="1093" y="-445.1" font-family="Courier,monospace" font-size="11.00">YAExceptionRenderer</text>
</g>
<!-- \\ExceptionRenderer -->
<g id="node116" class="node"><title>\\ExceptionRenderer</title>
<ellipse fill="none" stroke="black" cx="800" cy="-72" rx="118.087" ry="18.3848"/>
<text text-anchor="middle" x="800" y="-68.4" font-family="Times Roman,serif" font-size="14.00" fill="gray">TEHxceptionRenderer</text>
</g>
<!-- \\YAExceptionRenderer&#45;&gt;\\ExceptionRenderer -->
<g id="edge89" class="edge"><title>\\YAExceptionRenderer&#45;&gt;\\ExceptionRenderer</title>
<path fill="none" stroke="black" d="M1020.48,-439.783C1009.09,-435.648 998.341,-429.65 990,-421 888.21,-315.437 1021.44,-202.95 918,-99 913.632,-94.61 908.706,-90.873 903.408,-87.6967"/>
<polygon fill="none" stroke="black" points="904.657,-84.4002 894.174,-82.8643 901.411,-90.6022 904.657,-84.4002"/>
</g>
<!-- \\NetCommonsMigration -->
<g id="node52" class="node"><title>\\NetCommonsMigration</title>
<polygon fill="none" stroke="black" points="872,-1220 728,-1220 728,-1184 872,-1184 872,-1220"/>
<text text-anchor="middle" x="800" y="-1199.1" font-family="Courier,monospace" font-size="11.00">NetCommonsMigration</text>
</g>
<!-- \\CakeMigration -->
<g id="node118" class="node"><title>\\CakeMigration</title>
<ellipse fill="none" stroke="black" cx="503" cy="-180" rx="84.8528" ry="18.3848"/>
<text text-anchor="middle" x="503" y="-176.4" font-family="Times Roman,serif" font-size="14.00" fill="gray">\CakeMigration</text>
</g>
<!-- \\NetCommonsMigration&#45;&gt;\\CakeMigration -->
<g id="edge91" class="edge"><title>\\NetCommonsMigration&#45;&gt;\\CakeMigration</title>
<path fill="none" stroke="black" d="M727.281,-1203.15C710.195,-1199.81 693.606,-1192.96 682,-1180 537.387,-1018.46 749.466,-373.004 610,-207 604.628,-200.605 597.982,-195.606 590.653,-191.711"/>
<polygon fill="none" stroke="black" points="591.6,-188.297 581.048,-187.347 588.705,-194.67 591.6,-188.297"/>
</g>
<!-- \\DataTypeFormComponent -->
<g id="node53" class="node"><title>\\DataTypeFormComponent</title>
<polygon fill="none" stroke="black" points="1172,-898 1014,-898 1014,-862 1172,-862 1172,-898"/>
<text text-anchor="middle" x="1093" y="-877.1" font-family="Courier,monospace" font-size="11.00">DataTypeFormComponent</text>
</g>
<!-- \\DataTypeFormComponent&#45;&gt;\\Component -->
<g id="edge93" class="edge"><title>\\DataTypeFormComponent&#45;&gt;\\Component</title>
<path fill="none" stroke="black" d="M1013.91,-869.956C1004.86,-865.904 996.549,-860.411 990,-853 830.252,-672.227 1080.57,-493.24 918,-315 908.162,-304.213 894.974,-297.293 880.979,-292.934"/>
<polygon fill="none" stroke="black" points="881.757,-289.519 871.192,-290.31 879.944,-296.281 881.757,-289.519"/>
</g>
<!-- \\DataTypeFormHelper -->
<g id="node54" class="node"><title>\\DataTypeFormHelper</title>
<polygon fill="none" stroke="black" points="1162,-2410 1024,-2410 1024,-2374 1162,-2374 1162,-2410"/>
<text text-anchor="middle" x="1093" y="-2389.1" font-family="Courier,monospace" font-size="11.00">DataTypeFormHelper</text>
</g>
<!-- \\DataTypeFormHelper&#45;&gt;\\AppHelper -->
<g id="edge95" class="edge"><title>\\DataTypeFormHelper&#45;&gt;\\AppHelper</title>
<path fill="none" stroke="black" d="M1023.93,-2383.49C1011.58,-2379.44 999.597,-2373.54 990,-2365 971.537,-2348.57 846.454,-2006.9 809.969,-1906.51"/>
<polygon fill="none" stroke="black" points="813.235,-1905.25 806.532,-1897.04 806.655,-1907.64 813.235,-1905.25"/>
</g>
<!-- \\TimezoneBehavior -->
<g id="node55" class="node"><title>\\TimezoneBehavior</title>
<polygon fill="none" stroke="black" points="1155,-628 1031,-628 1031,-592 1155,-592 1155,-628"/>
<text text-anchor="middle" x="1093" y="-607.1" font-family="Courier,monospace" font-size="11.00">TimezoneBehavior</text>
</g>
<!-- \\TimezoneBehavior&#45;&gt;\\ModelBehavior -->
<g id="edge97" class="edge"><title>\\TimezoneBehavior&#45;&gt;\\ModelBehavior</title>
<path fill="none" stroke="black" d="M1030.44,-605.412C1015.34,-601.395 1000.53,-594.534 990,-583 859.318,-439.927 1050.91,-294.002 918,-153 910.736,-145.293 901.758,-139.575 892.025,-135.36"/>
<polygon fill="none" stroke="black" points="893.083,-132.019 882.491,-131.764 890.613,-138.568 893.083,-132.019"/>
</g>
<!-- \\DataTypesAppModel -->
<g id="node56" class="node"><title>\\DataTypesAppModel</title>
<polygon fill="none" stroke="black" points="865,-2842 735,-2842 735,-2806 865,-2806 865,-2842"/>
<text text-anchor="middle" x="800" y="-2821.1" font-family="Courier,monospace" font-size="11.00">DataTypesAppModel</text>
</g>
<!-- \\DataTypesAppModel&#45;&gt;\\AppModel -->
<g id="edge99" class="edge"><title>\\DataTypesAppModel&#45;&gt;\\AppModel</title>
<path fill="none" stroke="black" d="M734.454,-2829.96C678.157,-2835.08 598.44,-2842.32 548.776,-2846.84"/>
<polygon fill="none" stroke="black" points="548.296,-2843.37 538.654,-2847.76 548.93,-2850.34 548.296,-2843.37"/>
</g>
<!-- \\DataType -->
<g id="node57" class="node"><title>\\DataType</title>
<polygon fill="none" stroke="black" points="1128,-2842 1058,-2842 1058,-2806 1128,-2806 1128,-2842"/>
<text text-anchor="middle" x="1093" y="-2821.1" font-family="Courier,monospace" font-size="11.00">DataType</text>
</g>
<!-- \\DataType&#45;&gt;\\DataTypesAppModel -->
<g id="edge101" class="edge"><title>\\DataType&#45;&gt;\\DataTypesAppModel</title>
<path fill="none" stroke="black" d="M1057.37,-2824C1012.55,-2824 934.399,-2824 875.941,-2824"/>
<polygon fill="none" stroke="black" points="875.636,-2820.5 865.636,-2824 875.636,-2827.5 875.636,-2820.5"/>
</g>
<!-- \\DataTypeChoice -->
<g id="node58" class="node"><title>\\DataTypeChoice</title>
<polygon fill="none" stroke="black" points="1148,-2896 1038,-2896 1038,-2860 1148,-2860 1148,-2896"/>
<text text-anchor="middle" x="1093" y="-2875.1" font-family="Courier,monospace" font-size="11.00">DataTypeChoice</text>
</g>
<!-- \\DataTypeChoice&#45;&gt;\\DataTypesAppModel -->
<g id="edge103" class="edge"><title>\\DataTypeChoice&#45;&gt;\\DataTypesAppModel</title>
<path fill="none" stroke="black" d="M1037.2,-2867.72C991.357,-2859.27 925.981,-2847.22 875.469,-2837.91"/>
<polygon fill="none" stroke="black" points="876.043,-2834.46 865.575,-2836.09 874.775,-2841.34 876.043,-2834.46"/>
</g>
<!-- \\DataTypesSchema -->
<g id="node59" class="node"><title>\\DataTypesSchema</title>
<polygon fill="none" stroke="black" points="1152,-412 1034,-412 1034,-376 1152,-376 1152,-412"/>
<text text-anchor="middle" x="1093" y="-391.1" font-family="Courier,monospace" font-size="11.00">DataTypesSchema</text>
</g>
<!-- \\CakeSchema -->
<g id="node126" class="node"><title>\\CakeSchema</title>
<ellipse fill="none" stroke="black" cx="800" cy="-18" rx="77.0746" ry="18.3848"/>
<text text-anchor="middle" x="800" y="-14.4" font-family="Times Roman,serif" font-size="14.00" fill="gray">\CakeSchema</text>
</g>
<!-- \\DataTypesSchema&#45;&gt;\\CakeSchema -->
<g id="edge105" class="edge"><title>\\DataTypesSchema&#45;&gt;\\CakeSchema</title>
<path fill="none" stroke="black" d="M1089.54,-375.725C1077.51,-317.407 1031.83,-134.35 918,-45 907.593,-36.8314 895.169,-31.0476 882.349,-26.9696"/>
<polygon fill="none" stroke="black" points="883.07,-23.5363 872.495,-24.1724 881.159,-30.2702 883.07,-23.5363"/>
</g>
<!-- \\Records -->
<g id="node60" class="node"><title>\\Records</title>
<polygon fill="none" stroke="black" points="1125,-1330 1061,-1330 1061,-1294 1125,-1294 1125,-1330"/>
<text text-anchor="middle" x="1093" y="-1309.1" font-family="Courier,monospace" font-size="11.00">Records</text>
</g>
<!-- \\Records&#45;&gt;\\NetCommonsMigration -->
<g id="edge107" class="edge"><title>\\Records&#45;&gt;\\NetCommonsMigration</title>
<path fill="none" stroke="black" d="M1060.6,-1304.87C1040.12,-1300.04 1013.23,-1293.06 990,-1285 939.685,-1267.53 884.061,-1242.53 846.074,-1224.54"/>
<polygon fill="none" stroke="black" points="847.343,-1221.27 836.81,-1220.12 844.331,-1227.59 847.343,-1221.27"/>
</g>
<!-- \\Init -->
<g id="node61" class="node"><title>\\Init</title>
<polygon fill="none" stroke="black" points="1120,-1222 1066,-1222 1066,-1186 1120,-1186 1120,-1222"/>
<text text-anchor="middle" x="1093" y="-1201.1" font-family="Courier,monospace" font-size="11.00">Init</text>
</g>
<!-- \\Init&#45;&gt;\\CakeMigration -->
<g id="edge109" class="edge"><title>\\Init&#45;&gt;\\CakeMigration</title>
<path fill="none" stroke="black" d="M1065.8,-1204.42C1042.37,-1203.23 1009.36,-1197.62 990,-1177 876.203,-1055.84 973.831,-966.563 918,-810 843.332,-600.614 779.652,-568.704 682,-369 647.389,-298.218 670.269,-257.751 610,-207 602.951,-201.064 594.773,-196.406 586.139,-192.754"/>
<polygon fill="none" stroke="black" points="587.216,-189.42 576.624,-189.174 584.751,-195.971 587.216,-189.42"/>
</g>
</g>
</svg>
