<?xml version="1.0" encoding="UTF-8" standalone="no"?>
<!DOCTYPE svg PUBLIC "-//W3C//DTD SVG 1.1//EN"
 "http://www.w3.org/Graphics/SVG/1.1/DTD/svg11.dtd">
<!-- Generated by graphviz version 2.26.3 (20100126.1600)
 -->
<!-- Title: G Pages: 1 -->
<svg width="1220pt" height="2888pt"
 viewBox="0.00 0.00 1220.00 2888.00" xmlns="http://www.w3.org/2000/svg" xmlns:xlink="http://www.w3.org/1999/xlink">
<g id="graph1" class="graph" transform="scale(1 1) rotate(0) translate(4 2884)">
<title>G</title>
<polygon fill="white" stroke="white" points="-4,5 -4,-2884 1217,-2884 1217,5 -4,5"/>
<g id="graph2" class="cluster"><title>cluster_Global</title>
<polyline fill="none" stroke="gray" points="177,-368 1192,-368 "/>
<path fill="none" stroke="gray" d="M1192,-368C1198,-368 1204,-374 1204,-380"/>
<polyline fill="none" stroke="gray" points="1204,-380 1204,-2860 "/>
<path fill="none" stroke="gray" d="M1204,-2860C1204,-2866 1198,-2872 1192,-2872"/>
<polyline fill="none" stroke="gray" points="1192,-2872 177,-2872 "/>
<path fill="none" stroke="gray" d="M177,-2872C171,-2872 165,-2866 165,-2860"/>
<polyline fill="none" stroke="gray" points="165,-2860 165,-380 "/>
<path fill="none" stroke="gray" d="M165,-380C165,-374 171,-368 177,-368"/>
<text text-anchor="middle" x="684.5" y="-2858.1" font-family="Times Roman,serif" font-size="11.00" fill="gray">Global</text>
</g>
<!-- \\AppController -->
<g id="node2" class="node"><title>\\AppController</title>
<polygon fill="none" stroke="black" points="1145,-1276 1041,-1276 1041,-1240 1145,-1240 1145,-1276"/>
<text text-anchor="middle" x="1093" y="-1255.1" font-family="Courier,monospace" font-size="11.00">AppController</text>
</g>
<!-- \\Controller -->
<g id="node62" class="node"><title>\\Controller</title>
<ellipse fill="none" stroke="black" cx="503" cy="-234" rx="63.1385" ry="18.3848"/>
<text text-anchor="middle" x="503" y="-230.4" font-family="Times Roman,serif" font-size="14.00" fill="gray">\Controller</text>
</g>
<!-- \\AppController&#45;&gt;\\Controller -->
<g id="edge3" class="edge"><title>\\AppController&#45;&gt;\\Controller</title>
<path fill="none" stroke="black" d="M1040.84,-1251.49C1023.58,-1247.54 1004.97,-1241.2 990,-1231 894.182,-1165.76 725.105,-917.607 682,-810 590.49,-581.558 773.561,-444.869 610,-261 600.881,-250.748 588.489,-244.119 575.371,-239.889"/>
<polygon fill="none" stroke="black" points="576.298,-236.514 565.726,-237.214 574.427,-243.259 576.298,-236.514"/>
</g>
<!-- \\AppModel -->
<g id="node3" class="node"><title>\\AppModel</title>
<polygon fill="none" stroke="black" points="538,-2815 468,-2815 468,-2779 538,-2779 538,-2815"/>
<text text-anchor="middle" x="503" y="-2794.1" font-family="Courier,monospace" font-size="11.00">AppModel</text>
</g>
<!-- \\NetCommonsAppModel -->
<g id="node47" class="node"><title>\\NetCommonsAppModel</title>
<polygon fill="none" stroke="black" points="311,-2815 173,-2815 173,-2779 311,-2779 311,-2815"/>
<text text-anchor="middle" x="242" y="-2794.1" font-family="Courier,monospace" font-size="11.00">NetCommonsAppModel</text>
</g>
<!-- \\AppModel&#45;&gt;\\NetCommonsAppModel -->
<g id="edge5" class="edge"><title>\\AppModel&#45;&gt;\\NetCommonsAppModel</title>
<path fill="none" stroke="black" d="M467.256,-2797C429.848,-2797 369.903,-2797 321.254,-2797"/>
<polygon fill="none" stroke="black" points="321.056,-2793.5 311.056,-2797 321.056,-2800.5 321.056,-2793.5"/>
</g>
<!-- \\DatabaseConfiguration -->
<g id="node4" class="node"><title>\\DatabaseConfiguration</title>
<polygon fill="none" stroke="black" points="879,-2842 721,-2842 721,-2806 879,-2806 879,-2842"/>
<text text-anchor="middle" x="800" y="-2821.1" font-family="Courier,monospace" font-size="11.00">DatabaseConfiguration</text>
</g>
<!-- \\DatabaseConfiguration&#45;&gt;\\AppModel -->
<g id="edge7" class="edge"><title>\\DatabaseConfiguration&#45;&gt;\\AppModel</title>
<path fill="none" stroke="black" d="M720.8,-2816.8C665.959,-2811.81 594.863,-2805.35 549.084,-2801.19"/>
<polygon fill="none" stroke="black" points="549.143,-2797.68 538.867,-2800.26 548.509,-2804.65 549.143,-2797.68"/>
</g>
<!-- \\AppHelper -->
<g id="node5" class="node"><title>\\AppHelper</title>
<polygon fill="none" stroke="black" points="838,-1870 762,-1870 762,-1834 838,-1834 838,-1870"/>
<text text-anchor="middle" x="800" y="-1849.1" font-family="Courier,monospace" font-size="11.00">AppHelper</text>
</g>
<!-- \\Helper -->
<g id="node66" class="node"><title>\\Helper</title>
<ellipse fill="none" stroke="black" cx="503" cy="-342" rx="43.8406" ry="18.3848"/>
<text text-anchor="middle" x="503" y="-338.4" font-family="Times Roman,serif" font-size="14.00" fill="gray">Helper</text>
</g>
<!-- \\AppHelper&#45;&gt;\\Helper -->
<g id="edge9" class="edge"><title>\\AppHelper&#45;&gt;\\Helper</title>
<path fill="none" stroke="black" d="M791.986,-1833.82C769.852,-1782.64 707.812,-1632.53 682,-1501 657.624,-1376.78 693.052,-459.532 610,-364 596.861,-348.887 576.357,-342.498 556.798,-340.208"/>
<polygon fill="none" stroke="black" points="556.959,-336.71 546.701,-339.36 556.373,-343.685 556.959,-336.71"/>
</g>
<!-- \\NetCommonsDeleteTest -->
<g id="node6" class="node"><title>\\NetCommonsDeleteTest</title>
<polygon fill="none" stroke="black" points="1169,-2734 1017,-2734 1017,-2698 1169,-2698 1169,-2734"/>
<text text-anchor="middle" x="1093" y="-2713.1" font-family="Courier,monospace" font-size="11.00">NetCommonsDeleteTest</text>
</g>
<!-- \\NetCommonsModelTestCase -->
<g id="node15" class="node"><title>\\NetCommonsModelTestCase</title>
<polygon fill="none" stroke="black" points="886,-2626 714,-2626 714,-2590 886,-2590 886,-2626"/>
<text text-anchor="middle" x="800" y="-2605.1" font-family="Courier,monospace" font-size="11.00">NetCommonsModelTestCase</text>
</g>
<!-- \\NetCommonsDeleteTest&#45;&gt;\\NetCommonsModelTestCase -->
<g id="edge11" class="edge"><title>\\NetCommonsDeleteTest&#45;&gt;\\NetCommonsModelTestCase</title>
<path fill="none" stroke="black" d="M1018.9,-2697.98C1009.12,-2695.19 999.27,-2692.17 990,-2689 940.27,-2671.98 885.199,-2647.9 847.206,-2630.42"/>
<polygon fill="none" stroke="black" points="848.474,-2627.15 837.929,-2626.12 845.534,-2633.5 848.474,-2627.15"/>
</g>
<!-- \\NetCommonsConsoleTestCase -->
<g id="node7" class="node"><title>\\NetCommonsConsoleTestCase</title>
<polygon fill="none" stroke="black" points="892,-2275 708,-2275 708,-2239 892,-2239 892,-2275"/>
<text text-anchor="middle" x="800" y="-2254.1" font-family="Courier,monospace" font-size="11.00">NetCommonsConsoleTestCase</text>
</g>
<!-- \\NetCommonsCakeTestCase -->
<g id="node13" class="node"><title>\\NetCommonsCakeTestCase</title>
<polygon fill="none" stroke="black" points="585,-2248 421,-2248 421,-2212 585,-2212 585,-2248"/>
<text text-anchor="middle" x="503" y="-2227.1" font-family="Courier,monospace" font-size="11.00">NetCommonsCakeTestCase</text>
</g>
<!-- \\NetCommonsConsoleTestCase&#45;&gt;\\NetCommonsCakeTestCase -->
<g id="edge13" class="edge"><title>\\NetCommonsConsoleTestCase&#45;&gt;\\NetCommonsCakeTestCase</title>
<path fill="none" stroke="black" d="M707.249,-2248.57C671.93,-2245.36 631.688,-2241.7 596.316,-2238.48"/>
<polygon fill="none" stroke="black" points="596.269,-2234.96 585.993,-2237.54 595.635,-2241.94 596.269,-2234.96"/>
</g>
<!-- \\NetCommonsGetTest -->
<g id="node8" class="node"><title>\\NetCommonsGetTest</title>
<polygon fill="none" stroke="black" points="1158,-2680 1028,-2680 1028,-2644 1158,-2644 1158,-2680"/>
<text text-anchor="middle" x="1093" y="-2659.1" font-family="Courier,monospace" font-size="11.00">NetCommonsGetTest</text>
</g>
<!-- \\NetCommonsGetTest&#45;&gt;\\NetCommonsModelTestCase -->
<g id="edge15" class="edge"><title>\\NetCommonsGetTest&#45;&gt;\\NetCommonsModelTestCase</title>
<path fill="none" stroke="black" d="M1027.25,-2649.88C988.582,-2642.76 939.008,-2633.62 896.034,-2625.7"/>
<polygon fill="none" stroke="black" points="896.588,-2622.24 886.12,-2623.87 895.32,-2629.13 896.588,-2622.24"/>
</g>
<!-- \\NetCommonsHelperTestCase -->
<g id="node9" class="node"><title>\\NetCommonsHelperTestCase</title>
<polygon fill="none" stroke="black" points="889,-2221 711,-2221 711,-2185 889,-2185 889,-2221"/>
<text text-anchor="middle" x="800" y="-2200.1" font-family="Courier,monospace" font-size="11.00">NetCommonsHelperTestCase</text>
</g>
<!-- \\NetCommonsHelperTestCase&#45;&gt;\\NetCommonsCakeTestCase -->
<g id="edge17" class="edge"><title>\\NetCommonsHelperTestCase&#45;&gt;\\NetCommonsCakeTestCase</title>
<path fill="none" stroke="black" d="M710.487,-2211.14C674.267,-2214.43 632.456,-2218.23 595.9,-2221.55"/>
<polygon fill="none" stroke="black" points="595.379,-2218.09 585.737,-2222.48 596.013,-2225.06 595.379,-2218.09"/>
</g>
<!-- \\NetCommonsControllerBaseTestCase -->
<g id="node10" class="node"><title>\\NetCommonsControllerBaseTestCase</title>
<polygon fill="none" stroke="black" points="916,-1438 684,-1438 684,-1402 916,-1402 916,-1438"/>
<text text-anchor="middle" x="800" y="-1417.1" font-family="Courier,monospace" font-size="11.00">NetCommonsControllerBaseTestCase</text>
</g>
<!-- \\ControllerTestCase -->
<g id="node72" class="node"><title>\\ControllerTestCase</title>
<ellipse fill="none" stroke="black" cx="503" cy="-288" rx="106.773" ry="18.3848"/>
<text text-anchor="middle" x="503" y="-284.4" font-family="Times Roman,serif" font-size="14.00" fill="gray">\ControllerTestCase</text>
</g>
<!-- \\NetCommonsControllerBaseTestCase&#45;&gt;\\ControllerTestCase -->
<g id="edge19" class="edge"><title>\\NetCommonsControllerBaseTestCase&#45;&gt;\\ControllerTestCase</title>
<path fill="none" stroke="black" d="M691.003,-1401.62C687.75,-1399.06 684.728,-1396.2 682,-1393 526.181,-1210.34 763.778,-499.378 610,-315 606.395,-310.678 602.209,-306.992 597.622,-303.854"/>
<polygon fill="none" stroke="black" points="599.368,-300.82 588.972,-298.777 595.824,-306.857 599.368,-300.82"/>
</g>
<!-- \\NetCommonsValidateTest -->
<g id="node11" class="node"><title>\\NetCommonsValidateTest</title>
<polygon fill="none" stroke="black" points="1175,-2626 1011,-2626 1011,-2590 1175,-2590 1175,-2626"/>
<text text-anchor="middle" x="1093" y="-2605.1" font-family="Courier,monospace" font-size="11.00">NetCommonsValidateTest</text>
</g>
<!-- \\NetCommonsValidateTest&#45;&gt;\\NetCommonsModelTestCase -->
<g id="edge21" class="edge"><title>\\NetCommonsValidateTest&#45;&gt;\\NetCommonsModelTestCase</title>
<path fill="none" stroke="black" d="M1010.21,-2608C974.791,-2608 933.196,-2608 896.397,-2608"/>
<polygon fill="none" stroke="black" points="896.154,-2604.5 886.154,-2608 896.154,-2611.5 896.154,-2604.5"/>
</g>
<!-- \\NetCommonsTestSuite -->
<g id="node12" class="node"><title>\\NetCommonsTestSuite</title>
<polygon fill="none" stroke="black" points="1165,-1168 1021,-1168 1021,-1132 1165,-1132 1165,-1168"/>
<text text-anchor="middle" x="1093" y="-1147.1" font-family="Courier,monospace" font-size="11.00">NetCommonsTestSuite</text>
</g>
<!-- \\CakeTestSuite -->
<g id="node75" class="node"><title>\\CakeTestSuite</title>
<ellipse fill="none" stroke="black" cx="800" cy="-342" rx="84.1457" ry="18.3848"/>
<text text-anchor="middle" x="800" y="-338.4" font-family="Times Roman,serif" font-size="14.00" fill="gray">\CakeTestSuite</text>
</g>
<!-- \\NetCommonsTestSuite&#45;&gt;\\CakeTestSuite -->
<g id="edge23" class="edge"><title>\\NetCommonsTestSuite&#45;&gt;\\CakeTestSuite</title>
<path fill="none" stroke="black" d="M1020.33,-1142.92C1008.74,-1138.69 997.962,-1132.37 990,-1123 880.272,-993.91 1032.31,-489.054 918,-364 911.146,-356.501 902.623,-351.061 893.316,-347.167"/>
<polygon fill="none" stroke="black" points="894.374,-343.828 883.78,-343.769 892.025,-350.422 894.374,-343.828"/>
</g>
<!-- \\CakeTestCase -->
<g id="node77" class="node"><title>\\CakeTestCase</title>
<ellipse fill="none" stroke="black" cx="242" cy="-342" rx="82.0244" ry="18.3848"/>
<text text-anchor="middle" x="242" y="-338.4" font-family="Times Roman,serif" font-size="14.00" fill="gray">\CakeTestCase</text>
</g>
<!-- \\NetCommonsCakeTestCase&#45;&gt;\\CakeTestCase -->
<g id="edge25" class="edge"><title>\\NetCommonsCakeTestCase&#45;&gt;\\CakeTestCase</title>
<path fill="none" stroke="black" d="M420.387,-2225C411.057,-2221.2 402.564,-2215.74 396,-2208 263.355,-2051.64 451.948,-524.227 324,-364 322.31,-361.884 320.44,-359.958 318.425,-358.206"/>
<polygon fill="none" stroke="black" points="320.196,-355.172 310.005,-352.277 316.166,-360.896 320.196,-355.172"/>
</g>
<!-- \\NetCommonsSaveTest -->
<g id="node14" class="node"><title>\\NetCommonsSaveTest</title>
<polygon fill="none" stroke="black" points="1162,-2572 1024,-2572 1024,-2536 1162,-2536 1162,-2572"/>
<text text-anchor="middle" x="1093" y="-2551.1" font-family="Courier,monospace" font-size="11.00">NetCommonsSaveTest</text>
</g>
<!-- \\NetCommonsSaveTest&#45;&gt;\\NetCommonsModelTestCase -->
<g id="edge27" class="edge"><title>\\NetCommonsSaveTest&#45;&gt;\\NetCommonsModelTestCase</title>
<path fill="none" stroke="black" d="M1023.93,-2566.73C985.795,-2573.76 937.829,-2582.6 896.084,-2590.29"/>
<polygon fill="none" stroke="black" points="895.372,-2586.86 886.172,-2592.12 896.641,-2593.75 895.372,-2586.86"/>
</g>
<!-- \\NetCommonsModelTestCase&#45;&gt;\\NetCommonsCakeTestCase -->
<g id="edge29" class="edge"><title>\\NetCommonsModelTestCase&#45;&gt;\\NetCommonsCakeTestCase</title>
<path fill="none" stroke="black" d="M785.675,-2589.77C737.351,-2528.26 580.201,-2328.26 523.574,-2256.19"/>
<polygon fill="none" stroke="black" points="526.112,-2253.75 517.181,-2248.05 520.607,-2258.07 526.112,-2253.75"/>
</g>
<!-- \\NetCommonsControllerTestCase -->
<g id="node16" class="node"><title>\\NetCommonsControllerTestCase</title>
<polygon fill="none" stroke="black" points="1196,-1438 990,-1438 990,-1402 1196,-1402 1196,-1438"/>
<text text-anchor="middle" x="1093" y="-1417.1" font-family="Courier,monospace" font-size="11.00">NetCommonsControllerTestCase</text>
</g>
<!-- \\NetCommonsControllerTestCase&#45;&gt;\\NetCommonsControllerBaseTestCase -->
<g id="edge31" class="edge"><title>\\NetCommonsControllerTestCase&#45;&gt;\\NetCommonsControllerBaseTestCase</title>
<path fill="none" stroke="black" d="M989.699,-1420C969.381,-1420 947.845,-1420 926.858,-1420"/>
<polygon fill="none" stroke="black" points="926.606,-1416.5 916.606,-1420 926.606,-1423.5 926.606,-1416.5"/>
</g>
<!-- \\NetCommonsAppController -->
<g id="node17" class="node"><title>\\NetCommonsAppController</title>
<polygon fill="none" stroke="black" points="886,-1384 714,-1384 714,-1348 886,-1348 886,-1384"/>
<text text-anchor="middle" x="800" y="-1363.1" font-family="Courier,monospace" font-size="11.00">NetCommonsAppController</text>
</g>
<!-- \\NetCommonsAppController&#45;&gt;\\Controller -->
<g id="edge33" class="edge"><title>\\NetCommonsAppController&#45;&gt;\\Controller</title>
<path fill="none" stroke="black" d="M777.384,-1347.96C749.362,-1324.1 702.779,-1279.17 682,-1229 599.466,-1029.71 748.785,-426.129 610,-261 601.122,-250.437 588.771,-243.681 575.604,-239.425"/>
<polygon fill="none" stroke="black" points="576.48,-236.036 565.909,-236.749 574.618,-242.784 576.48,-236.036"/>
</g>
<!-- \\AssetComponent -->
<g id="node18" class="node"><title>\\AssetComponent</title>
<polygon fill="none" stroke="black" points="1148,-1060 1038,-1060 1038,-1024 1148,-1024 1148,-1060"/>
<text text-anchor="middle" x="1093" y="-1039.1" font-family="Courier,monospace" font-size="11.00">AssetComponent</text>
</g>
<!-- \\Component -->
<g id="node83" class="node"><title>\\Component</title>
<ellipse fill="none" stroke="black" cx="800" cy="-288" rx="70.9184" ry="18.3848"/>
<text text-anchor="middle" x="800" y="-284.4" font-family="Times Roman,serif" font-size="14.00" fill="gray">\Component</text>
</g>
<!-- \\AssetComponent&#45;&gt;\\Component -->
<g id="edge35" class="edge"><title>\\AssetComponent&#45;&gt;\\Component</title>
<path fill="none" stroke="black" d="M1037.47,-1039.62C1019.83,-1036.01 1001.85,-1028.83 990,-1015 786.502,-777.507 1125.2,-549.266 918,-315 908.271,-304.001 895.062,-296.994 880.998,-292.62"/>
<polygon fill="none" stroke="black" points="881.72,-289.191 871.156,-289.996 879.917,-295.955 881.72,-289.191"/>
</g>
<!-- \\NetCommonsTimeComponent -->
<g id="node19" class="node"><title>\\NetCommonsTimeComponent</title>
<polygon fill="none" stroke="black" points="1179,-1006 1007,-1006 1007,-970 1179,-970 1179,-1006"/>
<text text-anchor="middle" x="1093" y="-985.1" font-family="Courier,monospace" font-size="11.00">NetCommonsTimeComponent</text>
</g>
<!-- \\NetCommonsTimeComponent&#45;&gt;\\Component -->
<g id="edge37" class="edge"><title>\\NetCommonsTimeComponent&#45;&gt;\\Component</title>
<path fill="none" stroke="black" d="M1006.61,-974.447C1000.38,-970.874 994.714,-966.455 990,-961 801.099,-742.429 1110.31,-530.576 918,-315 908.225,-304.042 894.994,-297.054 880.924,-292.686"/>
<polygon fill="none" stroke="black" points="881.644,-289.256 871.08,-290.064 879.842,-296.02 881.644,-289.256"/>
</g>
<!-- \\PermissionComponent -->
<g id="node20" class="node"><title>\\PermissionComponent</title>
<polygon fill="none" stroke="black" points="1165,-952 1021,-952 1021,-916 1165,-916 1165,-952"/>
<text text-anchor="middle" x="1093" y="-931.1" font-family="Courier,monospace" font-size="11.00">PermissionComponent</text>
</g>
<!-- \\PermissionComponent&#45;&gt;\\Component -->
<g id="edge39" class="edge"><title>\\PermissionComponent&#45;&gt;\\Component</title>
<path fill="none" stroke="black" d="M1020.27,-926.647C1008.76,-922.437 998.024,-916.191 990,-907 815.683,-707.337 1095.43,-511.899 918,-315 908.227,-304.155 895.069,-297.207 881.082,-292.841"/>
<polygon fill="none" stroke="black" points="881.864,-289.426 871.298,-290.214 880.049,-296.187 881.864,-289.426"/>
</g>
<!-- \\NetCommonsComponent -->
<g id="node21" class="node"><title>\\NetCommonsComponent</title>
<polygon fill="none" stroke="black" points="1165,-898 1021,-898 1021,-862 1165,-862 1165,-898"/>
<text text-anchor="middle" x="1093" y="-877.1" font-family="Courier,monospace" font-size="11.00">NetCommonsComponent</text>
</g>
<!-- \\NetCommonsComponent&#45;&gt;\\Component -->
<g id="edge41" class="edge"><title>\\NetCommonsComponent&#45;&gt;\\Component</title>
<path fill="none" stroke="black" d="M1020.36,-872.567C1008.84,-868.366 998.079,-862.143 990,-853 830.252,-672.227 1080.57,-493.24 918,-315 908.162,-304.213 894.974,-297.293 880.979,-292.934"/>
<polygon fill="none" stroke="black" points="881.757,-289.519 871.192,-290.31 879.944,-296.281 881.757,-289.519"/>
</g>
<!-- \\NetCommonsController -->
<g id="node22" class="node"><title>\\NetCommonsController</title>
<polygon fill="none" stroke="black" points="1169,-1384 1017,-1384 1017,-1348 1169,-1348 1169,-1384"/>
<text text-anchor="middle" x="1093" y="-1363.1" font-family="Courier,monospace" font-size="11.00">NetCommonsController</text>
</g>
<!-- \\NetCommonsController&#45;&gt;\\NetCommonsAppController -->
<g id="edge43" class="edge"><title>\\NetCommonsController&#45;&gt;\\NetCommonsAppController</title>
<path fill="none" stroke="black" d="M1016.78,-1366C980.049,-1366 935.59,-1366 896.519,-1366"/>
<polygon fill="none" stroke="black" points="896.183,-1362.5 886.183,-1366 896.183,-1369.5 896.183,-1362.5"/>
</g>
<!-- \\NetCommonsUrl -->
<g id="node23" class="node"><title>\\NetCommonsUrl</title>
<polygon fill="none" stroke="black" points="1145,-2194 1041,-2194 1041,-2158 1145,-2158 1145,-2194"/>
<text text-anchor="middle" x="1093" y="-2173.1" font-family="Courier,monospace" font-size="11.00">NetCommonsUrl</text>
</g>
<!-- \\NetCommonsTime -->
<g id="node24" class="node"><title>\\NetCommonsTime</title>
<polygon fill="none" stroke="black" points="1148,-2140 1038,-2140 1038,-2104 1148,-2104 1148,-2140"/>
<text text-anchor="middle" x="1093" y="-2119.1" font-family="Courier,monospace" font-size="11.00">NetCommonsTime</text>
</g>
<!-- \\CurrentBase -->
<g id="node25" class="node"><title>\\CurrentBase</title>
<polygon fill="none" stroke="black" points="845,-1492 755,-1492 755,-1456 845,-1456 845,-1492"/>
<text text-anchor="middle" x="800" y="-1471.1" font-family="Courier,monospace" font-size="11.00">CurrentBase</text>
</g>
<!-- \\Current -->
<g id="node26" class="node"><title>\\Current</title>
<polygon fill="none" stroke="black" points="1125,-1492 1061,-1492 1061,-1456 1125,-1456 1125,-1492"/>
<text text-anchor="middle" x="1093" y="-1471.1" font-family="Courier,monospace" font-size="11.00">Current</text>
</g>
<!-- \\Current&#45;&gt;\\CurrentBase -->
<g id="edge45" class="edge"><title>\\Current&#45;&gt;\\CurrentBase</title>
<path fill="none" stroke="black" d="M1060.81,-1474C1011.48,-1474 916.554,-1474 855.846,-1474"/>
<polygon fill="none" stroke="black" points="855.669,-1470.5 845.669,-1474 855.669,-1477.5 855.669,-1470.5"/>
</g>
<!-- \\CurrentSystem -->
<g id="node27" class="node"><title>\\CurrentSystem</title>
<polygon fill="none" stroke="black" points="1145,-2032 1041,-2032 1041,-1996 1145,-1996 1145,-2032"/>
<text text-anchor="middle" x="1093" y="-2011.1" font-family="Courier,monospace" font-size="11.00">CurrentSystem</text>
</g>
<!-- \\CurrentPage -->
<g id="node28" class="node"><title>\\CurrentPage</title>
<polygon fill="none" stroke="black" points="1138,-1978 1048,-1978 1048,-1942 1138,-1942 1138,-1978"/>
<text text-anchor="middle" x="1093" y="-1957.1" font-family="Courier,monospace" font-size="11.00">CurrentPage</text>
</g>
<!-- \\CurrentFrame -->
<g id="node29" class="node"><title>\\CurrentFrame</title>
<polygon fill="none" stroke="black" points="1142,-1924 1044,-1924 1044,-1888 1142,-1888 1142,-1924"/>
<text text-anchor="middle" x="1093" y="-1903.1" font-family="Courier,monospace" font-size="11.00">CurrentFrame</text>
</g>
<!-- \\TokenHelper -->
<g id="node30" class="node"><title>\\TokenHelper</title>
<polygon fill="none" stroke="black" points="1138,-736 1048,-736 1048,-700 1138,-700 1138,-736"/>
<text text-anchor="middle" x="1093" y="-715.1" font-family="Courier,monospace" font-size="11.00">TokenHelper</text>
</g>
<!-- \\FormHelper -->
<g id="node90" class="node"><title>\\FormHelper</title>
<ellipse fill="none" stroke="black" cx="800" cy="-234" rx="70.9184" ry="18.3848"/>
<text text-anchor="middle" x="800" y="-230.4" font-family="Times Roman,serif" font-size="14.00" fill="gray">\FormHelper</text>
</g>
<!-- \\TokenHelper&#45;&gt;\\FormHelper -->
<g id="edge47" class="edge"><title>\\TokenHelper&#45;&gt;\\FormHelper</title>
<path fill="none" stroke="black" d="M1047.25,-716.813C1026.97,-713.861 1004.46,-706.833 990,-691 859.318,-547.927 1050.91,-402.002 918,-261 907.986,-250.377 894.718,-243.531 880.698,-239.194"/>
<polygon fill="none" stroke="black" points="881.468,-235.777 870.904,-236.577 879.661,-242.54 881.468,-235.777"/>
</g>
<!-- \\SingletonViewBlockHtmlHelper -->
<g id="node31" class="node"><title>\\SingletonViewBlockHtmlHelper</title>
<polygon fill="none" stroke="black" points="1196,-682 990,-682 990,-646 1196,-646 1196,-682"/>
<text text-anchor="middle" x="1093" y="-661.1" font-family="Courier,monospace" font-size="11.00">SingletonViewBlockHtmlHelper</text>
</g>
<!-- \\HtmlHelper -->
<g id="node92" class="node"><title>\\HtmlHelper</title>
<ellipse fill="none" stroke="black" cx="800" cy="-180" rx="67.1751" ry="18.3848"/>
<text text-anchor="middle" x="800" y="-176.4" font-family="Times Roman,serif" font-size="14.00" fill="gray">HtmlHelper</text>
</g>
<!-- \\SingletonViewBlockHtmlHelper&#45;&gt;\\HtmlHelper -->
<g id="edge49" class="edge"><title>\\SingletonViewBlockHtmlHelper&#45;&gt;\\HtmlHelper</title>
<path fill="none" stroke="black" d="M999.918,-645.739C996.329,-643.175 992.992,-640.276 990,-637 859.318,-493.927 1050.91,-348.002 918,-207 907.121,-195.459 892.401,-188.376 877.051,-184.126"/>
<polygon fill="none" stroke="black" points="877.444,-180.622 866.906,-181.723 875.83,-187.434 877.444,-180.622"/>
</g>
<!-- \\FormInputHelper -->
<g id="node32" class="node"><title>\\FormInputHelper</title>
<polygon fill="none" stroke="black" points="1152,-1654 1034,-1654 1034,-1618 1152,-1618 1152,-1654"/>
<text text-anchor="middle" x="1093" y="-1633.1" font-family="Courier,monospace" font-size="11.00">FormInputHelper</text>
</g>
<!-- \\FormInputHelper&#45;&gt;\\AppHelper -->
<g id="edge51" class="edge"><title>\\FormInputHelper&#45;&gt;\\AppHelper</title>
<path fill="none" stroke="black" d="M1033.98,-1645.82C1019.02,-1649.8 1003.4,-1655.34 990,-1663 915.721,-1705.49 850.104,-1784.48 819.041,-1825.59"/>
<polygon fill="none" stroke="black" points="816.119,-1823.65 812.946,-1833.76 821.73,-1827.84 816.119,-1823.65"/>
</g>
<!-- \\WizardHelper -->
<g id="node33" class="node"><title>\\WizardHelper</title>
<polygon fill="none" stroke="black" points="1142,-1600 1044,-1600 1044,-1564 1142,-1564 1142,-1600"/>
<text text-anchor="middle" x="1093" y="-1579.1" font-family="Courier,monospace" font-size="11.00">WizardHelper</text>
</g>
<!-- \\WizardHelper&#45;&gt;\\AppHelper -->
<g id="edge53" class="edge"><title>\\WizardHelper&#45;&gt;\\AppHelper</title>
<path fill="none" stroke="black" d="M1043.91,-1588.14C1025.88,-1592.06 1005.99,-1598.49 990,-1609 904.042,-1665.54 840.094,-1774.07 813.531,-1824.72"/>
<polygon fill="none" stroke="black" points="810.341,-1823.27 808.865,-1833.76 816.562,-1826.48 810.341,-1823.27"/>
</g>
<!-- \\DisplayNumberHelper -->
<g id="node34" class="node"><title>\\DisplayNumberHelper</title>
<polygon fill="none" stroke="black" points="1165,-1546 1021,-1546 1021,-1510 1165,-1510 1165,-1546"/>
<text text-anchor="middle" x="1093" y="-1525.1" font-family="Courier,monospace" font-size="11.00">DisplayNumberHelper</text>
</g>
<!-- \\DisplayNumberHelper&#45;&gt;\\AppHelper -->
<g id="edge55" class="edge"><title>\\DisplayNumberHelper&#45;&gt;\\AppHelper</title>
<path fill="none" stroke="black" d="M1020.36,-1539.68C1009.57,-1543.44 999.044,-1548.42 990,-1555 939.522,-1591.73 848.866,-1758.47 814.1,-1824.73"/>
<polygon fill="none" stroke="black" points="810.916,-1823.27 809.388,-1833.75 817.121,-1826.51 810.916,-1823.27"/>
</g>
<!-- \\MessageFlashHelper -->
<g id="node35" class="node"><title>\\MessageFlashHelper</title>
<polygon fill="none" stroke="black" points="1162,-1870 1024,-1870 1024,-1834 1162,-1834 1162,-1870"/>
<text text-anchor="middle" x="1093" y="-1849.1" font-family="Courier,monospace" font-size="11.00">MessageFlashHelper</text>
</g>
<!-- \\MessageFlashHelper&#45;&gt;\\AppHelper -->
<g id="edge57" class="edge"><title>\\MessageFlashHelper&#45;&gt;\\AppHelper</title>
<path fill="none" stroke="black" d="M1023.93,-1852C970.028,-1852 896.492,-1852 848.634,-1852"/>
<polygon fill="none" stroke="black" points="848.532,-1848.5 838.532,-1852 848.532,-1855.5 848.532,-1848.5"/>
</g>
<!-- \\DateHelper -->
<g id="node36" class="node"><title>\\DateHelper</title>
<polygon fill="none" stroke="black" points="1135,-2518 1051,-2518 1051,-2482 1135,-2482 1135,-2518"/>
<text text-anchor="middle" x="1093" y="-2497.1" font-family="Courier,monospace" font-size="11.00">DateHelper</text>
</g>
<!-- \\DateHelper&#45;&gt;\\AppHelper -->
<g id="edge59" class="edge"><title>\\DateHelper&#45;&gt;\\AppHelper</title>
<path fill="none" stroke="black" d="M1050.87,-2498.78C1029.93,-2495.98 1005.8,-2489.09 990,-2473 894.852,-2376.07 957.301,-2306.01 918,-2176 884.245,-2064.33 833.504,-1934.93 811.197,-1879.5"/>
<polygon fill="none" stroke="black" points="814.363,-1877.99 807.373,-1870.03 807.873,-1880.61 814.363,-1877.99"/>
</g>
<!-- \\SnsButtonHelper -->
<g id="node37" class="node"><title>\\SnsButtonHelper</title>
<polygon fill="none" stroke="black" points="1152,-2464 1034,-2464 1034,-2428 1152,-2428 1152,-2464"/>
<text text-anchor="middle" x="1093" y="-2443.1" font-family="Courier,monospace" font-size="11.00">SnsButtonHelper</text>
</g>
<!-- \\SnsButtonHelper&#45;&gt;\\AppHelper -->
<g id="edge61" class="edge"><title>\\SnsButtonHelper&#45;&gt;\\AppHelper</title>
<path fill="none" stroke="black" d="M1033.78,-2441.14C1017.87,-2437.2 1001.82,-2430.45 990,-2419 909.099,-2340.62 953.29,-2282.97 918,-2176 881.451,-2065.21 832.171,-1935.35 810.719,-1879.65"/>
<polygon fill="none" stroke="black" points="813.913,-1878.2 807.047,-1870.13 807.382,-1880.72 813.913,-1878.2"/>
</g>
<!-- \\BackToHelper -->
<g id="node38" class="node"><title>\\BackToHelper</title>
<polygon fill="none" stroke="black" points="1142,-2410 1044,-2410 1044,-2374 1142,-2374 1142,-2410"/>
<text text-anchor="middle" x="1093" y="-2389.1" font-family="Courier,monospace" font-size="11.00">BackToHelper</text>
</g>
<!-- \\BackToHelper&#45;&gt;\\AppHelper -->
<g id="edge63" class="edge"><title>\\BackToHelper&#45;&gt;\\AppHelper</title>
<path fill="none" stroke="black" d="M1043.84,-2388.71C1025.06,-2385.18 1004.66,-2378.28 990,-2365 985.169,-2360.62 848.712,-1985.98 810.094,-1879.78"/>
<polygon fill="none" stroke="black" points="813.276,-1878.29 806.57,-1870.08 806.697,-1880.68 813.276,-1878.29"/>
</g>
<!-- \\NetCommonsHtmlHelper -->
<g id="node39" class="node"><title>\\NetCommonsHtmlHelper</title>
<polygon fill="none" stroke="black" points="1169,-2356 1017,-2356 1017,-2320 1169,-2320 1169,-2356"/>
<text text-anchor="middle" x="1093" y="-2335.1" font-family="Courier,monospace" font-size="11.00">NetCommonsHtmlHelper</text>
</g>
<!-- \\NetCommonsHtmlHelper&#45;&gt;\\AppHelper -->
<g id="edge65" class="edge"><title>\\NetCommonsHtmlHelper&#45;&gt;\\AppHelper</title>
<path fill="none" stroke="black" d="M1016.91,-2326.77C1007.12,-2322.93 997.801,-2317.81 990,-2311 954.885,-2280.37 843.641,-1974.31 809.837,-1879.71"/>
<polygon fill="none" stroke="black" points="813.114,-1878.48 806.458,-1870.23 806.521,-1880.83 813.114,-1878.48"/>
</g>
<!-- \\ButtonHelper -->
<g id="node40" class="node"><title>\\ButtonHelper</title>
<polygon fill="none" stroke="black" points="1142,-844 1044,-844 1044,-808 1142,-808 1142,-844"/>
<text text-anchor="middle" x="1093" y="-823.1" font-family="Courier,monospace" font-size="11.00">ButtonHelper</text>
</g>
<!-- \\ButtonHelper&#45;&gt;\\FormHelper -->
<g id="edge67" class="edge"><title>\\ButtonHelper&#45;&gt;\\FormHelper</title>
<path fill="none" stroke="black" d="M1043.85,-824.539C1024.38,-821.365 1003.47,-814.238 990,-799 830.252,-618.227 1080.57,-439.24 918,-261 908.162,-250.213 894.974,-243.293 880.979,-238.934"/>
<polygon fill="none" stroke="black" points="881.757,-235.519 871.192,-236.31 879.944,-242.281 881.757,-235.519"/>
</g>
<!-- \\ComposerHelper -->
<g id="node41" class="node"><title>\\ComposerHelper</title>
<polygon fill="none" stroke="black" points="1148,-2302 1038,-2302 1038,-2266 1148,-2266 1148,-2302"/>
<text text-anchor="middle" x="1093" y="-2281.1" font-family="Courier,monospace" font-size="11.00">ComposerHelper</text>
</g>
<!-- \\ComposerHelper&#45;&gt;\\AppHelper -->
<g id="edge69" class="edge"><title>\\ComposerHelper&#45;&gt;\\AppHelper</title>
<path fill="none" stroke="black" d="M1037.24,-2278.54C1020.6,-2274.64 1003.28,-2268.06 990,-2257 866.832,-2154.46 818.776,-1954.09 804.769,-1880.22"/>
<polygon fill="none" stroke="black" points="808.19,-1879.47 802.945,-1870.27 801.305,-1880.73 808.19,-1879.47"/>
</g>
<!-- \\LinkButtonHelper -->
<g id="node42" class="node"><title>\\LinkButtonHelper</title>
<polygon fill="none" stroke="black" points="1155,-790 1031,-790 1031,-754 1155,-754 1155,-790"/>
<text text-anchor="middle" x="1093" y="-769.1" font-family="Courier,monospace" font-size="11.00">LinkButtonHelper</text>
</g>
<!-- \\LinkButtonHelper&#45;&gt;\\FormHelper -->
<g id="edge71" class="edge"><title>\\LinkButtonHelper&#45;&gt;\\FormHelper</title>
<path fill="none" stroke="black" d="M1030.3,-767.541C1015.2,-763.523 1000.43,-756.629 990,-745 844.8,-583.094 1065.73,-420.605 918,-261 908.083,-250.286 894.859,-243.398 880.853,-239.049"/>
<polygon fill="none" stroke="black" points="881.628,-235.634 871.063,-236.429 879.818,-242.396 881.628,-235.634"/>
</g>
<!-- \\NetCommonsTimeHelper -->
<g id="node43" class="node"><title>\\NetCommonsTimeHelper</title>
<polygon fill="none" stroke="black" points="1169,-2248 1017,-2248 1017,-2212 1169,-2212 1169,-2248"/>
<text text-anchor="middle" x="1093" y="-2227.1" font-family="Courier,monospace" font-size="11.00">NetCommonsTimeHelper</text>
</g>
<!-- \\NetCommonsTimeHelper&#45;&gt;\\AppHelper -->
<g id="edge73" class="edge"><title>\\NetCommonsTimeHelper&#45;&gt;\\AppHelper</title>
<path fill="none" stroke="black" d="M1016.75,-2217.71C1007.14,-2214.02 997.925,-2209.22 990,-2203 879.54,-2116.29 824.898,-1946.9 806.922,-1880.07"/>
<polygon fill="none" stroke="black" points="810.271,-1879.04 804.349,-1870.26 803.499,-1880.82 810.271,-1879.04"/>
</g>
<!-- \\NetCommonsFormHelper -->
<g id="node44" class="node"><title>\\NetCommonsFormHelper</title>
<polygon fill="none" stroke="black" points="1169,-2086 1017,-2086 1017,-2050 1169,-2050 1169,-2086"/>
<text text-anchor="middle" x="1093" y="-2065.1" font-family="Courier,monospace" font-size="11.00">NetCommonsFormHelper</text>
</g>
<!-- \\NetCommonsFormHelper&#45;&gt;\\AppHelper -->
<g id="edge75" class="edge"><title>\\NetCommonsFormHelper&#45;&gt;\\AppHelper</title>
<path fill="none" stroke="black" d="M1016.92,-2052.98C1007.55,-2049.72 998.344,-2045.77 990,-2041 915.721,-1998.51 850.104,-1919.52 819.041,-1878.41"/>
<polygon fill="none" stroke="black" points="821.73,-1876.16 812.946,-1870.24 816.119,-1880.35 821.73,-1876.16"/>
</g>
<!-- \\TitleIconHelper -->
<g id="node45" class="node"><title>\\TitleIconHelper</title>
<polygon fill="none" stroke="black" points="1152,-1816 1034,-1816 1034,-1780 1152,-1780 1152,-1816"/>
<text text-anchor="middle" x="1093" y="-1795.1" font-family="Courier,monospace" font-size="11.00">TitleIconHelper</text>
</g>
<!-- \\TitleIconHelper&#45;&gt;\\AppHelper -->
<g id="edge77" class="edge"><title>\\TitleIconHelper&#45;&gt;\\AppHelper</title>
<path fill="none" stroke="black" d="M1033.71,-1808.93C979.266,-1818.96 899.563,-1833.65 848.738,-1843.02"/>
<polygon fill="none" stroke="black" points="847.863,-1839.62 838.663,-1844.87 849.131,-1846.5 847.863,-1839.62"/>
</g>
<!-- \\DatetimePickerHelper -->
<g id="node46" class="node"><title>\\DatetimePickerHelper</title>
<polygon fill="none" stroke="black" points="1169,-1762 1017,-1762 1017,-1726 1169,-1726 1169,-1762"/>
<text text-anchor="middle" x="1093" y="-1741.1" font-family="Courier,monospace" font-size="11.00">DatetimePickerHelper</text>
</g>
<!-- \\DatetimePickerHelper&#45;&gt;\\AppHelper -->
<g id="edge79" class="edge"><title>\\DatetimePickerHelper&#45;&gt;\\AppHelper</title>
<path fill="none" stroke="black" d="M1018.9,-1762.02C1009.12,-1764.81 999.27,-1767.83 990,-1771 940.27,-1788.02 885.199,-1812.1 847.206,-1829.58"/>
<polygon fill="none" stroke="black" points="845.534,-1826.5 837.929,-1833.88 848.474,-1832.85 845.534,-1826.5"/>
</g>
<!-- \\Model -->
<g id="node109" class="node"><title>\\Model</title>
<ellipse fill="none" stroke="black" cx="44" cy="-2797" rx="43.8406" ry="18.3848"/>
<text text-anchor="middle" x="44" y="-2793.4" font-family="Times Roman,serif" font-size="14.00" fill="gray">\Model</text>
</g>
<!-- \\NetCommonsAppModel&#45;&gt;\\Model -->
<g id="edge81" class="edge"><title>\\NetCommonsAppModel&#45;&gt;\\Model</title>
<path fill="none" stroke="black" d="M172.749,-2797C148.379,-2797 121.357,-2797 98.3871,-2797"/>
<polygon fill="none" stroke="black" points="98.1425,-2793.5 88.1425,-2797 98.1424,-2800.5 98.1425,-2793.5"/>
</g>
<!-- \\OriginalKeyBehavior -->
<g id="node48" class="node"><title>\\OriginalKeyBehavior</title>
<polygon fill="none" stroke="black" points="1165,-520 1021,-520 1021,-484 1165,-484 1165,-520"/>
<text text-anchor="middle" x="1093" y="-499.1" font-family="Courier,monospace" font-size="11.00">OriginalKeyBehavior</text>
</g>
<!-- \\ModelBehavior -->
<g id="node111" class="node"><title>\\ModelBehavior</title>
<ellipse fill="none" stroke="black" cx="800" cy="-126" rx="86.9741" ry="18.3848"/>
<text text-anchor="middle" x="800" y="-122.4" font-family="Times Roman,serif" font-size="14.00" fill="gray">\ModelBehavior</text>
</g>
<!-- \\OriginalKeyBehavior&#45;&gt;\\ModelBehavior -->
<g id="edge83" class="edge"><title>\\OriginalKeyBehavior&#45;&gt;\\ModelBehavior</title>
<path fill="none" stroke="black" d="M1020.48,-493.783C1009.09,-489.648 998.341,-483.65 990,-475 888.21,-369.437 1021.44,-256.95 918,-153 910.53,-145.493 901.428,-139.895 891.627,-135.745"/>
<polygon fill="none" stroke="black" points="892.638,-132.388 882.045,-132.196 890.207,-138.952 892.638,-132.388"/>
</g>
<!-- \\TrackableBehavior -->
<g id="node49" class="node"><title>\\TrackableBehavior</title>
<polygon fill="none" stroke="black" points="1158,-628 1028,-628 1028,-592 1158,-592 1158,-628"/>
<text text-anchor="middle" x="1093" y="-607.1" font-family="Courier,monospace" font-size="11.00">TrackableBehavior</text>
</g>
<!-- \\TrackableBehavior&#45;&gt;\\ModelBehavior -->
<g id="edge85" class="edge"><title>\\TrackableBehavior&#45;&gt;\\ModelBehavior</title>
<path fill="none" stroke="black" d="M1027.5,-604.591C1013.43,-600.482 999.849,-593.783 990,-583 859.318,-439.927 1050.91,-294.002 918,-153 910.736,-145.293 901.758,-139.575 892.025,-135.36"/>
<polygon fill="none" stroke="black" points="893.083,-132.019 882.491,-131.764 890.613,-138.568 893.083,-132.019"/>
</g>
<!-- \\YAExceptionRenderer -->
<g id="node50" class="node"><title>\\YAExceptionRenderer</title>
<polygon fill="none" stroke="black" points="1165,-466 1021,-466 1021,-430 1165,-430 1165,-466"/>
<text text-anchor="middle" x="1093" y="-445.1" font-family="Courier,monospace" font-size="11.00">YAExceptionRenderer</text>
</g>
<!-- \\ExceptionRenderer -->
<g id="node114" class="node"><title>\\ExceptionRenderer</title>
<ellipse fill="none" stroke="black" cx="800" cy="-72" rx="118.087" ry="18.3848"/>
<text text-anchor="middle" x="800" y="-68.4" font-family="Times Roman,serif" font-size="14.00" fill="gray">TEHxceptionRenderer</text>
</g>
<!-- \\YAExceptionRenderer&#45;&gt;\\ExceptionRenderer -->
<g id="edge87" class="edge"><title>\\YAExceptionRenderer&#45;&gt;\\ExceptionRenderer</title>
<path fill="none" stroke="black" d="M1020.48,-439.783C1009.09,-435.648 998.341,-429.65 990,-421 888.21,-315.437 1021.44,-202.95 918,-99 913.632,-94.61 908.706,-90.873 903.408,-87.6967"/>
<polygon fill="none" stroke="black" points="904.657,-84.4002 894.174,-82.8643 901.411,-90.6022 904.657,-84.4002"/>
</g>
<!-- \\NetCommonsMigration -->
<g id="node51" class="node"><title>\\NetCommonsMigration</title>
<polygon fill="none" stroke="black" points="872,-1220 728,-1220 728,-1184 872,-1184 872,-1220"/>
<text text-anchor="middle" x="800" y="-1199.1" font-family="Courier,monospace" font-size="11.00">NetCommonsMigration</text>
</g>
<!-- \\CakeMigration -->
<g id="node116" class="node"><title>\\CakeMigration</title>
<ellipse fill="none" stroke="black" cx="503" cy="-180" rx="84.8528" ry="18.3848"/>
<text text-anchor="middle" x="503" y="-176.4" font-family="Times Roman,serif" font-size="14.00" fill="gray">\CakeMigration</text>
</g>
<!-- \\NetCommonsMigration&#45;&gt;\\CakeMigration -->
<g id="edge89" class="edge"><title>\\NetCommonsMigration&#45;&gt;\\CakeMigration</title>
<path fill="none" stroke="black" d="M727.281,-1203.15C710.195,-1199.81 693.606,-1192.96 682,-1180 537.387,-1018.46 749.466,-373.004 610,-207 604.628,-200.605 597.982,-195.606 590.653,-191.711"/>
<polygon fill="none" stroke="black" points="591.6,-188.297 581.048,-187.347 588.705,-194.67 591.6,-188.297"/>
</g>
<!-- \\DataTypeFormComponent -->
<g id="node52" class="node"><title>\\DataTypeFormComponent</title>
<polygon fill="none" stroke="black" points="1172,-1114 1014,-1114 1014,-1078 1172,-1078 1172,-1114"/>
<text text-anchor="middle" x="1093" y="-1093.1" font-family="Courier,monospace" font-size="11.00">DataTypeFormComponent</text>
</g>
<!-- \\DataTypeFormComponent&#45;&gt;\\Component -->
<g id="edge91" class="edge"><title>\\DataTypeFormComponent&#45;&gt;\\Component</title>
<path fill="none" stroke="black" d="M1013.9,-1086.3C1004.79,-1082.2 996.468,-1076.6 990,-1069 880.948,-940.787 1029.05,-441.484 918,-315 908.311,-303.965 895.121,-296.943 881.061,-292.564"/>
<polygon fill="none" stroke="black" points="881.786,-289.135 871.222,-289.939 879.981,-295.899 881.786,-289.135"/>
</g>
<!-- \\DataTypeFormHelper -->
<g id="node53" class="node"><title>\\DataTypeFormHelper</title>
<polygon fill="none" stroke="black" points="1162,-1708 1024,-1708 1024,-1672 1162,-1672 1162,-1708"/>
<text text-anchor="middle" x="1093" y="-1687.1" font-family="Courier,monospace" font-size="11.00">DataTypeFormHelper</text>
</g>
<!-- \\DataTypeFormHelper&#45;&gt;\\AppHelper -->
<g id="edge93" class="edge"><title>\\DataTypeFormHelper&#45;&gt;\\AppHelper</title>
<path fill="none" stroke="black" d="M1023.91,-1704.41C1012.33,-1707.87 1000.64,-1712.03 990,-1717 927.211,-1746.33 863.394,-1796.84 828.029,-1827.06"/>
<polygon fill="none" stroke="black" points="825.369,-1824.74 820.087,-1833.92 829.944,-1830.03 825.369,-1824.74"/>
</g>
<!-- \\TimezoneBehavior -->
<g id="node54" class="node"><title>\\TimezoneBehavior</title>
<polygon fill="none" stroke="black" points="1155,-574 1031,-574 1031,-538 1155,-538 1155,-574"/>
<text text-anchor="middle" x="1093" y="-553.1" font-family="Courier,monospace" font-size="11.00">TimezoneBehavior</text>
</g>
<!-- \\TimezoneBehavior&#45;&gt;\\ModelBehavior -->
<g id="edge95" class="edge"><title>\\TimezoneBehavior&#45;&gt;\\ModelBehavior</title>
<path fill="none" stroke="black" d="M1030.35,-551.174C1015.34,-547.149 1000.61,-540.343 990,-529 873.795,-404.716 1036.14,-275.443 918,-153 910.646,-145.379 901.615,-139.712 891.852,-135.525"/>
<polygon fill="none" stroke="black" points="892.89,-132.176 882.298,-131.949 890.436,-138.732 892.89,-132.176"/>
</g>
<!-- \\DataTypesAppModel -->
<g id="node55" class="node"><title>\\DataTypesAppModel</title>
<polygon fill="none" stroke="black" points="865,-2788 735,-2788 735,-2752 865,-2752 865,-2788"/>
<text text-anchor="middle" x="800" y="-2767.1" font-family="Courier,monospace" font-size="11.00">DataTypesAppModel</text>
</g>
<!-- \\DataTypesAppModel&#45;&gt;\\AppModel -->
<g id="edge97" class="edge"><title>\\DataTypesAppModel&#45;&gt;\\AppModel</title>
<path fill="none" stroke="black" d="M734.454,-2775.96C678.157,-2781.08 598.44,-2788.32 548.776,-2792.84"/>
<polygon fill="none" stroke="black" points="548.296,-2789.37 538.654,-2793.76 548.93,-2796.34 548.296,-2789.37"/>
</g>
<!-- \\DataType -->
<g id="node56" class="node"><title>\\DataType</title>
<polygon fill="none" stroke="black" points="1128,-2842 1058,-2842 1058,-2806 1128,-2806 1128,-2842"/>
<text text-anchor="middle" x="1093" y="-2821.1" font-family="Courier,monospace" font-size="11.00">DataType</text>
</g>
<!-- \\DataType&#45;&gt;\\DataTypesAppModel -->
<g id="edge99" class="edge"><title>\\DataType&#45;&gt;\\DataTypesAppModel</title>
<path fill="none" stroke="black" d="M1057.37,-2817.43C1012.46,-2809.16 934.075,-2794.71 875.578,-2783.93"/>
<polygon fill="none" stroke="black" points="876.104,-2780.47 865.636,-2782.1 874.836,-2787.35 876.104,-2780.47"/>
</g>
<!-- \\DataTypeChoice -->
<g id="node57" class="node"><title>\\DataTypeChoice</title>
<polygon fill="none" stroke="black" points="1148,-2788 1038,-2788 1038,-2752 1148,-2752 1148,-2788"/>
<text text-anchor="middle" x="1093" y="-2767.1" font-family="Courier,monospace" font-size="11.00">DataTypeChoice</text>
</g>
<!-- \\DataTypeChoice&#45;&gt;\\DataTypesAppModel -->
<g id="edge101" class="edge"><title>\\DataTypeChoice&#45;&gt;\\DataTypesAppModel</title>
<path fill="none" stroke="black" d="M1037.2,-2770C991.453,-2770 926.254,-2770 875.785,-2770"/>
<polygon fill="none" stroke="black" points="875.575,-2766.5 865.575,-2770 875.575,-2773.5 875.575,-2766.5"/>
</g>
<!-- \\DataTypesSchema -->
<g id="node58" class="node"><title>\\DataTypesSchema</title>
<polygon fill="none" stroke="black" points="1152,-412 1034,-412 1034,-376 1152,-376 1152,-412"/>
<text text-anchor="middle" x="1093" y="-391.1" font-family="Courier,monospace" font-size="11.00">DataTypesSchema</text>
</g>
<!-- \\CakeSchema -->
<g id="node124" class="node"><title>\\CakeSchema</title>
<ellipse fill="none" stroke="black" cx="800" cy="-18" rx="77.0746" ry="18.3848"/>
<text text-anchor="middle" x="800" y="-14.4" font-family="Times Roman,serif" font-size="14.00" fill="gray">\CakeSchema</text>
</g>
<!-- \\DataTypesSchema&#45;&gt;\\CakeSchema -->
<g id="edge103" class="edge"><title>\\DataTypesSchema&#45;&gt;\\CakeSchema</title>
<path fill="none" stroke="black" d="M1089.54,-375.725C1077.51,-317.407 1031.83,-134.35 918,-45 907.593,-36.8314 895.169,-31.0476 882.349,-26.9696"/>
<polygon fill="none" stroke="black" points="883.07,-23.5363 872.495,-24.1724 881.159,-30.2702 883.07,-23.5363"/>
</g>
<!-- \\Records -->
<g id="node59" class="node"><title>\\Records</title>
<polygon fill="none" stroke="black" points="1125,-1330 1061,-1330 1061,-1294 1125,-1294 1125,-1330"/>
<text text-anchor="middle" x="1093" y="-1309.1" font-family="Courier,monospace" font-size="11.00">Records</text>
</g>
<!-- \\Records&#45;&gt;\\NetCommonsMigration -->
<g id="edge105" class="edge"><title>\\Records&#45;&gt;\\NetCommonsMigration</title>
<path fill="none" stroke="black" d="M1060.6,-1304.87C1040.12,-1300.04 1013.23,-1293.06 990,-1285 939.685,-1267.53 884.061,-1242.53 846.074,-1224.54"/>
<polygon fill="none" stroke="black" points="847.343,-1221.27 836.81,-1220.12 844.331,-1227.59 847.343,-1221.27"/>
</g>
<!-- \\Init -->
<g id="node60" class="node"><title>\\Init</title>
<polygon fill="none" stroke="black" points="1120,-1222 1066,-1222 1066,-1186 1120,-1186 1120,-1222"/>
<text text-anchor="middle" x="1093" y="-1201.1" font-family="Courier,monospace" font-size="11.00">Init</text>
</g>
<!-- \\Init&#45;&gt;\\CakeMigration -->
<g id="edge107" class="edge"><title>\\Init&#45;&gt;\\CakeMigration</title>
<path fill="none" stroke="black" d="M1065.8,-1204.42C1042.37,-1203.23 1009.36,-1197.62 990,-1177 876.203,-1055.84 973.831,-966.563 918,-810 843.332,-600.614 779.652,-568.704 682,-369 647.389,-298.218 670.269,-257.751 610,-207 602.951,-201.064 594.773,-196.406 586.139,-192.754"/>
<polygon fill="none" stroke="black" points="587.216,-189.42 576.624,-189.174 584.751,-195.971 587.216,-189.42"/>
</g>
</g>
</svg>
