<?xml version="1.0" encoding="UTF-8" standalone="no"?>
<!DOCTYPE svg PUBLIC "-//W3C//DTD SVG 1.1//EN"
 "http://www.w3.org/Graphics/SVG/1.1/DTD/svg11.dtd">
<!-- Generated by graphviz version 2.26.3 (20100126.1600)
 -->
<!-- Title: G Pages: 1 -->
<svg width="1220pt" height="3050pt"
 viewBox="0.00 0.00 1220.00 3050.00" xmlns="http://www.w3.org/2000/svg" xmlns:xlink="http://www.w3.org/1999/xlink">
<g id="graph1" class="graph" transform="scale(1 1) rotate(0) translate(4 3046)">
<title>G</title>
<polygon fill="white" stroke="white" points="-4,5 -4,-3046 1217,-3046 1217,5 -4,5"/>
<g id="graph2" class="cluster"><title>cluster_Global</title>
<polyline fill="none" stroke="gray" points="177,-368 1192,-368 "/>
<path fill="none" stroke="gray" d="M1192,-368C1198,-368 1204,-374 1204,-380"/>
<polyline fill="none" stroke="gray" points="1204,-380 1204,-3022 "/>
<path fill="none" stroke="gray" d="M1204,-3022C1204,-3028 1198,-3034 1192,-3034"/>
<polyline fill="none" stroke="gray" points="1192,-3034 177,-3034 "/>
<path fill="none" stroke="gray" d="M177,-3034C171,-3034 165,-3028 165,-3022"/>
<polyline fill="none" stroke="gray" points="165,-3022 165,-380 "/>
<path fill="none" stroke="gray" d="M165,-380C165,-374 171,-368 177,-368"/>
<text text-anchor="middle" x="684.5" y="-3020.1" font-family="Times Roman,serif" font-size="11.00" fill="gray">Global</text>
</g>
<!-- \\AppController -->
<g id="node2" class="node"><title>\\AppController</title>
<polygon fill="none" stroke="black" points="1145,-1330 1041,-1330 1041,-1294 1145,-1294 1145,-1330"/>
<text text-anchor="middle" x="1093" y="-1309.1" font-family="Courier,monospace" font-size="11.00">AppController</text>
</g>
<!-- \\Controller -->
<g id="node65" class="node"><title>\\Controller</title>
<ellipse fill="none" stroke="black" cx="503" cy="-234" rx="63.1385" ry="18.3848"/>
<text text-anchor="middle" x="503" y="-230.4" font-family="Times Roman,serif" font-size="14.00" fill="gray">\Controller</text>
</g>
<!-- \\AppController&#45;&gt;\\Controller -->
<g id="edge3" class="edge"><title>\\AppController&#45;&gt;\\Controller</title>
<path fill="none" stroke="black" d="M1040.93,-1305.8C1023.58,-1301.88 1004.9,-1295.47 990,-1285 891.144,-1215.55 724.935,-949.927 682,-837 636.157,-716.425 695.444,-357.64 610,-261 600.912,-250.721 588.534,-244.08 575.419,-239.846"/>
<polygon fill="none" stroke="black" points="576.347,-236.471 565.776,-237.171 574.476,-243.216 576.347,-236.471"/>
</g>
<!-- \\AppModel -->
<g id="node3" class="node"><title>\\AppModel</title>
<polygon fill="none" stroke="black" points="538,-2977 468,-2977 468,-2941 538,-2941 538,-2977"/>
<text text-anchor="middle" x="503" y="-2956.1" font-family="Courier,monospace" font-size="11.00">AppModel</text>
</g>
<!-- \\NetCommonsAppModel -->
<g id="node50" class="node"><title>\\NetCommonsAppModel</title>
<polygon fill="none" stroke="black" points="311,-2977 173,-2977 173,-2941 311,-2941 311,-2977"/>
<text text-anchor="middle" x="242" y="-2956.1" font-family="Courier,monospace" font-size="11.00">NetCommonsAppModel</text>
</g>
<!-- \\AppModel&#45;&gt;\\NetCommonsAppModel -->
<g id="edge5" class="edge"><title>\\AppModel&#45;&gt;\\NetCommonsAppModel</title>
<path fill="none" stroke="black" d="M467.256,-2959C429.848,-2959 369.903,-2959 321.254,-2959"/>
<polygon fill="none" stroke="black" points="321.056,-2955.5 311.056,-2959 321.056,-2962.5 321.056,-2955.5"/>
</g>
<!-- \\DatabaseConfiguration -->
<g id="node4" class="node"><title>\\DatabaseConfiguration</title>
<polygon fill="none" stroke="black" points="879,-3004 721,-3004 721,-2968 879,-2968 879,-3004"/>
<text text-anchor="middle" x="800" y="-2983.1" font-family="Courier,monospace" font-size="11.00">DatabaseConfiguration</text>
</g>
<!-- \\DatabaseConfiguration&#45;&gt;\\AppModel -->
<g id="edge7" class="edge"><title>\\DatabaseConfiguration&#45;&gt;\\AppModel</title>
<path fill="none" stroke="black" d="M720.8,-2978.8C665.959,-2973.81 594.863,-2967.35 549.084,-2963.19"/>
<polygon fill="none" stroke="black" points="549.143,-2959.68 538.867,-2962.26 548.509,-2966.65 549.143,-2959.68"/>
</g>
<!-- \\AppHelper -->
<g id="node5" class="node"><title>\\AppHelper</title>
<polygon fill="none" stroke="black" points="838,-2221 762,-2221 762,-2185 838,-2185 838,-2221"/>
<text text-anchor="middle" x="800" y="-2200.1" font-family="Courier,monospace" font-size="11.00">AppHelper</text>
</g>
<!-- \\Helper -->
<g id="node69" class="node"><title>\\Helper</title>
<ellipse fill="none" stroke="black" cx="503" cy="-342" rx="43.8406" ry="18.3848"/>
<text text-anchor="middle" x="503" y="-338.4" font-family="Times Roman,serif" font-size="14.00" fill="gray">Helper</text>
</g>
<!-- \\AppHelper&#45;&gt;\\Helper -->
<g id="edge9" class="edge"><title>\\AppHelper&#45;&gt;\\Helper</title>
<path fill="none" stroke="black" d="M795.393,-2184.68C777.382,-2112.22 711.282,-1838.45 682,-1609 664.459,-1471.55 700.624,-468.82 610,-364 596.903,-348.851 576.405,-342.456 556.841,-340.171"/>
<polygon fill="none" stroke="black" points="556.996,-336.672 546.739,-339.326 556.413,-343.648 556.996,-336.672"/>
</g>
<!-- \\NetCommonsDeleteTest -->
<g id="node6" class="node"><title>\\NetCommonsDeleteTest</title>
<polygon fill="none" stroke="black" points="1169,-2842 1017,-2842 1017,-2806 1169,-2806 1169,-2842"/>
<text text-anchor="middle" x="1093" y="-2821.1" font-family="Courier,monospace" font-size="11.00">NetCommonsDeleteTest</text>
</g>
<!-- \\NetCommonsModelTestCase -->
<g id="node15" class="node"><title>\\NetCommonsModelTestCase</title>
<polygon fill="none" stroke="black" points="886,-2788 714,-2788 714,-2752 886,-2752 886,-2788"/>
<text text-anchor="middle" x="800" y="-2767.1" font-family="Courier,monospace" font-size="11.00">NetCommonsModelTestCase</text>
</g>
<!-- \\NetCommonsDeleteTest&#45;&gt;\\NetCommonsModelTestCase -->
<g id="edge11" class="edge"><title>\\NetCommonsDeleteTest&#45;&gt;\\NetCommonsModelTestCase</title>
<path fill="none" stroke="black" d="M1016.78,-2809.95C979.893,-2803.15 935.211,-2794.92 896.02,-2787.7"/>
<polygon fill="none" stroke="black" points="896.652,-2784.25 886.183,-2785.88 895.383,-2791.14 896.652,-2784.25"/>
</g>
<!-- \\NetCommonsConsoleTestCase -->
<g id="node7" class="node"><title>\\NetCommonsConsoleTestCase</title>
<polygon fill="none" stroke="black" points="892,-2491 708,-2491 708,-2455 892,-2455 892,-2491"/>
<text text-anchor="middle" x="800" y="-2470.1" font-family="Courier,monospace" font-size="11.00">NetCommonsConsoleTestCase</text>
</g>
<!-- \\NetCommonsCakeTestCase -->
<g id="node13" class="node"><title>\\NetCommonsCakeTestCase</title>
<polygon fill="none" stroke="black" points="585,-2464 421,-2464 421,-2428 585,-2428 585,-2464"/>
<text text-anchor="middle" x="503" y="-2443.1" font-family="Courier,monospace" font-size="11.00">NetCommonsCakeTestCase</text>
</g>
<!-- \\NetCommonsConsoleTestCase&#45;&gt;\\NetCommonsCakeTestCase -->
<g id="edge13" class="edge"><title>\\NetCommonsConsoleTestCase&#45;&gt;\\NetCommonsCakeTestCase</title>
<path fill="none" stroke="black" d="M707.249,-2464.57C671.93,-2461.36 631.688,-2457.7 596.316,-2454.48"/>
<polygon fill="none" stroke="black" points="596.269,-2450.96 585.993,-2453.54 595.635,-2457.94 596.269,-2450.96"/>
</g>
<!-- \\NetCommonsGetTest -->
<g id="node8" class="node"><title>\\NetCommonsGetTest</title>
<polygon fill="none" stroke="black" points="1158,-2788 1028,-2788 1028,-2752 1158,-2752 1158,-2788"/>
<text text-anchor="middle" x="1093" y="-2767.1" font-family="Courier,monospace" font-size="11.00">NetCommonsGetTest</text>
</g>
<!-- \\NetCommonsGetTest&#45;&gt;\\NetCommonsModelTestCase -->
<g id="edge15" class="edge"><title>\\NetCommonsGetTest&#45;&gt;\\NetCommonsModelTestCase</title>
<path fill="none" stroke="black" d="M1027.25,-2770C988.664,-2770 939.217,-2770 896.305,-2770"/>
<polygon fill="none" stroke="black" points="896.12,-2766.5 886.12,-2770 896.12,-2773.5 896.12,-2766.5"/>
</g>
<!-- \\NetCommonsHelperTestCase -->
<g id="node9" class="node"><title>\\NetCommonsHelperTestCase</title>
<polygon fill="none" stroke="black" points="889,-2437 711,-2437 711,-2401 889,-2401 889,-2437"/>
<text text-anchor="middle" x="800" y="-2416.1" font-family="Courier,monospace" font-size="11.00">NetCommonsHelperTestCase</text>
</g>
<!-- \\NetCommonsHelperTestCase&#45;&gt;\\NetCommonsCakeTestCase -->
<g id="edge17" class="edge"><title>\\NetCommonsHelperTestCase&#45;&gt;\\NetCommonsCakeTestCase</title>
<path fill="none" stroke="black" d="M710.487,-2427.14C674.267,-2430.43 632.456,-2434.23 595.9,-2437.55"/>
<polygon fill="none" stroke="black" points="595.379,-2434.09 585.737,-2438.48 596.013,-2441.06 595.379,-2434.09"/>
</g>
<!-- \\NetCommonsControllerBaseTestCase -->
<g id="node10" class="node"><title>\\NetCommonsControllerBaseTestCase</title>
<polygon fill="none" stroke="black" points="916,-1519 684,-1519 684,-1483 916,-1483 916,-1519"/>
<text text-anchor="middle" x="800" y="-1498.1" font-family="Courier,monospace" font-size="11.00">NetCommonsControllerBaseTestCase</text>
</g>
<!-- \\ControllerTestCase -->
<g id="node75" class="node"><title>\\ControllerTestCase</title>
<ellipse fill="none" stroke="black" cx="503" cy="-288" rx="106.773" ry="18.3848"/>
<text text-anchor="middle" x="503" y="-284.4" font-family="Times Roman,serif" font-size="14.00" fill="gray">\ControllerTestCase</text>
</g>
<!-- \\NetCommonsControllerBaseTestCase&#45;&gt;\\ControllerTestCase -->
<g id="edge19" class="edge"><title>\\NetCommonsControllerBaseTestCase&#45;&gt;\\ControllerTestCase</title>
<path fill="none" stroke="black" d="M729.07,-1483C710.89,-1474.95 693.3,-1463.43 682,-1447 539.14,-1239.33 771.141,-508.829 610,-315 606.402,-310.672 602.221,-306.982 597.638,-303.841"/>
<polygon fill="none" stroke="black" points="599.388,-300.81 588.994,-298.759 595.841,-306.844 599.388,-300.81"/>
</g>
<!-- \\NetCommonsValidateTest -->
<g id="node11" class="node"><title>\\NetCommonsValidateTest</title>
<polygon fill="none" stroke="black" points="1175,-2734 1011,-2734 1011,-2698 1175,-2698 1175,-2734"/>
<text text-anchor="middle" x="1093" y="-2713.1" font-family="Courier,monospace" font-size="11.00">NetCommonsValidateTest</text>
</g>
<!-- \\NetCommonsValidateTest&#45;&gt;\\NetCommonsModelTestCase -->
<g id="edge21" class="edge"><title>\\NetCommonsValidateTest&#45;&gt;\\NetCommonsModelTestCase</title>
<path fill="none" stroke="black" d="M1010.21,-2731.26C974.791,-2737.79 933.196,-2745.45 896.397,-2752.23"/>
<polygon fill="none" stroke="black" points="895.354,-2748.87 886.154,-2754.12 896.623,-2755.75 895.354,-2748.87"/>
</g>
<!-- \\NetCommonsTestSuite -->
<g id="node12" class="node"><title>\\NetCommonsTestSuite</title>
<polygon fill="none" stroke="black" points="1165,-1222 1021,-1222 1021,-1186 1165,-1186 1165,-1222"/>
<text text-anchor="middle" x="1093" y="-1201.1" font-family="Courier,monospace" font-size="11.00">NetCommonsTestSuite</text>
</g>
<!-- \\CakeTestSuite -->
<g id="node78" class="node"><title>\\CakeTestSuite</title>
<ellipse fill="none" stroke="black" cx="800" cy="-342" rx="84.1457" ry="18.3848"/>
<text text-anchor="middle" x="800" y="-338.4" font-family="Times Roman,serif" font-size="14.00" fill="gray">\CakeTestSuite</text>
</g>
<!-- \\NetCommonsTestSuite&#45;&gt;\\CakeTestSuite -->
<g id="edge23" class="edge"><title>\\NetCommonsTestSuite&#45;&gt;\\CakeTestSuite</title>
<path fill="none" stroke="black" d="M1020.28,-1196.96C1008.69,-1192.73 997.933,-1186.39 990,-1177 872.965,-1038.44 1039.95,-498.256 918,-364 911.169,-356.48 902.661,-351.026 893.362,-347.125"/>
<polygon fill="none" stroke="black" points="894.427,-343.788 883.832,-343.721 892.072,-350.381 894.427,-343.788"/>
</g>
<!-- \\CakeTestCase -->
<g id="node80" class="node"><title>\\CakeTestCase</title>
<ellipse fill="none" stroke="black" cx="242" cy="-342" rx="82.0244" ry="18.3848"/>
<text text-anchor="middle" x="242" y="-338.4" font-family="Times Roman,serif" font-size="14.00" fill="gray">\CakeTestCase</text>
</g>
<!-- \\NetCommonsCakeTestCase&#45;&gt;\\CakeTestCase -->
<g id="edge25" class="edge"><title>\\NetCommonsCakeTestCase&#45;&gt;\\CakeTestCase</title>
<path fill="none" stroke="black" d="M420.357,-2441.03C411.032,-2437.22 402.548,-2431.75 396,-2424 248.197,-2249.05 466.548,-543.26 324,-364 322.314,-361.88 320.448,-359.951 318.436,-358.197"/>
<polygon fill="none" stroke="black" points="320.213,-355.167 310.025,-352.26 316.177,-360.886 320.213,-355.167"/>
</g>
<!-- \\NetCommonsSaveTest -->
<g id="node14" class="node"><title>\\NetCommonsSaveTest</title>
<polygon fill="none" stroke="black" points="1162,-2896 1024,-2896 1024,-2860 1162,-2860 1162,-2896"/>
<text text-anchor="middle" x="1093" y="-2875.1" font-family="Courier,monospace" font-size="11.00">NetCommonsSaveTest</text>
</g>
<!-- \\NetCommonsSaveTest&#45;&gt;\\NetCommonsModelTestCase -->
<g id="edge27" class="edge"><title>\\NetCommonsSaveTest&#45;&gt;\\NetCommonsModelTestCase</title>
<path fill="none" stroke="black" d="M1023.88,-2861.38C1012.48,-2858.21 1000.84,-2854.71 990,-2851 940.27,-2833.98 885.199,-2809.9 847.206,-2792.42"/>
<polygon fill="none" stroke="black" points="848.474,-2789.15 837.929,-2788.12 845.534,-2795.5 848.474,-2789.15"/>
</g>
<!-- \\NetCommonsModelTestCase&#45;&gt;\\NetCommonsCakeTestCase -->
<g id="edge29" class="edge"><title>\\NetCommonsModelTestCase&#45;&gt;\\NetCommonsCakeTestCase</title>
<path fill="none" stroke="black" d="M783.181,-2751.65C733.05,-2696.96 584.541,-2534.95 526.562,-2471.7"/>
<polygon fill="none" stroke="black" points="528.972,-2469.15 519.635,-2464.15 523.812,-2473.88 528.972,-2469.15"/>
</g>
<!-- \\NetCommonsControllerTestCase -->
<g id="node16" class="node"><title>\\NetCommonsControllerTestCase</title>
<polygon fill="none" stroke="black" points="1196,-1546 990,-1546 990,-1510 1196,-1510 1196,-1546"/>
<text text-anchor="middle" x="1093" y="-1525.1" font-family="Courier,monospace" font-size="11.00">NetCommonsControllerTestCase</text>
</g>
<!-- \\NetCommonsControllerTestCase&#45;&gt;\\NetCommonsControllerBaseTestCase -->
<g id="edge31" class="edge"><title>\\NetCommonsControllerTestCase&#45;&gt;\\NetCommonsControllerBaseTestCase</title>
<path fill="none" stroke="black" d="M989.699,-1518.48C969.289,-1516.6 947.65,-1514.61 926.571,-1512.66"/>
<polygon fill="none" stroke="black" points="926.885,-1509.18 916.606,-1511.75 926.243,-1516.15 926.885,-1509.18"/>
</g>
<!-- \\NetCommonsAppController -->
<g id="node17" class="node"><title>\\NetCommonsAppController</title>
<polygon fill="none" stroke="black" points="886,-1438 714,-1438 714,-1402 886,-1402 886,-1438"/>
<text text-anchor="middle" x="800" y="-1417.1" font-family="Courier,monospace" font-size="11.00">NetCommonsAppController</text>
</g>
<!-- \\NetCommonsAppController&#45;&gt;\\Controller -->
<g id="edge33" class="edge"><title>\\NetCommonsAppController&#45;&gt;\\Controller</title>
<path fill="none" stroke="black" d="M778.316,-1401.82C750.374,-1376.92 702.91,-1329.3 682,-1277 597.976,-1066.83 755.327,-434.527 610,-261 601.141,-250.422 588.798,-243.658 575.632,-239.401"/>
<polygon fill="none" stroke="black" points="576.509,-236.012 565.939,-236.725 574.647,-242.76 576.509,-236.012"/>
</g>
<!-- \\AssetComponent -->
<g id="node18" class="node"><title>\\AssetComponent</title>
<polygon fill="none" stroke="black" points="1148,-1006 1038,-1006 1038,-970 1148,-970 1148,-1006"/>
<text text-anchor="middle" x="1093" y="-985.1" font-family="Courier,monospace" font-size="11.00">AssetComponent</text>
</g>
<!-- \\Component -->
<g id="node86" class="node"><title>\\Component</title>
<ellipse fill="none" stroke="black" cx="800" cy="-288" rx="70.9184" ry="18.3848"/>
<text text-anchor="middle" x="800" y="-284.4" font-family="Times Roman,serif" font-size="14.00" fill="gray">\Component</text>
</g>
<!-- \\AssetComponent&#45;&gt;\\Component -->
<g id="edge35" class="edge"><title>\\AssetComponent&#45;&gt;\\Component</title>
<path fill="none" stroke="black" d="M1037.26,-985.504C1019.72,-981.876 1001.85,-974.707 990,-961 801.099,-742.429 1110.31,-530.576 918,-315 908.225,-304.042 894.994,-297.054 880.924,-292.686"/>
<polygon fill="none" stroke="black" points="881.644,-289.256 871.08,-290.064 879.842,-296.02 881.644,-289.256"/>
</g>
<!-- \\AccessCtrlComponent -->
<g id="node19" class="node"><title>\\AccessCtrlComponent</title>
<polygon fill="none" stroke="black" points="1165,-952 1021,-952 1021,-916 1165,-916 1165,-952"/>
<text text-anchor="middle" x="1093" y="-931.1" font-family="Courier,monospace" font-size="11.00">AccessCtrlComponent</text>
</g>
<!-- \\AccessCtrlComponent&#45;&gt;\\Component -->
<g id="edge37" class="edge"><title>\\AccessCtrlComponent&#45;&gt;\\Component</title>
<path fill="none" stroke="black" d="M1020.27,-926.647C1008.76,-922.437 998.024,-916.191 990,-907 815.683,-707.337 1095.43,-511.899 918,-315 908.227,-304.155 895.069,-297.207 881.082,-292.841"/>
<polygon fill="none" stroke="black" points="881.864,-289.426 871.298,-290.214 880.049,-296.187 881.864,-289.426"/>
</g>
<!-- \\NetCommonsTimeComponent -->
<g id="node20" class="node"><title>\\NetCommonsTimeComponent</title>
<polygon fill="none" stroke="black" points="1179,-898 1007,-898 1007,-862 1179,-862 1179,-898"/>
<text text-anchor="middle" x="1093" y="-877.1" font-family="Courier,monospace" font-size="11.00">NetCommonsTimeComponent</text>
</g>
<!-- \\NetCommonsTimeComponent&#45;&gt;\\Component -->
<g id="edge39" class="edge"><title>\\NetCommonsTimeComponent&#45;&gt;\\Component</title>
<path fill="none" stroke="black" d="M1006.73,-866.334C1000.48,-862.785 994.774,-858.402 990,-853 830.252,-672.227 1080.57,-493.24 918,-315 908.162,-304.213 894.974,-297.293 880.979,-292.934"/>
<polygon fill="none" stroke="black" points="881.757,-289.519 871.192,-290.31 879.944,-296.281 881.757,-289.519"/>
</g>
<!-- \\PermissionComponent -->
<g id="node21" class="node"><title>\\PermissionComponent</title>
<polygon fill="none" stroke="black" points="1165,-1168 1021,-1168 1021,-1132 1165,-1132 1165,-1168"/>
<text text-anchor="middle" x="1093" y="-1147.1" font-family="Courier,monospace" font-size="11.00">PermissionComponent</text>
</g>
<!-- \\PermissionComponent&#45;&gt;\\Component -->
<g id="edge41" class="edge"><title>\\PermissionComponent&#45;&gt;\\Component</title>
<path fill="none" stroke="black" d="M1020.28,-1142.95C1008.7,-1138.72 997.935,-1132.39 990,-1123 873.641,-985.316 1036.51,-450.839 918,-315 908.346,-303.935 895.171,-296.898 881.117,-292.516"/>
<polygon fill="none" stroke="black" points="881.843,-289.087 871.278,-289.889 880.037,-295.85 881.843,-289.087"/>
</g>
<!-- \\NetCommonsComponent -->
<g id="node22" class="node"><title>\\NetCommonsComponent</title>
<polygon fill="none" stroke="black" points="1165,-1114 1021,-1114 1021,-1078 1165,-1078 1165,-1114"/>
<text text-anchor="middle" x="1093" y="-1093.1" font-family="Courier,monospace" font-size="11.00">NetCommonsComponent</text>
</g>
<!-- \\NetCommonsComponent&#45;&gt;\\Component -->
<g id="edge43" class="edge"><title>\\NetCommonsComponent&#45;&gt;\\Component</title>
<path fill="none" stroke="black" d="M1020.33,-1088.91C1008.74,-1084.69 997.965,-1078.36 990,-1069 880.948,-940.787 1029.05,-441.484 918,-315 908.311,-303.965 895.121,-296.943 881.061,-292.564"/>
<polygon fill="none" stroke="black" points="881.786,-289.135 871.222,-289.939 879.981,-295.899 881.786,-289.135"/>
</g>
<!-- \\SiteCloseController -->
<g id="node23" class="node"><title>\\SiteCloseController</title>
<polygon fill="none" stroke="black" points="1165,-1438 1021,-1438 1021,-1402 1165,-1402 1165,-1438"/>
<text text-anchor="middle" x="1093" y="-1417.1" font-family="Courier,monospace" font-size="11.00">SiteCloseController</text>
</g>
<!-- \\SiteCloseController&#45;&gt;\\NetCommonsAppController -->
<g id="edge45" class="edge"><title>\\SiteCloseController&#45;&gt;\\NetCommonsAppController</title>
<path fill="none" stroke="black" d="M1020.2,-1420C982.776,-1420 936.682,-1420 896.354,-1420"/>
<polygon fill="none" stroke="black" points="896.233,-1416.5 886.233,-1420 896.233,-1423.5 896.233,-1416.5"/>
</g>
<!-- \\NetCommonsController -->
<g id="node24" class="node"><title>\\NetCommonsController</title>
<polygon fill="none" stroke="black" points="1169,-1492 1017,-1492 1017,-1456 1169,-1456 1169,-1492"/>
<text text-anchor="middle" x="1093" y="-1471.1" font-family="Courier,monospace" font-size="11.00">NetCommonsController</text>
</g>
<!-- \\NetCommonsController&#45;&gt;\\NetCommonsAppController -->
<g id="edge47" class="edge"><title>\\NetCommonsController&#45;&gt;\\NetCommonsAppController</title>
<path fill="none" stroke="black" d="M1016.78,-1459.95C979.893,-1453.15 935.211,-1444.92 896.02,-1437.7"/>
<polygon fill="none" stroke="black" points="896.652,-1434.25 886.183,-1435.88 895.383,-1441.14 896.652,-1434.25"/>
</g>
<!-- \\NetCommonsUrl -->
<g id="node25" class="node"><title>\\NetCommonsUrl</title>
<polygon fill="none" stroke="black" points="1145,-2248 1041,-2248 1041,-2212 1145,-2212 1145,-2248"/>
<text text-anchor="middle" x="1093" y="-2227.1" font-family="Courier,monospace" font-size="11.00">NetCommonsUrl</text>
</g>
<!-- \\NetCommonsTime -->
<g id="node26" class="node"><title>\\NetCommonsTime</title>
<polygon fill="none" stroke="black" points="1148,-2194 1038,-2194 1038,-2158 1148,-2158 1148,-2194"/>
<text text-anchor="middle" x="1093" y="-2173.1" font-family="Courier,monospace" font-size="11.00">NetCommonsTime</text>
</g>
<!-- \\CurrentBase -->
<g id="node27" class="node"><title>\\CurrentBase</title>
<polygon fill="none" stroke="black" points="845,-1600 755,-1600 755,-1564 845,-1564 845,-1600"/>
<text text-anchor="middle" x="800" y="-1579.1" font-family="Courier,monospace" font-size="11.00">CurrentBase</text>
</g>
<!-- \\Current -->
<g id="node28" class="node"><title>\\Current</title>
<polygon fill="none" stroke="black" points="1125,-1600 1061,-1600 1061,-1564 1125,-1564 1125,-1600"/>
<text text-anchor="middle" x="1093" y="-1579.1" font-family="Courier,monospace" font-size="11.00">Current</text>
</g>
<!-- \\Current&#45;&gt;\\CurrentBase -->
<g id="edge49" class="edge"><title>\\Current&#45;&gt;\\CurrentBase</title>
<path fill="none" stroke="black" d="M1060.81,-1582C1011.48,-1582 916.554,-1582 855.846,-1582"/>
<polygon fill="none" stroke="black" points="855.669,-1578.5 845.669,-1582 855.669,-1585.5 855.669,-1578.5"/>
</g>
<!-- \\CurrentSystem -->
<g id="node29" class="node"><title>\\CurrentSystem</title>
<polygon fill="none" stroke="black" points="1145,-2086 1041,-2086 1041,-2050 1145,-2050 1145,-2086"/>
<text text-anchor="middle" x="1093" y="-2065.1" font-family="Courier,monospace" font-size="11.00">CurrentSystem</text>
</g>
<!-- \\CurrentPage -->
<g id="node30" class="node"><title>\\CurrentPage</title>
<polygon fill="none" stroke="black" points="1138,-2032 1048,-2032 1048,-1996 1138,-1996 1138,-2032"/>
<text text-anchor="middle" x="1093" y="-2011.1" font-family="Courier,monospace" font-size="11.00">CurrentPage</text>
</g>
<!-- \\CurrentFrame -->
<g id="node31" class="node"><title>\\CurrentFrame</title>
<polygon fill="none" stroke="black" points="1142,-1978 1044,-1978 1044,-1942 1142,-1942 1142,-1978"/>
<text text-anchor="middle" x="1093" y="-1957.1" font-family="Courier,monospace" font-size="11.00">CurrentFrame</text>
</g>
<!-- \\TokenHelper -->
<g id="node32" class="node"><title>\\TokenHelper</title>
<polygon fill="none" stroke="black" points="1138,-736 1048,-736 1048,-700 1138,-700 1138,-736"/>
<text text-anchor="middle" x="1093" y="-715.1" font-family="Courier,monospace" font-size="11.00">TokenHelper</text>
</g>
<!-- \\FormHelper -->
<g id="node95" class="node"><title>\\FormHelper</title>
<ellipse fill="none" stroke="black" cx="800" cy="-234" rx="70.9184" ry="18.3848"/>
<text text-anchor="middle" x="800" y="-230.4" font-family="Times Roman,serif" font-size="14.00" fill="gray">\FormHelper</text>
</g>
<!-- \\TokenHelper&#45;&gt;\\FormHelper -->
<g id="edge51" class="edge"><title>\\TokenHelper&#45;&gt;\\FormHelper</title>
<path fill="none" stroke="black" d="M1047.25,-716.813C1026.97,-713.861 1004.46,-706.833 990,-691 859.318,-547.927 1050.91,-402.002 918,-261 907.986,-250.377 894.718,-243.531 880.698,-239.194"/>
<polygon fill="none" stroke="black" points="881.468,-235.777 870.904,-236.577 879.661,-242.54 881.468,-235.777"/>
</g>
<!-- \\SingletonViewBlockHtmlHelper -->
<g id="node33" class="node"><title>\\SingletonViewBlockHtmlHelper</title>
<polygon fill="none" stroke="black" points="1196,-682 990,-682 990,-646 1196,-646 1196,-682"/>
<text text-anchor="middle" x="1093" y="-661.1" font-family="Courier,monospace" font-size="11.00">SingletonViewBlockHtmlHelper</text>
</g>
<!-- \\HtmlHelper -->
<g id="node97" class="node"><title>\\HtmlHelper</title>
<ellipse fill="none" stroke="black" cx="800" cy="-180" rx="67.1751" ry="18.3848"/>
<text text-anchor="middle" x="800" y="-176.4" font-family="Times Roman,serif" font-size="14.00" fill="gray">HtmlHelper</text>
</g>
<!-- \\SingletonViewBlockHtmlHelper&#45;&gt;\\HtmlHelper -->
<g id="edge53" class="edge"><title>\\SingletonViewBlockHtmlHelper&#45;&gt;\\HtmlHelper</title>
<path fill="none" stroke="black" d="M999.918,-645.739C996.329,-643.175 992.992,-640.276 990,-637 859.318,-493.927 1050.91,-348.002 918,-207 907.121,-195.459 892.401,-188.376 877.051,-184.126"/>
<polygon fill="none" stroke="black" points="877.444,-180.622 866.906,-181.723 875.83,-187.434 877.444,-180.622"/>
</g>
<!-- \\FormInputHelper -->
<g id="node34" class="node"><title>\\FormInputHelper</title>
<polygon fill="none" stroke="black" points="1152,-1762 1034,-1762 1034,-1726 1152,-1726 1152,-1762"/>
<text text-anchor="middle" x="1093" y="-1741.1" font-family="Courier,monospace" font-size="11.00">FormInputHelper</text>
</g>
<!-- \\FormInputHelper&#45;&gt;\\AppHelper -->
<g id="edge55" class="edge"><title>\\FormInputHelper&#45;&gt;\\AppHelper</title>
<path fill="none" stroke="black" d="M1033.87,-1750.05C1018.23,-1754.02 1002.3,-1760.5 990,-1771 860.231,-1881.73 815.867,-2098.1 803.825,-2175.03"/>
<polygon fill="none" stroke="black" points="800.362,-2174.52 802.335,-2184.93 807.284,-2175.57 800.362,-2174.52"/>
</g>
<!-- \\WizardHelper -->
<g id="node35" class="node"><title>\\WizardHelper</title>
<polygon fill="none" stroke="black" points="1142,-1708 1044,-1708 1044,-1672 1142,-1672 1142,-1708"/>
<text text-anchor="middle" x="1093" y="-1687.1" font-family="Courier,monospace" font-size="11.00">WizardHelper</text>
</g>
<!-- \\WizardHelper&#45;&gt;\\AppHelper -->
<g id="edge57" class="edge"><title>\\WizardHelper&#45;&gt;\\AppHelper</title>
<path fill="none" stroke="black" d="M1043.96,-1693.43C1025.19,-1696.98 1004.78,-1703.85 990,-1717 847.368,-1843.94 810.808,-2091.27 802.341,-2174.73"/>
<polygon fill="none" stroke="black" points="798.852,-2174.44 801.383,-2184.73 805.82,-2175.11 798.852,-2174.44"/>
</g>
<!-- \\DisplayNumberHelper -->
<g id="node36" class="node"><title>\\DisplayNumberHelper</title>
<polygon fill="none" stroke="black" points="1165,-1654 1021,-1654 1021,-1618 1165,-1618 1165,-1654"/>
<text text-anchor="middle" x="1093" y="-1633.1" font-family="Courier,monospace" font-size="11.00">DisplayNumberHelper</text>
</g>
<!-- \\DisplayNumberHelper&#45;&gt;\\AppHelper -->
<g id="edge59" class="edge"><title>\\DisplayNumberHelper&#45;&gt;\\AppHelper</title>
<path fill="none" stroke="black" d="M1020.25,-1645.44C1009.15,-1649.47 998.566,-1655.11 990,-1663 834.226,-1806.5 806.135,-2085.3 801.095,-2174.69"/>
<polygon fill="none" stroke="black" points="797.59,-2174.7 800.577,-2184.87 804.581,-2175.06 797.59,-2174.7"/>
</g>
<!-- \\MessageFlashHelper -->
<g id="node37" class="node"><title>\\MessageFlashHelper</title>
<polygon fill="none" stroke="black" points="1162,-1924 1024,-1924 1024,-1888 1162,-1888 1162,-1924"/>
<text text-anchor="middle" x="1093" y="-1903.1" font-family="Courier,monospace" font-size="11.00">MessageFlashHelper</text>
</g>
<!-- \\MessageFlashHelper&#45;&gt;\\AppHelper -->
<g id="edge61" class="edge"><title>\\MessageFlashHelper&#45;&gt;\\AppHelper</title>
<path fill="none" stroke="black" d="M1023.84,-1916.95C1011.9,-1920.8 1000.1,-1925.99 990,-1933 898.034,-1996.86 835.79,-2120.47 811.457,-2175.46"/>
<polygon fill="none" stroke="black" points="808.13,-2174.34 807.356,-2184.9 814.551,-2177.13 808.13,-2174.34"/>
</g>
<!-- \\DateHelper -->
<g id="node38" class="node"><title>\\DateHelper</title>
<polygon fill="none" stroke="black" points="1135,-1870 1051,-1870 1051,-1834 1135,-1834 1135,-1870"/>
<text text-anchor="middle" x="1093" y="-1849.1" font-family="Courier,monospace" font-size="11.00">DateHelper</text>
</g>
<!-- \\DateHelper&#45;&gt;\\AppHelper -->
<g id="edge63" class="edge"><title>\\DateHelper&#45;&gt;\\AppHelper</title>
<path fill="none" stroke="black" d="M1050.89,-1855.55C1030.83,-1859 1007.46,-1865.77 990,-1879 885.624,-1958.08 828.084,-2112.47 808.129,-2175.35"/>
<polygon fill="none" stroke="black" points="804.764,-2174.39 805.144,-2184.97 811.45,-2176.46 804.764,-2174.39"/>
</g>
<!-- \\SnsButtonHelper -->
<g id="node39" class="node"><title>\\SnsButtonHelper</title>
<polygon fill="none" stroke="black" points="1152,-2680 1034,-2680 1034,-2644 1152,-2644 1152,-2680"/>
<text text-anchor="middle" x="1093" y="-2659.1" font-family="Courier,monospace" font-size="11.00">SnsButtonHelper</text>
</g>
<!-- \\SnsButtonHelper&#45;&gt;\\AppHelper -->
<g id="edge65" class="edge"><title>\\SnsButtonHelper&#45;&gt;\\AppHelper</title>
<path fill="none" stroke="black" d="M1033.78,-2657.14C1017.87,-2653.2 1001.82,-2646.45 990,-2635 909.099,-2556.62 964.248,-2494.71 918,-2392 890.254,-2330.38 845.427,-2264.85 819.751,-2229.44"/>
<polygon fill="none" stroke="black" points="822.386,-2227.11 813.658,-2221.1 816.735,-2231.24 822.386,-2227.11"/>
</g>
<!-- \\BackToHelper -->
<g id="node40" class="node"><title>\\BackToHelper</title>
<polygon fill="none" stroke="black" points="1142,-2626 1044,-2626 1044,-2590 1142,-2590 1142,-2626"/>
<text text-anchor="middle" x="1093" y="-2605.1" font-family="Courier,monospace" font-size="11.00">BackToHelper</text>
</g>
<!-- \\BackToHelper&#45;&gt;\\AppHelper -->
<g id="edge67" class="edge"><title>\\BackToHelper&#45;&gt;\\AppHelper</title>
<path fill="none" stroke="black" d="M1043.9,-2604.64C1025.13,-2601.1 1004.72,-2594.21 990,-2581 923.113,-2520.95 957.991,-2472.5 918,-2392 887.857,-2331.32 843.722,-2265.2 818.853,-2229.49"/>
<polygon fill="none" stroke="black" points="821.57,-2227.27 812.965,-2221.08 815.837,-2231.28 821.57,-2227.27"/>
</g>
<!-- \\NetCommonsHtmlHelper -->
<g id="node41" class="node"><title>\\NetCommonsHtmlHelper</title>
<polygon fill="none" stroke="black" points="1169,-2572 1017,-2572 1017,-2536 1169,-2536 1169,-2572"/>
<text text-anchor="middle" x="1093" y="-2551.1" font-family="Courier,monospace" font-size="11.00">NetCommonsHtmlHelper</text>
</g>
<!-- \\NetCommonsHtmlHelper&#45;&gt;\\AppHelper -->
<g id="edge69" class="edge"><title>\\NetCommonsHtmlHelper&#45;&gt;\\AppHelper</title>
<path fill="none" stroke="black" d="M1016.97,-2541.86C1007.28,-2538.14 997.978,-2533.3 990,-2527 936.641,-2484.85 952.026,-2450.87 918,-2392 884.007,-2333.18 841.122,-2266.12 817.542,-2229.8"/>
<polygon fill="none" stroke="black" points="820.368,-2227.73 811.98,-2221.26 814.501,-2231.55 820.368,-2227.73"/>
</g>
<!-- \\ButtonHelper -->
<g id="node42" class="node"><title>\\ButtonHelper</title>
<polygon fill="none" stroke="black" points="1142,-844 1044,-844 1044,-808 1142,-808 1142,-844"/>
<text text-anchor="middle" x="1093" y="-823.1" font-family="Courier,monospace" font-size="11.00">ButtonHelper</text>
</g>
<!-- \\ButtonHelper&#45;&gt;\\FormHelper -->
<g id="edge71" class="edge"><title>\\ButtonHelper&#45;&gt;\\FormHelper</title>
<path fill="none" stroke="black" d="M1043.85,-824.539C1024.38,-821.365 1003.47,-814.238 990,-799 830.252,-618.227 1080.57,-439.24 918,-261 908.162,-250.213 894.974,-243.293 880.979,-238.934"/>
<polygon fill="none" stroke="black" points="881.757,-235.519 871.192,-236.31 879.944,-242.281 881.757,-235.519"/>
</g>
<!-- \\ComposerHelper -->
<g id="node43" class="node"><title>\\ComposerHelper</title>
<polygon fill="none" stroke="black" points="1148,-2518 1038,-2518 1038,-2482 1148,-2482 1148,-2518"/>
<text text-anchor="middle" x="1093" y="-2497.1" font-family="Courier,monospace" font-size="11.00">ComposerHelper</text>
</g>
<!-- \\ComposerHelper&#45;&gt;\\AppHelper -->
<g id="edge73" class="edge"><title>\\ComposerHelper&#45;&gt;\\AppHelper</title>
<path fill="none" stroke="black" d="M1037.28,-2492.83C1021.01,-2488.85 1003.89,-2482.65 990,-2473 942.532,-2440.04 851.958,-2291.48 815.638,-2229.89"/>
<polygon fill="none" stroke="black" points="818.569,-2227.97 810.486,-2221.12 812.533,-2231.51 818.569,-2227.97"/>
</g>
<!-- \\LinkButtonHelper -->
<g id="node44" class="node"><title>\\LinkButtonHelper</title>
<polygon fill="none" stroke="black" points="1155,-790 1031,-790 1031,-754 1155,-754 1155,-790"/>
<text text-anchor="middle" x="1093" y="-769.1" font-family="Courier,monospace" font-size="11.00">LinkButtonHelper</text>
</g>
<!-- \\LinkButtonHelper&#45;&gt;\\FormHelper -->
<g id="edge75" class="edge"><title>\\LinkButtonHelper&#45;&gt;\\FormHelper</title>
<path fill="none" stroke="black" d="M1030.3,-767.541C1015.2,-763.523 1000.43,-756.629 990,-745 844.8,-583.094 1065.73,-420.605 918,-261 908.083,-250.286 894.859,-243.398 880.853,-239.049"/>
<polygon fill="none" stroke="black" points="881.628,-235.634 871.063,-236.429 879.818,-242.396 881.628,-235.634"/>
</g>
<!-- \\TableListHelper -->
<g id="node45" class="node"><title>\\TableListHelper</title>
<polygon fill="none" stroke="black" points="1152,-2464 1034,-2464 1034,-2428 1152,-2428 1152,-2464"/>
<text text-anchor="middle" x="1093" y="-2443.1" font-family="Courier,monospace" font-size="11.00">TableListHelper</text>
</g>
<!-- \\TableListHelper&#45;&gt;\\AppHelper -->
<g id="edge77" class="edge"><title>\\TableListHelper&#45;&gt;\\AppHelper</title>
<path fill="none" stroke="black" d="M1033.89,-2436.86C1018.85,-2432.86 1003.22,-2427.15 990,-2419 909.876,-2369.56 844.727,-2275.81 815.946,-2229.81"/>
<polygon fill="none" stroke="black" points="818.75,-2227.69 810.523,-2221.02 812.792,-2231.36 818.75,-2227.69"/>
</g>
<!-- \\NetCommonsTimeHelper -->
<g id="node46" class="node"><title>\\NetCommonsTimeHelper</title>
<polygon fill="none" stroke="black" points="1169,-2410 1017,-2410 1017,-2374 1169,-2374 1169,-2410"/>
<text text-anchor="middle" x="1093" y="-2389.1" font-family="Courier,monospace" font-size="11.00">NetCommonsTimeHelper</text>
</g>
<!-- \\NetCommonsTimeHelper&#45;&gt;\\AppHelper -->
<g id="edge79" class="edge"><title>\\NetCommonsTimeHelper&#45;&gt;\\AppHelper</title>
<path fill="none" stroke="black" d="M1016.98,-2376.27C1007.65,-2373.13 998.439,-2369.41 990,-2365 921.41,-2329.19 856.097,-2264.56 822.838,-2228.7"/>
<polygon fill="none" stroke="black" points="825.192,-2226.09 815.854,-2221.09 820.033,-2230.83 825.192,-2226.09"/>
</g>
<!-- \\NetCommonsFormHelper -->
<g id="node47" class="node"><title>\\NetCommonsFormHelper</title>
<polygon fill="none" stroke="black" points="1169,-2356 1017,-2356 1017,-2320 1169,-2320 1169,-2356"/>
<text text-anchor="middle" x="1093" y="-2335.1" font-family="Courier,monospace" font-size="11.00">NetCommonsFormHelper</text>
</g>
<!-- \\NetCommonsFormHelper&#45;&gt;\\AppHelper -->
<g id="edge81" class="edge"><title>\\NetCommonsFormHelper&#45;&gt;\\AppHelper</title>
<path fill="none" stroke="black" d="M1016.88,-2320.46C1007.71,-2317.64 998.561,-2314.49 990,-2311 933.066,-2287.82 872.097,-2250.73 835.004,-2226.61"/>
<polygon fill="none" stroke="black" points="836.839,-2223.63 826.557,-2221.07 833.002,-2229.48 836.839,-2223.63"/>
</g>
<!-- \\TitleIconHelper -->
<g id="node48" class="node"><title>\\TitleIconHelper</title>
<polygon fill="none" stroke="black" points="1152,-2302 1034,-2302 1034,-2266 1152,-2266 1152,-2302"/>
<text text-anchor="middle" x="1093" y="-2281.1" font-family="Courier,monospace" font-size="11.00">TitleIconHelper</text>
</g>
<!-- \\TitleIconHelper&#45;&gt;\\AppHelper -->
<g id="edge83" class="edge"><title>\\TitleIconHelper&#45;&gt;\\AppHelper</title>
<path fill="none" stroke="black" d="M1033.85,-2268.72C1019.48,-2264.94 1004.18,-2260.87 990,-2257 941.716,-2243.81 886.728,-2228.11 848.375,-2217.04"/>
<polygon fill="none" stroke="black" points="849.087,-2213.61 838.508,-2214.2 847.145,-2220.33 849.087,-2213.61"/>
</g>
<!-- \\DatetimePickerHelper -->
<g id="node49" class="node"><title>\\DatetimePickerHelper</title>
<polygon fill="none" stroke="black" points="1169,-2140 1017,-2140 1017,-2104 1169,-2104 1169,-2140"/>
<text text-anchor="middle" x="1093" y="-2119.1" font-family="Courier,monospace" font-size="11.00">DatetimePickerHelper</text>
</g>
<!-- \\DatetimePickerHelper&#45;&gt;\\AppHelper -->
<g id="edge85" class="edge"><title>\\DatetimePickerHelper&#45;&gt;\\AppHelper</title>
<path fill="none" stroke="black" d="M1023.41,-2140.03C1012.23,-2142.99 1000.79,-2146.05 990,-2149 941.716,-2162.19 886.728,-2177.89 848.375,-2188.96"/>
<polygon fill="none" stroke="black" points="847.145,-2185.67 838.508,-2191.8 849.087,-2192.39 847.145,-2185.67"/>
</g>
<!-- \\Model -->
<g id="node115" class="node"><title>\\Model</title>
<ellipse fill="none" stroke="black" cx="44" cy="-2959" rx="43.8406" ry="18.3848"/>
<text text-anchor="middle" x="44" y="-2955.4" font-family="Times Roman,serif" font-size="14.00" fill="gray">\Model</text>
</g>
<!-- \\NetCommonsAppModel&#45;&gt;\\Model -->
<g id="edge87" class="edge"><title>\\NetCommonsAppModel&#45;&gt;\\Model</title>
<path fill="none" stroke="black" d="M172.749,-2959C148.379,-2959 121.357,-2959 98.3871,-2959"/>
<polygon fill="none" stroke="black" points="98.1425,-2955.5 88.1425,-2959 98.1424,-2962.5 98.1425,-2955.5"/>
</g>
<!-- \\OriginalKeyBehavior -->
<g id="node51" class="node"><title>\\OriginalKeyBehavior</title>
<polygon fill="none" stroke="black" points="1165,-520 1021,-520 1021,-484 1165,-484 1165,-520"/>
<text text-anchor="middle" x="1093" y="-499.1" font-family="Courier,monospace" font-size="11.00">OriginalKeyBehavior</text>
</g>
<!-- \\ModelBehavior -->
<g id="node117" class="node"><title>\\ModelBehavior</title>
<ellipse fill="none" stroke="black" cx="800" cy="-126" rx="86.9741" ry="18.3848"/>
<text text-anchor="middle" x="800" y="-122.4" font-family="Times Roman,serif" font-size="14.00" fill="gray">\ModelBehavior</text>
</g>
<!-- \\OriginalKeyBehavior&#45;&gt;\\ModelBehavior -->
<g id="edge89" class="edge"><title>\\OriginalKeyBehavior&#45;&gt;\\ModelBehavior</title>
<path fill="none" stroke="black" d="M1020.48,-493.783C1009.09,-489.648 998.341,-483.65 990,-475 888.21,-369.437 1021.44,-256.95 918,-153 910.53,-145.493 901.428,-139.895 891.627,-135.745"/>
<polygon fill="none" stroke="black" points="892.638,-132.388 882.045,-132.196 890.207,-138.952 892.638,-132.388"/>
</g>
<!-- \\TrackableBehavior -->
<g id="node52" class="node"><title>\\TrackableBehavior</title>
<polygon fill="none" stroke="black" points="1158,-628 1028,-628 1028,-592 1158,-592 1158,-628"/>
<text text-anchor="middle" x="1093" y="-607.1" font-family="Courier,monospace" font-size="11.00">TrackableBehavior</text>
</g>
<!-- \\TrackableBehavior&#45;&gt;\\ModelBehavior -->
<g id="edge91" class="edge"><title>\\TrackableBehavior&#45;&gt;\\ModelBehavior</title>
<path fill="none" stroke="black" d="M1027.5,-604.591C1013.43,-600.482 999.849,-593.783 990,-583 859.318,-439.927 1050.91,-294.002 918,-153 910.736,-145.293 901.758,-139.575 892.025,-135.36"/>
<polygon fill="none" stroke="black" points="893.083,-132.019 882.491,-131.764 890.613,-138.568 893.083,-132.019"/>
</g>
<!-- \\YAExceptionRenderer -->
<g id="node53" class="node"><title>\\YAExceptionRenderer</title>
<polygon fill="none" stroke="black" points="1165,-466 1021,-466 1021,-430 1165,-430 1165,-466"/>
<text text-anchor="middle" x="1093" y="-445.1" font-family="Courier,monospace" font-size="11.00">YAExceptionRenderer</text>
</g>
<!-- \\ExceptionRenderer -->
<g id="node120" class="node"><title>\\ExceptionRenderer</title>
<ellipse fill="none" stroke="black" cx="800" cy="-72" rx="118.087" ry="18.3848"/>
<text text-anchor="middle" x="800" y="-68.4" font-family="Times Roman,serif" font-size="14.00" fill="gray">TEHxceptionRenderer</text>
</g>
<!-- \\YAExceptionRenderer&#45;&gt;\\ExceptionRenderer -->
<g id="edge93" class="edge"><title>\\YAExceptionRenderer&#45;&gt;\\ExceptionRenderer</title>
<path fill="none" stroke="black" d="M1020.48,-439.783C1009.09,-435.648 998.341,-429.65 990,-421 888.21,-315.437 1021.44,-202.95 918,-99 913.632,-94.61 908.706,-90.873 903.408,-87.6967"/>
<polygon fill="none" stroke="black" points="904.657,-84.4002 894.174,-82.8643 901.411,-90.6022 904.657,-84.4002"/>
</g>
<!-- \\NetCommonsMigration -->
<g id="node54" class="node"><title>\\NetCommonsMigration</title>
<polygon fill="none" stroke="black" points="872,-1268 728,-1268 728,-1232 872,-1232 872,-1268"/>
<text text-anchor="middle" x="800" y="-1247.1" font-family="Courier,monospace" font-size="11.00">NetCommonsMigration</text>
</g>
<!-- \\CakeMigration -->
<g id="node122" class="node"><title>\\CakeMigration</title>
<ellipse fill="none" stroke="black" cx="503" cy="-180" rx="84.8528" ry="18.3848"/>
<text text-anchor="middle" x="503" y="-176.4" font-family="Times Roman,serif" font-size="14.00" fill="gray">\CakeMigration</text>
</g>
<!-- \\NetCommonsMigration&#45;&gt;\\CakeMigration -->
<g id="edge95" class="edge"><title>\\NetCommonsMigration&#45;&gt;\\CakeMigration</title>
<path fill="none" stroke="black" d="M727.251,-1251.18C710.165,-1247.84 693.584,-1240.98 682,-1228 530.584,-1058.27 756.008,-381.402 610,-207 604.639,-200.596 598,-195.59 590.676,-191.692"/>
<polygon fill="none" stroke="black" points="591.627,-188.279 581.075,-187.325 588.728,-194.651 591.627,-188.279"/>
</g>
<!-- \\DataTypeFormComponent -->
<g id="node55" class="node"><title>\\DataTypeFormComponent</title>
<polygon fill="none" stroke="black" points="1172,-1060 1014,-1060 1014,-1024 1172,-1024 1172,-1060"/>
<text text-anchor="middle" x="1093" y="-1039.1" font-family="Courier,monospace" font-size="11.00">DataTypeFormComponent</text>
</g>
<!-- \\DataTypeFormComponent&#45;&gt;\\Component -->
<g id="edge97" class="edge"><title>\\DataTypeFormComponent&#45;&gt;\\Component</title>
<path fill="none" stroke="black" d="M1013.95,-1032.26C1004.83,-1028.16 996.495,-1022.58 990,-1015 786.502,-777.507 1125.2,-549.266 918,-315 908.271,-304.001 895.062,-296.994 880.998,-292.62"/>
<polygon fill="none" stroke="black" points="881.72,-289.191 871.156,-289.996 879.917,-295.955 881.72,-289.191"/>
</g>
<!-- \\DataTypeFormHelper -->
<g id="node56" class="node"><title>\\DataTypeFormHelper</title>
<polygon fill="none" stroke="black" points="1162,-1816 1024,-1816 1024,-1780 1162,-1780 1162,-1816"/>
<text text-anchor="middle" x="1093" y="-1795.1" font-family="Courier,monospace" font-size="11.00">DataTypeFormHelper</text>
</g>
<!-- \\DataTypeFormHelper&#45;&gt;\\AppHelper -->
<g id="edge99" class="edge"><title>\\DataTypeFormHelper&#45;&gt;\\AppHelper</title>
<path fill="none" stroke="black" d="M1023.75,-1807.5C1011.62,-1811.48 999.769,-1817.09 990,-1825 873.272,-1919.53 821.79,-2104.25 805.802,-2174.74"/>
<polygon fill="none" stroke="black" points="802.349,-2174.15 803.616,-2184.67 809.185,-2175.65 802.349,-2174.15"/>
</g>
<!-- \\TimezoneBehavior -->
<g id="node57" class="node"><title>\\TimezoneBehavior</title>
<polygon fill="none" stroke="black" points="1155,-574 1031,-574 1031,-538 1155,-538 1155,-574"/>
<text text-anchor="middle" x="1093" y="-553.1" font-family="Courier,monospace" font-size="11.00">TimezoneBehavior</text>
</g>
<!-- \\TimezoneBehavior&#45;&gt;\\ModelBehavior -->
<g id="edge101" class="edge"><title>\\TimezoneBehavior&#45;&gt;\\ModelBehavior</title>
<path fill="none" stroke="black" d="M1030.35,-551.174C1015.34,-547.149 1000.61,-540.343 990,-529 873.795,-404.716 1036.14,-275.443 918,-153 910.646,-145.379 901.615,-139.712 891.852,-135.525"/>
<polygon fill="none" stroke="black" points="892.89,-132.176 882.298,-131.949 890.436,-138.732 892.89,-132.176"/>
</g>
<!-- \\DataTypesAppModel -->
<g id="node58" class="node"><title>\\DataTypesAppModel</title>
<polygon fill="none" stroke="black" points="865,-2950 735,-2950 735,-2914 865,-2914 865,-2950"/>
<text text-anchor="middle" x="800" y="-2929.1" font-family="Courier,monospace" font-size="11.00">DataTypesAppModel</text>
</g>
<!-- \\DataTypesAppModel&#45;&gt;\\AppModel -->
<g id="edge103" class="edge"><title>\\DataTypesAppModel&#45;&gt;\\AppModel</title>
<path fill="none" stroke="black" d="M734.454,-2937.96C678.157,-2943.08 598.44,-2950.32 548.776,-2954.84"/>
<polygon fill="none" stroke="black" points="548.296,-2951.37 538.654,-2955.76 548.93,-2958.34 548.296,-2951.37"/>
</g>
<!-- \\DataType -->
<g id="node59" class="node"><title>\\DataType</title>
<polygon fill="none" stroke="black" points="1128,-2950 1058,-2950 1058,-2914 1128,-2914 1128,-2950"/>
<text text-anchor="middle" x="1093" y="-2929.1" font-family="Courier,monospace" font-size="11.00">DataType</text>
</g>
<!-- \\DataType&#45;&gt;\\DataTypesAppModel -->
<g id="edge105" class="edge"><title>\\DataType&#45;&gt;\\DataTypesAppModel</title>
<path fill="none" stroke="black" d="M1057.37,-2932C1012.55,-2932 934.399,-2932 875.941,-2932"/>
<polygon fill="none" stroke="black" points="875.636,-2928.5 865.636,-2932 875.636,-2935.5 875.636,-2928.5"/>
</g>
<!-- \\DataTypeChoice -->
<g id="node60" class="node"><title>\\DataTypeChoice</title>
<polygon fill="none" stroke="black" points="1148,-3004 1038,-3004 1038,-2968 1148,-2968 1148,-3004"/>
<text text-anchor="middle" x="1093" y="-2983.1" font-family="Courier,monospace" font-size="11.00">DataTypeChoice</text>
</g>
<!-- \\DataTypeChoice&#45;&gt;\\DataTypesAppModel -->
<g id="edge107" class="edge"><title>\\DataTypeChoice&#45;&gt;\\DataTypesAppModel</title>
<path fill="none" stroke="black" d="M1037.2,-2975.72C991.357,-2967.27 925.981,-2955.22 875.469,-2945.91"/>
<polygon fill="none" stroke="black" points="876.043,-2942.46 865.575,-2944.09 874.775,-2949.34 876.043,-2942.46"/>
</g>
<!-- \\DataTypesSchema -->
<g id="node61" class="node"><title>\\DataTypesSchema</title>
<polygon fill="none" stroke="black" points="1152,-412 1034,-412 1034,-376 1152,-376 1152,-412"/>
<text text-anchor="middle" x="1093" y="-391.1" font-family="Courier,monospace" font-size="11.00">DataTypesSchema</text>
</g>
<!-- \\CakeSchema -->
<g id="node130" class="node"><title>\\CakeSchema</title>
<ellipse fill="none" stroke="black" cx="800" cy="-18" rx="77.0746" ry="18.3848"/>
<text text-anchor="middle" x="800" y="-14.4" font-family="Times Roman,serif" font-size="14.00" fill="gray">\CakeSchema</text>
</g>
<!-- \\DataTypesSchema&#45;&gt;\\CakeSchema -->
<g id="edge109" class="edge"><title>\\DataTypesSchema&#45;&gt;\\CakeSchema</title>
<path fill="none" stroke="black" d="M1089.54,-375.725C1077.51,-317.407 1031.83,-134.35 918,-45 907.593,-36.8314 895.169,-31.0476 882.349,-26.9696"/>
<polygon fill="none" stroke="black" points="883.07,-23.5363 872.495,-24.1724 881.159,-30.2702 883.07,-23.5363"/>
</g>
<!-- \\Records -->
<g id="node62" class="node"><title>\\Records</title>
<polygon fill="none" stroke="black" points="1125,-1384 1061,-1384 1061,-1348 1125,-1348 1125,-1384"/>
<text text-anchor="middle" x="1093" y="-1363.1" font-family="Courier,monospace" font-size="11.00">Records</text>
</g>
<!-- \\Records&#45;&gt;\\NetCommonsMigration -->
<g id="edge111" class="edge"><title>\\Records&#45;&gt;\\NetCommonsMigration</title>
<path fill="none" stroke="black" d="M1060.99,-1359.19C1040.42,-1354.43 1013.29,-1347.43 990,-1339 938.058,-1320.2 880.981,-1292.44 843.08,-1272.94"/>
<polygon fill="none" stroke="black" points="844.362,-1269.66 833.873,-1268.17 841.141,-1275.88 844.362,-1269.66"/>
</g>
<!-- \\Init -->
<g id="node63" class="node"><title>\\Init</title>
<polygon fill="none" stroke="black" points="1120,-1276 1066,-1276 1066,-1240 1120,-1240 1120,-1276"/>
<text text-anchor="middle" x="1093" y="-1255.1" font-family="Courier,monospace" font-size="11.00">Init</text>
</g>
<!-- \\Init&#45;&gt;\\CakeMigration -->
<g id="edge113" class="edge"><title>\\Init&#45;&gt;\\CakeMigration</title>
<path fill="none" stroke="black" d="M1065.73,-1258.48C1042.26,-1257.33 1009.23,-1251.74 990,-1231 868.975,-1100.46 974.655,-1005.75 918,-837 843.859,-616.163 781.779,-579.499 682,-369 648.252,-297.803 670.269,-257.751 610,-207 602.951,-201.064 594.773,-196.406 586.139,-192.754"/>
<polygon fill="none" stroke="black" points="587.216,-189.42 576.624,-189.174 584.751,-195.971 587.216,-189.42"/>
</g>
</g>
</svg>
