<?xml version="1.0" encoding="UTF-8" standalone="no"?>
<!DOCTYPE svg PUBLIC "-//W3C//DTD SVG 1.1//EN"
 "http://www.w3.org/Graphics/SVG/1.1/DTD/svg11.dtd">
<!-- Generated by graphviz version 2.26.3 (20100126.1600)
 -->
<!-- Title: G Pages: 1 -->
<svg width="1248pt" height="2927pt"
 viewBox="0.00 0.00 1248.00 2926.66" xmlns="http://www.w3.org/2000/svg" xmlns:xlink="http://www.w3.org/1999/xlink">
<g id="graph1" class="graph" transform="scale(1 1) rotate(0) translate(4 2922.66)">
<title>G</title>
<polygon fill="white" stroke="white" points="-4,5 -4,-2922.66 1245,-2922.66 1245,5 -4,5"/>
<g id="graph2" class="cluster"><title>cluster_Global</title>
<polyline fill="none" stroke="gray" points="177,-406.656 1220,-406.656 "/>
<path fill="none" stroke="gray" d="M1220,-406.656C1226,-406.656 1232,-412.656 1232,-418.656"/>
<polyline fill="none" stroke="gray" points="1232,-418.656 1232,-2898.66 "/>
<path fill="none" stroke="gray" d="M1232,-2898.66C1232,-2904.66 1226,-2910.66 1220,-2910.66"/>
<polyline fill="none" stroke="gray" points="1220,-2910.66 177,-2910.66 "/>
<path fill="none" stroke="gray" d="M177,-2910.66C171,-2910.66 165,-2904.66 165,-2898.66"/>
<polyline fill="none" stroke="gray" points="165,-2898.66 165,-418.656 "/>
<path fill="none" stroke="gray" d="M165,-418.656C165,-412.656 171,-406.656 177,-406.656"/>
<text text-anchor="middle" x="698.5" y="-2896.76" font-family="Times Roman,serif" font-size="11.00" fill="gray">Global</text>
</g>
<!-- \\AppController -->
<g id="node2" class="node"><title>\\AppController</title>
<polygon fill="none" stroke="black" points="555,-1436.66 451,-1436.66 451,-1400.66 555,-1400.66 555,-1436.66"/>
<text text-anchor="middle" x="503" y="-1415.76" font-family="Courier,monospace" font-size="11.00">AppController</text>
</g>
<!-- \\Controller -->
<g id="node64" class="node"><title>\\Controller</title>
<ellipse fill="none" stroke="black" cx="242" cy="-303.656" rx="63.1385" ry="18.3848"/>
<text text-anchor="middle" x="242" y="-300.056" font-family="Times Roman,serif" font-size="14.00" fill="gray">\Controller</text>
</g>
<!-- \\AppController&#45;&gt;\\Controller -->
<g id="edge3" class="edge"><title>\\AppController&#45;&gt;\\Controller</title>
<path fill="none" stroke="black" d="M450.858,-1420.59C430.828,-1418.46 409.544,-1412.15 396,-1396.66 243.073,-1221.75 444.658,-552.197 324,-353.656 316.05,-340.574 303.255,-330.444 290.113,-322.831"/>
<polygon fill="none" stroke="black" points="291.482,-319.594 281.014,-317.958 288.177,-325.765 291.482,-319.594"/>
</g>
<!-- \\AppModel -->
<g id="node3" class="node"><title>\\AppModel</title>
<polygon fill="none" stroke="black" points="538,-2799.66 468,-2799.66 468,-2763.66 538,-2763.66 538,-2799.66"/>
<text text-anchor="middle" x="503" y="-2778.76" font-family="Courier,monospace" font-size="11.00">AppModel</text>
</g>
<!-- \\NetCommonsAppModel -->
<g id="node47" class="node"><title>\\NetCommonsAppModel</title>
<polygon fill="none" stroke="black" points="311,-2799.66 173,-2799.66 173,-2763.66 311,-2763.66 311,-2799.66"/>
<text text-anchor="middle" x="242" y="-2778.76" font-family="Courier,monospace" font-size="11.00">NetCommonsAppModel</text>
</g>
<!-- \\AppModel&#45;&gt;\\NetCommonsAppModel -->
<g id="edge5" class="edge"><title>\\AppModel&#45;&gt;\\NetCommonsAppModel</title>
<path fill="none" stroke="black" d="M467.256,-2781.66C429.848,-2781.66 369.903,-2781.66 321.254,-2781.66"/>
<polygon fill="none" stroke="black" points="321.056,-2778.16 311.056,-2781.66 321.056,-2785.16 321.056,-2778.16"/>
</g>
<!-- \\DatabaseConfiguration -->
<g id="node4" class="node"><title>\\DatabaseConfiguration</title>
<polygon fill="none" stroke="black" points="879,-2772.66 721,-2772.66 721,-2736.66 879,-2736.66 879,-2772.66"/>
<text text-anchor="middle" x="800" y="-2751.76" font-family="Courier,monospace" font-size="11.00">DatabaseConfiguration</text>
</g>
<!-- \\DatabaseConfiguration&#45;&gt;\\AppModel -->
<g id="edge7" class="edge"><title>\\DatabaseConfiguration&#45;&gt;\\AppModel</title>
<path fill="none" stroke="black" d="M720.8,-2761.86C665.959,-2766.84 594.863,-2773.3 549.084,-2777.47"/>
<polygon fill="none" stroke="black" points="548.509,-2774 538.867,-2778.4 549.143,-2780.98 548.509,-2774"/>
</g>
<!-- \\AppHelper -->
<g id="node5" class="node"><title>\\AppHelper</title>
<polygon fill="none" stroke="black" points="838,-1665.66 762,-1665.66 762,-1629.66 838,-1629.66 838,-1665.66"/>
<text text-anchor="middle" x="800" y="-1644.76" font-family="Courier,monospace" font-size="11.00">AppHelper</text>
</g>
<!-- \\Helper -->
<g id="node68" class="node"><title>\\Helper</title>
<ellipse fill="none" stroke="black" cx="503" cy="-380.656" rx="43.8406" ry="18.3848"/>
<text text-anchor="middle" x="503" y="-377.056" font-family="Times Roman,serif" font-size="14.00" fill="gray">Helper</text>
</g>
<!-- \\AppHelper&#45;&gt;\\Helper -->
<g id="edge9" class="edge"><title>\\AppHelper&#45;&gt;\\Helper</title>
<path fill="none" stroke="black" d="M791.411,-1629.55C768.915,-1581.19 708.21,-1444.47 682,-1323.66 638.474,-1123.03 745.831,-556.586 610,-402.656 596.75,-387.64 576.226,-381.269 556.683,-378.965"/>
<polygon fill="none" stroke="black" points="556.857,-375.467 546.596,-378.107 556.264,-382.442 556.857,-375.467"/>
</g>
<!-- \\NetCommonsDeleteTest -->
<g id="node6" class="node"><title>\\NetCommonsDeleteTest</title>
<polygon fill="none" stroke="black" points="1183,-2556.66 1031,-2556.66 1031,-2520.66 1183,-2520.66 1183,-2556.66"/>
<text text-anchor="middle" x="1107" y="-2535.76" font-family="Courier,monospace" font-size="11.00">NetCommonsDeleteTest</text>
</g>
<!-- \\NetCommonsModelTestCase -->
<g id="node15" class="node"><title>\\NetCommonsModelTestCase</title>
<polygon fill="none" stroke="black" points="886,-2610.66 714,-2610.66 714,-2574.66 886,-2574.66 886,-2610.66"/>
<text text-anchor="middle" x="800" y="-2589.76" font-family="Courier,monospace" font-size="11.00">NetCommonsModelTestCase</text>
</g>
<!-- \\NetCommonsDeleteTest&#45;&gt;\\NetCommonsModelTestCase -->
<g id="edge11" class="edge"><title>\\NetCommonsDeleteTest&#45;&gt;\\NetCommonsModelTestCase</title>
<path fill="none" stroke="black" d="M1030.72,-2552.07C990.025,-2559.23 939.542,-2568.11 896.184,-2575.74"/>
<polygon fill="none" stroke="black" points="895.431,-2572.32 886.189,-2577.5 896.644,-2579.21 895.431,-2572.32"/>
</g>
<!-- \\NetCommonsConsoleTestCase -->
<g id="node7" class="node"><title>\\NetCommonsConsoleTestCase</title>
<polygon fill="none" stroke="black" points="892,-2718.66 708,-2718.66 708,-2682.66 892,-2682.66 892,-2718.66"/>
<text text-anchor="middle" x="800" y="-2697.76" font-family="Courier,monospace" font-size="11.00">NetCommonsConsoleTestCase</text>
</g>
<!-- \\NetCommonsCakeTestCase -->
<g id="node13" class="node"><title>\\NetCommonsCakeTestCase</title>
<polygon fill="none" stroke="black" points="585,-2637.66 421,-2637.66 421,-2601.66 585,-2601.66 585,-2637.66"/>
<text text-anchor="middle" x="503" y="-2616.76" font-family="Courier,monospace" font-size="11.00">NetCommonsCakeTestCase</text>
</g>
<!-- \\NetCommonsConsoleTestCase&#45;&gt;\\NetCommonsCakeTestCase -->
<g id="edge13" class="edge"><title>\\NetCommonsConsoleTestCase&#45;&gt;\\NetCommonsCakeTestCase</title>
<path fill="none" stroke="black" d="M717.936,-2682.64C705.852,-2679.76 693.579,-2676.72 682,-2673.66 644.303,-2663.67 602.565,-2651.16 568.882,-2640.7"/>
<polygon fill="none" stroke="black" points="569.742,-2637.3 559.154,-2637.67 567.658,-2643.99 569.742,-2637.3"/>
</g>
<!-- \\NetCommonsGetTest -->
<g id="node8" class="node"><title>\\NetCommonsGetTest</title>
<polygon fill="none" stroke="black" points="1172,-2718.66 1042,-2718.66 1042,-2682.66 1172,-2682.66 1172,-2718.66"/>
<text text-anchor="middle" x="1107" y="-2697.76" font-family="Courier,monospace" font-size="11.00">NetCommonsGetTest</text>
</g>
<!-- \\NetCommonsGetTest&#45;&gt;\\NetCommonsModelTestCase -->
<g id="edge15" class="edge"><title>\\NetCommonsGetTest&#45;&gt;\\NetCommonsModelTestCase</title>
<path fill="none" stroke="black" d="M1041.33,-2690.54C1024.15,-2686.55 1005.97,-2681.08 990,-2673.66 953.728,-2656.79 954.288,-2636.48 918,-2619.66 910.962,-2616.39 903.501,-2613.51 895.884,-2610.96"/>
<polygon fill="none" stroke="black" points="896.762,-2607.57 886.173,-2607.92 894.666,-2614.25 896.762,-2607.57"/>
</g>
<!-- \\NetCommonsHelperTestCase -->
<g id="node9" class="node"><title>\\NetCommonsHelperTestCase</title>
<polygon fill="none" stroke="black" points="889,-2664.66 711,-2664.66 711,-2628.66 889,-2628.66 889,-2664.66"/>
<text text-anchor="middle" x="800" y="-2643.76" font-family="Courier,monospace" font-size="11.00">NetCommonsHelperTestCase</text>
</g>
<!-- \\NetCommonsHelperTestCase&#45;&gt;\\NetCommonsCakeTestCase -->
<g id="edge17" class="edge"><title>\\NetCommonsHelperTestCase&#45;&gt;\\NetCommonsCakeTestCase</title>
<path fill="none" stroke="black" d="M710.487,-2638.52C674.267,-2635.23 632.456,-2631.42 595.9,-2628.1"/>
<polygon fill="none" stroke="black" points="596.013,-2624.6 585.737,-2627.18 595.379,-2631.57 596.013,-2624.6"/>
</g>
<!-- \\NetCommonsControllerBaseTestCase -->
<g id="node10" class="node"><title>\\NetCommonsControllerBaseTestCase</title>
<polygon fill="none" stroke="black" points="916,-1314.66 684,-1314.66 684,-1278.66 916,-1278.66 916,-1314.66"/>
<text text-anchor="middle" x="800" y="-1293.76" font-family="Courier,monospace" font-size="11.00">NetCommonsControllerBaseTestCase</text>
</g>
<!-- \\ControllerTestCase -->
<g id="node74" class="node"><title>\\ControllerTestCase</title>
<ellipse fill="none" stroke="black" cx="503" cy="-326.656" rx="106.773" ry="18.3848"/>
<text text-anchor="middle" x="503" y="-323.056" font-family="Times Roman,serif" font-size="14.00" fill="gray">\ControllerTestCase</text>
</g>
<!-- \\NetCommonsControllerBaseTestCase&#45;&gt;\\ControllerTestCase -->
<g id="edge19" class="edge"><title>\\NetCommonsControllerBaseTestCase&#45;&gt;\\ControllerTestCase</title>
<path fill="none" stroke="black" d="M691.542,-1278.62C688.089,-1275.97 684.884,-1273 682,-1269.66 548.574,-1115.1 741.699,-509.688 610,-353.656 606.37,-349.355 602.164,-345.686 597.563,-342.56"/>
<polygon fill="none" stroke="black" points="599.292,-339.517 588.891,-337.501 595.765,-345.563 599.292,-339.517"/>
</g>
<!-- \\NetCommonsValidateTest -->
<g id="node11" class="node"><title>\\NetCommonsValidateTest</title>
<polygon fill="none" stroke="black" points="1189,-2664.66 1025,-2664.66 1025,-2628.66 1189,-2628.66 1189,-2664.66"/>
<text text-anchor="middle" x="1107" y="-2643.76" font-family="Courier,monospace" font-size="11.00">NetCommonsValidateTest</text>
</g>
<!-- \\NetCommonsValidateTest&#45;&gt;\\NetCommonsModelTestCase -->
<g id="edge21" class="edge"><title>\\NetCommonsValidateTest&#45;&gt;\\NetCommonsModelTestCase</title>
<path fill="none" stroke="black" d="M1024.33,-2632.11C984.786,-2625.16 937.215,-2616.79 896.074,-2609.55"/>
<polygon fill="none" stroke="black" points="896.493,-2606.07 886.037,-2607.79 895.28,-2612.97 896.493,-2606.07"/>
</g>
<!-- \\NetCommonsTestSuite -->
<g id="node12" class="node"><title>\\NetCommonsTestSuite</title>
<polygon fill="none" stroke="black" points="1179,-1152.66 1035,-1152.66 1035,-1116.66 1179,-1116.66 1179,-1152.66"/>
<text text-anchor="middle" x="1107" y="-1131.76" font-family="Courier,monospace" font-size="11.00">NetCommonsTestSuite</text>
</g>
<!-- \\CakeTestSuite -->
<g id="node77" class="node"><title>\\CakeTestSuite</title>
<ellipse fill="none" stroke="black" cx="800" cy="-380.656" rx="84.1457" ry="18.3848"/>
<text text-anchor="middle" x="800" y="-377.056" font-family="Times Roman,serif" font-size="14.00" fill="gray">\CakeTestSuite</text>
</g>
<!-- \\NetCommonsTestSuite&#45;&gt;\\CakeTestSuite -->
<g id="edge23" class="edge"><title>\\NetCommonsTestSuite&#45;&gt;\\CakeTestSuite</title>
<path fill="none" stroke="black" d="M1034.3,-1132.03C1017.57,-1127.94 1001.38,-1120.55 990,-1107.66 781.636,-871.465 1131.33,-634.369 918,-402.656 911.119,-395.182 902.58,-389.757 893.263,-385.871"/>
<polygon fill="none" stroke="black" points="894.315,-382.531 883.72,-382.48 891.97,-389.126 894.315,-382.531"/>
</g>
<!-- \\CakeTestCase -->
<g id="node79" class="node"><title>\\CakeTestCase</title>
<ellipse fill="none" stroke="black" cx="242" cy="-380.656" rx="82.0244" ry="18.3848"/>
<text text-anchor="middle" x="242" y="-377.056" font-family="Times Roman,serif" font-size="14.00" fill="gray">\CakeTestCase</text>
</g>
<!-- \\NetCommonsCakeTestCase&#45;&gt;\\CakeTestCase -->
<g id="edge25" class="edge"><title>\\NetCommonsCakeTestCase&#45;&gt;\\CakeTestCase</title>
<path fill="none" stroke="black" d="M501.183,-2601.38C490.37,-2492.35 433.697,-1916.41 396,-1445.66 386.728,-1329.86 397.836,-492.336 324,-402.656 322.279,-400.565 320.382,-398.661 318.344,-396.928"/>
<polygon fill="none" stroke="black" points="320.069,-393.865 309.854,-391.055 316.087,-399.622 320.069,-393.865"/>
</g>
<!-- \\NetCommonsSaveTest -->
<g id="node14" class="node"><title>\\NetCommonsSaveTest</title>
<polygon fill="none" stroke="black" points="1176,-2610.66 1038,-2610.66 1038,-2574.66 1176,-2574.66 1176,-2610.66"/>
<text text-anchor="middle" x="1107" y="-2589.76" font-family="Courier,monospace" font-size="11.00">NetCommonsSaveTest</text>
</g>
<!-- \\NetCommonsSaveTest&#45;&gt;\\NetCommonsModelTestCase -->
<g id="edge27" class="edge"><title>\\NetCommonsSaveTest&#45;&gt;\\NetCommonsModelTestCase</title>
<path fill="none" stroke="black" d="M1037.72,-2592.66C995.959,-2592.66 942.153,-2592.66 896.295,-2592.66"/>
<polygon fill="none" stroke="black" points="896.035,-2589.16 886.035,-2592.66 896.035,-2596.16 896.035,-2589.16"/>
</g>
<!-- \\NetCommonsModelTestCase&#45;&gt;\\NetCommonsCakeTestCase -->
<g id="edge29" class="edge"><title>\\NetCommonsModelTestCase&#45;&gt;\\NetCommonsCakeTestCase</title>
<path fill="none" stroke="black" d="M713.696,-2600.5C676.671,-2603.87 633.35,-2607.81 595.65,-2611.23"/>
<polygon fill="none" stroke="black" points="595.328,-2607.75 585.686,-2612.14 595.962,-2614.72 595.328,-2607.75"/>
</g>
<!-- \\NetCommonsControllerTestCase -->
<g id="node16" class="node"><title>\\NetCommonsControllerTestCase</title>
<polygon fill="none" stroke="black" points="1210,-1314.66 1004,-1314.66 1004,-1278.66 1210,-1278.66 1210,-1314.66"/>
<text text-anchor="middle" x="1107" y="-1293.76" font-family="Courier,monospace" font-size="11.00">NetCommonsControllerTestCase</text>
</g>
<!-- \\NetCommonsControllerTestCase&#45;&gt;\\NetCommonsControllerBaseTestCase -->
<g id="edge31" class="edge"><title>\\NetCommonsControllerTestCase&#45;&gt;\\NetCommonsControllerBaseTestCase</title>
<path fill="none" stroke="black" d="M1003.92,-1296.66C979.161,-1296.66 952.434,-1296.66 926.739,-1296.66"/>
<polygon fill="none" stroke="black" points="926.568,-1293.16 916.568,-1296.66 926.568,-1300.16 926.568,-1293.16"/>
</g>
<!-- \\NetCommonsAppController -->
<g id="node17" class="node"><title>\\NetCommonsAppController</title>
<polygon fill="none" stroke="black" points="886,-1260.66 714,-1260.66 714,-1224.66 886,-1224.66 886,-1260.66"/>
<text text-anchor="middle" x="800" y="-1239.76" font-family="Courier,monospace" font-size="11.00">NetCommonsAppController</text>
</g>
<!-- \\NetCommonsAppController&#45;&gt;\\Controller -->
<g id="edge33" class="edge"><title>\\NetCommonsAppController&#45;&gt;\\Controller</title>
<path fill="none" stroke="black" d="M793.582,-1224.39C773.945,-1167.81 714.062,-990.209 682,-838.656 656.989,-720.431 700.929,-379.246 610,-299.656 520.21,-221.063 365.571,-259.272 288.491,-285.689"/>
<polygon fill="none" stroke="black" points="287.317,-282.392 279.038,-289.004 289.633,-288.998 287.317,-282.392"/>
</g>
<!-- \\AssetComponent -->
<g id="node18" class="node"><title>\\AssetComponent</title>
<polygon fill="none" stroke="black" points="1162,-1044.66 1052,-1044.66 1052,-1008.66 1162,-1008.66 1162,-1044.66"/>
<text text-anchor="middle" x="1107" y="-1023.76" font-family="Courier,monospace" font-size="11.00">AssetComponent</text>
</g>
<!-- \\Component -->
<g id="node85" class="node"><title>\\Component</title>
<ellipse fill="none" stroke="black" cx="800" cy="-326.656" rx="70.9184" ry="18.3848"/>
<text text-anchor="middle" x="800" y="-323.056" font-family="Times Roman,serif" font-size="14.00" fill="gray">\Component</text>
</g>
<!-- \\AssetComponent&#45;&gt;\\Component -->
<g id="edge35" class="edge"><title>\\AssetComponent&#45;&gt;\\Component</title>
<path fill="none" stroke="black" d="M1051.42,-1027.08C1029.21,-1024.24 1005.32,-1016.86 990,-999.656 797.888,-783.902 1110.31,-569.231 918,-353.656 908.225,-342.698 894.994,-335.71 880.924,-331.342"/>
<polygon fill="none" stroke="black" points="881.644,-327.912 871.08,-328.72 879.842,-334.676 881.644,-327.912"/>
</g>
<!-- \\NetCommonsTimeComponent -->
<g id="node19" class="node"><title>\\NetCommonsTimeComponent</title>
<polygon fill="none" stroke="black" points="1193,-990.656 1021,-990.656 1021,-954.656 1193,-954.656 1193,-990.656"/>
<text text-anchor="middle" x="1107" y="-969.756" font-family="Courier,monospace" font-size="11.00">NetCommonsTimeComponent</text>
</g>
<!-- \\NetCommonsTimeComponent&#45;&gt;\\Component -->
<g id="edge37" class="edge"><title>\\NetCommonsTimeComponent&#45;&gt;\\Component</title>
<path fill="none" stroke="black" d="M1020.98,-965.764C1009.24,-961.379 998.364,-954.955 990,-945.656 812.751,-748.592 1095.43,-550.555 918,-353.656 908.227,-342.81 895.069,-335.863 881.082,-331.496"/>
<polygon fill="none" stroke="black" points="881.864,-328.082 871.298,-328.87 880.049,-334.843 881.864,-328.082"/>
</g>
<!-- \\PermissionComponent -->
<g id="node20" class="node"><title>\\PermissionComponent</title>
<polygon fill="none" stroke="black" points="1179,-936.656 1035,-936.656 1035,-900.656 1179,-900.656 1179,-936.656"/>
<text text-anchor="middle" x="1107" y="-915.756" font-family="Courier,monospace" font-size="11.00">PermissionComponent</text>
</g>
<!-- \\PermissionComponent&#45;&gt;\\Component -->
<g id="edge39" class="edge"><title>\\PermissionComponent&#45;&gt;\\Component</title>
<path fill="none" stroke="black" d="M1034.27,-915.711C1017.65,-911.609 1001.51,-904.296 990,-891.656 827.597,-713.265 1080.57,-531.896 918,-353.656 908.162,-342.869 894.974,-335.949 880.979,-331.59"/>
<polygon fill="none" stroke="black" points="881.757,-328.175 871.192,-328.966 879.944,-334.937 881.757,-328.175"/>
</g>
<!-- \\NetCommonsComponent -->
<g id="node21" class="node"><title>\\NetCommonsComponent</title>
<polygon fill="none" stroke="black" points="1179,-1098.66 1035,-1098.66 1035,-1062.66 1179,-1062.66 1179,-1098.66"/>
<text text-anchor="middle" x="1107" y="-1077.76" font-family="Courier,monospace" font-size="11.00">NetCommonsComponent</text>
</g>
<!-- \\NetCommonsComponent&#45;&gt;\\Component -->
<g id="edge41" class="edge"><title>\\NetCommonsComponent&#45;&gt;\\Component</title>
<path fill="none" stroke="black" d="M1034.31,-1078.03C1017.58,-1073.94 1001.38,-1066.55 990,-1053.66 783.013,-819.198 1125.2,-587.922 918,-353.656 908.271,-342.656 895.062,-335.65 880.998,-331.276"/>
<polygon fill="none" stroke="black" points="881.72,-327.847 871.156,-328.652 879.917,-334.611 881.72,-327.847"/>
</g>
<!-- \\NetCommonsController -->
<g id="node22" class="node"><title>\\NetCommonsController</title>
<polygon fill="none" stroke="black" points="1183,-1260.66 1031,-1260.66 1031,-1224.66 1183,-1224.66 1183,-1260.66"/>
<text text-anchor="middle" x="1107" y="-1239.76" font-family="Courier,monospace" font-size="11.00">NetCommonsController</text>
</g>
<!-- \\NetCommonsController&#45;&gt;\\NetCommonsAppController -->
<g id="edge43" class="edge"><title>\\NetCommonsController&#45;&gt;\\NetCommonsAppController</title>
<path fill="none" stroke="black" d="M1030.72,-1242.66C990.111,-1242.66 939.755,-1242.66 896.457,-1242.66"/>
<polygon fill="none" stroke="black" points="896.189,-1239.16 886.189,-1242.66 896.189,-1246.16 896.189,-1239.16"/>
</g>
<!-- \\NetCommonsUrl -->
<g id="node23" class="node"><title>\\NetCommonsUrl</title>
<polygon fill="none" stroke="black" points="1159,-2286.66 1055,-2286.66 1055,-2250.66 1159,-2250.66 1159,-2286.66"/>
<text text-anchor="middle" x="1107" y="-2265.76" font-family="Courier,monospace" font-size="11.00">NetCommonsUrl</text>
</g>
<!-- \\NetCommonsTime -->
<g id="node24" class="node"><title>\\NetCommonsTime</title>
<polygon fill="none" stroke="black" points="1162,-2232.66 1052,-2232.66 1052,-2196.66 1162,-2196.66 1162,-2232.66"/>
<text text-anchor="middle" x="1107" y="-2211.76" font-family="Courier,monospace" font-size="11.00">NetCommonsTime</text>
</g>
<!-- \\CurrentBase -->
<g id="node25" class="node"><title>\\CurrentBase</title>
<polygon fill="none" stroke="black" points="845,-2340.66 755,-2340.66 755,-2304.66 845,-2304.66 845,-2340.66"/>
<text text-anchor="middle" x="800" y="-2319.76" font-family="Courier,monospace" font-size="11.00">CurrentBase</text>
</g>
<!-- \\Current -->
<g id="node26" class="node"><title>\\Current</title>
<polygon fill="none" stroke="black" points="1139,-2340.66 1075,-2340.66 1075,-2304.66 1139,-2304.66 1139,-2340.66"/>
<text text-anchor="middle" x="1107" y="-2319.76" font-family="Courier,monospace" font-size="11.00">Current</text>
</g>
<!-- \\Current&#45;&gt;\\CurrentBase -->
<g id="edge45" class="edge"><title>\\Current&#45;&gt;\\CurrentBase</title>
<path fill="none" stroke="black" d="M1074.73,-2322.66C1022.81,-2322.66 920.103,-2322.66 856.033,-2322.66"/>
<polygon fill="none" stroke="black" points="855.707,-2319.16 845.707,-2322.66 855.707,-2326.16 855.707,-2319.16"/>
</g>
<!-- \\CurrentSystem -->
<g id="node27" class="node"><title>\\CurrentSystem</title>
<polygon fill="none" stroke="black" points="1159,-2124.66 1055,-2124.66 1055,-2088.66 1159,-2088.66 1159,-2124.66"/>
<text text-anchor="middle" x="1107" y="-2103.76" font-family="Courier,monospace" font-size="11.00">CurrentSystem</text>
</g>
<!-- \\CurrentPage -->
<g id="node28" class="node"><title>\\CurrentPage</title>
<polygon fill="none" stroke="black" points="1152,-2070.66 1062,-2070.66 1062,-2034.66 1152,-2034.66 1152,-2070.66"/>
<text text-anchor="middle" x="1107" y="-2049.76" font-family="Courier,monospace" font-size="11.00">CurrentPage</text>
</g>
<!-- \\CurrentFrame -->
<g id="node29" class="node"><title>\\CurrentFrame</title>
<polygon fill="none" stroke="black" points="1156,-2016.66 1058,-2016.66 1058,-1980.66 1156,-1980.66 1156,-2016.66"/>
<text text-anchor="middle" x="1107" y="-1995.76" font-family="Courier,monospace" font-size="11.00">CurrentFrame</text>
</g>
<!-- \\TokenHelper -->
<g id="node30" class="node"><title>\\TokenHelper</title>
<polygon fill="none" stroke="black" points="1152,-828.656 1062,-828.656 1062,-792.656 1152,-792.656 1152,-828.656"/>
<text text-anchor="middle" x="1107" y="-807.756" font-family="Courier,monospace" font-size="11.00">TokenHelper</text>
</g>
<!-- \\FormHelper -->
<g id="node92" class="node"><title>\\FormHelper</title>
<ellipse fill="none" stroke="black" cx="800" cy="-272.656" rx="70.9184" ry="18.3848"/>
<text text-anchor="middle" x="800" y="-269.056" font-family="Times Roman,serif" font-size="14.00" fill="gray">\FormHelper</text>
</g>
<!-- \\TokenHelper&#45;&gt;\\FormHelper -->
<g id="edge47" class="edge"><title>\\TokenHelper&#45;&gt;\\FormHelper</title>
<path fill="none" stroke="black" d="M1061.5,-811.811C1036.9,-809.899 1007.97,-803.102 990,-783.656 842.422,-623.914 1065.73,-459.261 918,-299.656 908.083,-288.942 894.859,-282.054 880.853,-277.705"/>
<polygon fill="none" stroke="black" points="881.628,-274.29 871.063,-275.084 879.818,-281.051 881.628,-274.29"/>
</g>
<!-- \\SingletonViewBlockHtmlHelper -->
<g id="node31" class="node"><title>\\SingletonViewBlockHtmlHelper</title>
<polygon fill="none" stroke="black" points="1210,-720.656 1004,-720.656 1004,-684.656 1210,-684.656 1210,-720.656"/>
<text text-anchor="middle" x="1107" y="-699.756" font-family="Courier,monospace" font-size="11.00">SingletonViewBlockHtmlHelper</text>
</g>
<!-- \\HtmlHelper -->
<g id="node94" class="node"><title>\\HtmlHelper</title>
<ellipse fill="none" stroke="black" cx="800" cy="-218.656" rx="67.1751" ry="18.3848"/>
<text text-anchor="middle" x="800" y="-215.056" font-family="Times Roman,serif" font-size="14.00" fill="gray">HtmlHelper</text>
</g>
<!-- \\SingletonViewBlockHtmlHelper&#45;&gt;\\HtmlHelper -->
<g id="edge49" class="edge"><title>\\SingletonViewBlockHtmlHelper&#45;&gt;\\HtmlHelper</title>
<path fill="none" stroke="black" d="M1003.94,-687.003C998.848,-683.811 994.143,-680.059 990,-675.656 857.218,-534.531 1050.91,-386.658 918,-245.656 907.121,-234.115 892.401,-227.032 877.051,-222.782"/>
<polygon fill="none" stroke="black" points="877.444,-219.278 866.906,-220.379 875.83,-226.09 877.444,-219.278"/>
</g>
<!-- \\FormInputHelper -->
<g id="node32" class="node"><title>\\FormInputHelper</title>
<polygon fill="none" stroke="black" points="1166,-1962.66 1048,-1962.66 1048,-1926.66 1166,-1926.66 1166,-1962.66"/>
<text text-anchor="middle" x="1107" y="-1941.76" font-family="Courier,monospace" font-size="11.00">FormInputHelper</text>
</g>
<!-- \\FormInputHelper&#45;&gt;\\AppHelper -->
<g id="edge51" class="edge"><title>\\FormInputHelper&#45;&gt;\\AppHelper</title>
<path fill="none" stroke="black" d="M1047.98,-1939.59C1028.28,-1935.76 1007.04,-1929.12 990,-1917.66 897.1,-1855.16 835.348,-1730.83 811.299,-1675.42"/>
<polygon fill="none" stroke="black" points="814.387,-1673.74 807.249,-1665.91 807.946,-1676.48 814.387,-1673.74"/>
</g>
<!-- \\WizardHelper -->
<g id="node33" class="node"><title>\\WizardHelper</title>
<polygon fill="none" stroke="black" points="1156,-1908.66 1058,-1908.66 1058,-1872.66 1156,-1872.66 1156,-1908.66"/>
<text text-anchor="middle" x="1107" y="-1887.76" font-family="Courier,monospace" font-size="11.00">WizardHelper</text>
</g>
<!-- \\WizardHelper&#45;&gt;\\AppHelper -->
<g id="edge53" class="edge"><title>\\WizardHelper&#45;&gt;\\AppHelper</title>
<path fill="none" stroke="black" d="M1057.78,-1886.19C1035.84,-1882.52 1010.41,-1875.83 990,-1863.66 908.985,-1815.31 844.076,-1720.7 815.617,-1674.43"/>
<polygon fill="none" stroke="black" points="818.593,-1672.58 810.418,-1665.84 812.606,-1676.21 818.593,-1672.58"/>
</g>
<!-- \\DisplayNumberHelper -->
<g id="node34" class="node"><title>\\DisplayNumberHelper</title>
<polygon fill="none" stroke="black" points="1179,-1854.66 1035,-1854.66 1035,-1818.66 1179,-1818.66 1179,-1854.66"/>
<text text-anchor="middle" x="1107" y="-1833.76" font-family="Courier,monospace" font-size="11.00">DisplayNumberHelper</text>
</g>
<!-- \\DisplayNumberHelper&#45;&gt;\\AppHelper -->
<g id="edge55" class="edge"><title>\\DisplayNumberHelper&#45;&gt;\\AppHelper</title>
<path fill="none" stroke="black" d="M1034.26,-1825.56C1019.16,-1821.71 1003.69,-1816.55 990,-1809.66 920.708,-1774.77 855.441,-1709.49 822.436,-1673.36"/>
<polygon fill="none" stroke="black" points="824.812,-1670.77 815.514,-1665.69 819.615,-1675.46 824.812,-1670.77"/>
</g>
<!-- \\MessageFlashHelper -->
<g id="node35" class="node"><title>\\MessageFlashHelper</title>
<polygon fill="none" stroke="black" points="1176,-1800.66 1038,-1800.66 1038,-1764.66 1176,-1764.66 1176,-1800.66"/>
<text text-anchor="middle" x="1107" y="-1779.76" font-family="Courier,monospace" font-size="11.00">MessageFlashHelper</text>
</g>
<!-- \\MessageFlashHelper&#45;&gt;\\AppHelper -->
<g id="edge57" class="edge"><title>\\MessageFlashHelper&#45;&gt;\\AppHelper</title>
<path fill="none" stroke="black" d="M1037.94,-1770.22C1021.93,-1766.38 1005.15,-1761.56 990,-1755.66 932.566,-1733.26 871.502,-1695.79 834.551,-1671.4"/>
<polygon fill="none" stroke="black" points="836.407,-1668.43 826.143,-1665.8 832.527,-1674.26 836.407,-1668.43"/>
</g>
<!-- \\DateHelper -->
<g id="node36" class="node"><title>\\DateHelper</title>
<polygon fill="none" stroke="black" points="1149,-1746.66 1065,-1746.66 1065,-1710.66 1149,-1710.66 1149,-1746.66"/>
<text text-anchor="middle" x="1107" y="-1725.76" font-family="Courier,monospace" font-size="11.00">DateHelper</text>
</g>
<!-- \\DateHelper&#45;&gt;\\AppHelper -->
<g id="edge59" class="edge"><title>\\DateHelper&#45;&gt;\\AppHelper</title>
<path fill="none" stroke="black" d="M1064.91,-1719.48C1042.58,-1714.48 1014.73,-1708.02 990,-1701.66 941.679,-1689.22 886.91,-1673.48 848.632,-1662.2"/>
<polygon fill="none" stroke="black" points="849.363,-1658.77 838.781,-1659.29 847.38,-1665.48 849.363,-1658.77"/>
</g>
<!-- \\SnsButtonHelper -->
<g id="node37" class="node"><title>\\SnsButtonHelper</title>
<polygon fill="none" stroke="black" points="1166,-1692.66 1048,-1692.66 1048,-1656.66 1166,-1656.66 1166,-1692.66"/>
<text text-anchor="middle" x="1107" y="-1671.76" font-family="Courier,monospace" font-size="11.00">SnsButtonHelper</text>
</g>
<!-- \\SnsButtonHelper&#45;&gt;\\AppHelper -->
<g id="edge61" class="edge"><title>\\SnsButtonHelper&#45;&gt;\\AppHelper</title>
<path fill="none" stroke="black" d="M1047.81,-1669.45C989.861,-1664.35 902.64,-1656.68 848.623,-1651.93"/>
<polygon fill="none" stroke="black" points="848.878,-1648.44 838.61,-1651.05 848.265,-1655.41 848.878,-1648.44"/>
</g>
<!-- \\BackToHelper -->
<g id="node38" class="node"><title>\\BackToHelper</title>
<polygon fill="none" stroke="black" points="1156,-1638.66 1058,-1638.66 1058,-1602.66 1156,-1602.66 1156,-1638.66"/>
<text text-anchor="middle" x="1107" y="-1617.76" font-family="Courier,monospace" font-size="11.00">BackToHelper</text>
</g>
<!-- \\BackToHelper&#45;&gt;\\AppHelper -->
<g id="edge63" class="edge"><title>\\BackToHelper&#45;&gt;\\AppHelper</title>
<path fill="none" stroke="black" d="M1057.68,-1624.99C1000.23,-1630.05 905.936,-1638.34 848.743,-1643.37"/>
<polygon fill="none" stroke="black" points="848.168,-1639.91 838.513,-1644.27 848.781,-1646.88 848.168,-1639.91"/>
</g>
<!-- \\NetCommonsHtmlHelper -->
<g id="node39" class="node"><title>\\NetCommonsHtmlHelper</title>
<polygon fill="none" stroke="black" points="1183,-1584.66 1031,-1584.66 1031,-1548.66 1183,-1548.66 1183,-1584.66"/>
<text text-anchor="middle" x="1107" y="-1563.76" font-family="Courier,monospace" font-size="11.00">NetCommonsHtmlHelper</text>
</g>
<!-- \\NetCommonsHtmlHelper&#45;&gt;\\AppHelper -->
<g id="edge65" class="edge"><title>\\NetCommonsHtmlHelper&#45;&gt;\\AppHelper</title>
<path fill="none" stroke="black" d="M1030.71,-1583.68C1017.12,-1586.88 1003.12,-1590.28 990,-1593.66 941.679,-1606.09 886.91,-1621.83 848.632,-1633.11"/>
<polygon fill="none" stroke="black" points="847.38,-1629.83 838.781,-1636.02 849.363,-1636.54 847.38,-1629.83"/>
</g>
<!-- \\ButtonHelper -->
<g id="node40" class="node"><title>\\ButtonHelper</title>
<polygon fill="none" stroke="black" points="1156,-774.656 1058,-774.656 1058,-738.656 1156,-738.656 1156,-774.656"/>
<text text-anchor="middle" x="1107" y="-753.756" font-family="Courier,monospace" font-size="11.00">ButtonHelper</text>
</g>
<!-- \\ButtonHelper&#45;&gt;\\FormHelper -->
<g id="edge67" class="edge"><title>\\ButtonHelper&#45;&gt;\\FormHelper</title>
<path fill="none" stroke="black" d="M1057.83,-757.347C1034.14,-755.005 1007.21,-747.951 990,-729.656 857.218,-588.531 1050.91,-440.658 918,-299.656 907.986,-289.032 894.718,-282.186 880.698,-277.85"/>
<polygon fill="none" stroke="black" points="881.468,-274.433 870.904,-275.233 879.661,-281.196 881.468,-274.433"/>
</g>
<!-- \\ComposerHelper -->
<g id="node41" class="node"><title>\\ComposerHelper</title>
<polygon fill="none" stroke="black" points="1162,-1530.66 1052,-1530.66 1052,-1494.66 1162,-1494.66 1162,-1530.66"/>
<text text-anchor="middle" x="1107" y="-1509.76" font-family="Courier,monospace" font-size="11.00">ComposerHelper</text>
</g>
<!-- \\ComposerHelper&#45;&gt;\\AppHelper -->
<g id="edge69" class="edge"><title>\\ComposerHelper&#45;&gt;\\AppHelper</title>
<path fill="none" stroke="black" d="M1051.25,-1522.08C1031.52,-1526.31 1009.42,-1532.08 990,-1539.66 932.566,-1562.05 871.502,-1599.52 834.551,-1623.91"/>
<polygon fill="none" stroke="black" points="832.527,-1621.06 826.143,-1629.51 836.407,-1626.88 832.527,-1621.06"/>
</g>
<!-- \\LinkButtonHelper -->
<g id="node42" class="node"><title>\\LinkButtonHelper</title>
<polygon fill="none" stroke="black" points="1169,-882.656 1045,-882.656 1045,-846.656 1169,-846.656 1169,-882.656"/>
<text text-anchor="middle" x="1107" y="-861.756" font-family="Courier,monospace" font-size="11.00">LinkButtonHelper</text>
</g>
<!-- \\LinkButtonHelper&#45;&gt;\\FormHelper -->
<g id="edge71" class="edge"><title>\\LinkButtonHelper&#45;&gt;\\FormHelper</title>
<path fill="none" stroke="black" d="M1044.33,-863.814C1024.33,-860.336 1003.82,-852.84 990,-837.656 827.597,-659.265 1080.57,-477.896 918,-299.656 908.162,-288.869 894.974,-281.949 880.979,-277.59"/>
<polygon fill="none" stroke="black" points="881.757,-274.175 871.192,-274.966 879.944,-280.937 881.757,-274.175"/>
</g>
<!-- \\NetCommonsTimeHelper -->
<g id="node43" class="node"><title>\\NetCommonsTimeHelper</title>
<polygon fill="none" stroke="black" points="1183,-1476.66 1031,-1476.66 1031,-1440.66 1183,-1440.66 1183,-1476.66"/>
<text text-anchor="middle" x="1107" y="-1455.76" font-family="Courier,monospace" font-size="11.00">NetCommonsTimeHelper</text>
</g>
<!-- \\NetCommonsTimeHelper&#45;&gt;\\AppHelper -->
<g id="edge73" class="edge"><title>\\NetCommonsTimeHelper&#45;&gt;\\AppHelper</title>
<path fill="none" stroke="black" d="M1030.86,-1470.64C1016.85,-1474.39 1002.66,-1479.28 990,-1485.66 920.708,-1520.54 855.441,-1585.82 822.436,-1621.95"/>
<polygon fill="none" stroke="black" points="819.615,-1619.86 815.514,-1629.62 824.812,-1624.55 819.615,-1619.86"/>
</g>
<!-- \\NetCommonsFormHelper -->
<g id="node44" class="node"><title>\\NetCommonsFormHelper</title>
<polygon fill="none" stroke="black" points="1183,-1422.66 1031,-1422.66 1031,-1386.66 1183,-1386.66 1183,-1422.66"/>
<text text-anchor="middle" x="1107" y="-1401.76" font-family="Courier,monospace" font-size="11.00">NetCommonsFormHelper</text>
</g>
<!-- \\NetCommonsFormHelper&#45;&gt;\\AppHelper -->
<g id="edge75" class="edge"><title>\\NetCommonsFormHelper&#45;&gt;\\AppHelper</title>
<path fill="none" stroke="black" d="M1031,-1414.94C1016.75,-1418.85 1002.44,-1424.23 990,-1431.66 908.985,-1480.01 844.076,-1574.62 815.617,-1620.89"/>
<polygon fill="none" stroke="black" points="812.606,-1619.1 810.418,-1629.47 818.593,-1622.73 812.606,-1619.1"/>
</g>
<!-- \\TitleIconHelper -->
<g id="node45" class="node"><title>\\TitleIconHelper</title>
<polygon fill="none" stroke="black" points="1166,-1368.66 1048,-1368.66 1048,-1332.66 1166,-1332.66 1166,-1368.66"/>
<text text-anchor="middle" x="1107" y="-1347.76" font-family="Courier,monospace" font-size="11.00">TitleIconHelper</text>
</g>
<!-- \\TitleIconHelper&#45;&gt;\\AppHelper -->
<g id="edge77" class="edge"><title>\\TitleIconHelper&#45;&gt;\\AppHelper</title>
<path fill="none" stroke="black" d="M1047.98,-1355.73C1028.28,-1359.56 1007.04,-1366.19 990,-1377.66 897.1,-1440.15 835.348,-1564.48 811.299,-1619.89"/>
<polygon fill="none" stroke="black" points="807.946,-1618.83 807.249,-1629.4 814.387,-1621.57 807.946,-1618.83"/>
</g>
<!-- \\DatetimePickerHelper -->
<g id="node46" class="node"><title>\\DatetimePickerHelper</title>
<polygon fill="none" stroke="black" points="1183,-2178.66 1031,-2178.66 1031,-2142.66 1183,-2142.66 1183,-2178.66"/>
<text text-anchor="middle" x="1107" y="-2157.76" font-family="Courier,monospace" font-size="11.00">DatetimePickerHelper</text>
</g>
<!-- \\DatetimePickerHelper&#45;&gt;\\AppHelper -->
<g id="edge79" class="edge"><title>\\DatetimePickerHelper&#45;&gt;\\AppHelper</title>
<path fill="none" stroke="black" d="M1030.77,-2154.24C1015.98,-2150.07 1001.52,-2143.6 990,-2133.66 845.507,-2008.84 810.15,-1760.13 802.166,-1676.13"/>
<polygon fill="none" stroke="black" points="805.642,-1675.71 801.267,-1666.06 798.67,-1676.33 805.642,-1675.71"/>
</g>
<!-- \\Model -->
<g id="node111" class="node"><title>\\Model</title>
<ellipse fill="none" stroke="black" cx="44" cy="-2781.66" rx="43.8406" ry="18.3848"/>
<text text-anchor="middle" x="44" y="-2778.06" font-family="Times Roman,serif" font-size="14.00" fill="gray">\Model</text>
</g>
<!-- \\NetCommonsAppModel&#45;&gt;\\Model -->
<g id="edge81" class="edge"><title>\\NetCommonsAppModel&#45;&gt;\\Model</title>
<path fill="none" stroke="black" d="M172.749,-2781.66C148.379,-2781.66 121.357,-2781.66 98.3871,-2781.66"/>
<polygon fill="none" stroke="black" points="98.1425,-2778.16 88.1425,-2781.66 98.1424,-2785.16 98.1425,-2778.16"/>
</g>
<!-- \\OriginalKeyBehavior -->
<g id="node48" class="node"><title>\\OriginalKeyBehavior</title>
<polygon fill="none" stroke="black" points="1179,-666.656 1035,-666.656 1035,-630.656 1179,-630.656 1179,-666.656"/>
<text text-anchor="middle" x="1107" y="-645.756" font-family="Courier,monospace" font-size="11.00">OriginalKeyBehavior</text>
</g>
<!-- \\ModelBehavior -->
<g id="node113" class="node"><title>\\ModelBehavior</title>
<ellipse fill="none" stroke="black" cx="800" cy="-164.656" rx="86.9741" ry="18.3848"/>
<text text-anchor="middle" x="800" y="-161.056" font-family="Times Roman,serif" font-size="14.00" fill="gray">\ModelBehavior</text>
</g>
<!-- \\OriginalKeyBehavior&#45;&gt;\\ModelBehavior -->
<g id="edge83" class="edge"><title>\\OriginalKeyBehavior&#45;&gt;\\ModelBehavior</title>
<path fill="none" stroke="black" d="M1034.25,-645.371C1017.73,-641.261 1001.64,-634.03 990,-621.656 857.218,-480.531 1050.91,-332.658 918,-191.656 910.736,-183.949 901.758,-178.231 892.025,-174.016"/>
<polygon fill="none" stroke="black" points="893.083,-170.674 882.491,-170.42 890.613,-177.224 893.083,-170.674"/>
</g>
<!-- \\TrackableBehavior -->
<g id="node49" class="node"><title>\\TrackableBehavior</title>
<polygon fill="none" stroke="black" points="1172,-612.656 1042,-612.656 1042,-576.656 1172,-576.656 1172,-612.656"/>
<text text-anchor="middle" x="1107" y="-591.756" font-family="Courier,monospace" font-size="11.00">TrackableBehavior</text>
</g>
<!-- \\TrackableBehavior&#45;&gt;\\ModelBehavior -->
<g id="edge85" class="edge"><title>\\TrackableBehavior&#45;&gt;\\ModelBehavior</title>
<path fill="none" stroke="black" d="M1041.46,-592.74C1022.57,-589.001 1003.45,-581.62 990,-567.656 871.971,-445.103 1036.14,-314.099 918,-191.656 910.646,-184.035 901.615,-178.367 891.852,-174.181"/>
<polygon fill="none" stroke="black" points="892.89,-170.832 882.298,-170.604 890.436,-177.388 892.89,-170.832"/>
</g>
<!-- \\YAExceptionRenderer -->
<g id="node50" class="node"><title>\\YAExceptionRenderer</title>
<polygon fill="none" stroke="black" points="1179,-558.656 1035,-558.656 1035,-522.656 1179,-522.656 1179,-558.656"/>
<text text-anchor="middle" x="1107" y="-537.756" font-family="Courier,monospace" font-size="11.00">YAExceptionRenderer</text>
</g>
<!-- \\ExceptionRenderer -->
<g id="node116" class="node"><title>\\ExceptionRenderer</title>
<ellipse fill="none" stroke="black" cx="800" cy="-110.656" rx="118.087" ry="18.3848"/>
<text text-anchor="middle" x="800" y="-107.056" font-family="Times Roman,serif" font-size="14.00" fill="gray">TEHxceptionRenderer</text>
</g>
<!-- \\YAExceptionRenderer&#45;&gt;\\ExceptionRenderer -->
<g id="edge87" class="edge"><title>\\YAExceptionRenderer&#45;&gt;\\ExceptionRenderer</title>
<path fill="none" stroke="black" d="M1034.45,-537.181C1017.93,-533.075 1001.79,-525.893 990,-513.656 871.971,-391.103 1036.14,-260.099 918,-137.656 913.747,-133.248 908.932,-129.493 903.739,-126.301"/>
<polygon fill="none" stroke="black" points="905.142,-123.082 894.675,-121.443 901.836,-129.252 905.142,-123.082"/>
</g>
<!-- \\NetCommonsMigration -->
<g id="node51" class="node"><title>\\NetCommonsMigration</title>
<polygon fill="none" stroke="black" points="872,-829.656 728,-829.656 728,-793.656 872,-793.656 872,-829.656"/>
<text text-anchor="middle" x="800" y="-808.756" font-family="Courier,monospace" font-size="11.00">NetCommonsMigration</text>
</g>
<!-- \\CakeMigration -->
<g id="node118" class="node"><title>\\CakeMigration</title>
<ellipse fill="none" stroke="black" cx="503" cy="-122.656" rx="84.8528" ry="18.3848"/>
<text text-anchor="middle" x="503" y="-119.056" font-family="Times Roman,serif" font-size="14.00" fill="gray">\CakeMigration</text>
</g>
<!-- \\NetCommonsMigration&#45;&gt;\\CakeMigration -->
<g id="edge89" class="edge"><title>\\NetCommonsMigration&#45;&gt;\\CakeMigration</title>
<path fill="none" stroke="black" d="M727.215,-812.183C710.337,-808.806 693.865,-802.098 682,-789.656 520.075,-619.848 698.756,-483.858 610,-266.656 590.913,-219.946 553.132,-174.686 527.961,-147.747"/>
<polygon fill="none" stroke="black" points="530.331,-145.16 520.906,-140.321 525.257,-149.982 530.331,-145.16"/>
</g>
<!-- \\RssReaderFrameSettingsController -->
<g id="node52" class="node"><title>\\RssReaderFrameSettingsController</title>
<polygon fill="none" stroke="black" points="1223,-2448.66 991,-2448.66 991,-2412.66 1223,-2412.66 1223,-2448.66"/>
<text text-anchor="middle" x="1107" y="-2427.76" font-family="Courier,monospace" font-size="11.00">RssReaderFrameSettingsController</text>
</g>
<!-- \\RssReadersAppController -->
<g id="node54" class="node"><title>\\RssReadersAppController</title>
<polygon fill="none" stroke="black" points="886,-2421.66 714,-2421.66 714,-2385.66 886,-2385.66 886,-2421.66"/>
<text text-anchor="middle" x="800" y="-2400.76" font-family="Courier,monospace" font-size="11.00">RssReadersAppController</text>
</g>
<!-- \\RssReaderFrameSettingsController&#45;&gt;\\RssReadersAppController -->
<g id="edge91" class="edge"><title>\\RssReaderFrameSettingsController&#45;&gt;\\RssReadersAppController</title>
<path fill="none" stroke="black" d="M990.499,-2420.41C959.41,-2417.68 926.167,-2414.75 896.297,-2412.13"/>
<polygon fill="none" stroke="black" points="896.573,-2408.64 886.305,-2411.25 895.96,-2415.61 896.573,-2408.64"/>
</g>
<!-- \\RssReadersController -->
<g id="node53" class="node"><title>\\RssReadersController</title>
<polygon fill="none" stroke="black" points="1183,-2394.66 1031,-2394.66 1031,-2358.66 1183,-2358.66 1183,-2394.66"/>
<text text-anchor="middle" x="1107" y="-2373.76" font-family="Courier,monospace" font-size="11.00">RssReadersController</text>
</g>
<!-- \\RssReadersController&#45;&gt;\\RssReadersAppController -->
<g id="edge93" class="edge"><title>\\RssReadersController&#45;&gt;\\RssReadersAppController</title>
<path fill="none" stroke="black" d="M1030.72,-2383.36C990.025,-2386.94 939.542,-2391.38 896.184,-2395.2"/>
<polygon fill="none" stroke="black" points="895.844,-2391.71 886.189,-2396.08 896.457,-2398.69 895.844,-2391.71"/>
</g>
<!-- \\RssReadersAppController&#45;&gt;\\AppController -->
<g id="edge95" class="edge"><title>\\RssReadersAppController&#45;&gt;\\AppController</title>
<path fill="none" stroke="black" d="M732.528,-2385.63C713.643,-2377.51 694.803,-2365.96 682,-2349.66 566.931,-2203.15 515.401,-1587.78 505.014,-1447.3"/>
<polygon fill="none" stroke="black" points="508.478,-1446.67 504.26,-1436.95 501.496,-1447.18 508.478,-1446.67"/>
</g>
<!-- \\RssReaderBlocksController -->
<g id="node55" class="node"><title>\\RssReaderBlocksController</title>
<polygon fill="none" stroke="black" points="1199,-2502.66 1015,-2502.66 1015,-2466.66 1199,-2466.66 1199,-2502.66"/>
<text text-anchor="middle" x="1107" y="-2481.76" font-family="Courier,monospace" font-size="11.00">RssReaderBlocksController</text>
</g>
<!-- \\RssReaderBlocksController&#45;&gt;\\RssReadersAppController -->
<g id="edge97" class="edge"><title>\\RssReaderBlocksController&#45;&gt;\\RssReadersAppController</title>
<path fill="none" stroke="black" d="M1026.31,-2466.59C1014.12,-2463.7 1001.71,-2460.67 990,-2457.66 950.233,-2447.42 906.098,-2434.95 870.383,-2424.57"/>
<polygon fill="none" stroke="black" points="871.123,-2421.14 860.543,-2421.7 869.164,-2427.86 871.123,-2421.14"/>
</g>
<!-- \\RssReaderFrameSetting -->
<g id="node56" class="node"><title>\\RssReaderFrameSetting</title>
<polygon fill="none" stroke="black" points="1186,-2826.66 1028,-2826.66 1028,-2790.66 1186,-2790.66 1186,-2826.66"/>
<text text-anchor="middle" x="1107" y="-2805.76" font-family="Courier,monospace" font-size="11.00">RssReaderFrameSetting</text>
</g>
<!-- \\RssReadersAppModel -->
<g id="node58" class="node"><title>\\RssReadersAppModel</title>
<polygon fill="none" stroke="black" points="869,-2826.66 731,-2826.66 731,-2790.66 869,-2790.66 869,-2826.66"/>
<text text-anchor="middle" x="800" y="-2805.76" font-family="Courier,monospace" font-size="11.00">RssReadersAppModel</text>
</g>
<!-- \\RssReaderFrameSetting&#45;&gt;\\RssReadersAppModel -->
<g id="edge99" class="edge"><title>\\RssReaderFrameSetting&#45;&gt;\\RssReadersAppModel</title>
<path fill="none" stroke="black" d="M1027.94,-2808.66C982.271,-2808.66 925.002,-2808.66 879.294,-2808.66"/>
<polygon fill="none" stroke="black" points="879.132,-2805.16 869.131,-2808.66 879.131,-2812.16 879.132,-2805.16"/>
</g>
<!-- \\RssReader -->
<g id="node57" class="node"><title>\\RssReader</title>
<polygon fill="none" stroke="black" points="1145,-2772.66 1069,-2772.66 1069,-2736.66 1145,-2736.66 1145,-2772.66"/>
<text text-anchor="middle" x="1107" y="-2751.76" font-family="Courier,monospace" font-size="11.00">RssReader</text>
</g>
<!-- \\RssReader&#45;&gt;\\RssReadersAppModel -->
<g id="edge101" class="edge"><title>\\RssReader&#45;&gt;\\RssReadersAppModel</title>
<path fill="none" stroke="black" d="M1068.43,-2761.44C1021.14,-2769.76 939.795,-2784.07 879.016,-2794.76"/>
<polygon fill="none" stroke="black" points="878.308,-2791.33 869.066,-2796.51 879.521,-2798.22 878.308,-2791.33"/>
</g>
<!-- \\RssReadersAppModel&#45;&gt;\\AppModel -->
<g id="edge103" class="edge"><title>\\RssReadersAppModel&#45;&gt;\\AppModel</title>
<path fill="none" stroke="black" d="M730.742,-2802.36C674.69,-2797.26 597.337,-2790.23 548.757,-2785.82"/>
<polygon fill="none" stroke="black" points="548.824,-2782.31 538.548,-2784.89 548.19,-2789.28 548.824,-2782.31"/>
</g>
<!-- \\RssReaderItem -->
<g id="node59" class="node"><title>\\RssReaderItem</title>
<polygon fill="none" stroke="black" points="1159,-2880.66 1055,-2880.66 1055,-2844.66 1159,-2844.66 1159,-2880.66"/>
<text text-anchor="middle" x="1107" y="-2859.76" font-family="Courier,monospace" font-size="11.00">RssReaderItem</text>
</g>
<!-- \\RssReaderItem&#45;&gt;\\RssReadersAppModel -->
<g id="edge105" class="edge"><title>\\RssReaderItem&#45;&gt;\\RssReadersAppModel</title>
<path fill="none" stroke="black" d="M1054.92,-2853.5C1006.77,-2845.03 934.513,-2832.32 879.21,-2822.59"/>
<polygon fill="none" stroke="black" points="879.546,-2819.09 869.091,-2820.81 878.334,-2825.99 879.546,-2819.09"/>
</g>
<!-- \\RssReadersSchema -->
<g id="node60" class="node"><title>\\RssReadersSchema</title>
<polygon fill="none" stroke="black" points="1169,-504.656 1045,-504.656 1045,-468.656 1169,-468.656 1169,-504.656"/>
<text text-anchor="middle" x="1107" y="-483.756" font-family="Courier,monospace" font-size="11.00">RssReadersSchema</text>
</g>
<!-- \\CakeSchema -->
<g id="node128" class="node"><title>\\CakeSchema</title>
<ellipse fill="none" stroke="black" cx="800" cy="-56.6559" rx="77.0746" ry="18.3848"/>
<text text-anchor="middle" x="800" y="-53.0559" font-family="Times Roman,serif" font-size="14.00" fill="gray">\CakeSchema</text>
</g>
<!-- \\RssReadersSchema&#45;&gt;\\CakeSchema -->
<g id="edge107" class="edge"><title>\\RssReadersSchema&#45;&gt;\\CakeSchema</title>
<path fill="none" stroke="black" d="M1044.2,-485.258C1024.43,-481.7 1004.1,-474.296 990,-459.656 871.971,-337.103 1036.14,-206.099 918,-83.6559 908.93,-74.2557 897.308,-67.8286 884.908,-63.4849"/>
<polygon fill="none" stroke="black" points="885.89,-60.1252 875.304,-60.5547 883.847,-66.8205 885.89,-60.1252"/>
</g>
<!-- \\Init -->
<g id="node61" class="node"><title>\\Init</title>
<polygon fill="none" stroke="black" points="1134,-450.656 1080,-450.656 1080,-414.656 1134,-414.656 1134,-450.656"/>
<text text-anchor="middle" x="1107" y="-429.756" font-family="Courier,monospace" font-size="11.00">Init</text>
</g>
<!-- \\Init&#45;&gt;\\CakeMigration -->
<g id="edge109" class="edge"><title>\\Init&#45;&gt;\\CakeMigration</title>
<path fill="none" stroke="black" d="M1105.14,-414.626C1097.26,-348.72 1060.18,-120.016 918,-29.6559 793.446,49.5015 610.407,-51.639 536.135,-99.7915"/>
<polygon fill="none" stroke="black" points="534.06,-96.9667 527.628,-105.385 537.906,-102.816 534.06,-96.9667"/>
</g>
<!-- \\PluginRecords -->
<g id="node62" class="node"><title>\\PluginRecords</title>
<polygon fill="none" stroke="black" points="1159,-1206.66 1055,-1206.66 1055,-1170.66 1159,-1170.66 1159,-1206.66"/>
<text text-anchor="middle" x="1107" y="-1185.76" font-family="Courier,monospace" font-size="11.00">PluginRecords</text>
</g>
<!-- \\PluginRecords&#45;&gt;\\NetCommonsMigration -->
<g id="edge111" class="edge"><title>\\PluginRecords&#45;&gt;\\NetCommonsMigration</title>
<path fill="none" stroke="black" d="M1054.94,-1186.01C1033.08,-1182.66 1008.5,-1175.72 990,-1161.66 878.465,-1076.84 824.45,-906.973 806.782,-839.864"/>
<polygon fill="none" stroke="black" points="810.129,-838.823 804.256,-830.005 803.348,-840.56 810.129,-838.823"/>
</g>
</g>
</svg>
