<?xml version="1.0" encoding="UTF-8" standalone="no"?>
<!DOCTYPE svg PUBLIC "-//W3C//DTD SVG 1.1//EN"
 "http://www.w3.org/Graphics/SVG/1.1/DTD/svg11.dtd">
<!-- Generated by graphviz version 2.26.3 (20100126.1600)
 -->
<!-- Title: G Pages: 1 -->
<svg width="1248pt" height="2981pt"
 viewBox="0.00 0.00 1248.00 2980.66" xmlns="http://www.w3.org/2000/svg" xmlns:xlink="http://www.w3.org/1999/xlink">
<g id="graph1" class="graph" transform="scale(1 1) rotate(0) translate(4 2976.66)">
<title>G</title>
<polygon fill="white" stroke="white" points="-4,5 -4,-2976.66 1245,-2976.66 1245,5 -4,5"/>
<g id="graph2" class="cluster"><title>cluster_Global</title>
<polyline fill="none" stroke="gray" points="177,-406.656 1220,-406.656 "/>
<path fill="none" stroke="gray" d="M1220,-406.656C1226,-406.656 1232,-412.656 1232,-418.656"/>
<polyline fill="none" stroke="gray" points="1232,-418.656 1232,-2952.66 "/>
<path fill="none" stroke="gray" d="M1232,-2952.66C1232,-2958.66 1226,-2964.66 1220,-2964.66"/>
<polyline fill="none" stroke="gray" points="1220,-2964.66 177,-2964.66 "/>
<path fill="none" stroke="gray" d="M177,-2964.66C171,-2964.66 165,-2958.66 165,-2952.66"/>
<polyline fill="none" stroke="gray" points="165,-2952.66 165,-418.656 "/>
<path fill="none" stroke="gray" d="M165,-418.656C165,-412.656 171,-406.656 177,-406.656"/>
<text text-anchor="middle" x="698.5" y="-2950.76" font-family="Times Roman,serif" font-size="11.00" fill="gray">Global</text>
</g>
<!-- \\AppController -->
<g id="node2" class="node"><title>\\AppController</title>
<polygon fill="none" stroke="black" points="555,-1463.66 451,-1463.66 451,-1427.66 555,-1427.66 555,-1463.66"/>
<text text-anchor="middle" x="503" y="-1442.76" font-family="Courier,monospace" font-size="11.00">AppController</text>
</g>
<!-- \\Controller -->
<g id="node65" class="node"><title>\\Controller</title>
<ellipse fill="none" stroke="black" cx="242" cy="-303.656" rx="63.1385" ry="18.3848"/>
<text text-anchor="middle" x="242" y="-300.056" font-family="Times Roman,serif" font-size="14.00" fill="gray">\Controller</text>
</g>
<!-- \\AppController&#45;&gt;\\Controller -->
<g id="edge3" class="edge"><title>\\AppController&#45;&gt;\\Controller</title>
<path fill="none" stroke="black" d="M450.845,-1447.6C430.813,-1445.47 409.531,-1439.16 396,-1423.66 239.289,-1244.11 447.59,-557.42 324,-353.656 316.061,-340.567 303.269,-330.435 290.127,-322.823"/>
<polygon fill="none" stroke="black" points="291.495,-319.586 281.027,-317.95 288.191,-325.756 291.495,-319.586"/>
</g>
<!-- \\AppModel -->
<g id="node3" class="node"><title>\\AppModel</title>
<polygon fill="none" stroke="black" points="538,-2853.66 468,-2853.66 468,-2817.66 538,-2817.66 538,-2853.66"/>
<text text-anchor="middle" x="503" y="-2832.76" font-family="Courier,monospace" font-size="11.00">AppModel</text>
</g>
<!-- \\NetCommonsAppModel -->
<g id="node48" class="node"><title>\\NetCommonsAppModel</title>
<polygon fill="none" stroke="black" points="311,-2853.66 173,-2853.66 173,-2817.66 311,-2817.66 311,-2853.66"/>
<text text-anchor="middle" x="242" y="-2832.76" font-family="Courier,monospace" font-size="11.00">NetCommonsAppModel</text>
</g>
<!-- \\AppModel&#45;&gt;\\NetCommonsAppModel -->
<g id="edge5" class="edge"><title>\\AppModel&#45;&gt;\\NetCommonsAppModel</title>
<path fill="none" stroke="black" d="M467.256,-2835.66C429.848,-2835.66 369.903,-2835.66 321.254,-2835.66"/>
<polygon fill="none" stroke="black" points="321.056,-2832.16 311.056,-2835.66 321.056,-2839.16 321.056,-2832.16"/>
</g>
<!-- \\DatabaseConfiguration -->
<g id="node4" class="node"><title>\\DatabaseConfiguration</title>
<polygon fill="none" stroke="black" points="879,-2826.66 721,-2826.66 721,-2790.66 879,-2790.66 879,-2826.66"/>
<text text-anchor="middle" x="800" y="-2805.76" font-family="Courier,monospace" font-size="11.00">DatabaseConfiguration</text>
</g>
<!-- \\DatabaseConfiguration&#45;&gt;\\AppModel -->
<g id="edge7" class="edge"><title>\\DatabaseConfiguration&#45;&gt;\\AppModel</title>
<path fill="none" stroke="black" d="M720.8,-2815.86C665.959,-2820.84 594.863,-2827.3 549.084,-2831.47"/>
<polygon fill="none" stroke="black" points="548.509,-2828 538.867,-2832.4 549.143,-2834.98 548.509,-2828"/>
</g>
<!-- \\AppHelper -->
<g id="node5" class="node"><title>\\AppHelper</title>
<polygon fill="none" stroke="black" points="838,-1692.66 762,-1692.66 762,-1656.66 838,-1656.66 838,-1692.66"/>
<text text-anchor="middle" x="800" y="-1671.76" font-family="Courier,monospace" font-size="11.00">AppHelper</text>
</g>
<!-- \\Helper -->
<g id="node69" class="node"><title>\\Helper</title>
<ellipse fill="none" stroke="black" cx="503" cy="-380.656" rx="43.8406" ry="18.3848"/>
<text text-anchor="middle" x="503" y="-377.056" font-family="Times Roman,serif" font-size="14.00" fill="gray">Helper</text>
</g>
<!-- \\AppHelper&#45;&gt;\\Helper -->
<g id="edge9" class="edge"><title>\\AppHelper&#45;&gt;\\Helper</title>
<path fill="none" stroke="black" d="M792.086,-1656.45C770.212,-1605.23 708.783,-1455 682,-1323.66 661.49,-1223.08 677.915,-479.621 610,-402.656 596.75,-387.64 576.226,-381.269 556.683,-378.965"/>
<polygon fill="none" stroke="black" points="556.857,-375.467 546.596,-378.107 556.264,-382.442 556.857,-375.467"/>
</g>
<!-- \\NetCommonsDeleteTest -->
<g id="node6" class="node"><title>\\NetCommonsDeleteTest</title>
<polygon fill="none" stroke="black" points="1183,-2772.66 1031,-2772.66 1031,-2736.66 1183,-2736.66 1183,-2772.66"/>
<text text-anchor="middle" x="1107" y="-2751.76" font-family="Courier,monospace" font-size="11.00">NetCommonsDeleteTest</text>
</g>
<!-- \\NetCommonsModelTestCase -->
<g id="node15" class="node"><title>\\NetCommonsModelTestCase</title>
<polygon fill="none" stroke="black" points="886,-2664.66 714,-2664.66 714,-2628.66 886,-2628.66 886,-2664.66"/>
<text text-anchor="middle" x="800" y="-2643.76" font-family="Courier,monospace" font-size="11.00">NetCommonsModelTestCase</text>
</g>
<!-- \\NetCommonsDeleteTest&#45;&gt;\\NetCommonsModelTestCase -->
<g id="edge11" class="edge"><title>\\NetCommonsDeleteTest&#45;&gt;\\NetCommonsModelTestCase</title>
<path fill="none" stroke="black" d="M1030.87,-2741.95C1016.93,-2738.27 1002.76,-2733.59 990,-2727.66 953.728,-2710.79 954.288,-2690.48 918,-2673.66 910.962,-2670.39 903.501,-2667.51 895.884,-2664.96"/>
<polygon fill="none" stroke="black" points="896.762,-2661.57 886.173,-2661.92 894.666,-2668.25 896.762,-2661.57"/>
</g>
<!-- \\NetCommonsConsoleTestCase -->
<g id="node7" class="node"><title>\\NetCommonsConsoleTestCase</title>
<polygon fill="none" stroke="black" points="892,-2772.66 708,-2772.66 708,-2736.66 892,-2736.66 892,-2772.66"/>
<text text-anchor="middle" x="800" y="-2751.76" font-family="Courier,monospace" font-size="11.00">NetCommonsConsoleTestCase</text>
</g>
<!-- \\NetCommonsCakeTestCase -->
<g id="node13" class="node"><title>\\NetCommonsCakeTestCase</title>
<polygon fill="none" stroke="black" points="585,-2691.66 421,-2691.66 421,-2655.66 585,-2655.66 585,-2691.66"/>
<text text-anchor="middle" x="503" y="-2670.76" font-family="Courier,monospace" font-size="11.00">NetCommonsCakeTestCase</text>
</g>
<!-- \\NetCommonsConsoleTestCase&#45;&gt;\\NetCommonsCakeTestCase -->
<g id="edge13" class="edge"><title>\\NetCommonsConsoleTestCase&#45;&gt;\\NetCommonsCakeTestCase</title>
<path fill="none" stroke="black" d="M717.936,-2736.64C705.852,-2733.76 693.579,-2730.72 682,-2727.66 644.303,-2717.67 602.565,-2705.16 568.882,-2694.7"/>
<polygon fill="none" stroke="black" points="569.742,-2691.3 559.154,-2691.67 567.658,-2697.99 569.742,-2691.3"/>
</g>
<!-- \\NetCommonsGetTest -->
<g id="node8" class="node"><title>\\NetCommonsGetTest</title>
<polygon fill="none" stroke="black" points="1172,-2718.66 1042,-2718.66 1042,-2682.66 1172,-2682.66 1172,-2718.66"/>
<text text-anchor="middle" x="1107" y="-2697.76" font-family="Courier,monospace" font-size="11.00">NetCommonsGetTest</text>
</g>
<!-- \\NetCommonsGetTest&#45;&gt;\\NetCommonsModelTestCase -->
<g id="edge15" class="edge"><title>\\NetCommonsGetTest&#45;&gt;\\NetCommonsModelTestCase</title>
<path fill="none" stroke="black" d="M1041.14,-2689.07C998.868,-2681.64 943.259,-2671.85 896.097,-2663.56"/>
<polygon fill="none" stroke="black" points="896.624,-2660.1 886.169,-2661.81 895.412,-2666.99 896.624,-2660.1"/>
</g>
<!-- \\NetCommonsHelperTestCase -->
<g id="node9" class="node"><title>\\NetCommonsHelperTestCase</title>
<polygon fill="none" stroke="black" points="889,-2718.66 711,-2718.66 711,-2682.66 889,-2682.66 889,-2718.66"/>
<text text-anchor="middle" x="800" y="-2697.76" font-family="Courier,monospace" font-size="11.00">NetCommonsHelperTestCase</text>
</g>
<!-- \\NetCommonsHelperTestCase&#45;&gt;\\NetCommonsCakeTestCase -->
<g id="edge17" class="edge"><title>\\NetCommonsHelperTestCase&#45;&gt;\\NetCommonsCakeTestCase</title>
<path fill="none" stroke="black" d="M710.487,-2692.52C674.267,-2689.23 632.456,-2685.42 595.9,-2682.1"/>
<polygon fill="none" stroke="black" points="596.013,-2678.6 585.737,-2681.18 595.379,-2685.57 596.013,-2678.6"/>
</g>
<!-- \\NetCommonsControllerBaseTestCase -->
<g id="node10" class="node"><title>\\NetCommonsControllerBaseTestCase</title>
<polygon fill="none" stroke="black" points="916,-1314.66 684,-1314.66 684,-1278.66 916,-1278.66 916,-1314.66"/>
<text text-anchor="middle" x="800" y="-1293.76" font-family="Courier,monospace" font-size="11.00">NetCommonsControllerBaseTestCase</text>
</g>
<!-- \\ControllerTestCase -->
<g id="node75" class="node"><title>\\ControllerTestCase</title>
<ellipse fill="none" stroke="black" cx="503" cy="-326.656" rx="106.773" ry="18.3848"/>
<text text-anchor="middle" x="503" y="-323.056" font-family="Times Roman,serif" font-size="14.00" fill="gray">\ControllerTestCase</text>
</g>
<!-- \\NetCommonsControllerBaseTestCase&#45;&gt;\\ControllerTestCase -->
<g id="edge19" class="edge"><title>\\NetCommonsControllerBaseTestCase&#45;&gt;\\ControllerTestCase</title>
<path fill="none" stroke="black" d="M691.542,-1278.62C688.089,-1275.97 684.884,-1273 682,-1269.66 548.574,-1115.1 741.699,-509.688 610,-353.656 606.37,-349.355 602.164,-345.686 597.563,-342.56"/>
<polygon fill="none" stroke="black" points="599.292,-339.517 588.891,-337.501 595.765,-345.563 599.292,-339.517"/>
</g>
<!-- \\NetCommonsValidateTest -->
<g id="node11" class="node"><title>\\NetCommonsValidateTest</title>
<polygon fill="none" stroke="black" points="1189,-2664.66 1025,-2664.66 1025,-2628.66 1189,-2628.66 1189,-2664.66"/>
<text text-anchor="middle" x="1107" y="-2643.76" font-family="Courier,monospace" font-size="11.00">NetCommonsValidateTest</text>
</g>
<!-- \\NetCommonsValidateTest&#45;&gt;\\NetCommonsModelTestCase -->
<g id="edge21" class="edge"><title>\\NetCommonsValidateTest&#45;&gt;\\NetCommonsModelTestCase</title>
<path fill="none" stroke="black" d="M1024.33,-2646.66C984.786,-2646.66 937.215,-2646.66 896.074,-2646.66"/>
<polygon fill="none" stroke="black" points="896.037,-2643.16 886.037,-2646.66 896.037,-2650.16 896.037,-2643.16"/>
</g>
<!-- \\NetCommonsTestSuite -->
<g id="node12" class="node"><title>\\NetCommonsTestSuite</title>
<polygon fill="none" stroke="black" points="1179,-1152.66 1035,-1152.66 1035,-1116.66 1179,-1116.66 1179,-1152.66"/>
<text text-anchor="middle" x="1107" y="-1131.76" font-family="Courier,monospace" font-size="11.00">NetCommonsTestSuite</text>
</g>
<!-- \\CakeTestSuite -->
<g id="node78" class="node"><title>\\CakeTestSuite</title>
<ellipse fill="none" stroke="black" cx="800" cy="-380.656" rx="84.1457" ry="18.3848"/>
<text text-anchor="middle" x="800" y="-377.056" font-family="Times Roman,serif" font-size="14.00" fill="gray">\CakeTestSuite</text>
</g>
<!-- \\NetCommonsTestSuite&#45;&gt;\\CakeTestSuite -->
<g id="edge23" class="edge"><title>\\NetCommonsTestSuite&#45;&gt;\\CakeTestSuite</title>
<path fill="none" stroke="black" d="M1034.3,-1132.03C1017.57,-1127.94 1001.38,-1120.55 990,-1107.66 781.636,-871.465 1131.33,-634.369 918,-402.656 911.119,-395.182 902.58,-389.757 893.263,-385.871"/>
<polygon fill="none" stroke="black" points="894.315,-382.531 883.72,-382.48 891.97,-389.126 894.315,-382.531"/>
</g>
<!-- \\CakeTestCase -->
<g id="node80" class="node"><title>\\CakeTestCase</title>
<ellipse fill="none" stroke="black" cx="242" cy="-380.656" rx="82.0244" ry="18.3848"/>
<text text-anchor="middle" x="242" y="-377.056" font-family="Times Roman,serif" font-size="14.00" fill="gray">\CakeTestCase</text>
</g>
<!-- \\NetCommonsCakeTestCase&#45;&gt;\\CakeTestCase -->
<g id="edge25" class="edge"><title>\\NetCommonsCakeTestCase&#45;&gt;\\CakeTestCase</title>
<path fill="none" stroke="black" d="M501.216,-2655.32C490.483,-2544.7 433.691,-1954.74 396,-1472.66 386.712,-1353.86 399.658,-494.712 324,-402.656 322.28,-400.563 320.385,-398.658 318.348,-396.924"/>
<polygon fill="none" stroke="black" points="320.076,-393.863 309.863,-391.048 316.091,-399.618 320.076,-393.863"/>
</g>
<!-- \\NetCommonsSaveTest -->
<g id="node14" class="node"><title>\\NetCommonsSaveTest</title>
<polygon fill="none" stroke="black" points="1176,-2610.66 1038,-2610.66 1038,-2574.66 1176,-2574.66 1176,-2610.66"/>
<text text-anchor="middle" x="1107" y="-2589.76" font-family="Courier,monospace" font-size="11.00">NetCommonsSaveTest</text>
</g>
<!-- \\NetCommonsSaveTest&#45;&gt;\\NetCommonsModelTestCase -->
<g id="edge27" class="edge"><title>\\NetCommonsSaveTest&#45;&gt;\\NetCommonsModelTestCase</title>
<path fill="none" stroke="black" d="M1037.72,-2604.84C995.872,-2612.2 941.926,-2621.69 896.006,-2629.77"/>
<polygon fill="none" stroke="black" points="895.277,-2626.34 886.035,-2631.52 896.49,-2633.24 895.277,-2626.34"/>
</g>
<!-- \\NetCommonsModelTestCase&#45;&gt;\\NetCommonsCakeTestCase -->
<g id="edge29" class="edge"><title>\\NetCommonsModelTestCase&#45;&gt;\\NetCommonsCakeTestCase</title>
<path fill="none" stroke="black" d="M713.696,-2654.5C676.671,-2657.87 633.35,-2661.81 595.65,-2665.23"/>
<polygon fill="none" stroke="black" points="595.328,-2661.75 585.686,-2666.14 595.962,-2668.72 595.328,-2661.75"/>
</g>
<!-- \\NetCommonsControllerTestCase -->
<g id="node16" class="node"><title>\\NetCommonsControllerTestCase</title>
<polygon fill="none" stroke="black" points="1210,-1314.66 1004,-1314.66 1004,-1278.66 1210,-1278.66 1210,-1314.66"/>
<text text-anchor="middle" x="1107" y="-1293.76" font-family="Courier,monospace" font-size="11.00">NetCommonsControllerTestCase</text>
</g>
<!-- \\NetCommonsControllerTestCase&#45;&gt;\\NetCommonsControllerBaseTestCase -->
<g id="edge31" class="edge"><title>\\NetCommonsControllerTestCase&#45;&gt;\\NetCommonsControllerBaseTestCase</title>
<path fill="none" stroke="black" d="M1003.92,-1296.66C979.161,-1296.66 952.434,-1296.66 926.739,-1296.66"/>
<polygon fill="none" stroke="black" points="926.568,-1293.16 916.568,-1296.66 926.568,-1300.16 926.568,-1293.16"/>
</g>
<!-- \\NetCommonsAppController -->
<g id="node17" class="node"><title>\\NetCommonsAppController</title>
<polygon fill="none" stroke="black" points="886,-1260.66 714,-1260.66 714,-1224.66 886,-1224.66 886,-1260.66"/>
<text text-anchor="middle" x="800" y="-1239.76" font-family="Courier,monospace" font-size="11.00">NetCommonsAppController</text>
</g>
<!-- \\NetCommonsAppController&#45;&gt;\\Controller -->
<g id="edge33" class="edge"><title>\\NetCommonsAppController&#45;&gt;\\Controller</title>
<path fill="none" stroke="black" d="M793.582,-1224.39C773.945,-1167.81 714.062,-990.209 682,-838.656 656.989,-720.431 700.929,-379.246 610,-299.656 520.21,-221.063 365.571,-259.272 288.491,-285.689"/>
<polygon fill="none" stroke="black" points="287.317,-282.392 279.038,-289.004 289.633,-288.998 287.317,-282.392"/>
</g>
<!-- \\AssetComponent -->
<g id="node18" class="node"><title>\\AssetComponent</title>
<polygon fill="none" stroke="black" points="1162,-1044.66 1052,-1044.66 1052,-1008.66 1162,-1008.66 1162,-1044.66"/>
<text text-anchor="middle" x="1107" y="-1023.76" font-family="Courier,monospace" font-size="11.00">AssetComponent</text>
</g>
<!-- \\Component -->
<g id="node86" class="node"><title>\\Component</title>
<ellipse fill="none" stroke="black" cx="800" cy="-326.656" rx="70.9184" ry="18.3848"/>
<text text-anchor="middle" x="800" y="-323.056" font-family="Times Roman,serif" font-size="14.00" fill="gray">\Component</text>
</g>
<!-- \\AssetComponent&#45;&gt;\\Component -->
<g id="edge35" class="edge"><title>\\AssetComponent&#45;&gt;\\Component</title>
<path fill="none" stroke="black" d="M1051.42,-1027.08C1029.21,-1024.24 1005.32,-1016.86 990,-999.656 797.888,-783.902 1110.31,-569.231 918,-353.656 908.225,-342.698 894.994,-335.71 880.924,-331.342"/>
<polygon fill="none" stroke="black" points="881.644,-327.912 871.08,-328.72 879.842,-334.676 881.644,-327.912"/>
</g>
<!-- \\NetCommonsTimeComponent -->
<g id="node19" class="node"><title>\\NetCommonsTimeComponent</title>
<polygon fill="none" stroke="black" points="1193,-990.656 1021,-990.656 1021,-954.656 1193,-954.656 1193,-990.656"/>
<text text-anchor="middle" x="1107" y="-969.756" font-family="Courier,monospace" font-size="11.00">NetCommonsTimeComponent</text>
</g>
<!-- \\NetCommonsTimeComponent&#45;&gt;\\Component -->
<g id="edge37" class="edge"><title>\\NetCommonsTimeComponent&#45;&gt;\\Component</title>
<path fill="none" stroke="black" d="M1020.98,-965.764C1009.24,-961.379 998.364,-954.955 990,-945.656 812.751,-748.592 1095.43,-550.555 918,-353.656 908.227,-342.81 895.069,-335.863 881.082,-331.496"/>
<polygon fill="none" stroke="black" points="881.864,-328.082 871.298,-328.87 880.049,-334.843 881.864,-328.082"/>
</g>
<!-- \\PermissionComponent -->
<g id="node20" class="node"><title>\\PermissionComponent</title>
<polygon fill="none" stroke="black" points="1179,-936.656 1035,-936.656 1035,-900.656 1179,-900.656 1179,-936.656"/>
<text text-anchor="middle" x="1107" y="-915.756" font-family="Courier,monospace" font-size="11.00">PermissionComponent</text>
</g>
<!-- \\PermissionComponent&#45;&gt;\\Component -->
<g id="edge39" class="edge"><title>\\PermissionComponent&#45;&gt;\\Component</title>
<path fill="none" stroke="black" d="M1034.27,-915.711C1017.65,-911.609 1001.51,-904.296 990,-891.656 827.597,-713.265 1080.57,-531.896 918,-353.656 908.162,-342.869 894.974,-335.949 880.979,-331.59"/>
<polygon fill="none" stroke="black" points="881.757,-328.175 871.192,-328.966 879.944,-334.937 881.757,-328.175"/>
</g>
<!-- \\NetCommonsComponent -->
<g id="node21" class="node"><title>\\NetCommonsComponent</title>
<polygon fill="none" stroke="black" points="1179,-1098.66 1035,-1098.66 1035,-1062.66 1179,-1062.66 1179,-1098.66"/>
<text text-anchor="middle" x="1107" y="-1077.76" font-family="Courier,monospace" font-size="11.00">NetCommonsComponent</text>
</g>
<!-- \\NetCommonsComponent&#45;&gt;\\Component -->
<g id="edge41" class="edge"><title>\\NetCommonsComponent&#45;&gt;\\Component</title>
<path fill="none" stroke="black" d="M1034.31,-1078.03C1017.58,-1073.94 1001.38,-1066.55 990,-1053.66 783.013,-819.198 1125.2,-587.922 918,-353.656 908.271,-342.656 895.062,-335.65 880.998,-331.276"/>
<polygon fill="none" stroke="black" points="881.72,-327.847 871.156,-328.652 879.917,-334.611 881.72,-327.847"/>
</g>
<!-- \\NetCommonsController -->
<g id="node22" class="node"><title>\\NetCommonsController</title>
<polygon fill="none" stroke="black" points="1183,-1260.66 1031,-1260.66 1031,-1224.66 1183,-1224.66 1183,-1260.66"/>
<text text-anchor="middle" x="1107" y="-1239.76" font-family="Courier,monospace" font-size="11.00">NetCommonsController</text>
</g>
<!-- \\NetCommonsController&#45;&gt;\\NetCommonsAppController -->
<g id="edge43" class="edge"><title>\\NetCommonsController&#45;&gt;\\NetCommonsAppController</title>
<path fill="none" stroke="black" d="M1030.72,-1242.66C990.111,-1242.66 939.755,-1242.66 896.457,-1242.66"/>
<polygon fill="none" stroke="black" points="896.189,-1239.16 886.189,-1242.66 896.189,-1246.16 896.189,-1239.16"/>
</g>
<!-- \\NetCommonsUrl -->
<g id="node23" class="node"><title>\\NetCommonsUrl</title>
<polygon fill="none" stroke="black" points="1159,-2340.66 1055,-2340.66 1055,-2304.66 1159,-2304.66 1159,-2340.66"/>
<text text-anchor="middle" x="1107" y="-2319.76" font-family="Courier,monospace" font-size="11.00">NetCommonsUrl</text>
</g>
<!-- \\NetCommonsTime -->
<g id="node24" class="node"><title>\\NetCommonsTime</title>
<polygon fill="none" stroke="black" points="1162,-2286.66 1052,-2286.66 1052,-2250.66 1162,-2250.66 1162,-2286.66"/>
<text text-anchor="middle" x="1107" y="-2265.76" font-family="Courier,monospace" font-size="11.00">NetCommonsTime</text>
</g>
<!-- \\CurrentBase -->
<g id="node25" class="node"><title>\\CurrentBase</title>
<polygon fill="none" stroke="black" points="845,-2394.66 755,-2394.66 755,-2358.66 845,-2358.66 845,-2394.66"/>
<text text-anchor="middle" x="800" y="-2373.76" font-family="Courier,monospace" font-size="11.00">CurrentBase</text>
</g>
<!-- \\Current -->
<g id="node26" class="node"><title>\\Current</title>
<polygon fill="none" stroke="black" points="1139,-2394.66 1075,-2394.66 1075,-2358.66 1139,-2358.66 1139,-2394.66"/>
<text text-anchor="middle" x="1107" y="-2373.76" font-family="Courier,monospace" font-size="11.00">Current</text>
</g>
<!-- \\Current&#45;&gt;\\CurrentBase -->
<g id="edge45" class="edge"><title>\\Current&#45;&gt;\\CurrentBase</title>
<path fill="none" stroke="black" d="M1074.73,-2376.66C1022.81,-2376.66 920.103,-2376.66 856.033,-2376.66"/>
<polygon fill="none" stroke="black" points="855.707,-2373.16 845.707,-2376.66 855.707,-2380.16 855.707,-2373.16"/>
</g>
<!-- \\CurrentSystem -->
<g id="node27" class="node"><title>\\CurrentSystem</title>
<polygon fill="none" stroke="black" points="1159,-2178.66 1055,-2178.66 1055,-2142.66 1159,-2142.66 1159,-2178.66"/>
<text text-anchor="middle" x="1107" y="-2157.76" font-family="Courier,monospace" font-size="11.00">CurrentSystem</text>
</g>
<!-- \\CurrentPage -->
<g id="node28" class="node"><title>\\CurrentPage</title>
<polygon fill="none" stroke="black" points="1152,-2124.66 1062,-2124.66 1062,-2088.66 1152,-2088.66 1152,-2124.66"/>
<text text-anchor="middle" x="1107" y="-2103.76" font-family="Courier,monospace" font-size="11.00">CurrentPage</text>
</g>
<!-- \\CurrentFrame -->
<g id="node29" class="node"><title>\\CurrentFrame</title>
<polygon fill="none" stroke="black" points="1156,-2070.66 1058,-2070.66 1058,-2034.66 1156,-2034.66 1156,-2070.66"/>
<text text-anchor="middle" x="1107" y="-2049.76" font-family="Courier,monospace" font-size="11.00">CurrentFrame</text>
</g>
<!-- \\TokenHelper -->
<g id="node30" class="node"><title>\\TokenHelper</title>
<polygon fill="none" stroke="black" points="1152,-774.656 1062,-774.656 1062,-738.656 1152,-738.656 1152,-774.656"/>
<text text-anchor="middle" x="1107" y="-753.756" font-family="Courier,monospace" font-size="11.00">TokenHelper</text>
</g>
<!-- \\FormHelper -->
<g id="node93" class="node"><title>\\FormHelper</title>
<ellipse fill="none" stroke="black" cx="800" cy="-272.656" rx="70.9184" ry="18.3848"/>
<text text-anchor="middle" x="800" y="-269.056" font-family="Times Roman,serif" font-size="14.00" fill="gray">\FormHelper</text>
</g>
<!-- \\TokenHelper&#45;&gt;\\FormHelper -->
<g id="edge47" class="edge"><title>\\TokenHelper&#45;&gt;\\FormHelper</title>
<path fill="none" stroke="black" d="M1061.34,-757.663C1036.85,-755.68 1008.07,-748.862 990,-729.656 857.218,-588.531 1050.91,-440.658 918,-299.656 907.986,-289.032 894.718,-282.186 880.698,-277.85"/>
<polygon fill="none" stroke="black" points="881.468,-274.433 870.904,-275.233 879.661,-281.196 881.468,-274.433"/>
</g>
<!-- \\SingletonViewBlockHtmlHelper -->
<g id="node31" class="node"><title>\\SingletonViewBlockHtmlHelper</title>
<polygon fill="none" stroke="black" points="1210,-720.656 1004,-720.656 1004,-684.656 1210,-684.656 1210,-720.656"/>
<text text-anchor="middle" x="1107" y="-699.756" font-family="Courier,monospace" font-size="11.00">SingletonViewBlockHtmlHelper</text>
</g>
<!-- \\HtmlHelper -->
<g id="node95" class="node"><title>\\HtmlHelper</title>
<ellipse fill="none" stroke="black" cx="800" cy="-218.656" rx="67.1751" ry="18.3848"/>
<text text-anchor="middle" x="800" y="-215.056" font-family="Times Roman,serif" font-size="14.00" fill="gray">HtmlHelper</text>
</g>
<!-- \\SingletonViewBlockHtmlHelper&#45;&gt;\\HtmlHelper -->
<g id="edge49" class="edge"><title>\\SingletonViewBlockHtmlHelper&#45;&gt;\\HtmlHelper</title>
<path fill="none" stroke="black" d="M1003.94,-687.003C998.848,-683.811 994.143,-680.059 990,-675.656 857.218,-534.531 1050.91,-386.658 918,-245.656 907.121,-234.115 892.401,-227.032 877.051,-222.782"/>
<polygon fill="none" stroke="black" points="877.444,-219.278 866.906,-220.379 875.83,-226.09 877.444,-219.278"/>
</g>
<!-- \\FormInputHelper -->
<g id="node32" class="node"><title>\\FormInputHelper</title>
<polygon fill="none" stroke="black" points="1166,-1368.66 1048,-1368.66 1048,-1332.66 1166,-1332.66 1166,-1368.66"/>
<text text-anchor="middle" x="1107" y="-1347.76" font-family="Courier,monospace" font-size="11.00">FormInputHelper</text>
</g>
<!-- \\FormInputHelper&#45;&gt;\\AppHelper -->
<g id="edge51" class="edge"><title>\\FormInputHelper&#45;&gt;\\AppHelper</title>
<path fill="none" stroke="black" d="M1047.99,-1355.24C1028.18,-1359.03 1006.87,-1365.76 990,-1377.66 890.698,-1447.69 831.152,-1587.7 809.417,-1647.05"/>
<polygon fill="none" stroke="black" points="806.105,-1645.92 806.024,-1656.51 812.694,-1648.28 806.105,-1645.92"/>
</g>
<!-- \\WizardHelper -->
<g id="node33" class="node"><title>\\WizardHelper</title>
<polygon fill="none" stroke="black" points="1156,-2232.66 1058,-2232.66 1058,-2196.66 1156,-2196.66 1156,-2232.66"/>
<text text-anchor="middle" x="1107" y="-2211.76" font-family="Courier,monospace" font-size="11.00">WizardHelper</text>
</g>
<!-- \\WizardHelper&#45;&gt;\\AppHelper -->
<g id="edge53" class="edge"><title>\\WizardHelper&#45;&gt;\\AppHelper</title>
<path fill="none" stroke="black" d="M1057.76,-2213.74C1034.77,-2210.91 1008.47,-2203.9 990,-2187.66 838.693,-2054.56 807.68,-1789.69 801.495,-1702.91"/>
<polygon fill="none" stroke="black" points="804.978,-1702.52 800.831,-1692.78 797.993,-1702.98 804.978,-1702.52"/>
</g>
<!-- \\DisplayNumberHelper -->
<g id="node34" class="node"><title>\\DisplayNumberHelper</title>
<polygon fill="none" stroke="black" points="1179,-2016.66 1035,-2016.66 1035,-1980.66 1179,-1980.66 1179,-2016.66"/>
<text text-anchor="middle" x="1107" y="-1995.76" font-family="Courier,monospace" font-size="11.00">DisplayNumberHelper</text>
</g>
<!-- \\DisplayNumberHelper&#45;&gt;\\AppHelper -->
<g id="edge55" class="edge"><title>\\DisplayNumberHelper&#45;&gt;\\AppHelper</title>
<path fill="none" stroke="black" d="M1034.32,-1991C1018.72,-1986.96 1003.03,-1980.85 990,-1971.66 890.698,-1901.62 831.152,-1761.61 809.417,-1702.26"/>
<polygon fill="none" stroke="black" points="812.694,-1701.03 806.024,-1692.8 806.105,-1703.4 812.694,-1701.03"/>
</g>
<!-- \\MessageFlashHelper -->
<g id="node35" class="node"><title>\\MessageFlashHelper</title>
<polygon fill="none" stroke="black" points="1176,-1962.66 1038,-1962.66 1038,-1926.66 1176,-1926.66 1176,-1962.66"/>
<text text-anchor="middle" x="1107" y="-1941.76" font-family="Courier,monospace" font-size="11.00">MessageFlashHelper</text>
</g>
<!-- \\MessageFlashHelper&#45;&gt;\\AppHelper -->
<g id="edge57" class="edge"><title>\\MessageFlashHelper&#45;&gt;\\AppHelper</title>
<path fill="none" stroke="black" d="M1037.7,-1936.77C1021.19,-1932.76 1004.24,-1926.73 990,-1917.66 903.003,-1862.26 839.371,-1752.69 813.185,-1701.8"/>
<polygon fill="none" stroke="black" points="816.23,-1700.07 808.592,-1692.73 809.984,-1703.23 816.23,-1700.07"/>
</g>
<!-- \\DateHelper -->
<g id="node36" class="node"><title>\\DateHelper</title>
<polygon fill="none" stroke="black" points="1149,-1908.66 1065,-1908.66 1065,-1872.66 1149,-1872.66 1149,-1908.66"/>
<text text-anchor="middle" x="1107" y="-1887.76" font-family="Courier,monospace" font-size="11.00">DateHelper</text>
</g>
<!-- \\DateHelper&#45;&gt;\\AppHelper -->
<g id="edge59" class="edge"><title>\\DateHelper&#45;&gt;\\AppHelper</title>
<path fill="none" stroke="black" d="M1064.91,-1886.67C1041.69,-1883.1 1012.99,-1876.36 990,-1863.66 914.911,-1822.17 849.423,-1742.4 818.659,-1701.01"/>
<polygon fill="none" stroke="black" points="821.367,-1698.79 812.631,-1692.79 815.722,-1702.93 821.367,-1698.79"/>
</g>
<!-- \\SnsButtonHelper -->
<g id="node37" class="node"><title>\\SnsButtonHelper</title>
<polygon fill="none" stroke="black" points="1166,-1854.66 1048,-1854.66 1048,-1818.66 1166,-1818.66 1166,-1854.66"/>
<text text-anchor="middle" x="1107" y="-1833.76" font-family="Courier,monospace" font-size="11.00">SnsButtonHelper</text>
</g>
<!-- \\SnsButtonHelper&#45;&gt;\\AppHelper -->
<g id="edge61" class="edge"><title>\\SnsButtonHelper&#45;&gt;\\AppHelper</title>
<path fill="none" stroke="black" d="M1047.81,-1827.68C1028.83,-1823.58 1008.06,-1817.77 990,-1809.66 926.613,-1781.18 862.767,-1730.15 827.603,-1699.65"/>
<polygon fill="none" stroke="black" points="829.54,-1696.69 819.714,-1692.73 824.925,-1701.96 829.54,-1696.69"/>
</g>
<!-- \\BackToHelper -->
<g id="node38" class="node"><title>\\BackToHelper</title>
<polygon fill="none" stroke="black" points="1156,-1800.66 1058,-1800.66 1058,-1764.66 1156,-1764.66 1156,-1800.66"/>
<text text-anchor="middle" x="1107" y="-1779.76" font-family="Courier,monospace" font-size="11.00">BackToHelper</text>
</g>
<!-- \\BackToHelper&#45;&gt;\\AppHelper -->
<g id="edge63" class="edge"><title>\\BackToHelper&#45;&gt;\\AppHelper</title>
<path fill="none" stroke="black" d="M1057.8,-1773.32C1036.7,-1768.8 1011.9,-1762.79 990,-1755.66 939.709,-1739.27 884.296,-1714.88 846.358,-1697.14"/>
<polygon fill="none" stroke="black" points="847.641,-1693.88 837.103,-1692.79 844.66,-1700.21 847.641,-1693.88"/>
</g>
<!-- \\NetCommonsHtmlHelper -->
<g id="node39" class="node"><title>\\NetCommonsHtmlHelper</title>
<polygon fill="none" stroke="black" points="1183,-1746.66 1031,-1746.66 1031,-1710.66 1183,-1710.66 1183,-1746.66"/>
<text text-anchor="middle" x="1107" y="-1725.76" font-family="Courier,monospace" font-size="11.00">NetCommonsHtmlHelper</text>
</g>
<!-- \\NetCommonsHtmlHelper&#45;&gt;\\AppHelper -->
<g id="edge65" class="edge"><title>\\NetCommonsHtmlHelper&#45;&gt;\\AppHelper</title>
<path fill="none" stroke="black" d="M1030.72,-1715.24C973.852,-1705.24 897.868,-1691.87 848.925,-1683.26"/>
<polygon fill="none" stroke="black" points="849.363,-1679.78 838.908,-1681.5 848.15,-1686.68 849.363,-1679.78"/>
</g>
<!-- \\ButtonHelper -->
<g id="node40" class="node"><title>\\ButtonHelper</title>
<polygon fill="none" stroke="black" points="1156,-882.656 1058,-882.656 1058,-846.656 1156,-846.656 1156,-882.656"/>
<text text-anchor="middle" x="1107" y="-861.756" font-family="Courier,monospace" font-size="11.00">ButtonHelper</text>
</g>
<!-- \\ButtonHelper&#45;&gt;\\FormHelper -->
<g id="edge67" class="edge"><title>\\ButtonHelper&#45;&gt;\\FormHelper</title>
<path fill="none" stroke="black" d="M1057.87,-865.611C1034.05,-863.36 1006.98,-856.308 990,-837.656 827.597,-659.265 1080.57,-477.896 918,-299.656 908.162,-288.869 894.974,-281.949 880.979,-277.59"/>
<polygon fill="none" stroke="black" points="881.757,-274.175 871.192,-274.966 879.944,-280.937 881.757,-274.175"/>
</g>
<!-- \\ComposerHelper -->
<g id="node41" class="node"><title>\\ComposerHelper</title>
<polygon fill="none" stroke="black" points="1162,-1692.66 1052,-1692.66 1052,-1656.66 1162,-1656.66 1162,-1692.66"/>
<text text-anchor="middle" x="1107" y="-1671.76" font-family="Courier,monospace" font-size="11.00">ComposerHelper</text>
</g>
<!-- \\ComposerHelper&#45;&gt;\\AppHelper -->
<g id="edge69" class="edge"><title>\\ComposerHelper&#45;&gt;\\AppHelper</title>
<path fill="none" stroke="black" d="M1051.4,-1674.66C993.615,-1674.66 904.052,-1674.66 848.884,-1674.66"/>
<polygon fill="none" stroke="black" points="848.663,-1671.16 838.663,-1674.66 848.663,-1678.16 848.663,-1671.16"/>
</g>
<!-- \\LinkButtonHelper -->
<g id="node42" class="node"><title>\\LinkButtonHelper</title>
<polygon fill="none" stroke="black" points="1169,-828.656 1045,-828.656 1045,-792.656 1169,-792.656 1169,-828.656"/>
<text text-anchor="middle" x="1107" y="-807.756" font-family="Courier,monospace" font-size="11.00">LinkButtonHelper</text>
</g>
<!-- \\LinkButtonHelper&#45;&gt;\\FormHelper -->
<g id="edge71" class="edge"><title>\\LinkButtonHelper&#45;&gt;\\FormHelper</title>
<path fill="none" stroke="black" d="M1044.46,-809.698C1024.47,-806.211 1003.93,-798.738 990,-783.656 842.422,-623.914 1065.73,-459.261 918,-299.656 908.083,-288.942 894.859,-282.054 880.853,-277.705"/>
<polygon fill="none" stroke="black" points="881.628,-274.29 871.063,-275.084 879.818,-281.051 881.628,-274.29"/>
</g>
<!-- \\TableListHelper -->
<g id="node43" class="node"><title>\\TableListHelper</title>
<polygon fill="none" stroke="black" points="1166,-1638.66 1048,-1638.66 1048,-1602.66 1166,-1602.66 1166,-1638.66"/>
<text text-anchor="middle" x="1107" y="-1617.76" font-family="Courier,monospace" font-size="11.00">TableListHelper</text>
</g>
<!-- \\TableListHelper&#45;&gt;\\AppHelper -->
<g id="edge73" class="edge"><title>\\TableListHelper&#45;&gt;\\AppHelper</title>
<path fill="none" stroke="black" d="M1047.81,-1631.07C989.861,-1641.26 902.64,-1656.6 848.623,-1666.1"/>
<polygon fill="none" stroke="black" points="847.852,-1662.69 838.61,-1667.86 849.065,-1669.58 847.852,-1662.69"/>
</g>
<!-- \\NetCommonsTimeHelper -->
<g id="node44" class="node"><title>\\NetCommonsTimeHelper</title>
<polygon fill="none" stroke="black" points="1183,-1584.66 1031,-1584.66 1031,-1548.66 1183,-1548.66 1183,-1584.66"/>
<text text-anchor="middle" x="1107" y="-1563.76" font-family="Courier,monospace" font-size="11.00">NetCommonsTimeHelper</text>
</g>
<!-- \\NetCommonsTimeHelper&#45;&gt;\\AppHelper -->
<g id="edge75" class="edge"><title>\\NetCommonsTimeHelper&#45;&gt;\\AppHelper</title>
<path fill="none" stroke="black" d="M1030.94,-1582.16C1017.2,-1585.54 1003.08,-1589.39 990,-1593.66 939.709,-1610.04 884.296,-1634.43 846.358,-1652.17"/>
<polygon fill="none" stroke="black" points="844.66,-1649.1 837.103,-1656.52 847.641,-1655.43 844.66,-1649.1"/>
</g>
<!-- \\NetCommonsFormHelper -->
<g id="node45" class="node"><title>\\NetCommonsFormHelper</title>
<polygon fill="none" stroke="black" points="1183,-1530.66 1031,-1530.66 1031,-1494.66 1183,-1494.66 1183,-1530.66"/>
<text text-anchor="middle" x="1107" y="-1509.76" font-family="Courier,monospace" font-size="11.00">NetCommonsFormHelper</text>
</g>
<!-- \\NetCommonsFormHelper&#45;&gt;\\AppHelper -->
<g id="edge77" class="edge"><title>\\NetCommonsFormHelper&#45;&gt;\\AppHelper</title>
<path fill="none" stroke="black" d="M1030.99,-1525.63C1017.04,-1529.29 1002.84,-1533.89 990,-1539.66 926.613,-1568.14 862.767,-1619.16 827.603,-1649.66"/>
<polygon fill="none" stroke="black" points="824.925,-1647.35 819.714,-1656.58 829.54,-1652.62 824.925,-1647.35"/>
</g>
<!-- \\TitleIconHelper -->
<g id="node46" class="node"><title>\\TitleIconHelper</title>
<polygon fill="none" stroke="black" points="1166,-1476.66 1048,-1476.66 1048,-1440.66 1166,-1440.66 1166,-1476.66"/>
<text text-anchor="middle" x="1107" y="-1455.76" font-family="Courier,monospace" font-size="11.00">TitleIconHelper</text>
</g>
<!-- \\TitleIconHelper&#45;&gt;\\AppHelper -->
<g id="edge79" class="edge"><title>\\TitleIconHelper&#45;&gt;\\AppHelper</title>
<path fill="none" stroke="black" d="M1047.85,-1465.71C1028.57,-1469.7 1007.61,-1475.93 990,-1485.66 914.911,-1527.14 849.423,-1606.91 818.659,-1648.3"/>
<polygon fill="none" stroke="black" points="815.722,-1646.39 812.631,-1656.52 821.367,-1650.53 815.722,-1646.39"/>
</g>
<!-- \\DatetimePickerHelper -->
<g id="node47" class="node"><title>\\DatetimePickerHelper</title>
<polygon fill="none" stroke="black" points="1183,-1422.66 1031,-1422.66 1031,-1386.66 1183,-1386.66 1183,-1422.66"/>
<text text-anchor="middle" x="1107" y="-1401.76" font-family="Courier,monospace" font-size="11.00">DatetimePickerHelper</text>
</g>
<!-- \\DatetimePickerHelper&#45;&gt;\\AppHelper -->
<g id="edge81" class="edge"><title>\\DatetimePickerHelper&#45;&gt;\\AppHelper</title>
<path fill="none" stroke="black" d="M1030.95,-1414.29C1016.63,-1418.25 1002.31,-1423.82 990,-1431.66 903.003,-1487.05 839.371,-1596.62 813.185,-1647.51"/>
<polygon fill="none" stroke="black" points="809.984,-1646.08 808.592,-1656.59 816.23,-1649.24 809.984,-1646.08"/>
</g>
<!-- \\Model -->
<g id="node113" class="node"><title>\\Model</title>
<ellipse fill="none" stroke="black" cx="44" cy="-2835.66" rx="43.8406" ry="18.3848"/>
<text text-anchor="middle" x="44" y="-2832.06" font-family="Times Roman,serif" font-size="14.00" fill="gray">\Model</text>
</g>
<!-- \\NetCommonsAppModel&#45;&gt;\\Model -->
<g id="edge83" class="edge"><title>\\NetCommonsAppModel&#45;&gt;\\Model</title>
<path fill="none" stroke="black" d="M172.749,-2835.66C148.379,-2835.66 121.357,-2835.66 98.3871,-2835.66"/>
<polygon fill="none" stroke="black" points="98.1425,-2832.16 88.1425,-2835.66 98.1424,-2839.16 98.1425,-2832.16"/>
</g>
<!-- \\OriginalKeyBehavior -->
<g id="node49" class="node"><title>\\OriginalKeyBehavior</title>
<polygon fill="none" stroke="black" points="1179,-612.656 1035,-612.656 1035,-576.656 1179,-576.656 1179,-612.656"/>
<text text-anchor="middle" x="1107" y="-591.756" font-family="Courier,monospace" font-size="11.00">OriginalKeyBehavior</text>
</g>
<!-- \\ModelBehavior -->
<g id="node115" class="node"><title>\\ModelBehavior</title>
<ellipse fill="none" stroke="black" cx="800" cy="-164.656" rx="86.9741" ry="18.3848"/>
<text text-anchor="middle" x="800" y="-161.056" font-family="Times Roman,serif" font-size="14.00" fill="gray">\ModelBehavior</text>
</g>
<!-- \\OriginalKeyBehavior&#45;&gt;\\ModelBehavior -->
<g id="edge85" class="edge"><title>\\OriginalKeyBehavior&#45;&gt;\\ModelBehavior</title>
<path fill="none" stroke="black" d="M1034.45,-591.181C1017.93,-587.075 1001.79,-579.893 990,-567.656 871.971,-445.103 1036.14,-314.099 918,-191.656 910.646,-184.035 901.615,-178.367 891.852,-174.181"/>
<polygon fill="none" stroke="black" points="892.89,-170.832 882.298,-170.604 890.436,-177.388 892.89,-170.832"/>
</g>
<!-- \\TrackableBehavior -->
<g id="node50" class="node"><title>\\TrackableBehavior</title>
<polygon fill="none" stroke="black" points="1172,-666.656 1042,-666.656 1042,-630.656 1172,-630.656 1172,-666.656"/>
<text text-anchor="middle" x="1107" y="-645.756" font-family="Courier,monospace" font-size="11.00">TrackableBehavior</text>
</g>
<!-- \\TrackableBehavior&#45;&gt;\\ModelBehavior -->
<g id="edge87" class="edge"><title>\\TrackableBehavior&#45;&gt;\\ModelBehavior</title>
<path fill="none" stroke="black" d="M1041.26,-646.93C1022.36,-643.2 1003.29,-635.776 990,-621.656 857.218,-480.531 1050.91,-332.658 918,-191.656 910.736,-183.949 901.758,-178.231 892.025,-174.016"/>
<polygon fill="none" stroke="black" points="893.083,-170.674 882.491,-170.42 890.613,-177.224 893.083,-170.674"/>
</g>
<!-- \\YAExceptionRenderer -->
<g id="node51" class="node"><title>\\YAExceptionRenderer</title>
<polygon fill="none" stroke="black" points="1179,-558.656 1035,-558.656 1035,-522.656 1179,-522.656 1179,-558.656"/>
<text text-anchor="middle" x="1107" y="-537.756" font-family="Courier,monospace" font-size="11.00">YAExceptionRenderer</text>
</g>
<!-- \\ExceptionRenderer -->
<g id="node118" class="node"><title>\\ExceptionRenderer</title>
<ellipse fill="none" stroke="black" cx="800" cy="-110.656" rx="118.087" ry="18.3848"/>
<text text-anchor="middle" x="800" y="-107.056" font-family="Times Roman,serif" font-size="14.00" fill="gray">TEHxceptionRenderer</text>
</g>
<!-- \\YAExceptionRenderer&#45;&gt;\\ExceptionRenderer -->
<g id="edge89" class="edge"><title>\\YAExceptionRenderer&#45;&gt;\\ExceptionRenderer</title>
<path fill="none" stroke="black" d="M1034.45,-537.181C1017.93,-533.075 1001.79,-525.893 990,-513.656 871.971,-391.103 1036.14,-260.099 918,-137.656 913.747,-133.248 908.932,-129.493 903.739,-126.301"/>
<polygon fill="none" stroke="black" points="905.142,-123.082 894.675,-121.443 901.836,-129.252 905.142,-123.082"/>
</g>
<!-- \\NetCommonsMigration -->
<g id="node52" class="node"><title>\\NetCommonsMigration</title>
<polygon fill="none" stroke="black" points="872,-829.656 728,-829.656 728,-793.656 872,-793.656 872,-829.656"/>
<text text-anchor="middle" x="800" y="-808.756" font-family="Courier,monospace" font-size="11.00">NetCommonsMigration</text>
</g>
<!-- \\CakeMigration -->
<g id="node120" class="node"><title>\\CakeMigration</title>
<ellipse fill="none" stroke="black" cx="503" cy="-122.656" rx="84.8528" ry="18.3848"/>
<text text-anchor="middle" x="503" y="-119.056" font-family="Times Roman,serif" font-size="14.00" fill="gray">\CakeMigration</text>
</g>
<!-- \\NetCommonsMigration&#45;&gt;\\CakeMigration -->
<g id="edge91" class="edge"><title>\\NetCommonsMigration&#45;&gt;\\CakeMigration</title>
<path fill="none" stroke="black" d="M727.215,-812.183C710.337,-808.806 693.865,-802.098 682,-789.656 520.075,-619.848 698.756,-483.858 610,-266.656 590.913,-219.946 553.132,-174.686 527.961,-147.747"/>
<polygon fill="none" stroke="black" points="530.331,-145.16 520.906,-140.321 525.257,-149.982 530.331,-145.16"/>
</g>
<!-- \\RssReaderFrameSettingsController -->
<g id="node53" class="node"><title>\\RssReaderFrameSettingsController</title>
<polygon fill="none" stroke="black" points="1223,-2448.66 991,-2448.66 991,-2412.66 1223,-2412.66 1223,-2448.66"/>
<text text-anchor="middle" x="1107" y="-2427.76" font-family="Courier,monospace" font-size="11.00">RssReaderFrameSettingsController</text>
</g>
<!-- \\RssReadersAppController -->
<g id="node55" class="node"><title>\\RssReadersAppController</title>
<polygon fill="none" stroke="black" points="886,-2475.66 714,-2475.66 714,-2439.66 886,-2439.66 886,-2475.66"/>
<text text-anchor="middle" x="800" y="-2454.76" font-family="Courier,monospace" font-size="11.00">RssReadersAppController</text>
</g>
<!-- \\RssReaderFrameSettingsController&#45;&gt;\\RssReadersAppController -->
<g id="edge93" class="edge"><title>\\RssReaderFrameSettingsController&#45;&gt;\\RssReadersAppController</title>
<path fill="none" stroke="black" d="M990.499,-2440.9C959.41,-2443.64 926.167,-2446.56 896.297,-2449.19"/>
<polygon fill="none" stroke="black" points="895.96,-2445.7 886.305,-2450.07 896.573,-2452.68 895.96,-2445.7"/>
</g>
<!-- \\RssReadersController -->
<g id="node54" class="node"><title>\\RssReadersController</title>
<polygon fill="none" stroke="black" points="1183,-2556.66 1031,-2556.66 1031,-2520.66 1183,-2520.66 1183,-2556.66"/>
<text text-anchor="middle" x="1107" y="-2535.76" font-family="Courier,monospace" font-size="11.00">RssReadersController</text>
</g>
<!-- \\RssReadersController&#45;&gt;\\RssReadersAppController -->
<g id="edge95" class="edge"><title>\\RssReadersController&#45;&gt;\\RssReadersAppController</title>
<path fill="none" stroke="black" d="M1030.71,-2521.63C1017.12,-2518.44 1003.12,-2515.03 990,-2511.66 950.233,-2501.42 906.098,-2488.95 870.383,-2478.57"/>
<polygon fill="none" stroke="black" points="871.123,-2475.14 860.543,-2475.7 869.164,-2481.86 871.123,-2475.14"/>
</g>
<!-- \\RssReadersAppController&#45;&gt;\\AppController -->
<g id="edge97" class="edge"><title>\\RssReadersAppController&#45;&gt;\\AppController</title>
<path fill="none" stroke="black" d="M732.168,-2439.54C713.384,-2431.43 694.691,-2419.9 682,-2403.66 563.734,-2252.26 514.436,-1615.65 504.809,-1473.77"/>
<polygon fill="none" stroke="black" points="508.295,-1473.45 504.136,-1463.7 501.311,-1473.91 508.295,-1473.45"/>
</g>
<!-- \\RssReaderBlocksController -->
<g id="node56" class="node"><title>\\RssReaderBlocksController</title>
<polygon fill="none" stroke="black" points="1199,-2502.66 1015,-2502.66 1015,-2466.66 1199,-2466.66 1199,-2502.66"/>
<text text-anchor="middle" x="1107" y="-2481.76" font-family="Courier,monospace" font-size="11.00">RssReaderBlocksController</text>
</g>
<!-- \\RssReaderBlocksController&#45;&gt;\\RssReadersAppController -->
<g id="edge99" class="edge"><title>\\RssReaderBlocksController&#45;&gt;\\RssReadersAppController</title>
<path fill="none" stroke="black" d="M1014.47,-2476.52C977.036,-2473.23 933.82,-2469.43 896.034,-2466.1"/>
<polygon fill="none" stroke="black" points="896.31,-2462.61 886.042,-2465.22 895.697,-2469.59 896.31,-2462.61"/>
</g>
<!-- \\RssReaderFrameSetting -->
<g id="node57" class="node"><title>\\RssReaderFrameSetting</title>
<polygon fill="none" stroke="black" points="1186,-2826.66 1028,-2826.66 1028,-2790.66 1186,-2790.66 1186,-2826.66"/>
<text text-anchor="middle" x="1107" y="-2805.76" font-family="Courier,monospace" font-size="11.00">RssReaderFrameSetting</text>
</g>
<!-- \\RssReadersAppModel -->
<g id="node59" class="node"><title>\\RssReadersAppModel</title>
<polygon fill="none" stroke="black" points="869,-2880.66 731,-2880.66 731,-2844.66 869,-2844.66 869,-2880.66"/>
<text text-anchor="middle" x="800" y="-2859.76" font-family="Courier,monospace" font-size="11.00">RssReadersAppModel</text>
</g>
<!-- \\RssReaderFrameSetting&#45;&gt;\\RssReadersAppModel -->
<g id="edge101" class="edge"><title>\\RssReaderFrameSetting&#45;&gt;\\RssReadersAppModel</title>
<path fill="none" stroke="black" d="M1027.94,-2822.56C982.175,-2830.61 924.762,-2840.71 879.006,-2848.76"/>
<polygon fill="none" stroke="black" points="878.374,-2845.32 869.131,-2850.5 879.587,-2852.21 878.374,-2845.32"/>
</g>
<!-- \\RssReader -->
<g id="node58" class="node"><title>\\RssReader</title>
<polygon fill="none" stroke="black" points="1145,-2934.66 1069,-2934.66 1069,-2898.66 1145,-2898.66 1145,-2934.66"/>
<text text-anchor="middle" x="1107" y="-2913.76" font-family="Courier,monospace" font-size="11.00">RssReader</text>
</g>
<!-- \\RssReader&#45;&gt;\\RssReadersAppModel -->
<g id="edge103" class="edge"><title>\\RssReader&#45;&gt;\\RssReadersAppModel</title>
<path fill="none" stroke="black" d="M1068.43,-2909.87C1021.14,-2901.55 939.795,-2887.25 879.016,-2876.55"/>
<polygon fill="none" stroke="black" points="879.521,-2873.09 869.066,-2874.8 878.308,-2879.98 879.521,-2873.09"/>
</g>
<!-- \\RssReadersAppModel&#45;&gt;\\AppModel -->
<g id="edge105" class="edge"><title>\\RssReadersAppModel&#45;&gt;\\AppModel</title>
<path fill="none" stroke="black" d="M730.742,-2856.36C674.69,-2851.26 597.337,-2844.23 548.757,-2839.82"/>
<polygon fill="none" stroke="black" points="548.824,-2836.31 538.548,-2838.89 548.19,-2843.28 548.824,-2836.31"/>
</g>
<!-- \\RssReaderItem -->
<g id="node60" class="node"><title>\\RssReaderItem</title>
<polygon fill="none" stroke="black" points="1159,-2880.66 1055,-2880.66 1055,-2844.66 1159,-2844.66 1159,-2880.66"/>
<text text-anchor="middle" x="1107" y="-2859.76" font-family="Courier,monospace" font-size="11.00">RssReaderItem</text>
</g>
<!-- \\RssReaderItem&#45;&gt;\\RssReadersAppModel -->
<g id="edge107" class="edge"><title>\\RssReaderItem&#45;&gt;\\RssReadersAppModel</title>
<path fill="none" stroke="black" d="M1054.92,-2862.66C1006.77,-2862.66 934.513,-2862.66 879.21,-2862.66"/>
<polygon fill="none" stroke="black" points="879.091,-2859.16 869.091,-2862.66 879.091,-2866.16 879.091,-2859.16"/>
</g>
<!-- \\RssReadersSchema -->
<g id="node61" class="node"><title>\\RssReadersSchema</title>
<polygon fill="none" stroke="black" points="1169,-504.656 1045,-504.656 1045,-468.656 1169,-468.656 1169,-504.656"/>
<text text-anchor="middle" x="1107" y="-483.756" font-family="Courier,monospace" font-size="11.00">RssReadersSchema</text>
</g>
<!-- \\CakeSchema -->
<g id="node130" class="node"><title>\\CakeSchema</title>
<ellipse fill="none" stroke="black" cx="800" cy="-56.6559" rx="77.0746" ry="18.3848"/>
<text text-anchor="middle" x="800" y="-53.0559" font-family="Times Roman,serif" font-size="14.00" fill="gray">\CakeSchema</text>
</g>
<!-- \\RssReadersSchema&#45;&gt;\\CakeSchema -->
<g id="edge109" class="edge"><title>\\RssReadersSchema&#45;&gt;\\CakeSchema</title>
<path fill="none" stroke="black" d="M1044.2,-485.258C1024.43,-481.7 1004.1,-474.296 990,-459.656 871.971,-337.103 1036.14,-206.099 918,-83.6559 908.93,-74.2557 897.308,-67.8286 884.908,-63.4849"/>
<polygon fill="none" stroke="black" points="885.89,-60.1252 875.304,-60.5547 883.847,-66.8205 885.89,-60.1252"/>
</g>
<!-- \\Init -->
<g id="node62" class="node"><title>\\Init</title>
<polygon fill="none" stroke="black" points="1134,-450.656 1080,-450.656 1080,-414.656 1134,-414.656 1134,-450.656"/>
<text text-anchor="middle" x="1107" y="-429.756" font-family="Courier,monospace" font-size="11.00">Init</text>
</g>
<!-- \\Init&#45;&gt;\\CakeMigration -->
<g id="edge111" class="edge"><title>\\Init&#45;&gt;\\CakeMigration</title>
<path fill="none" stroke="black" d="M1105.14,-414.626C1097.26,-348.72 1060.18,-120.016 918,-29.6559 793.446,49.5015 610.407,-51.639 536.135,-99.7915"/>
<polygon fill="none" stroke="black" points="534.06,-96.9667 527.628,-105.385 537.906,-102.816 534.06,-96.9667"/>
</g>
<!-- \\PluginRecords -->
<g id="node63" class="node"><title>\\PluginRecords</title>
<polygon fill="none" stroke="black" points="1159,-1206.66 1055,-1206.66 1055,-1170.66 1159,-1170.66 1159,-1206.66"/>
<text text-anchor="middle" x="1107" y="-1185.76" font-family="Courier,monospace" font-size="11.00">PluginRecords</text>
</g>
<!-- \\PluginRecords&#45;&gt;\\NetCommonsMigration -->
<g id="edge113" class="edge"><title>\\PluginRecords&#45;&gt;\\NetCommonsMigration</title>
<path fill="none" stroke="black" d="M1054.94,-1186.01C1033.08,-1182.66 1008.5,-1175.72 990,-1161.66 878.465,-1076.84 824.45,-906.973 806.782,-839.864"/>
<polygon fill="none" stroke="black" points="810.129,-838.823 804.256,-830.005 803.348,-840.56 810.129,-838.823"/>
</g>
</g>
</svg>
