<?xml version="1.0" encoding="UTF-8" standalone="no"?>
<!DOCTYPE svg PUBLIC "-//W3C//DTD SVG 1.1//EN"
 "http://www.w3.org/Graphics/SVG/1.1/DTD/svg11.dtd">
<!-- Generated by graphviz version 2.26.3 (20100126.1600)
 -->
<!-- Title: G Pages: 1 -->
<svg width="1060pt" height="2780pt"
 viewBox="0.00 0.00 1060.00 2780.00" xmlns="http://www.w3.org/2000/svg" xmlns:xlink="http://www.w3.org/1999/xlink">
<g id="graph1" class="graph" transform="scale(1 1) rotate(0) translate(4 2776)">
<title>G</title>
<polygon fill="white" stroke="white" points="-4,5 -4,-2776 1057,-2776 1057,5 -4,5"/>
<g id="graph2" class="cluster"><title>cluster_Global</title>
<polyline fill="none" stroke="gray" points="264,-368 1032,-368 "/>
<path fill="none" stroke="gray" d="M1032,-368C1038,-368 1044,-374 1044,-380"/>
<polyline fill="none" stroke="gray" points="1044,-380 1044,-2752 "/>
<path fill="none" stroke="gray" d="M1044,-2752C1044,-2758 1038,-2764 1032,-2764"/>
<polyline fill="none" stroke="gray" points="1032,-2764 264,-2764 "/>
<path fill="none" stroke="gray" d="M264,-2764C258,-2764 252,-2758 252,-2752"/>
<polyline fill="none" stroke="gray" points="252,-2752 252,-380 "/>
<path fill="none" stroke="gray" d="M252,-380C252,-374 258,-368 264,-368"/>
<text text-anchor="middle" x="648" y="-2750.1" font-family="Times Roman,serif" font-size="11.00" fill="gray">Global</text>
</g>
<!-- \\AppController -->
<g id="node2" class="node"><title>\\AppController</title>
<polygon fill="none" stroke="black" points="395,-1724 291,-1724 291,-1688 395,-1688 395,-1724"/>
<text text-anchor="middle" x="343" y="-1703.1" font-family="Courier,monospace" font-size="11.00">AppController</text>
</g>
<!-- \\Controller -->
<g id="node59" class="node"><title>\\Controller</title>
<ellipse fill="none" stroke="black" cx="82" cy="-604" rx="63.1385" ry="18.3848"/>
<text text-anchor="middle" x="82" y="-600.4" font-family="Times Roman,serif" font-size="14.00" fill="gray">\Controller</text>
</g>
<!-- \\AppController&#45;&gt;\\Controller -->
<g id="edge3" class="edge"><title>\\AppController&#45;&gt;\\Controller</title>
<path fill="none" stroke="black" d="M290.858,-1707.37C271.074,-1705.11 249.969,-1698.85 236,-1684 161.315,-1604.6 96.4177,-794.642 84.0999,-632.256"/>
<polygon fill="none" stroke="black" points="87.5766,-631.813 83.3347,-622.105 80.5964,-632.34 87.5766,-631.813"/>
</g>
<!-- \\AppModel -->
<g id="node3" class="node"><title>\\AppModel</title>
<polygon fill="none" stroke="black" points="675,-2518 605,-2518 605,-2482 675,-2482 675,-2518"/>
<text text-anchor="middle" x="640" y="-2497.1" font-family="Courier,monospace" font-size="11.00">AppModel</text>
</g>
<!-- \\NetCommonsAppModel -->
<g id="node50" class="node"><title>\\NetCommonsAppModel</title>
<polygon fill="none" stroke="black" points="412,-2518 274,-2518 274,-2482 412,-2482 412,-2518"/>
<text text-anchor="middle" x="343" y="-2497.1" font-family="Courier,monospace" font-size="11.00">NetCommonsAppModel</text>
</g>
<!-- \\AppModel&#45;&gt;\\NetCommonsAppModel -->
<g id="edge5" class="edge"><title>\\AppModel&#45;&gt;\\NetCommonsAppModel</title>
<path fill="none" stroke="black" d="M604.47,-2500C559.713,-2500 481.497,-2500 422.241,-2500"/>
<polygon fill="none" stroke="black" points="422.157,-2496.5 412.157,-2500 422.157,-2503.5 422.157,-2496.5"/>
</g>
<!-- \\DatabaseConfiguration -->
<g id="node4" class="node"><title>\\DatabaseConfiguration</title>
<polygon fill="none" stroke="black" points="1012,-2518 854,-2518 854,-2482 1012,-2482 1012,-2518"/>
<text text-anchor="middle" x="933" y="-2497.1" font-family="Courier,monospace" font-size="11.00">DatabaseConfiguration</text>
</g>
<!-- \\DatabaseConfiguration&#45;&gt;\\AppModel -->
<g id="edge7" class="edge"><title>\\DatabaseConfiguration&#45;&gt;\\AppModel</title>
<path fill="none" stroke="black" d="M853.71,-2500C799.937,-2500 730.74,-2500 685.886,-2500"/>
<polygon fill="none" stroke="black" points="685.866,-2496.5 675.866,-2500 685.866,-2503.5 685.866,-2496.5"/>
</g>
<!-- \\AppHelper -->
<g id="node5" class="node"><title>\\AppHelper</title>
<polygon fill="none" stroke="black" points="678,-2032 602,-2032 602,-1996 678,-1996 678,-2032"/>
<text text-anchor="middle" x="640" y="-2011.1" font-family="Courier,monospace" font-size="11.00">AppHelper</text>
</g>
<!-- \\Helper -->
<g id="node63" class="node"><title>\\Helper</title>
<ellipse fill="none" stroke="black" cx="343" cy="-342" rx="43.8406" ry="18.3848"/>
<text text-anchor="middle" x="343" y="-338.4" font-family="Times Roman,serif" font-size="14.00" fill="gray">Helper</text>
</g>
<!-- \\AppHelper&#45;&gt;\\Helper -->
<g id="edge9" class="edge"><title>\\AppHelper&#45;&gt;\\Helper</title>
<path fill="none" stroke="black" d="M635.733,-1995.84C618.459,-1921.57 553.156,-1633.52 522,-1393 507.277,-1279.34 525.482,-450.247 450,-364 436.811,-348.93 416.298,-342.55 396.747,-340.253"/>
<polygon fill="none" stroke="black" points="396.913,-336.755 386.654,-339.401 396.324,-343.73 396.913,-336.755"/>
</g>
<!-- \\NetCommonsDeleteTest -->
<g id="node6" class="node"><title>\\NetCommonsDeleteTest</title>
<polygon fill="none" stroke="black" points="1009,-2734 857,-2734 857,-2698 1009,-2698 1009,-2734"/>
<text text-anchor="middle" x="933" y="-2713.1" font-family="Courier,monospace" font-size="11.00">NetCommonsDeleteTest</text>
</g>
<!-- \\NetCommonsModelTestCase -->
<g id="node15" class="node"><title>\\NetCommonsModelTestCase</title>
<polygon fill="none" stroke="black" points="726,-2626 554,-2626 554,-2590 726,-2590 726,-2626"/>
<text text-anchor="middle" x="640" y="-2605.1" font-family="Courier,monospace" font-size="11.00">NetCommonsModelTestCase</text>
</g>
<!-- \\NetCommonsDeleteTest&#45;&gt;\\NetCommonsModelTestCase -->
<g id="edge11" class="edge"><title>\\NetCommonsDeleteTest&#45;&gt;\\NetCommonsModelTestCase</title>
<path fill="none" stroke="black" d="M856.967,-2699.68C847.685,-2696.64 838.49,-2693.1 830,-2689 793.981,-2671.6 794.288,-2651.83 758,-2635 750.962,-2631.74 743.501,-2628.85 735.884,-2626.31"/>
<polygon fill="none" stroke="black" points="736.762,-2622.91 726.173,-2623.26 734.666,-2629.59 736.762,-2622.91"/>
</g>
<!-- \\NetCommonsConsoleTestCase -->
<g id="node7" class="node"><title>\\NetCommonsConsoleTestCase</title>
<polygon fill="none" stroke="black" points="732,-2734 548,-2734 548,-2698 732,-2698 732,-2734"/>
<text text-anchor="middle" x="640" y="-2713.1" font-family="Courier,monospace" font-size="11.00">NetCommonsConsoleTestCase</text>
</g>
<!-- \\NetCommonsCakeTestCase -->
<g id="node13" class="node"><title>\\NetCommonsCakeTestCase</title>
<polygon fill="none" stroke="black" points="425,-2680 261,-2680 261,-2644 425,-2644 425,-2680"/>
<text text-anchor="middle" x="343" y="-2659.1" font-family="Courier,monospace" font-size="11.00">NetCommonsCakeTestCase</text>
</g>
<!-- \\NetCommonsConsoleTestCase&#45;&gt;\\NetCommonsCakeTestCase -->
<g id="edge13" class="edge"><title>\\NetCommonsConsoleTestCase&#45;&gt;\\NetCommonsCakeTestCase</title>
<path fill="none" stroke="black" d="M547.249,-2699.14C511.778,-2692.69 471.343,-2685.34 435.861,-2678.88"/>
<polygon fill="none" stroke="black" points="436.458,-2675.44 425.993,-2677.09 435.206,-2682.32 436.458,-2675.44"/>
</g>
<!-- \\NetCommonsGetTest -->
<g id="node8" class="node"><title>\\NetCommonsGetTest</title>
<polygon fill="none" stroke="black" points="998,-2680 868,-2680 868,-2644 998,-2644 998,-2680"/>
<text text-anchor="middle" x="933" y="-2659.1" font-family="Courier,monospace" font-size="11.00">NetCommonsGetTest</text>
</g>
<!-- \\NetCommonsGetTest&#45;&gt;\\NetCommonsModelTestCase -->
<g id="edge15" class="edge"><title>\\NetCommonsGetTest&#45;&gt;\\NetCommonsModelTestCase</title>
<path fill="none" stroke="black" d="M867.245,-2649.88C828.582,-2642.76 779.008,-2633.62 736.034,-2625.7"/>
<polygon fill="none" stroke="black" points="736.588,-2622.24 726.12,-2623.87 735.32,-2629.13 736.588,-2622.24"/>
</g>
<!-- \\NetCommonsHelperTestCase -->
<g id="node9" class="node"><title>\\NetCommonsHelperTestCase</title>
<polygon fill="none" stroke="black" points="729,-2680 551,-2680 551,-2644 729,-2644 729,-2680"/>
<text text-anchor="middle" x="640" y="-2659.1" font-family="Courier,monospace" font-size="11.00">NetCommonsHelperTestCase</text>
</g>
<!-- \\NetCommonsHelperTestCase&#45;&gt;\\NetCommonsCakeTestCase -->
<g id="edge17" class="edge"><title>\\NetCommonsHelperTestCase&#45;&gt;\\NetCommonsCakeTestCase</title>
<path fill="none" stroke="black" d="M550.487,-2662C514.267,-2662 472.456,-2662 435.9,-2662"/>
<polygon fill="none" stroke="black" points="435.737,-2658.5 425.737,-2662 435.737,-2665.5 435.737,-2658.5"/>
</g>
<!-- \\NetCommonsControllerBaseTestCase -->
<g id="node10" class="node"><title>\\NetCommonsControllerBaseTestCase</title>
<polygon fill="none" stroke="black" points="756,-1303 524,-1303 524,-1267 756,-1267 756,-1303"/>
<text text-anchor="middle" x="640" y="-1282.1" font-family="Courier,monospace" font-size="11.00">NetCommonsControllerBaseTestCase</text>
</g>
<!-- \\ControllerTestCase -->
<g id="node69" class="node"><title>\\ControllerTestCase</title>
<ellipse fill="none" stroke="black" cx="343" cy="-288" rx="106.773" ry="18.3848"/>
<text text-anchor="middle" x="343" y="-284.4" font-family="Times Roman,serif" font-size="14.00" fill="gray">\ControllerTestCase</text>
</g>
<!-- \\NetCommonsControllerBaseTestCase&#45;&gt;\\ControllerTestCase -->
<g id="edge19" class="edge"><title>\\NetCommonsControllerBaseTestCase&#45;&gt;\\ControllerTestCase</title>
<path fill="none" stroke="black" d="M569.227,-1266.89C551.05,-1258.84 533.423,-1247.34 522,-1231 405.025,-1063.64 581.699,-471.032 450,-315 446.37,-310.699 442.164,-307.03 437.563,-303.904"/>
<polygon fill="none" stroke="black" points="439.292,-300.861 428.891,-298.845 435.765,-306.907 439.292,-300.861"/>
</g>
<!-- \\NetCommonsValidateTest -->
<g id="node11" class="node"><title>\\NetCommonsValidateTest</title>
<polygon fill="none" stroke="black" points="1015,-2626 851,-2626 851,-2590 1015,-2590 1015,-2626"/>
<text text-anchor="middle" x="933" y="-2605.1" font-family="Courier,monospace" font-size="11.00">NetCommonsValidateTest</text>
</g>
<!-- \\NetCommonsValidateTest&#45;&gt;\\NetCommonsModelTestCase -->
<g id="edge21" class="edge"><title>\\NetCommonsValidateTest&#45;&gt;\\NetCommonsModelTestCase</title>
<path fill="none" stroke="black" d="M850.213,-2608C814.791,-2608 773.196,-2608 736.397,-2608"/>
<polygon fill="none" stroke="black" points="736.154,-2604.5 726.154,-2608 736.154,-2611.5 736.154,-2604.5"/>
</g>
<!-- \\NetCommonsTestSuite -->
<g id="node12" class="node"><title>\\NetCommonsTestSuite</title>
<polygon fill="none" stroke="black" points="1005,-1168 861,-1168 861,-1132 1005,-1132 1005,-1168"/>
<text text-anchor="middle" x="933" y="-1147.1" font-family="Courier,monospace" font-size="11.00">NetCommonsTestSuite</text>
</g>
<!-- \\CakeTestSuite -->
<g id="node72" class="node"><title>\\CakeTestSuite</title>
<ellipse fill="none" stroke="black" cx="640" cy="-342" rx="84.1457" ry="18.3848"/>
<text text-anchor="middle" x="640" y="-338.4" font-family="Times Roman,serif" font-size="14.00" fill="gray">\CakeTestSuite</text>
</g>
<!-- \\NetCommonsTestSuite&#45;&gt;\\CakeTestSuite -->
<g id="edge23" class="edge"><title>\\NetCommonsTestSuite&#45;&gt;\\CakeTestSuite</title>
<path fill="none" stroke="black" d="M860.328,-1142.92C848.737,-1138.69 837.962,-1132.37 830,-1123 720.272,-993.91 872.306,-489.054 758,-364 751.146,-356.501 742.623,-351.061 733.316,-347.167"/>
<polygon fill="none" stroke="black" points="734.374,-343.828 723.78,-343.769 732.025,-350.422 734.374,-343.828"/>
</g>
<!-- \\CakeTestCase -->
<g id="node74" class="node"><title>\\CakeTestCase</title>
<ellipse fill="none" stroke="black" cx="82" cy="-2662" rx="82.0244" ry="18.3848"/>
<text text-anchor="middle" x="82" y="-2658.4" font-family="Times Roman,serif" font-size="14.00" fill="gray">\CakeTestCase</text>
</g>
<!-- \\NetCommonsCakeTestCase&#45;&gt;\\CakeTestCase -->
<g id="edge25" class="edge"><title>\\NetCommonsCakeTestCase&#45;&gt;\\CakeTestCase</title>
<path fill="none" stroke="black" d="M260.418,-2662C233.018,-2662 202.345,-2662 174.263,-2662"/>
<polygon fill="none" stroke="black" points="174.045,-2658.5 164.045,-2662 174.045,-2665.5 174.045,-2658.5"/>
</g>
<!-- \\NetCommonsSaveTest -->
<g id="node14" class="node"><title>\\NetCommonsSaveTest</title>
<polygon fill="none" stroke="black" points="1002,-2572 864,-2572 864,-2536 1002,-2536 1002,-2572"/>
<text text-anchor="middle" x="933" y="-2551.1" font-family="Courier,monospace" font-size="11.00">NetCommonsSaveTest</text>
</g>
<!-- \\NetCommonsSaveTest&#45;&gt;\\NetCommonsModelTestCase -->
<g id="edge27" class="edge"><title>\\NetCommonsSaveTest&#45;&gt;\\NetCommonsModelTestCase</title>
<path fill="none" stroke="black" d="M863.934,-2566.73C825.795,-2573.76 777.829,-2582.6 736.084,-2590.29"/>
<polygon fill="none" stroke="black" points="735.372,-2586.86 726.172,-2592.12 736.641,-2593.75 735.372,-2586.86"/>
</g>
<!-- \\NetCommonsModelTestCase&#45;&gt;\\NetCommonsCakeTestCase -->
<g id="edge29" class="edge"><title>\\NetCommonsModelTestCase&#45;&gt;\\NetCommonsCakeTestCase</title>
<path fill="none" stroke="black" d="M553.696,-2623.69C516.671,-2630.42 473.35,-2638.3 435.65,-2645.15"/>
<polygon fill="none" stroke="black" points="434.899,-2641.73 425.686,-2646.97 436.151,-2648.62 434.899,-2641.73"/>
</g>
<!-- \\NetCommonsControllerTestCase -->
<g id="node16" class="node"><title>\\NetCommonsControllerTestCase</title>
<polygon fill="none" stroke="black" points="1036,-1330 830,-1330 830,-1294 1036,-1294 1036,-1330"/>
<text text-anchor="middle" x="933" y="-1309.1" font-family="Courier,monospace" font-size="11.00">NetCommonsControllerTestCase</text>
</g>
<!-- \\NetCommonsControllerTestCase&#45;&gt;\\NetCommonsControllerBaseTestCase -->
<g id="edge31" class="edge"><title>\\NetCommonsControllerTestCase&#45;&gt;\\NetCommonsControllerBaseTestCase</title>
<path fill="none" stroke="black" d="M829.699,-1302.48C809.289,-1300.6 787.65,-1298.61 766.571,-1296.66"/>
<polygon fill="none" stroke="black" points="766.885,-1293.18 756.606,-1295.75 766.243,-1300.15 766.885,-1293.18"/>
</g>
<!-- \\NetCommonsAppController -->
<g id="node17" class="node"><title>\\NetCommonsAppController</title>
<polygon fill="none" stroke="black" points="726,-1222 554,-1222 554,-1186 726,-1186 726,-1222"/>
<text text-anchor="middle" x="640" y="-1201.1" font-family="Courier,monospace" font-size="11.00">NetCommonsAppController</text>
</g>
<!-- \\NetCommonsAppController&#45;&gt;\\Controller -->
<g id="edge33" class="edge"><title>\\NetCommonsAppController&#45;&gt;\\Controller</title>
<path fill="none" stroke="black" d="M553.996,-1201.7C541.83,-1197.75 530.568,-1191.53 522,-1182 384.755,-1029.33 600.713,-400.391 450,-261 380.175,-196.42 315.848,-209.324 236,-261 124.423,-333.211 92.9143,-507.528 84.6905,-575.854"/>
<polygon fill="none" stroke="black" points="81.2028,-575.55 83.5619,-585.878 88.1588,-576.333 81.2028,-575.55"/>
</g>
<!-- \\AssetComponent -->
<g id="node18" class="node"><title>\\AssetComponent</title>
<polygon fill="none" stroke="black" points="988,-898 878,-898 878,-862 988,-862 988,-898"/>
<text text-anchor="middle" x="933" y="-877.1" font-family="Courier,monospace" font-size="11.00">AssetComponent</text>
</g>
<!-- \\Component -->
<g id="node80" class="node"><title>\\Component</title>
<ellipse fill="none" stroke="black" cx="640" cy="-288" rx="70.9184" ry="18.3848"/>
<text text-anchor="middle" x="640" y="-284.4" font-family="Times Roman,serif" font-size="14.00" fill="gray">\Component</text>
</g>
<!-- \\AssetComponent&#45;&gt;\\Component -->
<g id="edge35" class="edge"><title>\\AssetComponent&#45;&gt;\\Component</title>
<path fill="none" stroke="black" d="M877.435,-877.354C859.902,-873.714 841.996,-866.575 830,-853 670.252,-672.227 920.569,-493.24 758,-315 748.162,-304.213 734.974,-297.293 720.979,-292.934"/>
<polygon fill="none" stroke="black" points="721.757,-289.519 711.192,-290.31 719.944,-296.281 721.757,-289.519"/>
</g>
<!-- \\AccessCtrlComponent -->
<g id="node19" class="node"><title>\\AccessCtrlComponent</title>
<polygon fill="none" stroke="black" points="1005,-844 861,-844 861,-808 1005,-808 1005,-844"/>
<text text-anchor="middle" x="933" y="-823.1" font-family="Courier,monospace" font-size="11.00">AccessCtrlComponent</text>
</g>
<!-- \\AccessCtrlComponent&#45;&gt;\\Component -->
<g id="edge37" class="edge"><title>\\AccessCtrlComponent&#45;&gt;\\Component</title>
<path fill="none" stroke="black" d="M860.47,-818.469C848.938,-814.277 838.146,-808.083 830,-799 684.8,-637.094 905.726,-474.605 758,-315 748.083,-304.286 734.859,-297.398 720.853,-293.049"/>
<polygon fill="none" stroke="black" points="721.628,-289.634 711.063,-290.429 719.818,-296.396 721.628,-289.634"/>
</g>
<!-- \\NetCommonsTimeComponent -->
<g id="node20" class="node"><title>\\NetCommonsTimeComponent</title>
<polygon fill="none" stroke="black" points="1019,-1114 847,-1114 847,-1078 1019,-1078 1019,-1114"/>
<text text-anchor="middle" x="933" y="-1093.1" font-family="Courier,monospace" font-size="11.00">NetCommonsTimeComponent</text>
</g>
<!-- \\NetCommonsTimeComponent&#45;&gt;\\Component -->
<g id="edge39" class="edge"><title>\\NetCommonsTimeComponent&#45;&gt;\\Component</title>
<path fill="none" stroke="black" d="M846.99,-1082.8C840.599,-1079.16 834.791,-1074.63 830,-1069 720.948,-940.787 869.053,-441.484 758,-315 748.311,-303.965 735.121,-296.943 721.061,-292.564"/>
<polygon fill="none" stroke="black" points="721.786,-289.135 711.222,-289.939 719.981,-295.899 721.786,-289.135"/>
</g>
<!-- \\PermissionComponent -->
<g id="node21" class="node"><title>\\PermissionComponent</title>
<polygon fill="none" stroke="black" points="1005,-1060 861,-1060 861,-1024 1005,-1024 1005,-1060"/>
<text text-anchor="middle" x="933" y="-1039.1" font-family="Courier,monospace" font-size="11.00">PermissionComponent</text>
</g>
<!-- \\PermissionComponent&#45;&gt;\\Component -->
<g id="edge41" class="edge"><title>\\PermissionComponent&#45;&gt;\\Component</title>
<path fill="none" stroke="black" d="M860.389,-1034.86C848.792,-1030.64 837.999,-1024.34 830,-1015 626.502,-777.507 965.204,-549.266 758,-315 748.271,-304.001 735.062,-296.994 720.998,-292.62"/>
<polygon fill="none" stroke="black" points="721.72,-289.191 711.156,-289.996 719.917,-295.955 721.72,-289.191"/>
</g>
<!-- \\NetCommonsComponent -->
<g id="node22" class="node"><title>\\NetCommonsComponent</title>
<polygon fill="none" stroke="black" points="1005,-1006 861,-1006 861,-970 1005,-970 1005,-1006"/>
<text text-anchor="middle" x="933" y="-985.1" font-family="Courier,monospace" font-size="11.00">NetCommonsComponent</text>
</g>
<!-- \\NetCommonsComponent&#45;&gt;\\Component -->
<g id="edge43" class="edge"><title>\\NetCommonsComponent&#45;&gt;\\Component</title>
<path fill="none" stroke="black" d="M860.454,-980.809C848.851,-976.592 838.038,-970.301 830,-961 641.099,-742.429 950.312,-530.576 758,-315 748.225,-304.042 734.994,-297.054 720.924,-292.686"/>
<polygon fill="none" stroke="black" points="721.644,-289.256 711.08,-290.064 719.842,-296.02 721.644,-289.256"/>
</g>
<!-- \\SiteCloseController -->
<g id="node23" class="node"><title>\\SiteCloseController</title>
<polygon fill="none" stroke="black" points="1005,-1276 861,-1276 861,-1240 1005,-1240 1005,-1276"/>
<text text-anchor="middle" x="933" y="-1255.1" font-family="Courier,monospace" font-size="11.00">SiteCloseController</text>
</g>
<!-- \\SiteCloseController&#45;&gt;\\NetCommonsAppController -->
<g id="edge45" class="edge"><title>\\SiteCloseController&#45;&gt;\\NetCommonsAppController</title>
<path fill="none" stroke="black" d="M860.197,-1244.58C822.697,-1237.67 776.487,-1229.15 736.097,-1221.71"/>
<polygon fill="none" stroke="black" points="736.702,-1218.26 726.233,-1219.89 735.433,-1225.15 736.702,-1218.26"/>
</g>
<!-- \\NetCommonsController -->
<g id="node24" class="node"><title>\\NetCommonsController</title>
<polygon fill="none" stroke="black" points="1009,-1222 857,-1222 857,-1186 1009,-1186 1009,-1222"/>
<text text-anchor="middle" x="933" y="-1201.1" font-family="Courier,monospace" font-size="11.00">NetCommonsController</text>
</g>
<!-- \\NetCommonsController&#45;&gt;\\NetCommonsAppController -->
<g id="edge47" class="edge"><title>\\NetCommonsController&#45;&gt;\\NetCommonsAppController</title>
<path fill="none" stroke="black" d="M856.783,-1204C820.049,-1204 775.59,-1204 736.519,-1204"/>
<polygon fill="none" stroke="black" points="736.183,-1200.5 726.183,-1204 736.183,-1207.5 736.183,-1200.5"/>
</g>
<!-- \\NetCommonsUrl -->
<g id="node25" class="node"><title>\\NetCommonsUrl</title>
<polygon fill="none" stroke="black" points="985,-1978 881,-1978 881,-1942 985,-1942 985,-1978"/>
<text text-anchor="middle" x="933" y="-1957.1" font-family="Courier,monospace" font-size="11.00">NetCommonsUrl</text>
</g>
<!-- \\NetCommonsTime -->
<g id="node26" class="node"><title>\\NetCommonsTime</title>
<polygon fill="none" stroke="black" points="988,-1924 878,-1924 878,-1888 988,-1888 988,-1924"/>
<text text-anchor="middle" x="933" y="-1903.1" font-family="Courier,monospace" font-size="11.00">NetCommonsTime</text>
</g>
<!-- \\CurrentBase -->
<g id="node27" class="node"><title>\\CurrentBase</title>
<polygon fill="none" stroke="black" points="685,-1384 595,-1384 595,-1348 685,-1348 685,-1384"/>
<text text-anchor="middle" x="640" y="-1363.1" font-family="Courier,monospace" font-size="11.00">CurrentBase</text>
</g>
<!-- \\Current -->
<g id="node28" class="node"><title>\\Current</title>
<polygon fill="none" stroke="black" points="965,-1384 901,-1384 901,-1348 965,-1348 965,-1384"/>
<text text-anchor="middle" x="933" y="-1363.1" font-family="Courier,monospace" font-size="11.00">Current</text>
</g>
<!-- \\Current&#45;&gt;\\CurrentBase -->
<g id="edge49" class="edge"><title>\\Current&#45;&gt;\\CurrentBase</title>
<path fill="none" stroke="black" d="M900.806,-1366C851.48,-1366 756.554,-1366 695.846,-1366"/>
<polygon fill="none" stroke="black" points="695.669,-1362.5 685.669,-1366 695.669,-1369.5 695.669,-1362.5"/>
</g>
<!-- \\CurrentSystem -->
<g id="node29" class="node"><title>\\CurrentSystem</title>
<polygon fill="none" stroke="black" points="985,-1816 881,-1816 881,-1780 985,-1780 985,-1816"/>
<text text-anchor="middle" x="933" y="-1795.1" font-family="Courier,monospace" font-size="11.00">CurrentSystem</text>
</g>
<!-- \\CurrentPage -->
<g id="node30" class="node"><title>\\CurrentPage</title>
<polygon fill="none" stroke="black" points="978,-1762 888,-1762 888,-1726 978,-1726 978,-1762"/>
<text text-anchor="middle" x="933" y="-1741.1" font-family="Courier,monospace" font-size="11.00">CurrentPage</text>
</g>
<!-- \\CurrentFrame -->
<g id="node31" class="node"><title>\\CurrentFrame</title>
<polygon fill="none" stroke="black" points="982,-1708 884,-1708 884,-1672 982,-1672 982,-1708"/>
<text text-anchor="middle" x="933" y="-1687.1" font-family="Courier,monospace" font-size="11.00">CurrentFrame</text>
</g>
<!-- \\TokenHelper -->
<g id="node32" class="node"><title>\\TokenHelper</title>
<polygon fill="none" stroke="black" points="978,-682 888,-682 888,-646 978,-646 978,-682"/>
<text text-anchor="middle" x="933" y="-661.1" font-family="Courier,monospace" font-size="11.00">TokenHelper</text>
</g>
<!-- \\FormHelper -->
<g id="node89" class="node"><title>\\FormHelper</title>
<ellipse fill="none" stroke="black" cx="640" cy="-234" rx="70.9184" ry="18.3848"/>
<text text-anchor="middle" x="640" y="-230.4" font-family="Times Roman,serif" font-size="14.00" fill="gray">\FormHelper</text>
</g>
<!-- \\TokenHelper&#45;&gt;\\FormHelper -->
<g id="edge51" class="edge"><title>\\TokenHelper&#45;&gt;\\FormHelper</title>
<path fill="none" stroke="black" d="M887.419,-662.661C867.167,-659.676 844.645,-652.664 830,-637 713.795,-512.716 876.143,-383.443 758,-261 747.863,-250.494 734.538,-243.702 720.502,-239.381"/>
<polygon fill="none" stroke="black" points="721.266,-235.962 710.702,-236.77 719.464,-242.726 721.266,-235.962"/>
</g>
<!-- \\SingletonViewBlockHtmlHelper -->
<g id="node33" class="node"><title>\\SingletonViewBlockHtmlHelper</title>
<polygon fill="none" stroke="black" points="1036,-628 830,-628 830,-592 1036,-592 1036,-628"/>
<text text-anchor="middle" x="933" y="-607.1" font-family="Courier,monospace" font-size="11.00">SingletonViewBlockHtmlHelper</text>
</g>
<!-- \\HtmlHelper -->
<g id="node91" class="node"><title>\\HtmlHelper</title>
<ellipse fill="none" stroke="black" cx="640" cy="-180" rx="67.1751" ry="18.3848"/>
<text text-anchor="middle" x="640" y="-176.4" font-family="Times Roman,serif" font-size="14.00" fill="gray">HtmlHelper</text>
</g>
<!-- \\SingletonViewBlockHtmlHelper&#45;&gt;\\HtmlHelper -->
<g id="edge53" class="edge"><title>\\SingletonViewBlockHtmlHelper&#45;&gt;\\HtmlHelper</title>
<path fill="none" stroke="black" d="M840.465,-591.968C836.678,-589.35 833.156,-586.376 830,-583 713.795,-458.716 876.143,-329.443 758,-207 746.987,-195.587 732.213,-188.556 716.851,-184.316"/>
<polygon fill="none" stroke="black" points="717.243,-180.812 706.706,-181.915 715.631,-187.624 717.243,-180.812"/>
</g>
<!-- \\FormInputHelper -->
<g id="node34" class="node"><title>\\FormInputHelper</title>
<polygon fill="none" stroke="black" points="992,-2356 874,-2356 874,-2320 992,-2320 992,-2356"/>
<text text-anchor="middle" x="933" y="-2335.1" font-family="Courier,monospace" font-size="11.00">FormInputHelper</text>
</g>
<!-- \\FormInputHelper&#45;&gt;\\AppHelper -->
<g id="edge55" class="edge"><title>\\FormInputHelper&#45;&gt;\\AppHelper</title>
<path fill="none" stroke="black" d="M873.801,-2330.4C858.513,-2326.4 842.78,-2320.3 830,-2311 779.522,-2274.27 688.866,-2107.53 654.1,-2041.27"/>
<polygon fill="none" stroke="black" points="657.121,-2039.49 649.388,-2032.25 650.916,-2042.73 657.121,-2039.49"/>
</g>
<!-- \\WizardHelper -->
<g id="node35" class="node"><title>\\WizardHelper</title>
<polygon fill="none" stroke="black" points="982,-2302 884,-2302 884,-2266 982,-2266 982,-2302"/>
<text text-anchor="middle" x="933" y="-2281.1" font-family="Courier,monospace" font-size="11.00">WizardHelper</text>
</g>
<!-- \\WizardHelper&#45;&gt;\\AppHelper -->
<g id="edge57" class="edge"><title>\\WizardHelper&#45;&gt;\\AppHelper</title>
<path fill="none" stroke="black" d="M883.912,-2277.86C865.881,-2273.94 845.985,-2267.51 830,-2257 744.042,-2200.46 680.094,-2091.93 653.531,-2041.28"/>
<polygon fill="none" stroke="black" points="656.562,-2039.52 648.865,-2032.24 650.341,-2042.73 656.562,-2039.52"/>
</g>
<!-- \\DisplayNumberHelper -->
<g id="node36" class="node"><title>\\DisplayNumberHelper</title>
<polygon fill="none" stroke="black" points="1005,-2248 861,-2248 861,-2212 1005,-2212 1005,-2248"/>
<text text-anchor="middle" x="933" y="-2227.1" font-family="Courier,monospace" font-size="11.00">DisplayNumberHelper</text>
</g>
<!-- \\DisplayNumberHelper&#45;&gt;\\AppHelper -->
<g id="edge59" class="edge"><title>\\DisplayNumberHelper&#45;&gt;\\AppHelper</title>
<path fill="none" stroke="black" d="M860.439,-2216.17C849.863,-2212.69 839.387,-2208.37 830,-2203 755.721,-2160.51 690.104,-2081.52 659.041,-2040.41"/>
<polygon fill="none" stroke="black" points="661.73,-2038.16 652.946,-2032.24 656.119,-2042.35 661.73,-2038.16"/>
</g>
<!-- \\MessageFlashHelper -->
<g id="node37" class="node"><title>\\MessageFlashHelper</title>
<polygon fill="none" stroke="black" points="1002,-2194 864,-2194 864,-2158 1002,-2158 1002,-2194"/>
<text text-anchor="middle" x="933" y="-2173.1" font-family="Courier,monospace" font-size="11.00">MessageFlashHelper</text>
</g>
<!-- \\MessageFlashHelper&#45;&gt;\\AppHelper -->
<g id="edge61" class="edge"><title>\\MessageFlashHelper&#45;&gt;\\AppHelper</title>
<path fill="none" stroke="black" d="M863.909,-2161.59C852.332,-2158.13 840.635,-2153.97 830,-2149 767.211,-2119.67 703.394,-2069.16 668.029,-2038.94"/>
<polygon fill="none" stroke="black" points="669.944,-2035.97 660.087,-2032.08 665.369,-2041.26 669.944,-2035.97"/>
</g>
<!-- \\DateHelper -->
<g id="node38" class="node"><title>\\DateHelper</title>
<polygon fill="none" stroke="black" points="975,-2140 891,-2140 891,-2104 975,-2104 975,-2140"/>
<text text-anchor="middle" x="933" y="-2119.1" font-family="Courier,monospace" font-size="11.00">DateHelper</text>
</g>
<!-- \\DateHelper&#45;&gt;\\AppHelper -->
<g id="edge63" class="edge"><title>\\DateHelper&#45;&gt;\\AppHelper</title>
<path fill="none" stroke="black" d="M890.99,-2112.47C872.149,-2107.82 849.764,-2101.76 830,-2095 780.27,-2077.98 725.199,-2053.9 687.206,-2036.42"/>
<polygon fill="none" stroke="black" points="688.474,-2033.15 677.929,-2032.12 685.534,-2039.5 688.474,-2033.15"/>
</g>
<!-- \\SnsButtonHelper -->
<g id="node39" class="node"><title>\\SnsButtonHelper</title>
<polygon fill="none" stroke="black" points="992,-2086 874,-2086 874,-2050 992,-2050 992,-2086"/>
<text text-anchor="middle" x="933" y="-2065.1" font-family="Courier,monospace" font-size="11.00">SnsButtonHelper</text>
</g>
<!-- \\SnsButtonHelper&#45;&gt;\\AppHelper -->
<g id="edge65" class="edge"><title>\\SnsButtonHelper&#45;&gt;\\AppHelper</title>
<path fill="none" stroke="black" d="M873.707,-2057.07C819.266,-2047.04 739.563,-2032.35 688.738,-2022.98"/>
<polygon fill="none" stroke="black" points="689.131,-2019.5 678.663,-2021.13 687.863,-2026.38 689.131,-2019.5"/>
</g>
<!-- \\BackToHelper -->
<g id="node40" class="node"><title>\\BackToHelper</title>
<polygon fill="none" stroke="black" points="982,-2032 884,-2032 884,-1996 982,-1996 982,-2032"/>
<text text-anchor="middle" x="933" y="-2011.1" font-family="Courier,monospace" font-size="11.00">BackToHelper</text>
</g>
<!-- \\BackToHelper&#45;&gt;\\AppHelper -->
<g id="edge67" class="edge"><title>\\BackToHelper&#45;&gt;\\AppHelper</title>
<path fill="none" stroke="black" d="M883.958,-2014C829.78,-2014 743.056,-2014 688.925,-2014"/>
<polygon fill="none" stroke="black" points="688.882,-2010.5 678.882,-2014 688.882,-2017.5 688.882,-2010.5"/>
</g>
<!-- \\NetCommonsHtmlHelper -->
<g id="node41" class="node"><title>\\NetCommonsHtmlHelper</title>
<polygon fill="none" stroke="black" points="1009,-1870 857,-1870 857,-1834 1009,-1834 1009,-1870"/>
<text text-anchor="middle" x="933" y="-1849.1" font-family="Courier,monospace" font-size="11.00">NetCommonsHtmlHelper</text>
</g>
<!-- \\NetCommonsHtmlHelper&#45;&gt;\\AppHelper -->
<g id="edge69" class="edge"><title>\\NetCommonsHtmlHelper&#45;&gt;\\AppHelper</title>
<path fill="none" stroke="black" d="M856.793,-1868.62C847.587,-1871.61 838.458,-1875.05 830,-1879 767.211,-1908.33 703.394,-1958.84 668.029,-1989.06"/>
<polygon fill="none" stroke="black" points="665.369,-1986.74 660.087,-1995.92 669.944,-1992.03 665.369,-1986.74"/>
</g>
<!-- \\ButtonHelper -->
<g id="node42" class="node"><title>\\ButtonHelper</title>
<polygon fill="none" stroke="black" points="982,-790 884,-790 884,-754 982,-754 982,-790"/>
<text text-anchor="middle" x="933" y="-769.1" font-family="Courier,monospace" font-size="11.00">ButtonHelper</text>
</g>
<!-- \\ButtonHelper&#45;&gt;\\FormHelper -->
<g id="edge71" class="edge"><title>\\ButtonHelper&#45;&gt;\\FormHelper</title>
<path fill="none" stroke="black" d="M883.956,-770.443C864.503,-767.253 843.577,-760.139 830,-745 684.8,-583.094 905.726,-420.605 758,-261 748.083,-250.286 734.859,-243.398 720.853,-239.049"/>
<polygon fill="none" stroke="black" points="721.628,-235.634 711.063,-236.429 719.818,-242.396 721.628,-235.634"/>
</g>
<!-- \\ComposerHelper -->
<g id="node43" class="node"><title>\\ComposerHelper</title>
<polygon fill="none" stroke="black" points="988,-1654 878,-1654 878,-1618 988,-1618 988,-1654"/>
<text text-anchor="middle" x="933" y="-1633.1" font-family="Courier,monospace" font-size="11.00">ComposerHelper</text>
</g>
<!-- \\ComposerHelper&#45;&gt;\\AppHelper -->
<g id="edge73" class="edge"><title>\\ComposerHelper&#45;&gt;\\AppHelper</title>
<path fill="none" stroke="black" d="M877.351,-1641.99C860.814,-1645.92 843.523,-1652.38 830,-1663 719.54,-1749.71 664.898,-1919.1 646.922,-1985.93"/>
<polygon fill="none" stroke="black" points="643.499,-1985.18 644.349,-1995.74 650.271,-1986.96 643.499,-1985.18"/>
</g>
<!-- \\LinkButtonHelper -->
<g id="node44" class="node"><title>\\LinkButtonHelper</title>
<polygon fill="none" stroke="black" points="995,-736 871,-736 871,-700 995,-700 995,-736"/>
<text text-anchor="middle" x="933" y="-715.1" font-family="Courier,monospace" font-size="11.00">LinkButtonHelper</text>
</g>
<!-- \\LinkButtonHelper&#45;&gt;\\FormHelper -->
<g id="edge75" class="edge"><title>\\LinkButtonHelper&#45;&gt;\\FormHelper</title>
<path fill="none" stroke="black" d="M870.442,-713.412C855.337,-709.395 840.535,-702.534 830,-691 699.318,-547.927 890.914,-402.002 758,-261 747.986,-250.377 734.718,-243.531 720.698,-239.194"/>
<polygon fill="none" stroke="black" points="721.468,-235.777 710.904,-236.577 719.661,-242.54 721.468,-235.777"/>
</g>
<!-- \\TableListHelper -->
<g id="node45" class="node"><title>\\TableListHelper</title>
<polygon fill="none" stroke="black" points="992,-1600 874,-1600 874,-1564 992,-1564 992,-1600"/>
<text text-anchor="middle" x="933" y="-1579.1" font-family="Courier,monospace" font-size="11.00">TableListHelper</text>
</g>
<!-- \\TableListHelper&#45;&gt;\\AppHelper -->
<g id="edge77" class="edge"><title>\\TableListHelper&#45;&gt;\\AppHelper</title>
<path fill="none" stroke="black" d="M873.762,-1588.31C858.215,-1592.3 842.36,-1598.71 830,-1609 706.832,-1711.54 658.776,-1911.91 644.769,-1985.78"/>
<polygon fill="none" stroke="black" points="641.305,-1985.27 642.945,-1995.73 648.19,-1986.53 641.305,-1985.27"/>
</g>
<!-- \\NetCommonsTimeHelper -->
<g id="node46" class="node"><title>\\NetCommonsTimeHelper</title>
<polygon fill="none" stroke="black" points="1009,-1546 857,-1546 857,-1510 1009,-1510 1009,-1546"/>
<text text-anchor="middle" x="933" y="-1525.1" font-family="Courier,monospace" font-size="11.00">NetCommonsTimeHelper</text>
</g>
<!-- \\NetCommonsTimeHelper&#45;&gt;\\AppHelper -->
<g id="edge79" class="edge"><title>\\NetCommonsTimeHelper&#45;&gt;\\AppHelper</title>
<path fill="none" stroke="black" d="M856.914,-1539.23C847.118,-1543.07 837.801,-1548.19 830,-1555 694.066,-1673.59 653.424,-1904.8 643.102,-1985.44"/>
<polygon fill="none" stroke="black" points="639.576,-1985.44 641.84,-1995.79 646.525,-1986.29 639.576,-1985.44"/>
</g>
<!-- \\NetCommonsFormHelper -->
<g id="node47" class="node"><title>\\NetCommonsFormHelper</title>
<polygon fill="none" stroke="black" points="1009,-1492 857,-1492 857,-1456 1009,-1456 1009,-1492"/>
<text text-anchor="middle" x="933" y="-1471.1" font-family="Courier,monospace" font-size="11.00">NetCommonsFormHelper</text>
</g>
<!-- \\NetCommonsFormHelper&#45;&gt;\\AppHelper -->
<g id="edge81" class="edge"><title>\\NetCommonsFormHelper&#45;&gt;\\AppHelper</title>
<path fill="none" stroke="black" d="M856.938,-1484.86C847.08,-1488.75 837.74,-1493.99 830,-1501 680.846,-1636.16 648.432,-1899.13 641.693,-1985.65"/>
<polygon fill="none" stroke="black" points="638.192,-1985.53 640.962,-1995.76 645.174,-1986.04 638.192,-1985.53"/>
</g>
<!-- \\TitleIconHelper -->
<g id="node48" class="node"><title>\\TitleIconHelper</title>
<polygon fill="none" stroke="black" points="992,-1438 874,-1438 874,-1402 992,-1402 992,-1438"/>
<text text-anchor="middle" x="933" y="-1417.1" font-family="Courier,monospace" font-size="11.00">TitleIconHelper</text>
</g>
<!-- \\TitleIconHelper&#45;&gt;\\AppHelper -->
<g id="edge83" class="edge"><title>\\TitleIconHelper&#45;&gt;\\AppHelper</title>
<path fill="none" stroke="black" d="M873.764,-1425.2C857.946,-1429.15 841.949,-1435.83 830,-1447 747.245,-1524.39 667.482,-1882.01 645.771,-1985.73"/>
<polygon fill="none" stroke="black" points="642.293,-1985.26 643.686,-1995.77 649.147,-1986.69 642.293,-1985.26"/>
</g>
<!-- \\DatetimePickerHelper -->
<g id="node49" class="node"><title>\\DatetimePickerHelper</title>
<polygon fill="none" stroke="black" points="1009,-2410 857,-2410 857,-2374 1009,-2374 1009,-2410"/>
<text text-anchor="middle" x="933" y="-2389.1" font-family="Courier,monospace" font-size="11.00">DatetimePickerHelper</text>
</g>
<!-- \\DatetimePickerHelper&#45;&gt;\\AppHelper -->
<g id="edge85" class="edge"><title>\\DatetimePickerHelper&#45;&gt;\\AppHelper</title>
<path fill="none" stroke="black" d="M856.975,-2379.86C847.283,-2376.14 837.978,-2371.3 830,-2365 776.641,-2322.85 790.301,-2289.84 758,-2230 721.186,-2161.8 677.306,-2081.82 654.851,-2040.98"/>
<polygon fill="none" stroke="black" points="657.894,-2039.25 650.007,-2032.17 651.76,-2042.62 657.894,-2039.25"/>
</g>
<!-- \\Model -->
<g id="node109" class="node"><title>\\Model</title>
<ellipse fill="none" stroke="black" cx="82" cy="-2500" rx="43.8406" ry="18.3848"/>
<text text-anchor="middle" x="82" y="-2496.4" font-family="Times Roman,serif" font-size="14.00" fill="gray">\Model</text>
</g>
<!-- \\NetCommonsAppModel&#45;&gt;\\Model -->
<g id="edge87" class="edge"><title>\\NetCommonsAppModel&#45;&gt;\\Model</title>
<path fill="none" stroke="black" d="M273.742,-2500C230.675,-2500 176.099,-2500 136.195,-2500"/>
<polygon fill="none" stroke="black" points="136.125,-2496.5 126.125,-2500 136.125,-2503.5 136.125,-2496.5"/>
</g>
<!-- \\OriginalKeyBehavior -->
<g id="node51" class="node"><title>\\OriginalKeyBehavior</title>
<polygon fill="none" stroke="black" points="1005,-574 861,-574 861,-538 1005,-538 1005,-574"/>
<text text-anchor="middle" x="933" y="-553.1" font-family="Courier,monospace" font-size="11.00">OriginalKeyBehavior</text>
</g>
<!-- \\ModelBehavior -->
<g id="node111" class="node"><title>\\ModelBehavior</title>
<ellipse fill="none" stroke="black" cx="640" cy="-126" rx="86.9741" ry="18.3848"/>
<text text-anchor="middle" x="640" y="-122.4" font-family="Times Roman,serif" font-size="14.00" fill="gray">\ModelBehavior</text>
</g>
<!-- \\OriginalKeyBehavior&#45;&gt;\\ModelBehavior -->
<g id="edge89" class="edge"><title>\\OriginalKeyBehavior&#45;&gt;\\ModelBehavior</title>
<path fill="none" stroke="black" d="M860.253,-547.995C848.886,-543.838 838.206,-537.777 830,-529 713.795,-404.716 876.143,-275.443 758,-153 750.646,-145.379 741.615,-139.712 731.852,-135.525"/>
<polygon fill="none" stroke="black" points="732.89,-132.176 722.298,-131.949 730.436,-138.732 732.89,-132.176"/>
</g>
<!-- \\TrackableBehavior -->
<g id="node52" class="node"><title>\\TrackableBehavior</title>
<polygon fill="none" stroke="black" points="998,-520 868,-520 868,-484 998,-484 998,-520"/>
<text text-anchor="middle" x="933" y="-499.1" font-family="Courier,monospace" font-size="11.00">TrackableBehavior</text>
</g>
<!-- \\TrackableBehavior&#45;&gt;\\ModelBehavior -->
<g id="edge91" class="edge"><title>\\TrackableBehavior&#45;&gt;\\ModelBehavior</title>
<path fill="none" stroke="black" d="M867.375,-496.047C853.48,-491.941 840.009,-485.38 830,-475 728.21,-369.437 861.436,-256.95 758,-153 750.53,-145.493 741.428,-139.895 731.627,-135.745"/>
<polygon fill="none" stroke="black" points="732.638,-132.388 722.045,-132.196 730.207,-138.952 732.638,-132.388"/>
</g>
<!-- \\YAExceptionRenderer -->
<g id="node53" class="node"><title>\\YAExceptionRenderer</title>
<polygon fill="none" stroke="black" points="1005,-466 861,-466 861,-430 1005,-430 1005,-466"/>
<text text-anchor="middle" x="933" y="-445.1" font-family="Courier,monospace" font-size="11.00">YAExceptionRenderer</text>
</g>
<!-- \\ExceptionRenderer -->
<g id="node114" class="node"><title>\\ExceptionRenderer</title>
<ellipse fill="none" stroke="black" cx="640" cy="-72" rx="118.087" ry="18.3848"/>
<text text-anchor="middle" x="640" y="-68.4" font-family="Times Roman,serif" font-size="14.00" fill="gray">TEHxceptionRenderer</text>
</g>
<!-- \\YAExceptionRenderer&#45;&gt;\\ExceptionRenderer -->
<g id="edge93" class="edge"><title>\\YAExceptionRenderer&#45;&gt;\\ExceptionRenderer</title>
<path fill="none" stroke="black" d="M860.477,-439.783C849.086,-435.648 838.341,-429.65 830,-421 728.21,-315.437 861.436,-202.95 758,-99 753.632,-94.61 748.706,-90.873 743.408,-87.6967"/>
<polygon fill="none" stroke="black" points="744.657,-84.4002 734.174,-82.8643 741.411,-90.6022 744.657,-84.4002"/>
</g>
<!-- \\NetCommonsMigration -->
<g id="node54" class="node"><title>\\NetCommonsMigration</title>
<polygon fill="none" stroke="black" points="1005,-412 861,-412 861,-376 1005,-376 1005,-412"/>
<text text-anchor="middle" x="933" y="-391.1" font-family="Courier,monospace" font-size="11.00">NetCommonsMigration</text>
</g>
<!-- \\CakeMigration -->
<g id="node116" class="node"><title>\\CakeMigration</title>
<ellipse fill="none" stroke="black" cx="640" cy="-18" rx="84.8528" ry="18.3848"/>
<text text-anchor="middle" x="640" y="-14.4" font-family="Times Roman,serif" font-size="14.00" fill="gray">\CakeMigration</text>
</g>
<!-- \\NetCommonsMigration&#45;&gt;\\CakeMigration -->
<g id="edge95" class="edge"><title>\\NetCommonsMigration&#45;&gt;\\CakeMigration</title>
<path fill="none" stroke="black" d="M929.544,-375.725C917.514,-317.407 871.834,-134.35 758,-45 748.922,-37.8745 738.309,-32.5637 727.237,-28.6167"/>
<polygon fill="none" stroke="black" points="728.007,-25.1887 717.416,-25.488 725.882,-31.8584 728.007,-25.1887"/>
</g>
<!-- \\ControlPanelAppController -->
<g id="node55" class="node"><title>\\ControlPanelAppController</title>
<polygon fill="none" stroke="black" points="732,-2275 548,-2275 548,-2239 732,-2239 732,-2275"/>
<text text-anchor="middle" x="640" y="-2254.1" font-family="Courier,monospace" font-size="11.00">ControlPanelAppController</text>
</g>
<!-- \\ControlPanelAppController&#45;&gt;\\AppController -->
<g id="edge97" class="edge"><title>\\ControlPanelAppController&#45;&gt;\\AppController</title>
<path fill="none" stroke="black" d="M629.997,-2238.83C609.586,-2201.71 561.71,-2114.5 522,-2041 460.367,-1926.93 387.814,-1790.46 357.474,-1733.29"/>
<polygon fill="none" stroke="black" points="360.422,-1731.38 352.643,-1724.19 354.238,-1734.66 360.422,-1731.38"/>
</g>
<!-- \\ControlPanelLayoutComponent -->
<g id="node56" class="node"><title>\\ControlPanelLayoutComponent</title>
<polygon fill="none" stroke="black" points="1032,-952 834,-952 834,-916 1032,-916 1032,-952"/>
<text text-anchor="middle" x="933" y="-931.1" font-family="Courier,monospace" font-size="11.00">ControlPanelLayoutComponent</text>
</g>
<!-- \\ControlPanelLayoutComponent&#45;&gt;\\Component -->
<g id="edge99" class="edge"><title>\\ControlPanelLayoutComponent&#45;&gt;\\Component</title>
<path fill="none" stroke="black" d="M839.735,-915.902C836.194,-913.295 832.918,-910.342 830,-907 655.683,-707.337 935.432,-511.899 758,-315 748.227,-304.155 735.069,-297.207 721.082,-292.841"/>
<polygon fill="none" stroke="black" points="721.864,-289.426 711.298,-290.214 720.049,-296.187 721.864,-289.426"/>
</g>
<!-- \\ControlPanelController -->
<g id="node57" class="node"><title>\\ControlPanelController</title>
<polygon fill="none" stroke="black" points="1015,-2464 851,-2464 851,-2428 1015,-2428 1015,-2464"/>
<text text-anchor="middle" x="933" y="-2443.1" font-family="Courier,monospace" font-size="11.00">ControlPanelController</text>
</g>
<!-- \\ControlPanelController&#45;&gt;\\ControlPanelAppController -->
<g id="edge101" class="edge"><title>\\ControlPanelController&#45;&gt;\\ControlPanelAppController</title>
<path fill="none" stroke="black" d="M850.488,-2427.98C843.4,-2425.36 836.473,-2422.38 830,-2419 761.41,-2383.19 696.097,-2318.56 662.838,-2282.7"/>
<polygon fill="none" stroke="black" points="665.192,-2280.09 655.854,-2275.09 660.033,-2284.83 665.192,-2280.09"/>
</g>
</g>
</svg>
