<?xml version="1.0" encoding="UTF-8" standalone="no"?>
<!DOCTYPE svg PUBLIC "-//W3C//DTD SVG 1.1//EN"
 "http://www.w3.org/Graphics/SVG/1.1/DTD/svg11.dtd">
<!-- Generated by graphviz version 2.26.3 (20100126.1600)
 -->
<!-- Title: G Pages: 1 -->
<svg width="1220pt" height="2996pt"
 viewBox="0.00 0.00 1220.00 2996.00" xmlns="http://www.w3.org/2000/svg" xmlns:xlink="http://www.w3.org/1999/xlink">
<g id="graph1" class="graph" transform="scale(1 1) rotate(0) translate(4 2992)">
<title>G</title>
<polygon fill="white" stroke="white" points="-4,5 -4,-2992 1217,-2992 1217,5 -4,5"/>
<g id="graph2" class="cluster"><title>cluster_Global</title>
<polyline fill="none" stroke="gray" points="177,-422 1192,-422 "/>
<path fill="none" stroke="gray" d="M1192,-422C1198,-422 1204,-428 1204,-434"/>
<polyline fill="none" stroke="gray" points="1204,-434 1204,-2968 "/>
<path fill="none" stroke="gray" d="M1204,-2968C1204,-2974 1198,-2980 1192,-2980"/>
<polyline fill="none" stroke="gray" points="1192,-2980 177,-2980 "/>
<path fill="none" stroke="gray" d="M177,-2980C171,-2980 165,-2974 165,-2968"/>
<polyline fill="none" stroke="gray" points="165,-2968 165,-434 "/>
<path fill="none" stroke="gray" d="M165,-434C165,-428 171,-422 177,-422"/>
<text text-anchor="middle" x="684.5" y="-2966.1" font-family="Times Roman,serif" font-size="11.00" fill="gray">Global</text>
</g>
<!-- \\AppController -->
<g id="node2" class="node"><title>\\AppController</title>
<polygon fill="none" stroke="black" points="555,-1574 451,-1574 451,-1538 555,-1538 555,-1574"/>
<text text-anchor="middle" x="503" y="-1553.1" font-family="Courier,monospace" font-size="11.00">AppController</text>
</g>
<!-- \\Controller -->
<g id="node64" class="node"><title>\\Controller</title>
<ellipse fill="none" stroke="black" cx="242" cy="-319" rx="63.1385" ry="18.3848"/>
<text text-anchor="middle" x="242" y="-315.4" font-family="Times Roman,serif" font-size="14.00" fill="gray">\Controller</text>
</g>
<!-- \\AppController&#45;&gt;\\Controller -->
<g id="edge3" class="edge"><title>\\AppController&#45;&gt;\\Controller</title>
<path fill="none" stroke="black" d="M450.803,-1557.98C430.764,-1555.86 409.489,-1549.54 396,-1534 225.97,-1338.12 457.909,-591.144 324,-369 316.097,-355.889 303.315,-345.751 290.171,-338.14"/>
<polygon fill="none" stroke="black" points="291.537,-334.902 281.069,-333.269 288.234,-341.074 291.537,-334.902"/>
</g>
<!-- \\AppModel -->
<g id="node3" class="node"><title>\\AppModel</title>
<polygon fill="none" stroke="black" points="538,-2923 468,-2923 468,-2887 538,-2887 538,-2923"/>
<text text-anchor="middle" x="503" y="-2902.1" font-family="Courier,monospace" font-size="11.00">AppModel</text>
</g>
<!-- \\NetCommonsAppModel -->
<g id="node48" class="node"><title>\\NetCommonsAppModel</title>
<polygon fill="none" stroke="black" points="311,-2923 173,-2923 173,-2887 311,-2887 311,-2923"/>
<text text-anchor="middle" x="242" y="-2902.1" font-family="Courier,monospace" font-size="11.00">NetCommonsAppModel</text>
</g>
<!-- \\AppModel&#45;&gt;\\NetCommonsAppModel -->
<g id="edge5" class="edge"><title>\\AppModel&#45;&gt;\\NetCommonsAppModel</title>
<path fill="none" stroke="black" d="M467.256,-2905C429.848,-2905 369.903,-2905 321.254,-2905"/>
<polygon fill="none" stroke="black" points="321.056,-2901.5 311.056,-2905 321.056,-2908.5 321.056,-2901.5"/>
</g>
<!-- \\DatabaseConfiguration -->
<g id="node4" class="node"><title>\\DatabaseConfiguration</title>
<polygon fill="none" stroke="black" points="879,-2950 721,-2950 721,-2914 879,-2914 879,-2950"/>
<text text-anchor="middle" x="800" y="-2929.1" font-family="Courier,monospace" font-size="11.00">DatabaseConfiguration</text>
</g>
<!-- \\DatabaseConfiguration&#45;&gt;\\AppModel -->
<g id="edge7" class="edge"><title>\\DatabaseConfiguration&#45;&gt;\\AppModel</title>
<path fill="none" stroke="black" d="M720.8,-2924.8C665.959,-2919.81 594.863,-2913.35 549.084,-2909.19"/>
<polygon fill="none" stroke="black" points="549.143,-2905.68 538.867,-2908.26 548.509,-2912.65 549.143,-2905.68"/>
</g>
<!-- \\AppHelper -->
<g id="node5" class="node"><title>\\AppHelper</title>
<polygon fill="none" stroke="black" points="838,-1897 762,-1897 762,-1861 838,-1861 838,-1897"/>
<text text-anchor="middle" x="800" y="-1876.1" font-family="Courier,monospace" font-size="11.00">AppHelper</text>
</g>
<!-- \\Helper -->
<g id="node68" class="node"><title>\\Helper</title>
<ellipse fill="none" stroke="black" cx="503" cy="-396" rx="43.8406" ry="18.3848"/>
<text text-anchor="middle" x="503" y="-392.4" font-family="Times Roman,serif" font-size="14.00" fill="gray">Helper</text>
</g>
<!-- \\AppHelper&#45;&gt;\\Helper -->
<g id="edge9" class="edge"><title>\\AppHelper&#45;&gt;\\Helper</title>
<path fill="none" stroke="black" d="M792.658,-1860.9C771.219,-1807.14 708.546,-1643.26 682,-1501 659.877,-1382.45 689.267,-508.889 610,-418 596.837,-402.908 576.329,-396.523 556.774,-394.23"/>
<polygon fill="none" stroke="black" points="556.937,-390.731 546.678,-393.379 556.349,-397.706 556.937,-390.731"/>
</g>
<!-- \\NetCommonsDeleteTest -->
<g id="node6" class="node"><title>\\NetCommonsDeleteTest</title>
<polygon fill="none" stroke="black" points="1169,-2788 1017,-2788 1017,-2752 1169,-2752 1169,-2788"/>
<text text-anchor="middle" x="1093" y="-2767.1" font-family="Courier,monospace" font-size="11.00">NetCommonsDeleteTest</text>
</g>
<!-- \\NetCommonsModelTestCase -->
<g id="node15" class="node"><title>\\NetCommonsModelTestCase</title>
<polygon fill="none" stroke="black" points="886,-2788 714,-2788 714,-2752 886,-2752 886,-2788"/>
<text text-anchor="middle" x="800" y="-2767.1" font-family="Courier,monospace" font-size="11.00">NetCommonsModelTestCase</text>
</g>
<!-- \\NetCommonsDeleteTest&#45;&gt;\\NetCommonsModelTestCase -->
<g id="edge11" class="edge"><title>\\NetCommonsDeleteTest&#45;&gt;\\NetCommonsModelTestCase</title>
<path fill="none" stroke="black" d="M1016.78,-2770C980.049,-2770 935.59,-2770 896.519,-2770"/>
<polygon fill="none" stroke="black" points="896.183,-2766.5 886.183,-2770 896.183,-2773.5 896.183,-2766.5"/>
</g>
<!-- \\NetCommonsConsoleTestCase -->
<g id="node7" class="node"><title>\\NetCommonsConsoleTestCase</title>
<polygon fill="none" stroke="black" points="892,-2734 708,-2734 708,-2698 892,-2698 892,-2734"/>
<text text-anchor="middle" x="800" y="-2713.1" font-family="Courier,monospace" font-size="11.00">NetCommonsConsoleTestCase</text>
</g>
<!-- \\NetCommonsCakeTestCase -->
<g id="node13" class="node"><title>\\NetCommonsCakeTestCase</title>
<polygon fill="none" stroke="black" points="585,-2761 421,-2761 421,-2725 585,-2725 585,-2761"/>
<text text-anchor="middle" x="503" y="-2740.1" font-family="Courier,monospace" font-size="11.00">NetCommonsCakeTestCase</text>
</g>
<!-- \\NetCommonsConsoleTestCase&#45;&gt;\\NetCommonsCakeTestCase -->
<g id="edge13" class="edge"><title>\\NetCommonsConsoleTestCase&#45;&gt;\\NetCommonsCakeTestCase</title>
<path fill="none" stroke="black" d="M707.249,-2724.43C671.93,-2727.64 631.688,-2731.3 596.316,-2734.52"/>
<polygon fill="none" stroke="black" points="595.635,-2731.06 585.993,-2735.46 596.269,-2738.04 595.635,-2731.06"/>
</g>
<!-- \\NetCommonsGetTest -->
<g id="node8" class="node"><title>\\NetCommonsGetTest</title>
<polygon fill="none" stroke="black" points="1158,-2734 1028,-2734 1028,-2698 1158,-2698 1158,-2734"/>
<text text-anchor="middle" x="1093" y="-2713.1" font-family="Courier,monospace" font-size="11.00">NetCommonsGetTest</text>
</g>
<!-- \\NetCommonsGetTest&#45;&gt;\\NetCommonsModelTestCase -->
<g id="edge15" class="edge"><title>\\NetCommonsGetTest&#45;&gt;\\NetCommonsModelTestCase</title>
<path fill="none" stroke="black" d="M1027.25,-2728.12C988.582,-2735.24 939.008,-2744.38 896.034,-2752.3"/>
<polygon fill="none" stroke="black" points="895.32,-2748.87 886.12,-2754.13 896.588,-2755.76 895.32,-2748.87"/>
</g>
<!-- \\NetCommonsHelperTestCase -->
<g id="node9" class="node"><title>\\NetCommonsHelperTestCase</title>
<polygon fill="none" stroke="black" points="889,-2842 711,-2842 711,-2806 889,-2806 889,-2842"/>
<text text-anchor="middle" x="800" y="-2821.1" font-family="Courier,monospace" font-size="11.00">NetCommonsHelperTestCase</text>
</g>
<!-- \\NetCommonsHelperTestCase&#45;&gt;\\NetCommonsCakeTestCase -->
<g id="edge17" class="edge"><title>\\NetCommonsHelperTestCase&#45;&gt;\\NetCommonsCakeTestCase</title>
<path fill="none" stroke="black" d="M717.936,-2805.98C705.852,-2803.11 693.579,-2800.07 682,-2797 644.303,-2787.01 602.565,-2774.51 568.882,-2764.05"/>
<polygon fill="none" stroke="black" points="569.742,-2760.65 559.154,-2761.01 567.658,-2767.33 569.742,-2760.65"/>
</g>
<!-- \\NetCommonsControllerBaseTestCase -->
<g id="node10" class="node"><title>\\NetCommonsControllerBaseTestCase</title>
<polygon fill="none" stroke="black" points="916,-1492 684,-1492 684,-1456 916,-1456 916,-1492"/>
<text text-anchor="middle" x="800" y="-1471.1" font-family="Courier,monospace" font-size="11.00">NetCommonsControllerBaseTestCase</text>
</g>
<!-- \\ControllerTestCase -->
<g id="node74" class="node"><title>\\ControllerTestCase</title>
<ellipse fill="none" stroke="black" cx="503" cy="-342" rx="106.773" ry="18.3848"/>
<text text-anchor="middle" x="503" y="-338.4" font-family="Times Roman,serif" font-size="14.00" fill="gray">\ControllerTestCase</text>
</g>
<!-- \\NetCommonsControllerBaseTestCase&#45;&gt;\\ControllerTestCase -->
<g id="edge19" class="edge"><title>\\NetCommonsControllerBaseTestCase&#45;&gt;\\ControllerTestCase</title>
<path fill="none" stroke="black" d="M795,-1455.55C777.207,-1389.29 716.204,-1156.97 682,-962 659.062,-831.251 697.752,-468.604 610,-369 606.24,-364.732 601.913,-361.091 597.202,-357.989"/>
<polygon fill="none" stroke="black" points="598.77,-354.855 588.344,-352.968 595.318,-360.944 598.77,-354.855"/>
</g>
<!-- \\NetCommonsValidateTest -->
<g id="node11" class="node"><title>\\NetCommonsValidateTest</title>
<polygon fill="none" stroke="black" points="1175,-2896 1011,-2896 1011,-2860 1175,-2860 1175,-2896"/>
<text text-anchor="middle" x="1093" y="-2875.1" font-family="Courier,monospace" font-size="11.00">NetCommonsValidateTest</text>
</g>
<!-- \\NetCommonsValidateTest&#45;&gt;\\NetCommonsModelTestCase -->
<g id="edge21" class="edge"><title>\\NetCommonsValidateTest&#45;&gt;\\NetCommonsModelTestCase</title>
<path fill="none" stroke="black" d="M1011.79,-2859.93C1004.28,-2857.3 996.908,-2854.34 990,-2851 953.981,-2833.6 954.288,-2813.83 918,-2797 910.962,-2793.74 903.501,-2790.85 895.884,-2788.31"/>
<polygon fill="none" stroke="black" points="896.762,-2784.91 886.173,-2785.26 894.666,-2791.59 896.762,-2784.91"/>
</g>
<!-- \\NetCommonsTestSuite -->
<g id="node12" class="node"><title>\\NetCommonsTestSuite</title>
<polygon fill="none" stroke="black" points="1165,-1384 1021,-1384 1021,-1348 1165,-1348 1165,-1384"/>
<text text-anchor="middle" x="1093" y="-1363.1" font-family="Courier,monospace" font-size="11.00">NetCommonsTestSuite</text>
</g>
<!-- \\CakeTestSuite -->
<g id="node77" class="node"><title>\\CakeTestSuite</title>
<ellipse fill="none" stroke="black" cx="800" cy="-396" rx="84.1457" ry="18.3848"/>
<text text-anchor="middle" x="800" y="-392.4" font-family="Times Roman,serif" font-size="14.00" fill="gray">\CakeTestSuite</text>
</g>
<!-- \\NetCommonsTestSuite&#45;&gt;\\CakeTestSuite -->
<g id="edge23" class="edge"><title>\\NetCommonsTestSuite&#45;&gt;\\CakeTestSuite</title>
<path fill="none" stroke="black" d="M1020.46,-1359.12C1008.78,-1354.88 997.943,-1348.5 990,-1339 858.342,-1181.49 1055.25,-570.67 918,-418 911.208,-410.445 902.724,-404.97 893.438,-401.056"/>
<polygon fill="none" stroke="black" points="894.513,-397.723 883.919,-397.643 892.151,-404.312 894.513,-397.723"/>
</g>
<!-- \\CakeTestCase -->
<g id="node79" class="node"><title>\\CakeTestCase</title>
<ellipse fill="none" stroke="black" cx="242" cy="-396" rx="82.0244" ry="18.3848"/>
<text text-anchor="middle" x="242" y="-392.4" font-family="Times Roman,serif" font-size="14.00" fill="gray">\CakeTestCase</text>
</g>
<!-- \\NetCommonsCakeTestCase&#45;&gt;\\CakeTestCase -->
<g id="edge25" class="edge"><title>\\NetCommonsCakeTestCase&#45;&gt;\\CakeTestCase</title>
<path fill="none" stroke="black" d="M501.128,-2724.95C490.002,-2617.24 431.83,-2048.3 396,-1583 386.043,-1453.69 406.072,-518.419 324,-418 322.286,-415.903 320.396,-413.994 318.363,-412.256"/>
<polygon fill="none" stroke="black" points="320.1,-409.2 309.89,-406.369 316.106,-414.949 320.1,-409.2"/>
</g>
<!-- \\NetCommonsSaveTest -->
<g id="node14" class="node"><title>\\NetCommonsSaveTest</title>
<polygon fill="none" stroke="black" points="1162,-2842 1024,-2842 1024,-2806 1162,-2806 1162,-2842"/>
<text text-anchor="middle" x="1093" y="-2821.1" font-family="Courier,monospace" font-size="11.00">NetCommonsSaveTest</text>
</g>
<!-- \\NetCommonsSaveTest&#45;&gt;\\NetCommonsModelTestCase -->
<g id="edge27" class="edge"><title>\\NetCommonsSaveTest&#45;&gt;\\NetCommonsModelTestCase</title>
<path fill="none" stroke="black" d="M1023.93,-2811.27C985.795,-2804.24 937.829,-2795.4 896.084,-2787.71"/>
<polygon fill="none" stroke="black" points="896.641,-2784.25 886.172,-2785.88 895.372,-2791.14 896.641,-2784.25"/>
</g>
<!-- \\NetCommonsModelTestCase&#45;&gt;\\NetCommonsCakeTestCase -->
<g id="edge29" class="edge"><title>\\NetCommonsModelTestCase&#45;&gt;\\NetCommonsCakeTestCase</title>
<path fill="none" stroke="black" d="M713.696,-2762.15C676.671,-2758.79 633.35,-2754.85 595.65,-2751.42"/>
<polygon fill="none" stroke="black" points="595.962,-2747.94 585.686,-2750.52 595.328,-2754.91 595.962,-2747.94"/>
</g>
<!-- \\NetCommonsControllerTestCase -->
<g id="node16" class="node"><title>\\NetCommonsControllerTestCase</title>
<polygon fill="none" stroke="black" points="1196,-1492 990,-1492 990,-1456 1196,-1456 1196,-1492"/>
<text text-anchor="middle" x="1093" y="-1471.1" font-family="Courier,monospace" font-size="11.00">NetCommonsControllerTestCase</text>
</g>
<!-- \\NetCommonsControllerTestCase&#45;&gt;\\NetCommonsControllerBaseTestCase -->
<g id="edge31" class="edge"><title>\\NetCommonsControllerTestCase&#45;&gt;\\NetCommonsControllerBaseTestCase</title>
<path fill="none" stroke="black" d="M989.699,-1474C969.381,-1474 947.845,-1474 926.858,-1474"/>
<polygon fill="none" stroke="black" points="926.606,-1470.5 916.606,-1474 926.606,-1477.5 926.606,-1470.5"/>
</g>
<!-- \\NetCommonsAppController -->
<g id="node17" class="node"><title>\\NetCommonsAppController</title>
<polygon fill="none" stroke="black" points="886,-953 714,-953 714,-917 886,-917 886,-953"/>
<text text-anchor="middle" x="800" y="-932.1" font-family="Courier,monospace" font-size="11.00">NetCommonsAppController</text>
</g>
<!-- \\NetCommonsAppController&#45;&gt;\\Controller -->
<g id="edge33" class="edge"><title>\\NetCommonsAppController&#45;&gt;\\Controller</title>
<path fill="none" stroke="black" d="M713.743,-932.198C701.761,-928.277 690.623,-922.198 682,-913 498.911,-717.704 810.285,-492.617 610,-315 520.722,-235.826 365.848,-274.302 288.604,-300.906"/>
<polygon fill="none" stroke="black" points="287.398,-297.62 279.13,-304.244 289.724,-304.222 287.398,-297.62"/>
</g>
<!-- \\AssetComponent -->
<g id="node18" class="node"><title>\\AssetComponent</title>
<polygon fill="none" stroke="black" points="1148,-1114 1038,-1114 1038,-1078 1148,-1078 1148,-1114"/>
<text text-anchor="middle" x="1093" y="-1093.1" font-family="Courier,monospace" font-size="11.00">AssetComponent</text>
</g>
<!-- \\Component -->
<g id="node85" class="node"><title>\\Component</title>
<ellipse fill="none" stroke="black" cx="800" cy="-342" rx="70.9184" ry="18.3848"/>
<text text-anchor="middle" x="800" y="-338.4" font-family="Times Roman,serif" font-size="14.00" fill="gray">\Component</text>
</g>
<!-- \\AssetComponent&#45;&gt;\\Component -->
<g id="edge35" class="edge"><title>\\AssetComponent&#45;&gt;\\Component</title>
<path fill="none" stroke="black" d="M1037.47,-1093.62C1019.83,-1090.01 1001.85,-1082.83 990,-1069 786.502,-831.507 1125.2,-603.266 918,-369 908.271,-358.001 895.062,-350.994 880.998,-346.62"/>
<polygon fill="none" stroke="black" points="881.72,-343.191 871.156,-343.996 879.917,-349.955 881.72,-343.191"/>
</g>
<!-- \\NetCommonsTimeComponent -->
<g id="node19" class="node"><title>\\NetCommonsTimeComponent</title>
<polygon fill="none" stroke="black" points="1179,-1330 1007,-1330 1007,-1294 1179,-1294 1179,-1330"/>
<text text-anchor="middle" x="1093" y="-1309.1" font-family="Courier,monospace" font-size="11.00">NetCommonsTimeComponent</text>
</g>
<!-- \\NetCommonsTimeComponent&#45;&gt;\\Component -->
<g id="edge37" class="edge"><title>\\NetCommonsTimeComponent&#45;&gt;\\Component</title>
<path fill="none" stroke="black" d="M1006.89,-1298.89C1000.52,-1295.23 994.743,-1290.67 990,-1285 859.019,-1128.36 1051.43,-523.559 918,-369 908.404,-357.884 895.256,-350.825 881.208,-346.436"/>
<polygon fill="none" stroke="black" points="881.937,-343.008 871.373,-343.807 880.13,-349.771 881.937,-343.008"/>
</g>
<!-- \\PermissionComponent -->
<g id="node20" class="node"><title>\\PermissionComponent</title>
<polygon fill="none" stroke="black" points="1165,-1276 1021,-1276 1021,-1240 1165,-1240 1165,-1276"/>
<text text-anchor="middle" x="1093" y="-1255.1" font-family="Courier,monospace" font-size="11.00">PermissionComponent</text>
</g>
<!-- \\PermissionComponent&#45;&gt;\\Component -->
<g id="edge39" class="edge"><title>\\PermissionComponent&#45;&gt;\\Component</title>
<path fill="none" stroke="black" d="M1020.24,-1250.99C1008.66,-1246.75 997.909,-1240.41 990,-1231 866.331,-1083.84 1043.97,-514.197 918,-369 908.377,-357.908 895.216,-350.859 881.165,-346.473"/>
<polygon fill="none" stroke="black" points="881.893,-343.045 871.328,-343.845 880.086,-349.808 881.893,-343.045"/>
</g>
<!-- \\NetCommonsComponent -->
<g id="node21" class="node"><title>\\NetCommonsComponent</title>
<polygon fill="none" stroke="black" points="1165,-1222 1021,-1222 1021,-1186 1165,-1186 1165,-1222"/>
<text text-anchor="middle" x="1093" y="-1201.1" font-family="Courier,monospace" font-size="11.00">NetCommonsComponent</text>
</g>
<!-- \\NetCommonsComponent&#45;&gt;\\Component -->
<g id="edge41" class="edge"><title>\\NetCommonsComponent&#45;&gt;\\Component</title>
<path fill="none" stroke="black" d="M1020.28,-1196.95C1008.7,-1192.72 997.935,-1186.39 990,-1177 873.641,-1039.32 1036.51,-504.839 918,-369 908.346,-357.935 895.171,-350.898 881.117,-346.516"/>
<polygon fill="none" stroke="black" points="881.843,-343.087 871.278,-343.889 880.037,-349.85 881.843,-343.087"/>
</g>
<!-- \\NetCommonsController -->
<g id="node22" class="node"><title>\\NetCommonsController</title>
<polygon fill="none" stroke="black" points="1169,-1438 1017,-1438 1017,-1402 1169,-1402 1169,-1438"/>
<text text-anchor="middle" x="1093" y="-1417.1" font-family="Courier,monospace" font-size="11.00">NetCommonsController</text>
</g>
<!-- \\NetCommonsController&#45;&gt;\\NetCommonsAppController -->
<g id="edge43" class="edge"><title>\\NetCommonsController&#45;&gt;\\NetCommonsAppController</title>
<path fill="none" stroke="black" d="M1016.92,-1408.77C1007.12,-1404.92 997.804,-1399.8 990,-1393 854.273,-1274.69 813.499,-1043.97 803.123,-963.502"/>
<polygon fill="none" stroke="black" points="806.547,-962.672 801.854,-953.173 799.6,-963.525 806.547,-962.672"/>
</g>
<!-- \\NetCommonsUrl -->
<g id="node23" class="node"><title>\\NetCommonsUrl</title>
<polygon fill="none" stroke="black" points="1145,-2356 1041,-2356 1041,-2320 1145,-2320 1145,-2356"/>
<text text-anchor="middle" x="1093" y="-2335.1" font-family="Courier,monospace" font-size="11.00">NetCommonsUrl</text>
</g>
<!-- \\NetCommonsTime -->
<g id="node24" class="node"><title>\\NetCommonsTime</title>
<polygon fill="none" stroke="black" points="1148,-2302 1038,-2302 1038,-2266 1148,-2266 1148,-2302"/>
<text text-anchor="middle" x="1093" y="-2281.1" font-family="Courier,monospace" font-size="11.00">NetCommonsTime</text>
</g>
<!-- \\CurrentBase -->
<g id="node25" class="node"><title>\\CurrentBase</title>
<polygon fill="none" stroke="black" points="845,-2626 755,-2626 755,-2590 845,-2590 845,-2626"/>
<text text-anchor="middle" x="800" y="-2605.1" font-family="Courier,monospace" font-size="11.00">CurrentBase</text>
</g>
<!-- \\Current -->
<g id="node26" class="node"><title>\\Current</title>
<polygon fill="none" stroke="black" points="1125,-2626 1061,-2626 1061,-2590 1125,-2590 1125,-2626"/>
<text text-anchor="middle" x="1093" y="-2605.1" font-family="Courier,monospace" font-size="11.00">Current</text>
</g>
<!-- \\Current&#45;&gt;\\CurrentBase -->
<g id="edge45" class="edge"><title>\\Current&#45;&gt;\\CurrentBase</title>
<path fill="none" stroke="black" d="M1060.81,-2608C1011.48,-2608 916.554,-2608 855.846,-2608"/>
<polygon fill="none" stroke="black" points="855.669,-2604.5 845.669,-2608 855.669,-2611.5 855.669,-2604.5"/>
</g>
<!-- \\CurrentSystem -->
<g id="node27" class="node"><title>\\CurrentSystem</title>
<polygon fill="none" stroke="black" points="1145,-2194 1041,-2194 1041,-2158 1145,-2158 1145,-2194"/>
<text text-anchor="middle" x="1093" y="-2173.1" font-family="Courier,monospace" font-size="11.00">CurrentSystem</text>
</g>
<!-- \\CurrentPage -->
<g id="node28" class="node"><title>\\CurrentPage</title>
<polygon fill="none" stroke="black" points="1138,-2140 1048,-2140 1048,-2104 1138,-2104 1138,-2140"/>
<text text-anchor="middle" x="1093" y="-2119.1" font-family="Courier,monospace" font-size="11.00">CurrentPage</text>
</g>
<!-- \\CurrentFrame -->
<g id="node29" class="node"><title>\\CurrentFrame</title>
<polygon fill="none" stroke="black" points="1142,-2086 1044,-2086 1044,-2050 1142,-2050 1142,-2086"/>
<text text-anchor="middle" x="1093" y="-2065.1" font-family="Courier,monospace" font-size="11.00">CurrentFrame</text>
</g>
<!-- \\TokenHelper -->
<g id="node30" class="node"><title>\\TokenHelper</title>
<polygon fill="none" stroke="black" points="1138,-952 1048,-952 1048,-916 1138,-916 1138,-952"/>
<text text-anchor="middle" x="1093" y="-931.1" font-family="Courier,monospace" font-size="11.00">TokenHelper</text>
</g>
<!-- \\FormHelper -->
<g id="node92" class="node"><title>\\FormHelper</title>
<ellipse fill="none" stroke="black" cx="800" cy="-288" rx="70.9184" ry="18.3848"/>
<text text-anchor="middle" x="800" y="-284.4" font-family="Times Roman,serif" font-size="14.00" fill="gray">\FormHelper</text>
</g>
<!-- \\TokenHelper&#45;&gt;\\FormHelper -->
<g id="edge47" class="edge"><title>\\TokenHelper&#45;&gt;\\FormHelper</title>
<path fill="none" stroke="black" d="M1047.46,-933.174C1026.96,-930.333 1004.22,-923.293 990,-907 815.683,-707.337 1095.43,-511.899 918,-315 908.227,-304.155 895.069,-297.207 881.082,-292.841"/>
<polygon fill="none" stroke="black" points="881.864,-289.426 871.298,-290.214 880.049,-296.187 881.864,-289.426"/>
</g>
<!-- \\SingletonViewBlockHtmlHelper -->
<g id="node31" class="node"><title>\\SingletonViewBlockHtmlHelper</title>
<polygon fill="none" stroke="black" points="1196,-898 990,-898 990,-862 1196,-862 1196,-898"/>
<text text-anchor="middle" x="1093" y="-877.1" font-family="Courier,monospace" font-size="11.00">SingletonViewBlockHtmlHelper</text>
</g>
<!-- \\HtmlHelper -->
<g id="node94" class="node"><title>\\HtmlHelper</title>
<ellipse fill="none" stroke="black" cx="800" cy="-234" rx="67.1751" ry="18.3848"/>
<text text-anchor="middle" x="800" y="-230.4" font-family="Times Roman,serif" font-size="14.00" fill="gray">HtmlHelper</text>
</g>
<!-- \\SingletonViewBlockHtmlHelper&#45;&gt;\\HtmlHelper -->
<g id="edge49" class="edge"><title>\\SingletonViewBlockHtmlHelper&#45;&gt;\\HtmlHelper</title>
<path fill="none" stroke="black" d="M999.735,-861.902C996.194,-859.295 992.918,-856.342 990,-853 815.683,-653.337 1095.43,-457.899 918,-261 907.223,-249.041 892.331,-241.821 876.75,-237.576"/>
<polygon fill="none" stroke="black" points="877.525,-234.162 866.991,-235.301 875.935,-240.98 877.525,-234.162"/>
</g>
<!-- \\FormInputHelper -->
<g id="node32" class="node"><title>\\FormInputHelper</title>
<polygon fill="none" stroke="black" points="1152,-2572 1034,-2572 1034,-2536 1152,-2536 1152,-2572"/>
<text text-anchor="middle" x="1093" y="-2551.1" font-family="Courier,monospace" font-size="11.00">FormInputHelper</text>
</g>
<!-- \\FormInputHelper&#45;&gt;\\AppHelper -->
<g id="edge51" class="edge"><title>\\FormInputHelper&#45;&gt;\\AppHelper</title>
<path fill="none" stroke="black" d="M1033.76,-2549.16C1017.84,-2545.22 1001.8,-2538.46 990,-2527 897.138,-2436.78 823.079,-2019.86 804.505,-1907.15"/>
<polygon fill="none" stroke="black" points="807.948,-1906.52 802.881,-1897.22 801.039,-1907.65 807.948,-1906.52"/>
</g>
<!-- \\WizardHelper -->
<g id="node33" class="node"><title>\\WizardHelper</title>
<polygon fill="none" stroke="black" points="1142,-2518 1044,-2518 1044,-2482 1142,-2482 1142,-2518"/>
<text text-anchor="middle" x="1093" y="-2497.1" font-family="Courier,monospace" font-size="11.00">WizardHelper</text>
</g>
<!-- \\WizardHelper&#45;&gt;\\AppHelper -->
<g id="edge53" class="edge"><title>\\WizardHelper&#45;&gt;\\AppHelper</title>
<path fill="none" stroke="black" d="M1043.79,-2497.09C1024.89,-2493.62 1004.42,-2486.67 990,-2473 903.879,-2391.34 825.926,-2013.95 805.305,-1907.2"/>
<polygon fill="none" stroke="black" points="808.705,-1906.35 803.386,-1897.18 801.83,-1907.66 808.705,-1906.35"/>
</g>
<!-- \\DisplayNumberHelper -->
<g id="node34" class="node"><title>\\DisplayNumberHelper</title>
<polygon fill="none" stroke="black" points="1165,-2464 1021,-2464 1021,-2428 1165,-2428 1165,-2464"/>
<text text-anchor="middle" x="1093" y="-2443.1" font-family="Courier,monospace" font-size="11.00">DisplayNumberHelper</text>
</g>
<!-- \\DisplayNumberHelper&#45;&gt;\\AppHelper -->
<g id="edge55" class="edge"><title>\\DisplayNumberHelper&#45;&gt;\\AppHelper</title>
<path fill="none" stroke="black" d="M1020.25,-2436.56C1009.15,-2432.53 998.566,-2426.89 990,-2419 834.226,-2275.5 806.135,-1996.7 801.095,-1907.31"/>
<polygon fill="none" stroke="black" points="804.581,-1906.94 800.577,-1897.13 797.59,-1907.3 804.581,-1906.94"/>
</g>
<!-- \\MessageFlashHelper -->
<g id="node35" class="node"><title>\\MessageFlashHelper</title>
<polygon fill="none" stroke="black" points="1162,-2410 1024,-2410 1024,-2374 1162,-2374 1162,-2410"/>
<text text-anchor="middle" x="1093" y="-2389.1" font-family="Courier,monospace" font-size="11.00">MessageFlashHelper</text>
</g>
<!-- \\MessageFlashHelper&#45;&gt;\\AppHelper -->
<g id="edge57" class="edge"><title>\\MessageFlashHelper&#45;&gt;\\AppHelper</title>
<path fill="none" stroke="black" d="M1023.93,-2383.49C1011.58,-2379.44 999.597,-2373.54 990,-2365 847.368,-2238.06 810.808,-1990.73 802.341,-1907.27"/>
<polygon fill="none" stroke="black" points="805.82,-1906.89 801.383,-1897.27 798.852,-1907.56 805.82,-1906.89"/>
</g>
<!-- \\DateHelper -->
<g id="node36" class="node"><title>\\DateHelper</title>
<polygon fill="none" stroke="black" points="1135,-2248 1051,-2248 1051,-2212 1135,-2212 1135,-2248"/>
<text text-anchor="middle" x="1093" y="-2227.1" font-family="Courier,monospace" font-size="11.00">DateHelper</text>
</g>
<!-- \\DateHelper&#45;&gt;\\AppHelper -->
<g id="edge59" class="edge"><title>\\DateHelper&#45;&gt;\\AppHelper</title>
<path fill="none" stroke="black" d="M1050.89,-2226.45C1030.83,-2223 1007.46,-2216.23 990,-2203 885.624,-2123.92 828.084,-1969.53 808.129,-1906.65"/>
<polygon fill="none" stroke="black" points="811.45,-1905.54 805.144,-1897.03 804.764,-1907.61 811.45,-1905.54"/>
</g>
<!-- \\SnsButtonHelper -->
<g id="node37" class="node"><title>\\SnsButtonHelper</title>
<polygon fill="none" stroke="black" points="1152,-2032 1034,-2032 1034,-1996 1152,-1996 1152,-2032"/>
<text text-anchor="middle" x="1093" y="-2011.1" font-family="Courier,monospace" font-size="11.00">SnsButtonHelper</text>
</g>
<!-- \\SnsButtonHelper&#45;&gt;\\AppHelper -->
<g id="edge61" class="edge"><title>\\SnsButtonHelper&#45;&gt;\\AppHelper</title>
<path fill="none" stroke="black" d="M1033.85,-2001.31C1019.27,-1997.42 1003.87,-1992.65 990,-1987 933.066,-1963.82 872.097,-1926.73 835.004,-1902.61"/>
<polygon fill="none" stroke="black" points="836.839,-1899.63 826.557,-1897.07 833.002,-1905.48 836.839,-1899.63"/>
</g>
<!-- \\BackToHelper -->
<g id="node38" class="node"><title>\\BackToHelper</title>
<polygon fill="none" stroke="black" points="1142,-1978 1044,-1978 1044,-1942 1142,-1942 1142,-1978"/>
<text text-anchor="middle" x="1093" y="-1957.1" font-family="Courier,monospace" font-size="11.00">BackToHelper</text>
</g>
<!-- \\BackToHelper&#45;&gt;\\AppHelper -->
<g id="edge63" class="edge"><title>\\BackToHelper&#45;&gt;\\AppHelper</title>
<path fill="none" stroke="black" d="M1043.96,-1947.36C1026.86,-1942.9 1007.57,-1937.8 990,-1933 941.716,-1919.81 886.728,-1904.11 848.375,-1893.04"/>
<polygon fill="none" stroke="black" points="849.087,-1889.61 838.508,-1890.2 847.145,-1896.33 849.087,-1889.61"/>
</g>
<!-- \\NetCommonsHtmlHelper -->
<g id="node39" class="node"><title>\\NetCommonsHtmlHelper</title>
<polygon fill="none" stroke="black" points="1169,-1924 1017,-1924 1017,-1888 1169,-1888 1169,-1924"/>
<text text-anchor="middle" x="1093" y="-1903.1" font-family="Courier,monospace" font-size="11.00">NetCommonsHtmlHelper</text>
</g>
<!-- \\NetCommonsHtmlHelper&#45;&gt;\\AppHelper -->
<g id="edge65" class="edge"><title>\\NetCommonsHtmlHelper&#45;&gt;\\AppHelper</title>
<path fill="none" stroke="black" d="M1016.78,-1898.98C963.659,-1894.08 894.376,-1887.7 848.603,-1883.48"/>
<polygon fill="none" stroke="black" points="848.917,-1879.99 838.638,-1882.56 848.274,-1886.96 848.917,-1879.99"/>
</g>
<!-- \\ButtonHelper -->
<g id="node40" class="node"><title>\\ButtonHelper</title>
<polygon fill="none" stroke="black" points="1142,-1060 1044,-1060 1044,-1024 1142,-1024 1142,-1060"/>
<text text-anchor="middle" x="1093" y="-1039.1" font-family="Courier,monospace" font-size="11.00">ButtonHelper</text>
</g>
<!-- \\ButtonHelper&#45;&gt;\\FormHelper -->
<g id="edge67" class="edge"><title>\\ButtonHelper&#45;&gt;\\FormHelper</title>
<path fill="none" stroke="black" d="M1043.88,-1040.78C1024.3,-1037.66 1003.29,-1030.51 990,-1015 786.502,-777.507 1125.2,-549.266 918,-315 908.271,-304.001 895.062,-296.994 880.998,-292.62"/>
<polygon fill="none" stroke="black" points="881.72,-289.191 871.156,-289.996 879.917,-295.955 881.72,-289.191"/>
</g>
<!-- \\ComposerHelper -->
<g id="node41" class="node"><title>\\ComposerHelper</title>
<polygon fill="none" stroke="black" points="1148,-1870 1038,-1870 1038,-1834 1148,-1834 1148,-1870"/>
<text text-anchor="middle" x="1093" y="-1849.1" font-family="Courier,monospace" font-size="11.00">ComposerHelper</text>
</g>
<!-- \\ComposerHelper&#45;&gt;\\AppHelper -->
<g id="edge69" class="edge"><title>\\ComposerHelper&#45;&gt;\\AppHelper</title>
<path fill="none" stroke="black" d="M1037.2,-1857.14C982.718,-1862.16 900.647,-1869.73 848.725,-1874.51"/>
<polygon fill="none" stroke="black" points="848.396,-1871.03 838.759,-1875.43 849.038,-1878 848.396,-1871.03"/>
</g>
<!-- \\LinkButtonHelper -->
<g id="node42" class="node"><title>\\LinkButtonHelper</title>
<polygon fill="none" stroke="black" points="1155,-1006 1031,-1006 1031,-970 1155,-970 1155,-1006"/>
<text text-anchor="middle" x="1093" y="-985.1" font-family="Courier,monospace" font-size="11.00">LinkButtonHelper</text>
</g>
<!-- \\LinkButtonHelper&#45;&gt;\\FormHelper -->
<g id="edge71" class="edge"><title>\\LinkButtonHelper&#45;&gt;\\FormHelper</title>
<path fill="none" stroke="black" d="M1030.28,-983.866C1015.08,-979.859 1000.27,-972.888 990,-961 801.099,-742.429 1110.31,-530.576 918,-315 908.225,-304.042 894.994,-297.054 880.924,-292.686"/>
<polygon fill="none" stroke="black" points="881.644,-289.256 871.08,-290.064 879.842,-296.02 881.644,-289.256"/>
</g>
<!-- \\TableListHelper -->
<g id="node43" class="node"><title>\\TableListHelper</title>
<polygon fill="none" stroke="black" points="1152,-1816 1034,-1816 1034,-1780 1152,-1780 1152,-1816"/>
<text text-anchor="middle" x="1093" y="-1795.1" font-family="Courier,monospace" font-size="11.00">TableListHelper</text>
</g>
<!-- \\TableListHelper&#45;&gt;\\AppHelper -->
<g id="edge73" class="edge"><title>\\TableListHelper&#45;&gt;\\AppHelper</title>
<path fill="none" stroke="black" d="M1033.85,-1813.28C1019.48,-1817.06 1004.18,-1821.13 990,-1825 941.716,-1838.19 886.728,-1853.89 848.375,-1864.96"/>
<polygon fill="none" stroke="black" points="847.145,-1861.67 838.508,-1867.8 849.087,-1868.39 847.145,-1861.67"/>
</g>
<!-- \\NetCommonsTimeHelper -->
<g id="node44" class="node"><title>\\NetCommonsTimeHelper</title>
<polygon fill="none" stroke="black" points="1169,-1762 1017,-1762 1017,-1726 1169,-1726 1169,-1762"/>
<text text-anchor="middle" x="1093" y="-1741.1" font-family="Courier,monospace" font-size="11.00">NetCommonsTimeHelper</text>
</g>
<!-- \\NetCommonsTimeHelper&#45;&gt;\\AppHelper -->
<g id="edge75" class="edge"><title>\\NetCommonsTimeHelper&#45;&gt;\\AppHelper</title>
<path fill="none" stroke="black" d="M1016.88,-1761.54C1007.71,-1764.36 998.561,-1767.51 990,-1771 933.066,-1794.18 872.097,-1831.27 835.004,-1855.39"/>
<polygon fill="none" stroke="black" points="833.002,-1852.52 826.557,-1860.93 836.839,-1858.37 833.002,-1852.52"/>
</g>
<!-- \\NetCommonsFormHelper -->
<g id="node45" class="node"><title>\\NetCommonsFormHelper</title>
<polygon fill="none" stroke="black" points="1169,-1708 1017,-1708 1017,-1672 1169,-1672 1169,-1708"/>
<text text-anchor="middle" x="1093" y="-1687.1" font-family="Courier,monospace" font-size="11.00">NetCommonsFormHelper</text>
</g>
<!-- \\NetCommonsFormHelper&#45;&gt;\\AppHelper -->
<g id="edge77" class="edge"><title>\\NetCommonsFormHelper&#45;&gt;\\AppHelper</title>
<path fill="none" stroke="black" d="M1016.98,-1705.73C1007.65,-1708.87 998.439,-1712.59 990,-1717 921.41,-1752.81 856.097,-1817.44 822.838,-1853.3"/>
<polygon fill="none" stroke="black" points="820.033,-1851.17 815.854,-1860.91 825.192,-1855.91 820.033,-1851.17"/>
</g>
<!-- \\TitleIconHelper -->
<g id="node46" class="node"><title>\\TitleIconHelper</title>
<polygon fill="none" stroke="black" points="1152,-1654 1034,-1654 1034,-1618 1152,-1618 1152,-1654"/>
<text text-anchor="middle" x="1093" y="-1633.1" font-family="Courier,monospace" font-size="11.00">TitleIconHelper</text>
</g>
<!-- \\TitleIconHelper&#45;&gt;\\AppHelper -->
<g id="edge79" class="edge"><title>\\TitleIconHelper&#45;&gt;\\AppHelper</title>
<path fill="none" stroke="black" d="M1033.89,-1645.14C1018.85,-1649.14 1003.22,-1654.85 990,-1663 909.876,-1712.44 844.727,-1806.19 815.946,-1852.19"/>
<polygon fill="none" stroke="black" points="812.792,-1850.64 810.523,-1860.98 818.75,-1854.31 812.792,-1850.64"/>
</g>
<!-- \\DatetimePickerHelper -->
<g id="node47" class="node"><title>\\DatetimePickerHelper</title>
<polygon fill="none" stroke="black" points="1169,-1600 1017,-1600 1017,-1564 1169,-1564 1169,-1600"/>
<text text-anchor="middle" x="1093" y="-1579.1" font-family="Courier,monospace" font-size="11.00">DatetimePickerHelper</text>
</g>
<!-- \\DatetimePickerHelper&#45;&gt;\\AppHelper -->
<g id="edge81" class="edge"><title>\\DatetimePickerHelper&#45;&gt;\\AppHelper</title>
<path fill="none" stroke="black" d="M1016.86,-1595.37C1007.35,-1598.9 998.123,-1603.36 990,-1609 898.034,-1672.86 835.79,-1796.47 811.457,-1851.46"/>
<polygon fill="none" stroke="black" points="808.13,-1850.34 807.356,-1860.9 814.551,-1853.13 808.13,-1850.34"/>
</g>
<!-- \\Model -->
<g id="node112" class="node"><title>\\Model</title>
<ellipse fill="none" stroke="black" cx="44" cy="-2905" rx="43.8406" ry="18.3848"/>
<text text-anchor="middle" x="44" y="-2901.4" font-family="Times Roman,serif" font-size="14.00" fill="gray">\Model</text>
</g>
<!-- \\NetCommonsAppModel&#45;&gt;\\Model -->
<g id="edge83" class="edge"><title>\\NetCommonsAppModel&#45;&gt;\\Model</title>
<path fill="none" stroke="black" d="M172.749,-2905C148.379,-2905 121.357,-2905 98.3871,-2905"/>
<polygon fill="none" stroke="black" points="98.1425,-2901.5 88.1425,-2905 98.1424,-2908.5 98.1425,-2901.5"/>
</g>
<!-- \\OriginalKeyBehavior -->
<g id="node49" class="node"><title>\\OriginalKeyBehavior</title>
<polygon fill="none" stroke="black" points="1165,-736 1021,-736 1021,-700 1165,-700 1165,-736"/>
<text text-anchor="middle" x="1093" y="-715.1" font-family="Courier,monospace" font-size="11.00">OriginalKeyBehavior</text>
</g>
<!-- \\ModelBehavior -->
<g id="node114" class="node"><title>\\ModelBehavior</title>
<ellipse fill="none" stroke="black" cx="800" cy="-180" rx="86.9741" ry="18.3848"/>
<text text-anchor="middle" x="800" y="-176.4" font-family="Times Roman,serif" font-size="14.00" fill="gray">\ModelBehavior</text>
</g>
<!-- \\OriginalKeyBehavior&#45;&gt;\\ModelBehavior -->
<g id="edge85" class="edge"><title>\\OriginalKeyBehavior&#45;&gt;\\ModelBehavior</title>
<path fill="none" stroke="black" d="M1020.47,-710.469C1008.94,-706.277 998.146,-700.083 990,-691 844.8,-529.094 1065.73,-366.605 918,-207 910.86,-199.286 902.006,-193.556 892.38,-189.328"/>
<polygon fill="none" stroke="black" points="893.536,-186.023 882.945,-185.72 891.035,-192.561 893.536,-186.023"/>
</g>
<!-- \\TrackableBehavior -->
<g id="node50" class="node"><title>\\TrackableBehavior</title>
<polygon fill="none" stroke="black" points="1158,-844 1028,-844 1028,-808 1158,-808 1158,-844"/>
<text text-anchor="middle" x="1093" y="-823.1" font-family="Courier,monospace" font-size="11.00">TrackableBehavior</text>
</g>
<!-- \\TrackableBehavior&#45;&gt;\\ModelBehavior -->
<g id="edge87" class="edge"><title>\\TrackableBehavior&#45;&gt;\\ModelBehavior</title>
<path fill="none" stroke="black" d="M1027.41,-820.982C1013.26,-816.87 999.665,-810.071 990,-799 815.683,-599.337 1095.43,-403.899 918,-207 910.964,-199.192 902.172,-193.404 892.581,-189.145"/>
<polygon fill="none" stroke="black" points="893.76,-185.848 883.171,-185.514 891.24,-192.379 893.76,-185.848"/>
</g>
<!-- \\YAExceptionRenderer -->
<g id="node51" class="node"><title>\\YAExceptionRenderer</title>
<polygon fill="none" stroke="black" points="1165,-682 1021,-682 1021,-646 1165,-646 1165,-682"/>
<text text-anchor="middle" x="1093" y="-661.1" font-family="Courier,monospace" font-size="11.00">YAExceptionRenderer</text>
</g>
<!-- \\ExceptionRenderer -->
<g id="node117" class="node"><title>\\ExceptionRenderer</title>
<ellipse fill="none" stroke="black" cx="800" cy="-126" rx="118.087" ry="18.3848"/>
<text text-anchor="middle" x="800" y="-122.4" font-family="Times Roman,serif" font-size="14.00" fill="gray">TEHxceptionRenderer</text>
</g>
<!-- \\YAExceptionRenderer&#45;&gt;\\ExceptionRenderer -->
<g id="edge89" class="edge"><title>\\YAExceptionRenderer&#45;&gt;\\ExceptionRenderer</title>
<path fill="none" stroke="black" d="M1020.47,-656.469C1008.94,-652.277 998.146,-646.083 990,-637 844.8,-475.094 1065.73,-312.605 918,-153 913.885,-148.554 909.2,-144.767 904.126,-141.546"/>
<polygon fill="none" stroke="black" points="905.698,-138.416 895.252,-136.646 902.314,-144.544 905.698,-138.416"/>
</g>
<!-- \\NetCommonsMigration -->
<g id="node52" class="node"><title>\\NetCommonsMigration</title>
<polygon fill="none" stroke="black" points="1165,-520 1021,-520 1021,-484 1165,-484 1165,-520"/>
<text text-anchor="middle" x="1093" y="-499.1" font-family="Courier,monospace" font-size="11.00">NetCommonsMigration</text>
</g>
<!-- \\CakeMigration -->
<g id="node119" class="node"><title>\\CakeMigration</title>
<ellipse fill="none" stroke="black" cx="800" cy="-72" rx="84.8528" ry="18.3848"/>
<text text-anchor="middle" x="800" y="-68.4" font-family="Times Roman,serif" font-size="14.00" fill="gray">\CakeMigration</text>
</g>
<!-- \\NetCommonsMigration&#45;&gt;\\CakeMigration -->
<g id="edge91" class="edge"><title>\\NetCommonsMigration&#45;&gt;\\CakeMigration</title>
<path fill="none" stroke="black" d="M1020.25,-493.995C1008.89,-489.838 998.206,-483.777 990,-475 873.795,-350.716 1036.14,-221.443 918,-99 910.347,-91.0685 900.877,-85.2535 890.656,-81.0209"/>
<polygon fill="none" stroke="black" points="891.684,-77.6706 881.089,-77.5632 889.304,-84.2538 891.684,-77.6706"/>
</g>
<!-- \\AuthorizationKeyComponent -->
<g id="node53" class="node"><title>\\AuthorizationKeyComponent</title>
<polygon fill="none" stroke="black" points="1185,-1168 1001,-1168 1001,-1132 1185,-1132 1185,-1168"/>
<text text-anchor="middle" x="1093" y="-1147.1" font-family="Courier,monospace" font-size="11.00">AuthorizationKeyComponent</text>
</g>
<!-- \\AuthorizationKeyComponent&#45;&gt;\\Component -->
<g id="edge93" class="edge"><title>\\AuthorizationKeyComponent&#45;&gt;\\Component</title>
<path fill="none" stroke="black" d="M1000.07,-1132.32C996.386,-1129.61 992.994,-1126.52 990,-1123 880.948,-994.787 1029.05,-495.484 918,-369 908.311,-357.965 895.121,-350.943 881.061,-346.564"/>
<polygon fill="none" stroke="black" points="881.786,-343.135 871.222,-343.939 879.981,-349.899 881.786,-343.135"/>
</g>
<!-- \\AuthorizationKeysAppController -->
<g id="node54" class="node"><title>\\AuthorizationKeysAppController</title>
<polygon fill="none" stroke="black" points="909,-2680 691,-2680 691,-2644 909,-2644 909,-2680"/>
<text text-anchor="middle" x="800" y="-2659.1" font-family="Courier,monospace" font-size="11.00">AuthorizationKeysAppController</text>
</g>
<!-- \\AuthorizationKeysAppController&#45;&gt;\\AppController -->
<g id="edge95" class="edge"><title>\\AuthorizationKeysAppController&#45;&gt;\\AppController</title>
<path fill="none" stroke="black" d="M692.152,-2643.82C688.506,-2641.22 685.097,-2638.29 682,-2635 532.982,-2476.68 507.333,-1738.18 503.58,-1584.18"/>
<polygon fill="none" stroke="black" points="507.078,-1584.04 503.347,-1574.12 500.08,-1584.2 507.078,-1584.04"/>
</g>
<!-- \\AuthorizationKeysController -->
<g id="node55" class="node"><title>\\AuthorizationKeysController</title>
<polygon fill="none" stroke="black" points="1192,-2680 994,-2680 994,-2644 1192,-2644 1192,-2680"/>
<text text-anchor="middle" x="1093" y="-2659.1" font-family="Courier,monospace" font-size="11.00">AuthorizationKeysController</text>
</g>
<!-- \\AuthorizationKeysController&#45;&gt;\\AuthorizationKeysAppController -->
<g id="edge97" class="edge"><title>\\AuthorizationKeysController&#45;&gt;\\AuthorizationKeysAppController</title>
<path fill="none" stroke="black" d="M993.395,-2662C969.7,-2662 944.177,-2662 919.688,-2662"/>
<polygon fill="none" stroke="black" points="919.632,-2658.5 909.632,-2662 919.632,-2665.5 919.632,-2658.5"/>
</g>
<!-- \\AuthKeyPopupButtonHelper -->
<g id="node56" class="node"><title>\\AuthKeyPopupButtonHelper</title>
<polygon fill="none" stroke="black" points="1182,-1546 1004,-1546 1004,-1510 1182,-1510 1182,-1546"/>
<text text-anchor="middle" x="1093" y="-1525.1" font-family="Courier,monospace" font-size="11.00">AuthKeyPopupButtonHelper</text>
</g>
<!-- \\AuthKeyPopupButtonHelper&#45;&gt;\\AppHelper -->
<g id="edge99" class="edge"><title>\\AuthKeyPopupButtonHelper&#45;&gt;\\AppHelper</title>
<path fill="none" stroke="black" d="M1004.5,-1546.02C999.379,-1548.62 994.494,-1551.6 990,-1555 885.624,-1634.08 828.084,-1788.47 808.129,-1851.35"/>
<polygon fill="none" stroke="black" points="804.764,-1850.39 805.144,-1860.97 811.45,-1852.46 804.764,-1850.39"/>
</g>
<!-- \\AuthorizationKeysAppModel -->
<g id="node57" class="node"><title>\\AuthorizationKeysAppModel</title>
<polygon fill="none" stroke="black" points="892,-2896 708,-2896 708,-2860 892,-2860 892,-2896"/>
<text text-anchor="middle" x="800" y="-2875.1" font-family="Courier,monospace" font-size="11.00">AuthorizationKeysAppModel</text>
</g>
<!-- \\AuthorizationKeysAppModel&#45;&gt;\\AppModel -->
<g id="edge101" class="edge"><title>\\AuthorizationKeysAppModel&#45;&gt;\\AppModel</title>
<path fill="none" stroke="black" d="M707.249,-2886.43C654.529,-2891.22 590.843,-2897.01 548.755,-2900.84"/>
<polygon fill="none" stroke="black" points="548.181,-2897.38 538.539,-2901.77 548.815,-2904.35 548.181,-2897.38"/>
</g>
<!-- \\AuthorizationKeyBehavior -->
<g id="node58" class="node"><title>\\AuthorizationKeyBehavior</title>
<polygon fill="none" stroke="black" points="1182,-790 1004,-790 1004,-754 1182,-754 1182,-790"/>
<text text-anchor="middle" x="1093" y="-769.1" font-family="Courier,monospace" font-size="11.00">AuthorizationKeyBehavior</text>
</g>
<!-- \\AuthorizationKeyBehavior&#45;&gt;\\ModelBehavior -->
<g id="edge103" class="edge"><title>\\AuthorizationKeyBehavior&#45;&gt;\\ModelBehavior</title>
<path fill="none" stroke="black" d="M1003.42,-756.342C998.464,-753.179 993.917,-749.433 990,-745 830.252,-564.227 1080.57,-385.24 918,-207 910.917,-199.234 902.097,-193.472 892.49,-189.227"/>
<polygon fill="none" stroke="black" points="893.659,-185.927 883.069,-185.607 891.148,-192.461 893.659,-185.927"/>
</g>
<!-- \\AuthorizationKey -->
<g id="node59" class="node"><title>\\AuthorizationKey</title>
<polygon fill="none" stroke="black" points="1155,-2950 1031,-2950 1031,-2914 1155,-2914 1155,-2950"/>
<text text-anchor="middle" x="1093" y="-2929.1" font-family="Courier,monospace" font-size="11.00">AuthorizationKey</text>
</g>
<!-- \\AuthorizationKey&#45;&gt;\\AuthorizationKeysAppModel -->
<g id="edge105" class="edge"><title>\\AuthorizationKey&#45;&gt;\\AuthorizationKeysAppModel</title>
<path fill="none" stroke="black" d="M1030.14,-2920.42C992.938,-2913.56 944.908,-2904.71 902.358,-2896.86"/>
<polygon fill="none" stroke="black" points="902.991,-2893.42 892.522,-2895.05 901.722,-2900.31 902.991,-2893.42"/>
</g>
<!-- \\AuthorizationKeysSchema -->
<g id="node60" class="node"><title>\\AuthorizationKeysSchema</title>
<polygon fill="none" stroke="black" points="1179,-466 1007,-466 1007,-430 1179,-430 1179,-466"/>
<text text-anchor="middle" x="1093" y="-445.1" font-family="Courier,monospace" font-size="11.00">AuthorizationKeysSchema</text>
</g>
<!-- \\CakeSchema -->
<g id="node128" class="node"><title>\\CakeSchema</title>
<ellipse fill="none" stroke="black" cx="800" cy="-18" rx="77.0746" ry="18.3848"/>
<text text-anchor="middle" x="800" y="-14.4" font-family="Times Roman,serif" font-size="14.00" fill="gray">\CakeSchema</text>
</g>
<!-- \\AuthorizationKeysSchema&#45;&gt;\\CakeSchema -->
<g id="edge107" class="edge"><title>\\AuthorizationKeysSchema&#45;&gt;\\CakeSchema</title>
<path fill="none" stroke="black" d="M1090.86,-429.713C1082.37,-365.789 1045.04,-150.503 918,-45 907.886,-36.6012 895.67,-30.6949 882.982,-26.5644"/>
<polygon fill="none" stroke="black" points="883.793,-23.1556 873.214,-23.74 881.848,-29.8801 883.793,-23.1556"/>
</g>
<!-- \\Init -->
<g id="node61" class="node"><title>\\Init</title>
<polygon fill="none" stroke="black" points="1120,-628 1066,-628 1066,-592 1120,-592 1120,-628"/>
<text text-anchor="middle" x="1093" y="-607.1" font-family="Courier,monospace" font-size="11.00">Init</text>
</g>
<!-- \\Init&#45;&gt;\\CakeMigration -->
<g id="edge109" class="edge"><title>\\Init&#45;&gt;\\CakeMigration</title>
<path fill="none" stroke="black" d="M1065.57,-610.631C1041.99,-609.588 1008.88,-604.056 990,-583 844.8,-421.094 1065.73,-258.605 918,-99 910.513,-90.9113 901.142,-85.0036 890.972,-80.7228"/>
<polygon fill="none" stroke="black" points="892.033,-77.384 881.439,-77.2329 889.626,-83.9574 892.033,-77.384"/>
</g>
<!-- \\AddedAdditionalId -->
<g id="node62" class="node"><title>\\AddedAdditionalId</title>
<polygon fill="none" stroke="black" points="1158,-574 1028,-574 1028,-538 1158,-538 1158,-574"/>
<text text-anchor="middle" x="1093" y="-553.1" font-family="Courier,monospace" font-size="11.00">AddedAdditionalId</text>
</g>
<!-- \\AddedAdditionalId&#45;&gt;\\CakeMigration -->
<g id="edge111" class="edge"><title>\\AddedAdditionalId&#45;&gt;\\CakeMigration</title>
<path fill="none" stroke="black" d="M1027.5,-550.591C1013.43,-546.482 999.849,-539.783 990,-529 859.318,-385.927 1050.91,-240.002 918,-99 910.44,-90.9799 901.025,-85.1126 890.833,-80.8528"/>
<polygon fill="none" stroke="black" points="891.879,-77.5089 881.284,-77.377 889.484,-84.0866 891.879,-77.5089"/>
</g>
</g>
</svg>
