<?xml version="1.0" encoding="UTF-8" standalone="no"?>
<!DOCTYPE svg PUBLIC "-//W3C//DTD SVG 1.1//EN"
 "http://www.w3.org/Graphics/SVG/1.1/DTD/svg11.dtd">
<!-- Generated by graphviz version 2.26.3 (20100126.1600)
 -->
<!-- Title: G Pages: 1 -->
<svg width="1220pt" height="3104pt"
 viewBox="0.00 0.00 1220.00 3104.00" xmlns="http://www.w3.org/2000/svg" xmlns:xlink="http://www.w3.org/1999/xlink">
<g id="graph1" class="graph" transform="scale(1 1) rotate(0) translate(4 3100)">
<title>G</title>
<polygon fill="white" stroke="white" points="-4,5 -4,-3100 1217,-3100 1217,5 -4,5"/>
<g id="graph2" class="cluster"><title>cluster_Global</title>
<polyline fill="none" stroke="gray" points="177,-422 1192,-422 "/>
<path fill="none" stroke="gray" d="M1192,-422C1198,-422 1204,-428 1204,-434"/>
<polyline fill="none" stroke="gray" points="1204,-434 1204,-3076 "/>
<path fill="none" stroke="gray" d="M1204,-3076C1204,-3082 1198,-3088 1192,-3088"/>
<polyline fill="none" stroke="gray" points="1192,-3088 177,-3088 "/>
<path fill="none" stroke="gray" d="M177,-3088C171,-3088 165,-3082 165,-3076"/>
<polyline fill="none" stroke="gray" points="165,-3076 165,-434 "/>
<path fill="none" stroke="gray" d="M165,-434C165,-428 171,-422 177,-422"/>
<text text-anchor="middle" x="684.5" y="-3074.1" font-family="Times Roman,serif" font-size="11.00" fill="gray">Global</text>
</g>
<!-- \\AppController -->
<g id="node2" class="node"><title>\\AppController</title>
<polygon fill="none" stroke="black" points="555,-1628 451,-1628 451,-1592 555,-1592 555,-1628"/>
<text text-anchor="middle" x="503" y="-1607.1" font-family="Courier,monospace" font-size="11.00">AppController</text>
</g>
<!-- \\Controller -->
<g id="node66" class="node"><title>\\Controller</title>
<ellipse fill="none" stroke="black" cx="242" cy="-319" rx="63.1385" ry="18.3848"/>
<text text-anchor="middle" x="242" y="-315.4" font-family="Times Roman,serif" font-size="14.00" fill="gray">\Controller</text>
</g>
<!-- \\AppController&#45;&gt;\\Controller -->
<g id="edge3" class="edge"><title>\\AppController&#45;&gt;\\Controller</title>
<path fill="none" stroke="black" d="M450.781,-1612C430.74,-1609.88 409.467,-1603.56 396,-1588 218.397,-1382.83 463.776,-601.593 324,-369 316.115,-355.878 303.338,-345.737 290.193,-338.127"/>
<polygon fill="none" stroke="black" points="291.558,-334.888 281.089,-333.257 288.256,-341.06 291.558,-334.888"/>
</g>
<!-- \\AppModel -->
<g id="node3" class="node"><title>\\AppModel</title>
<polygon fill="none" stroke="black" points="538,-3031 468,-3031 468,-2995 538,-2995 538,-3031"/>
<text text-anchor="middle" x="503" y="-3010.1" font-family="Courier,monospace" font-size="11.00">AppModel</text>
</g>
<!-- \\NetCommonsAppModel -->
<g id="node50" class="node"><title>\\NetCommonsAppModel</title>
<polygon fill="none" stroke="black" points="311,-3031 173,-3031 173,-2995 311,-2995 311,-3031"/>
<text text-anchor="middle" x="242" y="-3010.1" font-family="Courier,monospace" font-size="11.00">NetCommonsAppModel</text>
</g>
<!-- \\AppModel&#45;&gt;\\NetCommonsAppModel -->
<g id="edge5" class="edge"><title>\\AppModel&#45;&gt;\\NetCommonsAppModel</title>
<path fill="none" stroke="black" d="M467.256,-3013C429.848,-3013 369.903,-3013 321.254,-3013"/>
<polygon fill="none" stroke="black" points="321.056,-3009.5 311.056,-3013 321.056,-3016.5 321.056,-3009.5"/>
</g>
<!-- \\DatabaseConfiguration -->
<g id="node4" class="node"><title>\\DatabaseConfiguration</title>
<polygon fill="none" stroke="black" points="879,-3058 721,-3058 721,-3022 879,-3022 879,-3058"/>
<text text-anchor="middle" x="800" y="-3037.1" font-family="Courier,monospace" font-size="11.00">DatabaseConfiguration</text>
</g>
<!-- \\DatabaseConfiguration&#45;&gt;\\AppModel -->
<g id="edge7" class="edge"><title>\\DatabaseConfiguration&#45;&gt;\\AppModel</title>
<path fill="none" stroke="black" d="M720.8,-3032.8C665.959,-3027.81 594.863,-3021.35 549.084,-3017.19"/>
<polygon fill="none" stroke="black" points="549.143,-3013.68 538.867,-3016.26 548.509,-3020.65 549.143,-3013.68"/>
</g>
<!-- \\AppHelper -->
<g id="node5" class="node"><title>\\AppHelper</title>
<polygon fill="none" stroke="black" points="838,-2005 762,-2005 762,-1969 838,-1969 838,-2005"/>
<text text-anchor="middle" x="800" y="-1984.1" font-family="Courier,monospace" font-size="11.00">AppHelper</text>
</g>
<!-- \\Helper -->
<g id="node70" class="node"><title>\\Helper</title>
<ellipse fill="none" stroke="black" cx="503" cy="-396" rx="43.8406" ry="18.3848"/>
<text text-anchor="middle" x="503" y="-392.4" font-family="Times Roman,serif" font-size="14.00" fill="gray">Helper</text>
</g>
<!-- \\AppHelper&#45;&gt;\\Helper -->
<g id="edge9" class="edge"><title>\\AppHelper&#45;&gt;\\Helper</title>
<path fill="none" stroke="black" d="M793.104,-1968.78C772.092,-1912.32 708.672,-1734.95 682,-1582 659.74,-1454.35 694.945,-515.854 610,-418 596.872,-402.877 576.37,-396.487 556.81,-394.198"/>
<polygon fill="none" stroke="black" points="556.969,-390.7 546.711,-393.351 556.383,-397.675 556.969,-390.7"/>
</g>
<!-- \\NetCommonsDeleteTest -->
<g id="node6" class="node"><title>\\NetCommonsDeleteTest</title>
<polygon fill="none" stroke="black" points="1169,-3004 1017,-3004 1017,-2968 1169,-2968 1169,-3004"/>
<text text-anchor="middle" x="1093" y="-2983.1" font-family="Courier,monospace" font-size="11.00">NetCommonsDeleteTest</text>
</g>
<!-- \\NetCommonsModelTestCase -->
<g id="node15" class="node"><title>\\NetCommonsModelTestCase</title>
<polygon fill="none" stroke="black" points="886,-2896 714,-2896 714,-2860 886,-2860 886,-2896"/>
<text text-anchor="middle" x="800" y="-2875.1" font-family="Courier,monospace" font-size="11.00">NetCommonsModelTestCase</text>
</g>
<!-- \\NetCommonsDeleteTest&#45;&gt;\\NetCommonsModelTestCase -->
<g id="edge11" class="edge"><title>\\NetCommonsDeleteTest&#45;&gt;\\NetCommonsModelTestCase</title>
<path fill="none" stroke="black" d="M1016.97,-2969.68C1007.68,-2966.64 998.49,-2963.1 990,-2959 953.981,-2941.6 954.288,-2921.83 918,-2905 910.962,-2901.74 903.501,-2898.85 895.884,-2896.31"/>
<polygon fill="none" stroke="black" points="896.762,-2892.91 886.173,-2893.26 894.666,-2899.59 896.762,-2892.91"/>
</g>
<!-- \\NetCommonsConsoleTestCase -->
<g id="node7" class="node"><title>\\NetCommonsConsoleTestCase</title>
<polygon fill="none" stroke="black" points="892,-2842 708,-2842 708,-2806 892,-2806 892,-2842"/>
<text text-anchor="middle" x="800" y="-2821.1" font-family="Courier,monospace" font-size="11.00">NetCommonsConsoleTestCase</text>
</g>
<!-- \\NetCommonsCakeTestCase -->
<g id="node13" class="node"><title>\\NetCommonsCakeTestCase</title>
<polygon fill="none" stroke="black" points="585,-2869 421,-2869 421,-2833 585,-2833 585,-2869"/>
<text text-anchor="middle" x="503" y="-2848.1" font-family="Courier,monospace" font-size="11.00">NetCommonsCakeTestCase</text>
</g>
<!-- \\NetCommonsConsoleTestCase&#45;&gt;\\NetCommonsCakeTestCase -->
<g id="edge13" class="edge"><title>\\NetCommonsConsoleTestCase&#45;&gt;\\NetCommonsCakeTestCase</title>
<path fill="none" stroke="black" d="M707.249,-2832.43C671.93,-2835.64 631.688,-2839.3 596.316,-2842.52"/>
<polygon fill="none" stroke="black" points="595.635,-2839.06 585.993,-2843.46 596.269,-2846.04 595.635,-2839.06"/>
</g>
<!-- \\NetCommonsGetTest -->
<g id="node8" class="node"><title>\\NetCommonsGetTest</title>
<polygon fill="none" stroke="black" points="1158,-2950 1028,-2950 1028,-2914 1158,-2914 1158,-2950"/>
<text text-anchor="middle" x="1093" y="-2929.1" font-family="Courier,monospace" font-size="11.00">NetCommonsGetTest</text>
</g>
<!-- \\NetCommonsGetTest&#45;&gt;\\NetCommonsModelTestCase -->
<g id="edge15" class="edge"><title>\\NetCommonsGetTest&#45;&gt;\\NetCommonsModelTestCase</title>
<path fill="none" stroke="black" d="M1027.25,-2919.88C988.582,-2912.76 939.008,-2903.62 896.034,-2895.7"/>
<polygon fill="none" stroke="black" points="896.588,-2892.24 886.12,-2893.87 895.32,-2899.13 896.588,-2892.24"/>
</g>
<!-- \\NetCommonsHelperTestCase -->
<g id="node9" class="node"><title>\\NetCommonsHelperTestCase</title>
<polygon fill="none" stroke="black" points="889,-2950 711,-2950 711,-2914 889,-2914 889,-2950"/>
<text text-anchor="middle" x="800" y="-2929.1" font-family="Courier,monospace" font-size="11.00">NetCommonsHelperTestCase</text>
</g>
<!-- \\NetCommonsHelperTestCase&#45;&gt;\\NetCommonsCakeTestCase -->
<g id="edge17" class="edge"><title>\\NetCommonsHelperTestCase&#45;&gt;\\NetCommonsCakeTestCase</title>
<path fill="none" stroke="black" d="M717.936,-2913.98C705.852,-2911.11 693.579,-2908.07 682,-2905 644.303,-2895.01 602.565,-2882.51 568.882,-2872.05"/>
<polygon fill="none" stroke="black" points="569.742,-2868.65 559.154,-2869.01 567.658,-2875.33 569.742,-2868.65"/>
</g>
<!-- \\NetCommonsControllerBaseTestCase -->
<g id="node10" class="node"><title>\\NetCommonsControllerBaseTestCase</title>
<polygon fill="none" stroke="black" points="916,-1573 684,-1573 684,-1537 916,-1537 916,-1573"/>
<text text-anchor="middle" x="800" y="-1552.1" font-family="Courier,monospace" font-size="11.00">NetCommonsControllerBaseTestCase</text>
</g>
<!-- \\ControllerTestCase -->
<g id="node76" class="node"><title>\\ControllerTestCase</title>
<ellipse fill="none" stroke="black" cx="503" cy="-342" rx="106.773" ry="18.3848"/>
<text text-anchor="middle" x="503" y="-338.4" font-family="Times Roman,serif" font-size="14.00" fill="gray">\ControllerTestCase</text>
</g>
<!-- \\NetCommonsControllerBaseTestCase&#45;&gt;\\ControllerTestCase -->
<g id="edge19" class="edge"><title>\\NetCommonsControllerBaseTestCase&#45;&gt;\\ControllerTestCase</title>
<path fill="none" stroke="black" d="M729.07,-1537C710.89,-1528.95 693.3,-1517.43 682,-1501 539.14,-1293.33 771.141,-562.829 610,-369 606.402,-364.672 602.221,-360.982 597.638,-357.841"/>
<polygon fill="none" stroke="black" points="599.388,-354.81 588.994,-352.759 595.841,-360.844 599.388,-354.81"/>
</g>
<!-- \\NetCommonsValidateTest -->
<g id="node11" class="node"><title>\\NetCommonsValidateTest</title>
<polygon fill="none" stroke="black" points="1175,-2896 1011,-2896 1011,-2860 1175,-2860 1175,-2896"/>
<text text-anchor="middle" x="1093" y="-2875.1" font-family="Courier,monospace" font-size="11.00">NetCommonsValidateTest</text>
</g>
<!-- \\NetCommonsValidateTest&#45;&gt;\\NetCommonsModelTestCase -->
<g id="edge21" class="edge"><title>\\NetCommonsValidateTest&#45;&gt;\\NetCommonsModelTestCase</title>
<path fill="none" stroke="black" d="M1010.21,-2878C974.791,-2878 933.196,-2878 896.397,-2878"/>
<polygon fill="none" stroke="black" points="896.154,-2874.5 886.154,-2878 896.154,-2881.5 896.154,-2874.5"/>
</g>
<!-- \\NetCommonsTestSuite -->
<g id="node12" class="node"><title>\\NetCommonsTestSuite</title>
<polygon fill="none" stroke="black" points="1165,-1438 1021,-1438 1021,-1402 1165,-1402 1165,-1438"/>
<text text-anchor="middle" x="1093" y="-1417.1" font-family="Courier,monospace" font-size="11.00">NetCommonsTestSuite</text>
</g>
<!-- \\CakeTestSuite -->
<g id="node79" class="node"><title>\\CakeTestSuite</title>
<ellipse fill="none" stroke="black" cx="800" cy="-396" rx="84.1457" ry="18.3848"/>
<text text-anchor="middle" x="800" y="-392.4" font-family="Times Roman,serif" font-size="14.00" fill="gray">\CakeTestSuite</text>
</g>
<!-- \\NetCommonsTestSuite&#45;&gt;\\CakeTestSuite -->
<g id="edge23" class="edge"><title>\\NetCommonsTestSuite&#45;&gt;\\CakeTestSuite</title>
<path fill="none" stroke="black" d="M1020.43,-1413.15C1008.75,-1408.91 997.923,-1402.52 990,-1393 851.027,-1226.01 1062.9,-579.881 918,-418 911.225,-410.43 902.75,-404.946 893.47,-401.027"/>
<polygon fill="none" stroke="black" points="894.549,-397.696 883.955,-397.611 892.184,-404.284 894.549,-397.696"/>
</g>
<!-- \\CakeTestCase -->
<g id="node81" class="node"><title>\\CakeTestCase</title>
<ellipse fill="none" stroke="black" cx="242" cy="-396" rx="82.0244" ry="18.3848"/>
<text text-anchor="middle" x="242" y="-392.4" font-family="Times Roman,serif" font-size="14.00" fill="gray">\CakeTestCase</text>
</g>
<!-- \\NetCommonsCakeTestCase&#45;&gt;\\CakeTestCase -->
<g id="edge25" class="edge"><title>\\NetCommonsCakeTestCase&#45;&gt;\\CakeTestCase</title>
<path fill="none" stroke="black" d="M501.2,-2832.84C490.254,-2721.96 431.907,-2124.96 396,-1637 386.043,-1501.69 409.719,-523.173 324,-418 322.289,-415.901 320.401,-413.989 318.37,-412.25"/>
<polygon fill="none" stroke="black" points="320.111,-409.197 309.904,-406.358 316.113,-414.943 320.111,-409.197"/>
</g>
<!-- \\NetCommonsSaveTest -->
<g id="node14" class="node"><title>\\NetCommonsSaveTest</title>
<polygon fill="none" stroke="black" points="1162,-2842 1024,-2842 1024,-2806 1162,-2806 1162,-2842"/>
<text text-anchor="middle" x="1093" y="-2821.1" font-family="Courier,monospace" font-size="11.00">NetCommonsSaveTest</text>
</g>
<!-- \\NetCommonsSaveTest&#45;&gt;\\NetCommonsModelTestCase -->
<g id="edge27" class="edge"><title>\\NetCommonsSaveTest&#45;&gt;\\NetCommonsModelTestCase</title>
<path fill="none" stroke="black" d="M1023.93,-2836.73C985.795,-2843.76 937.829,-2852.6 896.084,-2860.29"/>
<polygon fill="none" stroke="black" points="895.372,-2856.86 886.172,-2862.12 896.641,-2863.75 895.372,-2856.86"/>
</g>
<!-- \\NetCommonsModelTestCase&#45;&gt;\\NetCommonsCakeTestCase -->
<g id="edge29" class="edge"><title>\\NetCommonsModelTestCase&#45;&gt;\\NetCommonsCakeTestCase</title>
<path fill="none" stroke="black" d="M713.696,-2870.15C676.671,-2866.79 633.35,-2862.85 595.65,-2859.42"/>
<polygon fill="none" stroke="black" points="595.962,-2855.94 585.686,-2858.52 595.328,-2862.91 595.962,-2855.94"/>
</g>
<!-- \\NetCommonsControllerTestCase -->
<g id="node16" class="node"><title>\\NetCommonsControllerTestCase</title>
<polygon fill="none" stroke="black" points="1196,-1600 990,-1600 990,-1564 1196,-1564 1196,-1600"/>
<text text-anchor="middle" x="1093" y="-1579.1" font-family="Courier,monospace" font-size="11.00">NetCommonsControllerTestCase</text>
</g>
<!-- \\NetCommonsControllerTestCase&#45;&gt;\\NetCommonsControllerBaseTestCase -->
<g id="edge31" class="edge"><title>\\NetCommonsControllerTestCase&#45;&gt;\\NetCommonsControllerBaseTestCase</title>
<path fill="none" stroke="black" d="M989.699,-1572.48C969.289,-1570.6 947.65,-1568.61 926.571,-1566.66"/>
<polygon fill="none" stroke="black" points="926.885,-1563.18 916.606,-1565.75 926.243,-1570.15 926.885,-1563.18"/>
</g>
<!-- \\NetCommonsAppController -->
<g id="node17" class="node"><title>\\NetCommonsAppController</title>
<polygon fill="none" stroke="black" points="886,-1492 714,-1492 714,-1456 886,-1456 886,-1492"/>
<text text-anchor="middle" x="800" y="-1471.1" font-family="Courier,monospace" font-size="11.00">NetCommonsAppController</text>
</g>
<!-- \\NetCommonsAppController&#45;&gt;\\Controller -->
<g id="edge33" class="edge"><title>\\NetCommonsAppController&#45;&gt;\\Controller</title>
<path fill="none" stroke="black" d="M713.873,-1471.81C701.722,-1467.85 690.497,-1461.59 682,-1452 514.139,-1262.48 794.59,-488.271 610,-315 522.551,-232.913 365.475,-273.363 287.908,-300.78"/>
<polygon fill="none" stroke="black" points="286.618,-297.525 278.403,-304.216 288.998,-304.108 286.618,-297.525"/>
</g>
<!-- \\AssetComponent -->
<g id="node18" class="node"><title>\\AssetComponent</title>
<polygon fill="none" stroke="black" points="1148,-1330 1038,-1330 1038,-1294 1148,-1294 1148,-1330"/>
<text text-anchor="middle" x="1093" y="-1309.1" font-family="Courier,monospace" font-size="11.00">AssetComponent</text>
</g>
<!-- \\Component -->
<g id="node87" class="node"><title>\\Component</title>
<ellipse fill="none" stroke="black" cx="800" cy="-342" rx="70.9184" ry="18.3848"/>
<text text-anchor="middle" x="800" y="-338.4" font-family="Times Roman,serif" font-size="14.00" fill="gray">\Component</text>
</g>
<!-- \\AssetComponent&#45;&gt;\\Component -->
<g id="edge35" class="edge"><title>\\AssetComponent&#45;&gt;\\Component</title>
<path fill="none" stroke="black" d="M1037.28,-1309.78C1019.62,-1306.19 1001.68,-1298.97 990,-1285 859.019,-1128.36 1051.43,-523.559 918,-369 908.404,-357.884 895.256,-350.825 881.208,-346.436"/>
<polygon fill="none" stroke="black" points="881.937,-343.008 871.373,-343.807 880.13,-349.771 881.937,-343.008"/>
</g>
<!-- \\AccessCtrlComponent -->
<g id="node19" class="node"><title>\\AccessCtrlComponent</title>
<polygon fill="none" stroke="black" points="1165,-1276 1021,-1276 1021,-1240 1165,-1240 1165,-1276"/>
<text text-anchor="middle" x="1093" y="-1255.1" font-family="Courier,monospace" font-size="11.00">AccessCtrlComponent</text>
</g>
<!-- \\AccessCtrlComponent&#45;&gt;\\Component -->
<g id="edge37" class="edge"><title>\\AccessCtrlComponent&#45;&gt;\\Component</title>
<path fill="none" stroke="black" d="M1020.24,-1250.99C1008.66,-1246.75 997.909,-1240.41 990,-1231 866.331,-1083.84 1043.97,-514.197 918,-369 908.377,-357.908 895.216,-350.859 881.165,-346.473"/>
<polygon fill="none" stroke="black" points="881.893,-343.045 871.328,-343.845 880.086,-349.808 881.893,-343.045"/>
</g>
<!-- \\NetCommonsTimeComponent -->
<g id="node20" class="node"><title>\\NetCommonsTimeComponent</title>
<polygon fill="none" stroke="black" points="1179,-1222 1007,-1222 1007,-1186 1179,-1186 1179,-1222"/>
<text text-anchor="middle" x="1093" y="-1201.1" font-family="Courier,monospace" font-size="11.00">NetCommonsTimeComponent</text>
</g>
<!-- \\NetCommonsTimeComponent&#45;&gt;\\Component -->
<g id="edge39" class="edge"><title>\\NetCommonsTimeComponent&#45;&gt;\\Component</title>
<path fill="none" stroke="black" d="M1006.95,-1190.83C1000.57,-1187.19 994.773,-1182.65 990,-1177 873.641,-1039.32 1036.51,-504.839 918,-369 908.346,-357.935 895.171,-350.898 881.117,-346.516"/>
<polygon fill="none" stroke="black" points="881.843,-343.087 871.278,-343.889 880.037,-349.85 881.843,-343.087"/>
</g>
<!-- \\PermissionComponent -->
<g id="node21" class="node"><title>\\PermissionComponent</title>
<polygon fill="none" stroke="black" points="1165,-1168 1021,-1168 1021,-1132 1165,-1132 1165,-1168"/>
<text text-anchor="middle" x="1093" y="-1147.1" font-family="Courier,monospace" font-size="11.00">PermissionComponent</text>
</g>
<!-- \\PermissionComponent&#45;&gt;\\Component -->
<g id="edge41" class="edge"><title>\\PermissionComponent&#45;&gt;\\Component</title>
<path fill="none" stroke="black" d="M1020.33,-1142.91C1008.74,-1138.69 997.965,-1132.36 990,-1123 880.948,-994.787 1029.05,-495.484 918,-369 908.311,-357.965 895.121,-350.943 881.061,-346.564"/>
<polygon fill="none" stroke="black" points="881.786,-343.135 871.222,-343.939 879.981,-349.899 881.786,-343.135"/>
</g>
<!-- \\NetCommonsComponent -->
<g id="node22" class="node"><title>\\NetCommonsComponent</title>
<polygon fill="none" stroke="black" points="1165,-1114 1021,-1114 1021,-1078 1165,-1078 1165,-1114"/>
<text text-anchor="middle" x="1093" y="-1093.1" font-family="Courier,monospace" font-size="11.00">NetCommonsComponent</text>
</g>
<!-- \\NetCommonsComponent&#45;&gt;\\Component -->
<g id="edge43" class="edge"><title>\\NetCommonsComponent&#45;&gt;\\Component</title>
<path fill="none" stroke="black" d="M1020.39,-1088.86C1008.79,-1084.64 997.999,-1078.34 990,-1069 786.502,-831.507 1125.2,-603.266 918,-369 908.271,-358.001 895.062,-350.994 880.998,-346.62"/>
<polygon fill="none" stroke="black" points="881.72,-343.191 871.156,-343.996 879.917,-349.955 881.72,-343.191"/>
</g>
<!-- \\SiteCloseController -->
<g id="node23" class="node"><title>\\SiteCloseController</title>
<polygon fill="none" stroke="black" points="1165,-1492 1021,-1492 1021,-1456 1165,-1456 1165,-1492"/>
<text text-anchor="middle" x="1093" y="-1471.1" font-family="Courier,monospace" font-size="11.00">SiteCloseController</text>
</g>
<!-- \\SiteCloseController&#45;&gt;\\NetCommonsAppController -->
<g id="edge45" class="edge"><title>\\SiteCloseController&#45;&gt;\\NetCommonsAppController</title>
<path fill="none" stroke="black" d="M1020.2,-1474C982.776,-1474 936.682,-1474 896.354,-1474"/>
<polygon fill="none" stroke="black" points="896.233,-1470.5 886.233,-1474 896.233,-1477.5 896.233,-1470.5"/>
</g>
<!-- \\NetCommonsController -->
<g id="node24" class="node"><title>\\NetCommonsController</title>
<polygon fill="none" stroke="black" points="1169,-1546 1017,-1546 1017,-1510 1169,-1510 1169,-1546"/>
<text text-anchor="middle" x="1093" y="-1525.1" font-family="Courier,monospace" font-size="11.00">NetCommonsController</text>
</g>
<!-- \\NetCommonsController&#45;&gt;\\NetCommonsAppController -->
<g id="edge47" class="edge"><title>\\NetCommonsController&#45;&gt;\\NetCommonsAppController</title>
<path fill="none" stroke="black" d="M1016.78,-1513.95C979.893,-1507.15 935.211,-1498.92 896.02,-1491.7"/>
<polygon fill="none" stroke="black" points="896.652,-1488.25 886.183,-1489.88 895.383,-1495.14 896.652,-1488.25"/>
</g>
<!-- \\NetCommonsUrl -->
<g id="node25" class="node"><title>\\NetCommonsUrl</title>
<polygon fill="none" stroke="black" points="1145,-2356 1041,-2356 1041,-2320 1145,-2320 1145,-2356"/>
<text text-anchor="middle" x="1093" y="-2335.1" font-family="Courier,monospace" font-size="11.00">NetCommonsUrl</text>
</g>
<!-- \\NetCommonsTime -->
<g id="node26" class="node"><title>\\NetCommonsTime</title>
<polygon fill="none" stroke="black" points="1148,-2302 1038,-2302 1038,-2266 1148,-2266 1148,-2302"/>
<text text-anchor="middle" x="1093" y="-2281.1" font-family="Courier,monospace" font-size="11.00">NetCommonsTime</text>
</g>
<!-- \\CurrentBase -->
<g id="node27" class="node"><title>\\CurrentBase</title>
<polygon fill="none" stroke="black" points="845,-2734 755,-2734 755,-2698 845,-2698 845,-2734"/>
<text text-anchor="middle" x="800" y="-2713.1" font-family="Courier,monospace" font-size="11.00">CurrentBase</text>
</g>
<!-- \\Current -->
<g id="node28" class="node"><title>\\Current</title>
<polygon fill="none" stroke="black" points="1125,-2734 1061,-2734 1061,-2698 1125,-2698 1125,-2734"/>
<text text-anchor="middle" x="1093" y="-2713.1" font-family="Courier,monospace" font-size="11.00">Current</text>
</g>
<!-- \\Current&#45;&gt;\\CurrentBase -->
<g id="edge49" class="edge"><title>\\Current&#45;&gt;\\CurrentBase</title>
<path fill="none" stroke="black" d="M1060.81,-2716C1011.48,-2716 916.554,-2716 855.846,-2716"/>
<polygon fill="none" stroke="black" points="855.669,-2712.5 845.669,-2716 855.669,-2719.5 855.669,-2712.5"/>
</g>
<!-- \\CurrentSystem -->
<g id="node29" class="node"><title>\\CurrentSystem</title>
<polygon fill="none" stroke="black" points="1145,-2194 1041,-2194 1041,-2158 1145,-2158 1145,-2194"/>
<text text-anchor="middle" x="1093" y="-2173.1" font-family="Courier,monospace" font-size="11.00">CurrentSystem</text>
</g>
<!-- \\CurrentPage -->
<g id="node30" class="node"><title>\\CurrentPage</title>
<polygon fill="none" stroke="black" points="1138,-2140 1048,-2140 1048,-2104 1138,-2104 1138,-2140"/>
<text text-anchor="middle" x="1093" y="-2119.1" font-family="Courier,monospace" font-size="11.00">CurrentPage</text>
</g>
<!-- \\CurrentFrame -->
<g id="node31" class="node"><title>\\CurrentFrame</title>
<polygon fill="none" stroke="black" points="1142,-2086 1044,-2086 1044,-2050 1142,-2050 1142,-2086"/>
<text text-anchor="middle" x="1093" y="-2065.1" font-family="Courier,monospace" font-size="11.00">CurrentFrame</text>
</g>
<!-- \\TokenHelper -->
<g id="node32" class="node"><title>\\TokenHelper</title>
<polygon fill="none" stroke="black" points="1138,-1006 1048,-1006 1048,-970 1138,-970 1138,-1006"/>
<text text-anchor="middle" x="1093" y="-985.1" font-family="Courier,monospace" font-size="11.00">TokenHelper</text>
</g>
<!-- \\FormHelper -->
<g id="node96" class="node"><title>\\FormHelper</title>
<ellipse fill="none" stroke="black" cx="800" cy="-288" rx="70.9184" ry="18.3848"/>
<text text-anchor="middle" x="800" y="-284.4" font-family="Times Roman,serif" font-size="14.00" fill="gray">\FormHelper</text>
</g>
<!-- \\TokenHelper&#45;&gt;\\FormHelper -->
<g id="edge51" class="edge"><title>\\TokenHelper&#45;&gt;\\FormHelper</title>
<path fill="none" stroke="black" d="M1047.39,-987.237C1026.87,-984.41 1004.14,-977.364 990,-961 801.099,-742.429 1110.31,-530.576 918,-315 908.225,-304.042 894.994,-297.054 880.924,-292.686"/>
<polygon fill="none" stroke="black" points="881.644,-289.256 871.08,-290.064 879.842,-296.02 881.644,-289.256"/>
</g>
<!-- \\SingletonViewBlockHtmlHelper -->
<g id="node33" class="node"><title>\\SingletonViewBlockHtmlHelper</title>
<polygon fill="none" stroke="black" points="1196,-898 990,-898 990,-862 1196,-862 1196,-898"/>
<text text-anchor="middle" x="1093" y="-877.1" font-family="Courier,monospace" font-size="11.00">SingletonViewBlockHtmlHelper</text>
</g>
<!-- \\HtmlHelper -->
<g id="node98" class="node"><title>\\HtmlHelper</title>
<ellipse fill="none" stroke="black" cx="800" cy="-234" rx="67.1751" ry="18.3848"/>
<text text-anchor="middle" x="800" y="-230.4" font-family="Times Roman,serif" font-size="14.00" fill="gray">HtmlHelper</text>
</g>
<!-- \\SingletonViewBlockHtmlHelper&#45;&gt;\\HtmlHelper -->
<g id="edge53" class="edge"><title>\\SingletonViewBlockHtmlHelper&#45;&gt;\\HtmlHelper</title>
<path fill="none" stroke="black" d="M999.735,-861.902C996.194,-859.295 992.918,-856.342 990,-853 815.683,-653.337 1095.43,-457.899 918,-261 907.223,-249.041 892.331,-241.821 876.75,-237.576"/>
<polygon fill="none" stroke="black" points="877.525,-234.162 866.991,-235.301 875.935,-240.98 877.525,-234.162"/>
</g>
<!-- \\FormInputHelper -->
<g id="node34" class="node"><title>\\FormInputHelper</title>
<polygon fill="none" stroke="black" points="1152,-2572 1034,-2572 1034,-2536 1152,-2536 1152,-2572"/>
<text text-anchor="middle" x="1093" y="-2551.1" font-family="Courier,monospace" font-size="11.00">FormInputHelper</text>
</g>
<!-- \\FormInputHelper&#45;&gt;\\AppHelper -->
<g id="edge55" class="edge"><title>\\FormInputHelper&#45;&gt;\\AppHelper</title>
<path fill="none" stroke="black" d="M1033.87,-2548.69C1018.06,-2544.73 1002.03,-2538.08 990,-2527 834.226,-2383.5 806.135,-2104.7 801.095,-2015.31"/>
<polygon fill="none" stroke="black" points="804.581,-2014.94 800.577,-2005.13 797.59,-2015.3 804.581,-2014.94"/>
</g>
<!-- \\WizardHelper -->
<g id="node35" class="node"><title>\\WizardHelper</title>
<polygon fill="none" stroke="black" points="1142,-2518 1044,-2518 1044,-2482 1142,-2482 1142,-2518"/>
<text text-anchor="middle" x="1093" y="-2497.1" font-family="Courier,monospace" font-size="11.00">WizardHelper</text>
</g>
<!-- \\WizardHelper&#45;&gt;\\AppHelper -->
<g id="edge57" class="edge"><title>\\WizardHelper&#45;&gt;\\AppHelper</title>
<path fill="none" stroke="black" d="M1043.96,-2496.57C1025.19,-2493.02 1004.78,-2486.15 990,-2473 847.368,-2346.06 810.808,-2098.73 802.341,-2015.27"/>
<polygon fill="none" stroke="black" points="805.82,-2014.89 801.383,-2005.27 798.852,-2015.56 805.82,-2014.89"/>
</g>
<!-- \\DisplayNumberHelper -->
<g id="node36" class="node"><title>\\DisplayNumberHelper</title>
<polygon fill="none" stroke="black" points="1165,-2464 1021,-2464 1021,-2428 1165,-2428 1165,-2464"/>
<text text-anchor="middle" x="1093" y="-2443.1" font-family="Courier,monospace" font-size="11.00">DisplayNumberHelper</text>
</g>
<!-- \\DisplayNumberHelper&#45;&gt;\\AppHelper -->
<g id="edge59" class="edge"><title>\\DisplayNumberHelper&#45;&gt;\\AppHelper</title>
<path fill="none" stroke="black" d="M1020.48,-2435.9C1009.43,-2431.95 998.789,-2426.5 990,-2419 860.231,-2308.27 815.867,-2091.9 803.825,-2014.97"/>
<polygon fill="none" stroke="black" points="807.284,-2014.43 802.335,-2005.07 800.362,-2015.48 807.284,-2014.43"/>
</g>
<!-- \\MessageFlashHelper -->
<g id="node37" class="node"><title>\\MessageFlashHelper</title>
<polygon fill="none" stroke="black" points="1162,-2410 1024,-2410 1024,-2374 1162,-2374 1162,-2410"/>
<text text-anchor="middle" x="1093" y="-2389.1" font-family="Courier,monospace" font-size="11.00">MessageFlashHelper</text>
</g>
<!-- \\MessageFlashHelper&#45;&gt;\\AppHelper -->
<g id="edge61" class="edge"><title>\\MessageFlashHelper&#45;&gt;\\AppHelper</title>
<path fill="none" stroke="black" d="M1023.75,-2382.5C1011.62,-2378.52 999.769,-2372.91 990,-2365 873.272,-2270.47 821.79,-2085.75 805.802,-2015.26"/>
<polygon fill="none" stroke="black" points="809.185,-2014.35 803.616,-2005.33 802.349,-2015.85 809.185,-2014.35"/>
</g>
<!-- \\DateHelper -->
<g id="node38" class="node"><title>\\DateHelper</title>
<polygon fill="none" stroke="black" points="1135,-2248 1051,-2248 1051,-2212 1135,-2212 1135,-2248"/>
<text text-anchor="middle" x="1093" y="-2227.1" font-family="Courier,monospace" font-size="11.00">DateHelper</text>
</g>
<!-- \\DateHelper&#45;&gt;\\AppHelper -->
<g id="edge63" class="edge"><title>\\DateHelper&#45;&gt;\\AppHelper</title>
<path fill="none" stroke="black" d="M1050.91,-2224.76C1031.31,-2220.92 1008.33,-2214.31 990,-2203 909.876,-2153.56 844.727,-2059.81 815.946,-2013.81"/>
<polygon fill="none" stroke="black" points="818.75,-2011.69 810.523,-2005.02 812.792,-2015.36 818.75,-2011.69"/>
</g>
<!-- \\SnsButtonHelper -->
<g id="node39" class="node"><title>\\SnsButtonHelper</title>
<polygon fill="none" stroke="black" points="1152,-2032 1034,-2032 1034,-1996 1152,-1996 1152,-2032"/>
<text text-anchor="middle" x="1093" y="-2011.1" font-family="Courier,monospace" font-size="11.00">SnsButtonHelper</text>
</g>
<!-- \\SnsButtonHelper&#45;&gt;\\AppHelper -->
<g id="edge65" class="edge"><title>\\SnsButtonHelper&#45;&gt;\\AppHelper</title>
<path fill="none" stroke="black" d="M1033.71,-2008.54C979.266,-2003.52 899.563,-1996.17 848.738,-1991.49"/>
<polygon fill="none" stroke="black" points="848.942,-1988 838.663,-1990.56 848.299,-1994.97 848.942,-1988"/>
</g>
<!-- \\BackToHelper -->
<g id="node40" class="node"><title>\\BackToHelper</title>
<polygon fill="none" stroke="black" points="1142,-1978 1044,-1978 1044,-1942 1142,-1942 1142,-1978"/>
<text text-anchor="middle" x="1093" y="-1957.1" font-family="Courier,monospace" font-size="11.00">BackToHelper</text>
</g>
<!-- \\BackToHelper&#45;&gt;\\AppHelper -->
<g id="edge67" class="edge"><title>\\BackToHelper&#45;&gt;\\AppHelper</title>
<path fill="none" stroke="black" d="M1043.96,-1964.52C989.78,-1969.51 903.056,-1977.5 848.925,-1982.49"/>
<polygon fill="none" stroke="black" points="848.519,-1979.01 838.882,-1983.42 849.161,-1985.98 848.519,-1979.01"/>
</g>
<!-- \\NetCommonsHtmlHelper -->
<g id="node41" class="node"><title>\\NetCommonsHtmlHelper</title>
<polygon fill="none" stroke="black" points="1169,-1924 1017,-1924 1017,-1888 1169,-1888 1169,-1924"/>
<text text-anchor="middle" x="1093" y="-1903.1" font-family="Courier,monospace" font-size="11.00">NetCommonsHtmlHelper</text>
</g>
<!-- \\NetCommonsHtmlHelper&#45;&gt;\\AppHelper -->
<g id="edge69" class="edge"><title>\\NetCommonsHtmlHelper&#45;&gt;\\AppHelper</title>
<path fill="none" stroke="black" d="M1023.41,-1924.03C1012.23,-1926.99 1000.79,-1930.05 990,-1933 941.716,-1946.19 886.728,-1961.89 848.375,-1972.96"/>
<polygon fill="none" stroke="black" points="847.145,-1969.67 838.508,-1975.8 849.087,-1976.39 847.145,-1969.67"/>
</g>
<!-- \\ButtonHelper -->
<g id="node42" class="node"><title>\\ButtonHelper</title>
<polygon fill="none" stroke="black" points="1142,-952 1044,-952 1044,-916 1142,-916 1142,-952"/>
<text text-anchor="middle" x="1093" y="-931.1" font-family="Courier,monospace" font-size="11.00">ButtonHelper</text>
</g>
<!-- \\ButtonHelper&#45;&gt;\\FormHelper -->
<g id="edge71" class="edge"><title>\\ButtonHelper&#45;&gt;\\FormHelper</title>
<path fill="none" stroke="black" d="M1043.76,-932.618C1024.27,-929.457 1003.37,-922.318 990,-907 815.683,-707.337 1095.43,-511.899 918,-315 908.227,-304.155 895.069,-297.207 881.082,-292.841"/>
<polygon fill="none" stroke="black" points="881.864,-289.426 871.298,-290.214 880.049,-296.187 881.864,-289.426"/>
</g>
<!-- \\ComposerHelper -->
<g id="node43" class="node"><title>\\ComposerHelper</title>
<polygon fill="none" stroke="black" points="1148,-1870 1038,-1870 1038,-1834 1148,-1834 1148,-1870"/>
<text text-anchor="middle" x="1093" y="-1849.1" font-family="Courier,monospace" font-size="11.00">ComposerHelper</text>
</g>
<!-- \\ComposerHelper&#45;&gt;\\AppHelper -->
<g id="edge73" class="edge"><title>\\ComposerHelper&#45;&gt;\\AppHelper</title>
<path fill="none" stroke="black" d="M1037.34,-1863.77C1021.75,-1867.82 1004.98,-1872.9 990,-1879 933.066,-1902.18 872.097,-1939.27 835.004,-1963.39"/>
<polygon fill="none" stroke="black" points="833.002,-1960.52 826.557,-1968.93 836.839,-1966.37 833.002,-1960.52"/>
</g>
<!-- \\LinkButtonHelper -->
<g id="node44" class="node"><title>\\LinkButtonHelper</title>
<polygon fill="none" stroke="black" points="1155,-1060 1031,-1060 1031,-1024 1155,-1024 1155,-1060"/>
<text text-anchor="middle" x="1093" y="-1039.1" font-family="Courier,monospace" font-size="11.00">LinkButtonHelper</text>
</g>
<!-- \\LinkButtonHelper&#45;&gt;\\FormHelper -->
<g id="edge75" class="edge"><title>\\LinkButtonHelper&#45;&gt;\\FormHelper</title>
<path fill="none" stroke="black" d="M1030.48,-1038C1015.19,-1034 1000.28,-1027 990,-1015 786.502,-777.507 1125.2,-549.266 918,-315 908.271,-304.001 895.062,-296.994 880.998,-292.62"/>
<polygon fill="none" stroke="black" points="881.72,-289.191 871.156,-289.996 879.917,-295.955 881.72,-289.191"/>
</g>
<!-- \\TableListHelper -->
<g id="node45" class="node"><title>\\TableListHelper</title>
<polygon fill="none" stroke="black" points="1152,-1816 1034,-1816 1034,-1780 1152,-1780 1152,-1816"/>
<text text-anchor="middle" x="1093" y="-1795.1" font-family="Courier,monospace" font-size="11.00">TableListHelper</text>
</g>
<!-- \\TableListHelper&#45;&gt;\\AppHelper -->
<g id="edge77" class="edge"><title>\\TableListHelper&#45;&gt;\\AppHelper</title>
<path fill="none" stroke="black" d="M1033.83,-1808.67C1019.02,-1812.63 1003.52,-1817.94 990,-1825 921.41,-1860.81 856.097,-1925.44 822.838,-1961.3"/>
<polygon fill="none" stroke="black" points="820.033,-1959.17 815.854,-1968.91 825.192,-1963.91 820.033,-1959.17"/>
</g>
<!-- \\NetCommonsTimeHelper -->
<g id="node46" class="node"><title>\\NetCommonsTimeHelper</title>
<polygon fill="none" stroke="black" points="1169,-1762 1017,-1762 1017,-1726 1169,-1726 1169,-1762"/>
<text text-anchor="middle" x="1093" y="-1741.1" font-family="Courier,monospace" font-size="11.00">NetCommonsTimeHelper</text>
</g>
<!-- \\NetCommonsTimeHelper&#45;&gt;\\AppHelper -->
<g id="edge79" class="edge"><title>\\NetCommonsTimeHelper&#45;&gt;\\AppHelper</title>
<path fill="none" stroke="black" d="M1016.88,-1758.4C1007.46,-1761.76 998.259,-1765.9 990,-1771 909.876,-1820.44 844.727,-1914.19 815.946,-1960.19"/>
<polygon fill="none" stroke="black" points="812.792,-1958.64 810.523,-1968.98 818.75,-1962.31 812.792,-1958.64"/>
</g>
<!-- \\NetCommonsFormHelper -->
<g id="node47" class="node"><title>\\NetCommonsFormHelper</title>
<polygon fill="none" stroke="black" points="1169,-1708 1017,-1708 1017,-1672 1169,-1672 1169,-1708"/>
<text text-anchor="middle" x="1093" y="-1687.1" font-family="Courier,monospace" font-size="11.00">NetCommonsFormHelper</text>
</g>
<!-- \\NetCommonsFormHelper&#45;&gt;\\AppHelper -->
<g id="edge81" class="edge"><title>\\NetCommonsFormHelper&#45;&gt;\\AppHelper</title>
<path fill="none" stroke="black" d="M1016.86,-1703.37C1007.35,-1706.9 998.123,-1711.36 990,-1717 898.034,-1780.86 835.79,-1904.47 811.457,-1959.46"/>
<polygon fill="none" stroke="black" points="808.13,-1958.34 807.356,-1968.9 814.551,-1961.13 808.13,-1958.34"/>
</g>
<!-- \\TitleIconHelper -->
<g id="node48" class="node"><title>\\TitleIconHelper</title>
<polygon fill="none" stroke="black" points="1152,-1654 1034,-1654 1034,-1618 1152,-1618 1152,-1654"/>
<text text-anchor="middle" x="1093" y="-1633.1" font-family="Courier,monospace" font-size="11.00">TitleIconHelper</text>
</g>
<!-- \\TitleIconHelper&#45;&gt;\\AppHelper -->
<g id="edge83" class="edge"><title>\\TitleIconHelper&#45;&gt;\\AppHelper</title>
<path fill="none" stroke="black" d="M1033.83,-1643.2C1018.45,-1647.2 1002.67,-1653.4 990,-1663 885.624,-1742.08 828.084,-1896.47 808.129,-1959.35"/>
<polygon fill="none" stroke="black" points="804.764,-1958.39 805.144,-1968.97 811.45,-1960.46 804.764,-1958.39"/>
</g>
<!-- \\DatetimePickerHelper -->
<g id="node49" class="node"><title>\\DatetimePickerHelper</title>
<polygon fill="none" stroke="black" points="1169,-2680 1017,-2680 1017,-2644 1169,-2644 1169,-2680"/>
<text text-anchor="middle" x="1093" y="-2659.1" font-family="Courier,monospace" font-size="11.00">DatetimePickerHelper</text>
</g>
<!-- \\DatetimePickerHelper&#45;&gt;\\AppHelper -->
<g id="edge85" class="edge"><title>\\DatetimePickerHelper&#45;&gt;\\AppHelper</title>
<path fill="none" stroke="black" d="M1016.75,-2651.73C1006.86,-2647.75 997.558,-2642.34 990,-2635 897.138,-2544.78 823.079,-2127.86 804.505,-2015.15"/>
<polygon fill="none" stroke="black" points="807.948,-2014.52 802.881,-2005.22 801.039,-2015.65 807.948,-2014.52"/>
</g>
<!-- \\Model -->
<g id="node116" class="node"><title>\\Model</title>
<ellipse fill="none" stroke="black" cx="44" cy="-3013" rx="43.8406" ry="18.3848"/>
<text text-anchor="middle" x="44" y="-3009.4" font-family="Times Roman,serif" font-size="14.00" fill="gray">\Model</text>
</g>
<!-- \\NetCommonsAppModel&#45;&gt;\\Model -->
<g id="edge87" class="edge"><title>\\NetCommonsAppModel&#45;&gt;\\Model</title>
<path fill="none" stroke="black" d="M172.749,-3013C148.379,-3013 121.357,-3013 98.3871,-3013"/>
<polygon fill="none" stroke="black" points="98.1425,-3009.5 88.1425,-3013 98.1424,-3016.5 98.1425,-3009.5"/>
</g>
<!-- \\OriginalKeyBehavior -->
<g id="node51" class="node"><title>\\OriginalKeyBehavior</title>
<polygon fill="none" stroke="black" points="1165,-790 1021,-790 1021,-754 1165,-754 1165,-790"/>
<text text-anchor="middle" x="1093" y="-769.1" font-family="Courier,monospace" font-size="11.00">OriginalKeyBehavior</text>
</g>
<!-- \\ModelBehavior -->
<g id="node118" class="node"><title>\\ModelBehavior</title>
<ellipse fill="none" stroke="black" cx="800" cy="-180" rx="86.9741" ry="18.3848"/>
<text text-anchor="middle" x="800" y="-176.4" font-family="Times Roman,serif" font-size="14.00" fill="gray">\ModelBehavior</text>
</g>
<!-- \\OriginalKeyBehavior&#45;&gt;\\ModelBehavior -->
<g id="edge89" class="edge"><title>\\OriginalKeyBehavior&#45;&gt;\\ModelBehavior</title>
<path fill="none" stroke="black" d="M1020.36,-764.567C1008.84,-760.366 998.079,-754.143 990,-745 830.252,-564.227 1080.57,-385.24 918,-207 910.917,-199.234 902.097,-193.472 892.49,-189.227"/>
<polygon fill="none" stroke="black" points="893.659,-185.927 883.069,-185.607 891.148,-192.461 893.659,-185.927"/>
</g>
<!-- \\TrackableBehavior -->
<g id="node52" class="node"><title>\\TrackableBehavior</title>
<polygon fill="none" stroke="black" points="1158,-736 1028,-736 1028,-700 1158,-700 1158,-736"/>
<text text-anchor="middle" x="1093" y="-715.1" font-family="Courier,monospace" font-size="11.00">TrackableBehavior</text>
</g>
<!-- \\TrackableBehavior&#45;&gt;\\ModelBehavior -->
<g id="edge91" class="edge"><title>\\TrackableBehavior&#45;&gt;\\ModelBehavior</title>
<path fill="none" stroke="black" d="M1027.36,-712.719C1013.29,-708.606 999.75,-701.872 990,-691 844.8,-529.094 1065.73,-366.605 918,-207 910.86,-199.286 902.006,-193.556 892.38,-189.328"/>
<polygon fill="none" stroke="black" points="893.536,-186.023 882.945,-185.72 891.035,-192.561 893.536,-186.023"/>
</g>
<!-- \\YAExceptionRenderer -->
<g id="node53" class="node"><title>\\YAExceptionRenderer</title>
<polygon fill="none" stroke="black" points="1165,-682 1021,-682 1021,-646 1165,-646 1165,-682"/>
<text text-anchor="middle" x="1093" y="-661.1" font-family="Courier,monospace" font-size="11.00">YAExceptionRenderer</text>
</g>
<!-- \\ExceptionRenderer -->
<g id="node121" class="node"><title>\\ExceptionRenderer</title>
<ellipse fill="none" stroke="black" cx="800" cy="-126" rx="118.087" ry="18.3848"/>
<text text-anchor="middle" x="800" y="-122.4" font-family="Times Roman,serif" font-size="14.00" fill="gray">TEHxceptionRenderer</text>
</g>
<!-- \\YAExceptionRenderer&#45;&gt;\\ExceptionRenderer -->
<g id="edge93" class="edge"><title>\\YAExceptionRenderer&#45;&gt;\\ExceptionRenderer</title>
<path fill="none" stroke="black" d="M1020.47,-656.469C1008.94,-652.277 998.146,-646.083 990,-637 844.8,-475.094 1065.73,-312.605 918,-153 913.885,-148.554 909.2,-144.767 904.126,-141.546"/>
<polygon fill="none" stroke="black" points="905.698,-138.416 895.252,-136.646 902.314,-144.544 905.698,-138.416"/>
</g>
<!-- \\NetCommonsMigration -->
<g id="node54" class="node"><title>\\NetCommonsMigration</title>
<polygon fill="none" stroke="black" points="1165,-574 1021,-574 1021,-538 1165,-538 1165,-574"/>
<text text-anchor="middle" x="1093" y="-553.1" font-family="Courier,monospace" font-size="11.00">NetCommonsMigration</text>
</g>
<!-- \\CakeMigration -->
<g id="node123" class="node"><title>\\CakeMigration</title>
<ellipse fill="none" stroke="black" cx="800" cy="-72" rx="84.8528" ry="18.3848"/>
<text text-anchor="middle" x="800" y="-68.4" font-family="Times Roman,serif" font-size="14.00" fill="gray">\CakeMigration</text>
</g>
<!-- \\NetCommonsMigration&#45;&gt;\\CakeMigration -->
<g id="edge95" class="edge"><title>\\NetCommonsMigration&#45;&gt;\\CakeMigration</title>
<path fill="none" stroke="black" d="M1020.34,-548.25C1008.9,-544.073 998.166,-537.94 990,-529 859.318,-385.927 1050.91,-240.002 918,-99 910.44,-90.9799 901.025,-85.1126 890.833,-80.8528"/>
<polygon fill="none" stroke="black" points="891.879,-77.5089 881.284,-77.377 889.484,-84.0866 891.879,-77.5089"/>
</g>
<!-- \\AuthorizationKeyComponent -->
<g id="node55" class="node"><title>\\AuthorizationKeyComponent</title>
<polygon fill="none" stroke="black" points="1185,-1384 1001,-1384 1001,-1348 1185,-1348 1185,-1384"/>
<text text-anchor="middle" x="1093" y="-1363.1" font-family="Courier,monospace" font-size="11.00">AuthorizationKeyComponent</text>
</g>
<!-- \\AuthorizationKeyComponent&#45;&gt;\\Component -->
<g id="edge97" class="edge"><title>\\AuthorizationKeyComponent&#45;&gt;\\Component</title>
<path fill="none" stroke="black" d="M1000.42,-1348.72C996.588,-1345.92 993.075,-1342.69 990,-1339 851.705,-1172.88 1058.89,-532.923 918,-369 908.428,-357.863 895.291,-350.795 881.247,-346.403"/>
<polygon fill="none" stroke="black" points="881.977,-342.975 871.412,-343.773 880.168,-349.738 881.977,-342.975"/>
</g>
<!-- \\AuthorizationKeysAppController -->
<g id="node56" class="node"><title>\\AuthorizationKeysAppController</title>
<polygon fill="none" stroke="black" points="909,-2788 691,-2788 691,-2752 909,-2752 909,-2788"/>
<text text-anchor="middle" x="800" y="-2767.1" font-family="Courier,monospace" font-size="11.00">AuthorizationKeysAppController</text>
</g>
<!-- \\AuthorizationKeysAppController&#45;&gt;\\AppController -->
<g id="edge99" class="edge"><title>\\AuthorizationKeysAppController&#45;&gt;\\AppController</title>
<path fill="none" stroke="black" d="M692.121,-2751.85C688.482,-2749.24 685.084,-2746.3 682,-2743 526.028,-2576 505.85,-1797.9 503.343,-1638.56"/>
<polygon fill="none" stroke="black" points="506.837,-1638.12 503.192,-1628.17 499.838,-1638.22 506.837,-1638.12"/>
</g>
<!-- \\AuthorizationKeysController -->
<g id="node57" class="node"><title>\\AuthorizationKeysController</title>
<polygon fill="none" stroke="black" points="1192,-2788 994,-2788 994,-2752 1192,-2752 1192,-2788"/>
<text text-anchor="middle" x="1093" y="-2767.1" font-family="Courier,monospace" font-size="11.00">AuthorizationKeysController</text>
</g>
<!-- \\AuthorizationKeysController&#45;&gt;\\AuthorizationKeysAppController -->
<g id="edge101" class="edge"><title>\\AuthorizationKeysController&#45;&gt;\\AuthorizationKeysAppController</title>
<path fill="none" stroke="black" d="M993.395,-2770C969.7,-2770 944.177,-2770 919.688,-2770"/>
<polygon fill="none" stroke="black" points="919.632,-2766.5 909.632,-2770 919.632,-2773.5 919.632,-2766.5"/>
</g>
<!-- \\AuthKeyPopupButtonHelper -->
<g id="node58" class="node"><title>\\AuthKeyPopupButtonHelper</title>
<polygon fill="none" stroke="black" points="1182,-2626 1004,-2626 1004,-2590 1182,-2590 1182,-2626"/>
<text text-anchor="middle" x="1093" y="-2605.1" font-family="Courier,monospace" font-size="11.00">AuthKeyPopupButtonHelper</text>
</g>
<!-- \\AuthKeyPopupButtonHelper&#45;&gt;\\AppHelper -->
<g id="edge103" class="edge"><title>\\AuthKeyPopupButtonHelper&#45;&gt;\\AppHelper</title>
<path fill="none" stroke="black" d="M1003.32,-2590.95C998.52,-2588.11 994.024,-2584.82 990,-2581 903.879,-2499.34 825.926,-2121.95 805.305,-2015.2"/>
<polygon fill="none" stroke="black" points="808.705,-2014.35 803.386,-2005.18 801.83,-2015.66 808.705,-2014.35"/>
</g>
<!-- \\AuthorizationKeysAppModel -->
<g id="node59" class="node"><title>\\AuthorizationKeysAppModel</title>
<polygon fill="none" stroke="black" points="892,-3004 708,-3004 708,-2968 892,-2968 892,-3004"/>
<text text-anchor="middle" x="800" y="-2983.1" font-family="Courier,monospace" font-size="11.00">AuthorizationKeysAppModel</text>
</g>
<!-- \\AuthorizationKeysAppModel&#45;&gt;\\AppModel -->
<g id="edge105" class="edge"><title>\\AuthorizationKeysAppModel&#45;&gt;\\AppModel</title>
<path fill="none" stroke="black" d="M707.249,-2994.43C654.529,-2999.22 590.843,-3005.01 548.755,-3008.84"/>
<polygon fill="none" stroke="black" points="548.181,-3005.38 538.539,-3009.77 548.815,-3012.35 548.181,-3005.38"/>
</g>
<!-- \\AuthorizationKeyBehavior -->
<g id="node60" class="node"><title>\\AuthorizationKeyBehavior</title>
<polygon fill="none" stroke="black" points="1182,-844 1004,-844 1004,-808 1182,-808 1182,-844"/>
<text text-anchor="middle" x="1093" y="-823.1" font-family="Courier,monospace" font-size="11.00">AuthorizationKeyBehavior</text>
</g>
<!-- \\AuthorizationKeyBehavior&#45;&gt;\\ModelBehavior -->
<g id="edge107" class="edge"><title>\\AuthorizationKeyBehavior&#45;&gt;\\ModelBehavior</title>
<path fill="none" stroke="black" d="M1003.36,-810.395C998.418,-807.22 993.891,-803.456 990,-799 815.683,-599.337 1095.43,-403.899 918,-207 910.964,-199.192 902.172,-193.404 892.581,-189.145"/>
<polygon fill="none" stroke="black" points="893.76,-185.848 883.171,-185.514 891.24,-192.379 893.76,-185.848"/>
</g>
<!-- \\AuthorizationKey -->
<g id="node61" class="node"><title>\\AuthorizationKey</title>
<polygon fill="none" stroke="black" points="1155,-3058 1031,-3058 1031,-3022 1155,-3022 1155,-3058"/>
<text text-anchor="middle" x="1093" y="-3037.1" font-family="Courier,monospace" font-size="11.00">AuthorizationKey</text>
</g>
<!-- \\AuthorizationKey&#45;&gt;\\AuthorizationKeysAppModel -->
<g id="edge109" class="edge"><title>\\AuthorizationKey&#45;&gt;\\AuthorizationKeysAppModel</title>
<path fill="none" stroke="black" d="M1030.14,-3028.42C992.938,-3021.56 944.908,-3012.71 902.358,-3004.86"/>
<polygon fill="none" stroke="black" points="902.991,-3001.42 892.522,-3003.05 901.722,-3008.31 902.991,-3001.42"/>
</g>
<!-- \\AuthorizationKeysSchema -->
<g id="node62" class="node"><title>\\AuthorizationKeysSchema</title>
<polygon fill="none" stroke="black" points="1179,-466 1007,-466 1007,-430 1179,-430 1179,-466"/>
<text text-anchor="middle" x="1093" y="-445.1" font-family="Courier,monospace" font-size="11.00">AuthorizationKeysSchema</text>
</g>
<!-- \\CakeSchema -->
<g id="node132" class="node"><title>\\CakeSchema</title>
<ellipse fill="none" stroke="black" cx="800" cy="-18" rx="77.0746" ry="18.3848"/>
<text text-anchor="middle" x="800" y="-14.4" font-family="Times Roman,serif" font-size="14.00" fill="gray">\CakeSchema</text>
</g>
<!-- \\AuthorizationKeysSchema&#45;&gt;\\CakeSchema -->
<g id="edge111" class="edge"><title>\\AuthorizationKeysSchema&#45;&gt;\\CakeSchema</title>
<path fill="none" stroke="black" d="M1090.86,-429.713C1082.37,-365.789 1045.04,-150.503 918,-45 907.886,-36.6012 895.67,-30.6949 882.982,-26.5644"/>
<polygon fill="none" stroke="black" points="883.793,-23.1556 873.214,-23.74 881.848,-29.8801 883.793,-23.1556"/>
</g>
<!-- \\Init -->
<g id="node63" class="node"><title>\\Init</title>
<polygon fill="none" stroke="black" points="1120,-520 1066,-520 1066,-484 1120,-484 1120,-520"/>
<text text-anchor="middle" x="1093" y="-499.1" font-family="Courier,monospace" font-size="11.00">Init</text>
</g>
<!-- \\Init&#45;&gt;\\CakeMigration -->
<g id="edge113" class="edge"><title>\\Init&#45;&gt;\\CakeMigration</title>
<path fill="none" stroke="black" d="M1065.78,-502.438C1042.33,-501.269 1009.32,-495.66 990,-475 873.795,-350.716 1036.14,-221.443 918,-99 910.347,-91.0685 900.877,-85.2535 890.656,-81.0209"/>
<polygon fill="none" stroke="black" points="891.684,-77.6706 881.089,-77.5632 889.304,-84.2538 891.684,-77.6706"/>
</g>
<!-- \\AddedAdditionalId -->
<g id="node64" class="node"><title>\\AddedAdditionalId</title>
<polygon fill="none" stroke="black" points="1158,-628 1028,-628 1028,-592 1158,-592 1158,-628"/>
<text text-anchor="middle" x="1093" y="-607.1" font-family="Courier,monospace" font-size="11.00">AddedAdditionalId</text>
</g>
<!-- \\AddedAdditionalId&#45;&gt;\\CakeMigration -->
<g id="edge115" class="edge"><title>\\AddedAdditionalId&#45;&gt;\\CakeMigration</title>
<path fill="none" stroke="black" d="M1027.36,-604.719C1013.29,-600.606 999.75,-593.872 990,-583 844.8,-421.094 1065.73,-258.605 918,-99 910.513,-90.9113 901.142,-85.0036 890.972,-80.7228"/>
<polygon fill="none" stroke="black" points="892.033,-77.384 881.439,-77.2329 889.626,-83.9574 892.033,-77.384"/>
</g>
</g>
</svg>
