<?xml version="1.0" encoding="UTF-8" standalone="no"?>
<!DOCTYPE svg PUBLIC "-//W3C//DTD SVG 1.1//EN"
 "http://www.w3.org/Graphics/SVG/1.1/DTD/svg11.dtd">
<!-- Generated by graphviz version 2.26.3 (20100126.1600)
 -->
<!-- Title: G Pages: 1 -->
<svg width="1220pt" height="3050pt"
 viewBox="0.00 0.00 1220.00 3050.00" xmlns="http://www.w3.org/2000/svg" xmlns:xlink="http://www.w3.org/1999/xlink">
<g id="graph1" class="graph" transform="scale(1 1) rotate(0) translate(4 3046)">
<title>G</title>
<polygon fill="white" stroke="white" points="-4,5 -4,-3046 1217,-3046 1217,5 -4,5"/>
<g id="graph2" class="cluster"><title>cluster_Global</title>
<polyline fill="none" stroke="gray" points="177,-422 1192,-422 "/>
<path fill="none" stroke="gray" d="M1192,-422C1198,-422 1204,-428 1204,-434"/>
<polyline fill="none" stroke="gray" points="1204,-434 1204,-3022 "/>
<path fill="none" stroke="gray" d="M1204,-3022C1204,-3028 1198,-3034 1192,-3034"/>
<polyline fill="none" stroke="gray" points="1192,-3034 177,-3034 "/>
<path fill="none" stroke="gray" d="M177,-3034C171,-3034 165,-3028 165,-3022"/>
<polyline fill="none" stroke="gray" points="165,-3022 165,-434 "/>
<path fill="none" stroke="gray" d="M165,-434C165,-428 171,-422 177,-422"/>
<text text-anchor="middle" x="684.5" y="-3020.1" font-family="Times Roman,serif" font-size="11.00" fill="gray">Global</text>
</g>
<!-- \\AppController -->
<g id="node2" class="node"><title>\\AppController</title>
<polygon fill="none" stroke="black" points="1145,-1438 1041,-1438 1041,-1402 1145,-1402 1145,-1438"/>
<text text-anchor="middle" x="1093" y="-1417.1" font-family="Courier,monospace" font-size="11.00">AppController</text>
</g>
<!-- \\Controller -->
<g id="node63" class="node"><title>\\Controller</title>
<ellipse fill="none" stroke="black" cx="503" cy="-288" rx="63.1385" ry="18.3848"/>
<text text-anchor="middle" x="503" y="-284.4" font-family="Times Roman,serif" font-size="14.00" fill="gray">\Controller</text>
</g>
<!-- \\AppController&#45;&gt;\\Controller -->
<g id="edge3" class="edge"><title>\\AppController&#45;&gt;\\Controller</title>
<path fill="none" stroke="black" d="M1040.82,-1416.25C1022.85,-1412.58 1003.8,-1405.71 990,-1393 978.321,-1382.25 621.728,-325.699 610,-315 600.018,-305.894 587.416,-299.756 574.394,-295.642"/>
<polygon fill="none" stroke="black" points="574.962,-292.168 564.391,-292.875 573.096,-298.914 574.962,-292.168"/>
</g>
<!-- \\AppModel -->
<g id="node3" class="node"><title>\\AppModel</title>
<polygon fill="none" stroke="black" points="538,-2950 468,-2950 468,-2914 538,-2914 538,-2950"/>
<text text-anchor="middle" x="503" y="-2929.1" font-family="Courier,monospace" font-size="11.00">AppModel</text>
</g>
<!-- \\NetCommonsAppModel -->
<g id="node48" class="node"><title>\\NetCommonsAppModel</title>
<polygon fill="none" stroke="black" points="311,-2950 173,-2950 173,-2914 311,-2914 311,-2950"/>
<text text-anchor="middle" x="242" y="-2929.1" font-family="Courier,monospace" font-size="11.00">NetCommonsAppModel</text>
</g>
<!-- \\AppModel&#45;&gt;\\NetCommonsAppModel -->
<g id="edge5" class="edge"><title>\\AppModel&#45;&gt;\\NetCommonsAppModel</title>
<path fill="none" stroke="black" d="M467.256,-2932C429.848,-2932 369.903,-2932 321.254,-2932"/>
<polygon fill="none" stroke="black" points="321.056,-2928.5 311.056,-2932 321.056,-2935.5 321.056,-2928.5"/>
</g>
<!-- \\DatabaseConfiguration -->
<g id="node4" class="node"><title>\\DatabaseConfiguration</title>
<polygon fill="none" stroke="black" points="879,-2923 721,-2923 721,-2887 879,-2887 879,-2923"/>
<text text-anchor="middle" x="800" y="-2902.1" font-family="Courier,monospace" font-size="11.00">DatabaseConfiguration</text>
</g>
<!-- \\DatabaseConfiguration&#45;&gt;\\AppModel -->
<g id="edge7" class="edge"><title>\\DatabaseConfiguration&#45;&gt;\\AppModel</title>
<path fill="none" stroke="black" d="M720.8,-2912.2C665.959,-2917.19 594.863,-2923.65 549.084,-2927.81"/>
<polygon fill="none" stroke="black" points="548.509,-2924.35 538.867,-2928.74 549.143,-2931.32 548.509,-2924.35"/>
</g>
<!-- \\AppHelper -->
<g id="node5" class="node"><title>\\AppHelper</title>
<polygon fill="none" stroke="black" points="838,-2005 762,-2005 762,-1969 838,-1969 838,-2005"/>
<text text-anchor="middle" x="800" y="-1984.1" font-family="Courier,monospace" font-size="11.00">AppHelper</text>
</g>
<!-- \\Helper -->
<g id="node67" class="node"><title>\\Helper</title>
<ellipse fill="none" stroke="black" cx="503" cy="-396" rx="43.8406" ry="18.3848"/>
<text text-anchor="middle" x="503" y="-392.4" font-family="Times Roman,serif" font-size="14.00" fill="gray">Helper</text>
</g>
<!-- \\AppHelper&#45;&gt;\\Helper -->
<g id="edge9" class="edge"><title>\\AppHelper&#45;&gt;\\Helper</title>
<path fill="none" stroke="black" d="M792.618,-1968.91C771.067,-1915.17 708.119,-1751.34 682,-1609 658.072,-1478.6 696.838,-518.176 610,-418 596.883,-402.868 576.382,-396.476 556.821,-394.189"/>
<polygon fill="none" stroke="black" points="556.978,-390.69 546.721,-393.342 556.394,-397.665 556.978,-390.69"/>
</g>
<!-- \\NetCommonsDeleteTest -->
<g id="node6" class="node"><title>\\NetCommonsDeleteTest</title>
<polygon fill="none" stroke="black" points="1169,-2788 1017,-2788 1017,-2752 1169,-2752 1169,-2788"/>
<text text-anchor="middle" x="1093" y="-2767.1" font-family="Courier,monospace" font-size="11.00">NetCommonsDeleteTest</text>
</g>
<!-- \\NetCommonsModelTestCase -->
<g id="node15" class="node"><title>\\NetCommonsModelTestCase</title>
<polygon fill="none" stroke="black" points="886,-2788 714,-2788 714,-2752 886,-2752 886,-2788"/>
<text text-anchor="middle" x="800" y="-2767.1" font-family="Courier,monospace" font-size="11.00">NetCommonsModelTestCase</text>
</g>
<!-- \\NetCommonsDeleteTest&#45;&gt;\\NetCommonsModelTestCase -->
<g id="edge11" class="edge"><title>\\NetCommonsDeleteTest&#45;&gt;\\NetCommonsModelTestCase</title>
<path fill="none" stroke="black" d="M1016.78,-2770C980.049,-2770 935.59,-2770 896.519,-2770"/>
<polygon fill="none" stroke="black" points="896.183,-2766.5 886.183,-2770 896.183,-2773.5 896.183,-2766.5"/>
</g>
<!-- \\NetCommonsConsoleTestCase -->
<g id="node7" class="node"><title>\\NetCommonsConsoleTestCase</title>
<polygon fill="none" stroke="black" points="892,-2410 708,-2410 708,-2374 892,-2374 892,-2410"/>
<text text-anchor="middle" x="800" y="-2389.1" font-family="Courier,monospace" font-size="11.00">NetCommonsConsoleTestCase</text>
</g>
<!-- \\NetCommonsCakeTestCase -->
<g id="node13" class="node"><title>\\NetCommonsCakeTestCase</title>
<polygon fill="none" stroke="black" points="585,-2383 421,-2383 421,-2347 585,-2347 585,-2383"/>
<text text-anchor="middle" x="503" y="-2362.1" font-family="Courier,monospace" font-size="11.00">NetCommonsCakeTestCase</text>
</g>
<!-- \\NetCommonsConsoleTestCase&#45;&gt;\\NetCommonsCakeTestCase -->
<g id="edge13" class="edge"><title>\\NetCommonsConsoleTestCase&#45;&gt;\\NetCommonsCakeTestCase</title>
<path fill="none" stroke="black" d="M707.249,-2383.57C671.93,-2380.36 631.688,-2376.7 596.316,-2373.48"/>
<polygon fill="none" stroke="black" points="596.269,-2369.96 585.993,-2372.54 595.635,-2376.94 596.269,-2369.96"/>
</g>
<!-- \\NetCommonsGetTest -->
<g id="node8" class="node"><title>\\NetCommonsGetTest</title>
<polygon fill="none" stroke="black" points="1158,-2734 1028,-2734 1028,-2698 1158,-2698 1158,-2734"/>
<text text-anchor="middle" x="1093" y="-2713.1" font-family="Courier,monospace" font-size="11.00">NetCommonsGetTest</text>
</g>
<!-- \\NetCommonsGetTest&#45;&gt;\\NetCommonsModelTestCase -->
<g id="edge15" class="edge"><title>\\NetCommonsGetTest&#45;&gt;\\NetCommonsModelTestCase</title>
<path fill="none" stroke="black" d="M1027.25,-2728.12C988.582,-2735.24 939.008,-2744.38 896.034,-2752.3"/>
<polygon fill="none" stroke="black" points="895.32,-2748.87 886.12,-2754.13 896.588,-2755.76 895.32,-2748.87"/>
</g>
<!-- \\NetCommonsHelperTestCase -->
<g id="node9" class="node"><title>\\NetCommonsHelperTestCase</title>
<polygon fill="none" stroke="black" points="889,-2356 711,-2356 711,-2320 889,-2320 889,-2356"/>
<text text-anchor="middle" x="800" y="-2335.1" font-family="Courier,monospace" font-size="11.00">NetCommonsHelperTestCase</text>
</g>
<!-- \\NetCommonsHelperTestCase&#45;&gt;\\NetCommonsCakeTestCase -->
<g id="edge17" class="edge"><title>\\NetCommonsHelperTestCase&#45;&gt;\\NetCommonsCakeTestCase</title>
<path fill="none" stroke="black" d="M710.487,-2346.14C674.267,-2349.43 632.456,-2353.23 595.9,-2356.55"/>
<polygon fill="none" stroke="black" points="595.379,-2353.09 585.737,-2357.48 596.013,-2360.06 595.379,-2353.09"/>
</g>
<!-- \\NetCommonsControllerBaseTestCase -->
<g id="node10" class="node"><title>\\NetCommonsControllerBaseTestCase</title>
<polygon fill="none" stroke="black" points="916,-1546 684,-1546 684,-1510 916,-1510 916,-1546"/>
<text text-anchor="middle" x="800" y="-1525.1" font-family="Courier,monospace" font-size="11.00">NetCommonsControllerBaseTestCase</text>
</g>
<!-- \\ControllerTestCase -->
<g id="node73" class="node"><title>\\ControllerTestCase</title>
<ellipse fill="none" stroke="black" cx="503" cy="-342" rx="106.773" ry="18.3848"/>
<text text-anchor="middle" x="503" y="-338.4" font-family="Times Roman,serif" font-size="14.00" fill="gray">\ControllerTestCase</text>
</g>
<!-- \\NetCommonsControllerBaseTestCase&#45;&gt;\\ControllerTestCase -->
<g id="edge19" class="edge"><title>\\NetCommonsControllerBaseTestCase&#45;&gt;\\ControllerTestCase</title>
<path fill="none" stroke="black" d="M789.662,-1509.73C765.844,-1466.63 707.219,-1354.6 682,-1253 634.519,-1061.71 737.34,-519.436 610,-369 606.364,-364.704 602.153,-361.039 597.548,-357.916"/>
<polygon fill="none" stroke="black" points="599.274,-354.871 588.872,-352.861 595.75,-360.919 599.274,-354.871"/>
</g>
<!-- \\NetCommonsValidateTest -->
<g id="node11" class="node"><title>\\NetCommonsValidateTest</title>
<polygon fill="none" stroke="black" points="1175,-2896 1011,-2896 1011,-2860 1175,-2860 1175,-2896"/>
<text text-anchor="middle" x="1093" y="-2875.1" font-family="Courier,monospace" font-size="11.00">NetCommonsValidateTest</text>
</g>
<!-- \\NetCommonsValidateTest&#45;&gt;\\NetCommonsModelTestCase -->
<g id="edge21" class="edge"><title>\\NetCommonsValidateTest&#45;&gt;\\NetCommonsModelTestCase</title>
<path fill="none" stroke="black" d="M1018.9,-2859.98C1009.12,-2857.19 999.27,-2854.17 990,-2851 940.27,-2833.98 885.199,-2809.9 847.206,-2792.42"/>
<polygon fill="none" stroke="black" points="848.474,-2789.15 837.929,-2788.12 845.534,-2795.5 848.474,-2789.15"/>
</g>
<!-- \\NetCommonsTestSuite -->
<g id="node12" class="node"><title>\\NetCommonsTestSuite</title>
<polygon fill="none" stroke="black" points="1165,-1384 1021,-1384 1021,-1348 1165,-1348 1165,-1384"/>
<text text-anchor="middle" x="1093" y="-1363.1" font-family="Courier,monospace" font-size="11.00">NetCommonsTestSuite</text>
</g>
<!-- \\CakeTestSuite -->
<g id="node76" class="node"><title>\\CakeTestSuite</title>
<ellipse fill="none" stroke="black" cx="800" cy="-396" rx="84.1457" ry="18.3848"/>
<text text-anchor="middle" x="800" y="-392.4" font-family="Times Roman,serif" font-size="14.00" fill="gray">\CakeTestSuite</text>
</g>
<!-- \\NetCommonsTestSuite&#45;&gt;\\CakeTestSuite -->
<g id="edge23" class="edge"><title>\\NetCommonsTestSuite&#45;&gt;\\CakeTestSuite</title>
<path fill="none" stroke="black" d="M1020.46,-1359.12C1008.78,-1354.88 997.943,-1348.5 990,-1339 858.342,-1181.49 1055.25,-570.67 918,-418 911.208,-410.445 902.724,-404.97 893.438,-401.056"/>
<polygon fill="none" stroke="black" points="894.513,-397.723 883.919,-397.643 892.151,-404.312 894.513,-397.723"/>
</g>
<!-- \\CakeTestCase -->
<g id="node78" class="node"><title>\\CakeTestCase</title>
<ellipse fill="none" stroke="black" cx="242" cy="-396" rx="82.0244" ry="18.3848"/>
<text text-anchor="middle" x="242" y="-392.4" font-family="Times Roman,serif" font-size="14.00" fill="gray">\CakeTestCase</text>
</g>
<!-- \\NetCommonsCakeTestCase&#45;&gt;\\CakeTestCase -->
<g id="edge25" class="edge"><title>\\NetCommonsCakeTestCase&#45;&gt;\\CakeTestCase</title>
<path fill="none" stroke="black" d="M420.375,-2360.01C411.047,-2356.21 402.557,-2350.74 396,-2343 257.671,-2179.67 457.423,-585.364 324,-418 322.312,-415.882 320.443,-413.955 318.429,-412.202"/>
<polygon fill="none" stroke="black" points="320.203,-409.17 310.013,-406.27 316.17,-414.892 320.203,-409.17"/>
</g>
<!-- \\NetCommonsSaveTest -->
<g id="node14" class="node"><title>\\NetCommonsSaveTest</title>
<polygon fill="none" stroke="black" points="1162,-2842 1024,-2842 1024,-2806 1162,-2806 1162,-2842"/>
<text text-anchor="middle" x="1093" y="-2821.1" font-family="Courier,monospace" font-size="11.00">NetCommonsSaveTest</text>
</g>
<!-- \\NetCommonsSaveTest&#45;&gt;\\NetCommonsModelTestCase -->
<g id="edge27" class="edge"><title>\\NetCommonsSaveTest&#45;&gt;\\NetCommonsModelTestCase</title>
<path fill="none" stroke="black" d="M1023.93,-2811.27C985.795,-2804.24 937.829,-2795.4 896.084,-2787.71"/>
<polygon fill="none" stroke="black" points="896.641,-2784.25 886.172,-2785.88 895.372,-2791.14 896.641,-2784.25"/>
</g>
<!-- \\NetCommonsModelTestCase&#45;&gt;\\NetCommonsCakeTestCase -->
<g id="edge29" class="edge"><title>\\NetCommonsModelTestCase&#45;&gt;\\NetCommonsCakeTestCase</title>
<path fill="none" stroke="black" d="M786.662,-2751.81C739.166,-2687.05 578.146,-2467.47 522.28,-2391.29"/>
<polygon fill="none" stroke="black" points="525.038,-2389.13 516.302,-2383.14 519.393,-2393.27 525.038,-2389.13"/>
</g>
<!-- \\NetCommonsControllerTestCase -->
<g id="node16" class="node"><title>\\NetCommonsControllerTestCase</title>
<polygon fill="none" stroke="black" points="1196,-1546 990,-1546 990,-1510 1196,-1510 1196,-1546"/>
<text text-anchor="middle" x="1093" y="-1525.1" font-family="Courier,monospace" font-size="11.00">NetCommonsControllerTestCase</text>
</g>
<!-- \\NetCommonsControllerTestCase&#45;&gt;\\NetCommonsControllerBaseTestCase -->
<g id="edge31" class="edge"><title>\\NetCommonsControllerTestCase&#45;&gt;\\NetCommonsControllerBaseTestCase</title>
<path fill="none" stroke="black" d="M989.699,-1528C969.381,-1528 947.845,-1528 926.858,-1528"/>
<polygon fill="none" stroke="black" points="926.606,-1524.5 916.606,-1528 926.606,-1531.5 926.606,-1524.5"/>
</g>
<!-- \\NetCommonsAppController -->
<g id="node17" class="node"><title>\\NetCommonsAppController</title>
<polygon fill="none" stroke="black" points="886,-1244 714,-1244 714,-1208 886,-1208 886,-1244"/>
<text text-anchor="middle" x="800" y="-1223.1" font-family="Courier,monospace" font-size="11.00">NetCommonsAppController</text>
</g>
<!-- \\NetCommonsAppController&#45;&gt;\\Controller -->
<g id="edge33" class="edge"><title>\\NetCommonsAppController&#45;&gt;\\Controller</title>
<path fill="none" stroke="black" d="M713.722,-1223.59C701.667,-1219.63 690.512,-1213.44 682,-1204 549.288,-1056.79 738.021,-466.31 610,-315 601.088,-304.466 588.721,-297.723 575.55,-293.47"/>
<polygon fill="none" stroke="black" points="576.425,-290.081 565.855,-290.795 574.564,-296.829 576.425,-290.081"/>
</g>
<!-- \\AssetComponent -->
<g id="node18" class="node"><title>\\AssetComponent</title>
<polygon fill="none" stroke="black" points="1148,-1330 1038,-1330 1038,-1294 1148,-1294 1148,-1330"/>
<text text-anchor="middle" x="1093" y="-1309.1" font-family="Courier,monospace" font-size="11.00">AssetComponent</text>
</g>
<!-- \\Component -->
<g id="node84" class="node"><title>\\Component</title>
<ellipse fill="none" stroke="black" cx="800" cy="-342" rx="70.9184" ry="18.3848"/>
<text text-anchor="middle" x="800" y="-338.4" font-family="Times Roman,serif" font-size="14.00" fill="gray">\Component</text>
</g>
<!-- \\AssetComponent&#45;&gt;\\Component -->
<g id="edge35" class="edge"><title>\\AssetComponent&#45;&gt;\\Component</title>
<path fill="none" stroke="black" d="M1037.28,-1309.78C1019.62,-1306.19 1001.68,-1298.97 990,-1285 859.019,-1128.36 1051.43,-523.559 918,-369 908.404,-357.884 895.256,-350.825 881.208,-346.436"/>
<polygon fill="none" stroke="black" points="881.937,-343.008 871.373,-343.807 880.13,-349.771 881.937,-343.008"/>
</g>
<!-- \\NetCommonsTimeComponent -->
<g id="node19" class="node"><title>\\NetCommonsTimeComponent</title>
<polygon fill="none" stroke="black" points="1179,-1276 1007,-1276 1007,-1240 1179,-1240 1179,-1276"/>
<text text-anchor="middle" x="1093" y="-1255.1" font-family="Courier,monospace" font-size="11.00">NetCommonsTimeComponent</text>
</g>
<!-- \\NetCommonsTimeComponent&#45;&gt;\\Component -->
<g id="edge37" class="edge"><title>\\NetCommonsTimeComponent&#45;&gt;\\Component</title>
<path fill="none" stroke="black" d="M1006.92,-1244.86C1000.54,-1241.21 994.757,-1236.66 990,-1231 866.331,-1083.84 1043.97,-514.197 918,-369 908.377,-357.908 895.216,-350.859 881.165,-346.473"/>
<polygon fill="none" stroke="black" points="881.893,-343.045 871.328,-343.845 880.086,-349.808 881.893,-343.045"/>
</g>
<!-- \\PermissionComponent -->
<g id="node20" class="node"><title>\\PermissionComponent</title>
<polygon fill="none" stroke="black" points="1165,-1222 1021,-1222 1021,-1186 1165,-1186 1165,-1222"/>
<text text-anchor="middle" x="1093" y="-1201.1" font-family="Courier,monospace" font-size="11.00">PermissionComponent</text>
</g>
<!-- \\PermissionComponent&#45;&gt;\\Component -->
<g id="edge39" class="edge"><title>\\PermissionComponent&#45;&gt;\\Component</title>
<path fill="none" stroke="black" d="M1020.28,-1196.95C1008.7,-1192.72 997.935,-1186.39 990,-1177 873.641,-1039.32 1036.51,-504.839 918,-369 908.346,-357.935 895.171,-350.898 881.117,-346.516"/>
<polygon fill="none" stroke="black" points="881.843,-343.087 871.278,-343.889 880.037,-349.85 881.843,-343.087"/>
</g>
<!-- \\NetCommonsComponent -->
<g id="node21" class="node"><title>\\NetCommonsComponent</title>
<polygon fill="none" stroke="black" points="1165,-1168 1021,-1168 1021,-1132 1165,-1132 1165,-1168"/>
<text text-anchor="middle" x="1093" y="-1147.1" font-family="Courier,monospace" font-size="11.00">NetCommonsComponent</text>
</g>
<!-- \\NetCommonsComponent&#45;&gt;\\Component -->
<g id="edge41" class="edge"><title>\\NetCommonsComponent&#45;&gt;\\Component</title>
<path fill="none" stroke="black" d="M1020.33,-1142.91C1008.74,-1138.69 997.965,-1132.36 990,-1123 880.948,-994.787 1029.05,-495.484 918,-369 908.311,-357.965 895.121,-350.943 881.061,-346.564"/>
<polygon fill="none" stroke="black" points="881.786,-343.135 871.222,-343.939 879.981,-349.899 881.786,-343.135"/>
</g>
<!-- \\NetCommonsController -->
<g id="node22" class="node"><title>\\NetCommonsController</title>
<polygon fill="none" stroke="black" points="1169,-1492 1017,-1492 1017,-1456 1169,-1456 1169,-1492"/>
<text text-anchor="middle" x="1093" y="-1471.1" font-family="Courier,monospace" font-size="11.00">NetCommonsController</text>
</g>
<!-- \\NetCommonsController&#45;&gt;\\NetCommonsAppController -->
<g id="edge43" class="edge"><title>\\NetCommonsController&#45;&gt;\\NetCommonsAppController</title>
<path fill="none" stroke="black" d="M1016.82,-1459.69C1007.42,-1456.31 998.23,-1452.14 990,-1447 908.741,-1396.22 843.731,-1299.63 815.397,-1252.8"/>
<polygon fill="none" stroke="black" points="818.352,-1250.92 810.225,-1244.12 812.34,-1254.5 818.352,-1250.92"/>
</g>
<!-- \\NetCommonsUrl -->
<g id="node23" class="node"><title>\\NetCommonsUrl</title>
<polygon fill="none" stroke="black" points="1145,-2356 1041,-2356 1041,-2320 1145,-2320 1145,-2356"/>
<text text-anchor="middle" x="1093" y="-2335.1" font-family="Courier,monospace" font-size="11.00">NetCommonsUrl</text>
</g>
<!-- \\NetCommonsTime -->
<g id="node24" class="node"><title>\\NetCommonsTime</title>
<polygon fill="none" stroke="black" points="1148,-2302 1038,-2302 1038,-2266 1148,-2266 1148,-2302"/>
<text text-anchor="middle" x="1093" y="-2281.1" font-family="Courier,monospace" font-size="11.00">NetCommonsTime</text>
</g>
<!-- \\CurrentBase -->
<g id="node25" class="node"><title>\\CurrentBase</title>
<polygon fill="none" stroke="black" points="845,-1600 755,-1600 755,-1564 845,-1564 845,-1600"/>
<text text-anchor="middle" x="800" y="-1579.1" font-family="Courier,monospace" font-size="11.00">CurrentBase</text>
</g>
<!-- \\Current -->
<g id="node26" class="node"><title>\\Current</title>
<polygon fill="none" stroke="black" points="1125,-1600 1061,-1600 1061,-1564 1125,-1564 1125,-1600"/>
<text text-anchor="middle" x="1093" y="-1579.1" font-family="Courier,monospace" font-size="11.00">Current</text>
</g>
<!-- \\Current&#45;&gt;\\CurrentBase -->
<g id="edge45" class="edge"><title>\\Current&#45;&gt;\\CurrentBase</title>
<path fill="none" stroke="black" d="M1060.81,-1582C1011.48,-1582 916.554,-1582 855.846,-1582"/>
<polygon fill="none" stroke="black" points="855.669,-1578.5 845.669,-1582 855.669,-1585.5 855.669,-1578.5"/>
</g>
<!-- \\CurrentSystem -->
<g id="node27" class="node"><title>\\CurrentSystem</title>
<polygon fill="none" stroke="black" points="1145,-2194 1041,-2194 1041,-2158 1145,-2158 1145,-2194"/>
<text text-anchor="middle" x="1093" y="-2173.1" font-family="Courier,monospace" font-size="11.00">CurrentSystem</text>
</g>
<!-- \\CurrentPage -->
<g id="node28" class="node"><title>\\CurrentPage</title>
<polygon fill="none" stroke="black" points="1138,-2140 1048,-2140 1048,-2104 1138,-2104 1138,-2140"/>
<text text-anchor="middle" x="1093" y="-2119.1" font-family="Courier,monospace" font-size="11.00">CurrentPage</text>
</g>
<!-- \\CurrentFrame -->
<g id="node29" class="node"><title>\\CurrentFrame</title>
<polygon fill="none" stroke="black" points="1142,-2086 1044,-2086 1044,-2050 1142,-2050 1142,-2086"/>
<text text-anchor="middle" x="1093" y="-2065.1" font-family="Courier,monospace" font-size="11.00">CurrentFrame</text>
</g>
<!-- \\TokenHelper -->
<g id="node30" class="node"><title>\\TokenHelper</title>
<polygon fill="none" stroke="black" points="1138,-1006 1048,-1006 1048,-970 1138,-970 1138,-1006"/>
<text text-anchor="middle" x="1093" y="-985.1" font-family="Courier,monospace" font-size="11.00">TokenHelper</text>
</g>
<!-- \\FormHelper -->
<g id="node91" class="node"><title>\\FormHelper</title>
<ellipse fill="none" stroke="black" cx="800" cy="-288" rx="70.9184" ry="18.3848"/>
<text text-anchor="middle" x="800" y="-284.4" font-family="Times Roman,serif" font-size="14.00" fill="gray">\FormHelper</text>
</g>
<!-- \\TokenHelper&#45;&gt;\\FormHelper -->
<g id="edge47" class="edge"><title>\\TokenHelper&#45;&gt;\\FormHelper</title>
<path fill="none" stroke="black" d="M1047.39,-987.237C1026.87,-984.41 1004.14,-977.364 990,-961 801.099,-742.429 1110.31,-530.576 918,-315 908.225,-304.042 894.994,-297.054 880.924,-292.686"/>
<polygon fill="none" stroke="black" points="881.644,-289.256 871.08,-290.064 879.842,-296.02 881.644,-289.256"/>
</g>
<!-- \\SingletonViewBlockHtmlHelper -->
<g id="node31" class="node"><title>\\SingletonViewBlockHtmlHelper</title>
<polygon fill="none" stroke="black" points="1196,-844 990,-844 990,-808 1196,-808 1196,-844"/>
<text text-anchor="middle" x="1093" y="-823.1" font-family="Courier,monospace" font-size="11.00">SingletonViewBlockHtmlHelper</text>
</g>
<!-- \\HtmlHelper -->
<g id="node93" class="node"><title>\\HtmlHelper</title>
<ellipse fill="none" stroke="black" cx="800" cy="-234" rx="67.1751" ry="18.3848"/>
<text text-anchor="middle" x="800" y="-230.4" font-family="Times Roman,serif" font-size="14.00" fill="gray">HtmlHelper</text>
</g>
<!-- \\SingletonViewBlockHtmlHelper&#45;&gt;\\HtmlHelper -->
<g id="edge49" class="edge"><title>\\SingletonViewBlockHtmlHelper&#45;&gt;\\HtmlHelper</title>
<path fill="none" stroke="black" d="M999.785,-807.859C996.23,-805.263 992.938,-802.325 990,-799 830.252,-618.227 1080.57,-439.24 918,-261 907.152,-249.106 892.23,-241.912 876.645,-237.671"/>
<polygon fill="none" stroke="black" points="877.419,-234.258 866.885,-235.397 875.83,-241.075 877.419,-234.258"/>
</g>
<!-- \\FormInputHelper -->
<g id="node32" class="node"><title>\\FormInputHelper</title>
<polygon fill="none" stroke="black" points="1152,-2626 1034,-2626 1034,-2590 1152,-2590 1152,-2626"/>
<text text-anchor="middle" x="1093" y="-2605.1" font-family="Courier,monospace" font-size="11.00">FormInputHelper</text>
</g>
<!-- \\FormInputHelper&#45;&gt;\\AppHelper -->
<g id="edge51" class="edge"><title>\\FormInputHelper&#45;&gt;\\AppHelper</title>
<path fill="none" stroke="black" d="M1033.84,-2603.41C1017.84,-2599.49 1001.72,-2592.67 990,-2581 901.996,-2493.37 955.287,-2429.46 918,-2311 882.976,-2199.72 832.898,-2070.12 810.98,-2014.56"/>
<polygon fill="none" stroke="black" points="814.159,-2013.09 807.225,-2005.07 807.65,-2015.66 814.159,-2013.09"/>
</g>
<!-- \\WizardHelper -->
<g id="node33" class="node"><title>\\WizardHelper</title>
<polygon fill="none" stroke="black" points="1142,-2572 1044,-2572 1044,-2536 1142,-2536 1142,-2572"/>
<text text-anchor="middle" x="1093" y="-2551.1" font-family="Courier,monospace" font-size="11.00">WizardHelper</text>
</g>
<!-- \\WizardHelper&#45;&gt;\\AppHelper -->
<g id="edge53" class="edge"><title>\\WizardHelper&#45;&gt;\\AppHelper</title>
<path fill="none" stroke="black" d="M1043.87,-2551C1024.99,-2547.52 1004.5,-2540.59 990,-2527 916.145,-2457.82 951.318,-2406.55 918,-2311 879.59,-2200.85 831.282,-2070.65 810.401,-2014.76"/>
<polygon fill="none" stroke="black" points="813.611,-2013.35 806.83,-2005.21 807.054,-2015.8 813.611,-2013.35"/>
</g>
<!-- \\DisplayNumberHelper -->
<g id="node34" class="node"><title>\\DisplayNumberHelper</title>
<polygon fill="none" stroke="black" points="1165,-2518 1021,-2518 1021,-2482 1165,-2482 1165,-2518"/>
<text text-anchor="middle" x="1093" y="-2497.1" font-family="Courier,monospace" font-size="11.00">DisplayNumberHelper</text>
</g>
<!-- \\DisplayNumberHelper&#45;&gt;\\AppHelper -->
<g id="edge55" class="edge"><title>\\DisplayNumberHelper&#45;&gt;\\AppHelper</title>
<path fill="none" stroke="black" d="M1020.48,-2490.3C1009.36,-2486.31 998.7,-2480.74 990,-2473 971.537,-2456.57 846.454,-2114.9 809.969,-2014.51"/>
<polygon fill="none" stroke="black" points="813.235,-2013.25 806.532,-2005.04 806.655,-2015.64 813.235,-2013.25"/>
</g>
<!-- \\MessageFlashHelper -->
<g id="node35" class="node"><title>\\MessageFlashHelper</title>
<polygon fill="none" stroke="black" points="1162,-2464 1024,-2464 1024,-2428 1162,-2428 1162,-2464"/>
<text text-anchor="middle" x="1093" y="-2443.1" font-family="Courier,monospace" font-size="11.00">MessageFlashHelper</text>
</g>
<!-- \\MessageFlashHelper&#45;&gt;\\AppHelper -->
<g id="edge57" class="edge"><title>\\MessageFlashHelper&#45;&gt;\\AppHelper</title>
<path fill="none" stroke="black" d="M1023.95,-2437.08C1011.66,-2433.06 999.703,-2427.28 990,-2419 923.67,-2362.4 836.294,-2101.28 808.722,-2014.86"/>
<polygon fill="none" stroke="black" points="812.021,-2013.69 805.661,-2005.21 805.349,-2015.8 812.021,-2013.69"/>
</g>
<!-- \\DateHelper -->
<g id="node36" class="node"><title>\\DateHelper</title>
<polygon fill="none" stroke="black" points="1135,-2410 1051,-2410 1051,-2374 1135,-2374 1135,-2410"/>
<text text-anchor="middle" x="1093" y="-2389.1" font-family="Courier,monospace" font-size="11.00">DateHelper</text>
</g>
<!-- \\DateHelper&#45;&gt;\\AppHelper -->
<g id="edge59" class="edge"><title>\\DateHelper&#45;&gt;\\AppHelper</title>
<path fill="none" stroke="black" d="M1050.77,-2388.97C1030.55,-2385.65 1007.1,-2378.84 990,-2365 873.272,-2270.47 821.79,-2085.75 805.802,-2015.26"/>
<polygon fill="none" stroke="black" points="809.185,-2014.35 803.616,-2005.33 802.349,-2015.85 809.185,-2014.35"/>
</g>
<!-- \\SnsButtonHelper -->
<g id="node37" class="node"><title>\\SnsButtonHelper</title>
<polygon fill="none" stroke="black" points="1152,-2248 1034,-2248 1034,-2212 1152,-2212 1152,-2248"/>
<text text-anchor="middle" x="1093" y="-2227.1" font-family="Courier,monospace" font-size="11.00">SnsButtonHelper</text>
</g>
<!-- \\SnsButtonHelper&#45;&gt;\\AppHelper -->
<g id="edge61" class="edge"><title>\\SnsButtonHelper&#45;&gt;\\AppHelper</title>
<path fill="none" stroke="black" d="M1033.89,-2220.86C1018.85,-2216.86 1003.22,-2211.15 990,-2203 909.876,-2153.56 844.727,-2059.81 815.946,-2013.81"/>
<polygon fill="none" stroke="black" points="818.75,-2011.69 810.523,-2005.02 812.792,-2015.36 818.75,-2011.69"/>
</g>
<!-- \\BackToHelper -->
<g id="node38" class="node"><title>\\BackToHelper</title>
<polygon fill="none" stroke="black" points="1142,-2032 1044,-2032 1044,-1996 1142,-1996 1142,-2032"/>
<text text-anchor="middle" x="1093" y="-2011.1" font-family="Courier,monospace" font-size="11.00">BackToHelper</text>
</g>
<!-- \\BackToHelper&#45;&gt;\\AppHelper -->
<g id="edge63" class="edge"><title>\\BackToHelper&#45;&gt;\\AppHelper</title>
<path fill="none" stroke="black" d="M1043.96,-2009.48C989.78,-2004.49 903.056,-1996.5 848.925,-1991.51"/>
<polygon fill="none" stroke="black" points="849.161,-1988.02 838.882,-1990.58 848.519,-1994.99 849.161,-1988.02"/>
</g>
<!-- \\NetCommonsHtmlHelper -->
<g id="node39" class="node"><title>\\NetCommonsHtmlHelper</title>
<polygon fill="none" stroke="black" points="1169,-1978 1017,-1978 1017,-1942 1169,-1942 1169,-1978"/>
<text text-anchor="middle" x="1093" y="-1957.1" font-family="Courier,monospace" font-size="11.00">NetCommonsHtmlHelper</text>
</g>
<!-- \\NetCommonsHtmlHelper&#45;&gt;\\AppHelper -->
<g id="edge65" class="edge"><title>\\NetCommonsHtmlHelper&#45;&gt;\\AppHelper</title>
<path fill="none" stroke="black" d="M1016.78,-1967.02C963.659,-1971.92 894.376,-1978.3 848.603,-1982.52"/>
<polygon fill="none" stroke="black" points="848.274,-1979.04 838.638,-1983.44 848.917,-1986.01 848.274,-1979.04"/>
</g>
<!-- \\ButtonHelper -->
<g id="node40" class="node"><title>\\ButtonHelper</title>
<polygon fill="none" stroke="black" points="1142,-952 1044,-952 1044,-916 1142,-916 1142,-952"/>
<text text-anchor="middle" x="1093" y="-931.1" font-family="Courier,monospace" font-size="11.00">ButtonHelper</text>
</g>
<!-- \\ButtonHelper&#45;&gt;\\FormHelper -->
<g id="edge67" class="edge"><title>\\ButtonHelper&#45;&gt;\\FormHelper</title>
<path fill="none" stroke="black" d="M1043.76,-932.618C1024.27,-929.457 1003.37,-922.318 990,-907 815.683,-707.337 1095.43,-511.899 918,-315 908.227,-304.155 895.069,-297.207 881.082,-292.841"/>
<polygon fill="none" stroke="black" points="881.864,-289.426 871.298,-290.214 880.049,-296.187 881.864,-289.426"/>
</g>
<!-- \\ComposerHelper -->
<g id="node41" class="node"><title>\\ComposerHelper</title>
<polygon fill="none" stroke="black" points="1148,-1924 1038,-1924 1038,-1888 1148,-1888 1148,-1924"/>
<text text-anchor="middle" x="1093" y="-1903.1" font-family="Courier,monospace" font-size="11.00">ComposerHelper</text>
</g>
<!-- \\ComposerHelper&#45;&gt;\\AppHelper -->
<g id="edge69" class="edge"><title>\\ComposerHelper&#45;&gt;\\AppHelper</title>
<path fill="none" stroke="black" d="M1037.35,-1920.36C1021.99,-1924.39 1005.34,-1928.81 990,-1933 941.716,-1946.19 886.728,-1961.89 848.375,-1972.96"/>
<polygon fill="none" stroke="black" points="847.145,-1969.67 838.508,-1975.8 849.087,-1976.39 847.145,-1969.67"/>
</g>
<!-- \\LinkButtonHelper -->
<g id="node42" class="node"><title>\\LinkButtonHelper</title>
<polygon fill="none" stroke="black" points="1155,-898 1031,-898 1031,-862 1155,-862 1155,-898"/>
<text text-anchor="middle" x="1093" y="-877.1" font-family="Courier,monospace" font-size="11.00">LinkButtonHelper</text>
</g>
<!-- \\LinkButtonHelper&#45;&gt;\\FormHelper -->
<g id="edge71" class="edge"><title>\\LinkButtonHelper&#45;&gt;\\FormHelper</title>
<path fill="none" stroke="black" d="M1030.45,-875.714C1015.26,-871.707 1000.41,-864.775 990,-853 830.252,-672.227 1080.57,-493.24 918,-315 908.162,-304.213 894.974,-297.293 880.979,-292.934"/>
<polygon fill="none" stroke="black" points="881.757,-289.519 871.192,-290.31 879.944,-296.281 881.757,-289.519"/>
</g>
<!-- \\TableListHelper -->
<g id="node43" class="node"><title>\\TableListHelper</title>
<polygon fill="none" stroke="black" points="1152,-1870 1034,-1870 1034,-1834 1152,-1834 1152,-1870"/>
<text text-anchor="middle" x="1093" y="-1849.1" font-family="Courier,monospace" font-size="11.00">TableListHelper</text>
</g>
<!-- \\TableListHelper&#45;&gt;\\AppHelper -->
<g id="edge73" class="edge"><title>\\TableListHelper&#45;&gt;\\AppHelper</title>
<path fill="none" stroke="black" d="M1033.85,-1864.69C1019.27,-1868.58 1003.87,-1873.35 990,-1879 933.066,-1902.18 872.097,-1939.27 835.004,-1963.39"/>
<polygon fill="none" stroke="black" points="833.002,-1960.52 826.557,-1968.93 836.839,-1966.37 833.002,-1960.52"/>
</g>
<!-- \\NetCommonsTimeHelper -->
<g id="node44" class="node"><title>\\NetCommonsTimeHelper</title>
<polygon fill="none" stroke="black" points="1169,-1816 1017,-1816 1017,-1780 1169,-1780 1169,-1816"/>
<text text-anchor="middle" x="1093" y="-1795.1" font-family="Courier,monospace" font-size="11.00">NetCommonsTimeHelper</text>
</g>
<!-- \\NetCommonsTimeHelper&#45;&gt;\\AppHelper -->
<g id="edge75" class="edge"><title>\\NetCommonsTimeHelper&#45;&gt;\\AppHelper</title>
<path fill="none" stroke="black" d="M1016.98,-1813.73C1007.65,-1816.87 998.439,-1820.59 990,-1825 921.41,-1860.81 856.097,-1925.44 822.838,-1961.3"/>
<polygon fill="none" stroke="black" points="820.033,-1959.17 815.854,-1968.91 825.192,-1963.91 820.033,-1959.17"/>
</g>
<!-- \\NetCommonsFormHelper -->
<g id="node45" class="node"><title>\\NetCommonsFormHelper</title>
<polygon fill="none" stroke="black" points="1169,-1762 1017,-1762 1017,-1726 1169,-1726 1169,-1762"/>
<text text-anchor="middle" x="1093" y="-1741.1" font-family="Courier,monospace" font-size="11.00">NetCommonsFormHelper</text>
</g>
<!-- \\NetCommonsFormHelper&#45;&gt;\\AppHelper -->
<g id="edge77" class="edge"><title>\\NetCommonsFormHelper&#45;&gt;\\AppHelper</title>
<path fill="none" stroke="black" d="M1016.88,-1758.4C1007.46,-1761.76 998.259,-1765.9 990,-1771 909.876,-1820.44 844.727,-1914.19 815.946,-1960.19"/>
<polygon fill="none" stroke="black" points="812.792,-1958.64 810.523,-1968.98 818.75,-1962.31 812.792,-1958.64"/>
</g>
<!-- \\TitleIconHelper -->
<g id="node46" class="node"><title>\\TitleIconHelper</title>
<polygon fill="none" stroke="black" points="1152,-1708 1034,-1708 1034,-1672 1152,-1672 1152,-1708"/>
<text text-anchor="middle" x="1093" y="-1687.1" font-family="Courier,monospace" font-size="11.00">TitleIconHelper</text>
</g>
<!-- \\TitleIconHelper&#45;&gt;\\AppHelper -->
<g id="edge79" class="edge"><title>\\TitleIconHelper&#45;&gt;\\AppHelper</title>
<path fill="none" stroke="black" d="M1033.8,-1698.05C1018.6,-1702.05 1002.91,-1708.04 990,-1717 898.034,-1780.86 835.79,-1904.47 811.457,-1959.46"/>
<polygon fill="none" stroke="black" points="808.13,-1958.34 807.356,-1968.9 814.551,-1961.13 808.13,-1958.34"/>
</g>
<!-- \\DatetimePickerHelper -->
<g id="node47" class="node"><title>\\DatetimePickerHelper</title>
<polygon fill="none" stroke="black" points="1169,-1654 1017,-1654 1017,-1618 1169,-1618 1169,-1654"/>
<text text-anchor="middle" x="1093" y="-1633.1" font-family="Courier,monospace" font-size="11.00">DatetimePickerHelper</text>
</g>
<!-- \\DatetimePickerHelper&#45;&gt;\\AppHelper -->
<g id="edge81" class="edge"><title>\\DatetimePickerHelper&#45;&gt;\\AppHelper</title>
<path fill="none" stroke="black" d="M1016.94,-1648.54C1007.31,-1652.2 998.03,-1656.92 990,-1663 885.624,-1742.08 828.084,-1896.47 808.129,-1959.35"/>
<polygon fill="none" stroke="black" points="804.764,-1958.39 805.144,-1968.97 811.45,-1960.46 804.764,-1958.39"/>
</g>
<!-- \\Model -->
<g id="node111" class="node"><title>\\Model</title>
<ellipse fill="none" stroke="black" cx="44" cy="-2932" rx="43.8406" ry="18.3848"/>
<text text-anchor="middle" x="44" y="-2928.4" font-family="Times Roman,serif" font-size="14.00" fill="gray">\Model</text>
</g>
<!-- \\NetCommonsAppModel&#45;&gt;\\Model -->
<g id="edge83" class="edge"><title>\\NetCommonsAppModel&#45;&gt;\\Model</title>
<path fill="none" stroke="black" d="M172.749,-2932C148.379,-2932 121.357,-2932 98.3871,-2932"/>
<polygon fill="none" stroke="black" points="98.1425,-2928.5 88.1425,-2932 98.1424,-2935.5 98.1425,-2928.5"/>
</g>
<!-- \\OriginalKeyBehavior -->
<g id="node49" class="node"><title>\\OriginalKeyBehavior</title>
<polygon fill="none" stroke="black" points="1165,-790 1021,-790 1021,-754 1165,-754 1165,-790"/>
<text text-anchor="middle" x="1093" y="-769.1" font-family="Courier,monospace" font-size="11.00">OriginalKeyBehavior</text>
</g>
<!-- \\ModelBehavior -->
<g id="node113" class="node"><title>\\ModelBehavior</title>
<ellipse fill="none" stroke="black" cx="800" cy="-180" rx="86.9741" ry="18.3848"/>
<text text-anchor="middle" x="800" y="-176.4" font-family="Times Roman,serif" font-size="14.00" fill="gray">\ModelBehavior</text>
</g>
<!-- \\OriginalKeyBehavior&#45;&gt;\\ModelBehavior -->
<g id="edge85" class="edge"><title>\\OriginalKeyBehavior&#45;&gt;\\ModelBehavior</title>
<path fill="none" stroke="black" d="M1020.36,-764.567C1008.84,-760.366 998.079,-754.143 990,-745 830.252,-564.227 1080.57,-385.24 918,-207 910.917,-199.234 902.097,-193.472 892.49,-189.227"/>
<polygon fill="none" stroke="black" points="893.659,-185.927 883.069,-185.607 891.148,-192.461 893.659,-185.927"/>
</g>
<!-- \\TrackableBehavior -->
<g id="node50" class="node"><title>\\TrackableBehavior</title>
<polygon fill="none" stroke="black" points="1158,-736 1028,-736 1028,-700 1158,-700 1158,-736"/>
<text text-anchor="middle" x="1093" y="-715.1" font-family="Courier,monospace" font-size="11.00">TrackableBehavior</text>
</g>
<!-- \\TrackableBehavior&#45;&gt;\\ModelBehavior -->
<g id="edge87" class="edge"><title>\\TrackableBehavior&#45;&gt;\\ModelBehavior</title>
<path fill="none" stroke="black" d="M1027.36,-712.719C1013.29,-708.606 999.75,-701.872 990,-691 844.8,-529.094 1065.73,-366.605 918,-207 910.86,-199.286 902.006,-193.556 892.38,-189.328"/>
<polygon fill="none" stroke="black" points="893.536,-186.023 882.945,-185.72 891.035,-192.561 893.536,-186.023"/>
</g>
<!-- \\YAExceptionRenderer -->
<g id="node51" class="node"><title>\\YAExceptionRenderer</title>
<polygon fill="none" stroke="black" points="1165,-628 1021,-628 1021,-592 1165,-592 1165,-628"/>
<text text-anchor="middle" x="1093" y="-607.1" font-family="Courier,monospace" font-size="11.00">YAExceptionRenderer</text>
</g>
<!-- \\ExceptionRenderer -->
<g id="node116" class="node"><title>\\ExceptionRenderer</title>
<ellipse fill="none" stroke="black" cx="800" cy="-126" rx="118.087" ry="18.3848"/>
<text text-anchor="middle" x="800" y="-122.4" font-family="Times Roman,serif" font-size="14.00" fill="gray">TEHxceptionRenderer</text>
</g>
<!-- \\YAExceptionRenderer&#45;&gt;\\ExceptionRenderer -->
<g id="edge89" class="edge"><title>\\YAExceptionRenderer&#45;&gt;\\ExceptionRenderer</title>
<path fill="none" stroke="black" d="M1020.34,-602.25C1008.9,-598.073 998.166,-591.94 990,-583 859.318,-439.927 1050.91,-294.002 918,-153 913.844,-148.591 909.128,-144.833 904.031,-141.635"/>
<polygon fill="none" stroke="black" points="905.577,-138.492 895.123,-136.766 902.219,-144.634 905.577,-138.492"/>
</g>
<!-- \\NetCommonsMigration -->
<g id="node52" class="node"><title>\\NetCommonsMigration</title>
<polygon fill="none" stroke="black" points="1165,-574 1021,-574 1021,-538 1165,-538 1165,-574"/>
<text text-anchor="middle" x="1093" y="-553.1" font-family="Courier,monospace" font-size="11.00">NetCommonsMigration</text>
</g>
<!-- \\CakeMigration -->
<g id="node118" class="node"><title>\\CakeMigration</title>
<ellipse fill="none" stroke="black" cx="800" cy="-72" rx="84.8528" ry="18.3848"/>
<text text-anchor="middle" x="800" y="-68.4" font-family="Times Roman,serif" font-size="14.00" fill="gray">\CakeMigration</text>
</g>
<!-- \\NetCommonsMigration&#45;&gt;\\CakeMigration -->
<g id="edge91" class="edge"><title>\\NetCommonsMigration&#45;&gt;\\CakeMigration</title>
<path fill="none" stroke="black" d="M1020.34,-548.25C1008.9,-544.073 998.166,-537.94 990,-529 859.318,-385.927 1050.91,-240.002 918,-99 910.44,-90.9799 901.025,-85.1126 890.833,-80.8528"/>
<polygon fill="none" stroke="black" points="891.879,-77.5089 881.284,-77.377 889.484,-84.0866 891.879,-77.5089"/>
</g>
<!-- \\CategoriesComponent -->
<g id="node53" class="node"><title>\\CategoriesComponent</title>
<polygon fill="none" stroke="black" points="1165,-1114 1021,-1114 1021,-1078 1165,-1078 1165,-1114"/>
<text text-anchor="middle" x="1093" y="-1093.1" font-family="Courier,monospace" font-size="11.00">CategoriesComponent</text>
</g>
<!-- \\CategoriesComponent&#45;&gt;\\Component -->
<g id="edge93" class="edge"><title>\\CategoriesComponent&#45;&gt;\\Component</title>
<path fill="none" stroke="black" d="M1020.39,-1088.86C1008.79,-1084.64 997.999,-1078.34 990,-1069 786.502,-831.507 1125.2,-603.266 918,-369 908.271,-358.001 895.062,-350.994 880.998,-346.62"/>
<polygon fill="none" stroke="black" points="881.72,-343.191 871.156,-343.996 879.917,-349.955 881.72,-343.191"/>
</g>
<!-- \\CategoryEditComponent -->
<g id="node54" class="node"><title>\\CategoryEditComponent</title>
<polygon fill="none" stroke="black" points="1172,-1060 1014,-1060 1014,-1024 1172,-1024 1172,-1060"/>
<text text-anchor="middle" x="1093" y="-1039.1" font-family="Courier,monospace" font-size="11.00">CategoryEditComponent</text>
</g>
<!-- \\CategoryEditComponent&#45;&gt;\\Component -->
<g id="edge95" class="edge"><title>\\CategoryEditComponent&#45;&gt;\\Component</title>
<path fill="none" stroke="black" d="M1013.75,-1032.09C1004.73,-1028.02 996.467,-1022.48 990,-1015 801.099,-796.429 1110.31,-584.576 918,-369 908.225,-358.042 894.994,-351.054 880.924,-346.686"/>
<polygon fill="none" stroke="black" points="881.644,-343.256 871.08,-344.064 879.842,-350.02 881.644,-343.256"/>
</g>
<!-- \\CategoryHelper -->
<g id="node55" class="node"><title>\\CategoryHelper</title>
<polygon fill="none" stroke="black" points="1148,-2680 1038,-2680 1038,-2644 1148,-2644 1148,-2680"/>
<text text-anchor="middle" x="1093" y="-2659.1" font-family="Courier,monospace" font-size="11.00">CategoryHelper</text>
</g>
<!-- \\CategoryHelper&#45;&gt;\\AppHelper -->
<g id="edge97" class="edge"><title>\\CategoryHelper&#45;&gt;\\AppHelper</title>
<path fill="none" stroke="black" d="M1037.28,-2658.58C1020.06,-2654.85 1002.37,-2647.85 990,-2635 887.677,-2528.75 959.328,-2452.61 918,-2311 885.395,-2199.28 834.264,-2070.4 811.545,-2014.85"/>
<polygon fill="none" stroke="black" points="814.681,-2013.27 807.644,-2005.35 808.205,-2015.93 814.681,-2013.27"/>
</g>
<!-- \\CategoriesAppModel -->
<g id="node56" class="node"><title>\\CategoriesAppModel</title>
<polygon fill="none" stroke="black" points="869,-2977 731,-2977 731,-2941 869,-2941 869,-2977"/>
<text text-anchor="middle" x="800" y="-2956.1" font-family="Courier,monospace" font-size="11.00">CategoriesAppModel</text>
</g>
<!-- \\CategoriesAppModel&#45;&gt;\\AppModel -->
<g id="edge99" class="edge"><title>\\CategoriesAppModel&#45;&gt;\\AppModel</title>
<path fill="none" stroke="black" d="M730.742,-2952.7C674.69,-2947.61 597.337,-2940.58 548.757,-2936.16"/>
<polygon fill="none" stroke="black" points="548.824,-2932.65 538.548,-2935.23 548.19,-2939.62 548.824,-2932.65"/>
</g>
<!-- \\CategoryBehavior -->
<g id="node57" class="node"><title>\\CategoryBehavior</title>
<polygon fill="none" stroke="black" points="1155,-682 1031,-682 1031,-646 1155,-646 1155,-682"/>
<text text-anchor="middle" x="1093" y="-661.1" font-family="Courier,monospace" font-size="11.00">CategoryBehavior</text>
</g>
<!-- \\CategoryBehavior&#45;&gt;\\ModelBehavior -->
<g id="edge101" class="edge"><title>\\CategoryBehavior&#45;&gt;\\ModelBehavior</title>
<path fill="none" stroke="black" d="M1030.44,-659.412C1015.34,-655.395 1000.53,-648.534 990,-637 859.318,-493.927 1050.91,-348.002 918,-207 910.736,-199.293 901.758,-193.575 892.025,-189.36"/>
<polygon fill="none" stroke="black" points="893.083,-186.019 882.491,-185.764 890.613,-192.568 893.083,-186.019"/>
</g>
<!-- \\Category -->
<g id="node58" class="node"><title>\\Category</title>
<polygon fill="none" stroke="black" points="1128,-3004 1058,-3004 1058,-2968 1128,-2968 1128,-3004"/>
<text text-anchor="middle" x="1093" y="-2983.1" font-family="Courier,monospace" font-size="11.00">Category</text>
</g>
<!-- \\Category&#45;&gt;\\CategoriesAppModel -->
<g id="edge103" class="edge"><title>\\Category&#45;&gt;\\CategoriesAppModel</title>
<path fill="none" stroke="black" d="M1057.37,-2982.72C1013.41,-2978.67 937.397,-2971.66 879.34,-2966.31"/>
<polygon fill="none" stroke="black" points="879.367,-2962.8 869.088,-2965.37 878.725,-2969.77 879.367,-2962.8"/>
</g>
<!-- \\CategoryOrder -->
<g id="node59" class="node"><title>\\CategoryOrder</title>
<polygon fill="none" stroke="black" points="1145,-2950 1041,-2950 1041,-2914 1145,-2914 1145,-2950"/>
<text text-anchor="middle" x="1093" y="-2929.1" font-family="Courier,monospace" font-size="11.00">CategoryOrder</text>
</g>
<!-- \\CategoryOrder&#45;&gt;\\CategoriesAppModel -->
<g id="edge105" class="edge"><title>\\CategoryOrder&#45;&gt;\\CategoriesAppModel</title>
<path fill="none" stroke="black" d="M1040.96,-2936.8C996.092,-2940.93 930.628,-2946.96 879.253,-2951.7"/>
<polygon fill="none" stroke="black" points="878.813,-2948.22 869.177,-2952.63 879.456,-2955.19 878.813,-2948.22"/>
</g>
<!-- \\CategoriesSchema -->
<g id="node60" class="node"><title>\\CategoriesSchema</title>
<polygon fill="none" stroke="black" points="1155,-466 1031,-466 1031,-430 1155,-430 1155,-466"/>
<text text-anchor="middle" x="1093" y="-445.1" font-family="Courier,monospace" font-size="11.00">CategoriesSchema</text>
</g>
<!-- \\CakeSchema -->
<g id="node127" class="node"><title>\\CakeSchema</title>
<ellipse fill="none" stroke="black" cx="800" cy="-18" rx="77.0746" ry="18.3848"/>
<text text-anchor="middle" x="800" y="-14.4" font-family="Times Roman,serif" font-size="14.00" fill="gray">\CakeSchema</text>
</g>
<!-- \\CategoriesSchema&#45;&gt;\\CakeSchema -->
<g id="edge107" class="edge"><title>\\CategoriesSchema&#45;&gt;\\CakeSchema</title>
<path fill="none" stroke="black" d="M1090.86,-429.713C1082.37,-365.789 1045.04,-150.503 918,-45 907.886,-36.6012 895.67,-30.6949 882.982,-26.5644"/>
<polygon fill="none" stroke="black" points="883.793,-23.1556 873.214,-23.74 881.848,-29.8801 883.793,-23.1556"/>
</g>
<!-- \\Init -->
<g id="node61" class="node"><title>\\Init</title>
<polygon fill="none" stroke="black" points="1120,-520 1066,-520 1066,-484 1120,-484 1120,-520"/>
<text text-anchor="middle" x="1093" y="-499.1" font-family="Courier,monospace" font-size="11.00">Init</text>
</g>
<!-- \\Init&#45;&gt;\\CakeMigration -->
<g id="edge109" class="edge"><title>\\Init&#45;&gt;\\CakeMigration</title>
<path fill="none" stroke="black" d="M1065.78,-502.438C1042.33,-501.269 1009.32,-495.66 990,-475 873.795,-350.716 1036.14,-221.443 918,-99 910.347,-91.0685 900.877,-85.2535 890.656,-81.0209"/>
<polygon fill="none" stroke="black" points="891.684,-77.6706 881.089,-77.5632 889.304,-84.2538 891.684,-77.6706"/>
</g>
</g>
</svg>
