<?xml version="1.0" encoding="UTF-8" standalone="no"?>
<!DOCTYPE svg PUBLIC "-//W3C//DTD SVG 1.1//EN"
 "http://www.w3.org/Graphics/SVG/1.1/DTD/svg11.dtd">
<!-- Generated by graphviz version 2.26.3 (20100126.1600)
 -->
<!-- Title: G Pages: 1 -->
<svg width="1220pt" height="3158pt"
 viewBox="0.00 0.00 1220.00 3158.00" xmlns="http://www.w3.org/2000/svg" xmlns:xlink="http://www.w3.org/1999/xlink">
<g id="graph1" class="graph" transform="scale(1 1) rotate(0) translate(4 3154)">
<title>G</title>
<polygon fill="white" stroke="white" points="-4,5 -4,-3154 1217,-3154 1217,5 -4,5"/>
<g id="graph2" class="cluster"><title>cluster_Global</title>
<polyline fill="none" stroke="gray" points="177,-422 1192,-422 "/>
<path fill="none" stroke="gray" d="M1192,-422C1198,-422 1204,-428 1204,-434"/>
<polyline fill="none" stroke="gray" points="1204,-434 1204,-3130 "/>
<path fill="none" stroke="gray" d="M1204,-3130C1204,-3136 1198,-3142 1192,-3142"/>
<polyline fill="none" stroke="gray" points="1192,-3142 177,-3142 "/>
<path fill="none" stroke="gray" d="M177,-3142C171,-3142 165,-3136 165,-3130"/>
<polyline fill="none" stroke="gray" points="165,-3130 165,-434 "/>
<path fill="none" stroke="gray" d="M165,-434C165,-428 171,-422 177,-422"/>
<text text-anchor="middle" x="684.5" y="-3128.1" font-family="Times Roman,serif" font-size="11.00" fill="gray">Global</text>
</g>
<!-- \\AppController -->
<g id="node2" class="node"><title>\\AppController</title>
<polygon fill="none" stroke="black" points="1145,-1492 1041,-1492 1041,-1456 1145,-1456 1145,-1492"/>
<text text-anchor="middle" x="1093" y="-1471.1" font-family="Courier,monospace" font-size="11.00">AppController</text>
</g>
<!-- \\Controller -->
<g id="node65" class="node"><title>\\Controller</title>
<ellipse fill="none" stroke="black" cx="503" cy="-288" rx="63.1385" ry="18.3848"/>
<text text-anchor="middle" x="503" y="-284.4" font-family="Times Roman,serif" font-size="14.00" fill="gray">\Controller</text>
</g>
<!-- \\AppController&#45;&gt;\\Controller -->
<g id="edge3" class="edge"><title>\\AppController&#45;&gt;\\Controller</title>
<path fill="none" stroke="black" d="M1040.98,-1470.42C1022.93,-1466.78 1003.78,-1459.88 990,-1447 796.144,-1265.81 804.687,-495.3 610,-315 600.087,-305.819 587.515,-299.648 574.502,-295.524"/>
<polygon fill="none" stroke="black" points="575.073,-292.051 564.502,-292.754 573.204,-298.797 575.073,-292.051"/>
</g>
<!-- \\AppModel -->
<g id="node3" class="node"><title>\\AppModel</title>
<polygon fill="none" stroke="black" points="538,-3058 468,-3058 468,-3022 538,-3022 538,-3058"/>
<text text-anchor="middle" x="503" y="-3037.1" font-family="Courier,monospace" font-size="11.00">AppModel</text>
</g>
<!-- \\NetCommonsAppModel -->
<g id="node50" class="node"><title>\\NetCommonsAppModel</title>
<polygon fill="none" stroke="black" points="311,-3058 173,-3058 173,-3022 311,-3022 311,-3058"/>
<text text-anchor="middle" x="242" y="-3037.1" font-family="Courier,monospace" font-size="11.00">NetCommonsAppModel</text>
</g>
<!-- \\AppModel&#45;&gt;\\NetCommonsAppModel -->
<g id="edge5" class="edge"><title>\\AppModel&#45;&gt;\\NetCommonsAppModel</title>
<path fill="none" stroke="black" d="M467.256,-3040C429.848,-3040 369.903,-3040 321.254,-3040"/>
<polygon fill="none" stroke="black" points="321.056,-3036.5 311.056,-3040 321.056,-3043.5 321.056,-3036.5"/>
</g>
<!-- \\DatabaseConfiguration -->
<g id="node4" class="node"><title>\\DatabaseConfiguration</title>
<polygon fill="none" stroke="black" points="879,-3031 721,-3031 721,-2995 879,-2995 879,-3031"/>
<text text-anchor="middle" x="800" y="-3010.1" font-family="Courier,monospace" font-size="11.00">DatabaseConfiguration</text>
</g>
<!-- \\DatabaseConfiguration&#45;&gt;\\AppModel -->
<g id="edge7" class="edge"><title>\\DatabaseConfiguration&#45;&gt;\\AppModel</title>
<path fill="none" stroke="black" d="M720.8,-3020.2C665.959,-3025.19 594.863,-3031.65 549.084,-3035.81"/>
<polygon fill="none" stroke="black" points="548.509,-3032.35 538.867,-3036.74 549.143,-3039.32 548.509,-3032.35"/>
</g>
<!-- \\AppHelper -->
<g id="node5" class="node"><title>\\AppHelper</title>
<polygon fill="none" stroke="black" points="838,-2329 762,-2329 762,-2293 838,-2293 838,-2329"/>
<text text-anchor="middle" x="800" y="-2308.1" font-family="Courier,monospace" font-size="11.00">AppHelper</text>
</g>
<!-- \\Helper -->
<g id="node69" class="node"><title>\\Helper</title>
<ellipse fill="none" stroke="black" cx="503" cy="-396" rx="43.8406" ry="18.3848"/>
<text text-anchor="middle" x="503" y="-392.4" font-family="Times Roman,serif" font-size="14.00" fill="gray">Helper</text>
</g>
<!-- \\AppHelper&#45;&gt;\\Helper -->
<g id="edge9" class="edge"><title>\\AppHelper&#45;&gt;\\Helper</title>
<path fill="none" stroke="black" d="M795.377,-2292.68C777.304,-2220.23 711.007,-1946.48 682,-1717 663.872,-1573.59 704.411,-527.465 610,-418 596.921,-402.835 576.427,-396.438 556.86,-394.155"/>
<polygon fill="none" stroke="black" points="557.013,-390.656 546.756,-393.312 556.431,-397.631 557.013,-390.656"/>
</g>
<!-- \\NetCommonsDeleteTest -->
<g id="node6" class="node"><title>\\NetCommonsDeleteTest</title>
<polygon fill="none" stroke="black" points="1169,-3004 1017,-3004 1017,-2968 1169,-2968 1169,-3004"/>
<text text-anchor="middle" x="1093" y="-2983.1" font-family="Courier,monospace" font-size="11.00">NetCommonsDeleteTest</text>
</g>
<!-- \\NetCommonsModelTestCase -->
<g id="node15" class="node"><title>\\NetCommonsModelTestCase</title>
<polygon fill="none" stroke="black" points="886,-2896 714,-2896 714,-2860 886,-2860 886,-2896"/>
<text text-anchor="middle" x="800" y="-2875.1" font-family="Courier,monospace" font-size="11.00">NetCommonsModelTestCase</text>
</g>
<!-- \\NetCommonsDeleteTest&#45;&gt;\\NetCommonsModelTestCase -->
<g id="edge11" class="edge"><title>\\NetCommonsDeleteTest&#45;&gt;\\NetCommonsModelTestCase</title>
<path fill="none" stroke="black" d="M1018.9,-2967.98C1009.12,-2965.19 999.27,-2962.17 990,-2959 940.27,-2941.98 885.199,-2917.9 847.206,-2900.42"/>
<polygon fill="none" stroke="black" points="848.474,-2897.15 837.929,-2896.12 845.534,-2903.5 848.474,-2897.15"/>
</g>
<!-- \\NetCommonsConsoleTestCase -->
<g id="node7" class="node"><title>\\NetCommonsConsoleTestCase</title>
<polygon fill="none" stroke="black" points="892,-2599 708,-2599 708,-2563 892,-2563 892,-2599"/>
<text text-anchor="middle" x="800" y="-2578.1" font-family="Courier,monospace" font-size="11.00">NetCommonsConsoleTestCase</text>
</g>
<!-- \\NetCommonsCakeTestCase -->
<g id="node13" class="node"><title>\\NetCommonsCakeTestCase</title>
<polygon fill="none" stroke="black" points="585,-2572 421,-2572 421,-2536 585,-2536 585,-2572"/>
<text text-anchor="middle" x="503" y="-2551.1" font-family="Courier,monospace" font-size="11.00">NetCommonsCakeTestCase</text>
</g>
<!-- \\NetCommonsConsoleTestCase&#45;&gt;\\NetCommonsCakeTestCase -->
<g id="edge13" class="edge"><title>\\NetCommonsConsoleTestCase&#45;&gt;\\NetCommonsCakeTestCase</title>
<path fill="none" stroke="black" d="M707.249,-2572.57C671.93,-2569.36 631.688,-2565.7 596.316,-2562.48"/>
<polygon fill="none" stroke="black" points="596.269,-2558.96 585.993,-2561.54 595.635,-2565.94 596.269,-2558.96"/>
</g>
<!-- \\NetCommonsGetTest -->
<g id="node8" class="node"><title>\\NetCommonsGetTest</title>
<polygon fill="none" stroke="black" points="1158,-2950 1028,-2950 1028,-2914 1158,-2914 1158,-2950"/>
<text text-anchor="middle" x="1093" y="-2929.1" font-family="Courier,monospace" font-size="11.00">NetCommonsGetTest</text>
</g>
<!-- \\NetCommonsGetTest&#45;&gt;\\NetCommonsModelTestCase -->
<g id="edge15" class="edge"><title>\\NetCommonsGetTest&#45;&gt;\\NetCommonsModelTestCase</title>
<path fill="none" stroke="black" d="M1027.25,-2919.88C988.582,-2912.76 939.008,-2903.62 896.034,-2895.7"/>
<polygon fill="none" stroke="black" points="896.588,-2892.24 886.12,-2893.87 895.32,-2899.13 896.588,-2892.24"/>
</g>
<!-- \\NetCommonsHelperTestCase -->
<g id="node9" class="node"><title>\\NetCommonsHelperTestCase</title>
<polygon fill="none" stroke="black" points="889,-2545 711,-2545 711,-2509 889,-2509 889,-2545"/>
<text text-anchor="middle" x="800" y="-2524.1" font-family="Courier,monospace" font-size="11.00">NetCommonsHelperTestCase</text>
</g>
<!-- \\NetCommonsHelperTestCase&#45;&gt;\\NetCommonsCakeTestCase -->
<g id="edge17" class="edge"><title>\\NetCommonsHelperTestCase&#45;&gt;\\NetCommonsCakeTestCase</title>
<path fill="none" stroke="black" d="M710.487,-2535.14C674.267,-2538.43 632.456,-2542.23 595.9,-2545.55"/>
<polygon fill="none" stroke="black" points="595.379,-2542.09 585.737,-2546.48 596.013,-2549.06 595.379,-2542.09"/>
</g>
<!-- \\NetCommonsControllerBaseTestCase -->
<g id="node10" class="node"><title>\\NetCommonsControllerBaseTestCase</title>
<polygon fill="none" stroke="black" points="916,-1627 684,-1627 684,-1591 916,-1591 916,-1627"/>
<text text-anchor="middle" x="800" y="-1606.1" font-family="Courier,monospace" font-size="11.00">NetCommonsControllerBaseTestCase</text>
</g>
<!-- \\ControllerTestCase -->
<g id="node75" class="node"><title>\\ControllerTestCase</title>
<ellipse fill="none" stroke="black" cx="503" cy="-342" rx="106.773" ry="18.3848"/>
<text text-anchor="middle" x="503" y="-338.4" font-family="Times Roman,serif" font-size="14.00" fill="gray">\ControllerTestCase</text>
</g>
<!-- \\NetCommonsControllerBaseTestCase&#45;&gt;\\ControllerTestCase -->
<g id="edge19" class="edge"><title>\\NetCommonsControllerBaseTestCase&#45;&gt;\\ControllerTestCase</title>
<path fill="none" stroke="black" d="M728.731,-1590.88C710.66,-1582.84 693.213,-1571.35 682,-1555 532.666,-1337.25 778.505,-572.282 610,-369 606.408,-364.667 602.232,-360.973 597.653,-357.828"/>
<polygon fill="none" stroke="black" points="599.407,-354.8 589.014,-352.742 595.855,-360.832 599.407,-354.8"/>
</g>
<!-- \\NetCommonsValidateTest -->
<g id="node11" class="node"><title>\\NetCommonsValidateTest</title>
<polygon fill="none" stroke="black" points="1175,-2896 1011,-2896 1011,-2860 1175,-2860 1175,-2896"/>
<text text-anchor="middle" x="1093" y="-2875.1" font-family="Courier,monospace" font-size="11.00">NetCommonsValidateTest</text>
</g>
<!-- \\NetCommonsValidateTest&#45;&gt;\\NetCommonsModelTestCase -->
<g id="edge21" class="edge"><title>\\NetCommonsValidateTest&#45;&gt;\\NetCommonsModelTestCase</title>
<path fill="none" stroke="black" d="M1010.21,-2878C974.791,-2878 933.196,-2878 896.397,-2878"/>
<polygon fill="none" stroke="black" points="896.154,-2874.5 886.154,-2878 896.154,-2881.5 896.154,-2874.5"/>
</g>
<!-- \\NetCommonsTestSuite -->
<g id="node12" class="node"><title>\\NetCommonsTestSuite</title>
<polygon fill="none" stroke="black" points="1165,-1438 1021,-1438 1021,-1402 1165,-1402 1165,-1438"/>
<text text-anchor="middle" x="1093" y="-1417.1" font-family="Courier,monospace" font-size="11.00">NetCommonsTestSuite</text>
</g>
<!-- \\CakeTestSuite -->
<g id="node78" class="node"><title>\\CakeTestSuite</title>
<ellipse fill="none" stroke="black" cx="800" cy="-396" rx="84.1457" ry="18.3848"/>
<text text-anchor="middle" x="800" y="-392.4" font-family="Times Roman,serif" font-size="14.00" fill="gray">\CakeTestSuite</text>
</g>
<!-- \\NetCommonsTestSuite&#45;&gt;\\CakeTestSuite -->
<g id="edge23" class="edge"><title>\\NetCommonsTestSuite&#45;&gt;\\CakeTestSuite</title>
<path fill="none" stroke="black" d="M1020.43,-1413.15C1008.75,-1408.91 997.923,-1402.52 990,-1393 851.027,-1226.01 1062.9,-579.881 918,-418 911.225,-410.43 902.75,-404.946 893.47,-401.027"/>
<polygon fill="none" stroke="black" points="894.549,-397.696 883.955,-397.611 892.184,-404.284 894.549,-397.696"/>
</g>
<!-- \\CakeTestCase -->
<g id="node80" class="node"><title>\\CakeTestCase</title>
<ellipse fill="none" stroke="black" cx="242" cy="-396" rx="82.0244" ry="18.3848"/>
<text text-anchor="middle" x="242" y="-392.4" font-family="Times Roman,serif" font-size="14.00" fill="gray">\CakeTestCase</text>
</g>
<!-- \\NetCommonsCakeTestCase&#45;&gt;\\CakeTestCase -->
<g id="edge25" class="edge"><title>\\NetCommonsCakeTestCase&#45;&gt;\\CakeTestCase</title>
<path fill="none" stroke="black" d="M420.351,-2549.04C411.027,-2545.23 402.544,-2539.75 396,-2532 244.408,-2352.4 470.198,-602.019 324,-418 322.315,-415.879 320.45,-413.95 318.438,-412.195"/>
<polygon fill="none" stroke="black" points="320.217,-409.166 310.03,-406.256 316.179,-414.884 320.217,-409.166"/>
</g>
<!-- \\NetCommonsSaveTest -->
<g id="node14" class="node"><title>\\NetCommonsSaveTest</title>
<polygon fill="none" stroke="black" points="1162,-2842 1024,-2842 1024,-2806 1162,-2806 1162,-2842"/>
<text text-anchor="middle" x="1093" y="-2821.1" font-family="Courier,monospace" font-size="11.00">NetCommonsSaveTest</text>
</g>
<!-- \\NetCommonsSaveTest&#45;&gt;\\NetCommonsModelTestCase -->
<g id="edge27" class="edge"><title>\\NetCommonsSaveTest&#45;&gt;\\NetCommonsModelTestCase</title>
<path fill="none" stroke="black" d="M1023.93,-2836.73C985.795,-2843.76 937.829,-2852.6 896.084,-2860.29"/>
<polygon fill="none" stroke="black" points="895.372,-2856.86 886.172,-2862.12 896.641,-2863.75 895.372,-2856.86"/>
</g>
<!-- \\NetCommonsModelTestCase&#45;&gt;\\NetCommonsCakeTestCase -->
<g id="edge29" class="edge"><title>\\NetCommonsModelTestCase&#45;&gt;\\NetCommonsCakeTestCase</title>
<path fill="none" stroke="black" d="M783.181,-2859.65C733.05,-2804.96 584.541,-2642.95 526.562,-2579.7"/>
<polygon fill="none" stroke="black" points="528.972,-2577.15 519.635,-2572.15 523.812,-2581.88 528.972,-2577.15"/>
</g>
<!-- \\NetCommonsControllerTestCase -->
<g id="node16" class="node"><title>\\NetCommonsControllerTestCase</title>
<polygon fill="none" stroke="black" points="1196,-1654 990,-1654 990,-1618 1196,-1618 1196,-1654"/>
<text text-anchor="middle" x="1093" y="-1633.1" font-family="Courier,monospace" font-size="11.00">NetCommonsControllerTestCase</text>
</g>
<!-- \\NetCommonsControllerTestCase&#45;&gt;\\NetCommonsControllerBaseTestCase -->
<g id="edge31" class="edge"><title>\\NetCommonsControllerTestCase&#45;&gt;\\NetCommonsControllerBaseTestCase</title>
<path fill="none" stroke="black" d="M989.699,-1626.48C969.289,-1624.6 947.65,-1622.61 926.571,-1620.66"/>
<polygon fill="none" stroke="black" points="926.885,-1617.18 916.606,-1619.75 926.243,-1624.15 926.885,-1617.18"/>
</g>
<!-- \\NetCommonsAppController -->
<g id="node17" class="node"><title>\\NetCommonsAppController</title>
<polygon fill="none" stroke="black" points="886,-1546 714,-1546 714,-1510 886,-1510 886,-1546"/>
<text text-anchor="middle" x="800" y="-1525.1" font-family="Courier,monospace" font-size="11.00">NetCommonsAppController</text>
</g>
<!-- \\NetCommonsAppController&#45;&gt;\\Controller -->
<g id="edge33" class="edge"><title>\\NetCommonsAppController&#45;&gt;\\Controller</title>
<path fill="none" stroke="black" d="M713.85,-1525.83C701.701,-1521.87 690.484,-1515.61 682,-1506 506.482,-1307.26 779.186,-519.158 610,-315 601.196,-304.376 588.877,-297.593 575.718,-293.33"/>
<polygon fill="none" stroke="black" points="576.596,-289.942 566.025,-290.653 574.732,-296.689 576.596,-289.942"/>
</g>
<!-- \\AssetComponent -->
<g id="node18" class="node"><title>\\AssetComponent</title>
<polygon fill="none" stroke="black" points="1148,-1168 1038,-1168 1038,-1132 1148,-1132 1148,-1168"/>
<text text-anchor="middle" x="1093" y="-1147.1" font-family="Courier,monospace" font-size="11.00">AssetComponent</text>
</g>
<!-- \\Component -->
<g id="node86" class="node"><title>\\Component</title>
<ellipse fill="none" stroke="black" cx="800" cy="-342" rx="70.9184" ry="18.3848"/>
<text text-anchor="middle" x="800" y="-338.4" font-family="Times Roman,serif" font-size="14.00" fill="gray">\Component</text>
</g>
<!-- \\AssetComponent&#45;&gt;\\Component -->
<g id="edge35" class="edge"><title>\\AssetComponent&#45;&gt;\\Component</title>
<path fill="none" stroke="black" d="M1037.41,-1147.67C1019.76,-1144.06 1001.8,-1136.87 990,-1123 880.948,-994.787 1029.05,-495.484 918,-369 908.311,-357.965 895.121,-350.943 881.061,-346.564"/>
<polygon fill="none" stroke="black" points="881.786,-343.135 871.222,-343.939 879.981,-349.899 881.786,-343.135"/>
</g>
<!-- \\AccessCtrlComponent -->
<g id="node19" class="node"><title>\\AccessCtrlComponent</title>
<polygon fill="none" stroke="black" points="1165,-1114 1021,-1114 1021,-1078 1165,-1078 1165,-1114"/>
<text text-anchor="middle" x="1093" y="-1093.1" font-family="Courier,monospace" font-size="11.00">AccessCtrlComponent</text>
</g>
<!-- \\AccessCtrlComponent&#45;&gt;\\Component -->
<g id="edge37" class="edge"><title>\\AccessCtrlComponent&#45;&gt;\\Component</title>
<path fill="none" stroke="black" d="M1020.39,-1088.86C1008.79,-1084.64 997.999,-1078.34 990,-1069 786.502,-831.507 1125.2,-603.266 918,-369 908.271,-358.001 895.062,-350.994 880.998,-346.62"/>
<polygon fill="none" stroke="black" points="881.72,-343.191 871.156,-343.996 879.917,-349.955 881.72,-343.191"/>
</g>
<!-- \\NetCommonsTimeComponent -->
<g id="node20" class="node"><title>\\NetCommonsTimeComponent</title>
<polygon fill="none" stroke="black" points="1179,-1060 1007,-1060 1007,-1024 1179,-1024 1179,-1060"/>
<text text-anchor="middle" x="1093" y="-1039.1" font-family="Courier,monospace" font-size="11.00">NetCommonsTimeComponent</text>
</g>
<!-- \\NetCommonsTimeComponent&#45;&gt;\\Component -->
<g id="edge39" class="edge"><title>\\NetCommonsTimeComponent&#45;&gt;\\Component</title>
<path fill="none" stroke="black" d="M1006.61,-1028.45C1000.38,-1024.87 994.714,-1020.45 990,-1015 801.099,-796.429 1110.31,-584.576 918,-369 908.225,-358.042 894.994,-351.054 880.924,-346.686"/>
<polygon fill="none" stroke="black" points="881.644,-343.256 871.08,-344.064 879.842,-350.02 881.644,-343.256"/>
</g>
<!-- \\PermissionComponent -->
<g id="node21" class="node"><title>\\PermissionComponent</title>
<polygon fill="none" stroke="black" points="1165,-1384 1021,-1384 1021,-1348 1165,-1348 1165,-1384"/>
<text text-anchor="middle" x="1093" y="-1363.1" font-family="Courier,monospace" font-size="11.00">PermissionComponent</text>
</g>
<!-- \\PermissionComponent&#45;&gt;\\Component -->
<g id="edge41" class="edge"><title>\\PermissionComponent&#45;&gt;\\Component</title>
<path fill="none" stroke="black" d="M1020.43,-1359.15C1008.76,-1354.9 997.925,-1348.52 990,-1339 851.705,-1172.88 1058.89,-532.923 918,-369 908.428,-357.863 895.291,-350.795 881.247,-346.403"/>
<polygon fill="none" stroke="black" points="881.977,-342.975 871.412,-343.773 880.168,-349.738 881.977,-342.975"/>
</g>
<!-- \\NetCommonsComponent -->
<g id="node22" class="node"><title>\\NetCommonsComponent</title>
<polygon fill="none" stroke="black" points="1165,-1330 1021,-1330 1021,-1294 1165,-1294 1165,-1330"/>
<text text-anchor="middle" x="1093" y="-1309.1" font-family="Courier,monospace" font-size="11.00">NetCommonsComponent</text>
</g>
<!-- \\NetCommonsComponent&#45;&gt;\\Component -->
<g id="edge43" class="edge"><title>\\NetCommonsComponent&#45;&gt;\\Component</title>
<path fill="none" stroke="black" d="M1020.46,-1305.12C1008.79,-1300.88 997.945,-1294.5 990,-1285 859.019,-1128.36 1051.43,-523.559 918,-369 908.404,-357.884 895.256,-350.825 881.208,-346.436"/>
<polygon fill="none" stroke="black" points="881.937,-343.008 871.373,-343.807 880.13,-349.771 881.937,-343.008"/>
</g>
<!-- \\SiteCloseController -->
<g id="node23" class="node"><title>\\SiteCloseController</title>
<polygon fill="none" stroke="black" points="1165,-1600 1021,-1600 1021,-1564 1165,-1564 1165,-1600"/>
<text text-anchor="middle" x="1093" y="-1579.1" font-family="Courier,monospace" font-size="11.00">SiteCloseController</text>
</g>
<!-- \\SiteCloseController&#45;&gt;\\NetCommonsAppController -->
<g id="edge45" class="edge"><title>\\SiteCloseController&#45;&gt;\\NetCommonsAppController</title>
<path fill="none" stroke="black" d="M1020.2,-1568.58C982.697,-1561.67 936.487,-1553.15 896.097,-1545.71"/>
<polygon fill="none" stroke="black" points="896.702,-1542.26 886.233,-1543.89 895.433,-1549.15 896.702,-1542.26"/>
</g>
<!-- \\NetCommonsController -->
<g id="node24" class="node"><title>\\NetCommonsController</title>
<polygon fill="none" stroke="black" points="1169,-1546 1017,-1546 1017,-1510 1169,-1510 1169,-1546"/>
<text text-anchor="middle" x="1093" y="-1525.1" font-family="Courier,monospace" font-size="11.00">NetCommonsController</text>
</g>
<!-- \\NetCommonsController&#45;&gt;\\NetCommonsAppController -->
<g id="edge47" class="edge"><title>\\NetCommonsController&#45;&gt;\\NetCommonsAppController</title>
<path fill="none" stroke="black" d="M1016.78,-1528C980.049,-1528 935.59,-1528 896.519,-1528"/>
<polygon fill="none" stroke="black" points="896.183,-1524.5 886.183,-1528 896.183,-1531.5 896.183,-1524.5"/>
</g>
<!-- \\NetCommonsUrl -->
<g id="node25" class="node"><title>\\NetCommonsUrl</title>
<polygon fill="none" stroke="black" points="1145,-2356 1041,-2356 1041,-2320 1145,-2320 1145,-2356"/>
<text text-anchor="middle" x="1093" y="-2335.1" font-family="Courier,monospace" font-size="11.00">NetCommonsUrl</text>
</g>
<!-- \\NetCommonsTime -->
<g id="node26" class="node"><title>\\NetCommonsTime</title>
<polygon fill="none" stroke="black" points="1148,-2302 1038,-2302 1038,-2266 1148,-2266 1148,-2302"/>
<text text-anchor="middle" x="1093" y="-2281.1" font-family="Courier,monospace" font-size="11.00">NetCommonsTime</text>
</g>
<!-- \\CurrentBase -->
<g id="node27" class="node"><title>\\CurrentBase</title>
<polygon fill="none" stroke="black" points="845,-1708 755,-1708 755,-1672 845,-1672 845,-1708"/>
<text text-anchor="middle" x="800" y="-1687.1" font-family="Courier,monospace" font-size="11.00">CurrentBase</text>
</g>
<!-- \\Current -->
<g id="node28" class="node"><title>\\Current</title>
<polygon fill="none" stroke="black" points="1125,-1708 1061,-1708 1061,-1672 1125,-1672 1125,-1708"/>
<text text-anchor="middle" x="1093" y="-1687.1" font-family="Courier,monospace" font-size="11.00">Current</text>
</g>
<!-- \\Current&#45;&gt;\\CurrentBase -->
<g id="edge49" class="edge"><title>\\Current&#45;&gt;\\CurrentBase</title>
<path fill="none" stroke="black" d="M1060.81,-1690C1011.48,-1690 916.554,-1690 855.846,-1690"/>
<polygon fill="none" stroke="black" points="855.669,-1686.5 845.669,-1690 855.669,-1693.5 855.669,-1686.5"/>
</g>
<!-- \\CurrentSystem -->
<g id="node29" class="node"><title>\\CurrentSystem</title>
<polygon fill="none" stroke="black" points="1145,-2194 1041,-2194 1041,-2158 1145,-2158 1145,-2194"/>
<text text-anchor="middle" x="1093" y="-2173.1" font-family="Courier,monospace" font-size="11.00">CurrentSystem</text>
</g>
<!-- \\CurrentPage -->
<g id="node30" class="node"><title>\\CurrentPage</title>
<polygon fill="none" stroke="black" points="1138,-2140 1048,-2140 1048,-2104 1138,-2104 1138,-2140"/>
<text text-anchor="middle" x="1093" y="-2119.1" font-family="Courier,monospace" font-size="11.00">CurrentPage</text>
</g>
<!-- \\CurrentFrame -->
<g id="node31" class="node"><title>\\CurrentFrame</title>
<polygon fill="none" stroke="black" points="1142,-2086 1044,-2086 1044,-2050 1142,-2050 1142,-2086"/>
<text text-anchor="middle" x="1093" y="-2065.1" font-family="Courier,monospace" font-size="11.00">CurrentFrame</text>
</g>
<!-- \\TokenHelper -->
<g id="node32" class="node"><title>\\TokenHelper</title>
<polygon fill="none" stroke="black" points="1138,-898 1048,-898 1048,-862 1138,-862 1138,-898"/>
<text text-anchor="middle" x="1093" y="-877.1" font-family="Courier,monospace" font-size="11.00">TokenHelper</text>
</g>
<!-- \\FormHelper -->
<g id="node95" class="node"><title>\\FormHelper</title>
<ellipse fill="none" stroke="black" cx="800" cy="-288" rx="70.9184" ry="18.3848"/>
<text text-anchor="middle" x="800" y="-284.4" font-family="Times Roman,serif" font-size="14.00" fill="gray">\FormHelper</text>
</g>
<!-- \\TokenHelper&#45;&gt;\\FormHelper -->
<g id="edge51" class="edge"><title>\\TokenHelper&#45;&gt;\\FormHelper</title>
<path fill="none" stroke="black" d="M1047.28,-879.062C1026.87,-876.179 1004.26,-869.138 990,-853 830.252,-672.227 1080.57,-493.24 918,-315 908.162,-304.213 894.974,-297.293 880.979,-292.934"/>
<polygon fill="none" stroke="black" points="881.757,-289.519 871.192,-290.31 879.944,-296.281 881.757,-289.519"/>
</g>
<!-- \\SingletonViewBlockHtmlHelper -->
<g id="node33" class="node"><title>\\SingletonViewBlockHtmlHelper</title>
<polygon fill="none" stroke="black" points="1196,-844 990,-844 990,-808 1196,-808 1196,-844"/>
<text text-anchor="middle" x="1093" y="-823.1" font-family="Courier,monospace" font-size="11.00">SingletonViewBlockHtmlHelper</text>
</g>
<!-- \\HtmlHelper -->
<g id="node97" class="node"><title>\\HtmlHelper</title>
<ellipse fill="none" stroke="black" cx="800" cy="-234" rx="67.1751" ry="18.3848"/>
<text text-anchor="middle" x="800" y="-230.4" font-family="Times Roman,serif" font-size="14.00" fill="gray">HtmlHelper</text>
</g>
<!-- \\SingletonViewBlockHtmlHelper&#45;&gt;\\HtmlHelper -->
<g id="edge53" class="edge"><title>\\SingletonViewBlockHtmlHelper&#45;&gt;\\HtmlHelper</title>
<path fill="none" stroke="black" d="M999.785,-807.859C996.23,-805.263 992.938,-802.325 990,-799 830.252,-618.227 1080.57,-439.24 918,-261 907.152,-249.106 892.23,-241.912 876.645,-237.671"/>
<polygon fill="none" stroke="black" points="877.419,-234.258 866.885,-235.397 875.83,-241.075 877.419,-234.258"/>
</g>
<!-- \\FormInputHelper -->
<g id="node34" class="node"><title>\\FormInputHelper</title>
<polygon fill="none" stroke="black" points="1152,-2626 1034,-2626 1034,-2590 1152,-2590 1152,-2626"/>
<text text-anchor="middle" x="1093" y="-2605.1" font-family="Courier,monospace" font-size="11.00">FormInputHelper</text>
</g>
<!-- \\FormInputHelper&#45;&gt;\\AppHelper -->
<g id="edge55" class="edge"><title>\\FormInputHelper&#45;&gt;\\AppHelper</title>
<path fill="none" stroke="black" d="M1033.8,-2599.95C1018.6,-2595.95 1002.91,-2589.96 990,-2581 942.532,-2548.04 851.958,-2399.48 815.638,-2337.89"/>
<polygon fill="none" stroke="black" points="818.569,-2335.97 810.486,-2329.12 812.533,-2339.51 818.569,-2335.97"/>
</g>
<!-- \\WizardHelper -->
<g id="node35" class="node"><title>\\WizardHelper</title>
<polygon fill="none" stroke="black" points="1142,-2572 1044,-2572 1044,-2536 1142,-2536 1142,-2572"/>
<text text-anchor="middle" x="1093" y="-2551.1" font-family="Courier,monospace" font-size="11.00">WizardHelper</text>
</g>
<!-- \\WizardHelper&#45;&gt;\\AppHelper -->
<g id="edge57" class="edge"><title>\\WizardHelper&#45;&gt;\\AppHelper</title>
<path fill="none" stroke="black" d="M1043.97,-2547.31C1026.04,-2543.32 1006.2,-2537 990,-2527 909.876,-2477.56 844.727,-2383.81 815.946,-2337.81"/>
<polygon fill="none" stroke="black" points="818.75,-2335.69 810.523,-2329.02 812.792,-2339.36 818.75,-2335.69"/>
</g>
<!-- \\DisplayNumberHelper -->
<g id="node36" class="node"><title>\\DisplayNumberHelper</title>
<polygon fill="none" stroke="black" points="1165,-2518 1021,-2518 1021,-2482 1165,-2482 1165,-2518"/>
<text text-anchor="middle" x="1093" y="-2497.1" font-family="Courier,monospace" font-size="11.00">DisplayNumberHelper</text>
</g>
<!-- \\DisplayNumberHelper&#45;&gt;\\AppHelper -->
<g id="edge59" class="edge"><title>\\DisplayNumberHelper&#45;&gt;\\AppHelper</title>
<path fill="none" stroke="black" d="M1020.25,-2485.35C1009.81,-2481.99 999.422,-2477.92 990,-2473 921.41,-2437.19 856.097,-2372.56 822.838,-2336.7"/>
<polygon fill="none" stroke="black" points="825.192,-2334.09 815.854,-2329.09 820.033,-2338.83 825.192,-2334.09"/>
</g>
<!-- \\MessageFlashHelper -->
<g id="node37" class="node"><title>\\MessageFlashHelper</title>
<polygon fill="none" stroke="black" points="1162,-2464 1024,-2464 1024,-2428 1162,-2428 1162,-2464"/>
<text text-anchor="middle" x="1093" y="-2443.1" font-family="Courier,monospace" font-size="11.00">MessageFlashHelper</text>
</g>
<!-- \\MessageFlashHelper&#45;&gt;\\AppHelper -->
<g id="edge61" class="edge"><title>\\MessageFlashHelper&#45;&gt;\\AppHelper</title>
<path fill="none" stroke="black" d="M1023.76,-2430.51C1012.32,-2427.2 1000.7,-2423.36 990,-2419 933.066,-2395.82 872.097,-2358.73 835.004,-2334.61"/>
<polygon fill="none" stroke="black" points="836.839,-2331.63 826.557,-2329.07 833.002,-2337.48 836.839,-2331.63"/>
</g>
<!-- \\DateHelper -->
<g id="node38" class="node"><title>\\DateHelper</title>
<polygon fill="none" stroke="black" points="1135,-2410 1051,-2410 1051,-2374 1135,-2374 1135,-2410"/>
<text text-anchor="middle" x="1093" y="-2389.1" font-family="Courier,monospace" font-size="11.00">DateHelper</text>
</g>
<!-- \\DateHelper&#45;&gt;\\AppHelper -->
<g id="edge63" class="edge"><title>\\DateHelper&#45;&gt;\\AppHelper</title>
<path fill="none" stroke="black" d="M1050.85,-2381.16C1032.18,-2376.31 1009.97,-2370.46 990,-2365 941.716,-2351.81 886.728,-2336.11 848.375,-2325.04"/>
<polygon fill="none" stroke="black" points="849.087,-2321.61 838.508,-2322.2 847.145,-2328.33 849.087,-2321.61"/>
</g>
<!-- \\SnsButtonHelper -->
<g id="node39" class="node"><title>\\SnsButtonHelper</title>
<polygon fill="none" stroke="black" points="1152,-2248 1034,-2248 1034,-2212 1152,-2212 1152,-2248"/>
<text text-anchor="middle" x="1093" y="-2227.1" font-family="Courier,monospace" font-size="11.00">SnsButtonHelper</text>
</g>
<!-- \\SnsButtonHelper&#45;&gt;\\AppHelper -->
<g id="edge65" class="edge"><title>\\SnsButtonHelper&#45;&gt;\\AppHelper</title>
<path fill="none" stroke="black" d="M1033.85,-2245.28C1019.48,-2249.06 1004.18,-2253.13 990,-2257 941.716,-2270.19 886.728,-2285.89 848.375,-2296.96"/>
<polygon fill="none" stroke="black" points="847.145,-2293.67 838.508,-2299.8 849.087,-2300.39 847.145,-2293.67"/>
</g>
<!-- \\BackToHelper -->
<g id="node40" class="node"><title>\\BackToHelper</title>
<polygon fill="none" stroke="black" points="1142,-2032 1044,-2032 1044,-1996 1142,-1996 1142,-2032"/>
<text text-anchor="middle" x="1093" y="-2011.1" font-family="Courier,monospace" font-size="11.00">BackToHelper</text>
</g>
<!-- \\BackToHelper&#45;&gt;\\AppHelper -->
<g id="edge67" class="edge"><title>\\BackToHelper&#45;&gt;\\AppHelper</title>
<path fill="none" stroke="black" d="M1043.89,-2019.65C1025.75,-2023.52 1005.79,-2030.03 990,-2041 898.034,-2104.86 835.79,-2228.47 811.457,-2283.46"/>
<polygon fill="none" stroke="black" points="808.13,-2282.34 807.356,-2292.9 814.551,-2285.13 808.13,-2282.34"/>
</g>
<!-- \\NetCommonsHtmlHelper -->
<g id="node41" class="node"><title>\\NetCommonsHtmlHelper</title>
<polygon fill="none" stroke="black" points="1169,-1978 1017,-1978 1017,-1942 1169,-1942 1169,-1978"/>
<text text-anchor="middle" x="1093" y="-1957.1" font-family="Courier,monospace" font-size="11.00">NetCommonsHtmlHelper</text>
</g>
<!-- \\NetCommonsHtmlHelper&#45;&gt;\\AppHelper -->
<g id="edge69" class="edge"><title>\\NetCommonsHtmlHelper&#45;&gt;\\AppHelper</title>
<path fill="none" stroke="black" d="M1016.94,-1972.54C1007.31,-1976.2 998.03,-1980.92 990,-1987 885.624,-2066.08 828.084,-2220.47 808.129,-2283.35"/>
<polygon fill="none" stroke="black" points="804.764,-2282.39 805.144,-2292.97 811.45,-2284.46 804.764,-2282.39"/>
</g>
<!-- \\ButtonHelper -->
<g id="node42" class="node"><title>\\ButtonHelper</title>
<polygon fill="none" stroke="black" points="1142,-1006 1044,-1006 1044,-970 1142,-970 1142,-1006"/>
<text text-anchor="middle" x="1093" y="-985.1" font-family="Courier,monospace" font-size="11.00">ButtonHelper</text>
</g>
<!-- \\ButtonHelper&#45;&gt;\\FormHelper -->
<g id="edge71" class="edge"><title>\\ButtonHelper&#45;&gt;\\FormHelper</title>
<path fill="none" stroke="black" d="M1043.95,-986.726C1024.37,-983.598 1003.36,-976.455 990,-961 801.099,-742.429 1110.31,-530.576 918,-315 908.225,-304.042 894.994,-297.054 880.924,-292.686"/>
<polygon fill="none" stroke="black" points="881.644,-289.256 871.08,-290.064 879.842,-296.02 881.644,-289.256"/>
</g>
<!-- \\ComposerHelper -->
<g id="node43" class="node"><title>\\ComposerHelper</title>
<polygon fill="none" stroke="black" points="1148,-1924 1038,-1924 1038,-1888 1148,-1888 1148,-1924"/>
<text text-anchor="middle" x="1093" y="-1903.1" font-family="Courier,monospace" font-size="11.00">ComposerHelper</text>
</g>
<!-- \\ComposerHelper&#45;&gt;\\AppHelper -->
<g id="edge73" class="edge"><title>\\ComposerHelper&#45;&gt;\\AppHelper</title>
<path fill="none" stroke="black" d="M1037.42,-1911.68C1020.79,-1915.59 1003.43,-1922.12 990,-1933 873.272,-2027.53 821.79,-2212.25 805.802,-2282.74"/>
<polygon fill="none" stroke="black" points="802.349,-2282.15 803.616,-2292.67 809.185,-2283.65 802.349,-2282.15"/>
</g>
<!-- \\LinkButtonHelper -->
<g id="node44" class="node"><title>\\LinkButtonHelper</title>
<polygon fill="none" stroke="black" points="1155,-952 1031,-952 1031,-916 1155,-916 1155,-952"/>
<text text-anchor="middle" x="1093" y="-931.1" font-family="Courier,monospace" font-size="11.00">LinkButtonHelper</text>
</g>
<!-- \\LinkButtonHelper&#45;&gt;\\FormHelper -->
<g id="edge75" class="edge"><title>\\LinkButtonHelper&#45;&gt;\\FormHelper</title>
<path fill="none" stroke="black" d="M1030.36,-929.797C1015.16,-925.79 1000.33,-918.837 990,-907 815.683,-707.337 1095.43,-511.899 918,-315 908.227,-304.155 895.069,-297.207 881.082,-292.841"/>
<polygon fill="none" stroke="black" points="881.864,-289.426 871.298,-290.214 880.049,-296.187 881.864,-289.426"/>
</g>
<!-- \\TableListHelper -->
<g id="node45" class="node"><title>\\TableListHelper</title>
<polygon fill="none" stroke="black" points="1152,-1870 1034,-1870 1034,-1834 1152,-1834 1152,-1870"/>
<text text-anchor="middle" x="1093" y="-1849.1" font-family="Courier,monospace" font-size="11.00">TableListHelper</text>
</g>
<!-- \\TableListHelper&#45;&gt;\\AppHelper -->
<g id="edge77" class="edge"><title>\\TableListHelper&#45;&gt;\\AppHelper</title>
<path fill="none" stroke="black" d="M1033.87,-1858.05C1018.23,-1862.02 1002.3,-1868.5 990,-1879 860.231,-1989.73 815.867,-2206.1 803.825,-2283.03"/>
<polygon fill="none" stroke="black" points="800.362,-2282.52 802.335,-2292.93 807.284,-2283.57 800.362,-2282.52"/>
</g>
<!-- \\NetCommonsTimeHelper -->
<g id="node46" class="node"><title>\\NetCommonsTimeHelper</title>
<polygon fill="none" stroke="black" points="1169,-1816 1017,-1816 1017,-1780 1169,-1780 1169,-1816"/>
<text text-anchor="middle" x="1093" y="-1795.1" font-family="Courier,monospace" font-size="11.00">NetCommonsTimeHelper</text>
</g>
<!-- \\NetCommonsTimeHelper&#45;&gt;\\AppHelper -->
<g id="edge79" class="edge"><title>\\NetCommonsTimeHelper&#45;&gt;\\AppHelper</title>
<path fill="none" stroke="black" d="M1016.79,-1809.09C1007.01,-1812.95 997.733,-1818.12 990,-1825 847.368,-1951.94 810.808,-2199.27 802.341,-2282.73"/>
<polygon fill="none" stroke="black" points="798.852,-2282.44 801.383,-2292.73 805.82,-2283.11 798.852,-2282.44"/>
</g>
<!-- \\NetCommonsFormHelper -->
<g id="node47" class="node"><title>\\NetCommonsFormHelper</title>
<polygon fill="none" stroke="black" points="1169,-1762 1017,-1762 1017,-1726 1169,-1726 1169,-1762"/>
<text text-anchor="middle" x="1093" y="-1741.1" font-family="Courier,monospace" font-size="11.00">NetCommonsFormHelper</text>
</g>
<!-- \\NetCommonsFormHelper&#45;&gt;\\AppHelper -->
<g id="edge81" class="edge"><title>\\NetCommonsFormHelper&#45;&gt;\\AppHelper</title>
<path fill="none" stroke="black" d="M1016.83,-1754.74C1006.99,-1758.66 997.682,-1763.92 990,-1771 834.226,-1914.5 806.135,-2193.3 801.095,-2282.69"/>
<polygon fill="none" stroke="black" points="797.59,-2282.7 800.577,-2292.87 804.581,-2283.06 797.59,-2282.7"/>
</g>
<!-- \\TitleIconHelper -->
<g id="node48" class="node"><title>\\TitleIconHelper</title>
<polygon fill="none" stroke="black" points="1152,-2788 1034,-2788 1034,-2752 1152,-2752 1152,-2788"/>
<text text-anchor="middle" x="1093" y="-2767.1" font-family="Courier,monospace" font-size="11.00">TitleIconHelper</text>
</g>
<!-- \\TitleIconHelper&#45;&gt;\\AppHelper -->
<g id="edge83" class="edge"><title>\\TitleIconHelper&#45;&gt;\\AppHelper</title>
<path fill="none" stroke="black" d="M1033.78,-2765.14C1017.87,-2761.2 1001.82,-2754.45 990,-2743 909.099,-2664.62 964.248,-2602.71 918,-2500 890.254,-2438.38 845.427,-2372.85 819.751,-2337.44"/>
<polygon fill="none" stroke="black" points="822.386,-2335.11 813.658,-2329.1 816.735,-2339.24 822.386,-2335.11"/>
</g>
<!-- \\DatetimePickerHelper -->
<g id="node49" class="node"><title>\\DatetimePickerHelper</title>
<polygon fill="none" stroke="black" points="1169,-2734 1017,-2734 1017,-2698 1169,-2698 1169,-2734"/>
<text text-anchor="middle" x="1093" y="-2713.1" font-family="Courier,monospace" font-size="11.00">DatetimePickerHelper</text>
</g>
<!-- \\DatetimePickerHelper&#45;&gt;\\AppHelper -->
<g id="edge85" class="edge"><title>\\DatetimePickerHelper&#45;&gt;\\AppHelper</title>
<path fill="none" stroke="black" d="M1017,-2705.08C1007.13,-2701.19 997.772,-2695.98 990,-2689 923.113,-2628.95 957.991,-2580.5 918,-2500 887.857,-2439.32 843.722,-2373.2 818.853,-2337.49"/>
<polygon fill="none" stroke="black" points="821.57,-2335.27 812.965,-2329.08 815.837,-2339.28 821.57,-2335.27"/>
</g>
<!-- \\Model -->
<g id="node115" class="node"><title>\\Model</title>
<ellipse fill="none" stroke="black" cx="44" cy="-3040" rx="43.8406" ry="18.3848"/>
<text text-anchor="middle" x="44" y="-3036.4" font-family="Times Roman,serif" font-size="14.00" fill="gray">\Model</text>
</g>
<!-- \\NetCommonsAppModel&#45;&gt;\\Model -->
<g id="edge87" class="edge"><title>\\NetCommonsAppModel&#45;&gt;\\Model</title>
<path fill="none" stroke="black" d="M172.749,-3040C148.379,-3040 121.357,-3040 98.3871,-3040"/>
<polygon fill="none" stroke="black" points="98.1425,-3036.5 88.1425,-3040 98.1424,-3043.5 98.1425,-3036.5"/>
</g>
<!-- \\OriginalKeyBehavior -->
<g id="node51" class="node"><title>\\OriginalKeyBehavior</title>
<polygon fill="none" stroke="black" points="1165,-682 1021,-682 1021,-646 1165,-646 1165,-682"/>
<text text-anchor="middle" x="1093" y="-661.1" font-family="Courier,monospace" font-size="11.00">OriginalKeyBehavior</text>
</g>
<!-- \\ModelBehavior -->
<g id="node117" class="node"><title>\\ModelBehavior</title>
<ellipse fill="none" stroke="black" cx="800" cy="-180" rx="86.9741" ry="18.3848"/>
<text text-anchor="middle" x="800" y="-176.4" font-family="Times Roman,serif" font-size="14.00" fill="gray">\ModelBehavior</text>
</g>
<!-- \\OriginalKeyBehavior&#45;&gt;\\ModelBehavior -->
<g id="edge89" class="edge"><title>\\OriginalKeyBehavior&#45;&gt;\\ModelBehavior</title>
<path fill="none" stroke="black" d="M1020.34,-656.25C1008.9,-652.073 998.166,-645.94 990,-637 859.318,-493.927 1050.91,-348.002 918,-207 910.736,-199.293 901.758,-193.575 892.025,-189.36"/>
<polygon fill="none" stroke="black" points="893.083,-186.019 882.491,-185.764 890.613,-192.568 893.083,-186.019"/>
</g>
<!-- \\TrackableBehavior -->
<g id="node52" class="node"><title>\\TrackableBehavior</title>
<polygon fill="none" stroke="black" points="1158,-790 1028,-790 1028,-754 1158,-754 1158,-790"/>
<text text-anchor="middle" x="1093" y="-769.1" font-family="Courier,monospace" font-size="11.00">TrackableBehavior</text>
</g>
<!-- \\TrackableBehavior&#45;&gt;\\ModelBehavior -->
<g id="edge91" class="edge"><title>\\TrackableBehavior&#45;&gt;\\ModelBehavior</title>
<path fill="none" stroke="black" d="M1027.24,-766.821C1013.18,-762.704 999.671,-755.943 990,-745 830.252,-564.227 1080.57,-385.24 918,-207 910.917,-199.234 902.097,-193.472 892.49,-189.227"/>
<polygon fill="none" stroke="black" points="893.659,-185.927 883.069,-185.607 891.148,-192.461 893.659,-185.927"/>
</g>
<!-- \\YAExceptionRenderer -->
<g id="node53" class="node"><title>\\YAExceptionRenderer</title>
<polygon fill="none" stroke="black" points="1165,-628 1021,-628 1021,-592 1165,-592 1165,-628"/>
<text text-anchor="middle" x="1093" y="-607.1" font-family="Courier,monospace" font-size="11.00">YAExceptionRenderer</text>
</g>
<!-- \\ExceptionRenderer -->
<g id="node120" class="node"><title>\\ExceptionRenderer</title>
<ellipse fill="none" stroke="black" cx="800" cy="-126" rx="118.087" ry="18.3848"/>
<text text-anchor="middle" x="800" y="-122.4" font-family="Times Roman,serif" font-size="14.00" fill="gray">TEHxceptionRenderer</text>
</g>
<!-- \\YAExceptionRenderer&#45;&gt;\\ExceptionRenderer -->
<g id="edge93" class="edge"><title>\\YAExceptionRenderer&#45;&gt;\\ExceptionRenderer</title>
<path fill="none" stroke="black" d="M1020.34,-602.25C1008.9,-598.073 998.166,-591.94 990,-583 859.318,-439.927 1050.91,-294.002 918,-153 913.844,-148.591 909.128,-144.833 904.031,-141.635"/>
<polygon fill="none" stroke="black" points="905.577,-138.492 895.123,-136.766 902.219,-144.634 905.577,-138.492"/>
</g>
<!-- \\NetCommonsMigration -->
<g id="node54" class="node"><title>\\NetCommonsMigration</title>
<polygon fill="none" stroke="black" points="1165,-574 1021,-574 1021,-538 1165,-538 1165,-574"/>
<text text-anchor="middle" x="1093" y="-553.1" font-family="Courier,monospace" font-size="11.00">NetCommonsMigration</text>
</g>
<!-- \\CakeMigration -->
<g id="node122" class="node"><title>\\CakeMigration</title>
<ellipse fill="none" stroke="black" cx="800" cy="-72" rx="84.8528" ry="18.3848"/>
<text text-anchor="middle" x="800" y="-68.4" font-family="Times Roman,serif" font-size="14.00" fill="gray">\CakeMigration</text>
</g>
<!-- \\NetCommonsMigration&#45;&gt;\\CakeMigration -->
<g id="edge95" class="edge"><title>\\NetCommonsMigration&#45;&gt;\\CakeMigration</title>
<path fill="none" stroke="black" d="M1020.34,-548.25C1008.9,-544.073 998.166,-537.94 990,-529 859.318,-385.927 1050.91,-240.002 918,-99 910.44,-90.9799 901.025,-85.1126 890.833,-80.8528"/>
<polygon fill="none" stroke="black" points="891.879,-77.5089 881.284,-77.377 889.484,-84.0866 891.879,-77.5089"/>
</g>
<!-- \\CategoriesComponent -->
<g id="node55" class="node"><title>\\CategoriesComponent</title>
<polygon fill="none" stroke="black" points="1165,-1276 1021,-1276 1021,-1240 1165,-1240 1165,-1276"/>
<text text-anchor="middle" x="1093" y="-1255.1" font-family="Courier,monospace" font-size="11.00">CategoriesComponent</text>
</g>
<!-- \\CategoriesComponent&#45;&gt;\\Component -->
<g id="edge97" class="edge"><title>\\CategoriesComponent&#45;&gt;\\Component</title>
<path fill="none" stroke="black" d="M1020.24,-1250.99C1008.66,-1246.75 997.909,-1240.41 990,-1231 866.331,-1083.84 1043.97,-514.197 918,-369 908.377,-357.908 895.216,-350.859 881.165,-346.473"/>
<polygon fill="none" stroke="black" points="881.893,-343.045 871.328,-343.845 880.086,-349.808 881.893,-343.045"/>
</g>
<!-- \\CategoryEditComponent -->
<g id="node56" class="node"><title>\\CategoryEditComponent</title>
<polygon fill="none" stroke="black" points="1172,-1222 1014,-1222 1014,-1186 1172,-1186 1172,-1222"/>
<text text-anchor="middle" x="1093" y="-1201.1" font-family="Courier,monospace" font-size="11.00">CategoryEditComponent</text>
</g>
<!-- \\CategoryEditComponent&#45;&gt;\\Component -->
<g id="edge99" class="edge"><title>\\CategoryEditComponent&#45;&gt;\\Component</title>
<path fill="none" stroke="black" d="M1013.85,-1194.34C1004.75,-1190.23 996.444,-1184.62 990,-1177 873.641,-1039.32 1036.51,-504.839 918,-369 908.346,-357.935 895.171,-350.898 881.117,-346.516"/>
<polygon fill="none" stroke="black" points="881.843,-343.087 871.278,-343.889 880.037,-349.85 881.843,-343.087"/>
</g>
<!-- \\CategoryHelper -->
<g id="node57" class="node"><title>\\CategoryHelper</title>
<polygon fill="none" stroke="black" points="1148,-2680 1038,-2680 1038,-2644 1148,-2644 1148,-2680"/>
<text text-anchor="middle" x="1093" y="-2659.1" font-family="Courier,monospace" font-size="11.00">CategoryHelper</text>
</g>
<!-- \\CategoryHelper&#45;&gt;\\AppHelper -->
<g id="edge101" class="edge"><title>\\CategoryHelper&#45;&gt;\\AppHelper</title>
<path fill="none" stroke="black" d="M1037.31,-2656.06C1020.77,-2652.13 1003.49,-2645.66 990,-2635 936.641,-2592.85 952.026,-2558.87 918,-2500 884.007,-2441.18 841.122,-2374.12 817.542,-2337.8"/>
<polygon fill="none" stroke="black" points="820.368,-2335.73 811.98,-2329.26 814.501,-2339.55 820.368,-2335.73"/>
</g>
<!-- \\CategoriesAppModel -->
<g id="node58" class="node"><title>\\CategoriesAppModel</title>
<polygon fill="none" stroke="black" points="869,-3085 731,-3085 731,-3049 869,-3049 869,-3085"/>
<text text-anchor="middle" x="800" y="-3064.1" font-family="Courier,monospace" font-size="11.00">CategoriesAppModel</text>
</g>
<!-- \\CategoriesAppModel&#45;&gt;\\AppModel -->
<g id="edge103" class="edge"><title>\\CategoriesAppModel&#45;&gt;\\AppModel</title>
<path fill="none" stroke="black" d="M730.742,-3060.7C674.69,-3055.61 597.337,-3048.58 548.757,-3044.16"/>
<polygon fill="none" stroke="black" points="548.824,-3040.65 538.548,-3043.23 548.19,-3047.62 548.824,-3040.65"/>
</g>
<!-- \\CategoryBehavior -->
<g id="node59" class="node"><title>\\CategoryBehavior</title>
<polygon fill="none" stroke="black" points="1155,-736 1031,-736 1031,-700 1155,-700 1155,-736"/>
<text text-anchor="middle" x="1093" y="-715.1" font-family="Courier,monospace" font-size="11.00">CategoryBehavior</text>
</g>
<!-- \\CategoryBehavior&#45;&gt;\\ModelBehavior -->
<g id="edge105" class="edge"><title>\\CategoryBehavior&#45;&gt;\\ModelBehavior</title>
<path fill="none" stroke="black" d="M1030.3,-713.541C1015.2,-709.523 1000.43,-702.629 990,-691 844.8,-529.094 1065.73,-366.605 918,-207 910.86,-199.286 902.006,-193.556 892.38,-189.328"/>
<polygon fill="none" stroke="black" points="893.536,-186.023 882.945,-185.72 891.035,-192.561 893.536,-186.023"/>
</g>
<!-- \\Category -->
<g id="node60" class="node"><title>\\Category</title>
<polygon fill="none" stroke="black" points="1128,-3112 1058,-3112 1058,-3076 1128,-3076 1128,-3112"/>
<text text-anchor="middle" x="1093" y="-3091.1" font-family="Courier,monospace" font-size="11.00">Category</text>
</g>
<!-- \\Category&#45;&gt;\\CategoriesAppModel -->
<g id="edge107" class="edge"><title>\\Category&#45;&gt;\\CategoriesAppModel</title>
<path fill="none" stroke="black" d="M1057.37,-3090.72C1013.41,-3086.67 937.397,-3079.66 879.34,-3074.31"/>
<polygon fill="none" stroke="black" points="879.367,-3070.8 869.088,-3073.37 878.725,-3077.77 879.367,-3070.8"/>
</g>
<!-- \\CategoryOrder -->
<g id="node61" class="node"><title>\\CategoryOrder</title>
<polygon fill="none" stroke="black" points="1145,-3058 1041,-3058 1041,-3022 1145,-3022 1145,-3058"/>
<text text-anchor="middle" x="1093" y="-3037.1" font-family="Courier,monospace" font-size="11.00">CategoryOrder</text>
</g>
<!-- \\CategoryOrder&#45;&gt;\\CategoriesAppModel -->
<g id="edge109" class="edge"><title>\\CategoryOrder&#45;&gt;\\CategoriesAppModel</title>
<path fill="none" stroke="black" d="M1040.96,-3044.8C996.092,-3048.93 930.628,-3054.96 879.253,-3059.7"/>
<polygon fill="none" stroke="black" points="878.813,-3056.22 869.177,-3060.63 879.456,-3063.19 878.813,-3056.22"/>
</g>
<!-- \\CategoriesSchema -->
<g id="node62" class="node"><title>\\CategoriesSchema</title>
<polygon fill="none" stroke="black" points="1155,-466 1031,-466 1031,-430 1155,-430 1155,-466"/>
<text text-anchor="middle" x="1093" y="-445.1" font-family="Courier,monospace" font-size="11.00">CategoriesSchema</text>
</g>
<!-- \\CakeSchema -->
<g id="node131" class="node"><title>\\CakeSchema</title>
<ellipse fill="none" stroke="black" cx="800" cy="-18" rx="77.0746" ry="18.3848"/>
<text text-anchor="middle" x="800" y="-14.4" font-family="Times Roman,serif" font-size="14.00" fill="gray">\CakeSchema</text>
</g>
<!-- \\CategoriesSchema&#45;&gt;\\CakeSchema -->
<g id="edge111" class="edge"><title>\\CategoriesSchema&#45;&gt;\\CakeSchema</title>
<path fill="none" stroke="black" d="M1090.86,-429.713C1082.37,-365.789 1045.04,-150.503 918,-45 907.886,-36.6012 895.67,-30.6949 882.982,-26.5644"/>
<polygon fill="none" stroke="black" points="883.793,-23.1556 873.214,-23.74 881.848,-29.8801 883.793,-23.1556"/>
</g>
<!-- \\Init -->
<g id="node63" class="node"><title>\\Init</title>
<polygon fill="none" stroke="black" points="1120,-520 1066,-520 1066,-484 1120,-484 1120,-520"/>
<text text-anchor="middle" x="1093" y="-499.1" font-family="Courier,monospace" font-size="11.00">Init</text>
</g>
<!-- \\Init&#45;&gt;\\CakeMigration -->
<g id="edge113" class="edge"><title>\\Init&#45;&gt;\\CakeMigration</title>
<path fill="none" stroke="black" d="M1065.78,-502.438C1042.33,-501.269 1009.32,-495.66 990,-475 873.795,-350.716 1036.14,-221.443 918,-99 910.347,-91.0685 900.877,-85.2535 890.656,-81.0209"/>
<polygon fill="none" stroke="black" points="891.684,-77.6706 881.089,-77.5632 889.304,-84.2538 891.684,-77.6706"/>
</g>
</g>
</svg>
