<?xml version="1.0" encoding="UTF-8" standalone="no"?>
<!DOCTYPE svg PUBLIC "-//W3C//DTD SVG 1.1//EN"
 "http://www.w3.org/Graphics/SVG/1.1/DTD/svg11.dtd">
<!-- Generated by graphviz version 2.26.3 (20100126.1600)
 -->
<!-- Title: G Pages: 1 -->
<svg width="1220pt" height="2996pt"
 viewBox="0.00 0.00 1220.00 2996.00" xmlns="http://www.w3.org/2000/svg" xmlns:xlink="http://www.w3.org/1999/xlink">
<g id="graph1" class="graph" transform="scale(1 1) rotate(0) translate(4 2992)">
<title>G</title>
<polygon fill="white" stroke="white" points="-4,5 -4,-2992 1217,-2992 1217,5 -4,5"/>
<g id="graph2" class="cluster"><title>cluster_Global</title>
<polyline fill="none" stroke="gray" points="177,-422 1192,-422 "/>
<path fill="none" stroke="gray" d="M1192,-422C1198,-422 1204,-428 1204,-434"/>
<polyline fill="none" stroke="gray" points="1204,-434 1204,-2968 "/>
<path fill="none" stroke="gray" d="M1204,-2968C1204,-2974 1198,-2980 1192,-2980"/>
<polyline fill="none" stroke="gray" points="1192,-2980 177,-2980 "/>
<path fill="none" stroke="gray" d="M177,-2980C171,-2980 165,-2974 165,-2968"/>
<polyline fill="none" stroke="gray" points="165,-2968 165,-434 "/>
<path fill="none" stroke="gray" d="M165,-434C165,-428 171,-422 177,-422"/>
<text text-anchor="middle" x="684.5" y="-2966.1" font-family="Times Roman,serif" font-size="11.00" fill="gray">Global</text>
</g>
<!-- \\AppController -->
<g id="node2" class="node"><title>\\AppController</title>
<polygon fill="none" stroke="black" points="1145,-1438 1041,-1438 1041,-1402 1145,-1402 1145,-1438"/>
<text text-anchor="middle" x="1093" y="-1417.1" font-family="Courier,monospace" font-size="11.00">AppController</text>
</g>
<!-- \\Controller -->
<g id="node62" class="node"><title>\\Controller</title>
<ellipse fill="none" stroke="black" cx="503" cy="-288" rx="63.1385" ry="18.3848"/>
<text text-anchor="middle" x="503" y="-284.4" font-family="Times Roman,serif" font-size="14.00" fill="gray">\Controller</text>
</g>
<!-- \\AppController&#45;&gt;\\Controller -->
<g id="edge3" class="edge"><title>\\AppController&#45;&gt;\\Controller</title>
<path fill="none" stroke="black" d="M1040.82,-1416.25C1022.85,-1412.58 1003.8,-1405.71 990,-1393 978.321,-1382.25 621.728,-325.699 610,-315 600.018,-305.894 587.416,-299.756 574.394,-295.642"/>
<polygon fill="none" stroke="black" points="574.962,-292.168 564.391,-292.875 573.096,-298.914 574.962,-292.168"/>
</g>
<!-- \\AppModel -->
<g id="node3" class="node"><title>\\AppModel</title>
<polygon fill="none" stroke="black" points="538,-2896 468,-2896 468,-2860 538,-2860 538,-2896"/>
<text text-anchor="middle" x="503" y="-2875.1" font-family="Courier,monospace" font-size="11.00">AppModel</text>
</g>
<!-- \\NetCommonsAppModel -->
<g id="node47" class="node"><title>\\NetCommonsAppModel</title>
<polygon fill="none" stroke="black" points="311,-2896 173,-2896 173,-2860 311,-2860 311,-2896"/>
<text text-anchor="middle" x="242" y="-2875.1" font-family="Courier,monospace" font-size="11.00">NetCommonsAppModel</text>
</g>
<!-- \\AppModel&#45;&gt;\\NetCommonsAppModel -->
<g id="edge5" class="edge"><title>\\AppModel&#45;&gt;\\NetCommonsAppModel</title>
<path fill="none" stroke="black" d="M467.256,-2878C429.848,-2878 369.903,-2878 321.254,-2878"/>
<polygon fill="none" stroke="black" points="321.056,-2874.5 311.056,-2878 321.056,-2881.5 321.056,-2874.5"/>
</g>
<!-- \\DatabaseConfiguration -->
<g id="node4" class="node"><title>\\DatabaseConfiguration</title>
<polygon fill="none" stroke="black" points="879,-2869 721,-2869 721,-2833 879,-2833 879,-2869"/>
<text text-anchor="middle" x="800" y="-2848.1" font-family="Courier,monospace" font-size="11.00">DatabaseConfiguration</text>
</g>
<!-- \\DatabaseConfiguration&#45;&gt;\\AppModel -->
<g id="edge7" class="edge"><title>\\DatabaseConfiguration&#45;&gt;\\AppModel</title>
<path fill="none" stroke="black" d="M720.8,-2858.2C665.959,-2863.19 594.863,-2869.65 549.084,-2873.81"/>
<polygon fill="none" stroke="black" points="548.509,-2870.35 538.867,-2874.74 549.143,-2877.32 548.509,-2870.35"/>
</g>
<!-- \\AppHelper -->
<g id="node5" class="node"><title>\\AppHelper</title>
<polygon fill="none" stroke="black" points="838,-1978 762,-1978 762,-1942 838,-1942 838,-1978"/>
<text text-anchor="middle" x="800" y="-1957.1" font-family="Courier,monospace" font-size="11.00">AppHelper</text>
</g>
<!-- \\Helper -->
<g id="node66" class="node"><title>\\Helper</title>
<ellipse fill="none" stroke="black" cx="503" cy="-396" rx="43.8406" ry="18.3848"/>
<text text-anchor="middle" x="503" y="-392.4" font-family="Times Roman,serif" font-size="14.00" fill="gray">Helper</text>
</g>
<!-- \\AppHelper&#45;&gt;\\Helper -->
<g id="edge9" class="edge"><title>\\AppHelper&#45;&gt;\\Helper</title>
<path fill="none" stroke="black" d="M791.967,-1941.82C769.782,-1890.66 707.624,-1740.57 682,-1609 656.657,-1478.87 696.838,-518.176 610,-418 596.883,-402.868 576.382,-396.476 556.821,-394.189"/>
<polygon fill="none" stroke="black" points="556.978,-390.69 546.721,-393.342 556.394,-397.665 556.978,-390.69"/>
</g>
<!-- \\NetCommonsDeleteTest -->
<g id="node6" class="node"><title>\\NetCommonsDeleteTest</title>
<polygon fill="none" stroke="black" points="1169,-2788 1017,-2788 1017,-2752 1169,-2752 1169,-2788"/>
<text text-anchor="middle" x="1093" y="-2767.1" font-family="Courier,monospace" font-size="11.00">NetCommonsDeleteTest</text>
</g>
<!-- \\NetCommonsModelTestCase -->
<g id="node15" class="node"><title>\\NetCommonsModelTestCase</title>
<polygon fill="none" stroke="black" points="886,-2734 714,-2734 714,-2698 886,-2698 886,-2734"/>
<text text-anchor="middle" x="800" y="-2713.1" font-family="Courier,monospace" font-size="11.00">NetCommonsModelTestCase</text>
</g>
<!-- \\NetCommonsDeleteTest&#45;&gt;\\NetCommonsModelTestCase -->
<g id="edge11" class="edge"><title>\\NetCommonsDeleteTest&#45;&gt;\\NetCommonsModelTestCase</title>
<path fill="none" stroke="black" d="M1016.78,-2755.95C979.893,-2749.15 935.211,-2740.92 896.02,-2733.7"/>
<polygon fill="none" stroke="black" points="896.652,-2730.25 886.183,-2731.88 895.383,-2737.14 896.652,-2730.25"/>
</g>
<!-- \\NetCommonsConsoleTestCase -->
<g id="node7" class="node"><title>\\NetCommonsConsoleTestCase</title>
<polygon fill="none" stroke="black" points="892,-2383 708,-2383 708,-2347 892,-2347 892,-2383"/>
<text text-anchor="middle" x="800" y="-2362.1" font-family="Courier,monospace" font-size="11.00">NetCommonsConsoleTestCase</text>
</g>
<!-- \\NetCommonsCakeTestCase -->
<g id="node13" class="node"><title>\\NetCommonsCakeTestCase</title>
<polygon fill="none" stroke="black" points="585,-2356 421,-2356 421,-2320 585,-2320 585,-2356"/>
<text text-anchor="middle" x="503" y="-2335.1" font-family="Courier,monospace" font-size="11.00">NetCommonsCakeTestCase</text>
</g>
<!-- \\NetCommonsConsoleTestCase&#45;&gt;\\NetCommonsCakeTestCase -->
<g id="edge13" class="edge"><title>\\NetCommonsConsoleTestCase&#45;&gt;\\NetCommonsCakeTestCase</title>
<path fill="none" stroke="black" d="M707.249,-2356.57C671.93,-2353.36 631.688,-2349.7 596.316,-2346.48"/>
<polygon fill="none" stroke="black" points="596.269,-2342.96 585.993,-2345.54 595.635,-2349.94 596.269,-2342.96"/>
</g>
<!-- \\NetCommonsGetTest -->
<g id="node8" class="node"><title>\\NetCommonsGetTest</title>
<polygon fill="none" stroke="black" points="1158,-2734 1028,-2734 1028,-2698 1158,-2698 1158,-2734"/>
<text text-anchor="middle" x="1093" y="-2713.1" font-family="Courier,monospace" font-size="11.00">NetCommonsGetTest</text>
</g>
<!-- \\NetCommonsGetTest&#45;&gt;\\NetCommonsModelTestCase -->
<g id="edge15" class="edge"><title>\\NetCommonsGetTest&#45;&gt;\\NetCommonsModelTestCase</title>
<path fill="none" stroke="black" d="M1027.25,-2716C988.664,-2716 939.217,-2716 896.305,-2716"/>
<polygon fill="none" stroke="black" points="896.12,-2712.5 886.12,-2716 896.12,-2719.5 896.12,-2712.5"/>
</g>
<!-- \\NetCommonsHelperTestCase -->
<g id="node9" class="node"><title>\\NetCommonsHelperTestCase</title>
<polygon fill="none" stroke="black" points="889,-2329 711,-2329 711,-2293 889,-2293 889,-2329"/>
<text text-anchor="middle" x="800" y="-2308.1" font-family="Courier,monospace" font-size="11.00">NetCommonsHelperTestCase</text>
</g>
<!-- \\NetCommonsHelperTestCase&#45;&gt;\\NetCommonsCakeTestCase -->
<g id="edge17" class="edge"><title>\\NetCommonsHelperTestCase&#45;&gt;\\NetCommonsCakeTestCase</title>
<path fill="none" stroke="black" d="M710.487,-2319.14C674.267,-2322.43 632.456,-2326.23 595.9,-2329.55"/>
<polygon fill="none" stroke="black" points="595.379,-2326.09 585.737,-2330.48 596.013,-2333.06 595.379,-2326.09"/>
</g>
<!-- \\NetCommonsControllerBaseTestCase -->
<g id="node10" class="node"><title>\\NetCommonsControllerBaseTestCase</title>
<polygon fill="none" stroke="black" points="916,-1546 684,-1546 684,-1510 916,-1510 916,-1546"/>
<text text-anchor="middle" x="800" y="-1525.1" font-family="Courier,monospace" font-size="11.00">NetCommonsControllerBaseTestCase</text>
</g>
<!-- \\ControllerTestCase -->
<g id="node72" class="node"><title>\\ControllerTestCase</title>
<ellipse fill="none" stroke="black" cx="503" cy="-342" rx="106.773" ry="18.3848"/>
<text text-anchor="middle" x="503" y="-338.4" font-family="Times Roman,serif" font-size="14.00" fill="gray">\ControllerTestCase</text>
</g>
<!-- \\NetCommonsControllerBaseTestCase&#45;&gt;\\ControllerTestCase -->
<g id="edge19" class="edge"><title>\\NetCommonsControllerBaseTestCase&#45;&gt;\\ControllerTestCase</title>
<path fill="none" stroke="black" d="M789.662,-1509.73C765.844,-1466.63 707.219,-1354.6 682,-1253 634.519,-1061.71 737.34,-519.436 610,-369 606.364,-364.704 602.153,-361.039 597.548,-357.916"/>
<polygon fill="none" stroke="black" points="599.274,-354.871 588.872,-352.861 595.75,-360.919 599.274,-354.871"/>
</g>
<!-- \\NetCommonsValidateTest -->
<g id="node11" class="node"><title>\\NetCommonsValidateTest</title>
<polygon fill="none" stroke="black" points="1175,-2680 1011,-2680 1011,-2644 1175,-2644 1175,-2680"/>
<text text-anchor="middle" x="1093" y="-2659.1" font-family="Courier,monospace" font-size="11.00">NetCommonsValidateTest</text>
</g>
<!-- \\NetCommonsValidateTest&#45;&gt;\\NetCommonsModelTestCase -->
<g id="edge21" class="edge"><title>\\NetCommonsValidateTest&#45;&gt;\\NetCommonsModelTestCase</title>
<path fill="none" stroke="black" d="M1010.21,-2677.26C974.791,-2683.79 933.196,-2691.45 896.397,-2698.23"/>
<polygon fill="none" stroke="black" points="895.354,-2694.87 886.154,-2700.12 896.623,-2701.75 895.354,-2694.87"/>
</g>
<!-- \\NetCommonsTestSuite -->
<g id="node12" class="node"><title>\\NetCommonsTestSuite</title>
<polygon fill="none" stroke="black" points="1165,-1384 1021,-1384 1021,-1348 1165,-1348 1165,-1384"/>
<text text-anchor="middle" x="1093" y="-1363.1" font-family="Courier,monospace" font-size="11.00">NetCommonsTestSuite</text>
</g>
<!-- \\CakeTestSuite -->
<g id="node75" class="node"><title>\\CakeTestSuite</title>
<ellipse fill="none" stroke="black" cx="800" cy="-396" rx="84.1457" ry="18.3848"/>
<text text-anchor="middle" x="800" y="-392.4" font-family="Times Roman,serif" font-size="14.00" fill="gray">\CakeTestSuite</text>
</g>
<!-- \\NetCommonsTestSuite&#45;&gt;\\CakeTestSuite -->
<g id="edge23" class="edge"><title>\\NetCommonsTestSuite&#45;&gt;\\CakeTestSuite</title>
<path fill="none" stroke="black" d="M1020.46,-1359.12C1008.78,-1354.88 997.943,-1348.5 990,-1339 858.342,-1181.49 1055.25,-570.67 918,-418 911.208,-410.445 902.724,-404.97 893.438,-401.056"/>
<polygon fill="none" stroke="black" points="894.513,-397.723 883.919,-397.643 892.151,-404.312 894.513,-397.723"/>
</g>
<!-- \\CakeTestCase -->
<g id="node77" class="node"><title>\\CakeTestCase</title>
<ellipse fill="none" stroke="black" cx="242" cy="-396" rx="82.0244" ry="18.3848"/>
<text text-anchor="middle" x="242" y="-392.4" font-family="Times Roman,serif" font-size="14.00" fill="gray">\CakeTestCase</text>
</g>
<!-- \\NetCommonsCakeTestCase&#45;&gt;\\CakeTestCase -->
<g id="edge25" class="edge"><title>\\NetCommonsCakeTestCase&#45;&gt;\\CakeTestCase</title>
<path fill="none" stroke="black" d="M420.379,-2333.01C411.05,-2329.21 402.559,-2323.74 396,-2316 259.566,-2154.99 455.598,-582.985 324,-418 322.311,-415.883 320.442,-413.956 318.428,-412.203"/>
<polygon fill="none" stroke="black" points="320.201,-409.171 310.01,-406.272 316.169,-414.893 320.201,-409.171"/>
</g>
<!-- \\NetCommonsSaveTest -->
<g id="node14" class="node"><title>\\NetCommonsSaveTest</title>
<polygon fill="none" stroke="black" points="1162,-2842 1024,-2842 1024,-2806 1162,-2806 1162,-2842"/>
<text text-anchor="middle" x="1093" y="-2821.1" font-family="Courier,monospace" font-size="11.00">NetCommonsSaveTest</text>
</g>
<!-- \\NetCommonsSaveTest&#45;&gt;\\NetCommonsModelTestCase -->
<g id="edge27" class="edge"><title>\\NetCommonsSaveTest&#45;&gt;\\NetCommonsModelTestCase</title>
<path fill="none" stroke="black" d="M1023.88,-2807.38C1012.48,-2804.21 1000.84,-2800.71 990,-2797 940.27,-2779.98 885.199,-2755.9 847.206,-2738.42"/>
<polygon fill="none" stroke="black" points="848.474,-2735.15 837.929,-2734.12 845.534,-2741.5 848.474,-2735.15"/>
</g>
<!-- \\NetCommonsModelTestCase&#45;&gt;\\NetCommonsCakeTestCase -->
<g id="edge29" class="edge"><title>\\NetCommonsModelTestCase&#45;&gt;\\NetCommonsCakeTestCase</title>
<path fill="none" stroke="black" d="M785.675,-2697.77C737.351,-2636.26 580.201,-2436.26 523.574,-2364.19"/>
<polygon fill="none" stroke="black" points="526.112,-2361.75 517.181,-2356.05 520.607,-2366.07 526.112,-2361.75"/>
</g>
<!-- \\NetCommonsControllerTestCase -->
<g id="node16" class="node"><title>\\NetCommonsControllerTestCase</title>
<polygon fill="none" stroke="black" points="1196,-1546 990,-1546 990,-1510 1196,-1510 1196,-1546"/>
<text text-anchor="middle" x="1093" y="-1525.1" font-family="Courier,monospace" font-size="11.00">NetCommonsControllerTestCase</text>
</g>
<!-- \\NetCommonsControllerTestCase&#45;&gt;\\NetCommonsControllerBaseTestCase -->
<g id="edge31" class="edge"><title>\\NetCommonsControllerTestCase&#45;&gt;\\NetCommonsControllerBaseTestCase</title>
<path fill="none" stroke="black" d="M989.699,-1528C969.381,-1528 947.845,-1528 926.858,-1528"/>
<polygon fill="none" stroke="black" points="926.606,-1524.5 916.606,-1528 926.606,-1531.5 926.606,-1524.5"/>
</g>
<!-- \\NetCommonsAppController -->
<g id="node17" class="node"><title>\\NetCommonsAppController</title>
<polygon fill="none" stroke="black" points="886,-1244 714,-1244 714,-1208 886,-1208 886,-1244"/>
<text text-anchor="middle" x="800" y="-1223.1" font-family="Courier,monospace" font-size="11.00">NetCommonsAppController</text>
</g>
<!-- \\NetCommonsAppController&#45;&gt;\\Controller -->
<g id="edge33" class="edge"><title>\\NetCommonsAppController&#45;&gt;\\Controller</title>
<path fill="none" stroke="black" d="M713.722,-1223.59C701.667,-1219.63 690.512,-1213.44 682,-1204 549.288,-1056.79 738.021,-466.31 610,-315 601.088,-304.466 588.721,-297.723 575.55,-293.47"/>
<polygon fill="none" stroke="black" points="576.425,-290.081 565.855,-290.795 574.564,-296.829 576.425,-290.081"/>
</g>
<!-- \\AssetComponent -->
<g id="node18" class="node"><title>\\AssetComponent</title>
<polygon fill="none" stroke="black" points="1148,-1330 1038,-1330 1038,-1294 1148,-1294 1148,-1330"/>
<text text-anchor="middle" x="1093" y="-1309.1" font-family="Courier,monospace" font-size="11.00">AssetComponent</text>
</g>
<!-- \\Component -->
<g id="node83" class="node"><title>\\Component</title>
<ellipse fill="none" stroke="black" cx="800" cy="-342" rx="70.9184" ry="18.3848"/>
<text text-anchor="middle" x="800" y="-338.4" font-family="Times Roman,serif" font-size="14.00" fill="gray">\Component</text>
</g>
<!-- \\AssetComponent&#45;&gt;\\Component -->
<g id="edge35" class="edge"><title>\\AssetComponent&#45;&gt;\\Component</title>
<path fill="none" stroke="black" d="M1037.28,-1309.78C1019.62,-1306.19 1001.68,-1298.97 990,-1285 859.019,-1128.36 1051.43,-523.559 918,-369 908.404,-357.884 895.256,-350.825 881.208,-346.436"/>
<polygon fill="none" stroke="black" points="881.937,-343.008 871.373,-343.807 880.13,-349.771 881.937,-343.008"/>
</g>
<!-- \\NetCommonsTimeComponent -->
<g id="node19" class="node"><title>\\NetCommonsTimeComponent</title>
<polygon fill="none" stroke="black" points="1179,-1276 1007,-1276 1007,-1240 1179,-1240 1179,-1276"/>
<text text-anchor="middle" x="1093" y="-1255.1" font-family="Courier,monospace" font-size="11.00">NetCommonsTimeComponent</text>
</g>
<!-- \\NetCommonsTimeComponent&#45;&gt;\\Component -->
<g id="edge37" class="edge"><title>\\NetCommonsTimeComponent&#45;&gt;\\Component</title>
<path fill="none" stroke="black" d="M1006.92,-1244.86C1000.54,-1241.21 994.757,-1236.66 990,-1231 866.331,-1083.84 1043.97,-514.197 918,-369 908.377,-357.908 895.216,-350.859 881.165,-346.473"/>
<polygon fill="none" stroke="black" points="881.893,-343.045 871.328,-343.845 880.086,-349.808 881.893,-343.045"/>
</g>
<!-- \\PermissionComponent -->
<g id="node20" class="node"><title>\\PermissionComponent</title>
<polygon fill="none" stroke="black" points="1165,-1222 1021,-1222 1021,-1186 1165,-1186 1165,-1222"/>
<text text-anchor="middle" x="1093" y="-1201.1" font-family="Courier,monospace" font-size="11.00">PermissionComponent</text>
</g>
<!-- \\PermissionComponent&#45;&gt;\\Component -->
<g id="edge39" class="edge"><title>\\PermissionComponent&#45;&gt;\\Component</title>
<path fill="none" stroke="black" d="M1020.28,-1196.95C1008.7,-1192.72 997.935,-1186.39 990,-1177 873.641,-1039.32 1036.51,-504.839 918,-369 908.346,-357.935 895.171,-350.898 881.117,-346.516"/>
<polygon fill="none" stroke="black" points="881.843,-343.087 871.278,-343.889 880.037,-349.85 881.843,-343.087"/>
</g>
<!-- \\NetCommonsComponent -->
<g id="node21" class="node"><title>\\NetCommonsComponent</title>
<polygon fill="none" stroke="black" points="1165,-1168 1021,-1168 1021,-1132 1165,-1132 1165,-1168"/>
<text text-anchor="middle" x="1093" y="-1147.1" font-family="Courier,monospace" font-size="11.00">NetCommonsComponent</text>
</g>
<!-- \\NetCommonsComponent&#45;&gt;\\Component -->
<g id="edge41" class="edge"><title>\\NetCommonsComponent&#45;&gt;\\Component</title>
<path fill="none" stroke="black" d="M1020.33,-1142.91C1008.74,-1138.69 997.965,-1132.36 990,-1123 880.948,-994.787 1029.05,-495.484 918,-369 908.311,-357.965 895.121,-350.943 881.061,-346.564"/>
<polygon fill="none" stroke="black" points="881.786,-343.135 871.222,-343.939 879.981,-349.899 881.786,-343.135"/>
</g>
<!-- \\NetCommonsController -->
<g id="node22" class="node"><title>\\NetCommonsController</title>
<polygon fill="none" stroke="black" points="1169,-1492 1017,-1492 1017,-1456 1169,-1456 1169,-1492"/>
<text text-anchor="middle" x="1093" y="-1471.1" font-family="Courier,monospace" font-size="11.00">NetCommonsController</text>
</g>
<!-- \\NetCommonsController&#45;&gt;\\NetCommonsAppController -->
<g id="edge43" class="edge"><title>\\NetCommonsController&#45;&gt;\\NetCommonsAppController</title>
<path fill="none" stroke="black" d="M1016.82,-1459.69C1007.42,-1456.31 998.23,-1452.14 990,-1447 908.741,-1396.22 843.731,-1299.63 815.397,-1252.8"/>
<polygon fill="none" stroke="black" points="818.352,-1250.92 810.225,-1244.12 812.34,-1254.5 818.352,-1250.92"/>
</g>
<!-- \\NetCommonsUrl -->
<g id="node23" class="node"><title>\\NetCommonsUrl</title>
<polygon fill="none" stroke="black" points="1145,-2302 1041,-2302 1041,-2266 1145,-2266 1145,-2302"/>
<text text-anchor="middle" x="1093" y="-2281.1" font-family="Courier,monospace" font-size="11.00">NetCommonsUrl</text>
</g>
<!-- \\NetCommonsTime -->
<g id="node24" class="node"><title>\\NetCommonsTime</title>
<polygon fill="none" stroke="black" points="1148,-2248 1038,-2248 1038,-2212 1148,-2212 1148,-2248"/>
<text text-anchor="middle" x="1093" y="-2227.1" font-family="Courier,monospace" font-size="11.00">NetCommonsTime</text>
</g>
<!-- \\CurrentBase -->
<g id="node25" class="node"><title>\\CurrentBase</title>
<polygon fill="none" stroke="black" points="845,-1600 755,-1600 755,-1564 845,-1564 845,-1600"/>
<text text-anchor="middle" x="800" y="-1579.1" font-family="Courier,monospace" font-size="11.00">CurrentBase</text>
</g>
<!-- \\Current -->
<g id="node26" class="node"><title>\\Current</title>
<polygon fill="none" stroke="black" points="1125,-1600 1061,-1600 1061,-1564 1125,-1564 1125,-1600"/>
<text text-anchor="middle" x="1093" y="-1579.1" font-family="Courier,monospace" font-size="11.00">Current</text>
</g>
<!-- \\Current&#45;&gt;\\CurrentBase -->
<g id="edge45" class="edge"><title>\\Current&#45;&gt;\\CurrentBase</title>
<path fill="none" stroke="black" d="M1060.81,-1582C1011.48,-1582 916.554,-1582 855.846,-1582"/>
<polygon fill="none" stroke="black" points="855.669,-1578.5 845.669,-1582 855.669,-1585.5 855.669,-1578.5"/>
</g>
<!-- \\CurrentSystem -->
<g id="node27" class="node"><title>\\CurrentSystem</title>
<polygon fill="none" stroke="black" points="1145,-2140 1041,-2140 1041,-2104 1145,-2104 1145,-2140"/>
<text text-anchor="middle" x="1093" y="-2119.1" font-family="Courier,monospace" font-size="11.00">CurrentSystem</text>
</g>
<!-- \\CurrentPage -->
<g id="node28" class="node"><title>\\CurrentPage</title>
<polygon fill="none" stroke="black" points="1138,-2086 1048,-2086 1048,-2050 1138,-2050 1138,-2086"/>
<text text-anchor="middle" x="1093" y="-2065.1" font-family="Courier,monospace" font-size="11.00">CurrentPage</text>
</g>
<!-- \\CurrentFrame -->
<g id="node29" class="node"><title>\\CurrentFrame</title>
<polygon fill="none" stroke="black" points="1142,-2032 1044,-2032 1044,-1996 1142,-1996 1142,-2032"/>
<text text-anchor="middle" x="1093" y="-2011.1" font-family="Courier,monospace" font-size="11.00">CurrentFrame</text>
</g>
<!-- \\TokenHelper -->
<g id="node30" class="node"><title>\\TokenHelper</title>
<polygon fill="none" stroke="black" points="1138,-898 1048,-898 1048,-862 1138,-862 1138,-898"/>
<text text-anchor="middle" x="1093" y="-877.1" font-family="Courier,monospace" font-size="11.00">TokenHelper</text>
</g>
<!-- \\FormHelper -->
<g id="node90" class="node"><title>\\FormHelper</title>
<ellipse fill="none" stroke="black" cx="800" cy="-288" rx="70.9184" ry="18.3848"/>
<text text-anchor="middle" x="800" y="-284.4" font-family="Times Roman,serif" font-size="14.00" fill="gray">\FormHelper</text>
</g>
<!-- \\TokenHelper&#45;&gt;\\FormHelper -->
<g id="edge47" class="edge"><title>\\TokenHelper&#45;&gt;\\FormHelper</title>
<path fill="none" stroke="black" d="M1047.28,-879.062C1026.87,-876.179 1004.26,-869.138 990,-853 830.252,-672.227 1080.57,-493.24 918,-315 908.162,-304.213 894.974,-297.293 880.979,-292.934"/>
<polygon fill="none" stroke="black" points="881.757,-289.519 871.192,-290.31 879.944,-296.281 881.757,-289.519"/>
</g>
<!-- \\SingletonViewBlockHtmlHelper -->
<g id="node31" class="node"><title>\\SingletonViewBlockHtmlHelper</title>
<polygon fill="none" stroke="black" points="1196,-844 990,-844 990,-808 1196,-808 1196,-844"/>
<text text-anchor="middle" x="1093" y="-823.1" font-family="Courier,monospace" font-size="11.00">SingletonViewBlockHtmlHelper</text>
</g>
<!-- \\HtmlHelper -->
<g id="node92" class="node"><title>\\HtmlHelper</title>
<ellipse fill="none" stroke="black" cx="800" cy="-234" rx="67.1751" ry="18.3848"/>
<text text-anchor="middle" x="800" y="-230.4" font-family="Times Roman,serif" font-size="14.00" fill="gray">HtmlHelper</text>
</g>
<!-- \\SingletonViewBlockHtmlHelper&#45;&gt;\\HtmlHelper -->
<g id="edge49" class="edge"><title>\\SingletonViewBlockHtmlHelper&#45;&gt;\\HtmlHelper</title>
<path fill="none" stroke="black" d="M999.785,-807.859C996.23,-805.263 992.938,-802.325 990,-799 830.252,-618.227 1080.57,-439.24 918,-261 907.152,-249.106 892.23,-241.912 876.645,-237.671"/>
<polygon fill="none" stroke="black" points="877.419,-234.258 866.885,-235.397 875.83,-241.075 877.419,-234.258"/>
</g>
<!-- \\FormInputHelper -->
<g id="node32" class="node"><title>\\FormInputHelper</title>
<polygon fill="none" stroke="black" points="1152,-2464 1034,-2464 1034,-2428 1152,-2428 1152,-2464"/>
<text text-anchor="middle" x="1093" y="-2443.1" font-family="Courier,monospace" font-size="11.00">FormInputHelper</text>
</g>
<!-- \\FormInputHelper&#45;&gt;\\AppHelper -->
<g id="edge51" class="edge"><title>\\FormInputHelper&#45;&gt;\\AppHelper</title>
<path fill="none" stroke="black" d="M1033.98,-2440.19C1018.26,-2436.23 1002.26,-2429.69 990,-2419 954.885,-2388.37 843.641,-2082.31 809.837,-1987.71"/>
<polygon fill="none" stroke="black" points="813.114,-1986.48 806.458,-1978.23 806.521,-1988.83 813.114,-1986.48"/>
</g>
<!-- \\WizardHelper -->
<g id="node33" class="node"><title>\\WizardHelper</title>
<polygon fill="none" stroke="black" points="1142,-2410 1044,-2410 1044,-2374 1142,-2374 1142,-2410"/>
<text text-anchor="middle" x="1093" y="-2389.1" font-family="Courier,monospace" font-size="11.00">WizardHelper</text>
</g>
<!-- \\WizardHelper&#45;&gt;\\AppHelper -->
<g id="edge53" class="edge"><title>\\WizardHelper&#45;&gt;\\AppHelper</title>
<path fill="none" stroke="black" d="M1043.86,-2387.97C1025.31,-2384.32 1005.06,-2377.54 990,-2365 866.832,-2262.46 818.776,-2062.09 804.769,-1988.22"/>
<polygon fill="none" stroke="black" points="808.19,-1987.47 802.945,-1978.27 801.305,-1988.73 808.19,-1987.47"/>
</g>
<!-- \\DisplayNumberHelper -->
<g id="node34" class="node"><title>\\DisplayNumberHelper</title>
<polygon fill="none" stroke="black" points="1165,-2356 1021,-2356 1021,-2320 1165,-2320 1165,-2356"/>
<text text-anchor="middle" x="1093" y="-2335.1" font-family="Courier,monospace" font-size="11.00">DisplayNumberHelper</text>
</g>
<!-- \\DisplayNumberHelper&#45;&gt;\\AppHelper -->
<g id="edge55" class="edge"><title>\\DisplayNumberHelper&#45;&gt;\\AppHelper</title>
<path fill="none" stroke="black" d="M1020.46,-2327.08C1009.53,-2323.23 998.943,-2318.02 990,-2311 879.54,-2224.29 824.898,-2054.9 806.922,-1988.07"/>
<polygon fill="none" stroke="black" points="810.271,-1987.04 804.349,-1978.26 803.499,-1988.82 810.271,-1987.04"/>
</g>
<!-- \\MessageFlashHelper -->
<g id="node35" class="node"><title>\\MessageFlashHelper</title>
<polygon fill="none" stroke="black" points="1162,-2194 1024,-2194 1024,-2158 1162,-2158 1162,-2194"/>
<text text-anchor="middle" x="1093" y="-2173.1" font-family="Courier,monospace" font-size="11.00">MessageFlashHelper</text>
</g>
<!-- \\MessageFlashHelper&#45;&gt;\\AppHelper -->
<g id="edge57" class="edge"><title>\\MessageFlashHelper&#45;&gt;\\AppHelper</title>
<path fill="none" stroke="black" d="M1023.97,-2163.3C1012.2,-2159.64 1000.43,-2154.97 990,-2149 915.721,-2106.51 850.104,-2027.52 819.041,-1986.41"/>
<polygon fill="none" stroke="black" points="821.73,-1984.16 812.946,-1978.24 816.119,-1988.35 821.73,-1984.16"/>
</g>
<!-- \\DateHelper -->
<g id="node36" class="node"><title>\\DateHelper</title>
<polygon fill="none" stroke="black" points="1135,-1978 1051,-1978 1051,-1942 1135,-1942 1135,-1978"/>
<text text-anchor="middle" x="1093" y="-1957.1" font-family="Courier,monospace" font-size="11.00">DateHelper</text>
</g>
<!-- \\DateHelper&#45;&gt;\\AppHelper -->
<g id="edge59" class="edge"><title>\\DateHelper&#45;&gt;\\AppHelper</title>
<path fill="none" stroke="black" d="M1050.71,-1960C997.148,-1960 905.059,-1960 848.643,-1960"/>
<polygon fill="none" stroke="black" points="848.542,-1956.5 838.542,-1960 848.542,-1963.5 848.542,-1956.5"/>
</g>
<!-- \\SnsButtonHelper -->
<g id="node37" class="node"><title>\\SnsButtonHelper</title>
<polygon fill="none" stroke="black" points="1152,-1924 1034,-1924 1034,-1888 1152,-1888 1152,-1924"/>
<text text-anchor="middle" x="1093" y="-1903.1" font-family="Courier,monospace" font-size="11.00">SnsButtonHelper</text>
</g>
<!-- \\SnsButtonHelper&#45;&gt;\\AppHelper -->
<g id="edge61" class="edge"><title>\\SnsButtonHelper&#45;&gt;\\AppHelper</title>
<path fill="none" stroke="black" d="M1033.71,-1916.93C979.266,-1926.96 899.563,-1941.65 848.738,-1951.02"/>
<polygon fill="none" stroke="black" points="847.863,-1947.62 838.663,-1952.87 849.131,-1954.5 847.863,-1947.62"/>
</g>
<!-- \\BackToHelper -->
<g id="node38" class="node"><title>\\BackToHelper</title>
<polygon fill="none" stroke="black" points="1142,-1870 1044,-1870 1044,-1834 1142,-1834 1142,-1870"/>
<text text-anchor="middle" x="1093" y="-1849.1" font-family="Courier,monospace" font-size="11.00">BackToHelper</text>
</g>
<!-- \\BackToHelper&#45;&gt;\\AppHelper -->
<g id="edge63" class="edge"><title>\\BackToHelper&#45;&gt;\\AppHelper</title>
<path fill="none" stroke="black" d="M1043.84,-1863.32C1026.64,-1867.69 1007.32,-1873.08 990,-1879 940.27,-1896.02 885.199,-1920.1 847.206,-1937.58"/>
<polygon fill="none" stroke="black" points="845.534,-1934.5 837.929,-1941.88 848.474,-1940.85 845.534,-1934.5"/>
</g>
<!-- \\NetCommonsHtmlHelper -->
<g id="node39" class="node"><title>\\NetCommonsHtmlHelper</title>
<polygon fill="none" stroke="black" points="1169,-1816 1017,-1816 1017,-1780 1169,-1780 1169,-1816"/>
<text text-anchor="middle" x="1093" y="-1795.1" font-family="Courier,monospace" font-size="11.00">NetCommonsHtmlHelper</text>
</g>
<!-- \\NetCommonsHtmlHelper&#45;&gt;\\AppHelper -->
<g id="edge65" class="edge"><title>\\NetCommonsHtmlHelper&#45;&gt;\\AppHelper</title>
<path fill="none" stroke="black" d="M1016.79,-1814.62C1007.59,-1817.61 998.458,-1821.05 990,-1825 927.211,-1854.33 863.394,-1904.84 828.029,-1935.06"/>
<polygon fill="none" stroke="black" points="825.369,-1932.74 820.087,-1941.92 829.944,-1938.03 825.369,-1932.74"/>
</g>
<!-- \\ButtonHelper -->
<g id="node40" class="node"><title>\\ButtonHelper</title>
<polygon fill="none" stroke="black" points="1142,-1006 1044,-1006 1044,-970 1142,-970 1142,-1006"/>
<text text-anchor="middle" x="1093" y="-985.1" font-family="Courier,monospace" font-size="11.00">ButtonHelper</text>
</g>
<!-- \\ButtonHelper&#45;&gt;\\FormHelper -->
<g id="edge67" class="edge"><title>\\ButtonHelper&#45;&gt;\\FormHelper</title>
<path fill="none" stroke="black" d="M1043.95,-986.726C1024.37,-983.598 1003.36,-976.455 990,-961 801.099,-742.429 1110.31,-530.576 918,-315 908.225,-304.042 894.994,-297.054 880.924,-292.686"/>
<polygon fill="none" stroke="black" points="881.644,-289.256 871.08,-290.064 879.842,-296.02 881.644,-289.256"/>
</g>
<!-- \\ComposerHelper -->
<g id="node41" class="node"><title>\\ComposerHelper</title>
<polygon fill="none" stroke="black" points="1148,-1762 1038,-1762 1038,-1726 1148,-1726 1148,-1762"/>
<text text-anchor="middle" x="1093" y="-1741.1" font-family="Courier,monospace" font-size="11.00">ComposerHelper</text>
</g>
<!-- \\ComposerHelper&#45;&gt;\\AppHelper -->
<g id="edge69" class="edge"><title>\\ComposerHelper&#45;&gt;\\AppHelper</title>
<path fill="none" stroke="black" d="M1037.46,-1752.92C1021.46,-1756.95 1004.44,-1762.74 990,-1771 915.721,-1813.49 850.104,-1892.48 819.041,-1933.59"/>
<polygon fill="none" stroke="black" points="816.119,-1931.65 812.946,-1941.76 821.73,-1935.84 816.119,-1931.65"/>
</g>
<!-- \\LinkButtonHelper -->
<g id="node42" class="node"><title>\\LinkButtonHelper</title>
<polygon fill="none" stroke="black" points="1155,-952 1031,-952 1031,-916 1155,-916 1155,-952"/>
<text text-anchor="middle" x="1093" y="-931.1" font-family="Courier,monospace" font-size="11.00">LinkButtonHelper</text>
</g>
<!-- \\LinkButtonHelper&#45;&gt;\\FormHelper -->
<g id="edge71" class="edge"><title>\\LinkButtonHelper&#45;&gt;\\FormHelper</title>
<path fill="none" stroke="black" d="M1030.36,-929.797C1015.16,-925.79 1000.33,-918.837 990,-907 815.683,-707.337 1095.43,-511.899 918,-315 908.227,-304.155 895.069,-297.207 881.082,-292.841"/>
<polygon fill="none" stroke="black" points="881.864,-289.426 871.298,-290.214 880.049,-296.187 881.864,-289.426"/>
</g>
<!-- \\NetCommonsTimeHelper -->
<g id="node43" class="node"><title>\\NetCommonsTimeHelper</title>
<polygon fill="none" stroke="black" points="1169,-1708 1017,-1708 1017,-1672 1169,-1672 1169,-1708"/>
<text text-anchor="middle" x="1093" y="-1687.1" font-family="Courier,monospace" font-size="11.00">NetCommonsTimeHelper</text>
</g>
<!-- \\NetCommonsTimeHelper&#45;&gt;\\AppHelper -->
<g id="edge73" class="edge"><title>\\NetCommonsTimeHelper&#45;&gt;\\AppHelper</title>
<path fill="none" stroke="black" d="M1016.86,-1703.85C1007.4,-1707.3 998.186,-1711.62 990,-1717 904.042,-1773.54 840.094,-1882.07 813.531,-1932.72"/>
<polygon fill="none" stroke="black" points="810.341,-1931.27 808.865,-1941.76 816.562,-1934.48 810.341,-1931.27"/>
</g>
<!-- \\NetCommonsFormHelper -->
<g id="node44" class="node"><title>\\NetCommonsFormHelper</title>
<polygon fill="none" stroke="black" points="1169,-1654 1017,-1654 1017,-1618 1169,-1618 1169,-1654"/>
<text text-anchor="middle" x="1093" y="-1633.1" font-family="Courier,monospace" font-size="11.00">NetCommonsFormHelper</text>
</g>
<!-- \\NetCommonsFormHelper&#45;&gt;\\AppHelper -->
<g id="edge75" class="edge"><title>\\NetCommonsFormHelper&#45;&gt;\\AppHelper</title>
<path fill="none" stroke="black" d="M1016.89,-1648.93C1007.32,-1652.53 998.072,-1657.13 990,-1663 939.522,-1699.73 848.866,-1866.47 814.1,-1932.73"/>
<polygon fill="none" stroke="black" points="810.916,-1931.27 809.388,-1941.75 817.121,-1934.51 810.916,-1931.27"/>
</g>
<!-- \\TitleIconHelper -->
<g id="node45" class="node"><title>\\TitleIconHelper</title>
<polygon fill="none" stroke="black" points="1152,-2626 1034,-2626 1034,-2590 1152,-2590 1152,-2626"/>
<text text-anchor="middle" x="1093" y="-2605.1" font-family="Courier,monospace" font-size="11.00">TitleIconHelper</text>
</g>
<!-- \\TitleIconHelper&#45;&gt;\\AppHelper -->
<g id="edge77" class="edge"><title>\\TitleIconHelper&#45;&gt;\\AppHelper</title>
<path fill="none" stroke="black" d="M1033.94,-2603.64C1017.85,-2599.73 1001.65,-2592.87 990,-2581 894.852,-2484.07 957.301,-2414.01 918,-2284 884.245,-2172.33 833.504,-2042.93 811.197,-1987.5"/>
<polygon fill="none" stroke="black" points="814.363,-1985.99 807.373,-1978.03 807.873,-1988.61 814.363,-1985.99"/>
</g>
<!-- \\DatetimePickerHelper -->
<g id="node46" class="node"><title>\\DatetimePickerHelper</title>
<polygon fill="none" stroke="black" points="1169,-2572 1017,-2572 1017,-2536 1169,-2536 1169,-2572"/>
<text text-anchor="middle" x="1093" y="-2551.1" font-family="Courier,monospace" font-size="11.00">DatetimePickerHelper</text>
</g>
<!-- \\DatetimePickerHelper&#45;&gt;\\AppHelper -->
<g id="edge79" class="edge"><title>\\DatetimePickerHelper&#45;&gt;\\AppHelper</title>
<path fill="none" stroke="black" d="M1016.76,-2543.71C1006.87,-2539.74 997.568,-2534.33 990,-2527 909.099,-2448.62 953.29,-2390.97 918,-2284 881.451,-2173.21 832.171,-2043.35 810.719,-1987.65"/>
<polygon fill="none" stroke="black" points="813.913,-1986.2 807.047,-1978.13 807.382,-1988.72 813.913,-1986.2"/>
</g>
<!-- \\Model -->
<g id="node109" class="node"><title>\\Model</title>
<ellipse fill="none" stroke="black" cx="44" cy="-2878" rx="43.8406" ry="18.3848"/>
<text text-anchor="middle" x="44" y="-2874.4" font-family="Times Roman,serif" font-size="14.00" fill="gray">\Model</text>
</g>
<!-- \\NetCommonsAppModel&#45;&gt;\\Model -->
<g id="edge81" class="edge"><title>\\NetCommonsAppModel&#45;&gt;\\Model</title>
<path fill="none" stroke="black" d="M172.749,-2878C148.379,-2878 121.357,-2878 98.3871,-2878"/>
<polygon fill="none" stroke="black" points="98.1425,-2874.5 88.1425,-2878 98.1424,-2881.5 98.1425,-2874.5"/>
</g>
<!-- \\OriginalKeyBehavior -->
<g id="node48" class="node"><title>\\OriginalKeyBehavior</title>
<polygon fill="none" stroke="black" points="1165,-682 1021,-682 1021,-646 1165,-646 1165,-682"/>
<text text-anchor="middle" x="1093" y="-661.1" font-family="Courier,monospace" font-size="11.00">OriginalKeyBehavior</text>
</g>
<!-- \\ModelBehavior -->
<g id="node111" class="node"><title>\\ModelBehavior</title>
<ellipse fill="none" stroke="black" cx="800" cy="-180" rx="86.9741" ry="18.3848"/>
<text text-anchor="middle" x="800" y="-176.4" font-family="Times Roman,serif" font-size="14.00" fill="gray">\ModelBehavior</text>
</g>
<!-- \\OriginalKeyBehavior&#45;&gt;\\ModelBehavior -->
<g id="edge83" class="edge"><title>\\OriginalKeyBehavior&#45;&gt;\\ModelBehavior</title>
<path fill="none" stroke="black" d="M1020.34,-656.25C1008.9,-652.073 998.166,-645.94 990,-637 859.318,-493.927 1050.91,-348.002 918,-207 910.736,-199.293 901.758,-193.575 892.025,-189.36"/>
<polygon fill="none" stroke="black" points="893.083,-186.019 882.491,-185.764 890.613,-192.568 893.083,-186.019"/>
</g>
<!-- \\TrackableBehavior -->
<g id="node49" class="node"><title>\\TrackableBehavior</title>
<polygon fill="none" stroke="black" points="1158,-790 1028,-790 1028,-754 1158,-754 1158,-790"/>
<text text-anchor="middle" x="1093" y="-769.1" font-family="Courier,monospace" font-size="11.00">TrackableBehavior</text>
</g>
<!-- \\TrackableBehavior&#45;&gt;\\ModelBehavior -->
<g id="edge85" class="edge"><title>\\TrackableBehavior&#45;&gt;\\ModelBehavior</title>
<path fill="none" stroke="black" d="M1027.24,-766.821C1013.18,-762.704 999.671,-755.943 990,-745 830.252,-564.227 1080.57,-385.24 918,-207 910.917,-199.234 902.097,-193.472 892.49,-189.227"/>
<polygon fill="none" stroke="black" points="893.659,-185.927 883.069,-185.607 891.148,-192.461 893.659,-185.927"/>
</g>
<!-- \\YAExceptionRenderer -->
<g id="node50" class="node"><title>\\YAExceptionRenderer</title>
<polygon fill="none" stroke="black" points="1165,-628 1021,-628 1021,-592 1165,-592 1165,-628"/>
<text text-anchor="middle" x="1093" y="-607.1" font-family="Courier,monospace" font-size="11.00">YAExceptionRenderer</text>
</g>
<!-- \\ExceptionRenderer -->
<g id="node114" class="node"><title>\\ExceptionRenderer</title>
<ellipse fill="none" stroke="black" cx="800" cy="-126" rx="118.087" ry="18.3848"/>
<text text-anchor="middle" x="800" y="-122.4" font-family="Times Roman,serif" font-size="14.00" fill="gray">TEHxceptionRenderer</text>
</g>
<!-- \\YAExceptionRenderer&#45;&gt;\\ExceptionRenderer -->
<g id="edge87" class="edge"><title>\\YAExceptionRenderer&#45;&gt;\\ExceptionRenderer</title>
<path fill="none" stroke="black" d="M1020.34,-602.25C1008.9,-598.073 998.166,-591.94 990,-583 859.318,-439.927 1050.91,-294.002 918,-153 913.844,-148.591 909.128,-144.833 904.031,-141.635"/>
<polygon fill="none" stroke="black" points="905.577,-138.492 895.123,-136.766 902.219,-144.634 905.577,-138.492"/>
</g>
<!-- \\NetCommonsMigration -->
<g id="node51" class="node"><title>\\NetCommonsMigration</title>
<polygon fill="none" stroke="black" points="1165,-520 1021,-520 1021,-484 1165,-484 1165,-520"/>
<text text-anchor="middle" x="1093" y="-499.1" font-family="Courier,monospace" font-size="11.00">NetCommonsMigration</text>
</g>
<!-- \\CakeMigration -->
<g id="node116" class="node"><title>\\CakeMigration</title>
<ellipse fill="none" stroke="black" cx="800" cy="-72" rx="84.8528" ry="18.3848"/>
<text text-anchor="middle" x="800" y="-68.4" font-family="Times Roman,serif" font-size="14.00" fill="gray">\CakeMigration</text>
</g>
<!-- \\NetCommonsMigration&#45;&gt;\\CakeMigration -->
<g id="edge89" class="edge"><title>\\NetCommonsMigration&#45;&gt;\\CakeMigration</title>
<path fill="none" stroke="black" d="M1020.25,-493.995C1008.89,-489.838 998.206,-483.777 990,-475 873.795,-350.716 1036.14,-221.443 918,-99 910.347,-91.0685 900.877,-85.2535 890.656,-81.0209"/>
<polygon fill="none" stroke="black" points="891.684,-77.6706 881.089,-77.5632 889.304,-84.2538 891.684,-77.6706"/>
</g>
<!-- \\CategoriesComponent -->
<g id="node52" class="node"><title>\\CategoriesComponent</title>
<polygon fill="none" stroke="black" points="1165,-1060 1021,-1060 1021,-1024 1165,-1024 1165,-1060"/>
<text text-anchor="middle" x="1093" y="-1039.1" font-family="Courier,monospace" font-size="11.00">CategoriesComponent</text>
</g>
<!-- \\CategoriesComponent&#45;&gt;\\Component -->
<g id="edge91" class="edge"><title>\\CategoriesComponent&#45;&gt;\\Component</title>
<path fill="none" stroke="black" d="M1020.45,-1034.81C1008.85,-1030.59 998.038,-1024.3 990,-1015 801.099,-796.429 1110.31,-584.576 918,-369 908.225,-358.042 894.994,-351.054 880.924,-346.686"/>
<polygon fill="none" stroke="black" points="881.644,-343.256 871.08,-344.064 879.842,-350.02 881.644,-343.256"/>
</g>
<!-- \\CategoryEditComponent -->
<g id="node53" class="node"><title>\\CategoryEditComponent</title>
<polygon fill="none" stroke="black" points="1172,-1114 1014,-1114 1014,-1078 1172,-1078 1172,-1114"/>
<text text-anchor="middle" x="1093" y="-1093.1" font-family="Courier,monospace" font-size="11.00">CategoryEditComponent</text>
</g>
<!-- \\CategoryEditComponent&#45;&gt;\\Component -->
<g id="edge93" class="edge"><title>\\CategoryEditComponent&#45;&gt;\\Component</title>
<path fill="none" stroke="black" d="M1013.95,-1086.26C1004.83,-1082.16 996.495,-1076.58 990,-1069 786.502,-831.507 1125.2,-603.266 918,-369 908.271,-358.001 895.062,-350.994 880.998,-346.62"/>
<polygon fill="none" stroke="black" points="881.72,-343.191 871.156,-343.996 879.917,-349.955 881.72,-343.191"/>
</g>
<!-- \\CategoryHelper -->
<g id="node54" class="node"><title>\\CategoryHelper</title>
<polygon fill="none" stroke="black" points="1148,-2518 1038,-2518 1038,-2482 1148,-2482 1148,-2518"/>
<text text-anchor="middle" x="1093" y="-2497.1" font-family="Courier,monospace" font-size="11.00">CategoryHelper</text>
</g>
<!-- \\CategoryHelper&#45;&gt;\\AppHelper -->
<g id="edge95" class="edge"><title>\\CategoryHelper&#45;&gt;\\AppHelper</title>
<path fill="none" stroke="black" d="M1037.47,-2495.39C1020.55,-2491.55 1003.01,-2484.79 990,-2473 985.169,-2468.62 848.712,-2093.98 810.094,-1987.78"/>
<polygon fill="none" stroke="black" points="813.276,-1986.29 806.57,-1978.08 806.697,-1988.68 813.276,-1986.29"/>
</g>
<!-- \\CategoriesAppModel -->
<g id="node55" class="node"><title>\\CategoriesAppModel</title>
<polygon fill="none" stroke="black" points="869,-2923 731,-2923 731,-2887 869,-2887 869,-2923"/>
<text text-anchor="middle" x="800" y="-2902.1" font-family="Courier,monospace" font-size="11.00">CategoriesAppModel</text>
</g>
<!-- \\CategoriesAppModel&#45;&gt;\\AppModel -->
<g id="edge97" class="edge"><title>\\CategoriesAppModel&#45;&gt;\\AppModel</title>
<path fill="none" stroke="black" d="M730.742,-2898.7C674.69,-2893.61 597.337,-2886.58 548.757,-2882.16"/>
<polygon fill="none" stroke="black" points="548.824,-2878.65 538.548,-2881.23 548.19,-2885.62 548.824,-2878.65"/>
</g>
<!-- \\CategoryBehavior -->
<g id="node56" class="node"><title>\\CategoryBehavior</title>
<polygon fill="none" stroke="black" points="1155,-736 1031,-736 1031,-700 1155,-700 1155,-736"/>
<text text-anchor="middle" x="1093" y="-715.1" font-family="Courier,monospace" font-size="11.00">CategoryBehavior</text>
</g>
<!-- \\CategoryBehavior&#45;&gt;\\ModelBehavior -->
<g id="edge99" class="edge"><title>\\CategoryBehavior&#45;&gt;\\ModelBehavior</title>
<path fill="none" stroke="black" d="M1030.3,-713.541C1015.2,-709.523 1000.43,-702.629 990,-691 844.8,-529.094 1065.73,-366.605 918,-207 910.86,-199.286 902.006,-193.556 892.38,-189.328"/>
<polygon fill="none" stroke="black" points="893.536,-186.023 882.945,-185.72 891.035,-192.561 893.536,-186.023"/>
</g>
<!-- \\Category -->
<g id="node57" class="node"><title>\\Category</title>
<polygon fill="none" stroke="black" points="1128,-2896 1058,-2896 1058,-2860 1128,-2860 1128,-2896"/>
<text text-anchor="middle" x="1093" y="-2875.1" font-family="Courier,monospace" font-size="11.00">Category</text>
</g>
<!-- \\Category&#45;&gt;\\CategoriesAppModel -->
<g id="edge101" class="edge"><title>\\Category&#45;&gt;\\CategoriesAppModel</title>
<path fill="none" stroke="black" d="M1057.37,-2881.28C1013.41,-2885.33 937.397,-2892.34 879.34,-2897.69"/>
<polygon fill="none" stroke="black" points="878.725,-2894.23 869.088,-2898.63 879.367,-2901.2 878.725,-2894.23"/>
</g>
<!-- \\CategoryOrder -->
<g id="node58" class="node"><title>\\CategoryOrder</title>
<polygon fill="none" stroke="black" points="1145,-2950 1041,-2950 1041,-2914 1145,-2914 1145,-2950"/>
<text text-anchor="middle" x="1093" y="-2929.1" font-family="Courier,monospace" font-size="11.00">CategoryOrder</text>
</g>
<!-- \\CategoryOrder&#45;&gt;\\CategoriesAppModel -->
<g id="edge103" class="edge"><title>\\CategoryOrder&#45;&gt;\\CategoriesAppModel</title>
<path fill="none" stroke="black" d="M1040.96,-2927.2C996.092,-2923.07 930.628,-2917.04 879.253,-2912.3"/>
<polygon fill="none" stroke="black" points="879.456,-2908.81 869.177,-2911.37 878.813,-2915.78 879.456,-2908.81"/>
</g>
<!-- \\CategoriesSchema -->
<g id="node59" class="node"><title>\\CategoriesSchema</title>
<polygon fill="none" stroke="black" points="1155,-466 1031,-466 1031,-430 1155,-430 1155,-466"/>
<text text-anchor="middle" x="1093" y="-445.1" font-family="Courier,monospace" font-size="11.00">CategoriesSchema</text>
</g>
<!-- \\CakeSchema -->
<g id="node125" class="node"><title>\\CakeSchema</title>
<ellipse fill="none" stroke="black" cx="800" cy="-18" rx="77.0746" ry="18.3848"/>
<text text-anchor="middle" x="800" y="-14.4" font-family="Times Roman,serif" font-size="14.00" fill="gray">\CakeSchema</text>
</g>
<!-- \\CategoriesSchema&#45;&gt;\\CakeSchema -->
<g id="edge105" class="edge"><title>\\CategoriesSchema&#45;&gt;\\CakeSchema</title>
<path fill="none" stroke="black" d="M1090.86,-429.713C1082.37,-365.789 1045.04,-150.503 918,-45 907.886,-36.6012 895.67,-30.6949 882.982,-26.5644"/>
<polygon fill="none" stroke="black" points="883.793,-23.1556 873.214,-23.74 881.848,-29.8801 883.793,-23.1556"/>
</g>
<!-- \\Init -->
<g id="node60" class="node"><title>\\Init</title>
<polygon fill="none" stroke="black" points="1120,-574 1066,-574 1066,-538 1120,-538 1120,-574"/>
<text text-anchor="middle" x="1093" y="-553.1" font-family="Courier,monospace" font-size="11.00">Init</text>
</g>
<!-- \\Init&#45;&gt;\\CakeMigration -->
<g id="edge107" class="edge"><title>\\Init&#45;&gt;\\CakeMigration</title>
<path fill="none" stroke="black" d="M1065.66,-556.547C1042.14,-555.449 1009.07,-549.884 990,-529 859.318,-385.927 1050.91,-240.002 918,-99 910.44,-90.9799 901.025,-85.1126 890.833,-80.8528"/>
<polygon fill="none" stroke="black" points="891.879,-77.5089 881.284,-77.377 889.484,-84.0866 891.879,-77.5089"/>
</g>
</g>
</svg>
