<?xml version="1.0" encoding="UTF-8" standalone="no"?>
<!DOCTYPE svg PUBLIC "-//W3C//DTD SVG 1.1//EN"
 "http://www.w3.org/Graphics/SVG/1.1/DTD/svg11.dtd">
<!-- Generated by graphviz version 2.26.3 (20100126.1600)
 -->
<!-- Title: G Pages: 1 -->
<svg width="1060pt" height="2888pt"
 viewBox="0.00 0.00 1060.00 2888.00" xmlns="http://www.w3.org/2000/svg" xmlns:xlink="http://www.w3.org/1999/xlink">
<g id="graph1" class="graph" transform="scale(1 1) rotate(0) translate(4 2884)">
<title>G</title>
<polygon fill="white" stroke="white" points="-4,5 -4,-2884 1057,-2884 1057,5 -4,5"/>
<g id="graph2" class="cluster"><title>cluster_Global</title>
<polyline fill="none" stroke="gray" points="264,-368 1032,-368 "/>
<path fill="none" stroke="gray" d="M1032,-368C1038,-368 1044,-374 1044,-380"/>
<polyline fill="none" stroke="gray" points="1044,-380 1044,-2860 "/>
<path fill="none" stroke="gray" d="M1044,-2860C1044,-2866 1038,-2872 1032,-2872"/>
<polyline fill="none" stroke="gray" points="1032,-2872 264,-2872 "/>
<path fill="none" stroke="gray" d="M264,-2872C258,-2872 252,-2866 252,-2860"/>
<polyline fill="none" stroke="gray" points="252,-2860 252,-380 "/>
<path fill="none" stroke="gray" d="M252,-380C252,-374 258,-368 264,-368"/>
<text text-anchor="middle" x="648" y="-2858.1" font-family="Times Roman,serif" font-size="11.00" fill="gray">Global</text>
</g>
<!-- \\AppController -->
<g id="node2" class="node"><title>\\AppController</title>
<polygon fill="none" stroke="black" points="395,-1385 291,-1385 291,-1349 395,-1349 395,-1385"/>
<text text-anchor="middle" x="343" y="-1364.1" font-family="Courier,monospace" font-size="11.00">AppController</text>
</g>
<!-- \\Controller -->
<g id="node61" class="node"><title>\\Controller</title>
<ellipse fill="none" stroke="black" cx="82" cy="-791" rx="63.1385" ry="18.3848"/>
<text text-anchor="middle" x="82" y="-787.4" font-family="Times Roman,serif" font-size="14.00" fill="gray">\Controller</text>
</g>
<!-- \\AppController&#45;&gt;\\Controller -->
<g id="edge3" class="edge"><title>\\AppController&#45;&gt;\\Controller</title>
<path fill="none" stroke="black" d="M290.975,-1367.32C271.562,-1364.85 250.692,-1358.72 236,-1345 156.542,-1270.8 100.812,-921.812 85.9536,-819.35"/>
<polygon fill="none" stroke="black" points="89.3761,-818.559 84.493,-809.156 82.4469,-819.552 89.3761,-818.559"/>
</g>
<!-- \\AppModel -->
<g id="node3" class="node"><title>\\AppModel</title>
<polygon fill="none" stroke="black" points="675,-2572 605,-2572 605,-2536 675,-2536 675,-2572"/>
<text text-anchor="middle" x="640" y="-2551.1" font-family="Courier,monospace" font-size="11.00">AppModel</text>
</g>
<!-- \\NetCommonsAppModel -->
<g id="node48" class="node"><title>\\NetCommonsAppModel</title>
<polygon fill="none" stroke="black" points="412,-2572 274,-2572 274,-2536 412,-2536 412,-2572"/>
<text text-anchor="middle" x="343" y="-2551.1" font-family="Courier,monospace" font-size="11.00">NetCommonsAppModel</text>
</g>
<!-- \\AppModel&#45;&gt;\\NetCommonsAppModel -->
<g id="edge5" class="edge"><title>\\AppModel&#45;&gt;\\NetCommonsAppModel</title>
<path fill="none" stroke="black" d="M604.47,-2554C559.713,-2554 481.497,-2554 422.241,-2554"/>
<polygon fill="none" stroke="black" points="422.157,-2550.5 412.157,-2554 422.157,-2557.5 422.157,-2550.5"/>
</g>
<!-- \\DatabaseConfiguration -->
<g id="node4" class="node"><title>\\DatabaseConfiguration</title>
<polygon fill="none" stroke="black" points="1012,-2572 854,-2572 854,-2536 1012,-2536 1012,-2572"/>
<text text-anchor="middle" x="933" y="-2551.1" font-family="Courier,monospace" font-size="11.00">DatabaseConfiguration</text>
</g>
<!-- \\DatabaseConfiguration&#45;&gt;\\AppModel -->
<g id="edge7" class="edge"><title>\\DatabaseConfiguration&#45;&gt;\\AppModel</title>
<path fill="none" stroke="black" d="M853.71,-2554C799.937,-2554 730.74,-2554 685.886,-2554"/>
<polygon fill="none" stroke="black" points="685.866,-2550.5 675.866,-2554 685.866,-2557.5 685.866,-2550.5"/>
</g>
<!-- \\AppHelper -->
<g id="node5" class="node"><title>\\AppHelper</title>
<polygon fill="none" stroke="black" points="678,-1573 602,-1573 602,-1537 678,-1537 678,-1573"/>
<text text-anchor="middle" x="640" y="-1552.1" font-family="Courier,monospace" font-size="11.00">AppHelper</text>
</g>
<!-- \\Helper -->
<g id="node65" class="node"><title>\\Helper</title>
<ellipse fill="none" stroke="black" cx="343" cy="-342" rx="43.8406" ry="18.3848"/>
<text text-anchor="middle" x="343" y="-338.4" font-family="Times Roman,serif" font-size="14.00" fill="gray">Helper</text>
</g>
<!-- \\AppHelper&#45;&gt;\\Helper -->
<g id="edge9" class="edge"><title>\\AppHelper&#45;&gt;\\Helper</title>
<path fill="none" stroke="black" d="M632.806,-1536.88C611.773,-1483.04 550.106,-1318.96 522,-1177 486.775,-999.08 570.705,-499.376 450,-364 436.726,-349.113 416.301,-342.745 396.839,-340.408"/>
<polygon fill="none" stroke="black" points="397.06,-336.914 386.793,-339.53 396.45,-343.888 397.06,-336.914"/>
</g>
<!-- \\NetCommonsDeleteTest -->
<g id="node6" class="node"><title>\\NetCommonsDeleteTest</title>
<polygon fill="none" stroke="black" points="1009,-2734 857,-2734 857,-2698 1009,-2698 1009,-2734"/>
<text text-anchor="middle" x="933" y="-2713.1" font-family="Courier,monospace" font-size="11.00">NetCommonsDeleteTest</text>
</g>
<!-- \\NetCommonsModelTestCase -->
<g id="node15" class="node"><title>\\NetCommonsModelTestCase</title>
<polygon fill="none" stroke="black" points="726,-2734 554,-2734 554,-2698 726,-2698 726,-2734"/>
<text text-anchor="middle" x="640" y="-2713.1" font-family="Courier,monospace" font-size="11.00">NetCommonsModelTestCase</text>
</g>
<!-- \\NetCommonsDeleteTest&#45;&gt;\\NetCommonsModelTestCase -->
<g id="edge11" class="edge"><title>\\NetCommonsDeleteTest&#45;&gt;\\NetCommonsModelTestCase</title>
<path fill="none" stroke="black" d="M856.783,-2716C820.049,-2716 775.59,-2716 736.519,-2716"/>
<polygon fill="none" stroke="black" points="736.183,-2712.5 726.183,-2716 736.183,-2719.5 736.183,-2712.5"/>
</g>
<!-- \\NetCommonsConsoleTestCase -->
<g id="node7" class="node"><title>\\NetCommonsConsoleTestCase</title>
<polygon fill="none" stroke="black" points="732,-2842 548,-2842 548,-2806 732,-2806 732,-2842"/>
<text text-anchor="middle" x="640" y="-2821.1" font-family="Courier,monospace" font-size="11.00">NetCommonsConsoleTestCase</text>
</g>
<!-- \\NetCommonsCakeTestCase -->
<g id="node13" class="node"><title>\\NetCommonsCakeTestCase</title>
<polygon fill="none" stroke="black" points="425,-2788 261,-2788 261,-2752 425,-2752 425,-2788"/>
<text text-anchor="middle" x="343" y="-2767.1" font-family="Courier,monospace" font-size="11.00">NetCommonsCakeTestCase</text>
</g>
<!-- \\NetCommonsConsoleTestCase&#45;&gt;\\NetCommonsCakeTestCase -->
<g id="edge13" class="edge"><title>\\NetCommonsConsoleTestCase&#45;&gt;\\NetCommonsCakeTestCase</title>
<path fill="none" stroke="black" d="M547.249,-2807.14C511.778,-2800.69 471.343,-2793.34 435.861,-2786.88"/>
<polygon fill="none" stroke="black" points="436.458,-2783.44 425.993,-2785.09 435.206,-2790.32 436.458,-2783.44"/>
</g>
<!-- \\NetCommonsGetTest -->
<g id="node8" class="node"><title>\\NetCommonsGetTest</title>
<polygon fill="none" stroke="black" points="998,-2680 868,-2680 868,-2644 998,-2644 998,-2680"/>
<text text-anchor="middle" x="933" y="-2659.1" font-family="Courier,monospace" font-size="11.00">NetCommonsGetTest</text>
</g>
<!-- \\NetCommonsGetTest&#45;&gt;\\NetCommonsModelTestCase -->
<g id="edge15" class="edge"><title>\\NetCommonsGetTest&#45;&gt;\\NetCommonsModelTestCase</title>
<path fill="none" stroke="black" d="M867.245,-2674.12C828.582,-2681.24 779.008,-2690.38 736.034,-2698.3"/>
<polygon fill="none" stroke="black" points="735.32,-2694.87 726.12,-2700.13 736.588,-2701.76 735.32,-2694.87"/>
</g>
<!-- \\NetCommonsHelperTestCase -->
<g id="node9" class="node"><title>\\NetCommonsHelperTestCase</title>
<polygon fill="none" stroke="black" points="729,-2788 551,-2788 551,-2752 729,-2752 729,-2788"/>
<text text-anchor="middle" x="640" y="-2767.1" font-family="Courier,monospace" font-size="11.00">NetCommonsHelperTestCase</text>
</g>
<!-- \\NetCommonsHelperTestCase&#45;&gt;\\NetCommonsCakeTestCase -->
<g id="edge17" class="edge"><title>\\NetCommonsHelperTestCase&#45;&gt;\\NetCommonsCakeTestCase</title>
<path fill="none" stroke="black" d="M550.487,-2770C514.267,-2770 472.456,-2770 435.9,-2770"/>
<polygon fill="none" stroke="black" points="435.737,-2766.5 425.737,-2770 435.737,-2773.5 435.737,-2766.5"/>
</g>
<!-- \\NetCommonsControllerBaseTestCase -->
<g id="node10" class="node"><title>\\NetCommonsControllerBaseTestCase</title>
<polygon fill="none" stroke="black" points="756,-1168 524,-1168 524,-1132 756,-1132 756,-1168"/>
<text text-anchor="middle" x="640" y="-1147.1" font-family="Courier,monospace" font-size="11.00">NetCommonsControllerBaseTestCase</text>
</g>
<!-- \\ControllerTestCase -->
<g id="node71" class="node"><title>\\ControllerTestCase</title>
<ellipse fill="none" stroke="black" cx="343" cy="-288" rx="106.773" ry="18.3848"/>
<text text-anchor="middle" x="343" y="-284.4" font-family="Times Roman,serif" font-size="14.00" fill="gray">\ControllerTestCase</text>
</g>
<!-- \\NetCommonsControllerBaseTestCase&#45;&gt;\\ControllerTestCase -->
<g id="edge19" class="edge"><title>\\NetCommonsControllerBaseTestCase&#45;&gt;\\ControllerTestCase</title>
<path fill="none" stroke="black" d="M633.257,-1131.83C613.463,-1077.87 554.861,-913.577 522,-773 475.098,-572.353 588.906,-467.197 450,-315 446.125,-310.755 441.69,-307.134 436.877,-304.049"/>
<polygon fill="none" stroke="black" points="438.293,-300.832 427.848,-299.056 434.905,-306.958 438.293,-300.832"/>
</g>
<!-- \\NetCommonsValidateTest -->
<g id="node11" class="node"><title>\\NetCommonsValidateTest</title>
<polygon fill="none" stroke="black" points="1015,-2842 851,-2842 851,-2806 1015,-2806 1015,-2842"/>
<text text-anchor="middle" x="933" y="-2821.1" font-family="Courier,monospace" font-size="11.00">NetCommonsValidateTest</text>
</g>
<!-- \\NetCommonsValidateTest&#45;&gt;\\NetCommonsModelTestCase -->
<g id="edge21" class="edge"><title>\\NetCommonsValidateTest&#45;&gt;\\NetCommonsModelTestCase</title>
<path fill="none" stroke="black" d="M851.793,-2805.93C844.283,-2803.3 836.908,-2800.34 830,-2797 793.981,-2779.6 794.288,-2759.83 758,-2743 750.962,-2739.74 743.501,-2736.85 735.884,-2734.31"/>
<polygon fill="none" stroke="black" points="736.762,-2730.91 726.173,-2731.26 734.666,-2737.59 736.762,-2730.91"/>
</g>
<!-- \\NetCommonsTestSuite -->
<g id="node12" class="node"><title>\\NetCommonsTestSuite</title>
<polygon fill="none" stroke="black" points="1005,-1060 861,-1060 861,-1024 1005,-1024 1005,-1060"/>
<text text-anchor="middle" x="933" y="-1039.1" font-family="Courier,monospace" font-size="11.00">NetCommonsTestSuite</text>
</g>
<!-- \\CakeTestSuite -->
<g id="node74" class="node"><title>\\CakeTestSuite</title>
<ellipse fill="none" stroke="black" cx="640" cy="-342" rx="84.1457" ry="18.3848"/>
<text text-anchor="middle" x="640" y="-338.4" font-family="Times Roman,serif" font-size="14.00" fill="gray">\CakeTestSuite</text>
</g>
<!-- \\NetCommonsTestSuite&#45;&gt;\\CakeTestSuite -->
<g id="edge23" class="edge"><title>\\NetCommonsTestSuite&#45;&gt;\\CakeTestSuite</title>
<path fill="none" stroke="black" d="M860.447,-1034.81C848.845,-1030.6 838.034,-1024.3 830,-1015 639.748,-794.678 956.063,-577.328 758,-364 751.088,-356.555 742.529,-351.148 733.202,-347.272"/>
<polygon fill="none" stroke="black" points="734.245,-343.929 723.65,-343.888 731.907,-350.527 734.245,-343.929"/>
</g>
<!-- \\CakeTestCase -->
<g id="node76" class="node"><title>\\CakeTestCase</title>
<ellipse fill="none" stroke="black" cx="82" cy="-2770" rx="82.0244" ry="18.3848"/>
<text text-anchor="middle" x="82" y="-2766.4" font-family="Times Roman,serif" font-size="14.00" fill="gray">\CakeTestCase</text>
</g>
<!-- \\NetCommonsCakeTestCase&#45;&gt;\\CakeTestCase -->
<g id="edge25" class="edge"><title>\\NetCommonsCakeTestCase&#45;&gt;\\CakeTestCase</title>
<path fill="none" stroke="black" d="M260.418,-2770C233.018,-2770 202.345,-2770 174.263,-2770"/>
<polygon fill="none" stroke="black" points="174.045,-2766.5 164.045,-2770 174.045,-2773.5 174.045,-2766.5"/>
</g>
<!-- \\NetCommonsSaveTest -->
<g id="node14" class="node"><title>\\NetCommonsSaveTest</title>
<polygon fill="none" stroke="black" points="1002,-2788 864,-2788 864,-2752 1002,-2752 1002,-2788"/>
<text text-anchor="middle" x="933" y="-2767.1" font-family="Courier,monospace" font-size="11.00">NetCommonsSaveTest</text>
</g>
<!-- \\NetCommonsSaveTest&#45;&gt;\\NetCommonsModelTestCase -->
<g id="edge27" class="edge"><title>\\NetCommonsSaveTest&#45;&gt;\\NetCommonsModelTestCase</title>
<path fill="none" stroke="black" d="M863.934,-2757.27C825.795,-2750.24 777.829,-2741.4 736.084,-2733.71"/>
<polygon fill="none" stroke="black" points="736.641,-2730.25 726.172,-2731.88 735.372,-2737.14 736.641,-2730.25"/>
</g>
<!-- \\NetCommonsModelTestCase&#45;&gt;\\NetCommonsCakeTestCase -->
<g id="edge29" class="edge"><title>\\NetCommonsModelTestCase&#45;&gt;\\NetCommonsCakeTestCase</title>
<path fill="none" stroke="black" d="M553.696,-2731.69C516.671,-2738.42 473.35,-2746.3 435.65,-2753.15"/>
<polygon fill="none" stroke="black" points="434.899,-2749.73 425.686,-2754.97 436.151,-2756.62 434.899,-2749.73"/>
</g>
<!-- \\NetCommonsControllerTestCase -->
<g id="node16" class="node"><title>\\NetCommonsControllerTestCase</title>
<polygon fill="none" stroke="black" points="1036,-1168 830,-1168 830,-1132 1036,-1132 1036,-1168"/>
<text text-anchor="middle" x="933" y="-1147.1" font-family="Courier,monospace" font-size="11.00">NetCommonsControllerTestCase</text>
</g>
<!-- \\NetCommonsControllerTestCase&#45;&gt;\\NetCommonsControllerBaseTestCase -->
<g id="edge31" class="edge"><title>\\NetCommonsControllerTestCase&#45;&gt;\\NetCommonsControllerBaseTestCase</title>
<path fill="none" stroke="black" d="M829.699,-1150C809.381,-1150 787.845,-1150 766.858,-1150"/>
<polygon fill="none" stroke="black" points="766.606,-1146.5 756.606,-1150 766.606,-1153.5 766.606,-1146.5"/>
</g>
<!-- \\NetCommonsAppController -->
<g id="node17" class="node"><title>\\NetCommonsAppController</title>
<polygon fill="none" stroke="black" points="726,-764 554,-764 554,-728 726,-728 726,-764"/>
<text text-anchor="middle" x="640" y="-743.1" font-family="Courier,monospace" font-size="11.00">NetCommonsAppController</text>
</g>
<!-- \\NetCommonsAppController&#45;&gt;\\Controller -->
<g id="edge33" class="edge"><title>\\NetCommonsAppController&#45;&gt;\\Controller</title>
<path fill="none" stroke="black" d="M553.72,-742.839C541.815,-738.949 530.707,-732.973 522,-724 376.974,-574.548 608.165,-396.47 450,-261 377.764,-199.129 312.06,-203.895 236,-261 152.641,-323.585 99.7376,-662.617 85.7334,-762.989"/>
<polygon fill="none" stroke="black" points="82.2538,-762.602 84.3579,-772.986 89.1885,-763.556 82.2538,-762.602"/>
</g>
<!-- \\AssetComponent -->
<g id="node18" class="node"><title>\\AssetComponent</title>
<polygon fill="none" stroke="black" points="988,-952 878,-952 878,-916 988,-916 988,-952"/>
<text text-anchor="middle" x="933" y="-931.1" font-family="Courier,monospace" font-size="11.00">AssetComponent</text>
</g>
<!-- \\Component -->
<g id="node82" class="node"><title>\\Component</title>
<ellipse fill="none" stroke="black" cx="640" cy="-288" rx="70.9184" ry="18.3848"/>
<text text-anchor="middle" x="640" y="-284.4" font-family="Times Roman,serif" font-size="14.00" fill="gray">\Component</text>
</g>
<!-- \\AssetComponent&#45;&gt;\\Component -->
<g id="edge35" class="edge"><title>\\AssetComponent&#45;&gt;\\Component</title>
<path fill="none" stroke="black" d="M877.342,-931.436C859.801,-927.802 841.915,-920.647 830,-907 655.683,-707.337 935.432,-511.899 758,-315 748.227,-304.155 735.069,-297.207 721.082,-292.841"/>
<polygon fill="none" stroke="black" points="721.864,-289.426 711.298,-290.214 720.049,-296.187 721.864,-289.426"/>
</g>
<!-- \\NetCommonsTimeComponent -->
<g id="node19" class="node"><title>\\NetCommonsTimeComponent</title>
<polygon fill="none" stroke="black" points="1019,-898 847,-898 847,-862 1019,-862 1019,-898"/>
<text text-anchor="middle" x="933" y="-877.1" font-family="Courier,monospace" font-size="11.00">NetCommonsTimeComponent</text>
</g>
<!-- \\NetCommonsTimeComponent&#45;&gt;\\Component -->
<g id="edge37" class="edge"><title>\\NetCommonsTimeComponent&#45;&gt;\\Component</title>
<path fill="none" stroke="black" d="M846.734,-866.334C840.484,-862.785 834.774,-858.402 830,-853 670.252,-672.227 920.569,-493.24 758,-315 748.162,-304.213 734.974,-297.293 720.979,-292.934"/>
<polygon fill="none" stroke="black" points="721.757,-289.519 711.192,-290.31 719.944,-296.281 721.757,-289.519"/>
</g>
<!-- \\PermissionComponent -->
<g id="node20" class="node"><title>\\PermissionComponent</title>
<polygon fill="none" stroke="black" points="1005,-844 861,-844 861,-808 1005,-808 1005,-844"/>
<text text-anchor="middle" x="933" y="-823.1" font-family="Courier,monospace" font-size="11.00">PermissionComponent</text>
</g>
<!-- \\PermissionComponent&#45;&gt;\\Component -->
<g id="edge39" class="edge"><title>\\PermissionComponent&#45;&gt;\\Component</title>
<path fill="none" stroke="black" d="M860.47,-818.469C848.938,-814.277 838.146,-808.083 830,-799 684.8,-637.094 905.726,-474.605 758,-315 748.083,-304.286 734.859,-297.398 720.853,-293.049"/>
<polygon fill="none" stroke="black" points="721.628,-289.634 711.063,-290.429 719.818,-296.396 721.628,-289.634"/>
</g>
<!-- \\NetCommonsComponent -->
<g id="node21" class="node"><title>\\NetCommonsComponent</title>
<polygon fill="none" stroke="black" points="1005,-1006 861,-1006 861,-970 1005,-970 1005,-1006"/>
<text text-anchor="middle" x="933" y="-985.1" font-family="Courier,monospace" font-size="11.00">NetCommonsComponent</text>
</g>
<!-- \\NetCommonsComponent&#45;&gt;\\Component -->
<g id="edge41" class="edge"><title>\\NetCommonsComponent&#45;&gt;\\Component</title>
<path fill="none" stroke="black" d="M860.454,-980.809C848.851,-976.592 838.038,-970.301 830,-961 641.099,-742.429 950.312,-530.576 758,-315 748.225,-304.042 734.994,-297.054 720.924,-292.686"/>
<polygon fill="none" stroke="black" points="721.644,-289.256 711.08,-290.064 719.842,-296.02 721.644,-289.256"/>
</g>
<!-- \\NetCommonsController -->
<g id="node22" class="node"><title>\\NetCommonsController</title>
<polygon fill="none" stroke="black" points="1009,-1114 857,-1114 857,-1078 1009,-1078 1009,-1114"/>
<text text-anchor="middle" x="933" y="-1093.1" font-family="Courier,monospace" font-size="11.00">NetCommonsController</text>
</g>
<!-- \\NetCommonsController&#45;&gt;\\NetCommonsAppController -->
<g id="edge43" class="edge"><title>\\NetCommonsController&#45;&gt;\\NetCommonsAppController</title>
<path fill="none" stroke="black" d="M856.95,-1083.45C847.316,-1079.79 838.034,-1075.08 830,-1069 726.056,-990.355 668.437,-836.978 648.297,-774.008"/>
<polygon fill="none" stroke="black" points="651.605,-772.86 645.28,-764.36 644.924,-774.949 651.605,-772.86"/>
</g>
<!-- \\NetCommonsUrl -->
<g id="node23" class="node"><title>\\NetCommonsUrl</title>
<polygon fill="none" stroke="black" points="985,-2194 881,-2194 881,-2158 985,-2158 985,-2194"/>
<text text-anchor="middle" x="933" y="-2173.1" font-family="Courier,monospace" font-size="11.00">NetCommonsUrl</text>
</g>
<!-- \\NetCommonsTime -->
<g id="node24" class="node"><title>\\NetCommonsTime</title>
<polygon fill="none" stroke="black" points="988,-2140 878,-2140 878,-2104 988,-2104 988,-2140"/>
<text text-anchor="middle" x="933" y="-2119.1" font-family="Courier,monospace" font-size="11.00">NetCommonsTime</text>
</g>
<!-- \\CurrentBase -->
<g id="node25" class="node"><title>\\CurrentBase</title>
<polygon fill="none" stroke="black" points="685,-2302 595,-2302 595,-2266 685,-2266 685,-2302"/>
<text text-anchor="middle" x="640" y="-2281.1" font-family="Courier,monospace" font-size="11.00">CurrentBase</text>
</g>
<!-- \\Current -->
<g id="node26" class="node"><title>\\Current</title>
<polygon fill="none" stroke="black" points="965,-2302 901,-2302 901,-2266 965,-2266 965,-2302"/>
<text text-anchor="middle" x="933" y="-2281.1" font-family="Courier,monospace" font-size="11.00">Current</text>
</g>
<!-- \\Current&#45;&gt;\\CurrentBase -->
<g id="edge45" class="edge"><title>\\Current&#45;&gt;\\CurrentBase</title>
<path fill="none" stroke="black" d="M900.806,-2284C851.48,-2284 756.554,-2284 695.846,-2284"/>
<polygon fill="none" stroke="black" points="695.669,-2280.5 685.669,-2284 695.669,-2287.5 695.669,-2280.5"/>
</g>
<!-- \\CurrentSystem -->
<g id="node27" class="node"><title>\\CurrentSystem</title>
<polygon fill="none" stroke="black" points="985,-2032 881,-2032 881,-1996 985,-1996 985,-2032"/>
<text text-anchor="middle" x="933" y="-2011.1" font-family="Courier,monospace" font-size="11.00">CurrentSystem</text>
</g>
<!-- \\CurrentPage -->
<g id="node28" class="node"><title>\\CurrentPage</title>
<polygon fill="none" stroke="black" points="978,-1978 888,-1978 888,-1942 978,-1942 978,-1978"/>
<text text-anchor="middle" x="933" y="-1957.1" font-family="Courier,monospace" font-size="11.00">CurrentPage</text>
</g>
<!-- \\CurrentFrame -->
<g id="node29" class="node"><title>\\CurrentFrame</title>
<polygon fill="none" stroke="black" points="982,-1924 884,-1924 884,-1888 982,-1888 982,-1924"/>
<text text-anchor="middle" x="933" y="-1903.1" font-family="Courier,monospace" font-size="11.00">CurrentFrame</text>
</g>
<!-- \\TokenHelper -->
<g id="node30" class="node"><title>\\TokenHelper</title>
<polygon fill="none" stroke="black" points="978,-736 888,-736 888,-700 978,-700 978,-736"/>
<text text-anchor="middle" x="933" y="-715.1" font-family="Courier,monospace" font-size="11.00">TokenHelper</text>
</g>
<!-- \\FormHelper -->
<g id="node89" class="node"><title>\\FormHelper</title>
<ellipse fill="none" stroke="black" cx="640" cy="-234" rx="70.9184" ry="18.3848"/>
<text text-anchor="middle" x="640" y="-230.4" font-family="Times Roman,serif" font-size="14.00" fill="gray">\FormHelper</text>
</g>
<!-- \\TokenHelper&#45;&gt;\\FormHelper -->
<g id="edge47" class="edge"><title>\\TokenHelper&#45;&gt;\\FormHelper</title>
<path fill="none" stroke="black" d="M887.255,-716.813C866.966,-713.861 844.462,-706.833 830,-691 699.318,-547.927 890.914,-402.002 758,-261 747.986,-250.377 734.718,-243.531 720.698,-239.194"/>
<polygon fill="none" stroke="black" points="721.468,-235.777 710.904,-236.577 719.661,-242.54 721.468,-235.777"/>
</g>
<!-- \\SingletonViewBlockHtmlHelper -->
<g id="node31" class="node"><title>\\SingletonViewBlockHtmlHelper</title>
<polygon fill="none" stroke="black" points="1036,-628 830,-628 830,-592 1036,-592 1036,-628"/>
<text text-anchor="middle" x="933" y="-607.1" font-family="Courier,monospace" font-size="11.00">SingletonViewBlockHtmlHelper</text>
</g>
<!-- \\HtmlHelper -->
<g id="node91" class="node"><title>\\HtmlHelper</title>
<ellipse fill="none" stroke="black" cx="640" cy="-180" rx="67.1751" ry="18.3848"/>
<text text-anchor="middle" x="640" y="-176.4" font-family="Times Roman,serif" font-size="14.00" fill="gray">HtmlHelper</text>
</g>
<!-- \\SingletonViewBlockHtmlHelper&#45;&gt;\\HtmlHelper -->
<g id="edge49" class="edge"><title>\\SingletonViewBlockHtmlHelper&#45;&gt;\\HtmlHelper</title>
<path fill="none" stroke="black" d="M840.465,-591.968C836.678,-589.35 833.156,-586.376 830,-583 713.795,-458.716 876.143,-329.443 758,-207 746.987,-195.587 732.213,-188.556 716.851,-184.316"/>
<polygon fill="none" stroke="black" points="717.243,-180.812 706.706,-181.915 715.631,-187.624 717.243,-180.812"/>
</g>
<!-- \\FormInputHelper -->
<g id="node32" class="node"><title>\\FormInputHelper</title>
<polygon fill="none" stroke="black" points="992,-1384 874,-1384 874,-1348 992,-1348 992,-1384"/>
<text text-anchor="middle" x="933" y="-1363.1" font-family="Courier,monospace" font-size="11.00">FormInputHelper</text>
</g>
<!-- \\FormInputHelper&#45;&gt;\\AppHelper -->
<g id="edge51" class="edge"><title>\\FormInputHelper&#45;&gt;\\AppHelper</title>
<path fill="none" stroke="black" d="M873.826,-1376.67C859.022,-1380.63 843.519,-1385.94 830,-1393 761.41,-1428.81 696.097,-1493.44 662.838,-1529.3"/>
<polygon fill="none" stroke="black" points="660.033,-1527.17 655.854,-1536.91 665.192,-1531.91 660.033,-1527.17"/>
</g>
<!-- \\WizardHelper -->
<g id="node33" class="node"><title>\\WizardHelper</title>
<polygon fill="none" stroke="black" points="982,-1330 884,-1330 884,-1294 982,-1294 982,-1330"/>
<text text-anchor="middle" x="933" y="-1309.1" font-family="Courier,monospace" font-size="11.00">WizardHelper</text>
</g>
<!-- \\WizardHelper&#45;&gt;\\AppHelper -->
<g id="edge53" class="edge"><title>\\WizardHelper&#45;&gt;\\AppHelper</title>
<path fill="none" stroke="black" d="M883.968,-1318.69C866.043,-1322.68 846.204,-1329 830,-1339 749.876,-1388.44 684.727,-1482.19 655.946,-1528.19"/>
<polygon fill="none" stroke="black" points="652.792,-1526.64 650.523,-1536.98 658.75,-1530.31 652.792,-1526.64"/>
</g>
<!-- \\DisplayNumberHelper -->
<g id="node34" class="node"><title>\\DisplayNumberHelper</title>
<polygon fill="none" stroke="black" points="1005,-1276 861,-1276 861,-1240 1005,-1240 1005,-1276"/>
<text text-anchor="middle" x="933" y="-1255.1" font-family="Courier,monospace" font-size="11.00">DisplayNumberHelper</text>
</g>
<!-- \\DisplayNumberHelper&#45;&gt;\\AppHelper -->
<g id="edge55" class="edge"><title>\\DisplayNumberHelper&#45;&gt;\\AppHelper</title>
<path fill="none" stroke="black" d="M860.343,-1270.12C849.608,-1273.83 839.11,-1278.67 830,-1285 738.034,-1348.86 675.79,-1472.47 651.457,-1527.46"/>
<polygon fill="none" stroke="black" points="648.13,-1526.34 647.356,-1536.9 654.551,-1529.13 648.13,-1526.34"/>
</g>
<!-- \\MessageFlashHelper -->
<g id="node35" class="node"><title>\\MessageFlashHelper</title>
<polygon fill="none" stroke="black" points="1002,-1222 864,-1222 864,-1186 1002,-1186 1002,-1222"/>
<text text-anchor="middle" x="933" y="-1201.1" font-family="Courier,monospace" font-size="11.00">MessageFlashHelper</text>
</g>
<!-- \\MessageFlashHelper&#45;&gt;\\AppHelper -->
<g id="edge57" class="edge"><title>\\MessageFlashHelper&#45;&gt;\\AppHelper</title>
<path fill="none" stroke="black" d="M863.883,-1214.1C851.808,-1218.03 839.946,-1223.46 830,-1231 725.624,-1310.08 668.084,-1464.47 648.129,-1527.35"/>
<polygon fill="none" stroke="black" points="644.764,-1526.39 645.144,-1536.97 651.45,-1528.46 644.764,-1526.39"/>
</g>
<!-- \\DateHelper -->
<g id="node36" class="node"><title>\\DateHelper</title>
<polygon fill="none" stroke="black" points="975,-2248 891,-2248 891,-2212 975,-2212 975,-2248"/>
<text text-anchor="middle" x="933" y="-2227.1" font-family="Courier,monospace" font-size="11.00">DateHelper</text>
</g>
<!-- \\DateHelper&#45;&gt;\\AppHelper -->
<g id="edge59" class="edge"><title>\\DateHelper&#45;&gt;\\AppHelper</title>
<path fill="none" stroke="black" d="M890.921,-2228.43C870.129,-2225.53 846.109,-2218.65 830,-2203 737.138,-2112.78 663.079,-1695.86 644.505,-1583.15"/>
<polygon fill="none" stroke="black" points="647.948,-1582.52 642.881,-1573.22 641.039,-1583.65 647.948,-1582.52"/>
</g>
<!-- \\SnsButtonHelper -->
<g id="node37" class="node"><title>\\SnsButtonHelper</title>
<polygon fill="none" stroke="black" points="992,-2086 874,-2086 874,-2050 992,-2050 992,-2086"/>
<text text-anchor="middle" x="933" y="-2065.1" font-family="Courier,monospace" font-size="11.00">SnsButtonHelper</text>
</g>
<!-- \\SnsButtonHelper&#45;&gt;\\AppHelper -->
<g id="edge61" class="edge"><title>\\SnsButtonHelper&#45;&gt;\\AppHelper</title>
<path fill="none" stroke="black" d="M873.846,-2062.35C858.121,-2058.39 842.152,-2051.82 830,-2041 687.368,-1914.06 650.808,-1666.73 642.341,-1583.27"/>
<polygon fill="none" stroke="black" points="645.82,-1582.89 641.383,-1573.27 638.852,-1583.56 645.82,-1582.89"/>
</g>
<!-- \\BackToHelper -->
<g id="node38" class="node"><title>\\BackToHelper</title>
<polygon fill="none" stroke="black" points="982,-1870 884,-1870 884,-1834 982,-1834 982,-1870"/>
<text text-anchor="middle" x="933" y="-1849.1" font-family="Courier,monospace" font-size="11.00">BackToHelper</text>
</g>
<!-- \\BackToHelper&#45;&gt;\\AppHelper -->
<g id="edge63" class="edge"><title>\\BackToHelper&#45;&gt;\\AppHelper</title>
<path fill="none" stroke="black" d="M883.887,-1846.35C865.751,-1842.48 845.791,-1835.97 830,-1825 738.034,-1761.14 675.79,-1637.53 651.457,-1582.54"/>
<polygon fill="none" stroke="black" points="654.551,-1580.87 647.356,-1573.1 648.13,-1583.66 654.551,-1580.87"/>
</g>
<!-- \\NetCommonsHtmlHelper -->
<g id="node39" class="node"><title>\\NetCommonsHtmlHelper</title>
<polygon fill="none" stroke="black" points="1009,-1816 857,-1816 857,-1780 1009,-1780 1009,-1816"/>
<text text-anchor="middle" x="933" y="-1795.1" font-family="Courier,monospace" font-size="11.00">NetCommonsHtmlHelper</text>
</g>
<!-- \\NetCommonsHtmlHelper&#45;&gt;\\AppHelper -->
<g id="edge65" class="edge"><title>\\NetCommonsHtmlHelper&#45;&gt;\\AppHelper</title>
<path fill="none" stroke="black" d="M856.876,-1783.6C847.463,-1780.24 838.259,-1776.1 830,-1771 749.876,-1721.56 684.727,-1627.81 655.946,-1581.81"/>
<polygon fill="none" stroke="black" points="658.75,-1579.69 650.523,-1573.02 652.792,-1583.36 658.75,-1579.69"/>
</g>
<!-- \\ButtonHelper -->
<g id="node40" class="node"><title>\\ButtonHelper</title>
<polygon fill="none" stroke="black" points="982,-682 884,-682 884,-646 982,-646 982,-682"/>
<text text-anchor="middle" x="933" y="-661.1" font-family="Courier,monospace" font-size="11.00">ButtonHelper</text>
</g>
<!-- \\ButtonHelper&#45;&gt;\\FormHelper -->
<g id="edge67" class="edge"><title>\\ButtonHelper&#45;&gt;\\FormHelper</title>
<path fill="none" stroke="black" d="M883.995,-662.12C864.667,-658.863 843.825,-651.786 830,-637 713.795,-512.716 876.143,-383.443 758,-261 747.863,-250.494 734.538,-243.702 720.502,-239.381"/>
<polygon fill="none" stroke="black" points="721.266,-235.962 710.702,-236.77 719.464,-242.726 721.266,-235.962"/>
</g>
<!-- \\ComposerHelper -->
<g id="node41" class="node"><title>\\ComposerHelper</title>
<polygon fill="none" stroke="black" points="988,-1762 878,-1762 878,-1726 988,-1726 988,-1762"/>
<text text-anchor="middle" x="933" y="-1741.1" font-family="Courier,monospace" font-size="11.00">ComposerHelper</text>
</g>
<!-- \\ComposerHelper&#45;&gt;\\AppHelper -->
<g id="edge69" class="edge"><title>\\ComposerHelper&#45;&gt;\\AppHelper</title>
<path fill="none" stroke="black" d="M877.31,-1734.24C861.477,-1730.2 844.584,-1724.61 830,-1717 761.41,-1681.19 696.097,-1616.56 662.838,-1580.7"/>
<polygon fill="none" stroke="black" points="665.192,-1578.09 655.854,-1573.09 660.033,-1582.83 665.192,-1578.09"/>
</g>
<!-- \\LinkButtonHelper -->
<g id="node42" class="node"><title>\\LinkButtonHelper</title>
<polygon fill="none" stroke="black" points="995,-790 871,-790 871,-754 995,-754 995,-790"/>
<text text-anchor="middle" x="933" y="-769.1" font-family="Courier,monospace" font-size="11.00">LinkButtonHelper</text>
</g>
<!-- \\LinkButtonHelper&#45;&gt;\\FormHelper -->
<g id="edge71" class="edge"><title>\\LinkButtonHelper&#45;&gt;\\FormHelper</title>
<path fill="none" stroke="black" d="M870.3,-767.541C855.196,-763.523 840.429,-756.629 830,-745 684.8,-583.094 905.726,-420.605 758,-261 748.083,-250.286 734.859,-243.398 720.853,-239.049"/>
<polygon fill="none" stroke="black" points="721.628,-235.634 711.063,-236.429 719.818,-242.396 721.628,-235.634"/>
</g>
<!-- \\TableListHelper -->
<g id="node43" class="node"><title>\\TableListHelper</title>
<polygon fill="none" stroke="black" points="992,-1708 874,-1708 874,-1672 992,-1672 992,-1708"/>
<text text-anchor="middle" x="933" y="-1687.1" font-family="Courier,monospace" font-size="11.00">TableListHelper</text>
</g>
<!-- \\TableListHelper&#45;&gt;\\AppHelper -->
<g id="edge73" class="edge"><title>\\TableListHelper&#45;&gt;\\AppHelper</title>
<path fill="none" stroke="black" d="M873.852,-1677.31C859.272,-1673.42 843.869,-1668.65 830,-1663 773.066,-1639.82 712.097,-1602.73 675.004,-1578.61"/>
<polygon fill="none" stroke="black" points="676.839,-1575.63 666.557,-1573.07 673.002,-1581.48 676.839,-1575.63"/>
</g>
<!-- \\NetCommonsTimeHelper -->
<g id="node44" class="node"><title>\\NetCommonsTimeHelper</title>
<polygon fill="none" stroke="black" points="1009,-1654 857,-1654 857,-1618 1009,-1618 1009,-1654"/>
<text text-anchor="middle" x="933" y="-1633.1" font-family="Courier,monospace" font-size="11.00">NetCommonsTimeHelper</text>
</g>
<!-- \\NetCommonsTimeHelper&#45;&gt;\\AppHelper -->
<g id="edge75" class="edge"><title>\\NetCommonsTimeHelper&#45;&gt;\\AppHelper</title>
<path fill="none" stroke="black" d="M863.415,-1617.97C852.231,-1615.01 840.789,-1611.95 830,-1609 781.716,-1595.81 726.728,-1580.11 688.375,-1569.04"/>
<polygon fill="none" stroke="black" points="689.087,-1565.61 678.508,-1566.2 687.145,-1572.33 689.087,-1565.61"/>
</g>
<!-- \\NetCommonsFormHelper -->
<g id="node45" class="node"><title>\\NetCommonsFormHelper</title>
<polygon fill="none" stroke="black" points="1009,-1600 857,-1600 857,-1564 1009,-1564 1009,-1600"/>
<text text-anchor="middle" x="933" y="-1579.1" font-family="Courier,monospace" font-size="11.00">NetCommonsFormHelper</text>
</g>
<!-- \\NetCommonsFormHelper&#45;&gt;\\AppHelper -->
<g id="edge77" class="edge"><title>\\NetCommonsFormHelper&#45;&gt;\\AppHelper</title>
<path fill="none" stroke="black" d="M856.783,-1574.98C803.659,-1570.08 734.376,-1563.7 688.603,-1559.48"/>
<polygon fill="none" stroke="black" points="688.917,-1555.99 678.638,-1558.56 688.274,-1562.96 688.917,-1555.99"/>
</g>
<!-- \\TitleIconHelper -->
<g id="node46" class="node"><title>\\TitleIconHelper</title>
<polygon fill="none" stroke="black" points="992,-1546 874,-1546 874,-1510 992,-1510 992,-1546"/>
<text text-anchor="middle" x="933" y="-1525.1" font-family="Courier,monospace" font-size="11.00">TitleIconHelper</text>
</g>
<!-- \\TitleIconHelper&#45;&gt;\\AppHelper -->
<g id="edge79" class="edge"><title>\\TitleIconHelper&#45;&gt;\\AppHelper</title>
<path fill="none" stroke="black" d="M873.707,-1533.46C819.266,-1538.48 739.563,-1545.83 688.738,-1550.51"/>
<polygon fill="none" stroke="black" points="688.299,-1547.03 678.663,-1551.44 688.942,-1554 688.299,-1547.03"/>
</g>
<!-- \\DatetimePickerHelper -->
<g id="node47" class="node"><title>\\DatetimePickerHelper</title>
<polygon fill="none" stroke="black" points="1009,-1492 857,-1492 857,-1456 1009,-1456 1009,-1492"/>
<text text-anchor="middle" x="933" y="-1471.1" font-family="Courier,monospace" font-size="11.00">DatetimePickerHelper</text>
</g>
<!-- \\DatetimePickerHelper&#45;&gt;\\AppHelper -->
<g id="edge81" class="edge"><title>\\DatetimePickerHelper&#45;&gt;\\AppHelper</title>
<path fill="none" stroke="black" d="M863.415,-1492.03C852.231,-1494.99 840.789,-1498.05 830,-1501 781.716,-1514.19 726.728,-1529.89 688.375,-1540.96"/>
<polygon fill="none" stroke="black" points="687.145,-1537.67 678.508,-1543.8 689.087,-1544.39 687.145,-1537.67"/>
</g>
<!-- \\Model -->
<g id="node109" class="node"><title>\\Model</title>
<ellipse fill="none" stroke="black" cx="82" cy="-2554" rx="43.8406" ry="18.3848"/>
<text text-anchor="middle" x="82" y="-2550.4" font-family="Times Roman,serif" font-size="14.00" fill="gray">\Model</text>
</g>
<!-- \\NetCommonsAppModel&#45;&gt;\\Model -->
<g id="edge83" class="edge"><title>\\NetCommonsAppModel&#45;&gt;\\Model</title>
<path fill="none" stroke="black" d="M273.742,-2554C230.675,-2554 176.099,-2554 136.195,-2554"/>
<polygon fill="none" stroke="black" points="136.125,-2550.5 126.125,-2554 136.125,-2557.5 136.125,-2550.5"/>
</g>
<!-- \\OriginalKeyBehavior -->
<g id="node49" class="node"><title>\\OriginalKeyBehavior</title>
<polygon fill="none" stroke="black" points="1005,-574 861,-574 861,-538 1005,-538 1005,-574"/>
<text text-anchor="middle" x="933" y="-553.1" font-family="Courier,monospace" font-size="11.00">OriginalKeyBehavior</text>
</g>
<!-- \\ModelBehavior -->
<g id="node111" class="node"><title>\\ModelBehavior</title>
<ellipse fill="none" stroke="black" cx="640" cy="-126" rx="86.9741" ry="18.3848"/>
<text text-anchor="middle" x="640" y="-122.4" font-family="Times Roman,serif" font-size="14.00" fill="gray">\ModelBehavior</text>
</g>
<!-- \\OriginalKeyBehavior&#45;&gt;\\ModelBehavior -->
<g id="edge85" class="edge"><title>\\OriginalKeyBehavior&#45;&gt;\\ModelBehavior</title>
<path fill="none" stroke="black" d="M860.253,-547.995C848.886,-543.838 838.206,-537.777 830,-529 713.795,-404.716 876.143,-275.443 758,-153 750.646,-145.379 741.615,-139.712 731.852,-135.525"/>
<polygon fill="none" stroke="black" points="732.89,-132.176 722.298,-131.949 730.436,-138.732 732.89,-132.176"/>
</g>
<!-- \\TrackableBehavior -->
<g id="node50" class="node"><title>\\TrackableBehavior</title>
<polygon fill="none" stroke="black" points="998,-520 868,-520 868,-484 998,-484 998,-520"/>
<text text-anchor="middle" x="933" y="-499.1" font-family="Courier,monospace" font-size="11.00">TrackableBehavior</text>
</g>
<!-- \\TrackableBehavior&#45;&gt;\\ModelBehavior -->
<g id="edge87" class="edge"><title>\\TrackableBehavior&#45;&gt;\\ModelBehavior</title>
<path fill="none" stroke="black" d="M867.375,-496.047C853.48,-491.941 840.009,-485.38 830,-475 728.21,-369.437 861.436,-256.95 758,-153 750.53,-145.493 741.428,-139.895 731.627,-135.745"/>
<polygon fill="none" stroke="black" points="732.638,-132.388 722.045,-132.196 730.207,-138.952 732.638,-132.388"/>
</g>
<!-- \\YAExceptionRenderer -->
<g id="node51" class="node"><title>\\YAExceptionRenderer</title>
<polygon fill="none" stroke="black" points="1005,-466 861,-466 861,-430 1005,-430 1005,-466"/>
<text text-anchor="middle" x="933" y="-445.1" font-family="Courier,monospace" font-size="11.00">YAExceptionRenderer</text>
</g>
<!-- \\ExceptionRenderer -->
<g id="node114" class="node"><title>\\ExceptionRenderer</title>
<ellipse fill="none" stroke="black" cx="640" cy="-72" rx="118.087" ry="18.3848"/>
<text text-anchor="middle" x="640" y="-68.4" font-family="Times Roman,serif" font-size="14.00" fill="gray">TEHxceptionRenderer</text>
</g>
<!-- \\YAExceptionRenderer&#45;&gt;\\ExceptionRenderer -->
<g id="edge89" class="edge"><title>\\YAExceptionRenderer&#45;&gt;\\ExceptionRenderer</title>
<path fill="none" stroke="black" d="M860.477,-439.783C849.086,-435.648 838.341,-429.65 830,-421 728.21,-315.437 861.436,-202.95 758,-99 753.632,-94.61 748.706,-90.873 743.408,-87.6967"/>
<polygon fill="none" stroke="black" points="744.657,-84.4002 734.174,-82.8643 741.411,-90.6022 744.657,-84.4002"/>
</g>
<!-- \\NetCommonsMigration -->
<g id="node52" class="node"><title>\\NetCommonsMigration</title>
<polygon fill="none" stroke="black" points="1005,-412 861,-412 861,-376 1005,-376 1005,-412"/>
<text text-anchor="middle" x="933" y="-391.1" font-family="Courier,monospace" font-size="11.00">NetCommonsMigration</text>
</g>
<!-- \\CakeMigration -->
<g id="node116" class="node"><title>\\CakeMigration</title>
<ellipse fill="none" stroke="black" cx="640" cy="-18" rx="84.8528" ry="18.3848"/>
<text text-anchor="middle" x="640" y="-14.4" font-family="Times Roman,serif" font-size="14.00" fill="gray">\CakeMigration</text>
</g>
<!-- \\NetCommonsMigration&#45;&gt;\\CakeMigration -->
<g id="edge91" class="edge"><title>\\NetCommonsMigration&#45;&gt;\\CakeMigration</title>
<path fill="none" stroke="black" d="M929.544,-375.725C917.514,-317.407 871.834,-134.35 758,-45 748.922,-37.8745 738.309,-32.5637 727.237,-28.6167"/>
<polygon fill="none" stroke="black" points="728.007,-25.1887 717.416,-25.488 725.882,-31.8584 728.007,-25.1887"/>
</g>
<!-- \\ForgotPassController -->
<g id="node53" class="node"><title>\\ForgotPassController</title>
<polygon fill="none" stroke="black" points="1009,-2356 857,-2356 857,-2320 1009,-2320 1009,-2356"/>
<text text-anchor="middle" x="933" y="-2335.1" font-family="Courier,monospace" font-size="11.00">ForgotPassController</text>
</g>
<!-- \\AuthAppController -->
<g id="node56" class="node"><title>\\AuthAppController</title>
<polygon fill="none" stroke="black" points="705,-2383 575,-2383 575,-2347 705,-2347 705,-2383"/>
<text text-anchor="middle" x="640" y="-2362.1" font-family="Courier,monospace" font-size="11.00">AuthAppController</text>
</g>
<!-- \\ForgotPassController&#45;&gt;\\AuthAppController -->
<g id="edge93" class="edge"><title>\\ForgotPassController&#45;&gt;\\AuthAppController</title>
<path fill="none" stroke="black" d="M856.783,-2345.02C813.457,-2349.02 759.385,-2354 716.082,-2357.99"/>
<polygon fill="none" stroke="black" points="715.523,-2354.53 705.886,-2358.93 716.165,-2361.5 715.523,-2354.53"/>
</g>
<!-- \\AutoUserRegistController -->
<g id="node54" class="node"><title>\\AutoUserRegistController</title>
<polygon fill="none" stroke="black" points="1022,-2464 844,-2464 844,-2428 1022,-2428 1022,-2464"/>
<text text-anchor="middle" x="933" y="-2443.1" font-family="Courier,monospace" font-size="11.00">AutoUserRegistController</text>
</g>
<!-- \\AutoUserRegistController&#45;&gt;\\AuthAppController -->
<g id="edge95" class="edge"><title>\\AutoUserRegistController&#45;&gt;\\AuthAppController</title>
<path fill="none" stroke="black" d="M863.415,-2427.97C852.231,-2425.01 840.789,-2421.95 830,-2419 790.993,-2408.35 747.61,-2396.05 712.158,-2385.88"/>
<polygon fill="none" stroke="black" points="712.957,-2382.47 702.379,-2383.08 711.025,-2389.2 712.957,-2382.47"/>
</g>
<!-- \\AuthController -->
<g id="node55" class="node"><title>\\AuthController</title>
<polygon fill="none" stroke="black" points="988,-2410 878,-2410 878,-2374 988,-2374 988,-2410"/>
<text text-anchor="middle" x="933" y="-2389.1" font-family="Courier,monospace" font-size="11.00">AuthController</text>
</g>
<!-- \\AuthController&#45;&gt;\\AuthAppController -->
<g id="edge97" class="edge"><title>\\AuthController&#45;&gt;\\AuthAppController</title>
<path fill="none" stroke="black" d="M877.199,-2386.86C831.453,-2382.64 766.254,-2376.63 715.785,-2371.98"/>
<polygon fill="none" stroke="black" points="715.854,-2368.48 705.575,-2371.04 715.211,-2375.45 715.854,-2368.48"/>
</g>
<!-- \\AuthAppController&#45;&gt;\\AppController -->
<g id="edge99" class="edge"><title>\\AuthAppController&#45;&gt;\\AppController</title>
<path fill="none" stroke="black" d="M574.35,-2347.78C554.851,-2339.63 535.199,-2327.85 522,-2311 405.329,-2162.06 354.877,-1535.88 344.897,-1395.16"/>
<polygon fill="none" stroke="black" points="348.387,-1394.9 344.199,-1385.16 341.404,-1395.38 348.387,-1394.9"/>
</g>
<!-- \\AutoUserRegistFormHelper -->
<g id="node57" class="node"><title>\\AutoUserRegistFormHelper</title>
<polygon fill="none" stroke="black" points="1022,-1438 844,-1438 844,-1402 1022,-1402 1022,-1438"/>
<text text-anchor="middle" x="933" y="-1417.1" font-family="Courier,monospace" font-size="11.00">AutoUserRegistFormHelper</text>
</g>
<!-- \\AutoUserRegistFormHelper&#45;&gt;\\AppHelper -->
<g id="edge101" class="edge"><title>\\AutoUserRegistFormHelper&#45;&gt;\\AppHelper</title>
<path fill="none" stroke="black" d="M855.231,-1438.05C846.611,-1440.74 838.047,-1443.72 830,-1447 773.066,-1470.18 712.097,-1507.27 675.004,-1531.39"/>
<polygon fill="none" stroke="black" points="673.002,-1528.52 666.557,-1536.93 676.839,-1534.37 673.002,-1528.52"/>
</g>
<!-- \\AutoUserRegist -->
<g id="node58" class="node"><title>\\AutoUserRegist</title>
<polygon fill="none" stroke="black" points="988,-2518 878,-2518 878,-2482 988,-2482 988,-2518"/>
<text text-anchor="middle" x="933" y="-2497.1" font-family="Courier,monospace" font-size="11.00">AutoUserRegist</text>
</g>
<!-- \\AutoUserRegist&#45;&gt;\\AppModel -->
<g id="edge103" class="edge"><title>\\AutoUserRegist&#45;&gt;\\AppModel</title>
<path fill="none" stroke="black" d="M877.199,-2510.28C821.629,-2520.53 737.353,-2536.06 685.646,-2545.59"/>
<polygon fill="none" stroke="black" points="684.957,-2542.16 675.757,-2547.41 686.226,-2549.04 684.957,-2542.16"/>
</g>
<!-- \\ForgotPass -->
<g id="node59" class="node"><title>\\ForgotPass</title>
<polygon fill="none" stroke="black" points="975,-2626 891,-2626 891,-2590 975,-2590 975,-2626"/>
<text text-anchor="middle" x="933" y="-2605.1" font-family="Courier,monospace" font-size="11.00">ForgotPass</text>
</g>
<!-- \\ForgotPass&#45;&gt;\\AppModel -->
<g id="edge105" class="edge"><title>\\ForgotPass&#45;&gt;\\AppModel</title>
<path fill="none" stroke="black" d="M890.708,-2600.21C836.253,-2590.17 741.97,-2572.79 685.845,-2562.45"/>
<polygon fill="none" stroke="black" points="686.296,-2558.97 675.827,-2560.6 685.027,-2565.86 686.296,-2558.97"/>
</g>
</g>
</svg>
