<?xml version="1.0" encoding="UTF-8" standalone="no"?>
<!DOCTYPE svg PUBLIC "-//W3C//DTD SVG 1.1//EN"
 "http://www.w3.org/Graphics/SVG/1.1/DTD/svg11.dtd">
<!-- Generated by graphviz version 2.26.3 (20100126.1600)
 -->
<!-- Title: G Pages: 1 -->
<svg width="1060pt" height="2996pt"
 viewBox="0.00 0.00 1060.00 2996.00" xmlns="http://www.w3.org/2000/svg" xmlns:xlink="http://www.w3.org/1999/xlink">
<g id="graph1" class="graph" transform="scale(1 1) rotate(0) translate(4 2992)">
<title>G</title>
<polygon fill="white" stroke="white" points="-4,5 -4,-2992 1057,-2992 1057,5 -4,5"/>
<g id="graph2" class="cluster"><title>cluster_Global</title>
<polyline fill="none" stroke="gray" points="264,-368 1032,-368 "/>
<path fill="none" stroke="gray" d="M1032,-368C1038,-368 1044,-374 1044,-380"/>
<polyline fill="none" stroke="gray" points="1044,-380 1044,-2968 "/>
<path fill="none" stroke="gray" d="M1044,-2968C1044,-2974 1038,-2980 1032,-2980"/>
<polyline fill="none" stroke="gray" points="1032,-2980 264,-2980 "/>
<path fill="none" stroke="gray" d="M264,-2980C258,-2980 252,-2974 252,-2968"/>
<polyline fill="none" stroke="gray" points="252,-2968 252,-380 "/>
<path fill="none" stroke="gray" d="M252,-380C252,-374 258,-368 264,-368"/>
<text text-anchor="middle" x="648" y="-2966.1" font-family="Times Roman,serif" font-size="11.00" fill="gray">Global</text>
</g>
<!-- \\AppController -->
<g id="node2" class="node"><title>\\AppController</title>
<polygon fill="none" stroke="black" points="395,-1439 291,-1439 291,-1403 395,-1403 395,-1439"/>
<text text-anchor="middle" x="343" y="-1418.1" font-family="Courier,monospace" font-size="11.00">AppController</text>
</g>
<!-- \\Controller -->
<g id="node63" class="node"><title>\\Controller</title>
<ellipse fill="none" stroke="black" cx="82" cy="-818" rx="63.1385" ry="18.3848"/>
<text text-anchor="middle" x="82" y="-814.4" font-family="Times Roman,serif" font-size="14.00" fill="gray">\Controller</text>
</g>
<!-- \\AppController&#45;&gt;\\Controller -->
<g id="edge3" class="edge"><title>\\AppController&#45;&gt;\\Controller</title>
<path fill="none" stroke="black" d="M290.89,-1421.41C271.465,-1418.95 250.609,-1412.81 236,-1399 153.051,-1320.6 99.4133,-951.935 85.5628,-846.332"/>
<polygon fill="none" stroke="black" points="88.9974,-845.601 84.2422,-836.133 82.0554,-846.5 88.9974,-845.601"/>
</g>
<!-- \\AppModel -->
<g id="node3" class="node"><title>\\AppModel</title>
<polygon fill="none" stroke="black" points="675,-2680 605,-2680 605,-2644 675,-2644 675,-2680"/>
<text text-anchor="middle" x="640" y="-2659.1" font-family="Courier,monospace" font-size="11.00">AppModel</text>
</g>
<!-- \\NetCommonsAppModel -->
<g id="node50" class="node"><title>\\NetCommonsAppModel</title>
<polygon fill="none" stroke="black" points="412,-2680 274,-2680 274,-2644 412,-2644 412,-2680"/>
<text text-anchor="middle" x="343" y="-2659.1" font-family="Courier,monospace" font-size="11.00">NetCommonsAppModel</text>
</g>
<!-- \\AppModel&#45;&gt;\\NetCommonsAppModel -->
<g id="edge5" class="edge"><title>\\AppModel&#45;&gt;\\NetCommonsAppModel</title>
<path fill="none" stroke="black" d="M604.47,-2662C559.713,-2662 481.497,-2662 422.241,-2662"/>
<polygon fill="none" stroke="black" points="422.157,-2658.5 412.157,-2662 422.157,-2665.5 422.157,-2658.5"/>
</g>
<!-- \\DatabaseConfiguration -->
<g id="node4" class="node"><title>\\DatabaseConfiguration</title>
<polygon fill="none" stroke="black" points="1012,-2734 854,-2734 854,-2698 1012,-2698 1012,-2734"/>
<text text-anchor="middle" x="933" y="-2713.1" font-family="Courier,monospace" font-size="11.00">DatabaseConfiguration</text>
</g>
<!-- \\DatabaseConfiguration&#45;&gt;\\AppModel -->
<g id="edge7" class="edge"><title>\\DatabaseConfiguration&#45;&gt;\\AppModel</title>
<path fill="none" stroke="black" d="M853.71,-2701.39C799.937,-2691.48 730.74,-2678.72 685.886,-2670.46"/>
<polygon fill="none" stroke="black" points="686.334,-2666.98 675.866,-2668.61 685.066,-2673.86 686.334,-2666.98"/>
</g>
<!-- \\AppHelper -->
<g id="node5" class="node"><title>\\AppHelper</title>
<polygon fill="none" stroke="black" points="678,-1681 602,-1681 602,-1645 678,-1645 678,-1681"/>
<text text-anchor="middle" x="640" y="-1660.1" font-family="Courier,monospace" font-size="11.00">AppHelper</text>
</g>
<!-- \\Helper -->
<g id="node67" class="node"><title>\\Helper</title>
<ellipse fill="none" stroke="black" cx="343" cy="-342" rx="43.8406" ry="18.3848"/>
<text text-anchor="middle" x="343" y="-338.4" font-family="Times Roman,serif" font-size="14.00" fill="gray">Helper</text>
</g>
<!-- \\AppHelper&#45;&gt;\\Helper -->
<g id="edge9" class="edge"><title>\\AppHelper&#45;&gt;\\Helper</title>
<path fill="none" stroke="black" d="M633.23,-1644.75C612.58,-1588.24 550.092,-1410.7 522,-1258 503.969,-1159.99 516.024,-438.645 450,-364 436.732,-349 416.205,-342.631 396.665,-340.325"/>
<polygon fill="none" stroke="black" points="396.841,-336.828 386.58,-339.466 396.247,-343.803 396.841,-336.828"/>
</g>
<!-- \\NetCommonsDeleteTest -->
<g id="node6" class="node"><title>\\NetCommonsDeleteTest</title>
<polygon fill="none" stroke="black" points="1009,-2950 857,-2950 857,-2914 1009,-2914 1009,-2950"/>
<text text-anchor="middle" x="933" y="-2929.1" font-family="Courier,monospace" font-size="11.00">NetCommonsDeleteTest</text>
</g>
<!-- \\NetCommonsModelTestCase -->
<g id="node15" class="node"><title>\\NetCommonsModelTestCase</title>
<polygon fill="none" stroke="black" points="726,-2842 554,-2842 554,-2806 726,-2806 726,-2842"/>
<text text-anchor="middle" x="640" y="-2821.1" font-family="Courier,monospace" font-size="11.00">NetCommonsModelTestCase</text>
</g>
<!-- \\NetCommonsDeleteTest&#45;&gt;\\NetCommonsModelTestCase -->
<g id="edge11" class="edge"><title>\\NetCommonsDeleteTest&#45;&gt;\\NetCommonsModelTestCase</title>
<path fill="none" stroke="black" d="M856.967,-2915.68C847.685,-2912.64 838.49,-2909.1 830,-2905 793.981,-2887.6 794.288,-2867.83 758,-2851 750.962,-2847.74 743.501,-2844.85 735.884,-2842.31"/>
<polygon fill="none" stroke="black" points="736.762,-2838.91 726.173,-2839.26 734.666,-2845.59 736.762,-2838.91"/>
</g>
<!-- \\NetCommonsConsoleTestCase -->
<g id="node7" class="node"><title>\\NetCommonsConsoleTestCase</title>
<polygon fill="none" stroke="black" points="732,-2950 548,-2950 548,-2914 732,-2914 732,-2950"/>
<text text-anchor="middle" x="640" y="-2929.1" font-family="Courier,monospace" font-size="11.00">NetCommonsConsoleTestCase</text>
</g>
<!-- \\NetCommonsCakeTestCase -->
<g id="node13" class="node"><title>\\NetCommonsCakeTestCase</title>
<polygon fill="none" stroke="black" points="425,-2896 261,-2896 261,-2860 425,-2860 425,-2896"/>
<text text-anchor="middle" x="343" y="-2875.1" font-family="Courier,monospace" font-size="11.00">NetCommonsCakeTestCase</text>
</g>
<!-- \\NetCommonsConsoleTestCase&#45;&gt;\\NetCommonsCakeTestCase -->
<g id="edge13" class="edge"><title>\\NetCommonsConsoleTestCase&#45;&gt;\\NetCommonsCakeTestCase</title>
<path fill="none" stroke="black" d="M547.249,-2915.14C511.778,-2908.69 471.343,-2901.34 435.861,-2894.88"/>
<polygon fill="none" stroke="black" points="436.458,-2891.44 425.993,-2893.09 435.206,-2898.32 436.458,-2891.44"/>
</g>
<!-- \\NetCommonsGetTest -->
<g id="node8" class="node"><title>\\NetCommonsGetTest</title>
<polygon fill="none" stroke="black" points="998,-2896 868,-2896 868,-2860 998,-2860 998,-2896"/>
<text text-anchor="middle" x="933" y="-2875.1" font-family="Courier,monospace" font-size="11.00">NetCommonsGetTest</text>
</g>
<!-- \\NetCommonsGetTest&#45;&gt;\\NetCommonsModelTestCase -->
<g id="edge15" class="edge"><title>\\NetCommonsGetTest&#45;&gt;\\NetCommonsModelTestCase</title>
<path fill="none" stroke="black" d="M867.245,-2865.88C828.582,-2858.76 779.008,-2849.62 736.034,-2841.7"/>
<polygon fill="none" stroke="black" points="736.588,-2838.24 726.12,-2839.87 735.32,-2845.13 736.588,-2838.24"/>
</g>
<!-- \\NetCommonsHelperTestCase -->
<g id="node9" class="node"><title>\\NetCommonsHelperTestCase</title>
<polygon fill="none" stroke="black" points="729,-2896 551,-2896 551,-2860 729,-2860 729,-2896"/>
<text text-anchor="middle" x="640" y="-2875.1" font-family="Courier,monospace" font-size="11.00">NetCommonsHelperTestCase</text>
</g>
<!-- \\NetCommonsHelperTestCase&#45;&gt;\\NetCommonsCakeTestCase -->
<g id="edge17" class="edge"><title>\\NetCommonsHelperTestCase&#45;&gt;\\NetCommonsCakeTestCase</title>
<path fill="none" stroke="black" d="M550.487,-2878C514.267,-2878 472.456,-2878 435.9,-2878"/>
<polygon fill="none" stroke="black" points="435.737,-2874.5 425.737,-2878 435.737,-2881.5 435.737,-2874.5"/>
</g>
<!-- \\NetCommonsControllerBaseTestCase -->
<g id="node10" class="node"><title>\\NetCommonsControllerBaseTestCase</title>
<polygon fill="none" stroke="black" points="756,-1249 524,-1249 524,-1213 756,-1213 756,-1249"/>
<text text-anchor="middle" x="640" y="-1228.1" font-family="Courier,monospace" font-size="11.00">NetCommonsControllerBaseTestCase</text>
</g>
<!-- \\ControllerTestCase -->
<g id="node73" class="node"><title>\\ControllerTestCase</title>
<ellipse fill="none" stroke="black" cx="343" cy="-288" rx="106.773" ry="18.3848"/>
<text text-anchor="middle" x="343" y="-284.4" font-family="Times Roman,serif" font-size="14.00" fill="gray">\ControllerTestCase</text>
</g>
<!-- \\NetCommonsControllerBaseTestCase&#45;&gt;\\ControllerTestCase -->
<g id="edge19" class="edge"><title>\\NetCommonsControllerBaseTestCase&#45;&gt;\\ControllerTestCase</title>
<path fill="none" stroke="black" d="M569.586,-1212.99C551.302,-1204.93 533.527,-1193.41 522,-1177 411.492,-1019.72 574.344,-461.589 450,-315 446.359,-310.708 442.146,-307.046 437.538,-303.925"/>
<polygon fill="none" stroke="black" points="439.261,-300.878 428.857,-298.873 435.74,-306.928 439.261,-300.878"/>
</g>
<!-- \\NetCommonsValidateTest -->
<g id="node11" class="node"><title>\\NetCommonsValidateTest</title>
<polygon fill="none" stroke="black" points="1015,-2842 851,-2842 851,-2806 1015,-2806 1015,-2842"/>
<text text-anchor="middle" x="933" y="-2821.1" font-family="Courier,monospace" font-size="11.00">NetCommonsValidateTest</text>
</g>
<!-- \\NetCommonsValidateTest&#45;&gt;\\NetCommonsModelTestCase -->
<g id="edge21" class="edge"><title>\\NetCommonsValidateTest&#45;&gt;\\NetCommonsModelTestCase</title>
<path fill="none" stroke="black" d="M850.213,-2824C814.791,-2824 773.196,-2824 736.397,-2824"/>
<polygon fill="none" stroke="black" points="736.154,-2820.5 726.154,-2824 736.154,-2827.5 736.154,-2820.5"/>
</g>
<!-- \\NetCommonsTestSuite -->
<g id="node12" class="node"><title>\\NetCommonsTestSuite</title>
<polygon fill="none" stroke="black" points="1005,-1114 861,-1114 861,-1078 1005,-1078 1005,-1114"/>
<text text-anchor="middle" x="933" y="-1093.1" font-family="Courier,monospace" font-size="11.00">NetCommonsTestSuite</text>
</g>
<!-- \\CakeTestSuite -->
<g id="node76" class="node"><title>\\CakeTestSuite</title>
<ellipse fill="none" stroke="black" cx="640" cy="-342" rx="84.1457" ry="18.3848"/>
<text text-anchor="middle" x="640" y="-338.4" font-family="Times Roman,serif" font-size="14.00" fill="gray">\CakeTestSuite</text>
</g>
<!-- \\NetCommonsTestSuite&#45;&gt;\\CakeTestSuite -->
<g id="edge23" class="edge"><title>\\NetCommonsTestSuite&#45;&gt;\\CakeTestSuite</title>
<path fill="none" stroke="black" d="M860.383,-1088.87C848.787,-1084.65 837.995,-1078.34 830,-1069 727.575,-949.377 864.667,-479.856 758,-364 751.119,-356.526 742.58,-351.101 733.263,-347.215"/>
<polygon fill="none" stroke="black" points="734.315,-343.875 723.72,-343.824 731.97,-350.47 734.315,-343.875"/>
</g>
<!-- \\CakeTestCase -->
<g id="node78" class="node"><title>\\CakeTestCase</title>
<ellipse fill="none" stroke="black" cx="82" cy="-2878" rx="82.0244" ry="18.3848"/>
<text text-anchor="middle" x="82" y="-2874.4" font-family="Times Roman,serif" font-size="14.00" fill="gray">\CakeTestCase</text>
</g>
<!-- \\NetCommonsCakeTestCase&#45;&gt;\\CakeTestCase -->
<g id="edge25" class="edge"><title>\\NetCommonsCakeTestCase&#45;&gt;\\CakeTestCase</title>
<path fill="none" stroke="black" d="M260.418,-2878C233.018,-2878 202.345,-2878 174.263,-2878"/>
<polygon fill="none" stroke="black" points="174.045,-2874.5 164.045,-2878 174.045,-2881.5 174.045,-2874.5"/>
</g>
<!-- \\NetCommonsSaveTest -->
<g id="node14" class="node"><title>\\NetCommonsSaveTest</title>
<polygon fill="none" stroke="black" points="1002,-2788 864,-2788 864,-2752 1002,-2752 1002,-2788"/>
<text text-anchor="middle" x="933" y="-2767.1" font-family="Courier,monospace" font-size="11.00">NetCommonsSaveTest</text>
</g>
<!-- \\NetCommonsSaveTest&#45;&gt;\\NetCommonsModelTestCase -->
<g id="edge27" class="edge"><title>\\NetCommonsSaveTest&#45;&gt;\\NetCommonsModelTestCase</title>
<path fill="none" stroke="black" d="M863.934,-2782.73C825.795,-2789.76 777.829,-2798.6 736.084,-2806.29"/>
<polygon fill="none" stroke="black" points="735.372,-2802.86 726.172,-2808.12 736.641,-2809.75 735.372,-2802.86"/>
</g>
<!-- \\NetCommonsModelTestCase&#45;&gt;\\NetCommonsCakeTestCase -->
<g id="edge29" class="edge"><title>\\NetCommonsModelTestCase&#45;&gt;\\NetCommonsCakeTestCase</title>
<path fill="none" stroke="black" d="M553.696,-2839.69C516.671,-2846.42 473.35,-2854.3 435.65,-2861.15"/>
<polygon fill="none" stroke="black" points="434.899,-2857.73 425.686,-2862.97 436.151,-2864.62 434.899,-2857.73"/>
</g>
<!-- \\NetCommonsControllerTestCase -->
<g id="node16" class="node"><title>\\NetCommonsControllerTestCase</title>
<polygon fill="none" stroke="black" points="1036,-1276 830,-1276 830,-1240 1036,-1240 1036,-1276"/>
<text text-anchor="middle" x="933" y="-1255.1" font-family="Courier,monospace" font-size="11.00">NetCommonsControllerTestCase</text>
</g>
<!-- \\NetCommonsControllerTestCase&#45;&gt;\\NetCommonsControllerBaseTestCase -->
<g id="edge31" class="edge"><title>\\NetCommonsControllerTestCase&#45;&gt;\\NetCommonsControllerBaseTestCase</title>
<path fill="none" stroke="black" d="M829.699,-1248.48C809.289,-1246.6 787.65,-1244.61 766.571,-1242.66"/>
<polygon fill="none" stroke="black" points="766.885,-1239.18 756.606,-1241.75 766.243,-1246.15 766.885,-1239.18"/>
</g>
<!-- \\NetCommonsAppController -->
<g id="node17" class="node"><title>\\NetCommonsAppController</title>
<polygon fill="none" stroke="black" points="726,-1168 554,-1168 554,-1132 726,-1132 726,-1168"/>
<text text-anchor="middle" x="640" y="-1147.1" font-family="Courier,monospace" font-size="11.00">NetCommonsAppController</text>
</g>
<!-- \\NetCommonsAppController&#45;&gt;\\Controller -->
<g id="edge33" class="edge"><title>\\NetCommonsAppController&#45;&gt;\\Controller</title>
<path fill="none" stroke="black" d="M553.739,-1147.57C541.681,-1143.62 530.521,-1137.43 522,-1128 392.404,-984.538 592.249,-391.926 450,-261 380.019,-196.589 311.686,-203.4 236,-261 148.77,-327.385 98.2511,-686.271 85.3275,-789.943"/>
<polygon fill="none" stroke="black" points="81.8416,-789.614 84.0967,-799.966 88.7895,-790.467 81.8416,-789.614"/>
</g>
<!-- \\AssetComponent -->
<g id="node18" class="node"><title>\\AssetComponent</title>
<polygon fill="none" stroke="black" points="988,-952 878,-952 878,-916 988,-916 988,-952"/>
<text text-anchor="middle" x="933" y="-931.1" font-family="Courier,monospace" font-size="11.00">AssetComponent</text>
</g>
<!-- \\Component -->
<g id="node84" class="node"><title>\\Component</title>
<ellipse fill="none" stroke="black" cx="640" cy="-288" rx="70.9184" ry="18.3848"/>
<text text-anchor="middle" x="640" y="-284.4" font-family="Times Roman,serif" font-size="14.00" fill="gray">\Component</text>
</g>
<!-- \\AssetComponent&#45;&gt;\\Component -->
<g id="edge35" class="edge"><title>\\AssetComponent&#45;&gt;\\Component</title>
<path fill="none" stroke="black" d="M877.342,-931.436C859.801,-927.802 841.915,-920.647 830,-907 655.683,-707.337 935.432,-511.899 758,-315 748.227,-304.155 735.069,-297.207 721.082,-292.841"/>
<polygon fill="none" stroke="black" points="721.864,-289.426 711.298,-290.214 720.049,-296.187 721.864,-289.426"/>
</g>
<!-- \\AccessCtrlComponent -->
<g id="node19" class="node"><title>\\AccessCtrlComponent</title>
<polygon fill="none" stroke="black" points="1005,-898 861,-898 861,-862 1005,-862 1005,-898"/>
<text text-anchor="middle" x="933" y="-877.1" font-family="Courier,monospace" font-size="11.00">AccessCtrlComponent</text>
</g>
<!-- \\AccessCtrlComponent&#45;&gt;\\Component -->
<g id="edge37" class="edge"><title>\\AccessCtrlComponent&#45;&gt;\\Component</title>
<path fill="none" stroke="black" d="M860.36,-872.567C848.839,-868.366 838.079,-862.143 830,-853 670.252,-672.227 920.569,-493.24 758,-315 748.162,-304.213 734.974,-297.293 720.979,-292.934"/>
<polygon fill="none" stroke="black" points="721.757,-289.519 711.192,-290.31 719.944,-296.281 721.757,-289.519"/>
</g>
<!-- \\NetCommonsTimeComponent -->
<g id="node20" class="node"><title>\\NetCommonsTimeComponent</title>
<polygon fill="none" stroke="black" points="1019,-844 847,-844 847,-808 1019,-808 1019,-844"/>
<text text-anchor="middle" x="933" y="-823.1" font-family="Courier,monospace" font-size="11.00">NetCommonsTimeComponent</text>
</g>
<!-- \\NetCommonsTimeComponent&#45;&gt;\\Component -->
<g id="edge39" class="edge"><title>\\NetCommonsTimeComponent&#45;&gt;\\Component</title>
<path fill="none" stroke="black" d="M846.819,-812.259C840.551,-808.726 834.814,-804.367 830,-799 684.8,-637.094 905.726,-474.605 758,-315 748.083,-304.286 734.859,-297.398 720.853,-293.049"/>
<polygon fill="none" stroke="black" points="721.628,-289.634 711.063,-290.429 719.818,-296.396 721.628,-289.634"/>
</g>
<!-- \\PermissionComponent -->
<g id="node21" class="node"><title>\\PermissionComponent</title>
<polygon fill="none" stroke="black" points="1005,-1060 861,-1060 861,-1024 1005,-1024 1005,-1060"/>
<text text-anchor="middle" x="933" y="-1039.1" font-family="Courier,monospace" font-size="11.00">PermissionComponent</text>
</g>
<!-- \\PermissionComponent&#45;&gt;\\Component -->
<g id="edge41" class="edge"><title>\\PermissionComponent&#45;&gt;\\Component</title>
<path fill="none" stroke="black" d="M860.389,-1034.86C848.792,-1030.64 837.999,-1024.34 830,-1015 626.502,-777.507 965.204,-549.266 758,-315 748.271,-304.001 735.062,-296.994 720.998,-292.62"/>
<polygon fill="none" stroke="black" points="721.72,-289.191 711.156,-289.996 719.917,-295.955 721.72,-289.191"/>
</g>
<!-- \\NetCommonsComponent -->
<g id="node22" class="node"><title>\\NetCommonsComponent</title>
<polygon fill="none" stroke="black" points="1005,-1006 861,-1006 861,-970 1005,-970 1005,-1006"/>
<text text-anchor="middle" x="933" y="-985.1" font-family="Courier,monospace" font-size="11.00">NetCommonsComponent</text>
</g>
<!-- \\NetCommonsComponent&#45;&gt;\\Component -->
<g id="edge43" class="edge"><title>\\NetCommonsComponent&#45;&gt;\\Component</title>
<path fill="none" stroke="black" d="M860.454,-980.809C848.851,-976.592 838.038,-970.301 830,-961 641.099,-742.429 950.312,-530.576 758,-315 748.225,-304.042 734.994,-297.054 720.924,-292.686"/>
<polygon fill="none" stroke="black" points="721.644,-289.256 711.08,-290.064 719.842,-296.02 721.644,-289.256"/>
</g>
<!-- \\SiteCloseController -->
<g id="node23" class="node"><title>\\SiteCloseController</title>
<polygon fill="none" stroke="black" points="1005,-1222 861,-1222 861,-1186 1005,-1186 1005,-1222"/>
<text text-anchor="middle" x="933" y="-1201.1" font-family="Courier,monospace" font-size="11.00">SiteCloseController</text>
</g>
<!-- \\SiteCloseController&#45;&gt;\\NetCommonsAppController -->
<g id="edge45" class="edge"><title>\\SiteCloseController&#45;&gt;\\NetCommonsAppController</title>
<path fill="none" stroke="black" d="M860.197,-1190.58C822.697,-1183.67 776.487,-1175.15 736.097,-1167.71"/>
<polygon fill="none" stroke="black" points="736.702,-1164.26 726.233,-1165.89 735.433,-1171.15 736.702,-1164.26"/>
</g>
<!-- \\NetCommonsController -->
<g id="node24" class="node"><title>\\NetCommonsController</title>
<polygon fill="none" stroke="black" points="1009,-1168 857,-1168 857,-1132 1009,-1132 1009,-1168"/>
<text text-anchor="middle" x="933" y="-1147.1" font-family="Courier,monospace" font-size="11.00">NetCommonsController</text>
</g>
<!-- \\NetCommonsController&#45;&gt;\\NetCommonsAppController -->
<g id="edge47" class="edge"><title>\\NetCommonsController&#45;&gt;\\NetCommonsAppController</title>
<path fill="none" stroke="black" d="M856.783,-1150C820.049,-1150 775.59,-1150 736.519,-1150"/>
<polygon fill="none" stroke="black" points="736.183,-1146.5 726.183,-1150 736.183,-1153.5 736.183,-1146.5"/>
</g>
<!-- \\NetCommonsUrl -->
<g id="node25" class="node"><title>\\NetCommonsUrl</title>
<polygon fill="none" stroke="black" points="985,-2194 881,-2194 881,-2158 985,-2158 985,-2194"/>
<text text-anchor="middle" x="933" y="-2173.1" font-family="Courier,monospace" font-size="11.00">NetCommonsUrl</text>
</g>
<!-- \\NetCommonsTime -->
<g id="node26" class="node"><title>\\NetCommonsTime</title>
<polygon fill="none" stroke="black" points="988,-2140 878,-2140 878,-2104 988,-2104 988,-2140"/>
<text text-anchor="middle" x="933" y="-2119.1" font-family="Courier,monospace" font-size="11.00">NetCommonsTime</text>
</g>
<!-- \\CurrentBase -->
<g id="node27" class="node"><title>\\CurrentBase</title>
<polygon fill="none" stroke="black" points="685,-2410 595,-2410 595,-2374 685,-2374 685,-2410"/>
<text text-anchor="middle" x="640" y="-2389.1" font-family="Courier,monospace" font-size="11.00">CurrentBase</text>
</g>
<!-- \\Current -->
<g id="node28" class="node"><title>\\Current</title>
<polygon fill="none" stroke="black" points="965,-2410 901,-2410 901,-2374 965,-2374 965,-2410"/>
<text text-anchor="middle" x="933" y="-2389.1" font-family="Courier,monospace" font-size="11.00">Current</text>
</g>
<!-- \\Current&#45;&gt;\\CurrentBase -->
<g id="edge49" class="edge"><title>\\Current&#45;&gt;\\CurrentBase</title>
<path fill="none" stroke="black" d="M900.806,-2392C851.48,-2392 756.554,-2392 695.846,-2392"/>
<polygon fill="none" stroke="black" points="695.669,-2388.5 685.669,-2392 695.669,-2395.5 695.669,-2388.5"/>
</g>
<!-- \\CurrentSystem -->
<g id="node29" class="node"><title>\\CurrentSystem</title>
<polygon fill="none" stroke="black" points="985,-2032 881,-2032 881,-1996 985,-1996 985,-2032"/>
<text text-anchor="middle" x="933" y="-2011.1" font-family="Courier,monospace" font-size="11.00">CurrentSystem</text>
</g>
<!-- \\CurrentPage -->
<g id="node30" class="node"><title>\\CurrentPage</title>
<polygon fill="none" stroke="black" points="978,-1978 888,-1978 888,-1942 978,-1942 978,-1978"/>
<text text-anchor="middle" x="933" y="-1957.1" font-family="Courier,monospace" font-size="11.00">CurrentPage</text>
</g>
<!-- \\CurrentFrame -->
<g id="node31" class="node"><title>\\CurrentFrame</title>
<polygon fill="none" stroke="black" points="982,-1924 884,-1924 884,-1888 982,-1888 982,-1924"/>
<text text-anchor="middle" x="933" y="-1903.1" font-family="Courier,monospace" font-size="11.00">CurrentFrame</text>
</g>
<!-- \\TokenHelper -->
<g id="node32" class="node"><title>\\TokenHelper</title>
<polygon fill="none" stroke="black" points="978,-790 888,-790 888,-754 978,-754 978,-790"/>
<text text-anchor="middle" x="933" y="-769.1" font-family="Courier,monospace" font-size="11.00">TokenHelper</text>
</g>
<!-- \\FormHelper -->
<g id="node93" class="node"><title>\\FormHelper</title>
<ellipse fill="none" stroke="black" cx="640" cy="-234" rx="70.9184" ry="18.3848"/>
<text text-anchor="middle" x="640" y="-230.4" font-family="Times Roman,serif" font-size="14.00" fill="gray">\FormHelper</text>
</g>
<!-- \\TokenHelper&#45;&gt;\\FormHelper -->
<g id="edge51" class="edge"><title>\\TokenHelper&#45;&gt;\\FormHelper</title>
<path fill="none" stroke="black" d="M887.387,-770.968C867.002,-768.065 844.379,-761.033 830,-745 684.8,-583.094 905.726,-420.605 758,-261 748.083,-250.286 734.859,-243.398 720.853,-239.049"/>
<polygon fill="none" stroke="black" points="721.628,-235.634 711.063,-236.429 719.818,-242.396 721.628,-235.634"/>
</g>
<!-- \\SingletonViewBlockHtmlHelper -->
<g id="node33" class="node"><title>\\SingletonViewBlockHtmlHelper</title>
<polygon fill="none" stroke="black" points="1036,-628 830,-628 830,-592 1036,-592 1036,-628"/>
<text text-anchor="middle" x="933" y="-607.1" font-family="Courier,monospace" font-size="11.00">SingletonViewBlockHtmlHelper</text>
</g>
<!-- \\HtmlHelper -->
<g id="node95" class="node"><title>\\HtmlHelper</title>
<ellipse fill="none" stroke="black" cx="640" cy="-180" rx="67.1751" ry="18.3848"/>
<text text-anchor="middle" x="640" y="-176.4" font-family="Times Roman,serif" font-size="14.00" fill="gray">HtmlHelper</text>
</g>
<!-- \\SingletonViewBlockHtmlHelper&#45;&gt;\\HtmlHelper -->
<g id="edge53" class="edge"><title>\\SingletonViewBlockHtmlHelper&#45;&gt;\\HtmlHelper</title>
<path fill="none" stroke="black" d="M840.465,-591.968C836.678,-589.35 833.156,-586.376 830,-583 713.795,-458.716 876.143,-329.443 758,-207 746.987,-195.587 732.213,-188.556 716.851,-184.316"/>
<polygon fill="none" stroke="black" points="717.243,-180.812 706.706,-181.915 715.631,-187.624 717.243,-180.812"/>
</g>
<!-- \\FormInputHelper -->
<g id="node34" class="node"><title>\\FormInputHelper</title>
<polygon fill="none" stroke="black" points="992,-1384 874,-1384 874,-1348 992,-1348 992,-1384"/>
<text text-anchor="middle" x="933" y="-1363.1" font-family="Courier,monospace" font-size="11.00">FormInputHelper</text>
</g>
<!-- \\FormInputHelper&#45;&gt;\\AppHelper -->
<g id="edge55" class="edge"><title>\\FormInputHelper&#45;&gt;\\AppHelper</title>
<path fill="none" stroke="black" d="M873.801,-1374.05C858.597,-1378.05 842.906,-1384.04 830,-1393 738.034,-1456.86 675.79,-1580.47 651.457,-1635.46"/>
<polygon fill="none" stroke="black" points="648.13,-1634.34 647.356,-1644.9 654.551,-1637.13 648.13,-1634.34"/>
</g>
<!-- \\WizardHelper -->
<g id="node35" class="node"><title>\\WizardHelper</title>
<polygon fill="none" stroke="black" points="982,-1330 884,-1330 884,-1294 982,-1294 982,-1330"/>
<text text-anchor="middle" x="933" y="-1309.1" font-family="Courier,monospace" font-size="11.00">WizardHelper</text>
</g>
<!-- \\WizardHelper&#45;&gt;\\AppHelper -->
<g id="edge57" class="edge"><title>\\WizardHelper&#45;&gt;\\AppHelper</title>
<path fill="none" stroke="black" d="M883.917,-1316.86C865.579,-1320.63 845.471,-1327.28 830,-1339 725.624,-1418.08 668.084,-1572.47 648.129,-1635.35"/>
<polygon fill="none" stroke="black" points="644.764,-1634.39 645.144,-1644.97 651.45,-1636.46 644.764,-1634.39"/>
</g>
<!-- \\DisplayNumberHelper -->
<g id="node36" class="node"><title>\\DisplayNumberHelper</title>
<polygon fill="none" stroke="black" points="1005,-2356 861,-2356 861,-2320 1005,-2320 1005,-2356"/>
<text text-anchor="middle" x="933" y="-2335.1" font-family="Courier,monospace" font-size="11.00">DisplayNumberHelper</text>
</g>
<!-- \\DisplayNumberHelper&#45;&gt;\\AppHelper -->
<g id="edge59" class="edge"><title>\\DisplayNumberHelper&#45;&gt;\\AppHelper</title>
<path fill="none" stroke="black" d="M860.413,-2329.13C849.166,-2325.05 838.486,-2319.24 830,-2311 737.138,-2220.78 663.079,-1803.86 644.505,-1691.15"/>
<polygon fill="none" stroke="black" points="647.948,-1690.52 642.881,-1681.22 641.039,-1691.65 647.948,-1690.52"/>
</g>
<!-- \\MessageFlashHelper -->
<g id="node37" class="node"><title>\\MessageFlashHelper</title>
<polygon fill="none" stroke="black" points="1002,-2302 864,-2302 864,-2266 1002,-2266 1002,-2302"/>
<text text-anchor="middle" x="933" y="-2281.1" font-family="Courier,monospace" font-size="11.00">MessageFlashHelper</text>
</g>
<!-- \\MessageFlashHelper&#45;&gt;\\AppHelper -->
<g id="edge61" class="edge"><title>\\MessageFlashHelper&#45;&gt;\\AppHelper</title>
<path fill="none" stroke="black" d="M863.763,-2276.05C851.346,-2271.96 839.39,-2265.9 830,-2257 743.879,-2175.34 665.926,-1797.95 645.305,-1691.2"/>
<polygon fill="none" stroke="black" points="648.705,-1690.35 643.386,-1681.18 641.83,-1691.66 648.705,-1690.35"/>
</g>
<!-- \\DateHelper -->
<g id="node38" class="node"><title>\\DateHelper</title>
<polygon fill="none" stroke="black" points="975,-2248 891,-2248 891,-2212 975,-2212 975,-2248"/>
<text text-anchor="middle" x="933" y="-2227.1" font-family="Courier,monospace" font-size="11.00">DateHelper</text>
</g>
<!-- \\DateHelper&#45;&gt;\\AppHelper -->
<g id="edge63" class="edge"><title>\\DateHelper&#45;&gt;\\AppHelper</title>
<path fill="none" stroke="black" d="M890.749,-2228C870.164,-2224.96 846.383,-2218.09 830,-2203 674.226,-2059.5 646.135,-1780.7 641.095,-1691.31"/>
<polygon fill="none" stroke="black" points="644.581,-1690.94 640.577,-1681.13 637.59,-1691.3 644.581,-1690.94"/>
</g>
<!-- \\SnsButtonHelper -->
<g id="node39" class="node"><title>\\SnsButtonHelper</title>
<polygon fill="none" stroke="black" points="992,-2086 874,-2086 874,-2050 992,-2050 992,-2086"/>
<text text-anchor="middle" x="933" y="-2065.1" font-family="Courier,monospace" font-size="11.00">SnsButtonHelper</text>
</g>
<!-- \\SnsButtonHelper&#45;&gt;\\AppHelper -->
<g id="edge65" class="edge"><title>\\SnsButtonHelper&#45;&gt;\\AppHelper</title>
<path fill="none" stroke="black" d="M873.943,-2061.47C858.398,-2057.48 842.499,-2051.12 830,-2041 713.272,-1946.47 661.79,-1761.75 645.802,-1691.26"/>
<polygon fill="none" stroke="black" points="649.185,-1690.35 643.616,-1681.33 642.349,-1691.85 649.185,-1690.35"/>
</g>
<!-- \\BackToHelper -->
<g id="node40" class="node"><title>\\BackToHelper</title>
<polygon fill="none" stroke="black" points="982,-1870 884,-1870 884,-1834 982,-1834 982,-1870"/>
<text text-anchor="middle" x="933" y="-1849.1" font-family="Courier,monospace" font-size="11.00">BackToHelper</text>
</g>
<!-- \\BackToHelper&#45;&gt;\\AppHelper -->
<g id="edge67" class="edge"><title>\\BackToHelper&#45;&gt;\\AppHelper</title>
<path fill="none" stroke="black" d="M883.91,-1843.86C866.268,-1839.73 846.633,-1833.68 830,-1825 761.41,-1789.19 696.097,-1724.56 662.838,-1688.7"/>
<polygon fill="none" stroke="black" points="665.192,-1686.09 655.854,-1681.09 660.033,-1690.83 665.192,-1686.09"/>
</g>
<!-- \\NetCommonsHtmlHelper -->
<g id="node41" class="node"><title>\\NetCommonsHtmlHelper</title>
<polygon fill="none" stroke="black" points="1009,-1816 857,-1816 857,-1780 1009,-1780 1009,-1816"/>
<text text-anchor="middle" x="933" y="-1795.1" font-family="Courier,monospace" font-size="11.00">NetCommonsHtmlHelper</text>
</g>
<!-- \\NetCommonsHtmlHelper&#45;&gt;\\AppHelper -->
<g id="edge69" class="edge"><title>\\NetCommonsHtmlHelper&#45;&gt;\\AppHelper</title>
<path fill="none" stroke="black" d="M856.883,-1780.46C847.707,-1777.64 838.561,-1774.49 830,-1771 773.066,-1747.82 712.097,-1710.73 675.004,-1686.61"/>
<polygon fill="none" stroke="black" points="676.839,-1683.63 666.557,-1681.07 673.002,-1689.48 676.839,-1683.63"/>
</g>
<!-- \\ButtonHelper -->
<g id="node42" class="node"><title>\\ButtonHelper</title>
<polygon fill="none" stroke="black" points="982,-736 884,-736 884,-700 982,-700 982,-736"/>
<text text-anchor="middle" x="933" y="-715.1" font-family="Courier,monospace" font-size="11.00">ButtonHelper</text>
</g>
<!-- \\ButtonHelper&#45;&gt;\\FormHelper -->
<g id="edge71" class="edge"><title>\\ButtonHelper&#45;&gt;\\FormHelper</title>
<path fill="none" stroke="black" d="M883.825,-716.278C864.469,-713.046 843.652,-705.946 830,-691 699.318,-547.927 890.914,-402.002 758,-261 747.986,-250.377 734.718,-243.531 720.698,-239.194"/>
<polygon fill="none" stroke="black" points="721.468,-235.777 710.904,-236.577 719.661,-242.54 721.468,-235.777"/>
</g>
<!-- \\ComposerHelper -->
<g id="node43" class="node"><title>\\ComposerHelper</title>
<polygon fill="none" stroke="black" points="988,-1762 878,-1762 878,-1726 988,-1726 988,-1762"/>
<text text-anchor="middle" x="933" y="-1741.1" font-family="Courier,monospace" font-size="11.00">ComposerHelper</text>
</g>
<!-- \\ComposerHelper&#45;&gt;\\AppHelper -->
<g id="edge73" class="edge"><title>\\ComposerHelper&#45;&gt;\\AppHelper</title>
<path fill="none" stroke="black" d="M877.351,-1729.64C861.992,-1725.61 845.336,-1721.19 830,-1717 781.716,-1703.81 726.728,-1688.11 688.375,-1677.04"/>
<polygon fill="none" stroke="black" points="689.087,-1673.61 678.508,-1674.2 687.145,-1680.33 689.087,-1673.61"/>
</g>
<!-- \\LinkButtonHelper -->
<g id="node44" class="node"><title>\\LinkButtonHelper</title>
<polygon fill="none" stroke="black" points="995,-682 871,-682 871,-646 995,-646 995,-682"/>
<text text-anchor="middle" x="933" y="-661.1" font-family="Courier,monospace" font-size="11.00">LinkButtonHelper</text>
</g>
<!-- \\LinkButtonHelper&#45;&gt;\\FormHelper -->
<g id="edge75" class="edge"><title>\\LinkButtonHelper&#45;&gt;\\FormHelper</title>
<path fill="none" stroke="black" d="M870.353,-659.174C855.34,-655.149 840.605,-648.343 830,-637 713.795,-512.716 876.143,-383.443 758,-261 747.863,-250.494 734.538,-243.702 720.502,-239.381"/>
<polygon fill="none" stroke="black" points="721.266,-235.962 710.702,-236.77 719.464,-242.726 721.266,-235.962"/>
</g>
<!-- \\TableListHelper -->
<g id="node45" class="node"><title>\\TableListHelper</title>
<polygon fill="none" stroke="black" points="992,-1708 874,-1708 874,-1672 992,-1672 992,-1708"/>
<text text-anchor="middle" x="933" y="-1687.1" font-family="Courier,monospace" font-size="11.00">TableListHelper</text>
</g>
<!-- \\TableListHelper&#45;&gt;\\AppHelper -->
<g id="edge77" class="edge"><title>\\TableListHelper&#45;&gt;\\AppHelper</title>
<path fill="none" stroke="black" d="M873.707,-1684.54C819.266,-1679.52 739.563,-1672.17 688.738,-1667.49"/>
<polygon fill="none" stroke="black" points="688.942,-1664 678.663,-1666.56 688.299,-1670.97 688.942,-1664"/>
</g>
<!-- \\NetCommonsTimeHelper -->
<g id="node46" class="node"><title>\\NetCommonsTimeHelper</title>
<polygon fill="none" stroke="black" points="1009,-1654 857,-1654 857,-1618 1009,-1618 1009,-1654"/>
<text text-anchor="middle" x="933" y="-1633.1" font-family="Courier,monospace" font-size="11.00">NetCommonsTimeHelper</text>
</g>
<!-- \\NetCommonsTimeHelper&#45;&gt;\\AppHelper -->
<g id="edge79" class="edge"><title>\\NetCommonsTimeHelper&#45;&gt;\\AppHelper</title>
<path fill="none" stroke="black" d="M856.783,-1643.02C803.659,-1647.92 734.376,-1654.3 688.603,-1658.52"/>
<polygon fill="none" stroke="black" points="688.274,-1655.04 678.638,-1659.44 688.917,-1662.01 688.274,-1655.04"/>
</g>
<!-- \\NetCommonsFormHelper -->
<g id="node47" class="node"><title>\\NetCommonsFormHelper</title>
<polygon fill="none" stroke="black" points="1009,-1600 857,-1600 857,-1564 1009,-1564 1009,-1600"/>
<text text-anchor="middle" x="933" y="-1579.1" font-family="Courier,monospace" font-size="11.00">NetCommonsFormHelper</text>
</g>
<!-- \\NetCommonsFormHelper&#45;&gt;\\AppHelper -->
<g id="edge81" class="edge"><title>\\NetCommonsFormHelper&#45;&gt;\\AppHelper</title>
<path fill="none" stroke="black" d="M863.415,-1600.03C852.231,-1602.99 840.789,-1606.05 830,-1609 781.716,-1622.19 726.728,-1637.89 688.375,-1648.96"/>
<polygon fill="none" stroke="black" points="687.145,-1645.67 678.508,-1651.8 689.087,-1652.39 687.145,-1645.67"/>
</g>
<!-- \\TitleIconHelper -->
<g id="node48" class="node"><title>\\TitleIconHelper</title>
<polygon fill="none" stroke="black" points="992,-1546 874,-1546 874,-1510 992,-1510 992,-1546"/>
<text text-anchor="middle" x="933" y="-1525.1" font-family="Courier,monospace" font-size="11.00">TitleIconHelper</text>
</g>
<!-- \\TitleIconHelper&#45;&gt;\\AppHelper -->
<g id="edge83" class="edge"><title>\\TitleIconHelper&#45;&gt;\\AppHelper</title>
<path fill="none" stroke="black" d="M873.852,-1540.69C859.272,-1544.58 843.869,-1549.35 830,-1555 773.066,-1578.18 712.097,-1615.27 675.004,-1639.39"/>
<polygon fill="none" stroke="black" points="673.002,-1636.52 666.557,-1644.93 676.839,-1642.37 673.002,-1636.52"/>
</g>
<!-- \\DatetimePickerHelper -->
<g id="node49" class="node"><title>\\DatetimePickerHelper</title>
<polygon fill="none" stroke="black" points="1009,-1492 857,-1492 857,-1456 1009,-1456 1009,-1492"/>
<text text-anchor="middle" x="933" y="-1471.1" font-family="Courier,monospace" font-size="11.00">DatetimePickerHelper</text>
</g>
<!-- \\DatetimePickerHelper&#45;&gt;\\AppHelper -->
<g id="edge85" class="edge"><title>\\DatetimePickerHelper&#45;&gt;\\AppHelper</title>
<path fill="none" stroke="black" d="M856.984,-1489.73C847.651,-1492.87 838.439,-1496.59 830,-1501 761.41,-1536.81 696.097,-1601.44 662.838,-1637.3"/>
<polygon fill="none" stroke="black" points="660.033,-1635.17 655.854,-1644.91 665.192,-1639.91 660.033,-1635.17"/>
</g>
<!-- \\Model -->
<g id="node113" class="node"><title>\\Model</title>
<ellipse fill="none" stroke="black" cx="82" cy="-2662" rx="43.8406" ry="18.3848"/>
<text text-anchor="middle" x="82" y="-2658.4" font-family="Times Roman,serif" font-size="14.00" fill="gray">\Model</text>
</g>
<!-- \\NetCommonsAppModel&#45;&gt;\\Model -->
<g id="edge87" class="edge"><title>\\NetCommonsAppModel&#45;&gt;\\Model</title>
<path fill="none" stroke="black" d="M273.742,-2662C230.675,-2662 176.099,-2662 136.195,-2662"/>
<polygon fill="none" stroke="black" points="136.125,-2658.5 126.125,-2662 136.125,-2665.5 136.125,-2658.5"/>
</g>
<!-- \\OriginalKeyBehavior -->
<g id="node51" class="node"><title>\\OriginalKeyBehavior</title>
<polygon fill="none" stroke="black" points="1005,-574 861,-574 861,-538 1005,-538 1005,-574"/>
<text text-anchor="middle" x="933" y="-553.1" font-family="Courier,monospace" font-size="11.00">OriginalKeyBehavior</text>
</g>
<!-- \\ModelBehavior -->
<g id="node115" class="node"><title>\\ModelBehavior</title>
<ellipse fill="none" stroke="black" cx="640" cy="-126" rx="86.9741" ry="18.3848"/>
<text text-anchor="middle" x="640" y="-122.4" font-family="Times Roman,serif" font-size="14.00" fill="gray">\ModelBehavior</text>
</g>
<!-- \\OriginalKeyBehavior&#45;&gt;\\ModelBehavior -->
<g id="edge89" class="edge"><title>\\OriginalKeyBehavior&#45;&gt;\\ModelBehavior</title>
<path fill="none" stroke="black" d="M860.253,-547.995C848.886,-543.838 838.206,-537.777 830,-529 713.795,-404.716 876.143,-275.443 758,-153 750.646,-145.379 741.615,-139.712 731.852,-135.525"/>
<polygon fill="none" stroke="black" points="732.89,-132.176 722.298,-131.949 730.436,-138.732 732.89,-132.176"/>
</g>
<!-- \\TrackableBehavior -->
<g id="node52" class="node"><title>\\TrackableBehavior</title>
<polygon fill="none" stroke="black" points="998,-520 868,-520 868,-484 998,-484 998,-520"/>
<text text-anchor="middle" x="933" y="-499.1" font-family="Courier,monospace" font-size="11.00">TrackableBehavior</text>
</g>
<!-- \\TrackableBehavior&#45;&gt;\\ModelBehavior -->
<g id="edge91" class="edge"><title>\\TrackableBehavior&#45;&gt;\\ModelBehavior</title>
<path fill="none" stroke="black" d="M867.375,-496.047C853.48,-491.941 840.009,-485.38 830,-475 728.21,-369.437 861.436,-256.95 758,-153 750.53,-145.493 741.428,-139.895 731.627,-135.745"/>
<polygon fill="none" stroke="black" points="732.638,-132.388 722.045,-132.196 730.207,-138.952 732.638,-132.388"/>
</g>
<!-- \\YAExceptionRenderer -->
<g id="node53" class="node"><title>\\YAExceptionRenderer</title>
<polygon fill="none" stroke="black" points="1005,-466 861,-466 861,-430 1005,-430 1005,-466"/>
<text text-anchor="middle" x="933" y="-445.1" font-family="Courier,monospace" font-size="11.00">YAExceptionRenderer</text>
</g>
<!-- \\ExceptionRenderer -->
<g id="node118" class="node"><title>\\ExceptionRenderer</title>
<ellipse fill="none" stroke="black" cx="640" cy="-72" rx="118.087" ry="18.3848"/>
<text text-anchor="middle" x="640" y="-68.4" font-family="Times Roman,serif" font-size="14.00" fill="gray">TEHxceptionRenderer</text>
</g>
<!-- \\YAExceptionRenderer&#45;&gt;\\ExceptionRenderer -->
<g id="edge93" class="edge"><title>\\YAExceptionRenderer&#45;&gt;\\ExceptionRenderer</title>
<path fill="none" stroke="black" d="M860.477,-439.783C849.086,-435.648 838.341,-429.65 830,-421 728.21,-315.437 861.436,-202.95 758,-99 753.632,-94.61 748.706,-90.873 743.408,-87.6967"/>
<polygon fill="none" stroke="black" points="744.657,-84.4002 734.174,-82.8643 741.411,-90.6022 744.657,-84.4002"/>
</g>
<!-- \\NetCommonsMigration -->
<g id="node54" class="node"><title>\\NetCommonsMigration</title>
<polygon fill="none" stroke="black" points="1005,-412 861,-412 861,-376 1005,-376 1005,-412"/>
<text text-anchor="middle" x="933" y="-391.1" font-family="Courier,monospace" font-size="11.00">NetCommonsMigration</text>
</g>
<!-- \\CakeMigration -->
<g id="node120" class="node"><title>\\CakeMigration</title>
<ellipse fill="none" stroke="black" cx="640" cy="-18" rx="84.8528" ry="18.3848"/>
<text text-anchor="middle" x="640" y="-14.4" font-family="Times Roman,serif" font-size="14.00" fill="gray">\CakeMigration</text>
</g>
<!-- \\NetCommonsMigration&#45;&gt;\\CakeMigration -->
<g id="edge95" class="edge"><title>\\NetCommonsMigration&#45;&gt;\\CakeMigration</title>
<path fill="none" stroke="black" d="M929.544,-375.725C917.514,-317.407 871.834,-134.35 758,-45 748.922,-37.8745 738.309,-32.5637 727.237,-28.6167"/>
<polygon fill="none" stroke="black" points="728.007,-25.1887 717.416,-25.488 725.882,-31.8584 728.007,-25.1887"/>
</g>
<!-- \\ForgotPassController -->
<g id="node55" class="node"><title>\\ForgotPassController</title>
<polygon fill="none" stroke="black" points="1009,-2518 857,-2518 857,-2482 1009,-2482 1009,-2518"/>
<text text-anchor="middle" x="933" y="-2497.1" font-family="Courier,monospace" font-size="11.00">ForgotPassController</text>
</g>
<!-- \\AuthAppController -->
<g id="node58" class="node"><title>\\AuthAppController</title>
<polygon fill="none" stroke="black" points="705,-2491 575,-2491 575,-2455 705,-2455 705,-2491"/>
<text text-anchor="middle" x="640" y="-2470.1" font-family="Courier,monospace" font-size="11.00">AuthAppController</text>
</g>
<!-- \\ForgotPassController&#45;&gt;\\AuthAppController -->
<g id="edge97" class="edge"><title>\\ForgotPassController&#45;&gt;\\AuthAppController</title>
<path fill="none" stroke="black" d="M856.783,-2492.98C813.457,-2488.98 759.385,-2484 716.082,-2480.01"/>
<polygon fill="none" stroke="black" points="716.165,-2476.5 705.886,-2479.07 715.523,-2483.47 716.165,-2476.5"/>
</g>
<!-- \\AutoUserRegistController -->
<g id="node56" class="node"><title>\\AutoUserRegistController</title>
<polygon fill="none" stroke="black" points="1022,-2464 844,-2464 844,-2428 1022,-2428 1022,-2464"/>
<text text-anchor="middle" x="933" y="-2443.1" font-family="Courier,monospace" font-size="11.00">AutoUserRegistController</text>
</g>
<!-- \\AutoUserRegistController&#45;&gt;\\AuthAppController -->
<g id="edge99" class="edge"><title>\\AutoUserRegistController&#45;&gt;\\AuthAppController</title>
<path fill="none" stroke="black" d="M843.498,-2454.25C802.714,-2458.01 754.946,-2462.41 715.944,-2466"/>
<polygon fill="none" stroke="black" points="715.346,-2462.54 705.709,-2466.94 715.988,-2469.51 715.346,-2462.54"/>
</g>
<!-- \\AuthController -->
<g id="node57" class="node"><title>\\AuthController</title>
<polygon fill="none" stroke="black" points="988,-2572 878,-2572 878,-2536 988,-2536 988,-2572"/>
<text text-anchor="middle" x="933" y="-2551.1" font-family="Courier,monospace" font-size="11.00">AuthController</text>
</g>
<!-- \\AuthController&#45;&gt;\\AuthAppController -->
<g id="edge101" class="edge"><title>\\AuthController&#45;&gt;\\AuthAppController</title>
<path fill="none" stroke="black" d="M877.351,-2539.64C861.992,-2535.61 845.336,-2531.19 830,-2527 790.993,-2516.35 747.61,-2504.05 712.158,-2493.88"/>
<polygon fill="none" stroke="black" points="712.957,-2490.47 702.379,-2491.08 711.025,-2497.2 712.957,-2490.47"/>
</g>
<!-- \\AuthAppController&#45;&gt;\\AppController -->
<g id="edge103" class="edge"><title>\\AuthAppController&#45;&gt;\\AppController</title>
<path fill="none" stroke="black" d="M574.251,-2455.86C554.746,-2447.71 535.115,-2435.91 522,-2419 399.268,-2260.71 353.29,-1595.19 344.591,-1449.33"/>
<polygon fill="none" stroke="black" points="348.066,-1448.79 343.987,-1439.01 341.078,-1449.2 348.066,-1448.79"/>
</g>
<!-- \\AutoUserRegistFormHelper -->
<g id="node59" class="node"><title>\\AutoUserRegistFormHelper</title>
<polygon fill="none" stroke="black" points="1022,-1438 844,-1438 844,-1402 1022,-1402 1022,-1438"/>
<text text-anchor="middle" x="933" y="-1417.1" font-family="Courier,monospace" font-size="11.00">AutoUserRegistFormHelper</text>
</g>
<!-- \\AutoUserRegistFormHelper&#45;&gt;\\AppHelper -->
<g id="edge105" class="edge"><title>\\AutoUserRegistFormHelper&#45;&gt;\\AppHelper</title>
<path fill="none" stroke="black" d="M847.56,-1438.03C841.432,-1440.63 835.506,-1443.6 830,-1447 749.876,-1496.44 684.727,-1590.19 655.946,-1636.19"/>
<polygon fill="none" stroke="black" points="652.792,-1634.64 650.523,-1644.98 658.75,-1638.31 652.792,-1634.64"/>
</g>
<!-- \\AutoUserRegist -->
<g id="node60" class="node"><title>\\AutoUserRegist</title>
<polygon fill="none" stroke="black" points="988,-2680 878,-2680 878,-2644 988,-2644 988,-2680"/>
<text text-anchor="middle" x="933" y="-2659.1" font-family="Courier,monospace" font-size="11.00">AutoUserRegist</text>
</g>
<!-- \\AutoUserRegist&#45;&gt;\\AppModel -->
<g id="edge107" class="edge"><title>\\AutoUserRegist&#45;&gt;\\AppModel</title>
<path fill="none" stroke="black" d="M877.199,-2662C821.744,-2662 737.704,-2662 685.97,-2662"/>
<polygon fill="none" stroke="black" points="685.757,-2658.5 675.757,-2662 685.757,-2665.5 685.757,-2658.5"/>
</g>
<!-- \\ForgotPass -->
<g id="node61" class="node"><title>\\ForgotPass</title>
<polygon fill="none" stroke="black" points="975,-2626 891,-2626 891,-2590 975,-2590 975,-2626"/>
<text text-anchor="middle" x="933" y="-2605.1" font-family="Courier,monospace" font-size="11.00">ForgotPass</text>
</g>
<!-- \\ForgotPass&#45;&gt;\\AppModel -->
<g id="edge109" class="edge"><title>\\ForgotPass&#45;&gt;\\AppModel</title>
<path fill="none" stroke="black" d="M890.708,-2615.79C836.253,-2625.83 741.97,-2643.21 685.845,-2653.55"/>
<polygon fill="none" stroke="black" points="685.027,-2650.14 675.827,-2655.4 686.296,-2657.03 685.027,-2650.14"/>
</g>
</g>
</svg>
