<?xml version="1.0" encoding="UTF-8" standalone="no"?>
<!DOCTYPE svg PUBLIC "-//W3C//DTD SVG 1.1//EN"
 "http://www.w3.org/Graphics/SVG/1.1/DTD/svg11.dtd">
<!-- Generated by graphviz version 2.26.3 (20100126.1600)
 -->
<!-- Title: G Pages: 1 -->
<svg width="1060pt" height="2672pt"
 viewBox="0.00 0.00 1060.00 2672.00" xmlns="http://www.w3.org/2000/svg" xmlns:xlink="http://www.w3.org/1999/xlink">
<g id="graph1" class="graph" transform="scale(1 1) rotate(0) translate(4 2668)">
<title>G</title>
<polygon fill="white" stroke="white" points="-4,5 -4,-2668 1057,-2668 1057,5 -4,5"/>
<g id="graph2" class="cluster"><title>cluster_Global</title>
<polyline fill="none" stroke="gray" points="264,-368 1032,-368 "/>
<path fill="none" stroke="gray" d="M1032,-368C1038,-368 1044,-374 1044,-380"/>
<polyline fill="none" stroke="gray" points="1044,-380 1044,-2644 "/>
<path fill="none" stroke="gray" d="M1044,-2644C1044,-2650 1038,-2656 1032,-2656"/>
<polyline fill="none" stroke="gray" points="1032,-2656 264,-2656 "/>
<path fill="none" stroke="gray" d="M264,-2656C258,-2656 252,-2650 252,-2644"/>
<polyline fill="none" stroke="gray" points="252,-2644 252,-380 "/>
<path fill="none" stroke="gray" d="M252,-380C252,-374 258,-368 264,-368"/>
<text text-anchor="middle" x="648" y="-2642.1" font-family="Times Roman,serif" font-size="11.00" fill="gray">Global</text>
</g>
<!-- \\AppController -->
<g id="node2" class="node"><title>\\AppController</title>
<polygon fill="none" stroke="black" points="395,-1331 291,-1331 291,-1295 395,-1295 395,-1331"/>
<text text-anchor="middle" x="343" y="-1310.1" font-family="Courier,monospace" font-size="11.00">AppController</text>
</g>
<!-- \\Controller -->
<g id="node57" class="node"><title>\\Controller</title>
<ellipse fill="none" stroke="black" cx="82" cy="-778" rx="63.1385" ry="18.3848"/>
<text text-anchor="middle" x="82" y="-774.4" font-family="Times Roman,serif" font-size="14.00" fill="gray">\Controller</text>
</g>
<!-- \\AppController&#45;&gt;\\Controller -->
<g id="edge3" class="edge"><title>\\AppController&#45;&gt;\\Controller</title>
<path fill="none" stroke="black" d="M290.845,-1313.13C271.529,-1310.62 250.762,-1304.51 236,-1291 161.77,-1223.09 102.999,-903.458 86.5886,-806.169"/>
<polygon fill="none" stroke="black" points="90.0217,-805.477 84.9231,-796.19 83.1172,-806.629 90.0217,-805.477"/>
</g>
<!-- \\AppModel -->
<g id="node3" class="node"><title>\\AppModel</title>
<polygon fill="none" stroke="black" points="675,-2383 605,-2383 605,-2347 675,-2347 675,-2383"/>
<text text-anchor="middle" x="640" y="-2362.1" font-family="Courier,monospace" font-size="11.00">AppModel</text>
</g>
<!-- \\NetCommonsAppModel -->
<g id="node47" class="node"><title>\\NetCommonsAppModel</title>
<polygon fill="none" stroke="black" points="412,-2383 274,-2383 274,-2347 412,-2347 412,-2383"/>
<text text-anchor="middle" x="343" y="-2362.1" font-family="Courier,monospace" font-size="11.00">NetCommonsAppModel</text>
</g>
<!-- \\AppModel&#45;&gt;\\NetCommonsAppModel -->
<g id="edge5" class="edge"><title>\\AppModel&#45;&gt;\\NetCommonsAppModel</title>
<path fill="none" stroke="black" d="M604.47,-2365C559.713,-2365 481.497,-2365 422.241,-2365"/>
<polygon fill="none" stroke="black" points="422.157,-2361.5 412.157,-2365 422.157,-2368.5 422.157,-2361.5"/>
</g>
<!-- \\DatabaseConfiguration -->
<g id="node4" class="node"><title>\\DatabaseConfiguration</title>
<polygon fill="none" stroke="black" points="1012,-2410 854,-2410 854,-2374 1012,-2374 1012,-2410"/>
<text text-anchor="middle" x="933" y="-2389.1" font-family="Courier,monospace" font-size="11.00">DatabaseConfiguration</text>
</g>
<!-- \\DatabaseConfiguration&#45;&gt;\\AppModel -->
<g id="edge7" class="edge"><title>\\DatabaseConfiguration&#45;&gt;\\AppModel</title>
<path fill="none" stroke="black" d="M853.71,-2384.69C799.937,-2379.74 730.74,-2373.36 685.886,-2369.23"/>
<polygon fill="none" stroke="black" points="686.145,-2365.74 675.866,-2368.31 685.502,-2372.71 686.145,-2365.74"/>
</g>
<!-- \\AppHelper -->
<g id="node5" class="node"><title>\\AppHelper</title>
<polygon fill="none" stroke="black" points="678,-1519 602,-1519 602,-1483 678,-1483 678,-1519"/>
<text text-anchor="middle" x="640" y="-1498.1" font-family="Courier,monospace" font-size="11.00">AppHelper</text>
</g>
<!-- \\Helper -->
<g id="node61" class="node"><title>\\Helper</title>
<ellipse fill="none" stroke="black" cx="343" cy="-342" rx="43.8406" ry="18.3848"/>
<text text-anchor="middle" x="343" y="-338.4" font-family="Times Roman,serif" font-size="14.00" fill="gray">Helper</text>
</g>
<!-- \\AppHelper&#45;&gt;\\Helper -->
<g id="edge9" class="edge"><title>\\AppHelper&#45;&gt;\\Helper</title>
<path fill="none" stroke="black" d="M631.48,-1482.88C609.156,-1434.48 548.833,-1297.67 522,-1177 482.632,-999.95 570.705,-499.376 450,-364 436.726,-349.113 416.301,-342.745 396.839,-340.408"/>
<polygon fill="none" stroke="black" points="397.06,-336.914 386.793,-339.53 396.45,-343.888 397.06,-336.914"/>
</g>
<!-- \\NetCommonsDeleteTest -->
<g id="node6" class="node"><title>\\NetCommonsDeleteTest</title>
<polygon fill="none" stroke="black" points="1009,-2518 857,-2518 857,-2482 1009,-2482 1009,-2518"/>
<text text-anchor="middle" x="933" y="-2497.1" font-family="Courier,monospace" font-size="11.00">NetCommonsDeleteTest</text>
</g>
<!-- \\NetCommonsModelTestCase -->
<g id="node15" class="node"><title>\\NetCommonsModelTestCase</title>
<polygon fill="none" stroke="black" points="726,-2518 554,-2518 554,-2482 726,-2482 726,-2518"/>
<text text-anchor="middle" x="640" y="-2497.1" font-family="Courier,monospace" font-size="11.00">NetCommonsModelTestCase</text>
</g>
<!-- \\NetCommonsDeleteTest&#45;&gt;\\NetCommonsModelTestCase -->
<g id="edge11" class="edge"><title>\\NetCommonsDeleteTest&#45;&gt;\\NetCommonsModelTestCase</title>
<path fill="none" stroke="black" d="M856.783,-2500C820.049,-2500 775.59,-2500 736.519,-2500"/>
<polygon fill="none" stroke="black" points="736.183,-2496.5 726.183,-2500 736.183,-2503.5 736.183,-2496.5"/>
</g>
<!-- \\NetCommonsConsoleTestCase -->
<g id="node7" class="node"><title>\\NetCommonsConsoleTestCase</title>
<polygon fill="none" stroke="black" points="732,-2626 548,-2626 548,-2590 732,-2590 732,-2626"/>
<text text-anchor="middle" x="640" y="-2605.1" font-family="Courier,monospace" font-size="11.00">NetCommonsConsoleTestCase</text>
</g>
<!-- \\NetCommonsCakeTestCase -->
<g id="node13" class="node"><title>\\NetCommonsCakeTestCase</title>
<polygon fill="none" stroke="black" points="425,-2572 261,-2572 261,-2536 425,-2536 425,-2572"/>
<text text-anchor="middle" x="343" y="-2551.1" font-family="Courier,monospace" font-size="11.00">NetCommonsCakeTestCase</text>
</g>
<!-- \\NetCommonsConsoleTestCase&#45;&gt;\\NetCommonsCakeTestCase -->
<g id="edge13" class="edge"><title>\\NetCommonsConsoleTestCase&#45;&gt;\\NetCommonsCakeTestCase</title>
<path fill="none" stroke="black" d="M547.249,-2591.14C511.778,-2584.69 471.343,-2577.34 435.861,-2570.88"/>
<polygon fill="none" stroke="black" points="436.458,-2567.44 425.993,-2569.09 435.206,-2574.32 436.458,-2567.44"/>
</g>
<!-- \\NetCommonsGetTest -->
<g id="node8" class="node"><title>\\NetCommonsGetTest</title>
<polygon fill="none" stroke="black" points="998,-2464 868,-2464 868,-2428 998,-2428 998,-2464"/>
<text text-anchor="middle" x="933" y="-2443.1" font-family="Courier,monospace" font-size="11.00">NetCommonsGetTest</text>
</g>
<!-- \\NetCommonsGetTest&#45;&gt;\\NetCommonsModelTestCase -->
<g id="edge15" class="edge"><title>\\NetCommonsGetTest&#45;&gt;\\NetCommonsModelTestCase</title>
<path fill="none" stroke="black" d="M867.245,-2458.12C828.582,-2465.24 779.008,-2474.38 736.034,-2482.3"/>
<polygon fill="none" stroke="black" points="735.32,-2478.87 726.12,-2484.13 736.588,-2485.76 735.32,-2478.87"/>
</g>
<!-- \\NetCommonsHelperTestCase -->
<g id="node9" class="node"><title>\\NetCommonsHelperTestCase</title>
<polygon fill="none" stroke="black" points="729,-2572 551,-2572 551,-2536 729,-2536 729,-2572"/>
<text text-anchor="middle" x="640" y="-2551.1" font-family="Courier,monospace" font-size="11.00">NetCommonsHelperTestCase</text>
</g>
<!-- \\NetCommonsHelperTestCase&#45;&gt;\\NetCommonsCakeTestCase -->
<g id="edge17" class="edge"><title>\\NetCommonsHelperTestCase&#45;&gt;\\NetCommonsCakeTestCase</title>
<path fill="none" stroke="black" d="M550.487,-2554C514.267,-2554 472.456,-2554 435.9,-2554"/>
<polygon fill="none" stroke="black" points="435.737,-2550.5 425.737,-2554 435.737,-2557.5 435.737,-2550.5"/>
</g>
<!-- \\NetCommonsControllerBaseTestCase -->
<g id="node10" class="node"><title>\\NetCommonsControllerBaseTestCase</title>
<polygon fill="none" stroke="black" points="756,-1168 524,-1168 524,-1132 756,-1132 756,-1168"/>
<text text-anchor="middle" x="640" y="-1147.1" font-family="Courier,monospace" font-size="11.00">NetCommonsControllerBaseTestCase</text>
</g>
<!-- \\ControllerTestCase -->
<g id="node67" class="node"><title>\\ControllerTestCase</title>
<ellipse fill="none" stroke="black" cx="343" cy="-288" rx="106.773" ry="18.3848"/>
<text text-anchor="middle" x="343" y="-284.4" font-family="Times Roman,serif" font-size="14.00" fill="gray">\ControllerTestCase</text>
</g>
<!-- \\NetCommonsControllerBaseTestCase&#45;&gt;\\ControllerTestCase -->
<g id="edge19" class="edge"><title>\\NetCommonsControllerBaseTestCase&#45;&gt;\\ControllerTestCase</title>
<path fill="none" stroke="black" d="M633.257,-1131.83C613.463,-1077.87 554.861,-913.577 522,-773 475.098,-572.353 588.906,-467.197 450,-315 446.125,-310.755 441.69,-307.134 436.877,-304.049"/>
<polygon fill="none" stroke="black" points="438.293,-300.832 427.848,-299.056 434.905,-306.958 438.293,-300.832"/>
</g>
<!-- \\NetCommonsValidateTest -->
<g id="node11" class="node"><title>\\NetCommonsValidateTest</title>
<polygon fill="none" stroke="black" points="1015,-2626 851,-2626 851,-2590 1015,-2590 1015,-2626"/>
<text text-anchor="middle" x="933" y="-2605.1" font-family="Courier,monospace" font-size="11.00">NetCommonsValidateTest</text>
</g>
<!-- \\NetCommonsValidateTest&#45;&gt;\\NetCommonsModelTestCase -->
<g id="edge21" class="edge"><title>\\NetCommonsValidateTest&#45;&gt;\\NetCommonsModelTestCase</title>
<path fill="none" stroke="black" d="M851.793,-2589.93C844.283,-2587.3 836.908,-2584.34 830,-2581 793.981,-2563.6 794.288,-2543.83 758,-2527 750.962,-2523.74 743.501,-2520.85 735.884,-2518.31"/>
<polygon fill="none" stroke="black" points="736.762,-2514.91 726.173,-2515.26 734.666,-2521.59 736.762,-2514.91"/>
</g>
<!-- \\NetCommonsTestSuite -->
<g id="node12" class="node"><title>\\NetCommonsTestSuite</title>
<polygon fill="none" stroke="black" points="1005,-1060 861,-1060 861,-1024 1005,-1024 1005,-1060"/>
<text text-anchor="middle" x="933" y="-1039.1" font-family="Courier,monospace" font-size="11.00">NetCommonsTestSuite</text>
</g>
<!-- \\CakeTestSuite -->
<g id="node70" class="node"><title>\\CakeTestSuite</title>
<ellipse fill="none" stroke="black" cx="640" cy="-342" rx="84.1457" ry="18.3848"/>
<text text-anchor="middle" x="640" y="-338.4" font-family="Times Roman,serif" font-size="14.00" fill="gray">\CakeTestSuite</text>
</g>
<!-- \\NetCommonsTestSuite&#45;&gt;\\CakeTestSuite -->
<g id="edge23" class="edge"><title>\\NetCommonsTestSuite&#45;&gt;\\CakeTestSuite</title>
<path fill="none" stroke="black" d="M860.447,-1034.81C848.845,-1030.6 838.034,-1024.3 830,-1015 639.748,-794.678 956.063,-577.328 758,-364 751.088,-356.555 742.529,-351.148 733.202,-347.272"/>
<polygon fill="none" stroke="black" points="734.245,-343.929 723.65,-343.888 731.907,-350.527 734.245,-343.929"/>
</g>
<!-- \\CakeTestCase -->
<g id="node72" class="node"><title>\\CakeTestCase</title>
<ellipse fill="none" stroke="black" cx="82" cy="-2554" rx="82.0244" ry="18.3848"/>
<text text-anchor="middle" x="82" y="-2550.4" font-family="Times Roman,serif" font-size="14.00" fill="gray">\CakeTestCase</text>
</g>
<!-- \\NetCommonsCakeTestCase&#45;&gt;\\CakeTestCase -->
<g id="edge25" class="edge"><title>\\NetCommonsCakeTestCase&#45;&gt;\\CakeTestCase</title>
<path fill="none" stroke="black" d="M260.418,-2554C233.018,-2554 202.345,-2554 174.263,-2554"/>
<polygon fill="none" stroke="black" points="174.045,-2550.5 164.045,-2554 174.045,-2557.5 174.045,-2550.5"/>
</g>
<!-- \\NetCommonsSaveTest -->
<g id="node14" class="node"><title>\\NetCommonsSaveTest</title>
<polygon fill="none" stroke="black" points="1002,-2572 864,-2572 864,-2536 1002,-2536 1002,-2572"/>
<text text-anchor="middle" x="933" y="-2551.1" font-family="Courier,monospace" font-size="11.00">NetCommonsSaveTest</text>
</g>
<!-- \\NetCommonsSaveTest&#45;&gt;\\NetCommonsModelTestCase -->
<g id="edge27" class="edge"><title>\\NetCommonsSaveTest&#45;&gt;\\NetCommonsModelTestCase</title>
<path fill="none" stroke="black" d="M863.934,-2541.27C825.795,-2534.24 777.829,-2525.4 736.084,-2517.71"/>
<polygon fill="none" stroke="black" points="736.641,-2514.25 726.172,-2515.88 735.372,-2521.14 736.641,-2514.25"/>
</g>
<!-- \\NetCommonsModelTestCase&#45;&gt;\\NetCommonsCakeTestCase -->
<g id="edge29" class="edge"><title>\\NetCommonsModelTestCase&#45;&gt;\\NetCommonsCakeTestCase</title>
<path fill="none" stroke="black" d="M553.696,-2515.69C516.671,-2522.42 473.35,-2530.3 435.65,-2537.15"/>
<polygon fill="none" stroke="black" points="434.899,-2533.73 425.686,-2538.97 436.151,-2540.62 434.899,-2533.73"/>
</g>
<!-- \\NetCommonsControllerTestCase -->
<g id="node16" class="node"><title>\\NetCommonsControllerTestCase</title>
<polygon fill="none" stroke="black" points="1036,-1168 830,-1168 830,-1132 1036,-1132 1036,-1168"/>
<text text-anchor="middle" x="933" y="-1147.1" font-family="Courier,monospace" font-size="11.00">NetCommonsControllerTestCase</text>
</g>
<!-- \\NetCommonsControllerTestCase&#45;&gt;\\NetCommonsControllerBaseTestCase -->
<g id="edge31" class="edge"><title>\\NetCommonsControllerTestCase&#45;&gt;\\NetCommonsControllerBaseTestCase</title>
<path fill="none" stroke="black" d="M829.699,-1150C809.381,-1150 787.845,-1150 766.858,-1150"/>
<polygon fill="none" stroke="black" points="766.606,-1146.5 756.606,-1150 766.606,-1153.5 766.606,-1146.5"/>
</g>
<!-- \\NetCommonsAppController -->
<g id="node17" class="node"><title>\\NetCommonsAppController</title>
<polygon fill="none" stroke="black" points="726,-764 554,-764 554,-728 726,-728 726,-764"/>
<text text-anchor="middle" x="640" y="-743.1" font-family="Courier,monospace" font-size="11.00">NetCommonsAppController</text>
</g>
<!-- \\NetCommonsAppController&#45;&gt;\\Controller -->
<g id="edge33" class="edge"><title>\\NetCommonsAppController&#45;&gt;\\Controller</title>
<path fill="none" stroke="black" d="M553.72,-742.839C541.815,-738.949 530.707,-732.973 522,-724 376.974,-574.548 608.165,-396.47 450,-261 377.764,-199.129 312.251,-204.151 236,-261 154.583,-321.7 100.591,-650.587 85.9875,-749.71"/>
<polygon fill="none" stroke="black" points="82.4866,-749.464 84.5118,-759.863 89.4139,-750.47 82.4866,-749.464"/>
</g>
<!-- \\AssetComponent -->
<g id="node18" class="node"><title>\\AssetComponent</title>
<polygon fill="none" stroke="black" points="988,-952 878,-952 878,-916 988,-916 988,-952"/>
<text text-anchor="middle" x="933" y="-931.1" font-family="Courier,monospace" font-size="11.00">AssetComponent</text>
</g>
<!-- \\Component -->
<g id="node78" class="node"><title>\\Component</title>
<ellipse fill="none" stroke="black" cx="640" cy="-288" rx="70.9184" ry="18.3848"/>
<text text-anchor="middle" x="640" y="-284.4" font-family="Times Roman,serif" font-size="14.00" fill="gray">\Component</text>
</g>
<!-- \\AssetComponent&#45;&gt;\\Component -->
<g id="edge35" class="edge"><title>\\AssetComponent&#45;&gt;\\Component</title>
<path fill="none" stroke="black" d="M877.342,-931.436C859.801,-927.802 841.915,-920.647 830,-907 655.683,-707.337 935.432,-511.899 758,-315 748.227,-304.155 735.069,-297.207 721.082,-292.841"/>
<polygon fill="none" stroke="black" points="721.864,-289.426 711.298,-290.214 720.049,-296.187 721.864,-289.426"/>
</g>
<!-- \\NetCommonsTimeComponent -->
<g id="node19" class="node"><title>\\NetCommonsTimeComponent</title>
<polygon fill="none" stroke="black" points="1019,-898 847,-898 847,-862 1019,-862 1019,-898"/>
<text text-anchor="middle" x="933" y="-877.1" font-family="Courier,monospace" font-size="11.00">NetCommonsTimeComponent</text>
</g>
<!-- \\NetCommonsTimeComponent&#45;&gt;\\Component -->
<g id="edge37" class="edge"><title>\\NetCommonsTimeComponent&#45;&gt;\\Component</title>
<path fill="none" stroke="black" d="M846.734,-866.334C840.484,-862.785 834.774,-858.402 830,-853 670.252,-672.227 920.569,-493.24 758,-315 748.162,-304.213 734.974,-297.293 720.979,-292.934"/>
<polygon fill="none" stroke="black" points="721.757,-289.519 711.192,-290.31 719.944,-296.281 721.757,-289.519"/>
</g>
<!-- \\PermissionComponent -->
<g id="node20" class="node"><title>\\PermissionComponent</title>
<polygon fill="none" stroke="black" points="1005,-844 861,-844 861,-808 1005,-808 1005,-844"/>
<text text-anchor="middle" x="933" y="-823.1" font-family="Courier,monospace" font-size="11.00">PermissionComponent</text>
</g>
<!-- \\PermissionComponent&#45;&gt;\\Component -->
<g id="edge39" class="edge"><title>\\PermissionComponent&#45;&gt;\\Component</title>
<path fill="none" stroke="black" d="M860.47,-818.469C848.938,-814.277 838.146,-808.083 830,-799 684.8,-637.094 905.726,-474.605 758,-315 748.083,-304.286 734.859,-297.398 720.853,-293.049"/>
<polygon fill="none" stroke="black" points="721.628,-289.634 711.063,-290.429 719.818,-296.396 721.628,-289.634"/>
</g>
<!-- \\NetCommonsComponent -->
<g id="node21" class="node"><title>\\NetCommonsComponent</title>
<polygon fill="none" stroke="black" points="1005,-1006 861,-1006 861,-970 1005,-970 1005,-1006"/>
<text text-anchor="middle" x="933" y="-985.1" font-family="Courier,monospace" font-size="11.00">NetCommonsComponent</text>
</g>
<!-- \\NetCommonsComponent&#45;&gt;\\Component -->
<g id="edge41" class="edge"><title>\\NetCommonsComponent&#45;&gt;\\Component</title>
<path fill="none" stroke="black" d="M860.454,-980.809C848.851,-976.592 838.038,-970.301 830,-961 641.099,-742.429 950.312,-530.576 758,-315 748.225,-304.042 734.994,-297.054 720.924,-292.686"/>
<polygon fill="none" stroke="black" points="721.644,-289.256 711.08,-290.064 719.842,-296.02 721.644,-289.256"/>
</g>
<!-- \\NetCommonsController -->
<g id="node22" class="node"><title>\\NetCommonsController</title>
<polygon fill="none" stroke="black" points="1009,-1114 857,-1114 857,-1078 1009,-1078 1009,-1114"/>
<text text-anchor="middle" x="933" y="-1093.1" font-family="Courier,monospace" font-size="11.00">NetCommonsController</text>
</g>
<!-- \\NetCommonsController&#45;&gt;\\NetCommonsAppController -->
<g id="edge43" class="edge"><title>\\NetCommonsController&#45;&gt;\\NetCommonsAppController</title>
<path fill="none" stroke="black" d="M856.95,-1083.45C847.316,-1079.79 838.034,-1075.08 830,-1069 726.056,-990.355 668.437,-836.978 648.297,-774.008"/>
<polygon fill="none" stroke="black" points="651.605,-772.86 645.28,-764.36 644.924,-774.949 651.605,-772.86"/>
</g>
<!-- \\NetCommonsUrl -->
<g id="node23" class="node"><title>\\NetCommonsUrl</title>
<polygon fill="none" stroke="black" points="985,-1978 881,-1978 881,-1942 985,-1942 985,-1978"/>
<text text-anchor="middle" x="933" y="-1957.1" font-family="Courier,monospace" font-size="11.00">NetCommonsUrl</text>
</g>
<!-- \\NetCommonsTime -->
<g id="node24" class="node"><title>\\NetCommonsTime</title>
<polygon fill="none" stroke="black" points="988,-1924 878,-1924 878,-1888 988,-1888 988,-1924"/>
<text text-anchor="middle" x="933" y="-1903.1" font-family="Courier,monospace" font-size="11.00">NetCommonsTime</text>
</g>
<!-- \\CurrentBase -->
<g id="node25" class="node"><title>\\CurrentBase</title>
<polygon fill="none" stroke="black" points="685,-2194 595,-2194 595,-2158 685,-2158 685,-2194"/>
<text text-anchor="middle" x="640" y="-2173.1" font-family="Courier,monospace" font-size="11.00">CurrentBase</text>
</g>
<!-- \\Current -->
<g id="node26" class="node"><title>\\Current</title>
<polygon fill="none" stroke="black" points="965,-2194 901,-2194 901,-2158 965,-2158 965,-2194"/>
<text text-anchor="middle" x="933" y="-2173.1" font-family="Courier,monospace" font-size="11.00">Current</text>
</g>
<!-- \\Current&#45;&gt;\\CurrentBase -->
<g id="edge45" class="edge"><title>\\Current&#45;&gt;\\CurrentBase</title>
<path fill="none" stroke="black" d="M900.806,-2176C851.48,-2176 756.554,-2176 695.846,-2176"/>
<polygon fill="none" stroke="black" points="695.669,-2172.5 685.669,-2176 695.669,-2179.5 695.669,-2172.5"/>
</g>
<!-- \\CurrentSystem -->
<g id="node27" class="node"><title>\\CurrentSystem</title>
<polygon fill="none" stroke="black" points="985,-1816 881,-1816 881,-1780 985,-1780 985,-1816"/>
<text text-anchor="middle" x="933" y="-1795.1" font-family="Courier,monospace" font-size="11.00">CurrentSystem</text>
</g>
<!-- \\CurrentPage -->
<g id="node28" class="node"><title>\\CurrentPage</title>
<polygon fill="none" stroke="black" points="978,-1762 888,-1762 888,-1726 978,-1726 978,-1762"/>
<text text-anchor="middle" x="933" y="-1741.1" font-family="Courier,monospace" font-size="11.00">CurrentPage</text>
</g>
<!-- \\CurrentFrame -->
<g id="node29" class="node"><title>\\CurrentFrame</title>
<polygon fill="none" stroke="black" points="982,-1708 884,-1708 884,-1672 982,-1672 982,-1708"/>
<text text-anchor="middle" x="933" y="-1687.1" font-family="Courier,monospace" font-size="11.00">CurrentFrame</text>
</g>
<!-- \\TokenHelper -->
<g id="node30" class="node"><title>\\TokenHelper</title>
<polygon fill="none" stroke="black" points="978,-790 888,-790 888,-754 978,-754 978,-790"/>
<text text-anchor="middle" x="933" y="-769.1" font-family="Courier,monospace" font-size="11.00">TokenHelper</text>
</g>
<!-- \\FormHelper -->
<g id="node85" class="node"><title>\\FormHelper</title>
<ellipse fill="none" stroke="black" cx="640" cy="-234" rx="70.9184" ry="18.3848"/>
<text text-anchor="middle" x="640" y="-230.4" font-family="Times Roman,serif" font-size="14.00" fill="gray">\FormHelper</text>
</g>
<!-- \\TokenHelper&#45;&gt;\\FormHelper -->
<g id="edge47" class="edge"><title>\\TokenHelper&#45;&gt;\\FormHelper</title>
<path fill="none" stroke="black" d="M887.387,-770.968C867.002,-768.065 844.379,-761.033 830,-745 684.8,-583.094 905.726,-420.605 758,-261 748.083,-250.286 734.859,-243.398 720.853,-239.049"/>
<polygon fill="none" stroke="black" points="721.628,-235.634 711.063,-236.429 719.818,-242.396 721.628,-235.634"/>
</g>
<!-- \\SingletonViewBlockHtmlHelper -->
<g id="node31" class="node"><title>\\SingletonViewBlockHtmlHelper</title>
<polygon fill="none" stroke="black" points="1036,-628 830,-628 830,-592 1036,-592 1036,-628"/>
<text text-anchor="middle" x="933" y="-607.1" font-family="Courier,monospace" font-size="11.00">SingletonViewBlockHtmlHelper</text>
</g>
<!-- \\HtmlHelper -->
<g id="node87" class="node"><title>\\HtmlHelper</title>
<ellipse fill="none" stroke="black" cx="640" cy="-180" rx="67.1751" ry="18.3848"/>
<text text-anchor="middle" x="640" y="-176.4" font-family="Times Roman,serif" font-size="14.00" fill="gray">HtmlHelper</text>
</g>
<!-- \\SingletonViewBlockHtmlHelper&#45;&gt;\\HtmlHelper -->
<g id="edge49" class="edge"><title>\\SingletonViewBlockHtmlHelper&#45;&gt;\\HtmlHelper</title>
<path fill="none" stroke="black" d="M840.465,-591.968C836.678,-589.35 833.156,-586.376 830,-583 713.795,-458.716 876.143,-329.443 758,-207 746.987,-195.587 732.213,-188.556 716.851,-184.316"/>
<polygon fill="none" stroke="black" points="717.243,-180.812 706.706,-181.915 715.631,-187.624 717.243,-180.812"/>
</g>
<!-- \\FormInputHelper -->
<g id="node32" class="node"><title>\\FormInputHelper</title>
<polygon fill="none" stroke="black" points="992,-2086 874,-2086 874,-2050 992,-2050 992,-2086"/>
<text text-anchor="middle" x="933" y="-2065.1" font-family="Courier,monospace" font-size="11.00">FormInputHelper</text>
</g>
<!-- \\FormInputHelper&#45;&gt;\\AppHelper -->
<g id="edge51" class="edge"><title>\\FormInputHelper&#45;&gt;\\AppHelper</title>
<path fill="none" stroke="black" d="M873.872,-2062.69C858.055,-2058.73 842.033,-2052.08 830,-2041 674.226,-1897.5 646.135,-1618.7 641.095,-1529.31"/>
<polygon fill="none" stroke="black" points="644.581,-1528.94 640.577,-1519.13 637.59,-1529.3 644.581,-1528.94"/>
</g>
<!-- \\WizardHelper -->
<g id="node33" class="node"><title>\\WizardHelper</title>
<polygon fill="none" stroke="black" points="982,-2032 884,-2032 884,-1996 982,-1996 982,-2032"/>
<text text-anchor="middle" x="933" y="-2011.1" font-family="Courier,monospace" font-size="11.00">WizardHelper</text>
</g>
<!-- \\WizardHelper&#45;&gt;\\AppHelper -->
<g id="edge53" class="edge"><title>\\WizardHelper&#45;&gt;\\AppHelper</title>
<path fill="none" stroke="black" d="M883.956,-2010.57C865.194,-2007.02 844.776,-2000.15 830,-1987 687.368,-1860.06 650.808,-1612.73 642.341,-1529.27"/>
<polygon fill="none" stroke="black" points="645.82,-1528.89 641.383,-1519.27 638.852,-1529.56 645.82,-1528.89"/>
</g>
<!-- \\DisplayNumberHelper -->
<g id="node34" class="node"><title>\\DisplayNumberHelper</title>
<polygon fill="none" stroke="black" points="1005,-1870 861,-1870 861,-1834 1005,-1834 1005,-1870"/>
<text text-anchor="middle" x="933" y="-1849.1" font-family="Courier,monospace" font-size="11.00">DisplayNumberHelper</text>
</g>
<!-- \\DisplayNumberHelper&#45;&gt;\\AppHelper -->
<g id="edge55" class="edge"><title>\\DisplayNumberHelper&#45;&gt;\\AppHelper</title>
<path fill="none" stroke="black" d="M860.402,-1840.72C849.541,-1836.91 838.988,-1831.81 830,-1825 725.624,-1745.92 668.084,-1591.53 648.129,-1528.65"/>
<polygon fill="none" stroke="black" points="651.45,-1527.54 645.144,-1519.03 644.764,-1529.61 651.45,-1527.54"/>
</g>
<!-- \\MessageFlashHelper -->
<g id="node35" class="node"><title>\\MessageFlashHelper</title>
<polygon fill="none" stroke="black" points="1002,-1654 864,-1654 864,-1618 1002,-1618 1002,-1654"/>
<text text-anchor="middle" x="933" y="-1633.1" font-family="Courier,monospace" font-size="11.00">MessageFlashHelper</text>
</g>
<!-- \\MessageFlashHelper&#45;&gt;\\AppHelper -->
<g id="edge57" class="edge"><title>\\MessageFlashHelper&#45;&gt;\\AppHelper</title>
<path fill="none" stroke="black" d="M863.761,-1620.51C852.316,-1617.2 840.701,-1613.36 830,-1609 773.066,-1585.82 712.097,-1548.73 675.004,-1524.61"/>
<polygon fill="none" stroke="black" points="676.839,-1521.63 666.557,-1519.07 673.002,-1527.48 676.839,-1521.63"/>
</g>
<!-- \\DateHelper -->
<g id="node36" class="node"><title>\\DateHelper</title>
<polygon fill="none" stroke="black" points="975,-1600 891,-1600 891,-1564 975,-1564 975,-1600"/>
<text text-anchor="middle" x="933" y="-1579.1" font-family="Courier,monospace" font-size="11.00">DateHelper</text>
</g>
<!-- \\DateHelper&#45;&gt;\\AppHelper -->
<g id="edge59" class="edge"><title>\\DateHelper&#45;&gt;\\AppHelper</title>
<path fill="none" stroke="black" d="M890.853,-1571.16C872.184,-1566.31 849.973,-1560.46 830,-1555 781.716,-1541.81 726.728,-1526.11 688.375,-1515.04"/>
<polygon fill="none" stroke="black" points="689.087,-1511.61 678.508,-1512.2 687.145,-1518.33 689.087,-1511.61"/>
</g>
<!-- \\SnsButtonHelper -->
<g id="node37" class="node"><title>\\SnsButtonHelper</title>
<polygon fill="none" stroke="black" points="992,-1546 874,-1546 874,-1510 992,-1510 992,-1546"/>
<text text-anchor="middle" x="933" y="-1525.1" font-family="Courier,monospace" font-size="11.00">SnsButtonHelper</text>
</g>
<!-- \\SnsButtonHelper&#45;&gt;\\AppHelper -->
<g id="edge61" class="edge"><title>\\SnsButtonHelper&#45;&gt;\\AppHelper</title>
<path fill="none" stroke="black" d="M873.707,-1522.54C819.266,-1517.52 739.563,-1510.17 688.738,-1505.49"/>
<polygon fill="none" stroke="black" points="688.942,-1502 678.663,-1504.56 688.299,-1508.97 688.942,-1502"/>
</g>
<!-- \\BackToHelper -->
<g id="node38" class="node"><title>\\BackToHelper</title>
<polygon fill="none" stroke="black" points="982,-1492 884,-1492 884,-1456 982,-1456 982,-1492"/>
<text text-anchor="middle" x="933" y="-1471.1" font-family="Courier,monospace" font-size="11.00">BackToHelper</text>
</g>
<!-- \\BackToHelper&#45;&gt;\\AppHelper -->
<g id="edge63" class="edge"><title>\\BackToHelper&#45;&gt;\\AppHelper</title>
<path fill="none" stroke="black" d="M883.958,-1478.52C829.78,-1483.51 743.056,-1491.5 688.925,-1496.49"/>
<polygon fill="none" stroke="black" points="688.519,-1493.01 678.882,-1497.42 689.161,-1499.98 688.519,-1493.01"/>
</g>
<!-- \\NetCommonsHtmlHelper -->
<g id="node39" class="node"><title>\\NetCommonsHtmlHelper</title>
<polygon fill="none" stroke="black" points="1009,-1438 857,-1438 857,-1402 1009,-1402 1009,-1438"/>
<text text-anchor="middle" x="933" y="-1417.1" font-family="Courier,monospace" font-size="11.00">NetCommonsHtmlHelper</text>
</g>
<!-- \\NetCommonsHtmlHelper&#45;&gt;\\AppHelper -->
<g id="edge65" class="edge"><title>\\NetCommonsHtmlHelper&#45;&gt;\\AppHelper</title>
<path fill="none" stroke="black" d="M863.415,-1438.03C852.231,-1440.99 840.789,-1444.05 830,-1447 781.716,-1460.19 726.728,-1475.89 688.375,-1486.96"/>
<polygon fill="none" stroke="black" points="687.145,-1483.67 678.508,-1489.8 689.087,-1490.39 687.145,-1483.67"/>
</g>
<!-- \\ButtonHelper -->
<g id="node40" class="node"><title>\\ButtonHelper</title>
<polygon fill="none" stroke="black" points="982,-736 884,-736 884,-700 982,-700 982,-736"/>
<text text-anchor="middle" x="933" y="-715.1" font-family="Courier,monospace" font-size="11.00">ButtonHelper</text>
</g>
<!-- \\ButtonHelper&#45;&gt;\\FormHelper -->
<g id="edge67" class="edge"><title>\\ButtonHelper&#45;&gt;\\FormHelper</title>
<path fill="none" stroke="black" d="M883.825,-716.278C864.469,-713.046 843.652,-705.946 830,-691 699.318,-547.927 890.914,-402.002 758,-261 747.986,-250.377 734.718,-243.531 720.698,-239.194"/>
<polygon fill="none" stroke="black" points="721.468,-235.777 710.904,-236.577 719.661,-242.54 721.468,-235.777"/>
</g>
<!-- \\ComposerHelper -->
<g id="node41" class="node"><title>\\ComposerHelper</title>
<polygon fill="none" stroke="black" points="988,-1384 878,-1384 878,-1348 988,-1348 988,-1384"/>
<text text-anchor="middle" x="933" y="-1363.1" font-family="Courier,monospace" font-size="11.00">ComposerHelper</text>
</g>
<!-- \\ComposerHelper&#45;&gt;\\AppHelper -->
<g id="edge69" class="edge"><title>\\ComposerHelper&#45;&gt;\\AppHelper</title>
<path fill="none" stroke="black" d="M877.345,-1377.77C861.755,-1381.82 844.981,-1386.9 830,-1393 773.066,-1416.18 712.097,-1453.27 675.004,-1477.39"/>
<polygon fill="none" stroke="black" points="673.002,-1474.52 666.557,-1482.93 676.839,-1480.37 673.002,-1474.52"/>
</g>
<!-- \\LinkButtonHelper -->
<g id="node42" class="node"><title>\\LinkButtonHelper</title>
<polygon fill="none" stroke="black" points="995,-682 871,-682 871,-646 995,-646 995,-682"/>
<text text-anchor="middle" x="933" y="-661.1" font-family="Courier,monospace" font-size="11.00">LinkButtonHelper</text>
</g>
<!-- \\LinkButtonHelper&#45;&gt;\\FormHelper -->
<g id="edge71" class="edge"><title>\\LinkButtonHelper&#45;&gt;\\FormHelper</title>
<path fill="none" stroke="black" d="M870.353,-659.174C855.34,-655.149 840.605,-648.343 830,-637 713.795,-512.716 876.143,-383.443 758,-261 747.863,-250.494 734.538,-243.702 720.502,-239.381"/>
<polygon fill="none" stroke="black" points="721.266,-235.962 710.702,-236.77 719.464,-242.726 721.266,-235.962"/>
</g>
<!-- \\NetCommonsTimeHelper -->
<g id="node43" class="node"><title>\\NetCommonsTimeHelper</title>
<polygon fill="none" stroke="black" points="1009,-1330 857,-1330 857,-1294 1009,-1294 1009,-1330"/>
<text text-anchor="middle" x="933" y="-1309.1" font-family="Courier,monospace" font-size="11.00">NetCommonsTimeHelper</text>
</g>
<!-- \\NetCommonsTimeHelper&#45;&gt;\\AppHelper -->
<g id="edge73" class="edge"><title>\\NetCommonsTimeHelper&#45;&gt;\\AppHelper</title>
<path fill="none" stroke="black" d="M856.984,-1327.73C847.651,-1330.87 838.439,-1334.59 830,-1339 761.41,-1374.81 696.097,-1439.44 662.838,-1475.3"/>
<polygon fill="none" stroke="black" points="660.033,-1473.17 655.854,-1482.91 665.192,-1477.91 660.033,-1473.17"/>
</g>
<!-- \\NetCommonsFormHelper -->
<g id="node44" class="node"><title>\\NetCommonsFormHelper</title>
<polygon fill="none" stroke="black" points="1009,-1276 857,-1276 857,-1240 1009,-1240 1009,-1276"/>
<text text-anchor="middle" x="933" y="-1255.1" font-family="Courier,monospace" font-size="11.00">NetCommonsFormHelper</text>
</g>
<!-- \\NetCommonsFormHelper&#45;&gt;\\AppHelper -->
<g id="edge75" class="edge"><title>\\NetCommonsFormHelper&#45;&gt;\\AppHelper</title>
<path fill="none" stroke="black" d="M856.876,-1272.4C847.463,-1275.76 838.259,-1279.9 830,-1285 749.876,-1334.44 684.727,-1428.19 655.946,-1474.19"/>
<polygon fill="none" stroke="black" points="652.792,-1472.64 650.523,-1482.98 658.75,-1476.31 652.792,-1472.64"/>
</g>
<!-- \\TitleIconHelper -->
<g id="node45" class="node"><title>\\TitleIconHelper</title>
<polygon fill="none" stroke="black" points="992,-1222 874,-1222 874,-1186 992,-1186 992,-1222"/>
<text text-anchor="middle" x="933" y="-1201.1" font-family="Courier,monospace" font-size="11.00">TitleIconHelper</text>
</g>
<!-- \\TitleIconHelper&#45;&gt;\\AppHelper -->
<g id="edge77" class="edge"><title>\\TitleIconHelper&#45;&gt;\\AppHelper</title>
<path fill="none" stroke="black" d="M873.801,-1212.05C858.597,-1216.05 842.906,-1222.04 830,-1231 738.034,-1294.86 675.79,-1418.47 651.457,-1473.46"/>
<polygon fill="none" stroke="black" points="648.13,-1472.34 647.356,-1482.9 654.551,-1475.13 648.13,-1472.34"/>
</g>
<!-- \\DatetimePickerHelper -->
<g id="node46" class="node"><title>\\DatetimePickerHelper</title>
<polygon fill="none" stroke="black" points="1009,-2140 857,-2140 857,-2104 1009,-2104 1009,-2140"/>
<text text-anchor="middle" x="933" y="-2119.1" font-family="Courier,monospace" font-size="11.00">DatetimePickerHelper</text>
</g>
<!-- \\DatetimePickerHelper&#45;&gt;\\AppHelper -->
<g id="edge79" class="edge"><title>\\DatetimePickerHelper&#45;&gt;\\AppHelper</title>
<path fill="none" stroke="black" d="M856.906,-2111.56C846.994,-2107.61 837.646,-2102.25 830,-2095 743.879,-2013.34 665.926,-1635.95 645.305,-1529.2"/>
<polygon fill="none" stroke="black" points="648.705,-1528.35 643.386,-1519.18 641.83,-1529.66 648.705,-1528.35"/>
</g>
<!-- \\Model -->
<g id="node104" class="node"><title>\\Model</title>
<ellipse fill="none" stroke="black" cx="82" cy="-2365" rx="43.8406" ry="18.3848"/>
<text text-anchor="middle" x="82" y="-2361.4" font-family="Times Roman,serif" font-size="14.00" fill="gray">\Model</text>
</g>
<!-- \\NetCommonsAppModel&#45;&gt;\\Model -->
<g id="edge81" class="edge"><title>\\NetCommonsAppModel&#45;&gt;\\Model</title>
<path fill="none" stroke="black" d="M273.742,-2365C230.675,-2365 176.099,-2365 136.195,-2365"/>
<polygon fill="none" stroke="black" points="136.125,-2361.5 126.125,-2365 136.125,-2368.5 136.125,-2361.5"/>
</g>
<!-- \\OriginalKeyBehavior -->
<g id="node48" class="node"><title>\\OriginalKeyBehavior</title>
<polygon fill="none" stroke="black" points="1005,-574 861,-574 861,-538 1005,-538 1005,-574"/>
<text text-anchor="middle" x="933" y="-553.1" font-family="Courier,monospace" font-size="11.00">OriginalKeyBehavior</text>
</g>
<!-- \\ModelBehavior -->
<g id="node106" class="node"><title>\\ModelBehavior</title>
<ellipse fill="none" stroke="black" cx="640" cy="-126" rx="86.9741" ry="18.3848"/>
<text text-anchor="middle" x="640" y="-122.4" font-family="Times Roman,serif" font-size="14.00" fill="gray">\ModelBehavior</text>
</g>
<!-- \\OriginalKeyBehavior&#45;&gt;\\ModelBehavior -->
<g id="edge83" class="edge"><title>\\OriginalKeyBehavior&#45;&gt;\\ModelBehavior</title>
<path fill="none" stroke="black" d="M860.253,-547.995C848.886,-543.838 838.206,-537.777 830,-529 713.795,-404.716 876.143,-275.443 758,-153 750.646,-145.379 741.615,-139.712 731.852,-135.525"/>
<polygon fill="none" stroke="black" points="732.89,-132.176 722.298,-131.949 730.436,-138.732 732.89,-132.176"/>
</g>
<!-- \\TrackableBehavior -->
<g id="node49" class="node"><title>\\TrackableBehavior</title>
<polygon fill="none" stroke="black" points="998,-520 868,-520 868,-484 998,-484 998,-520"/>
<text text-anchor="middle" x="933" y="-499.1" font-family="Courier,monospace" font-size="11.00">TrackableBehavior</text>
</g>
<!-- \\TrackableBehavior&#45;&gt;\\ModelBehavior -->
<g id="edge85" class="edge"><title>\\TrackableBehavior&#45;&gt;\\ModelBehavior</title>
<path fill="none" stroke="black" d="M867.375,-496.047C853.48,-491.941 840.009,-485.38 830,-475 728.21,-369.437 861.436,-256.95 758,-153 750.53,-145.493 741.428,-139.895 731.627,-135.745"/>
<polygon fill="none" stroke="black" points="732.638,-132.388 722.045,-132.196 730.207,-138.952 732.638,-132.388"/>
</g>
<!-- \\YAExceptionRenderer -->
<g id="node50" class="node"><title>\\YAExceptionRenderer</title>
<polygon fill="none" stroke="black" points="1005,-466 861,-466 861,-430 1005,-430 1005,-466"/>
<text text-anchor="middle" x="933" y="-445.1" font-family="Courier,monospace" font-size="11.00">YAExceptionRenderer</text>
</g>
<!-- \\ExceptionRenderer -->
<g id="node109" class="node"><title>\\ExceptionRenderer</title>
<ellipse fill="none" stroke="black" cx="640" cy="-72" rx="118.087" ry="18.3848"/>
<text text-anchor="middle" x="640" y="-68.4" font-family="Times Roman,serif" font-size="14.00" fill="gray">TEHxceptionRenderer</text>
</g>
<!-- \\YAExceptionRenderer&#45;&gt;\\ExceptionRenderer -->
<g id="edge87" class="edge"><title>\\YAExceptionRenderer&#45;&gt;\\ExceptionRenderer</title>
<path fill="none" stroke="black" d="M860.477,-439.783C849.086,-435.648 838.341,-429.65 830,-421 728.21,-315.437 861.436,-202.95 758,-99 753.632,-94.61 748.706,-90.873 743.408,-87.6967"/>
<polygon fill="none" stroke="black" points="744.657,-84.4002 734.174,-82.8643 741.411,-90.6022 744.657,-84.4002"/>
</g>
<!-- \\NetCommonsMigration -->
<g id="node51" class="node"><title>\\NetCommonsMigration</title>
<polygon fill="none" stroke="black" points="1005,-412 861,-412 861,-376 1005,-376 1005,-412"/>
<text text-anchor="middle" x="933" y="-391.1" font-family="Courier,monospace" font-size="11.00">NetCommonsMigration</text>
</g>
<!-- \\CakeMigration -->
<g id="node111" class="node"><title>\\CakeMigration</title>
<ellipse fill="none" stroke="black" cx="640" cy="-18" rx="84.8528" ry="18.3848"/>
<text text-anchor="middle" x="640" y="-14.4" font-family="Times Roman,serif" font-size="14.00" fill="gray">\CakeMigration</text>
</g>
<!-- \\NetCommonsMigration&#45;&gt;\\CakeMigration -->
<g id="edge89" class="edge"><title>\\NetCommonsMigration&#45;&gt;\\CakeMigration</title>
<path fill="none" stroke="black" d="M929.544,-375.725C917.514,-317.407 871.834,-134.35 758,-45 748.922,-37.8745 738.309,-32.5637 727.237,-28.6167"/>
<polygon fill="none" stroke="black" points="728.007,-25.1887 717.416,-25.488 725.882,-31.8584 728.007,-25.1887"/>
</g>
<!-- \\ForgotPassController -->
<g id="node52" class="node"><title>\\ForgotPassController</title>
<polygon fill="none" stroke="black" points="1009,-2302 857,-2302 857,-2266 1009,-2266 1009,-2302"/>
<text text-anchor="middle" x="933" y="-2281.1" font-family="Courier,monospace" font-size="11.00">ForgotPassController</text>
</g>
<!-- \\AuthAppController -->
<g id="node54" class="node"><title>\\AuthAppController</title>
<polygon fill="none" stroke="black" points="705,-2248 575,-2248 575,-2212 705,-2212 705,-2248"/>
<text text-anchor="middle" x="640" y="-2227.1" font-family="Courier,monospace" font-size="11.00">AuthAppController</text>
</g>
<!-- \\ForgotPassController&#45;&gt;\\AuthAppController -->
<g id="edge91" class="edge"><title>\\ForgotPassController&#45;&gt;\\AuthAppController</title>
<path fill="none" stroke="black" d="M856.783,-2269.95C813.366,-2261.95 759.156,-2251.96 715.808,-2243.97"/>
<polygon fill="none" stroke="black" points="716.355,-2240.51 705.886,-2242.14 715.086,-2247.4 716.355,-2240.51"/>
</g>
<!-- \\AuthController -->
<g id="node53" class="node"><title>\\AuthController</title>
<polygon fill="none" stroke="black" points="988,-2248 878,-2248 878,-2212 988,-2212 988,-2248"/>
<text text-anchor="middle" x="933" y="-2227.1" font-family="Courier,monospace" font-size="11.00">AuthController</text>
</g>
<!-- \\AuthController&#45;&gt;\\AuthAppController -->
<g id="edge93" class="edge"><title>\\AuthController&#45;&gt;\\AuthAppController</title>
<path fill="none" stroke="black" d="M877.199,-2230C831.453,-2230 766.254,-2230 715.785,-2230"/>
<polygon fill="none" stroke="black" points="715.575,-2226.5 705.575,-2230 715.575,-2233.5 715.575,-2226.5"/>
</g>
<!-- \\AuthAppController&#45;&gt;\\AppController -->
<g id="edge95" class="edge"><title>\\AuthAppController&#45;&gt;\\AppController</title>
<path fill="none" stroke="black" d="M574.296,-2228.19C555.145,-2224.47 535.709,-2217.08 522,-2203 397.674,-2075.34 353.323,-1478.8 344.665,-1341.32"/>
<polygon fill="none" stroke="black" points="348.148,-1340.94 344.039,-1331.17 341.162,-1341.37 348.148,-1340.94"/>
</g>
<!-- \\ForgotPass -->
<g id="node55" class="node"><title>\\ForgotPass</title>
<polygon fill="none" stroke="black" points="975,-2356 891,-2356 891,-2320 975,-2320 975,-2356"/>
<text text-anchor="middle" x="933" y="-2335.1" font-family="Courier,monospace" font-size="11.00">ForgotPass</text>
</g>
<!-- \\ForgotPass&#45;&gt;\\AppModel -->
<g id="edge97" class="edge"><title>\\ForgotPass&#45;&gt;\\AppModel</title>
<path fill="none" stroke="black" d="M890.708,-2341.9C836.253,-2346.92 741.97,-2355.6 685.845,-2360.78"/>
<polygon fill="none" stroke="black" points="685.464,-2357.3 675.827,-2361.7 686.106,-2364.27 685.464,-2357.3"/>
</g>
</g>
</svg>
