<?xml version="1.0" encoding="UTF-8" standalone="no"?>
<!DOCTYPE svg PUBLIC "-//W3C//DTD SVG 1.1//EN"
 "http://www.w3.org/Graphics/SVG/1.1/DTD/svg11.dtd">
<!-- Generated by graphviz version 2.26.3 (20100126.1600)
 -->
<!-- Title: G Pages: 1 -->
<svg width="1220pt" height="2888pt"
 viewBox="0.00 0.00 1220.00 2888.00" xmlns="http://www.w3.org/2000/svg" xmlns:xlink="http://www.w3.org/1999/xlink">
<g id="graph1" class="graph" transform="scale(1 1) rotate(0) translate(4 2884)">
<title>G</title>
<polygon fill="white" stroke="white" points="-4,5 -4,-2884 1217,-2884 1217,5 -4,5"/>
<g id="graph2" class="cluster"><title>cluster_Global</title>
<polyline fill="none" stroke="gray" points="177,-368 1192,-368 "/>
<path fill="none" stroke="gray" d="M1192,-368C1198,-368 1204,-374 1204,-380"/>
<polyline fill="none" stroke="gray" points="1204,-380 1204,-2860 "/>
<path fill="none" stroke="gray" d="M1204,-2860C1204,-2866 1198,-2872 1192,-2872"/>
<polyline fill="none" stroke="gray" points="1192,-2872 177,-2872 "/>
<path fill="none" stroke="gray" d="M177,-2872C171,-2872 165,-2866 165,-2860"/>
<polyline fill="none" stroke="gray" points="165,-2860 165,-380 "/>
<path fill="none" stroke="gray" d="M165,-380C165,-374 171,-368 177,-368"/>
<text text-anchor="middle" x="684.5" y="-2858.1" font-family="Times Roman,serif" font-size="11.00" fill="gray">Global</text>
</g>
<!-- \\AppController -->
<g id="node2" class="node"><title>\\AppController</title>
<polygon fill="none" stroke="black" points="555,-1466 451,-1466 451,-1430 555,-1430 555,-1466"/>
<text text-anchor="middle" x="503" y="-1445.1" font-family="Courier,monospace" font-size="11.00">AppController</text>
</g>
<!-- \\Controller -->
<g id="node64" class="node"><title>\\Controller</title>
<ellipse fill="none" stroke="black" cx="242" cy="-265" rx="63.1385" ry="18.3848"/>
<text text-anchor="middle" x="242" y="-261.4" font-family="Times Roman,serif" font-size="14.00" fill="gray">\Controller</text>
</g>
<!-- \\AppController&#45;&gt;\\Controller -->
<g id="edge3" class="edge"><title>\\AppController&#45;&gt;\\Controller</title>
<path fill="none" stroke="black" d="M450.826,-1449.96C430.791,-1447.84 409.512,-1441.52 396,-1426 233.541,-1239.41 452.043,-526.696 324,-315 316.077,-301.901 303.29,-291.766 290.147,-284.155"/>
<polygon fill="none" stroke="black" points="291.514,-280.917 281.046,-279.283 288.21,-287.088 291.514,-280.917"/>
</g>
<!-- \\AppModel -->
<g id="node3" class="node"><title>\\AppModel</title>
<polygon fill="none" stroke="black" points="538,-2815 468,-2815 468,-2779 538,-2779 538,-2815"/>
<text text-anchor="middle" x="503" y="-2794.1" font-family="Courier,monospace" font-size="11.00">AppModel</text>
</g>
<!-- \\NetCommonsAppModel -->
<g id="node50" class="node"><title>\\NetCommonsAppModel</title>
<polygon fill="none" stroke="black" points="311,-2815 173,-2815 173,-2779 311,-2779 311,-2815"/>
<text text-anchor="middle" x="242" y="-2794.1" font-family="Courier,monospace" font-size="11.00">NetCommonsAppModel</text>
</g>
<!-- \\AppModel&#45;&gt;\\NetCommonsAppModel -->
<g id="edge5" class="edge"><title>\\AppModel&#45;&gt;\\NetCommonsAppModel</title>
<path fill="none" stroke="black" d="M467.256,-2797C429.848,-2797 369.903,-2797 321.254,-2797"/>
<polygon fill="none" stroke="black" points="321.056,-2793.5 311.056,-2797 321.056,-2800.5 321.056,-2793.5"/>
</g>
<!-- \\DatabaseConfiguration -->
<g id="node4" class="node"><title>\\DatabaseConfiguration</title>
<polygon fill="none" stroke="black" points="879,-2788 721,-2788 721,-2752 879,-2752 879,-2788"/>
<text text-anchor="middle" x="800" y="-2767.1" font-family="Courier,monospace" font-size="11.00">DatabaseConfiguration</text>
</g>
<!-- \\DatabaseConfiguration&#45;&gt;\\AppModel -->
<g id="edge7" class="edge"><title>\\DatabaseConfiguration&#45;&gt;\\AppModel</title>
<path fill="none" stroke="black" d="M720.8,-2777.2C665.959,-2782.19 594.863,-2788.65 549.084,-2792.81"/>
<polygon fill="none" stroke="black" points="548.509,-2789.35 538.867,-2793.74 549.143,-2796.32 548.509,-2789.35"/>
</g>
<!-- \\AppHelper -->
<g id="node5" class="node"><title>\\AppHelper</title>
<polygon fill="none" stroke="black" points="838,-1762 762,-1762 762,-1726 838,-1726 838,-1762"/>
<text text-anchor="middle" x="800" y="-1741.1" font-family="Courier,monospace" font-size="11.00">AppHelper</text>
</g>
<!-- \\Helper -->
<g id="node68" class="node"><title>\\Helper</title>
<ellipse fill="none" stroke="black" cx="503" cy="-342" rx="43.8406" ry="18.3848"/>
<text text-anchor="middle" x="503" y="-338.4" font-family="Times Roman,serif" font-size="14.00" fill="gray">Helper</text>
</g>
<!-- \\AppHelper&#45;&gt;\\Helper -->
<g id="edge9" class="edge"><title>\\AppHelper&#45;&gt;\\Helper</title>
<path fill="none" stroke="black" d="M792.694,-1725.9C771.354,-1672.12 708.927,-1508.19 682,-1366 661.231,-1256.33 683.59,-447.926 610,-364 596.797,-348.943 576.281,-342.564 556.732,-340.266"/>
<polygon fill="none" stroke="black" points="556.9,-336.768 546.641,-339.412 556.31,-343.743 556.9,-336.768"/>
</g>
<!-- \\NetCommonsDeleteTest -->
<g id="node6" class="node"><title>\\NetCommonsDeleteTest</title>
<polygon fill="none" stroke="black" points="1169,-2734 1017,-2734 1017,-2698 1169,-2698 1169,-2734"/>
<text text-anchor="middle" x="1093" y="-2713.1" font-family="Courier,monospace" font-size="11.00">NetCommonsDeleteTest</text>
</g>
<!-- \\NetCommonsModelTestCase -->
<g id="node15" class="node"><title>\\NetCommonsModelTestCase</title>
<polygon fill="none" stroke="black" points="886,-2626 714,-2626 714,-2590 886,-2590 886,-2626"/>
<text text-anchor="middle" x="800" y="-2605.1" font-family="Courier,monospace" font-size="11.00">NetCommonsModelTestCase</text>
</g>
<!-- \\NetCommonsDeleteTest&#45;&gt;\\NetCommonsModelTestCase -->
<g id="edge11" class="edge"><title>\\NetCommonsDeleteTest&#45;&gt;\\NetCommonsModelTestCase</title>
<path fill="none" stroke="black" d="M1016.97,-2699.68C1007.68,-2696.64 998.49,-2693.1 990,-2689 953.981,-2671.6 954.288,-2651.83 918,-2635 910.962,-2631.74 903.501,-2628.85 895.884,-2626.31"/>
<polygon fill="none" stroke="black" points="896.762,-2622.91 886.173,-2623.26 894.666,-2629.59 896.762,-2622.91"/>
</g>
<!-- \\NetCommonsConsoleTestCase -->
<g id="node7" class="node"><title>\\NetCommonsConsoleTestCase</title>
<polygon fill="none" stroke="black" points="892,-2734 708,-2734 708,-2698 892,-2698 892,-2734"/>
<text text-anchor="middle" x="800" y="-2713.1" font-family="Courier,monospace" font-size="11.00">NetCommonsConsoleTestCase</text>
</g>
<!-- \\NetCommonsCakeTestCase -->
<g id="node13" class="node"><title>\\NetCommonsCakeTestCase</title>
<polygon fill="none" stroke="black" points="585,-2653 421,-2653 421,-2617 585,-2617 585,-2653"/>
<text text-anchor="middle" x="503" y="-2632.1" font-family="Courier,monospace" font-size="11.00">NetCommonsCakeTestCase</text>
</g>
<!-- \\NetCommonsConsoleTestCase&#45;&gt;\\NetCommonsCakeTestCase -->
<g id="edge13" class="edge"><title>\\NetCommonsConsoleTestCase&#45;&gt;\\NetCommonsCakeTestCase</title>
<path fill="none" stroke="black" d="M717.936,-2697.98C705.852,-2695.11 693.579,-2692.07 682,-2689 644.303,-2679.01 602.565,-2666.51 568.882,-2656.05"/>
<polygon fill="none" stroke="black" points="569.742,-2652.65 559.154,-2653.01 567.658,-2659.33 569.742,-2652.65"/>
</g>
<!-- \\NetCommonsGetTest -->
<g id="node8" class="node"><title>\\NetCommonsGetTest</title>
<polygon fill="none" stroke="black" points="1158,-2680 1028,-2680 1028,-2644 1158,-2644 1158,-2680"/>
<text text-anchor="middle" x="1093" y="-2659.1" font-family="Courier,monospace" font-size="11.00">NetCommonsGetTest</text>
</g>
<!-- \\NetCommonsGetTest&#45;&gt;\\NetCommonsModelTestCase -->
<g id="edge15" class="edge"><title>\\NetCommonsGetTest&#45;&gt;\\NetCommonsModelTestCase</title>
<path fill="none" stroke="black" d="M1027.25,-2649.88C988.582,-2642.76 939.008,-2633.62 896.034,-2625.7"/>
<polygon fill="none" stroke="black" points="896.588,-2622.24 886.12,-2623.87 895.32,-2629.13 896.588,-2622.24"/>
</g>
<!-- \\NetCommonsHelperTestCase -->
<g id="node9" class="node"><title>\\NetCommonsHelperTestCase</title>
<polygon fill="none" stroke="black" points="889,-2680 711,-2680 711,-2644 889,-2644 889,-2680"/>
<text text-anchor="middle" x="800" y="-2659.1" font-family="Courier,monospace" font-size="11.00">NetCommonsHelperTestCase</text>
</g>
<!-- \\NetCommonsHelperTestCase&#45;&gt;\\NetCommonsCakeTestCase -->
<g id="edge17" class="edge"><title>\\NetCommonsHelperTestCase&#45;&gt;\\NetCommonsCakeTestCase</title>
<path fill="none" stroke="black" d="M710.487,-2653.86C674.267,-2650.57 632.456,-2646.77 595.9,-2643.45"/>
<polygon fill="none" stroke="black" points="596.013,-2639.94 585.737,-2642.52 595.379,-2646.91 596.013,-2639.94"/>
</g>
<!-- \\NetCommonsControllerBaseTestCase -->
<g id="node10" class="node"><title>\\NetCommonsControllerBaseTestCase</title>
<polygon fill="none" stroke="black" points="916,-1357 684,-1357 684,-1321 916,-1321 916,-1357"/>
<text text-anchor="middle" x="800" y="-1336.1" font-family="Courier,monospace" font-size="11.00">NetCommonsControllerBaseTestCase</text>
</g>
<!-- \\ControllerTestCase -->
<g id="node74" class="node"><title>\\ControllerTestCase</title>
<ellipse fill="none" stroke="black" cx="503" cy="-288" rx="106.773" ry="18.3848"/>
<text text-anchor="middle" x="503" y="-284.4" font-family="Times Roman,serif" font-size="14.00" fill="gray">\ControllerTestCase</text>
</g>
<!-- \\NetCommonsControllerBaseTestCase&#45;&gt;\\ControllerTestCase -->
<g id="edge19" class="edge"><title>\\NetCommonsControllerBaseTestCase&#45;&gt;\\ControllerTestCase</title>
<path fill="none" stroke="black" d="M729.181,-1320.92C711.003,-1312.87 693.387,-1301.37 682,-1285 558.556,-1107.57 749.057,-480.479 610,-315 606.379,-310.691 602.181,-307.016 597.585,-303.886"/>
<polygon fill="none" stroke="black" points="599.32,-300.846 588.921,-298.82 595.787,-306.889 599.32,-300.846"/>
</g>
<!-- \\NetCommonsValidateTest -->
<g id="node11" class="node"><title>\\NetCommonsValidateTest</title>
<polygon fill="none" stroke="black" points="1175,-2626 1011,-2626 1011,-2590 1175,-2590 1175,-2626"/>
<text text-anchor="middle" x="1093" y="-2605.1" font-family="Courier,monospace" font-size="11.00">NetCommonsValidateTest</text>
</g>
<!-- \\NetCommonsValidateTest&#45;&gt;\\NetCommonsModelTestCase -->
<g id="edge21" class="edge"><title>\\NetCommonsValidateTest&#45;&gt;\\NetCommonsModelTestCase</title>
<path fill="none" stroke="black" d="M1010.21,-2608C974.791,-2608 933.196,-2608 896.397,-2608"/>
<polygon fill="none" stroke="black" points="896.154,-2604.5 886.154,-2608 896.154,-2611.5 896.154,-2604.5"/>
</g>
<!-- \\NetCommonsTestSuite -->
<g id="node12" class="node"><title>\\NetCommonsTestSuite</title>
<polygon fill="none" stroke="black" points="1165,-1114 1021,-1114 1021,-1078 1165,-1078 1165,-1114"/>
<text text-anchor="middle" x="1093" y="-1093.1" font-family="Courier,monospace" font-size="11.00">NetCommonsTestSuite</text>
</g>
<!-- \\CakeTestSuite -->
<g id="node77" class="node"><title>\\CakeTestSuite</title>
<ellipse fill="none" stroke="black" cx="800" cy="-342" rx="84.1457" ry="18.3848"/>
<text text-anchor="middle" x="800" y="-338.4" font-family="Times Roman,serif" font-size="14.00" fill="gray">\CakeTestSuite</text>
</g>
<!-- \\NetCommonsTestSuite&#45;&gt;\\CakeTestSuite -->
<g id="edge23" class="edge"><title>\\NetCommonsTestSuite&#45;&gt;\\CakeTestSuite</title>
<path fill="none" stroke="black" d="M1020.38,-1088.87C1008.79,-1084.65 997.995,-1078.34 990,-1069 887.575,-949.377 1024.67,-479.856 918,-364 911.119,-356.526 902.58,-351.101 893.263,-347.215"/>
<polygon fill="none" stroke="black" points="894.315,-343.875 883.72,-343.824 891.97,-350.47 894.315,-343.875"/>
</g>
<!-- \\CakeTestCase -->
<g id="node79" class="node"><title>\\CakeTestCase</title>
<ellipse fill="none" stroke="black" cx="242" cy="-342" rx="82.0244" ry="18.3848"/>
<text text-anchor="middle" x="242" y="-338.4" font-family="Times Roman,serif" font-size="14.00" fill="gray">\CakeTestCase</text>
</g>
<!-- \\NetCommonsCakeTestCase&#45;&gt;\\CakeTestCase -->
<g id="edge25" class="edge"><title>\\NetCommonsCakeTestCase&#45;&gt;\\CakeTestCase</title>
<path fill="none" stroke="black" d="M501.149,-2616.95C490.139,-2509.23 432.526,-1940.25 396,-1475 386.318,-1351.68 402.426,-459.665 324,-364 322.283,-361.905 320.39,-359.998 318.355,-358.262"/>
<polygon fill="none" stroke="black" points="320.087,-355.204 309.875,-352.381 316.098,-360.956 320.087,-355.204"/>
</g>
<!-- \\NetCommonsSaveTest -->
<g id="node14" class="node"><title>\\NetCommonsSaveTest</title>
<polygon fill="none" stroke="black" points="1162,-2788 1024,-2788 1024,-2752 1162,-2752 1162,-2788"/>
<text text-anchor="middle" x="1093" y="-2767.1" font-family="Courier,monospace" font-size="11.00">NetCommonsSaveTest</text>
</g>
<!-- \\NetCommonsSaveTest&#45;&gt;\\NetCommonsModelTestCase -->
<g id="edge27" class="edge"><title>\\NetCommonsSaveTest&#45;&gt;\\NetCommonsModelTestCase</title>
<path fill="none" stroke="black" d="M1023.96,-2759.34C1011.94,-2755.47 1000.08,-2750.19 990,-2743 943.034,-2709.5 965.486,-2667.76 918,-2635 911.099,-2630.24 903.484,-2626.31 895.545,-2623.06"/>
<polygon fill="none" stroke="black" points="896.692,-2619.75 886.099,-2619.56 894.256,-2626.32 896.692,-2619.75"/>
</g>
<!-- \\NetCommonsModelTestCase&#45;&gt;\\NetCommonsCakeTestCase -->
<g id="edge29" class="edge"><title>\\NetCommonsModelTestCase&#45;&gt;\\NetCommonsCakeTestCase</title>
<path fill="none" stroke="black" d="M713.696,-2615.85C676.671,-2619.21 633.35,-2623.15 595.65,-2626.58"/>
<polygon fill="none" stroke="black" points="595.328,-2623.09 585.686,-2627.48 595.962,-2630.06 595.328,-2623.09"/>
</g>
<!-- \\NetCommonsControllerTestCase -->
<g id="node16" class="node"><title>\\NetCommonsControllerTestCase</title>
<polygon fill="none" stroke="black" points="1196,-1384 990,-1384 990,-1348 1196,-1348 1196,-1384"/>
<text text-anchor="middle" x="1093" y="-1363.1" font-family="Courier,monospace" font-size="11.00">NetCommonsControllerTestCase</text>
</g>
<!-- \\NetCommonsControllerTestCase&#45;&gt;\\NetCommonsControllerBaseTestCase -->
<g id="edge31" class="edge"><title>\\NetCommonsControllerTestCase&#45;&gt;\\NetCommonsControllerBaseTestCase</title>
<path fill="none" stroke="black" d="M989.699,-1356.48C969.289,-1354.6 947.65,-1352.61 926.571,-1350.66"/>
<polygon fill="none" stroke="black" points="926.885,-1347.18 916.606,-1349.75 926.243,-1354.15 926.885,-1347.18"/>
</g>
<!-- \\NetCommonsAppController -->
<g id="node17" class="node"><title>\\NetCommonsAppController</title>
<polygon fill="none" stroke="black" points="886,-1276 714,-1276 714,-1240 886,-1240 886,-1276"/>
<text text-anchor="middle" x="800" y="-1255.1" font-family="Courier,monospace" font-size="11.00">NetCommonsAppController</text>
</g>
<!-- \\NetCommonsAppController&#45;&gt;\\Controller -->
<g id="edge33" class="edge"><title>\\NetCommonsAppController&#45;&gt;\\Controller</title>
<path fill="none" stroke="black" d="M756.493,-1239.99C730.205,-1226.67 698.655,-1205.83 682,-1177 579.867,-1000.2 759.93,-399.607 610,-261 567.45,-221.663 400.442,-240.079 306.71,-254.155"/>
<polygon fill="none" stroke="black" points="306.123,-250.704 296.766,-255.673 307.18,-257.624 306.123,-250.704"/>
</g>
<!-- \\AssetComponent -->
<g id="node18" class="node"><title>\\AssetComponent</title>
<polygon fill="none" stroke="black" points="1148,-1006 1038,-1006 1038,-970 1148,-970 1148,-1006"/>
<text text-anchor="middle" x="1093" y="-985.1" font-family="Courier,monospace" font-size="11.00">AssetComponent</text>
</g>
<!-- \\Component -->
<g id="node85" class="node"><title>\\Component</title>
<ellipse fill="none" stroke="black" cx="800" cy="-288" rx="70.9184" ry="18.3848"/>
<text text-anchor="middle" x="800" y="-284.4" font-family="Times Roman,serif" font-size="14.00" fill="gray">\Component</text>
</g>
<!-- \\AssetComponent&#45;&gt;\\Component -->
<g id="edge35" class="edge"><title>\\AssetComponent&#45;&gt;\\Component</title>
<path fill="none" stroke="black" d="M1037.26,-985.504C1019.72,-981.876 1001.85,-974.707 990,-961 801.099,-742.429 1110.31,-530.576 918,-315 908.225,-304.042 894.994,-297.054 880.924,-292.686"/>
<polygon fill="none" stroke="black" points="881.644,-289.256 871.08,-290.064 879.842,-296.02 881.644,-289.256"/>
</g>
<!-- \\AccessCtrlComponent -->
<g id="node19" class="node"><title>\\AccessCtrlComponent</title>
<polygon fill="none" stroke="black" points="1165,-952 1021,-952 1021,-916 1165,-916 1165,-952"/>
<text text-anchor="middle" x="1093" y="-931.1" font-family="Courier,monospace" font-size="11.00">AccessCtrlComponent</text>
</g>
<!-- \\AccessCtrlComponent&#45;&gt;\\Component -->
<g id="edge37" class="edge"><title>\\AccessCtrlComponent&#45;&gt;\\Component</title>
<path fill="none" stroke="black" d="M1020.27,-926.647C1008.76,-922.437 998.024,-916.191 990,-907 815.683,-707.337 1095.43,-511.899 918,-315 908.227,-304.155 895.069,-297.207 881.082,-292.841"/>
<polygon fill="none" stroke="black" points="881.864,-289.426 871.298,-290.214 880.049,-296.187 881.864,-289.426"/>
</g>
<!-- \\NetCommonsTimeComponent -->
<g id="node20" class="node"><title>\\NetCommonsTimeComponent</title>
<polygon fill="none" stroke="black" points="1179,-898 1007,-898 1007,-862 1179,-862 1179,-898"/>
<text text-anchor="middle" x="1093" y="-877.1" font-family="Courier,monospace" font-size="11.00">NetCommonsTimeComponent</text>
</g>
<!-- \\NetCommonsTimeComponent&#45;&gt;\\Component -->
<g id="edge39" class="edge"><title>\\NetCommonsTimeComponent&#45;&gt;\\Component</title>
<path fill="none" stroke="black" d="M1006.73,-866.334C1000.48,-862.785 994.774,-858.402 990,-853 830.252,-672.227 1080.57,-493.24 918,-315 908.162,-304.213 894.974,-297.293 880.979,-292.934"/>
<polygon fill="none" stroke="black" points="881.757,-289.519 871.192,-290.31 879.944,-296.281 881.757,-289.519"/>
</g>
<!-- \\PermissionComponent -->
<g id="node21" class="node"><title>\\PermissionComponent</title>
<polygon fill="none" stroke="black" points="1165,-844 1021,-844 1021,-808 1165,-808 1165,-844"/>
<text text-anchor="middle" x="1093" y="-823.1" font-family="Courier,monospace" font-size="11.00">PermissionComponent</text>
</g>
<!-- \\PermissionComponent&#45;&gt;\\Component -->
<g id="edge41" class="edge"><title>\\PermissionComponent&#45;&gt;\\Component</title>
<path fill="none" stroke="black" d="M1020.47,-818.469C1008.94,-814.277 998.146,-808.083 990,-799 844.8,-637.094 1065.73,-474.605 918,-315 908.083,-304.286 894.859,-297.398 880.853,-293.049"/>
<polygon fill="none" stroke="black" points="881.628,-289.634 871.063,-290.429 879.818,-296.396 881.628,-289.634"/>
</g>
<!-- \\NetCommonsComponent -->
<g id="node22" class="node"><title>\\NetCommonsComponent</title>
<polygon fill="none" stroke="black" points="1165,-1060 1021,-1060 1021,-1024 1165,-1024 1165,-1060"/>
<text text-anchor="middle" x="1093" y="-1039.1" font-family="Courier,monospace" font-size="11.00">NetCommonsComponent</text>
</g>
<!-- \\NetCommonsComponent&#45;&gt;\\Component -->
<g id="edge43" class="edge"><title>\\NetCommonsComponent&#45;&gt;\\Component</title>
<path fill="none" stroke="black" d="M1020.39,-1034.86C1008.79,-1030.64 997.999,-1024.34 990,-1015 786.502,-777.507 1125.2,-549.266 918,-315 908.271,-304.001 895.062,-296.994 880.998,-292.62"/>
<polygon fill="none" stroke="black" points="881.72,-289.191 871.156,-289.996 879.917,-295.955 881.72,-289.191"/>
</g>
<!-- \\SiteCloseController -->
<g id="node23" class="node"><title>\\SiteCloseController</title>
<polygon fill="none" stroke="black" points="1165,-1330 1021,-1330 1021,-1294 1165,-1294 1165,-1330"/>
<text text-anchor="middle" x="1093" y="-1309.1" font-family="Courier,monospace" font-size="11.00">SiteCloseController</text>
</g>
<!-- \\SiteCloseController&#45;&gt;\\NetCommonsAppController -->
<g id="edge45" class="edge"><title>\\SiteCloseController&#45;&gt;\\NetCommonsAppController</title>
<path fill="none" stroke="black" d="M1020.2,-1298.58C982.697,-1291.67 936.487,-1283.15 896.097,-1275.71"/>
<polygon fill="none" stroke="black" points="896.702,-1272.26 886.233,-1273.89 895.433,-1279.15 896.702,-1272.26"/>
</g>
<!-- \\NetCommonsController -->
<g id="node24" class="node"><title>\\NetCommonsController</title>
<polygon fill="none" stroke="black" points="1169,-1276 1017,-1276 1017,-1240 1169,-1240 1169,-1276"/>
<text text-anchor="middle" x="1093" y="-1255.1" font-family="Courier,monospace" font-size="11.00">NetCommonsController</text>
</g>
<!-- \\NetCommonsController&#45;&gt;\\NetCommonsAppController -->
<g id="edge47" class="edge"><title>\\NetCommonsController&#45;&gt;\\NetCommonsAppController</title>
<path fill="none" stroke="black" d="M1016.78,-1258C980.049,-1258 935.59,-1258 896.519,-1258"/>
<polygon fill="none" stroke="black" points="896.183,-1254.5 886.183,-1258 896.183,-1261.5 896.183,-1254.5"/>
</g>
<!-- \\NetCommonsUrl -->
<g id="node25" class="node"><title>\\NetCommonsUrl</title>
<polygon fill="none" stroke="black" points="1145,-2140 1041,-2140 1041,-2104 1145,-2104 1145,-2140"/>
<text text-anchor="middle" x="1093" y="-2119.1" font-family="Courier,monospace" font-size="11.00">NetCommonsUrl</text>
</g>
<!-- \\NetCommonsTime -->
<g id="node26" class="node"><title>\\NetCommonsTime</title>
<polygon fill="none" stroke="black" points="1148,-2086 1038,-2086 1038,-2050 1148,-2050 1148,-2086"/>
<text text-anchor="middle" x="1093" y="-2065.1" font-family="Courier,monospace" font-size="11.00">NetCommonsTime</text>
</g>
<!-- \\CurrentBase -->
<g id="node27" class="node"><title>\\CurrentBase</title>
<polygon fill="none" stroke="black" points="845,-2464 755,-2464 755,-2428 845,-2428 845,-2464"/>
<text text-anchor="middle" x="800" y="-2443.1" font-family="Courier,monospace" font-size="11.00">CurrentBase</text>
</g>
<!-- \\Current -->
<g id="node28" class="node"><title>\\Current</title>
<polygon fill="none" stroke="black" points="1125,-2464 1061,-2464 1061,-2428 1125,-2428 1125,-2464"/>
<text text-anchor="middle" x="1093" y="-2443.1" font-family="Courier,monospace" font-size="11.00">Current</text>
</g>
<!-- \\Current&#45;&gt;\\CurrentBase -->
<g id="edge49" class="edge"><title>\\Current&#45;&gt;\\CurrentBase</title>
<path fill="none" stroke="black" d="M1060.81,-2446C1011.48,-2446 916.554,-2446 855.846,-2446"/>
<polygon fill="none" stroke="black" points="855.669,-2442.5 845.669,-2446 855.669,-2449.5 855.669,-2442.5"/>
</g>
<!-- \\CurrentSystem -->
<g id="node29" class="node"><title>\\CurrentSystem</title>
<polygon fill="none" stroke="black" points="1145,-1978 1041,-1978 1041,-1942 1145,-1942 1145,-1978"/>
<text text-anchor="middle" x="1093" y="-1957.1" font-family="Courier,monospace" font-size="11.00">CurrentSystem</text>
</g>
<!-- \\CurrentPage -->
<g id="node30" class="node"><title>\\CurrentPage</title>
<polygon fill="none" stroke="black" points="1138,-1924 1048,-1924 1048,-1888 1138,-1888 1138,-1924"/>
<text text-anchor="middle" x="1093" y="-1903.1" font-family="Courier,monospace" font-size="11.00">CurrentPage</text>
</g>
<!-- \\CurrentFrame -->
<g id="node31" class="node"><title>\\CurrentFrame</title>
<polygon fill="none" stroke="black" points="1142,-1870 1044,-1870 1044,-1834 1142,-1834 1142,-1870"/>
<text text-anchor="middle" x="1093" y="-1849.1" font-family="Courier,monospace" font-size="11.00">CurrentFrame</text>
</g>
<!-- \\TokenHelper -->
<g id="node32" class="node"><title>\\TokenHelper</title>
<polygon fill="none" stroke="black" points="1138,-736 1048,-736 1048,-700 1138,-700 1138,-736"/>
<text text-anchor="middle" x="1093" y="-715.1" font-family="Courier,monospace" font-size="11.00">TokenHelper</text>
</g>
<!-- \\FormHelper -->
<g id="node94" class="node"><title>\\FormHelper</title>
<ellipse fill="none" stroke="black" cx="800" cy="-234" rx="70.9184" ry="18.3848"/>
<text text-anchor="middle" x="800" y="-230.4" font-family="Times Roman,serif" font-size="14.00" fill="gray">\FormHelper</text>
</g>
<!-- \\TokenHelper&#45;&gt;\\FormHelper -->
<g id="edge51" class="edge"><title>\\TokenHelper&#45;&gt;\\FormHelper</title>
<path fill="none" stroke="black" d="M1047.25,-716.813C1026.97,-713.861 1004.46,-706.833 990,-691 859.318,-547.927 1050.91,-402.002 918,-261 907.986,-250.377 894.718,-243.531 880.698,-239.194"/>
<polygon fill="none" stroke="black" points="881.468,-235.777 870.904,-236.577 879.661,-242.54 881.468,-235.777"/>
</g>
<!-- \\SingletonViewBlockHtmlHelper -->
<g id="node33" class="node"><title>\\SingletonViewBlockHtmlHelper</title>
<polygon fill="none" stroke="black" points="1196,-628 990,-628 990,-592 1196,-592 1196,-628"/>
<text text-anchor="middle" x="1093" y="-607.1" font-family="Courier,monospace" font-size="11.00">SingletonViewBlockHtmlHelper</text>
</g>
<!-- \\HtmlHelper -->
<g id="node96" class="node"><title>\\HtmlHelper</title>
<ellipse fill="none" stroke="black" cx="800" cy="-180" rx="67.1751" ry="18.3848"/>
<text text-anchor="middle" x="800" y="-176.4" font-family="Times Roman,serif" font-size="14.00" fill="gray">HtmlHelper</text>
</g>
<!-- \\SingletonViewBlockHtmlHelper&#45;&gt;\\HtmlHelper -->
<g id="edge53" class="edge"><title>\\SingletonViewBlockHtmlHelper&#45;&gt;\\HtmlHelper</title>
<path fill="none" stroke="black" d="M1000.46,-591.968C996.678,-589.35 993.156,-586.376 990,-583 873.795,-458.716 1036.14,-329.443 918,-207 906.987,-195.587 892.213,-188.556 876.851,-184.316"/>
<polygon fill="none" stroke="black" points="877.243,-180.812 866.706,-181.915 875.631,-187.624 877.243,-180.812"/>
</g>
<!-- \\FormInputHelper -->
<g id="node34" class="node"><title>\\FormInputHelper</title>
<polygon fill="none" stroke="black" points="1152,-2356 1034,-2356 1034,-2320 1152,-2320 1152,-2356"/>
<text text-anchor="middle" x="1093" y="-2335.1" font-family="Courier,monospace" font-size="11.00">FormInputHelper</text>
</g>
<!-- \\FormInputHelper&#45;&gt;\\AppHelper -->
<g id="edge55" class="edge"><title>\\FormInputHelper&#45;&gt;\\AppHelper</title>
<path fill="none" stroke="black" d="M1033.76,-2332.8C1017.95,-2328.85 1001.95,-2322.17 990,-2311 907.245,-2233.61 827.482,-1875.99 805.771,-1772.27"/>
<polygon fill="none" stroke="black" points="809.147,-1771.31 803.686,-1762.23 802.293,-1772.74 809.147,-1771.31"/>
</g>
<!-- \\WizardHelper -->
<g id="node35" class="node"><title>\\WizardHelper</title>
<polygon fill="none" stroke="black" points="1142,-2302 1044,-2302 1044,-2266 1142,-2266 1142,-2302"/>
<text text-anchor="middle" x="1093" y="-2281.1" font-family="Courier,monospace" font-size="11.00">WizardHelper</text>
</g>
<!-- \\WizardHelper&#45;&gt;\\AppHelper -->
<g id="edge57" class="edge"><title>\\WizardHelper&#45;&gt;\\AppHelper</title>
<path fill="none" stroke="black" d="M1043.84,-2280.71C1025.06,-2277.18 1004.66,-2270.28 990,-2257 840.846,-2121.84 808.432,-1858.87 801.693,-1772.35"/>
<polygon fill="none" stroke="black" points="805.174,-1771.96 800.962,-1762.24 798.192,-1772.47 805.174,-1771.96"/>
</g>
<!-- \\DisplayNumberHelper -->
<g id="node36" class="node"><title>\\DisplayNumberHelper</title>
<polygon fill="none" stroke="black" points="1165,-2248 1021,-2248 1021,-2212 1165,-2212 1165,-2248"/>
<text text-anchor="middle" x="1093" y="-2227.1" font-family="Courier,monospace" font-size="11.00">DisplayNumberHelper</text>
</g>
<!-- \\DisplayNumberHelper&#45;&gt;\\AppHelper -->
<g id="edge59" class="edge"><title>\\DisplayNumberHelper&#45;&gt;\\AppHelper</title>
<path fill="none" stroke="black" d="M1020.34,-2220.06C1009.3,-2216.09 998.706,-2210.6 990,-2203 854.066,-2084.41 813.424,-1853.2 803.102,-1772.56"/>
<polygon fill="none" stroke="black" points="806.525,-1771.71 801.84,-1762.21 799.576,-1772.56 806.525,-1771.71"/>
</g>
<!-- \\MessageFlashHelper -->
<g id="node37" class="node"><title>\\MessageFlashHelper</title>
<polygon fill="none" stroke="black" points="1162,-2194 1024,-2194 1024,-2158 1162,-2158 1162,-2194"/>
<text text-anchor="middle" x="1093" y="-2173.1" font-family="Courier,monospace" font-size="11.00">MessageFlashHelper</text>
</g>
<!-- \\MessageFlashHelper&#45;&gt;\\AppHelper -->
<g id="edge61" class="edge"><title>\\MessageFlashHelper&#45;&gt;\\AppHelper</title>
<path fill="none" stroke="black" d="M1023.84,-2166.8C1011.63,-2162.8 999.732,-2157.1 990,-2149 866.832,-2046.46 818.776,-1846.09 804.769,-1772.22"/>
<polygon fill="none" stroke="black" points="808.19,-1771.47 802.945,-1762.27 801.305,-1772.73 808.19,-1771.47"/>
</g>
<!-- \\DateHelper -->
<g id="node38" class="node"><title>\\DateHelper</title>
<polygon fill="none" stroke="black" points="1135,-2032 1051,-2032 1051,-1996 1135,-1996 1135,-2032"/>
<text text-anchor="middle" x="1093" y="-2011.1" font-family="Courier,monospace" font-size="11.00">DateHelper</text>
</g>
<!-- \\DateHelper&#45;&gt;\\AppHelper -->
<g id="edge63" class="edge"><title>\\DateHelper&#45;&gt;\\AppHelper</title>
<path fill="none" stroke="black" d="M1050.86,-2009.28C1031.14,-2005.55 1008.07,-1998.89 990,-1987 904.042,-1930.46 840.094,-1821.93 813.531,-1771.28"/>
<polygon fill="none" stroke="black" points="816.562,-1769.52 808.865,-1762.24 810.341,-1772.73 816.562,-1769.52"/>
</g>
<!-- \\SnsButtonHelper -->
<g id="node39" class="node"><title>\\SnsButtonHelper</title>
<polygon fill="none" stroke="black" points="1152,-1816 1034,-1816 1034,-1780 1152,-1780 1152,-1816"/>
<text text-anchor="middle" x="1093" y="-1795.1" font-family="Courier,monospace" font-size="11.00">SnsButtonHelper</text>
</g>
<!-- \\SnsButtonHelper&#45;&gt;\\AppHelper -->
<g id="edge65" class="edge"><title>\\SnsButtonHelper&#45;&gt;\\AppHelper</title>
<path fill="none" stroke="black" d="M1033.71,-1787.07C979.266,-1777.04 899.563,-1762.35 848.738,-1752.98"/>
<polygon fill="none" stroke="black" points="849.131,-1749.5 838.663,-1751.13 847.863,-1756.38 849.131,-1749.5"/>
</g>
<!-- \\BackToHelper -->
<g id="node40" class="node"><title>\\BackToHelper</title>
<polygon fill="none" stroke="black" points="1142,-1762 1044,-1762 1044,-1726 1142,-1726 1142,-1762"/>
<text text-anchor="middle" x="1093" y="-1741.1" font-family="Courier,monospace" font-size="11.00">BackToHelper</text>
</g>
<!-- \\BackToHelper&#45;&gt;\\AppHelper -->
<g id="edge67" class="edge"><title>\\BackToHelper&#45;&gt;\\AppHelper</title>
<path fill="none" stroke="black" d="M1043.96,-1744C989.78,-1744 903.056,-1744 848.925,-1744"/>
<polygon fill="none" stroke="black" points="848.882,-1740.5 838.882,-1744 848.882,-1747.5 848.882,-1740.5"/>
</g>
<!-- \\NetCommonsHtmlHelper -->
<g id="node41" class="node"><title>\\NetCommonsHtmlHelper</title>
<polygon fill="none" stroke="black" points="1169,-1708 1017,-1708 1017,-1672 1169,-1672 1169,-1708"/>
<text text-anchor="middle" x="1093" y="-1687.1" font-family="Courier,monospace" font-size="11.00">NetCommonsHtmlHelper</text>
</g>
<!-- \\NetCommonsHtmlHelper&#45;&gt;\\AppHelper -->
<g id="edge69" class="edge"><title>\\NetCommonsHtmlHelper&#45;&gt;\\AppHelper</title>
<path fill="none" stroke="black" d="M1016.78,-1704.05C963.659,-1713.84 894.376,-1726.61 848.603,-1735.04"/>
<polygon fill="none" stroke="black" points="847.838,-1731.62 838.638,-1736.88 849.107,-1738.51 847.838,-1731.62"/>
</g>
<!-- \\ButtonHelper -->
<g id="node42" class="node"><title>\\ButtonHelper</title>
<polygon fill="none" stroke="black" points="1142,-682 1044,-682 1044,-646 1142,-646 1142,-682"/>
<text text-anchor="middle" x="1093" y="-661.1" font-family="Courier,monospace" font-size="11.00">ButtonHelper</text>
</g>
<!-- \\ButtonHelper&#45;&gt;\\FormHelper -->
<g id="edge71" class="edge"><title>\\ButtonHelper&#45;&gt;\\FormHelper</title>
<path fill="none" stroke="black" d="M1044,-662.12C1024.67,-658.863 1003.82,-651.786 990,-637 873.795,-512.716 1036.14,-383.443 918,-261 907.863,-250.494 894.538,-243.702 880.502,-239.381"/>
<polygon fill="none" stroke="black" points="881.266,-235.962 870.702,-236.77 879.464,-242.726 881.266,-235.962"/>
</g>
<!-- \\ComposerHelper -->
<g id="node43" class="node"><title>\\ComposerHelper</title>
<polygon fill="none" stroke="black" points="1148,-1654 1038,-1654 1038,-1618 1148,-1618 1148,-1654"/>
<text text-anchor="middle" x="1093" y="-1633.1" font-family="Courier,monospace" font-size="11.00">ComposerHelper</text>
</g>
<!-- \\ComposerHelper&#45;&gt;\\AppHelper -->
<g id="edge73" class="edge"><title>\\ComposerHelper&#45;&gt;\\AppHelper</title>
<path fill="none" stroke="black" d="M1037.5,-1648.96C1021.99,-1653.01 1005.22,-1657.79 990,-1663 940.27,-1680.02 885.199,-1704.1 847.206,-1721.58"/>
<polygon fill="none" stroke="black" points="845.534,-1718.5 837.929,-1725.88 848.474,-1724.85 845.534,-1718.5"/>
</g>
<!-- \\LinkButtonHelper -->
<g id="node44" class="node"><title>\\LinkButtonHelper</title>
<polygon fill="none" stroke="black" points="1155,-790 1031,-790 1031,-754 1155,-754 1155,-790"/>
<text text-anchor="middle" x="1093" y="-769.1" font-family="Courier,monospace" font-size="11.00">LinkButtonHelper</text>
</g>
<!-- \\LinkButtonHelper&#45;&gt;\\FormHelper -->
<g id="edge75" class="edge"><title>\\LinkButtonHelper&#45;&gt;\\FormHelper</title>
<path fill="none" stroke="black" d="M1030.3,-767.541C1015.2,-763.523 1000.43,-756.629 990,-745 844.8,-583.094 1065.73,-420.605 918,-261 908.083,-250.286 894.859,-243.398 880.853,-239.049"/>
<polygon fill="none" stroke="black" points="881.628,-235.634 871.063,-236.429 879.818,-242.396 881.628,-235.634"/>
</g>
<!-- \\TableListHelper -->
<g id="node45" class="node"><title>\\TableListHelper</title>
<polygon fill="none" stroke="black" points="1152,-1600 1034,-1600 1034,-1564 1152,-1564 1152,-1600"/>
<text text-anchor="middle" x="1093" y="-1579.1" font-family="Courier,monospace" font-size="11.00">TableListHelper</text>
</g>
<!-- \\TableListHelper&#45;&gt;\\AppHelper -->
<g id="edge77" class="edge"><title>\\TableListHelper&#45;&gt;\\AppHelper</title>
<path fill="none" stroke="black" d="M1033.97,-1593.57C1019.24,-1597.51 1003.73,-1602.58 990,-1609 927.211,-1638.33 863.394,-1688.84 828.029,-1719.06"/>
<polygon fill="none" stroke="black" points="825.369,-1716.74 820.087,-1725.92 829.944,-1722.03 825.369,-1716.74"/>
</g>
<!-- \\NetCommonsTimeHelper -->
<g id="node46" class="node"><title>\\NetCommonsTimeHelper</title>
<polygon fill="none" stroke="black" points="1169,-1546 1017,-1546 1017,-1510 1169,-1510 1169,-1546"/>
<text text-anchor="middle" x="1093" y="-1525.1" font-family="Courier,monospace" font-size="11.00">NetCommonsTimeHelper</text>
</g>
<!-- \\NetCommonsTimeHelper&#45;&gt;\\AppHelper -->
<g id="edge79" class="edge"><title>\\NetCommonsTimeHelper&#45;&gt;\\AppHelper</title>
<path fill="none" stroke="black" d="M1016.92,-1543.02C1007.55,-1546.28 998.344,-1550.23 990,-1555 915.721,-1597.49 850.104,-1676.48 819.041,-1717.59"/>
<polygon fill="none" stroke="black" points="816.119,-1715.65 812.946,-1725.76 821.73,-1719.84 816.119,-1715.65"/>
</g>
<!-- \\NetCommonsFormHelper -->
<g id="node47" class="node"><title>\\NetCommonsFormHelper</title>
<polygon fill="none" stroke="black" points="1169,-1492 1017,-1492 1017,-1456 1169,-1456 1169,-1492"/>
<text text-anchor="middle" x="1093" y="-1471.1" font-family="Courier,monospace" font-size="11.00">NetCommonsFormHelper</text>
</g>
<!-- \\NetCommonsFormHelper&#45;&gt;\\AppHelper -->
<g id="edge81" class="edge"><title>\\NetCommonsFormHelper&#45;&gt;\\AppHelper</title>
<path fill="none" stroke="black" d="M1016.86,-1487.85C1007.4,-1491.3 998.186,-1495.62 990,-1501 904.042,-1557.54 840.094,-1666.07 813.531,-1716.72"/>
<polygon fill="none" stroke="black" points="810.341,-1715.27 808.865,-1725.76 816.562,-1718.48 810.341,-1715.27"/>
</g>
<!-- \\TitleIconHelper -->
<g id="node48" class="node"><title>\\TitleIconHelper</title>
<polygon fill="none" stroke="black" points="1152,-1438 1034,-1438 1034,-1402 1152,-1402 1152,-1438"/>
<text text-anchor="middle" x="1093" y="-1417.1" font-family="Courier,monospace" font-size="11.00">TitleIconHelper</text>
</g>
<!-- \\TitleIconHelper&#45;&gt;\\AppHelper -->
<g id="edge83" class="edge"><title>\\TitleIconHelper&#45;&gt;\\AppHelper</title>
<path fill="none" stroke="black" d="M1033.8,-1427.6C1018.51,-1431.6 1002.78,-1437.7 990,-1447 939.522,-1483.73 848.866,-1650.47 814.1,-1716.73"/>
<polygon fill="none" stroke="black" points="810.916,-1715.27 809.388,-1725.75 817.121,-1718.51 810.916,-1715.27"/>
</g>
<!-- \\DatetimePickerHelper -->
<g id="node49" class="node"><title>\\DatetimePickerHelper</title>
<polygon fill="none" stroke="black" points="1169,-2410 1017,-2410 1017,-2374 1169,-2374 1169,-2410"/>
<text text-anchor="middle" x="1093" y="-2389.1" font-family="Courier,monospace" font-size="11.00">DatetimePickerHelper</text>
</g>
<!-- \\DatetimePickerHelper&#45;&gt;\\AppHelper -->
<g id="edge85" class="edge"><title>\\DatetimePickerHelper&#45;&gt;\\AppHelper</title>
<path fill="none" stroke="black" d="M1016.82,-2381.65C1006.92,-2377.69 997.6,-2372.3 990,-2365 900.476,-2279.03 824.404,-1881.61 804.863,-1772.04"/>
<polygon fill="none" stroke="black" points="808.289,-1771.31 803.101,-1762.07 801.396,-1772.53 808.289,-1771.31"/>
</g>
<!-- \\Model -->
<g id="node114" class="node"><title>\\Model</title>
<ellipse fill="none" stroke="black" cx="44" cy="-2797" rx="43.8406" ry="18.3848"/>
<text text-anchor="middle" x="44" y="-2793.4" font-family="Times Roman,serif" font-size="14.00" fill="gray">\Model</text>
</g>
<!-- \\NetCommonsAppModel&#45;&gt;\\Model -->
<g id="edge87" class="edge"><title>\\NetCommonsAppModel&#45;&gt;\\Model</title>
<path fill="none" stroke="black" d="M172.749,-2797C148.379,-2797 121.357,-2797 98.3871,-2797"/>
<polygon fill="none" stroke="black" points="98.1425,-2793.5 88.1425,-2797 98.1424,-2800.5 98.1425,-2793.5"/>
</g>
<!-- \\OriginalKeyBehavior -->
<g id="node51" class="node"><title>\\OriginalKeyBehavior</title>
<polygon fill="none" stroke="black" points="1165,-574 1021,-574 1021,-538 1165,-538 1165,-574"/>
<text text-anchor="middle" x="1093" y="-553.1" font-family="Courier,monospace" font-size="11.00">OriginalKeyBehavior</text>
</g>
<!-- \\ModelBehavior -->
<g id="node116" class="node"><title>\\ModelBehavior</title>
<ellipse fill="none" stroke="black" cx="800" cy="-126" rx="86.9741" ry="18.3848"/>
<text text-anchor="middle" x="800" y="-122.4" font-family="Times Roman,serif" font-size="14.00" fill="gray">\ModelBehavior</text>
</g>
<!-- \\OriginalKeyBehavior&#45;&gt;\\ModelBehavior -->
<g id="edge89" class="edge"><title>\\OriginalKeyBehavior&#45;&gt;\\ModelBehavior</title>
<path fill="none" stroke="black" d="M1020.25,-547.995C1008.89,-543.838 998.206,-537.777 990,-529 873.795,-404.716 1036.14,-275.443 918,-153 910.646,-145.379 901.615,-139.712 891.852,-135.525"/>
<polygon fill="none" stroke="black" points="892.89,-132.176 882.298,-131.949 890.436,-138.732 892.89,-132.176"/>
</g>
<!-- \\TrackableBehavior -->
<g id="node52" class="node"><title>\\TrackableBehavior</title>
<polygon fill="none" stroke="black" points="1158,-520 1028,-520 1028,-484 1158,-484 1158,-520"/>
<text text-anchor="middle" x="1093" y="-499.1" font-family="Courier,monospace" font-size="11.00">TrackableBehavior</text>
</g>
<!-- \\TrackableBehavior&#45;&gt;\\ModelBehavior -->
<g id="edge91" class="edge"><title>\\TrackableBehavior&#45;&gt;\\ModelBehavior</title>
<path fill="none" stroke="black" d="M1027.38,-496.047C1013.48,-491.941 1000.01,-485.38 990,-475 888.21,-369.437 1021.44,-256.95 918,-153 910.53,-145.493 901.428,-139.895 891.627,-135.745"/>
<polygon fill="none" stroke="black" points="892.638,-132.388 882.045,-132.196 890.207,-138.952 892.638,-132.388"/>
</g>
<!-- \\YAExceptionRenderer -->
<g id="node53" class="node"><title>\\YAExceptionRenderer</title>
<polygon fill="none" stroke="black" points="1165,-466 1021,-466 1021,-430 1165,-430 1165,-466"/>
<text text-anchor="middle" x="1093" y="-445.1" font-family="Courier,monospace" font-size="11.00">YAExceptionRenderer</text>
</g>
<!-- \\ExceptionRenderer -->
<g id="node119" class="node"><title>\\ExceptionRenderer</title>
<ellipse fill="none" stroke="black" cx="800" cy="-72" rx="118.087" ry="18.3848"/>
<text text-anchor="middle" x="800" y="-68.4" font-family="Times Roman,serif" font-size="14.00" fill="gray">TEHxceptionRenderer</text>
</g>
<!-- \\YAExceptionRenderer&#45;&gt;\\ExceptionRenderer -->
<g id="edge93" class="edge"><title>\\YAExceptionRenderer&#45;&gt;\\ExceptionRenderer</title>
<path fill="none" stroke="black" d="M1020.48,-439.783C1009.09,-435.648 998.341,-429.65 990,-421 888.21,-315.437 1021.44,-202.95 918,-99 913.632,-94.61 908.706,-90.873 903.408,-87.6967"/>
<polygon fill="none" stroke="black" points="904.657,-84.4002 894.174,-82.8643 901.411,-90.6022 904.657,-84.4002"/>
</g>
<!-- \\NetCommonsMigration -->
<g id="node54" class="node"><title>\\NetCommonsMigration</title>
<polygon fill="none" stroke="black" points="872,-1168 728,-1168 728,-1132 872,-1132 872,-1168"/>
<text text-anchor="middle" x="800" y="-1147.1" font-family="Courier,monospace" font-size="11.00">NetCommonsMigration</text>
</g>
<!-- \\CakeMigration -->
<g id="node121" class="node"><title>\\CakeMigration</title>
<ellipse fill="none" stroke="black" cx="503" cy="-196" rx="84.8528" ry="18.3848"/>
<text text-anchor="middle" x="503" y="-192.4" font-family="Times Roman,serif" font-size="14.00" fill="gray">\CakeMigration</text>
</g>
<!-- \\NetCommonsMigration&#45;&gt;\\CakeMigration -->
<g id="edge95" class="edge"><title>\\NetCommonsMigration&#45;&gt;\\CakeMigration</title>
<path fill="none" stroke="black" d="M727.334,-1151.11C710.247,-1147.77 693.645,-1140.93 682,-1128 547.73,-978.911 736.163,-384.01 610,-228 603.44,-219.888 594.911,-213.773 585.53,-209.172"/>
<polygon fill="none" stroke="black" points="586.882,-205.944 576.312,-205.211 584.118,-212.375 586.882,-205.944"/>
</g>
<!-- \\AnnouncementsController -->
<g id="node55" class="node"><title>\\AnnouncementsController</title>
<polygon fill="none" stroke="black" points="1179,-2518 1007,-2518 1007,-2482 1179,-2482 1179,-2518"/>
<text text-anchor="middle" x="1093" y="-2497.1" font-family="Courier,monospace" font-size="11.00">AnnouncementsController</text>
</g>
<!-- \\AnnouncementsAppController -->
<g id="node57" class="node"><title>\\AnnouncementsAppController</title>
<polygon fill="none" stroke="black" points="896,-2518 704,-2518 704,-2482 896,-2482 896,-2518"/>
<text text-anchor="middle" x="800" y="-2497.1" font-family="Courier,monospace" font-size="11.00">AnnouncementsAppController</text>
</g>
<!-- \\AnnouncementsController&#45;&gt;\\AnnouncementsAppController -->
<g id="edge97" class="edge"><title>\\AnnouncementsController&#45;&gt;\\AnnouncementsAppController</title>
<path fill="none" stroke="black" d="M1006.68,-2500C975.238,-2500 939.326,-2500 906.354,-2500"/>
<polygon fill="none" stroke="black" points="906.224,-2496.5 896.224,-2500 906.224,-2503.5 906.224,-2496.5"/>
</g>
<!-- \\AnnouncementBlocksController -->
<g id="node56" class="node"><title>\\AnnouncementBlocksController</title>
<polygon fill="none" stroke="black" points="1196,-2572 990,-2572 990,-2536 1196,-2536 1196,-2572"/>
<text text-anchor="middle" x="1093" y="-2551.1" font-family="Courier,monospace" font-size="11.00">AnnouncementBlocksController</text>
</g>
<!-- \\AnnouncementBlocksController&#45;&gt;\\AnnouncementsAppController -->
<g id="edge99" class="edge"><title>\\AnnouncementBlocksController&#45;&gt;\\AnnouncementsAppController</title>
<path fill="none" stroke="black" d="M995.028,-2535.94C966.604,-2530.71 935.433,-2524.96 906.513,-2519.63"/>
<polygon fill="none" stroke="black" points="906.854,-2516.13 896.385,-2517.76 905.585,-2523.02 906.854,-2516.13"/>
</g>
<!-- \\AnnouncementsAppController&#45;&gt;\\AppController -->
<g id="edge101" class="edge"><title>\\AnnouncementsAppController&#45;&gt;\\AppController</title>
<path fill="none" stroke="black" d="M703.79,-2488.64C695.682,-2484.67 688.221,-2479.55 682,-2473 540.042,-2323.45 508.922,-1625.53 503.848,-1476.18"/>
<polygon fill="none" stroke="black" points="507.341,-1475.89 503.515,-1466.01 500.345,-1476.12 507.341,-1475.89"/>
</g>
<!-- \\Announcement -->
<g id="node58" class="node"><title>\\Announcement</title>
<polygon fill="none" stroke="black" points="1142,-2842 1044,-2842 1044,-2806 1142,-2806 1142,-2842"/>
<text text-anchor="middle" x="1093" y="-2821.1" font-family="Courier,monospace" font-size="11.00">Announcement</text>
</g>
<!-- \\AnnouncementsAppModel -->
<g id="node59" class="node"><title>\\AnnouncementsAppModel</title>
<polygon fill="none" stroke="black" points="879,-2842 721,-2842 721,-2806 879,-2806 879,-2842"/>
<text text-anchor="middle" x="800" y="-2821.1" font-family="Courier,monospace" font-size="11.00">AnnouncementsAppModel</text>
</g>
<!-- \\Announcement&#45;&gt;\\AnnouncementsAppModel -->
<g id="edge103" class="edge"><title>\\Announcement&#45;&gt;\\AnnouncementsAppModel</title>
<path fill="none" stroke="black" d="M1043.96,-2824C1001.81,-2824 939.951,-2824 889.075,-2824"/>
<polygon fill="none" stroke="black" points="889.055,-2820.5 879.055,-2824 889.055,-2827.5 889.055,-2820.5"/>
</g>
<!-- \\AnnouncementsAppModel&#45;&gt;\\AppModel -->
<g id="edge105" class="edge"><title>\\AnnouncementsAppModel&#45;&gt;\\AppModel</title>
<path fill="none" stroke="black" d="M720.8,-2816.8C665.959,-2811.81 594.863,-2805.35 549.084,-2801.19"/>
<polygon fill="none" stroke="black" points="549.143,-2797.68 538.867,-2800.26 548.509,-2804.65 549.143,-2797.68"/>
</g>
<!-- \\AnnouncementsSchema -->
<g id="node60" class="node"><title>\\AnnouncementsSchema</title>
<polygon fill="none" stroke="black" points="1165,-412 1021,-412 1021,-376 1165,-376 1165,-412"/>
<text text-anchor="middle" x="1093" y="-391.1" font-family="Courier,monospace" font-size="11.00">AnnouncementsSchema</text>
</g>
<!-- \\CakeSchema -->
<g id="node128" class="node"><title>\\CakeSchema</title>
<ellipse fill="none" stroke="black" cx="800" cy="-18" rx="77.0746" ry="18.3848"/>
<text text-anchor="middle" x="800" y="-14.4" font-family="Times Roman,serif" font-size="14.00" fill="gray">\CakeSchema</text>
</g>
<!-- \\AnnouncementsSchema&#45;&gt;\\CakeSchema -->
<g id="edge107" class="edge"><title>\\AnnouncementsSchema&#45;&gt;\\CakeSchema</title>
<path fill="none" stroke="black" d="M1089.54,-375.725C1077.51,-317.407 1031.83,-134.35 918,-45 907.593,-36.8314 895.169,-31.0476 882.349,-26.9696"/>
<polygon fill="none" stroke="black" points="883.07,-23.5363 872.495,-24.1724 881.159,-30.2702 883.07,-23.5363"/>
</g>
<!-- \\Init -->
<g id="node61" class="node"><title>\\Init</title>
<polygon fill="none" stroke="black" points="1120,-1222 1066,-1222 1066,-1186 1120,-1186 1120,-1222"/>
<text text-anchor="middle" x="1093" y="-1201.1" font-family="Courier,monospace" font-size="11.00">Init</text>
</g>
<!-- \\Init&#45;&gt;\\NetCommonsMigration -->
<g id="edge109" class="edge"><title>\\Init&#45;&gt;\\NetCommonsMigration</title>
<path fill="none" stroke="black" d="M1065.96,-1199.02C1024.69,-1191.41 944.3,-1176.59 882.656,-1165.23"/>
<polygon fill="none" stroke="black" points="883.013,-1161.74 872.545,-1163.37 881.745,-1168.62 883.013,-1161.74"/>
</g>
<!-- \\PluginRecords -->
<g id="node62" class="node"><title>\\PluginRecords</title>
<polygon fill="none" stroke="black" points="1145,-1168 1041,-1168 1041,-1132 1145,-1132 1145,-1168"/>
<text text-anchor="middle" x="1093" y="-1147.1" font-family="Courier,monospace" font-size="11.00">PluginRecords</text>
</g>
<!-- \\PluginRecords&#45;&gt;\\NetCommonsMigration -->
<g id="edge111" class="edge"><title>\\PluginRecords&#45;&gt;\\NetCommonsMigration</title>
<path fill="none" stroke="black" d="M1040.96,-1150C997.186,-1150 933.807,-1150 883.035,-1150"/>
<polygon fill="none" stroke="black" points="882.731,-1146.5 872.731,-1150 882.731,-1153.5 882.731,-1146.5"/>
</g>
</g>
</svg>
