<?xml version="1.0" encoding="UTF-8" standalone="no"?>
<!DOCTYPE svg PUBLIC "-//W3C//DTD SVG 1.1//EN"
 "http://www.w3.org/Graphics/SVG/1.1/DTD/svg11.dtd">
<!-- Generated by graphviz version 2.26.3 (20100126.1600)
 -->
<!-- Title: G Pages: 1 -->
<svg width="1220pt" height="2780pt"
 viewBox="0.00 0.00 1220.00 2780.00" xmlns="http://www.w3.org/2000/svg" xmlns:xlink="http://www.w3.org/1999/xlink">
<g id="graph1" class="graph" transform="scale(1 1) rotate(0) translate(4 2776)">
<title>G</title>
<polygon fill="white" stroke="white" points="-4,5 -4,-2776 1217,-2776 1217,5 -4,5"/>
<g id="graph2" class="cluster"><title>cluster_Global</title>
<polyline fill="none" stroke="gray" points="177,-368 1192,-368 "/>
<path fill="none" stroke="gray" d="M1192,-368C1198,-368 1204,-374 1204,-380"/>
<polyline fill="none" stroke="gray" points="1204,-380 1204,-2752 "/>
<path fill="none" stroke="gray" d="M1204,-2752C1204,-2758 1198,-2764 1192,-2764"/>
<polyline fill="none" stroke="gray" points="1192,-2764 177,-2764 "/>
<path fill="none" stroke="gray" d="M177,-2764C171,-2764 165,-2758 165,-2752"/>
<polyline fill="none" stroke="gray" points="165,-2752 165,-380 "/>
<path fill="none" stroke="gray" d="M165,-380C165,-374 171,-368 177,-368"/>
<text text-anchor="middle" x="684.5" y="-2750.1" font-family="Times Roman,serif" font-size="11.00" fill="gray">Global</text>
</g>
<!-- \\AppController -->
<g id="node2" class="node"><title>\\AppController</title>
<polygon fill="none" stroke="black" points="555,-1412 451,-1412 451,-1376 555,-1376 555,-1412"/>
<text text-anchor="middle" x="503" y="-1391.1" font-family="Courier,monospace" font-size="11.00">AppController</text>
</g>
<!-- \\Controller -->
<g id="node62" class="node"><title>\\Controller</title>
<ellipse fill="none" stroke="black" cx="242" cy="-265" rx="63.1385" ry="18.3848"/>
<text text-anchor="middle" x="242" y="-261.4" font-family="Times Roman,serif" font-size="14.00" fill="gray">\Controller</text>
</g>
<!-- \\AppController&#45;&gt;\\Controller -->
<g id="edge3" class="edge"><title>\\AppController&#45;&gt;\\Controller</title>
<path fill="none" stroke="black" d="M450.851,-1395.94C430.82,-1393.81 409.537,-1387.5 396,-1372 241.111,-1194.69 446.178,-516.249 324,-315 316.056,-301.914 303.262,-291.783 290.12,-284.171"/>
<polygon fill="none" stroke="black" points="291.489,-280.934 281.021,-279.298 288.184,-287.105 291.489,-280.934"/>
</g>
<!-- \\AppModel -->
<g id="node3" class="node"><title>\\AppModel</title>
<polygon fill="none" stroke="black" points="538,-2707 468,-2707 468,-2671 538,-2671 538,-2707"/>
<text text-anchor="middle" x="503" y="-2686.1" font-family="Courier,monospace" font-size="11.00">AppModel</text>
</g>
<!-- \\NetCommonsAppModel -->
<g id="node48" class="node"><title>\\NetCommonsAppModel</title>
<polygon fill="none" stroke="black" points="311,-2707 173,-2707 173,-2671 311,-2671 311,-2707"/>
<text text-anchor="middle" x="242" y="-2686.1" font-family="Courier,monospace" font-size="11.00">NetCommonsAppModel</text>
</g>
<!-- \\AppModel&#45;&gt;\\NetCommonsAppModel -->
<g id="edge5" class="edge"><title>\\AppModel&#45;&gt;\\NetCommonsAppModel</title>
<path fill="none" stroke="black" d="M467.256,-2689C429.848,-2689 369.903,-2689 321.254,-2689"/>
<polygon fill="none" stroke="black" points="321.056,-2685.5 311.056,-2689 321.056,-2692.5 321.056,-2685.5"/>
</g>
<!-- \\DatabaseConfiguration -->
<g id="node4" class="node"><title>\\DatabaseConfiguration</title>
<polygon fill="none" stroke="black" points="879,-2680 721,-2680 721,-2644 879,-2644 879,-2680"/>
<text text-anchor="middle" x="800" y="-2659.1" font-family="Courier,monospace" font-size="11.00">DatabaseConfiguration</text>
</g>
<!-- \\DatabaseConfiguration&#45;&gt;\\AppModel -->
<g id="edge7" class="edge"><title>\\DatabaseConfiguration&#45;&gt;\\AppModel</title>
<path fill="none" stroke="black" d="M720.8,-2669.2C665.959,-2674.19 594.863,-2680.65 549.084,-2684.81"/>
<polygon fill="none" stroke="black" points="548.509,-2681.35 538.867,-2685.74 549.143,-2688.32 548.509,-2681.35"/>
</g>
<!-- \\AppHelper -->
<g id="node5" class="node"><title>\\AppHelper</title>
<polygon fill="none" stroke="black" points="838,-1654 762,-1654 762,-1618 838,-1618 838,-1654"/>
<text text-anchor="middle" x="800" y="-1633.1" font-family="Courier,monospace" font-size="11.00">AppHelper</text>
</g>
<!-- \\Helper -->
<g id="node66" class="node"><title>\\Helper</title>
<ellipse fill="none" stroke="black" cx="503" cy="-342" rx="43.8406" ry="18.3848"/>
<text text-anchor="middle" x="503" y="-338.4" font-family="Times Roman,serif" font-size="14.00" fill="gray">Helper</text>
</g>
<!-- \\AppHelper&#45;&gt;\\Helper -->
<g id="edge9" class="edge"><title>\\AppHelper&#45;&gt;\\Helper</title>
<path fill="none" stroke="black" d="M792.086,-1617.8C770.212,-1566.57 708.783,-1416.34 682,-1285 661.49,-1184.42 677.915,-440.965 610,-364 596.75,-348.984 576.226,-342.613 556.683,-340.309"/>
<polygon fill="none" stroke="black" points="556.857,-336.812 546.596,-339.451 556.264,-343.786 556.857,-336.812"/>
</g>
<!-- \\NetCommonsDeleteTest -->
<g id="node6" class="node"><title>\\NetCommonsDeleteTest</title>
<polygon fill="none" stroke="black" points="1169,-2518 1017,-2518 1017,-2482 1169,-2482 1169,-2518"/>
<text text-anchor="middle" x="1093" y="-2497.1" font-family="Courier,monospace" font-size="11.00">NetCommonsDeleteTest</text>
</g>
<!-- \\NetCommonsModelTestCase -->
<g id="node15" class="node"><title>\\NetCommonsModelTestCase</title>
<polygon fill="none" stroke="black" points="886,-2518 714,-2518 714,-2482 886,-2482 886,-2518"/>
<text text-anchor="middle" x="800" y="-2497.1" font-family="Courier,monospace" font-size="11.00">NetCommonsModelTestCase</text>
</g>
<!-- \\NetCommonsDeleteTest&#45;&gt;\\NetCommonsModelTestCase -->
<g id="edge11" class="edge"><title>\\NetCommonsDeleteTest&#45;&gt;\\NetCommonsModelTestCase</title>
<path fill="none" stroke="black" d="M1016.78,-2500C980.049,-2500 935.59,-2500 896.519,-2500"/>
<polygon fill="none" stroke="black" points="896.183,-2496.5 886.183,-2500 896.183,-2503.5 896.183,-2496.5"/>
</g>
<!-- \\NetCommonsConsoleTestCase -->
<g id="node7" class="node"><title>\\NetCommonsConsoleTestCase</title>
<polygon fill="none" stroke="black" points="892,-2626 708,-2626 708,-2590 892,-2590 892,-2626"/>
<text text-anchor="middle" x="800" y="-2605.1" font-family="Courier,monospace" font-size="11.00">NetCommonsConsoleTestCase</text>
</g>
<!-- \\NetCommonsCakeTestCase -->
<g id="node13" class="node"><title>\\NetCommonsCakeTestCase</title>
<polygon fill="none" stroke="black" points="585,-2545 421,-2545 421,-2509 585,-2509 585,-2545"/>
<text text-anchor="middle" x="503" y="-2524.1" font-family="Courier,monospace" font-size="11.00">NetCommonsCakeTestCase</text>
</g>
<!-- \\NetCommonsConsoleTestCase&#45;&gt;\\NetCommonsCakeTestCase -->
<g id="edge13" class="edge"><title>\\NetCommonsConsoleTestCase&#45;&gt;\\NetCommonsCakeTestCase</title>
<path fill="none" stroke="black" d="M717.936,-2589.98C705.852,-2587.11 693.579,-2584.07 682,-2581 644.303,-2571.01 602.565,-2558.51 568.882,-2548.05"/>
<polygon fill="none" stroke="black" points="569.742,-2544.65 559.154,-2545.01 567.658,-2551.33 569.742,-2544.65"/>
</g>
<!-- \\NetCommonsGetTest -->
<g id="node8" class="node"><title>\\NetCommonsGetTest</title>
<polygon fill="none" stroke="black" points="1158,-2680 1028,-2680 1028,-2644 1158,-2644 1158,-2680"/>
<text text-anchor="middle" x="1093" y="-2659.1" font-family="Courier,monospace" font-size="11.00">NetCommonsGetTest</text>
</g>
<!-- \\NetCommonsGetTest&#45;&gt;\\NetCommonsModelTestCase -->
<g id="edge15" class="edge"><title>\\NetCommonsGetTest&#45;&gt;\\NetCommonsModelTestCase</title>
<path fill="none" stroke="black" d="M1027.46,-2652.43C1014.26,-2648.48 1001.06,-2642.89 990,-2635 943.034,-2601.5 965.486,-2559.76 918,-2527 911.099,-2522.24 903.484,-2518.31 895.545,-2515.06"/>
<polygon fill="none" stroke="black" points="896.692,-2511.75 886.099,-2511.56 894.256,-2518.32 896.692,-2511.75"/>
</g>
<!-- \\NetCommonsHelperTestCase -->
<g id="node9" class="node"><title>\\NetCommonsHelperTestCase</title>
<polygon fill="none" stroke="black" points="889,-2572 711,-2572 711,-2536 889,-2536 889,-2572"/>
<text text-anchor="middle" x="800" y="-2551.1" font-family="Courier,monospace" font-size="11.00">NetCommonsHelperTestCase</text>
</g>
<!-- \\NetCommonsHelperTestCase&#45;&gt;\\NetCommonsCakeTestCase -->
<g id="edge17" class="edge"><title>\\NetCommonsHelperTestCase&#45;&gt;\\NetCommonsCakeTestCase</title>
<path fill="none" stroke="black" d="M710.487,-2545.86C674.267,-2542.57 632.456,-2538.77 595.9,-2535.45"/>
<polygon fill="none" stroke="black" points="596.013,-2531.94 585.737,-2534.52 595.379,-2538.91 596.013,-2531.94"/>
</g>
<!-- \\NetCommonsControllerBaseTestCase -->
<g id="node10" class="node"><title>\\NetCommonsControllerBaseTestCase</title>
<polygon fill="none" stroke="black" points="916,-1276 684,-1276 684,-1240 916,-1240 916,-1276"/>
<text text-anchor="middle" x="800" y="-1255.1" font-family="Courier,monospace" font-size="11.00">NetCommonsControllerBaseTestCase</text>
</g>
<!-- \\ControllerTestCase -->
<g id="node72" class="node"><title>\\ControllerTestCase</title>
<ellipse fill="none" stroke="black" cx="503" cy="-288" rx="106.773" ry="18.3848"/>
<text text-anchor="middle" x="503" y="-284.4" font-family="Times Roman,serif" font-size="14.00" fill="gray">\ControllerTestCase</text>
</g>
<!-- \\NetCommonsControllerBaseTestCase&#45;&gt;\\ControllerTestCase -->
<g id="edge19" class="edge"><title>\\NetCommonsControllerBaseTestCase&#45;&gt;\\ControllerTestCase</title>
<path fill="none" stroke="black" d="M729.251,-1239.87C711.075,-1231.82 693.442,-1220.33 682,-1204 568.259,-1041.68 738.021,-466.31 610,-315 606.365,-310.704 602.155,-307.038 597.551,-303.914"/>
<polygon fill="none" stroke="black" points="599.277,-300.869 588.875,-298.859 595.753,-306.917 599.277,-300.869"/>
</g>
<!-- \\NetCommonsValidateTest -->
<g id="node11" class="node"><title>\\NetCommonsValidateTest</title>
<polygon fill="none" stroke="black" points="1175,-2626 1011,-2626 1011,-2590 1175,-2590 1175,-2626"/>
<text text-anchor="middle" x="1093" y="-2605.1" font-family="Courier,monospace" font-size="11.00">NetCommonsValidateTest</text>
</g>
<!-- \\NetCommonsValidateTest&#45;&gt;\\NetCommonsModelTestCase -->
<g id="edge21" class="edge"><title>\\NetCommonsValidateTest&#45;&gt;\\NetCommonsModelTestCase</title>
<path fill="none" stroke="black" d="M1011.79,-2589.93C1004.28,-2587.3 996.908,-2584.34 990,-2581 953.981,-2563.6 954.288,-2543.83 918,-2527 910.962,-2523.74 903.501,-2520.85 895.884,-2518.31"/>
<polygon fill="none" stroke="black" points="896.762,-2514.91 886.173,-2515.26 894.666,-2521.59 896.762,-2514.91"/>
</g>
<!-- \\NetCommonsTestSuite -->
<g id="node12" class="node"><title>\\NetCommonsTestSuite</title>
<polygon fill="none" stroke="black" points="1165,-1060 1021,-1060 1021,-1024 1165,-1024 1165,-1060"/>
<text text-anchor="middle" x="1093" y="-1039.1" font-family="Courier,monospace" font-size="11.00">NetCommonsTestSuite</text>
</g>
<!-- \\CakeTestSuite -->
<g id="node75" class="node"><title>\\CakeTestSuite</title>
<ellipse fill="none" stroke="black" cx="800" cy="-342" rx="84.1457" ry="18.3848"/>
<text text-anchor="middle" x="800" y="-338.4" font-family="Times Roman,serif" font-size="14.00" fill="gray">\CakeTestSuite</text>
</g>
<!-- \\NetCommonsTestSuite&#45;&gt;\\CakeTestSuite -->
<g id="edge23" class="edge"><title>\\NetCommonsTestSuite&#45;&gt;\\CakeTestSuite</title>
<path fill="none" stroke="black" d="M1020.45,-1034.81C1008.85,-1030.6 998.034,-1024.3 990,-1015 799.748,-794.678 1116.06,-577.328 918,-364 911.088,-356.555 902.529,-351.148 893.202,-347.272"/>
<polygon fill="none" stroke="black" points="894.245,-343.929 883.65,-343.888 891.907,-350.527 894.245,-343.929"/>
</g>
<!-- \\CakeTestCase -->
<g id="node77" class="node"><title>\\CakeTestCase</title>
<ellipse fill="none" stroke="black" cx="242" cy="-342" rx="82.0244" ry="18.3848"/>
<text text-anchor="middle" x="242" y="-338.4" font-family="Times Roman,serif" font-size="14.00" fill="gray">\CakeTestCase</text>
</g>
<!-- \\NetCommonsCakeTestCase&#45;&gt;\\CakeTestCase -->
<g id="edge25" class="edge"><title>\\NetCommonsCakeTestCase&#45;&gt;\\CakeTestCase</title>
<path fill="none" stroke="black" d="M501.041,-2508.78C489.772,-2403.57 432.443,-1863.19 396,-1421 386.331,-1303.68 398.781,-454.912 324,-364 322.279,-361.908 320.383,-360.004 318.346,-358.27"/>
<polygon fill="none" stroke="black" points="320.073,-355.208 309.858,-352.395 316.089,-360.964 320.073,-355.208"/>
</g>
<!-- \\NetCommonsSaveTest -->
<g id="node14" class="node"><title>\\NetCommonsSaveTest</title>
<polygon fill="none" stroke="black" points="1162,-2572 1024,-2572 1024,-2536 1162,-2536 1162,-2572"/>
<text text-anchor="middle" x="1093" y="-2551.1" font-family="Courier,monospace" font-size="11.00">NetCommonsSaveTest</text>
</g>
<!-- \\NetCommonsSaveTest&#45;&gt;\\NetCommonsModelTestCase -->
<g id="edge27" class="edge"><title>\\NetCommonsSaveTest&#45;&gt;\\NetCommonsModelTestCase</title>
<path fill="none" stroke="black" d="M1023.93,-2541.27C985.795,-2534.24 937.829,-2525.4 896.084,-2517.71"/>
<polygon fill="none" stroke="black" points="896.641,-2514.25 886.172,-2515.88 895.372,-2521.14 896.641,-2514.25"/>
</g>
<!-- \\NetCommonsModelTestCase&#45;&gt;\\NetCommonsCakeTestCase -->
<g id="edge29" class="edge"><title>\\NetCommonsModelTestCase&#45;&gt;\\NetCommonsCakeTestCase</title>
<path fill="none" stroke="black" d="M713.696,-2507.85C676.671,-2511.21 633.35,-2515.15 595.65,-2518.58"/>
<polygon fill="none" stroke="black" points="595.328,-2515.09 585.686,-2519.48 595.962,-2522.06 595.328,-2515.09"/>
</g>
<!-- \\NetCommonsControllerTestCase -->
<g id="node16" class="node"><title>\\NetCommonsControllerTestCase</title>
<polygon fill="none" stroke="black" points="1196,-1276 990,-1276 990,-1240 1196,-1240 1196,-1276"/>
<text text-anchor="middle" x="1093" y="-1255.1" font-family="Courier,monospace" font-size="11.00">NetCommonsControllerTestCase</text>
</g>
<!-- \\NetCommonsControllerTestCase&#45;&gt;\\NetCommonsControllerBaseTestCase -->
<g id="edge31" class="edge"><title>\\NetCommonsControllerTestCase&#45;&gt;\\NetCommonsControllerBaseTestCase</title>
<path fill="none" stroke="black" d="M989.699,-1258C969.381,-1258 947.845,-1258 926.858,-1258"/>
<polygon fill="none" stroke="black" points="926.606,-1254.5 916.606,-1258 926.606,-1261.5 926.606,-1254.5"/>
</g>
<!-- \\NetCommonsAppController -->
<g id="node17" class="node"><title>\\NetCommonsAppController</title>
<polygon fill="none" stroke="black" points="886,-1195 714,-1195 714,-1159 886,-1159 886,-1195"/>
<text text-anchor="middle" x="800" y="-1174.1" font-family="Courier,monospace" font-size="11.00">NetCommonsAppController</text>
</g>
<!-- \\NetCommonsAppController&#45;&gt;\\Controller -->
<g id="edge33" class="edge"><title>\\NetCommonsAppController&#45;&gt;\\Controller</title>
<path fill="none" stroke="black" d="M729.586,-1158.99C711.302,-1150.93 693.527,-1139.41 682,-1123 571.492,-965.718 751.466,-391.142 610,-261 567.354,-221.767 400.386,-240.14 306.686,-254.182"/>
<polygon fill="none" stroke="black" points="306.104,-250.73 296.745,-255.696 307.158,-257.65 306.104,-250.73"/>
</g>
<!-- \\AssetComponent -->
<g id="node18" class="node"><title>\\AssetComponent</title>
<polygon fill="none" stroke="black" points="1148,-1006 1038,-1006 1038,-970 1148,-970 1148,-1006"/>
<text text-anchor="middle" x="1093" y="-985.1" font-family="Courier,monospace" font-size="11.00">AssetComponent</text>
</g>
<!-- \\Component -->
<g id="node83" class="node"><title>\\Component</title>
<ellipse fill="none" stroke="black" cx="800" cy="-288" rx="70.9184" ry="18.3848"/>
<text text-anchor="middle" x="800" y="-284.4" font-family="Times Roman,serif" font-size="14.00" fill="gray">\Component</text>
</g>
<!-- \\AssetComponent&#45;&gt;\\Component -->
<g id="edge35" class="edge"><title>\\AssetComponent&#45;&gt;\\Component</title>
<path fill="none" stroke="black" d="M1037.26,-985.504C1019.72,-981.876 1001.85,-974.707 990,-961 801.099,-742.429 1110.31,-530.576 918,-315 908.225,-304.042 894.994,-297.054 880.924,-292.686"/>
<polygon fill="none" stroke="black" points="881.644,-289.256 871.08,-290.064 879.842,-296.02 881.644,-289.256"/>
</g>
<!-- \\NetCommonsTimeComponent -->
<g id="node19" class="node"><title>\\NetCommonsTimeComponent</title>
<polygon fill="none" stroke="black" points="1179,-952 1007,-952 1007,-916 1179,-916 1179,-952"/>
<text text-anchor="middle" x="1093" y="-931.1" font-family="Courier,monospace" font-size="11.00">NetCommonsTimeComponent</text>
</g>
<!-- \\NetCommonsTimeComponent&#45;&gt;\\Component -->
<g id="edge37" class="edge"><title>\\NetCommonsTimeComponent&#45;&gt;\\Component</title>
<path fill="none" stroke="black" d="M1006.66,-920.396C1000.43,-916.834 994.742,-912.431 990,-907 815.683,-707.337 1095.43,-511.899 918,-315 908.227,-304.155 895.069,-297.207 881.082,-292.841"/>
<polygon fill="none" stroke="black" points="881.864,-289.426 871.298,-290.214 880.049,-296.187 881.864,-289.426"/>
</g>
<!-- \\PermissionComponent -->
<g id="node20" class="node"><title>\\PermissionComponent</title>
<polygon fill="none" stroke="black" points="1165,-898 1021,-898 1021,-862 1165,-862 1165,-898"/>
<text text-anchor="middle" x="1093" y="-877.1" font-family="Courier,monospace" font-size="11.00">PermissionComponent</text>
</g>
<!-- \\PermissionComponent&#45;&gt;\\Component -->
<g id="edge39" class="edge"><title>\\PermissionComponent&#45;&gt;\\Component</title>
<path fill="none" stroke="black" d="M1020.36,-872.567C1008.84,-868.366 998.079,-862.143 990,-853 830.252,-672.227 1080.57,-493.24 918,-315 908.162,-304.213 894.974,-297.293 880.979,-292.934"/>
<polygon fill="none" stroke="black" points="881.757,-289.519 871.192,-290.31 879.944,-296.281 881.757,-289.519"/>
</g>
<!-- \\NetCommonsComponent -->
<g id="node21" class="node"><title>\\NetCommonsComponent</title>
<polygon fill="none" stroke="black" points="1165,-844 1021,-844 1021,-808 1165,-808 1165,-844"/>
<text text-anchor="middle" x="1093" y="-823.1" font-family="Courier,monospace" font-size="11.00">NetCommonsComponent</text>
</g>
<!-- \\NetCommonsComponent&#45;&gt;\\Component -->
<g id="edge41" class="edge"><title>\\NetCommonsComponent&#45;&gt;\\Component</title>
<path fill="none" stroke="black" d="M1020.47,-818.469C1008.94,-814.277 998.146,-808.083 990,-799 844.8,-637.094 1065.73,-474.605 918,-315 908.083,-304.286 894.859,-297.398 880.853,-293.049"/>
<polygon fill="none" stroke="black" points="881.628,-289.634 871.063,-290.429 879.818,-296.396 881.628,-289.634"/>
</g>
<!-- \\NetCommonsController -->
<g id="node22" class="node"><title>\\NetCommonsController</title>
<polygon fill="none" stroke="black" points="1169,-1222 1017,-1222 1017,-1186 1169,-1186 1169,-1222"/>
<text text-anchor="middle" x="1093" y="-1201.1" font-family="Courier,monospace" font-size="11.00">NetCommonsController</text>
</g>
<!-- \\NetCommonsController&#45;&gt;\\NetCommonsAppController -->
<g id="edge43" class="edge"><title>\\NetCommonsController&#45;&gt;\\NetCommonsAppController</title>
<path fill="none" stroke="black" d="M1016.78,-1196.98C980.049,-1193.59 935.59,-1189.49 896.519,-1185.89"/>
<polygon fill="none" stroke="black" points="896.462,-1182.37 886.183,-1184.94 895.82,-1189.34 896.462,-1182.37"/>
</g>
<!-- \\NetCommonsUrl -->
<g id="node23" class="node"><title>\\NetCommonsUrl</title>
<polygon fill="none" stroke="black" points="1145,-2140 1041,-2140 1041,-2104 1145,-2104 1145,-2140"/>
<text text-anchor="middle" x="1093" y="-2119.1" font-family="Courier,monospace" font-size="11.00">NetCommonsUrl</text>
</g>
<!-- \\NetCommonsTime -->
<g id="node24" class="node"><title>\\NetCommonsTime</title>
<polygon fill="none" stroke="black" points="1148,-2086 1038,-2086 1038,-2050 1148,-2050 1148,-2086"/>
<text text-anchor="middle" x="1093" y="-2065.1" font-family="Courier,monospace" font-size="11.00">NetCommonsTime</text>
</g>
<!-- \\CurrentBase -->
<g id="node25" class="node"><title>\\CurrentBase</title>
<polygon fill="none" stroke="black" points="845,-2356 755,-2356 755,-2320 845,-2320 845,-2356"/>
<text text-anchor="middle" x="800" y="-2335.1" font-family="Courier,monospace" font-size="11.00">CurrentBase</text>
</g>
<!-- \\Current -->
<g id="node26" class="node"><title>\\Current</title>
<polygon fill="none" stroke="black" points="1125,-2356 1061,-2356 1061,-2320 1125,-2320 1125,-2356"/>
<text text-anchor="middle" x="1093" y="-2335.1" font-family="Courier,monospace" font-size="11.00">Current</text>
</g>
<!-- \\Current&#45;&gt;\\CurrentBase -->
<g id="edge45" class="edge"><title>\\Current&#45;&gt;\\CurrentBase</title>
<path fill="none" stroke="black" d="M1060.81,-2338C1011.48,-2338 916.554,-2338 855.846,-2338"/>
<polygon fill="none" stroke="black" points="855.669,-2334.5 845.669,-2338 855.669,-2341.5 855.669,-2334.5"/>
</g>
<!-- \\CurrentSystem -->
<g id="node27" class="node"><title>\\CurrentSystem</title>
<polygon fill="none" stroke="black" points="1145,-1978 1041,-1978 1041,-1942 1145,-1942 1145,-1978"/>
<text text-anchor="middle" x="1093" y="-1957.1" font-family="Courier,monospace" font-size="11.00">CurrentSystem</text>
</g>
<!-- \\CurrentPage -->
<g id="node28" class="node"><title>\\CurrentPage</title>
<polygon fill="none" stroke="black" points="1138,-1924 1048,-1924 1048,-1888 1138,-1888 1138,-1924"/>
<text text-anchor="middle" x="1093" y="-1903.1" font-family="Courier,monospace" font-size="11.00">CurrentPage</text>
</g>
<!-- \\CurrentFrame -->
<g id="node29" class="node"><title>\\CurrentFrame</title>
<polygon fill="none" stroke="black" points="1142,-1870 1044,-1870 1044,-1834 1142,-1834 1142,-1870"/>
<text text-anchor="middle" x="1093" y="-1849.1" font-family="Courier,monospace" font-size="11.00">CurrentFrame</text>
</g>
<!-- \\TokenHelper -->
<g id="node30" class="node"><title>\\TokenHelper</title>
<polygon fill="none" stroke="black" points="1138,-682 1048,-682 1048,-646 1138,-646 1138,-682"/>
<text text-anchor="middle" x="1093" y="-661.1" font-family="Courier,monospace" font-size="11.00">TokenHelper</text>
</g>
<!-- \\FormHelper -->
<g id="node90" class="node"><title>\\FormHelper</title>
<ellipse fill="none" stroke="black" cx="800" cy="-234" rx="70.9184" ry="18.3848"/>
<text text-anchor="middle" x="800" y="-230.4" font-family="Times Roman,serif" font-size="14.00" fill="gray">\FormHelper</text>
</g>
<!-- \\TokenHelper&#45;&gt;\\FormHelper -->
<g id="edge47" class="edge"><title>\\TokenHelper&#45;&gt;\\FormHelper</title>
<path fill="none" stroke="black" d="M1047.42,-662.661C1027.17,-659.676 1004.65,-652.664 990,-637 873.795,-512.716 1036.14,-383.443 918,-261 907.863,-250.494 894.538,-243.702 880.502,-239.381"/>
<polygon fill="none" stroke="black" points="881.266,-235.962 870.702,-236.77 879.464,-242.726 881.266,-235.962"/>
</g>
<!-- \\SingletonViewBlockHtmlHelper -->
<g id="node31" class="node"><title>\\SingletonViewBlockHtmlHelper</title>
<polygon fill="none" stroke="black" points="1196,-628 990,-628 990,-592 1196,-592 1196,-628"/>
<text text-anchor="middle" x="1093" y="-607.1" font-family="Courier,monospace" font-size="11.00">SingletonViewBlockHtmlHelper</text>
</g>
<!-- \\HtmlHelper -->
<g id="node92" class="node"><title>\\HtmlHelper</title>
<ellipse fill="none" stroke="black" cx="800" cy="-180" rx="67.1751" ry="18.3848"/>
<text text-anchor="middle" x="800" y="-176.4" font-family="Times Roman,serif" font-size="14.00" fill="gray">HtmlHelper</text>
</g>
<!-- \\SingletonViewBlockHtmlHelper&#45;&gt;\\HtmlHelper -->
<g id="edge49" class="edge"><title>\\SingletonViewBlockHtmlHelper&#45;&gt;\\HtmlHelper</title>
<path fill="none" stroke="black" d="M1000.46,-591.968C996.678,-589.35 993.156,-586.376 990,-583 873.795,-458.716 1036.14,-329.443 918,-207 906.987,-195.587 892.213,-188.556 876.851,-184.316"/>
<polygon fill="none" stroke="black" points="877.243,-180.812 866.706,-181.915 875.631,-187.624 877.243,-180.812"/>
</g>
<!-- \\FormInputHelper -->
<g id="node32" class="node"><title>\\FormInputHelper</title>
<polygon fill="none" stroke="black" points="1152,-1330 1034,-1330 1034,-1294 1152,-1294 1152,-1330"/>
<text text-anchor="middle" x="1093" y="-1309.1" font-family="Courier,monospace" font-size="11.00">FormInputHelper</text>
</g>
<!-- \\FormInputHelper&#45;&gt;\\AppHelper -->
<g id="edge51" class="edge"><title>\\FormInputHelper&#45;&gt;\\AppHelper</title>
<path fill="none" stroke="black" d="M1033.8,-1319.6C1018.51,-1323.6 1002.78,-1329.7 990,-1339 939.522,-1375.73 848.866,-1542.47 814.1,-1608.73"/>
<polygon fill="none" stroke="black" points="810.916,-1607.27 809.388,-1617.75 817.121,-1610.51 810.916,-1607.27"/>
</g>
<!-- \\WizardHelper -->
<g id="node33" class="node"><title>\\WizardHelper</title>
<polygon fill="none" stroke="black" points="1142,-2302 1044,-2302 1044,-2266 1142,-2266 1142,-2302"/>
<text text-anchor="middle" x="1093" y="-2281.1" font-family="Courier,monospace" font-size="11.00">WizardHelper</text>
</g>
<!-- \\WizardHelper&#45;&gt;\\AppHelper -->
<g id="edge53" class="edge"><title>\\WizardHelper&#45;&gt;\\AppHelper</title>
<path fill="none" stroke="black" d="M1043.97,-2281.23C1024.98,-2277.79 1004.4,-2270.83 990,-2257 900.476,-2171.03 824.404,-1773.61 804.863,-1664.04"/>
<polygon fill="none" stroke="black" points="808.289,-1663.31 803.101,-1654.07 801.396,-1664.53 808.289,-1663.31"/>
</g>
<!-- \\DisplayNumberHelper -->
<g id="node34" class="node"><title>\\DisplayNumberHelper</title>
<polygon fill="none" stroke="black" points="1165,-2248 1021,-2248 1021,-2212 1165,-2212 1165,-2248"/>
<text text-anchor="middle" x="1093" y="-2227.1" font-family="Courier,monospace" font-size="11.00">DisplayNumberHelper</text>
</g>
<!-- \\DisplayNumberHelper&#45;&gt;\\AppHelper -->
<g id="edge55" class="edge"><title>\\DisplayNumberHelper&#45;&gt;\\AppHelper</title>
<path fill="none" stroke="black" d="M1020.41,-2220.76C1009.23,-2216.72 998.574,-2211.02 990,-2203 907.245,-2125.61 827.482,-1767.99 805.771,-1664.27"/>
<polygon fill="none" stroke="black" points="809.147,-1663.31 803.686,-1654.23 802.293,-1664.74 809.147,-1663.31"/>
</g>
<!-- \\MessageFlashHelper -->
<g id="node35" class="node"><title>\\MessageFlashHelper</title>
<polygon fill="none" stroke="black" points="1162,-2194 1024,-2194 1024,-2158 1162,-2158 1162,-2194"/>
<text text-anchor="middle" x="1093" y="-2173.1" font-family="Courier,monospace" font-size="11.00">MessageFlashHelper</text>
</g>
<!-- \\MessageFlashHelper&#45;&gt;\\AppHelper -->
<g id="edge57" class="edge"><title>\\MessageFlashHelper&#45;&gt;\\AppHelper</title>
<path fill="none" stroke="black" d="M1023.81,-2167.63C1011.46,-2163.56 999.52,-2157.63 990,-2149 840.846,-2013.84 808.432,-1750.87 801.693,-1664.35"/>
<polygon fill="none" stroke="black" points="805.174,-1663.96 800.962,-1654.24 798.192,-1664.47 805.174,-1663.96"/>
</g>
<!-- \\DateHelper -->
<g id="node36" class="node"><title>\\DateHelper</title>
<polygon fill="none" stroke="black" points="1135,-2032 1051,-2032 1051,-1996 1135,-1996 1135,-2032"/>
<text text-anchor="middle" x="1093" y="-2011.1" font-family="Courier,monospace" font-size="11.00">DateHelper</text>
</g>
<!-- \\DateHelper&#45;&gt;\\AppHelper -->
<g id="edge59" class="edge"><title>\\DateHelper&#45;&gt;\\AppHelper</title>
<path fill="none" stroke="black" d="M1050.94,-2010.75C1030.78,-2007.37 1007.3,-2000.58 990,-1987 879.54,-1900.29 824.898,-1730.9 806.922,-1664.07"/>
<polygon fill="none" stroke="black" points="810.271,-1663.04 804.349,-1654.26 803.499,-1664.82 810.271,-1663.04"/>
</g>
<!-- \\SnsButtonHelper -->
<g id="node37" class="node"><title>\\SnsButtonHelper</title>
<polygon fill="none" stroke="black" points="1152,-1816 1034,-1816 1034,-1780 1152,-1780 1152,-1816"/>
<text text-anchor="middle" x="1093" y="-1795.1" font-family="Courier,monospace" font-size="11.00">SnsButtonHelper</text>
</g>
<!-- \\SnsButtonHelper&#45;&gt;\\AppHelper -->
<g id="edge61" class="edge"><title>\\SnsButtonHelper&#45;&gt;\\AppHelper</title>
<path fill="none" stroke="black" d="M1033.97,-1786.43C1019.24,-1782.49 1003.73,-1777.42 990,-1771 927.211,-1741.67 863.394,-1691.16 828.029,-1660.94"/>
<polygon fill="none" stroke="black" points="829.944,-1657.97 820.087,-1654.08 825.369,-1663.26 829.944,-1657.97"/>
</g>
<!-- \\BackToHelper -->
<g id="node38" class="node"><title>\\BackToHelper</title>
<polygon fill="none" stroke="black" points="1142,-1762 1044,-1762 1044,-1726 1142,-1726 1142,-1762"/>
<text text-anchor="middle" x="1093" y="-1741.1" font-family="Courier,monospace" font-size="11.00">BackToHelper</text>
</g>
<!-- \\BackToHelper&#45;&gt;\\AppHelper -->
<g id="edge63" class="edge"><title>\\BackToHelper&#45;&gt;\\AppHelper</title>
<path fill="none" stroke="black" d="M1043.84,-1732.68C1026.64,-1728.31 1007.32,-1722.92 990,-1717 940.27,-1699.98 885.199,-1675.9 847.206,-1658.42"/>
<polygon fill="none" stroke="black" points="848.474,-1655.15 837.929,-1654.12 845.534,-1661.5 848.474,-1655.15"/>
</g>
<!-- \\NetCommonsHtmlHelper -->
<g id="node39" class="node"><title>\\NetCommonsHtmlHelper</title>
<polygon fill="none" stroke="black" points="1169,-1708 1017,-1708 1017,-1672 1169,-1672 1169,-1708"/>
<text text-anchor="middle" x="1093" y="-1687.1" font-family="Courier,monospace" font-size="11.00">NetCommonsHtmlHelper</text>
</g>
<!-- \\NetCommonsHtmlHelper&#45;&gt;\\AppHelper -->
<g id="edge65" class="edge"><title>\\NetCommonsHtmlHelper&#45;&gt;\\AppHelper</title>
<path fill="none" stroke="black" d="M1016.78,-1675.95C963.659,-1666.16 894.376,-1653.39 848.603,-1644.96"/>
<polygon fill="none" stroke="black" points="849.107,-1641.49 838.638,-1643.12 847.838,-1648.38 849.107,-1641.49"/>
</g>
<!-- \\ButtonHelper -->
<g id="node40" class="node"><title>\\ButtonHelper</title>
<polygon fill="none" stroke="black" points="1142,-790 1044,-790 1044,-754 1142,-754 1142,-790"/>
<text text-anchor="middle" x="1093" y="-769.1" font-family="Courier,monospace" font-size="11.00">ButtonHelper</text>
</g>
<!-- \\ButtonHelper&#45;&gt;\\FormHelper -->
<g id="edge67" class="edge"><title>\\ButtonHelper&#45;&gt;\\FormHelper</title>
<path fill="none" stroke="black" d="M1043.96,-770.443C1024.5,-767.253 1003.58,-760.139 990,-745 844.8,-583.094 1065.73,-420.605 918,-261 908.083,-250.286 894.859,-243.398 880.853,-239.049"/>
<polygon fill="none" stroke="black" points="881.628,-235.634 871.063,-236.429 879.818,-242.396 881.628,-235.634"/>
</g>
<!-- \\ComposerHelper -->
<g id="node41" class="node"><title>\\ComposerHelper</title>
<polygon fill="none" stroke="black" points="1148,-1654 1038,-1654 1038,-1618 1148,-1618 1148,-1654"/>
<text text-anchor="middle" x="1093" y="-1633.1" font-family="Courier,monospace" font-size="11.00">ComposerHelper</text>
</g>
<!-- \\ComposerHelper&#45;&gt;\\AppHelper -->
<g id="edge69" class="edge"><title>\\ComposerHelper&#45;&gt;\\AppHelper</title>
<path fill="none" stroke="black" d="M1037.2,-1636C982.832,-1636 900.989,-1636 849.05,-1636"/>
<polygon fill="none" stroke="black" points="848.759,-1632.5 838.759,-1636 848.759,-1639.5 848.759,-1632.5"/>
</g>
<!-- \\LinkButtonHelper -->
<g id="node42" class="node"><title>\\LinkButtonHelper</title>
<polygon fill="none" stroke="black" points="1155,-736 1031,-736 1031,-700 1155,-700 1155,-736"/>
<text text-anchor="middle" x="1093" y="-715.1" font-family="Courier,monospace" font-size="11.00">LinkButtonHelper</text>
</g>
<!-- \\LinkButtonHelper&#45;&gt;\\FormHelper -->
<g id="edge71" class="edge"><title>\\LinkButtonHelper&#45;&gt;\\FormHelper</title>
<path fill="none" stroke="black" d="M1030.44,-713.412C1015.34,-709.395 1000.53,-702.534 990,-691 859.318,-547.927 1050.91,-402.002 918,-261 907.986,-250.377 894.718,-243.531 880.698,-239.194"/>
<polygon fill="none" stroke="black" points="881.468,-235.777 870.904,-236.577 879.661,-242.54 881.468,-235.777"/>
</g>
<!-- \\TableListHelper -->
<g id="node43" class="node"><title>\\TableListHelper</title>
<polygon fill="none" stroke="black" points="1152,-1600 1034,-1600 1034,-1564 1152,-1564 1152,-1600"/>
<text text-anchor="middle" x="1093" y="-1579.1" font-family="Courier,monospace" font-size="11.00">TableListHelper</text>
</g>
<!-- \\TableListHelper&#45;&gt;\\AppHelper -->
<g id="edge73" class="edge"><title>\\TableListHelper&#45;&gt;\\AppHelper</title>
<path fill="none" stroke="black" d="M1033.71,-1592.93C979.266,-1602.96 899.563,-1617.65 848.738,-1627.02"/>
<polygon fill="none" stroke="black" points="847.863,-1623.62 838.663,-1628.87 849.131,-1630.5 847.863,-1623.62"/>
</g>
<!-- \\NetCommonsTimeHelper -->
<g id="node44" class="node"><title>\\NetCommonsTimeHelper</title>
<polygon fill="none" stroke="black" points="1169,-1546 1017,-1546 1017,-1510 1169,-1510 1169,-1546"/>
<text text-anchor="middle" x="1093" y="-1525.1" font-family="Courier,monospace" font-size="11.00">NetCommonsTimeHelper</text>
</g>
<!-- \\NetCommonsTimeHelper&#45;&gt;\\AppHelper -->
<g id="edge75" class="edge"><title>\\NetCommonsTimeHelper&#45;&gt;\\AppHelper</title>
<path fill="none" stroke="black" d="M1018.9,-1546.02C1009.12,-1548.81 999.27,-1551.83 990,-1555 940.27,-1572.02 885.199,-1596.1 847.206,-1613.58"/>
<polygon fill="none" stroke="black" points="845.534,-1610.5 837.929,-1617.88 848.474,-1616.85 845.534,-1610.5"/>
</g>
<!-- \\NetCommonsFormHelper -->
<g id="node45" class="node"><title>\\NetCommonsFormHelper</title>
<polygon fill="none" stroke="black" points="1169,-1492 1017,-1492 1017,-1456 1169,-1456 1169,-1492"/>
<text text-anchor="middle" x="1093" y="-1471.1" font-family="Courier,monospace" font-size="11.00">NetCommonsFormHelper</text>
</g>
<!-- \\NetCommonsFormHelper&#45;&gt;\\AppHelper -->
<g id="edge77" class="edge"><title>\\NetCommonsFormHelper&#45;&gt;\\AppHelper</title>
<path fill="none" stroke="black" d="M1016.79,-1490.62C1007.59,-1493.61 998.458,-1497.05 990,-1501 927.211,-1530.33 863.394,-1580.84 828.029,-1611.06"/>
<polygon fill="none" stroke="black" points="825.369,-1608.74 820.087,-1617.92 829.944,-1614.03 825.369,-1608.74"/>
</g>
<!-- \\TitleIconHelper -->
<g id="node46" class="node"><title>\\TitleIconHelper</title>
<polygon fill="none" stroke="black" points="1152,-1438 1034,-1438 1034,-1402 1152,-1402 1152,-1438"/>
<text text-anchor="middle" x="1093" y="-1417.1" font-family="Courier,monospace" font-size="11.00">TitleIconHelper</text>
</g>
<!-- \\TitleIconHelper&#45;&gt;\\AppHelper -->
<g id="edge79" class="edge"><title>\\TitleIconHelper&#45;&gt;\\AppHelper</title>
<path fill="none" stroke="black" d="M1033.98,-1429.82C1019.02,-1433.8 1003.4,-1439.34 990,-1447 915.721,-1489.49 850.104,-1568.48 819.041,-1609.59"/>
<polygon fill="none" stroke="black" points="816.119,-1607.65 812.946,-1617.76 821.73,-1611.84 816.119,-1607.65"/>
</g>
<!-- \\DatetimePickerHelper -->
<g id="node47" class="node"><title>\\DatetimePickerHelper</title>
<polygon fill="none" stroke="black" points="1169,-1384 1017,-1384 1017,-1348 1169,-1348 1169,-1384"/>
<text text-anchor="middle" x="1093" y="-1363.1" font-family="Courier,monospace" font-size="11.00">DatetimePickerHelper</text>
</g>
<!-- \\DatetimePickerHelper&#45;&gt;\\AppHelper -->
<g id="edge81" class="edge"><title>\\DatetimePickerHelper&#45;&gt;\\AppHelper</title>
<path fill="none" stroke="black" d="M1016.86,-1379.85C1007.4,-1383.3 998.186,-1387.62 990,-1393 904.042,-1449.54 840.094,-1558.07 813.531,-1608.72"/>
<polygon fill="none" stroke="black" points="810.341,-1607.27 808.865,-1617.76 816.562,-1610.48 810.341,-1607.27"/>
</g>
<!-- \\Model -->
<g id="node110" class="node"><title>\\Model</title>
<ellipse fill="none" stroke="black" cx="44" cy="-2689" rx="43.8406" ry="18.3848"/>
<text text-anchor="middle" x="44" y="-2685.4" font-family="Times Roman,serif" font-size="14.00" fill="gray">\Model</text>
</g>
<!-- \\NetCommonsAppModel&#45;&gt;\\Model -->
<g id="edge83" class="edge"><title>\\NetCommonsAppModel&#45;&gt;\\Model</title>
<path fill="none" stroke="black" d="M172.749,-2689C148.379,-2689 121.357,-2689 98.3871,-2689"/>
<polygon fill="none" stroke="black" points="98.1425,-2685.5 88.1425,-2689 98.1424,-2692.5 98.1425,-2685.5"/>
</g>
<!-- \\OriginalKeyBehavior -->
<g id="node49" class="node"><title>\\OriginalKeyBehavior</title>
<polygon fill="none" stroke="black" points="1165,-574 1021,-574 1021,-538 1165,-538 1165,-574"/>
<text text-anchor="middle" x="1093" y="-553.1" font-family="Courier,monospace" font-size="11.00">OriginalKeyBehavior</text>
</g>
<!-- \\ModelBehavior -->
<g id="node112" class="node"><title>\\ModelBehavior</title>
<ellipse fill="none" stroke="black" cx="800" cy="-126" rx="86.9741" ry="18.3848"/>
<text text-anchor="middle" x="800" y="-122.4" font-family="Times Roman,serif" font-size="14.00" fill="gray">\ModelBehavior</text>
</g>
<!-- \\OriginalKeyBehavior&#45;&gt;\\ModelBehavior -->
<g id="edge85" class="edge"><title>\\OriginalKeyBehavior&#45;&gt;\\ModelBehavior</title>
<path fill="none" stroke="black" d="M1020.25,-547.995C1008.89,-543.838 998.206,-537.777 990,-529 873.795,-404.716 1036.14,-275.443 918,-153 910.646,-145.379 901.615,-139.712 891.852,-135.525"/>
<polygon fill="none" stroke="black" points="892.89,-132.176 882.298,-131.949 890.436,-138.732 892.89,-132.176"/>
</g>
<!-- \\TrackableBehavior -->
<g id="node50" class="node"><title>\\TrackableBehavior</title>
<polygon fill="none" stroke="black" points="1158,-520 1028,-520 1028,-484 1158,-484 1158,-520"/>
<text text-anchor="middle" x="1093" y="-499.1" font-family="Courier,monospace" font-size="11.00">TrackableBehavior</text>
</g>
<!-- \\TrackableBehavior&#45;&gt;\\ModelBehavior -->
<g id="edge87" class="edge"><title>\\TrackableBehavior&#45;&gt;\\ModelBehavior</title>
<path fill="none" stroke="black" d="M1027.38,-496.047C1013.48,-491.941 1000.01,-485.38 990,-475 888.21,-369.437 1021.44,-256.95 918,-153 910.53,-145.493 901.428,-139.895 891.627,-135.745"/>
<polygon fill="none" stroke="black" points="892.638,-132.388 882.045,-132.196 890.207,-138.952 892.638,-132.388"/>
</g>
<!-- \\YAExceptionRenderer -->
<g id="node51" class="node"><title>\\YAExceptionRenderer</title>
<polygon fill="none" stroke="black" points="1165,-466 1021,-466 1021,-430 1165,-430 1165,-466"/>
<text text-anchor="middle" x="1093" y="-445.1" font-family="Courier,monospace" font-size="11.00">YAExceptionRenderer</text>
</g>
<!-- \\ExceptionRenderer -->
<g id="node115" class="node"><title>\\ExceptionRenderer</title>
<ellipse fill="none" stroke="black" cx="800" cy="-72" rx="118.087" ry="18.3848"/>
<text text-anchor="middle" x="800" y="-68.4" font-family="Times Roman,serif" font-size="14.00" fill="gray">TEHxceptionRenderer</text>
</g>
<!-- \\YAExceptionRenderer&#45;&gt;\\ExceptionRenderer -->
<g id="edge89" class="edge"><title>\\YAExceptionRenderer&#45;&gt;\\ExceptionRenderer</title>
<path fill="none" stroke="black" d="M1020.48,-439.783C1009.09,-435.648 998.341,-429.65 990,-421 888.21,-315.437 1021.44,-202.95 918,-99 913.632,-94.61 908.706,-90.873 903.408,-87.6967"/>
<polygon fill="none" stroke="black" points="904.657,-84.4002 894.174,-82.8643 901.411,-90.6022 904.657,-84.4002"/>
</g>
<!-- \\NetCommonsMigration -->
<g id="node52" class="node"><title>\\NetCommonsMigration</title>
<polygon fill="none" stroke="black" points="872,-1114 728,-1114 728,-1078 872,-1078 872,-1114"/>
<text text-anchor="middle" x="800" y="-1093.1" font-family="Courier,monospace" font-size="11.00">NetCommonsMigration</text>
</g>
<!-- \\CakeMigration -->
<g id="node117" class="node"><title>\\CakeMigration</title>
<ellipse fill="none" stroke="black" cx="503" cy="-196" rx="84.8528" ry="18.3848"/>
<text text-anchor="middle" x="503" y="-192.4" font-family="Times Roman,serif" font-size="14.00" fill="gray">\CakeMigration</text>
</g>
<!-- \\NetCommonsMigration&#45;&gt;\\CakeMigration -->
<g id="edge91" class="edge"><title>\\NetCommonsMigration&#45;&gt;\\CakeMigration</title>
<path fill="none" stroke="black" d="M727.378,-1097.07C710.291,-1093.73 693.678,-1086.9 682,-1074 555.378,-934.119 729.014,-374.409 610,-228 603.42,-219.905 594.879,-213.799 585.492,-209.204"/>
<polygon fill="none" stroke="black" points="586.84,-205.973 576.27,-205.245 584.078,-212.406 586.84,-205.973"/>
</g>
<!-- \\AnnouncementsController -->
<g id="node53" class="node"><title>\\AnnouncementsController</title>
<polygon fill="none" stroke="black" points="1179,-2410 1007,-2410 1007,-2374 1179,-2374 1179,-2410"/>
<text text-anchor="middle" x="1093" y="-2389.1" font-family="Courier,monospace" font-size="11.00">AnnouncementsController</text>
</g>
<!-- \\AnnouncementsAppController -->
<g id="node55" class="node"><title>\\AnnouncementsAppController</title>
<polygon fill="none" stroke="black" points="896,-2410 704,-2410 704,-2374 896,-2374 896,-2410"/>
<text text-anchor="middle" x="800" y="-2389.1" font-family="Courier,monospace" font-size="11.00">AnnouncementsAppController</text>
</g>
<!-- \\AnnouncementsController&#45;&gt;\\AnnouncementsAppController -->
<g id="edge93" class="edge"><title>\\AnnouncementsController&#45;&gt;\\AnnouncementsAppController</title>
<path fill="none" stroke="black" d="M1006.68,-2392C975.238,-2392 939.326,-2392 906.354,-2392"/>
<polygon fill="none" stroke="black" points="906.224,-2388.5 896.224,-2392 906.224,-2395.5 906.224,-2388.5"/>
</g>
<!-- \\AnnouncementBlocksController -->
<g id="node54" class="node"><title>\\AnnouncementBlocksController</title>
<polygon fill="none" stroke="black" points="1196,-2464 990,-2464 990,-2428 1196,-2428 1196,-2464"/>
<text text-anchor="middle" x="1093" y="-2443.1" font-family="Courier,monospace" font-size="11.00">AnnouncementBlocksController</text>
</g>
<!-- \\AnnouncementBlocksController&#45;&gt;\\AnnouncementsAppController -->
<g id="edge95" class="edge"><title>\\AnnouncementBlocksController&#45;&gt;\\AnnouncementsAppController</title>
<path fill="none" stroke="black" d="M995.028,-2427.94C966.604,-2422.71 935.433,-2416.96 906.513,-2411.63"/>
<polygon fill="none" stroke="black" points="906.854,-2408.13 896.385,-2409.76 905.585,-2415.02 906.854,-2408.13"/>
</g>
<!-- \\AnnouncementsAppController&#45;&gt;\\AppController -->
<g id="edge97" class="edge"><title>\\AnnouncementsAppController&#45;&gt;\\AppController</title>
<path fill="none" stroke="black" d="M703.854,-2380.58C695.733,-2376.62 688.252,-2371.52 682,-2365 547.197,-2224.32 510.655,-1567.81 504.16,-1422.52"/>
<polygon fill="none" stroke="black" points="507.644,-1422.06 503.713,-1412.22 500.65,-1422.36 507.644,-1422.06"/>
</g>
<!-- \\Announcement -->
<g id="node56" class="node"><title>\\Announcement</title>
<polygon fill="none" stroke="black" points="1142,-2734 1044,-2734 1044,-2698 1142,-2698 1142,-2734"/>
<text text-anchor="middle" x="1093" y="-2713.1" font-family="Courier,monospace" font-size="11.00">Announcement</text>
</g>
<!-- \\AnnouncementsAppModel -->
<g id="node57" class="node"><title>\\AnnouncementsAppModel</title>
<polygon fill="none" stroke="black" points="879,-2734 721,-2734 721,-2698 879,-2698 879,-2734"/>
<text text-anchor="middle" x="800" y="-2713.1" font-family="Courier,monospace" font-size="11.00">AnnouncementsAppModel</text>
</g>
<!-- \\Announcement&#45;&gt;\\AnnouncementsAppModel -->
<g id="edge99" class="edge"><title>\\Announcement&#45;&gt;\\AnnouncementsAppModel</title>
<path fill="none" stroke="black" d="M1043.96,-2716C1001.81,-2716 939.951,-2716 889.075,-2716"/>
<polygon fill="none" stroke="black" points="889.055,-2712.5 879.055,-2716 889.055,-2719.5 889.055,-2712.5"/>
</g>
<!-- \\AnnouncementsAppModel&#45;&gt;\\AppModel -->
<g id="edge101" class="edge"><title>\\AnnouncementsAppModel&#45;&gt;\\AppModel</title>
<path fill="none" stroke="black" d="M720.8,-2708.8C665.959,-2703.81 594.863,-2697.35 549.084,-2693.19"/>
<polygon fill="none" stroke="black" points="549.143,-2689.68 538.867,-2692.26 548.509,-2696.65 549.143,-2689.68"/>
</g>
<!-- \\AnnouncementsSchema -->
<g id="node58" class="node"><title>\\AnnouncementsSchema</title>
<polygon fill="none" stroke="black" points="1165,-412 1021,-412 1021,-376 1165,-376 1165,-412"/>
<text text-anchor="middle" x="1093" y="-391.1" font-family="Courier,monospace" font-size="11.00">AnnouncementsSchema</text>
</g>
<!-- \\CakeSchema -->
<g id="node124" class="node"><title>\\CakeSchema</title>
<ellipse fill="none" stroke="black" cx="800" cy="-18" rx="77.0746" ry="18.3848"/>
<text text-anchor="middle" x="800" y="-14.4" font-family="Times Roman,serif" font-size="14.00" fill="gray">\CakeSchema</text>
</g>
<!-- \\AnnouncementsSchema&#45;&gt;\\CakeSchema -->
<g id="edge103" class="edge"><title>\\AnnouncementsSchema&#45;&gt;\\CakeSchema</title>
<path fill="none" stroke="black" d="M1089.54,-375.725C1077.51,-317.407 1031.83,-134.35 918,-45 907.593,-36.8314 895.169,-31.0476 882.349,-26.9696"/>
<polygon fill="none" stroke="black" points="883.07,-23.5363 872.495,-24.1724 881.159,-30.2702 883.07,-23.5363"/>
</g>
<!-- \\Init -->
<g id="node59" class="node"><title>\\Init</title>
<polygon fill="none" stroke="black" points="1120,-1168 1066,-1168 1066,-1132 1120,-1132 1120,-1168"/>
<text text-anchor="middle" x="1093" y="-1147.1" font-family="Courier,monospace" font-size="11.00">Init</text>
</g>
<!-- \\Init&#45;&gt;\\NetCommonsMigration -->
<g id="edge105" class="edge"><title>\\Init&#45;&gt;\\NetCommonsMigration</title>
<path fill="none" stroke="black" d="M1065.96,-1145.02C1024.69,-1137.41 944.3,-1122.59 882.656,-1111.23"/>
<polygon fill="none" stroke="black" points="883.013,-1107.74 872.545,-1109.37 881.745,-1114.62 883.013,-1107.74"/>
</g>
<!-- \\PluginRecords -->
<g id="node60" class="node"><title>\\PluginRecords</title>
<polygon fill="none" stroke="black" points="1145,-1114 1041,-1114 1041,-1078 1145,-1078 1145,-1114"/>
<text text-anchor="middle" x="1093" y="-1093.1" font-family="Courier,monospace" font-size="11.00">PluginRecords</text>
</g>
<!-- \\PluginRecords&#45;&gt;\\NetCommonsMigration -->
<g id="edge107" class="edge"><title>\\PluginRecords&#45;&gt;\\NetCommonsMigration</title>
<path fill="none" stroke="black" d="M1040.96,-1096C997.186,-1096 933.807,-1096 883.035,-1096"/>
<polygon fill="none" stroke="black" points="882.731,-1092.5 872.731,-1096 882.731,-1099.5 882.731,-1092.5"/>
</g>
</g>
</svg>
