<?xml version="1.0" encoding="UTF-8" standalone="no"?>
<!DOCTYPE svg PUBLIC "-//W3C//DTD SVG 1.1//EN"
 "http://www.w3.org/Graphics/SVG/1.1/DTD/svg11.dtd">
<!-- Generated by graphviz version 2.26.3 (20100126.1600)
 -->
<!-- Title: G Pages: 1 -->
<svg width="1220pt" height="2726pt"
 viewBox="0.00 0.00 1220.00 2726.00" xmlns="http://www.w3.org/2000/svg" xmlns:xlink="http://www.w3.org/1999/xlink">
<g id="graph1" class="graph" transform="scale(1 1) rotate(0) translate(4 2722)">
<title>G</title>
<polygon fill="white" stroke="white" points="-4,5 -4,-2722 1217,-2722 1217,5 -4,5"/>
<g id="graph2" class="cluster"><title>cluster_Global</title>
<polyline fill="none" stroke="gray" points="177,-368 1192,-368 "/>
<path fill="none" stroke="gray" d="M1192,-368C1198,-368 1204,-374 1204,-380"/>
<polyline fill="none" stroke="gray" points="1204,-380 1204,-2698 "/>
<path fill="none" stroke="gray" d="M1204,-2698C1204,-2704 1198,-2710 1192,-2710"/>
<polyline fill="none" stroke="gray" points="1192,-2710 177,-2710 "/>
<path fill="none" stroke="gray" d="M177,-2710C171,-2710 165,-2704 165,-2698"/>
<polyline fill="none" stroke="gray" points="165,-2698 165,-380 "/>
<path fill="none" stroke="gray" d="M165,-380C165,-374 171,-368 177,-368"/>
<text text-anchor="middle" x="684.5" y="-2696.1" font-family="Times Roman,serif" font-size="11.00" fill="gray">Global</text>
</g>
<!-- \\AppController -->
<g id="node2" class="node"><title>\\AppController</title>
<polygon fill="none" stroke="black" points="555,-1385 451,-1385 451,-1349 555,-1349 555,-1385"/>
<text text-anchor="middle" x="503" y="-1364.1" font-family="Courier,monospace" font-size="11.00">AppController</text>
</g>
<!-- \\Controller -->
<g id="node61" class="node"><title>\\Controller</title>
<ellipse fill="none" stroke="black" cx="242" cy="-265" rx="63.1385" ry="18.3848"/>
<text text-anchor="middle" x="242" y="-261.4" font-family="Times Roman,serif" font-size="14.00" fill="gray">\Controller</text>
</g>
<!-- \\AppController&#45;&gt;\\Controller -->
<g id="edge3" class="edge"><title>\\AppController&#45;&gt;\\Controller</title>
<path fill="none" stroke="black" d="M450.865,-1368.93C430.836,-1366.8 409.551,-1360.48 396,-1345 244.895,-1172.33 443.246,-511.027 324,-315 316.044,-301.921 303.247,-291.792 290.106,-284.18"/>
<polygon fill="none" stroke="black" points="291.475,-280.943 281.008,-279.306 288.17,-287.113 291.475,-280.943"/>
</g>
<!-- \\AppModel -->
<g id="node3" class="node"><title>\\AppModel</title>
<polygon fill="none" stroke="black" points="538,-2653 468,-2653 468,-2617 538,-2617 538,-2653"/>
<text text-anchor="middle" x="503" y="-2632.1" font-family="Courier,monospace" font-size="11.00">AppModel</text>
</g>
<!-- \\NetCommonsAppModel -->
<g id="node47" class="node"><title>\\NetCommonsAppModel</title>
<polygon fill="none" stroke="black" points="311,-2653 173,-2653 173,-2617 311,-2617 311,-2653"/>
<text text-anchor="middle" x="242" y="-2632.1" font-family="Courier,monospace" font-size="11.00">NetCommonsAppModel</text>
</g>
<!-- \\AppModel&#45;&gt;\\NetCommonsAppModel -->
<g id="edge5" class="edge"><title>\\AppModel&#45;&gt;\\NetCommonsAppModel</title>
<path fill="none" stroke="black" d="M467.256,-2635C429.848,-2635 369.903,-2635 321.254,-2635"/>
<polygon fill="none" stroke="black" points="321.056,-2631.5 311.056,-2635 321.056,-2638.5 321.056,-2631.5"/>
</g>
<!-- \\DatabaseConfiguration -->
<g id="node4" class="node"><title>\\DatabaseConfiguration</title>
<polygon fill="none" stroke="black" points="879,-2626 721,-2626 721,-2590 879,-2590 879,-2626"/>
<text text-anchor="middle" x="800" y="-2605.1" font-family="Courier,monospace" font-size="11.00">DatabaseConfiguration</text>
</g>
<!-- \\DatabaseConfiguration&#45;&gt;\\AppModel -->
<g id="edge7" class="edge"><title>\\DatabaseConfiguration&#45;&gt;\\AppModel</title>
<path fill="none" stroke="black" d="M720.8,-2615.2C665.959,-2620.19 594.863,-2626.65 549.084,-2630.81"/>
<polygon fill="none" stroke="black" points="548.509,-2627.35 538.867,-2631.74 549.143,-2634.32 548.509,-2627.35"/>
</g>
<!-- \\AppHelper -->
<g id="node5" class="node"><title>\\AppHelper</title>
<polygon fill="none" stroke="black" points="838,-1627 762,-1627 762,-1591 838,-1591 838,-1627"/>
<text text-anchor="middle" x="800" y="-1606.1" font-family="Courier,monospace" font-size="11.00">AppHelper</text>
</g>
<!-- \\Helper -->
<g id="node65" class="node"><title>\\Helper</title>
<ellipse fill="none" stroke="black" cx="503" cy="-342" rx="43.8406" ry="18.3848"/>
<text text-anchor="middle" x="503" y="-338.4" font-family="Times Roman,serif" font-size="14.00" fill="gray">Helper</text>
</g>
<!-- \\AppHelper&#45;&gt;\\Helper -->
<g id="edge9" class="edge"><title>\\AppHelper&#45;&gt;\\Helper</title>
<path fill="none" stroke="black" d="M791.411,-1590.89C768.915,-1542.54 708.21,-1405.81 682,-1285 638.474,-1084.38 745.831,-517.93 610,-364 596.75,-348.984 576.226,-342.613 556.683,-340.309"/>
<polygon fill="none" stroke="black" points="556.857,-336.812 546.596,-339.451 556.264,-343.786 556.857,-336.812"/>
</g>
<!-- \\NetCommonsDeleteTest -->
<g id="node6" class="node"><title>\\NetCommonsDeleteTest</title>
<polygon fill="none" stroke="black" points="1169,-2518 1017,-2518 1017,-2482 1169,-2482 1169,-2518"/>
<text text-anchor="middle" x="1093" y="-2497.1" font-family="Courier,monospace" font-size="11.00">NetCommonsDeleteTest</text>
</g>
<!-- \\NetCommonsModelTestCase -->
<g id="node15" class="node"><title>\\NetCommonsModelTestCase</title>
<polygon fill="none" stroke="black" points="886,-2464 714,-2464 714,-2428 886,-2428 886,-2464"/>
<text text-anchor="middle" x="800" y="-2443.1" font-family="Courier,monospace" font-size="11.00">NetCommonsModelTestCase</text>
</g>
<!-- \\NetCommonsDeleteTest&#45;&gt;\\NetCommonsModelTestCase -->
<g id="edge11" class="edge"><title>\\NetCommonsDeleteTest&#45;&gt;\\NetCommonsModelTestCase</title>
<path fill="none" stroke="black" d="M1016.78,-2485.95C979.893,-2479.15 935.211,-2470.92 896.02,-2463.7"/>
<polygon fill="none" stroke="black" points="896.652,-2460.25 886.183,-2461.88 895.383,-2467.14 896.652,-2460.25"/>
</g>
<!-- \\NetCommonsConsoleTestCase -->
<g id="node7" class="node"><title>\\NetCommonsConsoleTestCase</title>
<polygon fill="none" stroke="black" points="892,-2572 708,-2572 708,-2536 892,-2536 892,-2572"/>
<text text-anchor="middle" x="800" y="-2551.1" font-family="Courier,monospace" font-size="11.00">NetCommonsConsoleTestCase</text>
</g>
<!-- \\NetCommonsCakeTestCase -->
<g id="node13" class="node"><title>\\NetCommonsCakeTestCase</title>
<polygon fill="none" stroke="black" points="585,-2491 421,-2491 421,-2455 585,-2455 585,-2491"/>
<text text-anchor="middle" x="503" y="-2470.1" font-family="Courier,monospace" font-size="11.00">NetCommonsCakeTestCase</text>
</g>
<!-- \\NetCommonsConsoleTestCase&#45;&gt;\\NetCommonsCakeTestCase -->
<g id="edge13" class="edge"><title>\\NetCommonsConsoleTestCase&#45;&gt;\\NetCommonsCakeTestCase</title>
<path fill="none" stroke="black" d="M717.936,-2535.98C705.852,-2533.11 693.579,-2530.07 682,-2527 644.303,-2517.01 602.565,-2504.51 568.882,-2494.05"/>
<polygon fill="none" stroke="black" points="569.742,-2490.65 559.154,-2491.01 567.658,-2497.33 569.742,-2490.65"/>
</g>
<!-- \\NetCommonsGetTest -->
<g id="node8" class="node"><title>\\NetCommonsGetTest</title>
<polygon fill="none" stroke="black" points="1158,-2464 1028,-2464 1028,-2428 1158,-2428 1158,-2464"/>
<text text-anchor="middle" x="1093" y="-2443.1" font-family="Courier,monospace" font-size="11.00">NetCommonsGetTest</text>
</g>
<!-- \\NetCommonsGetTest&#45;&gt;\\NetCommonsModelTestCase -->
<g id="edge15" class="edge"><title>\\NetCommonsGetTest&#45;&gt;\\NetCommonsModelTestCase</title>
<path fill="none" stroke="black" d="M1027.25,-2446C988.664,-2446 939.217,-2446 896.305,-2446"/>
<polygon fill="none" stroke="black" points="896.12,-2442.5 886.12,-2446 896.12,-2449.5 896.12,-2442.5"/>
</g>
<!-- \\NetCommonsHelperTestCase -->
<g id="node9" class="node"><title>\\NetCommonsHelperTestCase</title>
<polygon fill="none" stroke="black" points="889,-2518 711,-2518 711,-2482 889,-2482 889,-2518"/>
<text text-anchor="middle" x="800" y="-2497.1" font-family="Courier,monospace" font-size="11.00">NetCommonsHelperTestCase</text>
</g>
<!-- \\NetCommonsHelperTestCase&#45;&gt;\\NetCommonsCakeTestCase -->
<g id="edge17" class="edge"><title>\\NetCommonsHelperTestCase&#45;&gt;\\NetCommonsCakeTestCase</title>
<path fill="none" stroke="black" d="M710.487,-2491.86C674.267,-2488.57 632.456,-2484.77 595.9,-2481.45"/>
<polygon fill="none" stroke="black" points="596.013,-2477.94 585.737,-2480.52 595.379,-2484.91 596.013,-2477.94"/>
</g>
<!-- \\NetCommonsControllerBaseTestCase -->
<g id="node10" class="node"><title>\\NetCommonsControllerBaseTestCase</title>
<polygon fill="none" stroke="black" points="916,-1276 684,-1276 684,-1240 916,-1240 916,-1276"/>
<text text-anchor="middle" x="800" y="-1255.1" font-family="Courier,monospace" font-size="11.00">NetCommonsControllerBaseTestCase</text>
</g>
<!-- \\ControllerTestCase -->
<g id="node71" class="node"><title>\\ControllerTestCase</title>
<ellipse fill="none" stroke="black" cx="503" cy="-288" rx="106.773" ry="18.3848"/>
<text text-anchor="middle" x="503" y="-284.4" font-family="Times Roman,serif" font-size="14.00" fill="gray">\ControllerTestCase</text>
</g>
<!-- \\NetCommonsControllerBaseTestCase&#45;&gt;\\ControllerTestCase -->
<g id="edge19" class="edge"><title>\\NetCommonsControllerBaseTestCase&#45;&gt;\\ControllerTestCase</title>
<path fill="none" stroke="black" d="M729.251,-1239.87C711.075,-1231.82 693.442,-1220.33 682,-1204 568.259,-1041.68 738.021,-466.31 610,-315 606.365,-310.704 602.155,-307.038 597.551,-303.914"/>
<polygon fill="none" stroke="black" points="599.277,-300.869 588.875,-298.859 595.753,-306.917 599.277,-300.869"/>
</g>
<!-- \\NetCommonsValidateTest -->
<g id="node11" class="node"><title>\\NetCommonsValidateTest</title>
<polygon fill="none" stroke="black" points="1175,-2626 1011,-2626 1011,-2590 1175,-2590 1175,-2626"/>
<text text-anchor="middle" x="1093" y="-2605.1" font-family="Courier,monospace" font-size="11.00">NetCommonsValidateTest</text>
</g>
<!-- \\NetCommonsValidateTest&#45;&gt;\\NetCommonsModelTestCase -->
<g id="edge21" class="edge"><title>\\NetCommonsValidateTest&#45;&gt;\\NetCommonsModelTestCase</title>
<path fill="none" stroke="black" d="M1010.4,-2592.28C1003.17,-2589.18 996.246,-2585.45 990,-2581 943.034,-2547.5 965.486,-2505.76 918,-2473 911.099,-2468.24 903.484,-2464.31 895.545,-2461.06"/>
<polygon fill="none" stroke="black" points="896.692,-2457.75 886.099,-2457.56 894.256,-2464.32 896.692,-2457.75"/>
</g>
<!-- \\NetCommonsTestSuite -->
<g id="node12" class="node"><title>\\NetCommonsTestSuite</title>
<polygon fill="none" stroke="black" points="1165,-1060 1021,-1060 1021,-1024 1165,-1024 1165,-1060"/>
<text text-anchor="middle" x="1093" y="-1039.1" font-family="Courier,monospace" font-size="11.00">NetCommonsTestSuite</text>
</g>
<!-- \\CakeTestSuite -->
<g id="node74" class="node"><title>\\CakeTestSuite</title>
<ellipse fill="none" stroke="black" cx="800" cy="-342" rx="84.1457" ry="18.3848"/>
<text text-anchor="middle" x="800" y="-338.4" font-family="Times Roman,serif" font-size="14.00" fill="gray">\CakeTestSuite</text>
</g>
<!-- \\NetCommonsTestSuite&#45;&gt;\\CakeTestSuite -->
<g id="edge23" class="edge"><title>\\NetCommonsTestSuite&#45;&gt;\\CakeTestSuite</title>
<path fill="none" stroke="black" d="M1020.45,-1034.81C1008.85,-1030.6 998.034,-1024.3 990,-1015 799.748,-794.678 1116.06,-577.328 918,-364 911.088,-356.555 902.529,-351.148 893.202,-347.272"/>
<polygon fill="none" stroke="black" points="894.245,-343.929 883.65,-343.888 891.907,-350.527 894.245,-343.929"/>
</g>
<!-- \\CakeTestCase -->
<g id="node76" class="node"><title>\\CakeTestCase</title>
<ellipse fill="none" stroke="black" cx="242" cy="-342" rx="82.0244" ry="18.3848"/>
<text text-anchor="middle" x="242" y="-338.4" font-family="Times Roman,serif" font-size="14.00" fill="gray">\CakeTestCase</text>
</g>
<!-- \\NetCommonsCakeTestCase&#45;&gt;\\CakeTestCase -->
<g id="edge25" class="edge"><title>\\NetCommonsCakeTestCase&#45;&gt;\\CakeTestCase</title>
<path fill="none" stroke="black" d="M501.005,-2454.89C489.651,-2351.45 432.423,-1824.96 396,-1394 386.338,-1279.68 396.958,-452.536 324,-364 322.278,-361.91 320.38,-360.006 318.341,-358.274"/>
<polygon fill="none" stroke="black" points="320.065,-355.211 309.85,-352.402 316.084,-360.968 320.065,-355.211"/>
</g>
<!-- \\NetCommonsSaveTest -->
<g id="node14" class="node"><title>\\NetCommonsSaveTest</title>
<polygon fill="none" stroke="black" points="1162,-2572 1024,-2572 1024,-2536 1162,-2536 1162,-2572"/>
<text text-anchor="middle" x="1093" y="-2551.1" font-family="Courier,monospace" font-size="11.00">NetCommonsSaveTest</text>
</g>
<!-- \\NetCommonsSaveTest&#45;&gt;\\NetCommonsModelTestCase -->
<g id="edge27" class="edge"><title>\\NetCommonsSaveTest&#45;&gt;\\NetCommonsModelTestCase</title>
<path fill="none" stroke="black" d="M1023.8,-2539.82C1012.23,-2536.34 1000.57,-2532.11 990,-2527 953.981,-2509.6 954.288,-2489.83 918,-2473 910.962,-2469.74 903.501,-2466.85 895.884,-2464.31"/>
<polygon fill="none" stroke="black" points="896.762,-2460.91 886.173,-2461.26 894.666,-2467.59 896.762,-2460.91"/>
</g>
<!-- \\NetCommonsModelTestCase&#45;&gt;\\NetCommonsCakeTestCase -->
<g id="edge29" class="edge"><title>\\NetCommonsModelTestCase&#45;&gt;\\NetCommonsCakeTestCase</title>
<path fill="none" stroke="black" d="M713.696,-2453.85C676.671,-2457.21 633.35,-2461.15 595.65,-2464.58"/>
<polygon fill="none" stroke="black" points="595.328,-2461.09 585.686,-2465.48 595.962,-2468.06 595.328,-2461.09"/>
</g>
<!-- \\NetCommonsControllerTestCase -->
<g id="node16" class="node"><title>\\NetCommonsControllerTestCase</title>
<polygon fill="none" stroke="black" points="1196,-1276 990,-1276 990,-1240 1196,-1240 1196,-1276"/>
<text text-anchor="middle" x="1093" y="-1255.1" font-family="Courier,monospace" font-size="11.00">NetCommonsControllerTestCase</text>
</g>
<!-- \\NetCommonsControllerTestCase&#45;&gt;\\NetCommonsControllerBaseTestCase -->
<g id="edge31" class="edge"><title>\\NetCommonsControllerTestCase&#45;&gt;\\NetCommonsControllerBaseTestCase</title>
<path fill="none" stroke="black" d="M989.699,-1258C969.381,-1258 947.845,-1258 926.858,-1258"/>
<polygon fill="none" stroke="black" points="926.606,-1254.5 916.606,-1258 926.606,-1261.5 926.606,-1254.5"/>
</g>
<!-- \\NetCommonsAppController -->
<g id="node17" class="node"><title>\\NetCommonsAppController</title>
<polygon fill="none" stroke="black" points="886,-1195 714,-1195 714,-1159 886,-1159 886,-1195"/>
<text text-anchor="middle" x="800" y="-1174.1" font-family="Courier,monospace" font-size="11.00">NetCommonsAppController</text>
</g>
<!-- \\NetCommonsAppController&#45;&gt;\\Controller -->
<g id="edge33" class="edge"><title>\\NetCommonsAppController&#45;&gt;\\Controller</title>
<path fill="none" stroke="black" d="M729.586,-1158.99C711.302,-1150.93 693.527,-1139.41 682,-1123 571.492,-965.718 751.466,-391.142 610,-261 567.354,-221.767 400.386,-240.14 306.686,-254.182"/>
<polygon fill="none" stroke="black" points="306.104,-250.73 296.745,-255.696 307.158,-257.65 306.104,-250.73"/>
</g>
<!-- \\AssetComponent -->
<g id="node18" class="node"><title>\\AssetComponent</title>
<polygon fill="none" stroke="black" points="1148,-1006 1038,-1006 1038,-970 1148,-970 1148,-1006"/>
<text text-anchor="middle" x="1093" y="-985.1" font-family="Courier,monospace" font-size="11.00">AssetComponent</text>
</g>
<!-- \\Component -->
<g id="node82" class="node"><title>\\Component</title>
<ellipse fill="none" stroke="black" cx="800" cy="-288" rx="70.9184" ry="18.3848"/>
<text text-anchor="middle" x="800" y="-284.4" font-family="Times Roman,serif" font-size="14.00" fill="gray">\Component</text>
</g>
<!-- \\AssetComponent&#45;&gt;\\Component -->
<g id="edge35" class="edge"><title>\\AssetComponent&#45;&gt;\\Component</title>
<path fill="none" stroke="black" d="M1037.26,-985.504C1019.72,-981.876 1001.85,-974.707 990,-961 801.099,-742.429 1110.31,-530.576 918,-315 908.225,-304.042 894.994,-297.054 880.924,-292.686"/>
<polygon fill="none" stroke="black" points="881.644,-289.256 871.08,-290.064 879.842,-296.02 881.644,-289.256"/>
</g>
<!-- \\NetCommonsTimeComponent -->
<g id="node19" class="node"><title>\\NetCommonsTimeComponent</title>
<polygon fill="none" stroke="black" points="1179,-952 1007,-952 1007,-916 1179,-916 1179,-952"/>
<text text-anchor="middle" x="1093" y="-931.1" font-family="Courier,monospace" font-size="11.00">NetCommonsTimeComponent</text>
</g>
<!-- \\NetCommonsTimeComponent&#45;&gt;\\Component -->
<g id="edge37" class="edge"><title>\\NetCommonsTimeComponent&#45;&gt;\\Component</title>
<path fill="none" stroke="black" d="M1006.66,-920.396C1000.43,-916.834 994.742,-912.431 990,-907 815.683,-707.337 1095.43,-511.899 918,-315 908.227,-304.155 895.069,-297.207 881.082,-292.841"/>
<polygon fill="none" stroke="black" points="881.864,-289.426 871.298,-290.214 880.049,-296.187 881.864,-289.426"/>
</g>
<!-- \\PermissionComponent -->
<g id="node20" class="node"><title>\\PermissionComponent</title>
<polygon fill="none" stroke="black" points="1165,-898 1021,-898 1021,-862 1165,-862 1165,-898"/>
<text text-anchor="middle" x="1093" y="-877.1" font-family="Courier,monospace" font-size="11.00">PermissionComponent</text>
</g>
<!-- \\PermissionComponent&#45;&gt;\\Component -->
<g id="edge39" class="edge"><title>\\PermissionComponent&#45;&gt;\\Component</title>
<path fill="none" stroke="black" d="M1020.36,-872.567C1008.84,-868.366 998.079,-862.143 990,-853 830.252,-672.227 1080.57,-493.24 918,-315 908.162,-304.213 894.974,-297.293 880.979,-292.934"/>
<polygon fill="none" stroke="black" points="881.757,-289.519 871.192,-290.31 879.944,-296.281 881.757,-289.519"/>
</g>
<!-- \\NetCommonsComponent -->
<g id="node21" class="node"><title>\\NetCommonsComponent</title>
<polygon fill="none" stroke="black" points="1165,-844 1021,-844 1021,-808 1165,-808 1165,-844"/>
<text text-anchor="middle" x="1093" y="-823.1" font-family="Courier,monospace" font-size="11.00">NetCommonsComponent</text>
</g>
<!-- \\NetCommonsComponent&#45;&gt;\\Component -->
<g id="edge41" class="edge"><title>\\NetCommonsComponent&#45;&gt;\\Component</title>
<path fill="none" stroke="black" d="M1020.47,-818.469C1008.94,-814.277 998.146,-808.083 990,-799 844.8,-637.094 1065.73,-474.605 918,-315 908.083,-304.286 894.859,-297.398 880.853,-293.049"/>
<polygon fill="none" stroke="black" points="881.628,-289.634 871.063,-290.429 879.818,-296.396 881.628,-289.634"/>
</g>
<!-- \\NetCommonsController -->
<g id="node22" class="node"><title>\\NetCommonsController</title>
<polygon fill="none" stroke="black" points="1169,-1222 1017,-1222 1017,-1186 1169,-1186 1169,-1222"/>
<text text-anchor="middle" x="1093" y="-1201.1" font-family="Courier,monospace" font-size="11.00">NetCommonsController</text>
</g>
<!-- \\NetCommonsController&#45;&gt;\\NetCommonsAppController -->
<g id="edge43" class="edge"><title>\\NetCommonsController&#45;&gt;\\NetCommonsAppController</title>
<path fill="none" stroke="black" d="M1016.78,-1196.98C980.049,-1193.59 935.59,-1189.49 896.519,-1185.89"/>
<polygon fill="none" stroke="black" points="896.462,-1182.37 886.183,-1184.94 895.82,-1189.34 896.462,-1182.37"/>
</g>
<!-- \\NetCommonsUrl -->
<g id="node23" class="node"><title>\\NetCommonsUrl</title>
<polygon fill="none" stroke="black" points="1145,-2086 1041,-2086 1041,-2050 1145,-2050 1145,-2086"/>
<text text-anchor="middle" x="1093" y="-2065.1" font-family="Courier,monospace" font-size="11.00">NetCommonsUrl</text>
</g>
<!-- \\NetCommonsTime -->
<g id="node24" class="node"><title>\\NetCommonsTime</title>
<polygon fill="none" stroke="black" points="1148,-2032 1038,-2032 1038,-1996 1148,-1996 1148,-2032"/>
<text text-anchor="middle" x="1093" y="-2011.1" font-family="Courier,monospace" font-size="11.00">NetCommonsTime</text>
</g>
<!-- \\CurrentBase -->
<g id="node25" class="node"><title>\\CurrentBase</title>
<polygon fill="none" stroke="black" points="845,-2302 755,-2302 755,-2266 845,-2266 845,-2302"/>
<text text-anchor="middle" x="800" y="-2281.1" font-family="Courier,monospace" font-size="11.00">CurrentBase</text>
</g>
<!-- \\Current -->
<g id="node26" class="node"><title>\\Current</title>
<polygon fill="none" stroke="black" points="1125,-2302 1061,-2302 1061,-2266 1125,-2266 1125,-2302"/>
<text text-anchor="middle" x="1093" y="-2281.1" font-family="Courier,monospace" font-size="11.00">Current</text>
</g>
<!-- \\Current&#45;&gt;\\CurrentBase -->
<g id="edge45" class="edge"><title>\\Current&#45;&gt;\\CurrentBase</title>
<path fill="none" stroke="black" d="M1060.81,-2284C1011.48,-2284 916.554,-2284 855.846,-2284"/>
<polygon fill="none" stroke="black" points="855.669,-2280.5 845.669,-2284 855.669,-2287.5 855.669,-2280.5"/>
</g>
<!-- \\CurrentSystem -->
<g id="node27" class="node"><title>\\CurrentSystem</title>
<polygon fill="none" stroke="black" points="1145,-1924 1041,-1924 1041,-1888 1145,-1888 1145,-1924"/>
<text text-anchor="middle" x="1093" y="-1903.1" font-family="Courier,monospace" font-size="11.00">CurrentSystem</text>
</g>
<!-- \\CurrentPage -->
<g id="node28" class="node"><title>\\CurrentPage</title>
<polygon fill="none" stroke="black" points="1138,-1870 1048,-1870 1048,-1834 1138,-1834 1138,-1870"/>
<text text-anchor="middle" x="1093" y="-1849.1" font-family="Courier,monospace" font-size="11.00">CurrentPage</text>
</g>
<!-- \\CurrentFrame -->
<g id="node29" class="node"><title>\\CurrentFrame</title>
<polygon fill="none" stroke="black" points="1142,-1816 1044,-1816 1044,-1780 1142,-1780 1142,-1816"/>
<text text-anchor="middle" x="1093" y="-1795.1" font-family="Courier,monospace" font-size="11.00">CurrentFrame</text>
</g>
<!-- \\TokenHelper -->
<g id="node30" class="node"><title>\\TokenHelper</title>
<polygon fill="none" stroke="black" points="1138,-736 1048,-736 1048,-700 1138,-700 1138,-736"/>
<text text-anchor="middle" x="1093" y="-715.1" font-family="Courier,monospace" font-size="11.00">TokenHelper</text>
</g>
<!-- \\FormHelper -->
<g id="node89" class="node"><title>\\FormHelper</title>
<ellipse fill="none" stroke="black" cx="800" cy="-234" rx="70.9184" ry="18.3848"/>
<text text-anchor="middle" x="800" y="-230.4" font-family="Times Roman,serif" font-size="14.00" fill="gray">\FormHelper</text>
</g>
<!-- \\TokenHelper&#45;&gt;\\FormHelper -->
<g id="edge47" class="edge"><title>\\TokenHelper&#45;&gt;\\FormHelper</title>
<path fill="none" stroke="black" d="M1047.25,-716.813C1026.97,-713.861 1004.46,-706.833 990,-691 859.318,-547.927 1050.91,-402.002 918,-261 907.986,-250.377 894.718,-243.531 880.698,-239.194"/>
<polygon fill="none" stroke="black" points="881.468,-235.777 870.904,-236.577 879.661,-242.54 881.468,-235.777"/>
</g>
<!-- \\SingletonViewBlockHtmlHelper -->
<g id="node31" class="node"><title>\\SingletonViewBlockHtmlHelper</title>
<polygon fill="none" stroke="black" points="1196,-628 990,-628 990,-592 1196,-592 1196,-628"/>
<text text-anchor="middle" x="1093" y="-607.1" font-family="Courier,monospace" font-size="11.00">SingletonViewBlockHtmlHelper</text>
</g>
<!-- \\HtmlHelper -->
<g id="node91" class="node"><title>\\HtmlHelper</title>
<ellipse fill="none" stroke="black" cx="800" cy="-180" rx="67.1751" ry="18.3848"/>
<text text-anchor="middle" x="800" y="-176.4" font-family="Times Roman,serif" font-size="14.00" fill="gray">HtmlHelper</text>
</g>
<!-- \\SingletonViewBlockHtmlHelper&#45;&gt;\\HtmlHelper -->
<g id="edge49" class="edge"><title>\\SingletonViewBlockHtmlHelper&#45;&gt;\\HtmlHelper</title>
<path fill="none" stroke="black" d="M1000.46,-591.968C996.678,-589.35 993.156,-586.376 990,-583 873.795,-458.716 1036.14,-329.443 918,-207 906.987,-195.587 892.213,-188.556 876.851,-184.316"/>
<polygon fill="none" stroke="black" points="877.243,-180.812 866.706,-181.915 875.631,-187.624 877.243,-180.812"/>
</g>
<!-- \\FormInputHelper -->
<g id="node32" class="node"><title>\\FormInputHelper</title>
<polygon fill="none" stroke="black" points="1152,-2194 1034,-2194 1034,-2158 1152,-2158 1152,-2194"/>
<text text-anchor="middle" x="1093" y="-2173.1" font-family="Courier,monospace" font-size="11.00">FormInputHelper</text>
</g>
<!-- \\FormInputHelper&#45;&gt;\\AppHelper -->
<g id="edge51" class="edge"><title>\\FormInputHelper&#45;&gt;\\AppHelper</title>
<path fill="none" stroke="black" d="M1033.87,-2170.69C1018.06,-2166.73 1002.03,-2160.08 990,-2149 834.226,-2005.5 806.135,-1726.7 801.095,-1637.31"/>
<polygon fill="none" stroke="black" points="804.581,-1636.94 800.577,-1627.13 797.59,-1637.3 804.581,-1636.94"/>
</g>
<!-- \\WizardHelper -->
<g id="node33" class="node"><title>\\WizardHelper</title>
<polygon fill="none" stroke="black" points="1142,-2140 1044,-2140 1044,-2104 1142,-2104 1142,-2140"/>
<text text-anchor="middle" x="1093" y="-2119.1" font-family="Courier,monospace" font-size="11.00">WizardHelper</text>
</g>
<!-- \\WizardHelper&#45;&gt;\\AppHelper -->
<g id="edge53" class="edge"><title>\\WizardHelper&#45;&gt;\\AppHelper</title>
<path fill="none" stroke="black" d="M1043.96,-2118.57C1025.19,-2115.02 1004.78,-2108.15 990,-2095 847.368,-1968.06 810.808,-1720.73 802.341,-1637.27"/>
<polygon fill="none" stroke="black" points="805.82,-1636.89 801.383,-1627.27 798.852,-1637.56 805.82,-1636.89"/>
</g>
<!-- \\DisplayNumberHelper -->
<g id="node34" class="node"><title>\\DisplayNumberHelper</title>
<polygon fill="none" stroke="black" points="1165,-1978 1021,-1978 1021,-1942 1165,-1942 1165,-1978"/>
<text text-anchor="middle" x="1093" y="-1957.1" font-family="Courier,monospace" font-size="11.00">DisplayNumberHelper</text>
</g>
<!-- \\DisplayNumberHelper&#45;&gt;\\AppHelper -->
<g id="edge55" class="edge"><title>\\DisplayNumberHelper&#45;&gt;\\AppHelper</title>
<path fill="none" stroke="black" d="M1020.4,-1948.72C1009.54,-1944.91 998.988,-1939.81 990,-1933 885.624,-1853.92 828.084,-1699.53 808.129,-1636.65"/>
<polygon fill="none" stroke="black" points="811.45,-1635.54 805.144,-1627.03 804.764,-1637.61 811.45,-1635.54"/>
</g>
<!-- \\MessageFlashHelper -->
<g id="node35" class="node"><title>\\MessageFlashHelper</title>
<polygon fill="none" stroke="black" points="1162,-1762 1024,-1762 1024,-1726 1162,-1726 1162,-1762"/>
<text text-anchor="middle" x="1093" y="-1741.1" font-family="Courier,monospace" font-size="11.00">MessageFlashHelper</text>
</g>
<!-- \\MessageFlashHelper&#45;&gt;\\AppHelper -->
<g id="edge57" class="edge"><title>\\MessageFlashHelper&#45;&gt;\\AppHelper</title>
<path fill="none" stroke="black" d="M1023.76,-1728.51C1012.32,-1725.2 1000.7,-1721.36 990,-1717 933.066,-1693.82 872.097,-1656.73 835.004,-1632.61"/>
<polygon fill="none" stroke="black" points="836.839,-1629.63 826.557,-1627.07 833.002,-1635.48 836.839,-1629.63"/>
</g>
<!-- \\DateHelper -->
<g id="node36" class="node"><title>\\DateHelper</title>
<polygon fill="none" stroke="black" points="1135,-1708 1051,-1708 1051,-1672 1135,-1672 1135,-1708"/>
<text text-anchor="middle" x="1093" y="-1687.1" font-family="Courier,monospace" font-size="11.00">DateHelper</text>
</g>
<!-- \\DateHelper&#45;&gt;\\AppHelper -->
<g id="edge59" class="edge"><title>\\DateHelper&#45;&gt;\\AppHelper</title>
<path fill="none" stroke="black" d="M1050.85,-1679.16C1032.18,-1674.31 1009.97,-1668.46 990,-1663 941.716,-1649.81 886.728,-1634.11 848.375,-1623.04"/>
<polygon fill="none" stroke="black" points="849.087,-1619.61 838.508,-1620.2 847.145,-1626.33 849.087,-1619.61"/>
</g>
<!-- \\SnsButtonHelper -->
<g id="node37" class="node"><title>\\SnsButtonHelper</title>
<polygon fill="none" stroke="black" points="1152,-1654 1034,-1654 1034,-1618 1152,-1618 1152,-1654"/>
<text text-anchor="middle" x="1093" y="-1633.1" font-family="Courier,monospace" font-size="11.00">SnsButtonHelper</text>
</g>
<!-- \\SnsButtonHelper&#45;&gt;\\AppHelper -->
<g id="edge61" class="edge"><title>\\SnsButtonHelper&#45;&gt;\\AppHelper</title>
<path fill="none" stroke="black" d="M1033.71,-1630.54C979.266,-1625.52 899.563,-1618.17 848.738,-1613.49"/>
<polygon fill="none" stroke="black" points="848.942,-1610 838.663,-1612.56 848.299,-1616.97 848.942,-1610"/>
</g>
<!-- \\BackToHelper -->
<g id="node38" class="node"><title>\\BackToHelper</title>
<polygon fill="none" stroke="black" points="1142,-1600 1044,-1600 1044,-1564 1142,-1564 1142,-1600"/>
<text text-anchor="middle" x="1093" y="-1579.1" font-family="Courier,monospace" font-size="11.00">BackToHelper</text>
</g>
<!-- \\BackToHelper&#45;&gt;\\AppHelper -->
<g id="edge63" class="edge"><title>\\BackToHelper&#45;&gt;\\AppHelper</title>
<path fill="none" stroke="black" d="M1043.96,-1586.52C989.78,-1591.51 903.056,-1599.5 848.925,-1604.49"/>
<polygon fill="none" stroke="black" points="848.519,-1601.01 838.882,-1605.42 849.161,-1607.98 848.519,-1601.01"/>
</g>
<!-- \\NetCommonsHtmlHelper -->
<g id="node39" class="node"><title>\\NetCommonsHtmlHelper</title>
<polygon fill="none" stroke="black" points="1169,-1546 1017,-1546 1017,-1510 1169,-1510 1169,-1546"/>
<text text-anchor="middle" x="1093" y="-1525.1" font-family="Courier,monospace" font-size="11.00">NetCommonsHtmlHelper</text>
</g>
<!-- \\NetCommonsHtmlHelper&#45;&gt;\\AppHelper -->
<g id="edge65" class="edge"><title>\\NetCommonsHtmlHelper&#45;&gt;\\AppHelper</title>
<path fill="none" stroke="black" d="M1023.41,-1546.03C1012.23,-1548.99 1000.79,-1552.05 990,-1555 941.716,-1568.19 886.728,-1583.89 848.375,-1594.96"/>
<polygon fill="none" stroke="black" points="847.145,-1591.67 838.508,-1597.8 849.087,-1598.39 847.145,-1591.67"/>
</g>
<!-- \\ButtonHelper -->
<g id="node40" class="node"><title>\\ButtonHelper</title>
<polygon fill="none" stroke="black" points="1142,-682 1044,-682 1044,-646 1142,-646 1142,-682"/>
<text text-anchor="middle" x="1093" y="-661.1" font-family="Courier,monospace" font-size="11.00">ButtonHelper</text>
</g>
<!-- \\ButtonHelper&#45;&gt;\\FormHelper -->
<g id="edge67" class="edge"><title>\\ButtonHelper&#45;&gt;\\FormHelper</title>
<path fill="none" stroke="black" d="M1044,-662.12C1024.67,-658.863 1003.82,-651.786 990,-637 873.795,-512.716 1036.14,-383.443 918,-261 907.863,-250.494 894.538,-243.702 880.502,-239.381"/>
<polygon fill="none" stroke="black" points="881.266,-235.962 870.702,-236.77 879.464,-242.726 881.266,-235.962"/>
</g>
<!-- \\ComposerHelper -->
<g id="node41" class="node"><title>\\ComposerHelper</title>
<polygon fill="none" stroke="black" points="1148,-1492 1038,-1492 1038,-1456 1148,-1456 1148,-1492"/>
<text text-anchor="middle" x="1093" y="-1471.1" font-family="Courier,monospace" font-size="11.00">ComposerHelper</text>
</g>
<!-- \\ComposerHelper&#45;&gt;\\AppHelper -->
<g id="edge69" class="edge"><title>\\ComposerHelper&#45;&gt;\\AppHelper</title>
<path fill="none" stroke="black" d="M1037.34,-1485.77C1021.75,-1489.82 1004.98,-1494.9 990,-1501 933.066,-1524.18 872.097,-1561.27 835.004,-1585.39"/>
<polygon fill="none" stroke="black" points="833.002,-1582.52 826.557,-1590.93 836.839,-1588.37 833.002,-1582.52"/>
</g>
<!-- \\LinkButtonHelper -->
<g id="node42" class="node"><title>\\LinkButtonHelper</title>
<polygon fill="none" stroke="black" points="1155,-790 1031,-790 1031,-754 1155,-754 1155,-790"/>
<text text-anchor="middle" x="1093" y="-769.1" font-family="Courier,monospace" font-size="11.00">LinkButtonHelper</text>
</g>
<!-- \\LinkButtonHelper&#45;&gt;\\FormHelper -->
<g id="edge71" class="edge"><title>\\LinkButtonHelper&#45;&gt;\\FormHelper</title>
<path fill="none" stroke="black" d="M1030.3,-767.541C1015.2,-763.523 1000.43,-756.629 990,-745 844.8,-583.094 1065.73,-420.605 918,-261 908.083,-250.286 894.859,-243.398 880.853,-239.049"/>
<polygon fill="none" stroke="black" points="881.628,-235.634 871.063,-236.429 879.818,-242.396 881.628,-235.634"/>
</g>
<!-- \\NetCommonsTimeHelper -->
<g id="node43" class="node"><title>\\NetCommonsTimeHelper</title>
<polygon fill="none" stroke="black" points="1169,-1438 1017,-1438 1017,-1402 1169,-1402 1169,-1438"/>
<text text-anchor="middle" x="1093" y="-1417.1" font-family="Courier,monospace" font-size="11.00">NetCommonsTimeHelper</text>
</g>
<!-- \\NetCommonsTimeHelper&#45;&gt;\\AppHelper -->
<g id="edge73" class="edge"><title>\\NetCommonsTimeHelper&#45;&gt;\\AppHelper</title>
<path fill="none" stroke="black" d="M1016.98,-1435.73C1007.65,-1438.87 998.439,-1442.59 990,-1447 921.41,-1482.81 856.097,-1547.44 822.838,-1583.3"/>
<polygon fill="none" stroke="black" points="820.033,-1581.17 815.854,-1590.91 825.192,-1585.91 820.033,-1581.17"/>
</g>
<!-- \\NetCommonsFormHelper -->
<g id="node44" class="node"><title>\\NetCommonsFormHelper</title>
<polygon fill="none" stroke="black" points="1169,-1384 1017,-1384 1017,-1348 1169,-1348 1169,-1384"/>
<text text-anchor="middle" x="1093" y="-1363.1" font-family="Courier,monospace" font-size="11.00">NetCommonsFormHelper</text>
</g>
<!-- \\NetCommonsFormHelper&#45;&gt;\\AppHelper -->
<g id="edge75" class="edge"><title>\\NetCommonsFormHelper&#45;&gt;\\AppHelper</title>
<path fill="none" stroke="black" d="M1016.88,-1380.4C1007.46,-1383.76 998.259,-1387.9 990,-1393 909.876,-1442.44 844.727,-1536.19 815.946,-1582.19"/>
<polygon fill="none" stroke="black" points="812.792,-1580.64 810.523,-1590.98 818.75,-1584.31 812.792,-1580.64"/>
</g>
<!-- \\TitleIconHelper -->
<g id="node45" class="node"><title>\\TitleIconHelper</title>
<polygon fill="none" stroke="black" points="1152,-1330 1034,-1330 1034,-1294 1152,-1294 1152,-1330"/>
<text text-anchor="middle" x="1093" y="-1309.1" font-family="Courier,monospace" font-size="11.00">TitleIconHelper</text>
</g>
<!-- \\TitleIconHelper&#45;&gt;\\AppHelper -->
<g id="edge77" class="edge"><title>\\TitleIconHelper&#45;&gt;\\AppHelper</title>
<path fill="none" stroke="black" d="M1033.8,-1320.05C1018.6,-1324.05 1002.91,-1330.04 990,-1339 898.034,-1402.86 835.79,-1526.47 811.457,-1581.46"/>
<polygon fill="none" stroke="black" points="808.13,-1580.34 807.356,-1590.9 814.551,-1583.13 808.13,-1580.34"/>
</g>
<!-- \\DatetimePickerHelper -->
<g id="node46" class="node"><title>\\DatetimePickerHelper</title>
<polygon fill="none" stroke="black" points="1169,-2248 1017,-2248 1017,-2212 1169,-2212 1169,-2248"/>
<text text-anchor="middle" x="1093" y="-2227.1" font-family="Courier,monospace" font-size="11.00">DatetimePickerHelper</text>
</g>
<!-- \\DatetimePickerHelper&#45;&gt;\\AppHelper -->
<g id="edge79" class="edge"><title>\\DatetimePickerHelper&#45;&gt;\\AppHelper</title>
<path fill="none" stroke="black" d="M1016.91,-2219.56C1006.99,-2215.61 997.646,-2210.25 990,-2203 903.879,-2121.34 825.926,-1743.95 805.305,-1637.2"/>
<polygon fill="none" stroke="black" points="808.705,-1636.35 803.386,-1627.18 801.83,-1637.66 808.705,-1636.35"/>
</g>
<!-- \\Model -->
<g id="node108" class="node"><title>\\Model</title>
<ellipse fill="none" stroke="black" cx="44" cy="-2635" rx="43.8406" ry="18.3848"/>
<text text-anchor="middle" x="44" y="-2631.4" font-family="Times Roman,serif" font-size="14.00" fill="gray">\Model</text>
</g>
<!-- \\NetCommonsAppModel&#45;&gt;\\Model -->
<g id="edge81" class="edge"><title>\\NetCommonsAppModel&#45;&gt;\\Model</title>
<path fill="none" stroke="black" d="M172.749,-2635C148.379,-2635 121.357,-2635 98.3871,-2635"/>
<polygon fill="none" stroke="black" points="98.1425,-2631.5 88.1425,-2635 98.1424,-2638.5 98.1425,-2631.5"/>
</g>
<!-- \\OriginalKeyBehavior -->
<g id="node48" class="node"><title>\\OriginalKeyBehavior</title>
<polygon fill="none" stroke="black" points="1165,-520 1021,-520 1021,-484 1165,-484 1165,-520"/>
<text text-anchor="middle" x="1093" y="-499.1" font-family="Courier,monospace" font-size="11.00">OriginalKeyBehavior</text>
</g>
<!-- \\ModelBehavior -->
<g id="node110" class="node"><title>\\ModelBehavior</title>
<ellipse fill="none" stroke="black" cx="800" cy="-126" rx="86.9741" ry="18.3848"/>
<text text-anchor="middle" x="800" y="-122.4" font-family="Times Roman,serif" font-size="14.00" fill="gray">\ModelBehavior</text>
</g>
<!-- \\OriginalKeyBehavior&#45;&gt;\\ModelBehavior -->
<g id="edge83" class="edge"><title>\\OriginalKeyBehavior&#45;&gt;\\ModelBehavior</title>
<path fill="none" stroke="black" d="M1020.48,-493.783C1009.09,-489.648 998.341,-483.65 990,-475 888.21,-369.437 1021.44,-256.95 918,-153 910.53,-145.493 901.428,-139.895 891.627,-135.745"/>
<polygon fill="none" stroke="black" points="892.638,-132.388 882.045,-132.196 890.207,-138.952 892.638,-132.388"/>
</g>
<!-- \\TrackableBehavior -->
<g id="node49" class="node"><title>\\TrackableBehavior</title>
<polygon fill="none" stroke="black" points="1158,-574 1028,-574 1028,-538 1158,-538 1158,-574"/>
<text text-anchor="middle" x="1093" y="-553.1" font-family="Courier,monospace" font-size="11.00">TrackableBehavior</text>
</g>
<!-- \\TrackableBehavior&#45;&gt;\\ModelBehavior -->
<g id="edge85" class="edge"><title>\\TrackableBehavior&#45;&gt;\\ModelBehavior</title>
<path fill="none" stroke="black" d="M1027.41,-550.347C1013.43,-546.238 999.911,-539.6 990,-529 873.795,-404.716 1036.14,-275.443 918,-153 910.646,-145.379 901.615,-139.712 891.852,-135.525"/>
<polygon fill="none" stroke="black" points="892.89,-132.176 882.298,-131.949 890.436,-138.732 892.89,-132.176"/>
</g>
<!-- \\YAExceptionRenderer -->
<g id="node50" class="node"><title>\\YAExceptionRenderer</title>
<polygon fill="none" stroke="black" points="1165,-466 1021,-466 1021,-430 1165,-430 1165,-466"/>
<text text-anchor="middle" x="1093" y="-445.1" font-family="Courier,monospace" font-size="11.00">YAExceptionRenderer</text>
</g>
<!-- \\ExceptionRenderer -->
<g id="node113" class="node"><title>\\ExceptionRenderer</title>
<ellipse fill="none" stroke="black" cx="800" cy="-72" rx="118.087" ry="18.3848"/>
<text text-anchor="middle" x="800" y="-68.4" font-family="Times Roman,serif" font-size="14.00" fill="gray">TEHxceptionRenderer</text>
</g>
<!-- \\YAExceptionRenderer&#45;&gt;\\ExceptionRenderer -->
<g id="edge87" class="edge"><title>\\YAExceptionRenderer&#45;&gt;\\ExceptionRenderer</title>
<path fill="none" stroke="black" d="M1020.48,-439.783C1009.09,-435.648 998.341,-429.65 990,-421 888.21,-315.437 1021.44,-202.95 918,-99 913.632,-94.61 908.706,-90.873 903.408,-87.6967"/>
<polygon fill="none" stroke="black" points="904.657,-84.4002 894.174,-82.8643 901.411,-90.6022 904.657,-84.4002"/>
</g>
<!-- \\NetCommonsMigration -->
<g id="node51" class="node"><title>\\NetCommonsMigration</title>
<polygon fill="none" stroke="black" points="872,-1114 728,-1114 728,-1078 872,-1078 872,-1114"/>
<text text-anchor="middle" x="800" y="-1093.1" font-family="Courier,monospace" font-size="11.00">NetCommonsMigration</text>
</g>
<!-- \\CakeMigration -->
<g id="node115" class="node"><title>\\CakeMigration</title>
<ellipse fill="none" stroke="black" cx="503" cy="-196" rx="84.8528" ry="18.3848"/>
<text text-anchor="middle" x="503" y="-192.4" font-family="Times Roman,serif" font-size="14.00" fill="gray">\CakeMigration</text>
</g>
<!-- \\NetCommonsMigration&#45;&gt;\\CakeMigration -->
<g id="edge89" class="edge"><title>\\NetCommonsMigration&#45;&gt;\\CakeMigration</title>
<path fill="none" stroke="black" d="M727.378,-1097.07C710.291,-1093.73 693.678,-1086.9 682,-1074 555.378,-934.119 729.014,-374.409 610,-228 603.42,-219.905 594.879,-213.799 585.492,-209.204"/>
<polygon fill="none" stroke="black" points="586.84,-205.973 576.27,-205.245 584.078,-212.406 586.84,-205.973"/>
</g>
<!-- \\AnnouncementsController -->
<g id="node52" class="node"><title>\\AnnouncementsController</title>
<polygon fill="none" stroke="black" points="1179,-2410 1007,-2410 1007,-2374 1179,-2374 1179,-2410"/>
<text text-anchor="middle" x="1093" y="-2389.1" font-family="Courier,monospace" font-size="11.00">AnnouncementsController</text>
</g>
<!-- \\AnnouncementsAppController -->
<g id="node54" class="node"><title>\\AnnouncementsAppController</title>
<polygon fill="none" stroke="black" points="896,-2356 704,-2356 704,-2320 896,-2320 896,-2356"/>
<text text-anchor="middle" x="800" y="-2335.1" font-family="Courier,monospace" font-size="11.00">AnnouncementsAppController</text>
</g>
<!-- \\AnnouncementsController&#45;&gt;\\AnnouncementsAppController -->
<g id="edge91" class="edge"><title>\\AnnouncementsController&#45;&gt;\\AnnouncementsAppController</title>
<path fill="none" stroke="black" d="M1006.68,-2376.09C975.238,-2370.3 939.326,-2363.68 906.354,-2357.6"/>
<polygon fill="none" stroke="black" points="906.693,-2354.1 896.224,-2355.73 905.424,-2360.99 906.693,-2354.1"/>
</g>
<!-- \\AnnouncementBlocksController -->
<g id="node53" class="node"><title>\\AnnouncementBlocksController</title>
<polygon fill="none" stroke="black" points="1196,-2356 990,-2356 990,-2320 1196,-2320 1196,-2356"/>
<text text-anchor="middle" x="1093" y="-2335.1" font-family="Courier,monospace" font-size="11.00">AnnouncementBlocksController</text>
</g>
<!-- \\AnnouncementBlocksController&#45;&gt;\\AnnouncementsAppController -->
<g id="edge93" class="edge"><title>\\AnnouncementBlocksController&#45;&gt;\\AnnouncementsAppController</title>
<path fill="none" stroke="black" d="M989.699,-2338C962.818,-2338 933.805,-2338 906.75,-2338"/>
<polygon fill="none" stroke="black" points="906.485,-2334.5 896.485,-2338 906.485,-2341.5 906.485,-2334.5"/>
</g>
<!-- \\AnnouncementsAppController&#45;&gt;\\AppController -->
<g id="edge95" class="edge"><title>\\AnnouncementsAppController&#45;&gt;\\AppController</title>
<path fill="none" stroke="black" d="M703.888,-2326.55C695.761,-2322.59 688.269,-2317.51 682,-2311 550.613,-2174.58 511.472,-1537.39 504.306,-1395.19"/>
<polygon fill="none" stroke="black" points="507.797,-1394.92 503.81,-1385.1 500.806,-1395.26 507.797,-1394.92"/>
</g>
<!-- \\Announcement -->
<g id="node55" class="node"><title>\\Announcement</title>
<polygon fill="none" stroke="black" points="1142,-2680 1044,-2680 1044,-2644 1142,-2644 1142,-2680"/>
<text text-anchor="middle" x="1093" y="-2659.1" font-family="Courier,monospace" font-size="11.00">Announcement</text>
</g>
<!-- \\AnnouncementsAppModel -->
<g id="node56" class="node"><title>\\AnnouncementsAppModel</title>
<polygon fill="none" stroke="black" points="879,-2680 721,-2680 721,-2644 879,-2644 879,-2680"/>
<text text-anchor="middle" x="800" y="-2659.1" font-family="Courier,monospace" font-size="11.00">AnnouncementsAppModel</text>
</g>
<!-- \\Announcement&#45;&gt;\\AnnouncementsAppModel -->
<g id="edge97" class="edge"><title>\\Announcement&#45;&gt;\\AnnouncementsAppModel</title>
<path fill="none" stroke="black" d="M1043.96,-2662C1001.81,-2662 939.951,-2662 889.075,-2662"/>
<polygon fill="none" stroke="black" points="889.055,-2658.5 879.055,-2662 889.055,-2665.5 889.055,-2658.5"/>
</g>
<!-- \\AnnouncementsAppModel&#45;&gt;\\AppModel -->
<g id="edge99" class="edge"><title>\\AnnouncementsAppModel&#45;&gt;\\AppModel</title>
<path fill="none" stroke="black" d="M720.8,-2654.8C665.959,-2649.81 594.863,-2643.35 549.084,-2639.19"/>
<polygon fill="none" stroke="black" points="549.143,-2635.68 538.867,-2638.26 548.509,-2642.65 549.143,-2635.68"/>
</g>
<!-- \\AnnouncementsSchema -->
<g id="node57" class="node"><title>\\AnnouncementsSchema</title>
<polygon fill="none" stroke="black" points="1165,-412 1021,-412 1021,-376 1165,-376 1165,-412"/>
<text text-anchor="middle" x="1093" y="-391.1" font-family="Courier,monospace" font-size="11.00">AnnouncementsSchema</text>
</g>
<!-- \\CakeSchema -->
<g id="node122" class="node"><title>\\CakeSchema</title>
<ellipse fill="none" stroke="black" cx="800" cy="-18" rx="77.0746" ry="18.3848"/>
<text text-anchor="middle" x="800" y="-14.4" font-family="Times Roman,serif" font-size="14.00" fill="gray">\CakeSchema</text>
</g>
<!-- \\AnnouncementsSchema&#45;&gt;\\CakeSchema -->
<g id="edge101" class="edge"><title>\\AnnouncementsSchema&#45;&gt;\\CakeSchema</title>
<path fill="none" stroke="black" d="M1089.54,-375.725C1077.51,-317.407 1031.83,-134.35 918,-45 907.593,-36.8314 895.169,-31.0476 882.349,-26.9696"/>
<polygon fill="none" stroke="black" points="883.07,-23.5363 872.495,-24.1724 881.159,-30.2702 883.07,-23.5363"/>
</g>
<!-- \\Init -->
<g id="node58" class="node"><title>\\Init</title>
<polygon fill="none" stroke="black" points="1120,-1114 1066,-1114 1066,-1078 1120,-1078 1120,-1114"/>
<text text-anchor="middle" x="1093" y="-1093.1" font-family="Courier,monospace" font-size="11.00">Init</text>
</g>
<!-- \\Init&#45;&gt;\\NetCommonsMigration -->
<g id="edge103" class="edge"><title>\\Init&#45;&gt;\\NetCommonsMigration</title>
<path fill="none" stroke="black" d="M1065.96,-1096C1024.69,-1096 944.3,-1096 882.656,-1096"/>
<polygon fill="none" stroke="black" points="882.545,-1092.5 872.545,-1096 882.545,-1099.5 882.545,-1092.5"/>
</g>
<!-- \\PluginRecords -->
<g id="node59" class="node"><title>\\PluginRecords</title>
<polygon fill="none" stroke="black" points="1145,-1168 1041,-1168 1041,-1132 1145,-1132 1145,-1168"/>
<text text-anchor="middle" x="1093" y="-1147.1" font-family="Courier,monospace" font-size="11.00">PluginRecords</text>
</g>
<!-- \\PluginRecords&#45;&gt;\\NetCommonsMigration -->
<g id="edge105" class="edge"><title>\\PluginRecords&#45;&gt;\\NetCommonsMigration</title>
<path fill="none" stroke="black" d="M1040.96,-1140.41C997.094,-1132.32 933.542,-1120.61 882.717,-1111.24"/>
<polygon fill="none" stroke="black" points="883.2,-1107.77 872.731,-1109.4 881.931,-1114.66 883.2,-1107.77"/>
</g>
</g>
</svg>
