<?xml version="1.0" encoding="UTF-8" standalone="no"?>
<!DOCTYPE svg PUBLIC "-//W3C//DTD SVG 1.1//EN"
 "http://www.w3.org/Graphics/SVG/1.1/DTD/svg11.dtd">
<!-- Generated by graphviz version 2.26.3 (20100126.1600)
 -->
<!-- Title: G Pages: 1 -->
<svg width="1226pt" height="2888pt"
 viewBox="0.00 0.00 1226.00 2888.00" xmlns="http://www.w3.org/2000/svg" xmlns:xlink="http://www.w3.org/1999/xlink">
<g id="graph1" class="graph" transform="scale(1 1) rotate(0) translate(4 2884)">
<title>G</title>
<polygon fill="white" stroke="white" points="-4,5 -4,-2884 1223,-2884 1223,5 -4,5"/>
<g id="graph2" class="cluster"><title>cluster_Global</title>
<polyline fill="none" stroke="gray" points="177,-368 1198,-368 "/>
<path fill="none" stroke="gray" d="M1198,-368C1204,-368 1210,-374 1210,-380"/>
<polyline fill="none" stroke="gray" points="1210,-380 1210,-2860 "/>
<path fill="none" stroke="gray" d="M1210,-2860C1210,-2866 1204,-2872 1198,-2872"/>
<polyline fill="none" stroke="gray" points="1198,-2872 177,-2872 "/>
<path fill="none" stroke="gray" d="M177,-2872C171,-2872 165,-2866 165,-2860"/>
<polyline fill="none" stroke="gray" points="165,-2860 165,-380 "/>
<path fill="none" stroke="gray" d="M165,-380C165,-374 171,-368 177,-368"/>
<text text-anchor="middle" x="687.5" y="-2858.1" font-family="Times Roman,serif" font-size="11.00" fill="gray">Global</text>
</g>
<!-- \\AppController -->
<g id="node2" class="node"><title>\\AppController</title>
<polygon fill="none" stroke="black" points="555,-1466 451,-1466 451,-1430 555,-1430 555,-1466"/>
<text text-anchor="middle" x="503" y="-1445.1" font-family="Courier,monospace" font-size="11.00">AppController</text>
</g>
<!-- \\Controller -->
<g id="node64" class="node"><title>\\Controller</title>
<ellipse fill="none" stroke="black" cx="242" cy="-265" rx="63.1385" ry="18.3848"/>
<text text-anchor="middle" x="242" y="-261.4" font-family="Times Roman,serif" font-size="14.00" fill="gray">\Controller</text>
</g>
<!-- \\AppController&#45;&gt;\\Controller -->
<g id="edge3" class="edge"><title>\\AppController&#45;&gt;\\Controller</title>
<path fill="none" stroke="black" d="M450.826,-1449.96C430.791,-1447.84 409.512,-1441.52 396,-1426 233.541,-1239.41 452.043,-526.696 324,-315 316.077,-301.901 303.29,-291.766 290.147,-284.155"/>
<polygon fill="none" stroke="black" points="291.514,-280.917 281.046,-279.283 288.21,-287.088 291.514,-280.917"/>
</g>
<!-- \\AppModel -->
<g id="node3" class="node"><title>\\AppModel</title>
<polygon fill="none" stroke="black" points="538,-2815 468,-2815 468,-2779 538,-2779 538,-2815"/>
<text text-anchor="middle" x="503" y="-2794.1" font-family="Courier,monospace" font-size="11.00">AppModel</text>
</g>
<!-- \\NetCommonsAppModel -->
<g id="node50" class="node"><title>\\NetCommonsAppModel</title>
<polygon fill="none" stroke="black" points="311,-2815 173,-2815 173,-2779 311,-2779 311,-2815"/>
<text text-anchor="middle" x="242" y="-2794.1" font-family="Courier,monospace" font-size="11.00">NetCommonsAppModel</text>
</g>
<!-- \\AppModel&#45;&gt;\\NetCommonsAppModel -->
<g id="edge5" class="edge"><title>\\AppModel&#45;&gt;\\NetCommonsAppModel</title>
<path fill="none" stroke="black" d="M467.256,-2797C429.848,-2797 369.903,-2797 321.254,-2797"/>
<polygon fill="none" stroke="black" points="321.056,-2793.5 311.056,-2797 321.056,-2800.5 321.056,-2793.5"/>
</g>
<!-- \\DatabaseConfiguration -->
<g id="node4" class="node"><title>\\DatabaseConfiguration</title>
<polygon fill="none" stroke="black" points="879,-2788 721,-2788 721,-2752 879,-2752 879,-2788"/>
<text text-anchor="middle" x="800" y="-2767.1" font-family="Courier,monospace" font-size="11.00">DatabaseConfiguration</text>
</g>
<!-- \\DatabaseConfiguration&#45;&gt;\\AppModel -->
<g id="edge7" class="edge"><title>\\DatabaseConfiguration&#45;&gt;\\AppModel</title>
<path fill="none" stroke="black" d="M720.8,-2777.2C665.959,-2782.19 594.863,-2788.65 549.084,-2792.81"/>
<polygon fill="none" stroke="black" points="548.509,-2789.35 538.867,-2793.74 549.143,-2796.32 548.509,-2789.35"/>
</g>
<!-- \\AppHelper -->
<g id="node5" class="node"><title>\\AppHelper</title>
<polygon fill="none" stroke="black" points="838,-1708 762,-1708 762,-1672 838,-1672 838,-1708"/>
<text text-anchor="middle" x="800" y="-1687.1" font-family="Courier,monospace" font-size="11.00">AppHelper</text>
</g>
<!-- \\Helper -->
<g id="node68" class="node"><title>\\Helper</title>
<ellipse fill="none" stroke="black" cx="503" cy="-342" rx="43.8406" ry="18.3848"/>
<text text-anchor="middle" x="503" y="-338.4" font-family="Times Roman,serif" font-size="14.00" fill="gray">Helper</text>
</g>
<!-- \\AppHelper&#45;&gt;\\Helper -->
<g id="edge9" class="edge"><title>\\AppHelper&#45;&gt;\\Helper</title>
<path fill="none" stroke="black" d="M792.722,-1671.89C771.457,-1618.1 709.216,-1454.13 682,-1312 662.133,-1208.25 679.807,-443.285 610,-364 596.767,-348.97 576.245,-342.596 556.7,-340.294"/>
<polygon fill="none" stroke="black" points="556.872,-336.796 546.612,-339.437 556.28,-343.771 556.872,-336.796"/>
</g>
<!-- \\NetCommonsDeleteTest -->
<g id="node6" class="node"><title>\\NetCommonsDeleteTest</title>
<polygon fill="none" stroke="black" points="1172,-2734 1020,-2734 1020,-2698 1172,-2698 1172,-2734"/>
<text text-anchor="middle" x="1096" y="-2713.1" font-family="Courier,monospace" font-size="11.00">NetCommonsDeleteTest</text>
</g>
<!-- \\NetCommonsModelTestCase -->
<g id="node15" class="node"><title>\\NetCommonsModelTestCase</title>
<polygon fill="none" stroke="black" points="886,-2626 714,-2626 714,-2590 886,-2590 886,-2626"/>
<text text-anchor="middle" x="800" y="-2605.1" font-family="Courier,monospace" font-size="11.00">NetCommonsModelTestCase</text>
</g>
<!-- \\NetCommonsDeleteTest&#45;&gt;\\NetCommonsModelTestCase -->
<g id="edge11" class="edge"><title>\\NetCommonsDeleteTest&#45;&gt;\\NetCommonsModelTestCase</title>
<path fill="none" stroke="black" d="M1020,-2700.54C1009.69,-2697.33 999.421,-2693.51 990,-2689 953.921,-2671.73 954.288,-2651.83 918,-2635 910.962,-2631.74 903.501,-2628.85 895.884,-2626.31"/>
<polygon fill="none" stroke="black" points="896.762,-2622.91 886.173,-2623.26 894.666,-2629.59 896.762,-2622.91"/>
</g>
<!-- \\NetCommonsConsoleTestCase -->
<g id="node7" class="node"><title>\\NetCommonsConsoleTestCase</title>
<polygon fill="none" stroke="black" points="892,-2734 708,-2734 708,-2698 892,-2698 892,-2734"/>
<text text-anchor="middle" x="800" y="-2713.1" font-family="Courier,monospace" font-size="11.00">NetCommonsConsoleTestCase</text>
</g>
<!-- \\NetCommonsCakeTestCase -->
<g id="node13" class="node"><title>\\NetCommonsCakeTestCase</title>
<polygon fill="none" stroke="black" points="585,-2653 421,-2653 421,-2617 585,-2617 585,-2653"/>
<text text-anchor="middle" x="503" y="-2632.1" font-family="Courier,monospace" font-size="11.00">NetCommonsCakeTestCase</text>
</g>
<!-- \\NetCommonsConsoleTestCase&#45;&gt;\\NetCommonsCakeTestCase -->
<g id="edge13" class="edge"><title>\\NetCommonsConsoleTestCase&#45;&gt;\\NetCommonsCakeTestCase</title>
<path fill="none" stroke="black" d="M717.936,-2697.98C705.852,-2695.11 693.579,-2692.07 682,-2689 644.303,-2679.01 602.565,-2666.51 568.882,-2656.05"/>
<polygon fill="none" stroke="black" points="569.742,-2652.65 559.154,-2653.01 567.658,-2659.33 569.742,-2652.65"/>
</g>
<!-- \\NetCommonsGetTest -->
<g id="node8" class="node"><title>\\NetCommonsGetTest</title>
<polygon fill="none" stroke="black" points="1161,-2680 1031,-2680 1031,-2644 1161,-2644 1161,-2680"/>
<text text-anchor="middle" x="1096" y="-2659.1" font-family="Courier,monospace" font-size="11.00">NetCommonsGetTest</text>
</g>
<!-- \\NetCommonsGetTest&#45;&gt;\\NetCommonsModelTestCase -->
<g id="edge15" class="edge"><title>\\NetCommonsGetTest&#45;&gt;\\NetCommonsModelTestCase</title>
<path fill="none" stroke="black" d="M1030.31,-2650.02C990.801,-2642.81 939.821,-2633.51 895.872,-2625.49"/>
<polygon fill="none" stroke="black" points="896.494,-2622.05 886.029,-2623.69 895.238,-2628.93 896.494,-2622.05"/>
</g>
<!-- \\NetCommonsHelperTestCase -->
<g id="node9" class="node"><title>\\NetCommonsHelperTestCase</title>
<polygon fill="none" stroke="black" points="889,-2680 711,-2680 711,-2644 889,-2644 889,-2680"/>
<text text-anchor="middle" x="800" y="-2659.1" font-family="Courier,monospace" font-size="11.00">NetCommonsHelperTestCase</text>
</g>
<!-- \\NetCommonsHelperTestCase&#45;&gt;\\NetCommonsCakeTestCase -->
<g id="edge17" class="edge"><title>\\NetCommonsHelperTestCase&#45;&gt;\\NetCommonsCakeTestCase</title>
<path fill="none" stroke="black" d="M710.487,-2653.86C674.267,-2650.57 632.456,-2646.77 595.9,-2643.45"/>
<polygon fill="none" stroke="black" points="596.013,-2639.94 585.737,-2642.52 595.379,-2646.91 596.013,-2639.94"/>
</g>
<!-- \\NetCommonsControllerBaseTestCase -->
<g id="node10" class="node"><title>\\NetCommonsControllerBaseTestCase</title>
<polygon fill="none" stroke="black" points="916,-1303 684,-1303 684,-1267 916,-1267 916,-1303"/>
<text text-anchor="middle" x="800" y="-1282.1" font-family="Courier,monospace" font-size="11.00">NetCommonsControllerBaseTestCase</text>
</g>
<!-- \\ControllerTestCase -->
<g id="node74" class="node"><title>\\ControllerTestCase</title>
<ellipse fill="none" stroke="black" cx="503" cy="-288" rx="106.773" ry="18.3848"/>
<text text-anchor="middle" x="503" y="-284.4" font-family="Times Roman,serif" font-size="14.00" fill="gray">\ControllerTestCase</text>
</g>
<!-- \\NetCommonsControllerBaseTestCase&#45;&gt;\\ControllerTestCase -->
<g id="edge19" class="edge"><title>\\NetCommonsControllerBaseTestCase&#45;&gt;\\ControllerTestCase</title>
<path fill="none" stroke="black" d="M729.227,-1266.89C711.05,-1258.84 693.423,-1247.34 682,-1231 565.025,-1063.64 741.699,-471.032 610,-315 606.37,-310.699 602.164,-307.03 597.563,-303.904"/>
<polygon fill="none" stroke="black" points="599.292,-300.861 588.891,-298.845 595.765,-306.907 599.292,-300.861"/>
</g>
<!-- \\NetCommonsValidateTest -->
<g id="node11" class="node"><title>\\NetCommonsValidateTest</title>
<polygon fill="none" stroke="black" points="1178,-2626 1014,-2626 1014,-2590 1178,-2590 1178,-2626"/>
<text text-anchor="middle" x="1096" y="-2605.1" font-family="Courier,monospace" font-size="11.00">NetCommonsValidateTest</text>
</g>
<!-- \\NetCommonsValidateTest&#45;&gt;\\NetCommonsModelTestCase -->
<g id="edge21" class="edge"><title>\\NetCommonsValidateTest&#45;&gt;\\NetCommonsModelTestCase</title>
<path fill="none" stroke="black" d="M1013.15,-2608C976.963,-2608 934.278,-2608 896.649,-2608"/>
<polygon fill="none" stroke="black" points="896.179,-2604.5 886.179,-2608 896.179,-2611.5 896.179,-2604.5"/>
</g>
<!-- \\NetCommonsTestSuite -->
<g id="node12" class="node"><title>\\NetCommonsTestSuite</title>
<polygon fill="none" stroke="black" points="1168,-1114 1024,-1114 1024,-1078 1168,-1078 1168,-1114"/>
<text text-anchor="middle" x="1096" y="-1093.1" font-family="Courier,monospace" font-size="11.00">NetCommonsTestSuite</text>
</g>
<!-- \\CakeTestSuite -->
<g id="node77" class="node"><title>\\CakeTestSuite</title>
<ellipse fill="none" stroke="black" cx="800" cy="-342" rx="84.1457" ry="18.3848"/>
<text text-anchor="middle" x="800" y="-338.4" font-family="Times Roman,serif" font-size="14.00" fill="gray">\CakeTestSuite</text>
</g>
<!-- \\NetCommonsTestSuite&#45;&gt;\\CakeTestSuite -->
<g id="edge23" class="edge"><title>\\NetCommonsTestSuite&#45;&gt;\\CakeTestSuite</title>
<path fill="none" stroke="black" d="M1023.46,-1089.99C1010.71,-1085.74 998.743,-1079.14 990,-1069 887.16,-949.734 1024.67,-479.856 918,-364 911.119,-356.526 902.58,-351.101 893.263,-347.215"/>
<polygon fill="none" stroke="black" points="894.315,-343.875 883.72,-343.824 891.97,-350.47 894.315,-343.875"/>
</g>
<!-- \\CakeTestCase -->
<g id="node79" class="node"><title>\\CakeTestCase</title>
<ellipse fill="none" stroke="black" cx="242" cy="-342" rx="82.0244" ry="18.3848"/>
<text text-anchor="middle" x="242" y="-338.4" font-family="Times Roman,serif" font-size="14.00" fill="gray">\CakeTestCase</text>
</g>
<!-- \\NetCommonsCakeTestCase&#45;&gt;\\CakeTestCase -->
<g id="edge25" class="edge"><title>\\NetCommonsCakeTestCase&#45;&gt;\\CakeTestCase</title>
<path fill="none" stroke="black" d="M501.149,-2616.95C490.139,-2509.23 432.526,-1940.25 396,-1475 386.318,-1351.68 402.426,-459.665 324,-364 322.283,-361.905 320.39,-359.998 318.355,-358.262"/>
<polygon fill="none" stroke="black" points="320.087,-355.204 309.875,-352.381 316.098,-360.956 320.087,-355.204"/>
</g>
<!-- \\NetCommonsSaveTest -->
<g id="node14" class="node"><title>\\NetCommonsSaveTest</title>
<polygon fill="none" stroke="black" points="1165,-2788 1027,-2788 1027,-2752 1165,-2752 1165,-2788"/>
<text text-anchor="middle" x="1096" y="-2767.1" font-family="Courier,monospace" font-size="11.00">NetCommonsSaveTest</text>
</g>
<!-- \\NetCommonsSaveTest&#45;&gt;\\NetCommonsModelTestCase -->
<g id="edge27" class="edge"><title>\\NetCommonsSaveTest&#45;&gt;\\NetCommonsModelTestCase</title>
<path fill="none" stroke="black" d="M1026.9,-2760.2C1013.87,-2756.26 1000.93,-2750.74 990,-2743 942.918,-2709.66 965.486,-2667.76 918,-2635 911.099,-2630.24 903.484,-2626.31 895.545,-2623.06"/>
<polygon fill="none" stroke="black" points="896.692,-2619.75 886.099,-2619.56 894.256,-2626.32 896.692,-2619.75"/>
</g>
<!-- \\NetCommonsModelTestCase&#45;&gt;\\NetCommonsCakeTestCase -->
<g id="edge29" class="edge"><title>\\NetCommonsModelTestCase&#45;&gt;\\NetCommonsCakeTestCase</title>
<path fill="none" stroke="black" d="M713.696,-2615.85C676.671,-2619.21 633.35,-2623.15 595.65,-2626.58"/>
<polygon fill="none" stroke="black" points="595.328,-2623.09 585.686,-2627.48 595.962,-2630.06 595.328,-2623.09"/>
</g>
<!-- \\NetCommonsControllerTestCase -->
<g id="node16" class="node"><title>\\NetCommonsControllerTestCase</title>
<polygon fill="none" stroke="black" points="1199,-1330 993,-1330 993,-1294 1199,-1294 1199,-1330"/>
<text text-anchor="middle" x="1096" y="-1309.1" font-family="Courier,monospace" font-size="11.00">NetCommonsControllerTestCase</text>
</g>
<!-- \\NetCommonsControllerTestCase&#45;&gt;\\NetCommonsControllerBaseTestCase -->
<g id="edge31" class="edge"><title>\\NetCommonsControllerTestCase&#45;&gt;\\NetCommonsControllerBaseTestCase</title>
<path fill="none" stroke="black" d="M992.889,-1302.59C971.548,-1300.65 948.831,-1298.58 926.758,-1296.56"/>
<polygon fill="none" stroke="black" points="926.945,-1293.07 916.669,-1295.64 926.309,-1300.04 926.945,-1293.07"/>
</g>
<!-- \\NetCommonsAppController -->
<g id="node17" class="node"><title>\\NetCommonsAppController</title>
<polygon fill="none" stroke="black" points="886,-1222 714,-1222 714,-1186 886,-1186 886,-1222"/>
<text text-anchor="middle" x="800" y="-1201.1" font-family="Courier,monospace" font-size="11.00">NetCommonsAppController</text>
</g>
<!-- \\NetCommonsAppController&#45;&gt;\\Controller -->
<g id="edge33" class="edge"><title>\\NetCommonsAppController&#45;&gt;\\Controller</title>
<path fill="none" stroke="black" d="M793.582,-1185.73C773.945,-1129.16 714.062,-951.553 682,-800 656.989,-681.775 700.929,-340.59 610,-261 566.454,-222.885 400.271,-240.714 306.815,-254.399"/>
<polygon fill="none" stroke="black" points="306.274,-250.941 296.898,-255.875 307.305,-257.864 306.274,-250.941"/>
</g>
<!-- \\AssetComponent -->
<g id="node18" class="node"><title>\\AssetComponent</title>
<polygon fill="none" stroke="black" points="1151,-1006 1041,-1006 1041,-970 1151,-970 1151,-1006"/>
<text text-anchor="middle" x="1096" y="-985.1" font-family="Courier,monospace" font-size="11.00">AssetComponent</text>
</g>
<!-- \\Component -->
<g id="node85" class="node"><title>\\Component</title>
<ellipse fill="none" stroke="black" cx="800" cy="-288" rx="70.9184" ry="18.3848"/>
<text text-anchor="middle" x="800" y="-284.4" font-family="Times Roman,serif" font-size="14.00" fill="gray">\Component</text>
</g>
<!-- \\AssetComponent&#45;&gt;\\Component -->
<g id="edge35" class="edge"><title>\\AssetComponent&#45;&gt;\\Component</title>
<path fill="none" stroke="black" d="M1040.33,-986.203C1021.75,-982.722 1002.59,-975.468 990,-961 800.34,-743.088 1110.31,-530.576 918,-315 908.225,-304.042 894.994,-297.054 880.924,-292.686"/>
<polygon fill="none" stroke="black" points="881.644,-289.256 871.08,-290.064 879.842,-296.02 881.644,-289.256"/>
</g>
<!-- \\AccessCtrlComponent -->
<g id="node19" class="node"><title>\\AccessCtrlComponent</title>
<polygon fill="none" stroke="black" points="1168,-952 1024,-952 1024,-916 1168,-916 1168,-952"/>
<text text-anchor="middle" x="1096" y="-931.1" font-family="Courier,monospace" font-size="11.00">AccessCtrlComponent</text>
</g>
<!-- \\AccessCtrlComponent&#45;&gt;\\Component -->
<g id="edge37" class="edge"><title>\\AccessCtrlComponent&#45;&gt;\\Component</title>
<path fill="none" stroke="black" d="M1023.34,-927.763C1010.68,-923.526 998.777,-916.983 990,-907 814.99,-707.945 1095.43,-511.899 918,-315 908.227,-304.155 895.069,-297.207 881.082,-292.841"/>
<polygon fill="none" stroke="black" points="881.864,-289.426 871.298,-290.214 880.049,-296.187 881.864,-289.426"/>
</g>
<!-- \\NetCommonsTimeComponent -->
<g id="node20" class="node"><title>\\NetCommonsTimeComponent</title>
<polygon fill="none" stroke="black" points="1182,-898 1010,-898 1010,-862 1182,-862 1182,-898"/>
<text text-anchor="middle" x="1096" y="-877.1" font-family="Courier,monospace" font-size="11.00">NetCommonsTimeComponent</text>
</g>
<!-- \\NetCommonsTimeComponent&#45;&gt;\\Component -->
<g id="edge39" class="edge"><title>\\NetCommonsTimeComponent&#45;&gt;\\Component</title>
<path fill="none" stroke="black" d="M1010,-868.091C1002.49,-864.247 995.618,-859.313 990,-853 829.624,-672.784 1080.57,-493.24 918,-315 908.162,-304.213 894.974,-297.293 880.979,-292.934"/>
<polygon fill="none" stroke="black" points="881.757,-289.519 871.192,-290.31 879.944,-296.281 881.757,-289.519"/>
</g>
<!-- \\PermissionComponent -->
<g id="node21" class="node"><title>\\PermissionComponent</title>
<polygon fill="none" stroke="black" points="1168,-844 1024,-844 1024,-808 1168,-808 1168,-844"/>
<text text-anchor="middle" x="1096" y="-823.1" font-family="Courier,monospace" font-size="11.00">PermissionComponent</text>
</g>
<!-- \\PermissionComponent&#45;&gt;\\Component -->
<g id="edge41" class="edge"><title>\\PermissionComponent&#45;&gt;\\Component</title>
<path fill="none" stroke="black" d="M1023.28,-819.485C1010.7,-815.262 998.846,-808.795 990,-799 844.238,-637.599 1065.73,-474.605 918,-315 908.083,-304.286 894.859,-297.398 880.853,-293.049"/>
<polygon fill="none" stroke="black" points="881.628,-289.634 871.063,-290.429 879.818,-296.396 881.628,-289.634"/>
</g>
<!-- \\NetCommonsComponent -->
<g id="node22" class="node"><title>\\NetCommonsComponent</title>
<polygon fill="none" stroke="black" points="1168,-1060 1024,-1060 1024,-1024 1168,-1024 1168,-1060"/>
<text text-anchor="middle" x="1096" y="-1039.1" font-family="Courier,monospace" font-size="11.00">NetCommonsComponent</text>
</g>
<!-- \\NetCommonsComponent&#45;&gt;\\Component -->
<g id="edge43" class="edge"><title>\\NetCommonsComponent&#45;&gt;\\Component</title>
<path fill="none" stroke="black" d="M1023.47,-1035.98C1010.71,-1031.74 998.747,-1025.14 990,-1015 785.678,-778.216 1125.2,-549.266 918,-315 908.271,-304.001 895.062,-296.994 880.998,-292.62"/>
<polygon fill="none" stroke="black" points="881.72,-289.191 871.156,-289.996 879.917,-295.955 881.72,-289.191"/>
</g>
<!-- \\SiteCloseController -->
<g id="node23" class="node"><title>\\SiteCloseController</title>
<polygon fill="none" stroke="black" points="1168,-1222 1024,-1222 1024,-1186 1168,-1186 1168,-1222"/>
<text text-anchor="middle" x="1096" y="-1201.1" font-family="Courier,monospace" font-size="11.00">SiteCloseController</text>
</g>
<!-- \\SiteCloseController&#45;&gt;\\NetCommonsAppController -->
<g id="edge45" class="edge"><title>\\SiteCloseController&#45;&gt;\\NetCommonsAppController</title>
<path fill="none" stroke="black" d="M1023.21,-1204C984.942,-1204 937.534,-1204 896.266,-1204"/>
<polygon fill="none" stroke="black" points="896.192,-1200.5 886.192,-1204 896.192,-1207.5 896.192,-1200.5"/>
</g>
<!-- \\NetCommonsController -->
<g id="node24" class="node"><title>\\NetCommonsController</title>
<polygon fill="none" stroke="black" points="1172,-1276 1020,-1276 1020,-1240 1172,-1240 1172,-1276"/>
<text text-anchor="middle" x="1096" y="-1255.1" font-family="Courier,monospace" font-size="11.00">NetCommonsController</text>
</g>
<!-- \\NetCommonsController&#45;&gt;\\NetCommonsAppController -->
<g id="edge47" class="edge"><title>\\NetCommonsController&#45;&gt;\\NetCommonsAppController</title>
<path fill="none" stroke="black" d="M1019.77,-1244.09C982.111,-1237.22 936.267,-1228.86 896.214,-1221.55"/>
<polygon fill="none" stroke="black" points="896.63,-1218.07 886.164,-1219.72 895.373,-1224.96 896.63,-1218.07"/>
</g>
<!-- \\NetCommonsUrl -->
<g id="node25" class="node"><title>\\NetCommonsUrl</title>
<polygon fill="none" stroke="black" points="1148,-2140 1044,-2140 1044,-2104 1148,-2104 1148,-2140"/>
<text text-anchor="middle" x="1096" y="-2119.1" font-family="Courier,monospace" font-size="11.00">NetCommonsUrl</text>
</g>
<!-- \\NetCommonsTime -->
<g id="node26" class="node"><title>\\NetCommonsTime</title>
<polygon fill="none" stroke="black" points="1151,-2086 1041,-2086 1041,-2050 1151,-2050 1151,-2086"/>
<text text-anchor="middle" x="1096" y="-2065.1" font-family="Courier,monospace" font-size="11.00">NetCommonsTime</text>
</g>
<!-- \\CurrentBase -->
<g id="node27" class="node"><title>\\CurrentBase</title>
<polygon fill="none" stroke="black" points="845,-2410 755,-2410 755,-2374 845,-2374 845,-2410"/>
<text text-anchor="middle" x="800" y="-2389.1" font-family="Courier,monospace" font-size="11.00">CurrentBase</text>
</g>
<!-- \\Current -->
<g id="node28" class="node"><title>\\Current</title>
<polygon fill="none" stroke="black" points="1128,-2410 1064,-2410 1064,-2374 1128,-2374 1128,-2410"/>
<text text-anchor="middle" x="1096" y="-2389.1" font-family="Courier,monospace" font-size="11.00">Current</text>
</g>
<!-- \\Current&#45;&gt;\\CurrentBase -->
<g id="edge49" class="edge"><title>\\Current&#45;&gt;\\CurrentBase</title>
<path fill="none" stroke="black" d="M1063.76,-2392C1013.9,-2392 917.444,-2392 856.016,-2392"/>
<polygon fill="none" stroke="black" points="855.723,-2388.5 845.723,-2392 855.723,-2395.5 855.723,-2388.5"/>
</g>
<!-- \\CurrentSystem -->
<g id="node29" class="node"><title>\\CurrentSystem</title>
<polygon fill="none" stroke="black" points="1148,-1978 1044,-1978 1044,-1942 1148,-1942 1148,-1978"/>
<text text-anchor="middle" x="1096" y="-1957.1" font-family="Courier,monospace" font-size="11.00">CurrentSystem</text>
</g>
<!-- \\CurrentPage -->
<g id="node30" class="node"><title>\\CurrentPage</title>
<polygon fill="none" stroke="black" points="1141,-1924 1051,-1924 1051,-1888 1141,-1888 1141,-1924"/>
<text text-anchor="middle" x="1096" y="-1903.1" font-family="Courier,monospace" font-size="11.00">CurrentPage</text>
</g>
<!-- \\CurrentFrame -->
<g id="node31" class="node"><title>\\CurrentFrame</title>
<polygon fill="none" stroke="black" points="1145,-1870 1047,-1870 1047,-1834 1145,-1834 1145,-1870"/>
<text text-anchor="middle" x="1096" y="-1849.1" font-family="Courier,monospace" font-size="11.00">CurrentFrame</text>
</g>
<!-- \\TokenHelper -->
<g id="node32" class="node"><title>\\TokenHelper</title>
<polygon fill="none" stroke="black" points="1141,-736 1051,-736 1051,-700 1141,-700 1141,-736"/>
<text text-anchor="middle" x="1096" y="-715.1" font-family="Courier,monospace" font-size="11.00">TokenHelper</text>
</g>
<!-- \\FormHelper -->
<g id="node94" class="node"><title>\\FormHelper</title>
<ellipse fill="none" stroke="black" cx="800" cy="-234" rx="70.9184" ry="18.3848"/>
<text text-anchor="middle" x="800" y="-230.4" font-family="Times Roman,serif" font-size="14.00" fill="gray">\FormHelper</text>
</g>
<!-- \\TokenHelper&#45;&gt;\\FormHelper -->
<g id="edge51" class="edge"><title>\\TokenHelper&#45;&gt;\\FormHelper</title>
<path fill="none" stroke="black" d="M1050.3,-717.334C1029.08,-714.577 1005.23,-707.563 990,-691 858.822,-548.383 1050.91,-402.002 918,-261 907.986,-250.377 894.718,-243.531 880.698,-239.194"/>
<polygon fill="none" stroke="black" points="881.468,-235.777 870.904,-236.577 879.661,-242.54 881.468,-235.777"/>
</g>
<!-- \\SingletonViewBlockHtmlHelper -->
<g id="node33" class="node"><title>\\SingletonViewBlockHtmlHelper</title>
<polygon fill="none" stroke="black" points="1199,-628 993,-628 993,-592 1199,-592 1199,-628"/>
<text text-anchor="middle" x="1096" y="-607.1" font-family="Courier,monospace" font-size="11.00">SingletonViewBlockHtmlHelper</text>
</g>
<!-- \\HtmlHelper -->
<g id="node96" class="node"><title>\\HtmlHelper</title>
<ellipse fill="none" stroke="black" cx="800" cy="-180" rx="67.1751" ry="18.3848"/>
<text text-anchor="middle" x="800" y="-176.4" font-family="Times Roman,serif" font-size="14.00" fill="gray">HtmlHelper</text>
</g>
<!-- \\SingletonViewBlockHtmlHelper&#45;&gt;\\HtmlHelper -->
<g id="edge53" class="edge"><title>\\SingletonViewBlockHtmlHelper&#45;&gt;\\HtmlHelper</title>
<path fill="none" stroke="black" d="M1000.32,-591.843C996.594,-589.252 993.124,-586.318 990,-583 873.364,-459.12 1036.14,-329.443 918,-207 906.987,-195.587 892.213,-188.556 876.851,-184.316"/>
<polygon fill="none" stroke="black" points="877.243,-180.812 866.706,-181.915 875.631,-187.624 877.243,-180.812"/>
</g>
<!-- \\FormInputHelper -->
<g id="node34" class="node"><title>\\FormInputHelper</title>
<polygon fill="none" stroke="black" points="1155,-2356 1037,-2356 1037,-2320 1155,-2320 1155,-2356"/>
<text text-anchor="middle" x="1096" y="-2335.1" font-family="Courier,monospace" font-size="11.00">FormInputHelper</text>
</g>
<!-- \\FormInputHelper&#45;&gt;\\AppHelper -->
<g id="edge55" class="edge"><title>\\FormInputHelper&#45;&gt;\\AppHelper</title>
<path fill="none" stroke="black" d="M1036.8,-2333.8C1019.89,-2329.94 1002.64,-2323.06 990,-2311 900.178,-2225.35 824.321,-1827.7 804.846,-1718.06"/>
<polygon fill="none" stroke="black" points="808.271,-1717.33 803.089,-1708.09 801.377,-1718.54 808.271,-1717.33"/>
</g>
<!-- \\WizardHelper -->
<g id="node35" class="node"><title>\\WizardHelper</title>
<polygon fill="none" stroke="black" points="1145,-2302 1047,-2302 1047,-2266 1145,-2266 1145,-2302"/>
<text text-anchor="middle" x="1096" y="-2281.1" font-family="Courier,monospace" font-size="11.00">WizardHelper</text>
</g>
<!-- \\WizardHelper&#45;&gt;\\AppHelper -->
<g id="edge57" class="edge"><title>\\WizardHelper&#45;&gt;\\AppHelper</title>
<path fill="none" stroke="black" d="M1046.83,-2281.54C1027.03,-2278.2 1005.31,-2271.22 990,-2257 906.976,-2179.9 827.402,-1822.07 805.753,-1718.29"/>
<polygon fill="none" stroke="black" points="809.129,-1717.33 803.675,-1708.25 802.274,-1718.75 809.129,-1717.33"/>
</g>
<!-- \\DisplayNumberHelper -->
<g id="node36" class="node"><title>\\DisplayNumberHelper</title>
<polygon fill="none" stroke="black" points="1168,-2248 1024,-2248 1024,-2212 1168,-2212 1168,-2248"/>
<text text-anchor="middle" x="1096" y="-2227.1" font-family="Courier,monospace" font-size="11.00">DisplayNumberHelper</text>
</g>
<!-- \\DisplayNumberHelper&#45;&gt;\\AppHelper -->
<g id="edge59" class="edge"><title>\\DisplayNumberHelper&#45;&gt;\\AppHelper</title>
<path fill="none" stroke="black" d="M1023.45,-2221.5C1011.23,-2217.42 999.458,-2211.51 990,-2203 840.377,-2068.36 808.271,-1805.05 801.651,-1718.4"/>
<polygon fill="none" stroke="black" points="805.132,-1718 800.934,-1708.27 798.149,-1718.49 805.132,-1718"/>
</g>
<!-- \\MessageFlashHelper -->
<g id="node37" class="node"><title>\\MessageFlashHelper</title>
<polygon fill="none" stroke="black" points="1165,-2194 1027,-2194 1027,-2158 1165,-2158 1165,-2194"/>
<text text-anchor="middle" x="1096" y="-2173.1" font-family="Courier,monospace" font-size="11.00">MessageFlashHelper</text>
</g>
<!-- \\MessageFlashHelper&#45;&gt;\\AppHelper -->
<g id="edge61" class="edge"><title>\\MessageFlashHelper&#45;&gt;\\AppHelper</title>
<path fill="none" stroke="black" d="M1026.73,-2168.17C1013.42,-2164.09 1000.41,-2158.01 990,-2149 853.654,-2030.89 813.273,-1799.37 803.061,-1718.61"/>
<polygon fill="none" stroke="black" points="806.483,-1717.75 801.813,-1708.24 799.533,-1718.59 806.483,-1717.75"/>
</g>
<!-- \\DateHelper -->
<g id="node38" class="node"><title>\\DateHelper</title>
<polygon fill="none" stroke="black" points="1138,-2032 1054,-2032 1054,-1996 1138,-1996 1138,-2032"/>
<text text-anchor="middle" x="1096" y="-2011.1" font-family="Courier,monospace" font-size="11.00">DateHelper</text>
</g>
<!-- \\DateHelper&#45;&gt;\\AppHelper -->
<g id="edge63" class="edge"><title>\\DateHelper&#45;&gt;\\AppHelper</title>
<path fill="none" stroke="black" d="M1053.94,-2010.58C1033.12,-2007.17 1008.55,-2000.4 990,-1987 891.496,-1915.85 831.51,-1776.45 809.538,-1717.44"/>
<polygon fill="none" stroke="black" points="812.821,-1716.23 806.106,-1708.03 806.245,-1718.63 812.821,-1716.23"/>
</g>
<!-- \\SnsButtonHelper -->
<g id="node39" class="node"><title>\\SnsButtonHelper</title>
<polygon fill="none" stroke="black" points="1155,-1816 1037,-1816 1037,-1780 1155,-1780 1155,-1816"/>
<text text-anchor="middle" x="1096" y="-1795.1" font-family="Courier,monospace" font-size="11.00">SnsButtonHelper</text>
</g>
<!-- \\SnsButtonHelper&#45;&gt;\\AppHelper -->
<g id="edge65" class="edge"><title>\\SnsButtonHelper&#45;&gt;\\AppHelper</title>
<path fill="none" stroke="black" d="M1036.94,-1784.66C1021.52,-1780.72 1005.02,-1776.08 990,-1771 940.054,-1754.1 884.802,-1729.9 846.816,-1712.35"/>
<polygon fill="none" stroke="black" points="848.088,-1709.08 837.544,-1708.04 845.138,-1715.43 848.088,-1709.08"/>
</g>
<!-- \\BackToHelper -->
<g id="node40" class="node"><title>\\BackToHelper</title>
<polygon fill="none" stroke="black" points="1145,-1762 1047,-1762 1047,-1726 1145,-1726 1145,-1762"/>
<text text-anchor="middle" x="1096" y="-1741.1" font-family="Courier,monospace" font-size="11.00">BackToHelper</text>
</g>
<!-- \\BackToHelper&#45;&gt;\\AppHelper -->
<g id="edge67" class="edge"><title>\\BackToHelper&#45;&gt;\\AppHelper</title>
<path fill="none" stroke="black" d="M1046.79,-1735.02C991.964,-1725.02 903.851,-1708.95 849.079,-1698.95"/>
<polygon fill="none" stroke="black" points="849.388,-1695.45 838.922,-1697.1 848.132,-1702.34 849.388,-1695.45"/>
</g>
<!-- \\NetCommonsHtmlHelper -->
<g id="node41" class="node"><title>\\NetCommonsHtmlHelper</title>
<polygon fill="none" stroke="black" points="1172,-1708 1020,-1708 1020,-1672 1172,-1672 1172,-1708"/>
<text text-anchor="middle" x="1096" y="-1687.1" font-family="Courier,monospace" font-size="11.00">NetCommonsHtmlHelper</text>
</g>
<!-- \\NetCommonsHtmlHelper&#45;&gt;\\AppHelper -->
<g id="edge69" class="edge"><title>\\NetCommonsHtmlHelper&#45;&gt;\\AppHelper</title>
<path fill="none" stroke="black" d="M1019.77,-1690C965.946,-1690 895.407,-1690 848.946,-1690"/>
<polygon fill="none" stroke="black" points="848.835,-1686.5 838.835,-1690 848.835,-1693.5 848.835,-1686.5"/>
</g>
<!-- \\ButtonHelper -->
<g id="node42" class="node"><title>\\ButtonHelper</title>
<polygon fill="none" stroke="black" points="1145,-682 1047,-682 1047,-646 1145,-646 1145,-682"/>
<text text-anchor="middle" x="1096" y="-661.1" font-family="Courier,monospace" font-size="11.00">ButtonHelper</text>
</g>
<!-- \\ButtonHelper&#45;&gt;\\FormHelper -->
<g id="edge71" class="edge"><title>\\ButtonHelper&#45;&gt;\\FormHelper</title>
<path fill="none" stroke="black" d="M1046.95,-662.681C1026.69,-659.589 1004.58,-652.486 990,-637 873.364,-513.12 1036.14,-383.443 918,-261 907.863,-250.494 894.538,-243.702 880.502,-239.381"/>
<polygon fill="none" stroke="black" points="881.266,-235.962 870.702,-236.77 879.464,-242.726 881.266,-235.962"/>
</g>
<!-- \\ComposerHelper -->
<g id="node43" class="node"><title>\\ComposerHelper</title>
<polygon fill="none" stroke="black" points="1151,-1654 1041,-1654 1041,-1618 1151,-1618 1151,-1654"/>
<text text-anchor="middle" x="1096" y="-1633.1" font-family="Courier,monospace" font-size="11.00">ComposerHelper</text>
</g>
<!-- \\ComposerHelper&#45;&gt;\\AppHelper -->
<g id="edge73" class="edge"><title>\\ComposerHelper&#45;&gt;\\AppHelper</title>
<path fill="none" stroke="black" d="M1040.32,-1646.16C985.217,-1656.21 901.675,-1671.45 849.012,-1681.06"/>
<polygon fill="none" stroke="black" points="848.118,-1677.66 838.908,-1682.9 849.374,-1684.55 848.118,-1677.66"/>
</g>
<!-- \\LinkButtonHelper -->
<g id="node44" class="node"><title>\\LinkButtonHelper</title>
<polygon fill="none" stroke="black" points="1158,-790 1034,-790 1034,-754 1158,-754 1158,-790"/>
<text text-anchor="middle" x="1096" y="-769.1" font-family="Courier,monospace" font-size="11.00">LinkButtonHelper</text>
</g>
<!-- \\LinkButtonHelper&#45;&gt;\\FormHelper -->
<g id="edge75" class="edge"><title>\\LinkButtonHelper&#45;&gt;\\FormHelper</title>
<path fill="none" stroke="black" d="M1033.44,-768.402C1017.23,-764.469 1001.2,-757.402 990,-745 844.238,-583.599 1065.73,-420.605 918,-261 908.083,-250.286 894.859,-243.398 880.853,-239.049"/>
<polygon fill="none" stroke="black" points="881.628,-235.634 871.063,-236.429 879.818,-242.396 881.628,-235.634"/>
</g>
<!-- \\TableListHelper -->
<g id="node45" class="node"><title>\\TableListHelper</title>
<polygon fill="none" stroke="black" points="1155,-1600 1037,-1600 1037,-1564 1155,-1564 1155,-1600"/>
<text text-anchor="middle" x="1096" y="-1579.1" font-family="Courier,monospace" font-size="11.00">TableListHelper</text>
</g>
<!-- \\TableListHelper&#45;&gt;\\AppHelper -->
<g id="edge77" class="edge"><title>\\TableListHelper&#45;&gt;\\AppHelper</title>
<path fill="none" stroke="black" d="M1036.94,-1595.34C1021.52,-1599.28 1005.02,-1603.92 990,-1609 940.054,-1625.9 884.802,-1650.1 846.816,-1667.65"/>
<polygon fill="none" stroke="black" points="845.138,-1664.57 837.544,-1671.96 848.088,-1670.92 845.138,-1664.57"/>
</g>
<!-- \\NetCommonsTimeHelper -->
<g id="node46" class="node"><title>\\NetCommonsTimeHelper</title>
<polygon fill="none" stroke="black" points="1172,-1546 1020,-1546 1020,-1510 1172,-1510 1172,-1546"/>
<text text-anchor="middle" x="1096" y="-1525.1" font-family="Courier,monospace" font-size="11.00">NetCommonsTimeHelper</text>
</g>
<!-- \\NetCommonsTimeHelper&#45;&gt;\\AppHelper -->
<g id="edge79" class="edge"><title>\\NetCommonsTimeHelper&#45;&gt;\\AppHelper</title>
<path fill="none" stroke="black" d="M1019.82,-1543.77C1009.59,-1546.93 999.392,-1550.65 990,-1555 927.109,-1584.12 863.327,-1634.7 827.995,-1664.99"/>
<polygon fill="none" stroke="black" points="825.328,-1662.67 820.061,-1671.87 829.911,-1667.96 825.328,-1662.67"/>
</g>
<!-- \\NetCommonsFormHelper -->
<g id="node47" class="node"><title>\\NetCommonsFormHelper</title>
<polygon fill="none" stroke="black" points="1172,-1492 1020,-1492 1020,-1456 1172,-1456 1172,-1492"/>
<text text-anchor="middle" x="1096" y="-1471.1" font-family="Courier,monospace" font-size="11.00">NetCommonsFormHelper</text>
</g>
<!-- \\NetCommonsFormHelper&#45;&gt;\\AppHelper -->
<g id="edge81" class="edge"><title>\\NetCommonsFormHelper&#45;&gt;\\AppHelper</title>
<path fill="none" stroke="black" d="M1019.93,-1488.08C1009.52,-1491.51 999.25,-1495.75 990,-1501 915.574,-1543.23 850.021,-1622.33 819.006,-1663.53"/>
<polygon fill="none" stroke="black" points="816.076,-1661.6 812.921,-1671.72 821.695,-1665.78 816.076,-1661.6"/>
</g>
<!-- \\TitleIconHelper -->
<g id="node48" class="node"><title>\\TitleIconHelper</title>
<polygon fill="none" stroke="black" points="1155,-1438 1037,-1438 1037,-1402 1155,-1402 1155,-1438"/>
<text text-anchor="middle" x="1096" y="-1417.1" font-family="Courier,monospace" font-size="11.00">TitleIconHelper</text>
</g>
<!-- \\TitleIconHelper&#45;&gt;\\AppHelper -->
<g id="edge83" class="edge"><title>\\TitleIconHelper&#45;&gt;\\AppHelper</title>
<path fill="none" stroke="black" d="M1036.77,-1427.89C1020.7,-1431.89 1003.91,-1437.92 990,-1447 903.846,-1503.24 839.996,-1611.92 813.495,-1662.66"/>
<polygon fill="none" stroke="black" points="810.297,-1661.23 808.84,-1671.72 816.523,-1664.43 810.297,-1661.23"/>
</g>
<!-- \\DatetimePickerHelper -->
<g id="node49" class="node"><title>\\DatetimePickerHelper</title>
<polygon fill="none" stroke="black" points="1172,-1384 1020,-1384 1020,-1348 1172,-1348 1172,-1384"/>
<text text-anchor="middle" x="1096" y="-1363.1" font-family="Courier,monospace" font-size="11.00">DatetimePickerHelper</text>
</g>
<!-- \\DatetimePickerHelper&#45;&gt;\\AppHelper -->
<g id="edge85" class="edge"><title>\\DatetimePickerHelper&#45;&gt;\\AppHelper</title>
<path fill="none" stroke="black" d="M1019.88,-1377.9C1009.25,-1381.64 998.929,-1386.55 990,-1393 891.496,-1464.15 831.51,-1603.55 809.538,-1662.56"/>
<polygon fill="none" stroke="black" points="806.245,-1661.37 806.106,-1671.97 812.821,-1663.77 806.245,-1661.37"/>
</g>
<!-- \\Model -->
<g id="node114" class="node"><title>\\Model</title>
<ellipse fill="none" stroke="black" cx="44" cy="-2797" rx="43.8406" ry="18.3848"/>
<text text-anchor="middle" x="44" y="-2793.4" font-family="Times Roman,serif" font-size="14.00" fill="gray">\Model</text>
</g>
<!-- \\NetCommonsAppModel&#45;&gt;\\Model -->
<g id="edge87" class="edge"><title>\\NetCommonsAppModel&#45;&gt;\\Model</title>
<path fill="none" stroke="black" d="M172.749,-2797C148.379,-2797 121.357,-2797 98.3871,-2797"/>
<polygon fill="none" stroke="black" points="98.1425,-2793.5 88.1425,-2797 98.1424,-2800.5 98.1425,-2793.5"/>
</g>
<!-- \\OriginalKeyBehavior -->
<g id="node51" class="node"><title>\\OriginalKeyBehavior</title>
<polygon fill="none" stroke="black" points="1168,-574 1024,-574 1024,-538 1168,-538 1168,-574"/>
<text text-anchor="middle" x="1096" y="-553.1" font-family="Courier,monospace" font-size="11.00">OriginalKeyBehavior</text>
</g>
<!-- \\ModelBehavior -->
<g id="node116" class="node"><title>\\ModelBehavior</title>
<ellipse fill="none" stroke="black" cx="800" cy="-126" rx="86.9741" ry="18.3848"/>
<text text-anchor="middle" x="800" y="-122.4" font-family="Times Roman,serif" font-size="14.00" fill="gray">\ModelBehavior</text>
</g>
<!-- \\OriginalKeyBehavior&#45;&gt;\\ModelBehavior -->
<g id="edge89" class="edge"><title>\\OriginalKeyBehavior&#45;&gt;\\ModelBehavior</title>
<path fill="none" stroke="black" d="M1023.33,-549.099C1010.82,-544.899 998.982,-538.54 990,-529 873.364,-405.12 1036.14,-275.443 918,-153 910.646,-145.379 901.615,-139.712 891.852,-135.525"/>
<polygon fill="none" stroke="black" points="892.89,-132.176 882.298,-131.949 890.436,-138.732 892.89,-132.176"/>
</g>
<!-- \\TrackableBehavior -->
<g id="node52" class="node"><title>\\TrackableBehavior</title>
<polygon fill="none" stroke="black" points="1161,-520 1031,-520 1031,-484 1161,-484 1161,-520"/>
<text text-anchor="middle" x="1096" y="-499.1" font-family="Courier,monospace" font-size="11.00">TrackableBehavior</text>
</g>
<!-- \\TrackableBehavior&#45;&gt;\\ModelBehavior -->
<g id="edge91" class="edge"><title>\\TrackableBehavior&#45;&gt;\\ModelBehavior</title>
<path fill="none" stroke="black" d="M1030.42,-496.945C1015.44,-492.874 1000.78,-486.104 990,-475 887.843,-369.792 1021.44,-256.95 918,-153 910.53,-145.493 901.428,-139.895 891.627,-135.745"/>
<polygon fill="none" stroke="black" points="892.638,-132.388 882.045,-132.196 890.207,-138.952 892.638,-132.388"/>
</g>
<!-- \\YAExceptionRenderer -->
<g id="node53" class="node"><title>\\YAExceptionRenderer</title>
<polygon fill="none" stroke="black" points="1168,-466 1024,-466 1024,-430 1168,-430 1168,-466"/>
<text text-anchor="middle" x="1096" y="-445.1" font-family="Courier,monospace" font-size="11.00">YAExceptionRenderer</text>
</g>
<!-- \\ExceptionRenderer -->
<g id="node119" class="node"><title>\\ExceptionRenderer</title>
<ellipse fill="none" stroke="black" cx="800" cy="-72" rx="118.087" ry="18.3848"/>
<text text-anchor="middle" x="800" y="-68.4" font-family="Times Roman,serif" font-size="14.00" fill="gray">TEHxceptionRenderer</text>
</g>
<!-- \\YAExceptionRenderer&#45;&gt;\\ExceptionRenderer -->
<g id="edge93" class="edge"><title>\\YAExceptionRenderer&#45;&gt;\\ExceptionRenderer</title>
<path fill="none" stroke="black" d="M1023.29,-440.784C1010.86,-436.604 999.062,-430.333 990,-421 887.843,-315.792 1021.44,-202.95 918,-99 913.632,-94.61 908.706,-90.873 903.408,-87.6967"/>
<polygon fill="none" stroke="black" points="904.657,-84.4002 894.174,-82.8643 901.411,-90.6022 904.657,-84.4002"/>
</g>
<!-- \\NetCommonsMigration -->
<g id="node54" class="node"><title>\\NetCommonsMigration</title>
<polygon fill="none" stroke="black" points="872,-791 728,-791 728,-755 872,-755 872,-791"/>
<text text-anchor="middle" x="800" y="-770.1" font-family="Courier,monospace" font-size="11.00">NetCommonsMigration</text>
</g>
<!-- \\CakeMigration -->
<g id="node121" class="node"><title>\\CakeMigration</title>
<ellipse fill="none" stroke="black" cx="503" cy="-196" rx="84.8528" ry="18.3848"/>
<text text-anchor="middle" x="503" y="-192.4" font-family="Times Roman,serif" font-size="14.00" fill="gray">\CakeMigration</text>
</g>
<!-- \\NetCommonsMigration&#45;&gt;\\CakeMigration -->
<g id="edge95" class="edge"><title>\\NetCommonsMigration&#45;&gt;\\CakeMigration</title>
<path fill="none" stroke="black" d="M727.215,-773.527C710.337,-770.15 693.865,-763.442 682,-751 520.075,-581.192 762.678,-406.168 610,-228 603.164,-220.023 594.428,-213.988 584.903,-209.433"/>
<polygon fill="none" stroke="black" points="586.14,-206.156 575.566,-205.502 583.425,-212.608 586.14,-206.156"/>
</g>
<!-- \\UserManagerController -->
<g id="node55" class="node"><title>\\UserManagerController</title>
<polygon fill="none" stroke="black" points="1175,-2572 1017,-2572 1017,-2536 1175,-2536 1175,-2572"/>
<text text-anchor="middle" x="1096" y="-2551.1" font-family="Courier,monospace" font-size="11.00">UserManagerController</text>
</g>
<!-- \\UserManagerAppController -->
<g id="node56" class="node"><title>\\UserManagerAppController</title>
<polygon fill="none" stroke="black" points="889,-2491 711,-2491 711,-2455 889,-2455 889,-2491"/>
<text text-anchor="middle" x="800" y="-2470.1" font-family="Courier,monospace" font-size="11.00">UserManagerAppController</text>
</g>
<!-- \\UserManagerController&#45;&gt;\\UserManagerAppController -->
<g id="edge97" class="edge"><title>\\UserManagerController&#45;&gt;\\UserManagerAppController</title>
<path fill="none" stroke="black" d="M1024.09,-2535.97C1012.67,-2533.02 1001,-2529.96 990,-2527 950.805,-2516.44 907.234,-2504.1 871.714,-2493.88"/>
<polygon fill="none" stroke="black" points="872.498,-2490.47 861.92,-2491.06 870.56,-2497.19 872.498,-2490.47"/>
</g>
<!-- \\UserManagerAppController&#45;&gt;\\AppController -->
<g id="edge99" class="edge"><title>\\UserManagerAppController&#45;&gt;\\AppController</title>
<path fill="none" stroke="black" d="M732.143,-2454.91C713.359,-2446.8 694.671,-2435.26 682,-2419 562.368,-2265.48 514.128,-1620.29 504.756,-1476.49"/>
<polygon fill="none" stroke="black" points="508.235,-1476.05 504.103,-1466.29 501.25,-1476.49 508.235,-1476.05"/>
</g>
<!-- \\UserMailController -->
<g id="node57" class="node"><title>\\UserMailController</title>
<polygon fill="none" stroke="black" points="1165,-2518 1027,-2518 1027,-2482 1165,-2482 1165,-2518"/>
<text text-anchor="middle" x="1096" y="-2497.1" font-family="Courier,monospace" font-size="11.00">UserMailController</text>
</g>
<!-- \\UserMailController&#45;&gt;\\UserManagerAppController -->
<g id="edge101" class="edge"><title>\\UserMailController&#45;&gt;\\UserManagerAppController</title>
<path fill="none" stroke="black" d="M1026.97,-2493.7C989.177,-2490.26 941.661,-2485.92 899.884,-2482.11"/>
<polygon fill="none" stroke="black" points="899.952,-2478.6 889.675,-2481.18 899.316,-2485.57 899.952,-2478.6"/>
</g>
<!-- \\UsersRolesRoomsController -->
<g id="node58" class="node"><title>\\UsersRolesRoomsController</title>
<polygon fill="none" stroke="black" points="1188,-2464 1004,-2464 1004,-2428 1188,-2428 1188,-2464"/>
<text text-anchor="middle" x="1096" y="-2443.1" font-family="Courier,monospace" font-size="11.00">UsersRolesRoomsController</text>
</g>
<!-- \\UsersRolesRoomsController&#45;&gt;\\UserManagerAppController -->
<g id="edge103" class="edge"><title>\\UsersRolesRoomsController&#45;&gt;\\UserManagerAppController</title>
<path fill="none" stroke="black" d="M1003.16,-2454.47C970.352,-2457.46 933.328,-2460.84 899.96,-2463.88"/>
<polygon fill="none" stroke="black" points="899.371,-2460.42 889.73,-2464.82 900.007,-2467.39 899.371,-2460.42"/>
</g>
<!-- \\UserMail -->
<g id="node59" class="node"><title>\\UserMail</title>
<polygon fill="none" stroke="black" points="1131,-2842 1061,-2842 1061,-2806 1131,-2806 1131,-2842"/>
<text text-anchor="middle" x="1096" y="-2821.1" font-family="Courier,monospace" font-size="11.00">UserMail</text>
</g>
<!-- \\UserManagerAppModel -->
<g id="node60" class="node"><title>\\UserManagerAppModel</title>
<polygon fill="none" stroke="black" points="872,-2842 728,-2842 728,-2806 872,-2806 872,-2842"/>
<text text-anchor="middle" x="800" y="-2821.1" font-family="Courier,monospace" font-size="11.00">UserManagerAppModel</text>
</g>
<!-- \\UserMail&#45;&gt;\\UserManagerAppModel -->
<g id="edge105" class="edge"><title>\\UserMail&#45;&gt;\\UserManagerAppModel</title>
<path fill="none" stroke="black" d="M1060.3,-2824C1016.63,-2824 941.342,-2824 882.932,-2824"/>
<polygon fill="none" stroke="black" points="882.604,-2820.5 872.604,-2824 882.604,-2827.5 882.604,-2820.5"/>
</g>
<!-- \\UserManagerAppModel&#45;&gt;\\AppModel -->
<g id="edge107" class="edge"><title>\\UserManagerAppModel&#45;&gt;\\AppModel</title>
<path fill="none" stroke="black" d="M727.346,-2817.4C671.508,-2812.32 596.115,-2805.47 548.522,-2801.14"/>
<polygon fill="none" stroke="black" points="548.789,-2797.65 538.513,-2800.23 548.155,-2804.62 548.789,-2797.65"/>
</g>
<!-- \\UserManagerMailSettingRecords -->
<g id="node61" class="node"><title>\\UserManagerMailSettingRecords</title>
<polygon fill="none" stroke="black" points="1202,-412 990,-412 990,-376 1202,-376 1202,-412"/>
<text text-anchor="middle" x="1096" y="-391.1" font-family="Courier,monospace" font-size="11.00">UserManagerMailSettingRecords</text>
</g>
<!-- \\MailsMigration -->
<g id="node129" class="node"><title>\\MailsMigration</title>
<ellipse fill="none" stroke="black" cx="800" cy="-18" rx="85.0596" ry="18.3848"/>
<text text-anchor="middle" x="800" y="-14.4" font-family="Times Roman,serif" font-size="14.00" fill="gray">\MailsMigration</text>
</g>
<!-- \\UserManagerMailSettingRecords&#45;&gt;\\MailsMigration -->
<g id="edge109" class="edge"><title>\\UserManagerMailSettingRecords&#45;&gt;\\MailsMigration</title>
<path fill="none" stroke="black" d="M1092.38,-375.718C1079.83,-317.38 1032.54,-134.268 918,-45 908.962,-37.9556 898.42,-32.6872 887.426,-28.7577"/>
<polygon fill="none" stroke="black" points="888.265,-25.3515 877.674,-25.6383 886.133,-32.0187 888.265,-25.3515"/>
</g>
<!-- \\PluginRecords -->
<g id="node62" class="node"><title>\\PluginRecords</title>
<polygon fill="none" stroke="black" points="1148,-1168 1044,-1168 1044,-1132 1148,-1132 1148,-1168"/>
<text text-anchor="middle" x="1096" y="-1147.1" font-family="Courier,monospace" font-size="11.00">PluginRecords</text>
</g>
<!-- \\PluginRecords&#45;&gt;\\NetCommonsMigration -->
<g id="edge111" class="edge"><title>\\PluginRecords&#45;&gt;\\NetCommonsMigration</title>
<path fill="none" stroke="black" d="M1043.94,-1145.42C1025.41,-1141.67 1005.36,-1134.96 990,-1123 879.431,-1036.93 824.852,-867.794 806.908,-801.045"/>
<polygon fill="none" stroke="black" points="810.26,-800.026 804.34,-791.239 803.488,-801.8 810.26,-800.026"/>
</g>
</g>
</svg>
