<?xml version="1.0" encoding="UTF-8" standalone="no"?>
<!DOCTYPE svg PUBLIC "-//W3C//DTD SVG 1.1//EN"
 "http://www.w3.org/Graphics/SVG/1.1/DTD/svg11.dtd">
<!-- Generated by graphviz version 2.26.3 (20100126.1600)
 -->
<!-- Title: G Pages: 1 -->
<svg width="1226pt" height="2780pt"
 viewBox="0.00 0.00 1226.00 2780.00" xmlns="http://www.w3.org/2000/svg" xmlns:xlink="http://www.w3.org/1999/xlink">
<g id="graph1" class="graph" transform="scale(1 1) rotate(0) translate(4 2776)">
<title>G</title>
<polygon fill="white" stroke="white" points="-4,5 -4,-2776 1223,-2776 1223,5 -4,5"/>
<g id="graph2" class="cluster"><title>cluster_Global</title>
<polyline fill="none" stroke="gray" points="177,-368 1198,-368 "/>
<path fill="none" stroke="gray" d="M1198,-368C1204,-368 1210,-374 1210,-380"/>
<polyline fill="none" stroke="gray" points="1210,-380 1210,-2752 "/>
<path fill="none" stroke="gray" d="M1210,-2752C1210,-2758 1204,-2764 1198,-2764"/>
<polyline fill="none" stroke="gray" points="1198,-2764 177,-2764 "/>
<path fill="none" stroke="gray" d="M177,-2764C171,-2764 165,-2758 165,-2752"/>
<polyline fill="none" stroke="gray" points="165,-2752 165,-380 "/>
<path fill="none" stroke="gray" d="M165,-380C165,-374 171,-368 177,-368"/>
<text text-anchor="middle" x="687.5" y="-2750.1" font-family="Times Roman,serif" font-size="11.00" fill="gray">Global</text>
</g>
<!-- \\AppController -->
<g id="node2" class="node"><title>\\AppController</title>
<polygon fill="none" stroke="black" points="555,-1412 451,-1412 451,-1376 555,-1376 555,-1412"/>
<text text-anchor="middle" x="503" y="-1391.1" font-family="Courier,monospace" font-size="11.00">AppController</text>
</g>
<!-- \\Controller -->
<g id="node62" class="node"><title>\\Controller</title>
<ellipse fill="none" stroke="black" cx="242" cy="-265" rx="63.1385" ry="18.3848"/>
<text text-anchor="middle" x="242" y="-261.4" font-family="Times Roman,serif" font-size="14.00" fill="gray">\Controller</text>
</g>
<!-- \\AppController&#45;&gt;\\Controller -->
<g id="edge3" class="edge"><title>\\AppController&#45;&gt;\\Controller</title>
<path fill="none" stroke="black" d="M450.851,-1395.94C430.82,-1393.81 409.537,-1387.5 396,-1372 241.111,-1194.69 446.178,-516.249 324,-315 316.056,-301.914 303.262,-291.783 290.12,-284.171"/>
<polygon fill="none" stroke="black" points="291.489,-280.934 281.021,-279.298 288.184,-287.105 291.489,-280.934"/>
</g>
<!-- \\AppModel -->
<g id="node3" class="node"><title>\\AppModel</title>
<polygon fill="none" stroke="black" points="538,-2707 468,-2707 468,-2671 538,-2671 538,-2707"/>
<text text-anchor="middle" x="503" y="-2686.1" font-family="Courier,monospace" font-size="11.00">AppModel</text>
</g>
<!-- \\NetCommonsAppModel -->
<g id="node48" class="node"><title>\\NetCommonsAppModel</title>
<polygon fill="none" stroke="black" points="311,-2707 173,-2707 173,-2671 311,-2671 311,-2707"/>
<text text-anchor="middle" x="242" y="-2686.1" font-family="Courier,monospace" font-size="11.00">NetCommonsAppModel</text>
</g>
<!-- \\AppModel&#45;&gt;\\NetCommonsAppModel -->
<g id="edge5" class="edge"><title>\\AppModel&#45;&gt;\\NetCommonsAppModel</title>
<path fill="none" stroke="black" d="M467.256,-2689C429.848,-2689 369.903,-2689 321.254,-2689"/>
<polygon fill="none" stroke="black" points="321.056,-2685.5 311.056,-2689 321.056,-2692.5 321.056,-2685.5"/>
</g>
<!-- \\DatabaseConfiguration -->
<g id="node4" class="node"><title>\\DatabaseConfiguration</title>
<polygon fill="none" stroke="black" points="879,-2680 721,-2680 721,-2644 879,-2644 879,-2680"/>
<text text-anchor="middle" x="800" y="-2659.1" font-family="Courier,monospace" font-size="11.00">DatabaseConfiguration</text>
</g>
<!-- \\DatabaseConfiguration&#45;&gt;\\AppModel -->
<g id="edge7" class="edge"><title>\\DatabaseConfiguration&#45;&gt;\\AppModel</title>
<path fill="none" stroke="black" d="M720.8,-2669.2C665.959,-2674.19 594.863,-2680.65 549.084,-2684.81"/>
<polygon fill="none" stroke="black" points="548.509,-2681.35 538.867,-2685.74 549.143,-2688.32 548.509,-2681.35"/>
</g>
<!-- \\AppHelper -->
<g id="node5" class="node"><title>\\AppHelper</title>
<polygon fill="none" stroke="black" points="838,-1600 762,-1600 762,-1564 838,-1564 838,-1600"/>
<text text-anchor="middle" x="800" y="-1579.1" font-family="Courier,monospace" font-size="11.00">AppHelper</text>
</g>
<!-- \\Helper -->
<g id="node66" class="node"><title>\\Helper</title>
<ellipse fill="none" stroke="black" cx="503" cy="-342" rx="43.8406" ry="18.3848"/>
<text text-anchor="middle" x="503" y="-338.4" font-family="Times Roman,serif" font-size="14.00" fill="gray">Helper</text>
</g>
<!-- \\AppHelper&#45;&gt;\\Helper -->
<g id="edge9" class="edge"><title>\\AppHelper&#45;&gt;\\Helper</title>
<path fill="none" stroke="black" d="M792.119,-1563.79C770.33,-1512.55 709.101,-1362.27 682,-1231 642.913,-1041.66 738.267,-508.652 610,-364 596.767,-349.077 576.349,-342.702 556.882,-340.371"/>
<polygon fill="none" stroke="black" points="557.097,-336.876 546.832,-339.496 556.491,-343.85 557.097,-336.876"/>
</g>
<!-- \\NetCommonsDeleteTest -->
<g id="node6" class="node"><title>\\NetCommonsDeleteTest</title>
<polygon fill="none" stroke="black" points="1172,-2518 1020,-2518 1020,-2482 1172,-2482 1172,-2518"/>
<text text-anchor="middle" x="1096" y="-2497.1" font-family="Courier,monospace" font-size="11.00">NetCommonsDeleteTest</text>
</g>
<!-- \\NetCommonsModelTestCase -->
<g id="node15" class="node"><title>\\NetCommonsModelTestCase</title>
<polygon fill="none" stroke="black" points="886,-2518 714,-2518 714,-2482 886,-2482 886,-2518"/>
<text text-anchor="middle" x="800" y="-2497.1" font-family="Courier,monospace" font-size="11.00">NetCommonsModelTestCase</text>
</g>
<!-- \\NetCommonsDeleteTest&#45;&gt;\\NetCommonsModelTestCase -->
<g id="edge11" class="edge"><title>\\NetCommonsDeleteTest&#45;&gt;\\NetCommonsModelTestCase</title>
<path fill="none" stroke="black" d="M1019.77,-2500C982.111,-2500 936.267,-2500 896.214,-2500"/>
<polygon fill="none" stroke="black" points="896.164,-2496.5 886.164,-2500 896.164,-2503.5 896.164,-2496.5"/>
</g>
<!-- \\NetCommonsConsoleTestCase -->
<g id="node7" class="node"><title>\\NetCommonsConsoleTestCase</title>
<polygon fill="none" stroke="black" points="892,-2626 708,-2626 708,-2590 892,-2590 892,-2626"/>
<text text-anchor="middle" x="800" y="-2605.1" font-family="Courier,monospace" font-size="11.00">NetCommonsConsoleTestCase</text>
</g>
<!-- \\NetCommonsCakeTestCase -->
<g id="node13" class="node"><title>\\NetCommonsCakeTestCase</title>
<polygon fill="none" stroke="black" points="585,-2545 421,-2545 421,-2509 585,-2509 585,-2545"/>
<text text-anchor="middle" x="503" y="-2524.1" font-family="Courier,monospace" font-size="11.00">NetCommonsCakeTestCase</text>
</g>
<!-- \\NetCommonsConsoleTestCase&#45;&gt;\\NetCommonsCakeTestCase -->
<g id="edge13" class="edge"><title>\\NetCommonsConsoleTestCase&#45;&gt;\\NetCommonsCakeTestCase</title>
<path fill="none" stroke="black" d="M717.936,-2589.98C705.852,-2587.11 693.579,-2584.07 682,-2581 644.303,-2571.01 602.565,-2558.51 568.882,-2548.05"/>
<polygon fill="none" stroke="black" points="569.742,-2544.65 559.154,-2545.01 567.658,-2551.33 569.742,-2544.65"/>
</g>
<!-- \\NetCommonsGetTest -->
<g id="node8" class="node"><title>\\NetCommonsGetTest</title>
<polygon fill="none" stroke="black" points="1161,-2680 1031,-2680 1031,-2644 1161,-2644 1161,-2680"/>
<text text-anchor="middle" x="1096" y="-2659.1" font-family="Courier,monospace" font-size="11.00">NetCommonsGetTest</text>
</g>
<!-- \\NetCommonsGetTest&#45;&gt;\\NetCommonsModelTestCase -->
<g id="edge15" class="edge"><title>\\NetCommonsGetTest&#45;&gt;\\NetCommonsModelTestCase</title>
<path fill="none" stroke="black" d="M1030.23,-2653.17C1016.09,-2649.18 1001.86,-2643.39 990,-2635 942.918,-2601.66 965.486,-2559.76 918,-2527 911.099,-2522.24 903.484,-2518.31 895.545,-2515.06"/>
<polygon fill="none" stroke="black" points="896.692,-2511.75 886.099,-2511.56 894.256,-2518.32 896.692,-2511.75"/>
</g>
<!-- \\NetCommonsHelperTestCase -->
<g id="node9" class="node"><title>\\NetCommonsHelperTestCase</title>
<polygon fill="none" stroke="black" points="889,-2572 711,-2572 711,-2536 889,-2536 889,-2572"/>
<text text-anchor="middle" x="800" y="-2551.1" font-family="Courier,monospace" font-size="11.00">NetCommonsHelperTestCase</text>
</g>
<!-- \\NetCommonsHelperTestCase&#45;&gt;\\NetCommonsCakeTestCase -->
<g id="edge17" class="edge"><title>\\NetCommonsHelperTestCase&#45;&gt;\\NetCommonsCakeTestCase</title>
<path fill="none" stroke="black" d="M710.487,-2545.86C674.267,-2542.57 632.456,-2538.77 595.9,-2535.45"/>
<polygon fill="none" stroke="black" points="596.013,-2531.94 585.737,-2534.52 595.379,-2538.91 596.013,-2531.94"/>
</g>
<!-- \\NetCommonsControllerBaseTestCase -->
<g id="node10" class="node"><title>\\NetCommonsControllerBaseTestCase</title>
<polygon fill="none" stroke="black" points="916,-1222 684,-1222 684,-1186 916,-1186 916,-1222"/>
<text text-anchor="middle" x="800" y="-1201.1" font-family="Courier,monospace" font-size="11.00">NetCommonsControllerBaseTestCase</text>
</g>
<!-- \\ControllerTestCase -->
<g id="node72" class="node"><title>\\ControllerTestCase</title>
<ellipse fill="none" stroke="black" cx="503" cy="-288" rx="106.773" ry="18.3848"/>
<text text-anchor="middle" x="503" y="-284.4" font-family="Times Roman,serif" font-size="14.00" fill="gray">\ControllerTestCase</text>
</g>
<!-- \\NetCommonsControllerBaseTestCase&#45;&gt;\\ControllerTestCase -->
<g id="edge19" class="edge"><title>\\NetCommonsControllerBaseTestCase&#45;&gt;\\ControllerTestCase</title>
<path fill="none" stroke="black" d="M691.563,-1185.94C688.104,-1183.3 684.892,-1180.33 682,-1177 556.034,-1031.8 734.344,-461.589 610,-315 606.359,-310.708 602.146,-307.046 597.538,-303.925"/>
<polygon fill="none" stroke="black" points="599.261,-300.878 588.857,-298.873 595.74,-306.928 599.261,-300.878"/>
</g>
<!-- \\NetCommonsValidateTest -->
<g id="node11" class="node"><title>\\NetCommonsValidateTest</title>
<polygon fill="none" stroke="black" points="1178,-2626 1014,-2626 1014,-2590 1178,-2590 1178,-2626"/>
<text text-anchor="middle" x="1096" y="-2605.1" font-family="Courier,monospace" font-size="11.00">NetCommonsValidateTest</text>
</g>
<!-- \\NetCommonsValidateTest&#45;&gt;\\NetCommonsModelTestCase -->
<g id="edge21" class="edge"><title>\\NetCommonsValidateTest&#45;&gt;\\NetCommonsModelTestCase</title>
<path fill="none" stroke="black" d="M1013.26,-2590.35C1005.25,-2587.63 997.365,-2584.53 990,-2581 953.921,-2563.73 954.288,-2543.83 918,-2527 910.962,-2523.74 903.501,-2520.85 895.884,-2518.31"/>
<polygon fill="none" stroke="black" points="896.762,-2514.91 886.173,-2515.26 894.666,-2521.59 896.762,-2514.91"/>
</g>
<!-- \\NetCommonsTestSuite -->
<g id="node12" class="node"><title>\\NetCommonsTestSuite</title>
<polygon fill="none" stroke="black" points="1168,-1060 1024,-1060 1024,-1024 1168,-1024 1168,-1060"/>
<text text-anchor="middle" x="1096" y="-1039.1" font-family="Courier,monospace" font-size="11.00">NetCommonsTestSuite</text>
</g>
<!-- \\CakeTestSuite -->
<g id="node75" class="node"><title>\\CakeTestSuite</title>
<ellipse fill="none" stroke="black" cx="800" cy="-342" rx="84.1457" ry="18.3848"/>
<text text-anchor="middle" x="800" y="-338.4" font-family="Times Roman,serif" font-size="14.00" fill="gray">\CakeTestSuite</text>
</g>
<!-- \\NetCommonsTestSuite&#45;&gt;\\CakeTestSuite -->
<g id="edge23" class="edge"><title>\\NetCommonsTestSuite&#45;&gt;\\CakeTestSuite</title>
<path fill="none" stroke="black" d="M1023.26,-1035.84C1010.6,-1031.59 998.723,-1025.03 990,-1015 798.983,-795.341 1116.06,-577.328 918,-364 911.088,-356.555 902.529,-351.148 893.202,-347.272"/>
<polygon fill="none" stroke="black" points="894.245,-343.929 883.65,-343.888 891.907,-350.527 894.245,-343.929"/>
</g>
<!-- \\CakeTestCase -->
<g id="node77" class="node"><title>\\CakeTestCase</title>
<ellipse fill="none" stroke="black" cx="242" cy="-342" rx="82.0244" ry="18.3848"/>
<text text-anchor="middle" x="242" y="-338.4" font-family="Times Roman,serif" font-size="14.00" fill="gray">\CakeTestCase</text>
</g>
<!-- \\NetCommonsCakeTestCase&#45;&gt;\\CakeTestCase -->
<g id="edge25" class="edge"><title>\\NetCommonsCakeTestCase&#45;&gt;\\CakeTestCase</title>
<path fill="none" stroke="black" d="M501.041,-2508.78C489.772,-2403.57 432.443,-1863.19 396,-1421 386.331,-1303.68 398.781,-454.912 324,-364 322.279,-361.908 320.383,-360.004 318.346,-358.27"/>
<polygon fill="none" stroke="black" points="320.073,-355.208 309.858,-352.395 316.089,-360.964 320.073,-355.208"/>
</g>
<!-- \\NetCommonsSaveTest -->
<g id="node14" class="node"><title>\\NetCommonsSaveTest</title>
<polygon fill="none" stroke="black" points="1165,-2572 1027,-2572 1027,-2536 1165,-2536 1165,-2572"/>
<text text-anchor="middle" x="1096" y="-2551.1" font-family="Courier,monospace" font-size="11.00">NetCommonsSaveTest</text>
</g>
<!-- \\NetCommonsSaveTest&#45;&gt;\\NetCommonsModelTestCase -->
<g id="edge27" class="edge"><title>\\NetCommonsSaveTest&#45;&gt;\\NetCommonsModelTestCase</title>
<path fill="none" stroke="black" d="M1026.97,-2541.41C987.987,-2534.29 938.659,-2525.3 895.955,-2517.51"/>
<polygon fill="none" stroke="black" points="896.571,-2514.06 886.105,-2515.71 895.314,-2520.95 896.571,-2514.06"/>
</g>
<!-- \\NetCommonsModelTestCase&#45;&gt;\\NetCommonsCakeTestCase -->
<g id="edge29" class="edge"><title>\\NetCommonsModelTestCase&#45;&gt;\\NetCommonsCakeTestCase</title>
<path fill="none" stroke="black" d="M713.696,-2507.85C676.671,-2511.21 633.35,-2515.15 595.65,-2518.58"/>
<polygon fill="none" stroke="black" points="595.328,-2515.09 585.686,-2519.48 595.962,-2522.06 595.328,-2515.09"/>
</g>
<!-- \\NetCommonsControllerTestCase -->
<g id="node16" class="node"><title>\\NetCommonsControllerTestCase</title>
<polygon fill="none" stroke="black" points="1199,-1222 993,-1222 993,-1186 1199,-1186 1199,-1222"/>
<text text-anchor="middle" x="1096" y="-1201.1" font-family="Courier,monospace" font-size="11.00">NetCommonsControllerTestCase</text>
</g>
<!-- \\NetCommonsControllerTestCase&#45;&gt;\\NetCommonsControllerBaseTestCase -->
<g id="edge31" class="edge"><title>\\NetCommonsControllerTestCase&#45;&gt;\\NetCommonsControllerBaseTestCase</title>
<path fill="none" stroke="black" d="M992.889,-1204C971.548,-1204 948.831,-1204 926.758,-1204"/>
<polygon fill="none" stroke="black" points="926.669,-1200.5 916.669,-1204 926.669,-1207.5 926.669,-1200.5"/>
</g>
<!-- \\NetCommonsAppController -->
<g id="node17" class="node"><title>\\NetCommonsAppController</title>
<polygon fill="none" stroke="black" points="886,-1168 714,-1168 714,-1132 886,-1132 886,-1168"/>
<text text-anchor="middle" x="800" y="-1147.1" font-family="Courier,monospace" font-size="11.00">NetCommonsAppController</text>
</g>
<!-- \\NetCommonsAppController&#45;&gt;\\Controller -->
<g id="edge33" class="edge"><title>\\NetCommonsAppController&#45;&gt;\\Controller</title>
<path fill="none" stroke="black" d="M793.148,-1131.85C773.058,-1077.96 713.72,-913.838 682,-773 656.755,-660.91 696.717,-336.376 610,-261 566.323,-223.035 400.194,-240.802 306.781,-254.437"/>
<polygon fill="none" stroke="black" points="306.247,-250.978 296.869,-255.909 307.275,-257.902 306.247,-250.978"/>
</g>
<!-- \\AssetComponent -->
<g id="node18" class="node"><title>\\AssetComponent</title>
<polygon fill="none" stroke="black" points="1151,-1006 1041,-1006 1041,-970 1151,-970 1151,-1006"/>
<text text-anchor="middle" x="1096" y="-985.1" font-family="Courier,monospace" font-size="11.00">AssetComponent</text>
</g>
<!-- \\Component -->
<g id="node83" class="node"><title>\\Component</title>
<ellipse fill="none" stroke="black" cx="800" cy="-288" rx="70.9184" ry="18.3848"/>
<text text-anchor="middle" x="800" y="-284.4" font-family="Times Roman,serif" font-size="14.00" fill="gray">\Component</text>
</g>
<!-- \\AssetComponent&#45;&gt;\\Component -->
<g id="edge35" class="edge"><title>\\AssetComponent&#45;&gt;\\Component</title>
<path fill="none" stroke="black" d="M1040.33,-986.203C1021.75,-982.722 1002.59,-975.468 990,-961 800.34,-743.088 1110.31,-530.576 918,-315 908.225,-304.042 894.994,-297.054 880.924,-292.686"/>
<polygon fill="none" stroke="black" points="881.644,-289.256 871.08,-290.064 879.842,-296.02 881.644,-289.256"/>
</g>
<!-- \\NetCommonsTimeComponent -->
<g id="node19" class="node"><title>\\NetCommonsTimeComponent</title>
<polygon fill="none" stroke="black" points="1182,-952 1010,-952 1010,-916 1182,-916 1182,-952"/>
<text text-anchor="middle" x="1096" y="-931.1" font-family="Courier,monospace" font-size="11.00">NetCommonsTimeComponent</text>
</g>
<!-- \\NetCommonsTimeComponent&#45;&gt;\\Component -->
<g id="edge37" class="edge"><title>\\NetCommonsTimeComponent&#45;&gt;\\Component</title>
<path fill="none" stroke="black" d="M1009.92,-922.16C1002.42,-918.303 995.58,-913.347 990,-907 814.99,-707.945 1095.43,-511.899 918,-315 908.227,-304.155 895.069,-297.207 881.082,-292.841"/>
<polygon fill="none" stroke="black" points="881.864,-289.426 871.298,-290.214 880.049,-296.187 881.864,-289.426"/>
</g>
<!-- \\PermissionComponent -->
<g id="node20" class="node"><title>\\PermissionComponent</title>
<polygon fill="none" stroke="black" points="1168,-898 1024,-898 1024,-862 1168,-862 1168,-898"/>
<text text-anchor="middle" x="1096" y="-877.1" font-family="Courier,monospace" font-size="11.00">PermissionComponent</text>
</g>
<!-- \\PermissionComponent&#45;&gt;\\Component -->
<g id="edge39" class="edge"><title>\\PermissionComponent&#45;&gt;\\Component</title>
<path fill="none" stroke="black" d="M1023.44,-873.679C1010.77,-869.449 998.837,-862.93 990,-853 829.624,-672.784 1080.57,-493.24 918,-315 908.162,-304.213 894.974,-297.293 880.979,-292.934"/>
<polygon fill="none" stroke="black" points="881.757,-289.519 871.192,-290.31 879.944,-296.281 881.757,-289.519"/>
</g>
<!-- \\NetCommonsComponent -->
<g id="node21" class="node"><title>\\NetCommonsComponent</title>
<polygon fill="none" stroke="black" points="1168,-844 1024,-844 1024,-808 1168,-808 1168,-844"/>
<text text-anchor="middle" x="1096" y="-823.1" font-family="Courier,monospace" font-size="11.00">NetCommonsComponent</text>
</g>
<!-- \\NetCommonsComponent&#45;&gt;\\Component -->
<g id="edge41" class="edge"><title>\\NetCommonsComponent&#45;&gt;\\Component</title>
<path fill="none" stroke="black" d="M1023.28,-819.485C1010.7,-815.262 998.846,-808.795 990,-799 844.238,-637.599 1065.73,-474.605 918,-315 908.083,-304.286 894.859,-297.398 880.853,-293.049"/>
<polygon fill="none" stroke="black" points="881.628,-289.634 871.063,-290.429 879.818,-296.396 881.628,-289.634"/>
</g>
<!-- \\NetCommonsController -->
<g id="node22" class="node"><title>\\NetCommonsController</title>
<polygon fill="none" stroke="black" points="1172,-1168 1020,-1168 1020,-1132 1172,-1132 1172,-1168"/>
<text text-anchor="middle" x="1096" y="-1147.1" font-family="Courier,monospace" font-size="11.00">NetCommonsController</text>
</g>
<!-- \\NetCommonsController&#45;&gt;\\NetCommonsAppController -->
<g id="edge43" class="edge"><title>\\NetCommonsController&#45;&gt;\\NetCommonsAppController</title>
<path fill="none" stroke="black" d="M1019.77,-1150C982.111,-1150 936.267,-1150 896.214,-1150"/>
<polygon fill="none" stroke="black" points="896.164,-1146.5 886.164,-1150 896.164,-1153.5 896.164,-1146.5"/>
</g>
<!-- \\NetCommonsUrl -->
<g id="node23" class="node"><title>\\NetCommonsUrl</title>
<polygon fill="none" stroke="black" points="1148,-2140 1044,-2140 1044,-2104 1148,-2104 1148,-2140"/>
<text text-anchor="middle" x="1096" y="-2119.1" font-family="Courier,monospace" font-size="11.00">NetCommonsUrl</text>
</g>
<!-- \\NetCommonsTime -->
<g id="node24" class="node"><title>\\NetCommonsTime</title>
<polygon fill="none" stroke="black" points="1151,-2086 1041,-2086 1041,-2050 1151,-2050 1151,-2086"/>
<text text-anchor="middle" x="1096" y="-2065.1" font-family="Courier,monospace" font-size="11.00">NetCommonsTime</text>
</g>
<!-- \\CurrentBase -->
<g id="node25" class="node"><title>\\CurrentBase</title>
<polygon fill="none" stroke="black" points="845,-2302 755,-2302 755,-2266 845,-2266 845,-2302"/>
<text text-anchor="middle" x="800" y="-2281.1" font-family="Courier,monospace" font-size="11.00">CurrentBase</text>
</g>
<!-- \\Current -->
<g id="node26" class="node"><title>\\Current</title>
<polygon fill="none" stroke="black" points="1128,-2302 1064,-2302 1064,-2266 1128,-2266 1128,-2302"/>
<text text-anchor="middle" x="1096" y="-2281.1" font-family="Courier,monospace" font-size="11.00">Current</text>
</g>
<!-- \\Current&#45;&gt;\\CurrentBase -->
<g id="edge45" class="edge"><title>\\Current&#45;&gt;\\CurrentBase</title>
<path fill="none" stroke="black" d="M1063.76,-2284C1013.9,-2284 917.444,-2284 856.016,-2284"/>
<polygon fill="none" stroke="black" points="855.723,-2280.5 845.723,-2284 855.723,-2287.5 855.723,-2280.5"/>
</g>
<!-- \\CurrentSystem -->
<g id="node27" class="node"><title>\\CurrentSystem</title>
<polygon fill="none" stroke="black" points="1148,-1978 1044,-1978 1044,-1942 1148,-1942 1148,-1978"/>
<text text-anchor="middle" x="1096" y="-1957.1" font-family="Courier,monospace" font-size="11.00">CurrentSystem</text>
</g>
<!-- \\CurrentPage -->
<g id="node28" class="node"><title>\\CurrentPage</title>
<polygon fill="none" stroke="black" points="1141,-1924 1051,-1924 1051,-1888 1141,-1888 1141,-1924"/>
<text text-anchor="middle" x="1096" y="-1903.1" font-family="Courier,monospace" font-size="11.00">CurrentPage</text>
</g>
<!-- \\CurrentFrame -->
<g id="node29" class="node"><title>\\CurrentFrame</title>
<polygon fill="none" stroke="black" points="1145,-1870 1047,-1870 1047,-1834 1145,-1834 1145,-1870"/>
<text text-anchor="middle" x="1096" y="-1849.1" font-family="Courier,monospace" font-size="11.00">CurrentFrame</text>
</g>
<!-- \\TokenHelper -->
<g id="node30" class="node"><title>\\TokenHelper</title>
<polygon fill="none" stroke="black" points="1141,-682 1051,-682 1051,-646 1141,-646 1141,-682"/>
<text text-anchor="middle" x="1096" y="-661.1" font-family="Courier,monospace" font-size="11.00">TokenHelper</text>
</g>
<!-- \\FormHelper -->
<g id="node90" class="node"><title>\\FormHelper</title>
<ellipse fill="none" stroke="black" cx="800" cy="-234" rx="70.9184" ry="18.3848"/>
<text text-anchor="middle" x="800" y="-230.4" font-family="Times Roman,serif" font-size="14.00" fill="gray">\FormHelper</text>
</g>
<!-- \\TokenHelper&#45;&gt;\\FormHelper -->
<g id="edge47" class="edge"><title>\\TokenHelper&#45;&gt;\\FormHelper</title>
<path fill="none" stroke="black" d="M1050.46,-663.18C1029.28,-660.385 1005.43,-653.384 990,-637 873.364,-513.12 1036.14,-383.443 918,-261 907.863,-250.494 894.538,-243.702 880.502,-239.381"/>
<polygon fill="none" stroke="black" points="881.266,-235.962 870.702,-236.77 879.464,-242.726 881.266,-235.962"/>
</g>
<!-- \\SingletonViewBlockHtmlHelper -->
<g id="node31" class="node"><title>\\SingletonViewBlockHtmlHelper</title>
<polygon fill="none" stroke="black" points="1199,-628 993,-628 993,-592 1199,-592 1199,-628"/>
<text text-anchor="middle" x="1096" y="-607.1" font-family="Courier,monospace" font-size="11.00">SingletonViewBlockHtmlHelper</text>
</g>
<!-- \\HtmlHelper -->
<g id="node92" class="node"><title>\\HtmlHelper</title>
<ellipse fill="none" stroke="black" cx="800" cy="-180" rx="67.1751" ry="18.3848"/>
<text text-anchor="middle" x="800" y="-176.4" font-family="Times Roman,serif" font-size="14.00" fill="gray">HtmlHelper</text>
</g>
<!-- \\SingletonViewBlockHtmlHelper&#45;&gt;\\HtmlHelper -->
<g id="edge49" class="edge"><title>\\SingletonViewBlockHtmlHelper&#45;&gt;\\HtmlHelper</title>
<path fill="none" stroke="black" d="M1000.32,-591.843C996.594,-589.252 993.124,-586.318 990,-583 873.364,-459.12 1036.14,-329.443 918,-207 906.987,-195.587 892.213,-188.556 876.851,-184.316"/>
<polygon fill="none" stroke="black" points="877.243,-180.812 866.706,-181.915 875.631,-187.624 877.243,-180.812"/>
</g>
<!-- \\FormInputHelper -->
<g id="node32" class="node"><title>\\FormInputHelper</title>
<polygon fill="none" stroke="black" points="1155,-1330 1037,-1330 1037,-1294 1155,-1294 1155,-1330"/>
<text text-anchor="middle" x="1096" y="-1309.1" font-family="Courier,monospace" font-size="11.00">FormInputHelper</text>
</g>
<!-- \\FormInputHelper&#45;&gt;\\AppHelper -->
<g id="edge51" class="edge"><title>\\FormInputHelper&#45;&gt;\\AppHelper</title>
<path fill="none" stroke="black" d="M1036.77,-1319.89C1020.7,-1323.89 1003.91,-1329.92 990,-1339 903.846,-1395.24 839.996,-1503.92 813.495,-1554.66"/>
<polygon fill="none" stroke="black" points="810.297,-1553.23 808.84,-1563.72 816.523,-1556.43 810.297,-1553.23"/>
</g>
<!-- \\WizardHelper -->
<g id="node33" class="node"><title>\\WizardHelper</title>
<polygon fill="none" stroke="black" points="1145,-1276 1047,-1276 1047,-1240 1145,-1240 1145,-1276"/>
<text text-anchor="middle" x="1096" y="-1255.1" font-family="Courier,monospace" font-size="11.00">WizardHelper</text>
</g>
<!-- \\WizardHelper&#45;&gt;\\AppHelper -->
<g id="edge53" class="edge"><title>\\WizardHelper&#45;&gt;\\AppHelper</title>
<path fill="none" stroke="black" d="M1046.81,-1262.7C1027.69,-1266.43 1006.47,-1273.1 990,-1285 891.496,-1356.15 831.51,-1495.55 809.538,-1554.56"/>
<polygon fill="none" stroke="black" points="806.245,-1553.37 806.106,-1563.97 812.821,-1555.77 806.245,-1553.37"/>
</g>
<!-- \\DisplayNumberHelper -->
<g id="node34" class="node"><title>\\DisplayNumberHelper</title>
<polygon fill="none" stroke="black" points="1168,-2248 1024,-2248 1024,-2212 1168,-2212 1168,-2248"/>
<text text-anchor="middle" x="1096" y="-2227.1" font-family="Courier,monospace" font-size="11.00">DisplayNumberHelper</text>
</g>
<!-- \\DisplayNumberHelper&#45;&gt;\\AppHelper -->
<g id="edge55" class="edge"><title>\\DisplayNumberHelper&#45;&gt;\\AppHelper</title>
<path fill="none" stroke="black" d="M1023.31,-2222.03C1011.03,-2217.9 999.277,-2211.85 990,-2203 900.178,-2117.35 824.321,-1719.7 804.846,-1610.06"/>
<polygon fill="none" stroke="black" points="808.271,-1609.33 803.089,-1600.09 801.377,-1610.54 808.271,-1609.33"/>
</g>
<!-- \\MessageFlashHelper -->
<g id="node35" class="node"><title>\\MessageFlashHelper</title>
<polygon fill="none" stroke="black" points="1165,-2194 1027,-2194 1027,-2158 1165,-2158 1165,-2194"/>
<text text-anchor="middle" x="1096" y="-2173.1" font-family="Courier,monospace" font-size="11.00">MessageFlashHelper</text>
</g>
<!-- \\MessageFlashHelper&#45;&gt;\\AppHelper -->
<g id="edge57" class="edge"><title>\\MessageFlashHelper&#45;&gt;\\AppHelper</title>
<path fill="none" stroke="black" d="M1026.79,-2168.88C1013.32,-2164.77 1000.23,-2158.5 990,-2149 906.976,-2071.9 827.402,-1714.07 805.753,-1610.29"/>
<polygon fill="none" stroke="black" points="809.129,-1609.33 803.675,-1600.25 802.274,-1610.75 809.129,-1609.33"/>
</g>
<!-- \\DateHelper -->
<g id="node36" class="node"><title>\\DateHelper</title>
<polygon fill="none" stroke="black" points="1138,-2032 1054,-2032 1054,-1996 1138,-1996 1138,-2032"/>
<text text-anchor="middle" x="1096" y="-2011.1" font-family="Courier,monospace" font-size="11.00">DateHelper</text>
</g>
<!-- \\DateHelper&#45;&gt;\\AppHelper -->
<g id="edge59" class="edge"><title>\\DateHelper&#45;&gt;\\AppHelper</title>
<path fill="none" stroke="black" d="M1053.95,-2011.68C1032.77,-2008.59 1007.86,-2001.76 990,-1987 866.476,-1884.89 818.638,-1684.25 804.729,-1610.27"/>
<polygon fill="none" stroke="black" points="808.149,-1609.51 802.918,-1600.3 801.262,-1610.76 808.149,-1609.51"/>
</g>
<!-- \\SnsButtonHelper -->
<g id="node37" class="node"><title>\\SnsButtonHelper</title>
<polygon fill="none" stroke="black" points="1155,-1816 1037,-1816 1037,-1780 1155,-1780 1155,-1816"/>
<text text-anchor="middle" x="1096" y="-1795.1" font-family="Courier,monospace" font-size="11.00">SnsButtonHelper</text>
</g>
<!-- \\SnsButtonHelper&#45;&gt;\\AppHelper -->
<g id="edge61" class="edge"><title>\\SnsButtonHelper&#45;&gt;\\AppHelper</title>
<path fill="none" stroke="black" d="M1036.92,-1788.83C1021.02,-1784.82 1004.29,-1779.11 990,-1771 915.574,-1728.77 850.021,-1649.67 819.006,-1608.47"/>
<polygon fill="none" stroke="black" points="821.695,-1606.22 812.921,-1600.28 816.076,-1610.4 821.695,-1606.22"/>
</g>
<!-- \\BackToHelper -->
<g id="node38" class="node"><title>\\BackToHelper</title>
<polygon fill="none" stroke="black" points="1145,-1762 1047,-1762 1047,-1726 1145,-1726 1145,-1762"/>
<text text-anchor="middle" x="1096" y="-1741.1" font-family="Courier,monospace" font-size="11.00">BackToHelper</text>
</g>
<!-- \\BackToHelper&#45;&gt;\\AppHelper -->
<g id="edge63" class="edge"><title>\\BackToHelper&#45;&gt;\\AppHelper</title>
<path fill="none" stroke="black" d="M1046.96,-1735.46C1028.58,-1731.25 1007.84,-1725.26 990,-1717 927.109,-1687.88 863.327,-1637.3 827.995,-1607.01"/>
<polygon fill="none" stroke="black" points="829.911,-1604.04 820.061,-1600.13 825.328,-1609.33 829.911,-1604.04"/>
</g>
<!-- \\NetCommonsHtmlHelper -->
<g id="node39" class="node"><title>\\NetCommonsHtmlHelper</title>
<polygon fill="none" stroke="black" points="1172,-1708 1020,-1708 1020,-1672 1172,-1672 1172,-1708"/>
<text text-anchor="middle" x="1096" y="-1687.1" font-family="Courier,monospace" font-size="11.00">NetCommonsHtmlHelper</text>
</g>
<!-- \\NetCommonsHtmlHelper&#45;&gt;\\AppHelper -->
<g id="edge65" class="edge"><title>\\NetCommonsHtmlHelper&#45;&gt;\\AppHelper</title>
<path fill="none" stroke="black" d="M1019.73,-1672.08C1009.66,-1669.27 999.534,-1666.23 990,-1663 940.054,-1646.1 884.802,-1621.9 846.816,-1604.35"/>
<polygon fill="none" stroke="black" points="848.088,-1601.08 837.544,-1600.04 845.138,-1607.43 848.088,-1601.08"/>
</g>
<!-- \\ButtonHelper -->
<g id="node40" class="node"><title>\\ButtonHelper</title>
<polygon fill="none" stroke="black" points="1145,-790 1047,-790 1047,-754 1145,-754 1145,-790"/>
<text text-anchor="middle" x="1096" y="-769.1" font-family="Courier,monospace" font-size="11.00">ButtonHelper</text>
</g>
<!-- \\ButtonHelper&#45;&gt;\\FormHelper -->
<g id="edge67" class="edge"><title>\\ButtonHelper&#45;&gt;\\FormHelper</title>
<path fill="none" stroke="black" d="M1046.92,-771.006C1026.52,-767.99 1004.32,-760.855 990,-745 844.238,-583.599 1065.73,-420.605 918,-261 908.083,-250.286 894.859,-243.398 880.853,-239.049"/>
<polygon fill="none" stroke="black" points="881.628,-235.634 871.063,-236.429 879.818,-242.396 881.628,-235.634"/>
</g>
<!-- \\ComposerHelper -->
<g id="node41" class="node"><title>\\ComposerHelper</title>
<polygon fill="none" stroke="black" points="1151,-1654 1041,-1654 1041,-1618 1151,-1618 1151,-1654"/>
<text text-anchor="middle" x="1096" y="-1633.1" font-family="Courier,monospace" font-size="11.00">ComposerHelper</text>
</g>
<!-- \\ComposerHelper&#45;&gt;\\AppHelper -->
<g id="edge69" class="edge"><title>\\ComposerHelper&#45;&gt;\\AppHelper</title>
<path fill="none" stroke="black" d="M1040.32,-1625.84C985.217,-1615.79 901.675,-1600.55 849.012,-1590.94"/>
<polygon fill="none" stroke="black" points="849.374,-1587.45 838.908,-1589.1 848.118,-1594.34 849.374,-1587.45"/>
</g>
<!-- \\LinkButtonHelper -->
<g id="node42" class="node"><title>\\LinkButtonHelper</title>
<polygon fill="none" stroke="black" points="1158,-736 1034,-736 1034,-700 1158,-700 1158,-736"/>
<text text-anchor="middle" x="1096" y="-715.1" font-family="Courier,monospace" font-size="11.00">LinkButtonHelper</text>
</g>
<!-- \\LinkButtonHelper&#45;&gt;\\FormHelper -->
<g id="edge71" class="edge"><title>\\LinkButtonHelper&#45;&gt;\\FormHelper</title>
<path fill="none" stroke="black" d="M1033.31,-714.202C1017.19,-710.254 1001.25,-703.23 990,-691 858.822,-548.383 1050.91,-402.002 918,-261 907.986,-250.377 894.718,-243.531 880.698,-239.194"/>
<polygon fill="none" stroke="black" points="881.468,-235.777 870.904,-236.577 879.661,-242.54 881.468,-235.777"/>
</g>
<!-- \\TableListHelper -->
<g id="node43" class="node"><title>\\TableListHelper</title>
<polygon fill="none" stroke="black" points="1155,-1600 1037,-1600 1037,-1564 1155,-1564 1155,-1600"/>
<text text-anchor="middle" x="1096" y="-1579.1" font-family="Courier,monospace" font-size="11.00">TableListHelper</text>
</g>
<!-- \\TableListHelper&#45;&gt;\\AppHelper -->
<g id="edge73" class="edge"><title>\\TableListHelper&#45;&gt;\\AppHelper</title>
<path fill="none" stroke="black" d="M1036.81,-1582C981.726,-1582 900.593,-1582 849.036,-1582"/>
<polygon fill="none" stroke="black" points="848.819,-1578.5 838.819,-1582 848.819,-1585.5 848.819,-1578.5"/>
</g>
<!-- \\NetCommonsTimeHelper -->
<g id="node44" class="node"><title>\\NetCommonsTimeHelper</title>
<polygon fill="none" stroke="black" points="1172,-1546 1020,-1546 1020,-1510 1172,-1510 1172,-1546"/>
<text text-anchor="middle" x="1096" y="-1525.1" font-family="Courier,monospace" font-size="11.00">NetCommonsTimeHelper</text>
</g>
<!-- \\NetCommonsTimeHelper&#45;&gt;\\AppHelper -->
<g id="edge75" class="edge"><title>\\NetCommonsTimeHelper&#45;&gt;\\AppHelper</title>
<path fill="none" stroke="black" d="M1019.77,-1541.91C965.946,-1551.73 895.407,-1564.59 848.946,-1573.07"/>
<polygon fill="none" stroke="black" points="848.044,-1569.68 838.835,-1574.92 849.3,-1576.56 848.044,-1569.68"/>
</g>
<!-- \\NetCommonsFormHelper -->
<g id="node45" class="node"><title>\\NetCommonsFormHelper</title>
<polygon fill="none" stroke="black" points="1172,-1492 1020,-1492 1020,-1456 1172,-1456 1172,-1492"/>
<text text-anchor="middle" x="1096" y="-1471.1" font-family="Courier,monospace" font-size="11.00">NetCommonsFormHelper</text>
</g>
<!-- \\NetCommonsFormHelper&#45;&gt;\\AppHelper -->
<g id="edge77" class="edge"><title>\\NetCommonsFormHelper&#45;&gt;\\AppHelper</title>
<path fill="none" stroke="black" d="M1019.73,-1491.92C1009.66,-1494.73 999.534,-1497.77 990,-1501 940.054,-1517.9 884.802,-1542.1 846.816,-1559.65"/>
<polygon fill="none" stroke="black" points="845.138,-1556.57 837.544,-1563.96 848.088,-1562.92 845.138,-1556.57"/>
</g>
<!-- \\TitleIconHelper -->
<g id="node46" class="node"><title>\\TitleIconHelper</title>
<polygon fill="none" stroke="black" points="1155,-1438 1037,-1438 1037,-1402 1155,-1402 1155,-1438"/>
<text text-anchor="middle" x="1096" y="-1417.1" font-family="Courier,monospace" font-size="11.00">TitleIconHelper</text>
</g>
<!-- \\TitleIconHelper&#45;&gt;\\AppHelper -->
<g id="edge79" class="edge"><title>\\TitleIconHelper&#45;&gt;\\AppHelper</title>
<path fill="none" stroke="black" d="M1036.9,-1430.97C1021.25,-1434.96 1004.65,-1440.22 990,-1447 927.109,-1476.12 863.327,-1526.7 827.995,-1556.99"/>
<polygon fill="none" stroke="black" points="825.328,-1554.67 820.061,-1563.87 829.911,-1559.96 825.328,-1554.67"/>
</g>
<!-- \\DatetimePickerHelper -->
<g id="node47" class="node"><title>\\DatetimePickerHelper</title>
<polygon fill="none" stroke="black" points="1172,-1384 1020,-1384 1020,-1348 1172,-1348 1172,-1384"/>
<text text-anchor="middle" x="1096" y="-1363.1" font-family="Courier,monospace" font-size="11.00">DatetimePickerHelper</text>
</g>
<!-- \\DatetimePickerHelper&#45;&gt;\\AppHelper -->
<g id="edge81" class="edge"><title>\\DatetimePickerHelper&#45;&gt;\\AppHelper</title>
<path fill="none" stroke="black" d="M1019.93,-1380.08C1009.52,-1383.51 999.25,-1387.75 990,-1393 915.574,-1435.23 850.021,-1514.33 819.006,-1555.53"/>
<polygon fill="none" stroke="black" points="816.076,-1553.6 812.921,-1563.72 821.695,-1557.78 816.076,-1553.6"/>
</g>
<!-- \\Model -->
<g id="node110" class="node"><title>\\Model</title>
<ellipse fill="none" stroke="black" cx="44" cy="-2689" rx="43.8406" ry="18.3848"/>
<text text-anchor="middle" x="44" y="-2685.4" font-family="Times Roman,serif" font-size="14.00" fill="gray">\Model</text>
</g>
<!-- \\NetCommonsAppModel&#45;&gt;\\Model -->
<g id="edge83" class="edge"><title>\\NetCommonsAppModel&#45;&gt;\\Model</title>
<path fill="none" stroke="black" d="M172.749,-2689C148.379,-2689 121.357,-2689 98.3871,-2689"/>
<polygon fill="none" stroke="black" points="98.1425,-2685.5 88.1425,-2689 98.1424,-2692.5 98.1425,-2685.5"/>
</g>
<!-- \\OriginalKeyBehavior -->
<g id="node49" class="node"><title>\\OriginalKeyBehavior</title>
<polygon fill="none" stroke="black" points="1168,-574 1024,-574 1024,-538 1168,-538 1168,-574"/>
<text text-anchor="middle" x="1096" y="-553.1" font-family="Courier,monospace" font-size="11.00">OriginalKeyBehavior</text>
</g>
<!-- \\ModelBehavior -->
<g id="node112" class="node"><title>\\ModelBehavior</title>
<ellipse fill="none" stroke="black" cx="800" cy="-126" rx="86.9741" ry="18.3848"/>
<text text-anchor="middle" x="800" y="-122.4" font-family="Times Roman,serif" font-size="14.00" fill="gray">\ModelBehavior</text>
</g>
<!-- \\OriginalKeyBehavior&#45;&gt;\\ModelBehavior -->
<g id="edge85" class="edge"><title>\\OriginalKeyBehavior&#45;&gt;\\ModelBehavior</title>
<path fill="none" stroke="black" d="M1023.33,-549.099C1010.82,-544.899 998.982,-538.54 990,-529 873.364,-405.12 1036.14,-275.443 918,-153 910.646,-145.379 901.615,-139.712 891.852,-135.525"/>
<polygon fill="none" stroke="black" points="892.89,-132.176 882.298,-131.949 890.436,-138.732 892.89,-132.176"/>
</g>
<!-- \\TrackableBehavior -->
<g id="node50" class="node"><title>\\TrackableBehavior</title>
<polygon fill="none" stroke="black" points="1161,-520 1031,-520 1031,-484 1161,-484 1161,-520"/>
<text text-anchor="middle" x="1096" y="-499.1" font-family="Courier,monospace" font-size="11.00">TrackableBehavior</text>
</g>
<!-- \\TrackableBehavior&#45;&gt;\\ModelBehavior -->
<g id="edge87" class="edge"><title>\\TrackableBehavior&#45;&gt;\\ModelBehavior</title>
<path fill="none" stroke="black" d="M1030.42,-496.945C1015.44,-492.874 1000.78,-486.104 990,-475 887.843,-369.792 1021.44,-256.95 918,-153 910.53,-145.493 901.428,-139.895 891.627,-135.745"/>
<polygon fill="none" stroke="black" points="892.638,-132.388 882.045,-132.196 890.207,-138.952 892.638,-132.388"/>
</g>
<!-- \\YAExceptionRenderer -->
<g id="node51" class="node"><title>\\YAExceptionRenderer</title>
<polygon fill="none" stroke="black" points="1168,-466 1024,-466 1024,-430 1168,-430 1168,-466"/>
<text text-anchor="middle" x="1096" y="-445.1" font-family="Courier,monospace" font-size="11.00">YAExceptionRenderer</text>
</g>
<!-- \\ExceptionRenderer -->
<g id="node115" class="node"><title>\\ExceptionRenderer</title>
<ellipse fill="none" stroke="black" cx="800" cy="-72" rx="118.087" ry="18.3848"/>
<text text-anchor="middle" x="800" y="-68.4" font-family="Times Roman,serif" font-size="14.00" fill="gray">TEHxceptionRenderer</text>
</g>
<!-- \\YAExceptionRenderer&#45;&gt;\\ExceptionRenderer -->
<g id="edge89" class="edge"><title>\\YAExceptionRenderer&#45;&gt;\\ExceptionRenderer</title>
<path fill="none" stroke="black" d="M1023.29,-440.784C1010.86,-436.604 999.062,-430.333 990,-421 887.843,-315.792 1021.44,-202.95 918,-99 913.632,-94.61 908.706,-90.873 903.408,-87.6967"/>
<polygon fill="none" stroke="black" points="904.657,-84.4002 894.174,-82.8643 901.411,-90.6022 904.657,-84.4002"/>
</g>
<!-- \\NetCommonsMigration -->
<g id="node52" class="node"><title>\\NetCommonsMigration</title>
<polygon fill="none" stroke="black" points="872,-764 728,-764 728,-728 872,-728 872,-764"/>
<text text-anchor="middle" x="800" y="-743.1" font-family="Courier,monospace" font-size="11.00">NetCommonsMigration</text>
</g>
<!-- \\CakeMigration -->
<g id="node117" class="node"><title>\\CakeMigration</title>
<ellipse fill="none" stroke="black" cx="503" cy="-196" rx="84.8528" ry="18.3848"/>
<text text-anchor="middle" x="503" y="-192.4" font-family="Times Roman,serif" font-size="14.00" fill="gray">\CakeMigration</text>
</g>
<!-- \\NetCommonsMigration&#45;&gt;\\CakeMigration -->
<g id="edge91" class="edge"><title>\\NetCommonsMigration&#45;&gt;\\CakeMigration</title>
<path fill="none" stroke="black" d="M727.278,-746.467C710.399,-743.091 693.91,-736.398 682,-724 527.684,-563.357 755.566,-396.613 610,-228 603.135,-220.048 594.382,-214.028 584.849,-209.479"/>
<polygon fill="none" stroke="black" points="586.081,-206.201 575.505,-205.554 583.369,-212.654 586.081,-206.201"/>
</g>
<!-- \\UserManagerController -->
<g id="node53" class="node"><title>\\UserManagerController</title>
<polygon fill="none" stroke="black" points="1175,-2410 1017,-2410 1017,-2374 1175,-2374 1175,-2410"/>
<text text-anchor="middle" x="1096" y="-2389.1" font-family="Courier,monospace" font-size="11.00">UserManagerController</text>
</g>
<!-- \\UserManagerAppController -->
<g id="node54" class="node"><title>\\UserManagerAppController</title>
<polygon fill="none" stroke="black" points="889,-2383 711,-2383 711,-2347 889,-2347 889,-2383"/>
<text text-anchor="middle" x="800" y="-2362.1" font-family="Courier,monospace" font-size="11.00">UserManagerAppController</text>
</g>
<!-- \\UserManagerController&#45;&gt;\\UserManagerAppController -->
<g id="edge93" class="edge"><title>\\UserManagerController&#45;&gt;\\UserManagerAppController</title>
<path fill="none" stroke="black" d="M1016.68,-2384.76C980.757,-2381.49 937.902,-2377.58 899.823,-2374.11"/>
<polygon fill="none" stroke="black" points="900.014,-2370.61 889.737,-2373.19 899.378,-2377.58 900.014,-2370.61"/>
</g>
<!-- \\UserManagerAppController&#45;&gt;\\AppController -->
<g id="edge95" class="edge"><title>\\UserManagerAppController&#45;&gt;\\AppController</title>
<path fill="none" stroke="black" d="M732.557,-2346.96C713.673,-2338.84 694.826,-2327.28 682,-2311 568.395,-2166.78 515.74,-1560.6 505.073,-1422.21"/>
<polygon fill="none" stroke="black" points="508.546,-1421.72 504.298,-1412.02 501.566,-1422.25 508.546,-1421.72"/>
</g>
<!-- \\UserMailController -->
<g id="node55" class="node"><title>\\UserMailController</title>
<polygon fill="none" stroke="black" points="1165,-2356 1027,-2356 1027,-2320 1165,-2320 1165,-2356"/>
<text text-anchor="middle" x="1096" y="-2335.1" font-family="Courier,monospace" font-size="11.00">UserMailController</text>
</g>
<!-- \\UserMailController&#45;&gt;\\UserManagerAppController -->
<g id="edge97" class="edge"><title>\\UserMailController&#45;&gt;\\UserManagerAppController</title>
<path fill="none" stroke="black" d="M1026.97,-2344.3C989.177,-2347.74 941.661,-2352.08 899.884,-2355.89"/>
<polygon fill="none" stroke="black" points="899.316,-2352.43 889.675,-2356.82 899.952,-2359.4 899.316,-2352.43"/>
</g>
<!-- \\UsersRolesRoomsController -->
<g id="node56" class="node"><title>\\UsersRolesRoomsController</title>
<polygon fill="none" stroke="black" points="1188,-2464 1004,-2464 1004,-2428 1188,-2428 1188,-2464"/>
<text text-anchor="middle" x="1096" y="-2443.1" font-family="Courier,monospace" font-size="11.00">UsersRolesRoomsController</text>
</g>
<!-- \\UsersRolesRoomsController&#45;&gt;\\UserManagerAppController -->
<g id="edge99" class="edge"><title>\\UsersRolesRoomsController&#45;&gt;\\UserManagerAppController</title>
<path fill="none" stroke="black" d="M1024.09,-2427.97C1012.67,-2425.02 1001,-2421.96 990,-2419 950.805,-2408.44 907.234,-2396.1 871.714,-2385.88"/>
<polygon fill="none" stroke="black" points="872.498,-2382.47 861.92,-2383.06 870.56,-2389.19 872.498,-2382.47"/>
</g>
<!-- \\UserMail -->
<g id="node57" class="node"><title>\\UserMail</title>
<polygon fill="none" stroke="black" points="1131,-2734 1061,-2734 1061,-2698 1131,-2698 1131,-2734"/>
<text text-anchor="middle" x="1096" y="-2713.1" font-family="Courier,monospace" font-size="11.00">UserMail</text>
</g>
<!-- \\UserManagerAppModel -->
<g id="node58" class="node"><title>\\UserManagerAppModel</title>
<polygon fill="none" stroke="black" points="872,-2734 728,-2734 728,-2698 872,-2698 872,-2734"/>
<text text-anchor="middle" x="800" y="-2713.1" font-family="Courier,monospace" font-size="11.00">UserManagerAppModel</text>
</g>
<!-- \\UserMail&#45;&gt;\\UserManagerAppModel -->
<g id="edge101" class="edge"><title>\\UserMail&#45;&gt;\\UserManagerAppModel</title>
<path fill="none" stroke="black" d="M1060.3,-2716C1016.63,-2716 941.342,-2716 882.932,-2716"/>
<polygon fill="none" stroke="black" points="882.604,-2712.5 872.604,-2716 882.604,-2719.5 882.604,-2712.5"/>
</g>
<!-- \\UserManagerAppModel&#45;&gt;\\AppModel -->
<g id="edge103" class="edge"><title>\\UserManagerAppModel&#45;&gt;\\AppModel</title>
<path fill="none" stroke="black" d="M727.346,-2709.4C671.508,-2704.32 596.115,-2697.47 548.522,-2693.14"/>
<polygon fill="none" stroke="black" points="548.789,-2689.65 538.513,-2692.23 548.155,-2696.62 548.789,-2689.65"/>
</g>
<!-- \\UserManagerMailSettingRecords -->
<g id="node59" class="node"><title>\\UserManagerMailSettingRecords</title>
<polygon fill="none" stroke="black" points="1202,-412 990,-412 990,-376 1202,-376 1202,-412"/>
<text text-anchor="middle" x="1096" y="-391.1" font-family="Courier,monospace" font-size="11.00">UserManagerMailSettingRecords</text>
</g>
<!-- \\MailsMigration -->
<g id="node125" class="node"><title>\\MailsMigration</title>
<ellipse fill="none" stroke="black" cx="800" cy="-18" rx="85.0596" ry="18.3848"/>
<text text-anchor="middle" x="800" y="-14.4" font-family="Times Roman,serif" font-size="14.00" fill="gray">\MailsMigration</text>
</g>
<!-- \\UserManagerMailSettingRecords&#45;&gt;\\MailsMigration -->
<g id="edge105" class="edge"><title>\\UserManagerMailSettingRecords&#45;&gt;\\MailsMigration</title>
<path fill="none" stroke="black" d="M1092.38,-375.718C1079.83,-317.38 1032.54,-134.268 918,-45 908.962,-37.9556 898.42,-32.6872 887.426,-28.7577"/>
<polygon fill="none" stroke="black" points="888.265,-25.3515 877.674,-25.6383 886.133,-32.0187 888.265,-25.3515"/>
</g>
<!-- \\PluginRecords -->
<g id="node60" class="node"><title>\\PluginRecords</title>
<polygon fill="none" stroke="black" points="1148,-1114 1044,-1114 1044,-1078 1148,-1078 1148,-1114"/>
<text text-anchor="middle" x="1096" y="-1093.1" font-family="Courier,monospace" font-size="11.00">PluginRecords</text>
</g>
<!-- \\PluginRecords&#45;&gt;\\NetCommonsMigration -->
<g id="edge107" class="edge"><title>\\PluginRecords&#45;&gt;\\NetCommonsMigration</title>
<path fill="none" stroke="black" d="M1043.89,-1091.07C1025.46,-1087.28 1005.49,-1080.63 990,-1069 885.537,-990.532 828.047,-836.409 808.117,-773.614"/>
<polygon fill="none" stroke="black" points="811.442,-772.518 805.136,-764.004 804.756,-774.592 811.442,-772.518"/>
</g>
</g>
</svg>
