<?xml version="1.0" encoding="UTF-8" standalone="no"?>
<!DOCTYPE svg PUBLIC "-//W3C//DTD SVG 1.1//EN"
 "http://www.w3.org/Graphics/SVG/1.1/DTD/svg11.dtd">
<!-- Generated by graphviz version 2.26.3 (20100126.1600)
 -->
<!-- Title: G Pages: 1 -->
<svg width="1226pt" height="2726pt"
 viewBox="0.00 0.00 1226.00 2726.00" xmlns="http://www.w3.org/2000/svg" xmlns:xlink="http://www.w3.org/1999/xlink">
<g id="graph1" class="graph" transform="scale(1 1) rotate(0) translate(4 2722)">
<title>G</title>
<polygon fill="white" stroke="white" points="-4,5 -4,-2722 1223,-2722 1223,5 -4,5"/>
<g id="graph2" class="cluster"><title>cluster_Global</title>
<polyline fill="none" stroke="gray" points="177,-368 1198,-368 "/>
<path fill="none" stroke="gray" d="M1198,-368C1204,-368 1210,-374 1210,-380"/>
<polyline fill="none" stroke="gray" points="1210,-380 1210,-2698 "/>
<path fill="none" stroke="gray" d="M1210,-2698C1210,-2704 1204,-2710 1198,-2710"/>
<polyline fill="none" stroke="gray" points="1198,-2710 177,-2710 "/>
<path fill="none" stroke="gray" d="M177,-2710C171,-2710 165,-2704 165,-2698"/>
<polyline fill="none" stroke="gray" points="165,-2698 165,-380 "/>
<path fill="none" stroke="gray" d="M165,-380C165,-374 171,-368 177,-368"/>
<text text-anchor="middle" x="687.5" y="-2696.1" font-family="Times Roman,serif" font-size="11.00" fill="gray">Global</text>
</g>
<!-- \\AppController -->
<g id="node2" class="node"><title>\\AppController</title>
<polygon fill="none" stroke="black" points="555,-1385 451,-1385 451,-1349 555,-1349 555,-1385"/>
<text text-anchor="middle" x="503" y="-1364.1" font-family="Courier,monospace" font-size="11.00">AppController</text>
</g>
<!-- \\Controller -->
<g id="node61" class="node"><title>\\Controller</title>
<ellipse fill="none" stroke="black" cx="242" cy="-265" rx="63.1385" ry="18.3848"/>
<text text-anchor="middle" x="242" y="-261.4" font-family="Times Roman,serif" font-size="14.00" fill="gray">\Controller</text>
</g>
<!-- \\AppController&#45;&gt;\\Controller -->
<g id="edge3" class="edge"><title>\\AppController&#45;&gt;\\Controller</title>
<path fill="none" stroke="black" d="M450.865,-1368.93C430.836,-1366.8 409.551,-1360.48 396,-1345 244.895,-1172.33 443.246,-511.027 324,-315 316.044,-301.921 303.247,-291.792 290.106,-284.18"/>
<polygon fill="none" stroke="black" points="291.475,-280.943 281.008,-279.306 288.17,-287.113 291.475,-280.943"/>
</g>
<!-- \\AppModel -->
<g id="node3" class="node"><title>\\AppModel</title>
<polygon fill="none" stroke="black" points="538,-2653 468,-2653 468,-2617 538,-2617 538,-2653"/>
<text text-anchor="middle" x="503" y="-2632.1" font-family="Courier,monospace" font-size="11.00">AppModel</text>
</g>
<!-- \\NetCommonsAppModel -->
<g id="node47" class="node"><title>\\NetCommonsAppModel</title>
<polygon fill="none" stroke="black" points="311,-2653 173,-2653 173,-2617 311,-2617 311,-2653"/>
<text text-anchor="middle" x="242" y="-2632.1" font-family="Courier,monospace" font-size="11.00">NetCommonsAppModel</text>
</g>
<!-- \\AppModel&#45;&gt;\\NetCommonsAppModel -->
<g id="edge5" class="edge"><title>\\AppModel&#45;&gt;\\NetCommonsAppModel</title>
<path fill="none" stroke="black" d="M467.256,-2635C429.848,-2635 369.903,-2635 321.254,-2635"/>
<polygon fill="none" stroke="black" points="321.056,-2631.5 311.056,-2635 321.056,-2638.5 321.056,-2631.5"/>
</g>
<!-- \\DatabaseConfiguration -->
<g id="node4" class="node"><title>\\DatabaseConfiguration</title>
<polygon fill="none" stroke="black" points="879,-2626 721,-2626 721,-2590 879,-2590 879,-2626"/>
<text text-anchor="middle" x="800" y="-2605.1" font-family="Courier,monospace" font-size="11.00">DatabaseConfiguration</text>
</g>
<!-- \\DatabaseConfiguration&#45;&gt;\\AppModel -->
<g id="edge7" class="edge"><title>\\DatabaseConfiguration&#45;&gt;\\AppModel</title>
<path fill="none" stroke="black" d="M720.8,-2615.2C665.959,-2620.19 594.863,-2626.65 549.084,-2630.81"/>
<polygon fill="none" stroke="black" points="548.509,-2627.35 538.867,-2631.74 549.143,-2634.32 548.509,-2627.35"/>
</g>
<!-- \\AppHelper -->
<g id="node5" class="node"><title>\\AppHelper</title>
<polygon fill="none" stroke="black" points="838,-1573 762,-1573 762,-1537 838,-1537 838,-1573"/>
<text text-anchor="middle" x="800" y="-1552.1" font-family="Courier,monospace" font-size="11.00">AppHelper</text>
</g>
<!-- \\Helper -->
<g id="node65" class="node"><title>\\Helper</title>
<ellipse fill="none" stroke="black" cx="503" cy="-342" rx="43.8406" ry="18.3848"/>
<text text-anchor="middle" x="503" y="-338.4" font-family="Times Roman,serif" font-size="14.00" fill="gray">Helper</text>
</g>
<!-- \\AppHelper&#45;&gt;\\Helper -->
<g id="edge9" class="edge"><title>\\AppHelper&#45;&gt;\\Helper</title>
<path fill="none" stroke="black" d="M791.443,-1536.89C769.028,-1488.51 708.502,-1351.75 682,-1231 640.553,-1042.17 738.267,-508.652 610,-364 596.767,-349.077 576.349,-342.702 556.882,-340.371"/>
<polygon fill="none" stroke="black" points="557.097,-336.876 546.832,-339.496 556.491,-343.85 557.097,-336.876"/>
</g>
<!-- \\NetCommonsDeleteTest -->
<g id="node6" class="node"><title>\\NetCommonsDeleteTest</title>
<polygon fill="none" stroke="black" points="1172,-2518 1020,-2518 1020,-2482 1172,-2482 1172,-2518"/>
<text text-anchor="middle" x="1096" y="-2497.1" font-family="Courier,monospace" font-size="11.00">NetCommonsDeleteTest</text>
</g>
<!-- \\NetCommonsModelTestCase -->
<g id="node15" class="node"><title>\\NetCommonsModelTestCase</title>
<polygon fill="none" stroke="black" points="886,-2464 714,-2464 714,-2428 886,-2428 886,-2464"/>
<text text-anchor="middle" x="800" y="-2443.1" font-family="Courier,monospace" font-size="11.00">NetCommonsModelTestCase</text>
</g>
<!-- \\NetCommonsDeleteTest&#45;&gt;\\NetCommonsModelTestCase -->
<g id="edge11" class="edge"><title>\\NetCommonsDeleteTest&#45;&gt;\\NetCommonsModelTestCase</title>
<path fill="none" stroke="black" d="M1019.77,-2486.09C982.111,-2479.22 936.267,-2470.86 896.214,-2463.55"/>
<polygon fill="none" stroke="black" points="896.63,-2460.07 886.164,-2461.72 895.373,-2466.96 896.63,-2460.07"/>
</g>
<!-- \\NetCommonsConsoleTestCase -->
<g id="node7" class="node"><title>\\NetCommonsConsoleTestCase</title>
<polygon fill="none" stroke="black" points="892,-2572 708,-2572 708,-2536 892,-2536 892,-2572"/>
<text text-anchor="middle" x="800" y="-2551.1" font-family="Courier,monospace" font-size="11.00">NetCommonsConsoleTestCase</text>
</g>
<!-- \\NetCommonsCakeTestCase -->
<g id="node13" class="node"><title>\\NetCommonsCakeTestCase</title>
<polygon fill="none" stroke="black" points="585,-2491 421,-2491 421,-2455 585,-2455 585,-2491"/>
<text text-anchor="middle" x="503" y="-2470.1" font-family="Courier,monospace" font-size="11.00">NetCommonsCakeTestCase</text>
</g>
<!-- \\NetCommonsConsoleTestCase&#45;&gt;\\NetCommonsCakeTestCase -->
<g id="edge13" class="edge"><title>\\NetCommonsConsoleTestCase&#45;&gt;\\NetCommonsCakeTestCase</title>
<path fill="none" stroke="black" d="M717.936,-2535.98C705.852,-2533.11 693.579,-2530.07 682,-2527 644.303,-2517.01 602.565,-2504.51 568.882,-2494.05"/>
<polygon fill="none" stroke="black" points="569.742,-2490.65 559.154,-2491.01 567.658,-2497.33 569.742,-2490.65"/>
</g>
<!-- \\NetCommonsGetTest -->
<g id="node8" class="node"><title>\\NetCommonsGetTest</title>
<polygon fill="none" stroke="black" points="1161,-2464 1031,-2464 1031,-2428 1161,-2428 1161,-2464"/>
<text text-anchor="middle" x="1096" y="-2443.1" font-family="Courier,monospace" font-size="11.00">NetCommonsGetTest</text>
</g>
<!-- \\NetCommonsGetTest&#45;&gt;\\NetCommonsModelTestCase -->
<g id="edge15" class="edge"><title>\\NetCommonsGetTest&#45;&gt;\\NetCommonsModelTestCase</title>
<path fill="none" stroke="black" d="M1030.31,-2446C990.884,-2446 940.035,-2446 896.149,-2446"/>
<polygon fill="none" stroke="black" points="896.029,-2442.5 886.029,-2446 896.029,-2449.5 896.029,-2442.5"/>
</g>
<!-- \\NetCommonsHelperTestCase -->
<g id="node9" class="node"><title>\\NetCommonsHelperTestCase</title>
<polygon fill="none" stroke="black" points="889,-2518 711,-2518 711,-2482 889,-2482 889,-2518"/>
<text text-anchor="middle" x="800" y="-2497.1" font-family="Courier,monospace" font-size="11.00">NetCommonsHelperTestCase</text>
</g>
<!-- \\NetCommonsHelperTestCase&#45;&gt;\\NetCommonsCakeTestCase -->
<g id="edge17" class="edge"><title>\\NetCommonsHelperTestCase&#45;&gt;\\NetCommonsCakeTestCase</title>
<path fill="none" stroke="black" d="M710.487,-2491.86C674.267,-2488.57 632.456,-2484.77 595.9,-2481.45"/>
<polygon fill="none" stroke="black" points="596.013,-2477.94 585.737,-2480.52 595.379,-2484.91 596.013,-2477.94"/>
</g>
<!-- \\NetCommonsControllerBaseTestCase -->
<g id="node10" class="node"><title>\\NetCommonsControllerBaseTestCase</title>
<polygon fill="none" stroke="black" points="916,-1222 684,-1222 684,-1186 916,-1186 916,-1222"/>
<text text-anchor="middle" x="800" y="-1201.1" font-family="Courier,monospace" font-size="11.00">NetCommonsControllerBaseTestCase</text>
</g>
<!-- \\ControllerTestCase -->
<g id="node71" class="node"><title>\\ControllerTestCase</title>
<ellipse fill="none" stroke="black" cx="503" cy="-288" rx="106.773" ry="18.3848"/>
<text text-anchor="middle" x="503" y="-284.4" font-family="Times Roman,serif" font-size="14.00" fill="gray">\ControllerTestCase</text>
</g>
<!-- \\NetCommonsControllerBaseTestCase&#45;&gt;\\ControllerTestCase -->
<g id="edge19" class="edge"><title>\\NetCommonsControllerBaseTestCase&#45;&gt;\\ControllerTestCase</title>
<path fill="none" stroke="black" d="M691.563,-1185.94C688.104,-1183.3 684.892,-1180.33 682,-1177 556.034,-1031.8 734.344,-461.589 610,-315 606.359,-310.708 602.146,-307.046 597.538,-303.925"/>
<polygon fill="none" stroke="black" points="599.261,-300.878 588.857,-298.873 595.74,-306.928 599.261,-300.878"/>
</g>
<!-- \\NetCommonsValidateTest -->
<g id="node11" class="node"><title>\\NetCommonsValidateTest</title>
<polygon fill="none" stroke="black" points="1178,-2626 1014,-2626 1014,-2590 1178,-2590 1178,-2626"/>
<text text-anchor="middle" x="1096" y="-2605.1" font-family="Courier,monospace" font-size="11.00">NetCommonsValidateTest</text>
</g>
<!-- \\NetCommonsValidateTest&#45;&gt;\\NetCommonsModelTestCase -->
<g id="edge21" class="edge"><title>\\NetCommonsValidateTest&#45;&gt;\\NetCommonsModelTestCase</title>
<path fill="none" stroke="black" d="M1013.43,-2593.49C1005.12,-2590.15 997.129,-2586.05 990,-2581 942.918,-2547.66 965.486,-2505.76 918,-2473 911.099,-2468.24 903.484,-2464.31 895.545,-2461.06"/>
<polygon fill="none" stroke="black" points="896.692,-2457.75 886.099,-2457.56 894.256,-2464.32 896.692,-2457.75"/>
</g>
<!-- \\NetCommonsTestSuite -->
<g id="node12" class="node"><title>\\NetCommonsTestSuite</title>
<polygon fill="none" stroke="black" points="1168,-1060 1024,-1060 1024,-1024 1168,-1024 1168,-1060"/>
<text text-anchor="middle" x="1096" y="-1039.1" font-family="Courier,monospace" font-size="11.00">NetCommonsTestSuite</text>
</g>
<!-- \\CakeTestSuite -->
<g id="node74" class="node"><title>\\CakeTestSuite</title>
<ellipse fill="none" stroke="black" cx="800" cy="-342" rx="84.1457" ry="18.3848"/>
<text text-anchor="middle" x="800" y="-338.4" font-family="Times Roman,serif" font-size="14.00" fill="gray">\CakeTestSuite</text>
</g>
<!-- \\NetCommonsTestSuite&#45;&gt;\\CakeTestSuite -->
<g id="edge23" class="edge"><title>\\NetCommonsTestSuite&#45;&gt;\\CakeTestSuite</title>
<path fill="none" stroke="black" d="M1023.26,-1035.84C1010.6,-1031.59 998.723,-1025.03 990,-1015 798.983,-795.341 1116.06,-577.328 918,-364 911.088,-356.555 902.529,-351.148 893.202,-347.272"/>
<polygon fill="none" stroke="black" points="894.245,-343.929 883.65,-343.888 891.907,-350.527 894.245,-343.929"/>
</g>
<!-- \\CakeTestCase -->
<g id="node76" class="node"><title>\\CakeTestCase</title>
<ellipse fill="none" stroke="black" cx="242" cy="-342" rx="82.0244" ry="18.3848"/>
<text text-anchor="middle" x="242" y="-338.4" font-family="Times Roman,serif" font-size="14.00" fill="gray">\CakeTestCase</text>
</g>
<!-- \\NetCommonsCakeTestCase&#45;&gt;\\CakeTestCase -->
<g id="edge25" class="edge"><title>\\NetCommonsCakeTestCase&#45;&gt;\\CakeTestCase</title>
<path fill="none" stroke="black" d="M501.005,-2454.89C489.651,-2351.45 432.423,-1824.96 396,-1394 386.338,-1279.68 396.958,-452.536 324,-364 322.278,-361.91 320.38,-360.006 318.341,-358.274"/>
<polygon fill="none" stroke="black" points="320.065,-355.211 309.85,-352.402 316.084,-360.968 320.065,-355.211"/>
</g>
<!-- \\NetCommonsSaveTest -->
<g id="node14" class="node"><title>\\NetCommonsSaveTest</title>
<polygon fill="none" stroke="black" points="1165,-2572 1027,-2572 1027,-2536 1165,-2536 1165,-2572"/>
<text text-anchor="middle" x="1096" y="-2551.1" font-family="Courier,monospace" font-size="11.00">NetCommonsSaveTest</text>
</g>
<!-- \\NetCommonsSaveTest&#45;&gt;\\NetCommonsModelTestCase -->
<g id="edge27" class="edge"><title>\\NetCommonsSaveTest&#45;&gt;\\NetCommonsModelTestCase</title>
<path fill="none" stroke="black" d="M1026.75,-2540.56C1014.21,-2536.96 1001.48,-2532.49 990,-2527 953.921,-2509.73 954.288,-2489.83 918,-2473 910.962,-2469.74 903.501,-2466.85 895.884,-2464.31"/>
<polygon fill="none" stroke="black" points="896.762,-2460.91 886.173,-2461.26 894.666,-2467.59 896.762,-2460.91"/>
</g>
<!-- \\NetCommonsModelTestCase&#45;&gt;\\NetCommonsCakeTestCase -->
<g id="edge29" class="edge"><title>\\NetCommonsModelTestCase&#45;&gt;\\NetCommonsCakeTestCase</title>
<path fill="none" stroke="black" d="M713.696,-2453.85C676.671,-2457.21 633.35,-2461.15 595.65,-2464.58"/>
<polygon fill="none" stroke="black" points="595.328,-2461.09 585.686,-2465.48 595.962,-2468.06 595.328,-2461.09"/>
</g>
<!-- \\NetCommonsControllerTestCase -->
<g id="node16" class="node"><title>\\NetCommonsControllerTestCase</title>
<polygon fill="none" stroke="black" points="1199,-1222 993,-1222 993,-1186 1199,-1186 1199,-1222"/>
<text text-anchor="middle" x="1096" y="-1201.1" font-family="Courier,monospace" font-size="11.00">NetCommonsControllerTestCase</text>
</g>
<!-- \\NetCommonsControllerTestCase&#45;&gt;\\NetCommonsControllerBaseTestCase -->
<g id="edge31" class="edge"><title>\\NetCommonsControllerTestCase&#45;&gt;\\NetCommonsControllerBaseTestCase</title>
<path fill="none" stroke="black" d="M992.889,-1204C971.548,-1204 948.831,-1204 926.758,-1204"/>
<polygon fill="none" stroke="black" points="926.669,-1200.5 916.669,-1204 926.669,-1207.5 926.669,-1200.5"/>
</g>
<!-- \\NetCommonsAppController -->
<g id="node17" class="node"><title>\\NetCommonsAppController</title>
<polygon fill="none" stroke="black" points="886,-1168 714,-1168 714,-1132 886,-1132 886,-1168"/>
<text text-anchor="middle" x="800" y="-1147.1" font-family="Courier,monospace" font-size="11.00">NetCommonsAppController</text>
</g>
<!-- \\NetCommonsAppController&#45;&gt;\\Controller -->
<g id="edge33" class="edge"><title>\\NetCommonsAppController&#45;&gt;\\Controller</title>
<path fill="none" stroke="black" d="M793.148,-1131.85C773.058,-1077.96 713.72,-913.838 682,-773 656.755,-660.91 696.717,-336.376 610,-261 566.323,-223.035 400.194,-240.802 306.781,-254.437"/>
<polygon fill="none" stroke="black" points="306.247,-250.978 296.869,-255.909 307.275,-257.902 306.247,-250.978"/>
</g>
<!-- \\AssetComponent -->
<g id="node18" class="node"><title>\\AssetComponent</title>
<polygon fill="none" stroke="black" points="1151,-1006 1041,-1006 1041,-970 1151,-970 1151,-1006"/>
<text text-anchor="middle" x="1096" y="-985.1" font-family="Courier,monospace" font-size="11.00">AssetComponent</text>
</g>
<!-- \\Component -->
<g id="node82" class="node"><title>\\Component</title>
<ellipse fill="none" stroke="black" cx="800" cy="-288" rx="70.9184" ry="18.3848"/>
<text text-anchor="middle" x="800" y="-284.4" font-family="Times Roman,serif" font-size="14.00" fill="gray">\Component</text>
</g>
<!-- \\AssetComponent&#45;&gt;\\Component -->
<g id="edge35" class="edge"><title>\\AssetComponent&#45;&gt;\\Component</title>
<path fill="none" stroke="black" d="M1040.33,-986.203C1021.75,-982.722 1002.59,-975.468 990,-961 800.34,-743.088 1110.31,-530.576 918,-315 908.225,-304.042 894.994,-297.054 880.924,-292.686"/>
<polygon fill="none" stroke="black" points="881.644,-289.256 871.08,-290.064 879.842,-296.02 881.644,-289.256"/>
</g>
<!-- \\NetCommonsTimeComponent -->
<g id="node19" class="node"><title>\\NetCommonsTimeComponent</title>
<polygon fill="none" stroke="black" points="1182,-952 1010,-952 1010,-916 1182,-916 1182,-952"/>
<text text-anchor="middle" x="1096" y="-931.1" font-family="Courier,monospace" font-size="11.00">NetCommonsTimeComponent</text>
</g>
<!-- \\NetCommonsTimeComponent&#45;&gt;\\Component -->
<g id="edge37" class="edge"><title>\\NetCommonsTimeComponent&#45;&gt;\\Component</title>
<path fill="none" stroke="black" d="M1009.92,-922.16C1002.42,-918.303 995.58,-913.347 990,-907 814.99,-707.945 1095.43,-511.899 918,-315 908.227,-304.155 895.069,-297.207 881.082,-292.841"/>
<polygon fill="none" stroke="black" points="881.864,-289.426 871.298,-290.214 880.049,-296.187 881.864,-289.426"/>
</g>
<!-- \\PermissionComponent -->
<g id="node20" class="node"><title>\\PermissionComponent</title>
<polygon fill="none" stroke="black" points="1168,-898 1024,-898 1024,-862 1168,-862 1168,-898"/>
<text text-anchor="middle" x="1096" y="-877.1" font-family="Courier,monospace" font-size="11.00">PermissionComponent</text>
</g>
<!-- \\PermissionComponent&#45;&gt;\\Component -->
<g id="edge39" class="edge"><title>\\PermissionComponent&#45;&gt;\\Component</title>
<path fill="none" stroke="black" d="M1023.44,-873.679C1010.77,-869.449 998.837,-862.93 990,-853 829.624,-672.784 1080.57,-493.24 918,-315 908.162,-304.213 894.974,-297.293 880.979,-292.934"/>
<polygon fill="none" stroke="black" points="881.757,-289.519 871.192,-290.31 879.944,-296.281 881.757,-289.519"/>
</g>
<!-- \\NetCommonsComponent -->
<g id="node21" class="node"><title>\\NetCommonsComponent</title>
<polygon fill="none" stroke="black" points="1168,-844 1024,-844 1024,-808 1168,-808 1168,-844"/>
<text text-anchor="middle" x="1096" y="-823.1" font-family="Courier,monospace" font-size="11.00">NetCommonsComponent</text>
</g>
<!-- \\NetCommonsComponent&#45;&gt;\\Component -->
<g id="edge41" class="edge"><title>\\NetCommonsComponent&#45;&gt;\\Component</title>
<path fill="none" stroke="black" d="M1023.28,-819.485C1010.7,-815.262 998.846,-808.795 990,-799 844.238,-637.599 1065.73,-474.605 918,-315 908.083,-304.286 894.859,-297.398 880.853,-293.049"/>
<polygon fill="none" stroke="black" points="881.628,-289.634 871.063,-290.429 879.818,-296.396 881.628,-289.634"/>
</g>
<!-- \\NetCommonsController -->
<g id="node22" class="node"><title>\\NetCommonsController</title>
<polygon fill="none" stroke="black" points="1172,-1168 1020,-1168 1020,-1132 1172,-1132 1172,-1168"/>
<text text-anchor="middle" x="1096" y="-1147.1" font-family="Courier,monospace" font-size="11.00">NetCommonsController</text>
</g>
<!-- \\NetCommonsController&#45;&gt;\\NetCommonsAppController -->
<g id="edge43" class="edge"><title>\\NetCommonsController&#45;&gt;\\NetCommonsAppController</title>
<path fill="none" stroke="black" d="M1019.77,-1150C982.111,-1150 936.267,-1150 896.214,-1150"/>
<polygon fill="none" stroke="black" points="896.164,-1146.5 886.164,-1150 896.164,-1153.5 896.164,-1146.5"/>
</g>
<!-- \\NetCommonsUrl -->
<g id="node23" class="node"><title>\\NetCommonsUrl</title>
<polygon fill="none" stroke="black" points="1148,-2086 1044,-2086 1044,-2050 1148,-2050 1148,-2086"/>
<text text-anchor="middle" x="1096" y="-2065.1" font-family="Courier,monospace" font-size="11.00">NetCommonsUrl</text>
</g>
<!-- \\NetCommonsTime -->
<g id="node24" class="node"><title>\\NetCommonsTime</title>
<polygon fill="none" stroke="black" points="1151,-2032 1041,-2032 1041,-1996 1151,-1996 1151,-2032"/>
<text text-anchor="middle" x="1096" y="-2011.1" font-family="Courier,monospace" font-size="11.00">NetCommonsTime</text>
</g>
<!-- \\CurrentBase -->
<g id="node25" class="node"><title>\\CurrentBase</title>
<polygon fill="none" stroke="black" points="845,-2248 755,-2248 755,-2212 845,-2212 845,-2248"/>
<text text-anchor="middle" x="800" y="-2227.1" font-family="Courier,monospace" font-size="11.00">CurrentBase</text>
</g>
<!-- \\Current -->
<g id="node26" class="node"><title>\\Current</title>
<polygon fill="none" stroke="black" points="1128,-2248 1064,-2248 1064,-2212 1128,-2212 1128,-2248"/>
<text text-anchor="middle" x="1096" y="-2227.1" font-family="Courier,monospace" font-size="11.00">Current</text>
</g>
<!-- \\Current&#45;&gt;\\CurrentBase -->
<g id="edge45" class="edge"><title>\\Current&#45;&gt;\\CurrentBase</title>
<path fill="none" stroke="black" d="M1063.76,-2230C1013.9,-2230 917.444,-2230 856.016,-2230"/>
<polygon fill="none" stroke="black" points="855.723,-2226.5 845.723,-2230 855.723,-2233.5 855.723,-2226.5"/>
</g>
<!-- \\CurrentSystem -->
<g id="node27" class="node"><title>\\CurrentSystem</title>
<polygon fill="none" stroke="black" points="1148,-1924 1044,-1924 1044,-1888 1148,-1888 1148,-1924"/>
<text text-anchor="middle" x="1096" y="-1903.1" font-family="Courier,monospace" font-size="11.00">CurrentSystem</text>
</g>
<!-- \\CurrentPage -->
<g id="node28" class="node"><title>\\CurrentPage</title>
<polygon fill="none" stroke="black" points="1141,-1870 1051,-1870 1051,-1834 1141,-1834 1141,-1870"/>
<text text-anchor="middle" x="1096" y="-1849.1" font-family="Courier,monospace" font-size="11.00">CurrentPage</text>
</g>
<!-- \\CurrentFrame -->
<g id="node29" class="node"><title>\\CurrentFrame</title>
<polygon fill="none" stroke="black" points="1145,-1816 1047,-1816 1047,-1780 1145,-1780 1145,-1816"/>
<text text-anchor="middle" x="1096" y="-1795.1" font-family="Courier,monospace" font-size="11.00">CurrentFrame</text>
</g>
<!-- \\TokenHelper -->
<g id="node30" class="node"><title>\\TokenHelper</title>
<polygon fill="none" stroke="black" points="1141,-736 1051,-736 1051,-700 1141,-700 1141,-736"/>
<text text-anchor="middle" x="1096" y="-715.1" font-family="Courier,monospace" font-size="11.00">TokenHelper</text>
</g>
<!-- \\FormHelper -->
<g id="node89" class="node"><title>\\FormHelper</title>
<ellipse fill="none" stroke="black" cx="800" cy="-234" rx="70.9184" ry="18.3848"/>
<text text-anchor="middle" x="800" y="-230.4" font-family="Times Roman,serif" font-size="14.00" fill="gray">\FormHelper</text>
</g>
<!-- \\TokenHelper&#45;&gt;\\FormHelper -->
<g id="edge47" class="edge"><title>\\TokenHelper&#45;&gt;\\FormHelper</title>
<path fill="none" stroke="black" d="M1050.3,-717.334C1029.08,-714.577 1005.23,-707.563 990,-691 858.822,-548.383 1050.91,-402.002 918,-261 907.986,-250.377 894.718,-243.531 880.698,-239.194"/>
<polygon fill="none" stroke="black" points="881.468,-235.777 870.904,-236.577 879.661,-242.54 881.468,-235.777"/>
</g>
<!-- \\SingletonViewBlockHtmlHelper -->
<g id="node31" class="node"><title>\\SingletonViewBlockHtmlHelper</title>
<polygon fill="none" stroke="black" points="1199,-628 993,-628 993,-592 1199,-592 1199,-628"/>
<text text-anchor="middle" x="1096" y="-607.1" font-family="Courier,monospace" font-size="11.00">SingletonViewBlockHtmlHelper</text>
</g>
<!-- \\HtmlHelper -->
<g id="node91" class="node"><title>\\HtmlHelper</title>
<ellipse fill="none" stroke="black" cx="800" cy="-180" rx="67.1751" ry="18.3848"/>
<text text-anchor="middle" x="800" y="-176.4" font-family="Times Roman,serif" font-size="14.00" fill="gray">HtmlHelper</text>
</g>
<!-- \\SingletonViewBlockHtmlHelper&#45;&gt;\\HtmlHelper -->
<g id="edge49" class="edge"><title>\\SingletonViewBlockHtmlHelper&#45;&gt;\\HtmlHelper</title>
<path fill="none" stroke="black" d="M1000.32,-591.843C996.594,-589.252 993.124,-586.318 990,-583 873.364,-459.12 1036.14,-329.443 918,-207 906.987,-195.587 892.213,-188.556 876.851,-184.316"/>
<polygon fill="none" stroke="black" points="877.243,-180.812 866.706,-181.915 875.631,-187.624 877.243,-180.812"/>
</g>
<!-- \\FormInputHelper -->
<g id="node32" class="node"><title>\\FormInputHelper</title>
<polygon fill="none" stroke="black" points="1155,-2194 1037,-2194 1037,-2158 1155,-2158 1155,-2194"/>
<text text-anchor="middle" x="1096" y="-2173.1" font-family="Courier,monospace" font-size="11.00">FormInputHelper</text>
</g>
<!-- \\FormInputHelper&#45;&gt;\\AppHelper -->
<g id="edge51" class="edge"><title>\\FormInputHelper&#45;&gt;\\AppHelper</title>
<path fill="none" stroke="black" d="M1036.89,-2171.7C1019.99,-2167.83 1002.72,-2160.98 990,-2149 903.596,-2067.64 825.845,-1690.04 805.288,-1583.22"/>
<polygon fill="none" stroke="black" points="808.687,-1582.36 803.374,-1573.2 801.812,-1583.67 808.687,-1582.36"/>
</g>
<!-- \\WizardHelper -->
<g id="node33" class="node"><title>\\WizardHelper</title>
<polygon fill="none" stroke="black" points="1145,-2140 1047,-2140 1047,-2104 1145,-2104 1145,-2140"/>
<text text-anchor="middle" x="1096" y="-2119.1" font-family="Courier,monospace" font-size="11.00">WizardHelper</text>
</g>
<!-- \\WizardHelper&#45;&gt;\\AppHelper -->
<g id="edge53" class="edge"><title>\\WizardHelper&#45;&gt;\\AppHelper</title>
<path fill="none" stroke="black" d="M1046.93,-2119.43C1027.15,-2116.07 1005.41,-2109.1 990,-2095 833.728,-1952.04 805.968,-1672.88 801.053,-1583.35"/>
<polygon fill="none" stroke="black" points="804.539,-1582.98 800.55,-1573.16 797.548,-1583.33 804.539,-1582.98"/>
</g>
<!-- \\DisplayNumberHelper -->
<g id="node34" class="node"><title>\\DisplayNumberHelper</title>
<polygon fill="none" stroke="black" points="1168,-1978 1024,-1978 1024,-1942 1168,-1942 1168,-1978"/>
<text text-anchor="middle" x="1096" y="-1957.1" font-family="Courier,monospace" font-size="11.00">DisplayNumberHelper</text>
</g>
<!-- \\DisplayNumberHelper&#45;&gt;\\AppHelper -->
<g id="edge55" class="edge"><title>\\DisplayNumberHelper&#45;&gt;\\AppHelper</title>
<path fill="none" stroke="black" d="M1023.37,-1950.35C1011.37,-1946.37 999.694,-1940.79 990,-1933 872.944,-1838.88 821.659,-1653.92 805.762,-1583.31"/>
<polygon fill="none" stroke="black" points="809.144,-1582.39 803.59,-1573.37 802.305,-1583.88 809.144,-1582.39"/>
</g>
<!-- \\MessageFlashHelper -->
<g id="node35" class="node"><title>\\MessageFlashHelper</title>
<polygon fill="none" stroke="black" points="1165,-1762 1027,-1762 1027,-1726 1165,-1726 1165,-1762"/>
<text text-anchor="middle" x="1096" y="-1741.1" font-family="Courier,monospace" font-size="11.00">MessageFlashHelper</text>
</g>
<!-- \\MessageFlashHelper&#45;&gt;\\AppHelper -->
<g id="edge57" class="edge"><title>\\MessageFlashHelper&#45;&gt;\\AppHelper</title>
<path fill="none" stroke="black" d="M1026.74,-1731.23C1014.13,-1727.56 1001.38,-1722.89 990,-1717 921.285,-1681.43 856.021,-1616.7 822.804,-1580.77"/>
<polygon fill="none" stroke="black" points="825.158,-1578.16 815.829,-1573.14 819.991,-1582.88 825.158,-1578.16"/>
</g>
<!-- \\DateHelper -->
<g id="node36" class="node"><title>\\DateHelper</title>
<polygon fill="none" stroke="black" points="1138,-1708 1054,-1708 1054,-1672 1138,-1672 1138,-1708"/>
<text text-anchor="middle" x="1096" y="-1687.1" font-family="Courier,monospace" font-size="11.00">DateHelper</text>
</g>
<!-- \\DateHelper&#45;&gt;\\AppHelper -->
<g id="edge59" class="edge"><title>\\DateHelper&#45;&gt;\\AppHelper</title>
<path fill="none" stroke="black" d="M1053.9,-1682C1034.11,-1677.55 1010.43,-1671.24 990,-1663 932.986,-1640.02 872.038,-1602.87 834.971,-1578.69"/>
<polygon fill="none" stroke="black" points="836.809,-1575.71 826.531,-1573.14 832.962,-1581.56 836.809,-1575.71"/>
</g>
<!-- \\SnsButtonHelper -->
<g id="node37" class="node"><title>\\SnsButtonHelper</title>
<polygon fill="none" stroke="black" points="1155,-1654 1037,-1654 1037,-1618 1155,-1618 1155,-1654"/>
<text text-anchor="middle" x="1096" y="-1633.1" font-family="Courier,monospace" font-size="11.00">SnsButtonHelper</text>
</g>
<!-- \\SnsButtonHelper&#45;&gt;\\AppHelper -->
<g id="edge61" class="edge"><title>\\SnsButtonHelper&#45;&gt;\\AppHelper</title>
<path fill="none" stroke="black" d="M1036.78,-1621.22C1021.51,-1617.33 1005.13,-1613.08 990,-1609 941.823,-1596.02 887.034,-1580.35 848.712,-1569.24"/>
<polygon fill="none" stroke="black" points="849.429,-1565.81 838.849,-1566.38 847.477,-1572.53 849.429,-1565.81"/>
</g>
<!-- \\BackToHelper -->
<g id="node38" class="node"><title>\\BackToHelper</title>
<polygon fill="none" stroke="black" points="1145,-1600 1047,-1600 1047,-1564 1145,-1564 1145,-1600"/>
<text text-anchor="middle" x="1096" y="-1579.1" font-family="Courier,monospace" font-size="11.00">BackToHelper</text>
</g>
<!-- \\BackToHelper&#45;&gt;\\AppHelper -->
<g id="edge63" class="edge"><title>\\BackToHelper&#45;&gt;\\AppHelper</title>
<path fill="none" stroke="black" d="M1046.79,-1577.51C991.964,-1572.51 903.851,-1564.47 849.079,-1559.48"/>
<polygon fill="none" stroke="black" points="849.199,-1555.97 838.922,-1558.55 848.563,-1562.94 849.199,-1555.97"/>
</g>
<!-- \\NetCommonsHtmlHelper -->
<g id="node39" class="node"><title>\\NetCommonsHtmlHelper</title>
<polygon fill="none" stroke="black" points="1172,-1546 1020,-1546 1020,-1510 1172,-1510 1172,-1546"/>
<text text-anchor="middle" x="1096" y="-1525.1" font-family="Courier,monospace" font-size="11.00">NetCommonsHtmlHelper</text>
</g>
<!-- \\NetCommonsHtmlHelper&#45;&gt;\\AppHelper -->
<g id="edge65" class="edge"><title>\\NetCommonsHtmlHelper&#45;&gt;\\AppHelper</title>
<path fill="none" stroke="black" d="M1019.77,-1534.95C965.946,-1539.86 895.407,-1546.3 848.946,-1550.54"/>
<polygon fill="none" stroke="black" points="848.475,-1547.06 838.835,-1551.46 849.111,-1554.03 848.475,-1547.06"/>
</g>
<!-- \\ButtonHelper -->
<g id="node40" class="node"><title>\\ButtonHelper</title>
<polygon fill="none" stroke="black" points="1145,-682 1047,-682 1047,-646 1145,-646 1145,-682"/>
<text text-anchor="middle" x="1096" y="-661.1" font-family="Courier,monospace" font-size="11.00">ButtonHelper</text>
</g>
<!-- \\ButtonHelper&#45;&gt;\\FormHelper -->
<g id="edge67" class="edge"><title>\\ButtonHelper&#45;&gt;\\FormHelper</title>
<path fill="none" stroke="black" d="M1046.95,-662.681C1026.69,-659.589 1004.58,-652.486 990,-637 873.364,-513.12 1036.14,-383.443 918,-261 907.863,-250.494 894.538,-243.702 880.502,-239.381"/>
<polygon fill="none" stroke="black" points="881.266,-235.962 870.702,-236.77 879.464,-242.726 881.266,-235.962"/>
</g>
<!-- \\ComposerHelper -->
<g id="node41" class="node"><title>\\ComposerHelper</title>
<polygon fill="none" stroke="black" points="1151,-1492 1041,-1492 1041,-1456 1151,-1456 1151,-1492"/>
<text text-anchor="middle" x="1096" y="-1471.1" font-family="Courier,monospace" font-size="11.00">ComposerHelper</text>
</g>
<!-- \\ComposerHelper&#45;&gt;\\AppHelper -->
<g id="edge69" class="edge"><title>\\ComposerHelper&#45;&gt;\\AppHelper</title>
<path fill="none" stroke="black" d="M1040.36,-1487.87C1024.1,-1492 1006.32,-1496.6 990,-1501 941.823,-1513.98 887.034,-1529.65 848.712,-1540.76"/>
<polygon fill="none" stroke="black" points="847.477,-1537.47 838.849,-1543.62 849.429,-1544.19 847.477,-1537.47"/>
</g>
<!-- \\LinkButtonHelper -->
<g id="node42" class="node"><title>\\LinkButtonHelper</title>
<polygon fill="none" stroke="black" points="1158,-790 1034,-790 1034,-754 1158,-754 1158,-790"/>
<text text-anchor="middle" x="1096" y="-769.1" font-family="Courier,monospace" font-size="11.00">LinkButtonHelper</text>
</g>
<!-- \\LinkButtonHelper&#45;&gt;\\FormHelper -->
<g id="edge71" class="edge"><title>\\LinkButtonHelper&#45;&gt;\\FormHelper</title>
<path fill="none" stroke="black" d="M1033.44,-768.402C1017.23,-764.469 1001.2,-757.402 990,-745 844.238,-583.599 1065.73,-420.605 918,-261 908.083,-250.286 894.859,-243.398 880.853,-239.049"/>
<polygon fill="none" stroke="black" points="881.628,-235.634 871.063,-236.429 879.818,-242.396 881.628,-235.634"/>
</g>
<!-- \\NetCommonsTimeHelper -->
<g id="node43" class="node"><title>\\NetCommonsTimeHelper</title>
<polygon fill="none" stroke="black" points="1172,-1438 1020,-1438 1020,-1402 1172,-1402 1172,-1438"/>
<text text-anchor="middle" x="1096" y="-1417.1" font-family="Courier,monospace" font-size="11.00">NetCommonsTimeHelper</text>
</g>
<!-- \\NetCommonsTimeHelper&#45;&gt;\\AppHelper -->
<g id="edge73" class="edge"><title>\\NetCommonsTimeHelper&#45;&gt;\\AppHelper</title>
<path fill="none" stroke="black" d="M1019.93,-1436.74C1009.73,-1439.75 999.511,-1443.17 990,-1447 932.986,-1469.98 872.038,-1507.13 834.971,-1531.31"/>
<polygon fill="none" stroke="black" points="832.962,-1528.44 826.531,-1536.86 836.809,-1534.29 832.962,-1528.44"/>
</g>
<!-- \\NetCommonsFormHelper -->
<g id="node44" class="node"><title>\\NetCommonsFormHelper</title>
<polygon fill="none" stroke="black" points="1172,-1384 1020,-1384 1020,-1348 1172,-1348 1172,-1384"/>
<text text-anchor="middle" x="1096" y="-1363.1" font-family="Courier,monospace" font-size="11.00">NetCommonsFormHelper</text>
</g>
<!-- \\NetCommonsFormHelper&#45;&gt;\\AppHelper -->
<g id="edge75" class="edge"><title>\\NetCommonsFormHelper&#45;&gt;\\AppHelper</title>
<path fill="none" stroke="black" d="M1019.73,-1380.92C1009.46,-1384.21 999.275,-1388.2 990,-1393 921.285,-1428.57 856.021,-1493.3 822.804,-1529.23"/>
<polygon fill="none" stroke="black" points="819.991,-1527.12 815.829,-1536.86 825.158,-1531.84 819.991,-1527.12"/>
</g>
<!-- \\TitleIconHelper -->
<g id="node45" class="node"><title>\\TitleIconHelper</title>
<polygon fill="none" stroke="black" points="1155,-1330 1037,-1330 1037,-1294 1155,-1294 1155,-1330"/>
<text text-anchor="middle" x="1096" y="-1309.1" font-family="Courier,monospace" font-size="11.00">TitleIconHelper</text>
</g>
<!-- \\TitleIconHelper&#45;&gt;\\AppHelper -->
<g id="edge77" class="edge"><title>\\TitleIconHelper&#45;&gt;\\AppHelper</title>
<path fill="none" stroke="black" d="M1036.83,-1320.49C1020.85,-1324.49 1004.09,-1330.37 990,-1339 909.537,-1388.26 844.365,-1482.44 815.731,-1528.42"/>
<polygon fill="none" stroke="black" points="812.746,-1526.59 810.498,-1536.94 818.712,-1530.25 812.746,-1526.59"/>
</g>
<!-- \\DatetimePickerHelper -->
<g id="node46" class="node"><title>\\DatetimePickerHelper</title>
<polygon fill="none" stroke="black" points="1172,-1276 1020,-1276 1020,-1240 1172,-1240 1172,-1276"/>
<text text-anchor="middle" x="1096" y="-1255.1" font-family="Courier,monospace" font-size="11.00">DatetimePickerHelper</text>
</g>
<!-- \\DatetimePickerHelper&#45;&gt;\\AppHelper -->
<g id="edge79" class="edge"><title>\\DatetimePickerHelper&#45;&gt;\\AppHelper</title>
<path fill="none" stroke="black" d="M1019.86,-1270.35C1009.29,-1274.03 998.991,-1278.8 990,-1285 897.812,-1348.54 835.685,-1472.32 811.419,-1527.41"/>
<polygon fill="none" stroke="black" points="808.087,-1526.3 807.33,-1536.87 814.512,-1529.08 808.087,-1526.3"/>
</g>
<!-- \\Model -->
<g id="node108" class="node"><title>\\Model</title>
<ellipse fill="none" stroke="black" cx="44" cy="-2635" rx="43.8406" ry="18.3848"/>
<text text-anchor="middle" x="44" y="-2631.4" font-family="Times Roman,serif" font-size="14.00" fill="gray">\Model</text>
</g>
<!-- \\NetCommonsAppModel&#45;&gt;\\Model -->
<g id="edge81" class="edge"><title>\\NetCommonsAppModel&#45;&gt;\\Model</title>
<path fill="none" stroke="black" d="M172.749,-2635C148.379,-2635 121.357,-2635 98.3871,-2635"/>
<polygon fill="none" stroke="black" points="98.1425,-2631.5 88.1425,-2635 98.1424,-2638.5 98.1425,-2631.5"/>
</g>
<!-- \\OriginalKeyBehavior -->
<g id="node48" class="node"><title>\\OriginalKeyBehavior</title>
<polygon fill="none" stroke="black" points="1168,-520 1024,-520 1024,-484 1168,-484 1168,-520"/>
<text text-anchor="middle" x="1096" y="-499.1" font-family="Courier,monospace" font-size="11.00">OriginalKeyBehavior</text>
</g>
<!-- \\ModelBehavior -->
<g id="node110" class="node"><title>\\ModelBehavior</title>
<ellipse fill="none" stroke="black" cx="800" cy="-126" rx="86.9741" ry="18.3848"/>
<text text-anchor="middle" x="800" y="-122.4" font-family="Times Roman,serif" font-size="14.00" fill="gray">\ModelBehavior</text>
</g>
<!-- \\OriginalKeyBehavior&#45;&gt;\\ModelBehavior -->
<g id="edge83" class="edge"><title>\\OriginalKeyBehavior&#45;&gt;\\ModelBehavior</title>
<path fill="none" stroke="black" d="M1023.29,-494.784C1010.86,-490.604 999.062,-484.333 990,-475 887.843,-369.792 1021.44,-256.95 918,-153 910.53,-145.493 901.428,-139.895 891.627,-135.745"/>
<polygon fill="none" stroke="black" points="892.638,-132.388 882.045,-132.196 890.207,-138.952 892.638,-132.388"/>
</g>
<!-- \\TrackableBehavior -->
<g id="node49" class="node"><title>\\TrackableBehavior</title>
<polygon fill="none" stroke="black" points="1161,-574 1031,-574 1031,-538 1161,-538 1161,-574"/>
<text text-anchor="middle" x="1096" y="-553.1" font-family="Courier,monospace" font-size="11.00">TrackableBehavior</text>
</g>
<!-- \\TrackableBehavior&#45;&gt;\\ModelBehavior -->
<g id="edge85" class="edge"><title>\\TrackableBehavior&#45;&gt;\\ModelBehavior</title>
<path fill="none" stroke="black" d="M1030.45,-551.249C1015.39,-547.182 1000.67,-540.338 990,-529 873.364,-405.12 1036.14,-275.443 918,-153 910.646,-145.379 901.615,-139.712 891.852,-135.525"/>
<polygon fill="none" stroke="black" points="892.89,-132.176 882.298,-131.949 890.436,-138.732 892.89,-132.176"/>
</g>
<!-- \\YAExceptionRenderer -->
<g id="node50" class="node"><title>\\YAExceptionRenderer</title>
<polygon fill="none" stroke="black" points="1168,-466 1024,-466 1024,-430 1168,-430 1168,-466"/>
<text text-anchor="middle" x="1096" y="-445.1" font-family="Courier,monospace" font-size="11.00">YAExceptionRenderer</text>
</g>
<!-- \\ExceptionRenderer -->
<g id="node113" class="node"><title>\\ExceptionRenderer</title>
<ellipse fill="none" stroke="black" cx="800" cy="-72" rx="118.087" ry="18.3848"/>
<text text-anchor="middle" x="800" y="-68.4" font-family="Times Roman,serif" font-size="14.00" fill="gray">TEHxceptionRenderer</text>
</g>
<!-- \\YAExceptionRenderer&#45;&gt;\\ExceptionRenderer -->
<g id="edge87" class="edge"><title>\\YAExceptionRenderer&#45;&gt;\\ExceptionRenderer</title>
<path fill="none" stroke="black" d="M1023.29,-440.784C1010.86,-436.604 999.062,-430.333 990,-421 887.843,-315.792 1021.44,-202.95 918,-99 913.632,-94.61 908.706,-90.873 903.408,-87.6967"/>
<polygon fill="none" stroke="black" points="904.657,-84.4002 894.174,-82.8643 901.411,-90.6022 904.657,-84.4002"/>
</g>
<!-- \\NetCommonsMigration -->
<g id="node51" class="node"><title>\\NetCommonsMigration</title>
<polygon fill="none" stroke="black" points="872,-764 728,-764 728,-728 872,-728 872,-764"/>
<text text-anchor="middle" x="800" y="-743.1" font-family="Courier,monospace" font-size="11.00">NetCommonsMigration</text>
</g>
<!-- \\CakeMigration -->
<g id="node115" class="node"><title>\\CakeMigration</title>
<ellipse fill="none" stroke="black" cx="503" cy="-196" rx="84.8528" ry="18.3848"/>
<text text-anchor="middle" x="503" y="-192.4" font-family="Times Roman,serif" font-size="14.00" fill="gray">\CakeMigration</text>
</g>
<!-- \\NetCommonsMigration&#45;&gt;\\CakeMigration -->
<g id="edge89" class="edge"><title>\\NetCommonsMigration&#45;&gt;\\CakeMigration</title>
<path fill="none" stroke="black" d="M727.278,-746.467C710.399,-743.091 693.91,-736.398 682,-724 527.684,-563.357 755.566,-396.613 610,-228 603.135,-220.048 594.382,-214.028 584.849,-209.479"/>
<polygon fill="none" stroke="black" points="586.081,-206.201 575.505,-205.554 583.369,-212.654 586.081,-206.201"/>
</g>
<!-- \\UserManagerController -->
<g id="node52" class="node"><title>\\UserManagerController</title>
<polygon fill="none" stroke="black" points="1175,-2410 1017,-2410 1017,-2374 1175,-2374 1175,-2410"/>
<text text-anchor="middle" x="1096" y="-2389.1" font-family="Courier,monospace" font-size="11.00">UserManagerController</text>
</g>
<!-- \\UserManagerAppController -->
<g id="node53" class="node"><title>\\UserManagerAppController</title>
<polygon fill="none" stroke="black" points="889,-2329 711,-2329 711,-2293 889,-2293 889,-2329"/>
<text text-anchor="middle" x="800" y="-2308.1" font-family="Courier,monospace" font-size="11.00">UserManagerAppController</text>
</g>
<!-- \\UserManagerController&#45;&gt;\\UserManagerAppController -->
<g id="edge91" class="edge"><title>\\UserManagerController&#45;&gt;\\UserManagerAppController</title>
<path fill="none" stroke="black" d="M1024.09,-2373.97C1012.67,-2371.02 1001,-2367.96 990,-2365 950.805,-2354.44 907.234,-2342.1 871.714,-2331.88"/>
<polygon fill="none" stroke="black" points="872.498,-2328.47 861.92,-2329.06 870.56,-2335.19 872.498,-2328.47"/>
</g>
<!-- \\UserManagerAppController&#45;&gt;\\AppController -->
<g id="edge93" class="edge"><title>\\UserManagerAppController&#45;&gt;\\AppController</title>
<path fill="none" stroke="black" d="M732.614,-2292.91C713.732,-2284.79 694.872,-2273.25 682,-2257 571.455,-2117.48 516.629,-1531.26 505.259,-1395.26"/>
<polygon fill="none" stroke="black" points="508.742,-1394.9 504.431,-1385.22 501.765,-1395.48 508.742,-1394.9"/>
</g>
<!-- \\UserMailController -->
<g id="node54" class="node"><title>\\UserMailController</title>
<polygon fill="none" stroke="black" points="1165,-2356 1027,-2356 1027,-2320 1165,-2320 1165,-2356"/>
<text text-anchor="middle" x="1096" y="-2335.1" font-family="Courier,monospace" font-size="11.00">UserMailController</text>
</g>
<!-- \\UserMailController&#45;&gt;\\UserManagerAppController -->
<g id="edge95" class="edge"><title>\\UserMailController&#45;&gt;\\UserManagerAppController</title>
<path fill="none" stroke="black" d="M1026.97,-2331.7C989.177,-2328.26 941.661,-2323.92 899.884,-2320.11"/>
<polygon fill="none" stroke="black" points="899.952,-2316.6 889.675,-2319.18 899.316,-2323.57 899.952,-2316.6"/>
</g>
<!-- \\UsersRolesRoomsController -->
<g id="node55" class="node"><title>\\UsersRolesRoomsController</title>
<polygon fill="none" stroke="black" points="1188,-2302 1004,-2302 1004,-2266 1188,-2266 1188,-2302"/>
<text text-anchor="middle" x="1096" y="-2281.1" font-family="Courier,monospace" font-size="11.00">UsersRolesRoomsController</text>
</g>
<!-- \\UsersRolesRoomsController&#45;&gt;\\UserManagerAppController -->
<g id="edge97" class="edge"><title>\\UsersRolesRoomsController&#45;&gt;\\UserManagerAppController</title>
<path fill="none" stroke="black" d="M1003.16,-2292.47C970.352,-2295.46 933.328,-2298.84 899.96,-2301.88"/>
<polygon fill="none" stroke="black" points="899.371,-2298.42 889.73,-2302.82 900.007,-2305.39 899.371,-2298.42"/>
</g>
<!-- \\UserMail -->
<g id="node56" class="node"><title>\\UserMail</title>
<polygon fill="none" stroke="black" points="1131,-2680 1061,-2680 1061,-2644 1131,-2644 1131,-2680"/>
<text text-anchor="middle" x="1096" y="-2659.1" font-family="Courier,monospace" font-size="11.00">UserMail</text>
</g>
<!-- \\UserManagerAppModel -->
<g id="node57" class="node"><title>\\UserManagerAppModel</title>
<polygon fill="none" stroke="black" points="872,-2680 728,-2680 728,-2644 872,-2644 872,-2680"/>
<text text-anchor="middle" x="800" y="-2659.1" font-family="Courier,monospace" font-size="11.00">UserManagerAppModel</text>
</g>
<!-- \\UserMail&#45;&gt;\\UserManagerAppModel -->
<g id="edge99" class="edge"><title>\\UserMail&#45;&gt;\\UserManagerAppModel</title>
<path fill="none" stroke="black" d="M1060.3,-2662C1016.63,-2662 941.342,-2662 882.932,-2662"/>
<polygon fill="none" stroke="black" points="882.604,-2658.5 872.604,-2662 882.604,-2665.5 882.604,-2658.5"/>
</g>
<!-- \\UserManagerAppModel&#45;&gt;\\AppModel -->
<g id="edge101" class="edge"><title>\\UserManagerAppModel&#45;&gt;\\AppModel</title>
<path fill="none" stroke="black" d="M727.346,-2655.4C671.508,-2650.32 596.115,-2643.47 548.522,-2639.14"/>
<polygon fill="none" stroke="black" points="548.789,-2635.65 538.513,-2638.23 548.155,-2642.62 548.789,-2635.65"/>
</g>
<!-- \\UserManagerMailSettingRecords -->
<g id="node58" class="node"><title>\\UserManagerMailSettingRecords</title>
<polygon fill="none" stroke="black" points="1202,-412 990,-412 990,-376 1202,-376 1202,-412"/>
<text text-anchor="middle" x="1096" y="-391.1" font-family="Courier,monospace" font-size="11.00">UserManagerMailSettingRecords</text>
</g>
<!-- \\MailsMigration -->
<g id="node123" class="node"><title>\\MailsMigration</title>
<ellipse fill="none" stroke="black" cx="800" cy="-18" rx="85.0596" ry="18.3848"/>
<text text-anchor="middle" x="800" y="-14.4" font-family="Times Roman,serif" font-size="14.00" fill="gray">\MailsMigration</text>
</g>
<!-- \\UserManagerMailSettingRecords&#45;&gt;\\MailsMigration -->
<g id="edge103" class="edge"><title>\\UserManagerMailSettingRecords&#45;&gt;\\MailsMigration</title>
<path fill="none" stroke="black" d="M1092.38,-375.718C1079.83,-317.38 1032.54,-134.268 918,-45 908.962,-37.9556 898.42,-32.6872 887.426,-28.7577"/>
<polygon fill="none" stroke="black" points="888.265,-25.3515 877.674,-25.6383 886.133,-32.0187 888.265,-25.3515"/>
</g>
<!-- \\PluginRecords -->
<g id="node59" class="node"><title>\\PluginRecords</title>
<polygon fill="none" stroke="black" points="1148,-1114 1044,-1114 1044,-1078 1148,-1078 1148,-1114"/>
<text text-anchor="middle" x="1096" y="-1093.1" font-family="Courier,monospace" font-size="11.00">PluginRecords</text>
</g>
<!-- \\PluginRecords&#45;&gt;\\NetCommonsMigration -->
<g id="edge105" class="edge"><title>\\PluginRecords&#45;&gt;\\NetCommonsMigration</title>
<path fill="none" stroke="black" d="M1043.89,-1091.07C1025.46,-1087.28 1005.49,-1080.63 990,-1069 885.537,-990.532 828.047,-836.409 808.117,-773.614"/>
<polygon fill="none" stroke="black" points="811.442,-772.518 805.136,-764.004 804.756,-774.592 811.442,-772.518"/>
</g>
</g>
</svg>
