<?xml version="1.0" encoding="UTF-8" standalone="no"?>
<!DOCTYPE svg PUBLIC "-//W3C//DTD SVG 1.1//EN"
 "http://www.w3.org/Graphics/SVG/1.1/DTD/svg11.dtd">
<!-- Generated by graphviz version 2.26.3 (20100126.1600)
 -->
<!-- Title: G Pages: 1 -->
<svg width="1060pt" height="2996pt"
 viewBox="0.00 0.00 1060.00 2996.00" xmlns="http://www.w3.org/2000/svg" xmlns:xlink="http://www.w3.org/1999/xlink">
<g id="graph1" class="graph" transform="scale(1 1) rotate(0) translate(4 2992)">
<title>G</title>
<polygon fill="white" stroke="white" points="-4,5 -4,-2992 1057,-2992 1057,5 -4,5"/>
<g id="graph2" class="cluster"><title>cluster_Global</title>
<polyline fill="none" stroke="gray" points="264,-422 1032,-422 "/>
<path fill="none" stroke="gray" d="M1032,-422C1038,-422 1044,-428 1044,-434"/>
<polyline fill="none" stroke="gray" points="1044,-434 1044,-2968 "/>
<path fill="none" stroke="gray" d="M1044,-2968C1044,-2974 1038,-2980 1032,-2980"/>
<polyline fill="none" stroke="gray" points="1032,-2980 264,-2980 "/>
<path fill="none" stroke="gray" d="M264,-2980C258,-2980 252,-2974 252,-2968"/>
<polyline fill="none" stroke="gray" points="252,-2968 252,-434 "/>
<path fill="none" stroke="gray" d="M252,-434C252,-428 258,-422 264,-422"/>
<text text-anchor="middle" x="648" y="-2966.1" font-family="Times Roman,serif" font-size="11.00" fill="gray">Global</text>
</g>
<!-- \\AppController -->
<g id="node2" class="node"><title>\\AppController</title>
<polygon fill="none" stroke="black" points="395,-2383 291,-2383 291,-2347 395,-2347 395,-2383"/>
<text text-anchor="middle" x="343" y="-2362.1" font-family="Courier,monospace" font-size="11.00">AppController</text>
</g>
<!-- \\Controller -->
<g id="node63" class="node"><title>\\Controller</title>
<ellipse fill="none" stroke="black" cx="82" cy="-1317" rx="63.1385" ry="18.3848"/>
<text text-anchor="middle" x="82" y="-1313.4" font-family="Times Roman,serif" font-size="14.00" fill="gray">\Controller</text>
</g>
<!-- \\AppController&#45;&gt;\\Controller -->
<g id="edge3" class="edge"><title>\\AppController&#45;&gt;\\Controller</title>
<path fill="none" stroke="black" d="M290.913,-2366.32C271.137,-2364.05 250.023,-2357.8 236,-2343 164.919,-2267.99 97.5207,-1502.94 84.3252,-1345.31"/>
<polygon fill="none" stroke="black" points="87.7869,-1344.7 83.4695,-1335.03 80.811,-1345.28 87.7869,-1344.7"/>
</g>
<!-- \\AppModel -->
<g id="node3" class="node"><title>\\AppModel</title>
<polygon fill="none" stroke="black" points="675,-2626 605,-2626 605,-2590 675,-2590 675,-2626"/>
<text text-anchor="middle" x="640" y="-2605.1" font-family="Courier,monospace" font-size="11.00">AppModel</text>
</g>
<!-- \\NetCommonsAppModel -->
<g id="node47" class="node"><title>\\NetCommonsAppModel</title>
<polygon fill="none" stroke="black" points="412,-2626 274,-2626 274,-2590 412,-2590 412,-2626"/>
<text text-anchor="middle" x="343" y="-2605.1" font-family="Courier,monospace" font-size="11.00">NetCommonsAppModel</text>
</g>
<!-- \\AppModel&#45;&gt;\\NetCommonsAppModel -->
<g id="edge5" class="edge"><title>\\AppModel&#45;&gt;\\NetCommonsAppModel</title>
<path fill="none" stroke="black" d="M604.47,-2608C559.713,-2608 481.497,-2608 422.241,-2608"/>
<polygon fill="none" stroke="black" points="422.157,-2604.5 412.157,-2608 422.157,-2611.5 422.157,-2604.5"/>
</g>
<!-- \\DatabaseConfiguration -->
<g id="node4" class="node"><title>\\DatabaseConfiguration</title>
<polygon fill="none" stroke="black" points="1012,-2626 854,-2626 854,-2590 1012,-2590 1012,-2626"/>
<text text-anchor="middle" x="933" y="-2605.1" font-family="Courier,monospace" font-size="11.00">DatabaseConfiguration</text>
</g>
<!-- \\DatabaseConfiguration&#45;&gt;\\AppModel -->
<g id="edge7" class="edge"><title>\\DatabaseConfiguration&#45;&gt;\\AppModel</title>
<path fill="none" stroke="black" d="M853.71,-2608C799.937,-2608 730.74,-2608 685.886,-2608"/>
<polygon fill="none" stroke="black" points="685.866,-2604.5 675.866,-2608 685.866,-2611.5 685.866,-2604.5"/>
</g>
<!-- \\AppHelper -->
<g id="node5" class="node"><title>\\AppHelper</title>
<polygon fill="none" stroke="black" points="678,-1681 602,-1681 602,-1645 678,-1645 678,-1681"/>
<text text-anchor="middle" x="640" y="-1660.1" font-family="Courier,monospace" font-size="11.00">AppHelper</text>
</g>
<!-- \\Helper -->
<g id="node67" class="node"><title>\\Helper</title>
<ellipse fill="none" stroke="black" cx="343" cy="-396" rx="43.8406" ry="18.3848"/>
<text text-anchor="middle" x="343" y="-392.4" font-family="Times Roman,serif" font-size="14.00" fill="gray">Helper</text>
</g>
<!-- \\AppHelper&#45;&gt;\\Helper -->
<g id="edge9" class="edge"><title>\\AppHelper&#45;&gt;\\Helper</title>
<path fill="none" stroke="black" d="M631.411,-1644.89C608.915,-1596.54 548.21,-1459.81 522,-1339 478.474,-1138.38 585.831,-571.93 450,-418 436.75,-402.984 416.226,-396.613 396.683,-394.309"/>
<polygon fill="none" stroke="black" points="396.857,-390.812 386.596,-393.451 396.264,-397.786 396.857,-390.812"/>
</g>
<!-- \\NetCommonsDeleteTest -->
<g id="node6" class="node"><title>\\NetCommonsDeleteTest</title>
<polygon fill="none" stroke="black" points="1009,-2788 857,-2788 857,-2752 1009,-2752 1009,-2788"/>
<text text-anchor="middle" x="933" y="-2767.1" font-family="Courier,monospace" font-size="11.00">NetCommonsDeleteTest</text>
</g>
<!-- \\NetCommonsModelTestCase -->
<g id="node15" class="node"><title>\\NetCommonsModelTestCase</title>
<polygon fill="none" stroke="black" points="726,-2869 554,-2869 554,-2833 726,-2833 726,-2869"/>
<text text-anchor="middle" x="640" y="-2848.1" font-family="Courier,monospace" font-size="11.00">NetCommonsModelTestCase</text>
</g>
<!-- \\NetCommonsDeleteTest&#45;&gt;\\NetCommonsModelTestCase -->
<g id="edge11" class="edge"><title>\\NetCommonsDeleteTest&#45;&gt;\\NetCommonsModelTestCase</title>
<path fill="none" stroke="black" d="M860.418,-2788.03C850.158,-2790.87 839.778,-2793.89 830,-2797 797.428,-2807.35 790.731,-2814.17 758,-2824 750.57,-2826.23 742.83,-2828.38 735.023,-2830.43"/>
<polygon fill="none" stroke="black" points="733.938,-2827.09 725.116,-2832.96 735.671,-2833.87 733.938,-2827.09"/>
</g>
<!-- \\NetCommonsConsoleTestCase -->
<g id="node7" class="node"><title>\\NetCommonsConsoleTestCase</title>
<polygon fill="none" stroke="black" points="732,-2815 548,-2815 548,-2779 732,-2779 732,-2815"/>
<text text-anchor="middle" x="640" y="-2794.1" font-family="Courier,monospace" font-size="11.00">NetCommonsConsoleTestCase</text>
</g>
<!-- \\NetCommonsCakeTestCase -->
<g id="node13" class="node"><title>\\NetCommonsCakeTestCase</title>
<polygon fill="none" stroke="black" points="425,-2815 261,-2815 261,-2779 425,-2779 425,-2815"/>
<text text-anchor="middle" x="343" y="-2794.1" font-family="Courier,monospace" font-size="11.00">NetCommonsCakeTestCase</text>
</g>
<!-- \\NetCommonsConsoleTestCase&#45;&gt;\\NetCommonsCakeTestCase -->
<g id="edge13" class="edge"><title>\\NetCommonsConsoleTestCase&#45;&gt;\\NetCommonsCakeTestCase</title>
<path fill="none" stroke="black" d="M547.249,-2797C511.93,-2797 471.688,-2797 436.316,-2797"/>
<polygon fill="none" stroke="black" points="435.993,-2793.5 425.993,-2797 435.993,-2800.5 435.993,-2793.5"/>
</g>
<!-- \\NetCommonsGetTest -->
<g id="node8" class="node"><title>\\NetCommonsGetTest</title>
<polygon fill="none" stroke="black" points="998,-2950 868,-2950 868,-2914 998,-2914 998,-2950"/>
<text text-anchor="middle" x="933" y="-2929.1" font-family="Courier,monospace" font-size="11.00">NetCommonsGetTest</text>
</g>
<!-- \\NetCommonsGetTest&#45;&gt;\\NetCommonsModelTestCase -->
<g id="edge15" class="edge"><title>\\NetCommonsGetTest&#45;&gt;\\NetCommonsModelTestCase</title>
<path fill="none" stroke="black" d="M867.285,-2914.99C854.887,-2911.72 842.037,-2908.29 830,-2905 790.993,-2894.35 747.61,-2882.05 712.158,-2871.88"/>
<polygon fill="none" stroke="black" points="712.957,-2868.47 702.379,-2869.08 711.025,-2875.2 712.957,-2868.47"/>
</g>
<!-- \\NetCommonsHelperTestCase -->
<g id="node9" class="node"><title>\\NetCommonsHelperTestCase</title>
<polygon fill="none" stroke="black" points="729,-2761 551,-2761 551,-2725 729,-2725 729,-2761"/>
<text text-anchor="middle" x="640" y="-2740.1" font-family="Courier,monospace" font-size="11.00">NetCommonsHelperTestCase</text>
</g>
<!-- \\NetCommonsHelperTestCase&#45;&gt;\\NetCommonsCakeTestCase -->
<g id="edge17" class="edge"><title>\\NetCommonsHelperTestCase&#45;&gt;\\NetCommonsCakeTestCase</title>
<path fill="none" stroke="black" d="M550.487,-2759.28C514.267,-2765.86 472.456,-2773.46 435.9,-2780.11"/>
<polygon fill="none" stroke="black" points="434.95,-2776.72 425.737,-2781.96 436.202,-2783.61 434.95,-2776.72"/>
</g>
<!-- \\NetCommonsControllerBaseTestCase -->
<g id="node10" class="node"><title>\\NetCommonsControllerBaseTestCase</title>
<polygon fill="none" stroke="black" points="756,-1330 524,-1330 524,-1294 756,-1294 756,-1330"/>
<text text-anchor="middle" x="640" y="-1309.1" font-family="Courier,monospace" font-size="11.00">NetCommonsControllerBaseTestCase</text>
</g>
<!-- \\ControllerTestCase -->
<g id="node73" class="node"><title>\\ControllerTestCase</title>
<ellipse fill="none" stroke="black" cx="343" cy="-342" rx="106.773" ry="18.3848"/>
<text text-anchor="middle" x="343" y="-338.4" font-family="Times Roman,serif" font-size="14.00" fill="gray">\ControllerTestCase</text>
</g>
<!-- \\NetCommonsControllerBaseTestCase&#45;&gt;\\ControllerTestCase -->
<g id="edge19" class="edge"><title>\\NetCommonsControllerBaseTestCase&#45;&gt;\\ControllerTestCase</title>
<path fill="none" stroke="black" d="M634.091,-1293.72C615.185,-1234.63 555.47,-1043.22 522,-881 498.783,-768.473 526.764,-454.491 450,-369 446.16,-364.723 441.751,-361.078 436.958,-357.976"/>
<polygon fill="none" stroke="black" points="438.396,-354.77 427.957,-352.957 434.987,-360.884 438.396,-354.77"/>
</g>
<!-- \\NetCommonsValidateTest -->
<g id="node11" class="node"><title>\\NetCommonsValidateTest</title>
<polygon fill="none" stroke="black" points="1015,-2896 851,-2896 851,-2860 1015,-2860 1015,-2896"/>
<text text-anchor="middle" x="933" y="-2875.1" font-family="Courier,monospace" font-size="11.00">NetCommonsValidateTest</text>
</g>
<!-- \\NetCommonsValidateTest&#45;&gt;\\NetCommonsModelTestCase -->
<g id="edge21" class="edge"><title>\\NetCommonsValidateTest&#45;&gt;\\NetCommonsModelTestCase</title>
<path fill="none" stroke="black" d="M850.213,-2870.37C814.791,-2867.11 773.196,-2863.27 736.397,-2859.88"/>
<polygon fill="none" stroke="black" points="736.433,-2856.37 726.154,-2858.94 735.791,-2863.34 736.433,-2856.37"/>
</g>
<!-- \\NetCommonsTestSuite -->
<g id="node12" class="node"><title>\\NetCommonsTestSuite</title>
<polygon fill="none" stroke="black" points="1005,-1222 861,-1222 861,-1186 1005,-1186 1005,-1222"/>
<text text-anchor="middle" x="933" y="-1201.1" font-family="Courier,monospace" font-size="11.00">NetCommonsTestSuite</text>
</g>
<!-- \\CakeTestSuite -->
<g id="node76" class="node"><title>\\CakeTestSuite</title>
<ellipse fill="none" stroke="black" cx="640" cy="-396" rx="84.1457" ry="18.3848"/>
<text text-anchor="middle" x="640" y="-392.4" font-family="Times Roman,serif" font-size="14.00" fill="gray">\CakeTestSuite</text>
</g>
<!-- \\NetCommonsTestSuite&#45;&gt;\\CakeTestSuite -->
<g id="edge23" class="edge"><title>\\NetCommonsTestSuite&#45;&gt;\\CakeTestSuite</title>
<path fill="none" stroke="black" d="M860.328,-1196.92C848.737,-1192.69 837.962,-1186.37 830,-1177 720.272,-1047.91 872.306,-543.054 758,-418 751.146,-410.501 742.623,-405.061 733.316,-401.167"/>
<polygon fill="none" stroke="black" points="734.374,-397.828 723.78,-397.769 732.025,-404.422 734.374,-397.828"/>
</g>
<!-- \\CakeTestCase -->
<g id="node78" class="node"><title>\\CakeTestCase</title>
<ellipse fill="none" stroke="black" cx="82" cy="-2797" rx="82.0244" ry="18.3848"/>
<text text-anchor="middle" x="82" y="-2793.4" font-family="Times Roman,serif" font-size="14.00" fill="gray">\CakeTestCase</text>
</g>
<!-- \\NetCommonsCakeTestCase&#45;&gt;\\CakeTestCase -->
<g id="edge25" class="edge"><title>\\NetCommonsCakeTestCase&#45;&gt;\\CakeTestCase</title>
<path fill="none" stroke="black" d="M260.418,-2797C233.018,-2797 202.345,-2797 174.263,-2797"/>
<polygon fill="none" stroke="black" points="174.045,-2793.5 164.045,-2797 174.045,-2800.5 174.045,-2793.5"/>
</g>
<!-- \\NetCommonsSaveTest -->
<g id="node14" class="node"><title>\\NetCommonsSaveTest</title>
<polygon fill="none" stroke="black" points="1002,-2842 864,-2842 864,-2806 1002,-2806 1002,-2842"/>
<text text-anchor="middle" x="933" y="-2821.1" font-family="Courier,monospace" font-size="11.00">NetCommonsSaveTest</text>
</g>
<!-- \\NetCommonsSaveTest&#45;&gt;\\NetCommonsModelTestCase -->
<g id="edge27" class="edge"><title>\\NetCommonsSaveTest&#45;&gt;\\NetCommonsModelTestCase</title>
<path fill="none" stroke="black" d="M863.934,-2830.36C825.875,-2833.87 778.032,-2838.28 736.349,-2842.12"/>
<polygon fill="none" stroke="black" points="735.809,-2838.66 726.172,-2843.06 736.452,-2845.63 735.809,-2838.66"/>
</g>
<!-- \\NetCommonsModelTestCase&#45;&gt;\\NetCommonsCakeTestCase -->
<g id="edge29" class="edge"><title>\\NetCommonsModelTestCase&#45;&gt;\\NetCommonsCakeTestCase</title>
<path fill="none" stroke="black" d="M553.696,-2835.31C516.671,-2828.58 473.35,-2820.7 435.65,-2813.85"/>
<polygon fill="none" stroke="black" points="436.151,-2810.38 425.686,-2812.03 434.899,-2817.27 436.151,-2810.38"/>
</g>
<!-- \\NetCommonsControllerTestCase -->
<g id="node16" class="node"><title>\\NetCommonsControllerTestCase</title>
<polygon fill="none" stroke="black" points="1036,-1330 830,-1330 830,-1294 1036,-1294 1036,-1330"/>
<text text-anchor="middle" x="933" y="-1309.1" font-family="Courier,monospace" font-size="11.00">NetCommonsControllerTestCase</text>
</g>
<!-- \\NetCommonsControllerTestCase&#45;&gt;\\NetCommonsControllerBaseTestCase -->
<g id="edge31" class="edge"><title>\\NetCommonsControllerTestCase&#45;&gt;\\NetCommonsControllerBaseTestCase</title>
<path fill="none" stroke="black" d="M829.699,-1312C809.381,-1312 787.845,-1312 766.858,-1312"/>
<polygon fill="none" stroke="black" points="766.606,-1308.5 756.606,-1312 766.606,-1315.5 766.606,-1308.5"/>
</g>
<!-- \\NetCommonsAppController -->
<g id="node17" class="node"><title>\\NetCommonsAppController</title>
<polygon fill="none" stroke="black" points="726,-872 554,-872 554,-836 726,-836 726,-872"/>
<text text-anchor="middle" x="640" y="-851.1" font-family="Courier,monospace" font-size="11.00">NetCommonsAppController</text>
</g>
<!-- \\NetCommonsAppController&#45;&gt;\\Controller -->
<g id="edge33" class="edge"><title>\\NetCommonsAppController&#45;&gt;\\Controller</title>
<path fill="none" stroke="black" d="M553.891,-851.057C541.89,-847.154 530.708,-841.117 522,-832 361.766,-664.229 624.994,-467.312 450,-315 378.258,-252.557 308.181,-253.065 236,-315 159.448,-380.685 96.505,-1132.25 84.1858,-1288.61"/>
<polygon fill="none" stroke="black" points="80.6776,-1288.58 83.3868,-1298.82 87.6563,-1289.13 80.6776,-1288.58"/>
</g>
<!-- \\AssetComponent -->
<g id="node18" class="node"><title>\\AssetComponent</title>
<polygon fill="none" stroke="black" points="988,-1006 878,-1006 878,-970 988,-970 988,-1006"/>
<text text-anchor="middle" x="933" y="-985.1" font-family="Courier,monospace" font-size="11.00">AssetComponent</text>
</g>
<!-- \\Component -->
<g id="node84" class="node"><title>\\Component</title>
<ellipse fill="none" stroke="black" cx="640" cy="-342" rx="70.9184" ry="18.3848"/>
<text text-anchor="middle" x="640" y="-338.4" font-family="Times Roman,serif" font-size="14.00" fill="gray">\Component</text>
</g>
<!-- \\AssetComponent&#45;&gt;\\Component -->
<g id="edge35" class="edge"><title>\\AssetComponent&#45;&gt;\\Component</title>
<path fill="none" stroke="black" d="M877.342,-985.436C859.801,-981.802 841.915,-974.647 830,-961 655.683,-761.337 935.432,-565.899 758,-369 748.227,-358.155 735.069,-351.207 721.082,-346.841"/>
<polygon fill="none" stroke="black" points="721.864,-343.426 711.298,-344.214 720.049,-350.187 721.864,-343.426"/>
</g>
<!-- \\NetCommonsTimeComponent -->
<g id="node19" class="node"><title>\\NetCommonsTimeComponent</title>
<polygon fill="none" stroke="black" points="1019,-1168 847,-1168 847,-1132 1019,-1132 1019,-1168"/>
<text text-anchor="middle" x="933" y="-1147.1" font-family="Courier,monospace" font-size="11.00">NetCommonsTimeComponent</text>
</g>
<!-- \\NetCommonsTimeComponent&#45;&gt;\\Component -->
<g id="edge37" class="edge"><title>\\NetCommonsTimeComponent&#45;&gt;\\Component</title>
<path fill="none" stroke="black" d="M846.99,-1136.8C840.599,-1133.16 834.791,-1128.63 830,-1123 720.948,-994.787 869.053,-495.484 758,-369 748.311,-357.965 735.121,-350.943 721.061,-346.564"/>
<polygon fill="none" stroke="black" points="721.786,-343.135 711.222,-343.939 719.981,-349.899 721.786,-343.135"/>
</g>
<!-- \\PermissionComponent -->
<g id="node20" class="node"><title>\\PermissionComponent</title>
<polygon fill="none" stroke="black" points="1005,-1114 861,-1114 861,-1078 1005,-1078 1005,-1114"/>
<text text-anchor="middle" x="933" y="-1093.1" font-family="Courier,monospace" font-size="11.00">PermissionComponent</text>
</g>
<!-- \\PermissionComponent&#45;&gt;\\Component -->
<g id="edge39" class="edge"><title>\\PermissionComponent&#45;&gt;\\Component</title>
<path fill="none" stroke="black" d="M860.389,-1088.86C848.792,-1084.64 837.999,-1078.34 830,-1069 626.502,-831.507 965.204,-603.266 758,-369 748.271,-358.001 735.062,-350.994 720.998,-346.62"/>
<polygon fill="none" stroke="black" points="721.72,-343.191 711.156,-343.996 719.917,-349.955 721.72,-343.191"/>
</g>
<!-- \\NetCommonsComponent -->
<g id="node21" class="node"><title>\\NetCommonsComponent</title>
<polygon fill="none" stroke="black" points="1005,-1060 861,-1060 861,-1024 1005,-1024 1005,-1060"/>
<text text-anchor="middle" x="933" y="-1039.1" font-family="Courier,monospace" font-size="11.00">NetCommonsComponent</text>
</g>
<!-- \\NetCommonsComponent&#45;&gt;\\Component -->
<g id="edge41" class="edge"><title>\\NetCommonsComponent&#45;&gt;\\Component</title>
<path fill="none" stroke="black" d="M860.454,-1034.81C848.851,-1030.59 838.038,-1024.3 830,-1015 641.099,-796.429 950.312,-584.576 758,-369 748.225,-358.042 734.994,-351.054 720.924,-346.686"/>
<polygon fill="none" stroke="black" points="721.644,-343.256 711.08,-344.064 719.842,-350.02 721.644,-343.256"/>
</g>
<!-- \\NetCommonsController -->
<g id="node22" class="node"><title>\\NetCommonsController</title>
<polygon fill="none" stroke="black" points="1009,-1276 857,-1276 857,-1240 1009,-1240 1009,-1276"/>
<text text-anchor="middle" x="933" y="-1255.1" font-family="Courier,monospace" font-size="11.00">NetCommonsController</text>
</g>
<!-- \\NetCommonsController&#45;&gt;\\NetCommonsAppController -->
<g id="edge43" class="edge"><title>\\NetCommonsController&#45;&gt;\\NetCommonsAppController</title>
<path fill="none" stroke="black" d="M856.839,-1246.03C847.167,-1242.29 837.905,-1237.39 830,-1231 713.468,-1136.73 661.869,-952.495 645.826,-882.186"/>
<polygon fill="none" stroke="black" points="649.213,-881.292 643.632,-872.286 642.378,-882.807 649.213,-881.292"/>
</g>
<!-- \\NetCommonsUrl -->
<g id="node23" class="node"><title>\\NetCommonsUrl</title>
<polygon fill="none" stroke="black" points="985,-2302 881,-2302 881,-2266 985,-2266 985,-2302"/>
<text text-anchor="middle" x="933" y="-2281.1" font-family="Courier,monospace" font-size="11.00">NetCommonsUrl</text>
</g>
<!-- \\NetCommonsTime -->
<g id="node24" class="node"><title>\\NetCommonsTime</title>
<polygon fill="none" stroke="black" points="988,-2248 878,-2248 878,-2212 988,-2212 988,-2248"/>
<text text-anchor="middle" x="933" y="-2227.1" font-family="Courier,monospace" font-size="11.00">NetCommonsTime</text>
</g>
<!-- \\CurrentBase -->
<g id="node25" class="node"><title>\\CurrentBase</title>
<polygon fill="none" stroke="black" points="685,-2464 595,-2464 595,-2428 685,-2428 685,-2464"/>
<text text-anchor="middle" x="640" y="-2443.1" font-family="Courier,monospace" font-size="11.00">CurrentBase</text>
</g>
<!-- \\Current -->
<g id="node26" class="node"><title>\\Current</title>
<polygon fill="none" stroke="black" points="965,-2464 901,-2464 901,-2428 965,-2428 965,-2464"/>
<text text-anchor="middle" x="933" y="-2443.1" font-family="Courier,monospace" font-size="11.00">Current</text>
</g>
<!-- \\Current&#45;&gt;\\CurrentBase -->
<g id="edge45" class="edge"><title>\\Current&#45;&gt;\\CurrentBase</title>
<path fill="none" stroke="black" d="M900.806,-2446C851.48,-2446 756.554,-2446 695.846,-2446"/>
<polygon fill="none" stroke="black" points="695.669,-2442.5 685.669,-2446 695.669,-2449.5 695.669,-2442.5"/>
</g>
<!-- \\CurrentSystem -->
<g id="node27" class="node"><title>\\CurrentSystem</title>
<polygon fill="none" stroke="black" points="985,-2140 881,-2140 881,-2104 985,-2104 985,-2140"/>
<text text-anchor="middle" x="933" y="-2119.1" font-family="Courier,monospace" font-size="11.00">CurrentSystem</text>
</g>
<!-- \\CurrentPage -->
<g id="node28" class="node"><title>\\CurrentPage</title>
<polygon fill="none" stroke="black" points="978,-2086 888,-2086 888,-2050 978,-2050 978,-2086"/>
<text text-anchor="middle" x="933" y="-2065.1" font-family="Courier,monospace" font-size="11.00">CurrentPage</text>
</g>
<!-- \\CurrentFrame -->
<g id="node29" class="node"><title>\\CurrentFrame</title>
<polygon fill="none" stroke="black" points="982,-2032 884,-2032 884,-1996 982,-1996 982,-2032"/>
<text text-anchor="middle" x="933" y="-2011.1" font-family="Courier,monospace" font-size="11.00">CurrentFrame</text>
</g>
<!-- \\TokenHelper -->
<g id="node30" class="node"><title>\\TokenHelper</title>
<polygon fill="none" stroke="black" points="978,-844 888,-844 888,-808 978,-808 978,-844"/>
<text text-anchor="middle" x="933" y="-823.1" font-family="Courier,monospace" font-size="11.00">TokenHelper</text>
</g>
<!-- \\FormHelper -->
<g id="node91" class="node"><title>\\FormHelper</title>
<ellipse fill="none" stroke="black" cx="640" cy="-288" rx="70.9184" ry="18.3848"/>
<text text-anchor="middle" x="640" y="-284.4" font-family="Times Roman,serif" font-size="14.00" fill="gray">\FormHelper</text>
</g>
<!-- \\TokenHelper&#45;&gt;\\FormHelper -->
<g id="edge47" class="edge"><title>\\TokenHelper&#45;&gt;\\FormHelper</title>
<path fill="none" stroke="black" d="M887.387,-824.968C867.002,-822.065 844.379,-815.033 830,-799 684.8,-637.094 905.726,-474.605 758,-315 748.083,-304.286 734.859,-297.398 720.853,-293.049"/>
<polygon fill="none" stroke="black" points="721.628,-289.634 711.063,-290.429 719.818,-296.396 721.628,-289.634"/>
</g>
<!-- \\SingletonViewBlockHtmlHelper -->
<g id="node31" class="node"><title>\\SingletonViewBlockHtmlHelper</title>
<polygon fill="none" stroke="black" points="1036,-790 830,-790 830,-754 1036,-754 1036,-790"/>
<text text-anchor="middle" x="933" y="-769.1" font-family="Courier,monospace" font-size="11.00">SingletonViewBlockHtmlHelper</text>
</g>
<!-- \\HtmlHelper -->
<g id="node93" class="node"><title>\\HtmlHelper</title>
<ellipse fill="none" stroke="black" cx="640" cy="-234" rx="67.1751" ry="18.3848"/>
<text text-anchor="middle" x="640" y="-230.4" font-family="Times Roman,serif" font-size="14.00" fill="gray">HtmlHelper</text>
</g>
<!-- \\SingletonViewBlockHtmlHelper&#45;&gt;\\HtmlHelper -->
<g id="edge49" class="edge"><title>\\SingletonViewBlockHtmlHelper&#45;&gt;\\HtmlHelper</title>
<path fill="none" stroke="black" d="M839.844,-753.806C836.274,-751.224 832.962,-748.303 830,-745 684.8,-583.094 905.726,-420.605 758,-261 747.227,-249.36 732.55,-242.237 717.208,-237.979"/>
<polygon fill="none" stroke="black" points="717.602,-234.475 707.065,-235.575 715.988,-241.287 717.602,-234.475"/>
</g>
<!-- \\FormInputHelper -->
<g id="node32" class="node"><title>\\FormInputHelper</title>
<polygon fill="none" stroke="black" points="992,-1924 874,-1924 874,-1888 992,-1888 992,-1924"/>
<text text-anchor="middle" x="933" y="-1903.1" font-family="Courier,monospace" font-size="11.00">FormInputHelper</text>
</g>
<!-- \\FormInputHelper&#45;&gt;\\AppHelper -->
<g id="edge51" class="edge"><title>\\FormInputHelper&#45;&gt;\\AppHelper</title>
<path fill="none" stroke="black" d="M873.888,-1896.86C858.847,-1892.86 843.215,-1887.15 830,-1879 749.876,-1829.56 684.727,-1735.81 655.946,-1689.81"/>
<polygon fill="none" stroke="black" points="658.75,-1687.69 650.523,-1681.02 652.792,-1691.36 658.75,-1687.69"/>
</g>
<!-- \\WizardHelper -->
<g id="node33" class="node"><title>\\WizardHelper</title>
<polygon fill="none" stroke="black" points="982,-1870 884,-1870 884,-1834 982,-1834 982,-1870"/>
<text text-anchor="middle" x="933" y="-1849.1" font-family="Courier,monospace" font-size="11.00">WizardHelper</text>
</g>
<!-- \\WizardHelper&#45;&gt;\\AppHelper -->
<g id="edge53" class="edge"><title>\\WizardHelper&#45;&gt;\\AppHelper</title>
<path fill="none" stroke="black" d="M883.91,-1843.86C866.268,-1839.73 846.633,-1833.68 830,-1825 761.41,-1789.19 696.097,-1724.56 662.838,-1688.7"/>
<polygon fill="none" stroke="black" points="665.192,-1686.09 655.854,-1681.09 660.033,-1690.83 665.192,-1686.09"/>
</g>
<!-- \\DisplayNumberHelper -->
<g id="node34" class="node"><title>\\DisplayNumberHelper</title>
<polygon fill="none" stroke="black" points="1005,-1816 861,-1816 861,-1780 1005,-1780 1005,-1816"/>
<text text-anchor="middle" x="933" y="-1795.1" font-family="Courier,monospace" font-size="11.00">DisplayNumberHelper</text>
</g>
<!-- \\DisplayNumberHelper&#45;&gt;\\AppHelper -->
<g id="edge55" class="edge"><title>\\DisplayNumberHelper&#45;&gt;\\AppHelper</title>
<path fill="none" stroke="black" d="M860.461,-1781.54C850.095,-1778.45 839.674,-1774.94 830,-1771 773.066,-1747.82 712.097,-1710.73 675.004,-1686.61"/>
<polygon fill="none" stroke="black" points="676.839,-1683.63 666.557,-1681.07 673.002,-1689.48 676.839,-1683.63"/>
</g>
<!-- \\MessageFlashHelper -->
<g id="node35" class="node"><title>\\MessageFlashHelper</title>
<polygon fill="none" stroke="black" points="1002,-1762 864,-1762 864,-1726 1002,-1726 1002,-1762"/>
<text text-anchor="middle" x="933" y="-1741.1" font-family="Courier,monospace" font-size="11.00">MessageFlashHelper</text>
</g>
<!-- \\MessageFlashHelper&#45;&gt;\\AppHelper -->
<g id="edge57" class="edge"><title>\\MessageFlashHelper&#45;&gt;\\AppHelper</title>
<path fill="none" stroke="black" d="M863.969,-1726.11C852.609,-1723.11 840.967,-1720 830,-1717 781.716,-1703.81 726.728,-1688.11 688.375,-1677.04"/>
<polygon fill="none" stroke="black" points="689.087,-1673.61 678.508,-1674.2 687.145,-1680.33 689.087,-1673.61"/>
</g>
<!-- \\DateHelper -->
<g id="node36" class="node"><title>\\DateHelper</title>
<polygon fill="none" stroke="black" points="975,-1708 891,-1708 891,-1672 975,-1672 975,-1708"/>
<text text-anchor="middle" x="933" y="-1687.1" font-family="Courier,monospace" font-size="11.00">DateHelper</text>
</g>
<!-- \\DateHelper&#45;&gt;\\AppHelper -->
<g id="edge59" class="edge"><title>\\DateHelper&#45;&gt;\\AppHelper</title>
<path fill="none" stroke="black" d="M890.708,-1686.1C837.148,-1681.17 745.059,-1672.68 688.643,-1667.48"/>
<polygon fill="none" stroke="black" points="688.821,-1663.98 678.542,-1666.55 688.178,-1670.95 688.821,-1663.98"/>
</g>
<!-- \\SnsButtonHelper -->
<g id="node37" class="node"><title>\\SnsButtonHelper</title>
<polygon fill="none" stroke="black" points="992,-1654 874,-1654 874,-1618 992,-1618 992,-1654"/>
<text text-anchor="middle" x="933" y="-1633.1" font-family="Courier,monospace" font-size="11.00">SnsButtonHelper</text>
</g>
<!-- \\SnsButtonHelper&#45;&gt;\\AppHelper -->
<g id="edge61" class="edge"><title>\\SnsButtonHelper&#45;&gt;\\AppHelper</title>
<path fill="none" stroke="black" d="M873.707,-1641.46C819.266,-1646.48 739.563,-1653.83 688.738,-1658.51"/>
<polygon fill="none" stroke="black" points="688.299,-1655.03 678.663,-1659.44 688.942,-1662 688.299,-1655.03"/>
</g>
<!-- \\BackToHelper -->
<g id="node38" class="node"><title>\\BackToHelper</title>
<polygon fill="none" stroke="black" points="982,-1600 884,-1600 884,-1564 982,-1564 982,-1600"/>
<text text-anchor="middle" x="933" y="-1579.1" font-family="Courier,monospace" font-size="11.00">BackToHelper</text>
</g>
<!-- \\BackToHelper&#45;&gt;\\AppHelper -->
<g id="edge63" class="edge"><title>\\BackToHelper&#45;&gt;\\AppHelper</title>
<path fill="none" stroke="black" d="M883.958,-1594.64C866.862,-1599.1 847.565,-1604.2 830,-1609 781.716,-1622.19 726.728,-1637.89 688.375,-1648.96"/>
<polygon fill="none" stroke="black" points="687.145,-1645.67 678.508,-1651.8 689.087,-1652.39 687.145,-1645.67"/>
</g>
<!-- \\NetCommonsHtmlHelper -->
<g id="node39" class="node"><title>\\NetCommonsHtmlHelper</title>
<polygon fill="none" stroke="black" points="1009,-1546 857,-1546 857,-1510 1009,-1510 1009,-1546"/>
<text text-anchor="middle" x="933" y="-1525.1" font-family="Courier,monospace" font-size="11.00">NetCommonsHtmlHelper</text>
</g>
<!-- \\NetCommonsHtmlHelper&#45;&gt;\\AppHelper -->
<g id="edge65" class="edge"><title>\\NetCommonsHtmlHelper&#45;&gt;\\AppHelper</title>
<path fill="none" stroke="black" d="M856.883,-1545.54C847.707,-1548.36 838.561,-1551.51 830,-1555 773.066,-1578.18 712.097,-1615.27 675.004,-1639.39"/>
<polygon fill="none" stroke="black" points="673.002,-1636.52 666.557,-1644.93 676.839,-1642.37 673.002,-1636.52"/>
</g>
<!-- \\ButtonHelper -->
<g id="node40" class="node"><title>\\ButtonHelper</title>
<polygon fill="none" stroke="black" points="982,-952 884,-952 884,-916 982,-916 982,-952"/>
<text text-anchor="middle" x="933" y="-931.1" font-family="Courier,monospace" font-size="11.00">ButtonHelper</text>
</g>
<!-- \\ButtonHelper&#45;&gt;\\FormHelper -->
<g id="edge67" class="edge"><title>\\ButtonHelper&#45;&gt;\\FormHelper</title>
<path fill="none" stroke="black" d="M883.758,-932.618C864.271,-929.457 843.374,-922.318 830,-907 655.683,-707.337 935.432,-511.899 758,-315 748.227,-304.155 735.069,-297.207 721.082,-292.841"/>
<polygon fill="none" stroke="black" points="721.864,-289.426 711.298,-290.214 720.049,-296.187 721.864,-289.426"/>
</g>
<!-- \\ComposerHelper -->
<g id="node41" class="node"><title>\\ComposerHelper</title>
<polygon fill="none" stroke="black" points="988,-1492 878,-1492 878,-1456 988,-1456 988,-1492"/>
<text text-anchor="middle" x="933" y="-1471.1" font-family="Courier,monospace" font-size="11.00">ComposerHelper</text>
</g>
<!-- \\ComposerHelper&#45;&gt;\\AppHelper -->
<g id="edge69" class="edge"><title>\\ComposerHelper&#45;&gt;\\AppHelper</title>
<path fill="none" stroke="black" d="M877.31,-1483.76C861.477,-1487.8 844.584,-1493.39 830,-1501 761.41,-1536.81 696.097,-1601.44 662.838,-1637.3"/>
<polygon fill="none" stroke="black" points="660.033,-1635.17 655.854,-1644.91 665.192,-1639.91 660.033,-1635.17"/>
</g>
<!-- \\LinkButtonHelper -->
<g id="node42" class="node"><title>\\LinkButtonHelper</title>
<polygon fill="none" stroke="black" points="995,-898 871,-898 871,-862 995,-862 995,-898"/>
<text text-anchor="middle" x="933" y="-877.1" font-family="Courier,monospace" font-size="11.00">LinkButtonHelper</text>
</g>
<!-- \\LinkButtonHelper&#45;&gt;\\FormHelper -->
<g id="edge71" class="edge"><title>\\LinkButtonHelper&#45;&gt;\\FormHelper</title>
<path fill="none" stroke="black" d="M870.453,-875.714C855.256,-871.707 840.405,-864.775 830,-853 670.252,-672.227 920.569,-493.24 758,-315 748.162,-304.213 734.974,-297.293 720.979,-292.934"/>
<polygon fill="none" stroke="black" points="721.757,-289.519 711.192,-290.31 719.944,-296.281 721.757,-289.519"/>
</g>
<!-- \\NetCommonsTimeHelper -->
<g id="node43" class="node"><title>\\NetCommonsTimeHelper</title>
<polygon fill="none" stroke="black" points="1009,-1438 857,-1438 857,-1402 1009,-1402 1009,-1438"/>
<text text-anchor="middle" x="933" y="-1417.1" font-family="Courier,monospace" font-size="11.00">NetCommonsTimeHelper</text>
</g>
<!-- \\NetCommonsTimeHelper&#45;&gt;\\AppHelper -->
<g id="edge73" class="edge"><title>\\NetCommonsTimeHelper&#45;&gt;\\AppHelper</title>
<path fill="none" stroke="black" d="M856.876,-1434.4C847.463,-1437.76 838.259,-1441.9 830,-1447 749.876,-1496.44 684.727,-1590.19 655.946,-1636.19"/>
<polygon fill="none" stroke="black" points="652.792,-1634.64 650.523,-1644.98 658.75,-1638.31 652.792,-1634.64"/>
</g>
<!-- \\NetCommonsFormHelper -->
<g id="node44" class="node"><title>\\NetCommonsFormHelper</title>
<polygon fill="none" stroke="black" points="1009,-1384 857,-1384 857,-1348 1009,-1348 1009,-1384"/>
<text text-anchor="middle" x="933" y="-1363.1" font-family="Courier,monospace" font-size="11.00">NetCommonsFormHelper</text>
</g>
<!-- \\NetCommonsFormHelper&#45;&gt;\\AppHelper -->
<g id="edge75" class="edge"><title>\\NetCommonsFormHelper&#45;&gt;\\AppHelper</title>
<path fill="none" stroke="black" d="M856.864,-1379.37C847.35,-1382.9 838.123,-1387.36 830,-1393 738.034,-1456.86 675.79,-1580.47 651.457,-1635.46"/>
<polygon fill="none" stroke="black" points="648.13,-1634.34 647.356,-1644.9 654.551,-1637.13 648.13,-1634.34"/>
</g>
<!-- \\TitleIconHelper -->
<g id="node45" class="node"><title>\\TitleIconHelper</title>
<polygon fill="none" stroke="black" points="992,-2194 874,-2194 874,-2158 992,-2158 992,-2194"/>
<text text-anchor="middle" x="933" y="-2173.1" font-family="Courier,monospace" font-size="11.00">TitleIconHelper</text>
</g>
<!-- \\TitleIconHelper&#45;&gt;\\AppHelper -->
<g id="edge77" class="edge"><title>\\TitleIconHelper&#45;&gt;\\AppHelper</title>
<path fill="none" stroke="black" d="M873.846,-2170.35C858.121,-2166.39 842.152,-2159.82 830,-2149 687.368,-2022.06 650.808,-1774.73 642.341,-1691.27"/>
<polygon fill="none" stroke="black" points="645.82,-1690.89 641.383,-1681.27 638.852,-1691.56 645.82,-1690.89"/>
</g>
<!-- \\DatetimePickerHelper -->
<g id="node46" class="node"><title>\\DatetimePickerHelper</title>
<polygon fill="none" stroke="black" points="1009,-1978 857,-1978 857,-1942 1009,-1942 1009,-1978"/>
<text text-anchor="middle" x="933" y="-1957.1" font-family="Courier,monospace" font-size="11.00">DatetimePickerHelper</text>
</g>
<!-- \\DatetimePickerHelper&#45;&gt;\\AppHelper -->
<g id="edge79" class="edge"><title>\\DatetimePickerHelper&#45;&gt;\\AppHelper</title>
<path fill="none" stroke="black" d="M856.864,-1946.63C847.35,-1943.1 838.123,-1938.64 830,-1933 738.034,-1869.14 675.79,-1745.53 651.457,-1690.54"/>
<polygon fill="none" stroke="black" points="654.551,-1688.87 647.356,-1681.1 648.13,-1691.66 654.551,-1688.87"/>
</g>
<!-- \\Model -->
<g id="node110" class="node"><title>\\Model</title>
<ellipse fill="none" stroke="black" cx="82" cy="-2608" rx="43.8406" ry="18.3848"/>
<text text-anchor="middle" x="82" y="-2604.4" font-family="Times Roman,serif" font-size="14.00" fill="gray">\Model</text>
</g>
<!-- \\NetCommonsAppModel&#45;&gt;\\Model -->
<g id="edge81" class="edge"><title>\\NetCommonsAppModel&#45;&gt;\\Model</title>
<path fill="none" stroke="black" d="M273.742,-2608C230.675,-2608 176.099,-2608 136.195,-2608"/>
<polygon fill="none" stroke="black" points="136.125,-2604.5 126.125,-2608 136.125,-2611.5 136.125,-2604.5"/>
</g>
<!-- \\OriginalKeyBehavior -->
<g id="node48" class="node"><title>\\OriginalKeyBehavior</title>
<polygon fill="none" stroke="black" points="1005,-682 861,-682 861,-646 1005,-646 1005,-682"/>
<text text-anchor="middle" x="933" y="-661.1" font-family="Courier,monospace" font-size="11.00">OriginalKeyBehavior</text>
</g>
<!-- \\ModelBehavior -->
<g id="node112" class="node"><title>\\ModelBehavior</title>
<ellipse fill="none" stroke="black" cx="640" cy="-180" rx="86.9741" ry="18.3848"/>
<text text-anchor="middle" x="640" y="-176.4" font-family="Times Roman,serif" font-size="14.00" fill="gray">\ModelBehavior</text>
</g>
<!-- \\OriginalKeyBehavior&#45;&gt;\\ModelBehavior -->
<g id="edge83" class="edge"><title>\\OriginalKeyBehavior&#45;&gt;\\ModelBehavior</title>
<path fill="none" stroke="black" d="M860.344,-656.25C848.896,-652.073 838.166,-645.94 830,-637 699.318,-493.927 890.914,-348.002 758,-207 750.736,-199.293 741.758,-193.575 732.025,-189.36"/>
<polygon fill="none" stroke="black" points="733.083,-186.019 722.491,-185.764 730.613,-192.568 733.083,-186.019"/>
</g>
<!-- \\TrackableBehavior -->
<g id="node49" class="node"><title>\\TrackableBehavior</title>
<polygon fill="none" stroke="black" points="998,-736 868,-736 868,-700 998,-700 998,-736"/>
<text text-anchor="middle" x="933" y="-715.1" font-family="Courier,monospace" font-size="11.00">TrackableBehavior</text>
</g>
<!-- \\TrackableBehavior&#45;&gt;\\ModelBehavior -->
<g id="edge85" class="edge"><title>\\TrackableBehavior&#45;&gt;\\ModelBehavior</title>
<path fill="none" stroke="black" d="M867.356,-712.719C853.292,-708.606 839.75,-701.872 830,-691 684.8,-529.094 905.726,-366.605 758,-207 750.86,-199.286 742.006,-193.556 732.38,-189.328"/>
<polygon fill="none" stroke="black" points="733.536,-186.023 722.945,-185.72 731.035,-192.561 733.536,-186.023"/>
</g>
<!-- \\YAExceptionRenderer -->
<g id="node50" class="node"><title>\\YAExceptionRenderer</title>
<polygon fill="none" stroke="black" points="1005,-628 861,-628 861,-592 1005,-592 1005,-628"/>
<text text-anchor="middle" x="933" y="-607.1" font-family="Courier,monospace" font-size="11.00">YAExceptionRenderer</text>
</g>
<!-- \\ExceptionRenderer -->
<g id="node115" class="node"><title>\\ExceptionRenderer</title>
<ellipse fill="none" stroke="black" cx="640" cy="-126" rx="118.087" ry="18.3848"/>
<text text-anchor="middle" x="640" y="-122.4" font-family="Times Roman,serif" font-size="14.00" fill="gray">TEHxceptionRenderer</text>
</g>
<!-- \\YAExceptionRenderer&#45;&gt;\\ExceptionRenderer -->
<g id="edge87" class="edge"><title>\\YAExceptionRenderer&#45;&gt;\\ExceptionRenderer</title>
<path fill="none" stroke="black" d="M860.344,-602.25C848.896,-598.073 838.166,-591.94 830,-583 699.318,-439.927 890.914,-294.002 758,-153 753.844,-148.591 749.128,-144.833 744.031,-141.635"/>
<polygon fill="none" stroke="black" points="745.577,-138.492 735.123,-136.766 742.219,-144.634 745.577,-138.492"/>
</g>
<!-- \\NetCommonsMigration -->
<g id="node51" class="node"><title>\\NetCommonsMigration</title>
<polygon fill="none" stroke="black" points="1005,-520 861,-520 861,-484 1005,-484 1005,-520"/>
<text text-anchor="middle" x="933" y="-499.1" font-family="Courier,monospace" font-size="11.00">NetCommonsMigration</text>
</g>
<!-- \\CakeMigration -->
<g id="node117" class="node"><title>\\CakeMigration</title>
<ellipse fill="none" stroke="black" cx="640" cy="-72" rx="84.8528" ry="18.3848"/>
<text text-anchor="middle" x="640" y="-68.4" font-family="Times Roman,serif" font-size="14.00" fill="gray">\CakeMigration</text>
</g>
<!-- \\NetCommonsMigration&#45;&gt;\\CakeMigration -->
<g id="edge89" class="edge"><title>\\NetCommonsMigration&#45;&gt;\\CakeMigration</title>
<path fill="none" stroke="black" d="M860.253,-493.995C848.886,-489.838 838.206,-483.777 830,-475 713.795,-350.716 876.143,-221.443 758,-99 750.347,-91.0685 740.877,-85.2535 730.656,-81.0209"/>
<polygon fill="none" stroke="black" points="731.684,-77.6706 721.089,-77.5632 729.304,-84.2538 731.684,-77.6706"/>
</g>
<!-- \\TopicFrameSettingsController -->
<g id="node52" class="node"><title>\\TopicFrameSettingsController</title>
<polygon fill="none" stroke="black" points="1036,-2356 830,-2356 830,-2320 1036,-2320 1036,-2356"/>
<text text-anchor="middle" x="933" y="-2335.1" font-family="Courier,monospace" font-size="11.00">TopicFrameSettingsController</text>
</g>
<!-- \\TopicsAppController -->
<g id="node55" class="node"><title>\\TopicsAppController</title>
<polygon fill="none" stroke="black" points="712,-2383 568,-2383 568,-2347 712,-2347 712,-2383"/>
<text text-anchor="middle" x="640" y="-2362.1" font-family="Courier,monospace" font-size="11.00">TopicsAppController</text>
</g>
<!-- \\TopicFrameSettingsController&#45;&gt;\\TopicsAppController -->
<g id="edge91" class="edge"><title>\\TopicFrameSettingsController&#45;&gt;\\TopicsAppController</title>
<path fill="none" stroke="black" d="M829.699,-2347.52C794.76,-2350.74 756.221,-2354.29 723.057,-2357.35"/>
<polygon fill="none" stroke="black" points="722.584,-2353.87 712.948,-2358.28 723.227,-2360.85 722.584,-2353.87"/>
</g>
<!-- \\TopicsController -->
<g id="node53" class="node"><title>\\TopicsController</title>
<polygon fill="none" stroke="black" points="995,-2410 871,-2410 871,-2374 995,-2374 995,-2410"/>
<text text-anchor="middle" x="933" y="-2389.1" font-family="Courier,monospace" font-size="11.00">TopicsController</text>
</g>
<!-- \\TopicsController&#45;&gt;\\TopicsAppController -->
<g id="edge93" class="edge"><title>\\TopicsController&#45;&gt;\\TopicsAppController</title>
<path fill="none" stroke="black" d="M870.144,-2386.21C827.064,-2382.24 769.471,-2376.93 722.677,-2372.62"/>
<polygon fill="none" stroke="black" points="722.84,-2369.12 712.561,-2371.69 722.197,-2376.09 722.84,-2369.12"/>
</g>
<!-- \\TopicSelectedRoomsController -->
<g id="node54" class="node"><title>\\TopicSelectedRoomsController</title>
<polygon fill="none" stroke="black" points="743,-2518 537,-2518 537,-2482 743,-2482 743,-2518"/>
<text text-anchor="middle" x="640" y="-2497.1" font-family="Courier,monospace" font-size="11.00">TopicSelectedRoomsController</text>
</g>
<!-- \\TopicSelectedRoomsController&#45;&gt;\\AppController -->
<g id="edge95" class="edge"><title>\\TopicSelectedRoomsController&#45;&gt;\\AppController</title>
<path fill="none" stroke="black" d="M547.957,-2481.97C539.065,-2479.32 530.281,-2476.35 522,-2473 467.399,-2450.94 410.106,-2413.46 375.467,-2388.97"/>
<polygon fill="none" stroke="black" points="377.336,-2386 367.164,-2383.04 373.267,-2391.7 377.336,-2386"/>
</g>
<!-- \\TopicsAppController&#45;&gt;\\AppController -->
<g id="edge97" class="edge"><title>\\TopicsAppController&#45;&gt;\\AppController</title>
<path fill="none" stroke="black" d="M567.346,-2365C517.748,-2365 452.721,-2365 405.452,-2365"/>
<polygon fill="none" stroke="black" points="405.347,-2361.5 395.347,-2365 405.347,-2368.5 405.347,-2361.5"/>
</g>
<!-- \\Topic -->
<g id="node56" class="node"><title>\\Topic</title>
<polygon fill="none" stroke="black" points="960,-2572 906,-2572 906,-2536 960,-2536 960,-2572"/>
<text text-anchor="middle" x="933" y="-2551.1" font-family="Courier,monospace" font-size="11.00">Topic</text>
</g>
<!-- \\Topic&#45;&gt;\\AppModel -->
<g id="edge99" class="edge"><title>\\Topic&#45;&gt;\\AppModel</title>
<path fill="none" stroke="black" d="M905.96,-2558.98C855.636,-2568.26 747.12,-2588.26 685.383,-2599.64"/>
<polygon fill="none" stroke="black" points="684.725,-2596.2 675.525,-2601.45 685.994,-2603.08 684.725,-2596.2"/>
</g>
<!-- \\TopicSelectedRoom -->
<g id="node57" class="node"><title>\\TopicSelectedRoom</title>
<polygon fill="none" stroke="black" points="998,-2518 868,-2518 868,-2482 998,-2482 998,-2518"/>
<text text-anchor="middle" x="933" y="-2497.1" font-family="Courier,monospace" font-size="11.00">TopicSelectedRoom</text>
</g>
<!-- \\TopicSelectedRoom&#45;&gt;\\AppModel -->
<g id="edge101" class="edge"><title>\\TopicSelectedRoom&#45;&gt;\\AppModel</title>
<path fill="none" stroke="black" d="M867.459,-2515.64C854.925,-2519.06 841.981,-2522.9 830,-2527 779.331,-2544.34 723.119,-2569.01 685.074,-2586.56"/>
<polygon fill="none" stroke="black" points="683.405,-2583.48 675.807,-2590.86 686.352,-2589.83 683.405,-2583.48"/>
</g>
<!-- \\TopicFrameSetting -->
<g id="node58" class="node"><title>\\TopicFrameSetting</title>
<polygon fill="none" stroke="black" points="998,-2734 868,-2734 868,-2698 998,-2698 998,-2734"/>
<text text-anchor="middle" x="933" y="-2713.1" font-family="Courier,monospace" font-size="11.00">TopicFrameSetting</text>
</g>
<!-- \\TopicFrameSetting&#45;&gt;\\AppModel -->
<g id="edge103" class="edge"><title>\\TopicFrameSetting&#45;&gt;\\AppModel</title>
<path fill="none" stroke="black" d="M867.459,-2700.36C854.925,-2696.94 841.981,-2693.1 830,-2689 779.331,-2671.66 723.119,-2646.99 685.074,-2629.44"/>
<polygon fill="none" stroke="black" points="686.352,-2626.17 675.807,-2625.14 683.405,-2632.52 686.352,-2626.17"/>
</g>
<!-- \\TopicFrameSettingShowPlugin -->
<g id="node59" class="node"><title>\\TopicFrameSettingShowPlugin</title>
<polygon fill="none" stroke="black" points="1032,-2680 834,-2680 834,-2644 1032,-2644 1032,-2680"/>
<text text-anchor="middle" x="933" y="-2659.1" font-family="Courier,monospace" font-size="11.00">TopicFrameSettingShowPlugin</text>
</g>
<!-- \\TopicFrameSettingShowPlugin&#45;&gt;\\AppModel -->
<g id="edge105" class="edge"><title>\\TopicFrameSettingShowPlugin&#45;&gt;\\AppModel</title>
<path fill="none" stroke="black" d="M835.028,-2643.94C784.525,-2634.64 725.348,-2623.73 685.537,-2616.39"/>
<polygon fill="none" stroke="black" points="686.068,-2612.93 675.599,-2614.56 684.799,-2619.82 686.068,-2612.93"/>
</g>
<!-- \\TopicSchema -->
<g id="node60" class="node"><title>\\TopicSchema</title>
<polygon fill="none" stroke="black" points="978,-466 888,-466 888,-430 978,-430 978,-466"/>
<text text-anchor="middle" x="933" y="-445.1" font-family="Courier,monospace" font-size="11.00">TopicSchema</text>
</g>
<!-- \\CakeSchema -->
<g id="node127" class="node"><title>\\CakeSchema</title>
<ellipse fill="none" stroke="black" cx="640" cy="-18" rx="77.0746" ry="18.3848"/>
<text text-anchor="middle" x="640" y="-14.4" font-family="Times Roman,serif" font-size="14.00" fill="gray">\CakeSchema</text>
</g>
<!-- \\TopicSchema&#45;&gt;\\CakeSchema -->
<g id="edge107" class="edge"><title>\\TopicSchema&#45;&gt;\\CakeSchema</title>
<path fill="none" stroke="black" d="M930.861,-429.713C922.367,-365.789 885.044,-150.503 758,-45 747.886,-36.6012 735.67,-30.6949 722.982,-26.5644"/>
<polygon fill="none" stroke="black" points="723.793,-23.1556 713.214,-23.74 721.848,-29.8801 723.793,-23.1556"/>
</g>
<!-- \\Init -->
<g id="node61" class="node"><title>\\Init</title>
<polygon fill="none" stroke="black" points="960,-574 906,-574 906,-538 960,-538 960,-574"/>
<text text-anchor="middle" x="933" y="-553.1" font-family="Courier,monospace" font-size="11.00">Init</text>
</g>
<!-- \\Init&#45;&gt;\\CakeMigration -->
<g id="edge109" class="edge"><title>\\Init&#45;&gt;\\CakeMigration</title>
<path fill="none" stroke="black" d="M905.66,-556.547C882.14,-555.449 849.075,-549.884 830,-529 699.318,-385.927 890.914,-240.002 758,-99 750.44,-90.9799 741.025,-85.1126 730.833,-80.8528"/>
<polygon fill="none" stroke="black" points="731.879,-77.5089 721.284,-77.377 729.484,-84.0866 731.879,-77.5089"/>
</g>
</g>
</svg>
