<?xml version="1.0" encoding="UTF-8" standalone="no"?>
<!DOCTYPE svg PUBLIC "-//W3C//DTD SVG 1.1//EN"
 "http://www.w3.org/Graphics/SVG/1.1/DTD/svg11.dtd">
<!-- Generated by graphviz version 2.26.3 (20100126.1600)
 -->
<!-- Title: G Pages: 1 -->
<svg width="1060pt" height="3050pt"
 viewBox="0.00 0.00 1060.00 3050.00" xmlns="http://www.w3.org/2000/svg" xmlns:xlink="http://www.w3.org/1999/xlink">
<g id="graph1" class="graph" transform="scale(1 1) rotate(0) translate(4 3046)">
<title>G</title>
<polygon fill="white" stroke="white" points="-4,5 -4,-3046 1057,-3046 1057,5 -4,5"/>
<g id="graph2" class="cluster"><title>cluster_Global</title>
<polyline fill="none" stroke="gray" points="264,-422 1032,-422 "/>
<path fill="none" stroke="gray" d="M1032,-422C1038,-422 1044,-428 1044,-434"/>
<polyline fill="none" stroke="gray" points="1044,-434 1044,-3022 "/>
<path fill="none" stroke="gray" d="M1044,-3022C1044,-3028 1038,-3034 1032,-3034"/>
<polyline fill="none" stroke="gray" points="1032,-3034 264,-3034 "/>
<path fill="none" stroke="gray" d="M264,-3034C258,-3034 252,-3028 252,-3022"/>
<polyline fill="none" stroke="gray" points="252,-3022 252,-434 "/>
<path fill="none" stroke="gray" d="M252,-434C252,-428 258,-422 264,-422"/>
<text text-anchor="middle" x="648" y="-3020.1" font-family="Times Roman,serif" font-size="11.00" fill="gray">Global</text>
</g>
<!-- \\AppController -->
<g id="node2" class="node"><title>\\AppController</title>
<polygon fill="none" stroke="black" points="395,-2437 291,-2437 291,-2401 395,-2401 395,-2437"/>
<text text-anchor="middle" x="343" y="-2416.1" font-family="Courier,monospace" font-size="11.00">AppController</text>
</g>
<!-- \\Controller -->
<g id="node64" class="node"><title>\\Controller</title>
<ellipse fill="none" stroke="black" cx="82" cy="-1344" rx="63.1385" ry="18.3848"/>
<text text-anchor="middle" x="82" y="-1340.4" font-family="Times Roman,serif" font-size="14.00" fill="gray">\Controller</text>
</g>
<!-- \\AppController&#45;&gt;\\Controller -->
<g id="edge3" class="edge"><title>\\AppController&#45;&gt;\\Controller</title>
<path fill="none" stroke="black" d="M290.885,-2420.35C271.104,-2418.08 249.995,-2411.82 236,-2397 163.084,-2319.76 96.899,-1531.57 84.1917,-1372.06"/>
<polygon fill="none" stroke="black" points="87.6798,-1371.77 83.4011,-1362.08 80.7016,-1372.32 87.6798,-1371.77"/>
</g>
<!-- \\AppModel -->
<g id="node3" class="node"><title>\\AppModel</title>
<polygon fill="none" stroke="black" points="675,-2680 605,-2680 605,-2644 675,-2644 675,-2680"/>
<text text-anchor="middle" x="640" y="-2659.1" font-family="Courier,monospace" font-size="11.00">AppModel</text>
</g>
<!-- \\NetCommonsAppModel -->
<g id="node48" class="node"><title>\\NetCommonsAppModel</title>
<polygon fill="none" stroke="black" points="412,-2680 274,-2680 274,-2644 412,-2644 412,-2680"/>
<text text-anchor="middle" x="343" y="-2659.1" font-family="Courier,monospace" font-size="11.00">NetCommonsAppModel</text>
</g>
<!-- \\AppModel&#45;&gt;\\NetCommonsAppModel -->
<g id="edge5" class="edge"><title>\\AppModel&#45;&gt;\\NetCommonsAppModel</title>
<path fill="none" stroke="black" d="M604.47,-2662C559.713,-2662 481.497,-2662 422.241,-2662"/>
<polygon fill="none" stroke="black" points="422.157,-2658.5 412.157,-2662 422.157,-2665.5 422.157,-2658.5"/>
</g>
<!-- \\DatabaseConfiguration -->
<g id="node4" class="node"><title>\\DatabaseConfiguration</title>
<polygon fill="none" stroke="black" points="1012,-2626 854,-2626 854,-2590 1012,-2590 1012,-2626"/>
<text text-anchor="middle" x="933" y="-2605.1" font-family="Courier,monospace" font-size="11.00">DatabaseConfiguration</text>
</g>
<!-- \\DatabaseConfiguration&#45;&gt;\\AppModel -->
<g id="edge7" class="edge"><title>\\DatabaseConfiguration&#45;&gt;\\AppModel</title>
<path fill="none" stroke="black" d="M853.71,-2622.61C799.937,-2632.52 730.74,-2645.28 685.886,-2653.54"/>
<polygon fill="none" stroke="black" points="685.066,-2650.14 675.866,-2655.39 686.334,-2657.02 685.066,-2650.14"/>
</g>
<!-- \\AppHelper -->
<g id="node5" class="node"><title>\\AppHelper</title>
<polygon fill="none" stroke="black" points="678,-1708 602,-1708 602,-1672 678,-1672 678,-1708"/>
<text text-anchor="middle" x="640" y="-1687.1" font-family="Courier,monospace" font-size="11.00">AppHelper</text>
</g>
<!-- \\Helper -->
<g id="node68" class="node"><title>\\Helper</title>
<ellipse fill="none" stroke="black" cx="343" cy="-396" rx="43.8406" ry="18.3848"/>
<text text-anchor="middle" x="343" y="-392.4" font-family="Times Roman,serif" font-size="14.00" fill="gray">Helper</text>
</g>
<!-- \\AppHelper&#45;&gt;\\Helper -->
<g id="edge9" class="edge"><title>\\AppHelper&#45;&gt;\\Helper</title>
<path fill="none" stroke="black" d="M632.086,-1671.8C610.212,-1620.57 548.783,-1470.34 522,-1339 501.49,-1238.42 517.915,-494.965 450,-418 436.75,-402.984 416.226,-396.613 396.683,-394.309"/>
<polygon fill="none" stroke="black" points="396.857,-390.812 386.596,-393.451 396.264,-397.786 396.857,-390.812"/>
</g>
<!-- \\NetCommonsDeleteTest -->
<g id="node6" class="node"><title>\\NetCommonsDeleteTest</title>
<polygon fill="none" stroke="black" points="1009,-3004 857,-3004 857,-2968 1009,-2968 1009,-3004"/>
<text text-anchor="middle" x="933" y="-2983.1" font-family="Courier,monospace" font-size="11.00">NetCommonsDeleteTest</text>
</g>
<!-- \\NetCommonsModelTestCase -->
<g id="node15" class="node"><title>\\NetCommonsModelTestCase</title>
<polygon fill="none" stroke="black" points="726,-2923 554,-2923 554,-2887 726,-2887 726,-2923"/>
<text text-anchor="middle" x="640" y="-2902.1" font-family="Courier,monospace" font-size="11.00">NetCommonsModelTestCase</text>
</g>
<!-- \\NetCommonsDeleteTest&#45;&gt;\\NetCommonsModelTestCase -->
<g id="edge11" class="edge"><title>\\NetCommonsDeleteTest&#45;&gt;\\NetCommonsModelTestCase</title>
<path fill="none" stroke="black" d="M863.415,-2967.97C852.231,-2965.01 840.789,-2961.95 830,-2959 790.993,-2948.35 747.61,-2936.05 712.158,-2925.88"/>
<polygon fill="none" stroke="black" points="712.957,-2922.47 702.379,-2923.08 711.025,-2929.2 712.957,-2922.47"/>
</g>
<!-- \\NetCommonsConsoleTestCase -->
<g id="node7" class="node"><title>\\NetCommonsConsoleTestCase</title>
<polygon fill="none" stroke="black" points="732,-2869 548,-2869 548,-2833 732,-2833 732,-2869"/>
<text text-anchor="middle" x="640" y="-2848.1" font-family="Courier,monospace" font-size="11.00">NetCommonsConsoleTestCase</text>
</g>
<!-- \\NetCommonsCakeTestCase -->
<g id="node13" class="node"><title>\\NetCommonsCakeTestCase</title>
<polygon fill="none" stroke="black" points="425,-2869 261,-2869 261,-2833 425,-2833 425,-2869"/>
<text text-anchor="middle" x="343" y="-2848.1" font-family="Courier,monospace" font-size="11.00">NetCommonsCakeTestCase</text>
</g>
<!-- \\NetCommonsConsoleTestCase&#45;&gt;\\NetCommonsCakeTestCase -->
<g id="edge13" class="edge"><title>\\NetCommonsConsoleTestCase&#45;&gt;\\NetCommonsCakeTestCase</title>
<path fill="none" stroke="black" d="M547.249,-2851C511.93,-2851 471.688,-2851 436.316,-2851"/>
<polygon fill="none" stroke="black" points="435.993,-2847.5 425.993,-2851 435.993,-2854.5 435.993,-2847.5"/>
</g>
<!-- \\NetCommonsGetTest -->
<g id="node8" class="node"><title>\\NetCommonsGetTest</title>
<polygon fill="none" stroke="black" points="998,-2950 868,-2950 868,-2914 998,-2914 998,-2950"/>
<text text-anchor="middle" x="933" y="-2929.1" font-family="Courier,monospace" font-size="11.00">NetCommonsGetTest</text>
</g>
<!-- \\NetCommonsGetTest&#45;&gt;\\NetCommonsModelTestCase -->
<g id="edge15" class="edge"><title>\\NetCommonsGetTest&#45;&gt;\\NetCommonsModelTestCase</title>
<path fill="none" stroke="black" d="M867.245,-2925.94C828.664,-2922.39 779.217,-2917.83 736.305,-2913.87"/>
<polygon fill="none" stroke="black" points="736.399,-2910.37 726.12,-2912.94 735.756,-2917.34 736.399,-2910.37"/>
</g>
<!-- \\NetCommonsHelperTestCase -->
<g id="node9" class="node"><title>\\NetCommonsHelperTestCase</title>
<polygon fill="none" stroke="black" points="729,-2815 551,-2815 551,-2779 729,-2779 729,-2815"/>
<text text-anchor="middle" x="640" y="-2794.1" font-family="Courier,monospace" font-size="11.00">NetCommonsHelperTestCase</text>
</g>
<!-- \\NetCommonsHelperTestCase&#45;&gt;\\NetCommonsCakeTestCase -->
<g id="edge17" class="edge"><title>\\NetCommonsHelperTestCase&#45;&gt;\\NetCommonsCakeTestCase</title>
<path fill="none" stroke="black" d="M550.487,-2813.28C514.267,-2819.86 472.456,-2827.46 435.9,-2834.11"/>
<polygon fill="none" stroke="black" points="434.95,-2830.72 425.737,-2835.96 436.202,-2837.61 434.95,-2830.72"/>
</g>
<!-- \\NetCommonsControllerBaseTestCase -->
<g id="node10" class="node"><title>\\NetCommonsControllerBaseTestCase</title>
<polygon fill="none" stroke="black" points="756,-1330 524,-1330 524,-1294 756,-1294 756,-1330"/>
<text text-anchor="middle" x="640" y="-1309.1" font-family="Courier,monospace" font-size="11.00">NetCommonsControllerBaseTestCase</text>
</g>
<!-- \\ControllerTestCase -->
<g id="node74" class="node"><title>\\ControllerTestCase</title>
<ellipse fill="none" stroke="black" cx="343" cy="-342" rx="106.773" ry="18.3848"/>
<text text-anchor="middle" x="343" y="-338.4" font-family="Times Roman,serif" font-size="14.00" fill="gray">\ControllerTestCase</text>
</g>
<!-- \\NetCommonsControllerBaseTestCase&#45;&gt;\\ControllerTestCase -->
<g id="edge19" class="edge"><title>\\NetCommonsControllerBaseTestCase&#45;&gt;\\ControllerTestCase</title>
<path fill="none" stroke="black" d="M634.091,-1293.72C615.185,-1234.63 555.47,-1043.22 522,-881 498.783,-768.473 526.764,-454.491 450,-369 446.16,-364.723 441.751,-361.078 436.958,-357.976"/>
<polygon fill="none" stroke="black" points="438.396,-354.77 427.957,-352.957 434.987,-360.884 438.396,-354.77"/>
</g>
<!-- \\NetCommonsValidateTest -->
<g id="node11" class="node"><title>\\NetCommonsValidateTest</title>
<polygon fill="none" stroke="black" points="1015,-2896 851,-2896 851,-2860 1015,-2860 1015,-2896"/>
<text text-anchor="middle" x="933" y="-2875.1" font-family="Courier,monospace" font-size="11.00">NetCommonsValidateTest</text>
</g>
<!-- \\NetCommonsValidateTest&#45;&gt;\\NetCommonsModelTestCase -->
<g id="edge21" class="edge"><title>\\NetCommonsValidateTest&#45;&gt;\\NetCommonsModelTestCase</title>
<path fill="none" stroke="black" d="M850.213,-2885.63C814.791,-2888.89 773.196,-2892.73 736.397,-2896.12"/>
<polygon fill="none" stroke="black" points="735.791,-2892.66 726.154,-2897.06 736.433,-2899.63 735.791,-2892.66"/>
</g>
<!-- \\NetCommonsTestSuite -->
<g id="node12" class="node"><title>\\NetCommonsTestSuite</title>
<polygon fill="none" stroke="black" points="1005,-1222 861,-1222 861,-1186 1005,-1186 1005,-1222"/>
<text text-anchor="middle" x="933" y="-1201.1" font-family="Courier,monospace" font-size="11.00">NetCommonsTestSuite</text>
</g>
<!-- \\CakeTestSuite -->
<g id="node77" class="node"><title>\\CakeTestSuite</title>
<ellipse fill="none" stroke="black" cx="640" cy="-396" rx="84.1457" ry="18.3848"/>
<text text-anchor="middle" x="640" y="-392.4" font-family="Times Roman,serif" font-size="14.00" fill="gray">\CakeTestSuite</text>
</g>
<!-- \\NetCommonsTestSuite&#45;&gt;\\CakeTestSuite -->
<g id="edge23" class="edge"><title>\\NetCommonsTestSuite&#45;&gt;\\CakeTestSuite</title>
<path fill="none" stroke="black" d="M860.328,-1196.92C848.737,-1192.69 837.962,-1186.37 830,-1177 720.272,-1047.91 872.306,-543.054 758,-418 751.146,-410.501 742.623,-405.061 733.316,-401.167"/>
<polygon fill="none" stroke="black" points="734.374,-397.828 723.78,-397.769 732.025,-404.422 734.374,-397.828"/>
</g>
<!-- \\CakeTestCase -->
<g id="node79" class="node"><title>\\CakeTestCase</title>
<ellipse fill="none" stroke="black" cx="82" cy="-2851" rx="82.0244" ry="18.3848"/>
<text text-anchor="middle" x="82" y="-2847.4" font-family="Times Roman,serif" font-size="14.00" fill="gray">\CakeTestCase</text>
</g>
<!-- \\NetCommonsCakeTestCase&#45;&gt;\\CakeTestCase -->
<g id="edge25" class="edge"><title>\\NetCommonsCakeTestCase&#45;&gt;\\CakeTestCase</title>
<path fill="none" stroke="black" d="M260.418,-2851C233.018,-2851 202.345,-2851 174.263,-2851"/>
<polygon fill="none" stroke="black" points="174.045,-2847.5 164.045,-2851 174.045,-2854.5 174.045,-2847.5"/>
</g>
<!-- \\NetCommonsSaveTest -->
<g id="node14" class="node"><title>\\NetCommonsSaveTest</title>
<polygon fill="none" stroke="black" points="1002,-2842 864,-2842 864,-2806 1002,-2806 1002,-2842"/>
<text text-anchor="middle" x="933" y="-2821.1" font-family="Courier,monospace" font-size="11.00">NetCommonsSaveTest</text>
</g>
<!-- \\NetCommonsSaveTest&#45;&gt;\\NetCommonsModelTestCase -->
<g id="edge27" class="edge"><title>\\NetCommonsSaveTest&#45;&gt;\\NetCommonsModelTestCase</title>
<path fill="none" stroke="black" d="M863.741,-2841.11C852.409,-2844.21 840.835,-2847.56 830,-2851 797.428,-2861.35 790.731,-2868.17 758,-2878 750.57,-2880.23 742.83,-2882.38 735.023,-2884.43"/>
<polygon fill="none" stroke="black" points="733.938,-2881.09 725.116,-2886.96 735.671,-2887.87 733.938,-2881.09"/>
</g>
<!-- \\NetCommonsModelTestCase&#45;&gt;\\NetCommonsCakeTestCase -->
<g id="edge29" class="edge"><title>\\NetCommonsModelTestCase&#45;&gt;\\NetCommonsCakeTestCase</title>
<path fill="none" stroke="black" d="M553.696,-2889.31C516.671,-2882.58 473.35,-2874.7 435.65,-2867.85"/>
<polygon fill="none" stroke="black" points="436.151,-2864.38 425.686,-2866.03 434.899,-2871.27 436.151,-2864.38"/>
</g>
<!-- \\NetCommonsControllerTestCase -->
<g id="node16" class="node"><title>\\NetCommonsControllerTestCase</title>
<polygon fill="none" stroke="black" points="1036,-1330 830,-1330 830,-1294 1036,-1294 1036,-1330"/>
<text text-anchor="middle" x="933" y="-1309.1" font-family="Courier,monospace" font-size="11.00">NetCommonsControllerTestCase</text>
</g>
<!-- \\NetCommonsControllerTestCase&#45;&gt;\\NetCommonsControllerBaseTestCase -->
<g id="edge31" class="edge"><title>\\NetCommonsControllerTestCase&#45;&gt;\\NetCommonsControllerBaseTestCase</title>
<path fill="none" stroke="black" d="M829.699,-1312C809.381,-1312 787.845,-1312 766.858,-1312"/>
<polygon fill="none" stroke="black" points="766.606,-1308.5 756.606,-1312 766.606,-1315.5 766.606,-1308.5"/>
</g>
<!-- \\NetCommonsAppController -->
<g id="node17" class="node"><title>\\NetCommonsAppController</title>
<polygon fill="none" stroke="black" points="726,-872 554,-872 554,-836 726,-836 726,-872"/>
<text text-anchor="middle" x="640" y="-851.1" font-family="Courier,monospace" font-size="11.00">NetCommonsAppController</text>
</g>
<!-- \\NetCommonsAppController&#45;&gt;\\Controller -->
<g id="edge33" class="edge"><title>\\NetCommonsAppController&#45;&gt;\\Controller</title>
<path fill="none" stroke="black" d="M553.891,-851.057C541.89,-847.154 530.708,-841.117 522,-832 361.766,-664.229 624.994,-467.312 450,-315 378.258,-252.557 308.059,-252.923 236,-315 157.482,-382.641 95.9806,-1155.94 84.086,-1315.36"/>
<polygon fill="none" stroke="black" points="80.564,-1315.53 83.3157,-1325.76 87.5449,-1316.05 80.564,-1315.53"/>
</g>
<!-- \\AssetComponent -->
<g id="node18" class="node"><title>\\AssetComponent</title>
<polygon fill="none" stroke="black" points="988,-1006 878,-1006 878,-970 988,-970 988,-1006"/>
<text text-anchor="middle" x="933" y="-985.1" font-family="Courier,monospace" font-size="11.00">AssetComponent</text>
</g>
<!-- \\Component -->
<g id="node85" class="node"><title>\\Component</title>
<ellipse fill="none" stroke="black" cx="640" cy="-342" rx="70.9184" ry="18.3848"/>
<text text-anchor="middle" x="640" y="-338.4" font-family="Times Roman,serif" font-size="14.00" fill="gray">\Component</text>
</g>
<!-- \\AssetComponent&#45;&gt;\\Component -->
<g id="edge35" class="edge"><title>\\AssetComponent&#45;&gt;\\Component</title>
<path fill="none" stroke="black" d="M877.342,-985.436C859.801,-981.802 841.915,-974.647 830,-961 655.683,-761.337 935.432,-565.899 758,-369 748.227,-358.155 735.069,-351.207 721.082,-346.841"/>
<polygon fill="none" stroke="black" points="721.864,-343.426 711.298,-344.214 720.049,-350.187 721.864,-343.426"/>
</g>
<!-- \\NetCommonsTimeComponent -->
<g id="node19" class="node"><title>\\NetCommonsTimeComponent</title>
<polygon fill="none" stroke="black" points="1019,-1168 847,-1168 847,-1132 1019,-1132 1019,-1168"/>
<text text-anchor="middle" x="933" y="-1147.1" font-family="Courier,monospace" font-size="11.00">NetCommonsTimeComponent</text>
</g>
<!-- \\NetCommonsTimeComponent&#45;&gt;\\Component -->
<g id="edge37" class="edge"><title>\\NetCommonsTimeComponent&#45;&gt;\\Component</title>
<path fill="none" stroke="black" d="M846.99,-1136.8C840.599,-1133.16 834.791,-1128.63 830,-1123 720.948,-994.787 869.053,-495.484 758,-369 748.311,-357.965 735.121,-350.943 721.061,-346.564"/>
<polygon fill="none" stroke="black" points="721.786,-343.135 711.222,-343.939 719.981,-349.899 721.786,-343.135"/>
</g>
<!-- \\PermissionComponent -->
<g id="node20" class="node"><title>\\PermissionComponent</title>
<polygon fill="none" stroke="black" points="1005,-1114 861,-1114 861,-1078 1005,-1078 1005,-1114"/>
<text text-anchor="middle" x="933" y="-1093.1" font-family="Courier,monospace" font-size="11.00">PermissionComponent</text>
</g>
<!-- \\PermissionComponent&#45;&gt;\\Component -->
<g id="edge39" class="edge"><title>\\PermissionComponent&#45;&gt;\\Component</title>
<path fill="none" stroke="black" d="M860.389,-1088.86C848.792,-1084.64 837.999,-1078.34 830,-1069 626.502,-831.507 965.204,-603.266 758,-369 748.271,-358.001 735.062,-350.994 720.998,-346.62"/>
<polygon fill="none" stroke="black" points="721.72,-343.191 711.156,-343.996 719.917,-349.955 721.72,-343.191"/>
</g>
<!-- \\NetCommonsComponent -->
<g id="node21" class="node"><title>\\NetCommonsComponent</title>
<polygon fill="none" stroke="black" points="1005,-1060 861,-1060 861,-1024 1005,-1024 1005,-1060"/>
<text text-anchor="middle" x="933" y="-1039.1" font-family="Courier,monospace" font-size="11.00">NetCommonsComponent</text>
</g>
<!-- \\NetCommonsComponent&#45;&gt;\\Component -->
<g id="edge41" class="edge"><title>\\NetCommonsComponent&#45;&gt;\\Component</title>
<path fill="none" stroke="black" d="M860.454,-1034.81C848.851,-1030.59 838.038,-1024.3 830,-1015 641.099,-796.429 950.312,-584.576 758,-369 748.225,-358.042 734.994,-351.054 720.924,-346.686"/>
<polygon fill="none" stroke="black" points="721.644,-343.256 711.08,-344.064 719.842,-350.02 721.644,-343.256"/>
</g>
<!-- \\NetCommonsController -->
<g id="node22" class="node"><title>\\NetCommonsController</title>
<polygon fill="none" stroke="black" points="1009,-1276 857,-1276 857,-1240 1009,-1240 1009,-1276"/>
<text text-anchor="middle" x="933" y="-1255.1" font-family="Courier,monospace" font-size="11.00">NetCommonsController</text>
</g>
<!-- \\NetCommonsController&#45;&gt;\\NetCommonsAppController -->
<g id="edge43" class="edge"><title>\\NetCommonsController&#45;&gt;\\NetCommonsAppController</title>
<path fill="none" stroke="black" d="M856.839,-1246.03C847.167,-1242.29 837.905,-1237.39 830,-1231 713.468,-1136.73 661.869,-952.495 645.826,-882.186"/>
<polygon fill="none" stroke="black" points="649.213,-881.292 643.632,-872.286 642.378,-882.807 649.213,-881.292"/>
</g>
<!-- \\NetCommonsUrl -->
<g id="node23" class="node"><title>\\NetCommonsUrl</title>
<polygon fill="none" stroke="black" points="985,-2356 881,-2356 881,-2320 985,-2320 985,-2356"/>
<text text-anchor="middle" x="933" y="-2335.1" font-family="Courier,monospace" font-size="11.00">NetCommonsUrl</text>
</g>
<!-- \\NetCommonsTime -->
<g id="node24" class="node"><title>\\NetCommonsTime</title>
<polygon fill="none" stroke="black" points="988,-2302 878,-2302 878,-2266 988,-2266 988,-2302"/>
<text text-anchor="middle" x="933" y="-2281.1" font-family="Courier,monospace" font-size="11.00">NetCommonsTime</text>
</g>
<!-- \\CurrentBase -->
<g id="node25" class="node"><title>\\CurrentBase</title>
<polygon fill="none" stroke="black" points="685,-2518 595,-2518 595,-2482 685,-2482 685,-2518"/>
<text text-anchor="middle" x="640" y="-2497.1" font-family="Courier,monospace" font-size="11.00">CurrentBase</text>
</g>
<!-- \\Current -->
<g id="node26" class="node"><title>\\Current</title>
<polygon fill="none" stroke="black" points="965,-2518 901,-2518 901,-2482 965,-2482 965,-2518"/>
<text text-anchor="middle" x="933" y="-2497.1" font-family="Courier,monospace" font-size="11.00">Current</text>
</g>
<!-- \\Current&#45;&gt;\\CurrentBase -->
<g id="edge45" class="edge"><title>\\Current&#45;&gt;\\CurrentBase</title>
<path fill="none" stroke="black" d="M900.806,-2500C851.48,-2500 756.554,-2500 695.846,-2500"/>
<polygon fill="none" stroke="black" points="695.669,-2496.5 685.669,-2500 695.669,-2503.5 695.669,-2496.5"/>
</g>
<!-- \\CurrentSystem -->
<g id="node27" class="node"><title>\\CurrentSystem</title>
<polygon fill="none" stroke="black" points="985,-2194 881,-2194 881,-2158 985,-2158 985,-2194"/>
<text text-anchor="middle" x="933" y="-2173.1" font-family="Courier,monospace" font-size="11.00">CurrentSystem</text>
</g>
<!-- \\CurrentPage -->
<g id="node28" class="node"><title>\\CurrentPage</title>
<polygon fill="none" stroke="black" points="978,-2140 888,-2140 888,-2104 978,-2104 978,-2140"/>
<text text-anchor="middle" x="933" y="-2119.1" font-family="Courier,monospace" font-size="11.00">CurrentPage</text>
</g>
<!-- \\CurrentFrame -->
<g id="node29" class="node"><title>\\CurrentFrame</title>
<polygon fill="none" stroke="black" points="982,-2086 884,-2086 884,-2050 982,-2050 982,-2086"/>
<text text-anchor="middle" x="933" y="-2065.1" font-family="Courier,monospace" font-size="11.00">CurrentFrame</text>
</g>
<!-- \\TokenHelper -->
<g id="node30" class="node"><title>\\TokenHelper</title>
<polygon fill="none" stroke="black" points="978,-952 888,-952 888,-916 978,-916 978,-952"/>
<text text-anchor="middle" x="933" y="-931.1" font-family="Courier,monospace" font-size="11.00">TokenHelper</text>
</g>
<!-- \\FormHelper -->
<g id="node92" class="node"><title>\\FormHelper</title>
<ellipse fill="none" stroke="black" cx="640" cy="-288" rx="70.9184" ry="18.3848"/>
<text text-anchor="middle" x="640" y="-284.4" font-family="Times Roman,serif" font-size="14.00" fill="gray">\FormHelper</text>
</g>
<!-- \\TokenHelper&#45;&gt;\\FormHelper -->
<g id="edge47" class="edge"><title>\\TokenHelper&#45;&gt;\\FormHelper</title>
<path fill="none" stroke="black" d="M887.459,-933.174C866.962,-930.333 844.225,-923.293 830,-907 655.683,-707.337 935.432,-511.899 758,-315 748.227,-304.155 735.069,-297.207 721.082,-292.841"/>
<polygon fill="none" stroke="black" points="721.864,-289.426 711.298,-290.214 720.049,-296.187 721.864,-289.426"/>
</g>
<!-- \\SingletonViewBlockHtmlHelper -->
<g id="node31" class="node"><title>\\SingletonViewBlockHtmlHelper</title>
<polygon fill="none" stroke="black" points="1036,-790 830,-790 830,-754 1036,-754 1036,-790"/>
<text text-anchor="middle" x="933" y="-769.1" font-family="Courier,monospace" font-size="11.00">SingletonViewBlockHtmlHelper</text>
</g>
<!-- \\HtmlHelper -->
<g id="node94" class="node"><title>\\HtmlHelper</title>
<ellipse fill="none" stroke="black" cx="640" cy="-234" rx="67.1751" ry="18.3848"/>
<text text-anchor="middle" x="640" y="-230.4" font-family="Times Roman,serif" font-size="14.00" fill="gray">HtmlHelper</text>
</g>
<!-- \\SingletonViewBlockHtmlHelper&#45;&gt;\\HtmlHelper -->
<g id="edge49" class="edge"><title>\\SingletonViewBlockHtmlHelper&#45;&gt;\\HtmlHelper</title>
<path fill="none" stroke="black" d="M839.844,-753.806C836.274,-751.224 832.962,-748.303 830,-745 684.8,-583.094 905.726,-420.605 758,-261 747.227,-249.36 732.55,-242.237 717.208,-237.979"/>
<polygon fill="none" stroke="black" points="717.602,-234.475 707.065,-235.575 715.988,-241.287 717.602,-234.475"/>
</g>
<!-- \\FormInputHelper -->
<g id="node32" class="node"><title>\\FormInputHelper</title>
<polygon fill="none" stroke="black" points="992,-2248 874,-2248 874,-2212 992,-2212 992,-2248"/>
<text text-anchor="middle" x="933" y="-2227.1" font-family="Courier,monospace" font-size="11.00">FormInputHelper</text>
</g>
<!-- \\FormInputHelper&#45;&gt;\\AppHelper -->
<g id="edge51" class="edge"><title>\\FormInputHelper&#45;&gt;\\AppHelper</title>
<path fill="none" stroke="black" d="M873.988,-2224.56C858.174,-2220.6 842.123,-2213.99 830,-2203 680.846,-2067.84 648.432,-1804.87 641.693,-1718.35"/>
<polygon fill="none" stroke="black" points="645.174,-1717.96 640.962,-1708.24 638.192,-1718.47 645.174,-1717.96"/>
</g>
<!-- \\WizardHelper -->
<g id="node33" class="node"><title>\\WizardHelper</title>
<polygon fill="none" stroke="black" points="982,-2032 884,-2032 884,-1996 982,-1996 982,-2032"/>
<text text-anchor="middle" x="933" y="-2011.1" font-family="Courier,monospace" font-size="11.00">WizardHelper</text>
</g>
<!-- \\WizardHelper&#45;&gt;\\AppHelper -->
<g id="edge53" class="edge"><title>\\WizardHelper&#45;&gt;\\AppHelper</title>
<path fill="none" stroke="black" d="M883.889,-2008.77C865.651,-2004.95 845.621,-1998.37 830,-1987 779.522,-1950.27 688.866,-1783.53 654.1,-1717.27"/>
<polygon fill="none" stroke="black" points="657.121,-1715.49 649.388,-1708.25 650.916,-1718.73 657.121,-1715.49"/>
</g>
<!-- \\DisplayNumberHelper -->
<g id="node34" class="node"><title>\\DisplayNumberHelper</title>
<polygon fill="none" stroke="black" points="1005,-1978 861,-1978 861,-1942 1005,-1942 1005,-1978"/>
<text text-anchor="middle" x="933" y="-1957.1" font-family="Courier,monospace" font-size="11.00">DisplayNumberHelper</text>
</g>
<!-- \\DisplayNumberHelper&#45;&gt;\\AppHelper -->
<g id="edge55" class="edge"><title>\\DisplayNumberHelper&#45;&gt;\\AppHelper</title>
<path fill="none" stroke="black" d="M860.349,-1947.38C849.672,-1943.74 839.19,-1939.04 830,-1933 744.042,-1876.46 680.094,-1767.93 653.531,-1717.28"/>
<polygon fill="none" stroke="black" points="656.562,-1715.52 648.865,-1708.24 650.341,-1718.73 656.562,-1715.52"/>
</g>
<!-- \\MessageFlashHelper -->
<g id="node35" class="node"><title>\\MessageFlashHelper</title>
<polygon fill="none" stroke="black" points="1002,-1924 864,-1924 864,-1888 1002,-1888 1002,-1924"/>
<text text-anchor="middle" x="933" y="-1903.1" font-family="Courier,monospace" font-size="11.00">MessageFlashHelper</text>
</g>
<!-- \\MessageFlashHelper&#45;&gt;\\AppHelper -->
<g id="edge57" class="edge"><title>\\MessageFlashHelper&#45;&gt;\\AppHelper</title>
<path fill="none" stroke="black" d="M863.967,-1893.3C852.204,-1889.64 840.43,-1884.97 830,-1879 755.721,-1836.51 690.104,-1757.52 659.041,-1716.41"/>
<polygon fill="none" stroke="black" points="661.73,-1714.16 652.946,-1708.24 656.119,-1718.35 661.73,-1714.16"/>
</g>
<!-- \\DateHelper -->
<g id="node36" class="node"><title>\\DateHelper</title>
<polygon fill="none" stroke="black" points="975,-1870 891,-1870 891,-1834 975,-1834 975,-1870"/>
<text text-anchor="middle" x="933" y="-1849.1" font-family="Courier,monospace" font-size="11.00">DateHelper</text>
</g>
<!-- \\DateHelper&#45;&gt;\\AppHelper -->
<g id="edge59" class="edge"><title>\\DateHelper&#45;&gt;\\AppHelper</title>
<path fill="none" stroke="black" d="M890.959,-1844.58C871.804,-1840.31 849.177,-1833.96 830,-1825 767.211,-1795.67 703.394,-1745.16 668.029,-1714.94"/>
<polygon fill="none" stroke="black" points="669.944,-1711.97 660.087,-1708.08 665.369,-1717.26 669.944,-1711.97"/>
</g>
<!-- \\SnsButtonHelper -->
<g id="node37" class="node"><title>\\SnsButtonHelper</title>
<polygon fill="none" stroke="black" points="992,-1816 874,-1816 874,-1780 992,-1780 992,-1816"/>
<text text-anchor="middle" x="933" y="-1795.1" font-family="Courier,monospace" font-size="11.00">SnsButtonHelper</text>
</g>
<!-- \\SnsButtonHelper&#45;&gt;\\AppHelper -->
<g id="edge61" class="edge"><title>\\SnsButtonHelper&#45;&gt;\\AppHelper</title>
<path fill="none" stroke="black" d="M873.73,-1784.05C859.298,-1780.22 843.992,-1775.79 830,-1771 780.27,-1753.98 725.199,-1729.9 687.206,-1712.42"/>
<polygon fill="none" stroke="black" points="688.474,-1709.15 677.929,-1708.12 685.534,-1715.5 688.474,-1709.15"/>
</g>
<!-- \\BackToHelper -->
<g id="node38" class="node"><title>\\BackToHelper</title>
<polygon fill="none" stroke="black" points="982,-1762 884,-1762 884,-1726 982,-1726 982,-1762"/>
<text text-anchor="middle" x="933" y="-1741.1" font-family="Courier,monospace" font-size="11.00">BackToHelper</text>
</g>
<!-- \\BackToHelper&#45;&gt;\\AppHelper -->
<g id="edge63" class="edge"><title>\\BackToHelper&#45;&gt;\\AppHelper</title>
<path fill="none" stroke="black" d="M883.958,-1734.96C829.78,-1724.98 743.056,-1708.99 688.925,-1699.02"/>
<polygon fill="none" stroke="black" points="689.351,-1695.54 678.882,-1697.17 688.082,-1702.42 689.351,-1695.54"/>
</g>
<!-- \\NetCommonsHtmlHelper -->
<g id="node39" class="node"><title>\\NetCommonsHtmlHelper</title>
<polygon fill="none" stroke="black" points="1009,-1708 857,-1708 857,-1672 1009,-1672 1009,-1708"/>
<text text-anchor="middle" x="933" y="-1687.1" font-family="Courier,monospace" font-size="11.00">NetCommonsHtmlHelper</text>
</g>
<!-- \\NetCommonsHtmlHelper&#45;&gt;\\AppHelper -->
<g id="edge65" class="edge"><title>\\NetCommonsHtmlHelper&#45;&gt;\\AppHelper</title>
<path fill="none" stroke="black" d="M856.783,-1690C803.77,-1690 734.667,-1690 688.892,-1690"/>
<polygon fill="none" stroke="black" points="688.638,-1686.5 678.638,-1690 688.638,-1693.5 688.638,-1686.5"/>
</g>
<!-- \\ButtonHelper -->
<g id="node40" class="node"><title>\\ButtonHelper</title>
<polygon fill="none" stroke="black" points="982,-898 884,-898 884,-862 982,-862 982,-898"/>
<text text-anchor="middle" x="933" y="-877.1" font-family="Courier,monospace" font-size="11.00">ButtonHelper</text>
</g>
<!-- \\ButtonHelper&#45;&gt;\\FormHelper -->
<g id="edge67" class="edge"><title>\\ButtonHelper&#45;&gt;\\FormHelper</title>
<path fill="none" stroke="black" d="M883.847,-878.539C864.376,-875.365 843.465,-868.238 830,-853 670.252,-672.227 920.569,-493.24 758,-315 748.162,-304.213 734.974,-297.293 720.979,-292.934"/>
<polygon fill="none" stroke="black" points="721.757,-289.519 711.192,-290.31 719.944,-296.281 721.757,-289.519"/>
</g>
<!-- \\ComposerHelper -->
<g id="node41" class="node"><title>\\ComposerHelper</title>
<polygon fill="none" stroke="black" points="988,-1654 878,-1654 878,-1618 988,-1618 988,-1654"/>
<text text-anchor="middle" x="933" y="-1633.1" font-family="Courier,monospace" font-size="11.00">ComposerHelper</text>
</g>
<!-- \\ComposerHelper&#45;&gt;\\AppHelper -->
<g id="edge69" class="edge"><title>\\ComposerHelper&#45;&gt;\\AppHelper</title>
<path fill="none" stroke="black" d="M877.199,-1646.28C822.718,-1656.32 740.647,-1671.45 688.725,-1681.02"/>
<polygon fill="none" stroke="black" points="687.959,-1677.6 678.759,-1682.86 689.228,-1684.49 687.959,-1677.6"/>
</g>
<!-- \\LinkButtonHelper -->
<g id="node42" class="node"><title>\\LinkButtonHelper</title>
<polygon fill="none" stroke="black" points="995,-844 871,-844 871,-808 995,-808 995,-844"/>
<text text-anchor="middle" x="933" y="-823.1" font-family="Courier,monospace" font-size="11.00">LinkButtonHelper</text>
</g>
<!-- \\LinkButtonHelper&#45;&gt;\\FormHelper -->
<g id="edge71" class="edge"><title>\\LinkButtonHelper&#45;&gt;\\FormHelper</title>
<path fill="none" stroke="black" d="M870.3,-821.541C855.196,-817.523 840.429,-810.629 830,-799 684.8,-637.094 905.726,-474.605 758,-315 748.083,-304.286 734.859,-297.398 720.853,-293.049"/>
<polygon fill="none" stroke="black" points="721.628,-289.634 711.063,-290.429 719.818,-296.396 721.628,-289.634"/>
</g>
<!-- \\TableListHelper -->
<g id="node43" class="node"><title>\\TableListHelper</title>
<polygon fill="none" stroke="black" points="992,-1600 874,-1600 874,-1564 992,-1564 992,-1600"/>
<text text-anchor="middle" x="933" y="-1579.1" font-family="Courier,monospace" font-size="11.00">TableListHelper</text>
</g>
<!-- \\TableListHelper&#45;&gt;\\AppHelper -->
<g id="edge73" class="edge"><title>\\TableListHelper&#45;&gt;\\AppHelper</title>
<path fill="none" stroke="black" d="M873.73,-1595.95C859.298,-1599.78 843.992,-1604.21 830,-1609 780.27,-1626.02 725.199,-1650.1 687.206,-1667.58"/>
<polygon fill="none" stroke="black" points="685.534,-1664.5 677.929,-1671.88 688.474,-1670.85 685.534,-1664.5"/>
</g>
<!-- \\NetCommonsTimeHelper -->
<g id="node44" class="node"><title>\\NetCommonsTimeHelper</title>
<polygon fill="none" stroke="black" points="1009,-1546 857,-1546 857,-1510 1009,-1510 1009,-1546"/>
<text text-anchor="middle" x="933" y="-1525.1" font-family="Courier,monospace" font-size="11.00">NetCommonsTimeHelper</text>
</g>
<!-- \\NetCommonsTimeHelper&#45;&gt;\\AppHelper -->
<g id="edge75" class="edge"><title>\\NetCommonsTimeHelper&#45;&gt;\\AppHelper</title>
<path fill="none" stroke="black" d="M856.793,-1544.62C847.587,-1547.61 838.458,-1551.05 830,-1555 767.211,-1584.33 703.394,-1634.84 668.029,-1665.06"/>
<polygon fill="none" stroke="black" points="665.369,-1662.74 660.087,-1671.92 669.944,-1668.03 665.369,-1662.74"/>
</g>
<!-- \\NetCommonsFormHelper -->
<g id="node45" class="node"><title>\\NetCommonsFormHelper</title>
<polygon fill="none" stroke="black" points="1009,-1492 857,-1492 857,-1456 1009,-1456 1009,-1492"/>
<text text-anchor="middle" x="933" y="-1471.1" font-family="Courier,monospace" font-size="11.00">NetCommonsFormHelper</text>
</g>
<!-- \\NetCommonsFormHelper&#45;&gt;\\AppHelper -->
<g id="edge77" class="edge"><title>\\NetCommonsFormHelper&#45;&gt;\\AppHelper</title>
<path fill="none" stroke="black" d="M856.919,-1489.02C847.548,-1492.28 838.344,-1496.23 830,-1501 755.721,-1543.49 690.104,-1622.48 659.041,-1663.59"/>
<polygon fill="none" stroke="black" points="656.119,-1661.65 652.946,-1671.76 661.73,-1665.84 656.119,-1661.65"/>
</g>
<!-- \\TitleIconHelper -->
<g id="node46" class="node"><title>\\TitleIconHelper</title>
<polygon fill="none" stroke="black" points="992,-1438 874,-1438 874,-1402 992,-1402 992,-1438"/>
<text text-anchor="middle" x="933" y="-1417.1" font-family="Courier,monospace" font-size="11.00">TitleIconHelper</text>
</g>
<!-- \\TitleIconHelper&#45;&gt;\\AppHelper -->
<g id="edge79" class="edge"><title>\\TitleIconHelper&#45;&gt;\\AppHelper</title>
<path fill="none" stroke="black" d="M873.829,-1428.56C858.708,-1432.56 843.051,-1438.42 830,-1447 744.042,-1503.54 680.094,-1612.07 653.531,-1662.72"/>
<polygon fill="none" stroke="black" points="650.341,-1661.27 648.865,-1671.76 656.562,-1664.48 650.341,-1661.27"/>
</g>
<!-- \\DatetimePickerHelper -->
<g id="node47" class="node"><title>\\DatetimePickerHelper</title>
<polygon fill="none" stroke="black" points="1009,-1384 857,-1384 857,-1348 1009,-1348 1009,-1384"/>
<text text-anchor="middle" x="933" y="-1363.1" font-family="Courier,monospace" font-size="11.00">DatetimePickerHelper</text>
</g>
<!-- \\DatetimePickerHelper&#45;&gt;\\AppHelper -->
<g id="edge81" class="edge"><title>\\DatetimePickerHelper&#45;&gt;\\AppHelper</title>
<path fill="none" stroke="black" d="M856.893,-1378.93C847.321,-1382.53 838.072,-1387.13 830,-1393 779.522,-1429.73 688.866,-1596.47 654.1,-1662.73"/>
<polygon fill="none" stroke="black" points="650.916,-1661.27 649.388,-1671.75 657.121,-1664.51 650.916,-1661.27"/>
</g>
<!-- \\Model -->
<g id="node112" class="node"><title>\\Model</title>
<ellipse fill="none" stroke="black" cx="82" cy="-2662" rx="43.8406" ry="18.3848"/>
<text text-anchor="middle" x="82" y="-2658.4" font-family="Times Roman,serif" font-size="14.00" fill="gray">\Model</text>
</g>
<!-- \\NetCommonsAppModel&#45;&gt;\\Model -->
<g id="edge83" class="edge"><title>\\NetCommonsAppModel&#45;&gt;\\Model</title>
<path fill="none" stroke="black" d="M273.742,-2662C230.675,-2662 176.099,-2662 136.195,-2662"/>
<polygon fill="none" stroke="black" points="136.125,-2658.5 126.125,-2662 136.125,-2665.5 136.125,-2658.5"/>
</g>
<!-- \\OriginalKeyBehavior -->
<g id="node49" class="node"><title>\\OriginalKeyBehavior</title>
<polygon fill="none" stroke="black" points="1005,-736 861,-736 861,-700 1005,-700 1005,-736"/>
<text text-anchor="middle" x="933" y="-715.1" font-family="Courier,monospace" font-size="11.00">OriginalKeyBehavior</text>
</g>
<!-- \\ModelBehavior -->
<g id="node114" class="node"><title>\\ModelBehavior</title>
<ellipse fill="none" stroke="black" cx="640" cy="-180" rx="86.9741" ry="18.3848"/>
<text text-anchor="middle" x="640" y="-176.4" font-family="Times Roman,serif" font-size="14.00" fill="gray">\ModelBehavior</text>
</g>
<!-- \\OriginalKeyBehavior&#45;&gt;\\ModelBehavior -->
<g id="edge85" class="edge"><title>\\OriginalKeyBehavior&#45;&gt;\\ModelBehavior</title>
<path fill="none" stroke="black" d="M860.47,-710.469C848.938,-706.277 838.146,-700.083 830,-691 684.8,-529.094 905.726,-366.605 758,-207 750.86,-199.286 742.006,-193.556 732.38,-189.328"/>
<polygon fill="none" stroke="black" points="733.536,-186.023 722.945,-185.72 731.035,-192.561 733.536,-186.023"/>
</g>
<!-- \\TrackableBehavior -->
<g id="node50" class="node"><title>\\TrackableBehavior</title>
<polygon fill="none" stroke="black" points="998,-682 868,-682 868,-646 998,-646 998,-682"/>
<text text-anchor="middle" x="933" y="-661.1" font-family="Courier,monospace" font-size="11.00">TrackableBehavior</text>
</g>
<!-- \\TrackableBehavior&#45;&gt;\\ModelBehavior -->
<g id="edge87" class="edge"><title>\\TrackableBehavior&#45;&gt;\\ModelBehavior</title>
<path fill="none" stroke="black" d="M867.497,-658.591C853.428,-654.482 839.849,-647.783 830,-637 699.318,-493.927 890.914,-348.002 758,-207 750.736,-199.293 741.758,-193.575 732.025,-189.36"/>
<polygon fill="none" stroke="black" points="733.083,-186.019 722.491,-185.764 730.613,-192.568 733.083,-186.019"/>
</g>
<!-- \\YAExceptionRenderer -->
<g id="node51" class="node"><title>\\YAExceptionRenderer</title>
<polygon fill="none" stroke="black" points="1005,-628 861,-628 861,-592 1005,-592 1005,-628"/>
<text text-anchor="middle" x="933" y="-607.1" font-family="Courier,monospace" font-size="11.00">YAExceptionRenderer</text>
</g>
<!-- \\ExceptionRenderer -->
<g id="node117" class="node"><title>\\ExceptionRenderer</title>
<ellipse fill="none" stroke="black" cx="640" cy="-126" rx="118.087" ry="18.3848"/>
<text text-anchor="middle" x="640" y="-122.4" font-family="Times Roman,serif" font-size="14.00" fill="gray">TEHxceptionRenderer</text>
</g>
<!-- \\YAExceptionRenderer&#45;&gt;\\ExceptionRenderer -->
<g id="edge89" class="edge"><title>\\YAExceptionRenderer&#45;&gt;\\ExceptionRenderer</title>
<path fill="none" stroke="black" d="M860.344,-602.25C848.896,-598.073 838.166,-591.94 830,-583 699.318,-439.927 890.914,-294.002 758,-153 753.844,-148.591 749.128,-144.833 744.031,-141.635"/>
<polygon fill="none" stroke="black" points="745.577,-138.492 735.123,-136.766 742.219,-144.634 745.577,-138.492"/>
</g>
<!-- \\NetCommonsMigration -->
<g id="node52" class="node"><title>\\NetCommonsMigration</title>
<polygon fill="none" stroke="black" points="1005,-574 861,-574 861,-538 1005,-538 1005,-574"/>
<text text-anchor="middle" x="933" y="-553.1" font-family="Courier,monospace" font-size="11.00">NetCommonsMigration</text>
</g>
<!-- \\CakeMigration -->
<g id="node119" class="node"><title>\\CakeMigration</title>
<ellipse fill="none" stroke="black" cx="640" cy="-72" rx="84.8528" ry="18.3848"/>
<text text-anchor="middle" x="640" y="-68.4" font-family="Times Roman,serif" font-size="14.00" fill="gray">\CakeMigration</text>
</g>
<!-- \\NetCommonsMigration&#45;&gt;\\CakeMigration -->
<g id="edge91" class="edge"><title>\\NetCommonsMigration&#45;&gt;\\CakeMigration</title>
<path fill="none" stroke="black" d="M860.344,-548.25C848.896,-544.073 838.166,-537.94 830,-529 699.318,-385.927 890.914,-240.002 758,-99 750.44,-90.9799 741.025,-85.1126 730.833,-80.8528"/>
<polygon fill="none" stroke="black" points="731.879,-77.5089 721.284,-77.377 729.484,-84.0866 731.879,-77.5089"/>
</g>
<!-- \\TopicFrameSettingsController -->
<g id="node53" class="node"><title>\\TopicFrameSettingsController</title>
<polygon fill="none" stroke="black" points="1036,-2464 830,-2464 830,-2428 1036,-2428 1036,-2464"/>
<text text-anchor="middle" x="933" y="-2443.1" font-family="Courier,monospace" font-size="11.00">TopicFrameSettingsController</text>
</g>
<!-- \\TopicsAppController -->
<g id="node56" class="node"><title>\\TopicsAppController</title>
<polygon fill="none" stroke="black" points="712,-2437 568,-2437 568,-2401 712,-2401 712,-2437"/>
<text text-anchor="middle" x="640" y="-2416.1" font-family="Courier,monospace" font-size="11.00">TopicsAppController</text>
</g>
<!-- \\TopicFrameSettingsController&#45;&gt;\\TopicsAppController -->
<g id="edge93" class="edge"><title>\\TopicFrameSettingsController&#45;&gt;\\TopicsAppController</title>
<path fill="none" stroke="black" d="M829.699,-2436.48C794.76,-2433.26 756.221,-2429.71 723.057,-2426.65"/>
<polygon fill="none" stroke="black" points="723.227,-2423.15 712.948,-2425.72 722.584,-2430.13 723.227,-2423.15"/>
</g>
<!-- \\TopicsController -->
<g id="node54" class="node"><title>\\TopicsController</title>
<polygon fill="none" stroke="black" points="995,-2410 871,-2410 871,-2374 995,-2374 995,-2410"/>
<text text-anchor="middle" x="933" y="-2389.1" font-family="Courier,monospace" font-size="11.00">TopicsController</text>
</g>
<!-- \\TopicsController&#45;&gt;\\TopicsAppController -->
<g id="edge95" class="edge"><title>\\TopicsController&#45;&gt;\\TopicsAppController</title>
<path fill="none" stroke="black" d="M870.144,-2397.79C827.064,-2401.76 769.471,-2407.07 722.677,-2411.38"/>
<polygon fill="none" stroke="black" points="722.197,-2407.91 712.561,-2412.31 722.84,-2414.88 722.197,-2407.91"/>
</g>
<!-- \\TopicSelectedRoomsController -->
<g id="node55" class="node"><title>\\TopicSelectedRoomsController</title>
<polygon fill="none" stroke="black" points="743,-2572 537,-2572 537,-2536 743,-2536 743,-2572"/>
<text text-anchor="middle" x="640" y="-2551.1" font-family="Courier,monospace" font-size="11.00">TopicSelectedRoomsController</text>
</g>
<!-- \\TopicSelectedRoomsController&#45;&gt;\\AppController -->
<g id="edge97" class="edge"><title>\\TopicSelectedRoomsController&#45;&gt;\\AppController</title>
<path fill="none" stroke="black" d="M547.957,-2535.97C539.065,-2533.32 530.281,-2530.35 522,-2527 467.399,-2504.94 410.106,-2467.46 375.467,-2442.97"/>
<polygon fill="none" stroke="black" points="377.336,-2440 367.164,-2437.04 373.267,-2445.7 377.336,-2440"/>
</g>
<!-- \\TopicsAppController&#45;&gt;\\AppController -->
<g id="edge99" class="edge"><title>\\TopicsAppController&#45;&gt;\\AppController</title>
<path fill="none" stroke="black" d="M567.346,-2419C517.748,-2419 452.721,-2419 405.452,-2419"/>
<polygon fill="none" stroke="black" points="405.347,-2415.5 395.347,-2419 405.347,-2422.5 405.347,-2415.5"/>
</g>
<!-- \\Topic -->
<g id="node57" class="node"><title>\\Topic</title>
<polygon fill="none" stroke="black" points="960,-2572 906,-2572 906,-2536 960,-2536 960,-2572"/>
<text text-anchor="middle" x="933" y="-2551.1" font-family="Courier,monospace" font-size="11.00">Topic</text>
</g>
<!-- \\Topic&#45;&gt;\\AppModel -->
<g id="edge101" class="edge"><title>\\Topic&#45;&gt;\\AppModel</title>
<path fill="none" stroke="black" d="M905.568,-2560.03C884.628,-2564.92 855.186,-2572.38 830,-2581 779.331,-2598.34 723.119,-2623.01 685.074,-2640.56"/>
<polygon fill="none" stroke="black" points="683.405,-2637.48 675.807,-2644.86 686.352,-2643.83 683.405,-2637.48"/>
</g>
<!-- \\TopicSelectedRoom -->
<g id="node58" class="node"><title>\\TopicSelectedRoom</title>
<polygon fill="none" stroke="black" points="998,-2788 868,-2788 868,-2752 998,-2752 998,-2788"/>
<text text-anchor="middle" x="933" y="-2767.1" font-family="Courier,monospace" font-size="11.00">TopicSelectedRoom</text>
</g>
<!-- \\TopicSelectedRoom&#45;&gt;\\AppModel -->
<g id="edge103" class="edge"><title>\\TopicSelectedRoom&#45;&gt;\\AppModel</title>
<path fill="none" stroke="black" d="M867.459,-2754.36C854.925,-2750.94 841.981,-2747.1 830,-2743 779.331,-2725.66 723.119,-2700.99 685.074,-2683.44"/>
<polygon fill="none" stroke="black" points="686.352,-2680.17 675.807,-2679.14 683.405,-2686.52 686.352,-2680.17"/>
</g>
<!-- \\TopicFrameSetting -->
<g id="node59" class="node"><title>\\TopicFrameSetting</title>
<polygon fill="none" stroke="black" points="998,-2734 868,-2734 868,-2698 998,-2698 998,-2734"/>
<text text-anchor="middle" x="933" y="-2713.1" font-family="Courier,monospace" font-size="11.00">TopicFrameSetting</text>
</g>
<!-- \\TopicFrameSetting&#45;&gt;\\AppModel -->
<g id="edge105" class="edge"><title>\\TopicFrameSetting&#45;&gt;\\AppModel</title>
<path fill="none" stroke="black" d="M867.245,-2703.88C811.956,-2693.69 734.353,-2679.39 685.647,-2670.41"/>
<polygon fill="none" stroke="black" points="686.18,-2666.95 675.711,-2668.58 684.911,-2673.84 686.18,-2666.95"/>
</g>
<!-- \\TopicFrameSettingShowPlugin -->
<g id="node60" class="node"><title>\\TopicFrameSettingShowPlugin</title>
<polygon fill="none" stroke="black" points="1032,-2680 834,-2680 834,-2644 1032,-2644 1032,-2680"/>
<text text-anchor="middle" x="933" y="-2659.1" font-family="Courier,monospace" font-size="11.00">TopicFrameSettingShowPlugin</text>
</g>
<!-- \\TopicFrameSettingShowPlugin&#45;&gt;\\AppModel -->
<g id="edge107" class="edge"><title>\\TopicFrameSettingShowPlugin&#45;&gt;\\AppModel</title>
<path fill="none" stroke="black" d="M833.395,-2662C783.291,-2662 725.006,-2662 685.625,-2662"/>
<polygon fill="none" stroke="black" points="685.539,-2658.5 675.539,-2662 685.539,-2665.5 685.539,-2658.5"/>
</g>
<!-- \\TopicSchema -->
<g id="node61" class="node"><title>\\TopicSchema</title>
<polygon fill="none" stroke="black" points="978,-466 888,-466 888,-430 978,-430 978,-466"/>
<text text-anchor="middle" x="933" y="-445.1" font-family="Courier,monospace" font-size="11.00">TopicSchema</text>
</g>
<!-- \\CakeSchema -->
<g id="node129" class="node"><title>\\CakeSchema</title>
<ellipse fill="none" stroke="black" cx="640" cy="-18" rx="77.0746" ry="18.3848"/>
<text text-anchor="middle" x="640" y="-14.4" font-family="Times Roman,serif" font-size="14.00" fill="gray">\CakeSchema</text>
</g>
<!-- \\TopicSchema&#45;&gt;\\CakeSchema -->
<g id="edge109" class="edge"><title>\\TopicSchema&#45;&gt;\\CakeSchema</title>
<path fill="none" stroke="black" d="M930.861,-429.713C922.367,-365.789 885.044,-150.503 758,-45 747.886,-36.6012 735.67,-30.6949 722.982,-26.5644"/>
<polygon fill="none" stroke="black" points="723.793,-23.1556 713.214,-23.74 721.848,-29.8801 723.793,-23.1556"/>
</g>
<!-- \\Init -->
<g id="node62" class="node"><title>\\Init</title>
<polygon fill="none" stroke="black" points="960,-520 906,-520 906,-484 960,-484 960,-520"/>
<text text-anchor="middle" x="933" y="-499.1" font-family="Courier,monospace" font-size="11.00">Init</text>
</g>
<!-- \\Init&#45;&gt;\\CakeMigration -->
<g id="edge111" class="edge"><title>\\Init&#45;&gt;\\CakeMigration</title>
<path fill="none" stroke="black" d="M905.777,-502.438C882.335,-501.269 849.317,-495.66 830,-475 713.795,-350.716 876.143,-221.443 758,-99 750.347,-91.0685 740.877,-85.2535 730.656,-81.0209"/>
<polygon fill="none" stroke="black" points="731.684,-77.6706 721.089,-77.5632 729.304,-84.2538 731.684,-77.6706"/>
</g>
</g>
</svg>
