<?xml version="1.0" encoding="UTF-8" standalone="no"?>
<!DOCTYPE svg PUBLIC "-//W3C//DTD SVG 1.1//EN"
 "http://www.w3.org/Graphics/SVG/1.1/DTD/svg11.dtd">
<!-- Generated by graphviz version 2.26.3 (20100126.1600)
 -->
<!-- Title: G Pages: 1 -->
<svg width="1060pt" height="2618pt"
 viewBox="0.00 0.00 1060.00 2618.00" xmlns="http://www.w3.org/2000/svg" xmlns:xlink="http://www.w3.org/1999/xlink">
<g id="graph1" class="graph" transform="scale(1 1) rotate(0) translate(4 2614)">
<title>G</title>
<polygon fill="white" stroke="white" points="-4,5 -4,-2614 1057,-2614 1057,5 -4,5"/>
<g id="graph2" class="cluster"><title>cluster_Global</title>
<polyline fill="none" stroke="gray" points="264,-368 1032,-368 "/>
<path fill="none" stroke="gray" d="M1032,-368C1038,-368 1044,-374 1044,-380"/>
<polyline fill="none" stroke="gray" points="1044,-380 1044,-2590 "/>
<path fill="none" stroke="gray" d="M1044,-2590C1044,-2596 1038,-2602 1032,-2602"/>
<polyline fill="none" stroke="gray" points="1032,-2602 264,-2602 "/>
<path fill="none" stroke="gray" d="M264,-2602C258,-2602 252,-2596 252,-2590"/>
<polyline fill="none" stroke="gray" points="252,-2590 252,-380 "/>
<path fill="none" stroke="gray" d="M252,-380C252,-374 258,-368 264,-368"/>
<text text-anchor="middle" x="648" y="-2588.1" font-family="Times Roman,serif" font-size="11.00" fill="gray">Global</text>
</g>
<!-- \\AppController -->
<g id="node2" class="node"><title>\\AppController</title>
<polygon fill="none" stroke="black" points="395,-1358 291,-1358 291,-1322 395,-1322 395,-1358"/>
<text text-anchor="middle" x="343" y="-1337.1" font-family="Courier,monospace" font-size="11.00">AppController</text>
</g>
<!-- \\Controller -->
<g id="node56" class="node"><title>\\Controller</title>
<ellipse fill="none" stroke="black" cx="82" cy="-805" rx="63.1385" ry="18.3848"/>
<text text-anchor="middle" x="82" y="-801.4" font-family="Times Roman,serif" font-size="14.00" fill="gray">\Controller</text>
</g>
<!-- \\AppController&#45;&gt;\\Controller -->
<g id="edge3" class="edge"><title>\\AppController&#45;&gt;\\Controller</title>
<path fill="none" stroke="black" d="M290.845,-1340.13C271.529,-1337.62 250.762,-1331.51 236,-1318 161.77,-1250.09 102.999,-930.458 86.5886,-833.169"/>
<polygon fill="none" stroke="black" points="90.0217,-832.477 84.9231,-823.19 83.1172,-833.629 90.0217,-832.477"/>
</g>
<!-- \\AppModel -->
<g id="node3" class="node"><title>\\AppModel</title>
<polygon fill="none" stroke="black" points="675,-2329 605,-2329 605,-2293 675,-2293 675,-2329"/>
<text text-anchor="middle" x="640" y="-2308.1" font-family="Courier,monospace" font-size="11.00">AppModel</text>
</g>
<!-- \\NetCommonsAppModel -->
<g id="node47" class="node"><title>\\NetCommonsAppModel</title>
<polygon fill="none" stroke="black" points="412,-2329 274,-2329 274,-2293 412,-2293 412,-2329"/>
<text text-anchor="middle" x="343" y="-2308.1" font-family="Courier,monospace" font-size="11.00">NetCommonsAppModel</text>
</g>
<!-- \\AppModel&#45;&gt;\\NetCommonsAppModel -->
<g id="edge5" class="edge"><title>\\AppModel&#45;&gt;\\NetCommonsAppModel</title>
<path fill="none" stroke="black" d="M604.47,-2311C559.713,-2311 481.497,-2311 422.241,-2311"/>
<polygon fill="none" stroke="black" points="422.157,-2307.5 412.157,-2311 422.157,-2314.5 422.157,-2307.5"/>
</g>
<!-- \\DatabaseConfiguration -->
<g id="node4" class="node"><title>\\DatabaseConfiguration</title>
<polygon fill="none" stroke="black" points="1012,-2302 854,-2302 854,-2266 1012,-2266 1012,-2302"/>
<text text-anchor="middle" x="933" y="-2281.1" font-family="Courier,monospace" font-size="11.00">DatabaseConfiguration</text>
</g>
<!-- \\DatabaseConfiguration&#45;&gt;\\AppModel -->
<g id="edge7" class="edge"><title>\\DatabaseConfiguration&#45;&gt;\\AppModel</title>
<path fill="none" stroke="black" d="M853.71,-2291.31C799.937,-2296.26 730.74,-2302.64 685.886,-2306.77"/>
<polygon fill="none" stroke="black" points="685.502,-2303.29 675.866,-2307.69 686.145,-2310.26 685.502,-2303.29"/>
</g>
<!-- \\AppHelper -->
<g id="node5" class="node"><title>\\AppHelper</title>
<polygon fill="none" stroke="black" points="678,-1519 602,-1519 602,-1483 678,-1483 678,-1519"/>
<text text-anchor="middle" x="640" y="-1498.1" font-family="Courier,monospace" font-size="11.00">AppHelper</text>
</g>
<!-- \\Helper -->
<g id="node60" class="node"><title>\\Helper</title>
<ellipse fill="none" stroke="black" cx="343" cy="-342" rx="43.8406" ry="18.3848"/>
<text text-anchor="middle" x="343" y="-338.4" font-family="Times Roman,serif" font-size="14.00" fill="gray">Helper</text>
</g>
<!-- \\AppHelper&#45;&gt;\\Helper -->
<g id="edge9" class="edge"><title>\\AppHelper&#45;&gt;\\Helper</title>
<path fill="none" stroke="black" d="M631.48,-1482.88C609.156,-1434.48 548.833,-1297.67 522,-1177 482.632,-999.95 570.705,-499.376 450,-364 436.726,-349.113 416.301,-342.745 396.839,-340.408"/>
<polygon fill="none" stroke="black" points="397.06,-336.914 386.793,-339.53 396.45,-343.888 397.06,-336.914"/>
</g>
<!-- \\NetCommonsDeleteTest -->
<g id="node6" class="node"><title>\\NetCommonsDeleteTest</title>
<polygon fill="none" stroke="black" points="1009,-2518 857,-2518 857,-2482 1009,-2482 1009,-2518"/>
<text text-anchor="middle" x="933" y="-2497.1" font-family="Courier,monospace" font-size="11.00">NetCommonsDeleteTest</text>
</g>
<!-- \\NetCommonsModelTestCase -->
<g id="node15" class="node"><title>\\NetCommonsModelTestCase</title>
<polygon fill="none" stroke="black" points="726,-2464 554,-2464 554,-2428 726,-2428 726,-2464"/>
<text text-anchor="middle" x="640" y="-2443.1" font-family="Courier,monospace" font-size="11.00">NetCommonsModelTestCase</text>
</g>
<!-- \\NetCommonsDeleteTest&#45;&gt;\\NetCommonsModelTestCase -->
<g id="edge11" class="edge"><title>\\NetCommonsDeleteTest&#45;&gt;\\NetCommonsModelTestCase</title>
<path fill="none" stroke="black" d="M856.783,-2485.95C819.893,-2479.15 775.211,-2470.92 736.02,-2463.7"/>
<polygon fill="none" stroke="black" points="736.652,-2460.25 726.183,-2461.88 735.383,-2467.14 736.652,-2460.25"/>
</g>
<!-- \\NetCommonsConsoleTestCase -->
<g id="node7" class="node"><title>\\NetCommonsConsoleTestCase</title>
<polygon fill="none" stroke="black" points="732,-2572 548,-2572 548,-2536 732,-2536 732,-2572"/>
<text text-anchor="middle" x="640" y="-2551.1" font-family="Courier,monospace" font-size="11.00">NetCommonsConsoleTestCase</text>
</g>
<!-- \\NetCommonsCakeTestCase -->
<g id="node13" class="node"><title>\\NetCommonsCakeTestCase</title>
<polygon fill="none" stroke="black" points="425,-2518 261,-2518 261,-2482 425,-2482 425,-2518"/>
<text text-anchor="middle" x="343" y="-2497.1" font-family="Courier,monospace" font-size="11.00">NetCommonsCakeTestCase</text>
</g>
<!-- \\NetCommonsConsoleTestCase&#45;&gt;\\NetCommonsCakeTestCase -->
<g id="edge13" class="edge"><title>\\NetCommonsConsoleTestCase&#45;&gt;\\NetCommonsCakeTestCase</title>
<path fill="none" stroke="black" d="M547.249,-2537.14C511.778,-2530.69 471.343,-2523.34 435.861,-2516.88"/>
<polygon fill="none" stroke="black" points="436.458,-2513.44 425.993,-2515.09 435.206,-2520.32 436.458,-2513.44"/>
</g>
<!-- \\NetCommonsGetTest -->
<g id="node8" class="node"><title>\\NetCommonsGetTest</title>
<polygon fill="none" stroke="black" points="998,-2464 868,-2464 868,-2428 998,-2428 998,-2464"/>
<text text-anchor="middle" x="933" y="-2443.1" font-family="Courier,monospace" font-size="11.00">NetCommonsGetTest</text>
</g>
<!-- \\NetCommonsGetTest&#45;&gt;\\NetCommonsModelTestCase -->
<g id="edge15" class="edge"><title>\\NetCommonsGetTest&#45;&gt;\\NetCommonsModelTestCase</title>
<path fill="none" stroke="black" d="M867.245,-2446C828.664,-2446 779.217,-2446 736.305,-2446"/>
<polygon fill="none" stroke="black" points="736.12,-2442.5 726.12,-2446 736.12,-2449.5 736.12,-2442.5"/>
</g>
<!-- \\NetCommonsHelperTestCase -->
<g id="node9" class="node"><title>\\NetCommonsHelperTestCase</title>
<polygon fill="none" stroke="black" points="729,-2518 551,-2518 551,-2482 729,-2482 729,-2518"/>
<text text-anchor="middle" x="640" y="-2497.1" font-family="Courier,monospace" font-size="11.00">NetCommonsHelperTestCase</text>
</g>
<!-- \\NetCommonsHelperTestCase&#45;&gt;\\NetCommonsCakeTestCase -->
<g id="edge17" class="edge"><title>\\NetCommonsHelperTestCase&#45;&gt;\\NetCommonsCakeTestCase</title>
<path fill="none" stroke="black" d="M550.487,-2500C514.267,-2500 472.456,-2500 435.9,-2500"/>
<polygon fill="none" stroke="black" points="435.737,-2496.5 425.737,-2500 435.737,-2503.5 435.737,-2496.5"/>
</g>
<!-- \\NetCommonsControllerBaseTestCase -->
<g id="node10" class="node"><title>\\NetCommonsControllerBaseTestCase</title>
<polygon fill="none" stroke="black" points="756,-1168 524,-1168 524,-1132 756,-1132 756,-1168"/>
<text text-anchor="middle" x="640" y="-1147.1" font-family="Courier,monospace" font-size="11.00">NetCommonsControllerBaseTestCase</text>
</g>
<!-- \\ControllerTestCase -->
<g id="node66" class="node"><title>\\ControllerTestCase</title>
<ellipse fill="none" stroke="black" cx="343" cy="-288" rx="106.773" ry="18.3848"/>
<text text-anchor="middle" x="343" y="-284.4" font-family="Times Roman,serif" font-size="14.00" fill="gray">\ControllerTestCase</text>
</g>
<!-- \\NetCommonsControllerBaseTestCase&#45;&gt;\\ControllerTestCase -->
<g id="edge19" class="edge"><title>\\NetCommonsControllerBaseTestCase&#45;&gt;\\ControllerTestCase</title>
<path fill="none" stroke="black" d="M633.257,-1131.83C613.463,-1077.87 554.861,-913.577 522,-773 475.098,-572.353 588.906,-467.197 450,-315 446.125,-310.755 441.69,-307.134 436.877,-304.049"/>
<polygon fill="none" stroke="black" points="438.293,-300.832 427.848,-299.056 434.905,-306.958 438.293,-300.832"/>
</g>
<!-- \\NetCommonsValidateTest -->
<g id="node11" class="node"><title>\\NetCommonsValidateTest</title>
<polygon fill="none" stroke="black" points="1015,-2410 851,-2410 851,-2374 1015,-2374 1015,-2410"/>
<text text-anchor="middle" x="933" y="-2389.1" font-family="Courier,monospace" font-size="11.00">NetCommonsValidateTest</text>
</g>
<!-- \\NetCommonsValidateTest&#45;&gt;\\NetCommonsModelTestCase -->
<g id="edge21" class="edge"><title>\\NetCommonsValidateTest&#45;&gt;\\NetCommonsModelTestCase</title>
<path fill="none" stroke="black" d="M850.213,-2407.26C814.791,-2413.79 773.196,-2421.45 736.397,-2428.23"/>
<polygon fill="none" stroke="black" points="735.354,-2424.87 726.154,-2430.12 736.623,-2431.75 735.354,-2424.87"/>
</g>
<!-- \\NetCommonsTestSuite -->
<g id="node12" class="node"><title>\\NetCommonsTestSuite</title>
<polygon fill="none" stroke="black" points="1005,-1060 861,-1060 861,-1024 1005,-1024 1005,-1060"/>
<text text-anchor="middle" x="933" y="-1039.1" font-family="Courier,monospace" font-size="11.00">NetCommonsTestSuite</text>
</g>
<!-- \\CakeTestSuite -->
<g id="node69" class="node"><title>\\CakeTestSuite</title>
<ellipse fill="none" stroke="black" cx="640" cy="-342" rx="84.1457" ry="18.3848"/>
<text text-anchor="middle" x="640" y="-338.4" font-family="Times Roman,serif" font-size="14.00" fill="gray">\CakeTestSuite</text>
</g>
<!-- \\NetCommonsTestSuite&#45;&gt;\\CakeTestSuite -->
<g id="edge23" class="edge"><title>\\NetCommonsTestSuite&#45;&gt;\\CakeTestSuite</title>
<path fill="none" stroke="black" d="M860.447,-1034.81C848.845,-1030.6 838.034,-1024.3 830,-1015 639.748,-794.678 956.063,-577.328 758,-364 751.088,-356.555 742.529,-351.148 733.202,-347.272"/>
<polygon fill="none" stroke="black" points="734.245,-343.929 723.65,-343.888 731.907,-350.527 734.245,-343.929"/>
</g>
<!-- \\CakeTestCase -->
<g id="node71" class="node"><title>\\CakeTestCase</title>
<ellipse fill="none" stroke="black" cx="82" cy="-2500" rx="82.0244" ry="18.3848"/>
<text text-anchor="middle" x="82" y="-2496.4" font-family="Times Roman,serif" font-size="14.00" fill="gray">\CakeTestCase</text>
</g>
<!-- \\NetCommonsCakeTestCase&#45;&gt;\\CakeTestCase -->
<g id="edge25" class="edge"><title>\\NetCommonsCakeTestCase&#45;&gt;\\CakeTestCase</title>
<path fill="none" stroke="black" d="M260.418,-2500C233.018,-2500 202.345,-2500 174.263,-2500"/>
<polygon fill="none" stroke="black" points="174.045,-2496.5 164.045,-2500 174.045,-2503.5 174.045,-2496.5"/>
</g>
<!-- \\NetCommonsSaveTest -->
<g id="node14" class="node"><title>\\NetCommonsSaveTest</title>
<polygon fill="none" stroke="black" points="1002,-2572 864,-2572 864,-2536 1002,-2536 1002,-2572"/>
<text text-anchor="middle" x="933" y="-2551.1" font-family="Courier,monospace" font-size="11.00">NetCommonsSaveTest</text>
</g>
<!-- \\NetCommonsSaveTest&#45;&gt;\\NetCommonsModelTestCase -->
<g id="edge27" class="edge"><title>\\NetCommonsSaveTest&#45;&gt;\\NetCommonsModelTestCase</title>
<path fill="none" stroke="black" d="M863.799,-2539.82C852.234,-2536.34 840.57,-2532.11 830,-2527 793.981,-2509.6 794.288,-2489.83 758,-2473 750.962,-2469.74 743.501,-2466.85 735.884,-2464.31"/>
<polygon fill="none" stroke="black" points="736.762,-2460.91 726.173,-2461.26 734.666,-2467.59 736.762,-2460.91"/>
</g>
<!-- \\NetCommonsModelTestCase&#45;&gt;\\NetCommonsCakeTestCase -->
<g id="edge29" class="edge"><title>\\NetCommonsModelTestCase&#45;&gt;\\NetCommonsCakeTestCase</title>
<path fill="none" stroke="black" d="M553.696,-2461.69C516.671,-2468.42 473.35,-2476.3 435.65,-2483.15"/>
<polygon fill="none" stroke="black" points="434.899,-2479.73 425.686,-2484.97 436.151,-2486.62 434.899,-2479.73"/>
</g>
<!-- \\NetCommonsControllerTestCase -->
<g id="node16" class="node"><title>\\NetCommonsControllerTestCase</title>
<polygon fill="none" stroke="black" points="1036,-1168 830,-1168 830,-1132 1036,-1132 1036,-1168"/>
<text text-anchor="middle" x="933" y="-1147.1" font-family="Courier,monospace" font-size="11.00">NetCommonsControllerTestCase</text>
</g>
<!-- \\NetCommonsControllerTestCase&#45;&gt;\\NetCommonsControllerBaseTestCase -->
<g id="edge31" class="edge"><title>\\NetCommonsControllerTestCase&#45;&gt;\\NetCommonsControllerBaseTestCase</title>
<path fill="none" stroke="black" d="M829.699,-1150C809.381,-1150 787.845,-1150 766.858,-1150"/>
<polygon fill="none" stroke="black" points="766.606,-1146.5 756.606,-1150 766.606,-1153.5 766.606,-1146.5"/>
</g>
<!-- \\NetCommonsAppController -->
<g id="node17" class="node"><title>\\NetCommonsAppController</title>
<polygon fill="none" stroke="black" points="726,-764 554,-764 554,-728 726,-728 726,-764"/>
<text text-anchor="middle" x="640" y="-743.1" font-family="Courier,monospace" font-size="11.00">NetCommonsAppController</text>
</g>
<!-- \\NetCommonsAppController&#45;&gt;\\Controller -->
<g id="edge33" class="edge"><title>\\NetCommonsAppController&#45;&gt;\\Controller</title>
<path fill="none" stroke="black" d="M553.72,-742.839C541.815,-738.949 530.707,-732.973 522,-724 376.974,-574.548 608.165,-396.47 450,-261 377.764,-199.129 311.862,-203.632 236,-261 150.736,-325.477 99.0796,-674.047 85.566,-776.602"/>
<polygon fill="none" stroke="black" points="82.0578,-776.44 84.2409,-786.807 88.9995,-777.341 82.0578,-776.44"/>
</g>
<!-- \\AssetComponent -->
<g id="node18" class="node"><title>\\AssetComponent</title>
<polygon fill="none" stroke="black" points="988,-952 878,-952 878,-916 988,-916 988,-952"/>
<text text-anchor="middle" x="933" y="-931.1" font-family="Courier,monospace" font-size="11.00">AssetComponent</text>
</g>
<!-- \\Component -->
<g id="node77" class="node"><title>\\Component</title>
<ellipse fill="none" stroke="black" cx="640" cy="-288" rx="70.9184" ry="18.3848"/>
<text text-anchor="middle" x="640" y="-284.4" font-family="Times Roman,serif" font-size="14.00" fill="gray">\Component</text>
</g>
<!-- \\AssetComponent&#45;&gt;\\Component -->
<g id="edge35" class="edge"><title>\\AssetComponent&#45;&gt;\\Component</title>
<path fill="none" stroke="black" d="M877.342,-931.436C859.801,-927.802 841.915,-920.647 830,-907 655.683,-707.337 935.432,-511.899 758,-315 748.227,-304.155 735.069,-297.207 721.082,-292.841"/>
<polygon fill="none" stroke="black" points="721.864,-289.426 711.298,-290.214 720.049,-296.187 721.864,-289.426"/>
</g>
<!-- \\NetCommonsTimeComponent -->
<g id="node19" class="node"><title>\\NetCommonsTimeComponent</title>
<polygon fill="none" stroke="black" points="1019,-898 847,-898 847,-862 1019,-862 1019,-898"/>
<text text-anchor="middle" x="933" y="-877.1" font-family="Courier,monospace" font-size="11.00">NetCommonsTimeComponent</text>
</g>
<!-- \\NetCommonsTimeComponent&#45;&gt;\\Component -->
<g id="edge37" class="edge"><title>\\NetCommonsTimeComponent&#45;&gt;\\Component</title>
<path fill="none" stroke="black" d="M846.734,-866.334C840.484,-862.785 834.774,-858.402 830,-853 670.252,-672.227 920.569,-493.24 758,-315 748.162,-304.213 734.974,-297.293 720.979,-292.934"/>
<polygon fill="none" stroke="black" points="721.757,-289.519 711.192,-290.31 719.944,-296.281 721.757,-289.519"/>
</g>
<!-- \\PermissionComponent -->
<g id="node20" class="node"><title>\\PermissionComponent</title>
<polygon fill="none" stroke="black" points="1005,-844 861,-844 861,-808 1005,-808 1005,-844"/>
<text text-anchor="middle" x="933" y="-823.1" font-family="Courier,monospace" font-size="11.00">PermissionComponent</text>
</g>
<!-- \\PermissionComponent&#45;&gt;\\Component -->
<g id="edge39" class="edge"><title>\\PermissionComponent&#45;&gt;\\Component</title>
<path fill="none" stroke="black" d="M860.47,-818.469C848.938,-814.277 838.146,-808.083 830,-799 684.8,-637.094 905.726,-474.605 758,-315 748.083,-304.286 734.859,-297.398 720.853,-293.049"/>
<polygon fill="none" stroke="black" points="721.628,-289.634 711.063,-290.429 719.818,-296.396 721.628,-289.634"/>
</g>
<!-- \\NetCommonsComponent -->
<g id="node21" class="node"><title>\\NetCommonsComponent</title>
<polygon fill="none" stroke="black" points="1005,-1006 861,-1006 861,-970 1005,-970 1005,-1006"/>
<text text-anchor="middle" x="933" y="-985.1" font-family="Courier,monospace" font-size="11.00">NetCommonsComponent</text>
</g>
<!-- \\NetCommonsComponent&#45;&gt;\\Component -->
<g id="edge41" class="edge"><title>\\NetCommonsComponent&#45;&gt;\\Component</title>
<path fill="none" stroke="black" d="M860.454,-980.809C848.851,-976.592 838.038,-970.301 830,-961 641.099,-742.429 950.312,-530.576 758,-315 748.225,-304.042 734.994,-297.054 720.924,-292.686"/>
<polygon fill="none" stroke="black" points="721.644,-289.256 711.08,-290.064 719.842,-296.02 721.644,-289.256"/>
</g>
<!-- \\NetCommonsController -->
<g id="node22" class="node"><title>\\NetCommonsController</title>
<polygon fill="none" stroke="black" points="1009,-1114 857,-1114 857,-1078 1009,-1078 1009,-1114"/>
<text text-anchor="middle" x="933" y="-1093.1" font-family="Courier,monospace" font-size="11.00">NetCommonsController</text>
</g>
<!-- \\NetCommonsController&#45;&gt;\\NetCommonsAppController -->
<g id="edge43" class="edge"><title>\\NetCommonsController&#45;&gt;\\NetCommonsAppController</title>
<path fill="none" stroke="black" d="M856.95,-1083.45C847.316,-1079.79 838.034,-1075.08 830,-1069 726.056,-990.355 668.437,-836.978 648.297,-774.008"/>
<polygon fill="none" stroke="black" points="651.605,-772.86 645.28,-764.36 644.924,-774.949 651.605,-772.86"/>
</g>
<!-- \\NetCommonsUrl -->
<g id="node23" class="node"><title>\\NetCommonsUrl</title>
<polygon fill="none" stroke="black" points="985,-1924 881,-1924 881,-1888 985,-1888 985,-1924"/>
<text text-anchor="middle" x="933" y="-1903.1" font-family="Courier,monospace" font-size="11.00">NetCommonsUrl</text>
</g>
<!-- \\NetCommonsTime -->
<g id="node24" class="node"><title>\\NetCommonsTime</title>
<polygon fill="none" stroke="black" points="988,-1870 878,-1870 878,-1834 988,-1834 988,-1870"/>
<text text-anchor="middle" x="933" y="-1849.1" font-family="Courier,monospace" font-size="11.00">NetCommonsTime</text>
</g>
<!-- \\CurrentBase -->
<g id="node25" class="node"><title>\\CurrentBase</title>
<polygon fill="none" stroke="black" points="685,-2194 595,-2194 595,-2158 685,-2158 685,-2194"/>
<text text-anchor="middle" x="640" y="-2173.1" font-family="Courier,monospace" font-size="11.00">CurrentBase</text>
</g>
<!-- \\Current -->
<g id="node26" class="node"><title>\\Current</title>
<polygon fill="none" stroke="black" points="965,-2194 901,-2194 901,-2158 965,-2158 965,-2194"/>
<text text-anchor="middle" x="933" y="-2173.1" font-family="Courier,monospace" font-size="11.00">Current</text>
</g>
<!-- \\Current&#45;&gt;\\CurrentBase -->
<g id="edge45" class="edge"><title>\\Current&#45;&gt;\\CurrentBase</title>
<path fill="none" stroke="black" d="M900.806,-2176C851.48,-2176 756.554,-2176 695.846,-2176"/>
<polygon fill="none" stroke="black" points="695.669,-2172.5 685.669,-2176 695.669,-2179.5 695.669,-2172.5"/>
</g>
<!-- \\CurrentSystem -->
<g id="node27" class="node"><title>\\CurrentSystem</title>
<polygon fill="none" stroke="black" points="985,-1762 881,-1762 881,-1726 985,-1726 985,-1762"/>
<text text-anchor="middle" x="933" y="-1741.1" font-family="Courier,monospace" font-size="11.00">CurrentSystem</text>
</g>
<!-- \\CurrentPage -->
<g id="node28" class="node"><title>\\CurrentPage</title>
<polygon fill="none" stroke="black" points="978,-1708 888,-1708 888,-1672 978,-1672 978,-1708"/>
<text text-anchor="middle" x="933" y="-1687.1" font-family="Courier,monospace" font-size="11.00">CurrentPage</text>
</g>
<!-- \\CurrentFrame -->
<g id="node29" class="node"><title>\\CurrentFrame</title>
<polygon fill="none" stroke="black" points="982,-1654 884,-1654 884,-1618 982,-1618 982,-1654"/>
<text text-anchor="middle" x="933" y="-1633.1" font-family="Courier,monospace" font-size="11.00">CurrentFrame</text>
</g>
<!-- \\TokenHelper -->
<g id="node30" class="node"><title>\\TokenHelper</title>
<polygon fill="none" stroke="black" points="978,-682 888,-682 888,-646 978,-646 978,-682"/>
<text text-anchor="middle" x="933" y="-661.1" font-family="Courier,monospace" font-size="11.00">TokenHelper</text>
</g>
<!-- \\FormHelper -->
<g id="node84" class="node"><title>\\FormHelper</title>
<ellipse fill="none" stroke="black" cx="640" cy="-234" rx="70.9184" ry="18.3848"/>
<text text-anchor="middle" x="640" y="-230.4" font-family="Times Roman,serif" font-size="14.00" fill="gray">\FormHelper</text>
</g>
<!-- \\TokenHelper&#45;&gt;\\FormHelper -->
<g id="edge47" class="edge"><title>\\TokenHelper&#45;&gt;\\FormHelper</title>
<path fill="none" stroke="black" d="M887.419,-662.661C867.167,-659.676 844.645,-652.664 830,-637 713.795,-512.716 876.143,-383.443 758,-261 747.863,-250.494 734.538,-243.702 720.502,-239.381"/>
<polygon fill="none" stroke="black" points="721.266,-235.962 710.702,-236.77 719.464,-242.726 721.266,-235.962"/>
</g>
<!-- \\SingletonViewBlockHtmlHelper -->
<g id="node31" class="node"><title>\\SingletonViewBlockHtmlHelper</title>
<polygon fill="none" stroke="black" points="1036,-628 830,-628 830,-592 1036,-592 1036,-628"/>
<text text-anchor="middle" x="933" y="-607.1" font-family="Courier,monospace" font-size="11.00">SingletonViewBlockHtmlHelper</text>
</g>
<!-- \\HtmlHelper -->
<g id="node86" class="node"><title>\\HtmlHelper</title>
<ellipse fill="none" stroke="black" cx="640" cy="-180" rx="67.1751" ry="18.3848"/>
<text text-anchor="middle" x="640" y="-176.4" font-family="Times Roman,serif" font-size="14.00" fill="gray">HtmlHelper</text>
</g>
<!-- \\SingletonViewBlockHtmlHelper&#45;&gt;\\HtmlHelper -->
<g id="edge49" class="edge"><title>\\SingletonViewBlockHtmlHelper&#45;&gt;\\HtmlHelper</title>
<path fill="none" stroke="black" d="M840.465,-591.968C836.678,-589.35 833.156,-586.376 830,-583 713.795,-458.716 876.143,-329.443 758,-207 746.987,-195.587 732.213,-188.556 716.851,-184.316"/>
<polygon fill="none" stroke="black" points="717.243,-180.812 706.706,-181.915 715.631,-187.624 717.243,-180.812"/>
</g>
<!-- \\FormInputHelper -->
<g id="node32" class="node"><title>\\FormInputHelper</title>
<polygon fill="none" stroke="black" points="992,-2086 874,-2086 874,-2050 992,-2050 992,-2086"/>
<text text-anchor="middle" x="933" y="-2065.1" font-family="Courier,monospace" font-size="11.00">FormInputHelper</text>
</g>
<!-- \\FormInputHelper&#45;&gt;\\AppHelper -->
<g id="edge51" class="edge"><title>\\FormInputHelper&#45;&gt;\\AppHelper</title>
<path fill="none" stroke="black" d="M873.872,-2062.69C858.055,-2058.73 842.033,-2052.08 830,-2041 674.226,-1897.5 646.135,-1618.7 641.095,-1529.31"/>
<polygon fill="none" stroke="black" points="644.581,-1528.94 640.577,-1519.13 637.59,-1529.3 644.581,-1528.94"/>
</g>
<!-- \\WizardHelper -->
<g id="node33" class="node"><title>\\WizardHelper</title>
<polygon fill="none" stroke="black" points="982,-2032 884,-2032 884,-1996 982,-1996 982,-2032"/>
<text text-anchor="middle" x="933" y="-2011.1" font-family="Courier,monospace" font-size="11.00">WizardHelper</text>
</g>
<!-- \\WizardHelper&#45;&gt;\\AppHelper -->
<g id="edge53" class="edge"><title>\\WizardHelper&#45;&gt;\\AppHelper</title>
<path fill="none" stroke="black" d="M883.956,-2010.57C865.194,-2007.02 844.776,-2000.15 830,-1987 687.368,-1860.06 650.808,-1612.73 642.341,-1529.27"/>
<polygon fill="none" stroke="black" points="645.82,-1528.89 641.383,-1519.27 638.852,-1529.56 645.82,-1528.89"/>
</g>
<!-- \\DisplayNumberHelper -->
<g id="node34" class="node"><title>\\DisplayNumberHelper</title>
<polygon fill="none" stroke="black" points="1005,-1978 861,-1978 861,-1942 1005,-1942 1005,-1978"/>
<text text-anchor="middle" x="933" y="-1957.1" font-family="Courier,monospace" font-size="11.00">DisplayNumberHelper</text>
</g>
<!-- \\DisplayNumberHelper&#45;&gt;\\AppHelper -->
<g id="edge55" class="edge"><title>\\DisplayNumberHelper&#45;&gt;\\AppHelper</title>
<path fill="none" stroke="black" d="M860.484,-1949.9C849.426,-1945.95 838.789,-1940.5 830,-1933 700.231,-1822.27 655.867,-1605.9 643.825,-1528.97"/>
<polygon fill="none" stroke="black" points="647.284,-1528.43 642.335,-1519.07 640.362,-1529.48 647.284,-1528.43"/>
</g>
<!-- \\MessageFlashHelper -->
<g id="node35" class="node"><title>\\MessageFlashHelper</title>
<polygon fill="none" stroke="black" points="1002,-1816 864,-1816 864,-1780 1002,-1780 1002,-1816"/>
<text text-anchor="middle" x="933" y="-1795.1" font-family="Courier,monospace" font-size="11.00">MessageFlashHelper</text>
</g>
<!-- \\MessageFlashHelper&#45;&gt;\\AppHelper -->
<g id="edge57" class="edge"><title>\\MessageFlashHelper&#45;&gt;\\AppHelper</title>
<path fill="none" stroke="black" d="M863.838,-1787.05C851.899,-1783.2 840.097,-1778.01 830,-1771 738.034,-1707.14 675.79,-1583.53 651.457,-1528.54"/>
<polygon fill="none" stroke="black" points="654.551,-1526.87 647.356,-1519.1 648.13,-1529.66 654.551,-1526.87"/>
</g>
<!-- \\DateHelper -->
<g id="node36" class="node"><title>\\DateHelper</title>
<polygon fill="none" stroke="black" points="975,-1600 891,-1600 891,-1564 975,-1564 975,-1600"/>
<text text-anchor="middle" x="933" y="-1579.1" font-family="Courier,monospace" font-size="11.00">DateHelper</text>
</g>
<!-- \\DateHelper&#45;&gt;\\AppHelper -->
<g id="edge59" class="edge"><title>\\DateHelper&#45;&gt;\\AppHelper</title>
<path fill="none" stroke="black" d="M890.853,-1571.16C872.184,-1566.31 849.973,-1560.46 830,-1555 781.716,-1541.81 726.728,-1526.11 688.375,-1515.04"/>
<polygon fill="none" stroke="black" points="689.087,-1511.61 678.508,-1512.2 687.145,-1518.33 689.087,-1511.61"/>
</g>
<!-- \\SnsButtonHelper -->
<g id="node37" class="node"><title>\\SnsButtonHelper</title>
<polygon fill="none" stroke="black" points="992,-1546 874,-1546 874,-1510 992,-1510 992,-1546"/>
<text text-anchor="middle" x="933" y="-1525.1" font-family="Courier,monospace" font-size="11.00">SnsButtonHelper</text>
</g>
<!-- \\SnsButtonHelper&#45;&gt;\\AppHelper -->
<g id="edge61" class="edge"><title>\\SnsButtonHelper&#45;&gt;\\AppHelper</title>
<path fill="none" stroke="black" d="M873.707,-1522.54C819.266,-1517.52 739.563,-1510.17 688.738,-1505.49"/>
<polygon fill="none" stroke="black" points="688.942,-1502 678.663,-1504.56 688.299,-1508.97 688.942,-1502"/>
</g>
<!-- \\BackToHelper -->
<g id="node38" class="node"><title>\\BackToHelper</title>
<polygon fill="none" stroke="black" points="982,-1492 884,-1492 884,-1456 982,-1456 982,-1492"/>
<text text-anchor="middle" x="933" y="-1471.1" font-family="Courier,monospace" font-size="11.00">BackToHelper</text>
</g>
<!-- \\BackToHelper&#45;&gt;\\AppHelper -->
<g id="edge63" class="edge"><title>\\BackToHelper&#45;&gt;\\AppHelper</title>
<path fill="none" stroke="black" d="M883.958,-1478.52C829.78,-1483.51 743.056,-1491.5 688.925,-1496.49"/>
<polygon fill="none" stroke="black" points="688.519,-1493.01 678.882,-1497.42 689.161,-1499.98 688.519,-1493.01"/>
</g>
<!-- \\NetCommonsHtmlHelper -->
<g id="node39" class="node"><title>\\NetCommonsHtmlHelper</title>
<polygon fill="none" stroke="black" points="1009,-1438 857,-1438 857,-1402 1009,-1402 1009,-1438"/>
<text text-anchor="middle" x="933" y="-1417.1" font-family="Courier,monospace" font-size="11.00">NetCommonsHtmlHelper</text>
</g>
<!-- \\NetCommonsHtmlHelper&#45;&gt;\\AppHelper -->
<g id="edge65" class="edge"><title>\\NetCommonsHtmlHelper&#45;&gt;\\AppHelper</title>
<path fill="none" stroke="black" d="M863.415,-1438.03C852.231,-1440.99 840.789,-1444.05 830,-1447 781.716,-1460.19 726.728,-1475.89 688.375,-1486.96"/>
<polygon fill="none" stroke="black" points="687.145,-1483.67 678.508,-1489.8 689.087,-1490.39 687.145,-1483.67"/>
</g>
<!-- \\ButtonHelper -->
<g id="node40" class="node"><title>\\ButtonHelper</title>
<polygon fill="none" stroke="black" points="982,-790 884,-790 884,-754 982,-754 982,-790"/>
<text text-anchor="middle" x="933" y="-769.1" font-family="Courier,monospace" font-size="11.00">ButtonHelper</text>
</g>
<!-- \\ButtonHelper&#45;&gt;\\FormHelper -->
<g id="edge67" class="edge"><title>\\ButtonHelper&#45;&gt;\\FormHelper</title>
<path fill="none" stroke="black" d="M883.956,-770.443C864.503,-767.253 843.577,-760.139 830,-745 684.8,-583.094 905.726,-420.605 758,-261 748.083,-250.286 734.859,-243.398 720.853,-239.049"/>
<polygon fill="none" stroke="black" points="721.628,-235.634 711.063,-236.429 719.818,-242.396 721.628,-235.634"/>
</g>
<!-- \\ComposerHelper -->
<g id="node41" class="node"><title>\\ComposerHelper</title>
<polygon fill="none" stroke="black" points="988,-1384 878,-1384 878,-1348 988,-1348 988,-1384"/>
<text text-anchor="middle" x="933" y="-1363.1" font-family="Courier,monospace" font-size="11.00">ComposerHelper</text>
</g>
<!-- \\ComposerHelper&#45;&gt;\\AppHelper -->
<g id="edge69" class="edge"><title>\\ComposerHelper&#45;&gt;\\AppHelper</title>
<path fill="none" stroke="black" d="M877.345,-1377.77C861.755,-1381.82 844.981,-1386.9 830,-1393 773.066,-1416.18 712.097,-1453.27 675.004,-1477.39"/>
<polygon fill="none" stroke="black" points="673.002,-1474.52 666.557,-1482.93 676.839,-1480.37 673.002,-1474.52"/>
</g>
<!-- \\LinkButtonHelper -->
<g id="node42" class="node"><title>\\LinkButtonHelper</title>
<polygon fill="none" stroke="black" points="995,-736 871,-736 871,-700 995,-700 995,-736"/>
<text text-anchor="middle" x="933" y="-715.1" font-family="Courier,monospace" font-size="11.00">LinkButtonHelper</text>
</g>
<!-- \\LinkButtonHelper&#45;&gt;\\FormHelper -->
<g id="edge71" class="edge"><title>\\LinkButtonHelper&#45;&gt;\\FormHelper</title>
<path fill="none" stroke="black" d="M870.442,-713.412C855.337,-709.395 840.535,-702.534 830,-691 699.318,-547.927 890.914,-402.002 758,-261 747.986,-250.377 734.718,-243.531 720.698,-239.194"/>
<polygon fill="none" stroke="black" points="721.468,-235.777 710.904,-236.577 719.661,-242.54 721.468,-235.777"/>
</g>
<!-- \\NetCommonsTimeHelper -->
<g id="node43" class="node"><title>\\NetCommonsTimeHelper</title>
<polygon fill="none" stroke="black" points="1009,-1330 857,-1330 857,-1294 1009,-1294 1009,-1330"/>
<text text-anchor="middle" x="933" y="-1309.1" font-family="Courier,monospace" font-size="11.00">NetCommonsTimeHelper</text>
</g>
<!-- \\NetCommonsTimeHelper&#45;&gt;\\AppHelper -->
<g id="edge73" class="edge"><title>\\NetCommonsTimeHelper&#45;&gt;\\AppHelper</title>
<path fill="none" stroke="black" d="M856.984,-1327.73C847.651,-1330.87 838.439,-1334.59 830,-1339 761.41,-1374.81 696.097,-1439.44 662.838,-1475.3"/>
<polygon fill="none" stroke="black" points="660.033,-1473.17 655.854,-1482.91 665.192,-1477.91 660.033,-1473.17"/>
</g>
<!-- \\NetCommonsFormHelper -->
<g id="node44" class="node"><title>\\NetCommonsFormHelper</title>
<polygon fill="none" stroke="black" points="1009,-1276 857,-1276 857,-1240 1009,-1240 1009,-1276"/>
<text text-anchor="middle" x="933" y="-1255.1" font-family="Courier,monospace" font-size="11.00">NetCommonsFormHelper</text>
</g>
<!-- \\NetCommonsFormHelper&#45;&gt;\\AppHelper -->
<g id="edge75" class="edge"><title>\\NetCommonsFormHelper&#45;&gt;\\AppHelper</title>
<path fill="none" stroke="black" d="M856.876,-1272.4C847.463,-1275.76 838.259,-1279.9 830,-1285 749.876,-1334.44 684.727,-1428.19 655.946,-1474.19"/>
<polygon fill="none" stroke="black" points="652.792,-1472.64 650.523,-1482.98 658.75,-1476.31 652.792,-1472.64"/>
</g>
<!-- \\TitleIconHelper -->
<g id="node45" class="node"><title>\\TitleIconHelper</title>
<polygon fill="none" stroke="black" points="992,-1222 874,-1222 874,-1186 992,-1186 992,-1222"/>
<text text-anchor="middle" x="933" y="-1201.1" font-family="Courier,monospace" font-size="11.00">TitleIconHelper</text>
</g>
<!-- \\TitleIconHelper&#45;&gt;\\AppHelper -->
<g id="edge77" class="edge"><title>\\TitleIconHelper&#45;&gt;\\AppHelper</title>
<path fill="none" stroke="black" d="M873.801,-1212.05C858.597,-1216.05 842.906,-1222.04 830,-1231 738.034,-1294.86 675.79,-1418.47 651.457,-1473.46"/>
<polygon fill="none" stroke="black" points="648.13,-1472.34 647.356,-1482.9 654.551,-1475.13 648.13,-1472.34"/>
</g>
<!-- \\DatetimePickerHelper -->
<g id="node46" class="node"><title>\\DatetimePickerHelper</title>
<polygon fill="none" stroke="black" points="1009,-2140 857,-2140 857,-2104 1009,-2104 1009,-2140"/>
<text text-anchor="middle" x="933" y="-2119.1" font-family="Courier,monospace" font-size="11.00">DatetimePickerHelper</text>
</g>
<!-- \\DatetimePickerHelper&#45;&gt;\\AppHelper -->
<g id="edge79" class="edge"><title>\\DatetimePickerHelper&#45;&gt;\\AppHelper</title>
<path fill="none" stroke="black" d="M856.906,-2111.56C846.994,-2107.61 837.646,-2102.25 830,-2095 743.879,-2013.34 665.926,-1635.95 645.305,-1529.2"/>
<polygon fill="none" stroke="black" points="648.705,-1528.35 643.386,-1519.18 641.83,-1529.66 648.705,-1528.35"/>
</g>
<!-- \\Model -->
<g id="node103" class="node"><title>\\Model</title>
<ellipse fill="none" stroke="black" cx="82" cy="-2311" rx="43.8406" ry="18.3848"/>
<text text-anchor="middle" x="82" y="-2307.4" font-family="Times Roman,serif" font-size="14.00" fill="gray">\Model</text>
</g>
<!-- \\NetCommonsAppModel&#45;&gt;\\Model -->
<g id="edge81" class="edge"><title>\\NetCommonsAppModel&#45;&gt;\\Model</title>
<path fill="none" stroke="black" d="M273.742,-2311C230.675,-2311 176.099,-2311 136.195,-2311"/>
<polygon fill="none" stroke="black" points="136.125,-2307.5 126.125,-2311 136.125,-2314.5 136.125,-2307.5"/>
</g>
<!-- \\OriginalKeyBehavior -->
<g id="node48" class="node"><title>\\OriginalKeyBehavior</title>
<polygon fill="none" stroke="black" points="1005,-520 861,-520 861,-484 1005,-484 1005,-520"/>
<text text-anchor="middle" x="933" y="-499.1" font-family="Courier,monospace" font-size="11.00">OriginalKeyBehavior</text>
</g>
<!-- \\ModelBehavior -->
<g id="node105" class="node"><title>\\ModelBehavior</title>
<ellipse fill="none" stroke="black" cx="640" cy="-126" rx="86.9741" ry="18.3848"/>
<text text-anchor="middle" x="640" y="-122.4" font-family="Times Roman,serif" font-size="14.00" fill="gray">\ModelBehavior</text>
</g>
<!-- \\OriginalKeyBehavior&#45;&gt;\\ModelBehavior -->
<g id="edge83" class="edge"><title>\\OriginalKeyBehavior&#45;&gt;\\ModelBehavior</title>
<path fill="none" stroke="black" d="M860.477,-493.783C849.086,-489.648 838.341,-483.65 830,-475 728.21,-369.437 861.436,-256.95 758,-153 750.53,-145.493 741.428,-139.895 731.627,-135.745"/>
<polygon fill="none" stroke="black" points="732.638,-132.388 722.045,-132.196 730.207,-138.952 732.638,-132.388"/>
</g>
<!-- \\TrackableBehavior -->
<g id="node49" class="node"><title>\\TrackableBehavior</title>
<polygon fill="none" stroke="black" points="998,-574 868,-574 868,-538 998,-538 998,-574"/>
<text text-anchor="middle" x="933" y="-553.1" font-family="Courier,monospace" font-size="11.00">TrackableBehavior</text>
</g>
<!-- \\TrackableBehavior&#45;&gt;\\ModelBehavior -->
<g id="edge85" class="edge"><title>\\TrackableBehavior&#45;&gt;\\ModelBehavior</title>
<path fill="none" stroke="black" d="M867.409,-550.347C853.429,-546.238 839.911,-539.6 830,-529 713.795,-404.716 876.143,-275.443 758,-153 750.646,-145.379 741.615,-139.712 731.852,-135.525"/>
<polygon fill="none" stroke="black" points="732.89,-132.176 722.298,-131.949 730.436,-138.732 732.89,-132.176"/>
</g>
<!-- \\YAExceptionRenderer -->
<g id="node50" class="node"><title>\\YAExceptionRenderer</title>
<polygon fill="none" stroke="black" points="1005,-466 861,-466 861,-430 1005,-430 1005,-466"/>
<text text-anchor="middle" x="933" y="-445.1" font-family="Courier,monospace" font-size="11.00">YAExceptionRenderer</text>
</g>
<!-- \\ExceptionRenderer -->
<g id="node108" class="node"><title>\\ExceptionRenderer</title>
<ellipse fill="none" stroke="black" cx="640" cy="-72" rx="118.087" ry="18.3848"/>
<text text-anchor="middle" x="640" y="-68.4" font-family="Times Roman,serif" font-size="14.00" fill="gray">TEHxceptionRenderer</text>
</g>
<!-- \\YAExceptionRenderer&#45;&gt;\\ExceptionRenderer -->
<g id="edge87" class="edge"><title>\\YAExceptionRenderer&#45;&gt;\\ExceptionRenderer</title>
<path fill="none" stroke="black" d="M860.477,-439.783C849.086,-435.648 838.341,-429.65 830,-421 728.21,-315.437 861.436,-202.95 758,-99 753.632,-94.61 748.706,-90.873 743.408,-87.6967"/>
<polygon fill="none" stroke="black" points="744.657,-84.4002 734.174,-82.8643 741.411,-90.6022 744.657,-84.4002"/>
</g>
<!-- \\NetCommonsMigration -->
<g id="node51" class="node"><title>\\NetCommonsMigration</title>
<polygon fill="none" stroke="black" points="1005,-412 861,-412 861,-376 1005,-376 1005,-412"/>
<text text-anchor="middle" x="933" y="-391.1" font-family="Courier,monospace" font-size="11.00">NetCommonsMigration</text>
</g>
<!-- \\CakeMigration -->
<g id="node110" class="node"><title>\\CakeMigration</title>
<ellipse fill="none" stroke="black" cx="640" cy="-18" rx="84.8528" ry="18.3848"/>
<text text-anchor="middle" x="640" y="-14.4" font-family="Times Roman,serif" font-size="14.00" fill="gray">\CakeMigration</text>
</g>
<!-- \\NetCommonsMigration&#45;&gt;\\CakeMigration -->
<g id="edge89" class="edge"><title>\\NetCommonsMigration&#45;&gt;\\CakeMigration</title>
<path fill="none" stroke="black" d="M929.544,-375.725C917.514,-317.407 871.834,-134.35 758,-45 748.922,-37.8745 738.309,-32.5637 727.237,-28.6167"/>
<polygon fill="none" stroke="black" points="728.007,-25.1887 717.416,-25.488 725.882,-31.8584 728.007,-25.1887"/>
</g>
<!-- \\InstallController -->
<g id="node52" class="node"><title>\\InstallController</title>
<polygon fill="none" stroke="black" points="998,-2248 868,-2248 868,-2212 998,-2212 998,-2248"/>
<text text-anchor="middle" x="933" y="-2227.1" font-family="Courier,monospace" font-size="11.00">InstallController</text>
</g>
<!-- \\InstallAppController -->
<g id="node53" class="node"><title>\\InstallAppController</title>
<polygon fill="none" stroke="black" points="716,-2248 564,-2248 564,-2212 716,-2212 716,-2248"/>
<text text-anchor="middle" x="640" y="-2227.1" font-family="Courier,monospace" font-size="11.00">InstallAppController</text>
</g>
<!-- \\InstallController&#45;&gt;\\InstallAppController -->
<g id="edge91" class="edge"><title>\\InstallController&#45;&gt;\\InstallAppController</title>
<path fill="none" stroke="black" d="M867.245,-2230C825.599,-2230 771.292,-2230 726.212,-2230"/>
<polygon fill="none" stroke="black" points="726.151,-2226.5 716.151,-2230 726.151,-2233.5 726.151,-2226.5"/>
</g>
<!-- \\InstallAppController&#45;&gt;\\AppController -->
<g id="edge93" class="edge"><title>\\InstallAppController&#45;&gt;\\AppController</title>
<path fill="none" stroke="black" d="M563.909,-2225.73C548.316,-2221.51 533.251,-2214.48 522,-2203 401.184,-2079.69 354.283,-1503.31 344.858,-1368.33"/>
<polygon fill="none" stroke="black" points="348.35,-1368.09 344.174,-1358.36 341.366,-1368.57 348.35,-1368.09"/>
</g>
<!-- \\InstallAppModel -->
<g id="node54" class="node"><title>\\InstallAppModel</title>
<polygon fill="none" stroke="black" points="992,-2356 874,-2356 874,-2320 992,-2320 992,-2356"/>
<text text-anchor="middle" x="933" y="-2335.1" font-family="Courier,monospace" font-size="11.00">InstallAppModel</text>
</g>
<!-- \\InstallAppModel&#45;&gt;\\AppModel -->
<g id="edge95" class="edge"><title>\\InstallAppModel&#45;&gt;\\AppModel</title>
<path fill="none" stroke="black" d="M873.707,-2332.54C818.171,-2327.42 736.346,-2319.88 685.707,-2315.21"/>
<polygon fill="none" stroke="black" points="685.982,-2311.72 675.703,-2314.29 685.34,-2318.69 685.982,-2311.72"/>
</g>
</g>
</svg>
