<?xml version="1.0" encoding="UTF-8" standalone="no"?>
<!DOCTYPE svg PUBLIC "-//W3C//DTD SVG 1.1//EN"
 "http://www.w3.org/Graphics/SVG/1.1/DTD/svg11.dtd">
<!-- Generated by graphviz version 2.26.3 (20100126.1600)
 -->
<!-- Title: G Pages: 1 -->
<svg width="1060pt" height="2888pt"
 viewBox="0.00 0.00 1060.00 2888.00" xmlns="http://www.w3.org/2000/svg" xmlns:xlink="http://www.w3.org/1999/xlink">
<g id="graph1" class="graph" transform="scale(1 1) rotate(0) translate(4 2884)">
<title>G</title>
<polygon fill="white" stroke="white" points="-4,5 -4,-2884 1057,-2884 1057,5 -4,5"/>
<g id="graph2" class="cluster"><title>cluster_Global</title>
<polyline fill="none" stroke="gray" points="264,-422 1032,-422 "/>
<path fill="none" stroke="gray" d="M1032,-422C1038,-422 1044,-428 1044,-434"/>
<polyline fill="none" stroke="gray" points="1044,-434 1044,-2860 "/>
<path fill="none" stroke="gray" d="M1044,-2860C1044,-2866 1038,-2872 1032,-2872"/>
<polyline fill="none" stroke="gray" points="1032,-2872 264,-2872 "/>
<path fill="none" stroke="gray" d="M264,-2872C258,-2872 252,-2866 252,-2860"/>
<polyline fill="none" stroke="gray" points="252,-2860 252,-434 "/>
<path fill="none" stroke="gray" d="M252,-434C252,-428 258,-422 264,-422"/>
<text text-anchor="middle" x="648" y="-2858.1" font-family="Times Roman,serif" font-size="11.00" fill="gray">Global</text>
</g>
<!-- \\AppController -->
<g id="node2" class="node"><title>\\AppController</title>
<polygon fill="none" stroke="black" points="985,-1330 881,-1330 881,-1294 985,-1294 985,-1330"/>
<text text-anchor="middle" x="933" y="-1309.1" font-family="Courier,monospace" font-size="11.00">AppController</text>
</g>
<!-- \\Controller -->
<g id="node58" class="node"><title>\\Controller</title>
<ellipse fill="none" stroke="black" cx="343" cy="-288" rx="63.1385" ry="18.3848"/>
<text text-anchor="middle" x="343" y="-284.4" font-family="Times Roman,serif" font-size="14.00" fill="gray">\Controller</text>
</g>
<!-- \\AppController&#45;&gt;\\Controller -->
<g id="edge3" class="edge"><title>\\AppController&#45;&gt;\\Controller</title>
<path fill="none" stroke="black" d="M880.791,-1307.94C862.927,-1304.23 843.952,-1297.41 830,-1285 743.504,-1208.08 536.848,-391.526 450,-315 439.863,-306.067 427.19,-300.007 414.149,-295.915"/>
<polygon fill="none" stroke="black" points="414.711,-292.439 404.14,-293.154 412.849,-299.187 414.711,-292.439"/>
</g>
<!-- \\AppModel -->
<g id="node3" class="node"><title>\\AppModel</title>
<polygon fill="none" stroke="black" points="675,-2626 605,-2626 605,-2590 675,-2590 675,-2626"/>
<text text-anchor="middle" x="640" y="-2605.1" font-family="Courier,monospace" font-size="11.00">AppModel</text>
</g>
<!-- \\NetCommonsAppModel -->
<g id="node50" class="node"><title>\\NetCommonsAppModel</title>
<polygon fill="none" stroke="black" points="412,-2626 274,-2626 274,-2590 412,-2590 412,-2626"/>
<text text-anchor="middle" x="343" y="-2605.1" font-family="Courier,monospace" font-size="11.00">NetCommonsAppModel</text>
</g>
<!-- \\AppModel&#45;&gt;\\NetCommonsAppModel -->
<g id="edge5" class="edge"><title>\\AppModel&#45;&gt;\\NetCommonsAppModel</title>
<path fill="none" stroke="black" d="M604.47,-2608C559.713,-2608 481.497,-2608 422.241,-2608"/>
<polygon fill="none" stroke="black" points="422.157,-2604.5 412.157,-2608 422.157,-2611.5 422.157,-2604.5"/>
</g>
<!-- \\DatabaseConfiguration -->
<g id="node4" class="node"><title>\\DatabaseConfiguration</title>
<polygon fill="none" stroke="black" points="1012,-2626 854,-2626 854,-2590 1012,-2590 1012,-2626"/>
<text text-anchor="middle" x="933" y="-2605.1" font-family="Courier,monospace" font-size="11.00">DatabaseConfiguration</text>
</g>
<!-- \\DatabaseConfiguration&#45;&gt;\\AppModel -->
<g id="edge7" class="edge"><title>\\DatabaseConfiguration&#45;&gt;\\AppModel</title>
<path fill="none" stroke="black" d="M853.71,-2608C799.937,-2608 730.74,-2608 685.886,-2608"/>
<polygon fill="none" stroke="black" points="685.866,-2604.5 675.866,-2608 685.866,-2611.5 685.866,-2604.5"/>
</g>
<!-- \\AppHelper -->
<g id="node5" class="node"><title>\\AppHelper</title>
<polygon fill="none" stroke="black" points="678,-2194 602,-2194 602,-2158 678,-2158 678,-2194"/>
<text text-anchor="middle" x="640" y="-2173.1" font-family="Courier,monospace" font-size="11.00">AppHelper</text>
</g>
<!-- \\Helper -->
<g id="node62" class="node"><title>\\Helper</title>
<ellipse fill="none" stroke="black" cx="343" cy="-396" rx="43.8406" ry="18.3848"/>
<text text-anchor="middle" x="343" y="-392.4" font-family="Times Roman,serif" font-size="14.00" fill="gray">Helper</text>
</g>
<!-- \\AppHelper&#45;&gt;\\Helper -->
<g id="edge9" class="edge"><title>\\AppHelper&#45;&gt;\\Helper</title>
<path fill="none" stroke="black" d="M635.689,-2157.84C618.242,-2083.6 552.36,-1795.62 522,-1555 506.154,-1429.41 533.052,-513.532 450,-418 436.861,-402.887 416.357,-396.498 396.798,-394.208"/>
<polygon fill="none" stroke="black" points="396.959,-390.71 386.701,-393.36 396.373,-397.685 396.959,-390.71"/>
</g>
<!-- \\NetCommonsDeleteTest -->
<g id="node6" class="node"><title>\\NetCommonsDeleteTest</title>
<polygon fill="none" stroke="black" points="1009,-2788 857,-2788 857,-2752 1009,-2752 1009,-2788"/>
<text text-anchor="middle" x="933" y="-2767.1" font-family="Courier,monospace" font-size="11.00">NetCommonsDeleteTest</text>
</g>
<!-- \\NetCommonsModelTestCase -->
<g id="node15" class="node"><title>\\NetCommonsModelTestCase</title>
<polygon fill="none" stroke="black" points="726,-2761 554,-2761 554,-2725 726,-2725 726,-2761"/>
<text text-anchor="middle" x="640" y="-2740.1" font-family="Courier,monospace" font-size="11.00">NetCommonsModelTestCase</text>
</g>
<!-- \\NetCommonsDeleteTest&#45;&gt;\\NetCommonsModelTestCase -->
<g id="edge11" class="edge"><title>\\NetCommonsDeleteTest&#45;&gt;\\NetCommonsModelTestCase</title>
<path fill="none" stroke="black" d="M856.783,-2762.98C820.049,-2759.59 775.59,-2755.49 736.519,-2751.89"/>
<polygon fill="none" stroke="black" points="736.462,-2748.37 726.183,-2750.94 735.82,-2755.34 736.462,-2748.37"/>
</g>
<!-- \\NetCommonsConsoleTestCase -->
<g id="node7" class="node"><title>\\NetCommonsConsoleTestCase</title>
<polygon fill="none" stroke="black" points="732,-2707 548,-2707 548,-2671 732,-2671 732,-2707"/>
<text text-anchor="middle" x="640" y="-2686.1" font-family="Courier,monospace" font-size="11.00">NetCommonsConsoleTestCase</text>
</g>
<!-- \\NetCommonsCakeTestCase -->
<g id="node13" class="node"><title>\\NetCommonsCakeTestCase</title>
<polygon fill="none" stroke="black" points="425,-2761 261,-2761 261,-2725 425,-2725 425,-2761"/>
<text text-anchor="middle" x="343" y="-2740.1" font-family="Courier,monospace" font-size="11.00">NetCommonsCakeTestCase</text>
</g>
<!-- \\NetCommonsConsoleTestCase&#45;&gt;\\NetCommonsCakeTestCase -->
<g id="edge13" class="edge"><title>\\NetCommonsConsoleTestCase&#45;&gt;\\NetCommonsCakeTestCase</title>
<path fill="none" stroke="black" d="M547.249,-2705.86C511.778,-2712.31 471.343,-2719.66 435.861,-2726.12"/>
<polygon fill="none" stroke="black" points="435.206,-2722.68 425.993,-2727.91 436.458,-2729.56 435.206,-2722.68"/>
</g>
<!-- \\NetCommonsGetTest -->
<g id="node8" class="node"><title>\\NetCommonsGetTest</title>
<polygon fill="none" stroke="black" points="998,-2734 868,-2734 868,-2698 998,-2698 998,-2734"/>
<text text-anchor="middle" x="933" y="-2713.1" font-family="Courier,monospace" font-size="11.00">NetCommonsGetTest</text>
</g>
<!-- \\NetCommonsGetTest&#45;&gt;\\NetCommonsModelTestCase -->
<g id="edge15" class="edge"><title>\\NetCommonsGetTest&#45;&gt;\\NetCommonsModelTestCase</title>
<path fill="none" stroke="black" d="M867.245,-2722.06C828.664,-2725.61 779.217,-2730.17 736.305,-2734.13"/>
<polygon fill="none" stroke="black" points="735.756,-2730.66 726.12,-2735.06 736.399,-2737.63 735.756,-2730.66"/>
</g>
<!-- \\NetCommonsHelperTestCase -->
<g id="node9" class="node"><title>\\NetCommonsHelperTestCase</title>
<polygon fill="none" stroke="black" points="729,-2815 551,-2815 551,-2779 729,-2779 729,-2815"/>
<text text-anchor="middle" x="640" y="-2794.1" font-family="Courier,monospace" font-size="11.00">NetCommonsHelperTestCase</text>
</g>
<!-- \\NetCommonsHelperTestCase&#45;&gt;\\NetCommonsCakeTestCase -->
<g id="edge17" class="edge"><title>\\NetCommonsHelperTestCase&#45;&gt;\\NetCommonsCakeTestCase</title>
<path fill="none" stroke="black" d="M550.487,-2780.72C514.267,-2774.14 472.456,-2766.54 435.9,-2759.89"/>
<polygon fill="none" stroke="black" points="436.202,-2756.39 425.737,-2758.04 434.95,-2763.28 436.202,-2756.39"/>
</g>
<!-- \\NetCommonsControllerBaseTestCase -->
<g id="node10" class="node"><title>\\NetCommonsControllerBaseTestCase</title>
<polygon fill="none" stroke="black" points="756,-1546 524,-1546 524,-1510 756,-1510 756,-1546"/>
<text text-anchor="middle" x="640" y="-1525.1" font-family="Courier,monospace" font-size="11.00">NetCommonsControllerBaseTestCase</text>
</g>
<!-- \\ControllerTestCase -->
<g id="node68" class="node"><title>\\ControllerTestCase</title>
<ellipse fill="none" stroke="black" cx="343" cy="-342" rx="106.773" ry="18.3848"/>
<text text-anchor="middle" x="343" y="-338.4" font-family="Times Roman,serif" font-size="14.00" fill="gray">\ControllerTestCase</text>
</g>
<!-- \\NetCommonsControllerBaseTestCase&#45;&gt;\\ControllerTestCase -->
<g id="edge19" class="edge"><title>\\NetCommonsControllerBaseTestCase&#45;&gt;\\ControllerTestCase</title>
<path fill="none" stroke="black" d="M530.99,-1509.63C527.74,-1507.07 524.723,-1504.2 522,-1501 358.714,-1308.97 611.141,-562.829 450,-369 446.402,-364.672 442.221,-360.982 437.638,-357.841"/>
<polygon fill="none" stroke="black" points="439.388,-354.81 428.994,-352.759 435.841,-360.844 439.388,-354.81"/>
</g>
<!-- \\NetCommonsValidateTest -->
<g id="node11" class="node"><title>\\NetCommonsValidateTest</title>
<polygon fill="none" stroke="black" points="1015,-2680 851,-2680 851,-2644 1015,-2644 1015,-2680"/>
<text text-anchor="middle" x="933" y="-2659.1" font-family="Courier,monospace" font-size="11.00">NetCommonsValidateTest</text>
</g>
<!-- \\NetCommonsValidateTest&#45;&gt;\\NetCommonsModelTestCase -->
<g id="edge21" class="edge"><title>\\NetCommonsValidateTest&#45;&gt;\\NetCommonsModelTestCase</title>
<path fill="none" stroke="black" d="M860.418,-2680.03C850.158,-2682.87 839.778,-2685.89 830,-2689 797.428,-2699.35 790.731,-2706.17 758,-2716 750.57,-2718.23 742.83,-2720.38 735.023,-2722.43"/>
<polygon fill="none" stroke="black" points="733.938,-2719.09 725.116,-2724.96 735.671,-2725.87 733.938,-2719.09"/>
</g>
<!-- \\NetCommonsTestSuite -->
<g id="node12" class="node"><title>\\NetCommonsTestSuite</title>
<polygon fill="none" stroke="black" points="1005,-1276 861,-1276 861,-1240 1005,-1240 1005,-1276"/>
<text text-anchor="middle" x="933" y="-1255.1" font-family="Courier,monospace" font-size="11.00">NetCommonsTestSuite</text>
</g>
<!-- \\CakeTestSuite -->
<g id="node71" class="node"><title>\\CakeTestSuite</title>
<ellipse fill="none" stroke="black" cx="640" cy="-396" rx="84.1457" ry="18.3848"/>
<text text-anchor="middle" x="640" y="-392.4" font-family="Times Roman,serif" font-size="14.00" fill="gray">\CakeTestSuite</text>
</g>
<!-- \\NetCommonsTestSuite&#45;&gt;\\CakeTestSuite -->
<g id="edge23" class="edge"><title>\\NetCommonsTestSuite&#45;&gt;\\CakeTestSuite</title>
<path fill="none" stroke="black" d="M860.28,-1250.96C848.694,-1246.73 837.933,-1240.39 830,-1231 712.965,-1092.44 879.95,-552.256 758,-418 751.169,-410.48 742.661,-405.026 733.362,-401.125"/>
<polygon fill="none" stroke="black" points="734.427,-397.788 723.832,-397.721 732.072,-404.381 734.427,-397.788"/>
</g>
<!-- \\CakeTestCase -->
<g id="node73" class="node"><title>\\CakeTestCase</title>
<ellipse fill="none" stroke="black" cx="82" cy="-2743" rx="82.0244" ry="18.3848"/>
<text text-anchor="middle" x="82" y="-2739.4" font-family="Times Roman,serif" font-size="14.00" fill="gray">\CakeTestCase</text>
</g>
<!-- \\NetCommonsCakeTestCase&#45;&gt;\\CakeTestCase -->
<g id="edge25" class="edge"><title>\\NetCommonsCakeTestCase&#45;&gt;\\CakeTestCase</title>
<path fill="none" stroke="black" d="M260.418,-2743C233.018,-2743 202.345,-2743 174.263,-2743"/>
<polygon fill="none" stroke="black" points="174.045,-2739.5 164.045,-2743 174.045,-2746.5 174.045,-2739.5"/>
</g>
<!-- \\NetCommonsSaveTest -->
<g id="node14" class="node"><title>\\NetCommonsSaveTest</title>
<polygon fill="none" stroke="black" points="1002,-2842 864,-2842 864,-2806 1002,-2806 1002,-2842"/>
<text text-anchor="middle" x="933" y="-2821.1" font-family="Courier,monospace" font-size="11.00">NetCommonsSaveTest</text>
</g>
<!-- \\NetCommonsSaveTest&#45;&gt;\\NetCommonsModelTestCase -->
<g id="edge27" class="edge"><title>\\NetCommonsSaveTest&#45;&gt;\\NetCommonsModelTestCase</title>
<path fill="none" stroke="black" d="M863.741,-2806.89C852.409,-2803.79 840.835,-2800.44 830,-2797 797.428,-2786.65 790.731,-2779.83 758,-2770 750.57,-2767.77 742.83,-2765.62 735.023,-2763.57"/>
<polygon fill="none" stroke="black" points="735.671,-2760.13 725.116,-2761.04 733.938,-2766.91 735.671,-2760.13"/>
</g>
<!-- \\NetCommonsModelTestCase&#45;&gt;\\NetCommonsCakeTestCase -->
<g id="edge29" class="edge"><title>\\NetCommonsModelTestCase&#45;&gt;\\NetCommonsCakeTestCase</title>
<path fill="none" stroke="black" d="M553.696,-2743C516.829,-2743 473.718,-2743 436.131,-2743"/>
<polygon fill="none" stroke="black" points="435.686,-2739.5 425.686,-2743 435.686,-2746.5 435.686,-2739.5"/>
</g>
<!-- \\NetCommonsControllerTestCase -->
<g id="node16" class="node"><title>\\NetCommonsControllerTestCase</title>
<polygon fill="none" stroke="black" points="1036,-1546 830,-1546 830,-1510 1036,-1510 1036,-1546"/>
<text text-anchor="middle" x="933" y="-1525.1" font-family="Courier,monospace" font-size="11.00">NetCommonsControllerTestCase</text>
</g>
<!-- \\NetCommonsControllerTestCase&#45;&gt;\\NetCommonsControllerBaseTestCase -->
<g id="edge31" class="edge"><title>\\NetCommonsControllerTestCase&#45;&gt;\\NetCommonsControllerBaseTestCase</title>
<path fill="none" stroke="black" d="M829.699,-1528C809.381,-1528 787.845,-1528 766.858,-1528"/>
<polygon fill="none" stroke="black" points="766.606,-1524.5 756.606,-1528 766.606,-1531.5 766.606,-1524.5"/>
</g>
<!-- \\NetCommonsAppController -->
<g id="node17" class="node"><title>\\NetCommonsAppController</title>
<polygon fill="none" stroke="black" points="726,-1384 554,-1384 554,-1348 726,-1348 726,-1384"/>
<text text-anchor="middle" x="640" y="-1363.1" font-family="Courier,monospace" font-size="11.00">NetCommonsAppController</text>
</g>
<!-- \\NetCommonsAppController&#45;&gt;\\Controller -->
<g id="edge33" class="edge"><title>\\NetCommonsAppController&#45;&gt;\\Controller</title>
<path fill="none" stroke="black" d="M553.928,-1363.76C541.77,-1359.81 530.529,-1353.57 522,-1344 369.45,-1172.91 597.099,-490.802 450,-315 441.146,-304.418 428.805,-297.653 415.64,-293.395"/>
<polygon fill="none" stroke="black" points="416.517,-290.006 405.946,-290.719 414.654,-296.754 416.517,-290.006"/>
</g>
<!-- \\AssetComponent -->
<g id="node18" class="node"><title>\\AssetComponent</title>
<polygon fill="none" stroke="black" points="988,-1222 878,-1222 878,-1186 988,-1186 988,-1222"/>
<text text-anchor="middle" x="933" y="-1201.1" font-family="Courier,monospace" font-size="11.00">AssetComponent</text>
</g>
<!-- \\Component -->
<g id="node79" class="node"><title>\\Component</title>
<ellipse fill="none" stroke="black" cx="640" cy="-342" rx="70.9184" ry="18.3848"/>
<text text-anchor="middle" x="640" y="-338.4" font-family="Times Roman,serif" font-size="14.00" fill="gray">\Component</text>
</g>
<!-- \\AssetComponent&#45;&gt;\\Component -->
<g id="edge35" class="edge"><title>\\AssetComponent&#45;&gt;\\Component</title>
<path fill="none" stroke="black" d="M877.358,-1201.71C859.711,-1198.11 841.753,-1190.91 830,-1177 713.641,-1039.32 876.508,-504.839 758,-369 748.346,-357.935 735.171,-350.898 721.117,-346.516"/>
<polygon fill="none" stroke="black" points="721.843,-343.087 711.278,-343.889 720.037,-349.85 721.843,-343.087"/>
</g>
<!-- \\AccessCtrlComponent -->
<g id="node19" class="node"><title>\\AccessCtrlComponent</title>
<polygon fill="none" stroke="black" points="1005,-1168 861,-1168 861,-1132 1005,-1132 1005,-1168"/>
<text text-anchor="middle" x="933" y="-1147.1" font-family="Courier,monospace" font-size="11.00">AccessCtrlComponent</text>
</g>
<!-- \\AccessCtrlComponent&#45;&gt;\\Component -->
<g id="edge37" class="edge"><title>\\AccessCtrlComponent&#45;&gt;\\Component</title>
<path fill="none" stroke="black" d="M860.333,-1142.91C848.742,-1138.69 837.965,-1132.36 830,-1123 720.948,-994.787 869.053,-495.484 758,-369 748.311,-357.965 735.121,-350.943 721.061,-346.564"/>
<polygon fill="none" stroke="black" points="721.786,-343.135 711.222,-343.939 719.981,-349.899 721.786,-343.135"/>
</g>
<!-- \\NetCommonsTimeComponent -->
<g id="node20" class="node"><title>\\NetCommonsTimeComponent</title>
<polygon fill="none" stroke="black" points="1019,-1114 847,-1114 847,-1078 1019,-1078 1019,-1114"/>
<text text-anchor="middle" x="933" y="-1093.1" font-family="Courier,monospace" font-size="11.00">NetCommonsTimeComponent</text>
</g>
<!-- \\NetCommonsTimeComponent&#45;&gt;\\Component -->
<g id="edge39" class="edge"><title>\\NetCommonsTimeComponent&#45;&gt;\\Component</title>
<path fill="none" stroke="black" d="M846.555,-1082.49C840.343,-1078.91 834.691,-1074.47 830,-1069 626.502,-831.507 965.204,-603.266 758,-369 748.271,-358.001 735.062,-350.994 720.998,-346.62"/>
<polygon fill="none" stroke="black" points="721.72,-343.191 711.156,-343.996 719.917,-349.955 721.72,-343.191"/>
</g>
<!-- \\PermissionComponent -->
<g id="node21" class="node"><title>\\PermissionComponent</title>
<polygon fill="none" stroke="black" points="1005,-1060 861,-1060 861,-1024 1005,-1024 1005,-1060"/>
<text text-anchor="middle" x="933" y="-1039.1" font-family="Courier,monospace" font-size="11.00">PermissionComponent</text>
</g>
<!-- \\PermissionComponent&#45;&gt;\\Component -->
<g id="edge41" class="edge"><title>\\PermissionComponent&#45;&gt;\\Component</title>
<path fill="none" stroke="black" d="M860.454,-1034.81C848.851,-1030.59 838.038,-1024.3 830,-1015 641.099,-796.429 950.312,-584.576 758,-369 748.225,-358.042 734.994,-351.054 720.924,-346.686"/>
<polygon fill="none" stroke="black" points="721.644,-343.256 711.08,-344.064 719.842,-350.02 721.644,-343.256"/>
</g>
<!-- \\NetCommonsComponent -->
<g id="node22" class="node"><title>\\NetCommonsComponent</title>
<polygon fill="none" stroke="black" points="1005,-1006 861,-1006 861,-970 1005,-970 1005,-1006"/>
<text text-anchor="middle" x="933" y="-985.1" font-family="Courier,monospace" font-size="11.00">NetCommonsComponent</text>
</g>
<!-- \\NetCommonsComponent&#45;&gt;\\Component -->
<g id="edge43" class="edge"><title>\\NetCommonsComponent&#45;&gt;\\Component</title>
<path fill="none" stroke="black" d="M860.269,-980.647C848.757,-976.437 838.024,-970.191 830,-961 655.683,-761.337 935.432,-565.899 758,-369 748.227,-358.155 735.069,-351.207 721.082,-346.841"/>
<polygon fill="none" stroke="black" points="721.864,-343.426 711.298,-344.214 720.049,-350.187 721.864,-343.426"/>
</g>
<!-- \\SiteCloseController -->
<g id="node23" class="node"><title>\\SiteCloseController</title>
<polygon fill="none" stroke="black" points="1005,-1438 861,-1438 861,-1402 1005,-1402 1005,-1438"/>
<text text-anchor="middle" x="933" y="-1417.1" font-family="Courier,monospace" font-size="11.00">SiteCloseController</text>
</g>
<!-- \\SiteCloseController&#45;&gt;\\NetCommonsAppController -->
<g id="edge45" class="edge"><title>\\SiteCloseController&#45;&gt;\\NetCommonsAppController</title>
<path fill="none" stroke="black" d="M860.197,-1406.58C822.697,-1399.67 776.487,-1391.15 736.097,-1383.71"/>
<polygon fill="none" stroke="black" points="736.702,-1380.26 726.233,-1381.89 735.433,-1387.15 736.702,-1380.26"/>
</g>
<!-- \\NetCommonsController -->
<g id="node24" class="node"><title>\\NetCommonsController</title>
<polygon fill="none" stroke="black" points="1009,-1384 857,-1384 857,-1348 1009,-1348 1009,-1384"/>
<text text-anchor="middle" x="933" y="-1363.1" font-family="Courier,monospace" font-size="11.00">NetCommonsController</text>
</g>
<!-- \\NetCommonsController&#45;&gt;\\NetCommonsAppController -->
<g id="edge47" class="edge"><title>\\NetCommonsController&#45;&gt;\\NetCommonsAppController</title>
<path fill="none" stroke="black" d="M856.783,-1366C820.049,-1366 775.59,-1366 736.519,-1366"/>
<polygon fill="none" stroke="black" points="736.183,-1362.5 726.183,-1366 736.183,-1369.5 736.183,-1362.5"/>
</g>
<!-- \\NetCommonsUrl -->
<g id="node25" class="node"><title>\\NetCommonsUrl</title>
<polygon fill="none" stroke="black" points="985,-2032 881,-2032 881,-1996 985,-1996 985,-2032"/>
<text text-anchor="middle" x="933" y="-2011.1" font-family="Courier,monospace" font-size="11.00">NetCommonsUrl</text>
</g>
<!-- \\NetCommonsTime -->
<g id="node26" class="node"><title>\\NetCommonsTime</title>
<polygon fill="none" stroke="black" points="988,-1978 878,-1978 878,-1942 988,-1942 988,-1978"/>
<text text-anchor="middle" x="933" y="-1957.1" font-family="Courier,monospace" font-size="11.00">NetCommonsTime</text>
</g>
<!-- \\CurrentBase -->
<g id="node27" class="node"><title>\\CurrentBase</title>
<polygon fill="none" stroke="black" points="685,-1492 595,-1492 595,-1456 685,-1456 685,-1492"/>
<text text-anchor="middle" x="640" y="-1471.1" font-family="Courier,monospace" font-size="11.00">CurrentBase</text>
</g>
<!-- \\Current -->
<g id="node28" class="node"><title>\\Current</title>
<polygon fill="none" stroke="black" points="965,-1492 901,-1492 901,-1456 965,-1456 965,-1492"/>
<text text-anchor="middle" x="933" y="-1471.1" font-family="Courier,monospace" font-size="11.00">Current</text>
</g>
<!-- \\Current&#45;&gt;\\CurrentBase -->
<g id="edge49" class="edge"><title>\\Current&#45;&gt;\\CurrentBase</title>
<path fill="none" stroke="black" d="M900.806,-1474C851.48,-1474 756.554,-1474 695.846,-1474"/>
<polygon fill="none" stroke="black" points="695.669,-1470.5 685.669,-1474 695.669,-1477.5 695.669,-1470.5"/>
</g>
<!-- \\CurrentSystem -->
<g id="node29" class="node"><title>\\CurrentSystem</title>
<polygon fill="none" stroke="black" points="985,-1870 881,-1870 881,-1834 985,-1834 985,-1870"/>
<text text-anchor="middle" x="933" y="-1849.1" font-family="Courier,monospace" font-size="11.00">CurrentSystem</text>
</g>
<!-- \\CurrentPage -->
<g id="node30" class="node"><title>\\CurrentPage</title>
<polygon fill="none" stroke="black" points="978,-1816 888,-1816 888,-1780 978,-1780 978,-1816"/>
<text text-anchor="middle" x="933" y="-1795.1" font-family="Courier,monospace" font-size="11.00">CurrentPage</text>
</g>
<!-- \\CurrentFrame -->
<g id="node31" class="node"><title>\\CurrentFrame</title>
<polygon fill="none" stroke="black" points="982,-1762 884,-1762 884,-1726 982,-1726 982,-1762"/>
<text text-anchor="middle" x="933" y="-1741.1" font-family="Courier,monospace" font-size="11.00">CurrentFrame</text>
</g>
<!-- \\TokenHelper -->
<g id="node32" class="node"><title>\\TokenHelper</title>
<polygon fill="none" stroke="black" points="978,-898 888,-898 888,-862 978,-862 978,-898"/>
<text text-anchor="middle" x="933" y="-877.1" font-family="Courier,monospace" font-size="11.00">TokenHelper</text>
</g>
<!-- \\FormHelper -->
<g id="node88" class="node"><title>\\FormHelper</title>
<ellipse fill="none" stroke="black" cx="640" cy="-288" rx="70.9184" ry="18.3848"/>
<text text-anchor="middle" x="640" y="-284.4" font-family="Times Roman,serif" font-size="14.00" fill="gray">\FormHelper</text>
</g>
<!-- \\TokenHelper&#45;&gt;\\FormHelper -->
<g id="edge51" class="edge"><title>\\TokenHelper&#45;&gt;\\FormHelper</title>
<path fill="none" stroke="black" d="M887.282,-879.062C866.873,-876.179 844.261,-869.138 830,-853 670.252,-672.227 920.569,-493.24 758,-315 748.162,-304.213 734.974,-297.293 720.979,-292.934"/>
<polygon fill="none" stroke="black" points="721.757,-289.519 711.192,-290.31 719.944,-296.281 721.757,-289.519"/>
</g>
<!-- \\SingletonViewBlockHtmlHelper -->
<g id="node33" class="node"><title>\\SingletonViewBlockHtmlHelper</title>
<polygon fill="none" stroke="black" points="1036,-736 830,-736 830,-700 1036,-700 1036,-736"/>
<text text-anchor="middle" x="933" y="-715.1" font-family="Courier,monospace" font-size="11.00">SingletonViewBlockHtmlHelper</text>
</g>
<!-- \\HtmlHelper -->
<g id="node90" class="node"><title>\\HtmlHelper</title>
<ellipse fill="none" stroke="black" cx="640" cy="-234" rx="67.1751" ry="18.3848"/>
<text text-anchor="middle" x="640" y="-230.4" font-family="Times Roman,serif" font-size="14.00" fill="gray">HtmlHelper</text>
</g>
<!-- \\SingletonViewBlockHtmlHelper&#45;&gt;\\HtmlHelper -->
<g id="edge53" class="edge"><title>\\SingletonViewBlockHtmlHelper&#45;&gt;\\HtmlHelper</title>
<path fill="none" stroke="black" d="M839.918,-699.739C836.329,-697.175 832.992,-694.276 830,-691 699.318,-547.927 890.914,-402.002 758,-261 747.121,-249.459 732.401,-242.376 717.051,-238.126"/>
<polygon fill="none" stroke="black" points="717.444,-234.622 706.906,-235.723 715.83,-241.434 717.444,-234.622"/>
</g>
<!-- \\FormInputHelper -->
<g id="node34" class="node"><title>\\FormInputHelper</title>
<polygon fill="none" stroke="black" points="992,-2410 874,-2410 874,-2374 992,-2374 992,-2410"/>
<text text-anchor="middle" x="933" y="-2389.1" font-family="Courier,monospace" font-size="11.00">FormInputHelper</text>
</g>
<!-- \\FormInputHelper&#45;&gt;\\AppHelper -->
<g id="edge55" class="edge"><title>\\FormInputHelper&#45;&gt;\\AppHelper</title>
<path fill="none" stroke="black" d="M873.977,-2382.18C859.015,-2378.2 843.399,-2372.66 830,-2365 755.721,-2322.51 690.104,-2243.52 659.041,-2202.41"/>
<polygon fill="none" stroke="black" points="661.73,-2200.16 652.946,-2194.24 656.119,-2204.35 661.73,-2200.16"/>
</g>
<!-- \\WizardHelper -->
<g id="node35" class="node"><title>\\WizardHelper</title>
<polygon fill="none" stroke="black" points="982,-2356 884,-2356 884,-2320 982,-2320 982,-2356"/>
<text text-anchor="middle" x="933" y="-2335.1" font-family="Courier,monospace" font-size="11.00">WizardHelper</text>
</g>
<!-- \\WizardHelper&#45;&gt;\\AppHelper -->
<g id="edge57" class="edge"><title>\\WizardHelper&#45;&gt;\\AppHelper</title>
<path fill="none" stroke="black" d="M883.79,-2328.92C866.323,-2324.71 846.832,-2318.86 830,-2311 767.211,-2281.67 703.394,-2231.16 668.029,-2200.94"/>
<polygon fill="none" stroke="black" points="669.944,-2197.97 660.087,-2194.08 665.369,-2203.26 669.944,-2197.97"/>
</g>
<!-- \\DisplayNumberHelper -->
<g id="node36" class="node"><title>\\DisplayNumberHelper</title>
<polygon fill="none" stroke="black" points="1005,-2302 861,-2302 861,-2266 1005,-2266 1005,-2302"/>
<text text-anchor="middle" x="933" y="-2281.1" font-family="Courier,monospace" font-size="11.00">DisplayNumberHelper</text>
</g>
<!-- \\DisplayNumberHelper&#45;&gt;\\AppHelper -->
<g id="edge59" class="edge"><title>\\DisplayNumberHelper&#45;&gt;\\AppHelper</title>
<path fill="none" stroke="black" d="M860.288,-2266.37C850.047,-2263.47 839.707,-2260.32 830,-2257 780.27,-2239.98 725.199,-2215.9 687.206,-2198.42"/>
<polygon fill="none" stroke="black" points="688.474,-2195.15 677.929,-2194.12 685.534,-2201.5 688.474,-2195.15"/>
</g>
<!-- \\MessageFlashHelper -->
<g id="node37" class="node"><title>\\MessageFlashHelper</title>
<polygon fill="none" stroke="black" points="1002,-2248 864,-2248 864,-2212 1002,-2212 1002,-2248"/>
<text text-anchor="middle" x="933" y="-2227.1" font-family="Courier,monospace" font-size="11.00">MessageFlashHelper</text>
</g>
<!-- \\MessageFlashHelper&#45;&gt;\\AppHelper -->
<g id="edge61" class="edge"><title>\\MessageFlashHelper&#45;&gt;\\AppHelper</title>
<path fill="none" stroke="black" d="M863.934,-2217.27C810.028,-2207.34 736.492,-2193.78 688.634,-2184.96"/>
<polygon fill="none" stroke="black" points="689,-2181.47 678.532,-2183.1 687.732,-2188.36 689,-2181.47"/>
</g>
<!-- \\DateHelper -->
<g id="node38" class="node"><title>\\DateHelper</title>
<polygon fill="none" stroke="black" points="975,-2194 891,-2194 891,-2158 975,-2158 975,-2194"/>
<text text-anchor="middle" x="933" y="-2173.1" font-family="Courier,monospace" font-size="11.00">DateHelper</text>
</g>
<!-- \\DateHelper&#45;&gt;\\AppHelper -->
<g id="edge63" class="edge"><title>\\DateHelper&#45;&gt;\\AppHelper</title>
<path fill="none" stroke="black" d="M890.708,-2176C837.148,-2176 745.059,-2176 688.643,-2176"/>
<polygon fill="none" stroke="black" points="688.542,-2172.5 678.542,-2176 688.542,-2179.5 688.542,-2172.5"/>
</g>
<!-- \\SnsButtonHelper -->
<g id="node39" class="node"><title>\\SnsButtonHelper</title>
<polygon fill="none" stroke="black" points="992,-2140 874,-2140 874,-2104 992,-2104 992,-2140"/>
<text text-anchor="middle" x="933" y="-2119.1" font-family="Courier,monospace" font-size="11.00">SnsButtonHelper</text>
</g>
<!-- \\SnsButtonHelper&#45;&gt;\\AppHelper -->
<g id="edge65" class="edge"><title>\\SnsButtonHelper&#45;&gt;\\AppHelper</title>
<path fill="none" stroke="black" d="M873.707,-2132.93C819.266,-2142.96 739.563,-2157.65 688.738,-2167.02"/>
<polygon fill="none" stroke="black" points="687.863,-2163.62 678.663,-2168.87 689.131,-2170.5 687.863,-2163.62"/>
</g>
<!-- \\BackToHelper -->
<g id="node40" class="node"><title>\\BackToHelper</title>
<polygon fill="none" stroke="black" points="982,-2086 884,-2086 884,-2050 982,-2050 982,-2086"/>
<text text-anchor="middle" x="933" y="-2065.1" font-family="Courier,monospace" font-size="11.00">BackToHelper</text>
</g>
<!-- \\BackToHelper&#45;&gt;\\AppHelper -->
<g id="edge67" class="edge"><title>\\BackToHelper&#45;&gt;\\AppHelper</title>
<path fill="none" stroke="black" d="M883.836,-2079.32C866.643,-2083.69 847.316,-2089.08 830,-2095 780.27,-2112.02 725.199,-2136.1 687.206,-2153.58"/>
<polygon fill="none" stroke="black" points="685.534,-2150.5 677.929,-2157.88 688.474,-2156.85 685.534,-2150.5"/>
</g>
<!-- \\NetCommonsHtmlHelper -->
<g id="node41" class="node"><title>\\NetCommonsHtmlHelper</title>
<polygon fill="none" stroke="black" points="1009,-1924 857,-1924 857,-1888 1009,-1888 1009,-1924"/>
<text text-anchor="middle" x="933" y="-1903.1" font-family="Courier,monospace" font-size="11.00">NetCommonsHtmlHelper</text>
</g>
<!-- \\NetCommonsHtmlHelper&#45;&gt;\\AppHelper -->
<g id="edge69" class="edge"><title>\\NetCommonsHtmlHelper&#45;&gt;\\AppHelper</title>
<path fill="none" stroke="black" d="M856.858,-1919.85C847.397,-1923.3 838.186,-1927.62 830,-1933 744.042,-1989.54 680.094,-2098.07 653.531,-2148.72"/>
<polygon fill="none" stroke="black" points="650.341,-2147.27 648.865,-2157.76 656.562,-2150.48 650.341,-2147.27"/>
</g>
<!-- \\ButtonHelper -->
<g id="node42" class="node"><title>\\ButtonHelper</title>
<polygon fill="none" stroke="black" points="982,-844 884,-844 884,-808 982,-808 982,-844"/>
<text text-anchor="middle" x="933" y="-823.1" font-family="Courier,monospace" font-size="11.00">ButtonHelper</text>
</g>
<!-- \\ButtonHelper&#45;&gt;\\FormHelper -->
<g id="edge71" class="edge"><title>\\ButtonHelper&#45;&gt;\\FormHelper</title>
<path fill="none" stroke="black" d="M883.956,-824.443C864.503,-821.253 843.577,-814.139 830,-799 684.8,-637.094 905.726,-474.605 758,-315 748.083,-304.286 734.859,-297.398 720.853,-293.049"/>
<polygon fill="none" stroke="black" points="721.628,-289.634 711.063,-290.429 719.818,-296.396 721.628,-289.634"/>
</g>
<!-- \\ComposerHelper -->
<g id="node43" class="node"><title>\\ComposerHelper</title>
<polygon fill="none" stroke="black" points="988,-1708 878,-1708 878,-1672 988,-1672 988,-1708"/>
<text text-anchor="middle" x="933" y="-1687.1" font-family="Courier,monospace" font-size="11.00">ComposerHelper</text>
</g>
<!-- \\ComposerHelper&#45;&gt;\\AppHelper -->
<g id="edge73" class="edge"><title>\\ComposerHelper&#45;&gt;\\AppHelper</title>
<path fill="none" stroke="black" d="M877.461,-1694.97C860.645,-1698.83 843.164,-1705.52 830,-1717 694.066,-1835.59 653.424,-2066.8 643.102,-2147.44"/>
<polygon fill="none" stroke="black" points="639.576,-2147.44 641.84,-2157.79 646.525,-2148.29 639.576,-2147.44"/>
</g>
<!-- \\LinkButtonHelper -->
<g id="node44" class="node"><title>\\LinkButtonHelper</title>
<polygon fill="none" stroke="black" points="995,-790 871,-790 871,-754 995,-754 995,-790"/>
<text text-anchor="middle" x="933" y="-769.1" font-family="Courier,monospace" font-size="11.00">LinkButtonHelper</text>
</g>
<!-- \\LinkButtonHelper&#45;&gt;\\FormHelper -->
<g id="edge75" class="edge"><title>\\LinkButtonHelper&#45;&gt;\\FormHelper</title>
<path fill="none" stroke="black" d="M870.442,-767.412C855.337,-763.395 840.535,-756.534 830,-745 699.318,-601.927 890.914,-456.002 758,-315 747.986,-304.377 734.718,-297.531 720.698,-293.194"/>
<polygon fill="none" stroke="black" points="721.468,-289.777 710.904,-290.577 719.661,-296.54 721.468,-289.777"/>
</g>
<!-- \\TableListHelper -->
<g id="node45" class="node"><title>\\TableListHelper</title>
<polygon fill="none" stroke="black" points="992,-1654 874,-1654 874,-1618 992,-1618 992,-1654"/>
<text text-anchor="middle" x="933" y="-1633.1" font-family="Courier,monospace" font-size="11.00">TableListHelper</text>
</g>
<!-- \\TableListHelper&#45;&gt;\\AppHelper -->
<g id="edge77" class="edge"><title>\\TableListHelper&#45;&gt;\\AppHelper</title>
<path fill="none" stroke="black" d="M873.988,-1641.44C858.174,-1645.4 842.123,-1652.01 830,-1663 680.846,-1798.16 648.432,-2061.13 641.693,-2147.65"/>
<polygon fill="none" stroke="black" points="638.192,-2147.53 640.962,-2157.76 645.174,-2148.04 638.192,-2147.53"/>
</g>
<!-- \\NetCommonsTimeHelper -->
<g id="node46" class="node"><title>\\NetCommonsTimeHelper</title>
<polygon fill="none" stroke="black" points="1009,-1600 857,-1600 857,-1564 1009,-1564 1009,-1600"/>
<text text-anchor="middle" x="933" y="-1579.1" font-family="Courier,monospace" font-size="11.00">NetCommonsTimeHelper</text>
</g>
<!-- \\NetCommonsTimeHelper&#45;&gt;\\AppHelper -->
<g id="edge79" class="edge"><title>\\NetCommonsTimeHelper&#45;&gt;\\AppHelper</title>
<path fill="none" stroke="black" d="M856.996,-1592.53C847.071,-1596.47 837.696,-1601.8 830,-1609 747.245,-1686.39 667.482,-2044.01 645.771,-2147.73"/>
<polygon fill="none" stroke="black" points="642.293,-2147.26 643.686,-2157.77 649.147,-2148.69 642.293,-2147.26"/>
</g>
<!-- \\NetCommonsFormHelper -->
<g id="node47" class="node"><title>\\NetCommonsFormHelper</title>
<polygon fill="none" stroke="black" points="1009,-2572 857,-2572 857,-2536 1009,-2536 1009,-2572"/>
<text text-anchor="middle" x="933" y="-2551.1" font-family="Courier,monospace" font-size="11.00">NetCommonsFormHelper</text>
</g>
<!-- \\NetCommonsFormHelper&#45;&gt;\\AppHelper -->
<g id="edge81" class="edge"><title>\\NetCommonsFormHelper&#45;&gt;\\AppHelper</title>
<path fill="none" stroke="black" d="M856.747,-2541.71C847.144,-2538.02 837.925,-2533.22 830,-2527 719.54,-2440.29 664.898,-2270.9 646.922,-2204.07"/>
<polygon fill="none" stroke="black" points="650.271,-2203.04 644.349,-2194.26 643.499,-2204.82 650.271,-2203.04"/>
</g>
<!-- \\TitleIconHelper -->
<g id="node48" class="node"><title>\\TitleIconHelper</title>
<polygon fill="none" stroke="black" points="992,-2518 874,-2518 874,-2482 992,-2482 992,-2518"/>
<text text-anchor="middle" x="933" y="-2497.1" font-family="Courier,monospace" font-size="11.00">TitleIconHelper</text>
</g>
<!-- \\TitleIconHelper&#45;&gt;\\AppHelper -->
<g id="edge83" class="edge"><title>\\TitleIconHelper&#45;&gt;\\AppHelper</title>
<path fill="none" stroke="black" d="M873.801,-2492.4C858.513,-2488.4 842.78,-2482.3 830,-2473 779.522,-2436.27 688.866,-2269.53 654.1,-2203.27"/>
<polygon fill="none" stroke="black" points="657.121,-2201.49 649.388,-2194.25 650.916,-2204.73 657.121,-2201.49"/>
</g>
<!-- \\DatetimePickerHelper -->
<g id="node49" class="node"><title>\\DatetimePickerHelper</title>
<polygon fill="none" stroke="black" points="1009,-2464 857,-2464 857,-2428 1009,-2428 1009,-2464"/>
<text text-anchor="middle" x="933" y="-2443.1" font-family="Courier,monospace" font-size="11.00">DatetimePickerHelper</text>
</g>
<!-- \\DatetimePickerHelper&#45;&gt;\\AppHelper -->
<g id="edge85" class="edge"><title>\\DatetimePickerHelper&#45;&gt;\\AppHelper</title>
<path fill="none" stroke="black" d="M856.858,-2432.15C847.397,-2428.7 838.186,-2424.38 830,-2419 744.042,-2362.46 680.094,-2253.93 653.531,-2203.28"/>
<polygon fill="none" stroke="black" points="656.562,-2201.52 648.865,-2194.24 650.341,-2204.73 656.562,-2201.52"/>
</g>
<!-- \\Model -->
<g id="node108" class="node"><title>\\Model</title>
<ellipse fill="none" stroke="black" cx="82" cy="-2608" rx="43.8406" ry="18.3848"/>
<text text-anchor="middle" x="82" y="-2604.4" font-family="Times Roman,serif" font-size="14.00" fill="gray">\Model</text>
</g>
<!-- \\NetCommonsAppModel&#45;&gt;\\Model -->
<g id="edge87" class="edge"><title>\\NetCommonsAppModel&#45;&gt;\\Model</title>
<path fill="none" stroke="black" d="M273.742,-2608C230.675,-2608 176.099,-2608 136.195,-2608"/>
<polygon fill="none" stroke="black" points="136.125,-2604.5 126.125,-2608 136.125,-2611.5 136.125,-2604.5"/>
</g>
<!-- \\OriginalKeyBehavior -->
<g id="node51" class="node"><title>\\OriginalKeyBehavior</title>
<polygon fill="none" stroke="black" points="1005,-628 861,-628 861,-592 1005,-592 1005,-628"/>
<text text-anchor="middle" x="933" y="-607.1" font-family="Courier,monospace" font-size="11.00">OriginalKeyBehavior</text>
</g>
<!-- \\ModelBehavior -->
<g id="node110" class="node"><title>\\ModelBehavior</title>
<ellipse fill="none" stroke="black" cx="640" cy="-180" rx="86.9741" ry="18.3848"/>
<text text-anchor="middle" x="640" y="-176.4" font-family="Times Roman,serif" font-size="14.00" fill="gray">\ModelBehavior</text>
</g>
<!-- \\OriginalKeyBehavior&#45;&gt;\\ModelBehavior -->
<g id="edge89" class="edge"><title>\\OriginalKeyBehavior&#45;&gt;\\ModelBehavior</title>
<path fill="none" stroke="black" d="M860.253,-601.995C848.886,-597.838 838.206,-591.777 830,-583 713.795,-458.716 876.143,-329.443 758,-207 750.646,-199.379 741.615,-193.712 731.852,-189.525"/>
<polygon fill="none" stroke="black" points="732.89,-186.176 722.298,-185.949 730.436,-192.732 732.89,-186.176"/>
</g>
<!-- \\TrackableBehavior -->
<g id="node52" class="node"><title>\\TrackableBehavior</title>
<polygon fill="none" stroke="black" points="998,-682 868,-682 868,-646 998,-646 998,-682"/>
<text text-anchor="middle" x="933" y="-661.1" font-family="Courier,monospace" font-size="11.00">TrackableBehavior</text>
</g>
<!-- \\TrackableBehavior&#45;&gt;\\ModelBehavior -->
<g id="edge91" class="edge"><title>\\TrackableBehavior&#45;&gt;\\ModelBehavior</title>
<path fill="none" stroke="black" d="M867.497,-658.591C853.428,-654.482 839.849,-647.783 830,-637 699.318,-493.927 890.914,-348.002 758,-207 750.736,-199.293 741.758,-193.575 732.025,-189.36"/>
<polygon fill="none" stroke="black" points="733.083,-186.019 722.491,-185.764 730.613,-192.568 733.083,-186.019"/>
</g>
<!-- \\YAExceptionRenderer -->
<g id="node53" class="node"><title>\\YAExceptionRenderer</title>
<polygon fill="none" stroke="black" points="1005,-574 861,-574 861,-538 1005,-538 1005,-574"/>
<text text-anchor="middle" x="933" y="-553.1" font-family="Courier,monospace" font-size="11.00">YAExceptionRenderer</text>
</g>
<!-- \\ExceptionRenderer -->
<g id="node113" class="node"><title>\\ExceptionRenderer</title>
<ellipse fill="none" stroke="black" cx="640" cy="-126" rx="118.087" ry="18.3848"/>
<text text-anchor="middle" x="640" y="-122.4" font-family="Times Roman,serif" font-size="14.00" fill="gray">TEHxceptionRenderer</text>
</g>
<!-- \\YAExceptionRenderer&#45;&gt;\\ExceptionRenderer -->
<g id="edge93" class="edge"><title>\\YAExceptionRenderer&#45;&gt;\\ExceptionRenderer</title>
<path fill="none" stroke="black" d="M860.253,-547.995C848.886,-543.838 838.206,-537.777 830,-529 713.795,-404.716 876.143,-275.443 758,-153 753.747,-148.592 748.932,-144.837 743.739,-141.645"/>
<polygon fill="none" stroke="black" points="745.142,-138.426 734.675,-136.787 741.836,-144.596 745.142,-138.426"/>
</g>
<!-- \\NetCommonsMigration -->
<g id="node54" class="node"><title>\\NetCommonsMigration</title>
<polygon fill="none" stroke="black" points="1005,-520 861,-520 861,-484 1005,-484 1005,-520"/>
<text text-anchor="middle" x="933" y="-499.1" font-family="Courier,monospace" font-size="11.00">NetCommonsMigration</text>
</g>
<!-- \\CakeMigration -->
<g id="node115" class="node"><title>\\CakeMigration</title>
<ellipse fill="none" stroke="black" cx="640" cy="-72" rx="84.8528" ry="18.3848"/>
<text text-anchor="middle" x="640" y="-68.4" font-family="Times Roman,serif" font-size="14.00" fill="gray">\CakeMigration</text>
</g>
<!-- \\NetCommonsMigration&#45;&gt;\\CakeMigration -->
<g id="edge95" class="edge"><title>\\NetCommonsMigration&#45;&gt;\\CakeMigration</title>
<path fill="none" stroke="black" d="M860.253,-493.995C848.886,-489.838 838.206,-483.777 830,-475 713.795,-350.716 876.143,-221.443 758,-99 750.347,-91.0685 740.877,-85.2535 730.656,-81.0209"/>
<polygon fill="none" stroke="black" points="731.684,-77.6706 721.089,-77.5632 729.304,-84.2538 731.684,-77.6706"/>
</g>
<!-- \\RoomSpaceComponent -->
<g id="node55" class="node"><title>\\RoomSpaceComponent</title>
<polygon fill="none" stroke="black" points="1002,-952 864,-952 864,-916 1002,-916 1002,-952"/>
<text text-anchor="middle" x="933" y="-931.1" font-family="Courier,monospace" font-size="11.00">RoomSpaceComponent</text>
</g>
<!-- \\RoomSpaceComponent&#45;&gt;\\Component -->
<g id="edge97" class="edge"><title>\\RoomSpaceComponent&#45;&gt;\\Component</title>
<path fill="none" stroke="black" d="M863.784,-927.75C850.984,-923.563 838.875,-917.043 830,-907 670.252,-726.227 920.569,-547.24 758,-369 748.162,-358.213 734.974,-351.293 720.979,-346.934"/>
<polygon fill="none" stroke="black" points="721.757,-343.519 711.192,-344.31 719.944,-350.281 721.757,-343.519"/>
</g>
<!-- \\RoomSpace -->
<g id="node56" class="node"><title>\\RoomSpace</title>
<polygon fill="none" stroke="black" points="971,-466 895,-466 895,-430 971,-430 971,-466"/>
<text text-anchor="middle" x="933" y="-445.1" font-family="Courier,monospace" font-size="11.00">RoomSpace</text>
</g>
<!-- \\Space -->
<g id="node118" class="node"><title>\\Space</title>
<ellipse fill="none" stroke="black" cx="640" cy="-18" rx="43.8406" ry="18.3848"/>
<text text-anchor="middle" x="640" y="-14.4" font-family="Times Roman,serif" font-size="14.00" fill="gray">\Space</text>
</g>
<!-- \\RoomSpace&#45;&gt;\\Space -->
<g id="edge99" class="edge"><title>\\RoomSpace&#45;&gt;\\Space</title>
<path fill="none" stroke="black" d="M930.861,-429.713C922.367,-365.789 885.044,-150.503 758,-45 740.274,-30.2799 716.089,-23.2159 694.227,-19.9502"/>
<polygon fill="none" stroke="black" points="694.409,-16.4456 684.05,-18.6691 693.535,-23.3908 694.409,-16.4456"/>
</g>
</g>
</svg>
