<?xml version="1.0" encoding="UTF-8" standalone="no"?>
<!DOCTYPE svg PUBLIC "-//W3C//DTD SVG 1.1//EN"
 "http://www.w3.org/Graphics/SVG/1.1/DTD/svg11.dtd">
<!-- Generated by graphviz version 2.26.3 (20100126.1600)
 -->
<!-- Title: G Pages: 1 -->
<svg width="1060pt" height="2726pt"
 viewBox="0.00 0.00 1060.00 2726.00" xmlns="http://www.w3.org/2000/svg" xmlns:xlink="http://www.w3.org/1999/xlink">
<g id="graph1" class="graph" transform="scale(1 1) rotate(0) translate(4 2722)">
<title>G</title>
<polygon fill="white" stroke="white" points="-4,5 -4,-2722 1057,-2722 1057,5 -4,5"/>
<g id="graph2" class="cluster"><title>cluster_Global</title>
<polyline fill="none" stroke="gray" points="264,-422 1032,-422 "/>
<path fill="none" stroke="gray" d="M1032,-422C1038,-422 1044,-428 1044,-434"/>
<polyline fill="none" stroke="gray" points="1044,-434 1044,-2698 "/>
<path fill="none" stroke="gray" d="M1044,-2698C1044,-2704 1038,-2710 1032,-2710"/>
<polyline fill="none" stroke="gray" points="1032,-2710 264,-2710 "/>
<path fill="none" stroke="gray" d="M264,-2710C258,-2710 252,-2704 252,-2698"/>
<polyline fill="none" stroke="gray" points="252,-2698 252,-434 "/>
<path fill="none" stroke="gray" d="M252,-434C252,-428 258,-422 264,-422"/>
<text text-anchor="middle" x="648" y="-2696.1" font-family="Times Roman,serif" font-size="11.00" fill="gray">Global</text>
</g>
<!-- \\AppController -->
<g id="node2" class="node"><title>\\AppController</title>
<polygon fill="none" stroke="black" points="985,-1276 881,-1276 881,-1240 985,-1240 985,-1276"/>
<text text-anchor="middle" x="933" y="-1255.1" font-family="Courier,monospace" font-size="11.00">AppController</text>
</g>
<!-- \\Controller -->
<g id="node55" class="node"><title>\\Controller</title>
<ellipse fill="none" stroke="black" cx="343" cy="-288" rx="63.1385" ry="18.3848"/>
<text text-anchor="middle" x="343" y="-284.4" font-family="Times Roman,serif" font-size="14.00" fill="gray">\Controller</text>
</g>
<!-- \\AppController&#45;&gt;\\Controller -->
<g id="edge3" class="edge"><title>\\AppController&#45;&gt;\\Controller</title>
<path fill="none" stroke="black" d="M880.925,-1253.78C863.076,-1250.06 844.074,-1243.27 830,-1231 788.47,-1194.8 491.696,-351.011 450,-315 439.774,-306.169 427.062,-300.154 414.01,-296.074"/>
<polygon fill="none" stroke="black" points="414.568,-292.598 403.998,-293.317 412.71,-299.347 414.568,-292.598"/>
</g>
<!-- \\AppModel -->
<g id="node3" class="node"><title>\\AppModel</title>
<polygon fill="none" stroke="black" points="675,-2464 605,-2464 605,-2428 675,-2428 675,-2464"/>
<text text-anchor="middle" x="640" y="-2443.1" font-family="Courier,monospace" font-size="11.00">AppModel</text>
</g>
<!-- \\NetCommonsAppModel -->
<g id="node47" class="node"><title>\\NetCommonsAppModel</title>
<polygon fill="none" stroke="black" points="412,-2464 274,-2464 274,-2428 412,-2428 412,-2464"/>
<text text-anchor="middle" x="343" y="-2443.1" font-family="Courier,monospace" font-size="11.00">NetCommonsAppModel</text>
</g>
<!-- \\AppModel&#45;&gt;\\NetCommonsAppModel -->
<g id="edge5" class="edge"><title>\\AppModel&#45;&gt;\\NetCommonsAppModel</title>
<path fill="none" stroke="black" d="M604.47,-2446C559.713,-2446 481.497,-2446 422.241,-2446"/>
<polygon fill="none" stroke="black" points="422.157,-2442.5 412.157,-2446 422.157,-2449.5 422.157,-2442.5"/>
</g>
<!-- \\DatabaseConfiguration -->
<g id="node4" class="node"><title>\\DatabaseConfiguration</title>
<polygon fill="none" stroke="black" points="1012,-2464 854,-2464 854,-2428 1012,-2428 1012,-2464"/>
<text text-anchor="middle" x="933" y="-2443.1" font-family="Courier,monospace" font-size="11.00">DatabaseConfiguration</text>
</g>
<!-- \\DatabaseConfiguration&#45;&gt;\\AppModel -->
<g id="edge7" class="edge"><title>\\DatabaseConfiguration&#45;&gt;\\AppModel</title>
<path fill="none" stroke="black" d="M853.71,-2446C799.937,-2446 730.74,-2446 685.886,-2446"/>
<polygon fill="none" stroke="black" points="685.866,-2442.5 675.866,-2446 685.866,-2449.5 685.866,-2442.5"/>
</g>
<!-- \\AppHelper -->
<g id="node5" class="node"><title>\\AppHelper</title>
<polygon fill="none" stroke="black" points="678,-2059 602,-2059 602,-2023 678,-2023 678,-2059"/>
<text text-anchor="middle" x="640" y="-2038.1" font-family="Courier,monospace" font-size="11.00">AppHelper</text>
</g>
<!-- \\Helper -->
<g id="node59" class="node"><title>\\Helper</title>
<ellipse fill="none" stroke="black" cx="343" cy="-396" rx="43.8406" ry="18.3848"/>
<text text-anchor="middle" x="343" y="-392.4" font-family="Times Roman,serif" font-size="14.00" fill="gray">Helper</text>
</g>
<!-- \\AppHelper&#45;&gt;\\Helper -->
<g id="edge9" class="edge"><title>\\AppHelper&#45;&gt;\\Helper</title>
<path fill="none" stroke="black" d="M635.475,-2022.67C617.772,-1950.17 552.668,-1676.27 522,-1447 506.804,-1333.4 525.482,-504.247 450,-418 436.811,-402.93 416.298,-396.55 396.747,-394.253"/>
<polygon fill="none" stroke="black" points="396.913,-390.755 386.654,-393.401 396.324,-397.73 396.913,-390.755"/>
</g>
<!-- \\NetCommonsDeleteTest -->
<g id="node6" class="node"><title>\\NetCommonsDeleteTest</title>
<polygon fill="none" stroke="black" points="1009,-2572 857,-2572 857,-2536 1009,-2536 1009,-2572"/>
<text text-anchor="middle" x="933" y="-2551.1" font-family="Courier,monospace" font-size="11.00">NetCommonsDeleteTest</text>
</g>
<!-- \\NetCommonsModelTestCase -->
<g id="node15" class="node"><title>\\NetCommonsModelTestCase</title>
<polygon fill="none" stroke="black" points="726,-2599 554,-2599 554,-2563 726,-2563 726,-2599"/>
<text text-anchor="middle" x="640" y="-2578.1" font-family="Courier,monospace" font-size="11.00">NetCommonsModelTestCase</text>
</g>
<!-- \\NetCommonsDeleteTest&#45;&gt;\\NetCommonsModelTestCase -->
<g id="edge11" class="edge"><title>\\NetCommonsDeleteTest&#45;&gt;\\NetCommonsModelTestCase</title>
<path fill="none" stroke="black" d="M856.783,-2561.02C820.049,-2564.41 775.59,-2568.51 736.519,-2572.11"/>
<polygon fill="none" stroke="black" points="735.82,-2568.66 726.183,-2573.06 736.462,-2575.63 735.82,-2568.66"/>
</g>
<!-- \\NetCommonsConsoleTestCase -->
<g id="node7" class="node"><title>\\NetCommonsConsoleTestCase</title>
<polygon fill="none" stroke="black" points="732,-2545 548,-2545 548,-2509 732,-2509 732,-2545"/>
<text text-anchor="middle" x="640" y="-2524.1" font-family="Courier,monospace" font-size="11.00">NetCommonsConsoleTestCase</text>
</g>
<!-- \\NetCommonsCakeTestCase -->
<g id="node13" class="node"><title>\\NetCommonsCakeTestCase</title>
<polygon fill="none" stroke="black" points="425,-2599 261,-2599 261,-2563 425,-2563 425,-2599"/>
<text text-anchor="middle" x="343" y="-2578.1" font-family="Courier,monospace" font-size="11.00">NetCommonsCakeTestCase</text>
</g>
<!-- \\NetCommonsConsoleTestCase&#45;&gt;\\NetCommonsCakeTestCase -->
<g id="edge13" class="edge"><title>\\NetCommonsConsoleTestCase&#45;&gt;\\NetCommonsCakeTestCase</title>
<path fill="none" stroke="black" d="M547.249,-2543.86C511.778,-2550.31 471.343,-2557.66 435.861,-2564.12"/>
<polygon fill="none" stroke="black" points="435.206,-2560.68 425.993,-2565.91 436.458,-2567.56 435.206,-2560.68"/>
</g>
<!-- \\NetCommonsGetTest -->
<g id="node8" class="node"><title>\\NetCommonsGetTest</title>
<polygon fill="none" stroke="black" points="998,-2518 868,-2518 868,-2482 998,-2482 998,-2518"/>
<text text-anchor="middle" x="933" y="-2497.1" font-family="Courier,monospace" font-size="11.00">NetCommonsGetTest</text>
</g>
<!-- \\NetCommonsGetTest&#45;&gt;\\NetCommonsModelTestCase -->
<g id="edge15" class="edge"><title>\\NetCommonsGetTest&#45;&gt;\\NetCommonsModelTestCase</title>
<path fill="none" stroke="black" d="M867.325,-2516.14C854.864,-2519.51 841.981,-2523.19 830,-2527 797.428,-2537.35 790.731,-2544.17 758,-2554 750.57,-2556.23 742.83,-2558.38 735.023,-2560.43"/>
<polygon fill="none" stroke="black" points="733.938,-2557.09 725.116,-2562.96 735.671,-2563.87 733.938,-2557.09"/>
</g>
<!-- \\NetCommonsHelperTestCase -->
<g id="node9" class="node"><title>\\NetCommonsHelperTestCase</title>
<polygon fill="none" stroke="black" points="729,-2653 551,-2653 551,-2617 729,-2617 729,-2653"/>
<text text-anchor="middle" x="640" y="-2632.1" font-family="Courier,monospace" font-size="11.00">NetCommonsHelperTestCase</text>
</g>
<!-- \\NetCommonsHelperTestCase&#45;&gt;\\NetCommonsCakeTestCase -->
<g id="edge17" class="edge"><title>\\NetCommonsHelperTestCase&#45;&gt;\\NetCommonsCakeTestCase</title>
<path fill="none" stroke="black" d="M550.487,-2618.72C514.267,-2612.14 472.456,-2604.54 435.9,-2597.89"/>
<polygon fill="none" stroke="black" points="436.202,-2594.39 425.737,-2596.04 434.95,-2601.28 436.202,-2594.39"/>
</g>
<!-- \\NetCommonsControllerBaseTestCase -->
<g id="node10" class="node"><title>\\NetCommonsControllerBaseTestCase</title>
<polygon fill="none" stroke="black" points="756,-1438 524,-1438 524,-1402 756,-1402 756,-1438"/>
<text text-anchor="middle" x="640" y="-1417.1" font-family="Courier,monospace" font-size="11.00">NetCommonsControllerBaseTestCase</text>
</g>
<!-- \\ControllerTestCase -->
<g id="node65" class="node"><title>\\ControllerTestCase</title>
<ellipse fill="none" stroke="black" cx="343" cy="-342" rx="106.773" ry="18.3848"/>
<text text-anchor="middle" x="343" y="-338.4" font-family="Times Roman,serif" font-size="14.00" fill="gray">\ControllerTestCase</text>
</g>
<!-- \\NetCommonsControllerBaseTestCase&#45;&gt;\\ControllerTestCase -->
<g id="edge19" class="edge"><title>\\NetCommonsControllerBaseTestCase&#45;&gt;\\ControllerTestCase</title>
<path fill="none" stroke="black" d="M531.507,-1401.99C528.063,-1399.34 524.87,-1396.35 522,-1393 373.647,-1219.71 596.417,-543.927 450,-369 446.388,-364.684 442.196,-361.004 437.604,-357.869"/>
<polygon fill="none" stroke="black" points="439.345,-354.833 428.948,-352.797 435.807,-360.872 439.345,-354.833"/>
</g>
<!-- \\NetCommonsValidateTest -->
<g id="node11" class="node"><title>\\NetCommonsValidateTest</title>
<polygon fill="none" stroke="black" points="1015,-2680 851,-2680 851,-2644 1015,-2644 1015,-2680"/>
<text text-anchor="middle" x="933" y="-2659.1" font-family="Courier,monospace" font-size="11.00">NetCommonsValidateTest</text>
</g>
<!-- \\NetCommonsValidateTest&#45;&gt;\\NetCommonsModelTestCase -->
<g id="edge21" class="edge"><title>\\NetCommonsValidateTest&#45;&gt;\\NetCommonsModelTestCase</title>
<path fill="none" stroke="black" d="M860.418,-2643.97C850.158,-2641.13 839.778,-2638.11 830,-2635 797.428,-2624.65 790.731,-2617.83 758,-2608 750.57,-2605.77 742.83,-2603.62 735.023,-2601.57"/>
<polygon fill="none" stroke="black" points="735.671,-2598.13 725.116,-2599.04 733.938,-2604.91 735.671,-2598.13"/>
</g>
<!-- \\NetCommonsTestSuite -->
<g id="node12" class="node"><title>\\NetCommonsTestSuite</title>
<polygon fill="none" stroke="black" points="1005,-1222 861,-1222 861,-1186 1005,-1186 1005,-1222"/>
<text text-anchor="middle" x="933" y="-1201.1" font-family="Courier,monospace" font-size="11.00">NetCommonsTestSuite</text>
</g>
<!-- \\CakeTestSuite -->
<g id="node68" class="node"><title>\\CakeTestSuite</title>
<ellipse fill="none" stroke="black" cx="640" cy="-396" rx="84.1457" ry="18.3848"/>
<text text-anchor="middle" x="640" y="-392.4" font-family="Times Roman,serif" font-size="14.00" fill="gray">\CakeTestSuite</text>
</g>
<!-- \\NetCommonsTestSuite&#45;&gt;\\CakeTestSuite -->
<g id="edge23" class="edge"><title>\\NetCommonsTestSuite&#45;&gt;\\CakeTestSuite</title>
<path fill="none" stroke="black" d="M860.328,-1196.92C848.737,-1192.69 837.962,-1186.37 830,-1177 720.272,-1047.91 872.306,-543.054 758,-418 751.146,-410.501 742.623,-405.061 733.316,-401.167"/>
<polygon fill="none" stroke="black" points="734.374,-397.828 723.78,-397.769 732.025,-404.422 734.374,-397.828"/>
</g>
<!-- \\CakeTestCase -->
<g id="node70" class="node"><title>\\CakeTestCase</title>
<ellipse fill="none" stroke="black" cx="82" cy="-2581" rx="82.0244" ry="18.3848"/>
<text text-anchor="middle" x="82" y="-2577.4" font-family="Times Roman,serif" font-size="14.00" fill="gray">\CakeTestCase</text>
</g>
<!-- \\NetCommonsCakeTestCase&#45;&gt;\\CakeTestCase -->
<g id="edge25" class="edge"><title>\\NetCommonsCakeTestCase&#45;&gt;\\CakeTestCase</title>
<path fill="none" stroke="black" d="M260.418,-2581C233.018,-2581 202.345,-2581 174.263,-2581"/>
<polygon fill="none" stroke="black" points="174.045,-2577.5 164.045,-2581 174.045,-2584.5 174.045,-2577.5"/>
</g>
<!-- \\NetCommonsSaveTest -->
<g id="node14" class="node"><title>\\NetCommonsSaveTest</title>
<polygon fill="none" stroke="black" points="1002,-2626 864,-2626 864,-2590 1002,-2590 1002,-2626"/>
<text text-anchor="middle" x="933" y="-2605.1" font-family="Courier,monospace" font-size="11.00">NetCommonsSaveTest</text>
</g>
<!-- \\NetCommonsSaveTest&#45;&gt;\\NetCommonsModelTestCase -->
<g id="edge27" class="edge"><title>\\NetCommonsSaveTest&#45;&gt;\\NetCommonsModelTestCase</title>
<path fill="none" stroke="black" d="M863.934,-2601.64C825.875,-2598.13 778.032,-2593.72 736.349,-2589.88"/>
<polygon fill="none" stroke="black" points="736.452,-2586.37 726.172,-2588.94 735.809,-2593.34 736.452,-2586.37"/>
</g>
<!-- \\NetCommonsModelTestCase&#45;&gt;\\NetCommonsCakeTestCase -->
<g id="edge29" class="edge"><title>\\NetCommonsModelTestCase&#45;&gt;\\NetCommonsCakeTestCase</title>
<path fill="none" stroke="black" d="M553.696,-2581C516.829,-2581 473.718,-2581 436.131,-2581"/>
<polygon fill="none" stroke="black" points="435.686,-2577.5 425.686,-2581 435.686,-2584.5 435.686,-2577.5"/>
</g>
<!-- \\NetCommonsControllerTestCase -->
<g id="node16" class="node"><title>\\NetCommonsControllerTestCase</title>
<polygon fill="none" stroke="black" points="1036,-1438 830,-1438 830,-1402 1036,-1402 1036,-1438"/>
<text text-anchor="middle" x="933" y="-1417.1" font-family="Courier,monospace" font-size="11.00">NetCommonsControllerTestCase</text>
</g>
<!-- \\NetCommonsControllerTestCase&#45;&gt;\\NetCommonsControllerBaseTestCase -->
<g id="edge31" class="edge"><title>\\NetCommonsControllerTestCase&#45;&gt;\\NetCommonsControllerBaseTestCase</title>
<path fill="none" stroke="black" d="M829.699,-1420C809.381,-1420 787.845,-1420 766.858,-1420"/>
<polygon fill="none" stroke="black" points="766.606,-1416.5 756.606,-1420 766.606,-1423.5 766.606,-1416.5"/>
</g>
<!-- \\NetCommonsAppController -->
<g id="node17" class="node"><title>\\NetCommonsAppController</title>
<polygon fill="none" stroke="black" points="726,-1122 554,-1122 554,-1086 726,-1086 726,-1122"/>
<text text-anchor="middle" x="640" y="-1101.1" font-family="Courier,monospace" font-size="11.00">NetCommonsAppController</text>
</g>
<!-- \\NetCommonsAppController&#45;&gt;\\Controller -->
<g id="edge33" class="edge"><title>\\NetCommonsAppController&#45;&gt;\\Controller</title>
<path fill="none" stroke="black" d="M553.827,-1101.49C541.758,-1097.55 530.572,-1091.39 522,-1082 406.562,-955.583 561.409,-444.982 450,-315 441.021,-304.524 428.625,-297.805 415.446,-293.559"/>
<polygon fill="none" stroke="black" points="416.319,-290.169 405.749,-290.885 414.459,-296.917 416.319,-290.169"/>
</g>
<!-- \\AssetComponent -->
<g id="node18" class="node"><title>\\AssetComponent</title>
<polygon fill="none" stroke="black" points="988,-1006 878,-1006 878,-970 988,-970 988,-1006"/>
<text text-anchor="middle" x="933" y="-985.1" font-family="Courier,monospace" font-size="11.00">AssetComponent</text>
</g>
<!-- \\Component -->
<g id="node76" class="node"><title>\\Component</title>
<ellipse fill="none" stroke="black" cx="640" cy="-342" rx="70.9184" ry="18.3848"/>
<text text-anchor="middle" x="640" y="-338.4" font-family="Times Roman,serif" font-size="14.00" fill="gray">\Component</text>
</g>
<!-- \\AssetComponent&#45;&gt;\\Component -->
<g id="edge35" class="edge"><title>\\AssetComponent&#45;&gt;\\Component</title>
<path fill="none" stroke="black" d="M877.342,-985.436C859.801,-981.802 841.915,-974.647 830,-961 655.683,-761.337 935.432,-565.899 758,-369 748.227,-358.155 735.069,-351.207 721.082,-346.841"/>
<polygon fill="none" stroke="black" points="721.864,-343.426 711.298,-344.214 720.049,-350.187 721.864,-343.426"/>
</g>
<!-- \\NetCommonsTimeComponent -->
<g id="node19" class="node"><title>\\NetCommonsTimeComponent</title>
<polygon fill="none" stroke="black" points="1019,-952 847,-952 847,-916 1019,-916 1019,-952"/>
<text text-anchor="middle" x="933" y="-931.1" font-family="Courier,monospace" font-size="11.00">NetCommonsTimeComponent</text>
</g>
<!-- \\NetCommonsTimeComponent&#45;&gt;\\Component -->
<g id="edge37" class="edge"><title>\\NetCommonsTimeComponent&#45;&gt;\\Component</title>
<path fill="none" stroke="black" d="M846.734,-920.334C840.484,-916.785 834.774,-912.402 830,-907 670.252,-726.227 920.569,-547.24 758,-369 748.162,-358.213 734.974,-351.293 720.979,-346.934"/>
<polygon fill="none" stroke="black" points="721.757,-343.519 711.192,-344.31 719.944,-350.281 721.757,-343.519"/>
</g>
<!-- \\PermissionComponent -->
<g id="node20" class="node"><title>\\PermissionComponent</title>
<polygon fill="none" stroke="black" points="1005,-1168 861,-1168 861,-1132 1005,-1132 1005,-1168"/>
<text text-anchor="middle" x="933" y="-1147.1" font-family="Courier,monospace" font-size="11.00">PermissionComponent</text>
</g>
<!-- \\PermissionComponent&#45;&gt;\\Component -->
<g id="edge39" class="edge"><title>\\PermissionComponent&#45;&gt;\\Component</title>
<path fill="none" stroke="black" d="M860.333,-1142.91C848.742,-1138.69 837.965,-1132.36 830,-1123 720.948,-994.787 869.053,-495.484 758,-369 748.311,-357.965 735.121,-350.943 721.061,-346.564"/>
<polygon fill="none" stroke="black" points="721.786,-343.135 711.222,-343.939 719.981,-349.899 721.786,-343.135"/>
</g>
<!-- \\NetCommonsComponent -->
<g id="node21" class="node"><title>\\NetCommonsComponent</title>
<polygon fill="none" stroke="black" points="1005,-1114 861,-1114 861,-1078 1005,-1078 1005,-1114"/>
<text text-anchor="middle" x="933" y="-1093.1" font-family="Courier,monospace" font-size="11.00">NetCommonsComponent</text>
</g>
<!-- \\NetCommonsComponent&#45;&gt;\\Component -->
<g id="edge41" class="edge"><title>\\NetCommonsComponent&#45;&gt;\\Component</title>
<path fill="none" stroke="black" d="M860.389,-1088.86C848.792,-1084.64 837.999,-1078.34 830,-1069 626.502,-831.507 965.204,-603.266 758,-369 748.271,-358.001 735.062,-350.994 720.998,-346.62"/>
<polygon fill="none" stroke="black" points="721.72,-343.191 711.156,-343.996 719.917,-349.955 721.72,-343.191"/>
</g>
<!-- \\NetCommonsController -->
<g id="node22" class="node"><title>\\NetCommonsController</title>
<polygon fill="none" stroke="black" points="1009,-1330 857,-1330 857,-1294 1009,-1294 1009,-1330"/>
<text text-anchor="middle" x="933" y="-1309.1" font-family="Courier,monospace" font-size="11.00">NetCommonsController</text>
</g>
<!-- \\NetCommonsController&#45;&gt;\\NetCommonsAppController -->
<g id="edge43" class="edge"><title>\\NetCommonsController&#45;&gt;\\NetCommonsAppController</title>
<path fill="none" stroke="black" d="M856.745,-1296.72C847.452,-1293.5 838.315,-1289.64 830,-1285 757.38,-1244.5 691.731,-1169.74 660.027,-1130.17"/>
<polygon fill="none" stroke="black" points="662.736,-1127.95 653.786,-1122.28 657.247,-1132.29 662.736,-1127.95"/>
</g>
<!-- \\NetCommonsUrl -->
<g id="node23" class="node"><title>\\NetCommonsUrl</title>
<polygon fill="none" stroke="black" points="985,-1978 881,-1978 881,-1942 985,-1942 985,-1978"/>
<text text-anchor="middle" x="933" y="-1957.1" font-family="Courier,monospace" font-size="11.00">NetCommonsUrl</text>
</g>
<!-- \\NetCommonsTime -->
<g id="node24" class="node"><title>\\NetCommonsTime</title>
<polygon fill="none" stroke="black" points="988,-1924 878,-1924 878,-1888 988,-1888 988,-1924"/>
<text text-anchor="middle" x="933" y="-1903.1" font-family="Courier,monospace" font-size="11.00">NetCommonsTime</text>
</g>
<!-- \\CurrentBase -->
<g id="node25" class="node"><title>\\CurrentBase</title>
<polygon fill="none" stroke="black" points="685,-1384 595,-1384 595,-1348 685,-1348 685,-1384"/>
<text text-anchor="middle" x="640" y="-1363.1" font-family="Courier,monospace" font-size="11.00">CurrentBase</text>
</g>
<!-- \\Current -->
<g id="node26" class="node"><title>\\Current</title>
<polygon fill="none" stroke="black" points="965,-1384 901,-1384 901,-1348 965,-1348 965,-1384"/>
<text text-anchor="middle" x="933" y="-1363.1" font-family="Courier,monospace" font-size="11.00">Current</text>
</g>
<!-- \\Current&#45;&gt;\\CurrentBase -->
<g id="edge45" class="edge"><title>\\Current&#45;&gt;\\CurrentBase</title>
<path fill="none" stroke="black" d="M900.806,-1366C851.48,-1366 756.554,-1366 695.846,-1366"/>
<polygon fill="none" stroke="black" points="695.669,-1362.5 685.669,-1366 695.669,-1369.5 695.669,-1362.5"/>
</g>
<!-- \\CurrentSystem -->
<g id="node27" class="node"><title>\\CurrentSystem</title>
<polygon fill="none" stroke="black" points="985,-1816 881,-1816 881,-1780 985,-1780 985,-1816"/>
<text text-anchor="middle" x="933" y="-1795.1" font-family="Courier,monospace" font-size="11.00">CurrentSystem</text>
</g>
<!-- \\CurrentPage -->
<g id="node28" class="node"><title>\\CurrentPage</title>
<polygon fill="none" stroke="black" points="978,-1762 888,-1762 888,-1726 978,-1726 978,-1762"/>
<text text-anchor="middle" x="933" y="-1741.1" font-family="Courier,monospace" font-size="11.00">CurrentPage</text>
</g>
<!-- \\CurrentFrame -->
<g id="node29" class="node"><title>\\CurrentFrame</title>
<polygon fill="none" stroke="black" points="982,-1708 884,-1708 884,-1672 982,-1672 982,-1708"/>
<text text-anchor="middle" x="933" y="-1687.1" font-family="Courier,monospace" font-size="11.00">CurrentFrame</text>
</g>
<!-- \\TokenHelper -->
<g id="node30" class="node"><title>\\TokenHelper</title>
<polygon fill="none" stroke="black" points="978,-898 888,-898 888,-862 978,-862 978,-898"/>
<text text-anchor="middle" x="933" y="-877.1" font-family="Courier,monospace" font-size="11.00">TokenHelper</text>
</g>
<!-- \\FormHelper -->
<g id="node83" class="node"><title>\\FormHelper</title>
<ellipse fill="none" stroke="black" cx="640" cy="-288" rx="70.9184" ry="18.3848"/>
<text text-anchor="middle" x="640" y="-284.4" font-family="Times Roman,serif" font-size="14.00" fill="gray">\FormHelper</text>
</g>
<!-- \\TokenHelper&#45;&gt;\\FormHelper -->
<g id="edge47" class="edge"><title>\\TokenHelper&#45;&gt;\\FormHelper</title>
<path fill="none" stroke="black" d="M887.282,-879.062C866.873,-876.179 844.261,-869.138 830,-853 670.252,-672.227 920.569,-493.24 758,-315 748.162,-304.213 734.974,-297.293 720.979,-292.934"/>
<polygon fill="none" stroke="black" points="721.757,-289.519 711.192,-290.31 719.944,-296.281 721.757,-289.519"/>
</g>
<!-- \\SingletonViewBlockHtmlHelper -->
<g id="node31" class="node"><title>\\SingletonViewBlockHtmlHelper</title>
<polygon fill="none" stroke="black" points="1036,-736 830,-736 830,-700 1036,-700 1036,-736"/>
<text text-anchor="middle" x="933" y="-715.1" font-family="Courier,monospace" font-size="11.00">SingletonViewBlockHtmlHelper</text>
</g>
<!-- \\HtmlHelper -->
<g id="node85" class="node"><title>\\HtmlHelper</title>
<ellipse fill="none" stroke="black" cx="640" cy="-234" rx="67.1751" ry="18.3848"/>
<text text-anchor="middle" x="640" y="-230.4" font-family="Times Roman,serif" font-size="14.00" fill="gray">HtmlHelper</text>
</g>
<!-- \\SingletonViewBlockHtmlHelper&#45;&gt;\\HtmlHelper -->
<g id="edge49" class="edge"><title>\\SingletonViewBlockHtmlHelper&#45;&gt;\\HtmlHelper</title>
<path fill="none" stroke="black" d="M839.918,-699.739C836.329,-697.175 832.992,-694.276 830,-691 699.318,-547.927 890.914,-402.002 758,-261 747.121,-249.459 732.401,-242.376 717.051,-238.126"/>
<polygon fill="none" stroke="black" points="717.444,-234.622 706.906,-235.723 715.83,-241.434 717.444,-234.622"/>
</g>
<!-- \\FormInputHelper -->
<g id="node32" class="node"><title>\\FormInputHelper</title>
<polygon fill="none" stroke="black" points="992,-2248 874,-2248 874,-2212 992,-2212 992,-2248"/>
<text text-anchor="middle" x="933" y="-2227.1" font-family="Courier,monospace" font-size="11.00">FormInputHelper</text>
</g>
<!-- \\FormInputHelper&#45;&gt;\\AppHelper -->
<g id="edge51" class="edge"><title>\\FormInputHelper&#45;&gt;\\AppHelper</title>
<path fill="none" stroke="black" d="M873.826,-2219.33C859.022,-2215.37 843.519,-2210.06 830,-2203 761.41,-2167.19 696.097,-2102.56 662.838,-2066.7"/>
<polygon fill="none" stroke="black" points="665.192,-2064.09 655.854,-2059.09 660.033,-2068.83 665.192,-2064.09"/>
</g>
<!-- \\WizardHelper -->
<g id="node33" class="node"><title>\\WizardHelper</title>
<polygon fill="none" stroke="black" points="982,-2194 884,-2194 884,-2158 982,-2158 982,-2194"/>
<text text-anchor="middle" x="933" y="-2173.1" font-family="Courier,monospace" font-size="11.00">WizardHelper</text>
</g>
<!-- \\WizardHelper&#45;&gt;\\AppHelper -->
<g id="edge53" class="edge"><title>\\WizardHelper&#45;&gt;\\AppHelper</title>
<path fill="none" stroke="black" d="M883.945,-2165.91C866.584,-2161.62 847.122,-2155.97 830,-2149 773.066,-2125.82 712.097,-2088.73 675.004,-2064.61"/>
<polygon fill="none" stroke="black" points="676.839,-2061.63 666.557,-2059.07 673.002,-2067.48 676.839,-2061.63"/>
</g>
<!-- \\DisplayNumberHelper -->
<g id="node34" class="node"><title>\\DisplayNumberHelper</title>
<polygon fill="none" stroke="black" points="1005,-2140 861,-2140 861,-2104 1005,-2104 1005,-2140"/>
<text text-anchor="middle" x="933" y="-2119.1" font-family="Courier,monospace" font-size="11.00">DisplayNumberHelper</text>
</g>
<!-- \\DisplayNumberHelper&#45;&gt;\\AppHelper -->
<g id="edge55" class="edge"><title>\\DisplayNumberHelper&#45;&gt;\\AppHelper</title>
<path fill="none" stroke="black" d="M863.415,-2103.97C852.231,-2101.01 840.789,-2097.95 830,-2095 781.716,-2081.81 726.728,-2066.11 688.375,-2055.04"/>
<polygon fill="none" stroke="black" points="689.087,-2051.61 678.508,-2052.2 687.145,-2058.33 689.087,-2051.61"/>
</g>
<!-- \\MessageFlashHelper -->
<g id="node35" class="node"><title>\\MessageFlashHelper</title>
<polygon fill="none" stroke="black" points="1002,-2086 864,-2086 864,-2050 1002,-2050 1002,-2086"/>
<text text-anchor="middle" x="933" y="-2065.1" font-family="Courier,monospace" font-size="11.00">MessageFlashHelper</text>
</g>
<!-- \\MessageFlashHelper&#45;&gt;\\AppHelper -->
<g id="edge57" class="edge"><title>\\MessageFlashHelper&#45;&gt;\\AppHelper</title>
<path fill="none" stroke="black" d="M863.934,-2061.64C810.028,-2056.67 736.492,-2049.89 688.634,-2045.48"/>
<polygon fill="none" stroke="black" points="688.811,-2041.98 678.532,-2044.55 688.168,-2048.95 688.811,-2041.98"/>
</g>
<!-- \\DateHelper -->
<g id="node36" class="node"><title>\\DateHelper</title>
<polygon fill="none" stroke="black" points="975,-2032 891,-2032 891,-1996 975,-1996 975,-2032"/>
<text text-anchor="middle" x="933" y="-2011.1" font-family="Courier,monospace" font-size="11.00">DateHelper</text>
</g>
<!-- \\DateHelper&#45;&gt;\\AppHelper -->
<g id="edge59" class="edge"><title>\\DateHelper&#45;&gt;\\AppHelper</title>
<path fill="none" stroke="black" d="M890.708,-2017.9C837.148,-2022.83 745.059,-2031.32 688.643,-2036.52"/>
<polygon fill="none" stroke="black" points="688.178,-2033.05 678.542,-2037.45 688.821,-2040.02 688.178,-2033.05"/>
</g>
<!-- \\SnsButtonHelper -->
<g id="node37" class="node"><title>\\SnsButtonHelper</title>
<polygon fill="none" stroke="black" points="992,-1870 874,-1870 874,-1834 992,-1834 992,-1870"/>
<text text-anchor="middle" x="933" y="-1849.1" font-family="Courier,monospace" font-size="11.00">SnsButtonHelper</text>
</g>
<!-- \\SnsButtonHelper&#45;&gt;\\AppHelper -->
<g id="edge61" class="edge"><title>\\SnsButtonHelper&#45;&gt;\\AppHelper</title>
<path fill="none" stroke="black" d="M873.826,-1862.67C859.022,-1866.63 843.519,-1871.94 830,-1879 761.41,-1914.81 696.097,-1979.44 662.838,-2015.3"/>
<polygon fill="none" stroke="black" points="660.033,-2013.17 655.854,-2022.91 665.192,-2017.91 660.033,-2013.17"/>
</g>
<!-- \\BackToHelper -->
<g id="node38" class="node"><title>\\BackToHelper</title>
<polygon fill="none" stroke="black" points="982,-1654 884,-1654 884,-1618 982,-1618 982,-1654"/>
<text text-anchor="middle" x="933" y="-1633.1" font-family="Courier,monospace" font-size="11.00">BackToHelper</text>
</g>
<!-- \\BackToHelper&#45;&gt;\\AppHelper -->
<g id="edge63" class="edge"><title>\\BackToHelper&#45;&gt;\\AppHelper</title>
<path fill="none" stroke="black" d="M883.775,-1640.3C865.313,-1643.98 845.156,-1650.73 830,-1663 713.272,-1757.53 661.79,-1942.25 645.802,-2012.74"/>
<polygon fill="none" stroke="black" points="642.349,-2012.15 643.616,-2022.67 649.185,-2013.65 642.349,-2012.15"/>
</g>
<!-- \\NetCommonsHtmlHelper -->
<g id="node39" class="node"><title>\\NetCommonsHtmlHelper</title>
<polygon fill="none" stroke="black" points="1009,-1600 857,-1600 857,-1564 1009,-1564 1009,-1600"/>
<text text-anchor="middle" x="933" y="-1579.1" font-family="Courier,monospace" font-size="11.00">NetCommonsHtmlHelper</text>
</g>
<!-- \\NetCommonsHtmlHelper&#45;&gt;\\AppHelper -->
<g id="edge65" class="edge"><title>\\NetCommonsHtmlHelper&#45;&gt;\\AppHelper</title>
<path fill="none" stroke="black" d="M856.786,-1593.49C847.066,-1597.3 837.805,-1602.34 830,-1609 700.231,-1719.73 655.867,-1936.1 643.825,-2013.03"/>
<polygon fill="none" stroke="black" points="640.362,-2012.52 642.335,-2022.93 647.284,-2013.57 640.362,-2012.52"/>
</g>
<!-- \\ButtonHelper -->
<g id="node40" class="node"><title>\\ButtonHelper</title>
<polygon fill="none" stroke="black" points="982,-844 884,-844 884,-808 982,-808 982,-844"/>
<text text-anchor="middle" x="933" y="-823.1" font-family="Courier,monospace" font-size="11.00">ButtonHelper</text>
</g>
<!-- \\ButtonHelper&#45;&gt;\\FormHelper -->
<g id="edge67" class="edge"><title>\\ButtonHelper&#45;&gt;\\FormHelper</title>
<path fill="none" stroke="black" d="M883.956,-824.443C864.503,-821.253 843.577,-814.139 830,-799 684.8,-637.094 905.726,-474.605 758,-315 748.083,-304.286 734.859,-297.398 720.853,-293.049"/>
<polygon fill="none" stroke="black" points="721.628,-289.634 711.063,-290.429 719.818,-296.396 721.628,-289.634"/>
</g>
<!-- \\ComposerHelper -->
<g id="node41" class="node"><title>\\ComposerHelper</title>
<polygon fill="none" stroke="black" points="988,-1546 878,-1546 878,-1510 988,-1510 988,-1546"/>
<text text-anchor="middle" x="933" y="-1525.1" font-family="Courier,monospace" font-size="11.00">ComposerHelper</text>
</g>
<!-- \\ComposerHelper&#45;&gt;\\AppHelper -->
<g id="edge69" class="edge"><title>\\ComposerHelper&#45;&gt;\\AppHelper</title>
<path fill="none" stroke="black" d="M877.325,-1532.81C860.5,-1536.67 843.05,-1543.39 830,-1555 687.368,-1681.94 650.808,-1929.27 642.341,-2012.73"/>
<polygon fill="none" stroke="black" points="638.852,-2012.44 641.383,-2022.73 645.82,-2013.11 638.852,-2012.44"/>
</g>
<!-- \\LinkButtonHelper -->
<g id="node42" class="node"><title>\\LinkButtonHelper</title>
<polygon fill="none" stroke="black" points="995,-790 871,-790 871,-754 995,-754 995,-790"/>
<text text-anchor="middle" x="933" y="-769.1" font-family="Courier,monospace" font-size="11.00">LinkButtonHelper</text>
</g>
<!-- \\LinkButtonHelper&#45;&gt;\\FormHelper -->
<g id="edge71" class="edge"><title>\\LinkButtonHelper&#45;&gt;\\FormHelper</title>
<path fill="none" stroke="black" d="M870.442,-767.412C855.337,-763.395 840.535,-756.534 830,-745 699.318,-601.927 890.914,-456.002 758,-315 747.986,-304.377 734.718,-297.531 720.698,-293.194"/>
<polygon fill="none" stroke="black" points="721.468,-289.777 710.904,-290.577 719.661,-296.54 721.468,-289.777"/>
</g>
<!-- \\NetCommonsTimeHelper -->
<g id="node43" class="node"><title>\\NetCommonsTimeHelper</title>
<polygon fill="none" stroke="black" points="1009,-1492 857,-1492 857,-1456 1009,-1456 1009,-1492"/>
<text text-anchor="middle" x="933" y="-1471.1" font-family="Courier,monospace" font-size="11.00">NetCommonsTimeHelper</text>
</g>
<!-- \\NetCommonsTimeHelper&#45;&gt;\\AppHelper -->
<g id="edge73" class="edge"><title>\\NetCommonsTimeHelper&#45;&gt;\\AppHelper</title>
<path fill="none" stroke="black" d="M856.832,-1484.74C846.99,-1488.66 837.682,-1493.92 830,-1501 674.226,-1644.5 646.135,-1923.3 641.095,-2012.69"/>
<polygon fill="none" stroke="black" points="637.59,-2012.7 640.577,-2022.87 644.581,-2013.06 637.59,-2012.7"/>
</g>
<!-- \\NetCommonsFormHelper -->
<g id="node44" class="node"><title>\\NetCommonsFormHelper</title>
<polygon fill="none" stroke="black" points="1009,-2410 857,-2410 857,-2374 1009,-2374 1009,-2410"/>
<text text-anchor="middle" x="933" y="-2389.1" font-family="Courier,monospace" font-size="11.00">NetCommonsFormHelper</text>
</g>
<!-- \\NetCommonsFormHelper&#45;&gt;\\AppHelper -->
<g id="edge75" class="edge"><title>\\NetCommonsFormHelper&#45;&gt;\\AppHelper</title>
<path fill="none" stroke="black" d="M856.942,-2379.46C847.31,-2375.8 838.03,-2371.08 830,-2365 725.624,-2285.92 668.084,-2131.53 648.129,-2068.65"/>
<polygon fill="none" stroke="black" points="651.45,-2067.54 645.144,-2059.03 644.764,-2069.61 651.45,-2067.54"/>
</g>
<!-- \\TitleIconHelper -->
<g id="node45" class="node"><title>\\TitleIconHelper</title>
<polygon fill="none" stroke="black" points="992,-2356 874,-2356 874,-2320 992,-2320 992,-2356"/>
<text text-anchor="middle" x="933" y="-2335.1" font-family="Courier,monospace" font-size="11.00">TitleIconHelper</text>
</g>
<!-- \\TitleIconHelper&#45;&gt;\\AppHelper -->
<g id="edge77" class="edge"><title>\\TitleIconHelper&#45;&gt;\\AppHelper</title>
<path fill="none" stroke="black" d="M873.801,-2329.95C858.597,-2325.95 842.906,-2319.96 830,-2311 738.034,-2247.14 675.79,-2123.53 651.457,-2068.54"/>
<polygon fill="none" stroke="black" points="654.551,-2066.87 647.356,-2059.1 648.13,-2069.66 654.551,-2066.87"/>
</g>
<!-- \\DatetimePickerHelper -->
<g id="node46" class="node"><title>\\DatetimePickerHelper</title>
<polygon fill="none" stroke="black" points="1009,-2302 857,-2302 857,-2266 1009,-2266 1009,-2302"/>
<text text-anchor="middle" x="933" y="-2281.1" font-family="Courier,monospace" font-size="11.00">DatetimePickerHelper</text>
</g>
<!-- \\DatetimePickerHelper&#45;&gt;\\AppHelper -->
<g id="edge79" class="edge"><title>\\DatetimePickerHelper&#45;&gt;\\AppHelper</title>
<path fill="none" stroke="black" d="M856.876,-2269.6C847.463,-2266.24 838.259,-2262.1 830,-2257 749.876,-2207.56 684.727,-2113.81 655.946,-2067.81"/>
<polygon fill="none" stroke="black" points="658.75,-2065.69 650.523,-2059.02 652.792,-2069.36 658.75,-2065.69"/>
</g>
<!-- \\Model -->
<g id="node102" class="node"><title>\\Model</title>
<ellipse fill="none" stroke="black" cx="82" cy="-2446" rx="43.8406" ry="18.3848"/>
<text text-anchor="middle" x="82" y="-2442.4" font-family="Times Roman,serif" font-size="14.00" fill="gray">\Model</text>
</g>
<!-- \\NetCommonsAppModel&#45;&gt;\\Model -->
<g id="edge81" class="edge"><title>\\NetCommonsAppModel&#45;&gt;\\Model</title>
<path fill="none" stroke="black" d="M273.742,-2446C230.675,-2446 176.099,-2446 136.195,-2446"/>
<polygon fill="none" stroke="black" points="136.125,-2442.5 126.125,-2446 136.125,-2449.5 136.125,-2442.5"/>
</g>
<!-- \\OriginalKeyBehavior -->
<g id="node48" class="node"><title>\\OriginalKeyBehavior</title>
<polygon fill="none" stroke="black" points="1005,-682 861,-682 861,-646 1005,-646 1005,-682"/>
<text text-anchor="middle" x="933" y="-661.1" font-family="Courier,monospace" font-size="11.00">OriginalKeyBehavior</text>
</g>
<!-- \\ModelBehavior -->
<g id="node104" class="node"><title>\\ModelBehavior</title>
<ellipse fill="none" stroke="black" cx="640" cy="-180" rx="86.9741" ry="18.3848"/>
<text text-anchor="middle" x="640" y="-176.4" font-family="Times Roman,serif" font-size="14.00" fill="gray">\ModelBehavior</text>
</g>
<!-- \\OriginalKeyBehavior&#45;&gt;\\ModelBehavior -->
<g id="edge83" class="edge"><title>\\OriginalKeyBehavior&#45;&gt;\\ModelBehavior</title>
<path fill="none" stroke="black" d="M860.344,-656.25C848.896,-652.073 838.166,-645.94 830,-637 699.318,-493.927 890.914,-348.002 758,-207 750.736,-199.293 741.758,-193.575 732.025,-189.36"/>
<polygon fill="none" stroke="black" points="733.083,-186.019 722.491,-185.764 730.613,-192.568 733.083,-186.019"/>
</g>
<!-- \\TrackableBehavior -->
<g id="node49" class="node"><title>\\TrackableBehavior</title>
<polygon fill="none" stroke="black" points="998,-628 868,-628 868,-592 998,-592 998,-628"/>
<text text-anchor="middle" x="933" y="-607.1" font-family="Courier,monospace" font-size="11.00">TrackableBehavior</text>
</g>
<!-- \\TrackableBehavior&#45;&gt;\\ModelBehavior -->
<g id="edge85" class="edge"><title>\\TrackableBehavior&#45;&gt;\\ModelBehavior</title>
<path fill="none" stroke="black" d="M867.409,-604.347C853.429,-600.238 839.911,-593.6 830,-583 713.795,-458.716 876.143,-329.443 758,-207 750.646,-199.379 741.615,-193.712 731.852,-189.525"/>
<polygon fill="none" stroke="black" points="732.89,-186.176 722.298,-185.949 730.436,-192.732 732.89,-186.176"/>
</g>
<!-- \\YAExceptionRenderer -->
<g id="node50" class="node"><title>\\YAExceptionRenderer</title>
<polygon fill="none" stroke="black" points="1005,-574 861,-574 861,-538 1005,-538 1005,-574"/>
<text text-anchor="middle" x="933" y="-553.1" font-family="Courier,monospace" font-size="11.00">YAExceptionRenderer</text>
</g>
<!-- \\ExceptionRenderer -->
<g id="node107" class="node"><title>\\ExceptionRenderer</title>
<ellipse fill="none" stroke="black" cx="640" cy="-126" rx="118.087" ry="18.3848"/>
<text text-anchor="middle" x="640" y="-122.4" font-family="Times Roman,serif" font-size="14.00" fill="gray">TEHxceptionRenderer</text>
</g>
<!-- \\YAExceptionRenderer&#45;&gt;\\ExceptionRenderer -->
<g id="edge87" class="edge"><title>\\YAExceptionRenderer&#45;&gt;\\ExceptionRenderer</title>
<path fill="none" stroke="black" d="M860.253,-547.995C848.886,-543.838 838.206,-537.777 830,-529 713.795,-404.716 876.143,-275.443 758,-153 753.747,-148.592 748.932,-144.837 743.739,-141.645"/>
<polygon fill="none" stroke="black" points="745.142,-138.426 734.675,-136.787 741.836,-144.596 745.142,-138.426"/>
</g>
<!-- \\NetCommonsMigration -->
<g id="node51" class="node"><title>\\NetCommonsMigration</title>
<polygon fill="none" stroke="black" points="1005,-520 861,-520 861,-484 1005,-484 1005,-520"/>
<text text-anchor="middle" x="933" y="-499.1" font-family="Courier,monospace" font-size="11.00">NetCommonsMigration</text>
</g>
<!-- \\CakeMigration -->
<g id="node109" class="node"><title>\\CakeMigration</title>
<ellipse fill="none" stroke="black" cx="640" cy="-72" rx="84.8528" ry="18.3848"/>
<text text-anchor="middle" x="640" y="-68.4" font-family="Times Roman,serif" font-size="14.00" fill="gray">\CakeMigration</text>
</g>
<!-- \\NetCommonsMigration&#45;&gt;\\CakeMigration -->
<g id="edge89" class="edge"><title>\\NetCommonsMigration&#45;&gt;\\CakeMigration</title>
<path fill="none" stroke="black" d="M860.253,-493.995C848.886,-489.838 838.206,-483.777 830,-475 713.795,-350.716 876.143,-221.443 758,-99 750.347,-91.0685 740.877,-85.2535 730.656,-81.0209"/>
<polygon fill="none" stroke="black" points="731.684,-77.6706 721.089,-77.5632 729.304,-84.2538 731.684,-77.6706"/>
</g>
<!-- \\PublicSpaceComponent -->
<g id="node52" class="node"><title>\\PublicSpaceComponent</title>
<polygon fill="none" stroke="black" points="1009,-1060 857,-1060 857,-1024 1009,-1024 1009,-1060"/>
<text text-anchor="middle" x="933" y="-1039.1" font-family="Courier,monospace" font-size="11.00">PublicSpaceComponent</text>
</g>
<!-- \\PublicSpaceComponent&#45;&gt;\\Component -->
<g id="edge91" class="edge"><title>\\PublicSpaceComponent&#45;&gt;\\Component</title>
<path fill="none" stroke="black" d="M856.818,-1033.41C846.605,-1029.23 837.192,-1023.32 830,-1015 641.099,-796.429 950.312,-584.576 758,-369 748.225,-358.042 734.994,-351.054 720.924,-346.686"/>
<polygon fill="none" stroke="black" points="721.644,-343.256 711.08,-344.064 719.842,-350.02 721.644,-343.256"/>
</g>
<!-- \\PublicSpace -->
<g id="node53" class="node"><title>\\PublicSpace</title>
<polygon fill="none" stroke="black" points="978,-466 888,-466 888,-430 978,-430 978,-466"/>
<text text-anchor="middle" x="933" y="-445.1" font-family="Courier,monospace" font-size="11.00">PublicSpace</text>
</g>
<!-- \\Space -->
<g id="node112" class="node"><title>\\Space</title>
<ellipse fill="none" stroke="black" cx="640" cy="-18" rx="43.8406" ry="18.3848"/>
<text text-anchor="middle" x="640" y="-14.4" font-family="Times Roman,serif" font-size="14.00" fill="gray">\Space</text>
</g>
<!-- \\PublicSpace&#45;&gt;\\Space -->
<g id="edge93" class="edge"><title>\\PublicSpace&#45;&gt;\\Space</title>
<path fill="none" stroke="black" d="M930.861,-429.713C922.367,-365.789 885.044,-150.503 758,-45 740.274,-30.2799 716.089,-23.2159 694.227,-19.9502"/>
<polygon fill="none" stroke="black" points="694.409,-16.4456 684.05,-18.6691 693.535,-23.3908 694.409,-16.4456"/>
</g>
</g>
</svg>
