<?xml version="1.0" encoding="UTF-8" standalone="no"?>
<!DOCTYPE svg PUBLIC "-//W3C//DTD SVG 1.1//EN"
 "http://www.w3.org/Graphics/SVG/1.1/DTD/svg11.dtd">
<!-- Generated by graphviz version 2.26.3 (20100126.1600)
 -->
<!-- Title: G Pages: 1 -->
<svg width="1220pt" height="2780pt"
 viewBox="0.00 0.00 1220.00 2780.00" xmlns="http://www.w3.org/2000/svg" xmlns:xlink="http://www.w3.org/1999/xlink">
<g id="graph1" class="graph" transform="scale(1 1) rotate(0) translate(4 2776)">
<title>G</title>
<polygon fill="white" stroke="white" points="-4,5 -4,-2776 1217,-2776 1217,5 -4,5"/>
<g id="graph2" class="cluster"><title>cluster_Global</title>
<polyline fill="none" stroke="gray" points="177,-368 1192,-368 "/>
<path fill="none" stroke="gray" d="M1192,-368C1198,-368 1204,-374 1204,-380"/>
<polyline fill="none" stroke="gray" points="1204,-380 1204,-2752 "/>
<path fill="none" stroke="gray" d="M1204,-2752C1204,-2758 1198,-2764 1192,-2764"/>
<polyline fill="none" stroke="gray" points="1192,-2764 177,-2764 "/>
<path fill="none" stroke="gray" d="M177,-2764C171,-2764 165,-2758 165,-2752"/>
<polyline fill="none" stroke="gray" points="165,-2752 165,-380 "/>
<path fill="none" stroke="gray" d="M165,-380C165,-374 171,-368 177,-368"/>
<text text-anchor="middle" x="684.5" y="-2750.1" font-family="Times Roman,serif" font-size="11.00" fill="gray">Global</text>
</g>
<!-- \\AppController -->
<g id="node2" class="node"><title>\\AppController</title>
<polygon fill="none" stroke="black" points="1145,-1168 1041,-1168 1041,-1132 1145,-1132 1145,-1168"/>
<text text-anchor="middle" x="1093" y="-1147.1" font-family="Courier,monospace" font-size="11.00">AppController</text>
</g>
<!-- \\Controller -->
<g id="node60" class="node"><title>\\Controller</title>
<ellipse fill="none" stroke="black" cx="503" cy="-234" rx="63.1385" ry="18.3848"/>
<text text-anchor="middle" x="503" y="-230.4" font-family="Times Roman,serif" font-size="14.00" fill="gray">\Controller</text>
</g>
<!-- \\AppController&#45;&gt;\\Controller -->
<g id="edge3" class="edge"><title>\\AppController&#45;&gt;\\Controller</title>
<path fill="none" stroke="black" d="M1040.95,-1142.85C1023.8,-1138.86 1005.23,-1132.64 990,-1123 810.093,-1009.08 769.087,-950.319 682,-756 591.079,-553.127 758.922,-426.065 610,-261 600.809,-250.812 588.386,-244.212 575.259,-239.989"/>
<polygon fill="none" stroke="black" points="576.184,-236.613 565.612,-237.316 574.315,-243.359 576.184,-236.613"/>
</g>
<!-- \\AppModel -->
<g id="node3" class="node"><title>\\AppModel</title>
<polygon fill="none" stroke="black" points="538,-2707 468,-2707 468,-2671 538,-2671 538,-2707"/>
<text text-anchor="middle" x="503" y="-2686.1" font-family="Courier,monospace" font-size="11.00">AppModel</text>
</g>
<!-- \\NetCommonsAppModel -->
<g id="node48" class="node"><title>\\NetCommonsAppModel</title>
<polygon fill="none" stroke="black" points="311,-2707 173,-2707 173,-2671 311,-2671 311,-2707"/>
<text text-anchor="middle" x="242" y="-2686.1" font-family="Courier,monospace" font-size="11.00">NetCommonsAppModel</text>
</g>
<!-- \\AppModel&#45;&gt;\\NetCommonsAppModel -->
<g id="edge5" class="edge"><title>\\AppModel&#45;&gt;\\NetCommonsAppModel</title>
<path fill="none" stroke="black" d="M467.256,-2689C429.848,-2689 369.903,-2689 321.254,-2689"/>
<polygon fill="none" stroke="black" points="321.056,-2685.5 311.056,-2689 321.056,-2692.5 321.056,-2685.5"/>
</g>
<!-- \\DatabaseConfiguration -->
<g id="node4" class="node"><title>\\DatabaseConfiguration</title>
<polygon fill="none" stroke="black" points="879,-2734 721,-2734 721,-2698 879,-2698 879,-2734"/>
<text text-anchor="middle" x="800" y="-2713.1" font-family="Courier,monospace" font-size="11.00">DatabaseConfiguration</text>
</g>
<!-- \\DatabaseConfiguration&#45;&gt;\\AppModel -->
<g id="edge7" class="edge"><title>\\DatabaseConfiguration&#45;&gt;\\AppModel</title>
<path fill="none" stroke="black" d="M720.8,-2708.8C665.959,-2703.81 594.863,-2697.35 549.084,-2693.19"/>
<polygon fill="none" stroke="black" points="549.143,-2689.68 538.867,-2692.26 548.509,-2696.65 549.143,-2689.68"/>
</g>
<!-- \\AppHelper -->
<g id="node5" class="node"><title>\\AppHelper</title>
<polygon fill="none" stroke="black" points="838,-1762 762,-1762 762,-1726 838,-1726 838,-1762"/>
<text text-anchor="middle" x="800" y="-1741.1" font-family="Courier,monospace" font-size="11.00">AppHelper</text>
</g>
<!-- \\Helper -->
<g id="node64" class="node"><title>\\Helper</title>
<ellipse fill="none" stroke="black" cx="503" cy="-342" rx="43.8406" ry="18.3848"/>
<text text-anchor="middle" x="503" y="-338.4" font-family="Times Roman,serif" font-size="14.00" fill="gray">Helper</text>
</g>
<!-- \\AppHelper&#45;&gt;\\Helper -->
<g id="edge9" class="edge"><title>\\AppHelper&#45;&gt;\\Helper</title>
<path fill="none" stroke="black" d="M792.031,-1725.81C770.013,-1674.61 708.247,-1524.45 682,-1393 659.558,-1280.61 685.482,-450.247 610,-364 596.811,-348.93 576.298,-342.55 556.747,-340.253"/>
<polygon fill="none" stroke="black" points="556.913,-336.755 546.654,-339.401 556.324,-343.73 556.913,-336.755"/>
</g>
<!-- \\NetCommonsDeleteTest -->
<g id="node6" class="node"><title>\\NetCommonsDeleteTest</title>
<polygon fill="none" stroke="black" points="1169,-2518 1017,-2518 1017,-2482 1169,-2482 1169,-2518"/>
<text text-anchor="middle" x="1093" y="-2497.1" font-family="Courier,monospace" font-size="11.00">NetCommonsDeleteTest</text>
</g>
<!-- \\NetCommonsModelTestCase -->
<g id="node15" class="node"><title>\\NetCommonsModelTestCase</title>
<polygon fill="none" stroke="black" points="886,-2518 714,-2518 714,-2482 886,-2482 886,-2518"/>
<text text-anchor="middle" x="800" y="-2497.1" font-family="Courier,monospace" font-size="11.00">NetCommonsModelTestCase</text>
</g>
<!-- \\NetCommonsDeleteTest&#45;&gt;\\NetCommonsModelTestCase -->
<g id="edge11" class="edge"><title>\\NetCommonsDeleteTest&#45;&gt;\\NetCommonsModelTestCase</title>
<path fill="none" stroke="black" d="M1016.78,-2500C980.049,-2500 935.59,-2500 896.519,-2500"/>
<polygon fill="none" stroke="black" points="896.183,-2496.5 886.183,-2500 896.183,-2503.5 896.183,-2496.5"/>
</g>
<!-- \\NetCommonsConsoleTestCase -->
<g id="node7" class="node"><title>\\NetCommonsConsoleTestCase</title>
<polygon fill="none" stroke="black" points="892,-2167 708,-2167 708,-2131 892,-2131 892,-2167"/>
<text text-anchor="middle" x="800" y="-2146.1" font-family="Courier,monospace" font-size="11.00">NetCommonsConsoleTestCase</text>
</g>
<!-- \\NetCommonsCakeTestCase -->
<g id="node13" class="node"><title>\\NetCommonsCakeTestCase</title>
<polygon fill="none" stroke="black" points="585,-2140 421,-2140 421,-2104 585,-2104 585,-2140"/>
<text text-anchor="middle" x="503" y="-2119.1" font-family="Courier,monospace" font-size="11.00">NetCommonsCakeTestCase</text>
</g>
<!-- \\NetCommonsConsoleTestCase&#45;&gt;\\NetCommonsCakeTestCase -->
<g id="edge13" class="edge"><title>\\NetCommonsConsoleTestCase&#45;&gt;\\NetCommonsCakeTestCase</title>
<path fill="none" stroke="black" d="M707.249,-2140.57C671.93,-2137.36 631.688,-2133.7 596.316,-2130.48"/>
<polygon fill="none" stroke="black" points="596.269,-2126.96 585.993,-2129.54 595.635,-2133.94 596.269,-2126.96"/>
</g>
<!-- \\NetCommonsGetTest -->
<g id="node8" class="node"><title>\\NetCommonsGetTest</title>
<polygon fill="none" stroke="black" points="1158,-2464 1028,-2464 1028,-2428 1158,-2428 1158,-2464"/>
<text text-anchor="middle" x="1093" y="-2443.1" font-family="Courier,monospace" font-size="11.00">NetCommonsGetTest</text>
</g>
<!-- \\NetCommonsGetTest&#45;&gt;\\NetCommonsModelTestCase -->
<g id="edge15" class="edge"><title>\\NetCommonsGetTest&#45;&gt;\\NetCommonsModelTestCase</title>
<path fill="none" stroke="black" d="M1027.25,-2458.12C988.582,-2465.24 939.008,-2474.38 896.034,-2482.3"/>
<polygon fill="none" stroke="black" points="895.32,-2478.87 886.12,-2484.13 896.588,-2485.76 895.32,-2478.87"/>
</g>
<!-- \\NetCommonsHelperTestCase -->
<g id="node9" class="node"><title>\\NetCommonsHelperTestCase</title>
<polygon fill="none" stroke="black" points="889,-2113 711,-2113 711,-2077 889,-2077 889,-2113"/>
<text text-anchor="middle" x="800" y="-2092.1" font-family="Courier,monospace" font-size="11.00">NetCommonsHelperTestCase</text>
</g>
<!-- \\NetCommonsHelperTestCase&#45;&gt;\\NetCommonsCakeTestCase -->
<g id="edge17" class="edge"><title>\\NetCommonsHelperTestCase&#45;&gt;\\NetCommonsCakeTestCase</title>
<path fill="none" stroke="black" d="M710.487,-2103.14C674.267,-2106.43 632.456,-2110.23 595.9,-2113.55"/>
<polygon fill="none" stroke="black" points="595.379,-2110.09 585.737,-2114.48 596.013,-2117.06 595.379,-2110.09"/>
</g>
<!-- \\NetCommonsControllerBaseTestCase -->
<g id="node10" class="node"><title>\\NetCommonsControllerBaseTestCase</title>
<polygon fill="none" stroke="black" points="916,-1330 684,-1330 684,-1294 916,-1294 916,-1330"/>
<text text-anchor="middle" x="800" y="-1309.1" font-family="Courier,monospace" font-size="11.00">NetCommonsControllerBaseTestCase</text>
</g>
<!-- \\ControllerTestCase -->
<g id="node70" class="node"><title>\\ControllerTestCase</title>
<ellipse fill="none" stroke="black" cx="503" cy="-288" rx="106.773" ry="18.3848"/>
<text text-anchor="middle" x="503" y="-284.4" font-family="Times Roman,serif" font-size="14.00" fill="gray">\ControllerTestCase</text>
</g>
<!-- \\NetCommonsControllerBaseTestCase&#45;&gt;\\ControllerTestCase -->
<g id="edge19" class="edge"><title>\\NetCommonsControllerBaseTestCase&#45;&gt;\\ControllerTestCase</title>
<path fill="none" stroke="black" d="M691.524,-1293.98C688.075,-1291.33 684.877,-1288.35 682,-1285 541.111,-1121.08 749.057,-480.479 610,-315 606.379,-310.691 602.181,-307.016 597.585,-303.886"/>
<polygon fill="none" stroke="black" points="599.32,-300.846 588.921,-298.82 595.787,-306.889 599.32,-300.846"/>
</g>
<!-- \\NetCommonsValidateTest -->
<g id="node11" class="node"><title>\\NetCommonsValidateTest</title>
<polygon fill="none" stroke="black" points="1175,-2626 1011,-2626 1011,-2590 1175,-2590 1175,-2626"/>
<text text-anchor="middle" x="1093" y="-2605.1" font-family="Courier,monospace" font-size="11.00">NetCommonsValidateTest</text>
</g>
<!-- \\NetCommonsValidateTest&#45;&gt;\\NetCommonsModelTestCase -->
<g id="edge21" class="edge"><title>\\NetCommonsValidateTest&#45;&gt;\\NetCommonsModelTestCase</title>
<path fill="none" stroke="black" d="M1018.9,-2589.98C1009.12,-2587.19 999.27,-2584.17 990,-2581 940.27,-2563.98 885.199,-2539.9 847.206,-2522.42"/>
<polygon fill="none" stroke="black" points="848.474,-2519.15 837.929,-2518.12 845.534,-2525.5 848.474,-2519.15"/>
</g>
<!-- \\NetCommonsTestSuite -->
<g id="node12" class="node"><title>\\NetCommonsTestSuite</title>
<polygon fill="none" stroke="black" points="1165,-1060 1021,-1060 1021,-1024 1165,-1024 1165,-1060"/>
<text text-anchor="middle" x="1093" y="-1039.1" font-family="Courier,monospace" font-size="11.00">NetCommonsTestSuite</text>
</g>
<!-- \\CakeTestSuite -->
<g id="node73" class="node"><title>\\CakeTestSuite</title>
<ellipse fill="none" stroke="black" cx="800" cy="-342" rx="84.1457" ry="18.3848"/>
<text text-anchor="middle" x="800" y="-338.4" font-family="Times Roman,serif" font-size="14.00" fill="gray">\CakeTestSuite</text>
</g>
<!-- \\NetCommonsTestSuite&#45;&gt;\\CakeTestSuite -->
<g id="edge23" class="edge"><title>\\NetCommonsTestSuite&#45;&gt;\\CakeTestSuite</title>
<path fill="none" stroke="black" d="M1020.45,-1034.81C1008.85,-1030.6 998.034,-1024.3 990,-1015 799.748,-794.678 1116.06,-577.328 918,-364 911.088,-356.555 902.529,-351.148 893.202,-347.272"/>
<polygon fill="none" stroke="black" points="894.245,-343.929 883.65,-343.888 891.907,-350.527 894.245,-343.929"/>
</g>
<!-- \\CakeTestCase -->
<g id="node75" class="node"><title>\\CakeTestCase</title>
<ellipse fill="none" stroke="black" cx="242" cy="-342" rx="82.0244" ry="18.3848"/>
<text text-anchor="middle" x="242" y="-338.4" font-family="Times Roman,serif" font-size="14.00" fill="gray">\CakeTestCase</text>
</g>
<!-- \\NetCommonsCakeTestCase&#45;&gt;\\CakeTestCase -->
<g id="edge25" class="edge"><title>\\NetCommonsCakeTestCase&#45;&gt;\\CakeTestCase</title>
<path fill="none" stroke="black" d="M420.405,-2116.99C411.072,-2113.19 402.573,-2107.73 396,-2100 270.933,-1952.93 444.649,-514.711 324,-364 322.307,-361.886 320.435,-359.961 318.418,-358.211"/>
<polygon fill="none" stroke="black" points="320.186,-355.175 309.992,-352.286 316.159,-360.901 320.186,-355.175"/>
</g>
<!-- \\NetCommonsSaveTest -->
<g id="node14" class="node"><title>\\NetCommonsSaveTest</title>
<polygon fill="none" stroke="black" points="1162,-2572 1024,-2572 1024,-2536 1162,-2536 1162,-2572"/>
<text text-anchor="middle" x="1093" y="-2551.1" font-family="Courier,monospace" font-size="11.00">NetCommonsSaveTest</text>
</g>
<!-- \\NetCommonsSaveTest&#45;&gt;\\NetCommonsModelTestCase -->
<g id="edge27" class="edge"><title>\\NetCommonsSaveTest&#45;&gt;\\NetCommonsModelTestCase</title>
<path fill="none" stroke="black" d="M1023.93,-2541.27C985.795,-2534.24 937.829,-2525.4 896.084,-2517.71"/>
<polygon fill="none" stroke="black" points="896.641,-2514.25 886.172,-2515.88 895.372,-2521.14 896.641,-2514.25"/>
</g>
<!-- \\NetCommonsModelTestCase&#45;&gt;\\NetCommonsCakeTestCase -->
<g id="edge29" class="edge"><title>\\NetCommonsModelTestCase&#45;&gt;\\NetCommonsCakeTestCase</title>
<path fill="none" stroke="black" d="M785.675,-2481.77C737.351,-2420.26 580.201,-2220.26 523.574,-2148.19"/>
<polygon fill="none" stroke="black" points="526.112,-2145.75 517.181,-2140.05 520.607,-2150.07 526.112,-2145.75"/>
</g>
<!-- \\NetCommonsControllerTestCase -->
<g id="node16" class="node"><title>\\NetCommonsControllerTestCase</title>
<polygon fill="none" stroke="black" points="1196,-1330 990,-1330 990,-1294 1196,-1294 1196,-1330"/>
<text text-anchor="middle" x="1093" y="-1309.1" font-family="Courier,monospace" font-size="11.00">NetCommonsControllerTestCase</text>
</g>
<!-- \\NetCommonsControllerTestCase&#45;&gt;\\NetCommonsControllerBaseTestCase -->
<g id="edge31" class="edge"><title>\\NetCommonsControllerTestCase&#45;&gt;\\NetCommonsControllerBaseTestCase</title>
<path fill="none" stroke="black" d="M989.699,-1312C969.381,-1312 947.845,-1312 926.858,-1312"/>
<polygon fill="none" stroke="black" points="926.606,-1308.5 916.606,-1312 926.606,-1315.5 926.606,-1308.5"/>
</g>
<!-- \\NetCommonsAppController -->
<g id="node17" class="node"><title>\\NetCommonsAppController</title>
<polygon fill="none" stroke="black" points="886,-1276 714,-1276 714,-1240 886,-1240 886,-1276"/>
<text text-anchor="middle" x="800" y="-1255.1" font-family="Courier,monospace" font-size="11.00">NetCommonsAppController</text>
</g>
<!-- \\NetCommonsAppController&#45;&gt;\\Controller -->
<g id="edge33" class="edge"><title>\\NetCommonsAppController&#45;&gt;\\Controller</title>
<path fill="none" stroke="black" d="M774.24,-1239.88C746.07,-1218.44 702.245,-1179.92 682,-1135 601.927,-957.33 735.978,-409.687 610,-261 601.08,-250.473 588.711,-243.732 575.539,-239.48"/>
<polygon fill="none" stroke="black" points="576.414,-236.09 565.843,-236.805 574.552,-242.838 576.414,-236.09"/>
</g>
<!-- \\AssetComponent -->
<g id="node18" class="node"><title>\\AssetComponent</title>
<polygon fill="none" stroke="black" points="1148,-952 1038,-952 1038,-916 1148,-916 1148,-952"/>
<text text-anchor="middle" x="1093" y="-931.1" font-family="Courier,monospace" font-size="11.00">AssetComponent</text>
</g>
<!-- \\Component -->
<g id="node81" class="node"><title>\\Component</title>
<ellipse fill="none" stroke="black" cx="800" cy="-288" rx="70.9184" ry="18.3848"/>
<text text-anchor="middle" x="800" y="-284.4" font-family="Times Roman,serif" font-size="14.00" fill="gray">\Component</text>
</g>
<!-- \\AssetComponent&#45;&gt;\\Component -->
<g id="edge35" class="edge"><title>\\AssetComponent&#45;&gt;\\Component</title>
<path fill="none" stroke="black" d="M1037.34,-931.436C1019.8,-927.802 1001.91,-920.647 990,-907 815.683,-707.337 1095.43,-511.899 918,-315 908.227,-304.155 895.069,-297.207 881.082,-292.841"/>
<polygon fill="none" stroke="black" points="881.864,-289.426 871.298,-290.214 880.049,-296.187 881.864,-289.426"/>
</g>
<!-- \\NetCommonsTimeComponent -->
<g id="node19" class="node"><title>\\NetCommonsTimeComponent</title>
<polygon fill="none" stroke="black" points="1179,-898 1007,-898 1007,-862 1179,-862 1179,-898"/>
<text text-anchor="middle" x="1093" y="-877.1" font-family="Courier,monospace" font-size="11.00">NetCommonsTimeComponent</text>
</g>
<!-- \\NetCommonsTimeComponent&#45;&gt;\\Component -->
<g id="edge37" class="edge"><title>\\NetCommonsTimeComponent&#45;&gt;\\Component</title>
<path fill="none" stroke="black" d="M1006.73,-866.334C1000.48,-862.785 994.774,-858.402 990,-853 830.252,-672.227 1080.57,-493.24 918,-315 908.162,-304.213 894.974,-297.293 880.979,-292.934"/>
<polygon fill="none" stroke="black" points="881.757,-289.519 871.192,-290.31 879.944,-296.281 881.757,-289.519"/>
</g>
<!-- \\PermissionComponent -->
<g id="node20" class="node"><title>\\PermissionComponent</title>
<polygon fill="none" stroke="black" points="1165,-844 1021,-844 1021,-808 1165,-808 1165,-844"/>
<text text-anchor="middle" x="1093" y="-823.1" font-family="Courier,monospace" font-size="11.00">PermissionComponent</text>
</g>
<!-- \\PermissionComponent&#45;&gt;\\Component -->
<g id="edge39" class="edge"><title>\\PermissionComponent&#45;&gt;\\Component</title>
<path fill="none" stroke="black" d="M1020.47,-818.469C1008.94,-814.277 998.146,-808.083 990,-799 844.8,-637.094 1065.73,-474.605 918,-315 908.083,-304.286 894.859,-297.398 880.853,-293.049"/>
<polygon fill="none" stroke="black" points="881.628,-289.634 871.063,-290.429 879.818,-296.396 881.628,-289.634"/>
</g>
<!-- \\NetCommonsComponent -->
<g id="node21" class="node"><title>\\NetCommonsComponent</title>
<polygon fill="none" stroke="black" points="1165,-1006 1021,-1006 1021,-970 1165,-970 1165,-1006"/>
<text text-anchor="middle" x="1093" y="-985.1" font-family="Courier,monospace" font-size="11.00">NetCommonsComponent</text>
</g>
<!-- \\NetCommonsComponent&#45;&gt;\\Component -->
<g id="edge41" class="edge"><title>\\NetCommonsComponent&#45;&gt;\\Component</title>
<path fill="none" stroke="black" d="M1020.45,-980.809C1008.85,-976.592 998.038,-970.301 990,-961 801.099,-742.429 1110.31,-530.576 918,-315 908.225,-304.042 894.994,-297.054 880.924,-292.686"/>
<polygon fill="none" stroke="black" points="881.644,-289.256 871.08,-290.064 879.842,-296.02 881.644,-289.256"/>
</g>
<!-- \\NetCommonsController -->
<g id="node22" class="node"><title>\\NetCommonsController</title>
<polygon fill="none" stroke="black" points="1169,-1276 1017,-1276 1017,-1240 1169,-1240 1169,-1276"/>
<text text-anchor="middle" x="1093" y="-1255.1" font-family="Courier,monospace" font-size="11.00">NetCommonsController</text>
</g>
<!-- \\NetCommonsController&#45;&gt;\\NetCommonsAppController -->
<g id="edge43" class="edge"><title>\\NetCommonsController&#45;&gt;\\NetCommonsAppController</title>
<path fill="none" stroke="black" d="M1016.78,-1258C980.049,-1258 935.59,-1258 896.519,-1258"/>
<polygon fill="none" stroke="black" points="896.183,-1254.5 886.183,-1258 896.183,-1261.5 896.183,-1254.5"/>
</g>
<!-- \\NetCommonsUrl -->
<g id="node23" class="node"><title>\\NetCommonsUrl</title>
<polygon fill="none" stroke="black" points="1145,-2086 1041,-2086 1041,-2050 1145,-2050 1145,-2086"/>
<text text-anchor="middle" x="1093" y="-2065.1" font-family="Courier,monospace" font-size="11.00">NetCommonsUrl</text>
</g>
<!-- \\NetCommonsTime -->
<g id="node24" class="node"><title>\\NetCommonsTime</title>
<polygon fill="none" stroke="black" points="1148,-2032 1038,-2032 1038,-1996 1148,-1996 1148,-2032"/>
<text text-anchor="middle" x="1093" y="-2011.1" font-family="Courier,monospace" font-size="11.00">NetCommonsTime</text>
</g>
<!-- \\CurrentBase -->
<g id="node25" class="node"><title>\\CurrentBase</title>
<polygon fill="none" stroke="black" points="845,-1384 755,-1384 755,-1348 845,-1348 845,-1384"/>
<text text-anchor="middle" x="800" y="-1363.1" font-family="Courier,monospace" font-size="11.00">CurrentBase</text>
</g>
<!-- \\Current -->
<g id="node26" class="node"><title>\\Current</title>
<polygon fill="none" stroke="black" points="1125,-1384 1061,-1384 1061,-1348 1125,-1348 1125,-1384"/>
<text text-anchor="middle" x="1093" y="-1363.1" font-family="Courier,monospace" font-size="11.00">Current</text>
</g>
<!-- \\Current&#45;&gt;\\CurrentBase -->
<g id="edge45" class="edge"><title>\\Current&#45;&gt;\\CurrentBase</title>
<path fill="none" stroke="black" d="M1060.81,-1366C1011.48,-1366 916.554,-1366 855.846,-1366"/>
<polygon fill="none" stroke="black" points="855.669,-1362.5 845.669,-1366 855.669,-1369.5 855.669,-1362.5"/>
</g>
<!-- \\CurrentSystem -->
<g id="node27" class="node"><title>\\CurrentSystem</title>
<polygon fill="none" stroke="black" points="1145,-1924 1041,-1924 1041,-1888 1145,-1888 1145,-1924"/>
<text text-anchor="middle" x="1093" y="-1903.1" font-family="Courier,monospace" font-size="11.00">CurrentSystem</text>
</g>
<!-- \\CurrentPage -->
<g id="node28" class="node"><title>\\CurrentPage</title>
<polygon fill="none" stroke="black" points="1138,-1870 1048,-1870 1048,-1834 1138,-1834 1138,-1870"/>
<text text-anchor="middle" x="1093" y="-1849.1" font-family="Courier,monospace" font-size="11.00">CurrentPage</text>
</g>
<!-- \\CurrentFrame -->
<g id="node29" class="node"><title>\\CurrentFrame</title>
<polygon fill="none" stroke="black" points="1142,-1816 1044,-1816 1044,-1780 1142,-1780 1142,-1816"/>
<text text-anchor="middle" x="1093" y="-1795.1" font-family="Courier,monospace" font-size="11.00">CurrentFrame</text>
</g>
<!-- \\TokenHelper -->
<g id="node30" class="node"><title>\\TokenHelper</title>
<polygon fill="none" stroke="black" points="1138,-736 1048,-736 1048,-700 1138,-700 1138,-736"/>
<text text-anchor="middle" x="1093" y="-715.1" font-family="Courier,monospace" font-size="11.00">TokenHelper</text>
</g>
<!-- \\FormHelper -->
<g id="node88" class="node"><title>\\FormHelper</title>
<ellipse fill="none" stroke="black" cx="800" cy="-234" rx="70.9184" ry="18.3848"/>
<text text-anchor="middle" x="800" y="-230.4" font-family="Times Roman,serif" font-size="14.00" fill="gray">\FormHelper</text>
</g>
<!-- \\TokenHelper&#45;&gt;\\FormHelper -->
<g id="edge47" class="edge"><title>\\TokenHelper&#45;&gt;\\FormHelper</title>
<path fill="none" stroke="black" d="M1047.25,-716.813C1026.97,-713.861 1004.46,-706.833 990,-691 859.318,-547.927 1050.91,-402.002 918,-261 907.986,-250.377 894.718,-243.531 880.698,-239.194"/>
<polygon fill="none" stroke="black" points="881.468,-235.777 870.904,-236.577 879.661,-242.54 881.468,-235.777"/>
</g>
<!-- \\SingletonViewBlockHtmlHelper -->
<g id="node31" class="node"><title>\\SingletonViewBlockHtmlHelper</title>
<polygon fill="none" stroke="black" points="1196,-628 990,-628 990,-592 1196,-592 1196,-628"/>
<text text-anchor="middle" x="1093" y="-607.1" font-family="Courier,monospace" font-size="11.00">SingletonViewBlockHtmlHelper</text>
</g>
<!-- \\HtmlHelper -->
<g id="node90" class="node"><title>\\HtmlHelper</title>
<ellipse fill="none" stroke="black" cx="800" cy="-180" rx="67.1751" ry="18.3848"/>
<text text-anchor="middle" x="800" y="-176.4" font-family="Times Roman,serif" font-size="14.00" fill="gray">HtmlHelper</text>
</g>
<!-- \\SingletonViewBlockHtmlHelper&#45;&gt;\\HtmlHelper -->
<g id="edge49" class="edge"><title>\\SingletonViewBlockHtmlHelper&#45;&gt;\\HtmlHelper</title>
<path fill="none" stroke="black" d="M1000.46,-591.968C996.678,-589.35 993.156,-586.376 990,-583 873.795,-458.716 1036.14,-329.443 918,-207 906.987,-195.587 892.213,-188.556 876.851,-184.316"/>
<polygon fill="none" stroke="black" points="877.243,-180.812 866.706,-181.915 875.631,-187.624 877.243,-180.812"/>
</g>
<!-- \\FormInputHelper -->
<g id="node32" class="node"><title>\\FormInputHelper</title>
<polygon fill="none" stroke="black" points="1152,-2194 1034,-2194 1034,-2158 1152,-2158 1152,-2194"/>
<text text-anchor="middle" x="1093" y="-2173.1" font-family="Courier,monospace" font-size="11.00">FormInputHelper</text>
</g>
<!-- \\FormInputHelper&#45;&gt;\\AppHelper -->
<g id="edge51" class="edge"><title>\\FormInputHelper&#45;&gt;\\AppHelper</title>
<path fill="none" stroke="black" d="M1033.76,-2169.69C1018.22,-2165.7 1002.36,-2159.29 990,-2149 866.832,-2046.46 818.776,-1846.09 804.769,-1772.22"/>
<polygon fill="none" stroke="black" points="808.19,-1771.47 802.945,-1762.27 801.305,-1772.73 808.19,-1771.47"/>
</g>
<!-- \\WizardHelper -->
<g id="node33" class="node"><title>\\WizardHelper</title>
<polygon fill="none" stroke="black" points="1142,-2140 1044,-2140 1044,-2104 1142,-2104 1142,-2140"/>
<text text-anchor="middle" x="1093" y="-2119.1" font-family="Courier,monospace" font-size="11.00">WizardHelper</text>
</g>
<!-- \\WizardHelper&#45;&gt;\\AppHelper -->
<g id="edge53" class="edge"><title>\\WizardHelper&#45;&gt;\\AppHelper</title>
<path fill="none" stroke="black" d="M1043.97,-2117.46C1025.53,-2113.74 1005.34,-2107.04 990,-2095 879.54,-2008.29 824.898,-1838.9 806.922,-1772.07"/>
<polygon fill="none" stroke="black" points="810.271,-1771.04 804.349,-1762.26 803.499,-1772.82 810.271,-1771.04"/>
</g>
<!-- \\DisplayNumberHelper -->
<g id="node34" class="node"><title>\\DisplayNumberHelper</title>
<polygon fill="none" stroke="black" points="1165,-1978 1021,-1978 1021,-1942 1165,-1942 1165,-1978"/>
<text text-anchor="middle" x="1093" y="-1957.1" font-family="Courier,monospace" font-size="11.00">DisplayNumberHelper</text>
</g>
<!-- \\DisplayNumberHelper&#45;&gt;\\AppHelper -->
<g id="edge55" class="edge"><title>\\DisplayNumberHelper&#45;&gt;\\AppHelper</title>
<path fill="none" stroke="black" d="M1020.44,-1946.17C1009.86,-1942.69 999.387,-1938.37 990,-1933 915.721,-1890.51 850.104,-1811.52 819.041,-1770.41"/>
<polygon fill="none" stroke="black" points="821.73,-1768.16 812.946,-1762.24 816.119,-1772.35 821.73,-1768.16"/>
</g>
<!-- \\MessageFlashHelper -->
<g id="node35" class="node"><title>\\MessageFlashHelper</title>
<polygon fill="none" stroke="black" points="1162,-1546 1024,-1546 1024,-1510 1162,-1510 1162,-1546"/>
<text text-anchor="middle" x="1093" y="-1525.1" font-family="Courier,monospace" font-size="11.00">MessageFlashHelper</text>
</g>
<!-- \\MessageFlashHelper&#45;&gt;\\AppHelper -->
<g id="edge57" class="edge"><title>\\MessageFlashHelper&#45;&gt;\\AppHelper</title>
<path fill="none" stroke="black" d="M1023.97,-1540.7C1012.2,-1544.36 1000.43,-1549.03 990,-1555 915.721,-1597.49 850.104,-1676.48 819.041,-1717.59"/>
<polygon fill="none" stroke="black" points="816.119,-1715.65 812.946,-1725.76 821.73,-1719.84 816.119,-1715.65"/>
</g>
<!-- \\DateHelper -->
<g id="node36" class="node"><title>\\DateHelper</title>
<polygon fill="none" stroke="black" points="1135,-1492 1051,-1492 1051,-1456 1135,-1456 1135,-1492"/>
<text text-anchor="middle" x="1093" y="-1471.1" font-family="Courier,monospace" font-size="11.00">DateHelper</text>
</g>
<!-- \\DateHelper&#45;&gt;\\AppHelper -->
<g id="edge59" class="edge"><title>\\DateHelper&#45;&gt;\\AppHelper</title>
<path fill="none" stroke="black" d="M1050.86,-1478.72C1031.14,-1482.45 1008.07,-1489.11 990,-1501 904.042,-1557.54 840.094,-1666.07 813.531,-1716.72"/>
<polygon fill="none" stroke="black" points="810.341,-1715.27 808.865,-1725.76 816.562,-1718.48 810.341,-1715.27"/>
</g>
<!-- \\SnsButtonHelper -->
<g id="node37" class="node"><title>\\SnsButtonHelper</title>
<polygon fill="none" stroke="black" points="1152,-1438 1034,-1438 1034,-1402 1152,-1402 1152,-1438"/>
<text text-anchor="middle" x="1093" y="-1417.1" font-family="Courier,monospace" font-size="11.00">SnsButtonHelper</text>
</g>
<!-- \\SnsButtonHelper&#45;&gt;\\AppHelper -->
<g id="edge61" class="edge"><title>\\SnsButtonHelper&#45;&gt;\\AppHelper</title>
<path fill="none" stroke="black" d="M1033.8,-1427.6C1018.51,-1431.6 1002.78,-1437.7 990,-1447 939.522,-1483.73 848.866,-1650.47 814.1,-1716.73"/>
<polygon fill="none" stroke="black" points="810.916,-1715.27 809.388,-1725.75 817.121,-1718.51 810.916,-1715.27"/>
</g>
<!-- \\BackToHelper -->
<g id="node38" class="node"><title>\\BackToHelper</title>
<polygon fill="none" stroke="black" points="1142,-1762 1044,-1762 1044,-1726 1142,-1726 1142,-1762"/>
<text text-anchor="middle" x="1093" y="-1741.1" font-family="Courier,monospace" font-size="11.00">BackToHelper</text>
</g>
<!-- \\BackToHelper&#45;&gt;\\AppHelper -->
<g id="edge63" class="edge"><title>\\BackToHelper&#45;&gt;\\AppHelper</title>
<path fill="none" stroke="black" d="M1043.96,-1744C989.78,-1744 903.056,-1744 848.925,-1744"/>
<polygon fill="none" stroke="black" points="848.882,-1740.5 838.882,-1744 848.882,-1747.5 848.882,-1740.5"/>
</g>
<!-- \\NetCommonsHtmlHelper -->
<g id="node39" class="node"><title>\\NetCommonsHtmlHelper</title>
<polygon fill="none" stroke="black" points="1169,-1708 1017,-1708 1017,-1672 1169,-1672 1169,-1708"/>
<text text-anchor="middle" x="1093" y="-1687.1" font-family="Courier,monospace" font-size="11.00">NetCommonsHtmlHelper</text>
</g>
<!-- \\NetCommonsHtmlHelper&#45;&gt;\\AppHelper -->
<g id="edge65" class="edge"><title>\\NetCommonsHtmlHelper&#45;&gt;\\AppHelper</title>
<path fill="none" stroke="black" d="M1016.78,-1704.05C963.659,-1713.84 894.376,-1726.61 848.603,-1735.04"/>
<polygon fill="none" stroke="black" points="847.838,-1731.62 838.638,-1736.88 849.107,-1738.51 847.838,-1731.62"/>
</g>
<!-- \\ButtonHelper -->
<g id="node40" class="node"><title>\\ButtonHelper</title>
<polygon fill="none" stroke="black" points="1142,-682 1044,-682 1044,-646 1142,-646 1142,-682"/>
<text text-anchor="middle" x="1093" y="-661.1" font-family="Courier,monospace" font-size="11.00">ButtonHelper</text>
</g>
<!-- \\ButtonHelper&#45;&gt;\\FormHelper -->
<g id="edge67" class="edge"><title>\\ButtonHelper&#45;&gt;\\FormHelper</title>
<path fill="none" stroke="black" d="M1044,-662.12C1024.67,-658.863 1003.82,-651.786 990,-637 873.795,-512.716 1036.14,-383.443 918,-261 907.863,-250.494 894.538,-243.702 880.502,-239.381"/>
<polygon fill="none" stroke="black" points="881.266,-235.962 870.702,-236.77 879.464,-242.726 881.266,-235.962"/>
</g>
<!-- \\ComposerHelper -->
<g id="node41" class="node"><title>\\ComposerHelper</title>
<polygon fill="none" stroke="black" points="1148,-1654 1038,-1654 1038,-1618 1148,-1618 1148,-1654"/>
<text text-anchor="middle" x="1093" y="-1633.1" font-family="Courier,monospace" font-size="11.00">ComposerHelper</text>
</g>
<!-- \\ComposerHelper&#45;&gt;\\AppHelper -->
<g id="edge69" class="edge"><title>\\ComposerHelper&#45;&gt;\\AppHelper</title>
<path fill="none" stroke="black" d="M1037.5,-1648.96C1021.99,-1653.01 1005.22,-1657.79 990,-1663 940.27,-1680.02 885.199,-1704.1 847.206,-1721.58"/>
<polygon fill="none" stroke="black" points="845.534,-1718.5 837.929,-1725.88 848.474,-1724.85 845.534,-1718.5"/>
</g>
<!-- \\LinkButtonHelper -->
<g id="node42" class="node"><title>\\LinkButtonHelper</title>
<polygon fill="none" stroke="black" points="1155,-790 1031,-790 1031,-754 1155,-754 1155,-790"/>
<text text-anchor="middle" x="1093" y="-769.1" font-family="Courier,monospace" font-size="11.00">LinkButtonHelper</text>
</g>
<!-- \\LinkButtonHelper&#45;&gt;\\FormHelper -->
<g id="edge71" class="edge"><title>\\LinkButtonHelper&#45;&gt;\\FormHelper</title>
<path fill="none" stroke="black" d="M1030.3,-767.541C1015.2,-763.523 1000.43,-756.629 990,-745 844.8,-583.094 1065.73,-420.605 918,-261 908.083,-250.286 894.859,-243.398 880.853,-239.049"/>
<polygon fill="none" stroke="black" points="881.628,-235.634 871.063,-236.429 879.818,-242.396 881.628,-235.634"/>
</g>
<!-- \\TableListHelper -->
<g id="node43" class="node"><title>\\TableListHelper</title>
<polygon fill="none" stroke="black" points="1152,-1600 1034,-1600 1034,-1564 1152,-1564 1152,-1600"/>
<text text-anchor="middle" x="1093" y="-1579.1" font-family="Courier,monospace" font-size="11.00">TableListHelper</text>
</g>
<!-- \\TableListHelper&#45;&gt;\\AppHelper -->
<g id="edge73" class="edge"><title>\\TableListHelper&#45;&gt;\\AppHelper</title>
<path fill="none" stroke="black" d="M1033.97,-1593.57C1019.24,-1597.51 1003.73,-1602.58 990,-1609 927.211,-1638.33 863.394,-1688.84 828.029,-1719.06"/>
<polygon fill="none" stroke="black" points="825.369,-1716.74 820.087,-1725.92 829.944,-1722.03 825.369,-1716.74"/>
</g>
<!-- \\NetCommonsTimeHelper -->
<g id="node44" class="node"><title>\\NetCommonsTimeHelper</title>
<polygon fill="none" stroke="black" points="1169,-2410 1017,-2410 1017,-2374 1169,-2374 1169,-2410"/>
<text text-anchor="middle" x="1093" y="-2389.1" font-family="Courier,monospace" font-size="11.00">NetCommonsTimeHelper</text>
</g>
<!-- \\NetCommonsTimeHelper&#45;&gt;\\AppHelper -->
<g id="edge75" class="edge"><title>\\NetCommonsTimeHelper&#45;&gt;\\AppHelper</title>
<path fill="none" stroke="black" d="M1016.94,-2382.26C1006.91,-2378.22 997.511,-2372.65 990,-2365 894.852,-2268.07 957.301,-2198.01 918,-2068 884.245,-1956.33 833.504,-1826.93 811.197,-1771.5"/>
<polygon fill="none" stroke="black" points="814.363,-1769.99 807.373,-1762.03 807.873,-1772.61 814.363,-1769.99"/>
</g>
<!-- \\NetCommonsFormHelper -->
<g id="node45" class="node"><title>\\NetCommonsFormHelper</title>
<polygon fill="none" stroke="black" points="1169,-2356 1017,-2356 1017,-2320 1169,-2320 1169,-2356"/>
<text text-anchor="middle" x="1093" y="-2335.1" font-family="Courier,monospace" font-size="11.00">NetCommonsFormHelper</text>
</g>
<!-- \\NetCommonsFormHelper&#45;&gt;\\AppHelper -->
<g id="edge77" class="edge"><title>\\NetCommonsFormHelper&#45;&gt;\\AppHelper</title>
<path fill="none" stroke="black" d="M1016.76,-2327.71C1006.87,-2323.74 997.568,-2318.33 990,-2311 909.099,-2232.62 953.29,-2174.97 918,-2068 881.451,-1957.21 832.171,-1827.35 810.719,-1771.65"/>
<polygon fill="none" stroke="black" points="813.913,-1770.2 807.047,-1762.13 807.382,-1772.72 813.913,-1770.2"/>
</g>
<!-- \\TitleIconHelper -->
<g id="node46" class="node"><title>\\TitleIconHelper</title>
<polygon fill="none" stroke="black" points="1152,-2302 1034,-2302 1034,-2266 1152,-2266 1152,-2302"/>
<text text-anchor="middle" x="1093" y="-2281.1" font-family="Courier,monospace" font-size="11.00">TitleIconHelper</text>
</g>
<!-- \\TitleIconHelper&#45;&gt;\\AppHelper -->
<g id="edge79" class="edge"><title>\\TitleIconHelper&#45;&gt;\\AppHelper</title>
<path fill="none" stroke="black" d="M1033.99,-2278.56C1018.17,-2274.6 1002.12,-2267.99 990,-2257 985.169,-2252.62 848.712,-1877.98 810.094,-1771.78"/>
<polygon fill="none" stroke="black" points="813.276,-1770.29 806.57,-1762.08 806.697,-1772.68 813.276,-1770.29"/>
</g>
<!-- \\DatetimePickerHelper -->
<g id="node47" class="node"><title>\\DatetimePickerHelper</title>
<polygon fill="none" stroke="black" points="1169,-2248 1017,-2248 1017,-2212 1169,-2212 1169,-2248"/>
<text text-anchor="middle" x="1093" y="-2227.1" font-family="Courier,monospace" font-size="11.00">DatetimePickerHelper</text>
</g>
<!-- \\DatetimePickerHelper&#45;&gt;\\AppHelper -->
<g id="edge81" class="edge"><title>\\DatetimePickerHelper&#45;&gt;\\AppHelper</title>
<path fill="none" stroke="black" d="M1016.91,-2218.77C1007.12,-2214.93 997.801,-2209.81 990,-2203 954.885,-2172.37 843.641,-1866.31 809.837,-1771.71"/>
<polygon fill="none" stroke="black" points="813.114,-1770.48 806.458,-1762.23 806.521,-1772.83 813.114,-1770.48"/>
</g>
<!-- \\Model -->
<g id="node108" class="node"><title>\\Model</title>
<ellipse fill="none" stroke="black" cx="44" cy="-2689" rx="43.8406" ry="18.3848"/>
<text text-anchor="middle" x="44" y="-2685.4" font-family="Times Roman,serif" font-size="14.00" fill="gray">\Model</text>
</g>
<!-- \\NetCommonsAppModel&#45;&gt;\\Model -->
<g id="edge83" class="edge"><title>\\NetCommonsAppModel&#45;&gt;\\Model</title>
<path fill="none" stroke="black" d="M172.749,-2689C148.379,-2689 121.357,-2689 98.3871,-2689"/>
<polygon fill="none" stroke="black" points="98.1425,-2685.5 88.1425,-2689 98.1424,-2692.5 98.1425,-2685.5"/>
</g>
<!-- \\OriginalKeyBehavior -->
<g id="node49" class="node"><title>\\OriginalKeyBehavior</title>
<polygon fill="none" stroke="black" points="1165,-574 1021,-574 1021,-538 1165,-538 1165,-574"/>
<text text-anchor="middle" x="1093" y="-553.1" font-family="Courier,monospace" font-size="11.00">OriginalKeyBehavior</text>
</g>
<!-- \\ModelBehavior -->
<g id="node110" class="node"><title>\\ModelBehavior</title>
<ellipse fill="none" stroke="black" cx="800" cy="-126" rx="86.9741" ry="18.3848"/>
<text text-anchor="middle" x="800" y="-122.4" font-family="Times Roman,serif" font-size="14.00" fill="gray">\ModelBehavior</text>
</g>
<!-- \\OriginalKeyBehavior&#45;&gt;\\ModelBehavior -->
<g id="edge85" class="edge"><title>\\OriginalKeyBehavior&#45;&gt;\\ModelBehavior</title>
<path fill="none" stroke="black" d="M1020.25,-547.995C1008.89,-543.838 998.206,-537.777 990,-529 873.795,-404.716 1036.14,-275.443 918,-153 910.646,-145.379 901.615,-139.712 891.852,-135.525"/>
<polygon fill="none" stroke="black" points="892.89,-132.176 882.298,-131.949 890.436,-138.732 892.89,-132.176"/>
</g>
<!-- \\TrackableBehavior -->
<g id="node50" class="node"><title>\\TrackableBehavior</title>
<polygon fill="none" stroke="black" points="1158,-520 1028,-520 1028,-484 1158,-484 1158,-520"/>
<text text-anchor="middle" x="1093" y="-499.1" font-family="Courier,monospace" font-size="11.00">TrackableBehavior</text>
</g>
<!-- \\TrackableBehavior&#45;&gt;\\ModelBehavior -->
<g id="edge87" class="edge"><title>\\TrackableBehavior&#45;&gt;\\ModelBehavior</title>
<path fill="none" stroke="black" d="M1027.38,-496.047C1013.48,-491.941 1000.01,-485.38 990,-475 888.21,-369.437 1021.44,-256.95 918,-153 910.53,-145.493 901.428,-139.895 891.627,-135.745"/>
<polygon fill="none" stroke="black" points="892.638,-132.388 882.045,-132.196 890.207,-138.952 892.638,-132.388"/>
</g>
<!-- \\YAExceptionRenderer -->
<g id="node51" class="node"><title>\\YAExceptionRenderer</title>
<polygon fill="none" stroke="black" points="1165,-466 1021,-466 1021,-430 1165,-430 1165,-466"/>
<text text-anchor="middle" x="1093" y="-445.1" font-family="Courier,monospace" font-size="11.00">YAExceptionRenderer</text>
</g>
<!-- \\ExceptionRenderer -->
<g id="node113" class="node"><title>\\ExceptionRenderer</title>
<ellipse fill="none" stroke="black" cx="800" cy="-72" rx="118.087" ry="18.3848"/>
<text text-anchor="middle" x="800" y="-68.4" font-family="Times Roman,serif" font-size="14.00" fill="gray">TEHxceptionRenderer</text>
</g>
<!-- \\YAExceptionRenderer&#45;&gt;\\ExceptionRenderer -->
<g id="edge89" class="edge"><title>\\YAExceptionRenderer&#45;&gt;\\ExceptionRenderer</title>
<path fill="none" stroke="black" d="M1020.48,-439.783C1009.09,-435.648 998.341,-429.65 990,-421 888.21,-315.437 1021.44,-202.95 918,-99 913.632,-94.61 908.706,-90.873 903.408,-87.6967"/>
<polygon fill="none" stroke="black" points="904.657,-84.4002 894.174,-82.8643 901.411,-90.6022 904.657,-84.4002"/>
</g>
<!-- \\NetCommonsMigration -->
<g id="node52" class="node"><title>\\NetCommonsMigration</title>
<polygon fill="none" stroke="black" points="872,-1126 728,-1126 728,-1090 872,-1090 872,-1126"/>
<text text-anchor="middle" x="800" y="-1105.1" font-family="Courier,monospace" font-size="11.00">NetCommonsMigration</text>
</g>
<!-- \\CakeMigration -->
<g id="node115" class="node"><title>\\CakeMigration</title>
<ellipse fill="none" stroke="black" cx="503" cy="-180" rx="84.8528" ry="18.3848"/>
<text text-anchor="middle" x="503" y="-176.4" font-family="Times Roman,serif" font-size="14.00" fill="gray">\CakeMigration</text>
</g>
<!-- \\NetCommonsMigration&#45;&gt;\\CakeMigration -->
<g id="edge91" class="edge"><title>\\NetCommonsMigration&#45;&gt;\\CakeMigration</title>
<path fill="none" stroke="black" d="M727.35,-1109.09C710.263,-1105.75 693.657,-1098.92 682,-1086 550.704,-940.492 736.659,-356.561 610,-207 604.438,-200.432 597.533,-195.338 589.928,-191.403"/>
<polygon fill="none" stroke="black" points="591.276,-188.172 580.718,-187.296 588.426,-194.565 591.276,-188.172"/>
</g>
<!-- \\RolesAppModel -->
<g id="node53" class="node"><title>\\RolesAppModel</title>
<polygon fill="none" stroke="black" points="852,-2680 748,-2680 748,-2644 852,-2644 852,-2680"/>
<text text-anchor="middle" x="800" y="-2659.1" font-family="Courier,monospace" font-size="11.00">RolesAppModel</text>
</g>
<!-- \\RolesAppModel&#45;&gt;\\AppModel -->
<g id="edge93" class="edge"><title>\\RolesAppModel&#45;&gt;\\AppModel</title>
<path fill="none" stroke="black" d="M747.927,-2666.73C691.623,-2671.85 602.737,-2679.93 548.944,-2684.82"/>
<polygon fill="none" stroke="black" points="548.316,-2681.37 538.673,-2685.76 548.949,-2688.34 548.316,-2681.37"/>
</g>
<!-- \\Role -->
<g id="node54" class="node"><title>\\Role</title>
<polygon fill="none" stroke="black" points="1120,-2734 1066,-2734 1066,-2698 1120,-2698 1120,-2734"/>
<text text-anchor="middle" x="1093" y="-2713.1" font-family="Courier,monospace" font-size="11.00">Role</text>
</g>
<!-- \\Role&#45;&gt;\\RolesAppModel -->
<g id="edge95" class="edge"><title>\\Role&#45;&gt;\\RolesAppModel</title>
<path fill="none" stroke="black" d="M1065.96,-2711.02C1019.9,-2702.53 925.102,-2685.06 862.03,-2673.43"/>
<polygon fill="none" stroke="black" points="862.661,-2669.99 852.193,-2671.62 861.392,-2676.87 862.661,-2669.99"/>
</g>
<!-- \\DefaultRolePermission -->
<g id="node55" class="node"><title>\\DefaultRolePermission</title>
<polygon fill="none" stroke="black" points="1172,-2680 1014,-2680 1014,-2644 1172,-2644 1172,-2680"/>
<text text-anchor="middle" x="1093" y="-2659.1" font-family="Courier,monospace" font-size="11.00">DefaultRolePermission</text>
</g>
<!-- \\DefaultRolePermission&#45;&gt;\\RolesAppModel -->
<g id="edge97" class="edge"><title>\\DefaultRolePermission&#45;&gt;\\RolesAppModel</title>
<path fill="none" stroke="black" d="M1013.71,-2662C966.069,-2662 906.321,-2662 862.121,-2662"/>
<polygon fill="none" stroke="black" points="862.088,-2658.5 852.088,-2662 862.088,-2665.5 862.088,-2658.5"/>
</g>
<!-- \\RolesSchema -->
<g id="node56" class="node"><title>\\RolesSchema</title>
<polygon fill="none" stroke="black" points="1138,-412 1048,-412 1048,-376 1138,-376 1138,-412"/>
<text text-anchor="middle" x="1093" y="-391.1" font-family="Courier,monospace" font-size="11.00">RolesSchema</text>
</g>
<!-- \\CakeSchema -->
<g id="node120" class="node"><title>\\CakeSchema</title>
<ellipse fill="none" stroke="black" cx="800" cy="-18" rx="77.0746" ry="18.3848"/>
<text text-anchor="middle" x="800" y="-14.4" font-family="Times Roman,serif" font-size="14.00" fill="gray">\CakeSchema</text>
</g>
<!-- \\RolesSchema&#45;&gt;\\CakeSchema -->
<g id="edge99" class="edge"><title>\\RolesSchema&#45;&gt;\\CakeSchema</title>
<path fill="none" stroke="black" d="M1089.54,-375.725C1077.51,-317.407 1031.83,-134.35 918,-45 907.593,-36.8314 895.169,-31.0476 882.349,-26.9696"/>
<polygon fill="none" stroke="black" points="883.07,-23.5363 872.495,-24.1724 881.159,-30.2702 883.07,-23.5363"/>
</g>
<!-- \\Records -->
<g id="node57" class="node"><title>\\Records</title>
<polygon fill="none" stroke="black" points="1125,-1222 1061,-1222 1061,-1186 1125,-1186 1125,-1222"/>
<text text-anchor="middle" x="1093" y="-1201.1" font-family="Courier,monospace" font-size="11.00">Records</text>
</g>
<!-- \\Records&#45;&gt;\\NetCommonsMigration -->
<g id="edge101" class="edge"><title>\\Records&#45;&gt;\\NetCommonsMigration</title>
<path fill="none" stroke="black" d="M1060.77,-1196.36C1040.36,-1191.32 1013.47,-1184.32 990,-1177 944.331,-1162.75 893.424,-1144.12 855.808,-1129.8"/>
<polygon fill="none" stroke="black" points="856.645,-1126.37 846.055,-1126.07 854.146,-1132.91 856.645,-1126.37"/>
</g>
<!-- \\Init -->
<g id="node58" class="node"><title>\\Init</title>
<polygon fill="none" stroke="black" points="1120,-1114 1066,-1114 1066,-1078 1120,-1078 1120,-1114"/>
<text text-anchor="middle" x="1093" y="-1093.1" font-family="Courier,monospace" font-size="11.00">Init</text>
</g>
<!-- \\Init&#45;&gt;\\CakeMigration -->
<g id="edge103" class="edge"><title>\\Init&#45;&gt;\\CakeMigration</title>
<path fill="none" stroke="black" d="M1065.96,-1096.26C1042.64,-1094.98 1009.69,-1089.3 990,-1069 890.604,-966.549 971.854,-888.195 918,-756 841.994,-569.429 775.55,-547.421 682,-369 645.412,-299.219 670.269,-257.751 610,-207 602.951,-201.064 594.773,-196.406 586.139,-192.754"/>
<polygon fill="none" stroke="black" points="587.216,-189.42 576.624,-189.174 584.751,-195.971 587.216,-189.42"/>
</g>
</g>
</svg>
