<?xml version="1.0" encoding="UTF-8" standalone="no"?>
<!DOCTYPE svg PUBLIC "-//W3C//DTD SVG 1.1//EN"
 "http://www.w3.org/Graphics/SVG/1.1/DTD/svg11.dtd">
<!-- Generated by graphviz version 2.26.3 (20100126.1600)
 -->
<!-- Title: G Pages: 1 -->
<svg width="1060pt" height="2564pt"
 viewBox="0.00 0.00 1060.00 2564.00" xmlns="http://www.w3.org/2000/svg" xmlns:xlink="http://www.w3.org/1999/xlink">
<g id="graph1" class="graph" transform="scale(1 1) rotate(0) translate(4 2560)">
<title>G</title>
<polygon fill="white" stroke="white" points="-4,5 -4,-2560 1057,-2560 1057,5 -4,5"/>
<g id="graph2" class="cluster"><title>cluster_Global</title>
<polyline fill="none" stroke="gray" points="264,-368 1032,-368 "/>
<path fill="none" stroke="gray" d="M1032,-368C1038,-368 1044,-374 1044,-380"/>
<polyline fill="none" stroke="gray" points="1044,-380 1044,-2536 "/>
<path fill="none" stroke="gray" d="M1044,-2536C1044,-2542 1038,-2548 1032,-2548"/>
<polyline fill="none" stroke="gray" points="1032,-2548 264,-2548 "/>
<path fill="none" stroke="gray" d="M264,-2548C258,-2548 252,-2542 252,-2536"/>
<polyline fill="none" stroke="gray" points="252,-2536 252,-380 "/>
<path fill="none" stroke="gray" d="M252,-380C252,-374 258,-368 264,-368"/>
<text text-anchor="middle" x="648" y="-2534.1" font-family="Times Roman,serif" font-size="11.00" fill="gray">Global</text>
</g>
<!-- \\AppController -->
<g id="node2" class="node"><title>\\AppController</title>
<polygon fill="none" stroke="black" points="985,-1114 881,-1114 881,-1078 985,-1078 985,-1114"/>
<text text-anchor="middle" x="933" y="-1093.1" font-family="Courier,monospace" font-size="11.00">AppController</text>
</g>
<!-- \\Controller -->
<g id="node53" class="node"><title>\\Controller</title>
<ellipse fill="none" stroke="black" cx="343" cy="-234" rx="63.1385" ry="18.3848"/>
<text text-anchor="middle" x="343" y="-230.4" font-family="Times Roman,serif" font-size="14.00" fill="gray">\Controller</text>
</g>
<!-- \\AppController&#45;&gt;\\Controller -->
<g id="edge3" class="edge"><title>\\AppController&#45;&gt;\\Controller</title>
<path fill="none" stroke="black" d="M880.969,-1091.37C863.227,-1087.59 844.284,-1080.88 830,-1069 791.862,-1037.28 488.284,-292.544 450,-261 439.411,-252.275 426.372,-246.318 413.083,-242.264"/>
<polygon fill="none" stroke="black" points="413.962,-238.876 403.394,-239.636 412.129,-245.632 413.962,-238.876"/>
</g>
<!-- \\AppModel -->
<g id="node3" class="node"><title>\\AppModel</title>
<polygon fill="none" stroke="black" points="675,-2302 605,-2302 605,-2266 675,-2266 675,-2302"/>
<text text-anchor="middle" x="640" y="-2281.1" font-family="Courier,monospace" font-size="11.00">AppModel</text>
</g>
<!-- \\NetCommonsAppModel -->
<g id="node47" class="node"><title>\\NetCommonsAppModel</title>
<polygon fill="none" stroke="black" points="412,-2302 274,-2302 274,-2266 412,-2266 412,-2302"/>
<text text-anchor="middle" x="343" y="-2281.1" font-family="Courier,monospace" font-size="11.00">NetCommonsAppModel</text>
</g>
<!-- \\AppModel&#45;&gt;\\NetCommonsAppModel -->
<g id="edge5" class="edge"><title>\\AppModel&#45;&gt;\\NetCommonsAppModel</title>
<path fill="none" stroke="black" d="M604.47,-2284C559.713,-2284 481.497,-2284 422.241,-2284"/>
<polygon fill="none" stroke="black" points="422.157,-2280.5 412.157,-2284 422.157,-2287.5 422.157,-2280.5"/>
</g>
<!-- \\DatabaseConfiguration -->
<g id="node4" class="node"><title>\\DatabaseConfiguration</title>
<polygon fill="none" stroke="black" points="1012,-2302 854,-2302 854,-2266 1012,-2266 1012,-2302"/>
<text text-anchor="middle" x="933" y="-2281.1" font-family="Courier,monospace" font-size="11.00">DatabaseConfiguration</text>
</g>
<!-- \\DatabaseConfiguration&#45;&gt;\\AppModel -->
<g id="edge7" class="edge"><title>\\DatabaseConfiguration&#45;&gt;\\AppModel</title>
<path fill="none" stroke="black" d="M853.71,-2284C799.937,-2284 730.74,-2284 685.886,-2284"/>
<polygon fill="none" stroke="black" points="685.866,-2280.5 675.866,-2284 685.866,-2287.5 685.866,-2280.5"/>
</g>
<!-- \\AppHelper -->
<g id="node5" class="node"><title>\\AppHelper</title>
<polygon fill="none" stroke="black" points="678,-1897 602,-1897 602,-1861 678,-1861 678,-1897"/>
<text text-anchor="middle" x="640" y="-1876.1" font-family="Courier,monospace" font-size="11.00">AppHelper</text>
</g>
<!-- \\Helper -->
<g id="node57" class="node"><title>\\Helper</title>
<ellipse fill="none" stroke="black" cx="343" cy="-342" rx="43.8406" ry="18.3848"/>
<text text-anchor="middle" x="343" y="-338.4" font-family="Times Roman,serif" font-size="14.00" fill="gray">Helper</text>
</g>
<!-- \\AppHelper&#45;&gt;\\Helper -->
<g id="edge9" class="edge"><title>\\AppHelper&#45;&gt;\\Helper</title>
<path fill="none" stroke="black" d="M635.531,-1860.66C618.035,-1788.13 553.604,-1514.14 522,-1285 507.976,-1183.32 517.915,-440.965 450,-364 436.75,-348.984 416.226,-342.613 396.683,-340.309"/>
<polygon fill="none" stroke="black" points="396.857,-336.812 386.596,-339.451 396.264,-343.786 396.857,-336.812"/>
</g>
<!-- \\NetCommonsDeleteTest -->
<g id="node6" class="node"><title>\\NetCommonsDeleteTest</title>
<polygon fill="none" stroke="black" points="1009,-2518 857,-2518 857,-2482 1009,-2482 1009,-2518"/>
<text text-anchor="middle" x="933" y="-2497.1" font-family="Courier,monospace" font-size="11.00">NetCommonsDeleteTest</text>
</g>
<!-- \\NetCommonsModelTestCase -->
<g id="node15" class="node"><title>\\NetCommonsModelTestCase</title>
<polygon fill="none" stroke="black" points="726,-2437 554,-2437 554,-2401 726,-2401 726,-2437"/>
<text text-anchor="middle" x="640" y="-2416.1" font-family="Courier,monospace" font-size="11.00">NetCommonsModelTestCase</text>
</g>
<!-- \\NetCommonsDeleteTest&#45;&gt;\\NetCommonsModelTestCase -->
<g id="edge11" class="edge"><title>\\NetCommonsDeleteTest&#45;&gt;\\NetCommonsModelTestCase</title>
<path fill="none" stroke="black" d="M860.418,-2481.97C850.158,-2479.13 839.778,-2476.11 830,-2473 797.428,-2462.65 790.731,-2455.83 758,-2446 750.57,-2443.77 742.83,-2441.62 735.023,-2439.57"/>
<polygon fill="none" stroke="black" points="735.671,-2436.13 725.116,-2437.04 733.938,-2442.91 735.671,-2436.13"/>
</g>
<!-- \\NetCommonsConsoleTestCase -->
<g id="node7" class="node"><title>\\NetCommonsConsoleTestCase</title>
<polygon fill="none" stroke="black" points="732,-2383 548,-2383 548,-2347 732,-2347 732,-2383"/>
<text text-anchor="middle" x="640" y="-2362.1" font-family="Courier,monospace" font-size="11.00">NetCommonsConsoleTestCase</text>
</g>
<!-- \\NetCommonsCakeTestCase -->
<g id="node13" class="node"><title>\\NetCommonsCakeTestCase</title>
<polygon fill="none" stroke="black" points="425,-2437 261,-2437 261,-2401 425,-2401 425,-2437"/>
<text text-anchor="middle" x="343" y="-2416.1" font-family="Courier,monospace" font-size="11.00">NetCommonsCakeTestCase</text>
</g>
<!-- \\NetCommonsConsoleTestCase&#45;&gt;\\NetCommonsCakeTestCase -->
<g id="edge13" class="edge"><title>\\NetCommonsConsoleTestCase&#45;&gt;\\NetCommonsCakeTestCase</title>
<path fill="none" stroke="black" d="M547.249,-2381.86C511.778,-2388.31 471.343,-2395.66 435.861,-2402.12"/>
<polygon fill="none" stroke="black" points="435.206,-2398.68 425.993,-2403.91 436.458,-2405.56 435.206,-2398.68"/>
</g>
<!-- \\NetCommonsGetTest -->
<g id="node8" class="node"><title>\\NetCommonsGetTest</title>
<polygon fill="none" stroke="black" points="998,-2464 868,-2464 868,-2428 998,-2428 998,-2464"/>
<text text-anchor="middle" x="933" y="-2443.1" font-family="Courier,monospace" font-size="11.00">NetCommonsGetTest</text>
</g>
<!-- \\NetCommonsGetTest&#45;&gt;\\NetCommonsModelTestCase -->
<g id="edge15" class="edge"><title>\\NetCommonsGetTest&#45;&gt;\\NetCommonsModelTestCase</title>
<path fill="none" stroke="black" d="M867.245,-2439.94C828.664,-2436.39 779.217,-2431.83 736.305,-2427.87"/>
<polygon fill="none" stroke="black" points="736.399,-2424.37 726.12,-2426.94 735.756,-2431.34 736.399,-2424.37"/>
</g>
<!-- \\NetCommonsHelperTestCase -->
<g id="node9" class="node"><title>\\NetCommonsHelperTestCase</title>
<polygon fill="none" stroke="black" points="729,-2491 551,-2491 551,-2455 729,-2455 729,-2491"/>
<text text-anchor="middle" x="640" y="-2470.1" font-family="Courier,monospace" font-size="11.00">NetCommonsHelperTestCase</text>
</g>
<!-- \\NetCommonsHelperTestCase&#45;&gt;\\NetCommonsCakeTestCase -->
<g id="edge17" class="edge"><title>\\NetCommonsHelperTestCase&#45;&gt;\\NetCommonsCakeTestCase</title>
<path fill="none" stroke="black" d="M550.487,-2456.72C514.267,-2450.14 472.456,-2442.54 435.9,-2435.89"/>
<polygon fill="none" stroke="black" points="436.202,-2432.39 425.737,-2434.04 434.95,-2439.28 436.202,-2432.39"/>
</g>
<!-- \\NetCommonsControllerBaseTestCase -->
<g id="node10" class="node"><title>\\NetCommonsControllerBaseTestCase</title>
<polygon fill="none" stroke="black" points="756,-1276 524,-1276 524,-1240 756,-1240 756,-1276"/>
<text text-anchor="middle" x="640" y="-1255.1" font-family="Courier,monospace" font-size="11.00">NetCommonsControllerBaseTestCase</text>
</g>
<!-- \\ControllerTestCase -->
<g id="node63" class="node"><title>\\ControllerTestCase</title>
<ellipse fill="none" stroke="black" cx="343" cy="-288" rx="106.773" ry="18.3848"/>
<text text-anchor="middle" x="343" y="-284.4" font-family="Times Roman,serif" font-size="14.00" fill="gray">\ControllerTestCase</text>
</g>
<!-- \\NetCommonsControllerBaseTestCase&#45;&gt;\\ControllerTestCase -->
<g id="edge19" class="edge"><title>\\NetCommonsControllerBaseTestCase&#45;&gt;\\ControllerTestCase</title>
<path fill="none" stroke="black" d="M531.542,-1239.96C528.089,-1237.31 524.884,-1234.34 522,-1231 388.574,-1076.44 581.699,-471.032 450,-315 446.37,-310.699 442.164,-307.03 437.563,-303.904"/>
<polygon fill="none" stroke="black" points="439.292,-300.861 428.891,-298.845 435.765,-306.907 439.292,-300.861"/>
</g>
<!-- \\NetCommonsValidateTest -->
<g id="node11" class="node"><title>\\NetCommonsValidateTest</title>
<polygon fill="none" stroke="black" points="1015,-2410 851,-2410 851,-2374 1015,-2374 1015,-2410"/>
<text text-anchor="middle" x="933" y="-2389.1" font-family="Courier,monospace" font-size="11.00">NetCommonsValidateTest</text>
</g>
<!-- \\NetCommonsValidateTest&#45;&gt;\\NetCommonsModelTestCase -->
<g id="edge21" class="edge"><title>\\NetCommonsValidateTest&#45;&gt;\\NetCommonsModelTestCase</title>
<path fill="none" stroke="black" d="M850.213,-2399.63C814.791,-2402.89 773.196,-2406.73 736.397,-2410.12"/>
<polygon fill="none" stroke="black" points="735.791,-2406.66 726.154,-2411.06 736.433,-2413.63 735.791,-2406.66"/>
</g>
<!-- \\NetCommonsTestSuite -->
<g id="node12" class="node"><title>\\NetCommonsTestSuite</title>
<polygon fill="none" stroke="black" points="1005,-1060 861,-1060 861,-1024 1005,-1024 1005,-1060"/>
<text text-anchor="middle" x="933" y="-1039.1" font-family="Courier,monospace" font-size="11.00">NetCommonsTestSuite</text>
</g>
<!-- \\CakeTestSuite -->
<g id="node66" class="node"><title>\\CakeTestSuite</title>
<ellipse fill="none" stroke="black" cx="640" cy="-342" rx="84.1457" ry="18.3848"/>
<text text-anchor="middle" x="640" y="-338.4" font-family="Times Roman,serif" font-size="14.00" fill="gray">\CakeTestSuite</text>
</g>
<!-- \\NetCommonsTestSuite&#45;&gt;\\CakeTestSuite -->
<g id="edge23" class="edge"><title>\\NetCommonsTestSuite&#45;&gt;\\CakeTestSuite</title>
<path fill="none" stroke="black" d="M860.447,-1034.81C848.845,-1030.6 838.034,-1024.3 830,-1015 639.748,-794.678 956.063,-577.328 758,-364 751.088,-356.555 742.529,-351.148 733.202,-347.272"/>
<polygon fill="none" stroke="black" points="734.245,-343.929 723.65,-343.888 731.907,-350.527 734.245,-343.929"/>
</g>
<!-- \\CakeTestCase -->
<g id="node68" class="node"><title>\\CakeTestCase</title>
<ellipse fill="none" stroke="black" cx="82" cy="-2419" rx="82.0244" ry="18.3848"/>
<text text-anchor="middle" x="82" y="-2415.4" font-family="Times Roman,serif" font-size="14.00" fill="gray">\CakeTestCase</text>
</g>
<!-- \\NetCommonsCakeTestCase&#45;&gt;\\CakeTestCase -->
<g id="edge25" class="edge"><title>\\NetCommonsCakeTestCase&#45;&gt;\\CakeTestCase</title>
<path fill="none" stroke="black" d="M260.418,-2419C233.018,-2419 202.345,-2419 174.263,-2419"/>
<polygon fill="none" stroke="black" points="174.045,-2415.5 164.045,-2419 174.045,-2422.5 174.045,-2415.5"/>
</g>
<!-- \\NetCommonsSaveTest -->
<g id="node14" class="node"><title>\\NetCommonsSaveTest</title>
<polygon fill="none" stroke="black" points="1002,-2356 864,-2356 864,-2320 1002,-2320 1002,-2356"/>
<text text-anchor="middle" x="933" y="-2335.1" font-family="Courier,monospace" font-size="11.00">NetCommonsSaveTest</text>
</g>
<!-- \\NetCommonsSaveTest&#45;&gt;\\NetCommonsModelTestCase -->
<g id="edge27" class="edge"><title>\\NetCommonsSaveTest&#45;&gt;\\NetCommonsModelTestCase</title>
<path fill="none" stroke="black" d="M863.741,-2355.11C852.409,-2358.21 840.835,-2361.56 830,-2365 797.428,-2375.35 790.731,-2382.17 758,-2392 750.57,-2394.23 742.83,-2396.38 735.023,-2398.43"/>
<polygon fill="none" stroke="black" points="733.938,-2395.09 725.116,-2400.96 735.671,-2401.87 733.938,-2395.09"/>
</g>
<!-- \\NetCommonsModelTestCase&#45;&gt;\\NetCommonsCakeTestCase -->
<g id="edge29" class="edge"><title>\\NetCommonsModelTestCase&#45;&gt;\\NetCommonsCakeTestCase</title>
<path fill="none" stroke="black" d="M553.696,-2419C516.829,-2419 473.718,-2419 436.131,-2419"/>
<polygon fill="none" stroke="black" points="435.686,-2415.5 425.686,-2419 435.686,-2422.5 435.686,-2415.5"/>
</g>
<!-- \\NetCommonsControllerTestCase -->
<g id="node16" class="node"><title>\\NetCommonsControllerTestCase</title>
<polygon fill="none" stroke="black" points="1036,-1276 830,-1276 830,-1240 1036,-1240 1036,-1276"/>
<text text-anchor="middle" x="933" y="-1255.1" font-family="Courier,monospace" font-size="11.00">NetCommonsControllerTestCase</text>
</g>
<!-- \\NetCommonsControllerTestCase&#45;&gt;\\NetCommonsControllerBaseTestCase -->
<g id="edge31" class="edge"><title>\\NetCommonsControllerTestCase&#45;&gt;\\NetCommonsControllerBaseTestCase</title>
<path fill="none" stroke="black" d="M829.699,-1258C809.381,-1258 787.845,-1258 766.858,-1258"/>
<polygon fill="none" stroke="black" points="766.606,-1254.5 756.606,-1258 766.606,-1261.5 766.606,-1254.5"/>
</g>
<!-- \\NetCommonsAppController -->
<g id="node17" class="node"><title>\\NetCommonsAppController</title>
<polygon fill="none" stroke="black" points="726,-987 554,-987 554,-951 726,-951 726,-987"/>
<text text-anchor="middle" x="640" y="-966.1" font-family="Courier,monospace" font-size="11.00">NetCommonsAppController</text>
</g>
<!-- \\NetCommonsAppController&#45;&gt;\\Controller -->
<g id="edge33" class="edge"><title>\\NetCommonsAppController&#45;&gt;\\Controller</title>
<path fill="none" stroke="black" d="M553.916,-966.409C541.837,-962.478 530.623,-956.34 522,-947 314.041,-721.757 650.779,-492.666 450,-261 440.963,-250.573 428.543,-243.876 415.357,-239.635"/>
<polygon fill="none" stroke="black" points="416.229,-236.245 405.658,-236.963 414.37,-242.994 416.229,-236.245"/>
</g>
<!-- \\AssetComponent -->
<g id="node18" class="node"><title>\\AssetComponent</title>
<polygon fill="none" stroke="black" points="988,-898 878,-898 878,-862 988,-862 988,-898"/>
<text text-anchor="middle" x="933" y="-877.1" font-family="Courier,monospace" font-size="11.00">AssetComponent</text>
</g>
<!-- \\Component -->
<g id="node74" class="node"><title>\\Component</title>
<ellipse fill="none" stroke="black" cx="640" cy="-288" rx="70.9184" ry="18.3848"/>
<text text-anchor="middle" x="640" y="-284.4" font-family="Times Roman,serif" font-size="14.00" fill="gray">\Component</text>
</g>
<!-- \\AssetComponent&#45;&gt;\\Component -->
<g id="edge35" class="edge"><title>\\AssetComponent&#45;&gt;\\Component</title>
<path fill="none" stroke="black" d="M877.435,-877.354C859.902,-873.714 841.996,-866.575 830,-853 670.252,-672.227 920.569,-493.24 758,-315 748.162,-304.213 734.974,-297.293 720.979,-292.934"/>
<polygon fill="none" stroke="black" points="721.757,-289.519 711.192,-290.31 719.944,-296.281 721.757,-289.519"/>
</g>
<!-- \\NetCommonsTimeComponent -->
<g id="node19" class="node"><title>\\NetCommonsTimeComponent</title>
<polygon fill="none" stroke="black" points="1019,-844 847,-844 847,-808 1019,-808 1019,-844"/>
<text text-anchor="middle" x="933" y="-823.1" font-family="Courier,monospace" font-size="11.00">NetCommonsTimeComponent</text>
</g>
<!-- \\NetCommonsTimeComponent&#45;&gt;\\Component -->
<g id="edge37" class="edge"><title>\\NetCommonsTimeComponent&#45;&gt;\\Component</title>
<path fill="none" stroke="black" d="M846.819,-812.259C840.551,-808.726 834.814,-804.367 830,-799 684.8,-637.094 905.726,-474.605 758,-315 748.083,-304.286 734.859,-297.398 720.853,-293.049"/>
<polygon fill="none" stroke="black" points="721.628,-289.634 711.063,-290.429 719.818,-296.396 721.628,-289.634"/>
</g>
<!-- \\PermissionComponent -->
<g id="node20" class="node"><title>\\PermissionComponent</title>
<polygon fill="none" stroke="black" points="1005,-1006 861,-1006 861,-970 1005,-970 1005,-1006"/>
<text text-anchor="middle" x="933" y="-985.1" font-family="Courier,monospace" font-size="11.00">PermissionComponent</text>
</g>
<!-- \\PermissionComponent&#45;&gt;\\Component -->
<g id="edge39" class="edge"><title>\\PermissionComponent&#45;&gt;\\Component</title>
<path fill="none" stroke="black" d="M860.454,-980.809C848.851,-976.592 838.038,-970.301 830,-961 641.099,-742.429 950.312,-530.576 758,-315 748.225,-304.042 734.994,-297.054 720.924,-292.686"/>
<polygon fill="none" stroke="black" points="721.644,-289.256 711.08,-290.064 719.842,-296.02 721.644,-289.256"/>
</g>
<!-- \\NetCommonsComponent -->
<g id="node21" class="node"><title>\\NetCommonsComponent</title>
<polygon fill="none" stroke="black" points="1005,-952 861,-952 861,-916 1005,-916 1005,-952"/>
<text text-anchor="middle" x="933" y="-931.1" font-family="Courier,monospace" font-size="11.00">NetCommonsComponent</text>
</g>
<!-- \\NetCommonsComponent&#45;&gt;\\Component -->
<g id="edge41" class="edge"><title>\\NetCommonsComponent&#45;&gt;\\Component</title>
<path fill="none" stroke="black" d="M860.269,-926.647C848.757,-922.437 838.024,-916.191 830,-907 655.683,-707.337 935.432,-511.899 758,-315 748.227,-304.155 735.069,-297.207 721.082,-292.841"/>
<polygon fill="none" stroke="black" points="721.864,-289.426 711.298,-290.214 720.049,-296.187 721.864,-289.426"/>
</g>
<!-- \\NetCommonsController -->
<g id="node22" class="node"><title>\\NetCommonsController</title>
<polygon fill="none" stroke="black" points="1009,-1168 857,-1168 857,-1132 1009,-1132 1009,-1168"/>
<text text-anchor="middle" x="933" y="-1147.1" font-family="Courier,monospace" font-size="11.00">NetCommonsController</text>
</g>
<!-- \\NetCommonsController&#45;&gt;\\NetCommonsAppController -->
<g id="edge43" class="edge"><title>\\NetCommonsController&#45;&gt;\\NetCommonsAppController</title>
<path fill="none" stroke="black" d="M856.815,-1133.98C847.559,-1130.89 838.411,-1127.26 830,-1123 763.087,-1089.12 698.055,-1028.67 664.165,-994.454"/>
<polygon fill="none" stroke="black" points="666.521,-991.857 657.023,-987.162 661.521,-996.755 666.521,-991.857"/>
</g>
<!-- \\NetCommonsUrl -->
<g id="node23" class="node"><title>\\NetCommonsUrl</title>
<polygon fill="none" stroke="black" points="985,-1816 881,-1816 881,-1780 985,-1780 985,-1816"/>
<text text-anchor="middle" x="933" y="-1795.1" font-family="Courier,monospace" font-size="11.00">NetCommonsUrl</text>
</g>
<!-- \\NetCommonsTime -->
<g id="node24" class="node"><title>\\NetCommonsTime</title>
<polygon fill="none" stroke="black" points="988,-1762 878,-1762 878,-1726 988,-1726 988,-1762"/>
<text text-anchor="middle" x="933" y="-1741.1" font-family="Courier,monospace" font-size="11.00">NetCommonsTime</text>
</g>
<!-- \\CurrentBase -->
<g id="node25" class="node"><title>\\CurrentBase</title>
<polygon fill="none" stroke="black" points="685,-1222 595,-1222 595,-1186 685,-1186 685,-1222"/>
<text text-anchor="middle" x="640" y="-1201.1" font-family="Courier,monospace" font-size="11.00">CurrentBase</text>
</g>
<!-- \\Current -->
<g id="node26" class="node"><title>\\Current</title>
<polygon fill="none" stroke="black" points="965,-1222 901,-1222 901,-1186 965,-1186 965,-1222"/>
<text text-anchor="middle" x="933" y="-1201.1" font-family="Courier,monospace" font-size="11.00">Current</text>
</g>
<!-- \\Current&#45;&gt;\\CurrentBase -->
<g id="edge45" class="edge"><title>\\Current&#45;&gt;\\CurrentBase</title>
<path fill="none" stroke="black" d="M900.806,-1204C851.48,-1204 756.554,-1204 695.846,-1204"/>
<polygon fill="none" stroke="black" points="695.669,-1200.5 685.669,-1204 695.669,-1207.5 695.669,-1200.5"/>
</g>
<!-- \\CurrentSystem -->
<g id="node27" class="node"><title>\\CurrentSystem</title>
<polygon fill="none" stroke="black" points="985,-1654 881,-1654 881,-1618 985,-1618 985,-1654"/>
<text text-anchor="middle" x="933" y="-1633.1" font-family="Courier,monospace" font-size="11.00">CurrentSystem</text>
</g>
<!-- \\CurrentPage -->
<g id="node28" class="node"><title>\\CurrentPage</title>
<polygon fill="none" stroke="black" points="978,-1600 888,-1600 888,-1564 978,-1564 978,-1600"/>
<text text-anchor="middle" x="933" y="-1579.1" font-family="Courier,monospace" font-size="11.00">CurrentPage</text>
</g>
<!-- \\CurrentFrame -->
<g id="node29" class="node"><title>\\CurrentFrame</title>
<polygon fill="none" stroke="black" points="982,-1546 884,-1546 884,-1510 982,-1510 982,-1546"/>
<text text-anchor="middle" x="933" y="-1525.1" font-family="Courier,monospace" font-size="11.00">CurrentFrame</text>
</g>
<!-- \\TokenHelper -->
<g id="node30" class="node"><title>\\TokenHelper</title>
<polygon fill="none" stroke="black" points="978,-736 888,-736 888,-700 978,-700 978,-736"/>
<text text-anchor="middle" x="933" y="-715.1" font-family="Courier,monospace" font-size="11.00">TokenHelper</text>
</g>
<!-- \\FormHelper -->
<g id="node81" class="node"><title>\\FormHelper</title>
<ellipse fill="none" stroke="black" cx="640" cy="-234" rx="70.9184" ry="18.3848"/>
<text text-anchor="middle" x="640" y="-230.4" font-family="Times Roman,serif" font-size="14.00" fill="gray">\FormHelper</text>
</g>
<!-- \\TokenHelper&#45;&gt;\\FormHelper -->
<g id="edge47" class="edge"><title>\\TokenHelper&#45;&gt;\\FormHelper</title>
<path fill="none" stroke="black" d="M887.255,-716.813C866.966,-713.861 844.462,-706.833 830,-691 699.318,-547.927 890.914,-402.002 758,-261 747.986,-250.377 734.718,-243.531 720.698,-239.194"/>
<polygon fill="none" stroke="black" points="721.468,-235.777 710.904,-236.577 719.661,-242.54 721.468,-235.777"/>
</g>
<!-- \\SingletonViewBlockHtmlHelper -->
<g id="node31" class="node"><title>\\SingletonViewBlockHtmlHelper</title>
<polygon fill="none" stroke="black" points="1036,-628 830,-628 830,-592 1036,-592 1036,-628"/>
<text text-anchor="middle" x="933" y="-607.1" font-family="Courier,monospace" font-size="11.00">SingletonViewBlockHtmlHelper</text>
</g>
<!-- \\HtmlHelper -->
<g id="node83" class="node"><title>\\HtmlHelper</title>
<ellipse fill="none" stroke="black" cx="640" cy="-180" rx="67.1751" ry="18.3848"/>
<text text-anchor="middle" x="640" y="-176.4" font-family="Times Roman,serif" font-size="14.00" fill="gray">HtmlHelper</text>
</g>
<!-- \\SingletonViewBlockHtmlHelper&#45;&gt;\\HtmlHelper -->
<g id="edge49" class="edge"><title>\\SingletonViewBlockHtmlHelper&#45;&gt;\\HtmlHelper</title>
<path fill="none" stroke="black" d="M840.465,-591.968C836.678,-589.35 833.156,-586.376 830,-583 713.795,-458.716 876.143,-329.443 758,-207 746.987,-195.587 732.213,-188.556 716.851,-184.316"/>
<polygon fill="none" stroke="black" points="717.243,-180.812 706.706,-181.915 715.631,-187.624 717.243,-180.812"/>
</g>
<!-- \\FormInputHelper -->
<g id="node32" class="node"><title>\\FormInputHelper</title>
<polygon fill="none" stroke="black" points="992,-2194 874,-2194 874,-2158 992,-2158 992,-2194"/>
<text text-anchor="middle" x="933" y="-2173.1" font-family="Courier,monospace" font-size="11.00">FormInputHelper</text>
</g>
<!-- \\FormInputHelper&#45;&gt;\\AppHelper -->
<g id="edge51" class="edge"><title>\\FormInputHelper&#45;&gt;\\AppHelper</title>
<path fill="none" stroke="black" d="M873.801,-2167.95C858.597,-2163.95 842.906,-2157.96 830,-2149 738.034,-2085.14 675.79,-1961.53 651.457,-1906.54"/>
<polygon fill="none" stroke="black" points="654.551,-1904.87 647.356,-1897.1 648.13,-1907.66 654.551,-1904.87"/>
</g>
<!-- \\WizardHelper -->
<g id="node33" class="node"><title>\\WizardHelper</title>
<polygon fill="none" stroke="black" points="982,-2140 884,-2140 884,-2104 982,-2104 982,-2140"/>
<text text-anchor="middle" x="933" y="-2119.1" font-family="Courier,monospace" font-size="11.00">WizardHelper</text>
</g>
<!-- \\WizardHelper&#45;&gt;\\AppHelper -->
<g id="edge53" class="edge"><title>\\WizardHelper&#45;&gt;\\AppHelper</title>
<path fill="none" stroke="black" d="M883.968,-2115.31C866.043,-2111.32 846.204,-2105 830,-2095 749.876,-2045.56 684.727,-1951.81 655.946,-1905.81"/>
<polygon fill="none" stroke="black" points="658.75,-1903.69 650.523,-1897.02 652.792,-1907.36 658.75,-1903.69"/>
</g>
<!-- \\DisplayNumberHelper -->
<g id="node34" class="node"><title>\\DisplayNumberHelper</title>
<polygon fill="none" stroke="black" points="1005,-2086 861,-2086 861,-2050 1005,-2050 1005,-2086"/>
<text text-anchor="middle" x="933" y="-2065.1" font-family="Courier,monospace" font-size="11.00">DisplayNumberHelper</text>
</g>
<!-- \\DisplayNumberHelper&#45;&gt;\\AppHelper -->
<g id="edge55" class="edge"><title>\\DisplayNumberHelper&#45;&gt;\\AppHelper</title>
<path fill="none" stroke="black" d="M860.25,-2053.35C849.808,-2049.99 839.422,-2045.92 830,-2041 761.41,-2005.19 696.097,-1940.56 662.838,-1904.7"/>
<polygon fill="none" stroke="black" points="665.192,-1902.09 655.854,-1897.09 660.033,-1906.83 665.192,-1902.09"/>
</g>
<!-- \\MessageFlashHelper -->
<g id="node35" class="node"><title>\\MessageFlashHelper</title>
<polygon fill="none" stroke="black" points="1002,-2032 864,-2032 864,-1996 1002,-1996 1002,-2032"/>
<text text-anchor="middle" x="933" y="-2011.1" font-family="Courier,monospace" font-size="11.00">MessageFlashHelper</text>
</g>
<!-- \\MessageFlashHelper&#45;&gt;\\AppHelper -->
<g id="edge57" class="edge"><title>\\MessageFlashHelper&#45;&gt;\\AppHelper</title>
<path fill="none" stroke="black" d="M863.761,-1998.51C852.316,-1995.2 840.701,-1991.36 830,-1987 773.066,-1963.82 712.097,-1926.73 675.004,-1902.61"/>
<polygon fill="none" stroke="black" points="676.839,-1899.63 666.557,-1897.07 673.002,-1905.48 676.839,-1899.63"/>
</g>
<!-- \\DateHelper -->
<g id="node36" class="node"><title>\\DateHelper</title>
<polygon fill="none" stroke="black" points="975,-1978 891,-1978 891,-1942 975,-1942 975,-1978"/>
<text text-anchor="middle" x="933" y="-1957.1" font-family="Courier,monospace" font-size="11.00">DateHelper</text>
</g>
<!-- \\DateHelper&#45;&gt;\\AppHelper -->
<g id="edge59" class="edge"><title>\\DateHelper&#45;&gt;\\AppHelper</title>
<path fill="none" stroke="black" d="M890.853,-1949.16C872.184,-1944.31 849.973,-1938.46 830,-1933 781.716,-1919.81 726.728,-1904.11 688.375,-1893.04"/>
<polygon fill="none" stroke="black" points="689.087,-1889.61 678.508,-1890.2 687.145,-1896.33 689.087,-1889.61"/>
</g>
<!-- \\SnsButtonHelper -->
<g id="node37" class="node"><title>\\SnsButtonHelper</title>
<polygon fill="none" stroke="black" points="992,-1924 874,-1924 874,-1888 992,-1888 992,-1924"/>
<text text-anchor="middle" x="933" y="-1903.1" font-family="Courier,monospace" font-size="11.00">SnsButtonHelper</text>
</g>
<!-- \\SnsButtonHelper&#45;&gt;\\AppHelper -->
<g id="edge61" class="edge"><title>\\SnsButtonHelper&#45;&gt;\\AppHelper</title>
<path fill="none" stroke="black" d="M873.707,-1900.54C819.266,-1895.52 739.563,-1888.17 688.738,-1883.49"/>
<polygon fill="none" stroke="black" points="688.942,-1880 678.663,-1882.56 688.299,-1886.97 688.942,-1880"/>
</g>
<!-- \\BackToHelper -->
<g id="node38" class="node"><title>\\BackToHelper</title>
<polygon fill="none" stroke="black" points="982,-1870 884,-1870 884,-1834 982,-1834 982,-1870"/>
<text text-anchor="middle" x="933" y="-1849.1" font-family="Courier,monospace" font-size="11.00">BackToHelper</text>
</g>
<!-- \\BackToHelper&#45;&gt;\\AppHelper -->
<g id="edge63" class="edge"><title>\\BackToHelper&#45;&gt;\\AppHelper</title>
<path fill="none" stroke="black" d="M883.958,-1856.52C829.78,-1861.51 743.056,-1869.5 688.925,-1874.49"/>
<polygon fill="none" stroke="black" points="688.519,-1871.01 678.882,-1875.42 689.161,-1877.98 688.519,-1871.01"/>
</g>
<!-- \\NetCommonsHtmlHelper -->
<g id="node39" class="node"><title>\\NetCommonsHtmlHelper</title>
<polygon fill="none" stroke="black" points="1009,-1708 857,-1708 857,-1672 1009,-1672 1009,-1708"/>
<text text-anchor="middle" x="933" y="-1687.1" font-family="Courier,monospace" font-size="11.00">NetCommonsHtmlHelper</text>
</g>
<!-- \\NetCommonsHtmlHelper&#45;&gt;\\AppHelper -->
<g id="edge65" class="edge"><title>\\NetCommonsHtmlHelper&#45;&gt;\\AppHelper</title>
<path fill="none" stroke="black" d="M856.984,-1705.73C847.651,-1708.87 838.439,-1712.59 830,-1717 761.41,-1752.81 696.097,-1817.44 662.838,-1853.3"/>
<polygon fill="none" stroke="black" points="660.033,-1851.17 655.854,-1860.91 665.192,-1855.91 660.033,-1851.17"/>
</g>
<!-- \\ButtonHelper -->
<g id="node40" class="node"><title>\\ButtonHelper</title>
<polygon fill="none" stroke="black" points="982,-682 884,-682 884,-646 982,-646 982,-682"/>
<text text-anchor="middle" x="933" y="-661.1" font-family="Courier,monospace" font-size="11.00">ButtonHelper</text>
</g>
<!-- \\ButtonHelper&#45;&gt;\\FormHelper -->
<g id="edge67" class="edge"><title>\\ButtonHelper&#45;&gt;\\FormHelper</title>
<path fill="none" stroke="black" d="M883.995,-662.12C864.667,-658.863 843.825,-651.786 830,-637 713.795,-512.716 876.143,-383.443 758,-261 747.863,-250.494 734.538,-243.702 720.502,-239.381"/>
<polygon fill="none" stroke="black" points="721.266,-235.962 710.702,-236.77 719.464,-242.726 721.266,-235.962"/>
</g>
<!-- \\ComposerHelper -->
<g id="node41" class="node"><title>\\ComposerHelper</title>
<polygon fill="none" stroke="black" points="988,-1492 878,-1492 878,-1456 988,-1456 988,-1492"/>
<text text-anchor="middle" x="933" y="-1471.1" font-family="Courier,monospace" font-size="11.00">ComposerHelper</text>
</g>
<!-- \\ComposerHelper&#45;&gt;\\AppHelper -->
<g id="edge69" class="edge"><title>\\ComposerHelper&#45;&gt;\\AppHelper</title>
<path fill="none" stroke="black" d="M877.42,-1479.68C860.793,-1483.59 843.432,-1490.12 830,-1501 713.272,-1595.53 661.79,-1780.25 645.802,-1850.74"/>
<polygon fill="none" stroke="black" points="642.349,-1850.15 643.616,-1860.67 649.185,-1851.65 642.349,-1850.15"/>
</g>
<!-- \\LinkButtonHelper -->
<g id="node42" class="node"><title>\\LinkButtonHelper</title>
<polygon fill="none" stroke="black" points="995,-790 871,-790 871,-754 995,-754 995,-790"/>
<text text-anchor="middle" x="933" y="-769.1" font-family="Courier,monospace" font-size="11.00">LinkButtonHelper</text>
</g>
<!-- \\LinkButtonHelper&#45;&gt;\\FormHelper -->
<g id="edge71" class="edge"><title>\\LinkButtonHelper&#45;&gt;\\FormHelper</title>
<path fill="none" stroke="black" d="M870.3,-767.541C855.196,-763.523 840.429,-756.629 830,-745 684.8,-583.094 905.726,-420.605 758,-261 748.083,-250.286 734.859,-243.398 720.853,-239.049"/>
<polygon fill="none" stroke="black" points="721.628,-235.634 711.063,-236.429 719.818,-242.396 721.628,-235.634"/>
</g>
<!-- \\NetCommonsTimeHelper -->
<g id="node43" class="node"><title>\\NetCommonsTimeHelper</title>
<polygon fill="none" stroke="black" points="1009,-1438 857,-1438 857,-1402 1009,-1402 1009,-1438"/>
<text text-anchor="middle" x="933" y="-1417.1" font-family="Courier,monospace" font-size="11.00">NetCommonsTimeHelper</text>
</g>
<!-- \\NetCommonsTimeHelper&#45;&gt;\\AppHelper -->
<g id="edge73" class="edge"><title>\\NetCommonsTimeHelper&#45;&gt;\\AppHelper</title>
<path fill="none" stroke="black" d="M856.786,-1431.49C847.066,-1435.3 837.805,-1440.34 830,-1447 700.231,-1557.73 655.867,-1774.1 643.825,-1851.03"/>
<polygon fill="none" stroke="black" points="640.362,-1850.52 642.335,-1860.93 647.284,-1851.57 640.362,-1850.52"/>
</g>
<!-- \\NetCommonsFormHelper -->
<g id="node44" class="node"><title>\\NetCommonsFormHelper</title>
<polygon fill="none" stroke="black" points="1009,-1384 857,-1384 857,-1348 1009,-1348 1009,-1384"/>
<text text-anchor="middle" x="933" y="-1363.1" font-family="Courier,monospace" font-size="11.00">NetCommonsFormHelper</text>
</g>
<!-- \\NetCommonsFormHelper&#45;&gt;\\AppHelper -->
<g id="edge75" class="edge"><title>\\NetCommonsFormHelper&#45;&gt;\\AppHelper</title>
<path fill="none" stroke="black" d="M856.79,-1377.09C847.012,-1380.95 837.733,-1386.12 830,-1393 687.368,-1519.94 650.808,-1767.27 642.341,-1850.73"/>
<polygon fill="none" stroke="black" points="638.852,-1850.44 641.383,-1860.73 645.82,-1851.11 638.852,-1850.44"/>
</g>
<!-- \\TitleIconHelper -->
<g id="node45" class="node"><title>\\TitleIconHelper</title>
<polygon fill="none" stroke="black" points="992,-1330 874,-1330 874,-1294 992,-1294 992,-1330"/>
<text text-anchor="middle" x="933" y="-1309.1" font-family="Courier,monospace" font-size="11.00">TitleIconHelper</text>
</g>
<!-- \\TitleIconHelper&#45;&gt;\\AppHelper -->
<g id="edge77" class="edge"><title>\\TitleIconHelper&#45;&gt;\\AppHelper</title>
<path fill="none" stroke="black" d="M873.872,-1317.31C858.055,-1321.27 842.033,-1327.92 830,-1339 674.226,-1482.5 646.135,-1761.3 641.095,-1850.69"/>
<polygon fill="none" stroke="black" points="637.59,-1850.7 640.577,-1860.87 644.581,-1851.06 637.59,-1850.7"/>
</g>
<!-- \\DatetimePickerHelper -->
<g id="node46" class="node"><title>\\DatetimePickerHelper</title>
<polygon fill="none" stroke="black" points="1009,-2248 857,-2248 857,-2212 1009,-2212 1009,-2248"/>
<text text-anchor="middle" x="933" y="-2227.1" font-family="Courier,monospace" font-size="11.00">DatetimePickerHelper</text>
</g>
<!-- \\DatetimePickerHelper&#45;&gt;\\AppHelper -->
<g id="edge79" class="edge"><title>\\DatetimePickerHelper&#45;&gt;\\AppHelper</title>
<path fill="none" stroke="black" d="M856.942,-2217.46C847.31,-2213.8 838.03,-2209.08 830,-2203 725.624,-2123.92 668.084,-1969.53 648.129,-1906.65"/>
<polygon fill="none" stroke="black" points="651.45,-1905.54 645.144,-1897.03 644.764,-1907.61 651.45,-1905.54"/>
</g>
<!-- \\Model -->
<g id="node100" class="node"><title>\\Model</title>
<ellipse fill="none" stroke="black" cx="82" cy="-2284" rx="43.8406" ry="18.3848"/>
<text text-anchor="middle" x="82" y="-2280.4" font-family="Times Roman,serif" font-size="14.00" fill="gray">\Model</text>
</g>
<!-- \\NetCommonsAppModel&#45;&gt;\\Model -->
<g id="edge81" class="edge"><title>\\NetCommonsAppModel&#45;&gt;\\Model</title>
<path fill="none" stroke="black" d="M273.742,-2284C230.675,-2284 176.099,-2284 136.195,-2284"/>
<polygon fill="none" stroke="black" points="136.125,-2280.5 126.125,-2284 136.125,-2287.5 136.125,-2280.5"/>
</g>
<!-- \\OriginalKeyBehavior -->
<g id="node48" class="node"><title>\\OriginalKeyBehavior</title>
<polygon fill="none" stroke="black" points="1005,-574 861,-574 861,-538 1005,-538 1005,-574"/>
<text text-anchor="middle" x="933" y="-553.1" font-family="Courier,monospace" font-size="11.00">OriginalKeyBehavior</text>
</g>
<!-- \\ModelBehavior -->
<g id="node102" class="node"><title>\\ModelBehavior</title>
<ellipse fill="none" stroke="black" cx="640" cy="-126" rx="86.9741" ry="18.3848"/>
<text text-anchor="middle" x="640" y="-122.4" font-family="Times Roman,serif" font-size="14.00" fill="gray">\ModelBehavior</text>
</g>
<!-- \\OriginalKeyBehavior&#45;&gt;\\ModelBehavior -->
<g id="edge83" class="edge"><title>\\OriginalKeyBehavior&#45;&gt;\\ModelBehavior</title>
<path fill="none" stroke="black" d="M860.253,-547.995C848.886,-543.838 838.206,-537.777 830,-529 713.795,-404.716 876.143,-275.443 758,-153 750.646,-145.379 741.615,-139.712 731.852,-135.525"/>
<polygon fill="none" stroke="black" points="732.89,-132.176 722.298,-131.949 730.436,-138.732 732.89,-132.176"/>
</g>
<!-- \\TrackableBehavior -->
<g id="node49" class="node"><title>\\TrackableBehavior</title>
<polygon fill="none" stroke="black" points="998,-520 868,-520 868,-484 998,-484 998,-520"/>
<text text-anchor="middle" x="933" y="-499.1" font-family="Courier,monospace" font-size="11.00">TrackableBehavior</text>
</g>
<!-- \\TrackableBehavior&#45;&gt;\\ModelBehavior -->
<g id="edge85" class="edge"><title>\\TrackableBehavior&#45;&gt;\\ModelBehavior</title>
<path fill="none" stroke="black" d="M867.375,-496.047C853.48,-491.941 840.009,-485.38 830,-475 728.21,-369.437 861.436,-256.95 758,-153 750.53,-145.493 741.428,-139.895 731.627,-135.745"/>
<polygon fill="none" stroke="black" points="732.638,-132.388 722.045,-132.196 730.207,-138.952 732.638,-132.388"/>
</g>
<!-- \\YAExceptionRenderer -->
<g id="node50" class="node"><title>\\YAExceptionRenderer</title>
<polygon fill="none" stroke="black" points="1005,-466 861,-466 861,-430 1005,-430 1005,-466"/>
<text text-anchor="middle" x="933" y="-445.1" font-family="Courier,monospace" font-size="11.00">YAExceptionRenderer</text>
</g>
<!-- \\ExceptionRenderer -->
<g id="node105" class="node"><title>\\ExceptionRenderer</title>
<ellipse fill="none" stroke="black" cx="640" cy="-72" rx="118.087" ry="18.3848"/>
<text text-anchor="middle" x="640" y="-68.4" font-family="Times Roman,serif" font-size="14.00" fill="gray">TEHxceptionRenderer</text>
</g>
<!-- \\YAExceptionRenderer&#45;&gt;\\ExceptionRenderer -->
<g id="edge87" class="edge"><title>\\YAExceptionRenderer&#45;&gt;\\ExceptionRenderer</title>
<path fill="none" stroke="black" d="M860.477,-439.783C849.086,-435.648 838.341,-429.65 830,-421 728.21,-315.437 861.436,-202.95 758,-99 753.632,-94.61 748.706,-90.873 743.408,-87.6967"/>
<polygon fill="none" stroke="black" points="744.657,-84.4002 734.174,-82.8643 741.411,-90.6022 744.657,-84.4002"/>
</g>
<!-- \\NetCommonsMigration -->
<g id="node51" class="node"><title>\\NetCommonsMigration</title>
<polygon fill="none" stroke="black" points="1005,-412 861,-412 861,-376 1005,-376 1005,-412"/>
<text text-anchor="middle" x="933" y="-391.1" font-family="Courier,monospace" font-size="11.00">NetCommonsMigration</text>
</g>
<!-- \\CakeMigration -->
<g id="node107" class="node"><title>\\CakeMigration</title>
<ellipse fill="none" stroke="black" cx="640" cy="-18" rx="84.8528" ry="18.3848"/>
<text text-anchor="middle" x="640" y="-14.4" font-family="Times Roman,serif" font-size="14.00" fill="gray">\CakeMigration</text>
</g>
<!-- \\NetCommonsMigration&#45;&gt;\\CakeMigration -->
<g id="edge89" class="edge"><title>\\NetCommonsMigration&#45;&gt;\\CakeMigration</title>
<path fill="none" stroke="black" d="M929.544,-375.725C917.514,-317.407 871.834,-134.35 758,-45 748.922,-37.8745 738.309,-32.5637 727.237,-28.6167"/>
<polygon fill="none" stroke="black" points="728.007,-25.1887 717.416,-25.488 725.882,-31.8584 728.007,-25.1887"/>
</g>
</g>
</svg>
