<?xml version="1.0" encoding="UTF-8" standalone="no"?>
<!DOCTYPE svg PUBLIC "-//W3C//DTD SVG 1.1//EN"
 "http://www.w3.org/Graphics/SVG/1.1/DTD/svg11.dtd">
<!-- Generated by graphviz version 2.26.3 (20100126.1600)
 -->
<!-- Title: G Pages: 1 -->
<svg width="1220pt" height="2942pt"
 viewBox="0.00 0.00 1220.00 2942.00" xmlns="http://www.w3.org/2000/svg" xmlns:xlink="http://www.w3.org/1999/xlink">
<g id="graph1" class="graph" transform="scale(1 1) rotate(0) translate(4 2938)">
<title>G</title>
<polygon fill="white" stroke="white" points="-4,5 -4,-2938 1217,-2938 1217,5 -4,5"/>
<g id="graph2" class="cluster"><title>cluster_Global</title>
<polyline fill="none" stroke="gray" points="177,-422 1192,-422 "/>
<path fill="none" stroke="gray" d="M1192,-422C1198,-422 1204,-428 1204,-434"/>
<polyline fill="none" stroke="gray" points="1204,-434 1204,-2914 "/>
<path fill="none" stroke="gray" d="M1204,-2914C1204,-2920 1198,-2926 1192,-2926"/>
<polyline fill="none" stroke="gray" points="1192,-2926 177,-2926 "/>
<path fill="none" stroke="gray" d="M177,-2926C171,-2926 165,-2920 165,-2914"/>
<polyline fill="none" stroke="gray" points="165,-2914 165,-434 "/>
<path fill="none" stroke="gray" d="M165,-434C165,-428 171,-422 177,-422"/>
<text text-anchor="middle" x="684.5" y="-2912.1" font-family="Times Roman,serif" font-size="11.00" fill="gray">Global</text>
</g>
<!-- \\AppController -->
<g id="node2" class="node"><title>\\AppController</title>
<polygon fill="none" stroke="black" points="555,-1520 451,-1520 451,-1484 555,-1484 555,-1520"/>
<text text-anchor="middle" x="503" y="-1499.1" font-family="Courier,monospace" font-size="11.00">AppController</text>
</g>
<!-- \\Controller -->
<g id="node63" class="node"><title>\\Controller</title>
<ellipse fill="none" stroke="black" cx="242" cy="-319" rx="63.1385" ry="18.3848"/>
<text text-anchor="middle" x="242" y="-315.4" font-family="Times Roman,serif" font-size="14.00" fill="gray">\Controller</text>
</g>
<!-- \\AppController&#45;&gt;\\Controller -->
<g id="edge3" class="edge"><title>\\AppController&#45;&gt;\\Controller</title>
<path fill="none" stroke="black" d="M450.826,-1503.96C430.791,-1501.84 409.512,-1495.52 396,-1480 233.541,-1293.41 452.043,-580.696 324,-369 316.077,-355.901 303.29,-345.766 290.147,-338.155"/>
<polygon fill="none" stroke="black" points="291.514,-334.917 281.046,-333.283 288.21,-341.088 291.514,-334.917"/>
</g>
<!-- \\AppModel -->
<g id="node3" class="node"><title>\\AppModel</title>
<polygon fill="none" stroke="black" points="538,-2869 468,-2869 468,-2833 538,-2833 538,-2869"/>
<text text-anchor="middle" x="503" y="-2848.1" font-family="Courier,monospace" font-size="11.00">AppModel</text>
</g>
<!-- \\NetCommonsAppModel -->
<g id="node48" class="node"><title>\\NetCommonsAppModel</title>
<polygon fill="none" stroke="black" points="311,-2869 173,-2869 173,-2833 311,-2833 311,-2869"/>
<text text-anchor="middle" x="242" y="-2848.1" font-family="Courier,monospace" font-size="11.00">NetCommonsAppModel</text>
</g>
<!-- \\AppModel&#45;&gt;\\NetCommonsAppModel -->
<g id="edge5" class="edge"><title>\\AppModel&#45;&gt;\\NetCommonsAppModel</title>
<path fill="none" stroke="black" d="M467.256,-2851C429.848,-2851 369.903,-2851 321.254,-2851"/>
<polygon fill="none" stroke="black" points="321.056,-2847.5 311.056,-2851 321.056,-2854.5 321.056,-2847.5"/>
</g>
<!-- \\DatabaseConfiguration -->
<g id="node4" class="node"><title>\\DatabaseConfiguration</title>
<polygon fill="none" stroke="black" points="879,-2896 721,-2896 721,-2860 879,-2860 879,-2896"/>
<text text-anchor="middle" x="800" y="-2875.1" font-family="Courier,monospace" font-size="11.00">DatabaseConfiguration</text>
</g>
<!-- \\DatabaseConfiguration&#45;&gt;\\AppModel -->
<g id="edge7" class="edge"><title>\\DatabaseConfiguration&#45;&gt;\\AppModel</title>
<path fill="none" stroke="black" d="M720.8,-2870.8C665.959,-2865.81 594.863,-2859.35 549.084,-2855.19"/>
<polygon fill="none" stroke="black" points="549.143,-2851.68 538.867,-2854.26 548.509,-2858.65 549.143,-2851.68"/>
</g>
<!-- \\AppHelper -->
<g id="node5" class="node"><title>\\AppHelper</title>
<polygon fill="none" stroke="black" points="838,-1789 762,-1789 762,-1753 838,-1753 838,-1789"/>
<text text-anchor="middle" x="800" y="-1768.1" font-family="Courier,monospace" font-size="11.00">AppHelper</text>
</g>
<!-- \\Helper -->
<g id="node67" class="node"><title>\\Helper</title>
<ellipse fill="none" stroke="black" cx="503" cy="-396" rx="43.8406" ry="18.3848"/>
<text text-anchor="middle" x="503" y="-392.4" font-family="Times Roman,serif" font-size="14.00" fill="gray">Helper</text>
</g>
<!-- \\AppHelper&#45;&gt;\\Helper -->
<g id="edge9" class="edge"><title>\\AppHelper&#45;&gt;\\Helper</title>
<path fill="none" stroke="black" d="M792.707,-1752.89C771.404,-1699.11 709.067,-1535.16 682,-1393 661.682,-1286.29 681.698,-499.606 610,-418 596.782,-402.956 576.264,-396.579 556.717,-394.28"/>
<polygon fill="none" stroke="black" points="556.887,-390.782 546.627,-393.425 556.295,-397.757 556.887,-390.782"/>
</g>
<!-- \\NetCommonsDeleteTest -->
<g id="node6" class="node"><title>\\NetCommonsDeleteTest</title>
<polygon fill="none" stroke="black" points="1169,-2788 1017,-2788 1017,-2752 1169,-2752 1169,-2788"/>
<text text-anchor="middle" x="1093" y="-2767.1" font-family="Courier,monospace" font-size="11.00">NetCommonsDeleteTest</text>
</g>
<!-- \\NetCommonsModelTestCase -->
<g id="node15" class="node"><title>\\NetCommonsModelTestCase</title>
<polygon fill="none" stroke="black" points="886,-2680 714,-2680 714,-2644 886,-2644 886,-2680"/>
<text text-anchor="middle" x="800" y="-2659.1" font-family="Courier,monospace" font-size="11.00">NetCommonsModelTestCase</text>
</g>
<!-- \\NetCommonsDeleteTest&#45;&gt;\\NetCommonsModelTestCase -->
<g id="edge11" class="edge"><title>\\NetCommonsDeleteTest&#45;&gt;\\NetCommonsModelTestCase</title>
<path fill="none" stroke="black" d="M1016.97,-2753.68C1007.68,-2750.64 998.49,-2747.1 990,-2743 953.981,-2725.6 954.288,-2705.83 918,-2689 910.962,-2685.74 903.501,-2682.85 895.884,-2680.31"/>
<polygon fill="none" stroke="black" points="896.762,-2676.91 886.173,-2677.26 894.666,-2683.59 896.762,-2676.91"/>
</g>
<!-- \\NetCommonsConsoleTestCase -->
<g id="node7" class="node"><title>\\NetCommonsConsoleTestCase</title>
<polygon fill="none" stroke="black" points="892,-2626 708,-2626 708,-2590 892,-2590 892,-2626"/>
<text text-anchor="middle" x="800" y="-2605.1" font-family="Courier,monospace" font-size="11.00">NetCommonsConsoleTestCase</text>
</g>
<!-- \\NetCommonsCakeTestCase -->
<g id="node13" class="node"><title>\\NetCommonsCakeTestCase</title>
<polygon fill="none" stroke="black" points="585,-2653 421,-2653 421,-2617 585,-2617 585,-2653"/>
<text text-anchor="middle" x="503" y="-2632.1" font-family="Courier,monospace" font-size="11.00">NetCommonsCakeTestCase</text>
</g>
<!-- \\NetCommonsConsoleTestCase&#45;&gt;\\NetCommonsCakeTestCase -->
<g id="edge13" class="edge"><title>\\NetCommonsConsoleTestCase&#45;&gt;\\NetCommonsCakeTestCase</title>
<path fill="none" stroke="black" d="M707.249,-2616.43C671.93,-2619.64 631.688,-2623.3 596.316,-2626.52"/>
<polygon fill="none" stroke="black" points="595.635,-2623.06 585.993,-2627.46 596.269,-2630.04 595.635,-2623.06"/>
</g>
<!-- \\NetCommonsGetTest -->
<g id="node8" class="node"><title>\\NetCommonsGetTest</title>
<polygon fill="none" stroke="black" points="1158,-2734 1028,-2734 1028,-2698 1158,-2698 1158,-2734"/>
<text text-anchor="middle" x="1093" y="-2713.1" font-family="Courier,monospace" font-size="11.00">NetCommonsGetTest</text>
</g>
<!-- \\NetCommonsGetTest&#45;&gt;\\NetCommonsModelTestCase -->
<g id="edge15" class="edge"><title>\\NetCommonsGetTest&#45;&gt;\\NetCommonsModelTestCase</title>
<path fill="none" stroke="black" d="M1027.25,-2703.88C988.582,-2696.76 939.008,-2687.62 896.034,-2679.7"/>
<polygon fill="none" stroke="black" points="896.588,-2676.24 886.12,-2677.87 895.32,-2683.13 896.588,-2676.24"/>
</g>
<!-- \\NetCommonsHelperTestCase -->
<g id="node9" class="node"><title>\\NetCommonsHelperTestCase</title>
<polygon fill="none" stroke="black" points="889,-2734 711,-2734 711,-2698 889,-2698 889,-2734"/>
<text text-anchor="middle" x="800" y="-2713.1" font-family="Courier,monospace" font-size="11.00">NetCommonsHelperTestCase</text>
</g>
<!-- \\NetCommonsHelperTestCase&#45;&gt;\\NetCommonsCakeTestCase -->
<g id="edge17" class="edge"><title>\\NetCommonsHelperTestCase&#45;&gt;\\NetCommonsCakeTestCase</title>
<path fill="none" stroke="black" d="M717.936,-2697.98C705.852,-2695.11 693.579,-2692.07 682,-2689 644.303,-2679.01 602.565,-2666.51 568.882,-2656.05"/>
<polygon fill="none" stroke="black" points="569.742,-2652.65 559.154,-2653.01 567.658,-2659.33 569.742,-2652.65"/>
</g>
<!-- \\NetCommonsControllerBaseTestCase -->
<g id="node10" class="node"><title>\\NetCommonsControllerBaseTestCase</title>
<polygon fill="none" stroke="black" points="916,-1384 684,-1384 684,-1348 916,-1348 916,-1384"/>
<text text-anchor="middle" x="800" y="-1363.1" font-family="Courier,monospace" font-size="11.00">NetCommonsControllerBaseTestCase</text>
</g>
<!-- \\ControllerTestCase -->
<g id="node73" class="node"><title>\\ControllerTestCase</title>
<ellipse fill="none" stroke="black" cx="503" cy="-342" rx="106.773" ry="18.3848"/>
<text text-anchor="middle" x="503" y="-338.4" font-family="Times Roman,serif" font-size="14.00" fill="gray">\ControllerTestCase</text>
</g>
<!-- \\NetCommonsControllerBaseTestCase&#45;&gt;\\ControllerTestCase -->
<g id="edge19" class="edge"><title>\\NetCommonsControllerBaseTestCase&#45;&gt;\\ControllerTestCase</title>
<path fill="none" stroke="black" d="M794.488,-1347.85C776.047,-1286.55 715.77,-1081.28 682,-908 658.884,-789.39 690.424,-459.192 610,-369 606.215,-364.755 601.868,-361.131 597.142,-358.042"/>
<polygon fill="none" stroke="black" points="598.694,-354.899 588.263,-353.04 595.258,-360.998 598.694,-354.899"/>
</g>
<!-- \\NetCommonsValidateTest -->
<g id="node11" class="node"><title>\\NetCommonsValidateTest</title>
<polygon fill="none" stroke="black" points="1175,-2680 1011,-2680 1011,-2644 1175,-2644 1175,-2680"/>
<text text-anchor="middle" x="1093" y="-2659.1" font-family="Courier,monospace" font-size="11.00">NetCommonsValidateTest</text>
</g>
<!-- \\NetCommonsValidateTest&#45;&gt;\\NetCommonsModelTestCase -->
<g id="edge21" class="edge"><title>\\NetCommonsValidateTest&#45;&gt;\\NetCommonsModelTestCase</title>
<path fill="none" stroke="black" d="M1010.21,-2662C974.791,-2662 933.196,-2662 896.397,-2662"/>
<polygon fill="none" stroke="black" points="896.154,-2658.5 886.154,-2662 896.154,-2665.5 896.154,-2658.5"/>
</g>
<!-- \\NetCommonsTestSuite -->
<g id="node12" class="node"><title>\\NetCommonsTestSuite</title>
<polygon fill="none" stroke="black" points="1165,-1276 1021,-1276 1021,-1240 1165,-1240 1165,-1276"/>
<text text-anchor="middle" x="1093" y="-1255.1" font-family="Courier,monospace" font-size="11.00">NetCommonsTestSuite</text>
</g>
<!-- \\CakeTestSuite -->
<g id="node76" class="node"><title>\\CakeTestSuite</title>
<ellipse fill="none" stroke="black" cx="800" cy="-396" rx="84.1457" ry="18.3848"/>
<text text-anchor="middle" x="800" y="-392.4" font-family="Times Roman,serif" font-size="14.00" fill="gray">\CakeTestSuite</text>
</g>
<!-- \\NetCommonsTestSuite&#45;&gt;\\CakeTestSuite -->
<g id="edge23" class="edge"><title>\\NetCommonsTestSuite&#45;&gt;\\CakeTestSuite</title>
<path fill="none" stroke="black" d="M1020.28,-1250.96C1008.69,-1246.73 997.933,-1240.39 990,-1231 872.965,-1092.44 1039.95,-552.256 918,-418 911.169,-410.48 902.661,-405.026 893.362,-401.125"/>
<polygon fill="none" stroke="black" points="894.427,-397.788 883.832,-397.721 892.072,-404.381 894.427,-397.788"/>
</g>
<!-- \\CakeTestCase -->
<g id="node78" class="node"><title>\\CakeTestCase</title>
<ellipse fill="none" stroke="black" cx="242" cy="-396" rx="82.0244" ry="18.3848"/>
<text text-anchor="middle" x="242" y="-392.4" font-family="Times Roman,serif" font-size="14.00" fill="gray">\CakeTestCase</text>
</g>
<!-- \\NetCommonsCakeTestCase&#45;&gt;\\CakeTestCase -->
<g id="edge25" class="edge"><title>\\NetCommonsCakeTestCase&#45;&gt;\\CakeTestCase</title>
<path fill="none" stroke="black" d="M501.018,-2616.78C489.624,-2511.58 431.714,-1971.25 396,-1529 386.043,-1405.7 402.426,-513.665 324,-418 322.283,-415.905 320.39,-413.998 318.355,-412.262"/>
<polygon fill="none" stroke="black" points="320.087,-409.204 309.875,-406.381 316.098,-414.956 320.087,-409.204"/>
</g>
<!-- \\NetCommonsSaveTest -->
<g id="node14" class="node"><title>\\NetCommonsSaveTest</title>
<polygon fill="none" stroke="black" points="1162,-2626 1024,-2626 1024,-2590 1162,-2590 1162,-2626"/>
<text text-anchor="middle" x="1093" y="-2605.1" font-family="Courier,monospace" font-size="11.00">NetCommonsSaveTest</text>
</g>
<!-- \\NetCommonsSaveTest&#45;&gt;\\NetCommonsModelTestCase -->
<g id="edge27" class="edge"><title>\\NetCommonsSaveTest&#45;&gt;\\NetCommonsModelTestCase</title>
<path fill="none" stroke="black" d="M1023.93,-2620.73C985.795,-2627.76 937.829,-2636.6 896.084,-2644.29"/>
<polygon fill="none" stroke="black" points="895.372,-2640.86 886.172,-2646.12 896.641,-2647.75 895.372,-2640.86"/>
</g>
<!-- \\NetCommonsModelTestCase&#45;&gt;\\NetCommonsCakeTestCase -->
<g id="edge29" class="edge"><title>\\NetCommonsModelTestCase&#45;&gt;\\NetCommonsCakeTestCase</title>
<path fill="none" stroke="black" d="M713.696,-2654.15C676.671,-2650.79 633.35,-2646.85 595.65,-2643.42"/>
<polygon fill="none" stroke="black" points="595.962,-2639.94 585.686,-2642.52 595.328,-2646.91 595.962,-2639.94"/>
</g>
<!-- \\NetCommonsControllerTestCase -->
<g id="node16" class="node"><title>\\NetCommonsControllerTestCase</title>
<polygon fill="none" stroke="black" points="1196,-1384 990,-1384 990,-1348 1196,-1348 1196,-1384"/>
<text text-anchor="middle" x="1093" y="-1363.1" font-family="Courier,monospace" font-size="11.00">NetCommonsControllerTestCase</text>
</g>
<!-- \\NetCommonsControllerTestCase&#45;&gt;\\NetCommonsControllerBaseTestCase -->
<g id="edge31" class="edge"><title>\\NetCommonsControllerTestCase&#45;&gt;\\NetCommonsControllerBaseTestCase</title>
<path fill="none" stroke="black" d="M989.699,-1366C969.381,-1366 947.845,-1366 926.858,-1366"/>
<polygon fill="none" stroke="black" points="926.606,-1362.5 916.606,-1366 926.606,-1369.5 926.606,-1362.5"/>
</g>
<!-- \\NetCommonsAppController -->
<g id="node17" class="node"><title>\\NetCommonsAppController</title>
<polygon fill="none" stroke="black" points="886,-899 714,-899 714,-863 886,-863 886,-899"/>
<text text-anchor="middle" x="800" y="-878.1" font-family="Courier,monospace" font-size="11.00">NetCommonsAppController</text>
</g>
<!-- \\NetCommonsAppController&#45;&gt;\\Controller -->
<g id="edge33" class="edge"><title>\\NetCommonsAppController&#45;&gt;\\Controller</title>
<path fill="none" stroke="black" d="M713.837,-878.109C701.843,-874.199 690.677,-868.147 682,-859 514.153,-682.06 793.419,-475.742 610,-315 520.258,-236.353 365.597,-274.587 288.502,-301.022"/>
<polygon fill="none" stroke="black" points="287.324,-297.726 279.047,-304.339 289.641,-304.331 287.324,-297.726"/>
</g>
<!-- \\AssetComponent -->
<g id="node18" class="node"><title>\\AssetComponent</title>
<polygon fill="none" stroke="black" points="1148,-1060 1038,-1060 1038,-1024 1148,-1024 1148,-1060"/>
<text text-anchor="middle" x="1093" y="-1039.1" font-family="Courier,monospace" font-size="11.00">AssetComponent</text>
</g>
<!-- \\Component -->
<g id="node84" class="node"><title>\\Component</title>
<ellipse fill="none" stroke="black" cx="800" cy="-342" rx="70.9184" ry="18.3848"/>
<text text-anchor="middle" x="800" y="-338.4" font-family="Times Roman,serif" font-size="14.00" fill="gray">\Component</text>
</g>
<!-- \\AssetComponent&#45;&gt;\\Component -->
<g id="edge35" class="edge"><title>\\AssetComponent&#45;&gt;\\Component</title>
<path fill="none" stroke="black" d="M1037.26,-1039.5C1019.72,-1035.88 1001.85,-1028.71 990,-1015 801.099,-796.429 1110.31,-584.576 918,-369 908.225,-358.042 894.994,-351.054 880.924,-346.686"/>
<polygon fill="none" stroke="black" points="881.644,-343.256 871.08,-344.064 879.842,-350.02 881.644,-343.256"/>
</g>
<!-- \\NetCommonsTimeComponent -->
<g id="node19" class="node"><title>\\NetCommonsTimeComponent</title>
<polygon fill="none" stroke="black" points="1179,-1222 1007,-1222 1007,-1186 1179,-1186 1179,-1222"/>
<text text-anchor="middle" x="1093" y="-1201.1" font-family="Courier,monospace" font-size="11.00">NetCommonsTimeComponent</text>
</g>
<!-- \\NetCommonsTimeComponent&#45;&gt;\\Component -->
<g id="edge37" class="edge"><title>\\NetCommonsTimeComponent&#45;&gt;\\Component</title>
<path fill="none" stroke="black" d="M1006.95,-1190.83C1000.57,-1187.19 994.773,-1182.65 990,-1177 873.641,-1039.32 1036.51,-504.839 918,-369 908.346,-357.935 895.171,-350.898 881.117,-346.516"/>
<polygon fill="none" stroke="black" points="881.843,-343.087 871.278,-343.889 880.037,-349.85 881.843,-343.087"/>
</g>
<!-- \\PermissionComponent -->
<g id="node20" class="node"><title>\\PermissionComponent</title>
<polygon fill="none" stroke="black" points="1165,-1168 1021,-1168 1021,-1132 1165,-1132 1165,-1168"/>
<text text-anchor="middle" x="1093" y="-1147.1" font-family="Courier,monospace" font-size="11.00">PermissionComponent</text>
</g>
<!-- \\PermissionComponent&#45;&gt;\\Component -->
<g id="edge39" class="edge"><title>\\PermissionComponent&#45;&gt;\\Component</title>
<path fill="none" stroke="black" d="M1020.33,-1142.91C1008.74,-1138.69 997.965,-1132.36 990,-1123 880.948,-994.787 1029.05,-495.484 918,-369 908.311,-357.965 895.121,-350.943 881.061,-346.564"/>
<polygon fill="none" stroke="black" points="881.786,-343.135 871.222,-343.939 879.981,-349.899 881.786,-343.135"/>
</g>
<!-- \\NetCommonsComponent -->
<g id="node21" class="node"><title>\\NetCommonsComponent</title>
<polygon fill="none" stroke="black" points="1165,-1114 1021,-1114 1021,-1078 1165,-1078 1165,-1114"/>
<text text-anchor="middle" x="1093" y="-1093.1" font-family="Courier,monospace" font-size="11.00">NetCommonsComponent</text>
</g>
<!-- \\NetCommonsComponent&#45;&gt;\\Component -->
<g id="edge41" class="edge"><title>\\NetCommonsComponent&#45;&gt;\\Component</title>
<path fill="none" stroke="black" d="M1020.39,-1088.86C1008.79,-1084.64 997.999,-1078.34 990,-1069 786.502,-831.507 1125.2,-603.266 918,-369 908.271,-358.001 895.062,-350.994 880.998,-346.62"/>
<polygon fill="none" stroke="black" points="881.72,-343.191 871.156,-343.996 879.917,-349.955 881.72,-343.191"/>
</g>
<!-- \\NetCommonsController -->
<g id="node22" class="node"><title>\\NetCommonsController</title>
<polygon fill="none" stroke="black" points="1169,-1330 1017,-1330 1017,-1294 1169,-1294 1169,-1330"/>
<text text-anchor="middle" x="1093" y="-1309.1" font-family="Courier,monospace" font-size="11.00">NetCommonsController</text>
</g>
<!-- \\NetCommonsController&#45;&gt;\\NetCommonsAppController -->
<g id="edge43" class="edge"><title>\\NetCommonsController&#45;&gt;\\NetCommonsAppController</title>
<path fill="none" stroke="black" d="M1016.94,-1300.33C1007.2,-1296.55 997.888,-1291.56 990,-1285 867.033,-1182.73 818.854,-982.838 804.792,-909.152"/>
<polygon fill="none" stroke="black" points="808.216,-908.422 802.96,-899.223 801.332,-909.692 808.216,-908.422"/>
</g>
<!-- \\NetCommonsUrl -->
<g id="node23" class="node"><title>\\NetCommonsUrl</title>
<polygon fill="none" stroke="black" points="1145,-2302 1041,-2302 1041,-2266 1145,-2266 1145,-2302"/>
<text text-anchor="middle" x="1093" y="-2281.1" font-family="Courier,monospace" font-size="11.00">NetCommonsUrl</text>
</g>
<!-- \\NetCommonsTime -->
<g id="node24" class="node"><title>\\NetCommonsTime</title>
<polygon fill="none" stroke="black" points="1148,-2248 1038,-2248 1038,-2212 1148,-2212 1148,-2248"/>
<text text-anchor="middle" x="1093" y="-2227.1" font-family="Courier,monospace" font-size="11.00">NetCommonsTime</text>
</g>
<!-- \\CurrentBase -->
<g id="node25" class="node"><title>\\CurrentBase</title>
<polygon fill="none" stroke="black" points="845,-2518 755,-2518 755,-2482 845,-2482 845,-2518"/>
<text text-anchor="middle" x="800" y="-2497.1" font-family="Courier,monospace" font-size="11.00">CurrentBase</text>
</g>
<!-- \\Current -->
<g id="node26" class="node"><title>\\Current</title>
<polygon fill="none" stroke="black" points="1125,-2518 1061,-2518 1061,-2482 1125,-2482 1125,-2518"/>
<text text-anchor="middle" x="1093" y="-2497.1" font-family="Courier,monospace" font-size="11.00">Current</text>
</g>
<!-- \\Current&#45;&gt;\\CurrentBase -->
<g id="edge45" class="edge"><title>\\Current&#45;&gt;\\CurrentBase</title>
<path fill="none" stroke="black" d="M1060.81,-2500C1011.48,-2500 916.554,-2500 855.846,-2500"/>
<polygon fill="none" stroke="black" points="855.669,-2496.5 845.669,-2500 855.669,-2503.5 855.669,-2496.5"/>
</g>
<!-- \\CurrentSystem -->
<g id="node27" class="node"><title>\\CurrentSystem</title>
<polygon fill="none" stroke="black" points="1145,-2140 1041,-2140 1041,-2104 1145,-2104 1145,-2140"/>
<text text-anchor="middle" x="1093" y="-2119.1" font-family="Courier,monospace" font-size="11.00">CurrentSystem</text>
</g>
<!-- \\CurrentPage -->
<g id="node28" class="node"><title>\\CurrentPage</title>
<polygon fill="none" stroke="black" points="1138,-2086 1048,-2086 1048,-2050 1138,-2050 1138,-2086"/>
<text text-anchor="middle" x="1093" y="-2065.1" font-family="Courier,monospace" font-size="11.00">CurrentPage</text>
</g>
<!-- \\CurrentFrame -->
<g id="node29" class="node"><title>\\CurrentFrame</title>
<polygon fill="none" stroke="black" points="1142,-2032 1044,-2032 1044,-1996 1142,-1996 1142,-2032"/>
<text text-anchor="middle" x="1093" y="-2011.1" font-family="Courier,monospace" font-size="11.00">CurrentFrame</text>
</g>
<!-- \\TokenHelper -->
<g id="node30" class="node"><title>\\TokenHelper</title>
<polygon fill="none" stroke="black" points="1138,-952 1048,-952 1048,-916 1138,-916 1138,-952"/>
<text text-anchor="middle" x="1093" y="-931.1" font-family="Courier,monospace" font-size="11.00">TokenHelper</text>
</g>
<!-- \\FormHelper -->
<g id="node91" class="node"><title>\\FormHelper</title>
<ellipse fill="none" stroke="black" cx="800" cy="-288" rx="70.9184" ry="18.3848"/>
<text text-anchor="middle" x="800" y="-284.4" font-family="Times Roman,serif" font-size="14.00" fill="gray">\FormHelper</text>
</g>
<!-- \\TokenHelper&#45;&gt;\\FormHelper -->
<g id="edge47" class="edge"><title>\\TokenHelper&#45;&gt;\\FormHelper</title>
<path fill="none" stroke="black" d="M1047.46,-933.174C1026.96,-930.333 1004.22,-923.293 990,-907 815.683,-707.337 1095.43,-511.899 918,-315 908.227,-304.155 895.069,-297.207 881.082,-292.841"/>
<polygon fill="none" stroke="black" points="881.864,-289.426 871.298,-290.214 880.049,-296.187 881.864,-289.426"/>
</g>
<!-- \\SingletonViewBlockHtmlHelper -->
<g id="node31" class="node"><title>\\SingletonViewBlockHtmlHelper</title>
<polygon fill="none" stroke="black" points="1196,-844 990,-844 990,-808 1196,-808 1196,-844"/>
<text text-anchor="middle" x="1093" y="-823.1" font-family="Courier,monospace" font-size="11.00">SingletonViewBlockHtmlHelper</text>
</g>
<!-- \\HtmlHelper -->
<g id="node93" class="node"><title>\\HtmlHelper</title>
<ellipse fill="none" stroke="black" cx="800" cy="-234" rx="67.1751" ry="18.3848"/>
<text text-anchor="middle" x="800" y="-230.4" font-family="Times Roman,serif" font-size="14.00" fill="gray">HtmlHelper</text>
</g>
<!-- \\SingletonViewBlockHtmlHelper&#45;&gt;\\HtmlHelper -->
<g id="edge49" class="edge"><title>\\SingletonViewBlockHtmlHelper&#45;&gt;\\HtmlHelper</title>
<path fill="none" stroke="black" d="M999.785,-807.859C996.23,-805.263 992.938,-802.325 990,-799 830.252,-618.227 1080.57,-439.24 918,-261 907.152,-249.106 892.23,-241.912 876.645,-237.671"/>
<polygon fill="none" stroke="black" points="877.419,-234.258 866.885,-235.397 875.83,-241.075 877.419,-234.258"/>
</g>
<!-- \\FormInputHelper -->
<g id="node32" class="node"><title>\\FormInputHelper</title>
<polygon fill="none" stroke="black" points="1152,-1492 1034,-1492 1034,-1456 1152,-1456 1152,-1492"/>
<text text-anchor="middle" x="1093" y="-1471.1" font-family="Courier,monospace" font-size="11.00">FormInputHelper</text>
</g>
<!-- \\FormInputHelper&#45;&gt;\\AppHelper -->
<g id="edge51" class="edge"><title>\\FormInputHelper&#45;&gt;\\AppHelper</title>
<path fill="none" stroke="black" d="M1033.8,-1482.05C1018.6,-1486.05 1002.91,-1492.04 990,-1501 898.034,-1564.86 835.79,-1688.47 811.457,-1743.46"/>
<polygon fill="none" stroke="black" points="808.13,-1742.34 807.356,-1752.9 814.551,-1745.13 808.13,-1742.34"/>
</g>
<!-- \\WizardHelper -->
<g id="node33" class="node"><title>\\WizardHelper</title>
<polygon fill="none" stroke="black" points="1142,-1438 1044,-1438 1044,-1402 1142,-1402 1142,-1438"/>
<text text-anchor="middle" x="1093" y="-1417.1" font-family="Courier,monospace" font-size="11.00">WizardHelper</text>
</g>
<!-- \\WizardHelper&#45;&gt;\\AppHelper -->
<g id="edge53" class="edge"><title>\\WizardHelper&#45;&gt;\\AppHelper</title>
<path fill="none" stroke="black" d="M1043.92,-1424.86C1025.58,-1428.63 1005.47,-1435.28 990,-1447 885.624,-1526.08 828.084,-1680.47 808.129,-1743.35"/>
<polygon fill="none" stroke="black" points="804.764,-1742.39 805.144,-1752.97 811.45,-1744.46 804.764,-1742.39"/>
</g>
<!-- \\DisplayNumberHelper -->
<g id="node34" class="node"><title>\\DisplayNumberHelper</title>
<polygon fill="none" stroke="black" points="1165,-2464 1021,-2464 1021,-2428 1165,-2428 1165,-2464"/>
<text text-anchor="middle" x="1093" y="-2443.1" font-family="Courier,monospace" font-size="11.00">DisplayNumberHelper</text>
</g>
<!-- \\DisplayNumberHelper&#45;&gt;\\AppHelper -->
<g id="edge55" class="edge"><title>\\DisplayNumberHelper&#45;&gt;\\AppHelper</title>
<path fill="none" stroke="black" d="M1020.41,-2437.13C1009.17,-2433.05 998.486,-2427.24 990,-2419 897.138,-2328.78 823.079,-1911.86 804.505,-1799.15"/>
<polygon fill="none" stroke="black" points="807.948,-1798.52 802.881,-1789.22 801.039,-1799.65 807.948,-1798.52"/>
</g>
<!-- \\MessageFlashHelper -->
<g id="node35" class="node"><title>\\MessageFlashHelper</title>
<polygon fill="none" stroke="black" points="1162,-2410 1024,-2410 1024,-2374 1162,-2374 1162,-2410"/>
<text text-anchor="middle" x="1093" y="-2389.1" font-family="Courier,monospace" font-size="11.00">MessageFlashHelper</text>
</g>
<!-- \\MessageFlashHelper&#45;&gt;\\AppHelper -->
<g id="edge57" class="edge"><title>\\MessageFlashHelper&#45;&gt;\\AppHelper</title>
<path fill="none" stroke="black" d="M1023.76,-2384.05C1011.35,-2379.96 999.39,-2373.9 990,-2365 903.879,-2283.34 825.926,-1905.95 805.305,-1799.2"/>
<polygon fill="none" stroke="black" points="808.705,-1798.35 803.386,-1789.18 801.83,-1799.66 808.705,-1798.35"/>
</g>
<!-- \\DateHelper -->
<g id="node36" class="node"><title>\\DateHelper</title>
<polygon fill="none" stroke="black" points="1135,-2356 1051,-2356 1051,-2320 1135,-2320 1135,-2356"/>
<text text-anchor="middle" x="1093" y="-2335.1" font-family="Courier,monospace" font-size="11.00">DateHelper</text>
</g>
<!-- \\DateHelper&#45;&gt;\\AppHelper -->
<g id="edge59" class="edge"><title>\\DateHelper&#45;&gt;\\AppHelper</title>
<path fill="none" stroke="black" d="M1050.75,-2336C1030.16,-2332.96 1006.38,-2326.09 990,-2311 834.226,-2167.5 806.135,-1888.7 801.095,-1799.31"/>
<polygon fill="none" stroke="black" points="804.581,-1798.94 800.577,-1789.13 797.59,-1799.3 804.581,-1798.94"/>
</g>
<!-- \\SnsButtonHelper -->
<g id="node37" class="node"><title>\\SnsButtonHelper</title>
<polygon fill="none" stroke="black" points="1152,-2194 1034,-2194 1034,-2158 1152,-2158 1152,-2194"/>
<text text-anchor="middle" x="1093" y="-2173.1" font-family="Courier,monospace" font-size="11.00">SnsButtonHelper</text>
</g>
<!-- \\SnsButtonHelper&#45;&gt;\\AppHelper -->
<g id="edge61" class="edge"><title>\\SnsButtonHelper&#45;&gt;\\AppHelper</title>
<path fill="none" stroke="black" d="M1033.94,-2169.47C1018.4,-2165.48 1002.5,-2159.12 990,-2149 873.272,-2054.47 821.79,-1869.75 805.802,-1799.26"/>
<polygon fill="none" stroke="black" points="809.185,-1798.35 803.616,-1789.33 802.349,-1799.85 809.185,-1798.35"/>
</g>
<!-- \\BackToHelper -->
<g id="node38" class="node"><title>\\BackToHelper</title>
<polygon fill="none" stroke="black" points="1142,-1978 1044,-1978 1044,-1942 1142,-1942 1142,-1978"/>
<text text-anchor="middle" x="1093" y="-1957.1" font-family="Courier,monospace" font-size="11.00">BackToHelper</text>
</g>
<!-- \\BackToHelper&#45;&gt;\\AppHelper -->
<g id="edge63" class="edge"><title>\\BackToHelper&#45;&gt;\\AppHelper</title>
<path fill="none" stroke="black" d="M1043.91,-1951.86C1026.27,-1947.73 1006.63,-1941.68 990,-1933 921.41,-1897.19 856.097,-1832.56 822.838,-1796.7"/>
<polygon fill="none" stroke="black" points="825.192,-1794.09 815.854,-1789.09 820.033,-1798.83 825.192,-1794.09"/>
</g>
<!-- \\NetCommonsHtmlHelper -->
<g id="node39" class="node"><title>\\NetCommonsHtmlHelper</title>
<polygon fill="none" stroke="black" points="1169,-1924 1017,-1924 1017,-1888 1169,-1888 1169,-1924"/>
<text text-anchor="middle" x="1093" y="-1903.1" font-family="Courier,monospace" font-size="11.00">NetCommonsHtmlHelper</text>
</g>
<!-- \\NetCommonsHtmlHelper&#45;&gt;\\AppHelper -->
<g id="edge65" class="edge"><title>\\NetCommonsHtmlHelper&#45;&gt;\\AppHelper</title>
<path fill="none" stroke="black" d="M1016.88,-1888.46C1007.71,-1885.64 998.561,-1882.49 990,-1879 933.066,-1855.82 872.097,-1818.73 835.004,-1794.61"/>
<polygon fill="none" stroke="black" points="836.839,-1791.63 826.557,-1789.07 833.002,-1797.48 836.839,-1791.63"/>
</g>
<!-- \\ButtonHelper -->
<g id="node40" class="node"><title>\\ButtonHelper</title>
<polygon fill="none" stroke="black" points="1142,-898 1044,-898 1044,-862 1142,-862 1142,-898"/>
<text text-anchor="middle" x="1093" y="-877.1" font-family="Courier,monospace" font-size="11.00">ButtonHelper</text>
</g>
<!-- \\ButtonHelper&#45;&gt;\\FormHelper -->
<g id="edge67" class="edge"><title>\\ButtonHelper&#45;&gt;\\FormHelper</title>
<path fill="none" stroke="black" d="M1043.85,-878.539C1024.38,-875.365 1003.47,-868.238 990,-853 830.252,-672.227 1080.57,-493.24 918,-315 908.162,-304.213 894.974,-297.293 880.979,-292.934"/>
<polygon fill="none" stroke="black" points="881.757,-289.519 871.192,-290.31 879.944,-296.281 881.757,-289.519"/>
</g>
<!-- \\ComposerHelper -->
<g id="node41" class="node"><title>\\ComposerHelper</title>
<polygon fill="none" stroke="black" points="1148,-1870 1038,-1870 1038,-1834 1148,-1834 1148,-1870"/>
<text text-anchor="middle" x="1093" y="-1849.1" font-family="Courier,monospace" font-size="11.00">ComposerHelper</text>
</g>
<!-- \\ComposerHelper&#45;&gt;\\AppHelper -->
<g id="edge69" class="edge"><title>\\ComposerHelper&#45;&gt;\\AppHelper</title>
<path fill="none" stroke="black" d="M1037.35,-1837.64C1021.99,-1833.61 1005.34,-1829.19 990,-1825 941.716,-1811.81 886.728,-1796.11 848.375,-1785.04"/>
<polygon fill="none" stroke="black" points="849.087,-1781.61 838.508,-1782.2 847.145,-1788.33 849.087,-1781.61"/>
</g>
<!-- \\LinkButtonHelper -->
<g id="node42" class="node"><title>\\LinkButtonHelper</title>
<polygon fill="none" stroke="black" points="1155,-1006 1031,-1006 1031,-970 1155,-970 1155,-1006"/>
<text text-anchor="middle" x="1093" y="-985.1" font-family="Courier,monospace" font-size="11.00">LinkButtonHelper</text>
</g>
<!-- \\LinkButtonHelper&#45;&gt;\\FormHelper -->
<g id="edge71" class="edge"><title>\\LinkButtonHelper&#45;&gt;\\FormHelper</title>
<path fill="none" stroke="black" d="M1030.28,-983.866C1015.08,-979.859 1000.27,-972.888 990,-961 801.099,-742.429 1110.31,-530.576 918,-315 908.225,-304.042 894.994,-297.054 880.924,-292.686"/>
<polygon fill="none" stroke="black" points="881.644,-289.256 871.08,-290.064 879.842,-296.02 881.644,-289.256"/>
</g>
<!-- \\TableListHelper -->
<g id="node43" class="node"><title>\\TableListHelper</title>
<polygon fill="none" stroke="black" points="1152,-1816 1034,-1816 1034,-1780 1152,-1780 1152,-1816"/>
<text text-anchor="middle" x="1093" y="-1795.1" font-family="Courier,monospace" font-size="11.00">TableListHelper</text>
</g>
<!-- \\TableListHelper&#45;&gt;\\AppHelper -->
<g id="edge73" class="edge"><title>\\TableListHelper&#45;&gt;\\AppHelper</title>
<path fill="none" stroke="black" d="M1033.71,-1792.54C979.266,-1787.52 899.563,-1780.17 848.738,-1775.49"/>
<polygon fill="none" stroke="black" points="848.942,-1772 838.663,-1774.56 848.299,-1778.97 848.942,-1772"/>
</g>
<!-- \\NetCommonsTimeHelper -->
<g id="node44" class="node"><title>\\NetCommonsTimeHelper</title>
<polygon fill="none" stroke="black" points="1169,-1762 1017,-1762 1017,-1726 1169,-1726 1169,-1762"/>
<text text-anchor="middle" x="1093" y="-1741.1" font-family="Courier,monospace" font-size="11.00">NetCommonsTimeHelper</text>
</g>
<!-- \\NetCommonsTimeHelper&#45;&gt;\\AppHelper -->
<g id="edge75" class="edge"><title>\\NetCommonsTimeHelper&#45;&gt;\\AppHelper</title>
<path fill="none" stroke="black" d="M1016.78,-1751.02C963.659,-1755.92 894.376,-1762.3 848.603,-1766.52"/>
<polygon fill="none" stroke="black" points="848.274,-1763.04 838.638,-1767.44 848.917,-1770.01 848.274,-1763.04"/>
</g>
<!-- \\NetCommonsFormHelper -->
<g id="node45" class="node"><title>\\NetCommonsFormHelper</title>
<polygon fill="none" stroke="black" points="1169,-1708 1017,-1708 1017,-1672 1169,-1672 1169,-1708"/>
<text text-anchor="middle" x="1093" y="-1687.1" font-family="Courier,monospace" font-size="11.00">NetCommonsFormHelper</text>
</g>
<!-- \\NetCommonsFormHelper&#45;&gt;\\AppHelper -->
<g id="edge77" class="edge"><title>\\NetCommonsFormHelper&#45;&gt;\\AppHelper</title>
<path fill="none" stroke="black" d="M1023.41,-1708.03C1012.23,-1710.99 1000.79,-1714.05 990,-1717 941.716,-1730.19 886.728,-1745.89 848.375,-1756.96"/>
<polygon fill="none" stroke="black" points="847.145,-1753.67 838.508,-1759.8 849.087,-1760.39 847.145,-1753.67"/>
</g>
<!-- \\TitleIconHelper -->
<g id="node46" class="node"><title>\\TitleIconHelper</title>
<polygon fill="none" stroke="black" points="1152,-1654 1034,-1654 1034,-1618 1152,-1618 1152,-1654"/>
<text text-anchor="middle" x="1093" y="-1633.1" font-family="Courier,monospace" font-size="11.00">TitleIconHelper</text>
</g>
<!-- \\TitleIconHelper&#45;&gt;\\AppHelper -->
<g id="edge79" class="edge"><title>\\TitleIconHelper&#45;&gt;\\AppHelper</title>
<path fill="none" stroke="black" d="M1033.85,-1648.69C1019.27,-1652.58 1003.87,-1657.35 990,-1663 933.066,-1686.18 872.097,-1723.27 835.004,-1747.39"/>
<polygon fill="none" stroke="black" points="833.002,-1744.52 826.557,-1752.93 836.839,-1750.37 833.002,-1744.52"/>
</g>
<!-- \\DatetimePickerHelper -->
<g id="node47" class="node"><title>\\DatetimePickerHelper</title>
<polygon fill="none" stroke="black" points="1169,-1600 1017,-1600 1017,-1564 1169,-1564 1169,-1600"/>
<text text-anchor="middle" x="1093" y="-1579.1" font-family="Courier,monospace" font-size="11.00">DatetimePickerHelper</text>
</g>
<!-- \\DatetimePickerHelper&#45;&gt;\\AppHelper -->
<g id="edge81" class="edge"><title>\\DatetimePickerHelper&#45;&gt;\\AppHelper</title>
<path fill="none" stroke="black" d="M1016.98,-1597.73C1007.65,-1600.87 998.439,-1604.59 990,-1609 921.41,-1644.81 856.097,-1709.44 822.838,-1745.3"/>
<polygon fill="none" stroke="black" points="820.033,-1743.17 815.854,-1752.91 825.192,-1747.91 820.033,-1743.17"/>
</g>
<!-- \\Model -->
<g id="node111" class="node"><title>\\Model</title>
<ellipse fill="none" stroke="black" cx="44" cy="-2851" rx="43.8406" ry="18.3848"/>
<text text-anchor="middle" x="44" y="-2847.4" font-family="Times Roman,serif" font-size="14.00" fill="gray">\Model</text>
</g>
<!-- \\NetCommonsAppModel&#45;&gt;\\Model -->
<g id="edge83" class="edge"><title>\\NetCommonsAppModel&#45;&gt;\\Model</title>
<path fill="none" stroke="black" d="M172.749,-2851C148.379,-2851 121.357,-2851 98.3871,-2851"/>
<polygon fill="none" stroke="black" points="98.1425,-2847.5 88.1425,-2851 98.1424,-2854.5 98.1425,-2847.5"/>
</g>
<!-- \\OriginalKeyBehavior -->
<g id="node49" class="node"><title>\\OriginalKeyBehavior</title>
<polygon fill="none" stroke="black" points="1165,-736 1021,-736 1021,-700 1165,-700 1165,-736"/>
<text text-anchor="middle" x="1093" y="-715.1" font-family="Courier,monospace" font-size="11.00">OriginalKeyBehavior</text>
</g>
<!-- \\ModelBehavior -->
<g id="node113" class="node"><title>\\ModelBehavior</title>
<ellipse fill="none" stroke="black" cx="800" cy="-180" rx="86.9741" ry="18.3848"/>
<text text-anchor="middle" x="800" y="-176.4" font-family="Times Roman,serif" font-size="14.00" fill="gray">\ModelBehavior</text>
</g>
<!-- \\OriginalKeyBehavior&#45;&gt;\\ModelBehavior -->
<g id="edge85" class="edge"><title>\\OriginalKeyBehavior&#45;&gt;\\ModelBehavior</title>
<path fill="none" stroke="black" d="M1020.47,-710.469C1008.94,-706.277 998.146,-700.083 990,-691 844.8,-529.094 1065.73,-366.605 918,-207 910.86,-199.286 902.006,-193.556 892.38,-189.328"/>
<polygon fill="none" stroke="black" points="893.536,-186.023 882.945,-185.72 891.035,-192.561 893.536,-186.023"/>
</g>
<!-- \\TrackableBehavior -->
<g id="node50" class="node"><title>\\TrackableBehavior</title>
<polygon fill="none" stroke="black" points="1158,-682 1028,-682 1028,-646 1158,-646 1158,-682"/>
<text text-anchor="middle" x="1093" y="-661.1" font-family="Courier,monospace" font-size="11.00">TrackableBehavior</text>
</g>
<!-- \\TrackableBehavior&#45;&gt;\\ModelBehavior -->
<g id="edge87" class="edge"><title>\\TrackableBehavior&#45;&gt;\\ModelBehavior</title>
<path fill="none" stroke="black" d="M1027.5,-658.591C1013.43,-654.482 999.849,-647.783 990,-637 859.318,-493.927 1050.91,-348.002 918,-207 910.736,-199.293 901.758,-193.575 892.025,-189.36"/>
<polygon fill="none" stroke="black" points="893.083,-186.019 882.491,-185.764 890.613,-192.568 893.083,-186.019"/>
</g>
<!-- \\YAExceptionRenderer -->
<g id="node51" class="node"><title>\\YAExceptionRenderer</title>
<polygon fill="none" stroke="black" points="1165,-628 1021,-628 1021,-592 1165,-592 1165,-628"/>
<text text-anchor="middle" x="1093" y="-607.1" font-family="Courier,monospace" font-size="11.00">YAExceptionRenderer</text>
</g>
<!-- \\ExceptionRenderer -->
<g id="node116" class="node"><title>\\ExceptionRenderer</title>
<ellipse fill="none" stroke="black" cx="800" cy="-126" rx="118.087" ry="18.3848"/>
<text text-anchor="middle" x="800" y="-122.4" font-family="Times Roman,serif" font-size="14.00" fill="gray">TEHxceptionRenderer</text>
</g>
<!-- \\YAExceptionRenderer&#45;&gt;\\ExceptionRenderer -->
<g id="edge89" class="edge"><title>\\YAExceptionRenderer&#45;&gt;\\ExceptionRenderer</title>
<path fill="none" stroke="black" d="M1020.34,-602.25C1008.9,-598.073 998.166,-591.94 990,-583 859.318,-439.927 1050.91,-294.002 918,-153 913.844,-148.591 909.128,-144.833 904.031,-141.635"/>
<polygon fill="none" stroke="black" points="905.577,-138.492 895.123,-136.766 902.219,-144.634 905.577,-138.492"/>
</g>
<!-- \\NetCommonsMigration -->
<g id="node52" class="node"><title>\\NetCommonsMigration</title>
<polygon fill="none" stroke="black" points="1165,-574 1021,-574 1021,-538 1165,-538 1165,-574"/>
<text text-anchor="middle" x="1093" y="-553.1" font-family="Courier,monospace" font-size="11.00">NetCommonsMigration</text>
</g>
<!-- \\CakeMigration -->
<g id="node118" class="node"><title>\\CakeMigration</title>
<ellipse fill="none" stroke="black" cx="800" cy="-72" rx="84.8528" ry="18.3848"/>
<text text-anchor="middle" x="800" y="-68.4" font-family="Times Roman,serif" font-size="14.00" fill="gray">\CakeMigration</text>
</g>
<!-- \\NetCommonsMigration&#45;&gt;\\CakeMigration -->
<g id="edge91" class="edge"><title>\\NetCommonsMigration&#45;&gt;\\CakeMigration</title>
<path fill="none" stroke="black" d="M1020.34,-548.25C1008.9,-544.073 998.166,-537.94 990,-529 859.318,-385.927 1050.91,-240.002 918,-99 910.44,-90.9799 901.025,-85.1126 890.833,-80.8528"/>
<polygon fill="none" stroke="black" points="891.879,-77.5089 881.284,-77.377 889.484,-84.0866 891.879,-77.5089"/>
</g>
<!-- \\LikesController -->
<g id="node53" class="node"><title>\\LikesController</title>
<polygon fill="none" stroke="black" points="1152,-2572 1034,-2572 1034,-2536 1152,-2536 1152,-2572"/>
<text text-anchor="middle" x="1093" y="-2551.1" font-family="Courier,monospace" font-size="11.00">LikesController</text>
</g>
<!-- \\LikesAppController -->
<g id="node54" class="node"><title>\\LikesAppController</title>
<polygon fill="none" stroke="black" points="869,-2572 731,-2572 731,-2536 869,-2536 869,-2572"/>
<text text-anchor="middle" x="800" y="-2551.1" font-family="Courier,monospace" font-size="11.00">LikesAppController</text>
</g>
<!-- \\LikesController&#45;&gt;\\LikesAppController -->
<g id="edge93" class="edge"><title>\\LikesController&#45;&gt;\\LikesAppController</title>
<path fill="none" stroke="black" d="M1033.71,-2554C989.293,-2554 928.065,-2554 879.421,-2554"/>
<polygon fill="none" stroke="black" points="879.243,-2550.5 869.243,-2554 879.243,-2557.5 879.243,-2550.5"/>
</g>
<!-- \\LikesAppController&#45;&gt;\\AppController -->
<g id="edge95" class="edge"><title>\\LikesAppController&#45;&gt;\\AppController</title>
<path fill="none" stroke="black" d="M730.694,-2551.71C712.654,-2547.79 694.732,-2540.41 682,-2527 540.042,-2377.45 508.922,-1679.53 503.848,-1530.18"/>
<polygon fill="none" stroke="black" points="507.341,-1529.89 503.515,-1520.01 500.345,-1530.12 507.341,-1529.89"/>
</g>
<!-- \\LikeHelper -->
<g id="node55" class="node"><title>\\LikeHelper</title>
<polygon fill="none" stroke="black" points="1135,-1546 1051,-1546 1051,-1510 1135,-1510 1135,-1546"/>
<text text-anchor="middle" x="1093" y="-1525.1" font-family="Courier,monospace" font-size="11.00">LikeHelper</text>
</g>
<!-- \\LikeHelper&#45;&gt;\\AppHelper -->
<g id="edge97" class="edge"><title>\\LikeHelper&#45;&gt;\\AppHelper</title>
<path fill="none" stroke="black" d="M1050.91,-1533.24C1031.31,-1537.08 1008.33,-1543.69 990,-1555 909.876,-1604.44 844.727,-1698.19 815.946,-1744.19"/>
<polygon fill="none" stroke="black" points="812.792,-1742.64 810.523,-1752.98 818.75,-1746.31 812.792,-1742.64"/>
</g>
<!-- \\Like -->
<g id="node56" class="node"><title>\\Like</title>
<polygon fill="none" stroke="black" points="1120,-2896 1066,-2896 1066,-2860 1120,-2860 1120,-2896"/>
<text text-anchor="middle" x="1093" y="-2875.1" font-family="Courier,monospace" font-size="11.00">Like</text>
</g>
<!-- \\LikesAppModel -->
<g id="node57" class="node"><title>\\LikesAppModel</title>
<polygon fill="none" stroke="black" points="852,-2842 748,-2842 748,-2806 852,-2806 852,-2842"/>
<text text-anchor="middle" x="800" y="-2821.1" font-family="Courier,monospace" font-size="11.00">LikesAppModel</text>
</g>
<!-- \\Like&#45;&gt;\\LikesAppModel -->
<g id="edge99" class="edge"><title>\\Like&#45;&gt;\\LikesAppModel</title>
<path fill="none" stroke="black" d="M1065.96,-2873.02C1019.9,-2864.53 925.102,-2847.06 862.03,-2835.43"/>
<polygon fill="none" stroke="black" points="862.661,-2831.99 852.193,-2833.62 861.392,-2838.87 862.661,-2831.99"/>
</g>
<!-- \\LikesAppModel&#45;&gt;\\AppModel -->
<g id="edge101" class="edge"><title>\\LikesAppModel&#45;&gt;\\AppModel</title>
<path fill="none" stroke="black" d="M747.927,-2828.73C691.623,-2833.85 602.737,-2841.93 548.944,-2846.82"/>
<polygon fill="none" stroke="black" points="548.316,-2843.37 538.673,-2847.76 548.949,-2850.34 548.316,-2843.37"/>
</g>
<!-- \\LikeBehavior -->
<g id="node58" class="node"><title>\\LikeBehavior</title>
<polygon fill="none" stroke="black" points="1142,-790 1044,-790 1044,-754 1142,-754 1142,-790"/>
<text text-anchor="middle" x="1093" y="-769.1" font-family="Courier,monospace" font-size="11.00">LikeBehavior</text>
</g>
<!-- \\LikeBehavior&#45;&gt;\\ModelBehavior -->
<g id="edge103" class="edge"><title>\\LikeBehavior&#45;&gt;\\ModelBehavior</title>
<path fill="none" stroke="black" d="M1043.85,-770.539C1024.38,-767.365 1003.47,-760.238 990,-745 830.252,-564.227 1080.57,-385.24 918,-207 910.917,-199.234 902.097,-193.472 892.49,-189.227"/>
<polygon fill="none" stroke="black" points="893.659,-185.927 883.069,-185.607 891.148,-192.461 893.659,-185.927"/>
</g>
<!-- \\LikesUser -->
<g id="node59" class="node"><title>\\LikesUser</title>
<polygon fill="none" stroke="black" points="1131,-2842 1055,-2842 1055,-2806 1131,-2806 1131,-2842"/>
<text text-anchor="middle" x="1093" y="-2821.1" font-family="Courier,monospace" font-size="11.00">LikesUser</text>
</g>
<!-- \\LikesUser&#45;&gt;\\LikesAppModel -->
<g id="edge105" class="edge"><title>\\LikesUser&#45;&gt;\\LikesAppModel</title>
<path fill="none" stroke="black" d="M1054.39,-2824C1005.43,-2824 920.39,-2824 862.218,-2824"/>
<polygon fill="none" stroke="black" points="862.044,-2820.5 852.044,-2824 862.044,-2827.5 862.044,-2820.5"/>
</g>
<!-- \\LikesSchema -->
<g id="node60" class="node"><title>\\LikesSchema</title>
<polygon fill="none" stroke="black" points="1138,-466 1048,-466 1048,-430 1138,-430 1138,-466"/>
<text text-anchor="middle" x="1093" y="-445.1" font-family="Courier,monospace" font-size="11.00">LikesSchema</text>
</g>
<!-- \\CakeSchema -->
<g id="node127" class="node"><title>\\CakeSchema</title>
<ellipse fill="none" stroke="black" cx="800" cy="-18" rx="77.0746" ry="18.3848"/>
<text text-anchor="middle" x="800" y="-14.4" font-family="Times Roman,serif" font-size="14.00" fill="gray">\CakeSchema</text>
</g>
<!-- \\LikesSchema&#45;&gt;\\CakeSchema -->
<g id="edge107" class="edge"><title>\\LikesSchema&#45;&gt;\\CakeSchema</title>
<path fill="none" stroke="black" d="M1090.86,-429.713C1082.37,-365.789 1045.04,-150.503 918,-45 907.886,-36.6012 895.67,-30.6949 882.982,-26.5644"/>
<polygon fill="none" stroke="black" points="883.793,-23.1556 873.214,-23.74 881.848,-29.8801 883.793,-23.1556"/>
</g>
<!-- \\Init -->
<g id="node61" class="node"><title>\\Init</title>
<polygon fill="none" stroke="black" points="1120,-520 1066,-520 1066,-484 1120,-484 1120,-520"/>
<text text-anchor="middle" x="1093" y="-499.1" font-family="Courier,monospace" font-size="11.00">Init</text>
</g>
<!-- \\Init&#45;&gt;\\CakeMigration -->
<g id="edge109" class="edge"><title>\\Init&#45;&gt;\\CakeMigration</title>
<path fill="none" stroke="black" d="M1065.78,-502.438C1042.33,-501.269 1009.32,-495.66 990,-475 873.795,-350.716 1036.14,-221.443 918,-99 910.347,-91.0685 900.877,-85.2535 890.656,-81.0209"/>
<polygon fill="none" stroke="black" points="891.684,-77.6706 881.089,-77.5632 889.304,-84.2538 891.684,-77.6706"/>
</g>
</g>
</svg>
