<?xml version="1.0" encoding="UTF-8" standalone="no"?>
<!DOCTYPE svg PUBLIC "-//W3C//DTD SVG 1.1//EN"
 "http://www.w3.org/Graphics/SVG/1.1/DTD/svg11.dtd">
<!-- Generated by graphviz version 2.26.3 (20100126.1600)
 -->
<!-- Title: G Pages: 1 -->
<svg width="1220pt" height="3050pt"
 viewBox="0.00 0.00 1220.00 3050.00" xmlns="http://www.w3.org/2000/svg" xmlns:xlink="http://www.w3.org/1999/xlink">
<g id="graph1" class="graph" transform="scale(1 1) rotate(0) translate(4 3046)">
<title>G</title>
<polygon fill="white" stroke="white" points="-4,5 -4,-3046 1217,-3046 1217,5 -4,5"/>
<g id="graph2" class="cluster"><title>cluster_Global</title>
<polyline fill="none" stroke="gray" points="177,-422 1192,-422 "/>
<path fill="none" stroke="gray" d="M1192,-422C1198,-422 1204,-428 1204,-434"/>
<polyline fill="none" stroke="gray" points="1204,-434 1204,-3022 "/>
<path fill="none" stroke="gray" d="M1204,-3022C1204,-3028 1198,-3034 1192,-3034"/>
<polyline fill="none" stroke="gray" points="1192,-3034 177,-3034 "/>
<path fill="none" stroke="gray" d="M177,-3034C171,-3034 165,-3028 165,-3022"/>
<polyline fill="none" stroke="gray" points="165,-3022 165,-434 "/>
<path fill="none" stroke="gray" d="M165,-434C165,-428 171,-422 177,-422"/>
<text text-anchor="middle" x="684.5" y="-3020.1" font-family="Times Roman,serif" font-size="11.00" fill="gray">Global</text>
</g>
<!-- \\AppController -->
<g id="node2" class="node"><title>\\AppController</title>
<polygon fill="none" stroke="black" points="555,-1574 451,-1574 451,-1538 555,-1538 555,-1574"/>
<text text-anchor="middle" x="503" y="-1553.1" font-family="Courier,monospace" font-size="11.00">AppController</text>
</g>
<!-- \\Controller -->
<g id="node65" class="node"><title>\\Controller</title>
<ellipse fill="none" stroke="black" cx="242" cy="-319" rx="63.1385" ry="18.3848"/>
<text text-anchor="middle" x="242" y="-315.4" font-family="Times Roman,serif" font-size="14.00" fill="gray">\Controller</text>
</g>
<!-- \\AppController&#45;&gt;\\Controller -->
<g id="edge3" class="edge"><title>\\AppController&#45;&gt;\\Controller</title>
<path fill="none" stroke="black" d="M450.803,-1557.98C430.764,-1555.86 409.489,-1549.54 396,-1534 225.97,-1338.12 457.909,-591.144 324,-369 316.097,-355.889 303.315,-345.751 290.171,-338.14"/>
<polygon fill="none" stroke="black" points="291.537,-334.902 281.069,-333.269 288.234,-341.074 291.537,-334.902"/>
</g>
<!-- \\AppModel -->
<g id="node3" class="node"><title>\\AppModel</title>
<polygon fill="none" stroke="black" points="538,-2977 468,-2977 468,-2941 538,-2941 538,-2977"/>
<text text-anchor="middle" x="503" y="-2956.1" font-family="Courier,monospace" font-size="11.00">AppModel</text>
</g>
<!-- \\NetCommonsAppModel -->
<g id="node50" class="node"><title>\\NetCommonsAppModel</title>
<polygon fill="none" stroke="black" points="311,-2977 173,-2977 173,-2941 311,-2941 311,-2977"/>
<text text-anchor="middle" x="242" y="-2956.1" font-family="Courier,monospace" font-size="11.00">NetCommonsAppModel</text>
</g>
<!-- \\AppModel&#45;&gt;\\NetCommonsAppModel -->
<g id="edge5" class="edge"><title>\\AppModel&#45;&gt;\\NetCommonsAppModel</title>
<path fill="none" stroke="black" d="M467.256,-2959C429.848,-2959 369.903,-2959 321.254,-2959"/>
<polygon fill="none" stroke="black" points="321.056,-2955.5 311.056,-2959 321.056,-2962.5 321.056,-2955.5"/>
</g>
<!-- \\DatabaseConfiguration -->
<g id="node4" class="node"><title>\\DatabaseConfiguration</title>
<polygon fill="none" stroke="black" points="879,-3004 721,-3004 721,-2968 879,-2968 879,-3004"/>
<text text-anchor="middle" x="800" y="-2983.1" font-family="Courier,monospace" font-size="11.00">DatabaseConfiguration</text>
</g>
<!-- \\DatabaseConfiguration&#45;&gt;\\AppModel -->
<g id="edge7" class="edge"><title>\\DatabaseConfiguration&#45;&gt;\\AppModel</title>
<path fill="none" stroke="black" d="M720.8,-2978.8C665.959,-2973.81 594.863,-2967.35 549.084,-2963.19"/>
<polygon fill="none" stroke="black" points="549.143,-2959.68 538.867,-2962.26 548.509,-2966.65 549.143,-2959.68"/>
</g>
<!-- \\AppHelper -->
<g id="node5" class="node"><title>\\AppHelper</title>
<polygon fill="none" stroke="black" points="838,-1897 762,-1897 762,-1861 838,-1861 838,-1897"/>
<text text-anchor="middle" x="800" y="-1876.1" font-family="Courier,monospace" font-size="11.00">AppHelper</text>
</g>
<!-- \\Helper -->
<g id="node69" class="node"><title>\\Helper</title>
<ellipse fill="none" stroke="black" cx="503" cy="-396" rx="43.8406" ry="18.3848"/>
<text text-anchor="middle" x="503" y="-392.4" font-family="Times Roman,serif" font-size="14.00" fill="gray">Helper</text>
</g>
<!-- \\AppHelper&#45;&gt;\\Helper -->
<g id="edge9" class="edge"><title>\\AppHelper&#45;&gt;\\Helper</title>
<path fill="none" stroke="black" d="M793.147,-1860.77C772.257,-1804.29 709.153,-1626.87 682,-1474 661.432,-1358.21 687.374,-506.568 610,-418 596.825,-402.919 576.314,-396.536 556.76,-394.241"/>
<polygon fill="none" stroke="black" points="556.925,-390.743 546.667,-393.39 556.337,-397.718 556.925,-390.743"/>
</g>
<!-- \\NetCommonsDeleteTest -->
<g id="node6" class="node"><title>\\NetCommonsDeleteTest</title>
<polygon fill="none" stroke="black" points="1169,-2788 1017,-2788 1017,-2752 1169,-2752 1169,-2788"/>
<text text-anchor="middle" x="1093" y="-2767.1" font-family="Courier,monospace" font-size="11.00">NetCommonsDeleteTest</text>
</g>
<!-- \\NetCommonsModelTestCase -->
<g id="node15" class="node"><title>\\NetCommonsModelTestCase</title>
<polygon fill="none" stroke="black" points="886,-2788 714,-2788 714,-2752 886,-2752 886,-2788"/>
<text text-anchor="middle" x="800" y="-2767.1" font-family="Courier,monospace" font-size="11.00">NetCommonsModelTestCase</text>
</g>
<!-- \\NetCommonsDeleteTest&#45;&gt;\\NetCommonsModelTestCase -->
<g id="edge11" class="edge"><title>\\NetCommonsDeleteTest&#45;&gt;\\NetCommonsModelTestCase</title>
<path fill="none" stroke="black" d="M1016.78,-2770C980.049,-2770 935.59,-2770 896.519,-2770"/>
<polygon fill="none" stroke="black" points="896.183,-2766.5 886.183,-2770 896.183,-2773.5 896.183,-2766.5"/>
</g>
<!-- \\NetCommonsConsoleTestCase -->
<g id="node7" class="node"><title>\\NetCommonsConsoleTestCase</title>
<polygon fill="none" stroke="black" points="892,-2734 708,-2734 708,-2698 892,-2698 892,-2734"/>
<text text-anchor="middle" x="800" y="-2713.1" font-family="Courier,monospace" font-size="11.00">NetCommonsConsoleTestCase</text>
</g>
<!-- \\NetCommonsCakeTestCase -->
<g id="node13" class="node"><title>\\NetCommonsCakeTestCase</title>
<polygon fill="none" stroke="black" points="585,-2761 421,-2761 421,-2725 585,-2725 585,-2761"/>
<text text-anchor="middle" x="503" y="-2740.1" font-family="Courier,monospace" font-size="11.00">NetCommonsCakeTestCase</text>
</g>
<!-- \\NetCommonsConsoleTestCase&#45;&gt;\\NetCommonsCakeTestCase -->
<g id="edge13" class="edge"><title>\\NetCommonsConsoleTestCase&#45;&gt;\\NetCommonsCakeTestCase</title>
<path fill="none" stroke="black" d="M707.249,-2724.43C671.93,-2727.64 631.688,-2731.3 596.316,-2734.52"/>
<polygon fill="none" stroke="black" points="595.635,-2731.06 585.993,-2735.46 596.269,-2738.04 595.635,-2731.06"/>
</g>
<!-- \\NetCommonsGetTest -->
<g id="node8" class="node"><title>\\NetCommonsGetTest</title>
<polygon fill="none" stroke="black" points="1158,-2734 1028,-2734 1028,-2698 1158,-2698 1158,-2734"/>
<text text-anchor="middle" x="1093" y="-2713.1" font-family="Courier,monospace" font-size="11.00">NetCommonsGetTest</text>
</g>
<!-- \\NetCommonsGetTest&#45;&gt;\\NetCommonsModelTestCase -->
<g id="edge15" class="edge"><title>\\NetCommonsGetTest&#45;&gt;\\NetCommonsModelTestCase</title>
<path fill="none" stroke="black" d="M1027.25,-2728.12C988.582,-2735.24 939.008,-2744.38 896.034,-2752.3"/>
<polygon fill="none" stroke="black" points="895.32,-2748.87 886.12,-2754.13 896.588,-2755.76 895.32,-2748.87"/>
</g>
<!-- \\NetCommonsHelperTestCase -->
<g id="node9" class="node"><title>\\NetCommonsHelperTestCase</title>
<polygon fill="none" stroke="black" points="889,-2842 711,-2842 711,-2806 889,-2806 889,-2842"/>
<text text-anchor="middle" x="800" y="-2821.1" font-family="Courier,monospace" font-size="11.00">NetCommonsHelperTestCase</text>
</g>
<!-- \\NetCommonsHelperTestCase&#45;&gt;\\NetCommonsCakeTestCase -->
<g id="edge17" class="edge"><title>\\NetCommonsHelperTestCase&#45;&gt;\\NetCommonsCakeTestCase</title>
<path fill="none" stroke="black" d="M717.936,-2805.98C705.852,-2803.11 693.579,-2800.07 682,-2797 644.303,-2787.01 602.565,-2774.51 568.882,-2764.05"/>
<polygon fill="none" stroke="black" points="569.742,-2760.65 559.154,-2761.01 567.658,-2767.33 569.742,-2760.65"/>
</g>
<!-- \\NetCommonsControllerBaseTestCase -->
<g id="node10" class="node"><title>\\NetCommonsControllerBaseTestCase</title>
<polygon fill="none" stroke="black" points="916,-1465 684,-1465 684,-1429 916,-1429 916,-1465"/>
<text text-anchor="middle" x="800" y="-1444.1" font-family="Courier,monospace" font-size="11.00">NetCommonsControllerBaseTestCase</text>
</g>
<!-- \\ControllerTestCase -->
<g id="node75" class="node"><title>\\ControllerTestCase</title>
<ellipse fill="none" stroke="black" cx="503" cy="-342" rx="106.773" ry="18.3848"/>
<text text-anchor="middle" x="503" y="-338.4" font-family="Times Roman,serif" font-size="14.00" fill="gray">\ControllerTestCase</text>
</g>
<!-- \\NetCommonsControllerBaseTestCase&#45;&gt;\\ControllerTestCase -->
<g id="edge19" class="edge"><title>\\NetCommonsControllerBaseTestCase&#45;&gt;\\ControllerTestCase</title>
<path fill="none" stroke="black" d="M729.14,-1428.95C710.961,-1420.9 693.355,-1409.39 682,-1393 552.085,-1205.49 756.417,-543.927 610,-369 606.388,-364.684 602.196,-361.004 597.604,-357.869"/>
<polygon fill="none" stroke="black" points="599.345,-354.833 588.948,-352.797 595.807,-360.872 599.345,-354.833"/>
</g>
<!-- \\NetCommonsValidateTest -->
<g id="node11" class="node"><title>\\NetCommonsValidateTest</title>
<polygon fill="none" stroke="black" points="1175,-2896 1011,-2896 1011,-2860 1175,-2860 1175,-2896"/>
<text text-anchor="middle" x="1093" y="-2875.1" font-family="Courier,monospace" font-size="11.00">NetCommonsValidateTest</text>
</g>
<!-- \\NetCommonsValidateTest&#45;&gt;\\NetCommonsModelTestCase -->
<g id="edge21" class="edge"><title>\\NetCommonsValidateTest&#45;&gt;\\NetCommonsModelTestCase</title>
<path fill="none" stroke="black" d="M1011.79,-2859.93C1004.28,-2857.3 996.908,-2854.34 990,-2851 953.981,-2833.6 954.288,-2813.83 918,-2797 910.962,-2793.74 903.501,-2790.85 895.884,-2788.31"/>
<polygon fill="none" stroke="black" points="896.762,-2784.91 886.173,-2785.26 894.666,-2791.59 896.762,-2784.91"/>
</g>
<!-- \\NetCommonsTestSuite -->
<g id="node12" class="node"><title>\\NetCommonsTestSuite</title>
<polygon fill="none" stroke="black" points="1165,-1330 1021,-1330 1021,-1294 1165,-1294 1165,-1330"/>
<text text-anchor="middle" x="1093" y="-1309.1" font-family="Courier,monospace" font-size="11.00">NetCommonsTestSuite</text>
</g>
<!-- \\CakeTestSuite -->
<g id="node78" class="node"><title>\\CakeTestSuite</title>
<ellipse fill="none" stroke="black" cx="800" cy="-396" rx="84.1457" ry="18.3848"/>
<text text-anchor="middle" x="800" y="-392.4" font-family="Times Roman,serif" font-size="14.00" fill="gray">\CakeTestSuite</text>
</g>
<!-- \\NetCommonsTestSuite&#45;&gt;\\CakeTestSuite -->
<g id="edge23" class="edge"><title>\\NetCommonsTestSuite&#45;&gt;\\CakeTestSuite</title>
<path fill="none" stroke="black" d="M1020.5,-1305.09C1008.82,-1300.85 997.966,-1294.48 990,-1285 865.654,-1136.96 1047.6,-561.462 918,-418 911.19,-410.461 902.695,-404.996 893.403,-401.088"/>
<polygon fill="none" stroke="black" points="894.473,-397.754 883.878,-397.68 892.114,-404.344 894.473,-397.754"/>
</g>
<!-- \\CakeTestCase -->
<g id="node80" class="node"><title>\\CakeTestCase</title>
<ellipse fill="none" stroke="black" cx="242" cy="-396" rx="82.0244" ry="18.3848"/>
<text text-anchor="middle" x="242" y="-392.4" font-family="Times Roman,serif" font-size="14.00" fill="gray">\CakeTestCase</text>
</g>
<!-- \\NetCommonsCakeTestCase&#45;&gt;\\CakeTestCase -->
<g id="edge25" class="edge"><title>\\NetCommonsCakeTestCase&#45;&gt;\\CakeTestCase</title>
<path fill="none" stroke="black" d="M501.128,-2724.95C490.002,-2617.24 431.83,-2048.3 396,-1583 386.043,-1453.69 406.072,-518.419 324,-418 322.286,-415.903 320.396,-413.994 318.363,-412.256"/>
<polygon fill="none" stroke="black" points="320.1,-409.2 309.89,-406.369 316.106,-414.949 320.1,-409.2"/>
</g>
<!-- \\NetCommonsSaveTest -->
<g id="node14" class="node"><title>\\NetCommonsSaveTest</title>
<polygon fill="none" stroke="black" points="1162,-2842 1024,-2842 1024,-2806 1162,-2806 1162,-2842"/>
<text text-anchor="middle" x="1093" y="-2821.1" font-family="Courier,monospace" font-size="11.00">NetCommonsSaveTest</text>
</g>
<!-- \\NetCommonsSaveTest&#45;&gt;\\NetCommonsModelTestCase -->
<g id="edge27" class="edge"><title>\\NetCommonsSaveTest&#45;&gt;\\NetCommonsModelTestCase</title>
<path fill="none" stroke="black" d="M1023.93,-2811.27C985.795,-2804.24 937.829,-2795.4 896.084,-2787.71"/>
<polygon fill="none" stroke="black" points="896.641,-2784.25 886.172,-2785.88 895.372,-2791.14 896.641,-2784.25"/>
</g>
<!-- \\NetCommonsModelTestCase&#45;&gt;\\NetCommonsCakeTestCase -->
<g id="edge29" class="edge"><title>\\NetCommonsModelTestCase&#45;&gt;\\NetCommonsCakeTestCase</title>
<path fill="none" stroke="black" d="M713.696,-2762.15C676.671,-2758.79 633.35,-2754.85 595.65,-2751.42"/>
<polygon fill="none" stroke="black" points="595.962,-2747.94 585.686,-2750.52 595.328,-2754.91 595.962,-2747.94"/>
</g>
<!-- \\NetCommonsControllerTestCase -->
<g id="node16" class="node"><title>\\NetCommonsControllerTestCase</title>
<polygon fill="none" stroke="black" points="1196,-1492 990,-1492 990,-1456 1196,-1456 1196,-1492"/>
<text text-anchor="middle" x="1093" y="-1471.1" font-family="Courier,monospace" font-size="11.00">NetCommonsControllerTestCase</text>
</g>
<!-- \\NetCommonsControllerTestCase&#45;&gt;\\NetCommonsControllerBaseTestCase -->
<g id="edge31" class="edge"><title>\\NetCommonsControllerTestCase&#45;&gt;\\NetCommonsControllerBaseTestCase</title>
<path fill="none" stroke="black" d="M989.699,-1464.48C969.289,-1462.6 947.65,-1460.61 926.571,-1458.66"/>
<polygon fill="none" stroke="black" points="926.885,-1455.18 916.606,-1457.75 926.243,-1462.15 926.885,-1455.18"/>
</g>
<!-- \\NetCommonsAppController -->
<g id="node17" class="node"><title>\\NetCommonsAppController</title>
<polygon fill="none" stroke="black" points="886,-1384 714,-1384 714,-1348 886,-1348 886,-1384"/>
<text text-anchor="middle" x="800" y="-1363.1" font-family="Courier,monospace" font-size="11.00">NetCommonsAppController</text>
</g>
<!-- \\NetCommonsAppController&#45;&gt;\\Controller -->
<g id="edge33" class="edge"><title>\\NetCommonsAppController&#45;&gt;\\Controller</title>
<path fill="none" stroke="black" d="M713.928,-1363.76C701.77,-1359.81 690.529,-1353.57 682,-1344 529.45,-1172.91 777.649,-471.328 610,-315 522.392,-233.307 365.732,-273.415 288.147,-300.737"/>
<polygon fill="none" stroke="black" points="286.86,-297.481 278.638,-304.162 289.232,-304.066 286.86,-297.481"/>
</g>
<!-- \\AssetComponent -->
<g id="node18" class="node"><title>\\AssetComponent</title>
<polygon fill="none" stroke="black" points="1148,-1060 1038,-1060 1038,-1024 1148,-1024 1148,-1060"/>
<text text-anchor="middle" x="1093" y="-1039.1" font-family="Courier,monospace" font-size="11.00">AssetComponent</text>
</g>
<!-- \\Component -->
<g id="node86" class="node"><title>\\Component</title>
<ellipse fill="none" stroke="black" cx="800" cy="-342" rx="70.9184" ry="18.3848"/>
<text text-anchor="middle" x="800" y="-338.4" font-family="Times Roman,serif" font-size="14.00" fill="gray">\Component</text>
</g>
<!-- \\AssetComponent&#45;&gt;\\Component -->
<g id="edge35" class="edge"><title>\\AssetComponent&#45;&gt;\\Component</title>
<path fill="none" stroke="black" d="M1037.26,-1039.5C1019.72,-1035.88 1001.85,-1028.71 990,-1015 801.099,-796.429 1110.31,-584.576 918,-369 908.225,-358.042 894.994,-351.054 880.924,-346.686"/>
<polygon fill="none" stroke="black" points="881.644,-343.256 871.08,-344.064 879.842,-350.02 881.644,-343.256"/>
</g>
<!-- \\AccessCtrlComponent -->
<g id="node19" class="node"><title>\\AccessCtrlComponent</title>
<polygon fill="none" stroke="black" points="1165,-1276 1021,-1276 1021,-1240 1165,-1240 1165,-1276"/>
<text text-anchor="middle" x="1093" y="-1255.1" font-family="Courier,monospace" font-size="11.00">AccessCtrlComponent</text>
</g>
<!-- \\AccessCtrlComponent&#45;&gt;\\Component -->
<g id="edge37" class="edge"><title>\\AccessCtrlComponent&#45;&gt;\\Component</title>
<path fill="none" stroke="black" d="M1020.24,-1250.99C1008.66,-1246.75 997.909,-1240.41 990,-1231 866.331,-1083.84 1043.97,-514.197 918,-369 908.377,-357.908 895.216,-350.859 881.165,-346.473"/>
<polygon fill="none" stroke="black" points="881.893,-343.045 871.328,-343.845 880.086,-349.808 881.893,-343.045"/>
</g>
<!-- \\NetCommonsTimeComponent -->
<g id="node20" class="node"><title>\\NetCommonsTimeComponent</title>
<polygon fill="none" stroke="black" points="1179,-1222 1007,-1222 1007,-1186 1179,-1186 1179,-1222"/>
<text text-anchor="middle" x="1093" y="-1201.1" font-family="Courier,monospace" font-size="11.00">NetCommonsTimeComponent</text>
</g>
<!-- \\NetCommonsTimeComponent&#45;&gt;\\Component -->
<g id="edge39" class="edge"><title>\\NetCommonsTimeComponent&#45;&gt;\\Component</title>
<path fill="none" stroke="black" d="M1006.95,-1190.83C1000.57,-1187.19 994.773,-1182.65 990,-1177 873.641,-1039.32 1036.51,-504.839 918,-369 908.346,-357.935 895.171,-350.898 881.117,-346.516"/>
<polygon fill="none" stroke="black" points="881.843,-343.087 871.278,-343.889 880.037,-349.85 881.843,-343.087"/>
</g>
<!-- \\PermissionComponent -->
<g id="node21" class="node"><title>\\PermissionComponent</title>
<polygon fill="none" stroke="black" points="1165,-1168 1021,-1168 1021,-1132 1165,-1132 1165,-1168"/>
<text text-anchor="middle" x="1093" y="-1147.1" font-family="Courier,monospace" font-size="11.00">PermissionComponent</text>
</g>
<!-- \\PermissionComponent&#45;&gt;\\Component -->
<g id="edge41" class="edge"><title>\\PermissionComponent&#45;&gt;\\Component</title>
<path fill="none" stroke="black" d="M1020.33,-1142.91C1008.74,-1138.69 997.965,-1132.36 990,-1123 880.948,-994.787 1029.05,-495.484 918,-369 908.311,-357.965 895.121,-350.943 881.061,-346.564"/>
<polygon fill="none" stroke="black" points="881.786,-343.135 871.222,-343.939 879.981,-349.899 881.786,-343.135"/>
</g>
<!-- \\NetCommonsComponent -->
<g id="node22" class="node"><title>\\NetCommonsComponent</title>
<polygon fill="none" stroke="black" points="1165,-1114 1021,-1114 1021,-1078 1165,-1078 1165,-1114"/>
<text text-anchor="middle" x="1093" y="-1093.1" font-family="Courier,monospace" font-size="11.00">NetCommonsComponent</text>
</g>
<!-- \\NetCommonsComponent&#45;&gt;\\Component -->
<g id="edge43" class="edge"><title>\\NetCommonsComponent&#45;&gt;\\Component</title>
<path fill="none" stroke="black" d="M1020.39,-1088.86C1008.79,-1084.64 997.999,-1078.34 990,-1069 786.502,-831.507 1125.2,-603.266 918,-369 908.271,-358.001 895.062,-350.994 880.998,-346.62"/>
<polygon fill="none" stroke="black" points="881.72,-343.191 871.156,-343.996 879.917,-349.955 881.72,-343.191"/>
</g>
<!-- \\SiteCloseController -->
<g id="node23" class="node"><title>\\SiteCloseController</title>
<polygon fill="none" stroke="black" points="1165,-1384 1021,-1384 1021,-1348 1165,-1348 1165,-1384"/>
<text text-anchor="middle" x="1093" y="-1363.1" font-family="Courier,monospace" font-size="11.00">SiteCloseController</text>
</g>
<!-- \\SiteCloseController&#45;&gt;\\NetCommonsAppController -->
<g id="edge45" class="edge"><title>\\SiteCloseController&#45;&gt;\\NetCommonsAppController</title>
<path fill="none" stroke="black" d="M1020.2,-1366C982.776,-1366 936.682,-1366 896.354,-1366"/>
<polygon fill="none" stroke="black" points="896.233,-1362.5 886.233,-1366 896.233,-1369.5 896.233,-1362.5"/>
</g>
<!-- \\NetCommonsController -->
<g id="node24" class="node"><title>\\NetCommonsController</title>
<polygon fill="none" stroke="black" points="1169,-1438 1017,-1438 1017,-1402 1169,-1402 1169,-1438"/>
<text text-anchor="middle" x="1093" y="-1417.1" font-family="Courier,monospace" font-size="11.00">NetCommonsController</text>
</g>
<!-- \\NetCommonsController&#45;&gt;\\NetCommonsAppController -->
<g id="edge47" class="edge"><title>\\NetCommonsController&#45;&gt;\\NetCommonsAppController</title>
<path fill="none" stroke="black" d="M1016.78,-1405.95C979.893,-1399.15 935.211,-1390.92 896.02,-1383.7"/>
<polygon fill="none" stroke="black" points="896.652,-1380.25 886.183,-1381.88 895.383,-1387.14 896.652,-1380.25"/>
</g>
<!-- \\NetCommonsUrl -->
<g id="node25" class="node"><title>\\NetCommonsUrl</title>
<polygon fill="none" stroke="black" points="1145,-2302 1041,-2302 1041,-2266 1145,-2266 1145,-2302"/>
<text text-anchor="middle" x="1093" y="-2281.1" font-family="Courier,monospace" font-size="11.00">NetCommonsUrl</text>
</g>
<!-- \\NetCommonsTime -->
<g id="node26" class="node"><title>\\NetCommonsTime</title>
<polygon fill="none" stroke="black" points="1148,-2248 1038,-2248 1038,-2212 1148,-2212 1148,-2248"/>
<text text-anchor="middle" x="1093" y="-2227.1" font-family="Courier,monospace" font-size="11.00">NetCommonsTime</text>
</g>
<!-- \\CurrentBase -->
<g id="node27" class="node"><title>\\CurrentBase</title>
<polygon fill="none" stroke="black" points="845,-2626 755,-2626 755,-2590 845,-2590 845,-2626"/>
<text text-anchor="middle" x="800" y="-2605.1" font-family="Courier,monospace" font-size="11.00">CurrentBase</text>
</g>
<!-- \\Current -->
<g id="node28" class="node"><title>\\Current</title>
<polygon fill="none" stroke="black" points="1125,-2626 1061,-2626 1061,-2590 1125,-2590 1125,-2626"/>
<text text-anchor="middle" x="1093" y="-2605.1" font-family="Courier,monospace" font-size="11.00">Current</text>
</g>
<!-- \\Current&#45;&gt;\\CurrentBase -->
<g id="edge49" class="edge"><title>\\Current&#45;&gt;\\CurrentBase</title>
<path fill="none" stroke="black" d="M1060.81,-2608C1011.48,-2608 916.554,-2608 855.846,-2608"/>
<polygon fill="none" stroke="black" points="855.669,-2604.5 845.669,-2608 855.669,-2611.5 855.669,-2604.5"/>
</g>
<!-- \\CurrentSystem -->
<g id="node29" class="node"><title>\\CurrentSystem</title>
<polygon fill="none" stroke="black" points="1145,-2140 1041,-2140 1041,-2104 1145,-2104 1145,-2140"/>
<text text-anchor="middle" x="1093" y="-2119.1" font-family="Courier,monospace" font-size="11.00">CurrentSystem</text>
</g>
<!-- \\CurrentPage -->
<g id="node30" class="node"><title>\\CurrentPage</title>
<polygon fill="none" stroke="black" points="1138,-2086 1048,-2086 1048,-2050 1138,-2050 1138,-2086"/>
<text text-anchor="middle" x="1093" y="-2065.1" font-family="Courier,monospace" font-size="11.00">CurrentPage</text>
</g>
<!-- \\CurrentFrame -->
<g id="node31" class="node"><title>\\CurrentFrame</title>
<polygon fill="none" stroke="black" points="1142,-2032 1044,-2032 1044,-1996 1142,-1996 1142,-2032"/>
<text text-anchor="middle" x="1093" y="-2011.1" font-family="Courier,monospace" font-size="11.00">CurrentFrame</text>
</g>
<!-- \\TokenHelper -->
<g id="node32" class="node"><title>\\TokenHelper</title>
<polygon fill="none" stroke="black" points="1138,-1006 1048,-1006 1048,-970 1138,-970 1138,-1006"/>
<text text-anchor="middle" x="1093" y="-985.1" font-family="Courier,monospace" font-size="11.00">TokenHelper</text>
</g>
<!-- \\FormHelper -->
<g id="node95" class="node"><title>\\FormHelper</title>
<ellipse fill="none" stroke="black" cx="800" cy="-288" rx="70.9184" ry="18.3848"/>
<text text-anchor="middle" x="800" y="-284.4" font-family="Times Roman,serif" font-size="14.00" fill="gray">\FormHelper</text>
</g>
<!-- \\TokenHelper&#45;&gt;\\FormHelper -->
<g id="edge51" class="edge"><title>\\TokenHelper&#45;&gt;\\FormHelper</title>
<path fill="none" stroke="black" d="M1047.39,-987.237C1026.87,-984.41 1004.14,-977.364 990,-961 801.099,-742.429 1110.31,-530.576 918,-315 908.225,-304.042 894.994,-297.054 880.924,-292.686"/>
<polygon fill="none" stroke="black" points="881.644,-289.256 871.08,-290.064 879.842,-296.02 881.644,-289.256"/>
</g>
<!-- \\SingletonViewBlockHtmlHelper -->
<g id="node33" class="node"><title>\\SingletonViewBlockHtmlHelper</title>
<polygon fill="none" stroke="black" points="1196,-844 990,-844 990,-808 1196,-808 1196,-844"/>
<text text-anchor="middle" x="1093" y="-823.1" font-family="Courier,monospace" font-size="11.00">SingletonViewBlockHtmlHelper</text>
</g>
<!-- \\HtmlHelper -->
<g id="node97" class="node"><title>\\HtmlHelper</title>
<ellipse fill="none" stroke="black" cx="800" cy="-234" rx="67.1751" ry="18.3848"/>
<text text-anchor="middle" x="800" y="-230.4" font-family="Times Roman,serif" font-size="14.00" fill="gray">HtmlHelper</text>
</g>
<!-- \\SingletonViewBlockHtmlHelper&#45;&gt;\\HtmlHelper -->
<g id="edge53" class="edge"><title>\\SingletonViewBlockHtmlHelper&#45;&gt;\\HtmlHelper</title>
<path fill="none" stroke="black" d="M999.785,-807.859C996.23,-805.263 992.938,-802.325 990,-799 830.252,-618.227 1080.57,-439.24 918,-261 907.152,-249.106 892.23,-241.912 876.645,-237.671"/>
<polygon fill="none" stroke="black" points="877.419,-234.258 866.885,-235.397 875.83,-241.075 877.419,-234.258"/>
</g>
<!-- \\FormInputHelper -->
<g id="node34" class="node"><title>\\FormInputHelper</title>
<polygon fill="none" stroke="black" points="1152,-2572 1034,-2572 1034,-2536 1152,-2536 1152,-2572"/>
<text text-anchor="middle" x="1093" y="-2551.1" font-family="Courier,monospace" font-size="11.00">FormInputHelper</text>
</g>
<!-- \\FormInputHelper&#45;&gt;\\AppHelper -->
<g id="edge55" class="edge"><title>\\FormInputHelper&#45;&gt;\\AppHelper</title>
<path fill="none" stroke="black" d="M1033.76,-2549.16C1017.84,-2545.22 1001.8,-2538.46 990,-2527 897.138,-2436.78 823.079,-2019.86 804.505,-1907.15"/>
<polygon fill="none" stroke="black" points="807.948,-1906.52 802.881,-1897.22 801.039,-1907.65 807.948,-1906.52"/>
</g>
<!-- \\WizardHelper -->
<g id="node35" class="node"><title>\\WizardHelper</title>
<polygon fill="none" stroke="black" points="1142,-2518 1044,-2518 1044,-2482 1142,-2482 1142,-2518"/>
<text text-anchor="middle" x="1093" y="-2497.1" font-family="Courier,monospace" font-size="11.00">WizardHelper</text>
</g>
<!-- \\WizardHelper&#45;&gt;\\AppHelper -->
<g id="edge57" class="edge"><title>\\WizardHelper&#45;&gt;\\AppHelper</title>
<path fill="none" stroke="black" d="M1043.79,-2497.09C1024.89,-2493.62 1004.42,-2486.67 990,-2473 903.879,-2391.34 825.926,-2013.95 805.305,-1907.2"/>
<polygon fill="none" stroke="black" points="808.705,-1906.35 803.386,-1897.18 801.83,-1907.66 808.705,-1906.35"/>
</g>
<!-- \\DisplayNumberHelper -->
<g id="node36" class="node"><title>\\DisplayNumberHelper</title>
<polygon fill="none" stroke="black" points="1165,-2464 1021,-2464 1021,-2428 1165,-2428 1165,-2464"/>
<text text-anchor="middle" x="1093" y="-2443.1" font-family="Courier,monospace" font-size="11.00">DisplayNumberHelper</text>
</g>
<!-- \\DisplayNumberHelper&#45;&gt;\\AppHelper -->
<g id="edge59" class="edge"><title>\\DisplayNumberHelper&#45;&gt;\\AppHelper</title>
<path fill="none" stroke="black" d="M1020.25,-2436.56C1009.15,-2432.53 998.566,-2426.89 990,-2419 834.226,-2275.5 806.135,-1996.7 801.095,-1907.31"/>
<polygon fill="none" stroke="black" points="804.581,-1906.94 800.577,-1897.13 797.59,-1907.3 804.581,-1906.94"/>
</g>
<!-- \\MessageFlashHelper -->
<g id="node37" class="node"><title>\\MessageFlashHelper</title>
<polygon fill="none" stroke="black" points="1162,-2410 1024,-2410 1024,-2374 1162,-2374 1162,-2410"/>
<text text-anchor="middle" x="1093" y="-2389.1" font-family="Courier,monospace" font-size="11.00">MessageFlashHelper</text>
</g>
<!-- \\MessageFlashHelper&#45;&gt;\\AppHelper -->
<g id="edge61" class="edge"><title>\\MessageFlashHelper&#45;&gt;\\AppHelper</title>
<path fill="none" stroke="black" d="M1023.93,-2383.49C1011.58,-2379.44 999.597,-2373.54 990,-2365 847.368,-2238.06 810.808,-1990.73 802.341,-1907.27"/>
<polygon fill="none" stroke="black" points="805.82,-1906.89 801.383,-1897.27 798.852,-1907.56 805.82,-1906.89"/>
</g>
<!-- \\DateHelper -->
<g id="node38" class="node"><title>\\DateHelper</title>
<polygon fill="none" stroke="black" points="1135,-2356 1051,-2356 1051,-2320 1135,-2320 1135,-2356"/>
<text text-anchor="middle" x="1093" y="-2335.1" font-family="Courier,monospace" font-size="11.00">DateHelper</text>
</g>
<!-- \\DateHelper&#45;&gt;\\AppHelper -->
<g id="edge63" class="edge"><title>\\DateHelper&#45;&gt;\\AppHelper</title>
<path fill="none" stroke="black" d="M1050.97,-2335.43C1030.56,-2332.23 1006.87,-2325.4 990,-2311 860.231,-2200.27 815.867,-1983.9 803.825,-1906.97"/>
<polygon fill="none" stroke="black" points="807.284,-1906.43 802.335,-1897.07 800.362,-1907.48 807.284,-1906.43"/>
</g>
<!-- \\SnsButtonHelper -->
<g id="node39" class="node"><title>\\SnsButtonHelper</title>
<polygon fill="none" stroke="black" points="1152,-2194 1034,-2194 1034,-2158 1152,-2158 1152,-2194"/>
<text text-anchor="middle" x="1093" y="-2173.1" font-family="Courier,monospace" font-size="11.00">SnsButtonHelper</text>
</g>
<!-- \\SnsButtonHelper&#45;&gt;\\AppHelper -->
<g id="edge65" class="edge"><title>\\SnsButtonHelper&#45;&gt;\\AppHelper</title>
<path fill="none" stroke="black" d="M1033.8,-2167.95C1018.6,-2163.95 1002.91,-2157.96 990,-2149 898.034,-2085.14 835.79,-1961.53 811.457,-1906.54"/>
<polygon fill="none" stroke="black" points="814.551,-1904.87 807.356,-1897.1 808.13,-1907.66 814.551,-1904.87"/>
</g>
<!-- \\BackToHelper -->
<g id="node40" class="node"><title>\\BackToHelper</title>
<polygon fill="none" stroke="black" points="1142,-1978 1044,-1978 1044,-1942 1142,-1942 1142,-1978"/>
<text text-anchor="middle" x="1093" y="-1957.1" font-family="Courier,monospace" font-size="11.00">BackToHelper</text>
</g>
<!-- \\BackToHelper&#45;&gt;\\AppHelper -->
<g id="edge67" class="edge"><title>\\BackToHelper&#45;&gt;\\AppHelper</title>
<path fill="none" stroke="black" d="M1043.96,-1947.36C1026.86,-1942.9 1007.57,-1937.8 990,-1933 941.716,-1919.81 886.728,-1904.11 848.375,-1893.04"/>
<polygon fill="none" stroke="black" points="849.087,-1889.61 838.508,-1890.2 847.145,-1896.33 849.087,-1889.61"/>
</g>
<!-- \\NetCommonsHtmlHelper -->
<g id="node41" class="node"><title>\\NetCommonsHtmlHelper</title>
<polygon fill="none" stroke="black" points="1169,-1924 1017,-1924 1017,-1888 1169,-1888 1169,-1924"/>
<text text-anchor="middle" x="1093" y="-1903.1" font-family="Courier,monospace" font-size="11.00">NetCommonsHtmlHelper</text>
</g>
<!-- \\NetCommonsHtmlHelper&#45;&gt;\\AppHelper -->
<g id="edge69" class="edge"><title>\\NetCommonsHtmlHelper&#45;&gt;\\AppHelper</title>
<path fill="none" stroke="black" d="M1016.78,-1898.98C963.659,-1894.08 894.376,-1887.7 848.603,-1883.48"/>
<polygon fill="none" stroke="black" points="848.917,-1879.99 838.638,-1882.56 848.274,-1886.96 848.917,-1879.99"/>
</g>
<!-- \\ButtonHelper -->
<g id="node42" class="node"><title>\\ButtonHelper</title>
<polygon fill="none" stroke="black" points="1142,-952 1044,-952 1044,-916 1142,-916 1142,-952"/>
<text text-anchor="middle" x="1093" y="-931.1" font-family="Courier,monospace" font-size="11.00">ButtonHelper</text>
</g>
<!-- \\ButtonHelper&#45;&gt;\\FormHelper -->
<g id="edge71" class="edge"><title>\\ButtonHelper&#45;&gt;\\FormHelper</title>
<path fill="none" stroke="black" d="M1043.76,-932.618C1024.27,-929.457 1003.37,-922.318 990,-907 815.683,-707.337 1095.43,-511.899 918,-315 908.227,-304.155 895.069,-297.207 881.082,-292.841"/>
<polygon fill="none" stroke="black" points="881.864,-289.426 871.298,-290.214 880.049,-296.187 881.864,-289.426"/>
</g>
<!-- \\ComposerHelper -->
<g id="node43" class="node"><title>\\ComposerHelper</title>
<polygon fill="none" stroke="black" points="1148,-1870 1038,-1870 1038,-1834 1148,-1834 1148,-1870"/>
<text text-anchor="middle" x="1093" y="-1849.1" font-family="Courier,monospace" font-size="11.00">ComposerHelper</text>
</g>
<!-- \\ComposerHelper&#45;&gt;\\AppHelper -->
<g id="edge73" class="edge"><title>\\ComposerHelper&#45;&gt;\\AppHelper</title>
<path fill="none" stroke="black" d="M1037.2,-1857.14C982.718,-1862.16 900.647,-1869.73 848.725,-1874.51"/>
<polygon fill="none" stroke="black" points="848.396,-1871.03 838.759,-1875.43 849.038,-1878 848.396,-1871.03"/>
</g>
<!-- \\LinkButtonHelper -->
<g id="node44" class="node"><title>\\LinkButtonHelper</title>
<polygon fill="none" stroke="black" points="1155,-898 1031,-898 1031,-862 1155,-862 1155,-898"/>
<text text-anchor="middle" x="1093" y="-877.1" font-family="Courier,monospace" font-size="11.00">LinkButtonHelper</text>
</g>
<!-- \\LinkButtonHelper&#45;&gt;\\FormHelper -->
<g id="edge75" class="edge"><title>\\LinkButtonHelper&#45;&gt;\\FormHelper</title>
<path fill="none" stroke="black" d="M1030.45,-875.714C1015.26,-871.707 1000.41,-864.775 990,-853 830.252,-672.227 1080.57,-493.24 918,-315 908.162,-304.213 894.974,-297.293 880.979,-292.934"/>
<polygon fill="none" stroke="black" points="881.757,-289.519 871.192,-290.31 879.944,-296.281 881.757,-289.519"/>
</g>
<!-- \\TableListHelper -->
<g id="node45" class="node"><title>\\TableListHelper</title>
<polygon fill="none" stroke="black" points="1152,-1816 1034,-1816 1034,-1780 1152,-1780 1152,-1816"/>
<text text-anchor="middle" x="1093" y="-1795.1" font-family="Courier,monospace" font-size="11.00">TableListHelper</text>
</g>
<!-- \\TableListHelper&#45;&gt;\\AppHelper -->
<g id="edge77" class="edge"><title>\\TableListHelper&#45;&gt;\\AppHelper</title>
<path fill="none" stroke="black" d="M1033.85,-1813.28C1019.48,-1817.06 1004.18,-1821.13 990,-1825 941.716,-1838.19 886.728,-1853.89 848.375,-1864.96"/>
<polygon fill="none" stroke="black" points="847.145,-1861.67 838.508,-1867.8 849.087,-1868.39 847.145,-1861.67"/>
</g>
<!-- \\NetCommonsTimeHelper -->
<g id="node46" class="node"><title>\\NetCommonsTimeHelper</title>
<polygon fill="none" stroke="black" points="1169,-1762 1017,-1762 1017,-1726 1169,-1726 1169,-1762"/>
<text text-anchor="middle" x="1093" y="-1741.1" font-family="Courier,monospace" font-size="11.00">NetCommonsTimeHelper</text>
</g>
<!-- \\NetCommonsTimeHelper&#45;&gt;\\AppHelper -->
<g id="edge79" class="edge"><title>\\NetCommonsTimeHelper&#45;&gt;\\AppHelper</title>
<path fill="none" stroke="black" d="M1016.88,-1761.54C1007.71,-1764.36 998.561,-1767.51 990,-1771 933.066,-1794.18 872.097,-1831.27 835.004,-1855.39"/>
<polygon fill="none" stroke="black" points="833.002,-1852.52 826.557,-1860.93 836.839,-1858.37 833.002,-1852.52"/>
</g>
<!-- \\NetCommonsFormHelper -->
<g id="node47" class="node"><title>\\NetCommonsFormHelper</title>
<polygon fill="none" stroke="black" points="1169,-1708 1017,-1708 1017,-1672 1169,-1672 1169,-1708"/>
<text text-anchor="middle" x="1093" y="-1687.1" font-family="Courier,monospace" font-size="11.00">NetCommonsFormHelper</text>
</g>
<!-- \\NetCommonsFormHelper&#45;&gt;\\AppHelper -->
<g id="edge81" class="edge"><title>\\NetCommonsFormHelper&#45;&gt;\\AppHelper</title>
<path fill="none" stroke="black" d="M1016.98,-1705.73C1007.65,-1708.87 998.439,-1712.59 990,-1717 921.41,-1752.81 856.097,-1817.44 822.838,-1853.3"/>
<polygon fill="none" stroke="black" points="820.033,-1851.17 815.854,-1860.91 825.192,-1855.91 820.033,-1851.17"/>
</g>
<!-- \\TitleIconHelper -->
<g id="node48" class="node"><title>\\TitleIconHelper</title>
<polygon fill="none" stroke="black" points="1152,-1654 1034,-1654 1034,-1618 1152,-1618 1152,-1654"/>
<text text-anchor="middle" x="1093" y="-1633.1" font-family="Courier,monospace" font-size="11.00">TitleIconHelper</text>
</g>
<!-- \\TitleIconHelper&#45;&gt;\\AppHelper -->
<g id="edge83" class="edge"><title>\\TitleIconHelper&#45;&gt;\\AppHelper</title>
<path fill="none" stroke="black" d="M1033.89,-1645.14C1018.85,-1649.14 1003.22,-1654.85 990,-1663 909.876,-1712.44 844.727,-1806.19 815.946,-1852.19"/>
<polygon fill="none" stroke="black" points="812.792,-1850.64 810.523,-1860.98 818.75,-1854.31 812.792,-1850.64"/>
</g>
<!-- \\DatetimePickerHelper -->
<g id="node49" class="node"><title>\\DatetimePickerHelper</title>
<polygon fill="none" stroke="black" points="1169,-1600 1017,-1600 1017,-1564 1169,-1564 1169,-1600"/>
<text text-anchor="middle" x="1093" y="-1579.1" font-family="Courier,monospace" font-size="11.00">DatetimePickerHelper</text>
</g>
<!-- \\DatetimePickerHelper&#45;&gt;\\AppHelper -->
<g id="edge85" class="edge"><title>\\DatetimePickerHelper&#45;&gt;\\AppHelper</title>
<path fill="none" stroke="black" d="M1016.86,-1595.37C1007.35,-1598.9 998.123,-1603.36 990,-1609 898.034,-1672.86 835.79,-1796.47 811.457,-1851.46"/>
<polygon fill="none" stroke="black" points="808.13,-1850.34 807.356,-1860.9 814.551,-1853.13 808.13,-1850.34"/>
</g>
<!-- \\Model -->
<g id="node115" class="node"><title>\\Model</title>
<ellipse fill="none" stroke="black" cx="44" cy="-2959" rx="43.8406" ry="18.3848"/>
<text text-anchor="middle" x="44" y="-2955.4" font-family="Times Roman,serif" font-size="14.00" fill="gray">\Model</text>
</g>
<!-- \\NetCommonsAppModel&#45;&gt;\\Model -->
<g id="edge87" class="edge"><title>\\NetCommonsAppModel&#45;&gt;\\Model</title>
<path fill="none" stroke="black" d="M172.749,-2959C148.379,-2959 121.357,-2959 98.3871,-2959"/>
<polygon fill="none" stroke="black" points="98.1425,-2955.5 88.1425,-2959 98.1424,-2962.5 98.1425,-2955.5"/>
</g>
<!-- \\OriginalKeyBehavior -->
<g id="node51" class="node"><title>\\OriginalKeyBehavior</title>
<polygon fill="none" stroke="black" points="1165,-790 1021,-790 1021,-754 1165,-754 1165,-790"/>
<text text-anchor="middle" x="1093" y="-769.1" font-family="Courier,monospace" font-size="11.00">OriginalKeyBehavior</text>
</g>
<!-- \\ModelBehavior -->
<g id="node117" class="node"><title>\\ModelBehavior</title>
<ellipse fill="none" stroke="black" cx="800" cy="-180" rx="86.9741" ry="18.3848"/>
<text text-anchor="middle" x="800" y="-176.4" font-family="Times Roman,serif" font-size="14.00" fill="gray">\ModelBehavior</text>
</g>
<!-- \\OriginalKeyBehavior&#45;&gt;\\ModelBehavior -->
<g id="edge89" class="edge"><title>\\OriginalKeyBehavior&#45;&gt;\\ModelBehavior</title>
<path fill="none" stroke="black" d="M1020.36,-764.567C1008.84,-760.366 998.079,-754.143 990,-745 830.252,-564.227 1080.57,-385.24 918,-207 910.917,-199.234 902.097,-193.472 892.49,-189.227"/>
<polygon fill="none" stroke="black" points="893.659,-185.927 883.069,-185.607 891.148,-192.461 893.659,-185.927"/>
</g>
<!-- \\TrackableBehavior -->
<g id="node52" class="node"><title>\\TrackableBehavior</title>
<polygon fill="none" stroke="black" points="1158,-736 1028,-736 1028,-700 1158,-700 1158,-736"/>
<text text-anchor="middle" x="1093" y="-715.1" font-family="Courier,monospace" font-size="11.00">TrackableBehavior</text>
</g>
<!-- \\TrackableBehavior&#45;&gt;\\ModelBehavior -->
<g id="edge91" class="edge"><title>\\TrackableBehavior&#45;&gt;\\ModelBehavior</title>
<path fill="none" stroke="black" d="M1027.36,-712.719C1013.29,-708.606 999.75,-701.872 990,-691 844.8,-529.094 1065.73,-366.605 918,-207 910.86,-199.286 902.006,-193.556 892.38,-189.328"/>
<polygon fill="none" stroke="black" points="893.536,-186.023 882.945,-185.72 891.035,-192.561 893.536,-186.023"/>
</g>
<!-- \\YAExceptionRenderer -->
<g id="node53" class="node"><title>\\YAExceptionRenderer</title>
<polygon fill="none" stroke="black" points="1165,-628 1021,-628 1021,-592 1165,-592 1165,-628"/>
<text text-anchor="middle" x="1093" y="-607.1" font-family="Courier,monospace" font-size="11.00">YAExceptionRenderer</text>
</g>
<!-- \\ExceptionRenderer -->
<g id="node120" class="node"><title>\\ExceptionRenderer</title>
<ellipse fill="none" stroke="black" cx="800" cy="-126" rx="118.087" ry="18.3848"/>
<text text-anchor="middle" x="800" y="-122.4" font-family="Times Roman,serif" font-size="14.00" fill="gray">TEHxceptionRenderer</text>
</g>
<!-- \\YAExceptionRenderer&#45;&gt;\\ExceptionRenderer -->
<g id="edge93" class="edge"><title>\\YAExceptionRenderer&#45;&gt;\\ExceptionRenderer</title>
<path fill="none" stroke="black" d="M1020.34,-602.25C1008.9,-598.073 998.166,-591.94 990,-583 859.318,-439.927 1050.91,-294.002 918,-153 913.844,-148.591 909.128,-144.833 904.031,-141.635"/>
<polygon fill="none" stroke="black" points="905.577,-138.492 895.123,-136.766 902.219,-144.634 905.577,-138.492"/>
</g>
<!-- \\NetCommonsMigration -->
<g id="node54" class="node"><title>\\NetCommonsMigration</title>
<polygon fill="none" stroke="black" points="1165,-574 1021,-574 1021,-538 1165,-538 1165,-574"/>
<text text-anchor="middle" x="1093" y="-553.1" font-family="Courier,monospace" font-size="11.00">NetCommonsMigration</text>
</g>
<!-- \\CakeMigration -->
<g id="node122" class="node"><title>\\CakeMigration</title>
<ellipse fill="none" stroke="black" cx="800" cy="-72" rx="84.8528" ry="18.3848"/>
<text text-anchor="middle" x="800" y="-68.4" font-family="Times Roman,serif" font-size="14.00" fill="gray">\CakeMigration</text>
</g>
<!-- \\NetCommonsMigration&#45;&gt;\\CakeMigration -->
<g id="edge95" class="edge"><title>\\NetCommonsMigration&#45;&gt;\\CakeMigration</title>
<path fill="none" stroke="black" d="M1020.34,-548.25C1008.9,-544.073 998.166,-537.94 990,-529 859.318,-385.927 1050.91,-240.002 918,-99 910.44,-90.9799 901.025,-85.1126 890.833,-80.8528"/>
<polygon fill="none" stroke="black" points="891.879,-77.5089 881.284,-77.377 889.484,-84.0866 891.879,-77.5089"/>
</g>
<!-- \\LikesController -->
<g id="node55" class="node"><title>\\LikesController</title>
<polygon fill="none" stroke="black" points="1152,-2680 1034,-2680 1034,-2644 1152,-2644 1152,-2680"/>
<text text-anchor="middle" x="1093" y="-2659.1" font-family="Courier,monospace" font-size="11.00">LikesController</text>
</g>
<!-- \\LikesAppController -->
<g id="node56" class="node"><title>\\LikesAppController</title>
<polygon fill="none" stroke="black" points="869,-2680 731,-2680 731,-2644 869,-2644 869,-2680"/>
<text text-anchor="middle" x="800" y="-2659.1" font-family="Courier,monospace" font-size="11.00">LikesAppController</text>
</g>
<!-- \\LikesController&#45;&gt;\\LikesAppController -->
<g id="edge97" class="edge"><title>\\LikesController&#45;&gt;\\LikesAppController</title>
<path fill="none" stroke="black" d="M1033.71,-2662C989.293,-2662 928.065,-2662 879.421,-2662"/>
<polygon fill="none" stroke="black" points="879.243,-2658.5 869.243,-2662 879.243,-2665.5 879.243,-2658.5"/>
</g>
<!-- \\LikesAppController&#45;&gt;\\AppController -->
<g id="edge99" class="edge"><title>\\LikesAppController&#45;&gt;\\AppController</title>
<path fill="none" stroke="black" d="M730.928,-2659.84C712.783,-2655.95 694.747,-2648.54 682,-2635 532.982,-2476.68 507.333,-1738.18 503.58,-1584.18"/>
<polygon fill="none" stroke="black" points="507.078,-1584.04 503.347,-1574.12 500.08,-1584.2 507.078,-1584.04"/>
</g>
<!-- \\LikeHelper -->
<g id="node57" class="node"><title>\\LikeHelper</title>
<polygon fill="none" stroke="black" points="1135,-1546 1051,-1546 1051,-1510 1135,-1510 1135,-1546"/>
<text text-anchor="middle" x="1093" y="-1525.1" font-family="Courier,monospace" font-size="11.00">LikeHelper</text>
</g>
<!-- \\LikeHelper&#45;&gt;\\AppHelper -->
<g id="edge101" class="edge"><title>\\LikeHelper&#45;&gt;\\AppHelper</title>
<path fill="none" stroke="black" d="M1050.89,-1531.55C1030.83,-1535 1007.46,-1541.77 990,-1555 885.624,-1634.08 828.084,-1788.47 808.129,-1851.35"/>
<polygon fill="none" stroke="black" points="804.764,-1850.39 805.144,-1860.97 811.45,-1852.46 804.764,-1850.39"/>
</g>
<!-- \\Like -->
<g id="node58" class="node"><title>\\Like</title>
<polygon fill="none" stroke="black" points="1120,-3004 1066,-3004 1066,-2968 1120,-2968 1120,-3004"/>
<text text-anchor="middle" x="1093" y="-2983.1" font-family="Courier,monospace" font-size="11.00">Like</text>
</g>
<!-- \\LikesAppModel -->
<g id="node59" class="node"><title>\\LikesAppModel</title>
<polygon fill="none" stroke="black" points="852,-2950 748,-2950 748,-2914 852,-2914 852,-2950"/>
<text text-anchor="middle" x="800" y="-2929.1" font-family="Courier,monospace" font-size="11.00">LikesAppModel</text>
</g>
<!-- \\Like&#45;&gt;\\LikesAppModel -->
<g id="edge103" class="edge"><title>\\Like&#45;&gt;\\LikesAppModel</title>
<path fill="none" stroke="black" d="M1065.96,-2981.02C1019.9,-2972.53 925.102,-2955.06 862.03,-2943.43"/>
<polygon fill="none" stroke="black" points="862.661,-2939.99 852.193,-2941.62 861.392,-2946.87 862.661,-2939.99"/>
</g>
<!-- \\LikesAppModel&#45;&gt;\\AppModel -->
<g id="edge105" class="edge"><title>\\LikesAppModel&#45;&gt;\\AppModel</title>
<path fill="none" stroke="black" d="M747.927,-2936.73C691.623,-2941.85 602.737,-2949.93 548.944,-2954.82"/>
<polygon fill="none" stroke="black" points="548.316,-2951.37 538.673,-2955.76 548.949,-2958.34 548.316,-2951.37"/>
</g>
<!-- \\LikeBehavior -->
<g id="node60" class="node"><title>\\LikeBehavior</title>
<polygon fill="none" stroke="black" points="1142,-682 1044,-682 1044,-646 1142,-646 1142,-682"/>
<text text-anchor="middle" x="1093" y="-661.1" font-family="Courier,monospace" font-size="11.00">LikeBehavior</text>
</g>
<!-- \\LikeBehavior&#45;&gt;\\ModelBehavior -->
<g id="edge107" class="edge"><title>\\LikeBehavior&#45;&gt;\\ModelBehavior</title>
<path fill="none" stroke="black" d="M1043.82,-662.278C1024.47,-659.046 1003.65,-651.946 990,-637 859.318,-493.927 1050.91,-348.002 918,-207 910.736,-199.293 901.758,-193.575 892.025,-189.36"/>
<polygon fill="none" stroke="black" points="893.083,-186.019 882.491,-185.764 890.613,-192.568 893.083,-186.019"/>
</g>
<!-- \\LikesUser -->
<g id="node61" class="node"><title>\\LikesUser</title>
<polygon fill="none" stroke="black" points="1131,-2950 1055,-2950 1055,-2914 1131,-2914 1131,-2950"/>
<text text-anchor="middle" x="1093" y="-2929.1" font-family="Courier,monospace" font-size="11.00">LikesUser</text>
</g>
<!-- \\LikesUser&#45;&gt;\\LikesAppModel -->
<g id="edge109" class="edge"><title>\\LikesUser&#45;&gt;\\LikesAppModel</title>
<path fill="none" stroke="black" d="M1054.39,-2932C1005.43,-2932 920.39,-2932 862.218,-2932"/>
<polygon fill="none" stroke="black" points="862.044,-2928.5 852.044,-2932 862.044,-2935.5 862.044,-2928.5"/>
</g>
<!-- \\LikesSchema -->
<g id="node62" class="node"><title>\\LikesSchema</title>
<polygon fill="none" stroke="black" points="1138,-466 1048,-466 1048,-430 1138,-430 1138,-466"/>
<text text-anchor="middle" x="1093" y="-445.1" font-family="Courier,monospace" font-size="11.00">LikesSchema</text>
</g>
<!-- \\CakeSchema -->
<g id="node131" class="node"><title>\\CakeSchema</title>
<ellipse fill="none" stroke="black" cx="800" cy="-18" rx="77.0746" ry="18.3848"/>
<text text-anchor="middle" x="800" y="-14.4" font-family="Times Roman,serif" font-size="14.00" fill="gray">\CakeSchema</text>
</g>
<!-- \\LikesSchema&#45;&gt;\\CakeSchema -->
<g id="edge111" class="edge"><title>\\LikesSchema&#45;&gt;\\CakeSchema</title>
<path fill="none" stroke="black" d="M1090.86,-429.713C1082.37,-365.789 1045.04,-150.503 918,-45 907.886,-36.6012 895.67,-30.6949 882.982,-26.5644"/>
<polygon fill="none" stroke="black" points="883.793,-23.1556 873.214,-23.74 881.848,-29.8801 883.793,-23.1556"/>
</g>
<!-- \\Init -->
<g id="node63" class="node"><title>\\Init</title>
<polygon fill="none" stroke="black" points="1120,-520 1066,-520 1066,-484 1120,-484 1120,-520"/>
<text text-anchor="middle" x="1093" y="-499.1" font-family="Courier,monospace" font-size="11.00">Init</text>
</g>
<!-- \\Init&#45;&gt;\\CakeMigration -->
<g id="edge113" class="edge"><title>\\Init&#45;&gt;\\CakeMigration</title>
<path fill="none" stroke="black" d="M1065.78,-502.438C1042.33,-501.269 1009.32,-495.66 990,-475 873.795,-350.716 1036.14,-221.443 918,-99 910.347,-91.0685 900.877,-85.2535 890.656,-81.0209"/>
<polygon fill="none" stroke="black" points="891.684,-77.6706 881.089,-77.5632 889.304,-84.2538 891.684,-77.6706"/>
</g>
</g>
</svg>
