<?xml version="1.0" encoding="UTF-8" standalone="no"?>
<!DOCTYPE svg PUBLIC "-//W3C//DTD SVG 1.1//EN"
 "http://www.w3.org/Graphics/SVG/1.1/DTD/svg11.dtd">
<!-- Generated by graphviz version 2.26.3 (20100126.1600)
 -->
<!-- Title: G Pages: 1 -->
<svg width="1220pt" height="2780pt"
 viewBox="0.00 0.00 1220.00 2780.00" xmlns="http://www.w3.org/2000/svg" xmlns:xlink="http://www.w3.org/1999/xlink">
<g id="graph1" class="graph" transform="scale(1 1) rotate(0) translate(4 2776)">
<title>G</title>
<polygon fill="white" stroke="white" points="-4,5 -4,-2776 1217,-2776 1217,5 -4,5"/>
<g id="graph2" class="cluster"><title>cluster_Global</title>
<polyline fill="none" stroke="gray" points="177,-422 1192,-422 "/>
<path fill="none" stroke="gray" d="M1192,-422C1198,-422 1204,-428 1204,-434"/>
<polyline fill="none" stroke="gray" points="1204,-434 1204,-2752 "/>
<path fill="none" stroke="gray" d="M1204,-2752C1204,-2758 1198,-2764 1192,-2764"/>
<polyline fill="none" stroke="gray" points="1192,-2764 177,-2764 "/>
<path fill="none" stroke="gray" d="M177,-2764C171,-2764 165,-2758 165,-2752"/>
<polyline fill="none" stroke="gray" points="165,-2752 165,-434 "/>
<path fill="none" stroke="gray" d="M165,-434C165,-428 171,-422 177,-422"/>
<text text-anchor="middle" x="684.5" y="-2750.1" font-family="Times Roman,serif" font-size="11.00" fill="gray">Global</text>
</g>
<!-- \\AppController -->
<g id="node2" class="node"><title>\\AppController</title>
<polygon fill="none" stroke="black" points="555,-2005 451,-2005 451,-1969 555,-1969 555,-2005"/>
<text text-anchor="middle" x="503" y="-1984.1" font-family="Courier,monospace" font-size="11.00">AppController</text>
</g>
<!-- \\Controller -->
<g id="node61" class="node"><title>\\Controller</title>
<ellipse fill="none" stroke="black" cx="242" cy="-319" rx="63.1385" ry="18.3848"/>
<text text-anchor="middle" x="242" y="-315.4" font-family="Times Roman,serif" font-size="14.00" fill="gray">\Controller</text>
</g>
<!-- \\AppController&#45;&gt;\\Controller -->
<g id="edge3" class="edge"><title>\\AppController&#45;&gt;\\Controller</title>
<path fill="none" stroke="black" d="M450.951,-1989.12C430.81,-1987.05 409.42,-1980.72 396,-1965 280.756,-1829.98 414.375,-521.786 324,-369 316.206,-355.824 303.455,-345.667 290.306,-338.06"/>
<polygon fill="none" stroke="black" points="291.664,-334.817 281.195,-333.194 288.367,-340.992 291.664,-334.817"/>
</g>
<!-- \\AppModel -->
<g id="node3" class="node"><title>\\AppModel</title>
<polygon fill="none" stroke="black" points="538,-2707 468,-2707 468,-2671 538,-2671 538,-2707"/>
<text text-anchor="middle" x="503" y="-2686.1" font-family="Courier,monospace" font-size="11.00">AppModel</text>
</g>
<!-- \\NetCommonsAppModel -->
<g id="node47" class="node"><title>\\NetCommonsAppModel</title>
<polygon fill="none" stroke="black" points="311,-2707 173,-2707 173,-2671 311,-2671 311,-2707"/>
<text text-anchor="middle" x="242" y="-2686.1" font-family="Courier,monospace" font-size="11.00">NetCommonsAppModel</text>
</g>
<!-- \\AppModel&#45;&gt;\\NetCommonsAppModel -->
<g id="edge5" class="edge"><title>\\AppModel&#45;&gt;\\NetCommonsAppModel</title>
<path fill="none" stroke="black" d="M467.256,-2689C429.848,-2689 369.903,-2689 321.254,-2689"/>
<polygon fill="none" stroke="black" points="321.056,-2685.5 311.056,-2689 321.056,-2692.5 321.056,-2685.5"/>
</g>
<!-- \\DatabaseConfiguration -->
<g id="node4" class="node"><title>\\DatabaseConfiguration</title>
<polygon fill="none" stroke="black" points="879,-2680 721,-2680 721,-2644 879,-2644 879,-2680"/>
<text text-anchor="middle" x="800" y="-2659.1" font-family="Courier,monospace" font-size="11.00">DatabaseConfiguration</text>
</g>
<!-- \\DatabaseConfiguration&#45;&gt;\\AppModel -->
<g id="edge7" class="edge"><title>\\DatabaseConfiguration&#45;&gt;\\AppModel</title>
<path fill="none" stroke="black" d="M720.8,-2669.2C665.959,-2674.19 594.863,-2680.65 549.084,-2684.81"/>
<polygon fill="none" stroke="black" points="548.509,-2681.35 538.867,-2685.74 549.143,-2688.32 548.509,-2681.35"/>
</g>
<!-- \\AppHelper -->
<g id="node5" class="node"><title>\\AppHelper</title>
<polygon fill="none" stroke="black" points="838,-1681 762,-1681 762,-1645 838,-1645 838,-1681"/>
<text text-anchor="middle" x="800" y="-1660.1" font-family="Courier,monospace" font-size="11.00">AppHelper</text>
</g>
<!-- \\Helper -->
<g id="node65" class="node"><title>\\Helper</title>
<ellipse fill="none" stroke="black" cx="503" cy="-396" rx="43.8406" ry="18.3848"/>
<text text-anchor="middle" x="503" y="-392.4" font-family="Times Roman,serif" font-size="14.00" fill="gray">Helper</text>
</g>
<!-- \\AppHelper&#45;&gt;\\Helper -->
<g id="edge9" class="edge"><title>\\AppHelper&#45;&gt;\\Helper</title>
<path fill="none" stroke="black" d="M791.411,-1644.89C768.915,-1596.54 708.21,-1459.81 682,-1339 638.474,-1138.38 745.831,-571.93 610,-418 596.75,-402.984 576.226,-396.613 556.683,-394.309"/>
<polygon fill="none" stroke="black" points="556.857,-390.812 546.596,-393.451 556.264,-397.786 556.857,-390.812"/>
</g>
<!-- \\NetCommonsDeleteTest -->
<g id="node6" class="node"><title>\\NetCommonsDeleteTest</title>
<polygon fill="none" stroke="black" points="1169,-2572 1017,-2572 1017,-2536 1169,-2536 1169,-2572"/>
<text text-anchor="middle" x="1093" y="-2551.1" font-family="Courier,monospace" font-size="11.00">NetCommonsDeleteTest</text>
</g>
<!-- \\NetCommonsModelTestCase -->
<g id="node15" class="node"><title>\\NetCommonsModelTestCase</title>
<polygon fill="none" stroke="black" points="886,-2518 714,-2518 714,-2482 886,-2482 886,-2518"/>
<text text-anchor="middle" x="800" y="-2497.1" font-family="Courier,monospace" font-size="11.00">NetCommonsModelTestCase</text>
</g>
<!-- \\NetCommonsDeleteTest&#45;&gt;\\NetCommonsModelTestCase -->
<g id="edge11" class="edge"><title>\\NetCommonsDeleteTest&#45;&gt;\\NetCommonsModelTestCase</title>
<path fill="none" stroke="black" d="M1016.78,-2539.95C979.893,-2533.15 935.211,-2524.92 896.02,-2517.7"/>
<polygon fill="none" stroke="black" points="896.652,-2514.25 886.183,-2515.88 895.383,-2521.14 896.652,-2514.25"/>
</g>
<!-- \\NetCommonsConsoleTestCase -->
<g id="node7" class="node"><title>\\NetCommonsConsoleTestCase</title>
<polygon fill="none" stroke="black" points="892,-2626 708,-2626 708,-2590 892,-2590 892,-2626"/>
<text text-anchor="middle" x="800" y="-2605.1" font-family="Courier,monospace" font-size="11.00">NetCommonsConsoleTestCase</text>
</g>
<!-- \\NetCommonsCakeTestCase -->
<g id="node13" class="node"><title>\\NetCommonsCakeTestCase</title>
<polygon fill="none" stroke="black" points="585,-2545 421,-2545 421,-2509 585,-2509 585,-2545"/>
<text text-anchor="middle" x="503" y="-2524.1" font-family="Courier,monospace" font-size="11.00">NetCommonsCakeTestCase</text>
</g>
<!-- \\NetCommonsConsoleTestCase&#45;&gt;\\NetCommonsCakeTestCase -->
<g id="edge13" class="edge"><title>\\NetCommonsConsoleTestCase&#45;&gt;\\NetCommonsCakeTestCase</title>
<path fill="none" stroke="black" d="M717.936,-2589.98C705.852,-2587.11 693.579,-2584.07 682,-2581 644.303,-2571.01 602.565,-2558.51 568.882,-2548.05"/>
<polygon fill="none" stroke="black" points="569.742,-2544.65 559.154,-2545.01 567.658,-2551.33 569.742,-2544.65"/>
</g>
<!-- \\NetCommonsGetTest -->
<g id="node8" class="node"><title>\\NetCommonsGetTest</title>
<polygon fill="none" stroke="black" points="1158,-2518 1028,-2518 1028,-2482 1158,-2482 1158,-2518"/>
<text text-anchor="middle" x="1093" y="-2497.1" font-family="Courier,monospace" font-size="11.00">NetCommonsGetTest</text>
</g>
<!-- \\NetCommonsGetTest&#45;&gt;\\NetCommonsModelTestCase -->
<g id="edge15" class="edge"><title>\\NetCommonsGetTest&#45;&gt;\\NetCommonsModelTestCase</title>
<path fill="none" stroke="black" d="M1027.25,-2500C988.664,-2500 939.217,-2500 896.305,-2500"/>
<polygon fill="none" stroke="black" points="896.12,-2496.5 886.12,-2500 896.12,-2503.5 896.12,-2496.5"/>
</g>
<!-- \\NetCommonsHelperTestCase -->
<g id="node9" class="node"><title>\\NetCommonsHelperTestCase</title>
<polygon fill="none" stroke="black" points="889,-2572 711,-2572 711,-2536 889,-2536 889,-2572"/>
<text text-anchor="middle" x="800" y="-2551.1" font-family="Courier,monospace" font-size="11.00">NetCommonsHelperTestCase</text>
</g>
<!-- \\NetCommonsHelperTestCase&#45;&gt;\\NetCommonsCakeTestCase -->
<g id="edge17" class="edge"><title>\\NetCommonsHelperTestCase&#45;&gt;\\NetCommonsCakeTestCase</title>
<path fill="none" stroke="black" d="M710.487,-2545.86C674.267,-2542.57 632.456,-2538.77 595.9,-2535.45"/>
<polygon fill="none" stroke="black" points="596.013,-2531.94 585.737,-2534.52 595.379,-2538.91 596.013,-2531.94"/>
</g>
<!-- \\NetCommonsControllerBaseTestCase -->
<g id="node10" class="node"><title>\\NetCommonsControllerBaseTestCase</title>
<polygon fill="none" stroke="black" points="916,-1330 684,-1330 684,-1294 916,-1294 916,-1330"/>
<text text-anchor="middle" x="800" y="-1309.1" font-family="Courier,monospace" font-size="11.00">NetCommonsControllerBaseTestCase</text>
</g>
<!-- \\ControllerTestCase -->
<g id="node71" class="node"><title>\\ControllerTestCase</title>
<ellipse fill="none" stroke="black" cx="503" cy="-342" rx="106.773" ry="18.3848"/>
<text text-anchor="middle" x="503" y="-338.4" font-family="Times Roman,serif" font-size="14.00" fill="gray">\ControllerTestCase</text>
</g>
<!-- \\NetCommonsControllerBaseTestCase&#45;&gt;\\ControllerTestCase -->
<g id="edge19" class="edge"><title>\\NetCommonsControllerBaseTestCase&#45;&gt;\\ControllerTestCase</title>
<path fill="none" stroke="black" d="M794.091,-1293.72C775.185,-1234.63 715.47,-1043.22 682,-881 658.783,-768.473 686.764,-454.491 610,-369 606.16,-364.723 601.751,-361.078 596.958,-357.976"/>
<polygon fill="none" stroke="black" points="598.396,-354.77 587.957,-352.957 594.987,-360.884 598.396,-354.77"/>
</g>
<!-- \\NetCommonsValidateTest -->
<g id="node11" class="node"><title>\\NetCommonsValidateTest</title>
<polygon fill="none" stroke="black" points="1175,-2464 1011,-2464 1011,-2428 1175,-2428 1175,-2464"/>
<text text-anchor="middle" x="1093" y="-2443.1" font-family="Courier,monospace" font-size="11.00">NetCommonsValidateTest</text>
</g>
<!-- \\NetCommonsValidateTest&#45;&gt;\\NetCommonsModelTestCase -->
<g id="edge21" class="edge"><title>\\NetCommonsValidateTest&#45;&gt;\\NetCommonsModelTestCase</title>
<path fill="none" stroke="black" d="M1010.21,-2461.26C974.791,-2467.79 933.196,-2475.45 896.397,-2482.23"/>
<polygon fill="none" stroke="black" points="895.354,-2478.87 886.154,-2484.12 896.623,-2485.75 895.354,-2478.87"/>
</g>
<!-- \\NetCommonsTestSuite -->
<g id="node12" class="node"><title>\\NetCommonsTestSuite</title>
<polygon fill="none" stroke="black" points="1165,-1222 1021,-1222 1021,-1186 1165,-1186 1165,-1222"/>
<text text-anchor="middle" x="1093" y="-1201.1" font-family="Courier,monospace" font-size="11.00">NetCommonsTestSuite</text>
</g>
<!-- \\CakeTestSuite -->
<g id="node74" class="node"><title>\\CakeTestSuite</title>
<ellipse fill="none" stroke="black" cx="800" cy="-396" rx="84.1457" ry="18.3848"/>
<text text-anchor="middle" x="800" y="-392.4" font-family="Times Roman,serif" font-size="14.00" fill="gray">\CakeTestSuite</text>
</g>
<!-- \\NetCommonsTestSuite&#45;&gt;\\CakeTestSuite -->
<g id="edge23" class="edge"><title>\\NetCommonsTestSuite&#45;&gt;\\CakeTestSuite</title>
<path fill="none" stroke="black" d="M1020.33,-1196.92C1008.74,-1192.69 997.962,-1186.37 990,-1177 880.272,-1047.91 1032.31,-543.054 918,-418 911.146,-410.501 902.623,-405.061 893.316,-401.167"/>
<polygon fill="none" stroke="black" points="894.374,-397.828 883.78,-397.769 892.025,-404.422 894.374,-397.828"/>
</g>
<!-- \\CakeTestCase -->
<g id="node76" class="node"><title>\\CakeTestCase</title>
<ellipse fill="none" stroke="black" cx="242" cy="-396" rx="82.0244" ry="18.3848"/>
<text text-anchor="middle" x="242" y="-392.4" font-family="Times Roman,serif" font-size="14.00" fill="gray">\CakeTestCase</text>
</g>
<!-- \\NetCommonsCakeTestCase&#45;&gt;\\CakeTestCase -->
<g id="edge25" class="edge"><title>\\NetCommonsCakeTestCase&#45;&gt;\\CakeTestCase</title>
<path fill="none" stroke="black" d="M498.025,-2508.55C480.403,-2442.28 420.684,-2209.88 396,-2014 373.806,-1837.88 435.188,-556.377 324,-418 322.304,-415.889 320.428,-413.967 318.408,-412.219"/>
<polygon fill="none" stroke="black" points="320.17,-409.18 309.974,-406.301 316.15,-414.91 320.17,-409.18"/>
</g>
<!-- \\NetCommonsSaveTest -->
<g id="node14" class="node"><title>\\NetCommonsSaveTest</title>
<polygon fill="none" stroke="black" points="1162,-2626 1024,-2626 1024,-2590 1162,-2590 1162,-2626"/>
<text text-anchor="middle" x="1093" y="-2605.1" font-family="Courier,monospace" font-size="11.00">NetCommonsSaveTest</text>
</g>
<!-- \\NetCommonsSaveTest&#45;&gt;\\NetCommonsModelTestCase -->
<g id="edge27" class="edge"><title>\\NetCommonsSaveTest&#45;&gt;\\NetCommonsModelTestCase</title>
<path fill="none" stroke="black" d="M1023.8,-2593.82C1012.23,-2590.34 1000.57,-2586.11 990,-2581 953.981,-2563.6 954.288,-2543.83 918,-2527 910.962,-2523.74 903.501,-2520.85 895.884,-2518.31"/>
<polygon fill="none" stroke="black" points="896.762,-2514.91 886.173,-2515.26 894.666,-2521.59 896.762,-2514.91"/>
</g>
<!-- \\NetCommonsModelTestCase&#45;&gt;\\NetCommonsCakeTestCase -->
<g id="edge29" class="edge"><title>\\NetCommonsModelTestCase&#45;&gt;\\NetCommonsCakeTestCase</title>
<path fill="none" stroke="black" d="M713.696,-2507.85C676.671,-2511.21 633.35,-2515.15 595.65,-2518.58"/>
<polygon fill="none" stroke="black" points="595.328,-2515.09 585.686,-2519.48 595.962,-2522.06 595.328,-2515.09"/>
</g>
<!-- \\NetCommonsControllerTestCase -->
<g id="node16" class="node"><title>\\NetCommonsControllerTestCase</title>
<polygon fill="none" stroke="black" points="1196,-1330 990,-1330 990,-1294 1196,-1294 1196,-1330"/>
<text text-anchor="middle" x="1093" y="-1309.1" font-family="Courier,monospace" font-size="11.00">NetCommonsControllerTestCase</text>
</g>
<!-- \\NetCommonsControllerTestCase&#45;&gt;\\NetCommonsControllerBaseTestCase -->
<g id="edge31" class="edge"><title>\\NetCommonsControllerTestCase&#45;&gt;\\NetCommonsControllerBaseTestCase</title>
<path fill="none" stroke="black" d="M989.699,-1312C969.381,-1312 947.845,-1312 926.858,-1312"/>
<polygon fill="none" stroke="black" points="926.606,-1308.5 916.606,-1312 926.606,-1315.5 926.606,-1308.5"/>
</g>
<!-- \\NetCommonsAppController -->
<g id="node17" class="node"><title>\\NetCommonsAppController</title>
<polygon fill="none" stroke="black" points="886,-872 714,-872 714,-836 886,-836 886,-872"/>
<text text-anchor="middle" x="800" y="-851.1" font-family="Courier,monospace" font-size="11.00">NetCommonsAppController</text>
</g>
<!-- \\NetCommonsAppController&#45;&gt;\\Controller -->
<g id="edge33" class="edge"><title>\\NetCommonsAppController&#45;&gt;\\Controller</title>
<path fill="none" stroke="black" d="M713.891,-851.057C701.89,-847.154 690.708,-841.117 682,-832 521.766,-664.229 784.994,-467.312 610,-315 520.107,-236.758 365.849,-274.654 288.74,-300.987"/>
<polygon fill="none" stroke="black" points="287.567,-297.69 279.281,-304.292 289.876,-304.298 287.567,-297.69"/>
</g>
<!-- \\AssetComponent -->
<g id="node18" class="node"><title>\\AssetComponent</title>
<polygon fill="none" stroke="black" points="1148,-1060 1038,-1060 1038,-1024 1148,-1024 1148,-1060"/>
<text text-anchor="middle" x="1093" y="-1039.1" font-family="Courier,monospace" font-size="11.00">AssetComponent</text>
</g>
<!-- \\Component -->
<g id="node82" class="node"><title>\\Component</title>
<ellipse fill="none" stroke="black" cx="800" cy="-342" rx="70.9184" ry="18.3848"/>
<text text-anchor="middle" x="800" y="-338.4" font-family="Times Roman,serif" font-size="14.00" fill="gray">\Component</text>
</g>
<!-- \\AssetComponent&#45;&gt;\\Component -->
<g id="edge35" class="edge"><title>\\AssetComponent&#45;&gt;\\Component</title>
<path fill="none" stroke="black" d="M1037.26,-1039.5C1019.72,-1035.88 1001.85,-1028.71 990,-1015 801.099,-796.429 1110.31,-584.576 918,-369 908.225,-358.042 894.994,-351.054 880.924,-346.686"/>
<polygon fill="none" stroke="black" points="881.644,-343.256 871.08,-344.064 879.842,-350.02 881.644,-343.256"/>
</g>
<!-- \\NetCommonsTimeComponent -->
<g id="node19" class="node"><title>\\NetCommonsTimeComponent</title>
<polygon fill="none" stroke="black" points="1179,-1006 1007,-1006 1007,-970 1179,-970 1179,-1006"/>
<text text-anchor="middle" x="1093" y="-985.1" font-family="Courier,monospace" font-size="11.00">NetCommonsTimeComponent</text>
</g>
<!-- \\NetCommonsTimeComponent&#45;&gt;\\Component -->
<g id="edge37" class="edge"><title>\\NetCommonsTimeComponent&#45;&gt;\\Component</title>
<path fill="none" stroke="black" d="M1006.66,-974.396C1000.43,-970.834 994.742,-966.431 990,-961 815.683,-761.337 1095.43,-565.899 918,-369 908.227,-358.155 895.069,-351.207 881.082,-346.841"/>
<polygon fill="none" stroke="black" points="881.864,-343.426 871.298,-344.214 880.049,-350.187 881.864,-343.426"/>
</g>
<!-- \\PermissionComponent -->
<g id="node20" class="node"><title>\\PermissionComponent</title>
<polygon fill="none" stroke="black" points="1165,-1168 1021,-1168 1021,-1132 1165,-1132 1165,-1168"/>
<text text-anchor="middle" x="1093" y="-1147.1" font-family="Courier,monospace" font-size="11.00">PermissionComponent</text>
</g>
<!-- \\PermissionComponent&#45;&gt;\\Component -->
<g id="edge39" class="edge"><title>\\PermissionComponent&#45;&gt;\\Component</title>
<path fill="none" stroke="black" d="M1020.33,-1142.91C1008.74,-1138.69 997.965,-1132.36 990,-1123 880.948,-994.787 1029.05,-495.484 918,-369 908.311,-357.965 895.121,-350.943 881.061,-346.564"/>
<polygon fill="none" stroke="black" points="881.786,-343.135 871.222,-343.939 879.981,-349.899 881.786,-343.135"/>
</g>
<!-- \\NetCommonsComponent -->
<g id="node21" class="node"><title>\\NetCommonsComponent</title>
<polygon fill="none" stroke="black" points="1165,-1114 1021,-1114 1021,-1078 1165,-1078 1165,-1114"/>
<text text-anchor="middle" x="1093" y="-1093.1" font-family="Courier,monospace" font-size="11.00">NetCommonsComponent</text>
</g>
<!-- \\NetCommonsComponent&#45;&gt;\\Component -->
<g id="edge41" class="edge"><title>\\NetCommonsComponent&#45;&gt;\\Component</title>
<path fill="none" stroke="black" d="M1020.39,-1088.86C1008.79,-1084.64 997.999,-1078.34 990,-1069 786.502,-831.507 1125.2,-603.266 918,-369 908.271,-358.001 895.062,-350.994 880.998,-346.62"/>
<polygon fill="none" stroke="black" points="881.72,-343.191 871.156,-343.996 879.917,-349.955 881.72,-343.191"/>
</g>
<!-- \\NetCommonsController -->
<g id="node22" class="node"><title>\\NetCommonsController</title>
<polygon fill="none" stroke="black" points="1169,-1276 1017,-1276 1017,-1240 1169,-1240 1169,-1276"/>
<text text-anchor="middle" x="1093" y="-1255.1" font-family="Courier,monospace" font-size="11.00">NetCommonsController</text>
</g>
<!-- \\NetCommonsController&#45;&gt;\\NetCommonsAppController -->
<g id="edge43" class="edge"><title>\\NetCommonsController&#45;&gt;\\NetCommonsAppController</title>
<path fill="none" stroke="black" d="M1016.84,-1246.03C1007.17,-1242.29 997.905,-1237.39 990,-1231 873.468,-1136.73 821.869,-952.495 805.826,-882.186"/>
<polygon fill="none" stroke="black" points="809.213,-881.292 803.632,-872.286 802.378,-882.807 809.213,-881.292"/>
</g>
<!-- \\NetCommonsUrl -->
<g id="node23" class="node"><title>\\NetCommonsUrl</title>
<polygon fill="none" stroke="black" points="1145,-2140 1041,-2140 1041,-2104 1145,-2104 1145,-2140"/>
<text text-anchor="middle" x="1093" y="-2119.1" font-family="Courier,monospace" font-size="11.00">NetCommonsUrl</text>
</g>
<!-- \\NetCommonsTime -->
<g id="node24" class="node"><title>\\NetCommonsTime</title>
<polygon fill="none" stroke="black" points="1148,-2086 1038,-2086 1038,-2050 1148,-2050 1148,-2086"/>
<text text-anchor="middle" x="1093" y="-2065.1" font-family="Courier,monospace" font-size="11.00">NetCommonsTime</text>
</g>
<!-- \\CurrentBase -->
<g id="node25" class="node"><title>\\CurrentBase</title>
<polygon fill="none" stroke="black" points="845,-2356 755,-2356 755,-2320 845,-2320 845,-2356"/>
<text text-anchor="middle" x="800" y="-2335.1" font-family="Courier,monospace" font-size="11.00">CurrentBase</text>
</g>
<!-- \\Current -->
<g id="node26" class="node"><title>\\Current</title>
<polygon fill="none" stroke="black" points="1125,-2356 1061,-2356 1061,-2320 1125,-2320 1125,-2356"/>
<text text-anchor="middle" x="1093" y="-2335.1" font-family="Courier,monospace" font-size="11.00">Current</text>
</g>
<!-- \\Current&#45;&gt;\\CurrentBase -->
<g id="edge45" class="edge"><title>\\Current&#45;&gt;\\CurrentBase</title>
<path fill="none" stroke="black" d="M1060.81,-2338C1011.48,-2338 916.554,-2338 855.846,-2338"/>
<polygon fill="none" stroke="black" points="855.669,-2334.5 845.669,-2338 855.669,-2341.5 855.669,-2334.5"/>
</g>
<!-- \\CurrentSystem -->
<g id="node27" class="node"><title>\\CurrentSystem</title>
<polygon fill="none" stroke="black" points="1145,-1978 1041,-1978 1041,-1942 1145,-1942 1145,-1978"/>
<text text-anchor="middle" x="1093" y="-1957.1" font-family="Courier,monospace" font-size="11.00">CurrentSystem</text>
</g>
<!-- \\CurrentPage -->
<g id="node28" class="node"><title>\\CurrentPage</title>
<polygon fill="none" stroke="black" points="1138,-1924 1048,-1924 1048,-1888 1138,-1888 1138,-1924"/>
<text text-anchor="middle" x="1093" y="-1903.1" font-family="Courier,monospace" font-size="11.00">CurrentPage</text>
</g>
<!-- \\CurrentFrame -->
<g id="node29" class="node"><title>\\CurrentFrame</title>
<polygon fill="none" stroke="black" points="1142,-1870 1044,-1870 1044,-1834 1142,-1834 1142,-1870"/>
<text text-anchor="middle" x="1093" y="-1849.1" font-family="Courier,monospace" font-size="11.00">CurrentFrame</text>
</g>
<!-- \\TokenHelper -->
<g id="node30" class="node"><title>\\TokenHelper</title>
<polygon fill="none" stroke="black" points="1138,-898 1048,-898 1048,-862 1138,-862 1138,-898"/>
<text text-anchor="middle" x="1093" y="-877.1" font-family="Courier,monospace" font-size="11.00">TokenHelper</text>
</g>
<!-- \\FormHelper -->
<g id="node89" class="node"><title>\\FormHelper</title>
<ellipse fill="none" stroke="black" cx="800" cy="-288" rx="70.9184" ry="18.3848"/>
<text text-anchor="middle" x="800" y="-284.4" font-family="Times Roman,serif" font-size="14.00" fill="gray">\FormHelper</text>
</g>
<!-- \\TokenHelper&#45;&gt;\\FormHelper -->
<g id="edge47" class="edge"><title>\\TokenHelper&#45;&gt;\\FormHelper</title>
<path fill="none" stroke="black" d="M1047.28,-879.062C1026.87,-876.179 1004.26,-869.138 990,-853 830.252,-672.227 1080.57,-493.24 918,-315 908.162,-304.213 894.974,-297.293 880.979,-292.934"/>
<polygon fill="none" stroke="black" points="881.757,-289.519 871.192,-290.31 879.944,-296.281 881.757,-289.519"/>
</g>
<!-- \\SingletonViewBlockHtmlHelper -->
<g id="node31" class="node"><title>\\SingletonViewBlockHtmlHelper</title>
<polygon fill="none" stroke="black" points="1196,-790 990,-790 990,-754 1196,-754 1196,-790"/>
<text text-anchor="middle" x="1093" y="-769.1" font-family="Courier,monospace" font-size="11.00">SingletonViewBlockHtmlHelper</text>
</g>
<!-- \\HtmlHelper -->
<g id="node91" class="node"><title>\\HtmlHelper</title>
<ellipse fill="none" stroke="black" cx="800" cy="-234" rx="67.1751" ry="18.3848"/>
<text text-anchor="middle" x="800" y="-230.4" font-family="Times Roman,serif" font-size="14.00" fill="gray">HtmlHelper</text>
</g>
<!-- \\SingletonViewBlockHtmlHelper&#45;&gt;\\HtmlHelper -->
<g id="edge49" class="edge"><title>\\SingletonViewBlockHtmlHelper&#45;&gt;\\HtmlHelper</title>
<path fill="none" stroke="black" d="M999.844,-753.806C996.274,-751.224 992.962,-748.303 990,-745 844.8,-583.094 1065.73,-420.605 918,-261 907.227,-249.36 892.55,-242.237 877.208,-237.979"/>
<polygon fill="none" stroke="black" points="877.602,-234.475 867.065,-235.575 875.988,-241.287 877.602,-234.475"/>
</g>
<!-- \\FormInputHelper -->
<g id="node32" class="node"><title>\\FormInputHelper</title>
<polygon fill="none" stroke="black" points="1152,-2248 1034,-2248 1034,-2212 1152,-2212 1152,-2248"/>
<text text-anchor="middle" x="1093" y="-2227.1" font-family="Courier,monospace" font-size="11.00">FormInputHelper</text>
</g>
<!-- \\FormInputHelper&#45;&gt;\\AppHelper -->
<g id="edge51" class="edge"><title>\\FormInputHelper&#45;&gt;\\AppHelper</title>
<path fill="none" stroke="black" d="M1033.78,-2225.14C1017.87,-2221.2 1001.82,-2214.45 990,-2203 909.099,-2124.62 954.833,-2066.45 918,-1960 883.145,-1859.27 834.148,-1742.46 811.865,-1690.43"/>
<polygon fill="none" stroke="black" points="815.063,-1689.01 807.901,-1681.2 808.631,-1691.77 815.063,-1689.01"/>
</g>
<!-- \\WizardHelper -->
<g id="node33" class="node"><title>\\WizardHelper</title>
<polygon fill="none" stroke="black" points="1142,-2194 1044,-2194 1044,-2158 1142,-2158 1142,-2194"/>
<text text-anchor="middle" x="1093" y="-2173.1" font-family="Courier,monospace" font-size="11.00">WizardHelper</text>
</g>
<!-- \\WizardHelper&#45;&gt;\\AppHelper -->
<g id="edge53" class="edge"><title>\\WizardHelper&#45;&gt;\\AppHelper</title>
<path fill="none" stroke="black" d="M1043.9,-2172.64C1025.13,-2169.1 1004.72,-2162.21 990,-2149 923.113,-2088.95 950.596,-2043.77 918,-1960 879.333,-1860.63 832.218,-1743.07 811.133,-1690.64"/>
<polygon fill="none" stroke="black" points="814.253,-1689.02 807.273,-1681.04 807.759,-1691.63 814.253,-1689.02"/>
</g>
<!-- \\DisplayNumberHelper -->
<g id="node34" class="node"><title>\\DisplayNumberHelper</title>
<polygon fill="none" stroke="black" points="1165,-2032 1021,-2032 1021,-1996 1165,-1996 1165,-2032"/>
<text text-anchor="middle" x="1093" y="-2011.1" font-family="Courier,monospace" font-size="11.00">DisplayNumberHelper</text>
</g>
<!-- \\DisplayNumberHelper&#45;&gt;\\AppHelper -->
<g id="edge55" class="edge"><title>\\DisplayNumberHelper&#45;&gt;\\AppHelper</title>
<path fill="none" stroke="black" d="M1020.4,-2002.72C1009.54,-1998.91 998.988,-1993.81 990,-1987 885.624,-1907.92 828.084,-1753.53 808.129,-1690.65"/>
<polygon fill="none" stroke="black" points="811.45,-1689.54 805.144,-1681.03 804.764,-1691.61 811.45,-1689.54"/>
</g>
<!-- \\MessageFlashHelper -->
<g id="node35" class="node"><title>\\MessageFlashHelper</title>
<polygon fill="none" stroke="black" points="1162,-1816 1024,-1816 1024,-1780 1162,-1780 1162,-1816"/>
<text text-anchor="middle" x="1093" y="-1795.1" font-family="Courier,monospace" font-size="11.00">MessageFlashHelper</text>
</g>
<!-- \\MessageFlashHelper&#45;&gt;\\AppHelper -->
<g id="edge57" class="edge"><title>\\MessageFlashHelper&#45;&gt;\\AppHelper</title>
<path fill="none" stroke="black" d="M1023.76,-1782.51C1012.32,-1779.2 1000.7,-1775.36 990,-1771 933.066,-1747.82 872.097,-1710.73 835.004,-1686.61"/>
<polygon fill="none" stroke="black" points="836.839,-1683.63 826.557,-1681.07 833.002,-1689.48 836.839,-1683.63"/>
</g>
<!-- \\DateHelper -->
<g id="node36" class="node"><title>\\DateHelper</title>
<polygon fill="none" stroke="black" points="1135,-1762 1051,-1762 1051,-1726 1135,-1726 1135,-1762"/>
<text text-anchor="middle" x="1093" y="-1741.1" font-family="Courier,monospace" font-size="11.00">DateHelper</text>
</g>
<!-- \\DateHelper&#45;&gt;\\AppHelper -->
<g id="edge59" class="edge"><title>\\DateHelper&#45;&gt;\\AppHelper</title>
<path fill="none" stroke="black" d="M1050.85,-1733.16C1032.18,-1728.31 1009.97,-1722.46 990,-1717 941.716,-1703.81 886.728,-1688.11 848.375,-1677.04"/>
<polygon fill="none" stroke="black" points="849.087,-1673.61 838.508,-1674.2 847.145,-1680.33 849.087,-1673.61"/>
</g>
<!-- \\SnsButtonHelper -->
<g id="node37" class="node"><title>\\SnsButtonHelper</title>
<polygon fill="none" stroke="black" points="1152,-1708 1034,-1708 1034,-1672 1152,-1672 1152,-1708"/>
<text text-anchor="middle" x="1093" y="-1687.1" font-family="Courier,monospace" font-size="11.00">SnsButtonHelper</text>
</g>
<!-- \\SnsButtonHelper&#45;&gt;\\AppHelper -->
<g id="edge61" class="edge"><title>\\SnsButtonHelper&#45;&gt;\\AppHelper</title>
<path fill="none" stroke="black" d="M1033.71,-1684.54C979.266,-1679.52 899.563,-1672.17 848.738,-1667.49"/>
<polygon fill="none" stroke="black" points="848.942,-1664 838.663,-1666.56 848.299,-1670.97 848.942,-1664"/>
</g>
<!-- \\BackToHelper -->
<g id="node38" class="node"><title>\\BackToHelper</title>
<polygon fill="none" stroke="black" points="1142,-1654 1044,-1654 1044,-1618 1142,-1618 1142,-1654"/>
<text text-anchor="middle" x="1093" y="-1633.1" font-family="Courier,monospace" font-size="11.00">BackToHelper</text>
</g>
<!-- \\BackToHelper&#45;&gt;\\AppHelper -->
<g id="edge63" class="edge"><title>\\BackToHelper&#45;&gt;\\AppHelper</title>
<path fill="none" stroke="black" d="M1043.96,-1640.52C989.78,-1645.51 903.056,-1653.5 848.925,-1658.49"/>
<polygon fill="none" stroke="black" points="848.519,-1655.01 838.882,-1659.42 849.161,-1661.98 848.519,-1655.01"/>
</g>
<!-- \\NetCommonsHtmlHelper -->
<g id="node39" class="node"><title>\\NetCommonsHtmlHelper</title>
<polygon fill="none" stroke="black" points="1169,-1600 1017,-1600 1017,-1564 1169,-1564 1169,-1600"/>
<text text-anchor="middle" x="1093" y="-1579.1" font-family="Courier,monospace" font-size="11.00">NetCommonsHtmlHelper</text>
</g>
<!-- \\NetCommonsHtmlHelper&#45;&gt;\\AppHelper -->
<g id="edge65" class="edge"><title>\\NetCommonsHtmlHelper&#45;&gt;\\AppHelper</title>
<path fill="none" stroke="black" d="M1023.41,-1600.03C1012.23,-1602.99 1000.79,-1606.05 990,-1609 941.716,-1622.19 886.728,-1637.89 848.375,-1648.96"/>
<polygon fill="none" stroke="black" points="847.145,-1645.67 838.508,-1651.8 849.087,-1652.39 847.145,-1645.67"/>
</g>
<!-- \\ButtonHelper -->
<g id="node40" class="node"><title>\\ButtonHelper</title>
<polygon fill="none" stroke="black" points="1142,-844 1044,-844 1044,-808 1142,-808 1142,-844"/>
<text text-anchor="middle" x="1093" y="-823.1" font-family="Courier,monospace" font-size="11.00">ButtonHelper</text>
</g>
<!-- \\ButtonHelper&#45;&gt;\\FormHelper -->
<g id="edge67" class="edge"><title>\\ButtonHelper&#45;&gt;\\FormHelper</title>
<path fill="none" stroke="black" d="M1043.96,-824.443C1024.5,-821.253 1003.58,-814.139 990,-799 844.8,-637.094 1065.73,-474.605 918,-315 908.083,-304.286 894.859,-297.398 880.853,-293.049"/>
<polygon fill="none" stroke="black" points="881.628,-289.634 871.063,-290.429 879.818,-296.396 881.628,-289.634"/>
</g>
<!-- \\ComposerHelper -->
<g id="node41" class="node"><title>\\ComposerHelper</title>
<polygon fill="none" stroke="black" points="1148,-1546 1038,-1546 1038,-1510 1148,-1510 1148,-1546"/>
<text text-anchor="middle" x="1093" y="-1525.1" font-family="Courier,monospace" font-size="11.00">ComposerHelper</text>
</g>
<!-- \\ComposerHelper&#45;&gt;\\AppHelper -->
<g id="edge69" class="edge"><title>\\ComposerHelper&#45;&gt;\\AppHelper</title>
<path fill="none" stroke="black" d="M1037.34,-1539.77C1021.75,-1543.82 1004.98,-1548.9 990,-1555 933.066,-1578.18 872.097,-1615.27 835.004,-1639.39"/>
<polygon fill="none" stroke="black" points="833.002,-1636.52 826.557,-1644.93 836.839,-1642.37 833.002,-1636.52"/>
</g>
<!-- \\LinkButtonHelper -->
<g id="node42" class="node"><title>\\LinkButtonHelper</title>
<polygon fill="none" stroke="black" points="1155,-952 1031,-952 1031,-916 1155,-916 1155,-952"/>
<text text-anchor="middle" x="1093" y="-931.1" font-family="Courier,monospace" font-size="11.00">LinkButtonHelper</text>
</g>
<!-- \\LinkButtonHelper&#45;&gt;\\FormHelper -->
<g id="edge71" class="edge"><title>\\LinkButtonHelper&#45;&gt;\\FormHelper</title>
<path fill="none" stroke="black" d="M1030.36,-929.797C1015.16,-925.79 1000.33,-918.837 990,-907 815.683,-707.337 1095.43,-511.899 918,-315 908.227,-304.155 895.069,-297.207 881.082,-292.841"/>
<polygon fill="none" stroke="black" points="881.864,-289.426 871.298,-290.214 880.049,-296.187 881.864,-289.426"/>
</g>
<!-- \\NetCommonsTimeHelper -->
<g id="node43" class="node"><title>\\NetCommonsTimeHelper</title>
<polygon fill="none" stroke="black" points="1169,-1492 1017,-1492 1017,-1456 1169,-1456 1169,-1492"/>
<text text-anchor="middle" x="1093" y="-1471.1" font-family="Courier,monospace" font-size="11.00">NetCommonsTimeHelper</text>
</g>
<!-- \\NetCommonsTimeHelper&#45;&gt;\\AppHelper -->
<g id="edge73" class="edge"><title>\\NetCommonsTimeHelper&#45;&gt;\\AppHelper</title>
<path fill="none" stroke="black" d="M1016.98,-1489.73C1007.65,-1492.87 998.439,-1496.59 990,-1501 921.41,-1536.81 856.097,-1601.44 822.838,-1637.3"/>
<polygon fill="none" stroke="black" points="820.033,-1635.17 815.854,-1644.91 825.192,-1639.91 820.033,-1635.17"/>
</g>
<!-- \\NetCommonsFormHelper -->
<g id="node44" class="node"><title>\\NetCommonsFormHelper</title>
<polygon fill="none" stroke="black" points="1169,-1438 1017,-1438 1017,-1402 1169,-1402 1169,-1438"/>
<text text-anchor="middle" x="1093" y="-1417.1" font-family="Courier,monospace" font-size="11.00">NetCommonsFormHelper</text>
</g>
<!-- \\NetCommonsFormHelper&#45;&gt;\\AppHelper -->
<g id="edge75" class="edge"><title>\\NetCommonsFormHelper&#45;&gt;\\AppHelper</title>
<path fill="none" stroke="black" d="M1016.88,-1434.4C1007.46,-1437.76 998.259,-1441.9 990,-1447 909.876,-1496.44 844.727,-1590.19 815.946,-1636.19"/>
<polygon fill="none" stroke="black" points="812.792,-1634.64 810.523,-1644.98 818.75,-1638.31 812.792,-1634.64"/>
</g>
<!-- \\TitleIconHelper -->
<g id="node45" class="node"><title>\\TitleIconHelper</title>
<polygon fill="none" stroke="black" points="1152,-1384 1034,-1384 1034,-1348 1152,-1348 1152,-1384"/>
<text text-anchor="middle" x="1093" y="-1363.1" font-family="Courier,monospace" font-size="11.00">TitleIconHelper</text>
</g>
<!-- \\TitleIconHelper&#45;&gt;\\AppHelper -->
<g id="edge77" class="edge"><title>\\TitleIconHelper&#45;&gt;\\AppHelper</title>
<path fill="none" stroke="black" d="M1033.8,-1374.05C1018.6,-1378.05 1002.91,-1384.04 990,-1393 898.034,-1456.86 835.79,-1580.47 811.457,-1635.46"/>
<polygon fill="none" stroke="black" points="808.13,-1634.34 807.356,-1644.9 814.551,-1637.13 808.13,-1634.34"/>
</g>
<!-- \\DatetimePickerHelper -->
<g id="node46" class="node"><title>\\DatetimePickerHelper</title>
<polygon fill="none" stroke="black" points="1169,-2302 1017,-2302 1017,-2266 1169,-2266 1169,-2302"/>
<text text-anchor="middle" x="1093" y="-2281.1" font-family="Courier,monospace" font-size="11.00">DatetimePickerHelper</text>
</g>
<!-- \\DatetimePickerHelper&#45;&gt;\\AppHelper -->
<g id="edge79" class="edge"><title>\\DatetimePickerHelper&#45;&gt;\\AppHelper</title>
<path fill="none" stroke="black" d="M1016.94,-2274.26C1006.91,-2270.22 997.511,-2264.65 990,-2257 894.852,-2160.07 959.176,-2089.43 918,-1960 885.685,-1858.42 835.416,-1742.04 812.34,-1690.28"/>
<polygon fill="none" stroke="black" points="815.51,-1688.79 808.229,-1681.1 809.121,-1691.65 815.51,-1688.79"/>
</g>
<!-- \\Model -->
<g id="node108" class="node"><title>\\Model</title>
<ellipse fill="none" stroke="black" cx="44" cy="-2689" rx="43.8406" ry="18.3848"/>
<text text-anchor="middle" x="44" y="-2685.4" font-family="Times Roman,serif" font-size="14.00" fill="gray">\Model</text>
</g>
<!-- \\NetCommonsAppModel&#45;&gt;\\Model -->
<g id="edge81" class="edge"><title>\\NetCommonsAppModel&#45;&gt;\\Model</title>
<path fill="none" stroke="black" d="M172.749,-2689C148.379,-2689 121.357,-2689 98.3871,-2689"/>
<polygon fill="none" stroke="black" points="98.1425,-2685.5 88.1425,-2689 98.1424,-2692.5 98.1425,-2685.5"/>
</g>
<!-- \\OriginalKeyBehavior -->
<g id="node48" class="node"><title>\\OriginalKeyBehavior</title>
<polygon fill="none" stroke="black" points="1165,-682 1021,-682 1021,-646 1165,-646 1165,-682"/>
<text text-anchor="middle" x="1093" y="-661.1" font-family="Courier,monospace" font-size="11.00">OriginalKeyBehavior</text>
</g>
<!-- \\ModelBehavior -->
<g id="node110" class="node"><title>\\ModelBehavior</title>
<ellipse fill="none" stroke="black" cx="800" cy="-180" rx="86.9741" ry="18.3848"/>
<text text-anchor="middle" x="800" y="-176.4" font-family="Times Roman,serif" font-size="14.00" fill="gray">\ModelBehavior</text>
</g>
<!-- \\OriginalKeyBehavior&#45;&gt;\\ModelBehavior -->
<g id="edge83" class="edge"><title>\\OriginalKeyBehavior&#45;&gt;\\ModelBehavior</title>
<path fill="none" stroke="black" d="M1020.34,-656.25C1008.9,-652.073 998.166,-645.94 990,-637 859.318,-493.927 1050.91,-348.002 918,-207 910.736,-199.293 901.758,-193.575 892.025,-189.36"/>
<polygon fill="none" stroke="black" points="893.083,-186.019 882.491,-185.764 890.613,-192.568 893.083,-186.019"/>
</g>
<!-- \\TrackableBehavior -->
<g id="node49" class="node"><title>\\TrackableBehavior</title>
<polygon fill="none" stroke="black" points="1158,-736 1028,-736 1028,-700 1158,-700 1158,-736"/>
<text text-anchor="middle" x="1093" y="-715.1" font-family="Courier,monospace" font-size="11.00">TrackableBehavior</text>
</g>
<!-- \\TrackableBehavior&#45;&gt;\\ModelBehavior -->
<g id="edge85" class="edge"><title>\\TrackableBehavior&#45;&gt;\\ModelBehavior</title>
<path fill="none" stroke="black" d="M1027.36,-712.719C1013.29,-708.606 999.75,-701.872 990,-691 844.8,-529.094 1065.73,-366.605 918,-207 910.86,-199.286 902.006,-193.556 892.38,-189.328"/>
<polygon fill="none" stroke="black" points="893.536,-186.023 882.945,-185.72 891.035,-192.561 893.536,-186.023"/>
</g>
<!-- \\YAExceptionRenderer -->
<g id="node50" class="node"><title>\\YAExceptionRenderer</title>
<polygon fill="none" stroke="black" points="1165,-628 1021,-628 1021,-592 1165,-592 1165,-628"/>
<text text-anchor="middle" x="1093" y="-607.1" font-family="Courier,monospace" font-size="11.00">YAExceptionRenderer</text>
</g>
<!-- \\ExceptionRenderer -->
<g id="node113" class="node"><title>\\ExceptionRenderer</title>
<ellipse fill="none" stroke="black" cx="800" cy="-126" rx="118.087" ry="18.3848"/>
<text text-anchor="middle" x="800" y="-122.4" font-family="Times Roman,serif" font-size="14.00" fill="gray">TEHxceptionRenderer</text>
</g>
<!-- \\YAExceptionRenderer&#45;&gt;\\ExceptionRenderer -->
<g id="edge87" class="edge"><title>\\YAExceptionRenderer&#45;&gt;\\ExceptionRenderer</title>
<path fill="none" stroke="black" d="M1020.34,-602.25C1008.9,-598.073 998.166,-591.94 990,-583 859.318,-439.927 1050.91,-294.002 918,-153 913.844,-148.591 909.128,-144.833 904.031,-141.635"/>
<polygon fill="none" stroke="black" points="905.577,-138.492 895.123,-136.766 902.219,-144.634 905.577,-138.492"/>
</g>
<!-- \\NetCommonsMigration -->
<g id="node51" class="node"><title>\\NetCommonsMigration</title>
<polygon fill="none" stroke="black" points="1165,-520 1021,-520 1021,-484 1165,-484 1165,-520"/>
<text text-anchor="middle" x="1093" y="-499.1" font-family="Courier,monospace" font-size="11.00">NetCommonsMigration</text>
</g>
<!-- \\CakeMigration -->
<g id="node115" class="node"><title>\\CakeMigration</title>
<ellipse fill="none" stroke="black" cx="800" cy="-72" rx="84.8528" ry="18.3848"/>
<text text-anchor="middle" x="800" y="-68.4" font-family="Times Roman,serif" font-size="14.00" fill="gray">\CakeMigration</text>
</g>
<!-- \\NetCommonsMigration&#45;&gt;\\CakeMigration -->
<g id="edge89" class="edge"><title>\\NetCommonsMigration&#45;&gt;\\CakeMigration</title>
<path fill="none" stroke="black" d="M1020.25,-493.995C1008.89,-489.838 998.206,-483.777 990,-475 873.795,-350.716 1036.14,-221.443 918,-99 910.347,-91.0685 900.877,-85.2535 890.656,-81.0209"/>
<polygon fill="none" stroke="black" points="891.684,-77.6706 881.089,-77.5632 889.304,-84.2538 891.684,-77.6706"/>
</g>
<!-- \\SearchBoxesController -->
<g id="node52" class="node"><title>\\SearchBoxesController</title>
<polygon fill="none" stroke="black" points="1172,-2410 1014,-2410 1014,-2374 1172,-2374 1172,-2410"/>
<text text-anchor="middle" x="1093" y="-2389.1" font-family="Courier,monospace" font-size="11.00">SearchBoxesController</text>
</g>
<!-- \\SearchBoxesAppController -->
<g id="node54" class="node"><title>\\SearchBoxesAppController</title>
<polygon fill="none" stroke="black" points="889,-2410 711,-2410 711,-2374 889,-2374 889,-2410"/>
<text text-anchor="middle" x="800" y="-2389.1" font-family="Courier,monospace" font-size="11.00">SearchBoxesAppController</text>
</g>
<!-- \\SearchBoxesController&#45;&gt;\\SearchBoxesAppController -->
<g id="edge91" class="edge"><title>\\SearchBoxesController&#45;&gt;\\SearchBoxesAppController</title>
<path fill="none" stroke="black" d="M1013.71,-2392C978.699,-2392 937.15,-2392 900.039,-2392"/>
<polygon fill="none" stroke="black" points="899.698,-2388.5 889.698,-2392 899.698,-2395.5 899.698,-2388.5"/>
</g>
<!-- \\SearchBoxTargetPluginsController -->
<g id="node53" class="node"><title>\\SearchBoxTargetPluginsController</title>
<polygon fill="none" stroke="black" points="916,-2005 684,-2005 684,-1969 916,-1969 916,-2005"/>
<text text-anchor="middle" x="800" y="-1984.1" font-family="Courier,monospace" font-size="11.00">SearchBoxTargetPluginsController</text>
</g>
<!-- \\SearchBoxTargetPluginsController&#45;&gt;\\AppController -->
<g id="edge93" class="edge"><title>\\SearchBoxTargetPluginsController&#45;&gt;\\AppController</title>
<path fill="none" stroke="black" d="M683.47,-1987C643.264,-1987 599.775,-1987 565.564,-1987"/>
<polygon fill="none" stroke="black" points="565.258,-1983.5 555.258,-1987 565.258,-1990.5 565.258,-1983.5"/>
</g>
<!-- \\SearchBoxesAppController&#45;&gt;\\AppController -->
<g id="edge95" class="edge"><title>\\SearchBoxesAppController&#45;&gt;\\AppController</title>
<path fill="none" stroke="black" d="M710.258,-2380.7C700.066,-2376.82 690.356,-2371.71 682,-2365 565.964,-2271.79 520.988,-2085.51 507.669,-2014.95"/>
<polygon fill="none" stroke="black" points="511.097,-2014.24 505.863,-2005.03 504.21,-2015.5 511.097,-2014.24"/>
</g>
<!-- \\SearchBox -->
<g id="node55" class="node"><title>\\SearchBox</title>
<polygon fill="none" stroke="black" points="1131,-2680 1055,-2680 1055,-2644 1131,-2644 1131,-2680"/>
<text text-anchor="middle" x="1093" y="-2659.1" font-family="Courier,monospace" font-size="11.00">SearchBox</text>
</g>
<!-- \\SearchBoxesAppModel -->
<g id="node56" class="node"><title>\\SearchBoxesAppModel</title>
<polygon fill="none" stroke="black" points="872,-2734 728,-2734 728,-2698 872,-2698 872,-2734"/>
<text text-anchor="middle" x="800" y="-2713.1" font-family="Courier,monospace" font-size="11.00">SearchBoxesAppModel</text>
</g>
<!-- \\SearchBox&#45;&gt;\\SearchBoxesAppModel -->
<g id="edge97" class="edge"><title>\\SearchBox&#45;&gt;\\SearchBoxesAppModel</title>
<path fill="none" stroke="black" d="M1054.39,-2669.12C1010.93,-2677.13 939.032,-2690.38 882.739,-2700.75"/>
<polygon fill="none" stroke="black" points="881.977,-2697.33 872.777,-2702.59 883.246,-2704.22 881.977,-2697.33"/>
</g>
<!-- \\SearchBoxesAppModel&#45;&gt;\\AppModel -->
<g id="edge99" class="edge"><title>\\SearchBoxesAppModel&#45;&gt;\\AppModel</title>
<path fill="none" stroke="black" d="M727.346,-2709.4C671.508,-2704.32 596.115,-2697.47 548.522,-2693.14"/>
<polygon fill="none" stroke="black" points="548.789,-2689.65 538.513,-2692.23 548.155,-2696.62 548.789,-2689.65"/>
</g>
<!-- \\SearchBoxTargetPlugin -->
<g id="node57" class="node"><title>\\SearchBoxTargetPlugin</title>
<polygon fill="none" stroke="black" points="1172,-2734 1014,-2734 1014,-2698 1172,-2698 1172,-2734"/>
<text text-anchor="middle" x="1093" y="-2713.1" font-family="Courier,monospace" font-size="11.00">SearchBoxTargetPlugin</text>
</g>
<!-- \\SearchBoxTargetPlugin&#45;&gt;\\SearchBoxesAppModel -->
<g id="edge101" class="edge"><title>\\SearchBoxTargetPlugin&#45;&gt;\\SearchBoxesAppModel</title>
<path fill="none" stroke="black" d="M1013.71,-2716C973.244,-2716 924.044,-2716 883.056,-2716"/>
<polygon fill="none" stroke="black" points="882.823,-2712.5 872.823,-2716 882.823,-2719.5 882.823,-2712.5"/>
</g>
<!-- \\SearchBoxSchema -->
<g id="node58" class="node"><title>\\SearchBoxSchema</title>
<polygon fill="none" stroke="black" points="1152,-466 1034,-466 1034,-430 1152,-430 1152,-466"/>
<text text-anchor="middle" x="1093" y="-445.1" font-family="Courier,monospace" font-size="11.00">SearchBoxSchema</text>
</g>
<!-- \\CakeSchema -->
<g id="node123" class="node"><title>\\CakeSchema</title>
<ellipse fill="none" stroke="black" cx="800" cy="-18" rx="77.0746" ry="18.3848"/>
<text text-anchor="middle" x="800" y="-14.4" font-family="Times Roman,serif" font-size="14.00" fill="gray">\CakeSchema</text>
</g>
<!-- \\SearchBoxSchema&#45;&gt;\\CakeSchema -->
<g id="edge103" class="edge"><title>\\SearchBoxSchema&#45;&gt;\\CakeSchema</title>
<path fill="none" stroke="black" d="M1090.86,-429.713C1082.37,-365.789 1045.04,-150.503 918,-45 907.886,-36.6012 895.67,-30.6949 882.982,-26.5644"/>
<polygon fill="none" stroke="black" points="883.793,-23.1556 873.214,-23.74 881.848,-29.8801 883.793,-23.1556"/>
</g>
<!-- \\Init -->
<g id="node59" class="node"><title>\\Init</title>
<polygon fill="none" stroke="black" points="1120,-574 1066,-574 1066,-538 1120,-538 1120,-574"/>
<text text-anchor="middle" x="1093" y="-553.1" font-family="Courier,monospace" font-size="11.00">Init</text>
</g>
<!-- \\Init&#45;&gt;\\CakeMigration -->
<g id="edge105" class="edge"><title>\\Init&#45;&gt;\\CakeMigration</title>
<path fill="none" stroke="black" d="M1065.66,-556.547C1042.14,-555.449 1009.07,-549.884 990,-529 859.318,-385.927 1050.91,-240.002 918,-99 910.44,-90.9799 901.025,-85.1126 890.833,-80.8528"/>
<polygon fill="none" stroke="black" points="891.879,-77.5089 881.284,-77.377 889.484,-84.0866 891.879,-77.5089"/>
</g>
</g>
</svg>
