<?xml version="1.0" encoding="UTF-8" standalone="no"?>
<!DOCTYPE svg PUBLIC "-//W3C//DTD SVG 1.1//EN"
 "http://www.w3.org/Graphics/SVG/1.1/DTD/svg11.dtd">
<!-- Generated by graphviz version 2.26.3 (20100126.1600)
 -->
<!-- Title: G Pages: 1 -->
<svg width="1220pt" height="2834pt"
 viewBox="0.00 0.00 1220.00 2834.00" xmlns="http://www.w3.org/2000/svg" xmlns:xlink="http://www.w3.org/1999/xlink">
<g id="graph1" class="graph" transform="scale(1 1) rotate(0) translate(4 2830)">
<title>G</title>
<polygon fill="white" stroke="white" points="-4,5 -4,-2830 1217,-2830 1217,5 -4,5"/>
<g id="graph2" class="cluster"><title>cluster_Global</title>
<polyline fill="none" stroke="gray" points="177,-422 1192,-422 "/>
<path fill="none" stroke="gray" d="M1192,-422C1198,-422 1204,-428 1204,-434"/>
<polyline fill="none" stroke="gray" points="1204,-434 1204,-2806 "/>
<path fill="none" stroke="gray" d="M1204,-2806C1204,-2812 1198,-2818 1192,-2818"/>
<polyline fill="none" stroke="gray" points="1192,-2818 177,-2818 "/>
<path fill="none" stroke="gray" d="M177,-2818C171,-2818 165,-2812 165,-2806"/>
<polyline fill="none" stroke="gray" points="165,-2806 165,-434 "/>
<path fill="none" stroke="gray" d="M165,-434C165,-428 171,-422 177,-422"/>
<text text-anchor="middle" x="684.5" y="-2804.1" font-family="Times Roman,serif" font-size="11.00" fill="gray">Global</text>
</g>
<!-- \\AppController -->
<g id="node2" class="node"><title>\\AppController</title>
<polygon fill="none" stroke="black" points="555,-2059 451,-2059 451,-2023 555,-2023 555,-2059"/>
<text text-anchor="middle" x="503" y="-2038.1" font-family="Courier,monospace" font-size="11.00">AppController</text>
</g>
<!-- \\Controller -->
<g id="node62" class="node"><title>\\Controller</title>
<ellipse fill="none" stroke="black" cx="242" cy="-319" rx="63.1385" ry="18.3848"/>
<text text-anchor="middle" x="242" y="-315.4" font-family="Times Roman,serif" font-size="14.00" fill="gray">\Controller</text>
</g>
<!-- \\AppController&#45;&gt;\\Controller -->
<g id="edge3" class="edge"><title>\\AppController&#45;&gt;\\Controller</title>
<path fill="none" stroke="black" d="M450.939,-2043.13C430.797,-2041.06 409.409,-2034.73 396,-2019 276.967,-1879.33 417.31,-527.013 324,-369 316.216,-355.818 303.468,-345.66 290.318,-338.053"/>
<polygon fill="none" stroke="black" points="291.676,-334.81 281.206,-333.188 288.379,-340.985 291.676,-334.81"/>
</g>
<!-- \\AppModel -->
<g id="node3" class="node"><title>\\AppModel</title>
<polygon fill="none" stroke="black" points="538,-2761 468,-2761 468,-2725 538,-2725 538,-2761"/>
<text text-anchor="middle" x="503" y="-2740.1" font-family="Courier,monospace" font-size="11.00">AppModel</text>
</g>
<!-- \\NetCommonsAppModel -->
<g id="node48" class="node"><title>\\NetCommonsAppModel</title>
<polygon fill="none" stroke="black" points="311,-2761 173,-2761 173,-2725 311,-2725 311,-2761"/>
<text text-anchor="middle" x="242" y="-2740.1" font-family="Courier,monospace" font-size="11.00">NetCommonsAppModel</text>
</g>
<!-- \\AppModel&#45;&gt;\\NetCommonsAppModel -->
<g id="edge5" class="edge"><title>\\AppModel&#45;&gt;\\NetCommonsAppModel</title>
<path fill="none" stroke="black" d="M467.256,-2743C429.848,-2743 369.903,-2743 321.254,-2743"/>
<polygon fill="none" stroke="black" points="321.056,-2739.5 311.056,-2743 321.056,-2746.5 321.056,-2739.5"/>
</g>
<!-- \\DatabaseConfiguration -->
<g id="node4" class="node"><title>\\DatabaseConfiguration</title>
<polygon fill="none" stroke="black" points="879,-2734 721,-2734 721,-2698 879,-2698 879,-2734"/>
<text text-anchor="middle" x="800" y="-2713.1" font-family="Courier,monospace" font-size="11.00">DatabaseConfiguration</text>
</g>
<!-- \\DatabaseConfiguration&#45;&gt;\\AppModel -->
<g id="edge7" class="edge"><title>\\DatabaseConfiguration&#45;&gt;\\AppModel</title>
<path fill="none" stroke="black" d="M720.8,-2723.2C665.959,-2728.19 594.863,-2734.65 549.084,-2738.81"/>
<polygon fill="none" stroke="black" points="548.509,-2735.35 538.867,-2739.74 549.143,-2742.32 548.509,-2735.35"/>
</g>
<!-- \\AppHelper -->
<g id="node5" class="node"><title>\\AppHelper</title>
<polygon fill="none" stroke="black" points="838,-1708 762,-1708 762,-1672 838,-1672 838,-1708"/>
<text text-anchor="middle" x="800" y="-1687.1" font-family="Courier,monospace" font-size="11.00">AppHelper</text>
</g>
<!-- \\Helper -->
<g id="node66" class="node"><title>\\Helper</title>
<ellipse fill="none" stroke="black" cx="503" cy="-396" rx="43.8406" ry="18.3848"/>
<text text-anchor="middle" x="503" y="-392.4" font-family="Times Roman,serif" font-size="14.00" fill="gray">Helper</text>
</g>
<!-- \\AppHelper&#45;&gt;\\Helper -->
<g id="edge9" class="edge"><title>\\AppHelper&#45;&gt;\\Helper</title>
<path fill="none" stroke="black" d="M792.086,-1671.8C770.212,-1620.57 708.783,-1470.34 682,-1339 661.49,-1238.42 677.915,-494.965 610,-418 596.75,-402.984 576.226,-396.613 556.683,-394.309"/>
<polygon fill="none" stroke="black" points="556.857,-390.812 546.596,-393.451 556.264,-397.786 556.857,-390.812"/>
</g>
<!-- \\NetCommonsDeleteTest -->
<g id="node6" class="node"><title>\\NetCommonsDeleteTest</title>
<polygon fill="none" stroke="black" points="1169,-2572 1017,-2572 1017,-2536 1169,-2536 1169,-2572"/>
<text text-anchor="middle" x="1093" y="-2551.1" font-family="Courier,monospace" font-size="11.00">NetCommonsDeleteTest</text>
</g>
<!-- \\NetCommonsModelTestCase -->
<g id="node15" class="node"><title>\\NetCommonsModelTestCase</title>
<polygon fill="none" stroke="black" points="886,-2572 714,-2572 714,-2536 886,-2536 886,-2572"/>
<text text-anchor="middle" x="800" y="-2551.1" font-family="Courier,monospace" font-size="11.00">NetCommonsModelTestCase</text>
</g>
<!-- \\NetCommonsDeleteTest&#45;&gt;\\NetCommonsModelTestCase -->
<g id="edge11" class="edge"><title>\\NetCommonsDeleteTest&#45;&gt;\\NetCommonsModelTestCase</title>
<path fill="none" stroke="black" d="M1016.78,-2554C980.049,-2554 935.59,-2554 896.519,-2554"/>
<polygon fill="none" stroke="black" points="896.183,-2550.5 886.183,-2554 896.183,-2557.5 896.183,-2550.5"/>
</g>
<!-- \\NetCommonsConsoleTestCase -->
<g id="node7" class="node"><title>\\NetCommonsConsoleTestCase</title>
<polygon fill="none" stroke="black" points="892,-2680 708,-2680 708,-2644 892,-2644 892,-2680"/>
<text text-anchor="middle" x="800" y="-2659.1" font-family="Courier,monospace" font-size="11.00">NetCommonsConsoleTestCase</text>
</g>
<!-- \\NetCommonsCakeTestCase -->
<g id="node13" class="node"><title>\\NetCommonsCakeTestCase</title>
<polygon fill="none" stroke="black" points="585,-2599 421,-2599 421,-2563 585,-2563 585,-2599"/>
<text text-anchor="middle" x="503" y="-2578.1" font-family="Courier,monospace" font-size="11.00">NetCommonsCakeTestCase</text>
</g>
<!-- \\NetCommonsConsoleTestCase&#45;&gt;\\NetCommonsCakeTestCase -->
<g id="edge13" class="edge"><title>\\NetCommonsConsoleTestCase&#45;&gt;\\NetCommonsCakeTestCase</title>
<path fill="none" stroke="black" d="M717.936,-2643.98C705.852,-2641.11 693.579,-2638.07 682,-2635 644.303,-2625.01 602.565,-2612.51 568.882,-2602.05"/>
<polygon fill="none" stroke="black" points="569.742,-2598.65 559.154,-2599.01 567.658,-2605.33 569.742,-2598.65"/>
</g>
<!-- \\NetCommonsGetTest -->
<g id="node8" class="node"><title>\\NetCommonsGetTest</title>
<polygon fill="none" stroke="black" points="1158,-2518 1028,-2518 1028,-2482 1158,-2482 1158,-2518"/>
<text text-anchor="middle" x="1093" y="-2497.1" font-family="Courier,monospace" font-size="11.00">NetCommonsGetTest</text>
</g>
<!-- \\NetCommonsGetTest&#45;&gt;\\NetCommonsModelTestCase -->
<g id="edge15" class="edge"><title>\\NetCommonsGetTest&#45;&gt;\\NetCommonsModelTestCase</title>
<path fill="none" stroke="black" d="M1027.25,-2512.12C988.582,-2519.24 939.008,-2528.38 896.034,-2536.3"/>
<polygon fill="none" stroke="black" points="895.32,-2532.87 886.12,-2538.13 896.588,-2539.76 895.32,-2532.87"/>
</g>
<!-- \\NetCommonsHelperTestCase -->
<g id="node9" class="node"><title>\\NetCommonsHelperTestCase</title>
<polygon fill="none" stroke="black" points="889,-2626 711,-2626 711,-2590 889,-2590 889,-2626"/>
<text text-anchor="middle" x="800" y="-2605.1" font-family="Courier,monospace" font-size="11.00">NetCommonsHelperTestCase</text>
</g>
<!-- \\NetCommonsHelperTestCase&#45;&gt;\\NetCommonsCakeTestCase -->
<g id="edge17" class="edge"><title>\\NetCommonsHelperTestCase&#45;&gt;\\NetCommonsCakeTestCase</title>
<path fill="none" stroke="black" d="M710.487,-2599.86C674.267,-2596.57 632.456,-2592.77 595.9,-2589.45"/>
<polygon fill="none" stroke="black" points="596.013,-2585.94 585.737,-2588.52 595.379,-2592.91 596.013,-2585.94"/>
</g>
<!-- \\NetCommonsControllerBaseTestCase -->
<g id="node10" class="node"><title>\\NetCommonsControllerBaseTestCase</title>
<polygon fill="none" stroke="black" points="916,-1330 684,-1330 684,-1294 916,-1294 916,-1330"/>
<text text-anchor="middle" x="800" y="-1309.1" font-family="Courier,monospace" font-size="11.00">NetCommonsControllerBaseTestCase</text>
</g>
<!-- \\ControllerTestCase -->
<g id="node72" class="node"><title>\\ControllerTestCase</title>
<ellipse fill="none" stroke="black" cx="503" cy="-342" rx="106.773" ry="18.3848"/>
<text text-anchor="middle" x="503" y="-338.4" font-family="Times Roman,serif" font-size="14.00" fill="gray">\ControllerTestCase</text>
</g>
<!-- \\NetCommonsControllerBaseTestCase&#45;&gt;\\ControllerTestCase -->
<g id="edge19" class="edge"><title>\\NetCommonsControllerBaseTestCase&#45;&gt;\\ControllerTestCase</title>
<path fill="none" stroke="black" d="M794.091,-1293.72C775.185,-1234.63 715.47,-1043.22 682,-881 658.783,-768.473 686.764,-454.491 610,-369 606.16,-364.723 601.751,-361.078 596.958,-357.976"/>
<polygon fill="none" stroke="black" points="598.396,-354.77 587.957,-352.957 594.987,-360.884 598.396,-354.77"/>
</g>
<!-- \\NetCommonsValidateTest -->
<g id="node11" class="node"><title>\\NetCommonsValidateTest</title>
<polygon fill="none" stroke="black" points="1175,-2680 1011,-2680 1011,-2644 1175,-2644 1175,-2680"/>
<text text-anchor="middle" x="1093" y="-2659.1" font-family="Courier,monospace" font-size="11.00">NetCommonsValidateTest</text>
</g>
<!-- \\NetCommonsValidateTest&#45;&gt;\\NetCommonsModelTestCase -->
<g id="edge21" class="edge"><title>\\NetCommonsValidateTest&#45;&gt;\\NetCommonsModelTestCase</title>
<path fill="none" stroke="black" d="M1011.79,-2643.93C1004.28,-2641.3 996.908,-2638.34 990,-2635 953.981,-2617.6 954.288,-2597.83 918,-2581 910.962,-2577.74 903.501,-2574.85 895.884,-2572.31"/>
<polygon fill="none" stroke="black" points="896.762,-2568.91 886.173,-2569.26 894.666,-2575.59 896.762,-2568.91"/>
</g>
<!-- \\NetCommonsTestSuite -->
<g id="node12" class="node"><title>\\NetCommonsTestSuite</title>
<polygon fill="none" stroke="black" points="1165,-1222 1021,-1222 1021,-1186 1165,-1186 1165,-1222"/>
<text text-anchor="middle" x="1093" y="-1201.1" font-family="Courier,monospace" font-size="11.00">NetCommonsTestSuite</text>
</g>
<!-- \\CakeTestSuite -->
<g id="node75" class="node"><title>\\CakeTestSuite</title>
<ellipse fill="none" stroke="black" cx="800" cy="-396" rx="84.1457" ry="18.3848"/>
<text text-anchor="middle" x="800" y="-392.4" font-family="Times Roman,serif" font-size="14.00" fill="gray">\CakeTestSuite</text>
</g>
<!-- \\NetCommonsTestSuite&#45;&gt;\\CakeTestSuite -->
<g id="edge23" class="edge"><title>\\NetCommonsTestSuite&#45;&gt;\\CakeTestSuite</title>
<path fill="none" stroke="black" d="M1020.33,-1196.92C1008.74,-1192.69 997.962,-1186.37 990,-1177 880.272,-1047.91 1032.31,-543.054 918,-418 911.146,-410.501 902.623,-405.061 893.316,-401.167"/>
<polygon fill="none" stroke="black" points="894.374,-397.828 883.78,-397.769 892.025,-404.422 894.374,-397.828"/>
</g>
<!-- \\CakeTestCase -->
<g id="node77" class="node"><title>\\CakeTestCase</title>
<ellipse fill="none" stroke="black" cx="242" cy="-396" rx="82.0244" ry="18.3848"/>
<text text-anchor="middle" x="242" y="-392.4" font-family="Times Roman,serif" font-size="14.00" fill="gray">\CakeTestCase</text>
</g>
<!-- \\NetCommonsCakeTestCase&#45;&gt;\\CakeTestCase -->
<g id="edge25" class="edge"><title>\\NetCommonsCakeTestCase&#45;&gt;\\CakeTestCase</title>
<path fill="none" stroke="black" d="M498.015,-2562.55C480.359,-2496.29 420.539,-2263.89 396,-2068 373.191,-1885.92 438.837,-561.135 324,-418 322.305,-415.887 320.431,-413.965 318.412,-412.216"/>
<polygon fill="none" stroke="black" points="320.177,-409.178 309.981,-406.295 316.154,-414.906 320.177,-409.178"/>
</g>
<!-- \\NetCommonsSaveTest -->
<g id="node14" class="node"><title>\\NetCommonsSaveTest</title>
<polygon fill="none" stroke="black" points="1162,-2626 1024,-2626 1024,-2590 1162,-2590 1162,-2626"/>
<text text-anchor="middle" x="1093" y="-2605.1" font-family="Courier,monospace" font-size="11.00">NetCommonsSaveTest</text>
</g>
<!-- \\NetCommonsSaveTest&#45;&gt;\\NetCommonsModelTestCase -->
<g id="edge27" class="edge"><title>\\NetCommonsSaveTest&#45;&gt;\\NetCommonsModelTestCase</title>
<path fill="none" stroke="black" d="M1023.93,-2595.27C985.795,-2588.24 937.829,-2579.4 896.084,-2571.71"/>
<polygon fill="none" stroke="black" points="896.641,-2568.25 886.172,-2569.88 895.372,-2575.14 896.641,-2568.25"/>
</g>
<!-- \\NetCommonsModelTestCase&#45;&gt;\\NetCommonsCakeTestCase -->
<g id="edge29" class="edge"><title>\\NetCommonsModelTestCase&#45;&gt;\\NetCommonsCakeTestCase</title>
<path fill="none" stroke="black" d="M713.696,-2561.85C676.671,-2565.21 633.35,-2569.15 595.65,-2572.58"/>
<polygon fill="none" stroke="black" points="595.328,-2569.09 585.686,-2573.48 595.962,-2576.06 595.328,-2569.09"/>
</g>
<!-- \\NetCommonsControllerTestCase -->
<g id="node16" class="node"><title>\\NetCommonsControllerTestCase</title>
<polygon fill="none" stroke="black" points="1196,-1330 990,-1330 990,-1294 1196,-1294 1196,-1330"/>
<text text-anchor="middle" x="1093" y="-1309.1" font-family="Courier,monospace" font-size="11.00">NetCommonsControllerTestCase</text>
</g>
<!-- \\NetCommonsControllerTestCase&#45;&gt;\\NetCommonsControllerBaseTestCase -->
<g id="edge31" class="edge"><title>\\NetCommonsControllerTestCase&#45;&gt;\\NetCommonsControllerBaseTestCase</title>
<path fill="none" stroke="black" d="M989.699,-1312C969.381,-1312 947.845,-1312 926.858,-1312"/>
<polygon fill="none" stroke="black" points="926.606,-1308.5 916.606,-1312 926.606,-1315.5 926.606,-1308.5"/>
</g>
<!-- \\NetCommonsAppController -->
<g id="node17" class="node"><title>\\NetCommonsAppController</title>
<polygon fill="none" stroke="black" points="886,-872 714,-872 714,-836 886,-836 886,-872"/>
<text text-anchor="middle" x="800" y="-851.1" font-family="Courier,monospace" font-size="11.00">NetCommonsAppController</text>
</g>
<!-- \\NetCommonsAppController&#45;&gt;\\Controller -->
<g id="edge33" class="edge"><title>\\NetCommonsAppController&#45;&gt;\\Controller</title>
<path fill="none" stroke="black" d="M713.891,-851.057C701.89,-847.154 690.708,-841.117 682,-832 521.766,-664.229 784.994,-467.312 610,-315 520.107,-236.758 365.849,-274.654 288.74,-300.987"/>
<polygon fill="none" stroke="black" points="287.567,-297.69 279.281,-304.292 289.876,-304.298 287.567,-297.69"/>
</g>
<!-- \\AssetComponent -->
<g id="node18" class="node"><title>\\AssetComponent</title>
<polygon fill="none" stroke="black" points="1148,-1060 1038,-1060 1038,-1024 1148,-1024 1148,-1060"/>
<text text-anchor="middle" x="1093" y="-1039.1" font-family="Courier,monospace" font-size="11.00">AssetComponent</text>
</g>
<!-- \\Component -->
<g id="node83" class="node"><title>\\Component</title>
<ellipse fill="none" stroke="black" cx="800" cy="-342" rx="70.9184" ry="18.3848"/>
<text text-anchor="middle" x="800" y="-338.4" font-family="Times Roman,serif" font-size="14.00" fill="gray">\Component</text>
</g>
<!-- \\AssetComponent&#45;&gt;\\Component -->
<g id="edge35" class="edge"><title>\\AssetComponent&#45;&gt;\\Component</title>
<path fill="none" stroke="black" d="M1037.26,-1039.5C1019.72,-1035.88 1001.85,-1028.71 990,-1015 801.099,-796.429 1110.31,-584.576 918,-369 908.225,-358.042 894.994,-351.054 880.924,-346.686"/>
<polygon fill="none" stroke="black" points="881.644,-343.256 871.08,-344.064 879.842,-350.02 881.644,-343.256"/>
</g>
<!-- \\NetCommonsTimeComponent -->
<g id="node19" class="node"><title>\\NetCommonsTimeComponent</title>
<polygon fill="none" stroke="black" points="1179,-1006 1007,-1006 1007,-970 1179,-970 1179,-1006"/>
<text text-anchor="middle" x="1093" y="-985.1" font-family="Courier,monospace" font-size="11.00">NetCommonsTimeComponent</text>
</g>
<!-- \\NetCommonsTimeComponent&#45;&gt;\\Component -->
<g id="edge37" class="edge"><title>\\NetCommonsTimeComponent&#45;&gt;\\Component</title>
<path fill="none" stroke="black" d="M1006.66,-974.396C1000.43,-970.834 994.742,-966.431 990,-961 815.683,-761.337 1095.43,-565.899 918,-369 908.227,-358.155 895.069,-351.207 881.082,-346.841"/>
<polygon fill="none" stroke="black" points="881.864,-343.426 871.298,-344.214 880.049,-350.187 881.864,-343.426"/>
</g>
<!-- \\PermissionComponent -->
<g id="node20" class="node"><title>\\PermissionComponent</title>
<polygon fill="none" stroke="black" points="1165,-1168 1021,-1168 1021,-1132 1165,-1132 1165,-1168"/>
<text text-anchor="middle" x="1093" y="-1147.1" font-family="Courier,monospace" font-size="11.00">PermissionComponent</text>
</g>
<!-- \\PermissionComponent&#45;&gt;\\Component -->
<g id="edge39" class="edge"><title>\\PermissionComponent&#45;&gt;\\Component</title>
<path fill="none" stroke="black" d="M1020.33,-1142.91C1008.74,-1138.69 997.965,-1132.36 990,-1123 880.948,-994.787 1029.05,-495.484 918,-369 908.311,-357.965 895.121,-350.943 881.061,-346.564"/>
<polygon fill="none" stroke="black" points="881.786,-343.135 871.222,-343.939 879.981,-349.899 881.786,-343.135"/>
</g>
<!-- \\NetCommonsComponent -->
<g id="node21" class="node"><title>\\NetCommonsComponent</title>
<polygon fill="none" stroke="black" points="1165,-1114 1021,-1114 1021,-1078 1165,-1078 1165,-1114"/>
<text text-anchor="middle" x="1093" y="-1093.1" font-family="Courier,monospace" font-size="11.00">NetCommonsComponent</text>
</g>
<!-- \\NetCommonsComponent&#45;&gt;\\Component -->
<g id="edge41" class="edge"><title>\\NetCommonsComponent&#45;&gt;\\Component</title>
<path fill="none" stroke="black" d="M1020.39,-1088.86C1008.79,-1084.64 997.999,-1078.34 990,-1069 786.502,-831.507 1125.2,-603.266 918,-369 908.271,-358.001 895.062,-350.994 880.998,-346.62"/>
<polygon fill="none" stroke="black" points="881.72,-343.191 871.156,-343.996 879.917,-349.955 881.72,-343.191"/>
</g>
<!-- \\NetCommonsController -->
<g id="node22" class="node"><title>\\NetCommonsController</title>
<polygon fill="none" stroke="black" points="1169,-1276 1017,-1276 1017,-1240 1169,-1240 1169,-1276"/>
<text text-anchor="middle" x="1093" y="-1255.1" font-family="Courier,monospace" font-size="11.00">NetCommonsController</text>
</g>
<!-- \\NetCommonsController&#45;&gt;\\NetCommonsAppController -->
<g id="edge43" class="edge"><title>\\NetCommonsController&#45;&gt;\\NetCommonsAppController</title>
<path fill="none" stroke="black" d="M1016.84,-1246.03C1007.17,-1242.29 997.905,-1237.39 990,-1231 873.468,-1136.73 821.869,-952.495 805.826,-882.186"/>
<polygon fill="none" stroke="black" points="809.213,-881.292 803.632,-872.286 802.378,-882.807 809.213,-881.292"/>
</g>
<!-- \\NetCommonsUrl -->
<g id="node23" class="node"><title>\\NetCommonsUrl</title>
<polygon fill="none" stroke="black" points="1145,-2194 1041,-2194 1041,-2158 1145,-2158 1145,-2194"/>
<text text-anchor="middle" x="1093" y="-2173.1" font-family="Courier,monospace" font-size="11.00">NetCommonsUrl</text>
</g>
<!-- \\NetCommonsTime -->
<g id="node24" class="node"><title>\\NetCommonsTime</title>
<polygon fill="none" stroke="black" points="1148,-2140 1038,-2140 1038,-2104 1148,-2104 1148,-2140"/>
<text text-anchor="middle" x="1093" y="-2119.1" font-family="Courier,monospace" font-size="11.00">NetCommonsTime</text>
</g>
<!-- \\CurrentBase -->
<g id="node25" class="node"><title>\\CurrentBase</title>
<polygon fill="none" stroke="black" points="845,-2410 755,-2410 755,-2374 845,-2374 845,-2410"/>
<text text-anchor="middle" x="800" y="-2389.1" font-family="Courier,monospace" font-size="11.00">CurrentBase</text>
</g>
<!-- \\Current -->
<g id="node26" class="node"><title>\\Current</title>
<polygon fill="none" stroke="black" points="1125,-2410 1061,-2410 1061,-2374 1125,-2374 1125,-2410"/>
<text text-anchor="middle" x="1093" y="-2389.1" font-family="Courier,monospace" font-size="11.00">Current</text>
</g>
<!-- \\Current&#45;&gt;\\CurrentBase -->
<g id="edge45" class="edge"><title>\\Current&#45;&gt;\\CurrentBase</title>
<path fill="none" stroke="black" d="M1060.81,-2392C1011.48,-2392 916.554,-2392 855.846,-2392"/>
<polygon fill="none" stroke="black" points="855.669,-2388.5 845.669,-2392 855.669,-2395.5 855.669,-2388.5"/>
</g>
<!-- \\CurrentSystem -->
<g id="node27" class="node"><title>\\CurrentSystem</title>
<polygon fill="none" stroke="black" points="1145,-2032 1041,-2032 1041,-1996 1145,-1996 1145,-2032"/>
<text text-anchor="middle" x="1093" y="-2011.1" font-family="Courier,monospace" font-size="11.00">CurrentSystem</text>
</g>
<!-- \\CurrentPage -->
<g id="node28" class="node"><title>\\CurrentPage</title>
<polygon fill="none" stroke="black" points="1138,-1978 1048,-1978 1048,-1942 1138,-1942 1138,-1978"/>
<text text-anchor="middle" x="1093" y="-1957.1" font-family="Courier,monospace" font-size="11.00">CurrentPage</text>
</g>
<!-- \\CurrentFrame -->
<g id="node29" class="node"><title>\\CurrentFrame</title>
<polygon fill="none" stroke="black" points="1142,-1924 1044,-1924 1044,-1888 1142,-1888 1142,-1924"/>
<text text-anchor="middle" x="1093" y="-1903.1" font-family="Courier,monospace" font-size="11.00">CurrentFrame</text>
</g>
<!-- \\TokenHelper -->
<g id="node30" class="node"><title>\\TokenHelper</title>
<polygon fill="none" stroke="black" points="1138,-844 1048,-844 1048,-808 1138,-808 1138,-844"/>
<text text-anchor="middle" x="1093" y="-823.1" font-family="Courier,monospace" font-size="11.00">TokenHelper</text>
</g>
<!-- \\FormHelper -->
<g id="node90" class="node"><title>\\FormHelper</title>
<ellipse fill="none" stroke="black" cx="800" cy="-288" rx="70.9184" ry="18.3848"/>
<text text-anchor="middle" x="800" y="-284.4" font-family="Times Roman,serif" font-size="14.00" fill="gray">\FormHelper</text>
</g>
<!-- \\TokenHelper&#45;&gt;\\FormHelper -->
<g id="edge47" class="edge"><title>\\TokenHelper&#45;&gt;\\FormHelper</title>
<path fill="none" stroke="black" d="M1047.39,-824.968C1027,-822.065 1004.38,-815.033 990,-799 844.8,-637.094 1065.73,-474.605 918,-315 908.083,-304.286 894.859,-297.398 880.853,-293.049"/>
<polygon fill="none" stroke="black" points="881.628,-289.634 871.063,-290.429 879.818,-296.396 881.628,-289.634"/>
</g>
<!-- \\SingletonViewBlockHtmlHelper -->
<g id="node31" class="node"><title>\\SingletonViewBlockHtmlHelper</title>
<polygon fill="none" stroke="black" points="1196,-790 990,-790 990,-754 1196,-754 1196,-790"/>
<text text-anchor="middle" x="1093" y="-769.1" font-family="Courier,monospace" font-size="11.00">SingletonViewBlockHtmlHelper</text>
</g>
<!-- \\HtmlHelper -->
<g id="node92" class="node"><title>\\HtmlHelper</title>
<ellipse fill="none" stroke="black" cx="800" cy="-234" rx="67.1751" ry="18.3848"/>
<text text-anchor="middle" x="800" y="-230.4" font-family="Times Roman,serif" font-size="14.00" fill="gray">HtmlHelper</text>
</g>
<!-- \\SingletonViewBlockHtmlHelper&#45;&gt;\\HtmlHelper -->
<g id="edge49" class="edge"><title>\\SingletonViewBlockHtmlHelper&#45;&gt;\\HtmlHelper</title>
<path fill="none" stroke="black" d="M999.844,-753.806C996.274,-751.224 992.962,-748.303 990,-745 844.8,-583.094 1065.73,-420.605 918,-261 907.227,-249.36 892.55,-242.237 877.208,-237.979"/>
<polygon fill="none" stroke="black" points="877.602,-234.475 867.065,-235.575 875.988,-241.287 877.602,-234.475"/>
</g>
<!-- \\FormInputHelper -->
<g id="node32" class="node"><title>\\FormInputHelper</title>
<polygon fill="none" stroke="black" points="1152,-1384 1034,-1384 1034,-1348 1152,-1348 1152,-1384"/>
<text text-anchor="middle" x="1093" y="-1363.1" font-family="Courier,monospace" font-size="11.00">FormInputHelper</text>
</g>
<!-- \\FormInputHelper&#45;&gt;\\AppHelper -->
<g id="edge51" class="edge"><title>\\FormInputHelper&#45;&gt;\\AppHelper</title>
<path fill="none" stroke="black" d="M1033.8,-1373.6C1018.51,-1377.6 1002.78,-1383.7 990,-1393 939.522,-1429.73 848.866,-1596.47 814.1,-1662.73"/>
<polygon fill="none" stroke="black" points="810.916,-1661.27 809.388,-1671.75 817.121,-1664.51 810.916,-1661.27"/>
</g>
<!-- \\WizardHelper -->
<g id="node33" class="node"><title>\\WizardHelper</title>
<polygon fill="none" stroke="black" points="1142,-2356 1044,-2356 1044,-2320 1142,-2320 1142,-2356"/>
<text text-anchor="middle" x="1093" y="-2335.1" font-family="Courier,monospace" font-size="11.00">WizardHelper</text>
</g>
<!-- \\WizardHelper&#45;&gt;\\AppHelper -->
<g id="edge53" class="edge"><title>\\WizardHelper&#45;&gt;\\AppHelper</title>
<path fill="none" stroke="black" d="M1043.82,-2335.69C1024.69,-2332.34 1004.05,-2325.31 990,-2311 894.852,-2214.07 957.301,-2144.01 918,-2014 884.245,-1902.33 833.504,-1772.93 811.197,-1717.5"/>
<polygon fill="none" stroke="black" points="814.363,-1715.99 807.373,-1708.03 807.873,-1718.61 814.363,-1715.99"/>
</g>
<!-- \\DisplayNumberHelper -->
<g id="node34" class="node"><title>\\DisplayNumberHelper</title>
<polygon fill="none" stroke="black" points="1165,-2302 1021,-2302 1021,-2266 1165,-2266 1165,-2302"/>
<text text-anchor="middle" x="1093" y="-2281.1" font-family="Courier,monospace" font-size="11.00">DisplayNumberHelper</text>
</g>
<!-- \\DisplayNumberHelper&#45;&gt;\\AppHelper -->
<g id="edge55" class="edge"><title>\\DisplayNumberHelper&#45;&gt;\\AppHelper</title>
<path fill="none" stroke="black" d="M1020.43,-2275.11C1009.18,-2271.04 998.497,-2265.23 990,-2257 909.099,-2178.62 953.29,-2120.97 918,-2014 881.451,-1903.21 832.171,-1773.35 810.719,-1717.65"/>
<polygon fill="none" stroke="black" points="813.913,-1716.2 807.047,-1708.13 807.382,-1718.72 813.913,-1716.2"/>
</g>
<!-- \\MessageFlashHelper -->
<g id="node35" class="node"><title>\\MessageFlashHelper</title>
<polygon fill="none" stroke="black" points="1162,-2248 1024,-2248 1024,-2212 1162,-2212 1162,-2248"/>
<text text-anchor="middle" x="1093" y="-2227.1" font-family="Courier,monospace" font-size="11.00">MessageFlashHelper</text>
</g>
<!-- \\MessageFlashHelper&#45;&gt;\\AppHelper -->
<g id="edge57" class="edge"><title>\\MessageFlashHelper&#45;&gt;\\AppHelper</title>
<path fill="none" stroke="black" d="M1023.81,-2221.63C1011.46,-2217.56 999.52,-2211.63 990,-2203 985.169,-2198.62 848.712,-1823.98 810.094,-1717.78"/>
<polygon fill="none" stroke="black" points="813.276,-1716.29 806.57,-1708.08 806.697,-1718.68 813.276,-1716.29"/>
</g>
<!-- \\DateHelper -->
<g id="node36" class="node"><title>\\DateHelper</title>
<polygon fill="none" stroke="black" points="1135,-2086 1051,-2086 1051,-2050 1135,-2050 1135,-2086"/>
<text text-anchor="middle" x="1093" y="-2065.1" font-family="Courier,monospace" font-size="11.00">DateHelper</text>
</g>
<!-- \\DateHelper&#45;&gt;\\AppHelper -->
<g id="edge59" class="edge"><title>\\DateHelper&#45;&gt;\\AppHelper</title>
<path fill="none" stroke="black" d="M1050.94,-2064.75C1030.78,-2061.37 1007.3,-2054.58 990,-2041 879.54,-1954.29 824.898,-1784.9 806.922,-1718.07"/>
<polygon fill="none" stroke="black" points="810.271,-1717.04 804.349,-1708.26 803.499,-1718.82 810.271,-1717.04"/>
</g>
<!-- \\SnsButtonHelper -->
<g id="node37" class="node"><title>\\SnsButtonHelper</title>
<polygon fill="none" stroke="black" points="1152,-1870 1034,-1870 1034,-1834 1152,-1834 1152,-1870"/>
<text text-anchor="middle" x="1093" y="-1849.1" font-family="Courier,monospace" font-size="11.00">SnsButtonHelper</text>
</g>
<!-- \\SnsButtonHelper&#45;&gt;\\AppHelper -->
<g id="edge61" class="edge"><title>\\SnsButtonHelper&#45;&gt;\\AppHelper</title>
<path fill="none" stroke="black" d="M1033.97,-1840.43C1019.24,-1836.49 1003.73,-1831.42 990,-1825 927.211,-1795.67 863.394,-1745.16 828.029,-1714.94"/>
<polygon fill="none" stroke="black" points="829.944,-1711.97 820.087,-1708.08 825.369,-1717.26 829.944,-1711.97"/>
</g>
<!-- \\BackToHelper -->
<g id="node38" class="node"><title>\\BackToHelper</title>
<polygon fill="none" stroke="black" points="1142,-1816 1044,-1816 1044,-1780 1142,-1780 1142,-1816"/>
<text text-anchor="middle" x="1093" y="-1795.1" font-family="Courier,monospace" font-size="11.00">BackToHelper</text>
</g>
<!-- \\BackToHelper&#45;&gt;\\AppHelper -->
<g id="edge63" class="edge"><title>\\BackToHelper&#45;&gt;\\AppHelper</title>
<path fill="none" stroke="black" d="M1043.84,-1786.68C1026.64,-1782.31 1007.32,-1776.92 990,-1771 940.27,-1753.98 885.199,-1729.9 847.206,-1712.42"/>
<polygon fill="none" stroke="black" points="848.474,-1709.15 837.929,-1708.12 845.534,-1715.5 848.474,-1709.15"/>
</g>
<!-- \\NetCommonsHtmlHelper -->
<g id="node39" class="node"><title>\\NetCommonsHtmlHelper</title>
<polygon fill="none" stroke="black" points="1169,-1762 1017,-1762 1017,-1726 1169,-1726 1169,-1762"/>
<text text-anchor="middle" x="1093" y="-1741.1" font-family="Courier,monospace" font-size="11.00">NetCommonsHtmlHelper</text>
</g>
<!-- \\NetCommonsHtmlHelper&#45;&gt;\\AppHelper -->
<g id="edge65" class="edge"><title>\\NetCommonsHtmlHelper&#45;&gt;\\AppHelper</title>
<path fill="none" stroke="black" d="M1016.78,-1729.95C963.659,-1720.16 894.376,-1707.39 848.603,-1698.96"/>
<polygon fill="none" stroke="black" points="849.107,-1695.49 838.638,-1697.12 847.838,-1702.38 849.107,-1695.49"/>
</g>
<!-- \\ButtonHelper -->
<g id="node40" class="node"><title>\\ButtonHelper</title>
<polygon fill="none" stroke="black" points="1142,-952 1044,-952 1044,-916 1142,-916 1142,-952"/>
<text text-anchor="middle" x="1093" y="-931.1" font-family="Courier,monospace" font-size="11.00">ButtonHelper</text>
</g>
<!-- \\ButtonHelper&#45;&gt;\\FormHelper -->
<g id="edge67" class="edge"><title>\\ButtonHelper&#45;&gt;\\FormHelper</title>
<path fill="none" stroke="black" d="M1043.76,-932.618C1024.27,-929.457 1003.37,-922.318 990,-907 815.683,-707.337 1095.43,-511.899 918,-315 908.227,-304.155 895.069,-297.207 881.082,-292.841"/>
<polygon fill="none" stroke="black" points="881.864,-289.426 871.298,-290.214 880.049,-296.187 881.864,-289.426"/>
</g>
<!-- \\ComposerHelper -->
<g id="node41" class="node"><title>\\ComposerHelper</title>
<polygon fill="none" stroke="black" points="1148,-1708 1038,-1708 1038,-1672 1148,-1672 1148,-1708"/>
<text text-anchor="middle" x="1093" y="-1687.1" font-family="Courier,monospace" font-size="11.00">ComposerHelper</text>
</g>
<!-- \\ComposerHelper&#45;&gt;\\AppHelper -->
<g id="edge69" class="edge"><title>\\ComposerHelper&#45;&gt;\\AppHelper</title>
<path fill="none" stroke="black" d="M1037.2,-1690C982.832,-1690 900.989,-1690 849.05,-1690"/>
<polygon fill="none" stroke="black" points="848.759,-1686.5 838.759,-1690 848.759,-1693.5 848.759,-1686.5"/>
</g>
<!-- \\LinkButtonHelper -->
<g id="node42" class="node"><title>\\LinkButtonHelper</title>
<polygon fill="none" stroke="black" points="1155,-898 1031,-898 1031,-862 1155,-862 1155,-898"/>
<text text-anchor="middle" x="1093" y="-877.1" font-family="Courier,monospace" font-size="11.00">LinkButtonHelper</text>
</g>
<!-- \\LinkButtonHelper&#45;&gt;\\FormHelper -->
<g id="edge71" class="edge"><title>\\LinkButtonHelper&#45;&gt;\\FormHelper</title>
<path fill="none" stroke="black" d="M1030.45,-875.714C1015.26,-871.707 1000.41,-864.775 990,-853 830.252,-672.227 1080.57,-493.24 918,-315 908.162,-304.213 894.974,-297.293 880.979,-292.934"/>
<polygon fill="none" stroke="black" points="881.757,-289.519 871.192,-290.31 879.944,-296.281 881.757,-289.519"/>
</g>
<!-- \\TableListHelper -->
<g id="node43" class="node"><title>\\TableListHelper</title>
<polygon fill="none" stroke="black" points="1152,-1654 1034,-1654 1034,-1618 1152,-1618 1152,-1654"/>
<text text-anchor="middle" x="1093" y="-1633.1" font-family="Courier,monospace" font-size="11.00">TableListHelper</text>
</g>
<!-- \\TableListHelper&#45;&gt;\\AppHelper -->
<g id="edge73" class="edge"><title>\\TableListHelper&#45;&gt;\\AppHelper</title>
<path fill="none" stroke="black" d="M1033.71,-1646.93C979.266,-1656.96 899.563,-1671.65 848.738,-1681.02"/>
<polygon fill="none" stroke="black" points="847.863,-1677.62 838.663,-1682.87 849.131,-1684.5 847.863,-1677.62"/>
</g>
<!-- \\NetCommonsTimeHelper -->
<g id="node44" class="node"><title>\\NetCommonsTimeHelper</title>
<polygon fill="none" stroke="black" points="1169,-1600 1017,-1600 1017,-1564 1169,-1564 1169,-1600"/>
<text text-anchor="middle" x="1093" y="-1579.1" font-family="Courier,monospace" font-size="11.00">NetCommonsTimeHelper</text>
</g>
<!-- \\NetCommonsTimeHelper&#45;&gt;\\AppHelper -->
<g id="edge75" class="edge"><title>\\NetCommonsTimeHelper&#45;&gt;\\AppHelper</title>
<path fill="none" stroke="black" d="M1018.9,-1600.02C1009.12,-1602.81 999.27,-1605.83 990,-1609 940.27,-1626.02 885.199,-1650.1 847.206,-1667.58"/>
<polygon fill="none" stroke="black" points="845.534,-1664.5 837.929,-1671.88 848.474,-1670.85 845.534,-1664.5"/>
</g>
<!-- \\NetCommonsFormHelper -->
<g id="node45" class="node"><title>\\NetCommonsFormHelper</title>
<polygon fill="none" stroke="black" points="1169,-1546 1017,-1546 1017,-1510 1169,-1510 1169,-1546"/>
<text text-anchor="middle" x="1093" y="-1525.1" font-family="Courier,monospace" font-size="11.00">NetCommonsFormHelper</text>
</g>
<!-- \\NetCommonsFormHelper&#45;&gt;\\AppHelper -->
<g id="edge77" class="edge"><title>\\NetCommonsFormHelper&#45;&gt;\\AppHelper</title>
<path fill="none" stroke="black" d="M1016.79,-1544.62C1007.59,-1547.61 998.458,-1551.05 990,-1555 927.211,-1584.33 863.394,-1634.84 828.029,-1665.06"/>
<polygon fill="none" stroke="black" points="825.369,-1662.74 820.087,-1671.92 829.944,-1668.03 825.369,-1662.74"/>
</g>
<!-- \\TitleIconHelper -->
<g id="node46" class="node"><title>\\TitleIconHelper</title>
<polygon fill="none" stroke="black" points="1152,-1492 1034,-1492 1034,-1456 1152,-1456 1152,-1492"/>
<text text-anchor="middle" x="1093" y="-1471.1" font-family="Courier,monospace" font-size="11.00">TitleIconHelper</text>
</g>
<!-- \\TitleIconHelper&#45;&gt;\\AppHelper -->
<g id="edge79" class="edge"><title>\\TitleIconHelper&#45;&gt;\\AppHelper</title>
<path fill="none" stroke="black" d="M1033.98,-1483.82C1019.02,-1487.8 1003.4,-1493.34 990,-1501 915.721,-1543.49 850.104,-1622.48 819.041,-1663.59"/>
<polygon fill="none" stroke="black" points="816.119,-1661.65 812.946,-1671.76 821.73,-1665.84 816.119,-1661.65"/>
</g>
<!-- \\DatetimePickerHelper -->
<g id="node47" class="node"><title>\\DatetimePickerHelper</title>
<polygon fill="none" stroke="black" points="1169,-1438 1017,-1438 1017,-1402 1169,-1402 1169,-1438"/>
<text text-anchor="middle" x="1093" y="-1417.1" font-family="Courier,monospace" font-size="11.00">DatetimePickerHelper</text>
</g>
<!-- \\DatetimePickerHelper&#45;&gt;\\AppHelper -->
<g id="edge81" class="edge"><title>\\DatetimePickerHelper&#45;&gt;\\AppHelper</title>
<path fill="none" stroke="black" d="M1016.86,-1433.85C1007.4,-1437.3 998.186,-1441.62 990,-1447 904.042,-1503.54 840.094,-1612.07 813.531,-1662.72"/>
<polygon fill="none" stroke="black" points="810.341,-1661.27 808.865,-1671.76 816.562,-1664.48 810.341,-1661.27"/>
</g>
<!-- \\Model -->
<g id="node110" class="node"><title>\\Model</title>
<ellipse fill="none" stroke="black" cx="44" cy="-2743" rx="43.8406" ry="18.3848"/>
<text text-anchor="middle" x="44" y="-2739.4" font-family="Times Roman,serif" font-size="14.00" fill="gray">\Model</text>
</g>
<!-- \\NetCommonsAppModel&#45;&gt;\\Model -->
<g id="edge83" class="edge"><title>\\NetCommonsAppModel&#45;&gt;\\Model</title>
<path fill="none" stroke="black" d="M172.749,-2743C148.379,-2743 121.357,-2743 98.3871,-2743"/>
<polygon fill="none" stroke="black" points="98.1425,-2739.5 88.1425,-2743 98.1424,-2746.5 98.1425,-2739.5"/>
</g>
<!-- \\OriginalKeyBehavior -->
<g id="node49" class="node"><title>\\OriginalKeyBehavior</title>
<polygon fill="none" stroke="black" points="1165,-736 1021,-736 1021,-700 1165,-700 1165,-736"/>
<text text-anchor="middle" x="1093" y="-715.1" font-family="Courier,monospace" font-size="11.00">OriginalKeyBehavior</text>
</g>
<!-- \\ModelBehavior -->
<g id="node112" class="node"><title>\\ModelBehavior</title>
<ellipse fill="none" stroke="black" cx="800" cy="-180" rx="86.9741" ry="18.3848"/>
<text text-anchor="middle" x="800" y="-176.4" font-family="Times Roman,serif" font-size="14.00" fill="gray">\ModelBehavior</text>
</g>
<!-- \\OriginalKeyBehavior&#45;&gt;\\ModelBehavior -->
<g id="edge85" class="edge"><title>\\OriginalKeyBehavior&#45;&gt;\\ModelBehavior</title>
<path fill="none" stroke="black" d="M1020.47,-710.469C1008.94,-706.277 998.146,-700.083 990,-691 844.8,-529.094 1065.73,-366.605 918,-207 910.86,-199.286 902.006,-193.556 892.38,-189.328"/>
<polygon fill="none" stroke="black" points="893.536,-186.023 882.945,-185.72 891.035,-192.561 893.536,-186.023"/>
</g>
<!-- \\TrackableBehavior -->
<g id="node50" class="node"><title>\\TrackableBehavior</title>
<polygon fill="none" stroke="black" points="1158,-682 1028,-682 1028,-646 1158,-646 1158,-682"/>
<text text-anchor="middle" x="1093" y="-661.1" font-family="Courier,monospace" font-size="11.00">TrackableBehavior</text>
</g>
<!-- \\TrackableBehavior&#45;&gt;\\ModelBehavior -->
<g id="edge87" class="edge"><title>\\TrackableBehavior&#45;&gt;\\ModelBehavior</title>
<path fill="none" stroke="black" d="M1027.5,-658.591C1013.43,-654.482 999.849,-647.783 990,-637 859.318,-493.927 1050.91,-348.002 918,-207 910.736,-199.293 901.758,-193.575 892.025,-189.36"/>
<polygon fill="none" stroke="black" points="893.083,-186.019 882.491,-185.764 890.613,-192.568 893.083,-186.019"/>
</g>
<!-- \\YAExceptionRenderer -->
<g id="node51" class="node"><title>\\YAExceptionRenderer</title>
<polygon fill="none" stroke="black" points="1165,-628 1021,-628 1021,-592 1165,-592 1165,-628"/>
<text text-anchor="middle" x="1093" y="-607.1" font-family="Courier,monospace" font-size="11.00">YAExceptionRenderer</text>
</g>
<!-- \\ExceptionRenderer -->
<g id="node115" class="node"><title>\\ExceptionRenderer</title>
<ellipse fill="none" stroke="black" cx="800" cy="-126" rx="118.087" ry="18.3848"/>
<text text-anchor="middle" x="800" y="-122.4" font-family="Times Roman,serif" font-size="14.00" fill="gray">TEHxceptionRenderer</text>
</g>
<!-- \\YAExceptionRenderer&#45;&gt;\\ExceptionRenderer -->
<g id="edge89" class="edge"><title>\\YAExceptionRenderer&#45;&gt;\\ExceptionRenderer</title>
<path fill="none" stroke="black" d="M1020.34,-602.25C1008.9,-598.073 998.166,-591.94 990,-583 859.318,-439.927 1050.91,-294.002 918,-153 913.844,-148.591 909.128,-144.833 904.031,-141.635"/>
<polygon fill="none" stroke="black" points="905.577,-138.492 895.123,-136.766 902.219,-144.634 905.577,-138.492"/>
</g>
<!-- \\NetCommonsMigration -->
<g id="node52" class="node"><title>\\NetCommonsMigration</title>
<polygon fill="none" stroke="black" points="1165,-574 1021,-574 1021,-538 1165,-538 1165,-574"/>
<text text-anchor="middle" x="1093" y="-553.1" font-family="Courier,monospace" font-size="11.00">NetCommonsMigration</text>
</g>
<!-- \\CakeMigration -->
<g id="node117" class="node"><title>\\CakeMigration</title>
<ellipse fill="none" stroke="black" cx="800" cy="-72" rx="84.8528" ry="18.3848"/>
<text text-anchor="middle" x="800" y="-68.4" font-family="Times Roman,serif" font-size="14.00" fill="gray">\CakeMigration</text>
</g>
<!-- \\NetCommonsMigration&#45;&gt;\\CakeMigration -->
<g id="edge91" class="edge"><title>\\NetCommonsMigration&#45;&gt;\\CakeMigration</title>
<path fill="none" stroke="black" d="M1020.34,-548.25C1008.9,-544.073 998.166,-537.94 990,-529 859.318,-385.927 1050.91,-240.002 918,-99 910.44,-90.9799 901.025,-85.1126 890.833,-80.8528"/>
<polygon fill="none" stroke="black" points="891.879,-77.5089 881.284,-77.377 889.484,-84.0866 891.879,-77.5089"/>
</g>
<!-- \\SearchBoxesController -->
<g id="node53" class="node"><title>\\SearchBoxesController</title>
<polygon fill="none" stroke="black" points="1172,-2464 1014,-2464 1014,-2428 1172,-2428 1172,-2464"/>
<text text-anchor="middle" x="1093" y="-2443.1" font-family="Courier,monospace" font-size="11.00">SearchBoxesController</text>
</g>
<!-- \\SearchBoxesAppController -->
<g id="node55" class="node"><title>\\SearchBoxesAppController</title>
<polygon fill="none" stroke="black" points="889,-2464 711,-2464 711,-2428 889,-2428 889,-2464"/>
<text text-anchor="middle" x="800" y="-2443.1" font-family="Courier,monospace" font-size="11.00">SearchBoxesAppController</text>
</g>
<!-- \\SearchBoxesController&#45;&gt;\\SearchBoxesAppController -->
<g id="edge93" class="edge"><title>\\SearchBoxesController&#45;&gt;\\SearchBoxesAppController</title>
<path fill="none" stroke="black" d="M1013.71,-2446C978.699,-2446 937.15,-2446 900.039,-2446"/>
<polygon fill="none" stroke="black" points="899.698,-2442.5 889.698,-2446 899.698,-2449.5 899.698,-2442.5"/>
</g>
<!-- \\SearchBoxTargetPluginsController -->
<g id="node54" class="node"><title>\\SearchBoxTargetPluginsController</title>
<polygon fill="none" stroke="black" points="916,-2059 684,-2059 684,-2023 916,-2023 916,-2059"/>
<text text-anchor="middle" x="800" y="-2038.1" font-family="Courier,monospace" font-size="11.00">SearchBoxTargetPluginsController</text>
</g>
<!-- \\SearchBoxTargetPluginsController&#45;&gt;\\AppController -->
<g id="edge95" class="edge"><title>\\SearchBoxTargetPluginsController&#45;&gt;\\AppController</title>
<path fill="none" stroke="black" d="M683.47,-2041C643.264,-2041 599.775,-2041 565.564,-2041"/>
<polygon fill="none" stroke="black" points="565.258,-2037.5 555.258,-2041 565.258,-2044.5 565.258,-2037.5"/>
</g>
<!-- \\SearchBoxesAppController&#45;&gt;\\AppController -->
<g id="edge97" class="edge"><title>\\SearchBoxesAppController&#45;&gt;\\AppController</title>
<path fill="none" stroke="black" d="M710.258,-2434.7C700.066,-2430.82 690.356,-2425.71 682,-2419 565.964,-2325.79 520.988,-2139.51 507.669,-2068.95"/>
<polygon fill="none" stroke="black" points="511.097,-2068.24 505.863,-2059.03 504.21,-2069.5 511.097,-2068.24"/>
</g>
<!-- \\SearchBox -->
<g id="node56" class="node"><title>\\SearchBox</title>
<polygon fill="none" stroke="black" points="1131,-2788 1055,-2788 1055,-2752 1131,-2752 1131,-2788"/>
<text text-anchor="middle" x="1093" y="-2767.1" font-family="Courier,monospace" font-size="11.00">SearchBox</text>
</g>
<!-- \\SearchBoxesAppModel -->
<g id="node57" class="node"><title>\\SearchBoxesAppModel</title>
<polygon fill="none" stroke="black" points="872,-2788 728,-2788 728,-2752 872,-2752 872,-2788"/>
<text text-anchor="middle" x="800" y="-2767.1" font-family="Courier,monospace" font-size="11.00">SearchBoxesAppModel</text>
</g>
<!-- \\SearchBox&#45;&gt;\\SearchBoxesAppModel -->
<g id="edge99" class="edge"><title>\\SearchBox&#45;&gt;\\SearchBoxesAppModel</title>
<path fill="none" stroke="black" d="M1054.39,-2770C1011.02,-2770 939.329,-2770 883.089,-2770"/>
<polygon fill="none" stroke="black" points="882.777,-2766.5 872.777,-2770 882.777,-2773.5 882.777,-2766.5"/>
</g>
<!-- \\SearchBoxesAppModel&#45;&gt;\\AppModel -->
<g id="edge101" class="edge"><title>\\SearchBoxesAppModel&#45;&gt;\\AppModel</title>
<path fill="none" stroke="black" d="M727.346,-2763.4C671.508,-2758.32 596.115,-2751.47 548.522,-2747.14"/>
<polygon fill="none" stroke="black" points="548.789,-2743.65 538.513,-2746.23 548.155,-2750.62 548.789,-2743.65"/>
</g>
<!-- \\SearchBoxTargetPlugin -->
<g id="node58" class="node"><title>\\SearchBoxTargetPlugin</title>
<polygon fill="none" stroke="black" points="1172,-2734 1014,-2734 1014,-2698 1172,-2698 1172,-2734"/>
<text text-anchor="middle" x="1093" y="-2713.1" font-family="Courier,monospace" font-size="11.00">SearchBoxTargetPlugin</text>
</g>
<!-- \\SearchBoxTargetPlugin&#45;&gt;\\SearchBoxesAppModel -->
<g id="edge103" class="edge"><title>\\SearchBoxTargetPlugin&#45;&gt;\\SearchBoxesAppModel</title>
<path fill="none" stroke="black" d="M1013.71,-2730.61C973.159,-2738.09 923.836,-2747.18 882.796,-2754.74"/>
<polygon fill="none" stroke="black" points="882.023,-2751.32 872.823,-2756.58 883.291,-2758.21 882.023,-2751.32"/>
</g>
<!-- \\SearchBoxSchema -->
<g id="node59" class="node"><title>\\SearchBoxSchema</title>
<polygon fill="none" stroke="black" points="1152,-466 1034,-466 1034,-430 1152,-430 1152,-466"/>
<text text-anchor="middle" x="1093" y="-445.1" font-family="Courier,monospace" font-size="11.00">SearchBoxSchema</text>
</g>
<!-- \\CakeSchema -->
<g id="node125" class="node"><title>\\CakeSchema</title>
<ellipse fill="none" stroke="black" cx="800" cy="-18" rx="77.0746" ry="18.3848"/>
<text text-anchor="middle" x="800" y="-14.4" font-family="Times Roman,serif" font-size="14.00" fill="gray">\CakeSchema</text>
</g>
<!-- \\SearchBoxSchema&#45;&gt;\\CakeSchema -->
<g id="edge105" class="edge"><title>\\SearchBoxSchema&#45;&gt;\\CakeSchema</title>
<path fill="none" stroke="black" d="M1090.86,-429.713C1082.37,-365.789 1045.04,-150.503 918,-45 907.886,-36.6012 895.67,-30.6949 882.982,-26.5644"/>
<polygon fill="none" stroke="black" points="883.793,-23.1556 873.214,-23.74 881.848,-29.8801 883.793,-23.1556"/>
</g>
<!-- \\Init -->
<g id="node60" class="node"><title>\\Init</title>
<polygon fill="none" stroke="black" points="1120,-520 1066,-520 1066,-484 1120,-484 1120,-520"/>
<text text-anchor="middle" x="1093" y="-499.1" font-family="Courier,monospace" font-size="11.00">Init</text>
</g>
<!-- \\Init&#45;&gt;\\CakeMigration -->
<g id="edge107" class="edge"><title>\\Init&#45;&gt;\\CakeMigration</title>
<path fill="none" stroke="black" d="M1065.78,-502.438C1042.33,-501.269 1009.32,-495.66 990,-475 873.795,-350.716 1036.14,-221.443 918,-99 910.347,-91.0685 900.877,-85.2535 890.656,-81.0209"/>
<polygon fill="none" stroke="black" points="891.684,-77.6706 881.089,-77.5632 889.304,-84.2538 891.684,-77.6706"/>
</g>
</g>
</svg>
