<?xml version="1.0" encoding="UTF-8" standalone="no"?>
<!DOCTYPE svg PUBLIC "-//W3C//DTD SVG 1.1//EN"
 "http://www.w3.org/Graphics/SVG/1.1/DTD/svg11.dtd">
<!-- Generated by graphviz version 2.26.3 (20100126.1600)
 -->
<!-- Title: G Pages: 1 -->
<svg width="1220pt" height="2766pt"
 viewBox="0.00 0.00 1220.00 2765.60" xmlns="http://www.w3.org/2000/svg" xmlns:xlink="http://www.w3.org/1999/xlink">
<g id="graph1" class="graph" transform="scale(1 1) rotate(0) translate(4 2761.6)">
<title>G</title>
<polygon fill="white" stroke="white" points="-4,5 -4,-2761.6 1217,-2761.6 1217,5 -4,5"/>
<g id="graph2" class="cluster"><title>cluster_Global</title>
<polyline fill="none" stroke="gray" points="177,-407.599 1192,-407.599 "/>
<path fill="none" stroke="gray" d="M1192,-407.599C1198,-407.599 1204,-413.599 1204,-419.599"/>
<polyline fill="none" stroke="gray" points="1204,-419.599 1204,-2737.6 "/>
<path fill="none" stroke="gray" d="M1204,-2737.6C1204,-2743.6 1198,-2749.6 1192,-2749.6"/>
<polyline fill="none" stroke="gray" points="1192,-2749.6 177,-2749.6 "/>
<path fill="none" stroke="gray" d="M177,-2749.6C171,-2749.6 165,-2743.6 165,-2737.6"/>
<polyline fill="none" stroke="gray" points="165,-2737.6 165,-419.599 "/>
<path fill="none" stroke="gray" d="M165,-419.599C165,-413.599 171,-407.599 177,-407.599"/>
<text text-anchor="middle" x="684.5" y="-2735.7" font-family="Times Roman,serif" font-size="11.00" fill="gray">Global</text>
</g>
<!-- \\AppController -->
<g id="node2" class="node"><title>\\AppController</title>
<polygon fill="none" stroke="black" points="555,-1424.6 451,-1424.6 451,-1388.6 555,-1388.6 555,-1424.6"/>
<text text-anchor="middle" x="503" y="-1403.7" font-family="Courier,monospace" font-size="11.00">AppController</text>
</g>
<!-- \\Controller -->
<g id="node61" class="node"><title>\\Controller</title>
<ellipse fill="none" stroke="black" cx="242" cy="-304.599" rx="63.1385" ry="18.3848"/>
<text text-anchor="middle" x="242" y="-300.999" font-family="Times Roman,serif" font-size="14.00" fill="gray">\Controller</text>
</g>
<!-- \\AppController&#45;&gt;\\Controller -->
<g id="edge3" class="edge"><title>\\AppController&#45;&gt;\\Controller</title>
<path fill="none" stroke="black" d="M450.865,-1408.53C430.836,-1406.4 409.551,-1400.08 396,-1384.6 244.895,-1211.93 443.246,-550.626 324,-354.599 316.044,-341.52 303.247,-331.392 290.106,-323.779"/>
<polygon fill="none" stroke="black" points="291.475,-320.542 281.008,-318.906 288.17,-326.713 291.475,-320.542"/>
</g>
<!-- \\AppModel -->
<g id="node3" class="node"><title>\\AppModel</title>
<polygon fill="none" stroke="black" points="538,-2692.6 468,-2692.6 468,-2656.6 538,-2656.6 538,-2692.6"/>
<text text-anchor="middle" x="503" y="-2671.7" font-family="Courier,monospace" font-size="11.00">AppModel</text>
</g>
<!-- \\NetCommonsAppModel -->
<g id="node47" class="node"><title>\\NetCommonsAppModel</title>
<polygon fill="none" stroke="black" points="311,-2692.6 173,-2692.6 173,-2656.6 311,-2656.6 311,-2692.6"/>
<text text-anchor="middle" x="242" y="-2671.7" font-family="Courier,monospace" font-size="11.00">NetCommonsAppModel</text>
</g>
<!-- \\AppModel&#45;&gt;\\NetCommonsAppModel -->
<g id="edge5" class="edge"><title>\\AppModel&#45;&gt;\\NetCommonsAppModel</title>
<path fill="none" stroke="black" d="M467.256,-2674.6C429.848,-2674.6 369.903,-2674.6 321.254,-2674.6"/>
<polygon fill="none" stroke="black" points="321.056,-2671.1 311.056,-2674.6 321.056,-2678.1 321.056,-2671.1"/>
</g>
<!-- \\DatabaseConfiguration -->
<g id="node4" class="node"><title>\\DatabaseConfiguration</title>
<polygon fill="none" stroke="black" points="879,-2665.6 721,-2665.6 721,-2629.6 879,-2629.6 879,-2665.6"/>
<text text-anchor="middle" x="800" y="-2644.7" font-family="Courier,monospace" font-size="11.00">DatabaseConfiguration</text>
</g>
<!-- \\DatabaseConfiguration&#45;&gt;\\AppModel -->
<g id="edge7" class="edge"><title>\\DatabaseConfiguration&#45;&gt;\\AppModel</title>
<path fill="none" stroke="black" d="M720.8,-2654.8C665.959,-2659.78 594.863,-2666.25 549.084,-2670.41"/>
<polygon fill="none" stroke="black" points="548.509,-2666.95 538.867,-2671.34 549.143,-2673.92 548.509,-2666.95"/>
</g>
<!-- \\AppHelper -->
<g id="node5" class="node"><title>\\AppHelper</title>
<polygon fill="none" stroke="black" points="838,-1666.6 762,-1666.6 762,-1630.6 838,-1630.6 838,-1666.6"/>
<text text-anchor="middle" x="800" y="-1645.7" font-family="Courier,monospace" font-size="11.00">AppHelper</text>
</g>
<!-- \\Helper -->
<g id="node65" class="node"><title>\\Helper</title>
<ellipse fill="none" stroke="black" cx="503" cy="-381.599" rx="43.8406" ry="18.3848"/>
<text text-anchor="middle" x="503" y="-377.999" font-family="Times Roman,serif" font-size="14.00" fill="gray">Helper</text>
</g>
<!-- \\AppHelper&#45;&gt;\\Helper -->
<g id="edge9" class="edge"><title>\\AppHelper&#45;&gt;\\Helper</title>
<path fill="none" stroke="black" d="M791.411,-1630.49C768.915,-1582.14 708.21,-1445.41 682,-1324.6 638.474,-1123.98 745.831,-557.529 610,-403.599 596.75,-388.584 576.226,-382.212 556.683,-379.909"/>
<polygon fill="none" stroke="black" points="556.857,-376.411 546.596,-379.051 556.264,-383.386 556.857,-376.411"/>
</g>
<!-- \\NetCommonsDeleteTest -->
<g id="node6" class="node"><title>\\NetCommonsDeleteTest</title>
<polygon fill="none" stroke="black" points="1169,-2557.6 1017,-2557.6 1017,-2521.6 1169,-2521.6 1169,-2557.6"/>
<text text-anchor="middle" x="1093" y="-2536.7" font-family="Courier,monospace" font-size="11.00">NetCommonsDeleteTest</text>
</g>
<!-- \\NetCommonsModelTestCase -->
<g id="node15" class="node"><title>\\NetCommonsModelTestCase</title>
<polygon fill="none" stroke="black" points="886,-2503.6 714,-2503.6 714,-2467.6 886,-2467.6 886,-2503.6"/>
<text text-anchor="middle" x="800" y="-2482.7" font-family="Courier,monospace" font-size="11.00">NetCommonsModelTestCase</text>
</g>
<!-- \\NetCommonsDeleteTest&#45;&gt;\\NetCommonsModelTestCase -->
<g id="edge11" class="edge"><title>\\NetCommonsDeleteTest&#45;&gt;\\NetCommonsModelTestCase</title>
<path fill="none" stroke="black" d="M1016.78,-2525.55C979.893,-2518.75 935.211,-2510.52 896.02,-2503.3"/>
<polygon fill="none" stroke="black" points="896.652,-2499.85 886.183,-2501.48 895.383,-2506.74 896.652,-2499.85"/>
</g>
<!-- \\NetCommonsConsoleTestCase -->
<g id="node7" class="node"><title>\\NetCommonsConsoleTestCase</title>
<polygon fill="none" stroke="black" points="892,-2611.6 708,-2611.6 708,-2575.6 892,-2575.6 892,-2611.6"/>
<text text-anchor="middle" x="800" y="-2590.7" font-family="Courier,monospace" font-size="11.00">NetCommonsConsoleTestCase</text>
</g>
<!-- \\NetCommonsCakeTestCase -->
<g id="node13" class="node"><title>\\NetCommonsCakeTestCase</title>
<polygon fill="none" stroke="black" points="585,-2530.6 421,-2530.6 421,-2494.6 585,-2494.6 585,-2530.6"/>
<text text-anchor="middle" x="503" y="-2509.7" font-family="Courier,monospace" font-size="11.00">NetCommonsCakeTestCase</text>
</g>
<!-- \\NetCommonsConsoleTestCase&#45;&gt;\\NetCommonsCakeTestCase -->
<g id="edge13" class="edge"><title>\\NetCommonsConsoleTestCase&#45;&gt;\\NetCommonsCakeTestCase</title>
<path fill="none" stroke="black" d="M717.936,-2575.58C705.852,-2572.71 693.579,-2569.67 682,-2566.6 644.303,-2556.61 602.565,-2544.11 568.882,-2533.65"/>
<polygon fill="none" stroke="black" points="569.742,-2530.25 559.154,-2530.61 567.658,-2536.93 569.742,-2530.25"/>
</g>
<!-- \\NetCommonsGetTest -->
<g id="node8" class="node"><title>\\NetCommonsGetTest</title>
<polygon fill="none" stroke="black" points="1158,-2503.6 1028,-2503.6 1028,-2467.6 1158,-2467.6 1158,-2503.6"/>
<text text-anchor="middle" x="1093" y="-2482.7" font-family="Courier,monospace" font-size="11.00">NetCommonsGetTest</text>
</g>
<!-- \\NetCommonsGetTest&#45;&gt;\\NetCommonsModelTestCase -->
<g id="edge15" class="edge"><title>\\NetCommonsGetTest&#45;&gt;\\NetCommonsModelTestCase</title>
<path fill="none" stroke="black" d="M1027.25,-2485.6C988.664,-2485.6 939.217,-2485.6 896.305,-2485.6"/>
<polygon fill="none" stroke="black" points="896.12,-2482.1 886.12,-2485.6 896.12,-2489.1 896.12,-2482.1"/>
</g>
<!-- \\NetCommonsHelperTestCase -->
<g id="node9" class="node"><title>\\NetCommonsHelperTestCase</title>
<polygon fill="none" stroke="black" points="889,-2557.6 711,-2557.6 711,-2521.6 889,-2521.6 889,-2557.6"/>
<text text-anchor="middle" x="800" y="-2536.7" font-family="Courier,monospace" font-size="11.00">NetCommonsHelperTestCase</text>
</g>
<!-- \\NetCommonsHelperTestCase&#45;&gt;\\NetCommonsCakeTestCase -->
<g id="edge17" class="edge"><title>\\NetCommonsHelperTestCase&#45;&gt;\\NetCommonsCakeTestCase</title>
<path fill="none" stroke="black" d="M710.487,-2531.46C674.267,-2528.17 632.456,-2524.37 595.9,-2521.04"/>
<polygon fill="none" stroke="black" points="596.013,-2517.54 585.737,-2520.12 595.379,-2524.51 596.013,-2517.54"/>
</g>
<!-- \\NetCommonsControllerBaseTestCase -->
<g id="node10" class="node"><title>\\NetCommonsControllerBaseTestCase</title>
<polygon fill="none" stroke="black" points="916,-1315.6 684,-1315.6 684,-1279.6 916,-1279.6 916,-1315.6"/>
<text text-anchor="middle" x="800" y="-1294.7" font-family="Courier,monospace" font-size="11.00">NetCommonsControllerBaseTestCase</text>
</g>
<!-- \\ControllerTestCase -->
<g id="node71" class="node"><title>\\ControllerTestCase</title>
<ellipse fill="none" stroke="black" cx="503" cy="-327.599" rx="106.773" ry="18.3848"/>
<text text-anchor="middle" x="503" y="-323.999" font-family="Times Roman,serif" font-size="14.00" fill="gray">\ControllerTestCase</text>
</g>
<!-- \\NetCommonsControllerBaseTestCase&#45;&gt;\\ControllerTestCase -->
<g id="edge19" class="edge"><title>\\NetCommonsControllerBaseTestCase&#45;&gt;\\ControllerTestCase</title>
<path fill="none" stroke="black" d="M691.542,-1279.56C688.089,-1276.91 684.884,-1273.94 682,-1270.6 548.574,-1116.04 741.699,-510.632 610,-354.599 606.37,-350.299 602.164,-346.629 597.563,-343.503"/>
<polygon fill="none" stroke="black" points="599.292,-340.46 588.891,-338.444 595.765,-346.507 599.292,-340.46"/>
</g>
<!-- \\NetCommonsValidateTest -->
<g id="node11" class="node"><title>\\NetCommonsValidateTest</title>
<polygon fill="none" stroke="black" points="1175,-2665.6 1011,-2665.6 1011,-2629.6 1175,-2629.6 1175,-2665.6"/>
<text text-anchor="middle" x="1093" y="-2644.7" font-family="Courier,monospace" font-size="11.00">NetCommonsValidateTest</text>
</g>
<!-- \\NetCommonsValidateTest&#45;&gt;\\NetCommonsModelTestCase -->
<g id="edge21" class="edge"><title>\\NetCommonsValidateTest&#45;&gt;\\NetCommonsModelTestCase</title>
<path fill="none" stroke="black" d="M1010.4,-2631.88C1003.17,-2628.77 996.246,-2625.05 990,-2620.6 943.034,-2587.1 965.486,-2545.36 918,-2512.6 911.099,-2507.84 903.484,-2503.91 895.545,-2500.66"/>
<polygon fill="none" stroke="black" points="896.692,-2497.35 886.099,-2497.15 894.256,-2503.92 896.692,-2497.35"/>
</g>
<!-- \\NetCommonsTestSuite -->
<g id="node12" class="node"><title>\\NetCommonsTestSuite</title>
<polygon fill="none" stroke="black" points="1165,-1153.6 1021,-1153.6 1021,-1117.6 1165,-1117.6 1165,-1153.6"/>
<text text-anchor="middle" x="1093" y="-1132.7" font-family="Courier,monospace" font-size="11.00">NetCommonsTestSuite</text>
</g>
<!-- \\CakeTestSuite -->
<g id="node74" class="node"><title>\\CakeTestSuite</title>
<ellipse fill="none" stroke="black" cx="800" cy="-381.599" rx="84.1457" ry="18.3848"/>
<text text-anchor="middle" x="800" y="-377.999" font-family="Times Roman,serif" font-size="14.00" fill="gray">\CakeTestSuite</text>
</g>
<!-- \\NetCommonsTestSuite&#45;&gt;\\CakeTestSuite -->
<g id="edge23" class="edge"><title>\\NetCommonsTestSuite&#45;&gt;\\CakeTestSuite</title>
<path fill="none" stroke="black" d="M1020.38,-1128.47C1008.79,-1124.25 997.995,-1117.94 990,-1108.6 887.575,-988.977 1024.67,-519.456 918,-403.599 911.119,-396.126 902.58,-390.7 893.263,-386.815"/>
<polygon fill="none" stroke="black" points="894.315,-383.474 883.72,-383.423 891.97,-390.07 894.315,-383.474"/>
</g>
<!-- \\CakeTestCase -->
<g id="node76" class="node"><title>\\CakeTestCase</title>
<ellipse fill="none" stroke="black" cx="242" cy="-381.599" rx="82.0244" ry="18.3848"/>
<text text-anchor="middle" x="242" y="-377.999" font-family="Times Roman,serif" font-size="14.00" fill="gray">\CakeTestCase</text>
</g>
<!-- \\NetCommonsCakeTestCase&#45;&gt;\\CakeTestCase -->
<g id="edge25" class="edge"><title>\\NetCommonsCakeTestCase&#45;&gt;\\CakeTestCase</title>
<path fill="none" stroke="black" d="M501.005,-2494.48C489.651,-2391.04 432.423,-1864.56 396,-1433.6 386.338,-1319.28 396.958,-492.136 324,-403.599 322.278,-401.509 320.38,-399.606 318.341,-397.873"/>
<polygon fill="none" stroke="black" points="320.065,-394.81 309.85,-392.002 316.084,-400.568 320.065,-394.81"/>
</g>
<!-- \\NetCommonsSaveTest -->
<g id="node14" class="node"><title>\\NetCommonsSaveTest</title>
<polygon fill="none" stroke="black" points="1162,-2611.6 1024,-2611.6 1024,-2575.6 1162,-2575.6 1162,-2611.6"/>
<text text-anchor="middle" x="1093" y="-2590.7" font-family="Courier,monospace" font-size="11.00">NetCommonsSaveTest</text>
</g>
<!-- \\NetCommonsSaveTest&#45;&gt;\\NetCommonsModelTestCase -->
<g id="edge27" class="edge"><title>\\NetCommonsSaveTest&#45;&gt;\\NetCommonsModelTestCase</title>
<path fill="none" stroke="black" d="M1023.8,-2579.42C1012.23,-2575.94 1000.57,-2571.7 990,-2566.6 953.981,-2549.2 954.288,-2529.43 918,-2512.6 910.962,-2509.34 903.501,-2506.45 895.884,-2503.91"/>
<polygon fill="none" stroke="black" points="896.762,-2500.51 886.173,-2500.86 894.666,-2507.19 896.762,-2500.51"/>
</g>
<!-- \\NetCommonsModelTestCase&#45;&gt;\\NetCommonsCakeTestCase -->
<g id="edge29" class="edge"><title>\\NetCommonsModelTestCase&#45;&gt;\\NetCommonsCakeTestCase</title>
<path fill="none" stroke="black" d="M713.696,-2493.45C676.671,-2496.81 633.35,-2500.75 595.65,-2504.18"/>
<polygon fill="none" stroke="black" points="595.328,-2500.69 585.686,-2505.08 595.962,-2507.66 595.328,-2500.69"/>
</g>
<!-- \\NetCommonsControllerTestCase -->
<g id="node16" class="node"><title>\\NetCommonsControllerTestCase</title>
<polygon fill="none" stroke="black" points="1196,-1315.6 990,-1315.6 990,-1279.6 1196,-1279.6 1196,-1315.6"/>
<text text-anchor="middle" x="1093" y="-1294.7" font-family="Courier,monospace" font-size="11.00">NetCommonsControllerTestCase</text>
</g>
<!-- \\NetCommonsControllerTestCase&#45;&gt;\\NetCommonsControllerBaseTestCase -->
<g id="edge31" class="edge"><title>\\NetCommonsControllerTestCase&#45;&gt;\\NetCommonsControllerBaseTestCase</title>
<path fill="none" stroke="black" d="M989.699,-1297.6C969.381,-1297.6 947.845,-1297.6 926.858,-1297.6"/>
<polygon fill="none" stroke="black" points="926.606,-1294.1 916.606,-1297.6 926.606,-1301.1 926.606,-1294.1"/>
</g>
<!-- \\NetCommonsAppController -->
<g id="node17" class="node"><title>\\NetCommonsAppController</title>
<polygon fill="none" stroke="black" points="886,-1261.6 714,-1261.6 714,-1225.6 886,-1225.6 886,-1261.6"/>
<text text-anchor="middle" x="800" y="-1240.7" font-family="Courier,monospace" font-size="11.00">NetCommonsAppController</text>
</g>
<!-- \\NetCommonsAppController&#45;&gt;\\Controller -->
<g id="edge33" class="edge"><title>\\NetCommonsAppController&#45;&gt;\\Controller</title>
<path fill="none" stroke="black" d="M793.582,-1225.33C773.945,-1168.76 714.062,-991.152 682,-839.599 656.989,-721.374 700.929,-380.19 610,-300.599 520.21,-222.006 365.571,-260.216 288.491,-286.633"/>
<polygon fill="none" stroke="black" points="287.317,-283.336 279.038,-289.948 289.633,-289.942 287.317,-283.336"/>
</g>
<!-- \\AssetComponent -->
<g id="node18" class="node"><title>\\AssetComponent</title>
<polygon fill="none" stroke="black" points="1148,-1045.6 1038,-1045.6 1038,-1009.6 1148,-1009.6 1148,-1045.6"/>
<text text-anchor="middle" x="1093" y="-1024.7" font-family="Courier,monospace" font-size="11.00">AssetComponent</text>
</g>
<!-- \\Component -->
<g id="node82" class="node"><title>\\Component</title>
<ellipse fill="none" stroke="black" cx="800" cy="-327.599" rx="70.9184" ry="18.3848"/>
<text text-anchor="middle" x="800" y="-323.999" font-family="Times Roman,serif" font-size="14.00" fill="gray">\Component</text>
</g>
<!-- \\AssetComponent&#45;&gt;\\Component -->
<g id="edge35" class="edge"><title>\\AssetComponent&#45;&gt;\\Component</title>
<path fill="none" stroke="black" d="M1037.26,-1025.1C1019.72,-1021.48 1001.85,-1014.31 990,-1000.6 801.099,-782.029 1110.31,-570.175 918,-354.599 908.225,-343.641 894.994,-336.654 880.924,-332.286"/>
<polygon fill="none" stroke="black" points="881.644,-328.856 871.08,-329.663 879.842,-335.62 881.644,-328.856"/>
</g>
<!-- \\NetCommonsTimeComponent -->
<g id="node19" class="node"><title>\\NetCommonsTimeComponent</title>
<polygon fill="none" stroke="black" points="1179,-991.599 1007,-991.599 1007,-955.599 1179,-955.599 1179,-991.599"/>
<text text-anchor="middle" x="1093" y="-970.699" font-family="Courier,monospace" font-size="11.00">NetCommonsTimeComponent</text>
</g>
<!-- \\NetCommonsTimeComponent&#45;&gt;\\Component -->
<g id="edge37" class="edge"><title>\\NetCommonsTimeComponent&#45;&gt;\\Component</title>
<path fill="none" stroke="black" d="M1006.66,-959.995C1000.43,-956.433 994.742,-952.03 990,-946.599 815.683,-746.937 1095.43,-551.498 918,-354.599 908.227,-343.754 895.069,-336.806 881.082,-332.44"/>
<polygon fill="none" stroke="black" points="881.864,-329.026 871.298,-329.813 880.049,-335.786 881.864,-329.026"/>
</g>
<!-- \\PermissionComponent -->
<g id="node20" class="node"><title>\\PermissionComponent</title>
<polygon fill="none" stroke="black" points="1165,-937.599 1021,-937.599 1021,-901.599 1165,-901.599 1165,-937.599"/>
<text text-anchor="middle" x="1093" y="-916.699" font-family="Courier,monospace" font-size="11.00">PermissionComponent</text>
</g>
<!-- \\PermissionComponent&#45;&gt;\\Component -->
<g id="edge39" class="edge"><title>\\PermissionComponent&#45;&gt;\\Component</title>
<path fill="none" stroke="black" d="M1020.36,-912.166C1008.84,-907.965 998.079,-901.742 990,-892.599 830.252,-711.827 1080.57,-532.84 918,-354.599 908.162,-343.813 894.974,-336.892 880.979,-332.534"/>
<polygon fill="none" stroke="black" points="881.757,-329.119 871.192,-329.909 879.944,-335.88 881.757,-329.119"/>
</g>
<!-- \\NetCommonsComponent -->
<g id="node21" class="node"><title>\\NetCommonsComponent</title>
<polygon fill="none" stroke="black" points="1165,-1099.6 1021,-1099.6 1021,-1063.6 1165,-1063.6 1165,-1099.6"/>
<text text-anchor="middle" x="1093" y="-1078.7" font-family="Courier,monospace" font-size="11.00">NetCommonsComponent</text>
</g>
<!-- \\NetCommonsComponent&#45;&gt;\\Component -->
<g id="edge41" class="edge"><title>\\NetCommonsComponent&#45;&gt;\\Component</title>
<path fill="none" stroke="black" d="M1020.39,-1074.46C1008.79,-1070.24 997.999,-1063.93 990,-1054.6 786.502,-817.107 1125.2,-588.865 918,-354.599 908.271,-343.6 895.062,-336.594 880.998,-332.22"/>
<polygon fill="none" stroke="black" points="881.72,-328.79 871.156,-329.596 879.917,-335.554 881.72,-328.79"/>
</g>
<!-- \\NetCommonsController -->
<g id="node22" class="node"><title>\\NetCommonsController</title>
<polygon fill="none" stroke="black" points="1169,-1261.6 1017,-1261.6 1017,-1225.6 1169,-1225.6 1169,-1261.6"/>
<text text-anchor="middle" x="1093" y="-1240.7" font-family="Courier,monospace" font-size="11.00">NetCommonsController</text>
</g>
<!-- \\NetCommonsController&#45;&gt;\\NetCommonsAppController -->
<g id="edge43" class="edge"><title>\\NetCommonsController&#45;&gt;\\NetCommonsAppController</title>
<path fill="none" stroke="black" d="M1016.78,-1243.6C980.049,-1243.6 935.59,-1243.6 896.519,-1243.6"/>
<polygon fill="none" stroke="black" points="896.183,-1240.1 886.183,-1243.6 896.183,-1247.1 896.183,-1240.1"/>
</g>
<!-- \\NetCommonsUrl -->
<g id="node23" class="node"><title>\\NetCommonsUrl</title>
<polygon fill="none" stroke="black" points="1145,-2125.6 1041,-2125.6 1041,-2089.6 1145,-2089.6 1145,-2125.6"/>
<text text-anchor="middle" x="1093" y="-2104.7" font-family="Courier,monospace" font-size="11.00">NetCommonsUrl</text>
</g>
<!-- \\NetCommonsTime -->
<g id="node24" class="node"><title>\\NetCommonsTime</title>
<polygon fill="none" stroke="black" points="1148,-2071.6 1038,-2071.6 1038,-2035.6 1148,-2035.6 1148,-2071.6"/>
<text text-anchor="middle" x="1093" y="-2050.7" font-family="Courier,monospace" font-size="11.00">NetCommonsTime</text>
</g>
<!-- \\CurrentBase -->
<g id="node25" class="node"><title>\\CurrentBase</title>
<polygon fill="none" stroke="black" points="845,-2341.6 755,-2341.6 755,-2305.6 845,-2305.6 845,-2341.6"/>
<text text-anchor="middle" x="800" y="-2320.7" font-family="Courier,monospace" font-size="11.00">CurrentBase</text>
</g>
<!-- \\Current -->
<g id="node26" class="node"><title>\\Current</title>
<polygon fill="none" stroke="black" points="1125,-2341.6 1061,-2341.6 1061,-2305.6 1125,-2305.6 1125,-2341.6"/>
<text text-anchor="middle" x="1093" y="-2320.7" font-family="Courier,monospace" font-size="11.00">Current</text>
</g>
<!-- \\Current&#45;&gt;\\CurrentBase -->
<g id="edge45" class="edge"><title>\\Current&#45;&gt;\\CurrentBase</title>
<path fill="none" stroke="black" d="M1060.81,-2323.6C1011.48,-2323.6 916.554,-2323.6 855.846,-2323.6"/>
<polygon fill="none" stroke="black" points="855.669,-2320.1 845.669,-2323.6 855.669,-2327.1 855.669,-2320.1"/>
</g>
<!-- \\CurrentSystem -->
<g id="node27" class="node"><title>\\CurrentSystem</title>
<polygon fill="none" stroke="black" points="1145,-1963.6 1041,-1963.6 1041,-1927.6 1145,-1927.6 1145,-1963.6"/>
<text text-anchor="middle" x="1093" y="-1942.7" font-family="Courier,monospace" font-size="11.00">CurrentSystem</text>
</g>
<!-- \\CurrentPage -->
<g id="node28" class="node"><title>\\CurrentPage</title>
<polygon fill="none" stroke="black" points="1138,-1909.6 1048,-1909.6 1048,-1873.6 1138,-1873.6 1138,-1909.6"/>
<text text-anchor="middle" x="1093" y="-1888.7" font-family="Courier,monospace" font-size="11.00">CurrentPage</text>
</g>
<!-- \\CurrentFrame -->
<g id="node29" class="node"><title>\\CurrentFrame</title>
<polygon fill="none" stroke="black" points="1142,-1855.6 1044,-1855.6 1044,-1819.6 1142,-1819.6 1142,-1855.6"/>
<text text-anchor="middle" x="1093" y="-1834.7" font-family="Courier,monospace" font-size="11.00">CurrentFrame</text>
</g>
<!-- \\TokenHelper -->
<g id="node30" class="node"><title>\\TokenHelper</title>
<polygon fill="none" stroke="black" points="1138,-829.599 1048,-829.599 1048,-793.599 1138,-793.599 1138,-829.599"/>
<text text-anchor="middle" x="1093" y="-808.699" font-family="Courier,monospace" font-size="11.00">TokenHelper</text>
</g>
<!-- \\FormHelper -->
<g id="node89" class="node"><title>\\FormHelper</title>
<ellipse fill="none" stroke="black" cx="800" cy="-273.599" rx="70.9184" ry="18.3848"/>
<text text-anchor="middle" x="800" y="-269.999" font-family="Times Roman,serif" font-size="14.00" fill="gray">\FormHelper</text>
</g>
<!-- \\TokenHelper&#45;&gt;\\FormHelper -->
<g id="edge47" class="edge"><title>\\TokenHelper&#45;&gt;\\FormHelper</title>
<path fill="none" stroke="black" d="M1047.39,-810.568C1027,-807.665 1004.38,-800.633 990,-784.599 844.8,-622.693 1065.73,-460.204 918,-300.599 908.083,-289.885 894.859,-282.998 880.853,-278.649"/>
<polygon fill="none" stroke="black" points="881.628,-275.233 871.063,-276.028 879.818,-281.995 881.628,-275.233"/>
</g>
<!-- \\SingletonViewBlockHtmlHelper -->
<g id="node31" class="node"><title>\\SingletonViewBlockHtmlHelper</title>
<polygon fill="none" stroke="black" points="1196,-721.599 990,-721.599 990,-685.599 1196,-685.599 1196,-721.599"/>
<text text-anchor="middle" x="1093" y="-700.699" font-family="Courier,monospace" font-size="11.00">SingletonViewBlockHtmlHelper</text>
</g>
<!-- \\HtmlHelper -->
<g id="node91" class="node"><title>\\HtmlHelper</title>
<ellipse fill="none" stroke="black" cx="800" cy="-219.599" rx="67.1751" ry="18.3848"/>
<text text-anchor="middle" x="800" y="-215.999" font-family="Times Roman,serif" font-size="14.00" fill="gray">HtmlHelper</text>
</g>
<!-- \\SingletonViewBlockHtmlHelper&#45;&gt;\\HtmlHelper -->
<g id="edge49" class="edge"><title>\\SingletonViewBlockHtmlHelper&#45;&gt;\\HtmlHelper</title>
<path fill="none" stroke="black" d="M999.918,-685.338C996.329,-682.774 992.992,-679.875 990,-676.599 859.318,-533.527 1050.91,-387.601 918,-246.599 907.121,-235.058 892.401,-227.975 877.051,-223.725"/>
<polygon fill="none" stroke="black" points="877.444,-220.221 866.906,-221.323 875.83,-227.033 877.444,-220.221"/>
</g>
<!-- \\FormInputHelper -->
<g id="node32" class="node"><title>\\FormInputHelper</title>
<polygon fill="none" stroke="black" points="1152,-2233.6 1034,-2233.6 1034,-2197.6 1152,-2197.6 1152,-2233.6"/>
<text text-anchor="middle" x="1093" y="-2212.7" font-family="Courier,monospace" font-size="11.00">FormInputHelper</text>
</g>
<!-- \\FormInputHelper&#45;&gt;\\AppHelper -->
<g id="edge51" class="edge"><title>\\FormInputHelper&#45;&gt;\\AppHelper</title>
<path fill="none" stroke="black" d="M1033.87,-2210.29C1018.06,-2206.33 1002.03,-2199.68 990,-2188.6 834.226,-2045.1 806.135,-1766.3 801.095,-1676.91"/>
<polygon fill="none" stroke="black" points="804.581,-1676.54 800.577,-1666.73 797.59,-1676.9 804.581,-1676.54"/>
</g>
<!-- \\WizardHelper -->
<g id="node33" class="node"><title>\\WizardHelper</title>
<polygon fill="none" stroke="black" points="1142,-2179.6 1044,-2179.6 1044,-2143.6 1142,-2143.6 1142,-2179.6"/>
<text text-anchor="middle" x="1093" y="-2158.7" font-family="Courier,monospace" font-size="11.00">WizardHelper</text>
</g>
<!-- \\WizardHelper&#45;&gt;\\AppHelper -->
<g id="edge53" class="edge"><title>\\WizardHelper&#45;&gt;\\AppHelper</title>
<path fill="none" stroke="black" d="M1043.96,-2158.17C1025.19,-2154.62 1004.78,-2147.75 990,-2134.6 847.368,-2007.66 810.808,-1760.32 802.341,-1676.87"/>
<polygon fill="none" stroke="black" points="805.82,-1676.49 801.383,-1666.87 798.852,-1677.16 805.82,-1676.49"/>
</g>
<!-- \\DisplayNumberHelper -->
<g id="node34" class="node"><title>\\DisplayNumberHelper</title>
<polygon fill="none" stroke="black" points="1165,-2017.6 1021,-2017.6 1021,-1981.6 1165,-1981.6 1165,-2017.6"/>
<text text-anchor="middle" x="1093" y="-1996.7" font-family="Courier,monospace" font-size="11.00">DisplayNumberHelper</text>
</g>
<!-- \\DisplayNumberHelper&#45;&gt;\\AppHelper -->
<g id="edge55" class="edge"><title>\\DisplayNumberHelper&#45;&gt;\\AppHelper</title>
<path fill="none" stroke="black" d="M1020.4,-1988.32C1009.54,-1984.51 998.988,-1979.41 990,-1972.6 885.624,-1893.52 828.084,-1739.13 808.129,-1676.25"/>
<polygon fill="none" stroke="black" points="811.45,-1675.14 805.144,-1666.62 804.764,-1677.21 811.45,-1675.14"/>
</g>
<!-- \\MessageFlashHelper -->
<g id="node35" class="node"><title>\\MessageFlashHelper</title>
<polygon fill="none" stroke="black" points="1162,-1801.6 1024,-1801.6 1024,-1765.6 1162,-1765.6 1162,-1801.6"/>
<text text-anchor="middle" x="1093" y="-1780.7" font-family="Courier,monospace" font-size="11.00">MessageFlashHelper</text>
</g>
<!-- \\MessageFlashHelper&#45;&gt;\\AppHelper -->
<g id="edge57" class="edge"><title>\\MessageFlashHelper&#45;&gt;\\AppHelper</title>
<path fill="none" stroke="black" d="M1023.76,-1768.11C1012.32,-1764.79 1000.7,-1760.96 990,-1756.6 933.066,-1733.42 872.097,-1696.32 835.004,-1672.21"/>
<polygon fill="none" stroke="black" points="836.839,-1669.23 826.557,-1666.67 833.002,-1675.08 836.839,-1669.23"/>
</g>
<!-- \\DateHelper -->
<g id="node36" class="node"><title>\\DateHelper</title>
<polygon fill="none" stroke="black" points="1135,-1747.6 1051,-1747.6 1051,-1711.6 1135,-1711.6 1135,-1747.6"/>
<text text-anchor="middle" x="1093" y="-1726.7" font-family="Courier,monospace" font-size="11.00">DateHelper</text>
</g>
<!-- \\DateHelper&#45;&gt;\\AppHelper -->
<g id="edge59" class="edge"><title>\\DateHelper&#45;&gt;\\AppHelper</title>
<path fill="none" stroke="black" d="M1050.85,-1718.76C1032.18,-1713.9 1009.97,-1708.05 990,-1702.6 941.716,-1689.41 886.728,-1673.71 848.375,-1662.64"/>
<polygon fill="none" stroke="black" points="849.087,-1659.21 838.508,-1659.79 847.145,-1665.93 849.087,-1659.21"/>
</g>
<!-- \\SnsButtonHelper -->
<g id="node37" class="node"><title>\\SnsButtonHelper</title>
<polygon fill="none" stroke="black" points="1152,-1693.6 1034,-1693.6 1034,-1657.6 1152,-1657.6 1152,-1693.6"/>
<text text-anchor="middle" x="1093" y="-1672.7" font-family="Courier,monospace" font-size="11.00">SnsButtonHelper</text>
</g>
<!-- \\SnsButtonHelper&#45;&gt;\\AppHelper -->
<g id="edge61" class="edge"><title>\\SnsButtonHelper&#45;&gt;\\AppHelper</title>
<path fill="none" stroke="black" d="M1033.71,-1670.14C979.266,-1665.12 899.563,-1657.77 848.738,-1653.09"/>
<polygon fill="none" stroke="black" points="848.942,-1649.59 838.663,-1652.16 848.299,-1656.57 848.942,-1649.59"/>
</g>
<!-- \\BackToHelper -->
<g id="node38" class="node"><title>\\BackToHelper</title>
<polygon fill="none" stroke="black" points="1142,-1639.6 1044,-1639.6 1044,-1603.6 1142,-1603.6 1142,-1639.6"/>
<text text-anchor="middle" x="1093" y="-1618.7" font-family="Courier,monospace" font-size="11.00">BackToHelper</text>
</g>
<!-- \\BackToHelper&#45;&gt;\\AppHelper -->
<g id="edge63" class="edge"><title>\\BackToHelper&#45;&gt;\\AppHelper</title>
<path fill="none" stroke="black" d="M1043.96,-1626.12C989.78,-1631.11 903.056,-1639.1 848.925,-1644.09"/>
<polygon fill="none" stroke="black" points="848.519,-1640.61 838.882,-1645.02 849.161,-1647.58 848.519,-1640.61"/>
</g>
<!-- \\NetCommonsHtmlHelper -->
<g id="node39" class="node"><title>\\NetCommonsHtmlHelper</title>
<polygon fill="none" stroke="black" points="1169,-1585.6 1017,-1585.6 1017,-1549.6 1169,-1549.6 1169,-1585.6"/>
<text text-anchor="middle" x="1093" y="-1564.7" font-family="Courier,monospace" font-size="11.00">NetCommonsHtmlHelper</text>
</g>
<!-- \\NetCommonsHtmlHelper&#45;&gt;\\AppHelper -->
<g id="edge65" class="edge"><title>\\NetCommonsHtmlHelper&#45;&gt;\\AppHelper</title>
<path fill="none" stroke="black" d="M1023.41,-1585.63C1012.23,-1588.59 1000.79,-1591.65 990,-1594.6 941.716,-1607.79 886.728,-1623.49 848.375,-1634.55"/>
<polygon fill="none" stroke="black" points="847.145,-1631.27 838.508,-1637.4 849.087,-1637.99 847.145,-1631.27"/>
</g>
<!-- \\ButtonHelper -->
<g id="node40" class="node"><title>\\ButtonHelper</title>
<polygon fill="none" stroke="black" points="1142,-775.599 1044,-775.599 1044,-739.599 1142,-739.599 1142,-775.599"/>
<text text-anchor="middle" x="1093" y="-754.699" font-family="Courier,monospace" font-size="11.00">ButtonHelper</text>
</g>
<!-- \\ButtonHelper&#45;&gt;\\FormHelper -->
<g id="edge67" class="edge"><title>\\ButtonHelper&#45;&gt;\\FormHelper</title>
<path fill="none" stroke="black" d="M1043.82,-755.877C1024.47,-752.645 1003.65,-745.545 990,-730.599 859.318,-587.527 1050.91,-441.601 918,-300.599 907.986,-289.976 894.718,-283.13 880.698,-278.793"/>
<polygon fill="none" stroke="black" points="881.468,-275.376 870.904,-276.177 879.661,-282.139 881.468,-275.376"/>
</g>
<!-- \\ComposerHelper -->
<g id="node41" class="node"><title>\\ComposerHelper</title>
<polygon fill="none" stroke="black" points="1148,-1531.6 1038,-1531.6 1038,-1495.6 1148,-1495.6 1148,-1531.6"/>
<text text-anchor="middle" x="1093" y="-1510.7" font-family="Courier,monospace" font-size="11.00">ComposerHelper</text>
</g>
<!-- \\ComposerHelper&#45;&gt;\\AppHelper -->
<g id="edge69" class="edge"><title>\\ComposerHelper&#45;&gt;\\AppHelper</title>
<path fill="none" stroke="black" d="M1037.34,-1525.37C1021.75,-1529.42 1004.98,-1534.5 990,-1540.6 933.066,-1563.78 872.097,-1600.87 835.004,-1624.99"/>
<polygon fill="none" stroke="black" points="833.002,-1622.12 826.557,-1630.52 836.839,-1627.97 833.002,-1622.12"/>
</g>
<!-- \\LinkButtonHelper -->
<g id="node42" class="node"><title>\\LinkButtonHelper</title>
<polygon fill="none" stroke="black" points="1155,-883.599 1031,-883.599 1031,-847.599 1155,-847.599 1155,-883.599"/>
<text text-anchor="middle" x="1093" y="-862.699" font-family="Courier,monospace" font-size="11.00">LinkButtonHelper</text>
</g>
<!-- \\LinkButtonHelper&#45;&gt;\\FormHelper -->
<g id="edge71" class="edge"><title>\\LinkButtonHelper&#45;&gt;\\FormHelper</title>
<path fill="none" stroke="black" d="M1030.45,-861.313C1015.26,-857.306 1000.41,-850.374 990,-838.599 830.252,-657.827 1080.57,-478.84 918,-300.599 908.162,-289.813 894.974,-282.892 880.979,-278.534"/>
<polygon fill="none" stroke="black" points="881.757,-275.119 871.192,-275.909 879.944,-281.88 881.757,-275.119"/>
</g>
<!-- \\NetCommonsTimeHelper -->
<g id="node43" class="node"><title>\\NetCommonsTimeHelper</title>
<polygon fill="none" stroke="black" points="1169,-1477.6 1017,-1477.6 1017,-1441.6 1169,-1441.6 1169,-1477.6"/>
<text text-anchor="middle" x="1093" y="-1456.7" font-family="Courier,monospace" font-size="11.00">NetCommonsTimeHelper</text>
</g>
<!-- \\NetCommonsTimeHelper&#45;&gt;\\AppHelper -->
<g id="edge73" class="edge"><title>\\NetCommonsTimeHelper&#45;&gt;\\AppHelper</title>
<path fill="none" stroke="black" d="M1016.98,-1475.33C1007.65,-1478.47 998.439,-1482.19 990,-1486.6 921.41,-1522.41 856.097,-1587.04 822.838,-1622.89"/>
<polygon fill="none" stroke="black" points="820.033,-1620.77 815.854,-1630.51 825.192,-1625.51 820.033,-1620.77"/>
</g>
<!-- \\NetCommonsFormHelper -->
<g id="node44" class="node"><title>\\NetCommonsFormHelper</title>
<polygon fill="none" stroke="black" points="1169,-1423.6 1017,-1423.6 1017,-1387.6 1169,-1387.6 1169,-1423.6"/>
<text text-anchor="middle" x="1093" y="-1402.7" font-family="Courier,monospace" font-size="11.00">NetCommonsFormHelper</text>
</g>
<!-- \\NetCommonsFormHelper&#45;&gt;\\AppHelper -->
<g id="edge75" class="edge"><title>\\NetCommonsFormHelper&#45;&gt;\\AppHelper</title>
<path fill="none" stroke="black" d="M1016.88,-1420C1007.46,-1423.36 998.259,-1427.5 990,-1432.6 909.876,-1482.04 844.727,-1575.79 815.946,-1621.79"/>
<polygon fill="none" stroke="black" points="812.792,-1620.24 810.523,-1630.58 818.75,-1623.91 812.792,-1620.24"/>
</g>
<!-- \\TitleIconHelper -->
<g id="node45" class="node"><title>\\TitleIconHelper</title>
<polygon fill="none" stroke="black" points="1152,-1369.6 1034,-1369.6 1034,-1333.6 1152,-1333.6 1152,-1369.6"/>
<text text-anchor="middle" x="1093" y="-1348.7" font-family="Courier,monospace" font-size="11.00">TitleIconHelper</text>
</g>
<!-- \\TitleIconHelper&#45;&gt;\\AppHelper -->
<g id="edge77" class="edge"><title>\\TitleIconHelper&#45;&gt;\\AppHelper</title>
<path fill="none" stroke="black" d="M1033.8,-1359.65C1018.6,-1363.65 1002.91,-1369.64 990,-1378.6 898.034,-1442.46 835.79,-1566.07 811.457,-1621.06"/>
<polygon fill="none" stroke="black" points="808.13,-1619.94 807.356,-1630.5 814.551,-1622.73 808.13,-1619.94"/>
</g>
<!-- \\DatetimePickerHelper -->
<g id="node46" class="node"><title>\\DatetimePickerHelper</title>
<polygon fill="none" stroke="black" points="1169,-2287.6 1017,-2287.6 1017,-2251.6 1169,-2251.6 1169,-2287.6"/>
<text text-anchor="middle" x="1093" y="-2266.7" font-family="Courier,monospace" font-size="11.00">DatetimePickerHelper</text>
</g>
<!-- \\DatetimePickerHelper&#45;&gt;\\AppHelper -->
<g id="edge79" class="edge"><title>\\DatetimePickerHelper&#45;&gt;\\AppHelper</title>
<path fill="none" stroke="black" d="M1016.91,-2259.16C1006.99,-2255.21 997.646,-2249.85 990,-2242.6 903.879,-2160.94 825.926,-1783.55 805.305,-1676.8"/>
<polygon fill="none" stroke="black" points="808.705,-1675.95 803.386,-1666.78 801.83,-1677.26 808.705,-1675.95"/>
</g>
<!-- \\Model -->
<g id="node108" class="node"><title>\\Model</title>
<ellipse fill="none" stroke="black" cx="44" cy="-2674.6" rx="43.8406" ry="18.3848"/>
<text text-anchor="middle" x="44" y="-2671" font-family="Times Roman,serif" font-size="14.00" fill="gray">\Model</text>
</g>
<!-- \\NetCommonsAppModel&#45;&gt;\\Model -->
<g id="edge81" class="edge"><title>\\NetCommonsAppModel&#45;&gt;\\Model</title>
<path fill="none" stroke="black" d="M172.749,-2674.6C148.379,-2674.6 121.357,-2674.6 98.3871,-2674.6"/>
<polygon fill="none" stroke="black" points="98.1425,-2671.1 88.1425,-2674.6 98.1424,-2678.1 98.1425,-2671.1"/>
</g>
<!-- \\OriginalKeyBehavior -->
<g id="node48" class="node"><title>\\OriginalKeyBehavior</title>
<polygon fill="none" stroke="black" points="1165,-613.599 1021,-613.599 1021,-577.599 1165,-577.599 1165,-613.599"/>
<text text-anchor="middle" x="1093" y="-592.699" font-family="Courier,monospace" font-size="11.00">OriginalKeyBehavior</text>
</g>
<!-- \\ModelBehavior -->
<g id="node110" class="node"><title>\\ModelBehavior</title>
<ellipse fill="none" stroke="black" cx="800" cy="-165.599" rx="86.9741" ry="18.3848"/>
<text text-anchor="middle" x="800" y="-161.999" font-family="Times Roman,serif" font-size="14.00" fill="gray">\ModelBehavior</text>
</g>
<!-- \\OriginalKeyBehavior&#45;&gt;\\ModelBehavior -->
<g id="edge83" class="edge"><title>\\OriginalKeyBehavior&#45;&gt;\\ModelBehavior</title>
<path fill="none" stroke="black" d="M1020.25,-587.595C1008.89,-583.437 998.206,-577.376 990,-568.599 873.795,-444.315 1036.14,-315.042 918,-192.599 910.646,-184.978 901.615,-179.311 891.852,-175.124"/>
<polygon fill="none" stroke="black" points="892.89,-171.776 882.298,-171.548 890.436,-178.331 892.89,-171.776"/>
</g>
<!-- \\TrackableBehavior -->
<g id="node49" class="node"><title>\\TrackableBehavior</title>
<polygon fill="none" stroke="black" points="1158,-667.599 1028,-667.599 1028,-631.599 1158,-631.599 1158,-667.599"/>
<text text-anchor="middle" x="1093" y="-646.699" font-family="Courier,monospace" font-size="11.00">TrackableBehavior</text>
</g>
<!-- \\TrackableBehavior&#45;&gt;\\ModelBehavior -->
<g id="edge85" class="edge"><title>\\TrackableBehavior&#45;&gt;\\ModelBehavior</title>
<path fill="none" stroke="black" d="M1027.5,-644.19C1013.43,-640.081 999.849,-633.382 990,-622.599 859.318,-479.527 1050.91,-333.601 918,-192.599 910.736,-184.893 901.758,-179.174 892.025,-174.959"/>
<polygon fill="none" stroke="black" points="893.083,-171.618 882.491,-171.363 890.613,-178.167 893.083,-171.618"/>
</g>
<!-- \\YAExceptionRenderer -->
<g id="node50" class="node"><title>\\YAExceptionRenderer</title>
<polygon fill="none" stroke="black" points="1165,-559.599 1021,-559.599 1021,-523.599 1165,-523.599 1165,-559.599"/>
<text text-anchor="middle" x="1093" y="-538.699" font-family="Courier,monospace" font-size="11.00">YAExceptionRenderer</text>
</g>
<!-- \\ExceptionRenderer -->
<g id="node113" class="node"><title>\\ExceptionRenderer</title>
<ellipse fill="none" stroke="black" cx="800" cy="-111.599" rx="118.087" ry="18.3848"/>
<text text-anchor="middle" x="800" y="-107.999" font-family="Times Roman,serif" font-size="14.00" fill="gray">TEHxceptionRenderer</text>
</g>
<!-- \\YAExceptionRenderer&#45;&gt;\\ExceptionRenderer -->
<g id="edge87" class="edge"><title>\\YAExceptionRenderer&#45;&gt;\\ExceptionRenderer</title>
<path fill="none" stroke="black" d="M1020.25,-533.595C1008.89,-529.437 998.206,-523.376 990,-514.599 873.795,-390.315 1036.14,-261.042 918,-138.599 913.747,-134.191 908.932,-130.437 903.739,-127.244"/>
<polygon fill="none" stroke="black" points="905.142,-124.025 894.675,-122.386 901.836,-130.195 905.142,-124.025"/>
</g>
<!-- \\NetCommonsMigration -->
<g id="node51" class="node"><title>\\NetCommonsMigration</title>
<polygon fill="none" stroke="black" points="872,-830.599 728,-830.599 728,-794.599 872,-794.599 872,-830.599"/>
<text text-anchor="middle" x="800" y="-809.699" font-family="Courier,monospace" font-size="11.00">NetCommonsMigration</text>
</g>
<!-- \\CakeMigration -->
<g id="node115" class="node"><title>\\CakeMigration</title>
<ellipse fill="none" stroke="black" cx="503" cy="-123.599" rx="84.8528" ry="18.3848"/>
<text text-anchor="middle" x="503" y="-119.999" font-family="Times Roman,serif" font-size="14.00" fill="gray">\CakeMigration</text>
</g>
<!-- \\NetCommonsMigration&#45;&gt;\\CakeMigration -->
<g id="edge89" class="edge"><title>\\NetCommonsMigration&#45;&gt;\\CakeMigration</title>
<path fill="none" stroke="black" d="M727.215,-813.126C710.337,-809.749 693.865,-803.041 682,-790.599 520.075,-620.791 698.756,-484.802 610,-267.599 590.913,-220.889 553.132,-175.629 527.961,-148.69"/>
<polygon fill="none" stroke="black" points="530.331,-146.104 520.906,-141.265 525.257,-150.925 530.331,-146.104"/>
</g>
<!-- \\IframesController -->
<g id="node52" class="node"><title>\\IframesController</title>
<polygon fill="none" stroke="black" points="1158,-2449.6 1028,-2449.6 1028,-2413.6 1158,-2413.6 1158,-2449.6"/>
<text text-anchor="middle" x="1093" y="-2428.7" font-family="Courier,monospace" font-size="11.00">IframesController</text>
</g>
<!-- \\IframesAppController -->
<g id="node54" class="node"><title>\\IframesAppController</title>
<polygon fill="none" stroke="black" points="876,-2395.6 724,-2395.6 724,-2359.6 876,-2359.6 876,-2395.6"/>
<text text-anchor="middle" x="800" y="-2374.7" font-family="Courier,monospace" font-size="11.00">IframesAppController</text>
</g>
<!-- \\IframesController&#45;&gt;\\IframesAppController -->
<g id="edge91" class="edge"><title>\\IframesController&#45;&gt;\\IframesAppController</title>
<path fill="none" stroke="black" d="M1027.25,-2419.48C985.599,-2411.81 931.292,-2401.8 886.212,-2393.49"/>
<polygon fill="none" stroke="black" points="886.62,-2390 876.151,-2391.63 885.351,-2396.89 886.62,-2390"/>
</g>
<!-- \\IframeBlocksController -->
<g id="node53" class="node"><title>\\IframeBlocksController</title>
<polygon fill="none" stroke="black" points="1175,-2395.6 1011,-2395.6 1011,-2359.6 1175,-2359.6 1175,-2395.6"/>
<text text-anchor="middle" x="1093" y="-2374.7" font-family="Courier,monospace" font-size="11.00">IframeBlocksController</text>
</g>
<!-- \\IframeBlocksController&#45;&gt;\\IframesAppController -->
<g id="edge93" class="edge"><title>\\IframeBlocksController&#45;&gt;\\IframesAppController</title>
<path fill="none" stroke="black" d="M1010.21,-2377.6C971.532,-2377.6 925.492,-2377.6 886.373,-2377.6"/>
<polygon fill="none" stroke="black" points="886.062,-2374.1 876.062,-2377.6 886.062,-2381.1 886.062,-2374.1"/>
</g>
<!-- \\IframesAppController&#45;&gt;\\AppController -->
<g id="edge95" class="edge"><title>\\IframesAppController&#45;&gt;\\AppController</title>
<path fill="none" stroke="black" d="M723.763,-2373.47C708.177,-2369.25 693.153,-2362.18 682,-2350.6 550.613,-2214.18 511.472,-1576.99 504.306,-1434.79"/>
<polygon fill="none" stroke="black" points="507.797,-1434.52 503.81,-1424.7 500.806,-1434.86 507.797,-1434.52"/>
</g>
<!-- \\Iframe -->
<g id="node55" class="node"><title>\\Iframe</title>
<polygon fill="none" stroke="black" points="1121,-2719.6 1065,-2719.6 1065,-2683.6 1121,-2683.6 1121,-2719.6"/>
<text text-anchor="middle" x="1093" y="-2698.7" font-family="Courier,monospace" font-size="11.00">Iframe</text>
</g>
<!-- \\IframesAppModel -->
<g id="node56" class="node"><title>\\IframesAppModel</title>
<polygon fill="none" stroke="black" points="859,-2719.6 741,-2719.6 741,-2683.6 859,-2683.6 859,-2719.6"/>
<text text-anchor="middle" x="800" y="-2698.7" font-family="Courier,monospace" font-size="11.00">IframesAppModel</text>
</g>
<!-- \\Iframe&#45;&gt;\\IframesAppModel -->
<g id="edge97" class="edge"><title>\\Iframe&#45;&gt;\\IframesAppModel</title>
<path fill="none" stroke="black" d="M1064.37,-2701.6C1019.5,-2701.6 931.3,-2701.6 869.148,-2701.6"/>
<polygon fill="none" stroke="black" points="869.022,-2698.1 859.022,-2701.6 869.022,-2705.1 869.022,-2698.1"/>
</g>
<!-- \\IframesAppModel&#45;&gt;\\AppModel -->
<g id="edge99" class="edge"><title>\\IframesAppModel&#45;&gt;\\AppModel</title>
<path fill="none" stroke="black" d="M740.967,-2696.23C684.467,-2691.1 600.418,-2683.46 548.804,-2678.76"/>
<polygon fill="none" stroke="black" points="548.894,-2675.26 538.618,-2677.84 548.26,-2682.23 548.894,-2675.26"/>
</g>
<!-- \\IframesSchema -->
<g id="node57" class="node"><title>\\IframesSchema</title>
<polygon fill="none" stroke="black" points="1145,-505.599 1041,-505.599 1041,-469.599 1145,-469.599 1145,-505.599"/>
<text text-anchor="middle" x="1093" y="-484.699" font-family="Courier,monospace" font-size="11.00">IframesSchema</text>
</g>
<!-- \\CakeSchema -->
<g id="node122" class="node"><title>\\CakeSchema</title>
<ellipse fill="none" stroke="black" cx="800" cy="-57.5994" rx="77.0746" ry="18.3848"/>
<text text-anchor="middle" x="800" y="-53.9994" font-family="Times Roman,serif" font-size="14.00" fill="gray">\CakeSchema</text>
</g>
<!-- \\IframesSchema&#45;&gt;\\CakeSchema -->
<g id="edge101" class="edge"><title>\\IframesSchema&#45;&gt;\\CakeSchema</title>
<path fill="none" stroke="black" d="M1040.81,-485.149C1022.4,-481.664 1003.07,-474.575 990,-460.599 873.795,-336.315 1036.14,-207.042 918,-84.5994 908.93,-75.1992 897.308,-68.772 884.908,-64.4284"/>
<polygon fill="none" stroke="black" points="885.89,-61.0686 875.304,-61.4981 883.847,-67.764 885.89,-61.0686"/>
</g>
<!-- \\Init -->
<g id="node58" class="node"><title>\\Init</title>
<polygon fill="none" stroke="black" points="1120,-451.599 1066,-451.599 1066,-415.599 1120,-415.599 1120,-451.599"/>
<text text-anchor="middle" x="1093" y="-430.699" font-family="Courier,monospace" font-size="11.00">Init</text>
</g>
<!-- \\Init&#45;&gt;\\CakeMigration -->
<g id="edge103" class="edge"><title>\\Init&#45;&gt;\\CakeMigration</title>
<path fill="none" stroke="black" d="M1091.73,-415.171C1086.05,-348.869 1056.72,-121.596 918,-30.5994 794.601,50.3467 610.913,-51.7982 536.301,-100.477"/>
<polygon fill="none" stroke="black" points="534.163,-97.6953 527.755,-106.133 538.026,-103.533 534.163,-97.6953"/>
</g>
<!-- \\PluginRecords -->
<g id="node59" class="node"><title>\\PluginRecords</title>
<polygon fill="none" stroke="black" points="1145,-1207.6 1041,-1207.6 1041,-1171.6 1145,-1171.6 1145,-1207.6"/>
<text text-anchor="middle" x="1093" y="-1186.7" font-family="Courier,monospace" font-size="11.00">PluginRecords</text>
</g>
<!-- \\PluginRecords&#45;&gt;\\NetCommonsMigration -->
<g id="edge105" class="edge"><title>\\PluginRecords&#45;&gt;\\NetCommonsMigration</title>
<path fill="none" stroke="black" d="M1040.81,-1184.39C1023.26,-1180.55 1004.48,-1173.95 990,-1162.6 879.731,-1076.15 824.977,-907.233 806.947,-840.594"/>
<polygon fill="none" stroke="black" points="810.3,-839.582 804.366,-830.805 803.532,-841.367 810.3,-839.582"/>
</g>
</g>
</svg>
