<?xml version="1.0" encoding="UTF-8" standalone="no"?>
<!DOCTYPE svg PUBLIC "-//W3C//DTD SVG 1.1//EN"
 "http://www.w3.org/Graphics/SVG/1.1/DTD/svg11.dtd">
<!-- Generated by graphviz version 2.26.3 (20100126.1600)
 -->
<!-- Title: G Pages: 1 -->
<svg width="1220pt" height="2820pt"
 viewBox="0.00 0.00 1220.00 2819.60" xmlns="http://www.w3.org/2000/svg" xmlns:xlink="http://www.w3.org/1999/xlink">
<g id="graph1" class="graph" transform="scale(1 1) rotate(0) translate(4 2815.6)">
<title>G</title>
<polygon fill="white" stroke="white" points="-4,5 -4,-2815.6 1217,-2815.6 1217,5 -4,5"/>
<g id="graph2" class="cluster"><title>cluster_Global</title>
<polyline fill="none" stroke="gray" points="177,-407.599 1192,-407.599 "/>
<path fill="none" stroke="gray" d="M1192,-407.599C1198,-407.599 1204,-413.599 1204,-419.599"/>
<polyline fill="none" stroke="gray" points="1204,-419.599 1204,-2791.6 "/>
<path fill="none" stroke="gray" d="M1204,-2791.6C1204,-2797.6 1198,-2803.6 1192,-2803.6"/>
<polyline fill="none" stroke="gray" points="1192,-2803.6 177,-2803.6 "/>
<path fill="none" stroke="gray" d="M177,-2803.6C171,-2803.6 165,-2797.6 165,-2791.6"/>
<polyline fill="none" stroke="gray" points="165,-2791.6 165,-419.599 "/>
<path fill="none" stroke="gray" d="M165,-419.599C165,-413.599 171,-407.599 177,-407.599"/>
<text text-anchor="middle" x="684.5" y="-2789.7" font-family="Times Roman,serif" font-size="11.00" fill="gray">Global</text>
</g>
<!-- \\AppController -->
<g id="node2" class="node"><title>\\AppController</title>
<polygon fill="none" stroke="black" points="555,-1451.6 451,-1451.6 451,-1415.6 555,-1415.6 555,-1451.6"/>
<text text-anchor="middle" x="503" y="-1430.7" font-family="Courier,monospace" font-size="11.00">AppController</text>
</g>
<!-- \\Controller -->
<g id="node62" class="node"><title>\\Controller</title>
<ellipse fill="none" stroke="black" cx="242" cy="-304.599" rx="63.1385" ry="18.3848"/>
<text text-anchor="middle" x="242" y="-300.999" font-family="Times Roman,serif" font-size="14.00" fill="gray">\Controller</text>
</g>
<!-- \\AppController&#45;&gt;\\Controller -->
<g id="edge3" class="edge"><title>\\AppController&#45;&gt;\\Controller</title>
<path fill="none" stroke="black" d="M450.851,-1435.54C430.82,-1433.41 409.537,-1427.1 396,-1411.6 241.111,-1234.29 446.178,-555.849 324,-354.599 316.056,-341.513 303.262,-331.383 290.12,-323.77"/>
<polygon fill="none" stroke="black" points="291.489,-320.533 281.021,-318.897 288.184,-326.704 291.489,-320.533"/>
</g>
<!-- \\AppModel -->
<g id="node3" class="node"><title>\\AppModel</title>
<polygon fill="none" stroke="black" points="538,-2746.6 468,-2746.6 468,-2710.6 538,-2710.6 538,-2746.6"/>
<text text-anchor="middle" x="503" y="-2725.7" font-family="Courier,monospace" font-size="11.00">AppModel</text>
</g>
<!-- \\NetCommonsAppModel -->
<g id="node48" class="node"><title>\\NetCommonsAppModel</title>
<polygon fill="none" stroke="black" points="311,-2746.6 173,-2746.6 173,-2710.6 311,-2710.6 311,-2746.6"/>
<text text-anchor="middle" x="242" y="-2725.7" font-family="Courier,monospace" font-size="11.00">NetCommonsAppModel</text>
</g>
<!-- \\AppModel&#45;&gt;\\NetCommonsAppModel -->
<g id="edge5" class="edge"><title>\\AppModel&#45;&gt;\\NetCommonsAppModel</title>
<path fill="none" stroke="black" d="M467.256,-2728.6C429.848,-2728.6 369.903,-2728.6 321.254,-2728.6"/>
<polygon fill="none" stroke="black" points="321.056,-2725.1 311.056,-2728.6 321.056,-2732.1 321.056,-2725.1"/>
</g>
<!-- \\DatabaseConfiguration -->
<g id="node4" class="node"><title>\\DatabaseConfiguration</title>
<polygon fill="none" stroke="black" points="879,-2719.6 721,-2719.6 721,-2683.6 879,-2683.6 879,-2719.6"/>
<text text-anchor="middle" x="800" y="-2698.7" font-family="Courier,monospace" font-size="11.00">DatabaseConfiguration</text>
</g>
<!-- \\DatabaseConfiguration&#45;&gt;\\AppModel -->
<g id="edge7" class="edge"><title>\\DatabaseConfiguration&#45;&gt;\\AppModel</title>
<path fill="none" stroke="black" d="M720.8,-2708.8C665.959,-2713.78 594.863,-2720.25 549.084,-2724.41"/>
<polygon fill="none" stroke="black" points="548.509,-2720.95 538.867,-2725.34 549.143,-2727.92 548.509,-2720.95"/>
</g>
<!-- \\AppHelper -->
<g id="node5" class="node"><title>\\AppHelper</title>
<polygon fill="none" stroke="black" points="838,-1693.6 762,-1693.6 762,-1657.6 838,-1657.6 838,-1693.6"/>
<text text-anchor="middle" x="800" y="-1672.7" font-family="Courier,monospace" font-size="11.00">AppHelper</text>
</g>
<!-- \\Helper -->
<g id="node66" class="node"><title>\\Helper</title>
<ellipse fill="none" stroke="black" cx="503" cy="-381.599" rx="43.8406" ry="18.3848"/>
<text text-anchor="middle" x="503" y="-377.999" font-family="Times Roman,serif" font-size="14.00" fill="gray">Helper</text>
</g>
<!-- \\AppHelper&#45;&gt;\\Helper -->
<g id="edge9" class="edge"><title>\\AppHelper&#45;&gt;\\Helper</title>
<path fill="none" stroke="black" d="M792.086,-1657.4C770.212,-1606.17 708.783,-1455.94 682,-1324.6 661.49,-1224.02 677.915,-480.564 610,-403.599 596.75,-388.584 576.226,-382.212 556.683,-379.909"/>
<polygon fill="none" stroke="black" points="556.857,-376.411 546.596,-379.051 556.264,-383.386 556.857,-376.411"/>
</g>
<!-- \\NetCommonsDeleteTest -->
<g id="node6" class="node"><title>\\NetCommonsDeleteTest</title>
<polygon fill="none" stroke="black" points="1169,-2557.6 1017,-2557.6 1017,-2521.6 1169,-2521.6 1169,-2557.6"/>
<text text-anchor="middle" x="1093" y="-2536.7" font-family="Courier,monospace" font-size="11.00">NetCommonsDeleteTest</text>
</g>
<!-- \\NetCommonsModelTestCase -->
<g id="node15" class="node"><title>\\NetCommonsModelTestCase</title>
<polygon fill="none" stroke="black" points="886,-2557.6 714,-2557.6 714,-2521.6 886,-2521.6 886,-2557.6"/>
<text text-anchor="middle" x="800" y="-2536.7" font-family="Courier,monospace" font-size="11.00">NetCommonsModelTestCase</text>
</g>
<!-- \\NetCommonsDeleteTest&#45;&gt;\\NetCommonsModelTestCase -->
<g id="edge11" class="edge"><title>\\NetCommonsDeleteTest&#45;&gt;\\NetCommonsModelTestCase</title>
<path fill="none" stroke="black" d="M1016.78,-2539.6C980.049,-2539.6 935.59,-2539.6 896.519,-2539.6"/>
<polygon fill="none" stroke="black" points="896.183,-2536.1 886.183,-2539.6 896.183,-2543.1 896.183,-2536.1"/>
</g>
<!-- \\NetCommonsConsoleTestCase -->
<g id="node7" class="node"><title>\\NetCommonsConsoleTestCase</title>
<polygon fill="none" stroke="black" points="892,-2665.6 708,-2665.6 708,-2629.6 892,-2629.6 892,-2665.6"/>
<text text-anchor="middle" x="800" y="-2644.7" font-family="Courier,monospace" font-size="11.00">NetCommonsConsoleTestCase</text>
</g>
<!-- \\NetCommonsCakeTestCase -->
<g id="node13" class="node"><title>\\NetCommonsCakeTestCase</title>
<polygon fill="none" stroke="black" points="585,-2584.6 421,-2584.6 421,-2548.6 585,-2548.6 585,-2584.6"/>
<text text-anchor="middle" x="503" y="-2563.7" font-family="Courier,monospace" font-size="11.00">NetCommonsCakeTestCase</text>
</g>
<!-- \\NetCommonsConsoleTestCase&#45;&gt;\\NetCommonsCakeTestCase -->
<g id="edge13" class="edge"><title>\\NetCommonsConsoleTestCase&#45;&gt;\\NetCommonsCakeTestCase</title>
<path fill="none" stroke="black" d="M717.936,-2629.58C705.852,-2626.71 693.579,-2623.67 682,-2620.6 644.303,-2610.61 602.565,-2598.11 568.882,-2587.65"/>
<polygon fill="none" stroke="black" points="569.742,-2584.25 559.154,-2584.61 567.658,-2590.93 569.742,-2584.25"/>
</g>
<!-- \\NetCommonsGetTest -->
<g id="node8" class="node"><title>\\NetCommonsGetTest</title>
<polygon fill="none" stroke="black" points="1158,-2719.6 1028,-2719.6 1028,-2683.6 1158,-2683.6 1158,-2719.6"/>
<text text-anchor="middle" x="1093" y="-2698.7" font-family="Courier,monospace" font-size="11.00">NetCommonsGetTest</text>
</g>
<!-- \\NetCommonsGetTest&#45;&gt;\\NetCommonsModelTestCase -->
<g id="edge15" class="edge"><title>\\NetCommonsGetTest&#45;&gt;\\NetCommonsModelTestCase</title>
<path fill="none" stroke="black" d="M1027.46,-2692.03C1014.26,-2688.07 1001.06,-2682.49 990,-2674.6 943.034,-2641.1 965.486,-2599.36 918,-2566.6 911.099,-2561.84 903.484,-2557.91 895.545,-2554.66"/>
<polygon fill="none" stroke="black" points="896.692,-2551.35 886.099,-2551.15 894.256,-2557.92 896.692,-2551.35"/>
</g>
<!-- \\NetCommonsHelperTestCase -->
<g id="node9" class="node"><title>\\NetCommonsHelperTestCase</title>
<polygon fill="none" stroke="black" points="889,-2611.6 711,-2611.6 711,-2575.6 889,-2575.6 889,-2611.6"/>
<text text-anchor="middle" x="800" y="-2590.7" font-family="Courier,monospace" font-size="11.00">NetCommonsHelperTestCase</text>
</g>
<!-- \\NetCommonsHelperTestCase&#45;&gt;\\NetCommonsCakeTestCase -->
<g id="edge17" class="edge"><title>\\NetCommonsHelperTestCase&#45;&gt;\\NetCommonsCakeTestCase</title>
<path fill="none" stroke="black" d="M710.487,-2585.46C674.267,-2582.17 632.456,-2578.37 595.9,-2575.04"/>
<polygon fill="none" stroke="black" points="596.013,-2571.54 585.737,-2574.12 595.379,-2578.51 596.013,-2571.54"/>
</g>
<!-- \\NetCommonsControllerBaseTestCase -->
<g id="node10" class="node"><title>\\NetCommonsControllerBaseTestCase</title>
<polygon fill="none" stroke="black" points="916,-1315.6 684,-1315.6 684,-1279.6 916,-1279.6 916,-1315.6"/>
<text text-anchor="middle" x="800" y="-1294.7" font-family="Courier,monospace" font-size="11.00">NetCommonsControllerBaseTestCase</text>
</g>
<!-- \\ControllerTestCase -->
<g id="node72" class="node"><title>\\ControllerTestCase</title>
<ellipse fill="none" stroke="black" cx="503" cy="-327.599" rx="106.773" ry="18.3848"/>
<text text-anchor="middle" x="503" y="-323.999" font-family="Times Roman,serif" font-size="14.00" fill="gray">\ControllerTestCase</text>
</g>
<!-- \\NetCommonsControllerBaseTestCase&#45;&gt;\\ControllerTestCase -->
<g id="edge19" class="edge"><title>\\NetCommonsControllerBaseTestCase&#45;&gt;\\ControllerTestCase</title>
<path fill="none" stroke="black" d="M691.542,-1279.56C688.089,-1276.91 684.884,-1273.94 682,-1270.6 548.574,-1116.04 741.699,-510.632 610,-354.599 606.37,-350.299 602.164,-346.629 597.563,-343.503"/>
<polygon fill="none" stroke="black" points="599.292,-340.46 588.891,-338.444 595.765,-346.507 599.292,-340.46"/>
</g>
<!-- \\NetCommonsValidateTest -->
<g id="node11" class="node"><title>\\NetCommonsValidateTest</title>
<polygon fill="none" stroke="black" points="1175,-2665.6 1011,-2665.6 1011,-2629.6 1175,-2629.6 1175,-2665.6"/>
<text text-anchor="middle" x="1093" y="-2644.7" font-family="Courier,monospace" font-size="11.00">NetCommonsValidateTest</text>
</g>
<!-- \\NetCommonsValidateTest&#45;&gt;\\NetCommonsModelTestCase -->
<g id="edge21" class="edge"><title>\\NetCommonsValidateTest&#45;&gt;\\NetCommonsModelTestCase</title>
<path fill="none" stroke="black" d="M1011.79,-2629.53C1004.28,-2626.9 996.908,-2623.94 990,-2620.6 953.981,-2603.2 954.288,-2583.43 918,-2566.6 910.962,-2563.34 903.501,-2560.45 895.884,-2557.91"/>
<polygon fill="none" stroke="black" points="896.762,-2554.51 886.173,-2554.86 894.666,-2561.19 896.762,-2554.51"/>
</g>
<!-- \\NetCommonsTestSuite -->
<g id="node12" class="node"><title>\\NetCommonsTestSuite</title>
<polygon fill="none" stroke="black" points="1165,-1153.6 1021,-1153.6 1021,-1117.6 1165,-1117.6 1165,-1153.6"/>
<text text-anchor="middle" x="1093" y="-1132.7" font-family="Courier,monospace" font-size="11.00">NetCommonsTestSuite</text>
</g>
<!-- \\CakeTestSuite -->
<g id="node75" class="node"><title>\\CakeTestSuite</title>
<ellipse fill="none" stroke="black" cx="800" cy="-381.599" rx="84.1457" ry="18.3848"/>
<text text-anchor="middle" x="800" y="-377.999" font-family="Times Roman,serif" font-size="14.00" fill="gray">\CakeTestSuite</text>
</g>
<!-- \\NetCommonsTestSuite&#45;&gt;\\CakeTestSuite -->
<g id="edge23" class="edge"><title>\\NetCommonsTestSuite&#45;&gt;\\CakeTestSuite</title>
<path fill="none" stroke="black" d="M1020.38,-1128.47C1008.79,-1124.25 997.995,-1117.94 990,-1108.6 887.575,-988.977 1024.67,-519.456 918,-403.599 911.119,-396.126 902.58,-390.7 893.263,-386.815"/>
<polygon fill="none" stroke="black" points="894.315,-383.474 883.72,-383.423 891.97,-390.07 894.315,-383.474"/>
</g>
<!-- \\CakeTestCase -->
<g id="node77" class="node"><title>\\CakeTestCase</title>
<ellipse fill="none" stroke="black" cx="242" cy="-381.599" rx="82.0244" ry="18.3848"/>
<text text-anchor="middle" x="242" y="-377.999" font-family="Times Roman,serif" font-size="14.00" fill="gray">\CakeTestCase</text>
</g>
<!-- \\NetCommonsCakeTestCase&#45;&gt;\\CakeTestCase -->
<g id="edge25" class="edge"><title>\\NetCommonsCakeTestCase&#45;&gt;\\CakeTestCase</title>
<path fill="none" stroke="black" d="M501.041,-2548.38C489.772,-2443.17 432.443,-1902.79 396,-1460.6 386.331,-1343.28 398.781,-494.512 324,-403.599 322.279,-401.508 320.383,-399.603 318.346,-397.869"/>
<polygon fill="none" stroke="black" points="320.073,-394.808 309.858,-391.994 316.089,-400.564 320.073,-394.808"/>
</g>
<!-- \\NetCommonsSaveTest -->
<g id="node14" class="node"><title>\\NetCommonsSaveTest</title>
<polygon fill="none" stroke="black" points="1162,-2611.6 1024,-2611.6 1024,-2575.6 1162,-2575.6 1162,-2611.6"/>
<text text-anchor="middle" x="1093" y="-2590.7" font-family="Courier,monospace" font-size="11.00">NetCommonsSaveTest</text>
</g>
<!-- \\NetCommonsSaveTest&#45;&gt;\\NetCommonsModelTestCase -->
<g id="edge27" class="edge"><title>\\NetCommonsSaveTest&#45;&gt;\\NetCommonsModelTestCase</title>
<path fill="none" stroke="black" d="M1023.93,-2580.87C985.795,-2573.84 937.829,-2565 896.084,-2557.31"/>
<polygon fill="none" stroke="black" points="896.641,-2553.85 886.172,-2555.48 895.372,-2560.74 896.641,-2553.85"/>
</g>
<!-- \\NetCommonsModelTestCase&#45;&gt;\\NetCommonsCakeTestCase -->
<g id="edge29" class="edge"><title>\\NetCommonsModelTestCase&#45;&gt;\\NetCommonsCakeTestCase</title>
<path fill="none" stroke="black" d="M713.696,-2547.45C676.671,-2550.81 633.35,-2554.75 595.65,-2558.18"/>
<polygon fill="none" stroke="black" points="595.328,-2554.69 585.686,-2559.08 595.962,-2561.66 595.328,-2554.69"/>
</g>
<!-- \\NetCommonsControllerTestCase -->
<g id="node16" class="node"><title>\\NetCommonsControllerTestCase</title>
<polygon fill="none" stroke="black" points="1196,-1315.6 990,-1315.6 990,-1279.6 1196,-1279.6 1196,-1315.6"/>
<text text-anchor="middle" x="1093" y="-1294.7" font-family="Courier,monospace" font-size="11.00">NetCommonsControllerTestCase</text>
</g>
<!-- \\NetCommonsControllerTestCase&#45;&gt;\\NetCommonsControllerBaseTestCase -->
<g id="edge31" class="edge"><title>\\NetCommonsControllerTestCase&#45;&gt;\\NetCommonsControllerBaseTestCase</title>
<path fill="none" stroke="black" d="M989.699,-1297.6C969.381,-1297.6 947.845,-1297.6 926.858,-1297.6"/>
<polygon fill="none" stroke="black" points="926.606,-1294.1 916.606,-1297.6 926.606,-1301.1 926.606,-1294.1"/>
</g>
<!-- \\NetCommonsAppController -->
<g id="node17" class="node"><title>\\NetCommonsAppController</title>
<polygon fill="none" stroke="black" points="886,-1261.6 714,-1261.6 714,-1225.6 886,-1225.6 886,-1261.6"/>
<text text-anchor="middle" x="800" y="-1240.7" font-family="Courier,monospace" font-size="11.00">NetCommonsAppController</text>
</g>
<!-- \\NetCommonsAppController&#45;&gt;\\Controller -->
<g id="edge33" class="edge"><title>\\NetCommonsAppController&#45;&gt;\\Controller</title>
<path fill="none" stroke="black" d="M793.582,-1225.33C773.945,-1168.76 714.062,-991.152 682,-839.599 656.989,-721.374 700.929,-380.19 610,-300.599 520.21,-222.006 365.571,-260.216 288.491,-286.633"/>
<polygon fill="none" stroke="black" points="287.317,-283.336 279.038,-289.948 289.633,-289.942 287.317,-283.336"/>
</g>
<!-- \\AssetComponent -->
<g id="node18" class="node"><title>\\AssetComponent</title>
<polygon fill="none" stroke="black" points="1148,-1045.6 1038,-1045.6 1038,-1009.6 1148,-1009.6 1148,-1045.6"/>
<text text-anchor="middle" x="1093" y="-1024.7" font-family="Courier,monospace" font-size="11.00">AssetComponent</text>
</g>
<!-- \\Component -->
<g id="node83" class="node"><title>\\Component</title>
<ellipse fill="none" stroke="black" cx="800" cy="-327.599" rx="70.9184" ry="18.3848"/>
<text text-anchor="middle" x="800" y="-323.999" font-family="Times Roman,serif" font-size="14.00" fill="gray">\Component</text>
</g>
<!-- \\AssetComponent&#45;&gt;\\Component -->
<g id="edge35" class="edge"><title>\\AssetComponent&#45;&gt;\\Component</title>
<path fill="none" stroke="black" d="M1037.26,-1025.1C1019.72,-1021.48 1001.85,-1014.31 990,-1000.6 801.099,-782.029 1110.31,-570.175 918,-354.599 908.225,-343.641 894.994,-336.654 880.924,-332.286"/>
<polygon fill="none" stroke="black" points="881.644,-328.856 871.08,-329.663 879.842,-335.62 881.644,-328.856"/>
</g>
<!-- \\NetCommonsTimeComponent -->
<g id="node19" class="node"><title>\\NetCommonsTimeComponent</title>
<polygon fill="none" stroke="black" points="1179,-991.599 1007,-991.599 1007,-955.599 1179,-955.599 1179,-991.599"/>
<text text-anchor="middle" x="1093" y="-970.699" font-family="Courier,monospace" font-size="11.00">NetCommonsTimeComponent</text>
</g>
<!-- \\NetCommonsTimeComponent&#45;&gt;\\Component -->
<g id="edge37" class="edge"><title>\\NetCommonsTimeComponent&#45;&gt;\\Component</title>
<path fill="none" stroke="black" d="M1006.66,-959.995C1000.43,-956.433 994.742,-952.03 990,-946.599 815.683,-746.937 1095.43,-551.498 918,-354.599 908.227,-343.754 895.069,-336.806 881.082,-332.44"/>
<polygon fill="none" stroke="black" points="881.864,-329.026 871.298,-329.813 880.049,-335.786 881.864,-329.026"/>
</g>
<!-- \\PermissionComponent -->
<g id="node20" class="node"><title>\\PermissionComponent</title>
<polygon fill="none" stroke="black" points="1165,-937.599 1021,-937.599 1021,-901.599 1165,-901.599 1165,-937.599"/>
<text text-anchor="middle" x="1093" y="-916.699" font-family="Courier,monospace" font-size="11.00">PermissionComponent</text>
</g>
<!-- \\PermissionComponent&#45;&gt;\\Component -->
<g id="edge39" class="edge"><title>\\PermissionComponent&#45;&gt;\\Component</title>
<path fill="none" stroke="black" d="M1020.36,-912.166C1008.84,-907.965 998.079,-901.742 990,-892.599 830.252,-711.827 1080.57,-532.84 918,-354.599 908.162,-343.813 894.974,-336.892 880.979,-332.534"/>
<polygon fill="none" stroke="black" points="881.757,-329.119 871.192,-329.909 879.944,-335.88 881.757,-329.119"/>
</g>
<!-- \\NetCommonsComponent -->
<g id="node21" class="node"><title>\\NetCommonsComponent</title>
<polygon fill="none" stroke="black" points="1165,-1099.6 1021,-1099.6 1021,-1063.6 1165,-1063.6 1165,-1099.6"/>
<text text-anchor="middle" x="1093" y="-1078.7" font-family="Courier,monospace" font-size="11.00">NetCommonsComponent</text>
</g>
<!-- \\NetCommonsComponent&#45;&gt;\\Component -->
<g id="edge41" class="edge"><title>\\NetCommonsComponent&#45;&gt;\\Component</title>
<path fill="none" stroke="black" d="M1020.39,-1074.46C1008.79,-1070.24 997.999,-1063.93 990,-1054.6 786.502,-817.107 1125.2,-588.865 918,-354.599 908.271,-343.6 895.062,-336.594 880.998,-332.22"/>
<polygon fill="none" stroke="black" points="881.72,-328.79 871.156,-329.596 879.917,-335.554 881.72,-328.79"/>
</g>
<!-- \\NetCommonsController -->
<g id="node22" class="node"><title>\\NetCommonsController</title>
<polygon fill="none" stroke="black" points="1169,-1261.6 1017,-1261.6 1017,-1225.6 1169,-1225.6 1169,-1261.6"/>
<text text-anchor="middle" x="1093" y="-1240.7" font-family="Courier,monospace" font-size="11.00">NetCommonsController</text>
</g>
<!-- \\NetCommonsController&#45;&gt;\\NetCommonsAppController -->
<g id="edge43" class="edge"><title>\\NetCommonsController&#45;&gt;\\NetCommonsAppController</title>
<path fill="none" stroke="black" d="M1016.78,-1243.6C980.049,-1243.6 935.59,-1243.6 896.519,-1243.6"/>
<polygon fill="none" stroke="black" points="896.183,-1240.1 886.183,-1243.6 896.183,-1247.1 896.183,-1240.1"/>
</g>
<!-- \\NetCommonsUrl -->
<g id="node23" class="node"><title>\\NetCommonsUrl</title>
<polygon fill="none" stroke="black" points="1145,-2179.6 1041,-2179.6 1041,-2143.6 1145,-2143.6 1145,-2179.6"/>
<text text-anchor="middle" x="1093" y="-2158.7" font-family="Courier,monospace" font-size="11.00">NetCommonsUrl</text>
</g>
<!-- \\NetCommonsTime -->
<g id="node24" class="node"><title>\\NetCommonsTime</title>
<polygon fill="none" stroke="black" points="1148,-2125.6 1038,-2125.6 1038,-2089.6 1148,-2089.6 1148,-2125.6"/>
<text text-anchor="middle" x="1093" y="-2104.7" font-family="Courier,monospace" font-size="11.00">NetCommonsTime</text>
</g>
<!-- \\CurrentBase -->
<g id="node25" class="node"><title>\\CurrentBase</title>
<polygon fill="none" stroke="black" points="845,-2395.6 755,-2395.6 755,-2359.6 845,-2359.6 845,-2395.6"/>
<text text-anchor="middle" x="800" y="-2374.7" font-family="Courier,monospace" font-size="11.00">CurrentBase</text>
</g>
<!-- \\Current -->
<g id="node26" class="node"><title>\\Current</title>
<polygon fill="none" stroke="black" points="1125,-2395.6 1061,-2395.6 1061,-2359.6 1125,-2359.6 1125,-2395.6"/>
<text text-anchor="middle" x="1093" y="-2374.7" font-family="Courier,monospace" font-size="11.00">Current</text>
</g>
<!-- \\Current&#45;&gt;\\CurrentBase -->
<g id="edge45" class="edge"><title>\\Current&#45;&gt;\\CurrentBase</title>
<path fill="none" stroke="black" d="M1060.81,-2377.6C1011.48,-2377.6 916.554,-2377.6 855.846,-2377.6"/>
<polygon fill="none" stroke="black" points="855.669,-2374.1 845.669,-2377.6 855.669,-2381.1 855.669,-2374.1"/>
</g>
<!-- \\CurrentSystem -->
<g id="node27" class="node"><title>\\CurrentSystem</title>
<polygon fill="none" stroke="black" points="1145,-2017.6 1041,-2017.6 1041,-1981.6 1145,-1981.6 1145,-2017.6"/>
<text text-anchor="middle" x="1093" y="-1996.7" font-family="Courier,monospace" font-size="11.00">CurrentSystem</text>
</g>
<!-- \\CurrentPage -->
<g id="node28" class="node"><title>\\CurrentPage</title>
<polygon fill="none" stroke="black" points="1138,-1963.6 1048,-1963.6 1048,-1927.6 1138,-1927.6 1138,-1963.6"/>
<text text-anchor="middle" x="1093" y="-1942.7" font-family="Courier,monospace" font-size="11.00">CurrentPage</text>
</g>
<!-- \\CurrentFrame -->
<g id="node29" class="node"><title>\\CurrentFrame</title>
<polygon fill="none" stroke="black" points="1142,-1909.6 1044,-1909.6 1044,-1873.6 1142,-1873.6 1142,-1909.6"/>
<text text-anchor="middle" x="1093" y="-1888.7" font-family="Courier,monospace" font-size="11.00">CurrentFrame</text>
</g>
<!-- \\TokenHelper -->
<g id="node30" class="node"><title>\\TokenHelper</title>
<polygon fill="none" stroke="black" points="1138,-775.599 1048,-775.599 1048,-739.599 1138,-739.599 1138,-775.599"/>
<text text-anchor="middle" x="1093" y="-754.699" font-family="Courier,monospace" font-size="11.00">TokenHelper</text>
</g>
<!-- \\FormHelper -->
<g id="node90" class="node"><title>\\FormHelper</title>
<ellipse fill="none" stroke="black" cx="800" cy="-273.599" rx="70.9184" ry="18.3848"/>
<text text-anchor="middle" x="800" y="-269.999" font-family="Times Roman,serif" font-size="14.00" fill="gray">\FormHelper</text>
</g>
<!-- \\TokenHelper&#45;&gt;\\FormHelper -->
<g id="edge47" class="edge"><title>\\TokenHelper&#45;&gt;\\FormHelper</title>
<path fill="none" stroke="black" d="M1047.25,-756.412C1026.97,-753.461 1004.46,-746.433 990,-730.599 859.318,-587.527 1050.91,-441.601 918,-300.599 907.986,-289.976 894.718,-283.13 880.698,-278.793"/>
<polygon fill="none" stroke="black" points="881.468,-275.376 870.904,-276.177 879.661,-282.139 881.468,-275.376"/>
</g>
<!-- \\SingletonViewBlockHtmlHelper -->
<g id="node31" class="node"><title>\\SingletonViewBlockHtmlHelper</title>
<polygon fill="none" stroke="black" points="1196,-721.599 990,-721.599 990,-685.599 1196,-685.599 1196,-721.599"/>
<text text-anchor="middle" x="1093" y="-700.699" font-family="Courier,monospace" font-size="11.00">SingletonViewBlockHtmlHelper</text>
</g>
<!-- \\HtmlHelper -->
<g id="node92" class="node"><title>\\HtmlHelper</title>
<ellipse fill="none" stroke="black" cx="800" cy="-219.599" rx="67.1751" ry="18.3848"/>
<text text-anchor="middle" x="800" y="-215.999" font-family="Times Roman,serif" font-size="14.00" fill="gray">HtmlHelper</text>
</g>
<!-- \\SingletonViewBlockHtmlHelper&#45;&gt;\\HtmlHelper -->
<g id="edge49" class="edge"><title>\\SingletonViewBlockHtmlHelper&#45;&gt;\\HtmlHelper</title>
<path fill="none" stroke="black" d="M999.918,-685.338C996.329,-682.774 992.992,-679.875 990,-676.599 859.318,-533.527 1050.91,-387.601 918,-246.599 907.121,-235.058 892.401,-227.975 877.051,-223.725"/>
<polygon fill="none" stroke="black" points="877.444,-220.221 866.906,-221.323 875.83,-227.033 877.444,-220.221"/>
</g>
<!-- \\FormInputHelper -->
<g id="node32" class="node"><title>\\FormInputHelper</title>
<polygon fill="none" stroke="black" points="1152,-1369.6 1034,-1369.6 1034,-1333.6 1152,-1333.6 1152,-1369.6"/>
<text text-anchor="middle" x="1093" y="-1348.7" font-family="Courier,monospace" font-size="11.00">FormInputHelper</text>
</g>
<!-- \\FormInputHelper&#45;&gt;\\AppHelper -->
<g id="edge51" class="edge"><title>\\FormInputHelper&#45;&gt;\\AppHelper</title>
<path fill="none" stroke="black" d="M1033.8,-1359.2C1018.51,-1363.2 1002.78,-1369.3 990,-1378.6 939.522,-1415.33 848.866,-1582.07 814.1,-1648.33"/>
<polygon fill="none" stroke="black" points="810.916,-1646.87 809.388,-1657.35 817.121,-1650.11 810.916,-1646.87"/>
</g>
<!-- \\WizardHelper -->
<g id="node33" class="node"><title>\\WizardHelper</title>
<polygon fill="none" stroke="black" points="1142,-2341.6 1044,-2341.6 1044,-2305.6 1142,-2305.6 1142,-2341.6"/>
<text text-anchor="middle" x="1093" y="-2320.7" font-family="Courier,monospace" font-size="11.00">WizardHelper</text>
</g>
<!-- \\WizardHelper&#45;&gt;\\AppHelper -->
<g id="edge53" class="edge"><title>\\WizardHelper&#45;&gt;\\AppHelper</title>
<path fill="none" stroke="black" d="M1043.97,-2320.83C1024.98,-2317.39 1004.4,-2310.43 990,-2296.6 900.476,-2210.63 824.404,-1813.21 804.863,-1703.64"/>
<polygon fill="none" stroke="black" points="808.289,-1702.91 803.101,-1693.67 801.396,-1704.13 808.289,-1702.91"/>
</g>
<!-- \\DisplayNumberHelper -->
<g id="node34" class="node"><title>\\DisplayNumberHelper</title>
<polygon fill="none" stroke="black" points="1165,-2287.6 1021,-2287.6 1021,-2251.6 1165,-2251.6 1165,-2287.6"/>
<text text-anchor="middle" x="1093" y="-2266.7" font-family="Courier,monospace" font-size="11.00">DisplayNumberHelper</text>
</g>
<!-- \\DisplayNumberHelper&#45;&gt;\\AppHelper -->
<g id="edge55" class="edge"><title>\\DisplayNumberHelper&#45;&gt;\\AppHelper</title>
<path fill="none" stroke="black" d="M1020.41,-2260.36C1009.23,-2256.32 998.574,-2250.62 990,-2242.6 907.245,-2165.21 827.482,-1807.59 805.771,-1703.87"/>
<polygon fill="none" stroke="black" points="809.147,-1702.91 803.686,-1693.83 802.293,-1704.34 809.147,-1702.91"/>
</g>
<!-- \\MessageFlashHelper -->
<g id="node35" class="node"><title>\\MessageFlashHelper</title>
<polygon fill="none" stroke="black" points="1162,-2233.6 1024,-2233.6 1024,-2197.6 1162,-2197.6 1162,-2233.6"/>
<text text-anchor="middle" x="1093" y="-2212.7" font-family="Courier,monospace" font-size="11.00">MessageFlashHelper</text>
</g>
<!-- \\MessageFlashHelper&#45;&gt;\\AppHelper -->
<g id="edge57" class="edge"><title>\\MessageFlashHelper&#45;&gt;\\AppHelper</title>
<path fill="none" stroke="black" d="M1023.81,-2207.23C1011.46,-2203.16 999.52,-2197.23 990,-2188.6 840.846,-2053.44 808.432,-1790.47 801.693,-1703.95"/>
<polygon fill="none" stroke="black" points="805.174,-1703.56 800.962,-1693.84 798.192,-1704.07 805.174,-1703.56"/>
</g>
<!-- \\DateHelper -->
<g id="node36" class="node"><title>\\DateHelper</title>
<polygon fill="none" stroke="black" points="1135,-2071.6 1051,-2071.6 1051,-2035.6 1135,-2035.6 1135,-2071.6"/>
<text text-anchor="middle" x="1093" y="-2050.7" font-family="Courier,monospace" font-size="11.00">DateHelper</text>
</g>
<!-- \\DateHelper&#45;&gt;\\AppHelper -->
<g id="edge59" class="edge"><title>\\DateHelper&#45;&gt;\\AppHelper</title>
<path fill="none" stroke="black" d="M1050.94,-2050.35C1030.78,-2046.97 1007.3,-2040.18 990,-2026.6 879.54,-1939.89 824.898,-1770.5 806.922,-1703.67"/>
<polygon fill="none" stroke="black" points="810.271,-1702.64 804.349,-1693.86 803.499,-1704.42 810.271,-1702.64"/>
</g>
<!-- \\SnsButtonHelper -->
<g id="node37" class="node"><title>\\SnsButtonHelper</title>
<polygon fill="none" stroke="black" points="1152,-1855.6 1034,-1855.6 1034,-1819.6 1152,-1819.6 1152,-1855.6"/>
<text text-anchor="middle" x="1093" y="-1834.7" font-family="Courier,monospace" font-size="11.00">SnsButtonHelper</text>
</g>
<!-- \\SnsButtonHelper&#45;&gt;\\AppHelper -->
<g id="edge61" class="edge"><title>\\SnsButtonHelper&#45;&gt;\\AppHelper</title>
<path fill="none" stroke="black" d="M1033.97,-1826.03C1019.24,-1822.09 1003.73,-1817.02 990,-1810.6 927.211,-1781.26 863.394,-1730.76 828.029,-1700.54"/>
<polygon fill="none" stroke="black" points="829.944,-1697.56 820.087,-1693.68 825.369,-1702.86 829.944,-1697.56"/>
</g>
<!-- \\BackToHelper -->
<g id="node38" class="node"><title>\\BackToHelper</title>
<polygon fill="none" stroke="black" points="1142,-1801.6 1044,-1801.6 1044,-1765.6 1142,-1765.6 1142,-1801.6"/>
<text text-anchor="middle" x="1093" y="-1780.7" font-family="Courier,monospace" font-size="11.00">BackToHelper</text>
</g>
<!-- \\BackToHelper&#45;&gt;\\AppHelper -->
<g id="edge63" class="edge"><title>\\BackToHelper&#45;&gt;\\AppHelper</title>
<path fill="none" stroke="black" d="M1043.84,-1772.28C1026.64,-1767.9 1007.32,-1762.52 990,-1756.6 940.27,-1739.58 885.199,-1715.5 847.206,-1698.02"/>
<polygon fill="none" stroke="black" points="848.474,-1694.75 837.929,-1693.72 845.534,-1701.1 848.474,-1694.75"/>
</g>
<!-- \\NetCommonsHtmlHelper -->
<g id="node39" class="node"><title>\\NetCommonsHtmlHelper</title>
<polygon fill="none" stroke="black" points="1169,-1747.6 1017,-1747.6 1017,-1711.6 1169,-1711.6 1169,-1747.6"/>
<text text-anchor="middle" x="1093" y="-1726.7" font-family="Courier,monospace" font-size="11.00">NetCommonsHtmlHelper</text>
</g>
<!-- \\NetCommonsHtmlHelper&#45;&gt;\\AppHelper -->
<g id="edge65" class="edge"><title>\\NetCommonsHtmlHelper&#45;&gt;\\AppHelper</title>
<path fill="none" stroke="black" d="M1016.78,-1715.55C963.659,-1705.76 894.376,-1692.99 848.603,-1684.56"/>
<polygon fill="none" stroke="black" points="849.107,-1681.09 838.638,-1682.72 847.838,-1687.97 849.107,-1681.09"/>
</g>
<!-- \\ButtonHelper -->
<g id="node40" class="node"><title>\\ButtonHelper</title>
<polygon fill="none" stroke="black" points="1142,-883.599 1044,-883.599 1044,-847.599 1142,-847.599 1142,-883.599"/>
<text text-anchor="middle" x="1093" y="-862.699" font-family="Courier,monospace" font-size="11.00">ButtonHelper</text>
</g>
<!-- \\ButtonHelper&#45;&gt;\\FormHelper -->
<g id="edge67" class="edge"><title>\\ButtonHelper&#45;&gt;\\FormHelper</title>
<path fill="none" stroke="black" d="M1043.85,-864.139C1024.38,-860.965 1003.47,-853.837 990,-838.599 830.252,-657.827 1080.57,-478.84 918,-300.599 908.162,-289.813 894.974,-282.892 880.979,-278.534"/>
<polygon fill="none" stroke="black" points="881.757,-275.119 871.192,-275.909 879.944,-281.88 881.757,-275.119"/>
</g>
<!-- \\ComposerHelper -->
<g id="node41" class="node"><title>\\ComposerHelper</title>
<polygon fill="none" stroke="black" points="1148,-1693.6 1038,-1693.6 1038,-1657.6 1148,-1657.6 1148,-1693.6"/>
<text text-anchor="middle" x="1093" y="-1672.7" font-family="Courier,monospace" font-size="11.00">ComposerHelper</text>
</g>
<!-- \\ComposerHelper&#45;&gt;\\AppHelper -->
<g id="edge69" class="edge"><title>\\ComposerHelper&#45;&gt;\\AppHelper</title>
<path fill="none" stroke="black" d="M1037.2,-1675.6C982.832,-1675.6 900.989,-1675.6 849.05,-1675.6"/>
<polygon fill="none" stroke="black" points="848.759,-1672.1 838.759,-1675.6 848.759,-1679.1 848.759,-1672.1"/>
</g>
<!-- \\LinkButtonHelper -->
<g id="node42" class="node"><title>\\LinkButtonHelper</title>
<polygon fill="none" stroke="black" points="1155,-829.599 1031,-829.599 1031,-793.599 1155,-793.599 1155,-829.599"/>
<text text-anchor="middle" x="1093" y="-808.699" font-family="Courier,monospace" font-size="11.00">LinkButtonHelper</text>
</g>
<!-- \\LinkButtonHelper&#45;&gt;\\FormHelper -->
<g id="edge71" class="edge"><title>\\LinkButtonHelper&#45;&gt;\\FormHelper</title>
<path fill="none" stroke="black" d="M1030.3,-807.14C1015.2,-803.122 1000.43,-796.229 990,-784.599 844.8,-622.693 1065.73,-460.204 918,-300.599 908.083,-289.885 894.859,-282.998 880.853,-278.649"/>
<polygon fill="none" stroke="black" points="881.628,-275.233 871.063,-276.028 879.818,-281.995 881.628,-275.233"/>
</g>
<!-- \\TableListHelper -->
<g id="node43" class="node"><title>\\TableListHelper</title>
<polygon fill="none" stroke="black" points="1152,-1639.6 1034,-1639.6 1034,-1603.6 1152,-1603.6 1152,-1639.6"/>
<text text-anchor="middle" x="1093" y="-1618.7" font-family="Courier,monospace" font-size="11.00">TableListHelper</text>
</g>
<!-- \\TableListHelper&#45;&gt;\\AppHelper -->
<g id="edge73" class="edge"><title>\\TableListHelper&#45;&gt;\\AppHelper</title>
<path fill="none" stroke="black" d="M1033.71,-1632.53C979.266,-1642.56 899.563,-1657.25 848.738,-1666.62"/>
<polygon fill="none" stroke="black" points="847.863,-1663.22 838.663,-1668.47 849.131,-1670.1 847.863,-1663.22"/>
</g>
<!-- \\NetCommonsTimeHelper -->
<g id="node44" class="node"><title>\\NetCommonsTimeHelper</title>
<polygon fill="none" stroke="black" points="1169,-1585.6 1017,-1585.6 1017,-1549.6 1169,-1549.6 1169,-1585.6"/>
<text text-anchor="middle" x="1093" y="-1564.7" font-family="Courier,monospace" font-size="11.00">NetCommonsTimeHelper</text>
</g>
<!-- \\NetCommonsTimeHelper&#45;&gt;\\AppHelper -->
<g id="edge75" class="edge"><title>\\NetCommonsTimeHelper&#45;&gt;\\AppHelper</title>
<path fill="none" stroke="black" d="M1018.9,-1585.62C1009.12,-1588.41 999.27,-1591.43 990,-1594.6 940.27,-1611.62 885.199,-1635.7 847.206,-1653.18"/>
<polygon fill="none" stroke="black" points="845.534,-1650.1 837.929,-1657.47 848.474,-1656.45 845.534,-1650.1"/>
</g>
<!-- \\NetCommonsFormHelper -->
<g id="node45" class="node"><title>\\NetCommonsFormHelper</title>
<polygon fill="none" stroke="black" points="1169,-1531.6 1017,-1531.6 1017,-1495.6 1169,-1495.6 1169,-1531.6"/>
<text text-anchor="middle" x="1093" y="-1510.7" font-family="Courier,monospace" font-size="11.00">NetCommonsFormHelper</text>
</g>
<!-- \\NetCommonsFormHelper&#45;&gt;\\AppHelper -->
<g id="edge77" class="edge"><title>\\NetCommonsFormHelper&#45;&gt;\\AppHelper</title>
<path fill="none" stroke="black" d="M1016.79,-1530.22C1007.59,-1533.2 998.458,-1536.65 990,-1540.6 927.211,-1569.93 863.394,-1620.44 828.029,-1650.66"/>
<polygon fill="none" stroke="black" points="825.369,-1648.33 820.087,-1657.52 829.944,-1653.63 825.369,-1648.33"/>
</g>
<!-- \\TitleIconHelper -->
<g id="node46" class="node"><title>\\TitleIconHelper</title>
<polygon fill="none" stroke="black" points="1152,-1477.6 1034,-1477.6 1034,-1441.6 1152,-1441.6 1152,-1477.6"/>
<text text-anchor="middle" x="1093" y="-1456.7" font-family="Courier,monospace" font-size="11.00">TitleIconHelper</text>
</g>
<!-- \\TitleIconHelper&#45;&gt;\\AppHelper -->
<g id="edge79" class="edge"><title>\\TitleIconHelper&#45;&gt;\\AppHelper</title>
<path fill="none" stroke="black" d="M1033.98,-1469.42C1019.02,-1473.4 1003.4,-1478.94 990,-1486.6 915.721,-1529.09 850.104,-1608.08 819.041,-1649.19"/>
<polygon fill="none" stroke="black" points="816.119,-1647.25 812.946,-1657.36 821.73,-1651.44 816.119,-1647.25"/>
</g>
<!-- \\DatetimePickerHelper -->
<g id="node47" class="node"><title>\\DatetimePickerHelper</title>
<polygon fill="none" stroke="black" points="1169,-1423.6 1017,-1423.6 1017,-1387.6 1169,-1387.6 1169,-1423.6"/>
<text text-anchor="middle" x="1093" y="-1402.7" font-family="Courier,monospace" font-size="11.00">DatetimePickerHelper</text>
</g>
<!-- \\DatetimePickerHelper&#45;&gt;\\AppHelper -->
<g id="edge81" class="edge"><title>\\DatetimePickerHelper&#45;&gt;\\AppHelper</title>
<path fill="none" stroke="black" d="M1016.86,-1419.45C1007.4,-1422.9 998.186,-1427.22 990,-1432.6 904.042,-1489.14 840.094,-1597.67 813.531,-1648.32"/>
<polygon fill="none" stroke="black" points="810.341,-1646.87 808.865,-1657.36 816.562,-1650.08 810.341,-1646.87"/>
</g>
<!-- \\Model -->
<g id="node110" class="node"><title>\\Model</title>
<ellipse fill="none" stroke="black" cx="44" cy="-2728.6" rx="43.8406" ry="18.3848"/>
<text text-anchor="middle" x="44" y="-2725" font-family="Times Roman,serif" font-size="14.00" fill="gray">\Model</text>
</g>
<!-- \\NetCommonsAppModel&#45;&gt;\\Model -->
<g id="edge83" class="edge"><title>\\NetCommonsAppModel&#45;&gt;\\Model</title>
<path fill="none" stroke="black" d="M172.749,-2728.6C148.379,-2728.6 121.357,-2728.6 98.3871,-2728.6"/>
<polygon fill="none" stroke="black" points="98.1425,-2725.1 88.1425,-2728.6 98.1424,-2732.1 98.1425,-2725.1"/>
</g>
<!-- \\OriginalKeyBehavior -->
<g id="node49" class="node"><title>\\OriginalKeyBehavior</title>
<polygon fill="none" stroke="black" points="1165,-667.599 1021,-667.599 1021,-631.599 1165,-631.599 1165,-667.599"/>
<text text-anchor="middle" x="1093" y="-646.699" font-family="Courier,monospace" font-size="11.00">OriginalKeyBehavior</text>
</g>
<!-- \\ModelBehavior -->
<g id="node112" class="node"><title>\\ModelBehavior</title>
<ellipse fill="none" stroke="black" cx="800" cy="-165.599" rx="86.9741" ry="18.3848"/>
<text text-anchor="middle" x="800" y="-161.999" font-family="Times Roman,serif" font-size="14.00" fill="gray">\ModelBehavior</text>
</g>
<!-- \\OriginalKeyBehavior&#45;&gt;\\ModelBehavior -->
<g id="edge85" class="edge"><title>\\OriginalKeyBehavior&#45;&gt;\\ModelBehavior</title>
<path fill="none" stroke="black" d="M1020.34,-641.849C1008.9,-637.673 998.166,-631.54 990,-622.599 859.318,-479.527 1050.91,-333.601 918,-192.599 910.736,-184.893 901.758,-179.174 892.025,-174.959"/>
<polygon fill="none" stroke="black" points="893.083,-171.618 882.491,-171.363 890.613,-178.167 893.083,-171.618"/>
</g>
<!-- \\TrackableBehavior -->
<g id="node50" class="node"><title>\\TrackableBehavior</title>
<polygon fill="none" stroke="black" points="1158,-613.599 1028,-613.599 1028,-577.599 1158,-577.599 1158,-613.599"/>
<text text-anchor="middle" x="1093" y="-592.699" font-family="Courier,monospace" font-size="11.00">TrackableBehavior</text>
</g>
<!-- \\TrackableBehavior&#45;&gt;\\ModelBehavior -->
<g id="edge87" class="edge"><title>\\TrackableBehavior&#45;&gt;\\ModelBehavior</title>
<path fill="none" stroke="black" d="M1027.41,-589.946C1013.43,-585.837 999.911,-579.199 990,-568.599 873.795,-444.315 1036.14,-315.042 918,-192.599 910.646,-184.978 901.615,-179.311 891.852,-175.124"/>
<polygon fill="none" stroke="black" points="892.89,-171.776 882.298,-171.548 890.436,-178.331 892.89,-171.776"/>
</g>
<!-- \\YAExceptionRenderer -->
<g id="node51" class="node"><title>\\YAExceptionRenderer</title>
<polygon fill="none" stroke="black" points="1165,-559.599 1021,-559.599 1021,-523.599 1165,-523.599 1165,-559.599"/>
<text text-anchor="middle" x="1093" y="-538.699" font-family="Courier,monospace" font-size="11.00">YAExceptionRenderer</text>
</g>
<!-- \\ExceptionRenderer -->
<g id="node115" class="node"><title>\\ExceptionRenderer</title>
<ellipse fill="none" stroke="black" cx="800" cy="-111.599" rx="118.087" ry="18.3848"/>
<text text-anchor="middle" x="800" y="-107.999" font-family="Times Roman,serif" font-size="14.00" fill="gray">TEHxceptionRenderer</text>
</g>
<!-- \\YAExceptionRenderer&#45;&gt;\\ExceptionRenderer -->
<g id="edge89" class="edge"><title>\\YAExceptionRenderer&#45;&gt;\\ExceptionRenderer</title>
<path fill="none" stroke="black" d="M1020.25,-533.595C1008.89,-529.437 998.206,-523.376 990,-514.599 873.795,-390.315 1036.14,-261.042 918,-138.599 913.747,-134.191 908.932,-130.437 903.739,-127.244"/>
<polygon fill="none" stroke="black" points="905.142,-124.025 894.675,-122.386 901.836,-130.195 905.142,-124.025"/>
</g>
<!-- \\NetCommonsMigration -->
<g id="node52" class="node"><title>\\NetCommonsMigration</title>
<polygon fill="none" stroke="black" points="872,-830.599 728,-830.599 728,-794.599 872,-794.599 872,-830.599"/>
<text text-anchor="middle" x="800" y="-809.699" font-family="Courier,monospace" font-size="11.00">NetCommonsMigration</text>
</g>
<!-- \\CakeMigration -->
<g id="node117" class="node"><title>\\CakeMigration</title>
<ellipse fill="none" stroke="black" cx="503" cy="-123.599" rx="84.8528" ry="18.3848"/>
<text text-anchor="middle" x="503" y="-119.999" font-family="Times Roman,serif" font-size="14.00" fill="gray">\CakeMigration</text>
</g>
<!-- \\NetCommonsMigration&#45;&gt;\\CakeMigration -->
<g id="edge91" class="edge"><title>\\NetCommonsMigration&#45;&gt;\\CakeMigration</title>
<path fill="none" stroke="black" d="M727.215,-813.126C710.337,-809.749 693.865,-803.041 682,-790.599 520.075,-620.791 698.756,-484.802 610,-267.599 590.913,-220.889 553.132,-175.629 527.961,-148.69"/>
<polygon fill="none" stroke="black" points="530.331,-146.104 520.906,-141.265 525.257,-150.925 530.331,-146.104"/>
</g>
<!-- \\IframesController -->
<g id="node53" class="node"><title>\\IframesController</title>
<polygon fill="none" stroke="black" points="1158,-2449.6 1028,-2449.6 1028,-2413.6 1158,-2413.6 1158,-2449.6"/>
<text text-anchor="middle" x="1093" y="-2428.7" font-family="Courier,monospace" font-size="11.00">IframesController</text>
</g>
<!-- \\IframesAppController -->
<g id="node55" class="node"><title>\\IframesAppController</title>
<polygon fill="none" stroke="black" points="876,-2449.6 724,-2449.6 724,-2413.6 876,-2413.6 876,-2449.6"/>
<text text-anchor="middle" x="800" y="-2428.7" font-family="Courier,monospace" font-size="11.00">IframesAppController</text>
</g>
<!-- \\IframesController&#45;&gt;\\IframesAppController -->
<g id="edge93" class="edge"><title>\\IframesController&#45;&gt;\\IframesAppController</title>
<path fill="none" stroke="black" d="M1027.25,-2431.6C985.599,-2431.6 931.292,-2431.6 886.212,-2431.6"/>
<polygon fill="none" stroke="black" points="886.151,-2428.1 876.151,-2431.6 886.151,-2435.1 886.151,-2428.1"/>
</g>
<!-- \\IframeBlocksController -->
<g id="node54" class="node"><title>\\IframeBlocksController</title>
<polygon fill="none" stroke="black" points="1175,-2503.6 1011,-2503.6 1011,-2467.6 1175,-2467.6 1175,-2503.6"/>
<text text-anchor="middle" x="1093" y="-2482.7" font-family="Courier,monospace" font-size="11.00">IframeBlocksController</text>
</g>
<!-- \\IframeBlocksController&#45;&gt;\\IframesAppController -->
<g id="edge95" class="edge"><title>\\IframeBlocksController&#45;&gt;\\IframesAppController</title>
<path fill="none" stroke="black" d="M1010.21,-2470.34C971.532,-2463.21 925.492,-2454.73 886.373,-2447.52"/>
<polygon fill="none" stroke="black" points="886.53,-2443.99 876.062,-2445.62 885.262,-2450.87 886.53,-2443.99"/>
</g>
<!-- \\IframesAppController&#45;&gt;\\AppController -->
<g id="edge97" class="edge"><title>\\IframesAppController&#45;&gt;\\AppController</title>
<path fill="none" stroke="black" d="M723.72,-2427.51C708.136,-2423.29 693.123,-2416.21 682,-2404.6 547.197,-2263.92 510.655,-1607.41 504.16,-1462.12"/>
<polygon fill="none" stroke="black" points="507.644,-1461.66 503.713,-1451.82 500.65,-1461.96 507.644,-1461.66"/>
</g>
<!-- \\Iframe -->
<g id="node56" class="node"><title>\\Iframe</title>
<polygon fill="none" stroke="black" points="1121,-2773.6 1065,-2773.6 1065,-2737.6 1121,-2737.6 1121,-2773.6"/>
<text text-anchor="middle" x="1093" y="-2752.7" font-family="Courier,monospace" font-size="11.00">Iframe</text>
</g>
<!-- \\IframesAppModel -->
<g id="node57" class="node"><title>\\IframesAppModel</title>
<polygon fill="none" stroke="black" points="859,-2773.6 741,-2773.6 741,-2737.6 859,-2737.6 859,-2773.6"/>
<text text-anchor="middle" x="800" y="-2752.7" font-family="Courier,monospace" font-size="11.00">IframesAppModel</text>
</g>
<!-- \\Iframe&#45;&gt;\\IframesAppModel -->
<g id="edge99" class="edge"><title>\\Iframe&#45;&gt;\\IframesAppModel</title>
<path fill="none" stroke="black" d="M1064.37,-2755.6C1019.5,-2755.6 931.3,-2755.6 869.148,-2755.6"/>
<polygon fill="none" stroke="black" points="869.022,-2752.1 859.022,-2755.6 869.022,-2759.1 869.022,-2752.1"/>
</g>
<!-- \\IframesAppModel&#45;&gt;\\AppModel -->
<g id="edge101" class="edge"><title>\\IframesAppModel&#45;&gt;\\AppModel</title>
<path fill="none" stroke="black" d="M740.967,-2750.23C684.467,-2745.1 600.418,-2737.46 548.804,-2732.76"/>
<polygon fill="none" stroke="black" points="548.894,-2729.26 538.618,-2731.84 548.26,-2736.23 548.894,-2729.26"/>
</g>
<!-- \\IframesSchema -->
<g id="node58" class="node"><title>\\IframesSchema</title>
<polygon fill="none" stroke="black" points="1145,-505.599 1041,-505.599 1041,-469.599 1145,-469.599 1145,-505.599"/>
<text text-anchor="middle" x="1093" y="-484.699" font-family="Courier,monospace" font-size="11.00">IframesSchema</text>
</g>
<!-- \\CakeSchema -->
<g id="node124" class="node"><title>\\CakeSchema</title>
<ellipse fill="none" stroke="black" cx="800" cy="-57.5994" rx="77.0746" ry="18.3848"/>
<text text-anchor="middle" x="800" y="-53.9994" font-family="Times Roman,serif" font-size="14.00" fill="gray">\CakeSchema</text>
</g>
<!-- \\IframesSchema&#45;&gt;\\CakeSchema -->
<g id="edge103" class="edge"><title>\\IframesSchema&#45;&gt;\\CakeSchema</title>
<path fill="none" stroke="black" d="M1040.81,-485.149C1022.4,-481.664 1003.07,-474.575 990,-460.599 873.795,-336.315 1036.14,-207.042 918,-84.5994 908.93,-75.1992 897.308,-68.772 884.908,-64.4284"/>
<polygon fill="none" stroke="black" points="885.89,-61.0686 875.304,-61.4981 883.847,-67.764 885.89,-61.0686"/>
</g>
<!-- \\Init -->
<g id="node59" class="node"><title>\\Init</title>
<polygon fill="none" stroke="black" points="1120,-451.599 1066,-451.599 1066,-415.599 1120,-415.599 1120,-451.599"/>
<text text-anchor="middle" x="1093" y="-430.699" font-family="Courier,monospace" font-size="11.00">Init</text>
</g>
<!-- \\Init&#45;&gt;\\CakeMigration -->
<g id="edge105" class="edge"><title>\\Init&#45;&gt;\\CakeMigration</title>
<path fill="none" stroke="black" d="M1091.73,-415.171C1086.05,-348.869 1056.72,-121.596 918,-30.5994 794.601,50.3467 610.913,-51.7982 536.301,-100.477"/>
<polygon fill="none" stroke="black" points="534.163,-97.6953 527.755,-106.133 538.026,-103.533 534.163,-97.6953"/>
</g>
<!-- \\PluginRecords -->
<g id="node60" class="node"><title>\\PluginRecords</title>
<polygon fill="none" stroke="black" points="1145,-1207.6 1041,-1207.6 1041,-1171.6 1145,-1171.6 1145,-1207.6"/>
<text text-anchor="middle" x="1093" y="-1186.7" font-family="Courier,monospace" font-size="11.00">PluginRecords</text>
</g>
<!-- \\PluginRecords&#45;&gt;\\NetCommonsMigration -->
<g id="edge107" class="edge"><title>\\PluginRecords&#45;&gt;\\NetCommonsMigration</title>
<path fill="none" stroke="black" d="M1040.81,-1184.39C1023.26,-1180.55 1004.48,-1173.95 990,-1162.6 879.731,-1076.15 824.977,-907.233 806.947,-840.594"/>
<polygon fill="none" stroke="black" points="810.3,-839.582 804.366,-830.805 803.532,-841.367 810.3,-839.582"/>
</g>
</g>
</svg>
