<?xml version="1.0" encoding="UTF-8" standalone="no"?>
<!DOCTYPE svg PUBLIC "-//W3C//DTD SVG 1.1//EN"
 "http://www.w3.org/Graphics/SVG/1.1/DTD/svg11.dtd">
<!-- Generated by graphviz version 2.26.3 (20100126.1600)
 -->
<!-- Title: G Pages: 1 -->
<svg width="1060pt" height="2834pt"
 viewBox="0.00 0.00 1060.00 2834.00" xmlns="http://www.w3.org/2000/svg" xmlns:xlink="http://www.w3.org/1999/xlink">
<g id="graph1" class="graph" transform="scale(1 1) rotate(0) translate(4 2830)">
<title>G</title>
<polygon fill="white" stroke="white" points="-4,5 -4,-2830 1057,-2830 1057,5 -4,5"/>
<g id="graph2" class="cluster"><title>cluster_Global</title>
<polyline fill="none" stroke="gray" points="264,-368 1032,-368 "/>
<path fill="none" stroke="gray" d="M1032,-368C1038,-368 1044,-374 1044,-380"/>
<polyline fill="none" stroke="gray" points="1044,-380 1044,-2806 "/>
<path fill="none" stroke="gray" d="M1044,-2806C1044,-2812 1038,-2818 1032,-2818"/>
<polyline fill="none" stroke="gray" points="1032,-2818 264,-2818 "/>
<path fill="none" stroke="gray" d="M264,-2818C258,-2818 252,-2812 252,-2806"/>
<polyline fill="none" stroke="gray" points="252,-2806 252,-380 "/>
<path fill="none" stroke="gray" d="M252,-380C252,-374 258,-368 264,-368"/>
<text text-anchor="middle" x="648" y="-2804.1" font-family="Times Roman,serif" font-size="11.00" fill="gray">Global</text>
</g>
<!-- \\AppController -->
<g id="node2" class="node"><title>\\AppController</title>
<polygon fill="none" stroke="black" points="985,-1222 881,-1222 881,-1186 985,-1186 985,-1222"/>
<text text-anchor="middle" x="933" y="-1201.1" font-family="Courier,monospace" font-size="11.00">AppController</text>
</g>
<!-- \\Controller -->
<g id="node59" class="node"><title>\\Controller</title>
<ellipse fill="none" stroke="black" cx="343" cy="-180" rx="63.1385" ry="18.3848"/>
<text text-anchor="middle" x="343" y="-176.4" font-family="Times Roman,serif" font-size="14.00" fill="gray">\Controller</text>
</g>
<!-- \\AppController&#45;&gt;\\Controller -->
<g id="edge3" class="edge"><title>\\AppController&#45;&gt;\\Controller</title>
<path fill="none" stroke="black" d="M880.791,-1199.94C862.927,-1196.23 843.952,-1189.41 830,-1177 786.752,-1138.54 493.424,-245.263 450,-207 439.863,-198.067 427.19,-192.007 414.149,-187.915"/>
<polygon fill="none" stroke="black" points="414.711,-184.439 404.14,-185.154 412.849,-191.187 414.711,-184.439"/>
</g>
<!-- \\AppModel -->
<g id="node3" class="node"><title>\\AppModel</title>
<polygon fill="none" stroke="black" points="675,-2572 605,-2572 605,-2536 675,-2536 675,-2572"/>
<text text-anchor="middle" x="640" y="-2551.1" font-family="Courier,monospace" font-size="11.00">AppModel</text>
</g>
<!-- \\NetCommonsAppModel -->
<g id="node50" class="node"><title>\\NetCommonsAppModel</title>
<polygon fill="none" stroke="black" points="412,-2572 274,-2572 274,-2536 412,-2536 412,-2572"/>
<text text-anchor="middle" x="343" y="-2551.1" font-family="Courier,monospace" font-size="11.00">NetCommonsAppModel</text>
</g>
<!-- \\AppModel&#45;&gt;\\NetCommonsAppModel -->
<g id="edge5" class="edge"><title>\\AppModel&#45;&gt;\\NetCommonsAppModel</title>
<path fill="none" stroke="black" d="M604.47,-2554C559.713,-2554 481.497,-2554 422.241,-2554"/>
<polygon fill="none" stroke="black" points="422.157,-2550.5 412.157,-2554 422.157,-2557.5 422.157,-2550.5"/>
</g>
<!-- \\DatabaseConfiguration -->
<g id="node4" class="node"><title>\\DatabaseConfiguration</title>
<polygon fill="none" stroke="black" points="1012,-2572 854,-2572 854,-2536 1012,-2536 1012,-2572"/>
<text text-anchor="middle" x="933" y="-2551.1" font-family="Courier,monospace" font-size="11.00">DatabaseConfiguration</text>
</g>
<!-- \\DatabaseConfiguration&#45;&gt;\\AppModel -->
<g id="edge7" class="edge"><title>\\DatabaseConfiguration&#45;&gt;\\AppModel</title>
<path fill="none" stroke="black" d="M853.71,-2554C799.937,-2554 730.74,-2554 685.886,-2554"/>
<polygon fill="none" stroke="black" points="685.866,-2550.5 675.866,-2554 685.866,-2557.5 685.866,-2550.5"/>
</g>
<!-- \\AppHelper -->
<g id="node5" class="node"><title>\\AppHelper</title>
<polygon fill="none" stroke="black" points="678,-2140 602,-2140 602,-2104 678,-2104 678,-2140"/>
<text text-anchor="middle" x="640" y="-2119.1" font-family="Courier,monospace" font-size="11.00">AppHelper</text>
</g>
<!-- \\Helper -->
<g id="node63" class="node"><title>\\Helper</title>
<ellipse fill="none" stroke="black" cx="343" cy="-342" rx="43.8406" ry="18.3848"/>
<text text-anchor="middle" x="343" y="-338.4" font-family="Times Roman,serif" font-size="14.00" fill="gray">Helper</text>
</g>
<!-- \\AppHelper&#45;&gt;\\Helper -->
<g id="edge9" class="edge"><title>\\AppHelper&#45;&gt;\\Helper</title>
<path fill="none" stroke="black" d="M635.689,-2103.84C618.242,-2029.6 552.36,-1741.62 522,-1501 506.154,-1375.41 533.052,-459.532 450,-364 436.861,-348.887 416.357,-342.498 396.798,-340.208"/>
<polygon fill="none" stroke="black" points="396.959,-336.71 386.701,-339.36 396.373,-343.685 396.959,-336.71"/>
</g>
<!-- \\NetCommonsDeleteTest -->
<g id="node6" class="node"><title>\\NetCommonsDeleteTest</title>
<polygon fill="none" stroke="black" points="1009,-2734 857,-2734 857,-2698 1009,-2698 1009,-2734"/>
<text text-anchor="middle" x="933" y="-2713.1" font-family="Courier,monospace" font-size="11.00">NetCommonsDeleteTest</text>
</g>
<!-- \\NetCommonsModelTestCase -->
<g id="node15" class="node"><title>\\NetCommonsModelTestCase</title>
<polygon fill="none" stroke="black" points="726,-2680 554,-2680 554,-2644 726,-2644 726,-2680"/>
<text text-anchor="middle" x="640" y="-2659.1" font-family="Courier,monospace" font-size="11.00">NetCommonsModelTestCase</text>
</g>
<!-- \\NetCommonsDeleteTest&#45;&gt;\\NetCommonsModelTestCase -->
<g id="edge11" class="edge"><title>\\NetCommonsDeleteTest&#45;&gt;\\NetCommonsModelTestCase</title>
<path fill="none" stroke="black" d="M856.783,-2701.95C819.893,-2695.15 775.211,-2686.92 736.02,-2679.7"/>
<polygon fill="none" stroke="black" points="736.652,-2676.25 726.183,-2677.88 735.383,-2683.14 736.652,-2676.25"/>
</g>
<!-- \\NetCommonsConsoleTestCase -->
<g id="node7" class="node"><title>\\NetCommonsConsoleTestCase</title>
<polygon fill="none" stroke="black" points="732,-2788 548,-2788 548,-2752 732,-2752 732,-2788"/>
<text text-anchor="middle" x="640" y="-2767.1" font-family="Courier,monospace" font-size="11.00">NetCommonsConsoleTestCase</text>
</g>
<!-- \\NetCommonsCakeTestCase -->
<g id="node13" class="node"><title>\\NetCommonsCakeTestCase</title>
<polygon fill="none" stroke="black" points="425,-2734 261,-2734 261,-2698 425,-2698 425,-2734"/>
<text text-anchor="middle" x="343" y="-2713.1" font-family="Courier,monospace" font-size="11.00">NetCommonsCakeTestCase</text>
</g>
<!-- \\NetCommonsConsoleTestCase&#45;&gt;\\NetCommonsCakeTestCase -->
<g id="edge13" class="edge"><title>\\NetCommonsConsoleTestCase&#45;&gt;\\NetCommonsCakeTestCase</title>
<path fill="none" stroke="black" d="M547.249,-2753.14C511.778,-2746.69 471.343,-2739.34 435.861,-2732.88"/>
<polygon fill="none" stroke="black" points="436.458,-2729.44 425.993,-2731.09 435.206,-2736.32 436.458,-2729.44"/>
</g>
<!-- \\NetCommonsGetTest -->
<g id="node8" class="node"><title>\\NetCommonsGetTest</title>
<polygon fill="none" stroke="black" points="998,-2680 868,-2680 868,-2644 998,-2644 998,-2680"/>
<text text-anchor="middle" x="933" y="-2659.1" font-family="Courier,monospace" font-size="11.00">NetCommonsGetTest</text>
</g>
<!-- \\NetCommonsGetTest&#45;&gt;\\NetCommonsModelTestCase -->
<g id="edge15" class="edge"><title>\\NetCommonsGetTest&#45;&gt;\\NetCommonsModelTestCase</title>
<path fill="none" stroke="black" d="M867.245,-2662C828.664,-2662 779.217,-2662 736.305,-2662"/>
<polygon fill="none" stroke="black" points="736.12,-2658.5 726.12,-2662 736.12,-2665.5 736.12,-2658.5"/>
</g>
<!-- \\NetCommonsHelperTestCase -->
<g id="node9" class="node"><title>\\NetCommonsHelperTestCase</title>
<polygon fill="none" stroke="black" points="729,-2734 551,-2734 551,-2698 729,-2698 729,-2734"/>
<text text-anchor="middle" x="640" y="-2713.1" font-family="Courier,monospace" font-size="11.00">NetCommonsHelperTestCase</text>
</g>
<!-- \\NetCommonsHelperTestCase&#45;&gt;\\NetCommonsCakeTestCase -->
<g id="edge17" class="edge"><title>\\NetCommonsHelperTestCase&#45;&gt;\\NetCommonsCakeTestCase</title>
<path fill="none" stroke="black" d="M550.487,-2716C514.267,-2716 472.456,-2716 435.9,-2716"/>
<polygon fill="none" stroke="black" points="435.737,-2712.5 425.737,-2716 435.737,-2719.5 435.737,-2712.5"/>
</g>
<!-- \\NetCommonsControllerBaseTestCase -->
<g id="node10" class="node"><title>\\NetCommonsControllerBaseTestCase</title>
<polygon fill="none" stroke="black" points="756,-1492 524,-1492 524,-1456 756,-1456 756,-1492"/>
<text text-anchor="middle" x="640" y="-1471.1" font-family="Courier,monospace" font-size="11.00">NetCommonsControllerBaseTestCase</text>
</g>
<!-- \\ControllerTestCase -->
<g id="node69" class="node"><title>\\ControllerTestCase</title>
<ellipse fill="none" stroke="black" cx="343" cy="-288" rx="106.773" ry="18.3848"/>
<text text-anchor="middle" x="343" y="-284.4" font-family="Times Roman,serif" font-size="14.00" fill="gray">\ControllerTestCase</text>
</g>
<!-- \\NetCommonsControllerBaseTestCase&#45;&gt;\\ControllerTestCase -->
<g id="edge19" class="edge"><title>\\NetCommonsControllerBaseTestCase&#45;&gt;\\ControllerTestCase</title>
<path fill="none" stroke="black" d="M530.99,-1455.63C527.74,-1453.07 524.723,-1450.2 522,-1447 358.714,-1254.97 611.141,-508.829 450,-315 446.402,-310.672 442.221,-306.982 437.638,-303.841"/>
<polygon fill="none" stroke="black" points="439.388,-300.81 428.994,-298.759 435.841,-306.844 439.388,-300.81"/>
</g>
<!-- \\NetCommonsValidateTest -->
<g id="node11" class="node"><title>\\NetCommonsValidateTest</title>
<polygon fill="none" stroke="black" points="1015,-2626 851,-2626 851,-2590 1015,-2590 1015,-2626"/>
<text text-anchor="middle" x="933" y="-2605.1" font-family="Courier,monospace" font-size="11.00">NetCommonsValidateTest</text>
</g>
<!-- \\NetCommonsValidateTest&#45;&gt;\\NetCommonsModelTestCase -->
<g id="edge21" class="edge"><title>\\NetCommonsValidateTest&#45;&gt;\\NetCommonsModelTestCase</title>
<path fill="none" stroke="black" d="M850.213,-2623.26C814.791,-2629.79 773.196,-2637.45 736.397,-2644.23"/>
<polygon fill="none" stroke="black" points="735.354,-2640.87 726.154,-2646.12 736.623,-2647.75 735.354,-2640.87"/>
</g>
<!-- \\NetCommonsTestSuite -->
<g id="node12" class="node"><title>\\NetCommonsTestSuite</title>
<polygon fill="none" stroke="black" points="1005,-1168 861,-1168 861,-1132 1005,-1132 1005,-1168"/>
<text text-anchor="middle" x="933" y="-1147.1" font-family="Courier,monospace" font-size="11.00">NetCommonsTestSuite</text>
</g>
<!-- \\CakeTestSuite -->
<g id="node72" class="node"><title>\\CakeTestSuite</title>
<ellipse fill="none" stroke="black" cx="640" cy="-342" rx="84.1457" ry="18.3848"/>
<text text-anchor="middle" x="640" y="-338.4" font-family="Times Roman,serif" font-size="14.00" fill="gray">\CakeTestSuite</text>
</g>
<!-- \\NetCommonsTestSuite&#45;&gt;\\CakeTestSuite -->
<g id="edge23" class="edge"><title>\\NetCommonsTestSuite&#45;&gt;\\CakeTestSuite</title>
<path fill="none" stroke="black" d="M860.328,-1142.92C848.737,-1138.69 837.962,-1132.37 830,-1123 720.272,-993.91 872.306,-489.054 758,-364 751.146,-356.501 742.623,-351.061 733.316,-347.167"/>
<polygon fill="none" stroke="black" points="734.374,-343.828 723.78,-343.769 732.025,-350.422 734.374,-343.828"/>
</g>
<!-- \\CakeTestCase -->
<g id="node74" class="node"><title>\\CakeTestCase</title>
<ellipse fill="none" stroke="black" cx="82" cy="-2716" rx="82.0244" ry="18.3848"/>
<text text-anchor="middle" x="82" y="-2712.4" font-family="Times Roman,serif" font-size="14.00" fill="gray">\CakeTestCase</text>
</g>
<!-- \\NetCommonsCakeTestCase&#45;&gt;\\CakeTestCase -->
<g id="edge25" class="edge"><title>\\NetCommonsCakeTestCase&#45;&gt;\\CakeTestCase</title>
<path fill="none" stroke="black" d="M260.418,-2716C233.018,-2716 202.345,-2716 174.263,-2716"/>
<polygon fill="none" stroke="black" points="174.045,-2712.5 164.045,-2716 174.045,-2719.5 174.045,-2712.5"/>
</g>
<!-- \\NetCommonsSaveTest -->
<g id="node14" class="node"><title>\\NetCommonsSaveTest</title>
<polygon fill="none" stroke="black" points="1002,-2788 864,-2788 864,-2752 1002,-2752 1002,-2788"/>
<text text-anchor="middle" x="933" y="-2767.1" font-family="Courier,monospace" font-size="11.00">NetCommonsSaveTest</text>
</g>
<!-- \\NetCommonsSaveTest&#45;&gt;\\NetCommonsModelTestCase -->
<g id="edge27" class="edge"><title>\\NetCommonsSaveTest&#45;&gt;\\NetCommonsModelTestCase</title>
<path fill="none" stroke="black" d="M863.799,-2755.82C852.234,-2752.34 840.57,-2748.11 830,-2743 793.981,-2725.6 794.288,-2705.83 758,-2689 750.962,-2685.74 743.501,-2682.85 735.884,-2680.31"/>
<polygon fill="none" stroke="black" points="736.762,-2676.91 726.173,-2677.26 734.666,-2683.59 736.762,-2676.91"/>
</g>
<!-- \\NetCommonsModelTestCase&#45;&gt;\\NetCommonsCakeTestCase -->
<g id="edge29" class="edge"><title>\\NetCommonsModelTestCase&#45;&gt;\\NetCommonsCakeTestCase</title>
<path fill="none" stroke="black" d="M553.696,-2677.69C516.671,-2684.42 473.35,-2692.3 435.65,-2699.15"/>
<polygon fill="none" stroke="black" points="434.899,-2695.73 425.686,-2700.97 436.151,-2702.62 434.899,-2695.73"/>
</g>
<!-- \\NetCommonsControllerTestCase -->
<g id="node16" class="node"><title>\\NetCommonsControllerTestCase</title>
<polygon fill="none" stroke="black" points="1036,-1492 830,-1492 830,-1456 1036,-1456 1036,-1492"/>
<text text-anchor="middle" x="933" y="-1471.1" font-family="Courier,monospace" font-size="11.00">NetCommonsControllerTestCase</text>
</g>
<!-- \\NetCommonsControllerTestCase&#45;&gt;\\NetCommonsControllerBaseTestCase -->
<g id="edge31" class="edge"><title>\\NetCommonsControllerTestCase&#45;&gt;\\NetCommonsControllerBaseTestCase</title>
<path fill="none" stroke="black" d="M829.699,-1474C809.381,-1474 787.845,-1474 766.858,-1474"/>
<polygon fill="none" stroke="black" points="766.606,-1470.5 756.606,-1474 766.606,-1477.5 766.606,-1470.5"/>
</g>
<!-- \\NetCommonsAppController -->
<g id="node17" class="node"><title>\\NetCommonsAppController</title>
<polygon fill="none" stroke="black" points="726,-1276 554,-1276 554,-1240 726,-1240 726,-1276"/>
<text text-anchor="middle" x="640" y="-1255.1" font-family="Courier,monospace" font-size="11.00">NetCommonsAppController</text>
</g>
<!-- \\NetCommonsAppController&#45;&gt;\\Controller -->
<g id="edge33" class="edge"><title>\\NetCommonsAppController&#45;&gt;\\Controller</title>
<path fill="none" stroke="black" d="M553.928,-1255.76C541.77,-1251.81 530.529,-1245.57 522,-1236 369.45,-1064.91 597.099,-382.802 450,-207 441.146,-196.418 428.805,-189.653 415.64,-185.395"/>
<polygon fill="none" stroke="black" points="416.517,-182.006 405.946,-182.719 414.654,-188.754 416.517,-182.006"/>
</g>
<!-- \\AssetComponent -->
<g id="node18" class="node"><title>\\AssetComponent</title>
<polygon fill="none" stroke="black" points="988,-898 878,-898 878,-862 988,-862 988,-898"/>
<text text-anchor="middle" x="933" y="-877.1" font-family="Courier,monospace" font-size="11.00">AssetComponent</text>
</g>
<!-- \\Component -->
<g id="node80" class="node"><title>\\Component</title>
<ellipse fill="none" stroke="black" cx="640" cy="-288" rx="70.9184" ry="18.3848"/>
<text text-anchor="middle" x="640" y="-284.4" font-family="Times Roman,serif" font-size="14.00" fill="gray">\Component</text>
</g>
<!-- \\AssetComponent&#45;&gt;\\Component -->
<g id="edge35" class="edge"><title>\\AssetComponent&#45;&gt;\\Component</title>
<path fill="none" stroke="black" d="M877.435,-877.354C859.902,-873.714 841.996,-866.575 830,-853 670.252,-672.227 920.569,-493.24 758,-315 748.162,-304.213 734.974,-297.293 720.979,-292.934"/>
<polygon fill="none" stroke="black" points="721.757,-289.519 711.192,-290.31 719.944,-296.281 721.757,-289.519"/>
</g>
<!-- \\AccessCtrlComponent -->
<g id="node19" class="node"><title>\\AccessCtrlComponent</title>
<polygon fill="none" stroke="black" points="1005,-1114 861,-1114 861,-1078 1005,-1078 1005,-1114"/>
<text text-anchor="middle" x="933" y="-1093.1" font-family="Courier,monospace" font-size="11.00">AccessCtrlComponent</text>
</g>
<!-- \\AccessCtrlComponent&#45;&gt;\\Component -->
<g id="edge37" class="edge"><title>\\AccessCtrlComponent&#45;&gt;\\Component</title>
<path fill="none" stroke="black" d="M860.333,-1088.91C848.742,-1084.69 837.965,-1078.36 830,-1069 720.948,-940.787 869.053,-441.484 758,-315 748.311,-303.965 735.121,-296.943 721.061,-292.564"/>
<polygon fill="none" stroke="black" points="721.786,-289.135 711.222,-289.939 719.981,-295.899 721.786,-289.135"/>
</g>
<!-- \\NetCommonsTimeComponent -->
<g id="node20" class="node"><title>\\NetCommonsTimeComponent</title>
<polygon fill="none" stroke="black" points="1019,-1060 847,-1060 847,-1024 1019,-1024 1019,-1060"/>
<text text-anchor="middle" x="933" y="-1039.1" font-family="Courier,monospace" font-size="11.00">NetCommonsTimeComponent</text>
</g>
<!-- \\NetCommonsTimeComponent&#45;&gt;\\Component -->
<g id="edge39" class="edge"><title>\\NetCommonsTimeComponent&#45;&gt;\\Component</title>
<path fill="none" stroke="black" d="M846.555,-1028.49C840.343,-1024.91 834.691,-1020.47 830,-1015 626.502,-777.507 965.204,-549.266 758,-315 748.271,-304.001 735.062,-296.994 720.998,-292.62"/>
<polygon fill="none" stroke="black" points="721.72,-289.191 711.156,-289.996 719.917,-295.955 721.72,-289.191"/>
</g>
<!-- \\PermissionComponent -->
<g id="node21" class="node"><title>\\PermissionComponent</title>
<polygon fill="none" stroke="black" points="1005,-1006 861,-1006 861,-970 1005,-970 1005,-1006"/>
<text text-anchor="middle" x="933" y="-985.1" font-family="Courier,monospace" font-size="11.00">PermissionComponent</text>
</g>
<!-- \\PermissionComponent&#45;&gt;\\Component -->
<g id="edge41" class="edge"><title>\\PermissionComponent&#45;&gt;\\Component</title>
<path fill="none" stroke="black" d="M860.454,-980.809C848.851,-976.592 838.038,-970.301 830,-961 641.099,-742.429 950.312,-530.576 758,-315 748.225,-304.042 734.994,-297.054 720.924,-292.686"/>
<polygon fill="none" stroke="black" points="721.644,-289.256 711.08,-290.064 719.842,-296.02 721.644,-289.256"/>
</g>
<!-- \\NetCommonsComponent -->
<g id="node22" class="node"><title>\\NetCommonsComponent</title>
<polygon fill="none" stroke="black" points="1005,-952 861,-952 861,-916 1005,-916 1005,-952"/>
<text text-anchor="middle" x="933" y="-931.1" font-family="Courier,monospace" font-size="11.00">NetCommonsComponent</text>
</g>
<!-- \\NetCommonsComponent&#45;&gt;\\Component -->
<g id="edge43" class="edge"><title>\\NetCommonsComponent&#45;&gt;\\Component</title>
<path fill="none" stroke="black" d="M860.269,-926.647C848.757,-922.437 838.024,-916.191 830,-907 655.683,-707.337 935.432,-511.899 758,-315 748.227,-304.155 735.069,-297.207 721.082,-292.841"/>
<polygon fill="none" stroke="black" points="721.864,-289.426 711.298,-290.214 720.049,-296.187 721.864,-289.426"/>
</g>
<!-- \\SiteCloseController -->
<g id="node23" class="node"><title>\\SiteCloseController</title>
<polygon fill="none" stroke="black" points="1005,-1276 861,-1276 861,-1240 1005,-1240 1005,-1276"/>
<text text-anchor="middle" x="933" y="-1255.1" font-family="Courier,monospace" font-size="11.00">SiteCloseController</text>
</g>
<!-- \\SiteCloseController&#45;&gt;\\NetCommonsAppController -->
<g id="edge45" class="edge"><title>\\SiteCloseController&#45;&gt;\\NetCommonsAppController</title>
<path fill="none" stroke="black" d="M860.197,-1258C822.776,-1258 776.682,-1258 736.354,-1258"/>
<polygon fill="none" stroke="black" points="736.233,-1254.5 726.233,-1258 736.233,-1261.5 736.233,-1254.5"/>
</g>
<!-- \\NetCommonsController -->
<g id="node24" class="node"><title>\\NetCommonsController</title>
<polygon fill="none" stroke="black" points="1009,-1330 857,-1330 857,-1294 1009,-1294 1009,-1330"/>
<text text-anchor="middle" x="933" y="-1309.1" font-family="Courier,monospace" font-size="11.00">NetCommonsController</text>
</g>
<!-- \\NetCommonsController&#45;&gt;\\NetCommonsAppController -->
<g id="edge47" class="edge"><title>\\NetCommonsController&#45;&gt;\\NetCommonsAppController</title>
<path fill="none" stroke="black" d="M856.783,-1297.95C819.893,-1291.15 775.211,-1282.92 736.02,-1275.7"/>
<polygon fill="none" stroke="black" points="736.652,-1272.25 726.183,-1273.88 735.383,-1279.14 736.652,-1272.25"/>
</g>
<!-- \\NetCommonsUrl -->
<g id="node25" class="node"><title>\\NetCommonsUrl</title>
<polygon fill="none" stroke="black" points="985,-1978 881,-1978 881,-1942 985,-1942 985,-1978"/>
<text text-anchor="middle" x="933" y="-1957.1" font-family="Courier,monospace" font-size="11.00">NetCommonsUrl</text>
</g>
<!-- \\NetCommonsTime -->
<g id="node26" class="node"><title>\\NetCommonsTime</title>
<polygon fill="none" stroke="black" points="988,-1924 878,-1924 878,-1888 988,-1888 988,-1924"/>
<text text-anchor="middle" x="933" y="-1903.1" font-family="Courier,monospace" font-size="11.00">NetCommonsTime</text>
</g>
<!-- \\CurrentBase -->
<g id="node27" class="node"><title>\\CurrentBase</title>
<polygon fill="none" stroke="black" points="685,-1438 595,-1438 595,-1402 685,-1402 685,-1438"/>
<text text-anchor="middle" x="640" y="-1417.1" font-family="Courier,monospace" font-size="11.00">CurrentBase</text>
</g>
<!-- \\Current -->
<g id="node28" class="node"><title>\\Current</title>
<polygon fill="none" stroke="black" points="965,-1438 901,-1438 901,-1402 965,-1402 965,-1438"/>
<text text-anchor="middle" x="933" y="-1417.1" font-family="Courier,monospace" font-size="11.00">Current</text>
</g>
<!-- \\Current&#45;&gt;\\CurrentBase -->
<g id="edge49" class="edge"><title>\\Current&#45;&gt;\\CurrentBase</title>
<path fill="none" stroke="black" d="M900.806,-1420C851.48,-1420 756.554,-1420 695.846,-1420"/>
<polygon fill="none" stroke="black" points="695.669,-1416.5 685.669,-1420 695.669,-1423.5 695.669,-1416.5"/>
</g>
<!-- \\CurrentSystem -->
<g id="node29" class="node"><title>\\CurrentSystem</title>
<polygon fill="none" stroke="black" points="985,-1816 881,-1816 881,-1780 985,-1780 985,-1816"/>
<text text-anchor="middle" x="933" y="-1795.1" font-family="Courier,monospace" font-size="11.00">CurrentSystem</text>
</g>
<!-- \\CurrentPage -->
<g id="node30" class="node"><title>\\CurrentPage</title>
<polygon fill="none" stroke="black" points="978,-1762 888,-1762 888,-1726 978,-1726 978,-1762"/>
<text text-anchor="middle" x="933" y="-1741.1" font-family="Courier,monospace" font-size="11.00">CurrentPage</text>
</g>
<!-- \\CurrentFrame -->
<g id="node31" class="node"><title>\\CurrentFrame</title>
<polygon fill="none" stroke="black" points="982,-1708 884,-1708 884,-1672 982,-1672 982,-1708"/>
<text text-anchor="middle" x="933" y="-1687.1" font-family="Courier,monospace" font-size="11.00">CurrentFrame</text>
</g>
<!-- \\TokenHelper -->
<g id="node32" class="node"><title>\\TokenHelper</title>
<polygon fill="none" stroke="black" points="978,-736 888,-736 888,-700 978,-700 978,-736"/>
<text text-anchor="middle" x="933" y="-715.1" font-family="Courier,monospace" font-size="11.00">TokenHelper</text>
</g>
<!-- \\FormHelper -->
<g id="node89" class="node"><title>\\FormHelper</title>
<ellipse fill="none" stroke="black" cx="640" cy="-234" rx="70.9184" ry="18.3848"/>
<text text-anchor="middle" x="640" y="-230.4" font-family="Times Roman,serif" font-size="14.00" fill="gray">\FormHelper</text>
</g>
<!-- \\TokenHelper&#45;&gt;\\FormHelper -->
<g id="edge51" class="edge"><title>\\TokenHelper&#45;&gt;\\FormHelper</title>
<path fill="none" stroke="black" d="M887.255,-716.813C866.966,-713.861 844.462,-706.833 830,-691 699.318,-547.927 890.914,-402.002 758,-261 747.986,-250.377 734.718,-243.531 720.698,-239.194"/>
<polygon fill="none" stroke="black" points="721.468,-235.777 710.904,-236.577 719.661,-242.54 721.468,-235.777"/>
</g>
<!-- \\SingletonViewBlockHtmlHelper -->
<g id="node33" class="node"><title>\\SingletonViewBlockHtmlHelper</title>
<polygon fill="none" stroke="black" points="1036,-682 830,-682 830,-646 1036,-646 1036,-682"/>
<text text-anchor="middle" x="933" y="-661.1" font-family="Courier,monospace" font-size="11.00">SingletonViewBlockHtmlHelper</text>
</g>
<!-- \\HtmlHelper -->
<g id="node91" class="node"><title>\\HtmlHelper</title>
<ellipse fill="none" stroke="black" cx="640" cy="-180" rx="67.1751" ry="18.3848"/>
<text text-anchor="middle" x="640" y="-176.4" font-family="Times Roman,serif" font-size="14.00" fill="gray">HtmlHelper</text>
</g>
<!-- \\SingletonViewBlockHtmlHelper&#45;&gt;\\HtmlHelper -->
<g id="edge53" class="edge"><title>\\SingletonViewBlockHtmlHelper&#45;&gt;\\HtmlHelper</title>
<path fill="none" stroke="black" d="M839.918,-645.739C836.329,-643.175 832.992,-640.276 830,-637 699.318,-493.927 890.914,-348.002 758,-207 747.121,-195.459 732.401,-188.376 717.051,-184.126"/>
<polygon fill="none" stroke="black" points="717.444,-180.622 706.906,-181.723 715.83,-187.434 717.444,-180.622"/>
</g>
<!-- \\FormInputHelper -->
<g id="node34" class="node"><title>\\FormInputHelper</title>
<polygon fill="none" stroke="black" points="992,-2356 874,-2356 874,-2320 992,-2320 992,-2356"/>
<text text-anchor="middle" x="933" y="-2335.1" font-family="Courier,monospace" font-size="11.00">FormInputHelper</text>
</g>
<!-- \\FormInputHelper&#45;&gt;\\AppHelper -->
<g id="edge55" class="edge"><title>\\FormInputHelper&#45;&gt;\\AppHelper</title>
<path fill="none" stroke="black" d="M873.977,-2328.18C859.015,-2324.2 843.399,-2318.66 830,-2311 755.721,-2268.51 690.104,-2189.52 659.041,-2148.41"/>
<polygon fill="none" stroke="black" points="661.73,-2146.16 652.946,-2140.24 656.119,-2150.35 661.73,-2146.16"/>
</g>
<!-- \\WizardHelper -->
<g id="node35" class="node"><title>\\WizardHelper</title>
<polygon fill="none" stroke="black" points="982,-2302 884,-2302 884,-2266 982,-2266 982,-2302"/>
<text text-anchor="middle" x="933" y="-2281.1" font-family="Courier,monospace" font-size="11.00">WizardHelper</text>
</g>
<!-- \\WizardHelper&#45;&gt;\\AppHelper -->
<g id="edge57" class="edge"><title>\\WizardHelper&#45;&gt;\\AppHelper</title>
<path fill="none" stroke="black" d="M883.79,-2274.92C866.323,-2270.71 846.832,-2264.86 830,-2257 767.211,-2227.67 703.394,-2177.16 668.029,-2146.94"/>
<polygon fill="none" stroke="black" points="669.944,-2143.97 660.087,-2140.08 665.369,-2149.26 669.944,-2143.97"/>
</g>
<!-- \\DisplayNumberHelper -->
<g id="node36" class="node"><title>\\DisplayNumberHelper</title>
<polygon fill="none" stroke="black" points="1005,-2248 861,-2248 861,-2212 1005,-2212 1005,-2248"/>
<text text-anchor="middle" x="933" y="-2227.1" font-family="Courier,monospace" font-size="11.00">DisplayNumberHelper</text>
</g>
<!-- \\DisplayNumberHelper&#45;&gt;\\AppHelper -->
<g id="edge59" class="edge"><title>\\DisplayNumberHelper&#45;&gt;\\AppHelper</title>
<path fill="none" stroke="black" d="M860.288,-2212.37C850.047,-2209.47 839.707,-2206.32 830,-2203 780.27,-2185.98 725.199,-2161.9 687.206,-2144.42"/>
<polygon fill="none" stroke="black" points="688.474,-2141.15 677.929,-2140.12 685.534,-2147.5 688.474,-2141.15"/>
</g>
<!-- \\MessageFlashHelper -->
<g id="node37" class="node"><title>\\MessageFlashHelper</title>
<polygon fill="none" stroke="black" points="1002,-2194 864,-2194 864,-2158 1002,-2158 1002,-2194"/>
<text text-anchor="middle" x="933" y="-2173.1" font-family="Courier,monospace" font-size="11.00">MessageFlashHelper</text>
</g>
<!-- \\MessageFlashHelper&#45;&gt;\\AppHelper -->
<g id="edge61" class="edge"><title>\\MessageFlashHelper&#45;&gt;\\AppHelper</title>
<path fill="none" stroke="black" d="M863.934,-2163.27C810.028,-2153.34 736.492,-2139.78 688.634,-2130.96"/>
<polygon fill="none" stroke="black" points="689,-2127.47 678.532,-2129.1 687.732,-2134.36 689,-2127.47"/>
</g>
<!-- \\DateHelper -->
<g id="node38" class="node"><title>\\DateHelper</title>
<polygon fill="none" stroke="black" points="975,-2140 891,-2140 891,-2104 975,-2104 975,-2140"/>
<text text-anchor="middle" x="933" y="-2119.1" font-family="Courier,monospace" font-size="11.00">DateHelper</text>
</g>
<!-- \\DateHelper&#45;&gt;\\AppHelper -->
<g id="edge63" class="edge"><title>\\DateHelper&#45;&gt;\\AppHelper</title>
<path fill="none" stroke="black" d="M890.708,-2122C837.148,-2122 745.059,-2122 688.643,-2122"/>
<polygon fill="none" stroke="black" points="688.542,-2118.5 678.542,-2122 688.542,-2125.5 688.542,-2118.5"/>
</g>
<!-- \\SnsButtonHelper -->
<g id="node39" class="node"><title>\\SnsButtonHelper</title>
<polygon fill="none" stroke="black" points="992,-2086 874,-2086 874,-2050 992,-2050 992,-2086"/>
<text text-anchor="middle" x="933" y="-2065.1" font-family="Courier,monospace" font-size="11.00">SnsButtonHelper</text>
</g>
<!-- \\SnsButtonHelper&#45;&gt;\\AppHelper -->
<g id="edge65" class="edge"><title>\\SnsButtonHelper&#45;&gt;\\AppHelper</title>
<path fill="none" stroke="black" d="M873.707,-2078.93C819.266,-2088.96 739.563,-2103.65 688.738,-2113.02"/>
<polygon fill="none" stroke="black" points="687.863,-2109.62 678.663,-2114.87 689.131,-2116.5 687.863,-2109.62"/>
</g>
<!-- \\BackToHelper -->
<g id="node40" class="node"><title>\\BackToHelper</title>
<polygon fill="none" stroke="black" points="982,-2032 884,-2032 884,-1996 982,-1996 982,-2032"/>
<text text-anchor="middle" x="933" y="-2011.1" font-family="Courier,monospace" font-size="11.00">BackToHelper</text>
</g>
<!-- \\BackToHelper&#45;&gt;\\AppHelper -->
<g id="edge67" class="edge"><title>\\BackToHelper&#45;&gt;\\AppHelper</title>
<path fill="none" stroke="black" d="M883.836,-2025.32C866.643,-2029.69 847.316,-2035.08 830,-2041 780.27,-2058.02 725.199,-2082.1 687.206,-2099.58"/>
<polygon fill="none" stroke="black" points="685.534,-2096.5 677.929,-2103.88 688.474,-2102.85 685.534,-2096.5"/>
</g>
<!-- \\NetCommonsHtmlHelper -->
<g id="node41" class="node"><title>\\NetCommonsHtmlHelper</title>
<polygon fill="none" stroke="black" points="1009,-1870 857,-1870 857,-1834 1009,-1834 1009,-1870"/>
<text text-anchor="middle" x="933" y="-1849.1" font-family="Courier,monospace" font-size="11.00">NetCommonsHtmlHelper</text>
</g>
<!-- \\NetCommonsHtmlHelper&#45;&gt;\\AppHelper -->
<g id="edge69" class="edge"><title>\\NetCommonsHtmlHelper&#45;&gt;\\AppHelper</title>
<path fill="none" stroke="black" d="M856.858,-1865.85C847.397,-1869.3 838.186,-1873.62 830,-1879 744.042,-1935.54 680.094,-2044.07 653.531,-2094.72"/>
<polygon fill="none" stroke="black" points="650.341,-2093.27 648.865,-2103.76 656.562,-2096.48 650.341,-2093.27"/>
</g>
<!-- \\ButtonHelper -->
<g id="node42" class="node"><title>\\ButtonHelper</title>
<polygon fill="none" stroke="black" points="982,-844 884,-844 884,-808 982,-808 982,-844"/>
<text text-anchor="middle" x="933" y="-823.1" font-family="Courier,monospace" font-size="11.00">ButtonHelper</text>
</g>
<!-- \\ButtonHelper&#45;&gt;\\FormHelper -->
<g id="edge71" class="edge"><title>\\ButtonHelper&#45;&gt;\\FormHelper</title>
<path fill="none" stroke="black" d="M883.847,-824.539C864.376,-821.365 843.465,-814.238 830,-799 670.252,-618.227 920.569,-439.24 758,-261 748.162,-250.213 734.974,-243.293 720.979,-238.934"/>
<polygon fill="none" stroke="black" points="721.757,-235.519 711.192,-236.31 719.944,-242.281 721.757,-235.519"/>
</g>
<!-- \\ComposerHelper -->
<g id="node43" class="node"><title>\\ComposerHelper</title>
<polygon fill="none" stroke="black" points="988,-1654 878,-1654 878,-1618 988,-1618 988,-1654"/>
<text text-anchor="middle" x="933" y="-1633.1" font-family="Courier,monospace" font-size="11.00">ComposerHelper</text>
</g>
<!-- \\ComposerHelper&#45;&gt;\\AppHelper -->
<g id="edge73" class="edge"><title>\\ComposerHelper&#45;&gt;\\AppHelper</title>
<path fill="none" stroke="black" d="M877.461,-1640.97C860.645,-1644.83 843.164,-1651.52 830,-1663 694.066,-1781.59 653.424,-2012.8 643.102,-2093.44"/>
<polygon fill="none" stroke="black" points="639.576,-2093.44 641.84,-2103.79 646.525,-2094.29 639.576,-2093.44"/>
</g>
<!-- \\LinkButtonHelper -->
<g id="node44" class="node"><title>\\LinkButtonHelper</title>
<polygon fill="none" stroke="black" points="995,-790 871,-790 871,-754 995,-754 995,-790"/>
<text text-anchor="middle" x="933" y="-769.1" font-family="Courier,monospace" font-size="11.00">LinkButtonHelper</text>
</g>
<!-- \\LinkButtonHelper&#45;&gt;\\FormHelper -->
<g id="edge75" class="edge"><title>\\LinkButtonHelper&#45;&gt;\\FormHelper</title>
<path fill="none" stroke="black" d="M870.3,-767.541C855.196,-763.523 840.429,-756.629 830,-745 684.8,-583.094 905.726,-420.605 758,-261 748.083,-250.286 734.859,-243.398 720.853,-239.049"/>
<polygon fill="none" stroke="black" points="721.628,-235.634 711.063,-236.429 719.818,-242.396 721.628,-235.634"/>
</g>
<!-- \\TableListHelper -->
<g id="node45" class="node"><title>\\TableListHelper</title>
<polygon fill="none" stroke="black" points="992,-1600 874,-1600 874,-1564 992,-1564 992,-1600"/>
<text text-anchor="middle" x="933" y="-1579.1" font-family="Courier,monospace" font-size="11.00">TableListHelper</text>
</g>
<!-- \\TableListHelper&#45;&gt;\\AppHelper -->
<g id="edge77" class="edge"><title>\\TableListHelper&#45;&gt;\\AppHelper</title>
<path fill="none" stroke="black" d="M873.988,-1587.44C858.174,-1591.4 842.123,-1598.01 830,-1609 680.846,-1744.16 648.432,-2007.13 641.693,-2093.65"/>
<polygon fill="none" stroke="black" points="638.192,-2093.53 640.962,-2103.76 645.174,-2094.04 638.192,-2093.53"/>
</g>
<!-- \\NetCommonsTimeHelper -->
<g id="node46" class="node"><title>\\NetCommonsTimeHelper</title>
<polygon fill="none" stroke="black" points="1009,-1546 857,-1546 857,-1510 1009,-1510 1009,-1546"/>
<text text-anchor="middle" x="933" y="-1525.1" font-family="Courier,monospace" font-size="11.00">NetCommonsTimeHelper</text>
</g>
<!-- \\NetCommonsTimeHelper&#45;&gt;\\AppHelper -->
<g id="edge79" class="edge"><title>\\NetCommonsTimeHelper&#45;&gt;\\AppHelper</title>
<path fill="none" stroke="black" d="M856.996,-1538.53C847.071,-1542.47 837.696,-1547.8 830,-1555 747.245,-1632.39 667.482,-1990.01 645.771,-2093.73"/>
<polygon fill="none" stroke="black" points="642.293,-2093.26 643.686,-2103.77 649.147,-2094.69 642.293,-2093.26"/>
</g>
<!-- \\NetCommonsFormHelper -->
<g id="node47" class="node"><title>\\NetCommonsFormHelper</title>
<polygon fill="none" stroke="black" points="1009,-2518 857,-2518 857,-2482 1009,-2482 1009,-2518"/>
<text text-anchor="middle" x="933" y="-2497.1" font-family="Courier,monospace" font-size="11.00">NetCommonsFormHelper</text>
</g>
<!-- \\NetCommonsFormHelper&#45;&gt;\\AppHelper -->
<g id="edge81" class="edge"><title>\\NetCommonsFormHelper&#45;&gt;\\AppHelper</title>
<path fill="none" stroke="black" d="M856.747,-2487.71C847.144,-2484.02 837.925,-2479.22 830,-2473 719.54,-2386.29 664.898,-2216.9 646.922,-2150.07"/>
<polygon fill="none" stroke="black" points="650.271,-2149.04 644.349,-2140.26 643.499,-2150.82 650.271,-2149.04"/>
</g>
<!-- \\TitleIconHelper -->
<g id="node48" class="node"><title>\\TitleIconHelper</title>
<polygon fill="none" stroke="black" points="992,-2464 874,-2464 874,-2428 992,-2428 992,-2464"/>
<text text-anchor="middle" x="933" y="-2443.1" font-family="Courier,monospace" font-size="11.00">TitleIconHelper</text>
</g>
<!-- \\TitleIconHelper&#45;&gt;\\AppHelper -->
<g id="edge83" class="edge"><title>\\TitleIconHelper&#45;&gt;\\AppHelper</title>
<path fill="none" stroke="black" d="M873.801,-2438.4C858.513,-2434.4 842.78,-2428.3 830,-2419 779.522,-2382.27 688.866,-2215.53 654.1,-2149.27"/>
<polygon fill="none" stroke="black" points="657.121,-2147.49 649.388,-2140.25 650.916,-2150.73 657.121,-2147.49"/>
</g>
<!-- \\DatetimePickerHelper -->
<g id="node49" class="node"><title>\\DatetimePickerHelper</title>
<polygon fill="none" stroke="black" points="1009,-2410 857,-2410 857,-2374 1009,-2374 1009,-2410"/>
<text text-anchor="middle" x="933" y="-2389.1" font-family="Courier,monospace" font-size="11.00">DatetimePickerHelper</text>
</g>
<!-- \\DatetimePickerHelper&#45;&gt;\\AppHelper -->
<g id="edge85" class="edge"><title>\\DatetimePickerHelper&#45;&gt;\\AppHelper</title>
<path fill="none" stroke="black" d="M856.858,-2378.15C847.397,-2374.7 838.186,-2370.38 830,-2365 744.042,-2308.46 680.094,-2199.93 653.531,-2149.28"/>
<polygon fill="none" stroke="black" points="656.562,-2147.52 648.865,-2140.24 650.341,-2150.73 656.562,-2147.52"/>
</g>
<!-- \\Model -->
<g id="node109" class="node"><title>\\Model</title>
<ellipse fill="none" stroke="black" cx="82" cy="-2554" rx="43.8406" ry="18.3848"/>
<text text-anchor="middle" x="82" y="-2550.4" font-family="Times Roman,serif" font-size="14.00" fill="gray">\Model</text>
</g>
<!-- \\NetCommonsAppModel&#45;&gt;\\Model -->
<g id="edge87" class="edge"><title>\\NetCommonsAppModel&#45;&gt;\\Model</title>
<path fill="none" stroke="black" d="M273.742,-2554C230.675,-2554 176.099,-2554 136.195,-2554"/>
<polygon fill="none" stroke="black" points="136.125,-2550.5 126.125,-2554 136.125,-2557.5 136.125,-2550.5"/>
</g>
<!-- \\OriginalKeyBehavior -->
<g id="node51" class="node"><title>\\OriginalKeyBehavior</title>
<polygon fill="none" stroke="black" points="1005,-628 861,-628 861,-592 1005,-592 1005,-628"/>
<text text-anchor="middle" x="933" y="-607.1" font-family="Courier,monospace" font-size="11.00">OriginalKeyBehavior</text>
</g>
<!-- \\ModelBehavior -->
<g id="node111" class="node"><title>\\ModelBehavior</title>
<ellipse fill="none" stroke="black" cx="640" cy="-126" rx="86.9741" ry="18.3848"/>
<text text-anchor="middle" x="640" y="-122.4" font-family="Times Roman,serif" font-size="14.00" fill="gray">\ModelBehavior</text>
</g>
<!-- \\OriginalKeyBehavior&#45;&gt;\\ModelBehavior -->
<g id="edge89" class="edge"><title>\\OriginalKeyBehavior&#45;&gt;\\ModelBehavior</title>
<path fill="none" stroke="black" d="M860.344,-602.25C848.896,-598.073 838.166,-591.94 830,-583 699.318,-439.927 890.914,-294.002 758,-153 750.736,-145.293 741.758,-139.575 732.025,-135.36"/>
<polygon fill="none" stroke="black" points="733.083,-132.019 722.491,-131.764 730.613,-138.568 733.083,-132.019"/>
</g>
<!-- \\TrackableBehavior -->
<g id="node52" class="node"><title>\\TrackableBehavior</title>
<polygon fill="none" stroke="black" points="998,-574 868,-574 868,-538 998,-538 998,-574"/>
<text text-anchor="middle" x="933" y="-553.1" font-family="Courier,monospace" font-size="11.00">TrackableBehavior</text>
</g>
<!-- \\TrackableBehavior&#45;&gt;\\ModelBehavior -->
<g id="edge91" class="edge"><title>\\TrackableBehavior&#45;&gt;\\ModelBehavior</title>
<path fill="none" stroke="black" d="M867.409,-550.347C853.429,-546.238 839.911,-539.6 830,-529 713.795,-404.716 876.143,-275.443 758,-153 750.646,-145.379 741.615,-139.712 731.852,-135.525"/>
<polygon fill="none" stroke="black" points="732.89,-132.176 722.298,-131.949 730.436,-138.732 732.89,-132.176"/>
</g>
<!-- \\YAExceptionRenderer -->
<g id="node53" class="node"><title>\\YAExceptionRenderer</title>
<polygon fill="none" stroke="black" points="1005,-520 861,-520 861,-484 1005,-484 1005,-520"/>
<text text-anchor="middle" x="933" y="-499.1" font-family="Courier,monospace" font-size="11.00">YAExceptionRenderer</text>
</g>
<!-- \\ExceptionRenderer -->
<g id="node114" class="node"><title>\\ExceptionRenderer</title>
<ellipse fill="none" stroke="black" cx="640" cy="-72" rx="118.087" ry="18.3848"/>
<text text-anchor="middle" x="640" y="-68.4" font-family="Times Roman,serif" font-size="14.00" fill="gray">TEHxceptionRenderer</text>
</g>
<!-- \\YAExceptionRenderer&#45;&gt;\\ExceptionRenderer -->
<g id="edge93" class="edge"><title>\\YAExceptionRenderer&#45;&gt;\\ExceptionRenderer</title>
<path fill="none" stroke="black" d="M860.253,-493.995C848.886,-489.838 838.206,-483.777 830,-475 713.795,-350.716 876.143,-221.443 758,-99 753.747,-94.5918 748.932,-90.8373 743.739,-87.645"/>
<polygon fill="none" stroke="black" points="745.142,-84.4261 734.675,-82.787 741.836,-90.5958 745.142,-84.4261"/>
</g>
<!-- \\NetCommonsMigration -->
<g id="node54" class="node"><title>\\NetCommonsMigration</title>
<polygon fill="none" stroke="black" points="1005,-412 861,-412 861,-376 1005,-376 1005,-412"/>
<text text-anchor="middle" x="933" y="-391.1" font-family="Courier,monospace" font-size="11.00">NetCommonsMigration</text>
</g>
<!-- \\CakeMigration -->
<g id="node116" class="node"><title>\\CakeMigration</title>
<ellipse fill="none" stroke="black" cx="640" cy="-18" rx="84.8528" ry="18.3848"/>
<text text-anchor="middle" x="640" y="-14.4" font-family="Times Roman,serif" font-size="14.00" fill="gray">\CakeMigration</text>
</g>
<!-- \\NetCommonsMigration&#45;&gt;\\CakeMigration -->
<g id="edge95" class="edge"><title>\\NetCommonsMigration&#45;&gt;\\CakeMigration</title>
<path fill="none" stroke="black" d="M929.544,-375.725C917.514,-317.407 871.834,-134.35 758,-45 748.922,-37.8745 738.309,-32.5637 727.237,-28.6167"/>
<polygon fill="none" stroke="black" points="728.007,-25.1887 717.416,-25.488 725.882,-31.8584 728.007,-25.1887"/>
</g>
<!-- \\TestAuthGeneral -->
<g id="node55" class="node"><title>\\TestAuthGeneral</title>
<polygon fill="none" stroke="black" points="992,-466 874,-466 874,-430 992,-430 992,-466"/>
<text text-anchor="middle" x="933" y="-445.1" font-family="Courier,monospace" font-size="11.00">TestAuthGeneral</text>
</g>
<!-- \\AuthGeneralAppController -->
<g id="node56" class="node"><title>\\AuthGeneralAppController</title>
<polygon fill="none" stroke="black" points="729,-1357 551,-1357 551,-1321 729,-1321 729,-1357"/>
<text text-anchor="middle" x="640" y="-1336.1" font-family="Courier,monospace" font-size="11.00">AuthGeneralAppController</text>
</g>
<!-- \\AuthController -->
<g id="node118" class="node"><title>\\AuthController</title>
<ellipse fill="none" stroke="black" cx="343" cy="-234" rx="87.1802" ry="18.3848"/>
<text text-anchor="middle" x="343" y="-230.4" font-family="Times Roman,serif" font-size="14.00" fill="gray">\AuthController</text>
</g>
<!-- \\AuthGeneralAppController&#45;&gt;\\AuthController -->
<g id="edge97" class="edge"><title>\\AuthGeneralAppController&#45;&gt;\\AuthController</title>
<path fill="none" stroke="black" d="M569.14,-1320.95C550.961,-1312.9 533.355,-1301.39 522,-1285 392.085,-1097.49 596.417,-435.927 450,-261 444.812,-254.802 438.428,-249.914 431.384,-246.071"/>
<polygon fill="none" stroke="black" points="432.688,-242.817 422.147,-241.744 429.718,-249.156 432.688,-242.817"/>
</g>
<!-- \\AuthGeneralController -->
<g id="node57" class="node"><title>\\AuthGeneralController</title>
<polygon fill="none" stroke="black" points="1012,-1384 854,-1384 854,-1348 1012,-1348 1012,-1384"/>
<text text-anchor="middle" x="933" y="-1363.1" font-family="Courier,monospace" font-size="11.00">AuthGeneralController</text>
</g>
<!-- \\AuthGeneralController&#45;&gt;\\AuthGeneralAppController -->
<g id="edge99" class="edge"><title>\\AuthGeneralController&#45;&gt;\\AuthGeneralAppController</title>
<path fill="none" stroke="black" d="M853.71,-1358.69C818.699,-1355.47 777.15,-1351.64 740.039,-1348.22"/>
<polygon fill="none" stroke="black" points="739.977,-1344.7 729.698,-1347.27 739.335,-1351.67 739.977,-1344.7"/>
</g>
</g>
</svg>
