<?xml version="1.0" encoding="UTF-8" standalone="no"?>
<!DOCTYPE svg PUBLIC "-//W3C//DTD SVG 1.1//EN"
 "http://www.w3.org/Graphics/SVG/1.1/DTD/svg11.dtd">
<!-- Generated by graphviz version 2.26.3 (20100126.1600)
 -->
<!-- Title: G Pages: 1 -->
<svg width="1060pt" height="2942pt"
 viewBox="0.00 0.00 1060.00 2942.00" xmlns="http://www.w3.org/2000/svg" xmlns:xlink="http://www.w3.org/1999/xlink">
<g id="graph1" class="graph" transform="scale(1 1) rotate(0) translate(4 2938)">
<title>G</title>
<polygon fill="white" stroke="white" points="-4,5 -4,-2938 1057,-2938 1057,5 -4,5"/>
<g id="graph2" class="cluster"><title>cluster_Global</title>
<polyline fill="none" stroke="gray" points="264,-422 1032,-422 "/>
<path fill="none" stroke="gray" d="M1032,-422C1038,-422 1044,-428 1044,-434"/>
<polyline fill="none" stroke="gray" points="1044,-434 1044,-2914 "/>
<path fill="none" stroke="gray" d="M1044,-2914C1044,-2920 1038,-2926 1032,-2926"/>
<polyline fill="none" stroke="gray" points="1032,-2926 264,-2926 "/>
<path fill="none" stroke="gray" d="M264,-2926C258,-2926 252,-2920 252,-2914"/>
<polyline fill="none" stroke="gray" points="252,-2914 252,-434 "/>
<path fill="none" stroke="gray" d="M252,-434C252,-428 258,-422 264,-422"/>
<text text-anchor="middle" x="648" y="-2912.1" font-family="Times Roman,serif" font-size="11.00" fill="gray">Global</text>
</g>
<!-- \\AppController -->
<g id="node2" class="node"><title>\\AppController</title>
<polygon fill="none" stroke="black" points="985,-1384 881,-1384 881,-1348 985,-1348 985,-1384"/>
<text text-anchor="middle" x="933" y="-1363.1" font-family="Courier,monospace" font-size="11.00">AppController</text>
</g>
<!-- \\Controller -->
<g id="node59" class="node"><title>\\Controller</title>
<ellipse fill="none" stroke="black" cx="343" cy="-288" rx="63.1385" ry="18.3848"/>
<text text-anchor="middle" x="343" y="-284.4" font-family="Times Roman,serif" font-size="14.00" fill="gray">\Controller</text>
</g>
<!-- \\AppController&#45;&gt;\\Controller -->
<g id="edge3" class="edge"><title>\\AppController&#45;&gt;\\Controller</title>
<path fill="none" stroke="black" d="M880.932,-1362.13C862.979,-1358.45 843.908,-1351.6 830,-1339 740.046,-1257.54 540.327,-396.05 450,-315 439.944,-305.976 427.308,-299.876 414.276,-295.772"/>
<polygon fill="none" stroke="black" points="414.842,-292.297 404.271,-293.008 412.978,-299.044 414.842,-292.297"/>
</g>
<!-- \\AppModel -->
<g id="node3" class="node"><title>\\AppModel</title>
<polygon fill="none" stroke="black" points="675,-2680 605,-2680 605,-2644 675,-2644 675,-2680"/>
<text text-anchor="middle" x="640" y="-2659.1" font-family="Courier,monospace" font-size="11.00">AppModel</text>
</g>
<!-- \\NetCommonsAppModel -->
<g id="node50" class="node"><title>\\NetCommonsAppModel</title>
<polygon fill="none" stroke="black" points="412,-2680 274,-2680 274,-2644 412,-2644 412,-2680"/>
<text text-anchor="middle" x="343" y="-2659.1" font-family="Courier,monospace" font-size="11.00">NetCommonsAppModel</text>
</g>
<!-- \\AppModel&#45;&gt;\\NetCommonsAppModel -->
<g id="edge5" class="edge"><title>\\AppModel&#45;&gt;\\NetCommonsAppModel</title>
<path fill="none" stroke="black" d="M604.47,-2662C559.713,-2662 481.497,-2662 422.241,-2662"/>
<polygon fill="none" stroke="black" points="422.157,-2658.5 412.157,-2662 422.157,-2665.5 422.157,-2658.5"/>
</g>
<!-- \\DatabaseConfiguration -->
<g id="node4" class="node"><title>\\DatabaseConfiguration</title>
<polygon fill="none" stroke="black" points="1012,-2680 854,-2680 854,-2644 1012,-2644 1012,-2680"/>
<text text-anchor="middle" x="933" y="-2659.1" font-family="Courier,monospace" font-size="11.00">DatabaseConfiguration</text>
</g>
<!-- \\DatabaseConfiguration&#45;&gt;\\AppModel -->
<g id="edge7" class="edge"><title>\\DatabaseConfiguration&#45;&gt;\\AppModel</title>
<path fill="none" stroke="black" d="M853.71,-2662C799.937,-2662 730.74,-2662 685.886,-2662"/>
<polygon fill="none" stroke="black" points="685.866,-2658.5 675.866,-2662 685.866,-2665.5 685.866,-2658.5"/>
</g>
<!-- \\AppHelper -->
<g id="node5" class="node"><title>\\AppHelper</title>
<polygon fill="none" stroke="black" points="678,-2248 602,-2248 602,-2212 678,-2212 678,-2248"/>
<text text-anchor="middle" x="640" y="-2227.1" font-family="Courier,monospace" font-size="11.00">AppHelper</text>
</g>
<!-- \\Helper -->
<g id="node63" class="node"><title>\\Helper</title>
<ellipse fill="none" stroke="black" cx="343" cy="-396" rx="43.8406" ry="18.3848"/>
<text text-anchor="middle" x="343" y="-392.4" font-family="Times Roman,serif" font-size="14.00" fill="gray">Helper</text>
</g>
<!-- \\AppHelper&#45;&gt;\\Helper -->
<g id="edge9" class="edge"><title>\\AppHelper&#45;&gt;\\Helper</title>
<path fill="none" stroke="black" d="M635.669,-2211.85C618.147,-2137.61 552.016,-1849.66 522,-1609 505.592,-1477.44 536.838,-518.176 450,-418 436.883,-402.868 416.382,-396.476 396.821,-394.189"/>
<polygon fill="none" stroke="black" points="396.978,-390.69 386.721,-393.342 396.394,-397.665 396.978,-390.69"/>
</g>
<!-- \\NetCommonsDeleteTest -->
<g id="node6" class="node"><title>\\NetCommonsDeleteTest</title>
<polygon fill="none" stroke="black" points="1009,-2788 857,-2788 857,-2752 1009,-2752 1009,-2788"/>
<text text-anchor="middle" x="933" y="-2767.1" font-family="Courier,monospace" font-size="11.00">NetCommonsDeleteTest</text>
</g>
<!-- \\NetCommonsModelTestCase -->
<g id="node15" class="node"><title>\\NetCommonsModelTestCase</title>
<polygon fill="none" stroke="black" points="726,-2815 554,-2815 554,-2779 726,-2779 726,-2815"/>
<text text-anchor="middle" x="640" y="-2794.1" font-family="Courier,monospace" font-size="11.00">NetCommonsModelTestCase</text>
</g>
<!-- \\NetCommonsDeleteTest&#45;&gt;\\NetCommonsModelTestCase -->
<g id="edge11" class="edge"><title>\\NetCommonsDeleteTest&#45;&gt;\\NetCommonsModelTestCase</title>
<path fill="none" stroke="black" d="M856.783,-2777.02C820.049,-2780.41 775.59,-2784.51 736.519,-2788.11"/>
<polygon fill="none" stroke="black" points="735.82,-2784.66 726.183,-2789.06 736.462,-2791.63 735.82,-2784.66"/>
</g>
<!-- \\NetCommonsConsoleTestCase -->
<g id="node7" class="node"><title>\\NetCommonsConsoleTestCase</title>
<polygon fill="none" stroke="black" points="732,-2761 548,-2761 548,-2725 732,-2725 732,-2761"/>
<text text-anchor="middle" x="640" y="-2740.1" font-family="Courier,monospace" font-size="11.00">NetCommonsConsoleTestCase</text>
</g>
<!-- \\NetCommonsCakeTestCase -->
<g id="node13" class="node"><title>\\NetCommonsCakeTestCase</title>
<polygon fill="none" stroke="black" points="425,-2815 261,-2815 261,-2779 425,-2779 425,-2815"/>
<text text-anchor="middle" x="343" y="-2794.1" font-family="Courier,monospace" font-size="11.00">NetCommonsCakeTestCase</text>
</g>
<!-- \\NetCommonsConsoleTestCase&#45;&gt;\\NetCommonsCakeTestCase -->
<g id="edge13" class="edge"><title>\\NetCommonsConsoleTestCase&#45;&gt;\\NetCommonsCakeTestCase</title>
<path fill="none" stroke="black" d="M547.249,-2759.86C511.778,-2766.31 471.343,-2773.66 435.861,-2780.12"/>
<polygon fill="none" stroke="black" points="435.206,-2776.68 425.993,-2781.91 436.458,-2783.56 435.206,-2776.68"/>
</g>
<!-- \\NetCommonsGetTest -->
<g id="node8" class="node"><title>\\NetCommonsGetTest</title>
<polygon fill="none" stroke="black" points="998,-2734 868,-2734 868,-2698 998,-2698 998,-2734"/>
<text text-anchor="middle" x="933" y="-2713.1" font-family="Courier,monospace" font-size="11.00">NetCommonsGetTest</text>
</g>
<!-- \\NetCommonsGetTest&#45;&gt;\\NetCommonsModelTestCase -->
<g id="edge15" class="edge"><title>\\NetCommonsGetTest&#45;&gt;\\NetCommonsModelTestCase</title>
<path fill="none" stroke="black" d="M867.325,-2732.14C854.864,-2735.51 841.981,-2739.19 830,-2743 797.428,-2753.35 790.731,-2760.17 758,-2770 750.57,-2772.23 742.83,-2774.38 735.023,-2776.43"/>
<polygon fill="none" stroke="black" points="733.938,-2773.09 725.116,-2778.96 735.671,-2779.87 733.938,-2773.09"/>
</g>
<!-- \\NetCommonsHelperTestCase -->
<g id="node9" class="node"><title>\\NetCommonsHelperTestCase</title>
<polygon fill="none" stroke="black" points="729,-2869 551,-2869 551,-2833 729,-2833 729,-2869"/>
<text text-anchor="middle" x="640" y="-2848.1" font-family="Courier,monospace" font-size="11.00">NetCommonsHelperTestCase</text>
</g>
<!-- \\NetCommonsHelperTestCase&#45;&gt;\\NetCommonsCakeTestCase -->
<g id="edge17" class="edge"><title>\\NetCommonsHelperTestCase&#45;&gt;\\NetCommonsCakeTestCase</title>
<path fill="none" stroke="black" d="M550.487,-2834.72C514.267,-2828.14 472.456,-2820.54 435.9,-2813.89"/>
<polygon fill="none" stroke="black" points="436.202,-2810.39 425.737,-2812.04 434.95,-2817.28 436.202,-2810.39"/>
</g>
<!-- \\NetCommonsControllerBaseTestCase -->
<g id="node10" class="node"><title>\\NetCommonsControllerBaseTestCase</title>
<polygon fill="none" stroke="black" points="756,-1600 524,-1600 524,-1564 756,-1564 756,-1600"/>
<text text-anchor="middle" x="640" y="-1579.1" font-family="Courier,monospace" font-size="11.00">NetCommonsControllerBaseTestCase</text>
</g>
<!-- \\ControllerTestCase -->
<g id="node69" class="node"><title>\\ControllerTestCase</title>
<ellipse fill="none" stroke="black" cx="343" cy="-342" rx="106.773" ry="18.3848"/>
<text text-anchor="middle" x="343" y="-338.4" font-family="Times Roman,serif" font-size="14.00" fill="gray">\ControllerTestCase</text>
</g>
<!-- \\NetCommonsControllerBaseTestCase&#45;&gt;\\ControllerTestCase -->
<g id="edge19" class="edge"><title>\\NetCommonsControllerBaseTestCase&#45;&gt;\\ControllerTestCase</title>
<path fill="none" stroke="black" d="M530.978,-1563.64C527.732,-1561.08 524.718,-1558.21 522,-1555 351.246,-1353.6 618.505,-572.282 450,-369 446.408,-364.667 442.232,-360.973 437.653,-357.828"/>
<polygon fill="none" stroke="black" points="439.407,-354.8 429.014,-352.742 435.855,-360.832 439.407,-354.8"/>
</g>
<!-- \\NetCommonsValidateTest -->
<g id="node11" class="node"><title>\\NetCommonsValidateTest</title>
<polygon fill="none" stroke="black" points="1015,-2896 851,-2896 851,-2860 1015,-2860 1015,-2896"/>
<text text-anchor="middle" x="933" y="-2875.1" font-family="Courier,monospace" font-size="11.00">NetCommonsValidateTest</text>
</g>
<!-- \\NetCommonsValidateTest&#45;&gt;\\NetCommonsModelTestCase -->
<g id="edge21" class="edge"><title>\\NetCommonsValidateTest&#45;&gt;\\NetCommonsModelTestCase</title>
<path fill="none" stroke="black" d="M860.418,-2859.97C850.158,-2857.13 839.778,-2854.11 830,-2851 797.428,-2840.65 790.731,-2833.83 758,-2824 750.57,-2821.77 742.83,-2819.62 735.023,-2817.57"/>
<polygon fill="none" stroke="black" points="735.671,-2814.13 725.116,-2815.04 733.938,-2820.91 735.671,-2814.13"/>
</g>
<!-- \\NetCommonsTestSuite -->
<g id="node12" class="node"><title>\\NetCommonsTestSuite</title>
<polygon fill="none" stroke="black" points="1005,-1330 861,-1330 861,-1294 1005,-1294 1005,-1330"/>
<text text-anchor="middle" x="933" y="-1309.1" font-family="Courier,monospace" font-size="11.00">NetCommonsTestSuite</text>
</g>
<!-- \\CakeTestSuite -->
<g id="node72" class="node"><title>\\CakeTestSuite</title>
<ellipse fill="none" stroke="black" cx="640" cy="-396" rx="84.1457" ry="18.3848"/>
<text text-anchor="middle" x="640" y="-392.4" font-family="Times Roman,serif" font-size="14.00" fill="gray">\CakeTestSuite</text>
</g>
<!-- \\NetCommonsTestSuite&#45;&gt;\\CakeTestSuite -->
<g id="edge23" class="edge"><title>\\NetCommonsTestSuite&#45;&gt;\\CakeTestSuite</title>
<path fill="none" stroke="black" d="M860.499,-1305.09C848.818,-1300.85 837.966,-1294.48 830,-1285 705.654,-1136.96 887.596,-561.462 758,-418 751.19,-410.461 742.695,-404.996 733.403,-401.088"/>
<polygon fill="none" stroke="black" points="734.473,-397.754 723.878,-397.68 732.114,-404.344 734.473,-397.754"/>
</g>
<!-- \\CakeTestCase -->
<g id="node74" class="node"><title>\\CakeTestCase</title>
<ellipse fill="none" stroke="black" cx="82" cy="-2797" rx="82.0244" ry="18.3848"/>
<text text-anchor="middle" x="82" y="-2793.4" font-family="Times Roman,serif" font-size="14.00" fill="gray">\CakeTestCase</text>
</g>
<!-- \\NetCommonsCakeTestCase&#45;&gt;\\CakeTestCase -->
<g id="edge25" class="edge"><title>\\NetCommonsCakeTestCase&#45;&gt;\\CakeTestCase</title>
<path fill="none" stroke="black" d="M260.418,-2797C233.018,-2797 202.345,-2797 174.263,-2797"/>
<polygon fill="none" stroke="black" points="174.045,-2793.5 164.045,-2797 174.045,-2800.5 174.045,-2793.5"/>
</g>
<!-- \\NetCommonsSaveTest -->
<g id="node14" class="node"><title>\\NetCommonsSaveTest</title>
<polygon fill="none" stroke="black" points="1002,-2842 864,-2842 864,-2806 1002,-2806 1002,-2842"/>
<text text-anchor="middle" x="933" y="-2821.1" font-family="Courier,monospace" font-size="11.00">NetCommonsSaveTest</text>
</g>
<!-- \\NetCommonsSaveTest&#45;&gt;\\NetCommonsModelTestCase -->
<g id="edge27" class="edge"><title>\\NetCommonsSaveTest&#45;&gt;\\NetCommonsModelTestCase</title>
<path fill="none" stroke="black" d="M863.934,-2817.64C825.875,-2814.13 778.032,-2809.72 736.349,-2805.88"/>
<polygon fill="none" stroke="black" points="736.452,-2802.37 726.172,-2804.94 735.809,-2809.34 736.452,-2802.37"/>
</g>
<!-- \\NetCommonsModelTestCase&#45;&gt;\\NetCommonsCakeTestCase -->
<g id="edge29" class="edge"><title>\\NetCommonsModelTestCase&#45;&gt;\\NetCommonsCakeTestCase</title>
<path fill="none" stroke="black" d="M553.696,-2797C516.829,-2797 473.718,-2797 436.131,-2797"/>
<polygon fill="none" stroke="black" points="435.686,-2793.5 425.686,-2797 435.686,-2800.5 435.686,-2793.5"/>
</g>
<!-- \\NetCommonsControllerTestCase -->
<g id="node16" class="node"><title>\\NetCommonsControllerTestCase</title>
<polygon fill="none" stroke="black" points="1036,-1600 830,-1600 830,-1564 1036,-1564 1036,-1600"/>
<text text-anchor="middle" x="933" y="-1579.1" font-family="Courier,monospace" font-size="11.00">NetCommonsControllerTestCase</text>
</g>
<!-- \\NetCommonsControllerTestCase&#45;&gt;\\NetCommonsControllerBaseTestCase -->
<g id="edge31" class="edge"><title>\\NetCommonsControllerTestCase&#45;&gt;\\NetCommonsControllerBaseTestCase</title>
<path fill="none" stroke="black" d="M829.699,-1582C809.381,-1582 787.845,-1582 766.858,-1582"/>
<polygon fill="none" stroke="black" points="766.606,-1578.5 756.606,-1582 766.606,-1585.5 766.606,-1578.5"/>
</g>
<!-- \\NetCommonsAppController -->
<g id="node17" class="node"><title>\\NetCommonsAppController</title>
<polygon fill="none" stroke="black" points="726,-1438 554,-1438 554,-1402 726,-1402 726,-1438"/>
<text text-anchor="middle" x="640" y="-1417.1" font-family="Courier,monospace" font-size="11.00">NetCommonsAppController</text>
</g>
<!-- \\NetCommonsAppController&#45;&gt;\\Controller -->
<g id="edge33" class="edge"><title>\\NetCommonsAppController&#45;&gt;\\Controller</title>
<path fill="none" stroke="black" d="M553.9,-1417.79C541.745,-1413.83 530.512,-1407.58 522,-1398 361.795,-1217.69 604.46,-500.253 450,-315 441.164,-304.402 428.831,-297.631 415.668,-293.371"/>
<polygon fill="none" stroke="black" points="416.546,-289.982 405.975,-290.694 414.683,-296.73 416.546,-289.982"/>
</g>
<!-- \\AssetComponent -->
<g id="node18" class="node"><title>\\AssetComponent</title>
<polygon fill="none" stroke="black" points="988,-1222 878,-1222 878,-1186 988,-1186 988,-1222"/>
<text text-anchor="middle" x="933" y="-1201.1" font-family="Courier,monospace" font-size="11.00">AssetComponent</text>
</g>
<!-- \\Component -->
<g id="node80" class="node"><title>\\Component</title>
<ellipse fill="none" stroke="black" cx="640" cy="-342" rx="70.9184" ry="18.3848"/>
<text text-anchor="middle" x="640" y="-338.4" font-family="Times Roman,serif" font-size="14.00" fill="gray">\Component</text>
</g>
<!-- \\AssetComponent&#45;&gt;\\Component -->
<g id="edge35" class="edge"><title>\\AssetComponent&#45;&gt;\\Component</title>
<path fill="none" stroke="black" d="M877.358,-1201.71C859.711,-1198.11 841.753,-1190.91 830,-1177 713.641,-1039.32 876.508,-504.839 758,-369 748.346,-357.935 735.171,-350.898 721.117,-346.516"/>
<polygon fill="none" stroke="black" points="721.843,-343.087 711.278,-343.889 720.037,-349.85 721.843,-343.087"/>
</g>
<!-- \\AccessCtrlComponent -->
<g id="node19" class="node"><title>\\AccessCtrlComponent</title>
<polygon fill="none" stroke="black" points="1005,-1168 861,-1168 861,-1132 1005,-1132 1005,-1168"/>
<text text-anchor="middle" x="933" y="-1147.1" font-family="Courier,monospace" font-size="11.00">AccessCtrlComponent</text>
</g>
<!-- \\AccessCtrlComponent&#45;&gt;\\Component -->
<g id="edge37" class="edge"><title>\\AccessCtrlComponent&#45;&gt;\\Component</title>
<path fill="none" stroke="black" d="M860.333,-1142.91C848.742,-1138.69 837.965,-1132.36 830,-1123 720.948,-994.787 869.053,-495.484 758,-369 748.311,-357.965 735.121,-350.943 721.061,-346.564"/>
<polygon fill="none" stroke="black" points="721.786,-343.135 711.222,-343.939 719.981,-349.899 721.786,-343.135"/>
</g>
<!-- \\NetCommonsTimeComponent -->
<g id="node20" class="node"><title>\\NetCommonsTimeComponent</title>
<polygon fill="none" stroke="black" points="1019,-1114 847,-1114 847,-1078 1019,-1078 1019,-1114"/>
<text text-anchor="middle" x="933" y="-1093.1" font-family="Courier,monospace" font-size="11.00">NetCommonsTimeComponent</text>
</g>
<!-- \\NetCommonsTimeComponent&#45;&gt;\\Component -->
<g id="edge39" class="edge"><title>\\NetCommonsTimeComponent&#45;&gt;\\Component</title>
<path fill="none" stroke="black" d="M846.555,-1082.49C840.343,-1078.91 834.691,-1074.47 830,-1069 626.502,-831.507 965.204,-603.266 758,-369 748.271,-358.001 735.062,-350.994 720.998,-346.62"/>
<polygon fill="none" stroke="black" points="721.72,-343.191 711.156,-343.996 719.917,-349.955 721.72,-343.191"/>
</g>
<!-- \\PermissionComponent -->
<g id="node21" class="node"><title>\\PermissionComponent</title>
<polygon fill="none" stroke="black" points="1005,-1060 861,-1060 861,-1024 1005,-1024 1005,-1060"/>
<text text-anchor="middle" x="933" y="-1039.1" font-family="Courier,monospace" font-size="11.00">PermissionComponent</text>
</g>
<!-- \\PermissionComponent&#45;&gt;\\Component -->
<g id="edge41" class="edge"><title>\\PermissionComponent&#45;&gt;\\Component</title>
<path fill="none" stroke="black" d="M860.454,-1034.81C848.851,-1030.59 838.038,-1024.3 830,-1015 641.099,-796.429 950.312,-584.576 758,-369 748.225,-358.042 734.994,-351.054 720.924,-346.686"/>
<polygon fill="none" stroke="black" points="721.644,-343.256 711.08,-344.064 719.842,-350.02 721.644,-343.256"/>
</g>
<!-- \\NetCommonsComponent -->
<g id="node22" class="node"><title>\\NetCommonsComponent</title>
<polygon fill="none" stroke="black" points="1005,-1006 861,-1006 861,-970 1005,-970 1005,-1006"/>
<text text-anchor="middle" x="933" y="-985.1" font-family="Courier,monospace" font-size="11.00">NetCommonsComponent</text>
</g>
<!-- \\NetCommonsComponent&#45;&gt;\\Component -->
<g id="edge43" class="edge"><title>\\NetCommonsComponent&#45;&gt;\\Component</title>
<path fill="none" stroke="black" d="M860.269,-980.647C848.757,-976.437 838.024,-970.191 830,-961 655.683,-761.337 935.432,-565.899 758,-369 748.227,-358.155 735.069,-351.207 721.082,-346.841"/>
<polygon fill="none" stroke="black" points="721.864,-343.426 711.298,-344.214 720.049,-350.187 721.864,-343.426"/>
</g>
<!-- \\SiteCloseController -->
<g id="node23" class="node"><title>\\SiteCloseController</title>
<polygon fill="none" stroke="black" points="1005,-1438 861,-1438 861,-1402 1005,-1402 1005,-1438"/>
<text text-anchor="middle" x="933" y="-1417.1" font-family="Courier,monospace" font-size="11.00">SiteCloseController</text>
</g>
<!-- \\SiteCloseController&#45;&gt;\\NetCommonsAppController -->
<g id="edge45" class="edge"><title>\\SiteCloseController&#45;&gt;\\NetCommonsAppController</title>
<path fill="none" stroke="black" d="M860.197,-1420C822.776,-1420 776.682,-1420 736.354,-1420"/>
<polygon fill="none" stroke="black" points="736.233,-1416.5 726.233,-1420 736.233,-1423.5 736.233,-1416.5"/>
</g>
<!-- \\NetCommonsController -->
<g id="node24" class="node"><title>\\NetCommonsController</title>
<polygon fill="none" stroke="black" points="1009,-1492 857,-1492 857,-1456 1009,-1456 1009,-1492"/>
<text text-anchor="middle" x="933" y="-1471.1" font-family="Courier,monospace" font-size="11.00">NetCommonsController</text>
</g>
<!-- \\NetCommonsController&#45;&gt;\\NetCommonsAppController -->
<g id="edge47" class="edge"><title>\\NetCommonsController&#45;&gt;\\NetCommonsAppController</title>
<path fill="none" stroke="black" d="M856.783,-1459.95C819.893,-1453.15 775.211,-1444.92 736.02,-1437.7"/>
<polygon fill="none" stroke="black" points="736.652,-1434.25 726.183,-1435.88 735.383,-1441.14 736.652,-1434.25"/>
</g>
<!-- \\NetCommonsUrl -->
<g id="node25" class="node"><title>\\NetCommonsUrl</title>
<polygon fill="none" stroke="black" points="985,-2086 881,-2086 881,-2050 985,-2050 985,-2086"/>
<text text-anchor="middle" x="933" y="-2065.1" font-family="Courier,monospace" font-size="11.00">NetCommonsUrl</text>
</g>
<!-- \\NetCommonsTime -->
<g id="node26" class="node"><title>\\NetCommonsTime</title>
<polygon fill="none" stroke="black" points="988,-2032 878,-2032 878,-1996 988,-1996 988,-2032"/>
<text text-anchor="middle" x="933" y="-2011.1" font-family="Courier,monospace" font-size="11.00">NetCommonsTime</text>
</g>
<!-- \\CurrentBase -->
<g id="node27" class="node"><title>\\CurrentBase</title>
<polygon fill="none" stroke="black" points="685,-1546 595,-1546 595,-1510 685,-1510 685,-1546"/>
<text text-anchor="middle" x="640" y="-1525.1" font-family="Courier,monospace" font-size="11.00">CurrentBase</text>
</g>
<!-- \\Current -->
<g id="node28" class="node"><title>\\Current</title>
<polygon fill="none" stroke="black" points="965,-1546 901,-1546 901,-1510 965,-1510 965,-1546"/>
<text text-anchor="middle" x="933" y="-1525.1" font-family="Courier,monospace" font-size="11.00">Current</text>
</g>
<!-- \\Current&#45;&gt;\\CurrentBase -->
<g id="edge49" class="edge"><title>\\Current&#45;&gt;\\CurrentBase</title>
<path fill="none" stroke="black" d="M900.806,-1528C851.48,-1528 756.554,-1528 695.846,-1528"/>
<polygon fill="none" stroke="black" points="695.669,-1524.5 685.669,-1528 695.669,-1531.5 695.669,-1524.5"/>
</g>
<!-- \\CurrentSystem -->
<g id="node29" class="node"><title>\\CurrentSystem</title>
<polygon fill="none" stroke="black" points="985,-1924 881,-1924 881,-1888 985,-1888 985,-1924"/>
<text text-anchor="middle" x="933" y="-1903.1" font-family="Courier,monospace" font-size="11.00">CurrentSystem</text>
</g>
<!-- \\CurrentPage -->
<g id="node30" class="node"><title>\\CurrentPage</title>
<polygon fill="none" stroke="black" points="978,-1870 888,-1870 888,-1834 978,-1834 978,-1870"/>
<text text-anchor="middle" x="933" y="-1849.1" font-family="Courier,monospace" font-size="11.00">CurrentPage</text>
</g>
<!-- \\CurrentFrame -->
<g id="node31" class="node"><title>\\CurrentFrame</title>
<polygon fill="none" stroke="black" points="982,-1816 884,-1816 884,-1780 982,-1780 982,-1816"/>
<text text-anchor="middle" x="933" y="-1795.1" font-family="Courier,monospace" font-size="11.00">CurrentFrame</text>
</g>
<!-- \\TokenHelper -->
<g id="node32" class="node"><title>\\TokenHelper</title>
<polygon fill="none" stroke="black" points="978,-898 888,-898 888,-862 978,-862 978,-898"/>
<text text-anchor="middle" x="933" y="-877.1" font-family="Courier,monospace" font-size="11.00">TokenHelper</text>
</g>
<!-- \\FormHelper -->
<g id="node89" class="node"><title>\\FormHelper</title>
<ellipse fill="none" stroke="black" cx="640" cy="-288" rx="70.9184" ry="18.3848"/>
<text text-anchor="middle" x="640" y="-284.4" font-family="Times Roman,serif" font-size="14.00" fill="gray">\FormHelper</text>
</g>
<!-- \\TokenHelper&#45;&gt;\\FormHelper -->
<g id="edge51" class="edge"><title>\\TokenHelper&#45;&gt;\\FormHelper</title>
<path fill="none" stroke="black" d="M887.282,-879.062C866.873,-876.179 844.261,-869.138 830,-853 670.252,-672.227 920.569,-493.24 758,-315 748.162,-304.213 734.974,-297.293 720.979,-292.934"/>
<polygon fill="none" stroke="black" points="721.757,-289.519 711.192,-290.31 719.944,-296.281 721.757,-289.519"/>
</g>
<!-- \\SingletonViewBlockHtmlHelper -->
<g id="node33" class="node"><title>\\SingletonViewBlockHtmlHelper</title>
<polygon fill="none" stroke="black" points="1036,-790 830,-790 830,-754 1036,-754 1036,-790"/>
<text text-anchor="middle" x="933" y="-769.1" font-family="Courier,monospace" font-size="11.00">SingletonViewBlockHtmlHelper</text>
</g>
<!-- \\HtmlHelper -->
<g id="node91" class="node"><title>\\HtmlHelper</title>
<ellipse fill="none" stroke="black" cx="640" cy="-234" rx="67.1751" ry="18.3848"/>
<text text-anchor="middle" x="640" y="-230.4" font-family="Times Roman,serif" font-size="14.00" fill="gray">HtmlHelper</text>
</g>
<!-- \\SingletonViewBlockHtmlHelper&#45;&gt;\\HtmlHelper -->
<g id="edge53" class="edge"><title>\\SingletonViewBlockHtmlHelper&#45;&gt;\\HtmlHelper</title>
<path fill="none" stroke="black" d="M839.844,-753.806C836.274,-751.224 832.962,-748.303 830,-745 684.8,-583.094 905.726,-420.605 758,-261 747.227,-249.36 732.55,-242.237 717.208,-237.979"/>
<polygon fill="none" stroke="black" points="717.602,-234.475 707.065,-235.575 715.988,-241.287 717.602,-234.475"/>
</g>
<!-- \\FormInputHelper -->
<g id="node34" class="node"><title>\\FormInputHelper</title>
<polygon fill="none" stroke="black" points="992,-2410 874,-2410 874,-2374 992,-2374 992,-2410"/>
<text text-anchor="middle" x="933" y="-2389.1" font-family="Courier,monospace" font-size="11.00">FormInputHelper</text>
</g>
<!-- \\FormInputHelper&#45;&gt;\\AppHelper -->
<g id="edge55" class="edge"><title>\\FormInputHelper&#45;&gt;\\AppHelper</title>
<path fill="none" stroke="black" d="M873.967,-2380.43C859.237,-2376.49 843.734,-2371.42 830,-2365 767.211,-2335.67 703.394,-2285.16 668.029,-2254.94"/>
<polygon fill="none" stroke="black" points="669.944,-2251.97 660.087,-2248.08 665.369,-2257.26 669.944,-2251.97"/>
</g>
<!-- \\WizardHelper -->
<g id="node35" class="node"><title>\\WizardHelper</title>
<polygon fill="none" stroke="black" points="982,-2356 884,-2356 884,-2320 982,-2320 982,-2356"/>
<text text-anchor="middle" x="933" y="-2335.1" font-family="Courier,monospace" font-size="11.00">WizardHelper</text>
</g>
<!-- \\WizardHelper&#45;&gt;\\AppHelper -->
<g id="edge57" class="edge"><title>\\WizardHelper&#45;&gt;\\AppHelper</title>
<path fill="none" stroke="black" d="M883.836,-2326.68C866.643,-2322.31 847.316,-2316.92 830,-2311 780.27,-2293.98 725.199,-2269.9 687.206,-2252.42"/>
<polygon fill="none" stroke="black" points="688.474,-2249.15 677.929,-2248.12 685.534,-2255.5 688.474,-2249.15"/>
</g>
<!-- \\DisplayNumberHelper -->
<g id="node36" class="node"><title>\\DisplayNumberHelper</title>
<polygon fill="none" stroke="black" points="1005,-2302 861,-2302 861,-2266 1005,-2266 1005,-2302"/>
<text text-anchor="middle" x="933" y="-2281.1" font-family="Courier,monospace" font-size="11.00">DisplayNumberHelper</text>
</g>
<!-- \\DisplayNumberHelper&#45;&gt;\\AppHelper -->
<g id="edge59" class="edge"><title>\\DisplayNumberHelper&#45;&gt;\\AppHelper</title>
<path fill="none" stroke="black" d="M860.197,-2270.58C806.669,-2260.72 735.393,-2247.58 688.632,-2238.96"/>
<polygon fill="none" stroke="black" points="689.22,-2235.51 678.752,-2237.14 687.952,-2242.4 689.22,-2235.51"/>
</g>
<!-- \\MessageFlashHelper -->
<g id="node37" class="node"><title>\\MessageFlashHelper</title>
<polygon fill="none" stroke="black" points="1002,-2248 864,-2248 864,-2212 1002,-2212 1002,-2248"/>
<text text-anchor="middle" x="933" y="-2227.1" font-family="Courier,monospace" font-size="11.00">MessageFlashHelper</text>
</g>
<!-- \\MessageFlashHelper&#45;&gt;\\AppHelper -->
<g id="edge61" class="edge"><title>\\MessageFlashHelper&#45;&gt;\\AppHelper</title>
<path fill="none" stroke="black" d="M863.934,-2230C810.028,-2230 736.492,-2230 688.634,-2230"/>
<polygon fill="none" stroke="black" points="688.532,-2226.5 678.532,-2230 688.532,-2233.5 688.532,-2226.5"/>
</g>
<!-- \\DateHelper -->
<g id="node38" class="node"><title>\\DateHelper</title>
<polygon fill="none" stroke="black" points="975,-2194 891,-2194 891,-2158 975,-2158 975,-2194"/>
<text text-anchor="middle" x="933" y="-2173.1" font-family="Courier,monospace" font-size="11.00">DateHelper</text>
</g>
<!-- \\DateHelper&#45;&gt;\\AppHelper -->
<g id="edge63" class="edge"><title>\\DateHelper&#45;&gt;\\AppHelper</title>
<path fill="none" stroke="black" d="M890.708,-2183.79C837.148,-2193.67 745.059,-2210.64 688.643,-2221.04"/>
<polygon fill="none" stroke="black" points="687.742,-2217.64 678.542,-2222.9 689.01,-2224.53 687.742,-2217.64"/>
</g>
<!-- \\SnsButtonHelper -->
<g id="node39" class="node"><title>\\SnsButtonHelper</title>
<polygon fill="none" stroke="black" points="992,-2140 874,-2140 874,-2104 992,-2104 992,-2140"/>
<text text-anchor="middle" x="933" y="-2119.1" font-family="Courier,monospace" font-size="11.00">SnsButtonHelper</text>
</g>
<!-- \\SnsButtonHelper&#45;&gt;\\AppHelper -->
<g id="edge65" class="edge"><title>\\SnsButtonHelper&#45;&gt;\\AppHelper</title>
<path fill="none" stroke="black" d="M873.73,-2135.95C859.298,-2139.78 843.992,-2144.21 830,-2149 780.27,-2166.02 725.199,-2190.1 687.206,-2207.58"/>
<polygon fill="none" stroke="black" points="685.534,-2204.5 677.929,-2211.88 688.474,-2210.85 685.534,-2204.5"/>
</g>
<!-- \\BackToHelper -->
<g id="node40" class="node"><title>\\BackToHelper</title>
<polygon fill="none" stroke="black" points="982,-1978 884,-1978 884,-1942 982,-1942 982,-1978"/>
<text text-anchor="middle" x="933" y="-1957.1" font-family="Courier,monospace" font-size="11.00">BackToHelper</text>
</g>
<!-- \\BackToHelper&#45;&gt;\\AppHelper -->
<g id="edge67" class="edge"><title>\\BackToHelper&#45;&gt;\\AppHelper</title>
<path fill="none" stroke="black" d="M883.912,-1966.14C865.881,-1970.06 845.985,-1976.49 830,-1987 744.042,-2043.54 680.094,-2152.07 653.531,-2202.72"/>
<polygon fill="none" stroke="black" points="650.341,-2201.27 648.865,-2211.76 656.562,-2204.48 650.341,-2201.27"/>
</g>
<!-- \\NetCommonsHtmlHelper -->
<g id="node41" class="node"><title>\\NetCommonsHtmlHelper</title>
<polygon fill="none" stroke="black" points="1009,-1762 857,-1762 857,-1726 1009,-1726 1009,-1762"/>
<text text-anchor="middle" x="933" y="-1741.1" font-family="Courier,monospace" font-size="11.00">NetCommonsHtmlHelper</text>
</g>
<!-- \\NetCommonsHtmlHelper&#45;&gt;\\AppHelper -->
<g id="edge69" class="edge"><title>\\NetCommonsHtmlHelper&#45;&gt;\\AppHelper</title>
<path fill="none" stroke="black" d="M856.914,-1755.23C847.118,-1759.07 837.801,-1764.19 830,-1771 694.066,-1889.59 653.424,-2120.8 643.102,-2201.44"/>
<polygon fill="none" stroke="black" points="639.576,-2201.44 641.84,-2211.79 646.525,-2202.29 639.576,-2201.44"/>
</g>
<!-- \\ButtonHelper -->
<g id="node42" class="node"><title>\\ButtonHelper</title>
<polygon fill="none" stroke="black" points="982,-844 884,-844 884,-808 982,-808 982,-844"/>
<text text-anchor="middle" x="933" y="-823.1" font-family="Courier,monospace" font-size="11.00">ButtonHelper</text>
</g>
<!-- \\ButtonHelper&#45;&gt;\\FormHelper -->
<g id="edge71" class="edge"><title>\\ButtonHelper&#45;&gt;\\FormHelper</title>
<path fill="none" stroke="black" d="M883.956,-824.443C864.503,-821.253 843.577,-814.139 830,-799 684.8,-637.094 905.726,-474.605 758,-315 748.083,-304.286 734.859,-297.398 720.853,-293.049"/>
<polygon fill="none" stroke="black" points="721.628,-289.634 711.063,-290.429 719.818,-296.396 721.628,-289.634"/>
</g>
<!-- \\ComposerHelper -->
<g id="node43" class="node"><title>\\ComposerHelper</title>
<polygon fill="none" stroke="black" points="988,-1708 878,-1708 878,-1672 988,-1672 988,-1708"/>
<text text-anchor="middle" x="933" y="-1687.1" font-family="Courier,monospace" font-size="11.00">ComposerHelper</text>
</g>
<!-- \\ComposerHelper&#45;&gt;\\AppHelper -->
<g id="edge73" class="edge"><title>\\ComposerHelper&#45;&gt;\\AppHelper</title>
<path fill="none" stroke="black" d="M877.467,-1694.61C860.553,-1698.45 843.013,-1705.21 830,-1717 680.846,-1852.16 648.432,-2115.13 641.693,-2201.65"/>
<polygon fill="none" stroke="black" points="638.192,-2201.53 640.962,-2211.76 645.174,-2202.04 638.192,-2201.53"/>
</g>
<!-- \\LinkButtonHelper -->
<g id="node44" class="node"><title>\\LinkButtonHelper</title>
<polygon fill="none" stroke="black" points="995,-952 871,-952 871,-916 995,-916 995,-952"/>
<text text-anchor="middle" x="933" y="-931.1" font-family="Courier,monospace" font-size="11.00">LinkButtonHelper</text>
</g>
<!-- \\LinkButtonHelper&#45;&gt;\\FormHelper -->
<g id="edge75" class="edge"><title>\\LinkButtonHelper&#45;&gt;\\FormHelper</title>
<path fill="none" stroke="black" d="M870.358,-929.797C855.161,-925.79 840.334,-918.837 830,-907 655.683,-707.337 935.432,-511.899 758,-315 748.227,-304.155 735.069,-297.207 721.082,-292.841"/>
<polygon fill="none" stroke="black" points="721.864,-289.426 711.298,-290.214 720.049,-296.187 721.864,-289.426"/>
</g>
<!-- \\TableListHelper -->
<g id="node45" class="node"><title>\\TableListHelper</title>
<polygon fill="none" stroke="black" points="992,-1654 874,-1654 874,-1618 992,-1618 992,-1654"/>
<text text-anchor="middle" x="933" y="-1633.1" font-family="Courier,monospace" font-size="11.00">TableListHelper</text>
</g>
<!-- \\TableListHelper&#45;&gt;\\AppHelper -->
<g id="edge77" class="edge"><title>\\TableListHelper&#45;&gt;\\AppHelper</title>
<path fill="none" stroke="black" d="M873.764,-1641.2C857.946,-1645.15 841.949,-1651.83 830,-1663 747.245,-1740.39 667.482,-2098.01 645.771,-2201.73"/>
<polygon fill="none" stroke="black" points="642.293,-2201.26 643.686,-2211.77 649.147,-2202.69 642.293,-2201.26"/>
</g>
<!-- \\NetCommonsTimeHelper -->
<g id="node46" class="node"><title>\\NetCommonsTimeHelper</title>
<polygon fill="none" stroke="black" points="1009,-2626 857,-2626 857,-2590 1009,-2590 1009,-2626"/>
<text text-anchor="middle" x="933" y="-2605.1" font-family="Courier,monospace" font-size="11.00">NetCommonsTimeHelper</text>
</g>
<!-- \\NetCommonsTimeHelper&#45;&gt;\\AppHelper -->
<g id="edge79" class="edge"><title>\\NetCommonsTimeHelper&#45;&gt;\\AppHelper</title>
<path fill="none" stroke="black" d="M856.747,-2595.71C847.144,-2592.02 837.925,-2587.22 830,-2581 719.54,-2494.29 664.898,-2324.9 646.922,-2258.07"/>
<polygon fill="none" stroke="black" points="650.271,-2257.04 644.349,-2248.26 643.499,-2258.82 650.271,-2257.04"/>
</g>
<!-- \\NetCommonsFormHelper -->
<g id="node47" class="node"><title>\\NetCommonsFormHelper</title>
<polygon fill="none" stroke="black" points="1009,-2572 857,-2572 857,-2536 1009,-2536 1009,-2572"/>
<text text-anchor="middle" x="933" y="-2551.1" font-family="Courier,monospace" font-size="11.00">NetCommonsFormHelper</text>
</g>
<!-- \\NetCommonsFormHelper&#45;&gt;\\AppHelper -->
<g id="edge81" class="edge"><title>\\NetCommonsFormHelper&#45;&gt;\\AppHelper</title>
<path fill="none" stroke="black" d="M856.893,-2541.07C847.321,-2537.47 838.072,-2532.87 830,-2527 779.522,-2490.27 688.866,-2323.53 654.1,-2257.27"/>
<polygon fill="none" stroke="black" points="657.121,-2255.49 649.388,-2248.25 650.916,-2258.73 657.121,-2255.49"/>
</g>
<!-- \\TitleIconHelper -->
<g id="node48" class="node"><title>\\TitleIconHelper</title>
<polygon fill="none" stroke="black" points="992,-2518 874,-2518 874,-2482 992,-2482 992,-2518"/>
<text text-anchor="middle" x="933" y="-2497.1" font-family="Courier,monospace" font-size="11.00">TitleIconHelper</text>
</g>
<!-- \\TitleIconHelper&#45;&gt;\\AppHelper -->
<g id="edge83" class="edge"><title>\\TitleIconHelper&#45;&gt;\\AppHelper</title>
<path fill="none" stroke="black" d="M873.829,-2491.44C858.708,-2487.44 843.051,-2481.58 830,-2473 744.042,-2416.46 680.094,-2307.93 653.531,-2257.28"/>
<polygon fill="none" stroke="black" points="656.562,-2255.52 648.865,-2248.24 650.341,-2258.73 656.562,-2255.52"/>
</g>
<!-- \\DatetimePickerHelper -->
<g id="node49" class="node"><title>\\DatetimePickerHelper</title>
<polygon fill="none" stroke="black" points="1009,-2464 857,-2464 857,-2428 1009,-2428 1009,-2464"/>
<text text-anchor="middle" x="933" y="-2443.1" font-family="Courier,monospace" font-size="11.00">DatetimePickerHelper</text>
</g>
<!-- \\DatetimePickerHelper&#45;&gt;\\AppHelper -->
<g id="edge85" class="edge"><title>\\DatetimePickerHelper&#45;&gt;\\AppHelper</title>
<path fill="none" stroke="black" d="M856.919,-2430.98C847.548,-2427.72 838.344,-2423.77 830,-2419 755.721,-2376.51 690.104,-2297.52 659.041,-2256.41"/>
<polygon fill="none" stroke="black" points="661.73,-2254.16 652.946,-2248.24 656.119,-2258.35 661.73,-2254.16"/>
</g>
<!-- \\Model -->
<g id="node109" class="node"><title>\\Model</title>
<ellipse fill="none" stroke="black" cx="82" cy="-2662" rx="43.8406" ry="18.3848"/>
<text text-anchor="middle" x="82" y="-2658.4" font-family="Times Roman,serif" font-size="14.00" fill="gray">\Model</text>
</g>
<!-- \\NetCommonsAppModel&#45;&gt;\\Model -->
<g id="edge87" class="edge"><title>\\NetCommonsAppModel&#45;&gt;\\Model</title>
<path fill="none" stroke="black" d="M273.742,-2662C230.675,-2662 176.099,-2662 136.195,-2662"/>
<polygon fill="none" stroke="black" points="136.125,-2658.5 126.125,-2662 136.125,-2665.5 136.125,-2658.5"/>
</g>
<!-- \\OriginalKeyBehavior -->
<g id="node51" class="node"><title>\\OriginalKeyBehavior</title>
<polygon fill="none" stroke="black" points="1005,-682 861,-682 861,-646 1005,-646 1005,-682"/>
<text text-anchor="middle" x="933" y="-661.1" font-family="Courier,monospace" font-size="11.00">OriginalKeyBehavior</text>
</g>
<!-- \\ModelBehavior -->
<g id="node111" class="node"><title>\\ModelBehavior</title>
<ellipse fill="none" stroke="black" cx="640" cy="-180" rx="86.9741" ry="18.3848"/>
<text text-anchor="middle" x="640" y="-176.4" font-family="Times Roman,serif" font-size="14.00" fill="gray">\ModelBehavior</text>
</g>
<!-- \\OriginalKeyBehavior&#45;&gt;\\ModelBehavior -->
<g id="edge89" class="edge"><title>\\OriginalKeyBehavior&#45;&gt;\\ModelBehavior</title>
<path fill="none" stroke="black" d="M860.344,-656.25C848.896,-652.073 838.166,-645.94 830,-637 699.318,-493.927 890.914,-348.002 758,-207 750.736,-199.293 741.758,-193.575 732.025,-189.36"/>
<polygon fill="none" stroke="black" points="733.083,-186.019 722.491,-185.764 730.613,-192.568 733.083,-186.019"/>
</g>
<!-- \\TrackableBehavior -->
<g id="node52" class="node"><title>\\TrackableBehavior</title>
<polygon fill="none" stroke="black" points="998,-628 868,-628 868,-592 998,-592 998,-628"/>
<text text-anchor="middle" x="933" y="-607.1" font-family="Courier,monospace" font-size="11.00">TrackableBehavior</text>
</g>
<!-- \\TrackableBehavior&#45;&gt;\\ModelBehavior -->
<g id="edge91" class="edge"><title>\\TrackableBehavior&#45;&gt;\\ModelBehavior</title>
<path fill="none" stroke="black" d="M867.409,-604.347C853.429,-600.238 839.911,-593.6 830,-583 713.795,-458.716 876.143,-329.443 758,-207 750.646,-199.379 741.615,-193.712 731.852,-189.525"/>
<polygon fill="none" stroke="black" points="732.89,-186.176 722.298,-185.949 730.436,-192.732 732.89,-186.176"/>
</g>
<!-- \\YAExceptionRenderer -->
<g id="node53" class="node"><title>\\YAExceptionRenderer</title>
<polygon fill="none" stroke="black" points="1005,-574 861,-574 861,-538 1005,-538 1005,-574"/>
<text text-anchor="middle" x="933" y="-553.1" font-family="Courier,monospace" font-size="11.00">YAExceptionRenderer</text>
</g>
<!-- \\ExceptionRenderer -->
<g id="node114" class="node"><title>\\ExceptionRenderer</title>
<ellipse fill="none" stroke="black" cx="640" cy="-126" rx="118.087" ry="18.3848"/>
<text text-anchor="middle" x="640" y="-122.4" font-family="Times Roman,serif" font-size="14.00" fill="gray">TEHxceptionRenderer</text>
</g>
<!-- \\YAExceptionRenderer&#45;&gt;\\ExceptionRenderer -->
<g id="edge93" class="edge"><title>\\YAExceptionRenderer&#45;&gt;\\ExceptionRenderer</title>
<path fill="none" stroke="black" d="M860.253,-547.995C848.886,-543.838 838.206,-537.777 830,-529 713.795,-404.716 876.143,-275.443 758,-153 753.747,-148.592 748.932,-144.837 743.739,-141.645"/>
<polygon fill="none" stroke="black" points="745.142,-138.426 734.675,-136.787 741.836,-144.596 745.142,-138.426"/>
</g>
<!-- \\NetCommonsMigration -->
<g id="node54" class="node"><title>\\NetCommonsMigration</title>
<polygon fill="none" stroke="black" points="1005,-520 861,-520 861,-484 1005,-484 1005,-520"/>
<text text-anchor="middle" x="933" y="-499.1" font-family="Courier,monospace" font-size="11.00">NetCommonsMigration</text>
</g>
<!-- \\CakeMigration -->
<g id="node116" class="node"><title>\\CakeMigration</title>
<ellipse fill="none" stroke="black" cx="640" cy="-72" rx="84.8528" ry="18.3848"/>
<text text-anchor="middle" x="640" y="-68.4" font-family="Times Roman,serif" font-size="14.00" fill="gray">\CakeMigration</text>
</g>
<!-- \\NetCommonsMigration&#45;&gt;\\CakeMigration -->
<g id="edge95" class="edge"><title>\\NetCommonsMigration&#45;&gt;\\CakeMigration</title>
<path fill="none" stroke="black" d="M860.253,-493.995C848.886,-489.838 838.206,-483.777 830,-475 713.795,-350.716 876.143,-221.443 758,-99 750.347,-91.0685 740.877,-85.2535 730.656,-81.0209"/>
<polygon fill="none" stroke="black" points="731.684,-77.6706 721.089,-77.5632 729.304,-84.2538 731.684,-77.6706"/>
</g>
<!-- \\PrivateSpaceComponent -->
<g id="node55" class="node"><title>\\PrivateSpaceComponent</title>
<polygon fill="none" stroke="black" points="1012,-1276 854,-1276 854,-1240 1012,-1240 1012,-1276"/>
<text text-anchor="middle" x="933" y="-1255.1" font-family="Courier,monospace" font-size="11.00">PrivateSpaceComponent</text>
</g>
<!-- \\PrivateSpaceComponent&#45;&gt;\\Component -->
<g id="edge97" class="edge"><title>\\PrivateSpaceComponent&#45;&gt;\\Component</title>
<path fill="none" stroke="black" d="M853.811,-1248.37C844.718,-1244.26 836.422,-1238.64 830,-1231 706.331,-1083.84 883.966,-514.197 758,-369 748.377,-357.908 735.216,-350.859 721.165,-346.473"/>
<polygon fill="none" stroke="black" points="721.893,-343.045 711.328,-343.845 720.086,-349.808 721.893,-343.045"/>
</g>
<!-- \\PrivateSpace -->
<g id="node56" class="node"><title>\\PrivateSpace</title>
<polygon fill="none" stroke="black" points="982,-466 884,-466 884,-430 982,-430 982,-466"/>
<text text-anchor="middle" x="933" y="-445.1" font-family="Courier,monospace" font-size="11.00">PrivateSpace</text>
</g>
<!-- \\Space -->
<g id="node119" class="node"><title>\\Space</title>
<ellipse fill="none" stroke="black" cx="640" cy="-18" rx="43.8406" ry="18.3848"/>
<text text-anchor="middle" x="640" y="-14.4" font-family="Times Roman,serif" font-size="14.00" fill="gray">\Space</text>
</g>
<!-- \\PrivateSpace&#45;&gt;\\Space -->
<g id="edge99" class="edge"><title>\\PrivateSpace&#45;&gt;\\Space</title>
<path fill="none" stroke="black" d="M930.861,-429.713C922.367,-365.789 885.044,-150.503 758,-45 740.274,-30.2799 716.089,-23.2159 694.227,-19.9502"/>
<polygon fill="none" stroke="black" points="694.409,-16.4456 684.05,-18.6691 693.535,-23.3908 694.409,-16.4456"/>
</g>
<!-- \\PrivateSpaceBehavior -->
<g id="node57" class="node"><title>\\PrivateSpaceBehavior</title>
<polygon fill="none" stroke="black" points="1009,-736 857,-736 857,-700 1009,-700 1009,-736"/>
<text text-anchor="middle" x="933" y="-715.1" font-family="Courier,monospace" font-size="11.00">PrivateSpaceBehavior</text>
</g>
<!-- \\PrivateSpaceBehavior&#45;&gt;\\ModelBehavior -->
<g id="edge101" class="edge"><title>\\PrivateSpaceBehavior&#45;&gt;\\ModelBehavior</title>
<path fill="none" stroke="black" d="M856.828,-709.066C846.678,-704.931 837.282,-699.12 830,-691 684.8,-529.094 905.726,-366.605 758,-207 750.86,-199.286 742.006,-193.556 732.38,-189.328"/>
<polygon fill="none" stroke="black" points="733.536,-186.023 722.945,-185.72 731.035,-192.561 733.536,-186.023"/>
</g>
</g>
</svg>
