<?xml version="1.0" encoding="UTF-8" standalone="no"?>
<!DOCTYPE svg PUBLIC "-//W3C//DTD SVG 1.1//EN"
 "http://www.w3.org/Graphics/SVG/1.1/DTD/svg11.dtd">
<!-- Generated by graphviz version 2.26.3 (20100126.1600)
 -->
<!-- Title: G Pages: 1 -->
<svg width="1060pt" height="2834pt"
 viewBox="0.00 0.00 1060.00 2834.00" xmlns="http://www.w3.org/2000/svg" xmlns:xlink="http://www.w3.org/1999/xlink">
<g id="graph1" class="graph" transform="scale(1 1) rotate(0) translate(4 2830)">
<title>G</title>
<polygon fill="white" stroke="white" points="-4,5 -4,-2830 1057,-2830 1057,5 -4,5"/>
<g id="graph2" class="cluster"><title>cluster_Global</title>
<polyline fill="none" stroke="gray" points="264,-422 1032,-422 "/>
<path fill="none" stroke="gray" d="M1032,-422C1038,-422 1044,-428 1044,-434"/>
<polyline fill="none" stroke="gray" points="1044,-434 1044,-2806 "/>
<path fill="none" stroke="gray" d="M1044,-2806C1044,-2812 1038,-2818 1032,-2818"/>
<polyline fill="none" stroke="gray" points="1032,-2818 264,-2818 "/>
<path fill="none" stroke="gray" d="M264,-2818C258,-2818 252,-2812 252,-2806"/>
<polyline fill="none" stroke="gray" points="252,-2806 252,-434 "/>
<path fill="none" stroke="gray" d="M252,-434C252,-428 258,-422 264,-422"/>
<text text-anchor="middle" x="648" y="-2804.1" font-family="Times Roman,serif" font-size="11.00" fill="gray">Global</text>
</g>
<!-- \\AppController -->
<g id="node2" class="node"><title>\\AppController</title>
<polygon fill="none" stroke="black" points="985,-1330 881,-1330 881,-1294 985,-1294 985,-1330"/>
<text text-anchor="middle" x="933" y="-1309.1" font-family="Courier,monospace" font-size="11.00">AppController</text>
</g>
<!-- \\Controller -->
<g id="node57" class="node"><title>\\Controller</title>
<ellipse fill="none" stroke="black" cx="343" cy="-288" rx="63.1385" ry="18.3848"/>
<text text-anchor="middle" x="343" y="-284.4" font-family="Times Roman,serif" font-size="14.00" fill="gray">\Controller</text>
</g>
<!-- \\AppController&#45;&gt;\\Controller -->
<g id="edge3" class="edge"><title>\\AppController&#45;&gt;\\Controller</title>
<path fill="none" stroke="black" d="M880.791,-1307.94C862.927,-1304.23 843.952,-1297.41 830,-1285 808.376,-1265.77 471.712,-334.131 450,-315 439.863,-306.067 427.19,-300.007 414.149,-295.915"/>
<polygon fill="none" stroke="black" points="414.711,-292.439 404.14,-293.154 412.849,-299.187 414.711,-292.439"/>
</g>
<!-- \\AppModel -->
<g id="node3" class="node"><title>\\AppModel</title>
<polygon fill="none" stroke="black" points="675,-2572 605,-2572 605,-2536 675,-2536 675,-2572"/>
<text text-anchor="middle" x="640" y="-2551.1" font-family="Courier,monospace" font-size="11.00">AppModel</text>
</g>
<!-- \\NetCommonsAppModel -->
<g id="node48" class="node"><title>\\NetCommonsAppModel</title>
<polygon fill="none" stroke="black" points="412,-2572 274,-2572 274,-2536 412,-2536 412,-2572"/>
<text text-anchor="middle" x="343" y="-2551.1" font-family="Courier,monospace" font-size="11.00">NetCommonsAppModel</text>
</g>
<!-- \\AppModel&#45;&gt;\\NetCommonsAppModel -->
<g id="edge5" class="edge"><title>\\AppModel&#45;&gt;\\NetCommonsAppModel</title>
<path fill="none" stroke="black" d="M604.47,-2554C559.713,-2554 481.497,-2554 422.241,-2554"/>
<polygon fill="none" stroke="black" points="422.157,-2550.5 412.157,-2554 422.157,-2557.5 422.157,-2550.5"/>
</g>
<!-- \\DatabaseConfiguration -->
<g id="node4" class="node"><title>\\DatabaseConfiguration</title>
<polygon fill="none" stroke="black" points="1012,-2572 854,-2572 854,-2536 1012,-2536 1012,-2572"/>
<text text-anchor="middle" x="933" y="-2551.1" font-family="Courier,monospace" font-size="11.00">DatabaseConfiguration</text>
</g>
<!-- \\DatabaseConfiguration&#45;&gt;\\AppModel -->
<g id="edge7" class="edge"><title>\\DatabaseConfiguration&#45;&gt;\\AppModel</title>
<path fill="none" stroke="black" d="M853.71,-2554C799.937,-2554 730.74,-2554 685.886,-2554"/>
<polygon fill="none" stroke="black" points="685.866,-2550.5 675.866,-2554 685.866,-2557.5 685.866,-2550.5"/>
</g>
<!-- \\AppHelper -->
<g id="node5" class="node"><title>\\AppHelper</title>
<polygon fill="none" stroke="black" points="678,-2140 602,-2140 602,-2104 678,-2104 678,-2140"/>
<text text-anchor="middle" x="640" y="-2119.1" font-family="Courier,monospace" font-size="11.00">AppHelper</text>
</g>
<!-- \\Helper -->
<g id="node61" class="node"><title>\\Helper</title>
<ellipse fill="none" stroke="black" cx="343" cy="-396" rx="43.8406" ry="18.3848"/>
<text text-anchor="middle" x="343" y="-392.4" font-family="Times Roman,serif" font-size="14.00" fill="gray">Helper</text>
</g>
<!-- \\AppHelper&#45;&gt;\\Helper -->
<g id="edge9" class="edge"><title>\\AppHelper&#45;&gt;\\Helper</title>
<path fill="none" stroke="black" d="M635.71,-2103.84C618.345,-2029.58 552.738,-1741.57 522,-1501 506.715,-1381.37 529.267,-508.889 450,-418 436.837,-402.908 416.329,-396.523 396.774,-394.23"/>
<polygon fill="none" stroke="black" points="396.937,-390.731 386.678,-393.379 396.349,-397.706 396.937,-390.731"/>
</g>
<!-- \\NetCommonsDeleteTest -->
<g id="node6" class="node"><title>\\NetCommonsDeleteTest</title>
<polygon fill="none" stroke="black" points="1009,-2788 857,-2788 857,-2752 1009,-2752 1009,-2788"/>
<text text-anchor="middle" x="933" y="-2767.1" font-family="Courier,monospace" font-size="11.00">NetCommonsDeleteTest</text>
</g>
<!-- \\NetCommonsModelTestCase -->
<g id="node15" class="node"><title>\\NetCommonsModelTestCase</title>
<polygon fill="none" stroke="black" points="726,-2707 554,-2707 554,-2671 726,-2671 726,-2707"/>
<text text-anchor="middle" x="640" y="-2686.1" font-family="Courier,monospace" font-size="11.00">NetCommonsModelTestCase</text>
</g>
<!-- \\NetCommonsDeleteTest&#45;&gt;\\NetCommonsModelTestCase -->
<g id="edge11" class="edge"><title>\\NetCommonsDeleteTest&#45;&gt;\\NetCommonsModelTestCase</title>
<path fill="none" stroke="black" d="M860.418,-2751.97C850.158,-2749.13 839.778,-2746.11 830,-2743 797.428,-2732.65 790.731,-2725.83 758,-2716 750.57,-2713.77 742.83,-2711.62 735.023,-2709.57"/>
<polygon fill="none" stroke="black" points="735.671,-2706.13 725.116,-2707.04 733.938,-2712.91 735.671,-2706.13"/>
</g>
<!-- \\NetCommonsConsoleTestCase -->
<g id="node7" class="node"><title>\\NetCommonsConsoleTestCase</title>
<polygon fill="none" stroke="black" points="732,-2653 548,-2653 548,-2617 732,-2617 732,-2653"/>
<text text-anchor="middle" x="640" y="-2632.1" font-family="Courier,monospace" font-size="11.00">NetCommonsConsoleTestCase</text>
</g>
<!-- \\NetCommonsCakeTestCase -->
<g id="node13" class="node"><title>\\NetCommonsCakeTestCase</title>
<polygon fill="none" stroke="black" points="425,-2707 261,-2707 261,-2671 425,-2671 425,-2707"/>
<text text-anchor="middle" x="343" y="-2686.1" font-family="Courier,monospace" font-size="11.00">NetCommonsCakeTestCase</text>
</g>
<!-- \\NetCommonsConsoleTestCase&#45;&gt;\\NetCommonsCakeTestCase -->
<g id="edge13" class="edge"><title>\\NetCommonsConsoleTestCase&#45;&gt;\\NetCommonsCakeTestCase</title>
<path fill="none" stroke="black" d="M547.249,-2651.86C511.778,-2658.31 471.343,-2665.66 435.861,-2672.12"/>
<polygon fill="none" stroke="black" points="435.206,-2668.68 425.993,-2673.91 436.458,-2675.56 435.206,-2668.68"/>
</g>
<!-- \\NetCommonsGetTest -->
<g id="node8" class="node"><title>\\NetCommonsGetTest</title>
<polygon fill="none" stroke="black" points="998,-2734 868,-2734 868,-2698 998,-2698 998,-2734"/>
<text text-anchor="middle" x="933" y="-2713.1" font-family="Courier,monospace" font-size="11.00">NetCommonsGetTest</text>
</g>
<!-- \\NetCommonsGetTest&#45;&gt;\\NetCommonsModelTestCase -->
<g id="edge15" class="edge"><title>\\NetCommonsGetTest&#45;&gt;\\NetCommonsModelTestCase</title>
<path fill="none" stroke="black" d="M867.245,-2709.94C828.664,-2706.39 779.217,-2701.83 736.305,-2697.87"/>
<polygon fill="none" stroke="black" points="736.399,-2694.37 726.12,-2696.94 735.756,-2701.34 736.399,-2694.37"/>
</g>
<!-- \\NetCommonsHelperTestCase -->
<g id="node9" class="node"><title>\\NetCommonsHelperTestCase</title>
<polygon fill="none" stroke="black" points="729,-2761 551,-2761 551,-2725 729,-2725 729,-2761"/>
<text text-anchor="middle" x="640" y="-2740.1" font-family="Courier,monospace" font-size="11.00">NetCommonsHelperTestCase</text>
</g>
<!-- \\NetCommonsHelperTestCase&#45;&gt;\\NetCommonsCakeTestCase -->
<g id="edge17" class="edge"><title>\\NetCommonsHelperTestCase&#45;&gt;\\NetCommonsCakeTestCase</title>
<path fill="none" stroke="black" d="M550.487,-2726.72C514.267,-2720.14 472.456,-2712.54 435.9,-2705.89"/>
<polygon fill="none" stroke="black" points="436.202,-2702.39 425.737,-2704.04 434.95,-2709.28 436.202,-2702.39"/>
</g>
<!-- \\NetCommonsControllerBaseTestCase -->
<g id="node10" class="node"><title>\\NetCommonsControllerBaseTestCase</title>
<polygon fill="none" stroke="black" points="756,-1492 524,-1492 524,-1456 756,-1456 756,-1492"/>
<text text-anchor="middle" x="640" y="-1471.1" font-family="Courier,monospace" font-size="11.00">NetCommonsControllerBaseTestCase</text>
</g>
<!-- \\ControllerTestCase -->
<g id="node67" class="node"><title>\\ControllerTestCase</title>
<ellipse fill="none" stroke="black" cx="343" cy="-342" rx="106.773" ry="18.3848"/>
<text text-anchor="middle" x="343" y="-338.4" font-family="Times Roman,serif" font-size="14.00" fill="gray">\ControllerTestCase</text>
</g>
<!-- \\NetCommonsControllerBaseTestCase&#45;&gt;\\ControllerTestCase -->
<g id="edge19" class="edge"><title>\\NetCommonsControllerBaseTestCase&#45;&gt;\\ControllerTestCase</title>
<path fill="none" stroke="black" d="M531.003,-1455.62C527.75,-1453.06 524.728,-1450.2 522,-1447 366.181,-1264.34 603.778,-553.378 450,-369 446.395,-364.678 442.209,-360.992 437.622,-357.854"/>
<polygon fill="none" stroke="black" points="439.368,-354.82 428.972,-352.777 435.824,-360.857 439.368,-354.82"/>
</g>
<!-- \\NetCommonsValidateTest -->
<g id="node11" class="node"><title>\\NetCommonsValidateTest</title>
<polygon fill="none" stroke="black" points="1015,-2680 851,-2680 851,-2644 1015,-2644 1015,-2680"/>
<text text-anchor="middle" x="933" y="-2659.1" font-family="Courier,monospace" font-size="11.00">NetCommonsValidateTest</text>
</g>
<!-- \\NetCommonsValidateTest&#45;&gt;\\NetCommonsModelTestCase -->
<g id="edge21" class="edge"><title>\\NetCommonsValidateTest&#45;&gt;\\NetCommonsModelTestCase</title>
<path fill="none" stroke="black" d="M850.213,-2669.63C814.791,-2672.89 773.196,-2676.73 736.397,-2680.12"/>
<polygon fill="none" stroke="black" points="735.791,-2676.66 726.154,-2681.06 736.433,-2683.63 735.791,-2676.66"/>
</g>
<!-- \\NetCommonsTestSuite -->
<g id="node12" class="node"><title>\\NetCommonsTestSuite</title>
<polygon fill="none" stroke="black" points="1005,-1276 861,-1276 861,-1240 1005,-1240 1005,-1276"/>
<text text-anchor="middle" x="933" y="-1255.1" font-family="Courier,monospace" font-size="11.00">NetCommonsTestSuite</text>
</g>
<!-- \\CakeTestSuite -->
<g id="node70" class="node"><title>\\CakeTestSuite</title>
<ellipse fill="none" stroke="black" cx="640" cy="-396" rx="84.1457" ry="18.3848"/>
<text text-anchor="middle" x="640" y="-392.4" font-family="Times Roman,serif" font-size="14.00" fill="gray">\CakeTestSuite</text>
</g>
<!-- \\NetCommonsTestSuite&#45;&gt;\\CakeTestSuite -->
<g id="edge23" class="edge"><title>\\NetCommonsTestSuite&#45;&gt;\\CakeTestSuite</title>
<path fill="none" stroke="black" d="M860.28,-1250.96C848.694,-1246.73 837.933,-1240.39 830,-1231 712.965,-1092.44 879.95,-552.256 758,-418 751.169,-410.48 742.661,-405.026 733.362,-401.125"/>
<polygon fill="none" stroke="black" points="734.427,-397.788 723.832,-397.721 732.072,-404.381 734.427,-397.788"/>
</g>
<!-- \\CakeTestCase -->
<g id="node72" class="node"><title>\\CakeTestCase</title>
<ellipse fill="none" stroke="black" cx="82" cy="-2689" rx="82.0244" ry="18.3848"/>
<text text-anchor="middle" x="82" y="-2685.4" font-family="Times Roman,serif" font-size="14.00" fill="gray">\CakeTestCase</text>
</g>
<!-- \\NetCommonsCakeTestCase&#45;&gt;\\CakeTestCase -->
<g id="edge25" class="edge"><title>\\NetCommonsCakeTestCase&#45;&gt;\\CakeTestCase</title>
<path fill="none" stroke="black" d="M260.418,-2689C233.018,-2689 202.345,-2689 174.263,-2689"/>
<polygon fill="none" stroke="black" points="174.045,-2685.5 164.045,-2689 174.045,-2692.5 174.045,-2685.5"/>
</g>
<!-- \\NetCommonsSaveTest -->
<g id="node14" class="node"><title>\\NetCommonsSaveTest</title>
<polygon fill="none" stroke="black" points="1002,-2626 864,-2626 864,-2590 1002,-2590 1002,-2626"/>
<text text-anchor="middle" x="933" y="-2605.1" font-family="Courier,monospace" font-size="11.00">NetCommonsSaveTest</text>
</g>
<!-- \\NetCommonsSaveTest&#45;&gt;\\NetCommonsModelTestCase -->
<g id="edge27" class="edge"><title>\\NetCommonsSaveTest&#45;&gt;\\NetCommonsModelTestCase</title>
<path fill="none" stroke="black" d="M863.741,-2625.11C852.409,-2628.21 840.835,-2631.56 830,-2635 797.428,-2645.35 790.731,-2652.17 758,-2662 750.57,-2664.23 742.83,-2666.38 735.023,-2668.43"/>
<polygon fill="none" stroke="black" points="733.938,-2665.09 725.116,-2670.96 735.671,-2671.87 733.938,-2665.09"/>
</g>
<!-- \\NetCommonsModelTestCase&#45;&gt;\\NetCommonsCakeTestCase -->
<g id="edge29" class="edge"><title>\\NetCommonsModelTestCase&#45;&gt;\\NetCommonsCakeTestCase</title>
<path fill="none" stroke="black" d="M553.696,-2689C516.829,-2689 473.718,-2689 436.131,-2689"/>
<polygon fill="none" stroke="black" points="435.686,-2685.5 425.686,-2689 435.686,-2692.5 435.686,-2685.5"/>
</g>
<!-- \\NetCommonsControllerTestCase -->
<g id="node16" class="node"><title>\\NetCommonsControllerTestCase</title>
<polygon fill="none" stroke="black" points="1036,-1492 830,-1492 830,-1456 1036,-1456 1036,-1492"/>
<text text-anchor="middle" x="933" y="-1471.1" font-family="Courier,monospace" font-size="11.00">NetCommonsControllerTestCase</text>
</g>
<!-- \\NetCommonsControllerTestCase&#45;&gt;\\NetCommonsControllerBaseTestCase -->
<g id="edge31" class="edge"><title>\\NetCommonsControllerTestCase&#45;&gt;\\NetCommonsControllerBaseTestCase</title>
<path fill="none" stroke="black" d="M829.699,-1474C809.381,-1474 787.845,-1474 766.858,-1474"/>
<polygon fill="none" stroke="black" points="766.606,-1470.5 756.606,-1474 766.606,-1477.5 766.606,-1470.5"/>
</g>
<!-- \\NetCommonsAppController -->
<g id="node17" class="node"><title>\\NetCommonsAppController</title>
<polygon fill="none" stroke="black" points="726,-1163 554,-1163 554,-1127 726,-1127 726,-1163"/>
<text text-anchor="middle" x="640" y="-1142.1" font-family="Courier,monospace" font-size="11.00">NetCommonsAppController</text>
</g>
<!-- \\NetCommonsAppController&#45;&gt;\\Controller -->
<g id="edge33" class="edge"><title>\\NetCommonsAppController&#45;&gt;\\Controller</title>
<path fill="none" stroke="black" d="M553.788,-1142.53C541.725,-1138.58 530.55,-1132.41 522,-1123 400.758,-989.596 566.99,-452.148 450,-315 441.045,-304.502 428.661,-297.774 415.484,-293.526"/>
<polygon fill="none" stroke="black" points="416.359,-290.136 405.788,-290.852 414.498,-296.885 416.359,-290.136"/>
</g>
<!-- \\AssetComponent -->
<g id="node18" class="node"><title>\\AssetComponent</title>
<polygon fill="none" stroke="black" points="988,-1006 878,-1006 878,-970 988,-970 988,-1006"/>
<text text-anchor="middle" x="933" y="-985.1" font-family="Courier,monospace" font-size="11.00">AssetComponent</text>
</g>
<!-- \\Component -->
<g id="node78" class="node"><title>\\Component</title>
<ellipse fill="none" stroke="black" cx="640" cy="-342" rx="70.9184" ry="18.3848"/>
<text text-anchor="middle" x="640" y="-338.4" font-family="Times Roman,serif" font-size="14.00" fill="gray">\Component</text>
</g>
<!-- \\AssetComponent&#45;&gt;\\Component -->
<g id="edge35" class="edge"><title>\\AssetComponent&#45;&gt;\\Component</title>
<path fill="none" stroke="black" d="M877.342,-985.436C859.801,-981.802 841.915,-974.647 830,-961 655.683,-761.337 935.432,-565.899 758,-369 748.227,-358.155 735.069,-351.207 721.082,-346.841"/>
<polygon fill="none" stroke="black" points="721.864,-343.426 711.298,-344.214 720.049,-350.187 721.864,-343.426"/>
</g>
<!-- \\NetCommonsTimeComponent -->
<g id="node19" class="node"><title>\\NetCommonsTimeComponent</title>
<polygon fill="none" stroke="black" points="1019,-1222 847,-1222 847,-1186 1019,-1186 1019,-1222"/>
<text text-anchor="middle" x="933" y="-1201.1" font-family="Courier,monospace" font-size="11.00">NetCommonsTimeComponent</text>
</g>
<!-- \\NetCommonsTimeComponent&#45;&gt;\\Component -->
<g id="edge37" class="edge"><title>\\NetCommonsTimeComponent&#45;&gt;\\Component</title>
<path fill="none" stroke="black" d="M846.952,-1190.83C840.569,-1187.19 834.773,-1182.65 830,-1177 713.641,-1039.32 876.508,-504.839 758,-369 748.346,-357.935 735.171,-350.898 721.117,-346.516"/>
<polygon fill="none" stroke="black" points="721.843,-343.087 711.278,-343.889 720.037,-349.85 721.843,-343.087"/>
</g>
<!-- \\PermissionComponent -->
<g id="node20" class="node"><title>\\PermissionComponent</title>
<polygon fill="none" stroke="black" points="1005,-1168 861,-1168 861,-1132 1005,-1132 1005,-1168"/>
<text text-anchor="middle" x="933" y="-1147.1" font-family="Courier,monospace" font-size="11.00">PermissionComponent</text>
</g>
<!-- \\PermissionComponent&#45;&gt;\\Component -->
<g id="edge39" class="edge"><title>\\PermissionComponent&#45;&gt;\\Component</title>
<path fill="none" stroke="black" d="M860.333,-1142.91C848.742,-1138.69 837.965,-1132.36 830,-1123 720.948,-994.787 869.053,-495.484 758,-369 748.311,-357.965 735.121,-350.943 721.061,-346.564"/>
<polygon fill="none" stroke="black" points="721.786,-343.135 711.222,-343.939 719.981,-349.899 721.786,-343.135"/>
</g>
<!-- \\NetCommonsComponent -->
<g id="node21" class="node"><title>\\NetCommonsComponent</title>
<polygon fill="none" stroke="black" points="1005,-1114 861,-1114 861,-1078 1005,-1078 1005,-1114"/>
<text text-anchor="middle" x="933" y="-1093.1" font-family="Courier,monospace" font-size="11.00">NetCommonsComponent</text>
</g>
<!-- \\NetCommonsComponent&#45;&gt;\\Component -->
<g id="edge41" class="edge"><title>\\NetCommonsComponent&#45;&gt;\\Component</title>
<path fill="none" stroke="black" d="M860.389,-1088.86C848.792,-1084.64 837.999,-1078.34 830,-1069 626.502,-831.507 965.204,-603.266 758,-369 748.271,-358.001 735.062,-350.994 720.998,-346.62"/>
<polygon fill="none" stroke="black" points="721.72,-343.191 711.156,-343.996 719.917,-349.955 721.72,-343.191"/>
</g>
<!-- \\NetCommonsController -->
<g id="node22" class="node"><title>\\NetCommonsController</title>
<polygon fill="none" stroke="black" points="1009,-1384 857,-1384 857,-1348 1009,-1348 1009,-1384"/>
<text text-anchor="middle" x="933" y="-1363.1" font-family="Courier,monospace" font-size="11.00">NetCommonsController</text>
</g>
<!-- \\NetCommonsController&#45;&gt;\\NetCommonsAppController -->
<g id="edge43" class="edge"><title>\\NetCommonsController&#45;&gt;\\NetCommonsAppController</title>
<path fill="none" stroke="black" d="M856.859,-1351.09C847.498,-1347.81 838.313,-1343.83 830,-1339 754.639,-1295.24 689.046,-1213.53 658.407,-1171.48"/>
<polygon fill="none" stroke="black" points="661.089,-1169.22 652.409,-1163.14 655.406,-1173.31 661.089,-1169.22"/>
</g>
<!-- \\NetCommonsUrl -->
<g id="node23" class="node"><title>\\NetCommonsUrl</title>
<polygon fill="none" stroke="black" points="985,-2086 881,-2086 881,-2050 985,-2050 985,-2086"/>
<text text-anchor="middle" x="933" y="-2065.1" font-family="Courier,monospace" font-size="11.00">NetCommonsUrl</text>
</g>
<!-- \\NetCommonsTime -->
<g id="node24" class="node"><title>\\NetCommonsTime</title>
<polygon fill="none" stroke="black" points="988,-2032 878,-2032 878,-1996 988,-1996 988,-2032"/>
<text text-anchor="middle" x="933" y="-2011.1" font-family="Courier,monospace" font-size="11.00">NetCommonsTime</text>
</g>
<!-- \\CurrentBase -->
<g id="node25" class="node"><title>\\CurrentBase</title>
<polygon fill="none" stroke="black" points="685,-1438 595,-1438 595,-1402 685,-1402 685,-1438"/>
<text text-anchor="middle" x="640" y="-1417.1" font-family="Courier,monospace" font-size="11.00">CurrentBase</text>
</g>
<!-- \\Current -->
<g id="node26" class="node"><title>\\Current</title>
<polygon fill="none" stroke="black" points="965,-1438 901,-1438 901,-1402 965,-1402 965,-1438"/>
<text text-anchor="middle" x="933" y="-1417.1" font-family="Courier,monospace" font-size="11.00">Current</text>
</g>
<!-- \\Current&#45;&gt;\\CurrentBase -->
<g id="edge45" class="edge"><title>\\Current&#45;&gt;\\CurrentBase</title>
<path fill="none" stroke="black" d="M900.806,-1420C851.48,-1420 756.554,-1420 695.846,-1420"/>
<polygon fill="none" stroke="black" points="695.669,-1416.5 685.669,-1420 695.669,-1423.5 695.669,-1416.5"/>
</g>
<!-- \\CurrentSystem -->
<g id="node27" class="node"><title>\\CurrentSystem</title>
<polygon fill="none" stroke="black" points="985,-1924 881,-1924 881,-1888 985,-1888 985,-1924"/>
<text text-anchor="middle" x="933" y="-1903.1" font-family="Courier,monospace" font-size="11.00">CurrentSystem</text>
</g>
<!-- \\CurrentPage -->
<g id="node28" class="node"><title>\\CurrentPage</title>
<polygon fill="none" stroke="black" points="978,-1870 888,-1870 888,-1834 978,-1834 978,-1870"/>
<text text-anchor="middle" x="933" y="-1849.1" font-family="Courier,monospace" font-size="11.00">CurrentPage</text>
</g>
<!-- \\CurrentFrame -->
<g id="node29" class="node"><title>\\CurrentFrame</title>
<polygon fill="none" stroke="black" points="982,-1816 884,-1816 884,-1780 982,-1780 982,-1816"/>
<text text-anchor="middle" x="933" y="-1795.1" font-family="Courier,monospace" font-size="11.00">CurrentFrame</text>
</g>
<!-- \\TokenHelper -->
<g id="node30" class="node"><title>\\TokenHelper</title>
<polygon fill="none" stroke="black" points="978,-844 888,-844 888,-808 978,-808 978,-844"/>
<text text-anchor="middle" x="933" y="-823.1" font-family="Courier,monospace" font-size="11.00">TokenHelper</text>
</g>
<!-- \\FormHelper -->
<g id="node85" class="node"><title>\\FormHelper</title>
<ellipse fill="none" stroke="black" cx="640" cy="-288" rx="70.9184" ry="18.3848"/>
<text text-anchor="middle" x="640" y="-284.4" font-family="Times Roman,serif" font-size="14.00" fill="gray">\FormHelper</text>
</g>
<!-- \\TokenHelper&#45;&gt;\\FormHelper -->
<g id="edge47" class="edge"><title>\\TokenHelper&#45;&gt;\\FormHelper</title>
<path fill="none" stroke="black" d="M887.387,-824.968C867.002,-822.065 844.379,-815.033 830,-799 684.8,-637.094 905.726,-474.605 758,-315 748.083,-304.286 734.859,-297.398 720.853,-293.049"/>
<polygon fill="none" stroke="black" points="721.628,-289.634 711.063,-290.429 719.818,-296.396 721.628,-289.634"/>
</g>
<!-- \\SingletonViewBlockHtmlHelper -->
<g id="node31" class="node"><title>\\SingletonViewBlockHtmlHelper</title>
<polygon fill="none" stroke="black" points="1036,-790 830,-790 830,-754 1036,-754 1036,-790"/>
<text text-anchor="middle" x="933" y="-769.1" font-family="Courier,monospace" font-size="11.00">SingletonViewBlockHtmlHelper</text>
</g>
<!-- \\HtmlHelper -->
<g id="node87" class="node"><title>\\HtmlHelper</title>
<ellipse fill="none" stroke="black" cx="640" cy="-234" rx="67.1751" ry="18.3848"/>
<text text-anchor="middle" x="640" y="-230.4" font-family="Times Roman,serif" font-size="14.00" fill="gray">HtmlHelper</text>
</g>
<!-- \\SingletonViewBlockHtmlHelper&#45;&gt;\\HtmlHelper -->
<g id="edge49" class="edge"><title>\\SingletonViewBlockHtmlHelper&#45;&gt;\\HtmlHelper</title>
<path fill="none" stroke="black" d="M839.844,-753.806C836.274,-751.224 832.962,-748.303 830,-745 684.8,-583.094 905.726,-420.605 758,-261 747.227,-249.36 732.55,-242.237 717.208,-237.979"/>
<polygon fill="none" stroke="black" points="717.602,-234.475 707.065,-235.575 715.988,-241.287 717.602,-234.475"/>
</g>
<!-- \\FormInputHelper -->
<g id="node32" class="node"><title>\\FormInputHelper</title>
<polygon fill="none" stroke="black" points="992,-2410 874,-2410 874,-2374 992,-2374 992,-2410"/>
<text text-anchor="middle" x="933" y="-2389.1" font-family="Courier,monospace" font-size="11.00">FormInputHelper</text>
</g>
<!-- \\FormInputHelper&#45;&gt;\\AppHelper -->
<g id="edge51" class="edge"><title>\\FormInputHelper&#45;&gt;\\AppHelper</title>
<path fill="none" stroke="black" d="M873.829,-2383.44C858.708,-2379.44 843.051,-2373.58 830,-2365 744.042,-2308.46 680.094,-2199.93 653.531,-2149.28"/>
<polygon fill="none" stroke="black" points="656.562,-2147.52 648.865,-2140.24 650.341,-2150.73 656.562,-2147.52"/>
</g>
<!-- \\WizardHelper -->
<g id="node33" class="node"><title>\\WizardHelper</title>
<polygon fill="none" stroke="black" points="982,-2356 884,-2356 884,-2320 982,-2320 982,-2356"/>
<text text-anchor="middle" x="933" y="-2335.1" font-family="Courier,monospace" font-size="11.00">WizardHelper</text>
</g>
<!-- \\WizardHelper&#45;&gt;\\AppHelper -->
<g id="edge53" class="edge"><title>\\WizardHelper&#45;&gt;\\AppHelper</title>
<path fill="none" stroke="black" d="M883.794,-2330.61C866.044,-2326.55 846.368,-2320.36 830,-2311 755.721,-2268.51 690.104,-2189.52 659.041,-2148.41"/>
<polygon fill="none" stroke="black" points="661.73,-2146.16 652.946,-2140.24 656.119,-2150.35 661.73,-2146.16"/>
</g>
<!-- \\DisplayNumberHelper -->
<g id="node34" class="node"><title>\\DisplayNumberHelper</title>
<polygon fill="none" stroke="black" points="1005,-2302 861,-2302 861,-2266 1005,-2266 1005,-2302"/>
<text text-anchor="middle" x="933" y="-2281.1" font-family="Courier,monospace" font-size="11.00">DisplayNumberHelper</text>
</g>
<!-- \\DisplayNumberHelper&#45;&gt;\\AppHelper -->
<g id="edge55" class="edge"><title>\\DisplayNumberHelper&#45;&gt;\\AppHelper</title>
<path fill="none" stroke="black" d="M860.351,-2268.5C849.948,-2265.27 839.547,-2261.46 830,-2257 767.211,-2227.67 703.394,-2177.16 668.029,-2146.94"/>
<polygon fill="none" stroke="black" points="669.944,-2143.97 660.087,-2140.08 665.369,-2149.26 669.944,-2143.97"/>
</g>
<!-- \\MessageFlashHelper -->
<g id="node35" class="node"><title>\\MessageFlashHelper</title>
<polygon fill="none" stroke="black" points="1002,-2248 864,-2248 864,-2212 1002,-2212 1002,-2248"/>
<text text-anchor="middle" x="933" y="-2227.1" font-family="Courier,monospace" font-size="11.00">MessageFlashHelper</text>
</g>
<!-- \\MessageFlashHelper&#45;&gt;\\AppHelper -->
<g id="edge57" class="edge"><title>\\MessageFlashHelper&#45;&gt;\\AppHelper</title>
<path fill="none" stroke="black" d="M863.881,-2213.38C852.477,-2210.21 840.844,-2206.71 830,-2203 780.27,-2185.98 725.199,-2161.9 687.206,-2144.42"/>
<polygon fill="none" stroke="black" points="688.474,-2141.15 677.929,-2140.12 685.534,-2147.5 688.474,-2141.15"/>
</g>
<!-- \\DateHelper -->
<g id="node36" class="node"><title>\\DateHelper</title>
<polygon fill="none" stroke="black" points="975,-2194 891,-2194 891,-2158 975,-2158 975,-2194"/>
<text text-anchor="middle" x="933" y="-2173.1" font-family="Courier,monospace" font-size="11.00">DateHelper</text>
</g>
<!-- \\DateHelper&#45;&gt;\\AppHelper -->
<g id="edge59" class="edge"><title>\\DateHelper&#45;&gt;\\AppHelper</title>
<path fill="none" stroke="black" d="M890.708,-2168.21C837.148,-2158.33 745.059,-2141.36 688.643,-2130.96"/>
<polygon fill="none" stroke="black" points="689.01,-2127.47 678.542,-2129.1 687.742,-2134.36 689.01,-2127.47"/>
</g>
<!-- \\SnsButtonHelper -->
<g id="node37" class="node"><title>\\SnsButtonHelper</title>
<polygon fill="none" stroke="black" points="992,-2140 874,-2140 874,-2104 992,-2104 992,-2140"/>
<text text-anchor="middle" x="933" y="-2119.1" font-family="Courier,monospace" font-size="11.00">SnsButtonHelper</text>
</g>
<!-- \\SnsButtonHelper&#45;&gt;\\AppHelper -->
<g id="edge61" class="edge"><title>\\SnsButtonHelper&#45;&gt;\\AppHelper</title>
<path fill="none" stroke="black" d="M873.707,-2122C819.266,-2122 739.563,-2122 688.738,-2122"/>
<polygon fill="none" stroke="black" points="688.663,-2118.5 678.663,-2122 688.662,-2125.5 688.663,-2118.5"/>
</g>
<!-- \\BackToHelper -->
<g id="node38" class="node"><title>\\BackToHelper</title>
<polygon fill="none" stroke="black" points="982,-1978 884,-1978 884,-1942 982,-1942 982,-1978"/>
<text text-anchor="middle" x="933" y="-1957.1" font-family="Courier,monospace" font-size="11.00">BackToHelper</text>
</g>
<!-- \\BackToHelper&#45;&gt;\\AppHelper -->
<g id="edge63" class="edge"><title>\\BackToHelper&#45;&gt;\\AppHelper</title>
<path fill="none" stroke="black" d="M883.79,-1969.08C866.323,-1973.29 846.832,-1979.14 830,-1987 767.211,-2016.33 703.394,-2066.84 668.029,-2097.06"/>
<polygon fill="none" stroke="black" points="665.369,-2094.74 660.087,-2103.92 669.944,-2100.03 665.369,-2094.74"/>
</g>
<!-- \\NetCommonsHtmlHelper -->
<g id="node39" class="node"><title>\\NetCommonsHtmlHelper</title>
<polygon fill="none" stroke="black" points="1009,-1762 857,-1762 857,-1726 1009,-1726 1009,-1762"/>
<text text-anchor="middle" x="933" y="-1741.1" font-family="Courier,monospace" font-size="11.00">NetCommonsHtmlHelper</text>
</g>
<!-- \\NetCommonsHtmlHelper&#45;&gt;\\AppHelper -->
<g id="edge65" class="edge"><title>\\NetCommonsHtmlHelper&#45;&gt;\\AppHelper</title>
<path fill="none" stroke="black" d="M856.747,-1756.29C847.144,-1759.98 837.925,-1764.78 830,-1771 719.54,-1857.71 664.898,-2027.1 646.922,-2093.93"/>
<polygon fill="none" stroke="black" points="643.499,-2093.18 644.349,-2103.74 650.271,-2094.96 643.499,-2093.18"/>
</g>
<!-- \\ButtonHelper -->
<g id="node40" class="node"><title>\\ButtonHelper</title>
<polygon fill="none" stroke="black" points="982,-952 884,-952 884,-916 982,-916 982,-952"/>
<text text-anchor="middle" x="933" y="-931.1" font-family="Courier,monospace" font-size="11.00">ButtonHelper</text>
</g>
<!-- \\ButtonHelper&#45;&gt;\\FormHelper -->
<g id="edge67" class="edge"><title>\\ButtonHelper&#45;&gt;\\FormHelper</title>
<path fill="none" stroke="black" d="M883.758,-932.618C864.271,-929.457 843.374,-922.318 830,-907 655.683,-707.337 935.432,-511.899 758,-315 748.227,-304.155 735.069,-297.207 721.082,-292.841"/>
<polygon fill="none" stroke="black" points="721.864,-289.426 711.298,-290.214 720.049,-296.187 721.864,-289.426"/>
</g>
<!-- \\ComposerHelper -->
<g id="node41" class="node"><title>\\ComposerHelper</title>
<polygon fill="none" stroke="black" points="988,-1708 878,-1708 878,-1672 988,-1672 988,-1708"/>
<text text-anchor="middle" x="933" y="-1687.1" font-family="Courier,monospace" font-size="11.00">ComposerHelper</text>
</g>
<!-- \\ComposerHelper&#45;&gt;\\AppHelper -->
<g id="edge69" class="edge"><title>\\ComposerHelper&#45;&gt;\\AppHelper</title>
<path fill="none" stroke="black" d="M877.24,-1695.46C860.604,-1699.36 843.284,-1705.94 830,-1717 706.832,-1819.54 658.776,-2019.91 644.769,-2093.78"/>
<polygon fill="none" stroke="black" points="641.305,-2093.27 642.945,-2103.73 648.19,-2094.53 641.305,-2093.27"/>
</g>
<!-- \\LinkButtonHelper -->
<g id="node42" class="node"><title>\\LinkButtonHelper</title>
<polygon fill="none" stroke="black" points="995,-898 871,-898 871,-862 995,-862 995,-898"/>
<text text-anchor="middle" x="933" y="-877.1" font-family="Courier,monospace" font-size="11.00">LinkButtonHelper</text>
</g>
<!-- \\LinkButtonHelper&#45;&gt;\\FormHelper -->
<g id="edge71" class="edge"><title>\\LinkButtonHelper&#45;&gt;\\FormHelper</title>
<path fill="none" stroke="black" d="M870.453,-875.714C855.256,-871.707 840.405,-864.775 830,-853 670.252,-672.227 920.569,-493.24 758,-315 748.162,-304.213 734.974,-297.293 720.979,-292.934"/>
<polygon fill="none" stroke="black" points="721.757,-289.519 711.192,-290.31 719.944,-296.281 721.757,-289.519"/>
</g>
<!-- \\TableListHelper -->
<g id="node43" class="node"><title>\\TableListHelper</title>
<polygon fill="none" stroke="black" points="992,-1654 874,-1654 874,-1618 992,-1618 992,-1654"/>
<text text-anchor="middle" x="933" y="-1633.1" font-family="Courier,monospace" font-size="11.00">TableListHelper</text>
</g>
<!-- \\TableListHelper&#45;&gt;\\AppHelper -->
<g id="edge73" class="edge"><title>\\TableListHelper&#45;&gt;\\AppHelper</title>
<path fill="none" stroke="black" d="M873.983,-1641.81C858.26,-1645.77 842.259,-1652.31 830,-1663 694.066,-1781.59 653.424,-2012.8 643.102,-2093.44"/>
<polygon fill="none" stroke="black" points="639.576,-2093.44 641.84,-2103.79 646.525,-2094.29 639.576,-2093.44"/>
</g>
<!-- \\NetCommonsTimeHelper -->
<g id="node44" class="node"><title>\\NetCommonsTimeHelper</title>
<polygon fill="none" stroke="black" points="1009,-1600 857,-1600 857,-1564 1009,-1564 1009,-1600"/>
<text text-anchor="middle" x="933" y="-1579.1" font-family="Courier,monospace" font-size="11.00">NetCommonsTimeHelper</text>
</g>
<!-- \\NetCommonsTimeHelper&#45;&gt;\\AppHelper -->
<g id="edge75" class="edge"><title>\\NetCommonsTimeHelper&#45;&gt;\\AppHelper</title>
<path fill="none" stroke="black" d="M856.938,-1592.86C847.08,-1596.75 837.74,-1601.99 830,-1609 680.846,-1744.16 648.432,-2007.13 641.693,-2093.65"/>
<polygon fill="none" stroke="black" points="638.192,-2093.53 640.962,-2103.76 645.174,-2094.04 638.192,-2093.53"/>
</g>
<!-- \\NetCommonsFormHelper -->
<g id="node45" class="node"><title>\\NetCommonsFormHelper</title>
<polygon fill="none" stroke="black" points="1009,-1546 857,-1546 857,-1510 1009,-1510 1009,-1546"/>
<text text-anchor="middle" x="933" y="-1525.1" font-family="Courier,monospace" font-size="11.00">NetCommonsFormHelper</text>
</g>
<!-- \\NetCommonsFormHelper&#45;&gt;\\AppHelper -->
<g id="edge77" class="edge"><title>\\NetCommonsFormHelper&#45;&gt;\\AppHelper</title>
<path fill="none" stroke="black" d="M856.996,-1538.53C847.071,-1542.47 837.696,-1547.8 830,-1555 747.245,-1632.39 667.482,-1990.01 645.771,-2093.73"/>
<polygon fill="none" stroke="black" points="642.293,-2093.26 643.686,-2103.77 649.147,-2094.69 642.293,-2093.26"/>
</g>
<!-- \\TitleIconHelper -->
<g id="node46" class="node"><title>\\TitleIconHelper</title>
<polygon fill="none" stroke="black" points="992,-2518 874,-2518 874,-2482 992,-2482 992,-2518"/>
<text text-anchor="middle" x="933" y="-2497.1" font-family="Courier,monospace" font-size="11.00">TitleIconHelper</text>
</g>
<!-- \\TitleIconHelper&#45;&gt;\\AppHelper -->
<g id="edge79" class="edge"><title>\\TitleIconHelper&#45;&gt;\\AppHelper</title>
<path fill="none" stroke="black" d="M873.874,-2493.15C858.416,-2489.16 842.578,-2482.87 830,-2473 719.54,-2386.29 664.898,-2216.9 646.922,-2150.07"/>
<polygon fill="none" stroke="black" points="650.271,-2149.04 644.349,-2140.26 643.499,-2150.82 650.271,-2149.04"/>
</g>
<!-- \\DatetimePickerHelper -->
<g id="node47" class="node"><title>\\DatetimePickerHelper</title>
<polygon fill="none" stroke="black" points="1009,-2464 857,-2464 857,-2428 1009,-2428 1009,-2464"/>
<text text-anchor="middle" x="933" y="-2443.1" font-family="Courier,monospace" font-size="11.00">DatetimePickerHelper</text>
</g>
<!-- \\DatetimePickerHelper&#45;&gt;\\AppHelper -->
<g id="edge81" class="edge"><title>\\DatetimePickerHelper&#45;&gt;\\AppHelper</title>
<path fill="none" stroke="black" d="M856.893,-2433.07C847.321,-2429.47 838.072,-2424.87 830,-2419 779.522,-2382.27 688.866,-2215.53 654.1,-2149.27"/>
<polygon fill="none" stroke="black" points="657.121,-2147.49 649.388,-2140.25 650.916,-2150.73 657.121,-2147.49"/>
</g>
<!-- \\Model -->
<g id="node105" class="node"><title>\\Model</title>
<ellipse fill="none" stroke="black" cx="82" cy="-2554" rx="43.8406" ry="18.3848"/>
<text text-anchor="middle" x="82" y="-2550.4" font-family="Times Roman,serif" font-size="14.00" fill="gray">\Model</text>
</g>
<!-- \\NetCommonsAppModel&#45;&gt;\\Model -->
<g id="edge83" class="edge"><title>\\NetCommonsAppModel&#45;&gt;\\Model</title>
<path fill="none" stroke="black" d="M273.742,-2554C230.675,-2554 176.099,-2554 136.195,-2554"/>
<polygon fill="none" stroke="black" points="136.125,-2550.5 126.125,-2554 136.125,-2557.5 136.125,-2550.5"/>
</g>
<!-- \\OriginalKeyBehavior -->
<g id="node49" class="node"><title>\\OriginalKeyBehavior</title>
<polygon fill="none" stroke="black" points="1005,-628 861,-628 861,-592 1005,-592 1005,-628"/>
<text text-anchor="middle" x="933" y="-607.1" font-family="Courier,monospace" font-size="11.00">OriginalKeyBehavior</text>
</g>
<!-- \\ModelBehavior -->
<g id="node107" class="node"><title>\\ModelBehavior</title>
<ellipse fill="none" stroke="black" cx="640" cy="-180" rx="86.9741" ry="18.3848"/>
<text text-anchor="middle" x="640" y="-176.4" font-family="Times Roman,serif" font-size="14.00" fill="gray">\ModelBehavior</text>
</g>
<!-- \\OriginalKeyBehavior&#45;&gt;\\ModelBehavior -->
<g id="edge85" class="edge"><title>\\OriginalKeyBehavior&#45;&gt;\\ModelBehavior</title>
<path fill="none" stroke="black" d="M860.253,-601.995C848.886,-597.838 838.206,-591.777 830,-583 713.795,-458.716 876.143,-329.443 758,-207 750.646,-199.379 741.615,-193.712 731.852,-189.525"/>
<polygon fill="none" stroke="black" points="732.89,-186.176 722.298,-185.949 730.436,-192.732 732.89,-186.176"/>
</g>
<!-- \\TrackableBehavior -->
<g id="node50" class="node"><title>\\TrackableBehavior</title>
<polygon fill="none" stroke="black" points="998,-736 868,-736 868,-700 998,-700 998,-736"/>
<text text-anchor="middle" x="933" y="-715.1" font-family="Courier,monospace" font-size="11.00">TrackableBehavior</text>
</g>
<!-- \\TrackableBehavior&#45;&gt;\\ModelBehavior -->
<g id="edge87" class="edge"><title>\\TrackableBehavior&#45;&gt;\\ModelBehavior</title>
<path fill="none" stroke="black" d="M867.356,-712.719C853.292,-708.606 839.75,-701.872 830,-691 684.8,-529.094 905.726,-366.605 758,-207 750.86,-199.286 742.006,-193.556 732.38,-189.328"/>
<polygon fill="none" stroke="black" points="733.536,-186.023 722.945,-185.72 731.035,-192.561 733.536,-186.023"/>
</g>
<!-- \\YAExceptionRenderer -->
<g id="node51" class="node"><title>\\YAExceptionRenderer</title>
<polygon fill="none" stroke="black" points="1005,-574 861,-574 861,-538 1005,-538 1005,-574"/>
<text text-anchor="middle" x="933" y="-553.1" font-family="Courier,monospace" font-size="11.00">YAExceptionRenderer</text>
</g>
<!-- \\ExceptionRenderer -->
<g id="node110" class="node"><title>\\ExceptionRenderer</title>
<ellipse fill="none" stroke="black" cx="640" cy="-126" rx="118.087" ry="18.3848"/>
<text text-anchor="middle" x="640" y="-122.4" font-family="Times Roman,serif" font-size="14.00" fill="gray">TEHxceptionRenderer</text>
</g>
<!-- \\YAExceptionRenderer&#45;&gt;\\ExceptionRenderer -->
<g id="edge89" class="edge"><title>\\YAExceptionRenderer&#45;&gt;\\ExceptionRenderer</title>
<path fill="none" stroke="black" d="M860.253,-547.995C848.886,-543.838 838.206,-537.777 830,-529 713.795,-404.716 876.143,-275.443 758,-153 753.747,-148.592 748.932,-144.837 743.739,-141.645"/>
<polygon fill="none" stroke="black" points="745.142,-138.426 734.675,-136.787 741.836,-144.596 745.142,-138.426"/>
</g>
<!-- \\NetCommonsMigration -->
<g id="node52" class="node"><title>\\NetCommonsMigration</title>
<polygon fill="none" stroke="black" points="1005,-520 861,-520 861,-484 1005,-484 1005,-520"/>
<text text-anchor="middle" x="933" y="-499.1" font-family="Courier,monospace" font-size="11.00">NetCommonsMigration</text>
</g>
<!-- \\CakeMigration -->
<g id="node112" class="node"><title>\\CakeMigration</title>
<ellipse fill="none" stroke="black" cx="640" cy="-72" rx="84.8528" ry="18.3848"/>
<text text-anchor="middle" x="640" y="-68.4" font-family="Times Roman,serif" font-size="14.00" fill="gray">\CakeMigration</text>
</g>
<!-- \\NetCommonsMigration&#45;&gt;\\CakeMigration -->
<g id="edge91" class="edge"><title>\\NetCommonsMigration&#45;&gt;\\CakeMigration</title>
<path fill="none" stroke="black" d="M860.253,-493.995C848.886,-489.838 838.206,-483.777 830,-475 713.795,-350.716 876.143,-221.443 758,-99 750.347,-91.0685 740.877,-85.2535 730.656,-81.0209"/>
<polygon fill="none" stroke="black" points="731.684,-77.6706 721.089,-77.5632 729.304,-84.2538 731.684,-77.6706"/>
</g>
<!-- \\PrivateSpaceComponent -->
<g id="node53" class="node"><title>\\PrivateSpaceComponent</title>
<polygon fill="none" stroke="black" points="1012,-1060 854,-1060 854,-1024 1012,-1024 1012,-1060"/>
<text text-anchor="middle" x="933" y="-1039.1" font-family="Courier,monospace" font-size="11.00">PrivateSpaceComponent</text>
</g>
<!-- \\PrivateSpaceComponent&#45;&gt;\\Component -->
<g id="edge93" class="edge"><title>\\PrivateSpaceComponent&#45;&gt;\\Component</title>
<path fill="none" stroke="black" d="M853.755,-1032.09C844.729,-1028.02 836.467,-1022.48 830,-1015 641.099,-796.429 950.312,-584.576 758,-369 748.225,-358.042 734.994,-351.054 720.924,-346.686"/>
<polygon fill="none" stroke="black" points="721.644,-343.256 711.08,-344.064 719.842,-350.02 721.644,-343.256"/>
</g>
<!-- \\PrivateSpace -->
<g id="node54" class="node"><title>\\PrivateSpace</title>
<polygon fill="none" stroke="black" points="982,-466 884,-466 884,-430 982,-430 982,-466"/>
<text text-anchor="middle" x="933" y="-445.1" font-family="Courier,monospace" font-size="11.00">PrivateSpace</text>
</g>
<!-- \\Space -->
<g id="node115" class="node"><title>\\Space</title>
<ellipse fill="none" stroke="black" cx="640" cy="-18" rx="43.8406" ry="18.3848"/>
<text text-anchor="middle" x="640" y="-14.4" font-family="Times Roman,serif" font-size="14.00" fill="gray">\Space</text>
</g>
<!-- \\PrivateSpace&#45;&gt;\\Space -->
<g id="edge95" class="edge"><title>\\PrivateSpace&#45;&gt;\\Space</title>
<path fill="none" stroke="black" d="M930.861,-429.713C922.367,-365.789 885.044,-150.503 758,-45 740.274,-30.2799 716.089,-23.2159 694.227,-19.9502"/>
<polygon fill="none" stroke="black" points="694.409,-16.4456 684.05,-18.6691 693.535,-23.3908 694.409,-16.4456"/>
</g>
<!-- \\PrivateSpaceBehavior -->
<g id="node55" class="node"><title>\\PrivateSpaceBehavior</title>
<polygon fill="none" stroke="black" points="1009,-682 857,-682 857,-646 1009,-646 1009,-682"/>
<text text-anchor="middle" x="933" y="-661.1" font-family="Courier,monospace" font-size="11.00">PrivateSpaceBehavior</text>
</g>
<!-- \\PrivateSpaceBehavior&#45;&gt;\\ModelBehavior -->
<g id="edge97" class="edge"><title>\\PrivateSpaceBehavior&#45;&gt;\\ModelBehavior</title>
<path fill="none" stroke="black" d="M856.959,-654.948C846.792,-650.828 837.356,-645.053 830,-637 699.318,-493.927 890.914,-348.002 758,-207 750.736,-199.293 741.758,-193.575 732.025,-189.36"/>
<polygon fill="none" stroke="black" points="733.083,-186.019 722.491,-185.764 730.613,-192.568 733.083,-186.019"/>
</g>
</g>
</svg>
